<svg width="541" height="321" viewBox="0 0 541 321" fill="none" xmlns="http://www.w3.org/2000/svg">
<g clip-path="url(#clip0_376_55130)">
<rect width="540" height="320" transform="translate(0.5 0.568359)" fill="#F8F9FB"/>
<rect x="-0.937012" y="294.817" width="539.672" height="26.0502" fill="#F9D2C3"/>
<path d="M251.267 206.679H206.73V281.933H251.267V206.679Z" fill="#ADB4C6"/>
<path d="M280.914 282.834H183.014V291.846H280.914V282.834Z" fill="#C8CDD9"/>
<path d="M356.338 233.417H101.522C98.2126 233.417 95.4548 230.413 95.4548 226.808V65.1853C95.4548 61.5803 98.2126 58.5762 101.522 58.5762H356.338C359.647 58.5762 362.405 61.5803 362.405 65.1853V226.808C362.405 230.563 359.785 233.417 356.338 233.417Z" fill="#C8CDD9"/>
<path d="M347.544 220.035H108.585C105.413 220.035 102.794 217.181 102.794 213.726V73.8839C102.794 70.4291 105.413 67.5752 108.585 67.5752H347.544C350.716 67.5752 353.335 70.4291 353.335 73.8839V213.726C353.335 217.181 350.716 220.035 347.544 220.035Z" fill="white"/>
<path d="M215.697 222.948H172.803C171.486 222.948 170.545 222.155 170.545 221.045V220.569C170.545 219.459 171.486 218.667 172.803 218.667H215.697C217.014 218.667 217.954 219.459 217.954 220.569V221.045C217.954 222.155 216.826 222.948 215.697 222.948Z" fill="#242831"/>
<rect width="27.3215" height="36.7124" transform="matrix(1 0 -0.518922 0.854821 209.29 189.425)" fill="#242831"/>
<circle r="2.49214" transform="matrix(1 0 -0.416757 0.909018 217.954 201.225)" fill="#AAAEB8"/>
<rect x="188.971" y="218.667" width="28.983" height="1.22838" fill="#D4D6DB"/>
<path d="M74.9886 48.2007L168.569 48.2007C170.778 48.2007 172.569 49.9915 172.569 52.2007V108.602C172.569 110.811 174.36 112.602 176.569 112.602H286.86C289.069 112.602 290.86 114.393 290.86 116.602V203.805V235.735" stroke="#8995B3" stroke-linecap="round"/>
<path d="M196.89 122.778V163.847" stroke="#8995B3" stroke-linecap="round" stroke-dasharray="2 2"/>
<rect x="25.923" y="23.3223" width="93.6538" height="62.5955" rx="2.5" fill="#FDEAC1"/>
<g style="mix-blend-mode:luminosity">
<rect x="31.423" y="28.8223" width="82.6538" height="16.5723" rx="1" fill="#F1F4F8"/>
</g>
<circle cx="66.7499" cy="48.3945" r="1" fill="#F8AD07"/>
<circle cx="72.7499" cy="48.3945" r="1" fill="#F8AD07"/>
<circle cx="78.7499" cy="48.3945" r="1" fill="#F8AD07"/>
<g style="mix-blend-mode:luminosity">
<rect x="31.423" y="51.3945" width="39.3269" height="29.0233" rx="1" fill="#F1F4F8"/>
</g>
<g style="mix-blend-mode:luminosity">
<rect x="74.7499" y="51.3945" width="39.3269" height="29.0233" rx="1" fill="#F1F4F8"/>
</g>
<rect x="25.923" y="23.3223" width="93.6538" height="62.5955" rx="2.5" stroke="#F8AD07"/>
<rect x="128.815" y="80.9175" width="93.6538" height="62.5955" rx="2.5" fill="#FDEAC1"/>
<g style="mix-blend-mode:luminosity">
<rect x="134.315" y="86.4175" width="25.5513" height="33.9422" rx="1" fill="#F1F4F8"/>
</g>
<g style="mix-blend-mode:luminosity">
<rect x="134.315" y="123.36" width="25.5513" height="2.65332" rx="1" fill="#F8F9FB"/>
</g>
<g style="mix-blend-mode:luminosity">
<rect x="134.315" y="129.013" width="25.5513" height="1" rx="0.5" fill="#C8CDD9"/>
<rect x="134.315" y="131.013" width="3.29224" height="1" rx="0.5" fill="#F8F9FB"/>
<rect x="138.607" y="131.013" width="21.259" height="1" rx="0.5" fill="#F8F9FB"/>
<rect x="134.315" y="133.013" width="8.24646" height="1" rx="0.5" fill="#F8F9FB"/>
<rect x="143.561" y="133.013" width="16.3048" height="1" rx="0.5" fill="#F8F9FB"/>
<rect x="134.315" y="135.013" width="10.8024" height="1" rx="0.5" fill="#F8F9FB"/>
<rect x="146.117" y="135.013" width="13.7489" height="1" rx="0.5" fill="#F8F9FB"/>
<rect x="134.315" y="137.013" width="8.22253" height="1" rx="0.5" fill="#F8F9FB"/>
<rect x="143.537" y="137.013" width="16.3287" height="1" rx="0.5" fill="#F8F9FB"/>
</g>
<g style="mix-blend-mode:luminosity">
<rect x="162.866" y="86.4175" width="25.5513" height="33.9422" rx="1" fill="#F8F9FB"/>
</g>
<g style="mix-blend-mode:luminosity">
<rect x="162.866" y="123.36" width="25.5513" height="2.65332" rx="1" fill="#F8F9FB"/>
</g>
<g style="mix-blend-mode:luminosity">
<rect x="162.866" y="129.013" width="25.5513" height="1" rx="0.5" fill="#C8CDD9"/>
<rect x="162.866" y="131.013" width="11.9482" height="1" rx="0.5" fill="#F8F9FB"/>
<rect x="175.814" y="131.013" width="12.603" height="1" rx="0.5" fill="#F8F9FB"/>
<rect x="162.866" y="133.013" width="2.00134" height="1" rx="0.5" fill="#F8F9FB"/>
<rect x="165.868" y="133.013" width="22.5499" height="1" rx="0.5" fill="#F8F9FB"/>
<rect x="162.866" y="135.013" width="6.69849" height="1" rx="0.5" fill="#F8F9FB"/>
<rect x="170.565" y="135.013" width="17.8528" height="1" rx="0.5" fill="#F8F9FB"/>
<rect x="162.866" y="137.013" width="8.22253" height="1" rx="0.5" fill="#F8F9FB"/>
<rect x="172.089" y="137.013" width="16.3287" height="1" rx="0.5" fill="#F8F9FB"/>
</g>
<g style="mix-blend-mode:luminosity">
<rect x="191.417" y="86.4175" width="25.5513" height="33.9422" rx="1" fill="#F1F4F8"/>
</g>
<g style="mix-blend-mode:luminosity">
<rect x="191.417" y="123.36" width="25.5513" height="2.65332" rx="1" fill="#F8F9FB"/>
</g>
<g style="mix-blend-mode:luminosity">
<rect x="191.417" y="129.013" width="25.5513" height="1" rx="0.5" fill="#C8CDD9"/>
<rect x="191.417" y="131.013" width="6.87756" height="1" rx="0.5" fill="#F8F9FB"/>
<rect x="199.295" y="131.013" width="17.6737" height="1" rx="0.5" fill="#F8F9FB"/>
<rect x="191.417" y="133.013" width="11.0221" height="1" rx="0.5" fill="#F8F9FB"/>
<rect x="203.44" y="133.013" width="13.5292" height="1" rx="0.5" fill="#F8F9FB"/>
<rect x="191.417" y="135.013" width="3.70007" height="1" rx="0.5" fill="#F8F9FB"/>
<rect x="196.118" y="135.013" width="20.8512" height="1" rx="0.5" fill="#F8F9FB"/>
<rect x="191.417" y="137.013" width="8.22253" height="1" rx="0.5" fill="#F8F9FB"/>
<rect x="200.64" y="137.013" width="16.3287" height="1" rx="0.5" fill="#F8F9FB"/>
</g>
<rect x="128.815" y="80.9175" width="93.6538" height="62.5955" rx="2.5" stroke="#F8AD07"/>
<rect x="239.782" y="80.9175" width="93.6538" height="62.5955" rx="2.5" fill="#FDEAC1"/>
<g style="mix-blend-mode:luminosity">
<rect x="245.282" y="86.4175" width="32.4288" height="44.5955" rx="1" fill="#F1F4F8"/>
</g>
<g style="mix-blend-mode:luminosity">
<rect x="284.211" y="86.9175" width="43.225" height="13" rx="0.5" stroke="#ADB4C6"/>
</g>
<g style="mix-blend-mode:luminosity">
<rect x="283.711" y="104.417" width="44.225" height="1" rx="0.5" fill="#C8CDD9"/>
<rect x="283.711" y="106.417" width="6.87756" height="1" rx="0.5" fill="#F8F9FB"/>
<rect x="291.589" y="106.417" width="36.3474" height="1" rx="0.5" fill="#F8F9FB"/>
<rect x="283.711" y="108.417" width="8.22253" height="1" rx="0.5" fill="#F8F9FB"/>
<rect x="292.934" y="108.417" width="35.0024" height="1" rx="0.5" fill="#F8F9FB"/>
<rect x="283.711" y="110.417" width="11.0221" height="1" rx="0.5" fill="#F8F9FB"/>
<rect x="295.733" y="110.417" width="32.2029" height="1" rx="0.5" fill="#F8F9FB"/>
<rect x="283.711" y="112.417" width="3.70007" height="1" rx="0.5" fill="#F8F9FB"/>
<rect x="288.411" y="112.417" width="39.5249" height="1" rx="0.5" fill="#F8F9FB"/>
<rect x="283.711" y="114.417" width="8.22253" height="1" rx="0.5" fill="#F8F9FB"/>
<rect x="292.934" y="114.417" width="35.0024" height="1" rx="0.5" fill="#F8F9FB"/>
<rect x="283.711" y="116.417" width="11.0221" height="1" rx="0.5" fill="#F8F9FB"/>
<rect x="295.733" y="116.417" width="32.2029" height="1" rx="0.5" fill="#F8F9FB"/>
</g>
<circle cx="280.609" cy="137.013" r="1" fill="#F8AD07"/>
<circle cx="286.609" cy="137.013" r="1" fill="#F8AD07"/>
<circle cx="292.609" cy="137.013" r="1" fill="#F8AD07"/>
<rect x="239.782" y="80.9175" width="93.6538" height="62.5955" rx="2.5" stroke="#F8AD07"/>
<rect x="239.782" y="175.381" width="93.6538" height="62.5955" rx="2.5" fill="#FDEAC1"/>
<g style="mix-blend-mode:luminosity">
<rect x="245.782" y="181.381" width="23.8846" height="9.46484" rx="0.5" stroke="#ADB4C6"/>
</g>
<g style="mix-blend-mode:luminosity">
<rect x="245.282" y="215.477" width="24.8846" height="1" rx="0.5" fill="#C8CDD9"/>
<rect x="245.282" y="217.477" width="6.87756" height="1" rx="0.5" fill="#F8F9FB"/>
<rect x="253.16" y="217.477" width="17.007" height="1" rx="0.5" fill="#F8F9FB"/>
<rect x="245.282" y="219.477" width="8.22253" height="1" rx="0.5" fill="#F8F9FB"/>
<rect x="254.505" y="219.477" width="15.6621" height="1" rx="0.5" fill="#F8F9FB"/>
<rect x="245.282" y="221.477" width="11.0221" height="1" rx="0.5" fill="#F8F9FB"/>
<rect x="257.305" y="221.477" width="12.8625" height="1" rx="0.5" fill="#F8F9FB"/>
<rect x="245.282" y="223.477" width="3.70007" height="1" rx="0.5" fill="#F8F9FB"/>
<rect x="249.983" y="223.477" width="20.1845" height="1" rx="0.5" fill="#F8F9FB"/>
<rect x="245.282" y="225.477" width="8.22253" height="1" rx="0.5" fill="#F8F9FB"/>
<rect x="254.505" y="225.477" width="15.6621" height="1" rx="0.5" fill="#F8F9FB"/>
<rect x="245.282" y="227.477" width="11.0221" height="1" rx="0.5" fill="#F8F9FB"/>
<rect x="257.305" y="227.477" width="12.8625" height="1" rx="0.5" fill="#F8F9FB"/>
</g>
<g style="mix-blend-mode:luminosity">
<rect x="274.167" y="180.881" width="24.8846" height="23.6143" rx="1" fill="#F1F4F8"/>
</g>
<g style="mix-blend-mode:luminosity">
<rect x="274.167" y="208.496" width="24.8846" height="23.9813" rx="1" fill="white"/>
</g>
<g style="mix-blend-mode:luminosity">
<rect x="303.552" y="181.381" width="23.8846" height="9.46484" rx="0.5" stroke="#ADB4C6"/>
</g>
<g style="mix-blend-mode:luminosity">
<rect x="303.052" y="215.477" width="24.8846" height="1" rx="0.5" fill="#C8CDD9"/>
<rect x="303.052" y="217.477" width="6.87756" height="1" rx="0.5" fill="#F8F9FB"/>
<rect x="310.929" y="217.477" width="17.007" height="1" rx="0.5" fill="#F8F9FB"/>
<rect x="303.052" y="219.477" width="8.22253" height="1" rx="0.5" fill="#F8F9FB"/>
<rect x="312.274" y="219.477" width="15.6621" height="1" rx="0.5" fill="#F8F9FB"/>
<rect x="303.052" y="221.477" width="11.0221" height="1" rx="0.5" fill="#F8F9FB"/>
<rect x="315.074" y="221.477" width="12.8625" height="1" rx="0.5" fill="#F8F9FB"/>
<rect x="303.052" y="223.477" width="3.70007" height="1" rx="0.5" fill="#F8F9FB"/>
<rect x="307.752" y="223.477" width="20.1845" height="1" rx="0.5" fill="#F8F9FB"/>
<rect x="303.052" y="225.477" width="8.22253" height="1" rx="0.5" fill="#F8F9FB"/>
<rect x="312.274" y="225.477" width="15.6621" height="1" rx="0.5" fill="#F8F9FB"/>
<rect x="303.052" y="227.477" width="11.0221" height="1" rx="0.5" fill="#F8F9FB"/>
<rect x="315.074" y="227.477" width="12.8625" height="1" rx="0.5" fill="#F8F9FB"/>
</g>
<rect x="239.782" y="175.381" width="93.6538" height="62.5955" rx="2.5" stroke="#F8AD07"/>
<path d="M78.7185 210.595V233.863C78.7185 236.624 80.9571 238.863 83.7185 238.863H134.718C137.479 238.863 139.718 241.101 139.718 243.863V297.093C139.718 299.855 141.956 302.093 144.718 302.093H230.473" stroke="#8995B3" stroke-linecap="round" stroke-linejoin="round"/>
<path d="M78.6176 201.166V185.709M78.6176 179.843V170.688" stroke="#8995B3" stroke-linecap="round" stroke-linejoin="round"/>
<path d="M240.219 302.094L255.676 302.094M261.542 302.094L270.697 302.094" stroke="#8995B3" stroke-linecap="round" stroke-linejoin="round"/>
<path d="M172.983 224.755H211.441H267.983C270.744 224.755 272.983 226.993 272.983 229.755L272.983 238.349C272.982 241.111 275.221 243.349 277.983 243.349H335.836C338.597 243.349 340.836 241.111 340.836 238.349V193.752" stroke="#8995B3" stroke-linecap="round" stroke-linejoin="round"/>
<path d="M130.695 73.4979L112.459 73.4979C110.802 73.4979 109.459 74.8411 109.459 76.4979L109.459 81.9411M109.459 88.7928L109.458 97.9473" stroke="#8995B3" stroke-linecap="round" stroke-linejoin="round"/>
<path d="M340.317 183.744V168.286M340.317 162.421V153.266" stroke="#8995B3" stroke-linecap="round" stroke-linejoin="round"/>
<path d="M340.317 96.0869V77.8504C340.317 76.1936 338.973 74.8504 337.317 74.8504H331.873M325.022 74.8503L315.867 74.8501" stroke="#8995B3" stroke-linecap="round" stroke-linejoin="round"/>
<path d="M214.095 307.842H209.633L205.122 306.411V302.514L209.633 304.684L214.095 305.721V307.842Z" fill="#E4003A"/>
<path d="M203.735 307.842H200.364V302.514H205.123V306.411L203.735 307.842Z" fill="#E4003A"/>
<path d="M143.636 229.122L173.78 236.524L205.057 302.514H200.298L159.001 240.648L125.195 238.545L143.636 229.122Z" fill="#303642"/>
<path d="M163.683 306.679L160.402 303.597L158.182 299.476L160.839 296.634L162.583 301.279L165.128 305.155L163.683 306.679Z" fill="#E4003A"/>
<path d="M156.387 300.199L154.452 298.321L158.079 294.478L160.866 296.768L158.579 299.913L156.387 300.199Z" fill="#E4003A"/>
<path d="M113.001 214.074L142.149 218.119L177.543 227.395C180.517 228.036 183.571 229.445 184.929 232.131C186.286 234.818 160.776 296.669 160.776 296.669L158.04 294.445L172.281 238.644H126.732C117.71 238.298 110.919 230.306 112.109 221.376L113.001 214.074Z" fill="#303642"/>
<path d="M113.343 214.712L141.332 218.119L139.798 208.741L156.005 174.965C158.075 169.493 154.082 163.725 148.314 163.725H108.382C102.614 163.725 98.6208 169.641 100.691 174.965L107.015 198.527L113.343 214.712Z" fill="#870B58"/>
<path d="M123.024 213.271L100.691 173.339L111.931 166.979L130.27 199.516L173.16 199.368L172.421 204.841L123.024 213.271Z" fill="#870B58"/>
<path d="M173.161 199.368L178.781 199.96C180.26 200.108 181.591 200.847 182.478 202.03L185.288 205.728C185.436 206.024 185.288 206.319 184.992 206.171L179.816 204.101C179.224 203.953 178.633 203.953 178.189 204.397C177.154 205.284 175.823 205.58 174.64 205.284L172.569 204.692L173.161 199.368Z" fill="#F9D2C3"/>
<path d="M141.297 139.196L138.561 138.588L137.09 145.289L139.826 145.896L141.297 139.196Z" fill="#870B58"/>
<path d="M131.455 155.718L128.044 154.983C125.487 154.37 123.781 151.797 124.39 149.224L125.852 142.607C126.704 138.931 130.358 136.48 134.012 137.338L134.621 137.46C138.275 138.318 140.711 141.994 139.859 145.67L138.641 151.062C137.91 154.37 134.743 156.453 131.455 155.718Z" fill="#F3A687"/>
<path d="M128.41 147.876L125.243 147.141C124.269 146.896 123.66 146.038 123.903 145.058L125.121 139.176C125.487 137.583 127.07 136.48 128.653 136.848L130.602 137.215L128.41 147.876Z" fill="#870B58"/>
<path d="M128.166 146.406C129.108 146.406 129.871 145.638 129.871 144.69C129.871 143.743 129.108 142.975 128.166 142.975C127.224 142.975 126.461 143.743 126.461 144.69C126.461 145.638 127.224 146.406 128.166 146.406Z" fill="#F3A687"/>
<path d="M136.448 141.259L126.339 139.053L126.705 137.583C127.314 134.887 129.993 133.172 132.673 133.784L143.269 135.99L143.025 136.97C142.295 140.034 139.372 141.872 136.448 141.259Z" fill="#870B58"/>
<path d="M132.673 149.714H125.365L121.224 165.276H137.179L132.673 149.714Z" fill="#F3A687"/>
<path d="M121.224 165.276L131.82 168.707L137.179 165.276H121.224Z" fill="#F3A687"/>
<path d="M192.971 176.644L197.409 176.788C198.814 176.854 200.156 176.345 201.102 175.343L204.051 172.31C204.239 172.146 204.062 171.776 203.727 171.859L198.559 173.018C198.001 173.156 197.451 172.937 197.088 172.554C196.256 171.637 194.97 171.187 193.746 171.313L191.707 171.521L192.971 176.644Z" fill="#F8BFCD"/>
<path d="M160.824 213.823L143.537 171.468L155.286 166.688L167.37 196.378L191.752 171.468L192.989 176.618L169.468 214.494C167.286 217.933 162.251 217.514 160.824 213.823Z" fill="#870B58"/>
<g clip-path="url(#clip1_376_55130)">
<path d="M459.195 264.188C463.82 271.932 460.946 282.887 456.787 289.775C456.529 287.615 449.911 270.852 448.033 267.252C445.193 261.84 445.152 256.443 448.033 249.478C450.914 242.512 459.195 233.765 459.195 233.765C459.195 233.765 454.57 256.443 459.195 264.188Z" fill="#F8AD07"/>
<path fill-rule="evenodd" clip-rule="evenodd" d="M448.127 242.148C450.009 237.781 451.239 235.707 452.045 234.285C451.275 235.643 449.964 239.919 449.052 242.602C448.137 245.297 447.482 248.231 447.633 250.727C447.826 253.923 448.542 256.147 449.235 257.97C449.353 258.279 449.473 258.584 449.59 258.882C449.814 259.452 450.031 260.002 450.208 260.522C450.483 261.332 450.69 262.143 450.727 263.009C450.796 264.597 450.693 265.914 450.573 266.838C450.513 267.3 450.448 267.665 450.397 267.917C450.372 268.043 450.35 268.14 450.334 268.208C450.326 268.242 450.32 268.269 450.315 268.287L450.31 268.31L450.308 268.316L450.308 268.319L450.307 268.32C450.307 268.32 450.307 268.32 449.83 268.139C449.354 267.958 449.353 267.958 449.353 267.958L449.354 267.957L449.357 267.944C449.36 267.932 449.365 267.912 449.371 267.885C449.384 267.83 449.403 267.746 449.425 267.635C449.47 267.412 449.529 267.079 449.585 266.652C449.696 265.797 449.793 264.564 449.729 263.071C449.7 262.397 449.537 261.728 449.282 260.977C449.114 260.484 448.919 259.987 448.703 259.439C448.583 259.134 448.457 258.814 448.326 258.47C447.605 256.575 446.84 254.205 446.636 250.814C446.468 248.042 447.191 244.903 448.127 242.148Z" fill="#870B58"/>
<path d="M461.977 308.562H451.366V310.862H461.977V308.562Z" fill="#870B58"/>
<path d="M448.179 270.692C450.362 272.039 452.193 273.851 453.484 276.034C453.672 276.359 453.86 276.685 454 277.01C455.057 279.263 455.573 281.33 455.832 282.886C455.832 289.966 453.484 288.691 451.247 288.691C447.715 288.691 446.609 283.687 445.949 281.725C445.29 279.763 445.655 277.01 444.949 274.286C444.243 271.563 439.958 267.376 439.958 267.376C439.958 267.376 442.333 267.092 448.179 270.692Z" fill="#F8AD07"/>
<path d="M452.285 285.487C449.533 272.316 440.902 267.674 440.902 267.674C451.062 272.026 452.407 281.961 453.015 285.328L452.285 285.487Z" fill="#870B58"/>
<path d="M466.186 258.828C464.003 260.865 462.172 263.605 460.88 266.906C460.693 267.398 460.505 267.89 460.364 268.381C459.307 271.788 458.791 274.914 458.533 277.268C458.533 287.974 460.88 286.045 463.117 286.045C466.649 286.045 468.041 279.715 468.415 275.512C468.789 271.31 468.71 268.381 469.415 264.263C470.121 260.145 474.406 253.814 474.406 253.814C474.406 253.814 472.031 253.384 466.186 258.828Z" fill="#F8AD07"/>
<path d="M462.483 285.02C465.137 262.572 473.462 254.659 473.462 254.659C463.662 262.077 462.365 279.009 461.778 284.749L462.483 285.02Z" fill="#870B58"/>
<path d="M466.179 284.429H447.164L443.971 299.295C442.939 304.056 446.624 308.562 451.554 308.562H461.813C466.743 308.562 470.428 304.056 469.396 299.295L466.179 284.429Z" fill="#E94E0F"/>
</g>
</g>
<defs>
<clipPath id="clip0_376_55130">
<rect width="540" height="320" fill="white" transform="translate(0.5 0.568359)"/>
</clipPath>
<clipPath id="clip1_376_55130">
<rect width="36.9741" height="78.3852" fill="white" transform="translate(438.5 232.477)"/>
</clipPath>
</defs>
</svg>
