<svg width="541" height="321" viewBox="0 0 541 321" fill="none" xmlns="http://www.w3.org/2000/svg">
<g clip-path="url(#clip0_376_54851)">
<rect width="540" height="320" transform="translate(0.5 0.568359)" fill="#F8F9FB"/>
<rect x="-0.937012" y="294.817" width="539.672" height="26.0502" fill="#F9D2C3"/>
<rect x="0.361259" y="0.480365" width="159.052" height="108.304" rx="2.5" transform="matrix(1 0 -0.277482 0.960731 104.684 32.5789)" fill="#FDEAC1"/>
<g style="mix-blend-mode:luminosity">
<rect width="41.946" height="97.3037" rx="1" transform="matrix(1 0 -0.277482 0.960731 108.885 38.3242)" fill="#F1F4F8"/>
</g>
<g style="mix-blend-mode:luminosity">
<rect width="48.0529" height="21.3259" rx="1" transform="matrix(1 0 -0.277482 0.960731 156.831 38.3242)" fill="#F1F4F8"/>
</g>
<g style="mix-blend-mode:luminosity">
<rect width="48.0529" height="21.3259" rx="1" transform="matrix(1 0 -0.277482 0.960731 208.884 38.3242)" fill="#F1F4F8"/>
</g>
<g style="mix-blend-mode:luminosity">
<rect width="48.0529" height="21.3259" rx="1" transform="matrix(1 0 -0.277482 0.960731 149.804 62.6558)" fill="#F1F4F8"/>
</g>
<g style="mix-blend-mode:luminosity">
<rect width="48.0529" height="21.3259" rx="1" transform="matrix(1 0 -0.277482 0.960731 201.857 62.6558)" fill="#F1F4F8"/>
</g>
<g style="mix-blend-mode:luminosity">
<rect width="48.0529" height="21.3259" rx="1" transform="matrix(1 0 -0.277482 0.960731 142.776 86.9868)" fill="#F1F4F8"/>
</g>
<g style="mix-blend-mode:luminosity">
<rect width="48.0529" height="21.3259" rx="1" transform="matrix(1 0 -0.277482 0.960731 194.829 86.9868)" fill="#F1F4F8"/>
</g>
<g style="mix-blend-mode:luminosity">
<rect width="48.0529" height="21.3259" rx="1" transform="matrix(1 0 -0.277482 0.960731 135.749 111.318)" fill="#F1F4F8"/>
</g>
<g style="mix-blend-mode:luminosity">
<rect width="48.0529" height="21.3259" rx="1" transform="matrix(1 0 -0.277482 0.960731 187.802 111.318)" fill="#F1F4F8"/>
</g>
<rect x="0.361259" y="0.480365" width="159.052" height="108.304" rx="2.5" transform="matrix(1 0 -0.277482 0.960731 104.684 32.5789)" stroke="#F8AD07"/>
<mask id="mask0_376_54851" style="mask-type:alpha" maskUnits="userSpaceOnUse" x="101" y="73" width="82" height="51">
<rect width="66.3961" height="51.5039" transform="matrix(1 0 -0.285354 0.958422 116.046 73.9785)" fill="#D9D9D9"/>
</mask>
<g mask="url(#mask0_376_54851)">
<g style="mix-blend-mode:luminosity">
<path d="M125.917 94.0415L88.2066 118.819H173.285L178.257 101.604L169.572 90.7383C168.539 89.4465 166.408 89.3135 164.523 90.4231L143.181 102.981C141.308 104.083 139.19 103.96 138.15 102.687L131.199 94.1796C130.105 92.8416 127.833 92.7821 125.917 94.0415Z" fill="#E3E6EF"/>
</g>
</g>
<mask id="mask1_376_54851" style="mask-type:alpha" maskUnits="userSpaceOnUse" x="81" y="58" width="105" height="50">
<rect width="89.3765" height="51.5039" transform="matrix(1 0 -0.285354 0.958422 96.1434 58.3638)" fill="#D9D9D9"/>
</mask>
<g mask="url(#mask1_376_54851)">
<path d="M86.9732 119.012L124.684 94.2338C126.6 92.9745 128.872 93.034 129.965 94.372L136.917 102.879C137.957 104.152 140.074 104.276 141.948 103.173L163.289 90.6155C165.175 89.5059 167.306 89.6389 168.338 90.9306L177.024 101.796" stroke="black"/>
</g>
<g style="mix-blend-mode:luminosity">
<circle r="12.1" transform="matrix(1 0 -0.277482 0.960731 139.362 68.8954)" fill="#C8CDD9"/>
</g>
<path d="M136.004 80.5202C129.321 80.5202 125.407 75.3156 127.262 68.8954C129.116 62.4751 136.036 57.2705 142.719 57.2705" stroke="#555D71" stroke-linecap="round"/>
<rect x="0.361259" y="0.480365" width="127.523" height="86.7721" rx="2.5" transform="matrix(1 0 -0.277482 0.960731 156.814 113.596)" fill="#FDEAC1"/>
<g style="mix-blend-mode:luminosity">
<rect width="36.2617" height="23.2574" rx="3" transform="matrix(1 0 -0.277482 0.960731 161.016 119.341)" fill="#F1F4F8"/>
<rect width="36.2617" height="23.2574" rx="3" transform="matrix(1 0 -0.277482 0.960731 200.277 119.341)" fill="#F1F4F8"/>
<rect width="36.2617" height="23.2574" rx="3" transform="matrix(1 0 -0.277482 0.960731 153.73 144.567)" fill="#F1F4F8"/>
<rect width="36.2617" height="23.2574" rx="3" transform="matrix(1 0 -0.277482 0.960731 192.991 144.567)" fill="#F1F4F8"/>
<rect width="36.2617" height="23.2574" rx="3" transform="matrix(1 0 -0.277482 0.960731 146.444 169.794)" fill="#F1F4F8"/>
<rect width="36.2617" height="23.2574" rx="3" transform="matrix(1 0 -0.277482 0.960731 185.705 169.794)" fill="#F1F4F8"/>
</g>
<g style="mix-blend-mode:luminosity">
<rect width="37" height="75.7721" rx="3" transform="matrix(1 0 -0.277482 0.960731 240.539 119.341)" fill="#C8CDD9"/>
</g>
<rect x="0.361259" y="0.480365" width="127.523" height="86.7721" rx="2.5" transform="matrix(1 0 -0.277482 0.960731 156.814 113.596)" stroke="#F8AD07"/>
<g opacity="0.7">
<line x1="217.891" y1="161.077" x2="244.342" y2="134.626" stroke="white" stroke-linecap="round"/>
<line x1="237.876" y1="150.851" x2="254.101" y2="134.626" stroke="white" stroke-linecap="round"/>
</g>
<path fill-rule="evenodd" clip-rule="evenodd" d="M201.269 174.4L193.479 182.19L191.531 180.242L199.321 172.453L201.269 174.4Z" fill="#E4003A"/>
<path fill-rule="evenodd" clip-rule="evenodd" d="M197.373 166.61L201.268 162.715L203.216 164.663L199.321 168.558L197.373 166.61Z" fill="#F8AD07"/>
<path fill-rule="evenodd" clip-rule="evenodd" d="M201.269 170.505L205.163 166.61L207.111 168.557L203.216 172.452L201.269 170.505Z" fill="#F8AD07"/>
<path fill-rule="evenodd" clip-rule="evenodd" d="M205.164 174.4L209.058 170.505L211.006 172.453L207.111 176.348L205.164 174.4Z" fill="#F8AD07"/>
<path fill-rule="evenodd" clip-rule="evenodd" d="M199.321 168.557L201.268 166.61L203.216 168.557L201.268 170.505L199.321 168.557Z" fill="#F8AD07"/>
<path fill-rule="evenodd" clip-rule="evenodd" d="M203.216 172.453L204.19 171.479L206.137 173.426L205.163 174.4L203.216 172.453Z" fill="#F8AD07"/>
<path fill-rule="evenodd" clip-rule="evenodd" d="M201.269 166.61L205.163 162.715L207.111 164.663L203.216 168.558L201.269 166.61Z" fill="#870B58"/>
<path fill-rule="evenodd" clip-rule="evenodd" d="M204.19 171.478L209.058 166.61L211.006 168.557L206.137 173.426L204.19 171.478Z" fill="#870B58"/>
<path fill-rule="evenodd" clip-rule="evenodd" d="M203.216 160.768L205.163 162.715L203.216 164.663L201.269 162.715L203.216 160.768Z" fill="#870B58"/>
<path fill-rule="evenodd" clip-rule="evenodd" d="M207.111 164.662L209.058 166.61L207.111 168.557L205.164 166.61L207.111 164.662Z" fill="#870B58"/>
<path fill-rule="evenodd" clip-rule="evenodd" d="M211.005 168.558L212.953 170.505L211.005 172.453L209.058 170.505L211.005 168.558Z" fill="#870B58"/>
<path fill-rule="evenodd" clip-rule="evenodd" d="M197.374 166.61L207.111 176.347L205.163 178.295L195.426 168.557L197.374 166.61Z" fill="#E4003A"/>
<path d="M70.6312 213.297V244.258C70.6312 247.02 72.8697 249.258 75.6312 249.258H146.134C148.896 249.258 151.134 251.497 151.134 254.258V305.174C151.134 307.936 153.373 310.174 156.134 310.174H270.907" stroke="#8995B3" stroke-linecap="round" stroke-linejoin="round"/>
<path d="M70.4979 200.854V180.454M70.4979 172.714V160.631" stroke="#8995B3" stroke-linecap="round" stroke-linejoin="round"/>
<path d="M285.204 310.174L305.604 310.174M313.344 310.174L325.427 310.174" stroke="#8995B3" stroke-linecap="round" stroke-linejoin="round"/>
<path d="M196.4 229.87H227.356H302.859C305.62 229.87 307.859 232.109 307.859 234.87L307.859 249.411C307.859 252.172 310.097 254.411 312.859 254.411H391.618C394.38 254.411 396.618 252.172 396.618 249.411V205.023" stroke="#8995B3" stroke-linecap="round" stroke-linejoin="round"/>
<path d="M396.619 191.797V171.397M396.619 163.656V151.573" stroke="#8995B3" stroke-linecap="round" stroke-linejoin="round"/>
<path d="M229.62 120.353L250.02 120.353M257.761 120.353L269.844 120.353" stroke="#8995B3" stroke-linecap="round" stroke-linejoin="round"/>
<path d="M397.04 129.613V106.586C397.04 103.825 394.801 101.586 392.04 101.586H385.897M376.854 101.586L364.773 101.586" stroke="#8995B3" stroke-linecap="round" stroke-linejoin="round"/>
<path d="M262.838 73.8149L255.426 98.7103C254.953 100.298 255.913 101.586 257.57 101.586H265.57M274.497 101.586L286.424 101.586" stroke="#8995B3" stroke-linecap="round" stroke-linejoin="round"/>
<path d="M101.563 64.7751L108.785 39.7705C109.091 38.7093 110.235 37.849 111.34 37.849H118.945M126.739 37.8489L137.153 37.8486" stroke="#8995B3" stroke-linecap="round" stroke-linejoin="round"/>
<path d="M187.016 239.92V311.447H182.292L175.752 239.92H187.016Z" fill="#F9D2C3"/>
<path d="M195.736 316.657H191.272L184.836 314.552L186.86 311.289L195.736 315.604V316.657Z" fill="#E4003A"/>
<path d="M185.511 316.657H182.137V311.289H186.86L184.836 314.552L185.511 316.657Z" fill="#E4003A"/>
<path d="M166.411 239.479L177.281 310.175L172.613 310.893L155.278 241.191L166.411 239.479Z" fill="#F9D2C3"/>
<path d="M184.663 317.382L180.335 316.29L174.61 312.673L177.371 310.005L184.921 316.362L184.663 317.382Z" fill="#E4003A"/>
<path d="M174.749 314.88L171.478 314.054L172.792 308.849L177.371 310.005L174.61 312.673L174.749 314.88Z" fill="#E4003A"/>
<path d="M110.403 220.34H156.391L157.326 166.866C157.17 165.814 156.858 164.866 156.391 163.972C154.886 161.077 151.875 159.182 148.502 159.182H122.341C117.929 159.182 114.192 162.445 113.517 166.866L110.403 220.34Z" fill="#870B58"/>
<path d="M161.241 203.767L149.515 170.131L156.055 163.499L169.811 192.99L187.287 180.317L191.121 183.278L172.178 206.728C168.57 210.045 162.82 208.505 161.241 203.767Z" fill="#870B58"/>
<path d="M187.491 180.362L189.781 177.221C190.513 176.252 191.75 175.564 193.035 175.318L197.028 174.786C197.263 174.762 197.416 175.08 197.192 175.215L193.465 178.284C193.017 178.554 192.84 179.131 193.004 179.559C193.238 180.65 192.871 181.693 192.128 182.552L190.83 183.803L187.491 180.362Z" fill="#F3A687"/>
<path d="M93.5297 211.308L93.1132 186.867C93.0181 184.374 94.7876 182.565 96.9586 182.679L129.564 183.306C130.78 183.335 131.934 183.843 132.775 184.72C133.615 185.597 134.073 186.77 134.048 187.983L133.244 212.74C133.208 213.952 132.694 215.101 131.812 215.937C130.931 216.774 129.755 217.229 128.539 217.204L97.3226 216.063C95.2874 215.934 93.4456 213.804 93.5297 211.308Z" fill="#E1C2D5"/>
<path d="M127.105 190.195C127.135 190.476 127.249 190.742 127.431 190.958C127.613 191.175 127.855 191.333 128.127 191.412C128.399 191.491 128.689 191.488 128.959 191.403C129.229 191.317 129.468 191.154 129.645 190.933C129.823 190.713 129.93 190.445 129.955 190.163C129.979 189.881 129.919 189.599 129.783 189.351C129.646 189.104 129.439 188.902 129.187 188.773C128.935 188.643 128.651 188.59 128.369 188.622C127.993 188.664 127.648 188.853 127.411 189.148C127.174 189.443 127.064 189.82 127.105 190.195Z" fill="#870B58"/>
<path d="M109.657 218.119L109.827 214.159L102.248 191.845L125.584 166.206L115.047 162.891L93.0912 187.628C91.1188 190.575 91.8893 192.995 93.7328 195.666L109.657 218.119Z" fill="#870B58"/>
<path d="M157.747 251.07L186.964 240.499C187.587 230.762 183.33 224.236 176.219 223.341L156.443 220.341H110.403L111.441 226.341C113.777 239.867 125.352 249.709 138.899 249.709L157.747 251.07Z" fill="#870B58"/>
<path d="M141.339 159.182V164.708C141.339 165.972 139.937 166.708 138.899 165.972L129.816 159.182H141.339Z" fill="#F9D2C3"/>
<path d="M129.763 151.446C131.971 151.446 133.76 149.702 133.76 147.551C133.76 145.4 131.971 143.656 129.763 143.656C127.556 143.656 125.767 145.4 125.767 147.551C125.767 149.702 127.556 151.446 129.763 151.446Z" fill="#303642"/>
<path d="M129.793 146.262H134.776V140.367H129.793V146.262Z" fill="#303642"/>
<path d="M131.165 143.551C131.165 144.183 131.684 144.709 132.307 144.709C132.93 144.709 133.449 144.183 133.449 143.551C133.449 142.92 132.93 142.394 132.307 142.394C131.632 142.446 131.165 142.92 131.165 143.551Z" fill="#F9D2C3"/>
<path d="M137.705 145.393H133.19L129.816 159.183H141.339L137.705 145.393Z" fill="#F9D2C3"/>
<path d="M138.795 150.656H135.11C133.501 150.656 132.151 149.34 132.151 147.656V136.708H144.089V145.287C144.038 148.235 141.702 150.656 138.795 150.656Z" fill="#F9D2C3"/>
<path d="M129.764 140.393H141.235C143.207 140.393 144.765 138.761 144.765 136.814C144.765 134.814 143.155 133.235 141.235 133.235H136.875C132.93 133.182 129.764 136.393 129.764 140.393Z" fill="#303642"/>
<path d="M109.672 218.203L112.56 219.148C113.539 219.458 114.636 219.363 115.575 218.819L118.441 217.173C118.631 217.074 118.559 216.767 118.345 216.763L114.353 216.564C113.924 216.557 113.549 216.321 113.402 215.922C112.984 215.048 112.209 214.472 111.316 214.304L109.82 214.06L109.672 218.203Z" fill="#F9D2C3"/>
<path d="M222.131 225.75H165.521C163.783 225.75 162.542 224.704 162.542 223.239V222.611C162.542 221.146 163.783 220.1 165.521 220.1H222.131C223.869 220.1 225.11 221.146 225.11 222.611V223.239C225.11 224.704 223.62 225.75 222.131 225.75Z" fill="#242831"/>
<rect width="36.0573" height="48.4508" transform="matrix(1 0 -0.518922 0.854821 213.675 181.509)" fill="#242831"/>
<circle r="3.28898" transform="matrix(1 0 -0.416757 0.909018 225.11 197.082)" fill="#AAAEB8"/>
<rect x="186.86" y="220.1" width="38.25" height="1.62114" fill="#D4D6DB"/>
<g clip-path="url(#clip1_376_54851)">
<path d="M472.543 193.065C472.543 193.065 471.717 195.77 457.494 226.702C456.845 221.233 455.193 212.706 450.472 203.592C443.331 189.89 435.955 187.832 432.532 179.422C424.683 160.016 445.869 126.909 458.203 128.614C470.182 130.261 480.864 165.956 472.543 193.065Z" fill="#F8AD07"/>
<path d="M435.66 200.416C441.148 203.827 445.751 208.413 448.997 213.941C449.469 214.764 449.941 215.588 450.295 216.411C452.95 222.115 454.249 227.349 454.898 231.289C453.954 230.348 452.419 229.054 450.236 228.231C446.695 226.878 443.981 227.819 441.738 227.878C435.129 227.937 429.876 220.469 425.569 214.235C424.624 212.883 414.002 197.652 417.484 194.182C418.487 193.006 420.965 191.301 435.66 200.416Z" fill="#F8AD07"/>
<path d="M488.653 208.355C483.46 213.941 478.739 213.177 475.907 219.116C474.726 221.645 475.198 222.468 474.018 224.409C471.185 228.937 464.812 230.113 459.619 230.348C460.209 229.348 461.212 227.643 462.275 225.408C465.048 219.469 465.107 216.529 468.294 208.178C470.359 202.768 472.307 200.945 474.018 199.593C475.552 198.358 475.966 198.534 479.211 196.829C487.296 192.595 491.132 188.243 493.315 189.654C493.551 189.831 493.728 190.007 493.905 190.243C496.266 193.594 494.141 202.415 488.653 208.355Z" fill="#F8AD07"/>
<path d="M455.724 255.694C453.777 238.405 457.376 222.351 457.435 222.174L459.147 222.586C459.088 222.762 455.606 238.522 457.494 255.517L455.724 255.694Z" fill="#870B58"/>
<path d="M481.159 245.108H433.358L425.332 282.744C422.736 294.799 432.001 306.208 444.394 306.208H470.182C482.575 306.208 491.84 294.799 489.243 282.744L481.159 245.108Z" fill="#E94E0F"/>
<path d="M470.595 306.208H443.922V312.029H470.595V306.208Z" fill="#870B58"/>
<path d="M455.429 237.757C454.072 230.701 450.177 225.761 450.118 225.702L451.534 224.585C451.711 224.82 455.724 229.936 457.199 237.405L455.429 237.757Z" fill="#870B58"/>
</g>
<path fill-rule="evenodd" clip-rule="evenodd" d="M367.416 51.2065C362.026 51.2065 356.444 55.4043 354.948 60.5826L349.33 80.0346C347.835 85.2128 350.992 89.4106 356.381 89.4106H391.546C396.936 89.4106 402.517 85.2128 404.013 80.0346L409.631 60.5826C411.127 55.4043 407.97 51.2065 402.58 51.2065H367.416Z" fill="#FDEAC1"/>
<path fill-rule="evenodd" clip-rule="evenodd" d="M398.135 47.2268H362.97C358.885 47.2268 354.663 50.2409 353.212 54.0805H351.255C353.009 49.2041 358.349 45.3516 363.512 45.3516H398.676C404.066 45.3516 407.223 49.5493 405.728 54.7276L404.787 57.9839H402.835L403.776 54.7276C404.972 50.585 402.447 47.2268 398.135 47.2268ZM401.666 62.0325L400.194 67.1275H402.146L403.618 62.0325H401.666ZM350.062 58.1291H352.014L350.847 62.169H348.896L350.062 58.1291ZM375.733 81.6804H353.019C348.708 81.6804 346.182 78.3222 347.378 74.1796L347.596 73.4255H345.644L345.427 74.1796C343.931 79.3578 347.088 83.5556 352.478 83.5556H375.733V81.6804Z" fill="#7783A0"/>
<circle r="5.11163" transform="matrix(1 0 -0.277482 0.960731 357.212 80.9421)" fill="white" stroke="#ADB4C6" stroke-width="0.5"/>
<path d="M328.469 99.6165C334.263 93.449 339.63 80.6555 357.245 81.0317C374.861 81.4078 383.154 68.333 386.05 61.7803" stroke="#ADB4C6"/>
<circle r="2.91104" transform="matrix(1 0 -0.277482 0.960731 328.73 99.8914)" fill="white" stroke="#ADB4C6" stroke-width="0.5"/>
<circle r="2.91104" transform="matrix(1 0 -0.277482 0.960731 386.155 61.6663)" fill="white" stroke="#ADB4C6" stroke-width="0.5"/>
<rect x="0.357323" y="0.479211" width="12.4011" height="6.25845" transform="matrix(1 0 -0.285354 0.958422 336.777 126.127)" fill="#242831" stroke="#303642"/>
<path d="M356.502 80.5503L336.076 112.889L337.366 123.669H350.413L358.121 112.889L356.502 80.5503Z" fill="#870B58" stroke="#303642"/>
<path d="M356.459 80.7969L350.138 102.025" stroke="#303642"/>
<circle r="4.89785" transform="matrix(1 0 -0.285354 0.958422 347.164 112.015)" fill="#F9F9F9" stroke="#242831"/>
</g>
<defs>
<clipPath id="clip0_376_54851">
<rect width="540" height="320" fill="white" transform="translate(0.5 0.568359)"/>
</clipPath>
<clipPath id="clip1_376_54851">
<rect width="78.074" height="183.474" fill="white" transform="translate(416.717 128.555)"/>
</clipPath>
</defs>
</svg>
