<svg width="340" height="208" viewBox="0 0 340 208" fill="none" xmlns="http://www.w3.org/2000/svg">
<rect width="340" height="204" transform="translate(0 4)" fill="#F8F9FB"/>
<path d="M226.734 5.18405C222.324 5.18405 218.18 6.12883 214.304 7.88343C211.899 3.83435 207.488 1 202.409 1C194.791 1 188.643 7.20859 188.643 14.9018C188.643 15.0368 188.643 15.1718 188.643 15.3067C187.573 15.0368 186.37 14.9018 185.167 14.9018C179.153 14.9018 173.94 18.1411 171 23H191.316H199.335H213.502H254C249.456 12.4724 238.897 5.18405 226.734 5.18405Z" fill="#FDEAC1"/>
<rect y="192" width="340" height="16" fill="#E1C2D5"/>
<path d="M39.3673 194H31.6328L33.5664 25.6512H37.4337L39.3673 194Z" fill="#303642"/>
<path d="M39.2654 25.6512H31.7345L26.5442 10.8058H44.4557L39.2654 25.6512Z" fill="#F8AD07"/>
<path d="M35.9072 28.7819H35.1948C33.2612 28.7819 31.7346 27.2671 31.7346 25.3483H39.4691C39.3674 27.2671 37.8408 28.7819 35.9072 28.7819Z" fill="#303642"/>
<path d="M35.5 1.81775L24 11.5127H47L35.5 1.81775Z" fill="#303642"/>
<path d="M37.3319 1.8178C37.3319 2.82769 36.5178 3.63561 35.5001 3.63561C34.4824 3.63561 33.6682 2.82769 33.6682 1.8178C33.6682 0.807912 34.4824 0 35.5001 0C36.5178 0 37.3319 0.807912 37.3319 1.8178Z" fill="#303642"/>
<path d="M37.4335 54.3322H33.5663C32.9557 54.3322 32.5486 53.8272 32.5486 53.3223C32.5486 52.7163 33.0574 52.3124 33.5663 52.3124H37.4335C38.0442 52.3124 38.4512 52.8173 38.4512 53.3223C38.4512 53.8272 38.0442 54.3322 37.4335 54.3322Z" fill="#303642"/>
<path d="M38.0443 99.5752H32.9558C32.2434 99.5752 31.6328 98.9692 31.6328 98.2623C31.6328 97.5554 32.2434 96.9495 32.9558 96.9495H37.9425C38.6549 96.9495 39.2656 97.5554 39.2656 98.2623C39.3673 98.9692 38.7567 99.5752 38.0443 99.5752Z" fill="#303642"/>
<path d="M39.2654 161.28H31.8362C31.1238 161.28 30.5132 161.885 30.4114 162.592L29.0884 194.101H41.8096L40.5884 162.592C40.5884 161.784 39.9778 161.28 39.2654 161.28Z" fill="#303642"/>
<path d="M36.5178 9.39197H34.4824V27.0651H36.5178V9.39197Z" fill="#303642"/>
<path d="M63.7499 71.2426L63.3746 81.2717L64.6999 81.213L65.1187 71.1797L63.7499 71.2426Z" fill="#F8AD07"/>
<path d="M58.9793 78.2047L57.8704 78.7625L61.6554 85.1848L62.7865 84.6197L58.9793 78.2047Z" fill="#F8AD07"/>
<path d="M66.9343 83.6778L70.5259 79.0715L69.3044 78.5838L65.6217 83.166L66.9343 83.6778Z" fill="#F8AD07"/>
<path d="M88.9454 66.192L88.9931 65.2205C89.0067 64.9234 88.9507 64.6274 88.8294 64.3559C88.7081 64.0844 88.5248 63.8449 88.2943 63.6565C88.2019 63.5648 88.1337 63.4518 88.0956 63.3275C88.0576 63.2031 88.0509 63.0713 88.0762 62.9437L88.5563 60.3991C88.5563 60.369 88.5481 60.3394 88.5326 60.3135C88.5171 60.2876 88.4949 60.2664 88.4682 60.2521C88.4416 60.2379 88.4116 60.2311 88.3814 60.2324C88.3511 60.2338 88.3218 60.2433 88.2966 60.2599L86.8099 61.8011C86.5834 62.0517 86.4095 62.345 86.2983 62.6634C86.1871 62.9819 86.141 63.3193 86.1625 63.6556L86.2706 65.576L86.4881 66.0874C86.5653 66.2708 86.6845 66.4335 86.8363 66.5626C86.988 66.6916 87.168 66.7834 87.3619 66.8306C87.5558 66.8778 87.7581 66.879 87.9527 66.8342C88.1472 66.7894 88.3287 66.6998 88.4824 66.5726L88.9454 66.192Z" fill="#E94E0F"/>
<path d="M94.0459 83.2098C94.7113 83.8039 95.1485 84.6105 95.2821 85.4904C95.4156 86.3704 95.2371 87.2684 94.7774 88.0296L83.7065 103.905C83.4151 104.39 83.026 104.808 82.5639 105.134C82.1018 105.461 81.5766 105.688 81.0215 105.802C80.4664 105.915 79.8934 105.913 79.3387 105.794C78.784 105.676 78.2597 105.444 77.7988 105.114C76.9212 104.488 76.3248 103.543 76.1383 102.484C75.9518 101.425 76.1901 100.337 76.8019 99.4532L89.9569 83.6832C91.3827 82.2686 92.7772 81.9758 94.0332 83.2177L94.0459 83.2098Z" fill="#F8AD07"/>
<path d="M86.3055 66.0183L89.0375 66.2016L95.0235 84.2453C95.1512 84.6333 95.1486 85.052 95.016 85.4377C94.8834 85.8234 94.6281 86.1552 94.2888 86.3825C92.3685 87.6641 90.2443 87.2096 89.0992 85.2007L88.9836 84.9952C88.8488 84.7597 88.7649 84.4987 88.7373 84.2291L86.3055 66.0183Z" fill="#F8AD07"/>
<path d="M165.629 138.174L168.86 138.682L169.116 137.065L168.11 136.604C168.026 136.57 168.226 135.983 168.105 135.625C168.066 135.519 168.004 135.423 167.921 135.346C167.839 135.269 167.74 135.212 167.632 135.18C167.524 135.149 167.409 135.143 167.299 135.164C167.188 135.185 167.083 135.232 166.994 135.301C166.544 135.63 166.111 135.982 165.697 136.356C165.153 136.903 164.985 137.778 165.644 138.179L165.629 138.174Z" fill="#F8AD07"/>
<path d="M168.115 133.209L166.515 135.387L165.623 136.219C165.492 136.341 165.396 136.494 165.342 136.664C165.277 136.871 165.28 137.093 165.349 137.298C165.419 137.503 165.552 137.681 165.729 137.806L165.804 138.029L168.294 136.468L169.775 133.948L169.743 133.852C169.706 133.681 169.628 133.522 169.515 133.389C169.402 133.257 169.258 133.154 169.095 133.091C168.933 133.028 168.757 133.007 168.584 133.028C168.411 133.05 168.246 133.115 168.105 133.216L168.115 133.209Z" fill="#F8AD07"/>
<path d="M168.076 133.32C168.04 133.422 168.03 133.533 168.048 133.641C168.066 133.748 168.112 133.85 168.18 133.935C168.248 134.02 168.337 134.087 168.438 134.128C168.539 134.17 168.649 134.184 168.758 134.171L169.739 134.055L170.217 131.096L169.678 131.01L168.076 133.32Z" fill="#F8AD07"/>
<path d="M134.246 133.18L134.279 133.17L165.712 138.164L166.071 135.903L135.2 127.366L135.165 127.358C134.772 127.271 134.366 127.265 133.971 127.341C133.576 127.416 133.201 127.572 132.869 127.798C132.536 128.024 132.254 128.315 132.038 128.655C131.823 128.994 131.679 129.374 131.616 129.771C131.551 130.17 131.568 130.577 131.667 130.969C131.766 131.36 131.944 131.727 132.191 132.047C132.437 132.367 132.747 132.632 133.101 132.827C133.454 133.022 133.844 133.143 134.246 133.18Z" fill="#E94E0F"/>
<path d="M102.948 126.725C102.881 127.329 102.939 127.94 103.117 128.521C103.295 129.102 103.59 129.641 103.984 130.103C104.378 130.566 104.863 130.943 105.408 131.211C105.954 131.479 106.548 131.633 107.155 131.662L133.94 133.134C134.691 133.115 135.41 132.825 135.963 132.316C136.515 131.807 136.864 131.115 136.944 130.368C137.014 129.655 136.811 128.943 136.375 128.375C135.94 127.807 135.305 127.425 134.599 127.307L108.147 122.844C107.548 122.738 106.934 122.756 106.343 122.896C105.752 123.037 105.195 123.297 104.708 123.66C104.221 124.024 103.814 124.483 103.511 125.011C103.208 125.538 103.017 126.121 102.948 126.725Z" fill="#E94E0F"/>
<path d="M61.2431 153.618L60.863 154.556C60.7454 154.841 60.5629 155.095 60.3301 155.297C60.0972 155.5 59.8204 155.645 59.5215 155.722C59.3938 155.767 59.2793 155.844 59.1881 155.944C59.097 156.044 59.0319 156.165 58.9989 156.297L58.3372 158.895C58.3245 158.924 58.3042 158.948 58.2784 158.966C58.2526 158.984 58.2223 158.994 58.191 158.996C58.1597 158.998 58.1285 158.991 58.1008 158.976C58.0732 158.961 58.0502 158.939 58.0343 158.912L57.3083 156.815C57.2053 156.481 57.1705 156.129 57.2059 155.781C57.2412 155.434 57.3461 155.097 57.5142 154.79L58.4616 153.03L58.9467 152.739C59.1494 152.617 59.3775 152.542 59.6134 152.522C59.8493 152.501 60.0868 152.535 60.3075 152.621C60.5283 152.706 60.7266 152.841 60.887 153.016C61.0474 153.19 61.1658 153.398 61.233 153.625L61.2431 153.618Z" fill="#E94E0F"/>
<circle cx="91.2585" cy="165.638" r="21.9101" transform="rotate(4.72375 91.2585 165.638)" stroke="#303642" stroke-width="3"/>
<path d="M184.407 173.335C183.781 180.902 179.383 187.253 173.207 190.689C169.545 192.727 165.26 193.738 160.767 193.367C148.707 192.37 139.739 181.786 140.735 169.727C141.732 157.667 152.316 148.699 164.375 149.695C176.435 150.692 185.403 161.276 184.407 173.335Z" stroke="#303642" stroke-width="3"/>
<path d="M120.788 167.635L152.46 138.342L111.082 134.922L91.7351 165.235L120.788 167.635ZM120.788 167.635L106.563 125.242M116.248 126.042L106.563 125.242M102.601 124.914L106.563 125.242" stroke="#870B58" stroke-width="3" stroke-linecap="round" stroke-linejoin="round"/>
<path d="M163.011 171.567L148.988 121.366L159.949 122.271" stroke="#870B58" stroke-width="3" stroke-linecap="round" stroke-linejoin="round"/>
<path d="M144.612 191.659C145.5 190.5 145.316 186.691 144.5 186L150.731 191.141L157.462 193.215L170.312 192.178L174.595 190.623C176.036 190.318 180.304 186.627 180.95 186.05C180.967 186.031 180.983 186.014 181 186C181.057 185.951 181.036 185.973 180.95 186.05C180.341 186.738 179.507 190.65 180.103 191.659C180.877 192.971 181.326 193.214 180.715 193.733C180.282 194.1 177.043 194.251 174.595 193.733C172.148 193.214 169.077 194.598 167.253 194.77C161.745 195.288 161.836 195 160 195C158.632 195 154.463 194.252 151.343 194.251L151.339 194.251C148.281 194.251 145.224 194.251 144.612 193.733C144 193.214 143.841 192.666 144.612 191.659Z" fill="#303642"/>
<path d="M61.322 153.682L58.6747 152.675L58.2286 133.409C58.2212 133.111 58.2402 132.812 58.2853 132.516C58.3167 132.316 58.3876 132.124 58.4939 131.952C58.6003 131.779 58.7399 131.63 58.9046 131.512L61.4972 129.652C61.7013 129.509 61.9372 129.418 62.1843 129.388C62.4315 129.357 62.6823 129.388 62.9151 129.476C63.1478 129.565 63.3553 129.709 63.5196 129.896C63.6839 130.083 63.7999 130.308 63.8575 130.55L64.2379 134.841C64.2862 135.052 64.2897 135.271 64.248 135.484L61.3105 153.704L61.322 153.682Z" fill="#F8AD07"/>
<path d="M60.217 135.974C59.4058 135.537 58.7723 134.831 58.4251 133.978C58.078 133.124 58.039 132.176 58.3148 131.297L65.6218 112.576C65.7994 112.018 66.0904 111.502 66.4766 111.061C66.8628 110.621 67.3359 110.265 67.8662 110.016C68.3965 109.767 68.9725 109.63 69.5582 109.614C70.1438 109.598 70.7265 109.703 71.2697 109.922C72.302 110.343 73.1278 111.152 73.5692 112.175C74.0106 113.199 74.0322 114.355 73.6295 115.394L64.1974 134.507C63.1039 136.279 61.7715 136.918 60.2089 135.971L60.217 135.974Z" fill="#F8AD07"/>
<path d="M284.9 137.8H218V144.8H284.9V137.8Z" fill="#870B58"/>
<path d="M284.9 148.4H218V155.4H284.9V148.4Z" fill="#870B58"/>
<path d="M284.9 162.4H218V165.9H284.9V162.4Z" fill="#870B58"/>
<path d="M310.8 192.6H298.7V194.1H310.8V192.6Z" fill="#870B58"/>
<path d="M220.7 136H218V194.1H220.7V136Z" fill="#870B58"/>
<path d="M284.9 136H282.2V194.1H284.9V136Z" fill="#870B58"/>
<path d="M305.8 173.2H303.5V194H305.8V173.2Z" fill="#870B58"/>
<path d="M311.3 184.5H298.1L296.3 166.9H313.2L311.3 184.5Z" fill="#F8AD07"/>
<path d="M78 193.999L79.5 190L84.5 187L89.7088 188.802L91.6311 190.811L92.5398 192.44L96 193.999L78 193.999Z" fill="#D4D6DB"/>
<path d="M154.114 155.94L156.815 157.782L157.737 156.431L157.024 155.581C156.966 155.518 157.39 155.071 157.429 154.685C157.439 154.573 157.423 154.46 157.381 154.356C157.34 154.251 157.274 154.157 157.19 154.083C157.106 154.008 157.005 153.954 156.897 153.925C156.788 153.897 156.674 153.894 156.564 153.917C155.953 154.044 155.245 154.205 154.938 154.315C154.211 154.58 153.688 155.296 154.114 155.94Z" fill="#F8AD07"/>
<path d="M158.254 152.565L155.878 153.857L154.716 154.228C154.545 154.283 154.392 154.381 154.27 154.512C154.124 154.671 154.032 154.873 154.006 155.087C153.981 155.302 154.025 155.52 154.131 155.708L154.114 155.94L157.024 155.581L159.441 153.936L159.464 153.838C159.504 153.668 159.502 153.491 159.457 153.323C159.411 153.154 159.325 152.999 159.204 152.873C159.084 152.746 158.934 152.652 158.768 152.598C158.602 152.544 158.425 152.533 158.254 152.565Z" fill="#F8AD07"/>
<path d="M158.253 152.565C158.177 152.642 158.121 152.738 158.091 152.843C158.061 152.948 158.059 153.058 158.084 153.164C158.11 153.27 158.162 153.368 158.236 153.448C158.309 153.528 158.403 153.588 158.506 153.622L159.441 153.937L161.128 151.466L160.676 151.16L158.253 152.565Z" fill="#F8AD07"/>
<path d="M127.812 137.991L127.845 138.01L154.107 155.94L155.461 153.999L131.235 133.076L131.202 133.051C130.877 132.8 130.505 132.618 130.108 132.516C129.711 132.414 129.297 132.395 128.892 132.459C128.487 132.523 128.099 132.669 127.752 132.888C127.406 133.107 127.108 133.395 126.877 133.734C126.649 134.072 126.492 134.452 126.415 134.853C126.338 135.253 126.344 135.665 126.432 136.063C126.519 136.461 126.686 136.837 126.924 137.168C127.161 137.5 127.463 137.78 127.812 137.991Z" fill="#E94E0F"/>
<path d="M97.436 135.529C97.4291 136.137 97.5467 136.739 97.7815 137.3C98.0163 137.86 98.3633 138.367 98.8013 138.788C99.2392 139.209 99.7587 139.536 100.328 139.749C100.897 139.962 101.504 140.056 102.111 140.025L128.909 138.825C129.654 138.732 130.34 138.371 130.84 137.81C131.339 137.249 131.617 136.526 131.623 135.775C131.625 135.054 131.352 134.361 130.859 133.835C130.367 133.31 129.692 132.992 128.973 132.947L102.223 131.148C101.616 131.102 101.007 131.181 100.432 131.379C99.8578 131.578 99.3299 131.892 98.8815 132.303C98.433 132.713 98.0733 133.212 97.8247 133.766C97.5761 134.321 97.4439 134.921 97.436 135.529Z" fill="#E94E0F"/>
<path d="M90.7425 110.431L94.237 113.264L127.831 123.667L110.694 143.574C109.524 144.572 108.017 145.084 106.482 145.004C104.947 144.925 103.501 144.261 102.441 143.148L83.7897 127.47L80.289 124.735C80.033 124.58 79.8107 124.375 79.6353 124.133C79.4599 123.89 79.335 123.615 79.2679 123.323C79.2009 123.032 79.193 122.73 79.2449 122.435C79.2967 122.14 79.4072 121.859 79.5698 121.607L87.811 110.621C87.9805 110.401 88.1951 110.219 88.4405 110.088C88.6858 109.957 88.9563 109.88 89.2337 109.862C89.5112 109.844 89.7893 109.886 90.0495 109.984C90.3097 110.082 90.546 110.234 90.7425 110.431Z" fill="#F8AD07"/>
<path d="M71.5777 118.684L66.4895 111.074L76.3694 99.961L85.9116 104.817C87.4658 105.402 88.833 106.396 89.8686 107.694L95.1552 114.313C95.5289 114.779 95.7243 115.363 95.7061 115.96C95.688 116.558 95.4575 117.129 95.0561 117.571L86.6364 126.93C86.2367 127.377 85.6909 127.666 85.0971 127.746C84.5033 127.826 83.9003 127.692 83.3965 127.368L76.9962 124.48C74.741 123.023 72.8799 121.032 71.5777 118.684Z" fill="#F8AD07"/>
<path d="M70.0361 108.291L64.3349 103.05L67.1282 99.7287L73.299 104.379C73.5875 104.584 73.8305 104.846 74.0125 105.15C74.1946 105.453 74.3118 105.79 74.3568 106.141C74.4017 106.492 74.3734 106.849 74.2737 107.188C74.174 107.527 74.005 107.842 73.7774 108.113C73.5504 108.381 73.2707 108.6 72.9555 108.755C72.6403 108.911 72.2965 109 71.9455 109.016C71.5945 109.033 71.2438 108.977 70.9153 108.853C70.5868 108.728 70.2875 108.537 70.0361 108.291Z" fill="#E94E0F"/>
<path d="M65.6199 94.673L62.4859 97.1029C62.0436 97.4463 61.7558 97.9513 61.6856 98.5069C61.6154 99.0624 61.7687 99.6231 62.1118 100.066L62.6304 100.734C62.522 100.815 62.4309 100.917 62.3623 101.034C62.2937 101.151 62.2491 101.281 62.231 101.415C62.213 101.549 62.2218 101.686 62.257 101.817C62.2922 101.948 62.3532 102.071 62.4362 102.178C62.5193 102.285 62.6228 102.374 62.7408 102.441C62.8588 102.508 62.9889 102.551 63.1235 102.567C63.2581 102.583 63.3946 102.572 63.5249 102.534C63.6553 102.497 63.7769 102.434 63.8828 102.35L65.3358 104.219C65.6633 104.638 66.1433 104.912 66.6713 104.979C67.1994 105.047 67.7327 104.904 68.1555 104.58L70.4498 102.798C70.7642 102.554 71.0274 102.25 71.2245 101.905C71.4217 101.559 71.5487 101.178 71.5986 100.783C71.6484 100.388 71.6199 99.9876 71.5149 99.6038C71.4098 99.22 71.2301 98.8607 70.9862 98.5464L68.2408 95.0042C68.0912 94.8093 67.9045 94.6461 67.6914 94.5238C67.4783 94.4015 67.2431 94.3227 66.9994 94.2919C66.7557 94.2611 66.5083 94.2789 66.2715 94.3443C66.0347 94.4098 65.8132 94.5215 65.6199 94.673Z" fill="#E94E0F"/>
<path d="M71.2502 93.4488C71.1364 93.3038 70.9875 93.19 70.8176 93.1184C70.6477 93.0467 70.4624 93.0194 70.279 93.039C70.3142 92.885 70.3146 92.725 70.2803 92.5708C70.2461 92.4165 70.1779 92.2719 70.0808 92.1472C69.9704 92.0036 69.8254 91.8902 69.6594 91.8176C69.4934 91.745 69.3117 91.7155 69.1313 91.732C69.1462 91.548 69.1138 91.3634 69.0372 91.1955C68.9605 91.0277 68.8422 90.8822 68.6935 90.773C68.5447 90.6638 68.3705 90.5945 68.1874 90.5717C68.0043 90.5489 67.8184 90.5733 67.6474 90.6427C67.6318 90.4545 67.567 90.2737 67.4595 90.1184C67.352 89.9632 67.2057 89.8389 67.0351 89.758C66.8644 89.6771 66.6756 89.6424 66.4873 89.6574C66.2991 89.6725 66.1181 89.7367 65.9625 89.8436C65.926 89.7498 65.8768 89.6614 65.8162 89.5809C65.6385 89.3585 65.3805 89.215 65.0978 89.1813C64.8152 89.1476 64.5306 89.2264 64.3056 89.4007C64.2183 89.2877 64.1096 89.193 63.9857 89.1221C63.8617 89.0513 63.725 89.0056 63.5834 88.9877C63.4417 88.9698 63.2979 88.98 63.1603 89.0178C63.0226 89.0556 62.8938 89.1203 62.7811 89.208C62.6472 89.313 62.5408 89.449 62.4711 89.6043C62.2893 89.396 62.0347 89.265 61.7595 89.2382C61.4843 89.2114 61.2093 89.2907 60.9906 89.46C60.8143 89.5969 60.6853 89.7855 60.6216 89.9995C60.4557 89.895 60.2646 89.8377 60.0686 89.8335C59.8726 89.8294 59.6792 89.8786 59.509 89.9759C59.3389 90.0732 59.1984 90.215 59.1026 90.386C59.0068 90.557 58.9592 90.7508 58.9651 90.9468C58.6827 91.3595 58.3076 91.7004 57.8698 91.9421C57.432 92.1838 56.9437 92.3197 56.4439 92.3388C56.2414 92.4957 56.1014 92.7197 56.0491 92.9706C55.9967 93.2214 56.0354 93.4827 56.1583 93.7075C55.9606 93.7157 55.769 93.7778 55.6041 93.887C55.4392 93.9963 55.3073 94.1486 55.2227 94.3275C55.1382 94.5064 55.1042 94.7049 55.1245 94.9017C55.1447 95.0985 55.2184 95.286 55.3376 95.4439C55.3533 95.4604 55.3701 95.4757 55.388 95.4897C55.2682 95.5268 55.1558 95.5849 55.0563 95.6612C54.9434 95.7483 54.8488 95.8568 54.7779 95.9805C54.707 96.1041 54.6612 96.2406 54.6431 96.382C54.625 96.5234 54.6349 96.667 54.6724 96.8045C54.7098 96.9421 54.774 97.0709 54.8613 97.1836C54.9326 97.2715 55.0169 97.3481 55.1111 97.4107L55.0736 97.452C54.923 97.5653 54.8049 97.7163 54.7313 97.8898C54.6577 98.0632 54.6311 98.2531 54.6542 98.4401C54.6774 98.6272 54.7494 98.8048 54.8632 98.9551C54.9769 99.1054 55.1282 99.2231 55.3019 99.2962C55.1528 99.4398 55.0483 99.6232 55.0006 99.8246C54.953 100.026 54.9644 100.237 55.0333 100.432C55.1023 100.627 55.2259 100.798 55.3895 100.925C55.5531 101.052 55.7497 101.129 55.9558 101.147C55.8539 101.321 55.8029 101.52 55.8086 101.722C55.8142 101.924 55.8762 102.12 55.9877 102.288C56.0991 102.457 56.2554 102.591 56.439 102.675C56.6225 102.759 56.826 102.79 57.0262 102.764C56.9531 102.949 56.9322 103.15 56.9657 103.345C56.9991 103.541 57.0858 103.723 57.2161 103.873C57.3464 104.022 57.5153 104.133 57.7044 104.193C57.8935 104.253 58.0955 104.26 58.2882 104.213C58.2644 104.419 58.3004 104.627 58.3918 104.813C58.4832 104.999 58.6262 105.155 58.8037 105.262C58.9812 105.369 59.1857 105.423 59.393 105.417C59.6002 105.411 59.8014 105.346 59.9725 105.229C59.987 105.445 60.0647 105.653 60.1961 105.826C60.3728 106.053 60.6326 106.201 60.9184 106.237C61.2042 106.274 61.4927 106.195 61.7205 106.018C61.7397 106 61.7578 105.98 61.7747 105.959C61.8116 106.092 61.8742 106.218 61.9589 106.327C62.0463 106.44 62.155 106.534 62.2788 106.604C62.4026 106.675 62.5391 106.72 62.6805 106.738C62.8218 106.756 62.9653 106.745 63.1027 106.708C63.24 106.67 63.3686 106.605 63.481 106.518C63.5815 106.442 63.667 106.348 63.7331 106.24C63.7442 106.261 63.7568 106.281 63.7711 106.3C63.8838 106.448 64.033 106.564 64.2041 106.637C64.3752 106.71 64.5624 106.738 64.7472 106.717C64.9321 106.696 65.1084 106.627 65.2588 106.518C65.4092 106.408 65.5286 106.262 65.6053 106.092C65.7461 106.221 65.9223 106.305 66.1111 106.333C66.3 106.361 66.4929 106.332 66.6651 106.249C66.8373 106.167 66.9808 106.035 67.0774 105.87C67.1739 105.705 67.219 105.515 67.2068 105.325L66.9762 104.994C66.6639 105 66.3544 104.934 66.0724 104.799C65.7904 104.665 65.5436 104.467 65.3517 104.22L63.8987 102.351C63.7928 102.436 63.6712 102.499 63.5408 102.536C63.4105 102.573 63.274 102.584 63.1394 102.568C63.0048 102.552 62.8747 102.51 62.7567 102.443C62.6387 102.376 62.5351 102.286 62.4521 102.179C62.369 102.072 62.3081 101.95 62.2729 101.819C62.2377 101.688 62.2288 101.551 62.2469 101.417C62.265 101.282 62.3096 101.153 62.3782 101.036C62.4467 100.919 62.5379 100.817 62.6463 100.736L62.1277 100.067C61.7846 99.6248 61.6313 99.0641 61.7015 98.5085C61.7716 97.953 62.0595 97.448 62.5018 97.1046L65.6358 94.6747C65.8295 94.5226 66.0515 94.4106 66.2889 94.3451C66.5263 94.2796 66.7744 94.262 67.0186 94.2932C67.2629 94.3244 67.4986 94.4039 67.7119 94.5269C67.9252 94.65 68.1119 94.8142 68.2612 95.0101L71.0066 98.5522C71.4273 99.0937 71.6516 99.762 71.6429 100.448C71.6341 101.133 71.3928 101.796 70.9584 102.326L71.4416 102.895C71.5291 102.659 71.5322 102.4 71.4506 102.162C71.6019 102.129 71.744 102.062 71.8667 101.967C71.9797 101.88 72.0743 101.771 72.1452 101.647C72.2161 101.523 72.2618 101.387 72.2797 101.245C72.2976 101.103 72.2874 100.96 72.2495 100.822C72.2117 100.684 72.1471 100.555 72.0594 100.443L72.0479 100.432C72.0987 100.406 72.1471 100.376 72.1927 100.342C72.415 100.164 72.5586 99.9063 72.5923 99.6236C72.626 99.341 72.5472 99.0564 72.3729 98.8314C72.2946 98.7288 72.1983 98.6412 72.0887 98.573C72.1425 98.5438 72.1944 98.5114 72.2441 98.4757C72.4716 98.299 72.6197 98.0392 72.6559 97.7534C72.692 97.4675 72.6132 97.179 72.4368 96.9513C72.3291 96.8139 72.189 96.7054 72.0292 96.6352C72.178 96.4829 72.2783 96.29 72.3175 96.0807C72.3568 95.8715 72.3332 95.6553 72.2497 95.4595C72.1663 95.2636 72.0267 95.0969 71.8486 94.9802C71.6705 94.8636 71.4619 94.8023 71.249 94.8041C71.4026 94.6117 71.4864 94.3729 71.4866 94.1267C71.4868 93.8805 71.4035 93.6415 71.2502 93.4488Z" fill="#303642"/>
</svg>
