<svg width="340" height="204" viewBox="0 0 340 204" fill="none" xmlns="http://www.w3.org/2000/svg">
<rect width="340" height="204" fill="#F8F9FB"/>
<path d="M78.2063 38.107L193.536 127.405L93.9463 196.128L51.3836 56.6163L78.2063 38.107Z" fill="#FDEAC1"/>
<path d="M60.0781 0H58.5012V34.5416H60.0781V0Z" fill="#870B58"/>
<path d="M78.206 38.1065C72.936 31.395 63.2735 29.8864 56.1352 34.8123C48.9969 39.7381 46.9786 49.3072 51.3834 56.6158L78.206 38.1065Z" fill="#870B58"/>
<rect y="188" width="340" height="16" fill="#F9D2C3"/>
<path d="M133.456 54.6014L132.616 64.6023L133.943 64.6051L134.826 54.602L133.456 54.6014Z" fill="#F8AD07"/>
<path d="M128.368 61.335L127.234 61.8407L130.718 68.4315L131.874 67.9195L128.368 61.335Z" fill="#F8AD07"/>
<path d="M136.061 67.1708L139.862 62.7359L138.664 62.1921L134.773 66.5988L136.061 67.1708Z" fill="#F8AD07"/>
<path d="M173.473 139.593L184.797 142.979L190.043 125.452L178.719 122.066L173.473 139.593Z" fill="#7783A0"/>
<path d="M167.661 167.313L173.132 168.947L180.069 145.746L174.598 144.112L167.661 167.313Z" fill="#7783A0"/>
<path d="M179.392 125.103L187.814 127.62C189.287 128.146 190.851 128.367 192.412 128.271C193.972 128.175 195.497 127.763 196.891 127.06C198.286 126.357 199.522 125.378 200.525 124.183C201.527 122.988 202.275 121.601 202.722 120.107C203.169 118.614 203.307 117.045 203.126 115.496C202.945 113.947 202.45 112.45 201.671 111.097C200.892 109.744 199.845 108.563 198.594 107.625C197.343 106.688 195.914 106.014 194.395 105.645L185.969 103.128C184.496 102.602 182.931 102.38 181.371 102.476C179.81 102.573 178.286 102.985 176.891 103.688C175.496 104.391 174.26 105.37 173.258 106.566C172.255 107.761 171.508 109.148 171.061 110.642C170.614 112.135 170.477 113.705 170.658 115.254C170.838 116.803 171.334 118.3 172.113 119.653C172.893 121.006 173.94 122.187 175.191 123.124C176.443 124.061 177.872 124.734 179.392 125.103Z" fill="#E4003A"/>
<path d="M162.318 140.68L193.52 150.008C195.575 150.623 197.738 149.46 198.351 147.412L198.802 145.904C199.415 143.856 198.247 141.697 196.192 141.083L164.99 131.755C162.935 131.14 160.772 132.303 160.159 134.351L159.708 135.859C159.095 137.907 160.264 140.065 162.318 140.68Z" fill="#E4003A"/>
<path d="M148.919 175.075L151.155 175.745C152.029 172.838 154.024 170.398 156.702 168.959C159.38 167.52 162.522 167.2 165.44 168.068L176.365 171.334C179.28 172.209 181.73 174.201 183.177 176.873C184.623 179.545 184.948 182.679 184.081 185.587L186.32 186.257C187.364 182.756 186.971 178.983 185.227 175.766C183.483 172.55 180.532 170.153 177.021 169.102L166.092 165.835C162.583 164.794 158.805 165.182 155.586 166.914C152.367 168.646 149.97 171.58 148.919 175.075Z" fill="#7783A0"/>
<path d="M169.866 168.176L166.088 180.8L168.328 181.47L172.107 168.846L169.866 168.176Z" fill="#7783A0"/>
<path d="M187.41 188.397C188.476 187.091 188.278 185.169 186.967 184.104C185.656 183.039 183.729 183.235 182.663 184.54C181.597 185.846 181.796 187.768 183.107 188.833C184.418 189.898 186.344 189.702 187.41 188.397Z" fill="#E4003A"/>
<path d="M149.683 179.014C151.37 179.114 152.817 177.832 152.915 176.15C153.013 174.468 151.725 173.024 150.039 172.923C148.352 172.823 146.905 174.105 146.807 175.787C146.709 177.469 147.996 178.914 149.683 179.014Z" fill="#E4003A"/>
<path d="M168.663 183.82C170.15 183.021 170.703 181.17 169.9 179.687C169.097 178.203 167.241 177.649 165.754 178.447C164.268 179.246 163.714 181.097 164.517 182.58C165.32 184.064 167.177 184.619 168.663 183.82Z" fill="#E4003A"/>
<path d="M166.34 126.456L175.489 140.254C176.618 141.879 178.695 142.433 180.233 141.521L187.424 136.421C188.867 135.552 189.552 133.796 189.145 132.009L188.508 129.188C187.444 124.162 184.296 120.406 179.901 117.754L177.95 116.528C177.257 116.058 176.434 115.816 175.597 115.834C174.759 115.852 173.948 116.13 173.277 116.629L166.808 121.581C165.419 122.692 165.209 124.827 166.34 126.456Z" fill="#F8BFCD"/>
<path d="M148.443 140.051L148.399 140.068L115.276 156.892L114.059 154.516L145.28 133.97L145.32 133.948C145.724 133.71 146.173 133.558 146.638 133.5C147.104 133.442 147.577 133.479 148.027 133.61C148.478 133.741 148.897 133.963 149.258 134.261C149.62 134.56 149.916 134.929 150.129 135.346C150.343 135.763 150.469 136.219 150.5 136.686C150.531 137.154 150.465 137.622 150.307 138.063C150.149 138.504 149.902 138.907 149.581 139.249C149.261 139.591 148.873 139.864 148.443 140.051Z" fill="#F8BFCD"/>
<path d="M142.291 90.5126L141.481 89.6781C141.232 89.418 141.046 89.1036 140.939 88.7598C140.832 88.4159 140.806 88.052 140.864 87.697C140.876 87.5396 140.848 87.3817 140.785 87.2372C140.721 87.0926 140.622 86.9659 140.498 86.8683L138.044 84.9205C138.02 84.8931 138.003 84.8596 137.997 84.8236C137.99 84.7876 137.993 84.7504 138.006 84.7161C138.019 84.6819 138.041 84.6519 138.07 84.6295C138.099 84.607 138.133 84.5929 138.17 84.5888L140.751 84.8327C141.156 84.8823 141.548 85.013 141.902 85.2171C142.257 85.4211 142.567 85.6944 142.814 86.0206L144.235 87.8694L144.443 88.5115C144.517 88.7403 144.536 88.983 144.5 89.2204C144.463 89.4578 144.372 89.6832 144.233 89.8786C144.094 90.074 143.911 90.234 143.699 90.3457C143.486 90.4574 143.251 90.5178 143.011 90.5221L142.291 90.5126Z" fill="#F8BFCD"/>
<path d="M143.628 87.0247L144.041 90.308L166.249 96.2769C166.727 96.4079 167.233 96.3787 167.692 96.1937C168.15 96.0088 168.535 95.6784 168.787 95.253C170.206 92.8483 169.508 90.3172 167 89.0776L166.746 88.9488C166.451 88.804 166.131 88.7207 165.803 88.7038L143.628 87.0247Z" fill="#F8AD07"/>
<path d="M115.519 156.945L111.892 158.133L111.292 156.327L112.373 155.593C112.46 155.538 112.124 154.901 112.205 154.456C112.229 154.326 112.284 154.202 112.366 154.097C112.447 153.992 112.553 153.908 112.673 153.851C112.794 153.795 112.927 153.768 113.06 153.773C113.193 153.777 113.323 153.814 113.44 153.879C114.077 154.219 114.828 154.628 115.136 154.851C115.87 155.378 116.228 156.35 115.542 156.937L115.519 156.945Z" fill="#303642"/>
<path d="M111.768 151.805L114.025 154.018L115.204 154.806C115.378 154.925 115.517 155.089 115.606 155.28C115.72 155.505 115.759 155.76 115.719 156.009C115.678 156.258 115.56 156.488 115.381 156.665L115.325 156.934L112.188 155.599L110 152.977L110.003 152.862C110.012 152.658 110.072 152.461 110.177 152.287C110.283 152.112 110.43 151.967 110.605 151.864C110.781 151.761 110.98 151.704 111.184 151.697C111.388 151.69 111.59 151.733 111.773 151.824L111.768 151.805Z" fill="#303642"/>
<path d="M111.789 151.867C111.851 151.978 111.884 152.103 111.884 152.23C111.884 152.357 111.851 152.481 111.789 152.592C111.727 152.703 111.638 152.796 111.529 152.863C111.421 152.929 111.297 152.967 111.17 152.972L110.016 153.02L108.916 149.712L109.52 149.513L111.789 151.867Z" fill="#303642"/>
<path d="M119.81 166.862L116.528 168.813L115.545 167.177L116.437 166.239C116.513 166.169 116.045 165.622 116.028 165.171C116.024 165.04 116.05 164.909 116.106 164.79C116.161 164.671 116.243 164.567 116.347 164.486C116.45 164.404 116.571 164.349 116.7 164.322C116.829 164.296 116.962 164.301 117.089 164.335C117.722 164.497 118.346 164.69 118.959 164.916C119.787 165.271 120.351 166.142 119.81 166.862Z" fill="#303642"/>
<path d="M115.212 162.645L117.882 164.312L119.21 164.823C119.404 164.898 119.576 165.021 119.709 165.18C119.87 165.376 119.964 165.617 119.979 165.87C119.994 166.122 119.929 166.373 119.792 166.586L119.797 166.857L116.424 166.233L113.72 164.154L113.698 164.038C113.663 163.837 113.678 163.631 113.742 163.438C113.807 163.245 113.919 163.072 114.068 162.933C114.217 162.794 114.399 162.695 114.596 162.643C114.793 162.592 115.001 162.591 115.199 162.64L115.212 162.645Z" fill="#303642"/>
<path d="M115.212 162.645C115.297 162.74 115.356 162.855 115.384 162.979C115.411 163.104 115.406 163.233 115.37 163.355C115.333 163.477 115.265 163.587 115.174 163.675C115.082 163.763 114.969 163.827 114.845 163.859L113.733 164.159L111.934 161.168L112.481 160.842L115.212 162.645Z" fill="#303642"/>
<path d="M151.713 147.821L151.676 147.843L119.796 166.86L118.36 164.498L148.057 141.843L148.095 141.818C148.49 141.549 148.937 141.363 149.407 141.272C149.877 141.181 150.361 141.187 150.829 141.289C151.297 141.392 151.739 141.588 152.128 141.867C152.517 142.146 152.845 142.501 153.092 142.911C153.339 143.32 153.501 143.775 153.565 144.249C153.63 144.722 153.597 145.204 153.468 145.664C153.339 146.124 153.116 146.553 152.815 146.924C152.513 147.295 152.138 147.6 151.713 147.821Z" fill="#F8BFCD"/>
<path d="M186.155 135.479C186.327 136.167 186.356 136.883 186.24 137.582C186.124 138.281 185.866 138.949 185.481 139.545C185.096 140.14 184.592 140.651 184.002 141.045C183.411 141.439 182.746 141.709 182.047 141.836L151.252 147.679C150.379 147.773 149.502 147.549 148.782 147.046C148.063 146.544 147.551 145.798 147.342 144.947C147.144 144.132 147.265 143.272 147.682 142.544C148.099 141.816 148.779 141.275 149.584 141.031L179.538 131.783C180.215 131.57 180.929 131.498 181.636 131.571C182.342 131.643 183.027 131.859 183.647 132.206C184.266 132.552 184.809 133.021 185.24 133.584C185.672 134.147 185.983 134.792 186.155 135.479Z" fill="#F8BFCD"/>
<path d="M182.595 127.086C182.786 127.768 182.835 128.482 182.739 129.183C182.644 129.885 182.405 130.559 182.038 131.165C181.671 131.77 181.184 132.294 180.606 132.705C180.028 133.115 179.372 133.402 178.678 133.55L148.077 140.214C147.207 140.333 146.323 140.132 145.59 139.648C144.857 139.165 144.325 138.433 144.092 137.588C143.872 136.778 143.97 135.915 144.366 135.176C144.763 134.437 145.427 133.878 146.224 133.612L175.887 123.572C176.557 123.342 177.267 123.251 177.974 123.305C178.681 123.359 179.37 123.557 179.998 123.886C180.627 124.215 181.181 124.668 181.627 125.219C182.074 125.769 182.403 126.404 182.595 127.086Z" fill="#F8BFCD"/>
<path d="M191.022 140.909L157.401 152.883L147.393 132.054L178.225 114.281L178.268 114.288C179.763 114.082 181.284 114.356 182.613 115.068C183.942 115.781 185.01 116.896 185.663 118.253L192.592 132.666C193.247 134.03 193.448 135.567 193.165 137.052C192.882 138.538 192.131 139.893 191.02 140.922" fill="#870B58"/>
<path d="M162.171 92.6025C162.356 93.6609 162.903 94.6231 163.719 95.3243C164.536 96.0255 165.57 96.422 166.645 96.4457L190.077 95.393C190.762 95.4079 191.443 95.281 192.075 95.0201C192.708 94.7592 193.279 94.37 193.753 93.8771C194.227 93.3842 194.593 92.7983 194.829 92.1563C195.064 91.5143 195.164 90.8302 195.121 90.147C195.04 88.8497 194.782 87.7137 193.814 86.8426C192.846 85.9716 191.246 85.4353 189.946 85.4905L165.281 88.7395C162.908 89.2832 161.709 90.5158 162.175 92.5969L162.171 92.6025Z" fill="#F8AD07"/>
<path d="M180.236 112.1L180.443 111.791C180.774 111.297 181.201 110.875 181.7 110.551C182.199 110.227 182.759 110.007 183.346 109.905C183.933 109.802 184.534 109.82 185.114 109.956C185.694 110.093 186.241 110.345 186.72 110.698L197.165 118.326C197.671 118.694 198.094 119.166 198.403 119.709C198.713 120.253 198.903 120.855 198.96 121.478C199.018 122.1 198.941 122.727 198.736 123.317C198.531 123.907 198.202 124.447 197.771 124.9L193.513 137.275L169.634 119.824L180.236 112.1Z" fill="#F8AD07"/>
<path d="M192.631 86.0934L210.885 93.3911L206.818 108.791L198.468 123.914C197.733 125.24 196.537 126.253 195.105 126.762C193.673 127.27 192.103 127.24 190.691 126.675L182.235 123.293C180.745 122.693 179.545 121.542 178.884 120.082C178.223 118.621 178.153 116.964 178.688 115.454L181.605 101.793C182.078 99.5827 183.084 97.5215 184.535 95.7865L192.631 86.0934Z" fill="#F8AD07"/>
<path d="M189.573 125.107L188.397 125.035C188.037 125.01 187.687 124.903 187.376 124.72C187.064 124.538 186.8 124.286 186.603 123.984C186.505 123.861 186.377 123.763 186.232 123.701C186.087 123.638 185.929 123.612 185.772 123.625L182.645 123.859C182.609 123.854 182.575 123.839 182.546 123.817C182.518 123.794 182.496 123.764 182.482 123.73C182.469 123.697 182.466 123.66 182.472 123.624C182.478 123.588 182.493 123.554 182.517 123.527L184.58 121.959C184.912 121.72 185.288 121.551 185.686 121.46C186.084 121.37 186.497 121.36 186.899 121.431L189.2 121.828L189.702 122.25C189.913 122.429 190.081 122.652 190.192 122.905C190.304 123.157 190.356 123.431 190.345 123.707C190.333 123.982 190.259 124.251 190.128 124.494C189.997 124.736 189.812 124.946 189.587 125.106L189.573 125.107Z" fill="#F8BFCD"/>
<path d="M225.241 120.568C226.066 119.878 226.625 118.922 226.82 117.866C227.015 116.81 226.836 115.72 226.312 114.783L213.515 95.1711C213.18 94.5767 212.726 94.0577 212.181 93.6468C211.636 93.236 211.011 92.942 210.346 92.7835C209.681 92.6249 208.991 92.6052 208.317 92.7255C207.644 92.8457 207.003 93.1035 206.433 93.4824C205.353 94.2083 204.601 95.3277 204.339 96.5998C204.077 97.8719 204.326 99.195 205.033 100.284L220.349 119.845C222.02 121.609 223.706 122.013 225.258 120.564L225.241 120.568Z" fill="#F8AD07"/>
<path d="M247.088 120.809L245.535 123.721L223.123 121.452C222.777 121.416 222.436 121.351 222.102 121.255C221.874 121.191 221.662 121.081 221.477 120.933C221.293 120.785 221.14 120.602 221.028 120.394L219.25 117.124C219.11 116.868 219.036 116.58 219.034 116.288C219.032 115.996 219.102 115.708 219.239 115.45C219.375 115.191 219.574 114.97 219.816 114.806C220.059 114.642 220.338 114.54 220.629 114.51L225.659 114.689C225.911 114.663 226.166 114.69 226.406 114.769L247.099 120.812L247.088 120.809Z" fill="#F8AD07"/>
<path d="M204.004 90.6074L196.091 100.402L197.003 87.8076L204.004 90.6074Z" fill="white"/>
<path d="M196.973 87.885L201.684 80.0435L206.406 81.9301L204.333 90.7867L199.13 92.4528L196.973 87.885Z" fill="#F8BFCD"/>
<path d="M204.476 74.9391L208.511 77.2116C208.794 77.3701 209.042 77.5825 209.242 77.8366C209.442 78.0908 209.59 78.3818 209.677 78.6929C209.764 79.004 209.789 79.3291 209.75 79.6497C209.711 79.9702 209.609 80.2799 209.45 80.5609L208.968 81.4211C209.244 81.5765 209.447 81.8348 209.532 82.1391C209.617 82.4433 209.577 82.7687 209.422 83.0437C209.266 83.3186 209.007 83.5205 208.702 83.605C208.397 83.6894 208.071 83.6496 207.795 83.4942L206.435 85.8932C206.126 86.43 205.618 86.8242 205.02 86.9912C204.422 87.1582 203.782 87.0846 203.238 86.7862L200.282 85.1215C199.877 84.8937 199.52 84.5886 199.233 84.2234C198.946 83.8583 198.734 83.4403 198.609 82.9935C198.484 82.5466 198.449 82.0797 198.505 81.6194C198.561 81.1591 198.708 80.7145 198.937 80.3109L201.506 75.7625C201.79 75.2608 202.263 74.8923 202.82 74.7379C203.377 74.5835 203.972 74.6559 204.476 74.9391Z" fill="#F8BFCD"/>
<path d="M209.018 73.1122C209.669 73.478 210.241 73.968 210.702 74.5542C211.163 75.1403 211.503 75.8112 211.704 76.5285C211.905 77.2457 211.962 77.9952 211.872 78.7342C211.782 79.4731 211.547 80.187 211.18 80.8351L208.268 92.3111L204.169 90.6748L205.257 86.905C205.751 86.7096 206.162 86.3518 206.422 85.891L207.782 83.492C208.058 83.6474 208.384 83.6872 208.689 83.6028C208.994 83.5183 209.253 83.3164 209.409 83.0415C209.564 82.7665 209.604 82.4411 209.519 82.1369C209.434 81.8326 209.231 81.5743 208.955 81.4189L209.436 80.5587C209.652 80.178 209.76 79.7462 209.75 79.309C208.94 79.4801 207.329 79.0198 205.657 78.081C203.722 76.9904 202.378 75.6321 202.431 74.8776C202.035 75.0672 201.707 75.3726 201.491 75.7531L198.921 80.3015C198.58 80.9044 198.424 81.5943 198.473 82.2854C198.522 82.9764 198.774 83.638 199.197 84.1877L197.211 88.1525L195.264 87.4753L201.263 75.2478C201.63 74.5992 202.123 74.0294 202.712 73.5709C203.301 73.1125 203.974 72.7744 204.695 72.576C205.415 72.3777 206.168 72.3229 206.91 72.4149C207.652 72.5069 208.368 72.7438 209.018 73.1122Z" fill="#303642"/>
<path d="M247.142 124.245L248.227 123.826C248.562 123.694 248.862 123.486 249.103 123.219C249.345 122.951 249.52 122.632 249.617 122.285C249.672 122.137 249.763 122.005 249.881 121.901C250 121.796 250.142 121.722 250.296 121.686L253.34 120.944C253.373 120.929 253.402 120.906 253.424 120.876C253.445 120.846 253.457 120.811 253.46 120.774C253.463 120.738 253.455 120.701 253.438 120.669C253.422 120.636 253.396 120.609 253.365 120.59L250.919 119.731C250.53 119.607 250.119 119.561 249.712 119.598C249.305 119.635 248.909 119.754 248.548 119.946L246.483 121.03L246.026 121.527C245.863 121.703 245.743 121.916 245.677 122.147C245.611 122.377 245.599 122.62 245.644 122.856C245.689 123.092 245.788 123.314 245.934 123.504C246.08 123.694 246.268 123.848 246.484 123.952L247.142 124.245Z" fill="#F8BFCD"/>
<path d="M109.468 128H105.005L105 190.131H109.463L109.468 128Z" fill="#AAAEB8"/>
<path d="M226.741 127.783H222.279L222.274 189.914H226.736L226.741 127.783Z" fill="#AAAEB8"/>
<path d="M240.131 122.544H90.6841L90.6834 131.107H240.131L240.131 122.544Z" fill="#AAAEB8"/>
<path d="M167.615 97.2354L196.767 100.146C196.919 100.162 197.067 100.206 197.202 100.279C197.337 100.351 197.456 100.449 197.553 100.567C197.65 100.685 197.722 100.821 197.767 100.967C197.811 101.113 197.826 101.267 197.81 101.418L195.764 121.787L164.293 118.644L166.34 98.2725C166.371 97.9665 166.523 97.6855 166.763 97.4911C167.002 97.2967 167.308 97.2048 167.615 97.2354Z" fill="#7783A0"/>
<path d="M164.298 118.646L195.769 121.788L195.682 122.648C195.648 122.984 195.483 123.292 195.221 123.505C194.959 123.718 194.624 123.819 194.287 123.786L165.352 120.896C165.016 120.863 164.707 120.697 164.493 120.437C164.279 120.176 164.177 119.841 164.211 119.506L164.298 118.646Z" fill="#303642"/>
<path d="M169.908 118.072L169.71 120.042L170.637 120.134L170.835 118.164L169.908 118.072Z" fill="#7783A0"/>
<path d="M189.559 120.033L189.361 122.003L190.288 122.096L190.486 120.126L189.559 120.033Z" fill="#7783A0"/>
<path d="M288.127 127.554C288.127 127.554 287.373 129.038 276.131 146.566C276.44 143.678 276.548 139.236 275.087 134.687C272.887 127.86 269.176 127.278 268.337 122.993C266.415 113.17 281.666 94.0161 288.037 94.0829C294.254 94.1492 295.764 112.473 288.127 127.554Z" fill="#F8AD07"/>
<path d="M267.53 133.98C270.053 135.386 272.013 137.616 273.08 140.294C273.242 140.698 273.379 141.111 273.49 141.532C274.122 144.021 274.36 146.593 274.194 149.156C273.631 148.511 272.887 148.048 272.058 147.828C270.309 147.357 268.764 148.037 267.545 148.209C264.009 148.708 262.089 145.05 260.5 142.013C260.158 141.376 256.273 133.943 258.521 131.857C259.231 131.196 260.76 130.122 267.53 133.98Z" fill="#F8AD07"/>
<path d="M294.939 134.607C291.498 137.952 289.079 137.85 286.872 141.225C285.942 142.65 286.087 143.078 285.237 144.193C283.185 146.812 279.642 147.871 276.833 148.347C277.284 147.761 277.997 146.783 278.823 145.535C281.013 142.186 281.381 140.591 284.068 135.911C285.797 132.883 287.076 131.757 288.124 130.93C289.088 130.171 289.279 130.242 291.21 129.113C296.033 126.304 298.6 123.707 299.593 124.303C299.694 124.372 299.775 124.466 299.827 124.576C300.738 126.202 298.586 131.059 294.939 134.607Z" fill="#F8AD07"/>
<path d="M271.794 162.138C272.793 153.03 276.595 144.213 276.636 144.139L277.513 144.23C277.476 144.317 273.747 152.982 272.764 161.931L271.794 162.138Z" fill="#F8AD07"/>
<path d="M286.661 156.819L261.494 156.882L257.287 176.703C256.97 178.195 256.991 179.739 257.349 181.221C257.708 182.703 258.394 184.086 259.358 185.27C260.322 186.453 261.54 187.406 262.921 188.059C264.303 188.712 265.813 189.049 267.343 189.045L280.917 189.013C282.447 189.008 283.956 188.662 285.334 188.001C286.713 187.34 287.926 186.381 288.885 185.193C289.845 184.005 290.526 182.619 290.88 181.135C291.233 179.652 291.25 178.108 290.928 176.618L286.661 156.819Z" fill="#E4003A"/>
<path d="M281.178 188.991L267.136 189.026L267.142 192.097L281.183 192.061L281.178 188.991Z" fill="#870B58"/>
<path d="M273.725 152.599C273.816 150.48 273.322 148.378 272.298 146.52L273.17 145.838C273.235 145.942 274.792 148.418 274.691 152.304L273.725 152.599Z" fill="#F8AD07"/>
<path d="M130.604 82.2993L130.531 82.2523C130.05 81.962 129.631 81.5802 129.298 81.1286C128.966 80.6771 128.725 80.1648 128.591 79.6208C128.457 79.0769 128.431 78.5121 128.516 77.9586C128.6 77.4052 128.794 76.874 129.084 76.3954L132.912 70.0869L140.295 74.5531L136.467 80.8616C135.88 81.826 134.934 82.5187 133.835 82.7881C132.736 83.0575 131.574 82.8818 130.604 82.2993Z" fill="#E4003A"/>
<path d="M134.905 81.2572C134.269 80.873 133.761 80.3096 133.446 79.6381C133.13 78.9666 133.021 78.2173 133.133 77.4848C133.244 76.7523 133.571 76.0696 134.072 75.523C134.573 74.9764 135.225 74.5905 135.947 74.414C136.668 74.2376 137.426 74.2785 138.125 74.5316C138.824 74.7848 139.432 75.2388 139.872 75.8362C140.313 76.4336 140.566 77.1476 140.6 77.888C140.634 78.6283 140.447 79.3617 140.063 79.9954C139.547 80.8441 138.714 81.4536 137.747 81.6901C136.78 81.9266 135.758 81.7709 134.905 81.2572ZM138.175 75.8684C137.741 75.6054 137.238 75.4767 136.731 75.4985C136.224 75.5204 135.735 75.6917 135.326 75.991C134.917 76.2902 134.606 76.7039 134.433 77.1796C134.26 77.6554 134.233 78.1718 134.354 78.6636C134.476 79.1554 134.741 79.6004 135.115 79.9424C135.49 80.2844 135.958 80.5079 136.46 80.5848C136.962 80.6616 137.475 80.5883 137.935 80.3741C138.395 80.1599 138.78 79.8144 139.042 79.3814C139.393 78.8019 139.499 78.1072 139.338 77.4492C139.176 76.7911 138.76 76.2232 138.18 75.8698L138.175 75.8684Z" fill="#E4003A"/>
<path d="M133.304 82.795L128.837 80.0938L128.332 80.9255L132.799 83.6268L133.304 82.795Z" fill="#E4003A"/>
<path d="M139.193 73.1546C140.993 72.6753 144.619 72.0156 144.715 73.2117C144.835 74.7069 140.35 72.882 139.193 73.1546Z" fill="#F8AD07"/>
<path d="M172.092 75.5545C174.771 75.3464 181.093 74.0343 184.945 70.4507C189.76 65.9712 193.748 62.0536 196.791 61.1952C199.835 60.3368 201.669 63.9267 199.039 64.5042C195.95 65.1825 195.488 54.8276 200.616 54.367" stroke="#F8AD07" stroke-width="0.5" stroke-linecap="round" stroke-dasharray="2 2"/>
<path d="M101.252 171.043L98.7081 187.99L72.8506 188.59L76.7101 162.878L101.252 171.043Z" fill="#F8AD07"/>
<path d="M72.1217 175.652L71.8133 170.837L74.2003 166.774L76.2278 166.092L75 174.5L72.5 175.5L72.1217 175.652Z" fill="#AAAEB8"/>
<path d="M69.6195 188L66 185L68.0964 180.627L70.5 179L71.3183 176.048L72.6949 175.28L75 174.5L73 188L69.6195 188Z" fill="#D4D6DB"/>
<path d="M61.4753 185.236L64.308 184.259L68.6874 185.999L69.5693 188L61.2967 188.031L61.6835 185.587L61.4753 185.236Z" fill="#AAAEB8"/>
<path d="M50.0222 188L51.7804 184.16L56.9428 182.031L59.9031 183.543L61.5346 185.236L62.308 186.609L65.238 188L50.0222 188Z" fill="#D4D6DB"/>
</svg>
