<svg width="40" height="40" viewBox="0 0 40 40" fill="none" xmlns="http://www.w3.org/2000/svg">
<g clip-path="url(#clip0_769_6068)">
<path d="M0 20C0 8.95431 8.95431 0 20 0C31.0457 0 40 8.95431 40 20C40 31.0457 31.0457 40 20 40C8.95431 40 0 31.0457 0 20Z" fill="#E94E0F"/>
<g clip-path="url(#clip1_769_6068)">
<path fill-rule="evenodd" clip-rule="evenodd" d="M-7 0H46.3333V40H-7V0Z" fill="black"/>
<path fill-rule="evenodd" clip-rule="evenodd" d="M28.5583 0H46.3333V40H28.5583V0Z" fill="#009900"/>
<path fill-rule="evenodd" clip-rule="evenodd" d="M10.7749 0H28.5582V40H10.7749V0Z" fill="#BF0000"/>
<path fill-rule="evenodd" clip-rule="evenodd" d="M21.3978 22.2858H22.1334C22.1334 22.5694 22.3107 22.8707 22.5322 23.0391H21.1143C21.3358 22.8441 21.3978 22.5959 21.3978 22.2858Z" fill="white" stroke="#BD6B00" stroke-width="0.0443108"/>
<path fill-rule="evenodd" clip-rule="evenodd" d="M16.7188 18.0939L17.1264 18.537L22.1778 18.5548L22.5855 18.1117L21.2916 18.0851L20.6713 17.642H18.633L18.0481 18.0939H16.7188Z" fill="white"/>
<path fill-rule="evenodd" clip-rule="evenodd" d="M18.7836 17.58H20.5295C20.7599 17.4559 20.8397 17.0571 20.8397 16.8356C20.8397 16.1798 20.37 15.8607 19.9091 15.843C19.8382 15.843 19.7585 15.7898 19.7408 15.7278C19.6964 15.586 19.7053 15.4885 19.6521 15.4974C19.6167 15.4974 19.6256 15.586 19.5901 15.7101C19.5635 15.781 19.4926 15.843 19.4129 15.8519C18.8457 15.8785 18.4735 16.295 18.4823 16.8356C18.4912 17.1901 18.5355 17.4028 18.7836 17.58Z" fill="white" stroke="#BD6B00" stroke-width="0.0443108"/>
<path fill-rule="evenodd" clip-rule="evenodd" d="M15.9212 23.7924H23.392L22.7274 23.2518H16.577L15.9124 23.7924H15.9212Z" fill="white"/>
<path fill-rule="evenodd" clip-rule="evenodd" d="M19.3507 21.7452L19.4836 22.1529H19.7938L19.5456 21.7452H19.3507ZM19.1734 22.1529L19.262 22.5605H19.6165L19.4836 22.1529H19.1734ZM19.7938 22.1529L20.0419 22.5605H20.5648L20.1571 22.1529H19.7938ZM16.7363 23.0745C17.0111 22.8175 17.1883 22.6048 17.1883 22.2947H17.8618C17.8618 22.4719 17.9239 22.5694 18.0213 22.5605H18.7037V22.1617H18.2074V19.9728C18.1897 19.1929 19.1468 18.7498 19.5368 18.7498H17.206V18.6789H22.1068V18.7498H19.7583C20.4584 18.7498 21.132 19.4145 21.1408 19.9728V20.5931H21.0522L21.0433 19.9816C21.0433 19.3701 20.2723 18.803 19.652 18.8207C19.1203 18.8296 18.2872 19.3436 18.2961 19.9728V20.1677L19.5634 20.1766L19.5545 20.3982L19.7495 20.5222L20.1483 20.6463V20.9831L20.4319 21.0628V21.3907L20.7686 21.5414V21.8781L20.9902 22.0111L20.9813 22.3567L21.2738 22.5605H20.5825L21.0168 23.0479H20.3698L20.0508 22.5605H19.6343L19.8204 23.0391H19.3773L19.262 22.5605H18.7126V23.0745H16.7452H16.7363ZM18.7037 21.7452V22.1529H19.1734L19.0848 21.7452H18.6949H18.7037Z" fill="white" stroke="#BD6B00" stroke-width="0.0443108"/>
<path fill-rule="evenodd" clip-rule="evenodd" d="M18.7305 21.0362H19.0229V21.7097H18.7305V21.0362Z" stroke="#BD6B00" stroke-width="0.0443108"/>
<path fill-rule="evenodd" clip-rule="evenodd" d="M18.314 21.7541H18.5976V21.2578C18.5976 21.0451 18.7925 20.8235 18.8811 20.8147C18.9875 20.8147 19.1381 21.0185 19.147 21.2401V21.7541H19.4483V20.4779H18.314V21.7541V21.7541ZM20.5827 22.0465H20.9372V22.3301H20.5827V22.0465ZM20.37 21.5768H20.7245V21.8515H20.37V21.5768ZM20.0244 21.0983H20.3788V21.373H20.0244V21.0983ZM19.7319 20.6995H20.0864V20.9742H19.7319V20.6995Z" stroke="#BD6B00" stroke-width="0.0443108"/>
<path fill-rule="evenodd" clip-rule="evenodd" d="M19.4927 21.754L19.8649 21.7718L20.5118 22.3389V22.0022L20.2903 21.8427V21.5768L19.9712 21.3996V21.1071L19.6611 21.0008V20.6197L19.5104 20.4868L19.5015 21.7629L19.4927 21.754Z" stroke="#BD6B00" stroke-width="0.0443108"/>
<path fill-rule="evenodd" clip-rule="evenodd" d="M21.0347 20.9121H21.1233V21.5413H21.0347V20.9121Z" fill="white" stroke="#BD6B00" stroke-width="0.0443108"/>
<path fill-rule="evenodd" clip-rule="evenodd" d="M15.8856 18.8029C15.7793 18.6257 15.6463 19.0511 15.1944 19.3612C14.9905 19.503 14.8399 19.8841 14.8399 20.1322C14.8399 20.3095 14.8576 20.4779 14.8399 20.6462C14.831 20.7437 14.7158 20.983 14.7956 21.045C14.9905 21.1868 15.2475 21.5236 15.3627 21.6388C15.4691 21.7274 15.5577 21.1691 15.6286 20.9298C15.7172 20.664 15.6818 20.3361 15.9122 20.0968C16.0717 19.9196 16.4794 19.76 16.4439 19.6891L15.8856 18.8029Z" fill="white" stroke="#BD6B00" stroke-width="0.0443108"/>
<path fill-rule="evenodd" clip-rule="evenodd" d="M15.8591 20.1677C15.8239 20.0841 15.7761 20.0064 15.7173 19.9373C15.6608 19.8672 15.5877 19.8124 15.5046 19.7778C15.423 19.7536 15.3495 19.7076 15.2919 19.6448C15.258 19.6068 15.2337 19.5612 15.221 19.5119C15.2109 19.4532 15.2109 19.3933 15.221 19.3347L15.1944 19.3612C14.9906 19.503 14.8399 19.8841 14.8399 20.1323C14.8372 20.2002 14.8372 20.2682 14.8399 20.3361C14.8577 20.3804 14.8665 20.4247 14.8931 20.4513L14.9906 20.5222L15.2299 20.5842C15.3195 20.6245 15.3984 20.6852 15.4603 20.7615C15.5248 20.8298 15.5786 20.9075 15.6198 20.9919L15.6375 20.921C15.7084 20.6817 15.6996 20.3981 15.868 20.1677H15.8591Z" fill="#BF0000" stroke="#BD6B00" stroke-width="0.0443108"/>
<path d="M14.8223 20.3006C14.8932 20.5665 15.0704 20.5311 15.2299 20.5842C15.3894 20.6463 15.5578 20.8501 15.6287 21.0096M15.2211 19.3258C15.1768 19.6183 15.3451 19.7246 15.5047 19.7778C15.6642 19.8398 15.7971 20.0082 15.8591 20.1677L15.2211 19.3258Z" stroke="#BD6B00" stroke-width="0.0443108"/>
<path fill-rule="evenodd" clip-rule="evenodd" d="M15.7351 18.6257L15.8237 18.5725L17.3923 21.2223L17.3037 21.2755L15.7351 18.6168V18.6257Z" fill="white" stroke="#BD6B00" stroke-width="0.0443108"/>
<path fill-rule="evenodd" clip-rule="evenodd" d="M15.9033 18.5194C15.9033 18.5664 15.8846 18.6115 15.8514 18.6447C15.8182 18.6779 15.7731 18.6966 15.7261 18.6966C15.6791 18.6966 15.634 18.6779 15.6007 18.6447C15.5675 18.6115 15.5488 18.5664 15.5488 18.5194C15.5488 18.4724 15.5675 18.4273 15.6007 18.394C15.634 18.3608 15.6791 18.3421 15.7261 18.3421C15.7731 18.3421 15.8182 18.3608 15.8514 18.394C15.8846 18.4273 15.9033 18.4724 15.9033 18.5194ZM17.2504 16.3924H17.8884V16.5342H17.2504V16.3924ZM17.2504 16.6672H17.8884V17.8902H17.2504V16.6672ZM17.2149 16.2241H17.9239C17.9416 15.9848 17.7023 15.7278 17.5694 15.7278C17.4276 15.7366 17.2061 15.9936 17.2149 16.2241Z" fill="white" stroke="#BD6B00" stroke-width="0.0443108"/>
<path fill-rule="evenodd" clip-rule="evenodd" d="M19.0139 16.0823C18.881 16.1354 18.7746 16.2861 18.7126 16.4633C18.6506 16.6406 18.624 16.8444 18.6594 17.0039C18.6594 17.066 18.686 17.1014 18.7037 17.1369C18.7215 17.1635 18.7392 17.1812 18.7569 17.1812C18.7835 17.1812 18.8101 17.1812 18.8189 17.1546L18.8367 17.0837C18.8278 16.9065 18.8278 16.7469 18.8633 16.6051C18.9027 16.4477 18.9969 16.3094 19.1291 16.2152C19.1557 16.1975 19.1646 16.1709 19.1734 16.1532C19.1731 16.1298 19.1635 16.1075 19.1469 16.0911C19.1114 16.0646 19.0582 16.0557 19.0139 16.0823ZM19.0316 16.1177C19.0671 16.1 19.1025 16.1177 19.1203 16.1266L19.1291 16.1443C19.1291 16.1532 19.1291 16.162 19.1025 16.1798C18.9664 16.2796 18.8693 16.4237 18.8278 16.5874C18.791 16.7502 18.7821 16.918 18.8012 17.0837C18.8012 17.1029 18.795 17.1215 18.7835 17.1369C18.7835 17.1369 18.7835 17.1457 18.7658 17.1369C18.7658 17.1369 18.7481 17.1369 18.7303 17.1103C18.7128 17.077 18.7008 17.0411 18.6949 17.0039C18.6683 16.8444 18.6949 16.6495 18.7569 16.4722C18.819 16.3127 18.9164 16.1709 19.0228 16.1177H19.0316Z" fill="#BD6B00"/>
<path fill-rule="evenodd" clip-rule="evenodd" d="M19.2445 16.2506C19.1116 16.3127 19.023 16.4544 18.9786 16.6228C18.9316 16.7931 18.9225 16.9716 18.9521 17.1457C18.9698 17.2609 19.0407 17.3229 19.0938 17.3229C19.1204 17.3318 19.147 17.3229 19.1647 17.2964C19.1825 17.2698 19.1913 17.2432 19.1825 17.2077C19.147 17.0659 19.1382 16.9064 19.1559 16.7558C19.1825 16.6051 19.2445 16.4722 19.3509 16.3924C19.3774 16.3658 19.3952 16.3481 19.3952 16.3215C19.396 16.3119 19.3948 16.3022 19.3918 16.2931C19.3887 16.284 19.3839 16.2755 19.3774 16.2683C19.342 16.2418 19.2888 16.2329 19.2445 16.2506ZM19.2622 16.2949C19.2977 16.2772 19.3331 16.2861 19.3509 16.2949L19.3597 16.3215L19.3331 16.357C19.2736 16.4046 19.2242 16.4637 19.1877 16.5306C19.1512 16.5975 19.1283 16.6711 19.1204 16.7469C19.0938 16.9064 19.1116 17.0748 19.1382 17.2077C19.147 17.2432 19.1382 17.2609 19.1382 17.2786L19.0938 17.2875C19.0673 17.2875 19.0052 17.2432 18.9875 17.1368C18.9609 16.9862 18.9698 16.7912 19.0141 16.6317C19.0584 16.4722 19.147 16.3392 19.2622 16.2949Z" fill="#BD6B00"/>
<path fill-rule="evenodd" clip-rule="evenodd" d="M17.2151 18.8827H17.9241V19.8575H17.2151V18.8827ZM17.2594 20.4247H17.9418V20.6374H17.2594V20.4247ZM17.2417 20.7881H17.9507V21.5591H17.2417V20.7881ZM17.1886 21.7186H17.9596V22.1528H17.1886V21.7186ZM17.286 20.2475H17.9064L18.0305 20.0348H17.1797L17.286 20.2475ZM18.1191 19.4853L18.1279 18.9536H18.5533C18.3705 19.0959 18.222 19.2777 18.1191 19.4853Z" fill="white" stroke="#BD6B00" stroke-width="0.0443108"/>
<path fill-rule="evenodd" clip-rule="evenodd" d="M17.3303 19.7069C17.3303 19.8221 17.4633 19.7778 17.4633 19.7157V19.2195C17.4633 19.1308 17.6759 19.1486 17.6759 19.2106V19.7423C17.6759 19.831 17.8266 19.8221 17.8177 19.7423V19.122C17.8177 18.927 17.3303 18.9359 17.3303 19.1131V19.7069ZM17.3303 20.8855H17.8355V21.5059H17.3303V20.8855Z" stroke="#BD6B00" stroke-width="0.0443108"/>
<path fill-rule="evenodd" clip-rule="evenodd" d="M17.6491 21.1514H17.8264V21.24H17.6491V21.1514ZM17.339 21.1514H17.5162V21.24H17.339V21.1514ZM17.5162 20.8855H17.6491V21.1514H17.5162V20.8855ZM17.5162 21.24H17.6491V21.5147H17.5162V21.24ZM14.7069 14.5934C14.7424 15.0808 14.5828 15.3555 14.3258 15.3112C14.2549 15.0454 14.4145 14.8592 14.7069 14.5934ZM14.1309 15.6834C13.9005 15.5682 14.0688 14.6643 14.1575 14.2832C14.2195 14.7706 14.3347 15.4619 14.1309 15.6834Z" fill="white" stroke="#BD6B00" stroke-width="0.0443108"/>
<path fill-rule="evenodd" clip-rule="evenodd" d="M14.2108 15.7278C14.6007 15.8607 14.9198 15.4442 15.0173 14.9567C14.6982 15.3999 14.1754 15.3999 14.2197 15.7278H14.2108ZM13.9184 16.1797C13.617 16.1 13.7943 15.1429 13.8563 14.7618C13.9184 15.1606 14.1311 16.0468 13.9184 16.1797ZM14.0247 16.1531C14.0424 15.8252 14.3703 15.9139 14.6007 15.7366C14.5564 15.9139 14.4235 16.1975 14.0247 16.1531ZM13.6525 16.5962C13.3512 16.5076 13.5284 15.4796 13.5107 15.0542C13.5993 15.4264 13.8829 16.4988 13.6525 16.5962ZM13.7943 16.5519C14.0424 16.6317 14.3703 16.4633 14.3969 16.1709C14.1754 16.3215 13.8386 16.2063 13.7943 16.5519Z" fill="white" stroke="#BD6B00" stroke-width="0.0443108"/>
<path fill-rule="evenodd" clip-rule="evenodd" d="M13.4219 17.0482C13.1383 17.0748 13.2624 16.1975 13.2624 15.3821C13.3687 16.1443 13.6612 16.8444 13.4219 17.0482Z" fill="white" stroke="#BD6B00" stroke-width="0.0443108"/>
<path fill-rule="evenodd" clip-rule="evenodd" d="M13.5283 17.0128C13.7233 17.1014 14.0689 16.9508 14.1664 16.6229C13.8119 16.7735 13.5815 16.6229 13.5283 17.0128ZM15.797 15.0454C15.7439 15.4797 15.5666 15.7278 15.3096 15.6835C15.2387 15.4176 15.4514 15.2404 15.797 15.0454ZM15.1058 16.1443C15.54 16.2064 15.6907 15.8785 15.992 15.4442C15.5755 15.7455 15.0881 15.7987 15.1058 16.1532V16.1443Z" fill="white" stroke="#BD6B00" stroke-width="0.0443108"/>
<path fill-rule="evenodd" clip-rule="evenodd" d="M14.973 16.1C14.7426 15.8164 14.973 15.453 15.1502 15.1517C15.1148 15.6037 15.2654 15.8607 14.973 16.1ZM14.8844 16.5697C14.8489 16.2861 15.3275 16.2241 15.5402 16.0734C15.4604 16.2329 15.3629 16.6672 14.8755 16.5697H14.8844Z" fill="white" stroke="#BD6B00" stroke-width="0.0443108"/>
<path fill-rule="evenodd" clip-rule="evenodd" d="M14.7778 16.5696C14.4499 16.5342 14.5829 15.9759 14.8222 15.6746C14.7247 16.0999 14.9994 16.3924 14.7778 16.5696Z" fill="white" stroke="#BD6B00" stroke-width="0.0443108"/>
<path fill-rule="evenodd" clip-rule="evenodd" d="M14.5297 17.0394C14.1574 16.8621 14.3967 16.4013 14.5297 16.1266C14.4765 16.4899 14.7778 16.7647 14.5297 17.0305V17.0394Z" fill="white" stroke="#BD6B00" stroke-width="0.0443108"/>
<path fill-rule="evenodd" clip-rule="evenodd" d="M14.6008 16.9862C14.7957 17.2521 15.1768 16.9153 15.2566 16.5254C14.9287 16.8001 14.6805 16.7558 14.6008 16.9951V16.9862ZM13.75 18.7852C13.7146 18.4042 13.9981 17.7218 13.7943 17.3496C13.7677 17.2964 13.8564 17.1635 13.9184 17.2432C14.007 17.3762 14.0956 17.7484 14.1399 17.6066C14.1754 17.4559 14.1843 17.1989 14.3172 17.1457C14.4058 17.1192 14.521 17.0926 14.4856 17.2344C14.4501 17.3584 14.3792 17.5357 14.459 17.5445C14.5033 17.5445 14.6362 17.3673 14.7514 17.2787C14.8401 17.2078 14.9818 17.3318 14.8401 17.4382C14.4147 17.7927 13.9981 17.9611 13.75 18.7852ZM12.979 24.5013C12.9258 24.5013 12.8638 24.4748 12.9258 24.5545C13.431 25.1749 13.5728 25.3521 14.3083 25.2635C15.0439 25.166 15.2211 24.9622 15.744 24.6697C15.8954 24.5901 16.061 24.5412 16.2314 24.526C16.4018 24.5108 16.5735 24.5295 16.7366 24.5811C16.8784 24.6254 16.967 24.6254 16.8606 24.5191C16.7543 24.4216 16.6391 24.2798 16.5061 24.1823C16.1755 23.9612 15.7726 23.8755 15.3806 23.943C14.8489 24.0316 14.3969 24.3773 13.8564 24.5102C13.5668 24.5687 13.2685 24.5687 12.979 24.5102V24.5013ZM17.2151 25.6091C17.3037 25.6268 17.3658 25.8041 17.4189 25.6889C17.4898 25.485 17.4367 25.3344 17.348 25.3432C17.2417 25.3698 17.0733 25.6091 17.2151 25.6091Z" fill="white" stroke="#BD6B00" stroke-width="0.0443108"/>
<path fill-rule="evenodd" clip-rule="evenodd" d="M12.6333 18.4928C12.527 18.3687 12.5536 18.3332 12.7219 18.3244C12.846 18.3244 13.0942 18.413 13.1916 18.3332C13.2803 18.2712 13.2359 18.0053 13.2803 17.8901C13.298 17.8104 13.3423 17.7129 13.4575 17.8724C13.7765 18.3864 14.1665 19.0068 14.3437 19.6094C14.4323 19.9462 14.3437 20.4779 14.0424 20.8324C14.0424 20.5311 13.9361 20.3272 13.8031 20.0702C13.6259 19.7423 12.9967 18.8295 12.6333 18.4839V18.4928Z" fill="white"/>
<path fill-rule="evenodd" clip-rule="evenodd" d="M13.9537 21.1869C14.3082 21.1869 14.3702 20.7172 14.3702 20.5842C14.193 20.6197 13.8916 20.9121 13.9537 21.1869ZM17.0111 25.7863C17.2593 25.8395 17.2504 25.2369 16.9934 24.9799C17.1086 25.3698 16.8162 25.7243 17.0023 25.7775L17.0111 25.7863ZM16.9048 25.7775C16.9225 26.061 16.1958 25.742 16.0186 25.5116C16.4439 25.6977 16.8871 25.547 16.9048 25.7775ZM16.5946 25.3698C16.6212 25.6445 15.9743 25.3964 15.7704 25.1837C16.2047 25.3255 16.568 25.1394 16.5946 25.3609V25.3698ZM16.7098 25.4052C16.9668 25.4673 16.9225 24.8381 16.6744 24.6254C16.7984 25.0419 16.5148 25.3432 16.7098 25.4052ZM16.444 25.0242C16.701 25.0862 16.5503 24.5456 16.3642 24.3329C16.3996 24.7229 16.2756 24.9976 16.4528 25.0242H16.444ZM16.311 25.0242C16.3376 25.3078 15.8325 25.0951 15.6375 24.8203C16.0629 24.9533 16.2844 24.7938 16.311 25.0242ZM16.1781 24.8026C16.3376 24.6874 16.1692 24.3772 15.8502 24.395C15.8856 24.5811 15.992 24.9178 16.1781 24.8026ZM17.4188 26.1054C17.4277 26.3889 16.7098 26.2472 16.4794 25.9458C16.9402 26.0345 17.3922 25.8749 17.4099 26.1054H17.4188ZM14.5474 25.5914C14.574 25.8749 13.7853 25.5559 13.5903 25.29C14.0069 25.4318 14.5209 25.3609 14.5474 25.5914ZM15.026 25.7066C15.1944 25.5914 14.8576 25.29 14.5829 25.2191C14.6183 25.4052 14.8488 25.8218 15.026 25.7154V25.7066ZM15.0792 25.9104C15.0969 26.1674 14.2373 26.0256 14.0157 25.7863C14.7513 25.9193 15.0526 25.6888 15.0792 25.9104Z" fill="white" stroke="#BD6B00" stroke-width="0.0443108"/>
<path fill-rule="evenodd" clip-rule="evenodd" d="M15.487 26.0788C15.5756 26.318 14.7514 26.256 14.459 26.1231C14.9287 26.1231 15.4161 25.9104 15.487 26.0788Z" fill="white" stroke="#BD6B00" stroke-width="0.0443108"/>
<path fill-rule="evenodd" clip-rule="evenodd" d="M15.868 26.256C15.9566 26.4687 15.1945 26.4687 14.8223 26.3446C15.3185 26.3446 15.7794 26.0433 15.868 26.256ZM16.4263 26.3712C16.5681 26.6282 15.7528 26.646 15.4958 26.5219C15.9566 26.4598 16.3111 26.1674 16.4263 26.3712ZM15.4781 25.937C15.2211 26.0965 15.2388 25.6179 15.035 25.29C15.354 25.5825 15.6553 25.7863 15.4781 25.937Z" fill="white" stroke="#BD6B00" stroke-width="0.0443108"/>
<path fill-rule="evenodd" clip-rule="evenodd" d="M15.9389 26.1142C15.7263 26.3004 15.549 25.6446 15.354 25.2723C15.6731 25.6268 16.1339 25.9547 15.9389 26.1054V26.1142ZM16.5416 26.2915C16.3643 26.5042 15.8326 25.6711 15.6376 25.228C15.9301 25.5737 16.6834 26.1142 16.5416 26.2915ZM16.0276 26.9296C15.9389 27.2486 14.5919 26.6283 14.4324 26.3004C15.2122 26.708 16.0453 26.6194 16.0276 26.9207V26.9296ZM11.7117 20.3893C11.6762 20.345 11.5876 20.3893 11.6053 20.4868C11.6319 20.6197 11.8269 21.3021 12.1637 21.5325C12.4029 21.7098 13.6702 21.9845 14.2374 22.1085C14.5564 22.1706 14.8134 22.3301 15.0261 22.5782C14.9533 22.2841 14.8646 21.9942 14.7603 21.7098C14.6539 21.4439 14.3703 21.1603 14.069 21.1514C13.5284 21.1248 12.8195 21.0805 12.2966 20.859C12.0598 20.7591 11.8545 20.5968 11.7028 20.3893H11.7117Z" fill="white" stroke="#BD6B00" stroke-width="0.0443108"/>
<path fill-rule="evenodd" clip-rule="evenodd" d="M14.84 23.0922C15.0173 23.2163 15.2034 22.7643 14.9907 22.3301C14.9818 22.7466 14.6539 22.8884 14.84 23.0922Z" fill="white" stroke="#BD6B00" stroke-width="0.0443108"/>
<path fill-rule="evenodd" clip-rule="evenodd" d="M15.0084 23.5088C15.2476 23.5797 15.3185 23.1543 15.1679 22.8175C15.1945 23.1809 14.7868 23.4024 15.0084 23.5088Z" fill="white" stroke="#BD6B00" stroke-width="0.0443108"/>
<path fill-rule="evenodd" clip-rule="evenodd" d="M15.1945 23.8455C15.4249 23.9607 15.5047 23.5265 15.3452 23.2163C15.3629 23.6151 15.0173 23.7392 15.1945 23.8367V23.8455Z" fill="white" stroke="#BD6B00" stroke-width="0.0443108"/>
<path fill-rule="evenodd" clip-rule="evenodd" d="M15.0969 23.8721C15.0083 24.138 14.4766 23.6328 14.3879 23.3581C14.7158 23.686 15.1589 23.6417 15.0969 23.8632V23.8721Z" fill="white" stroke="#BD6B00" stroke-width="0.0443108"/>
<path fill-rule="evenodd" clip-rule="evenodd" d="M14.8577 23.4556C14.7514 23.7214 14.0867 23.0125 13.936 22.6846C14.2639 23.0125 14.9286 23.2606 14.8577 23.4467V23.4556Z" fill="white" stroke="#BD6B00" stroke-width="0.0443108"/>
<path fill-rule="evenodd" clip-rule="evenodd" d="M14.7249 23.039C14.6185 23.3492 13.9007 22.525 13.688 22.2326C14.0425 22.5516 14.8046 22.8175 14.7249 23.039ZM14.6983 22.7377C14.9641 22.6845 14.6894 22.4718 14.3704 22.1262C14.3615 22.4896 14.4147 22.7466 14.6983 22.7377Z" fill="white" stroke="#BD6B00" stroke-width="0.0443108"/>
<path fill-rule="evenodd" clip-rule="evenodd" d="M14.2638 22.5251C14.379 22.4098 14.1663 22.3567 13.9004 22.0554C13.8561 22.2592 14.1486 22.6314 14.2726 22.5251H14.2638ZM15.5045 23.8721C15.6463 23.9607 15.7349 23.6683 15.5665 23.4113C15.5222 23.6949 15.3804 23.7658 15.5045 23.8721ZM12.4736 22.0731C12.1812 22.2503 11.7115 21.5414 11.5874 21.2489C11.8444 21.5857 12.5268 21.887 12.4736 22.0731Z" fill="white" stroke="#BD6B00" stroke-width="0.0443108"/>
<path fill-rule="evenodd" clip-rule="evenodd" d="M12.7307 22.4807C12.5623 22.658 12.0483 22.1706 11.8711 21.9224C12.137 22.1617 12.8016 22.1883 12.7307 22.4807Z" fill="white" stroke="#BD6B00" stroke-width="0.0443108"/>
<path fill-rule="evenodd" clip-rule="evenodd" d="M13.0056 22.853C12.9524 23.1011 12.208 22.5428 12.0308 22.2769C12.3498 22.5871 13.0588 22.5605 13.0056 22.853Z" fill="white" stroke="#BD6B00" stroke-width="0.0443108"/>
<path fill-rule="evenodd" clip-rule="evenodd" d="M12.8903 23.1277C12.7751 23.3492 12.1636 22.7909 12.0129 22.5073C12.394 22.8264 12.9878 22.9061 12.8992 23.1277H12.8903ZM12.5801 22.0376C12.7662 21.8338 12.6865 21.7363 12.5447 21.4173C12.4738 21.7452 12.3586 21.8781 12.5801 22.0376ZM12.8371 22.4187C13.1916 22.4364 12.8371 22.0111 12.7485 21.6477C12.7839 22.0554 12.6599 22.3833 12.8371 22.4187Z" fill="white" stroke="#BD6B00" stroke-width="0.0443108"/>
<path fill-rule="evenodd" clip-rule="evenodd" d="M13.0586 22.7554C13.2979 22.7023 13.2358 22.3566 13.0409 21.9401C13.0852 22.3921 12.837 22.6491 13.0586 22.7554ZM12.97 23.4378C12.8813 23.7037 12.1901 23.0833 12.0837 22.8352C12.4382 23.1365 13.032 23.234 12.97 23.4378Z" fill="white" stroke="#BD6B00" stroke-width="0.0443108"/>
<path fill-rule="evenodd" clip-rule="evenodd" d="M13.3866 23.8632C13.2891 24.1291 12.5624 23.5796 12.3408 23.2783C12.7751 23.6328 13.4397 23.5974 13.3866 23.8632Z" fill="white" stroke="#BD6B00" stroke-width="0.0443108"/>
<path fill-rule="evenodd" clip-rule="evenodd" d="M13.812 24.2975C13.6968 24.6785 12.9347 24.0671 12.7131 23.7657C13.1917 24.1379 13.8652 24.0316 13.812 24.2975ZM13.1031 23.3226C13.3069 23.4201 13.3867 22.8441 13.2715 22.4276C13.2715 22.8707 12.8549 23.2074 13.0942 23.3138L13.1031 23.3226Z" fill="white" stroke="#BD6B00" stroke-width="0.0443108"/>
<path fill-rule="evenodd" clip-rule="evenodd" d="M13.4486 23.7835C13.6967 23.8544 13.6258 23.2251 13.4043 22.8086C13.3777 23.2251 13.2005 23.6062 13.4486 23.7835ZM13.8917 24.2177C14.1576 24.2266 13.9803 23.6771 13.7499 23.3669C13.7854 23.7657 13.6613 24.1645 13.8917 24.2177ZM13.4043 24.4481C13.3157 24.5899 13.1207 24.3329 12.7839 24.1379C13.0852 24.2266 13.4397 24.3152 13.4043 24.4481ZM13.2448 19.7778C13.5106 19.5828 13.3068 19.2283 13.2448 18.8915C13.1561 19.2106 12.9435 19.636 13.2448 19.7778ZM13.2448 20.2475C12.846 20.2031 12.908 19.7069 12.8903 19.3878C13.0144 19.8221 13.3334 19.893 13.2448 20.2563V20.2475ZM13.2979 20.1854C13.6258 20.1677 13.6081 19.7955 13.6258 19.4233C13.4575 19.7689 13.2714 19.8221 13.2979 20.1854Z" fill="white" stroke="#BD6B00" stroke-width="0.0443108"/>
<path fill-rule="evenodd" clip-rule="evenodd" d="M13.2891 20.6463C13.0232 20.6729 12.8991 20.4159 12.8459 20.0259C13.0852 20.3893 13.2979 20.2741 13.2891 20.6463ZM13.3777 20.6197C13.7056 20.664 13.6435 20.2829 13.6435 19.9993C13.5372 20.2652 13.2713 20.3538 13.3777 20.6197Z" fill="white" stroke="#BD6B00" stroke-width="0.0443108"/>
<path fill-rule="evenodd" clip-rule="evenodd" d="M12.8638 20.4601C12.8904 20.7083 13.0499 21.1337 13.3069 21.0362C13.4044 20.7349 13.0765 20.6728 12.8638 20.4601Z" fill="white" stroke="#BD6B00" stroke-width="0.0443108"/>
<path fill-rule="evenodd" clip-rule="evenodd" d="M13.3777 21.0628C13.2714 20.8501 13.6436 20.7349 13.7145 20.4513C13.7588 20.859 13.7233 21.1248 13.3777 21.0717V21.0628ZM12.3231 18.475C12.5269 18.2624 12.3497 17.9079 12.2877 17.5711C12.199 17.8901 12.0661 18.3155 12.3231 18.475ZM12.3231 18.8827C11.9686 18.927 11.88 18.2003 11.8357 17.8813C11.9598 18.3155 12.3674 18.5016 12.3231 18.8916V18.8827ZM12.394 18.8827C12.6421 18.7498 12.589 18.4662 12.6599 18.2624C12.5004 18.5194 12.3408 18.5548 12.394 18.8827Z" fill="white" stroke="#BD6B00" stroke-width="0.0443108"/>
<path fill-rule="evenodd" clip-rule="evenodd" d="M12.3143 19.3612C11.9509 19.3878 11.7294 18.5814 11.7117 18.2623C11.8269 18.6966 12.3675 18.927 12.3232 19.3612H12.3143ZM12.3941 19.3435C12.7485 19.2638 12.7042 19.0333 12.6511 18.67C12.5359 19.0422 12.3409 18.9624 12.3941 19.3435Z" fill="white" stroke="#BD6B00" stroke-width="0.0443108"/>
<path fill-rule="evenodd" clip-rule="evenodd" d="M12.3142 19.8221C11.9065 19.893 11.9331 19.2372 11.6052 18.7675C11.8888 19.122 12.4028 19.5651 12.3142 19.8221ZM12.4028 19.7955C12.7219 19.8133 12.7573 19.3436 12.7396 19.1486C12.6598 19.3436 12.2965 19.5208 12.4117 19.8044L12.4028 19.7955Z" fill="white" stroke="#BD6B00" stroke-width="0.0443108"/>
<path fill-rule="evenodd" clip-rule="evenodd" d="M11.6763 19.317C11.8269 19.8221 12.0485 20.3272 12.3143 20.2918C12.4473 19.9993 12.0573 19.9639 11.6763 19.317Z" fill="white" stroke="#BD6B00" stroke-width="0.0443108"/>
<path fill-rule="evenodd" clip-rule="evenodd" d="M12.4117 20.212C12.3053 19.9905 12.6775 19.8841 12.7484 19.6005C12.7928 20.0082 12.7573 20.274 12.4117 20.212ZM11.7825 19.893C12.004 20.3449 12.1015 20.8678 12.4028 20.7881C12.518 20.4336 12.0661 20.3627 11.7825 19.893Z" fill="white" stroke="#BD6B00" stroke-width="0.0443108"/>
<path fill-rule="evenodd" clip-rule="evenodd" d="M12.4649 20.7083C12.332 20.4602 12.7042 20.3804 12.8017 20.0525C12.846 20.4779 12.8017 20.7881 12.4649 20.6995V20.7083ZM13.103 17.6509C13.3157 17.7041 13.5461 17.4648 13.4663 17.1014C13.2182 17.1546 13.1118 17.385 13.103 17.6509ZM12.4029 17.4648C12.4206 17.5711 12.5535 17.58 12.5092 17.4293C12.4761 17.3316 12.4761 17.2257 12.5092 17.128C12.5519 16.9955 12.5519 16.8529 12.5092 16.7204C12.4738 16.6317 12.3497 16.6849 12.4029 16.7558C12.456 16.8356 12.4649 17.004 12.4206 17.0837C12.3674 17.1989 12.3851 17.3496 12.4029 17.4648ZM14.4323 18.8827C14.3437 18.9979 14.1753 18.9182 14.3082 18.7498C14.4146 18.6169 14.5741 18.5017 14.5741 18.3599C14.5918 18.1826 14.6893 17.9168 14.7868 17.8193C14.8843 17.7218 14.9995 17.8547 14.8931 17.9256C14.7779 17.9965 14.6982 18.3156 14.707 18.4396C14.6982 18.6169 14.5298 18.7498 14.4323 18.8827ZM14.1664 18.6789C14.0778 18.803 13.9537 18.7232 14.0246 18.5282C14.0867 18.3953 14.0955 18.2181 14.1664 18.1206C14.2728 17.9699 14.4323 17.8459 14.5298 17.7484C14.6361 17.6598 14.707 17.7484 14.6184 17.837C14.5098 17.9455 14.4118 18.0642 14.326 18.1915C14.2019 18.3864 14.2551 18.546 14.1664 18.6789ZM12.7751 18.0408C12.7662 18.2181 12.908 18.2535 12.8991 18.0054C12.8991 17.7395 12.7042 17.4914 12.8105 17.0926C12.8814 16.8976 12.8814 16.5343 12.846 16.3482C12.8105 16.1532 12.6687 16.2773 12.7308 16.4279C12.7839 16.6052 12.7219 16.9242 12.6776 17.0926C12.5447 17.5711 12.7839 17.8015 12.7662 18.0408H12.7751ZM13.1561 17.066C13.1384 17.2344 12.9966 17.2432 13.0409 17.0217C13.0764 16.8444 13.0764 16.7026 13.0409 16.552C12.9878 16.3659 13.0055 16.0468 13.0409 15.9139C13.0852 15.7721 13.2182 15.8519 13.165 15.9582C13.1031 16.1257 13.0939 16.3082 13.1384 16.4811C13.1916 16.6583 13.1827 16.9065 13.1561 17.0748V17.066ZM11.7736 20.3538C11.8445 20.4336 11.9509 20.3804 11.8623 20.2652C11.7736 20.1766 11.8002 20.1589 11.7471 20.0525C11.6939 19.9285 11.7028 19.8664 11.6407 19.7867C11.5787 19.698 11.4989 19.7867 11.5521 19.8487C11.623 19.9373 11.6053 19.9905 11.6407 20.0703C11.7293 20.2032 11.7028 20.2741 11.7736 20.3538ZM13.5815 22.5339C13.6899 22.5938 13.782 22.6792 13.8499 22.7826C13.9178 22.8861 13.9596 23.0045 13.9715 23.1277C13.9807 23.3484 14.0414 23.5639 14.1487 23.7569C13.9715 23.7126 13.8828 23.429 13.8563 23.1543C13.8297 22.8707 13.679 22.7555 13.5904 22.5339H13.5815ZM14.0335 23.0568C14.1842 23.3315 14.388 23.4379 14.4057 23.6417C14.4234 23.881 14.4412 23.8899 14.5032 24.1203C14.326 24.076 14.2816 24.0582 14.2373 23.7037C14.2107 23.4556 14.0069 23.2872 14.0335 23.0568Z" fill="white" stroke="#BD6B00" stroke-width="0.0443108"/>
<path fill-rule="evenodd" clip-rule="evenodd" d="M18.6951 25.6091C18.7837 25.7686 18.8724 26.0079 19.0496 25.9636C19.0496 25.8483 18.8635 25.7597 18.6951 25.6091ZM18.961 25.6622C19.2889 25.804 19.5813 25.7686 19.6257 25.9813C19.3066 26.0167 19.1825 25.8927 18.9521 25.6622H18.961ZM17.5342 24.5367C17.7544 24.7079 17.9105 24.9483 17.9773 25.2191C18.0487 25.4641 18.1563 25.6971 18.2963 25.9104C18.0658 25.7555 17.8991 25.5226 17.8266 25.2546C17.7646 24.9887 17.6848 24.7849 17.5342 24.5456V24.5367ZM17.8089 24.5367C18.057 24.7317 18.2875 24.9621 18.3584 25.2369C18.4293 25.4939 18.4736 25.6888 18.642 25.9458C18.3761 25.7774 18.2786 25.5293 18.1988 25.2546C18.1368 24.9887 17.9773 24.7937 17.8089 24.5456V24.5367ZM18.6242 25.1837C18.6208 25.1615 18.625 25.1388 18.6363 25.1195C18.6476 25.1001 18.6653 25.0852 18.6863 25.0773C18.7621 25.0506 18.8389 25.0269 18.9167 25.0064C19.0053 24.9799 19.0585 25.0419 19.0585 25.0862V25.2634C19.0585 25.3255 19.0407 25.3343 18.9964 25.3432C18.9344 25.3521 18.8458 25.3609 18.7837 25.4052C18.7306 25.4407 18.6774 25.4141 18.6508 25.3609L18.6242 25.1837ZM19.5636 25.1837C19.5636 25.1305 19.5459 25.0862 19.5104 25.0773C19.4432 25.0495 19.3704 25.0374 19.2978 25.0419C19.2091 25.0419 19.2003 25.0596 19.2003 25.0951V25.2812C19.2003 25.3521 19.2003 25.3521 19.2357 25.3698C19.2978 25.3698 19.3952 25.3698 19.4573 25.423C19.5016 25.4495 19.5459 25.423 19.5548 25.3698L19.5636 25.1837Z" fill="white"/>
<path fill-rule="evenodd" clip-rule="evenodd" d="M22.1955 27.6739C22.1955 27.7803 22.2132 27.8689 22.2841 27.9487C21.8787 27.8262 21.442 27.861 21.0611 28.0462C20.9016 28.1171 20.7066 27.9575 20.8927 27.8069C21.1586 27.6031 21.7524 27.7183 22.1955 27.6739ZM17.0997 27.6739C17.1075 27.7641 17.0954 27.8548 17.0643 27.9398C17.4542 27.7892 17.8708 27.9221 18.2695 28.0816C18.5354 28.1968 18.562 27.993 18.5177 27.931C18.4687 27.8568 18.4031 27.7951 18.3263 27.7505C18.2494 27.7059 18.1633 27.6797 18.0746 27.6739H17.0997ZM17.4365 25.7509C17.3213 25.7065 17.1972 25.7509 17.082 25.8749C16.7009 26.2471 16.249 26.6105 15.8856 26.9029C15.7527 27.0181 15.6198 27.2308 16.1869 27.4347C16.2135 27.4524 16.63 27.6119 16.8959 27.6119C17.0111 27.6119 17.0111 27.7714 16.9845 27.8157C16.9402 27.9044 16.9757 27.9398 16.8871 28.0196C16.7896 28.1082 16.8871 28.2057 16.9757 28.1348C17.2947 27.8512 17.8264 28.0373 18.3316 28.1968C18.4557 28.2323 18.6683 28.2234 18.6683 28.055C18.6683 27.8778 18.8013 27.7537 18.881 27.7448C19.0937 27.7803 20.1217 27.7892 20.4319 27.7537C20.6092 27.7271 20.6269 28.0107 20.7244 28.1082C20.7953 28.188 21.0523 28.2057 21.2384 28.1259C21.5929 27.9664 22.1246 27.9664 22.3461 28.1259C22.4348 28.188 22.5145 28.1259 22.4614 28.0639C22.3905 27.9753 22.3993 27.9221 22.3639 27.8512C22.2752 27.6739 22.3461 27.6385 22.4348 27.6296C23.4096 27.4967 23.7286 27.1688 23.4273 26.8941C23.0374 26.5573 22.612 26.2117 22.2398 25.8129C22.1335 25.7065 22.0626 25.6622 21.8587 25.7509C21.153 26.0709 20.3911 26.2485 19.6166 26.2737C18.8663 26.2253 18.1294 26.0515 17.4365 25.7597V25.7509Z" fill="white"/>
<path fill-rule="evenodd" clip-rule="evenodd" d="M22.0271 25.8041L21.8853 25.8395C21.0877 26.1231 20.361 26.3181 19.6078 26.3181C18.8722 26.3181 18.1012 26.1054 17.4011 25.8218C17.358 25.8069 17.3112 25.8069 17.2682 25.8218C17.2238 25.8307 17.1795 25.8572 17.1529 25.8838C16.8254 26.2114 16.476 26.5164 16.1072 26.7966C16.0452 26.841 16.054 26.9562 16.1515 26.9916C16.8871 27.2575 17.6049 27.7449 19.6609 27.7272C21.7435 27.7094 22.4791 27.2309 23.1349 27.0093C23.1792 26.9916 23.2235 26.965 23.2501 26.9207C23.2564 26.9102 23.2605 26.8984 23.262 26.8862C23.2635 26.874 23.2625 26.8616 23.259 26.8498C23.2475 26.8221 23.2292 26.7977 23.2058 26.7789C22.8247 26.4687 22.4259 26.2206 22.1601 25.8573C22.1335 25.8129 22.0803 25.8041 22.0271 25.8129V25.8041ZM22.0271 25.8484C22.0714 25.8484 22.1158 25.8484 22.1246 25.875C22.3905 26.256 22.807 26.4953 23.1792 26.8055L23.2147 26.8675C23.2171 26.8731 23.2184 26.8792 23.2184 26.8853C23.2184 26.8914 23.2171 26.8974 23.2147 26.903C23.2058 26.9296 23.1615 26.9562 23.126 26.965C22.4525 27.1954 21.7347 27.674 19.6698 27.6917C17.6138 27.7094 16.9048 27.222 16.1692 26.9562C16.0983 26.9207 16.1072 26.8498 16.1338 26.8321C16.506 26.5485 16.8605 26.2295 17.1795 25.9104C17.207 25.8847 17.2405 25.8664 17.277 25.8573H17.3834C18.0838 26.1616 18.8356 26.33 19.5989 26.3535C20.3699 26.3535 21.1055 26.1586 21.9031 25.8838C21.9459 25.8669 21.9905 25.855 22.036 25.8484H22.0271Z" fill="#BD6B00"/>
<path fill-rule="evenodd" clip-rule="evenodd" d="M16.9845 12.431C16.9845 12.307 17.1618 12.2981 17.144 12.4665C17.1175 12.6703 17.5428 13.2021 17.5783 13.53C17.6049 13.7515 17.4454 13.9376 17.2947 14.0617C17.2078 14.1232 17.1058 14.1599 16.9996 14.1677C16.8934 14.1755 16.787 14.1542 16.6921 14.106C16.6123 14.0351 16.5414 13.8135 16.6035 13.7249C16.6212 13.6983 16.7187 14.0528 16.9314 14.0528C17.2238 14.0528 17.4631 13.8313 17.4631 13.6363C17.4808 13.2995 16.9934 12.7678 16.9845 12.431ZM17.8264 13.2641C17.8796 13.2286 17.9505 13.3793 17.8973 13.4147C17.853 13.4413 17.7644 13.2995 17.8264 13.2552V13.2641ZM17.9594 12.9539C17.9328 12.9716 17.8885 12.9539 17.8973 12.9362C17.9825 12.8179 18.0911 12.7183 18.2164 12.6437C18.2518 12.626 18.305 12.6792 18.2873 12.7058C18.1969 12.8109 18.0851 12.8955 17.9594 12.9539ZM19.076 12.0677C19.1026 12.0145 19.2621 11.9525 19.3064 11.917C19.3419 11.8727 19.3596 11.9525 19.3419 11.9791C19.3153 12.0411 19.1735 12.1297 19.1115 12.1386C19.0849 12.1386 19.0583 12.1031 19.076 12.0766V12.0677ZM19.4571 12.0943C19.5037 11.9764 19.5801 11.8726 19.6786 11.793C19.7229 11.7664 19.7938 11.793 19.7761 11.8284C19.7159 11.9456 19.6276 12.0461 19.5191 12.1209C19.4925 12.1475 19.4482 12.1209 19.4571 12.0943ZM19.1292 12.3336C19.1026 12.3513 19.1203 12.3956 19.138 12.4045C19.1912 12.4222 19.271 12.4222 19.3153 12.4045C19.3685 12.369 19.3419 12.1475 19.271 12.2627C19.2178 12.3336 19.1823 12.3158 19.1292 12.3336ZM18.4822 12.8298C18.367 12.7412 18.5177 12.6171 18.6329 12.7058C18.8722 12.883 18.2784 13.5743 17.9594 13.8933C17.8973 13.9553 17.8442 13.8047 17.9239 13.7249C18.1547 13.5316 18.3548 13.3045 18.5177 13.0514C18.5531 13.0071 18.5797 12.9096 18.4822 12.8298ZM19.8381 12.2449C19.847 12.1563 19.6964 12.2449 19.6964 12.1297C19.6964 12.0677 19.8647 12.0234 19.9356 12.0943C20.0508 12.2184 19.9622 12.4222 19.7584 12.4399C19.5989 12.4399 19.3153 12.6792 19.3596 12.7235C19.4039 12.7855 19.8381 12.821 20.0951 12.7855C20.2547 12.7589 20.2192 12.9007 20.0597 12.9185C19.9002 12.9362 19.7761 12.9185 19.6343 12.9716C19.4571 13.0159 19.3862 13.2375 19.2887 13.3261C19.271 13.3438 19.2178 13.2552 19.2355 13.2198C19.3064 13.1134 19.4128 12.9539 19.5368 12.9007C19.6077 12.8742 19.3241 12.8653 19.2355 12.8387C19.1646 12.821 19.1823 12.7235 19.2089 12.6703C19.2444 12.5994 19.5102 12.3247 19.6255 12.3336C19.7229 12.3336 19.8293 12.307 19.8381 12.2449ZM20.2813 12.2627C20.3344 12.2183 20.3699 12.1475 20.4142 12.1031C20.4408 12.0766 20.4939 12.1031 20.4851 12.174C20.4762 12.2361 20.3965 12.2804 20.3522 12.3247C20.3078 12.3513 20.2635 12.2892 20.2901 12.2627H20.2813ZM20.8573 12.0588C20.9371 12.0588 20.9459 12.2006 20.875 12.2183C20.8218 12.2361 20.7864 12.0677 20.8573 12.0588ZM20.6712 12.5019C20.6712 12.6349 20.7332 12.626 20.8484 12.6171C20.9636 12.6171 21.0611 12.6171 21.0611 12.5108C21.0611 12.3956 20.9991 12.2892 20.9725 12.369C20.9636 12.4399 20.9459 12.564 20.9016 12.5108C20.8662 12.4665 20.8839 12.4576 20.813 12.5285C20.7687 12.5728 20.7687 12.5108 20.7421 12.4754C20.7244 12.4488 20.6712 12.4931 20.6712 12.5108V12.5019ZM19.8559 13.14C19.8293 13.3084 19.8559 13.5388 19.9356 13.5388C20.042 13.5388 20.2547 13.1843 20.361 12.9894C20.423 12.883 20.5205 12.8653 20.4762 12.9805C20.4142 13.1489 20.4231 13.5122 20.4762 13.6186C20.5117 13.6717 20.7421 13.5654 20.7775 13.4856C20.8484 13.335 20.7864 13.0603 20.813 12.8919C20.8218 12.7855 20.9282 12.7589 20.9193 12.8653C20.9054 13.0866 20.9024 13.3084 20.9105 13.53C20.9105 13.6186 21.1675 13.7426 21.2029 13.4768C21.2206 13.3173 21.3093 13.1489 21.2029 12.9716C21.132 12.8564 21.3004 12.8653 21.389 13.0248C21.4511 13.1312 21.3359 13.3084 21.3447 13.4413C21.3447 13.654 21.1852 13.7781 21.07 13.7781C20.9636 13.7781 20.8927 13.6452 20.8041 13.6452C20.7155 13.6452 20.6092 13.7958 20.5383 13.787C20.2192 13.7692 20.3876 13.3173 20.2901 13.3084C20.1838 13.3084 20.0686 13.7515 19.9356 13.7426C19.8116 13.7249 19.6698 13.3704 19.7318 13.2286C19.7761 13.0868 19.8647 13.0514 19.8559 13.14ZM21.3536 12.431C21.2029 12.3424 21.3536 12.1031 21.4333 12.1829C21.5751 12.3601 21.7169 12.7589 21.8233 12.7944C21.8853 12.8121 21.8764 12.4931 21.9208 12.3513C21.9562 12.2361 22.0803 12.2715 22.0626 12.4133C22.0537 12.4576 21.8853 12.9805 21.903 12.9982C22.0211 13.2194 22.119 13.4507 22.1955 13.6895C22.2221 13.7958 22.098 13.7249 22.0803 13.7072C22.0005 13.5831 21.8676 13.1312 21.8676 13.1577L21.7169 13.8401C21.6992 13.9287 21.5663 13.911 21.6017 13.7515C21.6283 13.6274 21.8055 13.0159 21.7967 12.9894C21.6952 12.7708 21.5433 12.5795 21.3536 12.431Z" fill="white"/>
<path fill-rule="evenodd" clip-rule="evenodd" d="M21.6195 13.9021C21.584 13.9021 21.5131 13.9908 21.7258 14.0351C22.0005 14.0882 22.3107 13.9908 22.3993 13.716C22.5145 13.3881 22.5766 13.078 22.6386 12.9627C22.7095 12.8298 22.7981 12.8387 22.7272 12.6437C22.6829 12.4931 22.5943 12.5374 22.5766 12.6171C22.5323 12.821 22.3462 13.5033 22.2841 13.6185C22.1778 13.849 21.9562 13.9376 21.6195 13.9021Z" fill="white"/>
<path fill-rule="evenodd" clip-rule="evenodd" d="M22.1866 12.821C22.1512 12.7589 22.0803 12.821 22.098 12.883C22.1022 12.908 22.1153 12.9307 22.1348 12.947C22.1543 12.9633 22.179 12.972 22.2044 12.9716C22.2664 12.9716 22.3993 12.9805 22.3993 12.883C22.3993 12.8121 22.3373 12.7501 22.3018 12.8298C22.2575 12.9007 22.2132 12.8919 22.1866 12.8298V12.821ZM22.2487 12.5551C22.2309 12.5728 22.2487 12.6526 22.2753 12.6437C22.3771 12.6445 22.4775 12.6201 22.5677 12.5728C22.5854 12.5551 22.5766 12.5108 22.55 12.5108C22.4614 12.5108 22.3196 12.5108 22.2487 12.5551ZM23.0285 12.7589C23.0994 12.6526 23.2767 12.6437 23.2058 12.7944C23.0238 13.1598 22.8377 13.5232 22.6475 13.8844C22.5766 14.0085 22.5234 13.9465 22.5766 13.849C22.6386 13.7249 23.0108 12.7855 23.0285 12.7589Z" fill="white"/>
<path fill-rule="evenodd" clip-rule="evenodd" d="M22.3461 14.0617C22.3283 13.9908 22.2131 13.8844 22.2309 14.0794C22.2486 14.4161 22.7183 14.3098 22.8512 14.1946C22.9841 14.0794 22.8778 14.5757 23.0462 14.6288C23.1348 14.6554 23.312 14.5314 23.4007 14.4161C23.6399 14.106 23.7995 13.654 24.021 13.3527C24.1096 13.2286 23.9767 13.14 23.9324 13.2375C23.7197 13.5742 23.4716 14.2655 23.1968 14.4427C22.9753 14.5845 23.0462 14.2655 23.0373 14.1591C23.0284 14.0882 22.9398 13.9819 22.8246 14.0794C22.7319 14.1536 22.6153 14.1914 22.4967 14.1857C22.4347 14.1857 22.3726 14.1857 22.3461 14.0617Z" fill="white"/>
<path fill-rule="evenodd" clip-rule="evenodd" d="M23.1792 13.4413C23.1792 13.4147 23.0817 13.4059 23.0905 13.5034C23.0905 13.5743 23.1792 13.592 23.188 13.592C23.321 13.4856 23.1614 13.5388 23.1792 13.4325V13.4413ZM22.9753 13.8313C22.9488 13.8313 22.9222 13.9199 22.9931 13.9287L23.3387 13.911C23.3741 13.911 23.3919 13.8313 23.3032 13.8401C23.1969 13.8401 23.064 13.8135 22.9753 13.8401V13.8313ZM17.4808 12.3601C17.5251 12.3601 17.6226 12.4842 17.6137 12.5285C17.6137 12.5463 17.5074 12.5285 17.4808 12.5019C17.4542 12.4754 17.4631 12.3601 17.4808 12.3601ZM17.0111 13.2818C16.9225 13.335 17.0288 13.4325 17.0997 13.3882C17.3479 13.2198 17.7201 13.0514 17.8087 12.7235C17.8353 12.6171 17.9328 12.4488 18.0303 12.4133C18.1189 12.369 18.2607 12.5817 18.3493 12.4133C18.4025 12.3247 18.5886 12.4754 18.6329 12.3779C18.686 12.2627 18.6595 12.2006 18.6595 12.0766C18.6595 12.0057 18.5974 11.9879 18.5531 12.1031C18.5354 12.1563 18.5531 12.2095 18.5443 12.2449C18.5265 12.2627 18.4911 12.2804 18.4556 12.2627C18.4379 12.2449 18.4556 12.2006 18.4025 12.174C18.3847 12.174 18.3493 12.1652 18.3316 12.1918C18.2695 12.307 18.2429 12.4133 18.1455 12.2804C18.0657 12.1918 18.0214 12.0057 17.9682 12.2538C17.9505 12.3424 17.8176 12.4665 17.7378 12.4665C17.6403 12.4665 17.6669 12.2006 17.4542 12.2449C17.339 12.2715 17.3479 12.4842 17.3656 12.5551C17.3922 12.6703 17.7201 12.5906 17.6935 12.6615C17.6403 12.9007 17.3036 13.14 17.0111 13.2818ZM14.9994 14.4516C14.9905 14.4959 15.0437 14.6023 15.0969 14.6111C15.15 14.6111 15.1855 14.4959 15.1678 14.4516C15.15 14.425 15.0083 14.425 14.9994 14.4516ZM15.2918 14.8859C15.2564 14.8504 15.15 14.9479 15.2387 15.0188C15.283 15.0631 15.4602 15.1163 15.5045 15.0365C15.5754 14.9302 15.4425 14.5491 15.5045 14.5048C15.5488 14.4605 15.7527 14.7529 15.859 14.7707C16.0983 14.8061 16.0363 14.363 16.3021 14.3984C16.4705 14.4162 16.4882 14.2035 16.4616 14.0617C16.4439 13.9287 16.2312 13.7426 16.1337 13.654C16.0097 13.5477 15.9476 13.7426 16.0274 13.7958C16.1337 13.8844 16.3199 14.0528 16.3464 14.1592C16.3553 14.2123 16.2224 14.3187 16.1692 14.2921C16.0451 14.2212 15.9388 13.9376 15.8324 13.8756C15.797 13.8579 15.7084 13.9022 15.7438 13.9908C15.797 14.0883 16.0097 14.2301 16.0185 14.3364C16.0274 14.425 15.9299 14.62 15.859 14.62C15.7793 14.62 15.5932 14.3807 15.5311 14.2655C15.4957 14.2212 15.3982 14.2212 15.3805 14.301C15.3747 14.4646 15.3896 14.6284 15.4248 14.7884C15.4425 14.9302 15.345 14.939 15.2918 14.8859ZM14.9374 14.1237C14.9019 14.1592 15.0083 14.2301 15.026 14.2123C15.0614 14.1769 15.2121 14.0085 15.1855 13.9465C15.1589 13.8933 14.9551 13.7692 14.9196 13.8313C14.8576 13.9287 15.1146 13.9819 15.0703 14.0085C15.0207 14.0404 14.976 14.0792 14.9374 14.1237ZM15.3007 13.3793C15.3007 13.3793 15.3716 13.6008 15.4248 13.5034C15.4602 13.4413 15.3007 13.3793 15.3007 13.3793ZM15.407 13.7338C15.3893 13.7338 15.3184 13.7958 15.3627 13.8224C15.4336 13.8579 15.6197 13.8933 15.5754 13.7604C15.5488 13.6806 15.859 13.7604 15.7793 13.5477C15.7472 13.4821 15.6942 13.4291 15.6286 13.397C15.5932 13.397 15.4957 13.4413 15.5577 13.4768C15.602 13.4945 15.7349 13.5743 15.6906 13.6274C15.6286 13.6806 15.5932 13.6008 15.5223 13.6186C15.4868 13.6186 15.5134 13.7249 15.4868 13.7515C15.4868 13.7692 15.4248 13.7161 15.407 13.7249V13.7338ZM15.8945 12.8919C15.8398 12.9371 15.8023 12.9996 15.7881 13.0691C15.7881 13.0868 15.8147 13.1223 15.8324 13.1134C15.8871 13.072 15.9249 13.0122 15.9388 12.945C15.9388 12.9185 15.9211 12.8742 15.8945 12.8919ZM16.1426 12.8653C16.0717 12.7767 16.2312 12.6349 16.2933 12.821C16.3376 12.9362 16.7807 13.5211 16.8693 13.7161C16.9402 13.849 16.8693 13.9022 16.7895 13.8047C16.568 13.5211 16.3819 13.1666 16.1426 12.8653ZM16.6034 12.8742C16.6832 12.7855 16.8427 12.6083 16.7984 12.5197C16.763 12.431 16.6655 12.431 16.6478 12.4576C16.5591 12.5728 16.7186 12.5463 16.6921 12.5817C16.6478 12.6703 16.6034 12.7235 16.5769 12.8121C16.568 12.8387 16.5857 12.8919 16.6034 12.8742ZM23.4982 13.1577C23.4362 13.1134 23.5514 12.8919 23.6311 12.9805C23.835 13.2198 23.9325 14.0085 23.9945 14.6023C23.9945 14.6023 23.9059 14.682 23.9059 14.6643C23.9059 14.3541 23.7729 13.3882 23.4982 13.1577ZM18.7924 12.3956C18.7215 12.2361 18.8899 12.1829 18.9165 12.2892C19.0317 12.8033 19.3153 13.1932 19.5368 13.5388C19.5989 13.6452 19.5368 13.7161 19.3862 13.6097C19.2798 13.5388 19.1646 13.2641 19.1203 13.2552C19.0139 13.2375 18.7835 13.6983 18.3138 13.5654C18.1898 13.53 18.1986 13.1666 18.1898 13.0071C18.1898 12.9273 18.2784 12.9185 18.2784 13.0071C18.2784 13.1577 18.2784 13.4679 18.4645 13.4856C18.624 13.4856 18.9608 13.2729 19.0317 13.0957C19.1026 12.9185 18.8633 12.5728 18.7924 12.3867V12.3956Z" fill="white"/>
<path fill-rule="evenodd" clip-rule="evenodd" d="M23.6222 14.5403C23.6577 14.4339 24.1628 13.5832 24.2337 13.397C24.2692 13.3084 24.411 13.5566 24.2692 13.6895C24.1451 13.7958 23.7817 14.3985 23.7108 14.6112C23.6754 14.6998 23.5868 14.6555 23.6222 14.5403Z" fill="white"/>
<path fill-rule="evenodd" clip-rule="evenodd" d="M24.482 13.7338C24.5706 13.3793 24.801 13.787 24.5972 13.982C24.2959 14.2833 24.1984 14.8593 23.711 14.9479C23.5869 14.9745 23.3565 14.8859 23.2856 14.8327C23.259 14.815 23.3033 14.6909 23.3831 14.753C23.4983 14.8416 23.7464 14.8682 23.8794 14.7618C24.1689 14.4795 24.3771 14.1244 24.482 13.7338ZM19.4305 14.8593C19.404 14.8859 19.3419 14.8859 19.3331 14.9213C19.3065 15.0454 19.3331 15.1163 19.3065 15.2404C19.2799 15.3644 19.1913 15.3644 19.2001 15.267C19.2001 15.1429 19.3153 14.9568 19.2356 14.9479C19.1824 14.9391 19.147 14.8682 19.2001 14.8327C19.2976 14.7707 19.3508 14.7795 19.4128 14.7973C19.4394 14.8061 19.4483 14.8416 19.4305 14.8593Z" fill="white"/>
<path fill-rule="evenodd" clip-rule="evenodd" d="M19.3596 14.682C19.2355 14.8061 19.1115 14.8504 18.9963 14.9922C18.9431 15.0454 18.9519 15.1251 18.9165 15.2049C18.8899 15.2846 18.7924 15.2935 18.7658 15.2846C18.7215 15.2492 18.7304 15.1074 18.6772 15.1783C18.624 15.2581 18.5975 15.3555 18.5266 15.3555C18.4645 15.3555 18.3493 15.2226 18.4114 15.2226C18.6152 15.196 18.6063 15.0454 18.6772 15.0276C18.7658 15.0188 18.7658 15.1606 18.8279 15.134C18.8633 15.1163 18.8899 14.9479 18.9342 14.9036C19.0672 14.7618 19.1735 14.6909 19.3153 14.5845C19.3773 14.5314 19.4305 14.6288 19.3596 14.6909V14.682ZM19.8293 15.1251C19.723 15.1428 19.7407 15.2758 19.7761 15.2846C19.8204 15.3112 19.9002 15.3201 19.9268 15.1694C19.9445 15.1074 19.9534 15.4796 20.0863 15.3378C20.1749 15.2492 20.361 15.3555 20.4408 15.2492C20.5028 15.1694 20.5294 15.1163 20.4762 15.0099C20.4585 14.9833 20.3876 14.9922 20.3876 15.0719C20.3876 15.1428 20.3433 15.2226 20.2724 15.2137C20.237 15.2049 20.2901 15.0454 20.2547 15.0011C20.2464 14.9929 20.2353 14.9884 20.2237 14.9884C20.2121 14.9884 20.2009 14.9929 20.1926 15.0011C20.1661 15.0365 20.2192 15.196 20.1395 15.2137C20.0331 15.2315 20.0863 15.1074 20.0509 15.0897C19.9002 15.0188 19.8913 15.1074 19.8293 15.1163V15.1251ZM20.6269 14.8593C20.7067 14.8415 20.6801 14.8415 20.8041 14.744C20.8484 14.7086 20.8573 14.8149 20.8484 14.8593C20.8484 14.9213 20.7598 14.877 20.7332 14.939C20.6978 15.0188 20.7155 15.2049 20.6978 15.2758C20.6978 15.3112 20.6269 15.3112 20.6269 15.2758C20.6092 15.1872 20.6358 15.0985 20.6269 14.9833C20.6269 14.9479 20.5826 14.8858 20.6269 14.8681V14.8593ZM20.1838 14.6377C20.1661 14.7175 20.1661 14.7795 20.1661 14.8415C20.1661 14.8858 20.2547 14.8593 20.2547 14.8504C20.2547 14.7795 20.2724 14.6732 20.2547 14.6466C20.237 14.6377 20.1926 14.62 20.1838 14.6377Z" fill="white"/>
<path fill-rule="evenodd" clip-rule="evenodd" d="M19.6254 13.8135L19.5014 14.3098L19.3241 13.9731V14.3187L18.9342 13.8578L19.0671 14.3541L18.7126 14.0528L18.9076 14.3896L18.2872 13.9908L18.6772 14.4516L18.1809 14.2035L18.5354 14.5048L17.7378 14.2035L18.5088 14.5845C18.8591 14.4251 19.2407 14.3464 19.6254 14.3541C20.0597 14.3541 20.4496 14.4428 20.7332 14.5845L21.5131 14.2035L20.7155 14.5048L21.07 14.2035L20.5825 14.4516L20.9636 13.9908L20.3433 14.3896L20.5382 14.0528L20.1837 14.3453L20.3167 13.8578L19.9356 14.3187V13.9731L19.7584 14.3098L19.6254 13.8135Z" fill="white"/>
<path d="M18.9416 24.5833L18.9166 24.8H18.8833L18.8749 24.65C18.8651 24.6044 18.8511 24.5598 18.8333 24.5167C18.8228 24.4793 18.8089 24.443 18.7916 24.4083L18.7083 24.2917L18.7749 24.1083C18.8306 24.1652 18.8732 24.2334 18.8999 24.3083C18.9291 24.3941 18.9432 24.4844 18.9416 24.575V24.5833ZM19.5249 24.225C19.5249 24.2833 19.5083 24.325 19.4833 24.35C19.4666 24.375 19.4333 24.4 19.3749 24.4083L19.4083 24.5333C19.4166 24.5886 19.4166 24.6448 19.4083 24.7C19.4065 24.7362 19.4037 24.7723 19.3999 24.8083H19.3666C19.3667 24.7721 19.3639 24.7358 19.3583 24.7C19.3553 24.6718 19.3497 24.6439 19.3416 24.6167L19.3083 24.5333C19.2917 24.4931 19.2722 24.4541 19.2499 24.4167L19.1666 24.275L19.2166 24.1083L19.2999 24.1917C19.3249 24.2083 19.3499 24.2167 19.3833 24.2167C19.4499 24.2167 19.4833 24.1833 19.4833 24.1083H19.5166V24.225H19.5249ZM20.0499 24.625L20.0083 24.8C19.9749 24.8 19.9583 24.775 19.9416 24.7417L19.9083 24.6333C19.9022 24.5864 19.8994 24.539 19.8999 24.4917C19.873 24.5008 19.845 24.5064 19.8166 24.5083C19.7777 24.5102 19.7394 24.4984 19.7083 24.475C19.6955 24.4651 19.6852 24.4525 19.678 24.438C19.6708 24.4236 19.6669 24.4078 19.6666 24.3917C19.6666 24.3167 19.6916 24.25 19.7249 24.2C19.7666 24.1417 19.8083 24.1167 19.8499 24.1083C19.8916 24.1083 19.9166 24.1167 19.9333 24.1417C19.9475 24.1643 19.9561 24.19 19.9583 24.2167V24.3833C19.9583 24.4583 19.9666 24.5083 19.9833 24.5417C19.9833 24.5667 20.0083 24.5917 20.0499 24.625ZM19.8833 24.3333C19.8833 24.2833 19.8583 24.2667 19.8166 24.2667C19.7995 24.2642 19.782 24.2671 19.7666 24.275C19.7499 24.2833 19.7499 24.2917 19.7499 24.3C19.7499 24.325 19.7749 24.3417 19.8333 24.3417L19.8833 24.3333ZM20.6083 24.5833L20.5833 24.8C20.5416 24.7667 20.4999 24.7167 20.4666 24.6333C20.4209 24.5227 20.3846 24.4084 20.3583 24.2917C20.3167 24.4471 20.2666 24.6001 20.2083 24.75C20.1898 24.7734 20.1672 24.7932 20.1416 24.8083V24.6C20.1916 24.5417 20.2166 24.5083 20.2249 24.475C20.2529 24.4307 20.2753 24.3831 20.2916 24.3333L20.3333 24.1083H20.3666L20.4416 24.3333C20.4583 24.3833 20.4833 24.4333 20.5166 24.4667L20.5999 24.5833" fill="white"/>
<path d="M22.2333 26.6167C22.2667 26.65 22.2833 26.6833 22.2917 26.7167L22.325 26.85L22.2584 26.8583C22.2355 26.8136 22.2075 26.7716 22.175 26.7333C22.1459 26.6987 22.1153 26.6653 22.0834 26.6333C22.0372 26.5905 21.9899 26.5488 21.9417 26.5083C21.8879 26.459 21.8324 26.4118 21.775 26.3667C21.7417 26.35 21.725 26.3333 21.725 26.325C21.7117 26.305 21.7032 26.2822 21.7 26.2583C21.6913 26.2143 21.6857 26.1698 21.6834 26.125L21.9083 26.3083C21.9801 26.3668 22.0496 26.428 22.1167 26.4917L22.2333 26.6167ZM21.4417 26.1333L21.425 26.3H21.1667L21.1917 26.1333H21.4417ZM22.1417 26.875L21.5084 27.0667L21.4 26.9L21.9417 26.7333L21.8834 26.6667C21.8618 26.6453 21.8364 26.6283 21.8084 26.6167C21.8086 26.6321 21.8057 26.6474 21.8 26.6617C21.7943 26.676 21.7858 26.689 21.775 26.7C21.7528 26.7246 21.7238 26.742 21.6917 26.75C21.6426 26.7635 21.5908 26.7635 21.5417 26.75C21.4995 26.7451 21.4607 26.7242 21.4334 26.6917C21.3963 26.6376 21.376 26.5739 21.375 26.5083C21.375 26.425 21.4 26.375 21.45 26.3583C21.5083 26.3417 21.6 26.3583 21.7 26.4167C21.7982 26.4623 21.8839 26.5309 21.95 26.6167L22.1417 26.875ZM21.6583 26.5417C21.6371 26.5309 21.6148 26.5225 21.5917 26.5167C21.5753 26.512 21.558 26.512 21.5417 26.5167C21.5333 26.5176 21.5253 26.5203 21.5181 26.5246C21.5109 26.5289 21.5048 26.5347 21.5 26.5417C21.4946 26.5489 21.4917 26.5577 21.4917 26.5667C21.4917 26.5757 21.4946 26.5845 21.5 26.5917L21.5417 26.6083H21.5917L21.625 26.5833L21.6583 26.5417ZM20.9917 26.4083L20.95 26.575L20.6834 26.55L20.725 26.3833L20.9833 26.4083H20.9917ZM21.6083 27.05L21.4667 27.0833C21.4198 27.091 21.3719 27.091 21.325 27.0833C21.2814 27.0814 21.2388 27.0701 21.2 27.05C21.175 27.0917 21.1333 27.1333 21.075 27.15C21.0327 27.1718 20.9879 27.1885 20.9417 27.2L20.8417 27.225L20.7584 27.0583L20.85 27.0333C20.8869 27.0249 20.9231 27.0138 20.9584 27L21.0333 26.9583L20.95 26.9167H20.8917C20.8862 26.9153 20.8805 26.9153 20.875 26.9167C20.867 26.9231 20.8612 26.9318 20.8583 26.9417H20.8167C20.775 26.875 20.7667 26.8167 20.7917 26.775C20.8167 26.7333 20.8667 26.7083 20.9584 26.6917C21.0288 26.6722 21.1024 26.6665 21.175 26.675C21.2417 26.6833 21.2834 26.7083 21.3 26.75C21.3167 26.7667 21.3167 26.7917 21.3167 26.8083L21.2833 26.9083H21.325C21.3416 26.9108 21.3584 26.9108 21.375 26.9083L21.5167 26.8833L21.6 27.05H21.6083ZM20.9334 27.2L20.8 27.225C20.7369 27.2379 20.6712 27.226 20.6167 27.1917C20.5496 27.1346 20.5004 27.0593 20.475 26.975L20.4083 26.7917C20.3959 26.7573 20.3724 26.7281 20.3417 26.7083C20.3183 26.6917 20.2932 26.6777 20.2667 26.6667L20.3167 26.4917C20.3667 26.5167 20.4 26.5417 20.4334 26.575L20.5167 26.7167L20.5584 26.8417L20.65 27.025C20.675 27.05 20.7083 27.0583 20.7333 27.05L20.875 27.0333L20.9334 27.2ZM20.35 26.575L20.2667 26.7333L20.0167 26.675L20.1 26.5167L20.35 26.575ZM20.5 27.275L19.875 27.3333L19.8417 27.1667L20.3583 27.1083C20.3468 27.0827 20.3297 27.06 20.3084 27.0417C20.2818 27.0231 20.2539 27.0064 20.225 26.9917L20.2667 26.825C20.325 26.8583 20.3667 26.9 20.4 26.9333C20.425 26.975 20.45 27.0333 20.4667 27.1083L20.5 27.275ZM20 27.3583C19.9386 27.3568 19.8774 27.3512 19.8167 27.3417C19.7684 27.3318 19.721 27.3179 19.675 27.3C19.6404 27.3155 19.604 27.3267 19.5667 27.3333C19.5195 27.3374 19.4722 27.3374 19.425 27.3333H19.2584C19.2234 27.3335 19.1891 27.3249 19.1583 27.3083C19.1333 27.2917 19.1167 27.2667 19.0917 27.225C19.0567 27.2617 19.014 27.2902 18.9667 27.3083L18.825 27.3167H18.6834L18.7 27.1417H18.8417C18.9084 27.1417 18.9667 27.1417 19.0167 27.1083C19.0475 27.0968 19.0743 27.0764 19.0936 27.0497C19.1129 27.0231 19.1238 26.9912 19.125 26.9583L19.1834 26.9667C19.1798 27.0027 19.177 27.0388 19.175 27.075C19.175 27.1 19.175 27.1167 19.2 27.1333C19.225 27.15 19.25 27.1583 19.2833 27.1583H19.4083C19.4917 27.1583 19.5417 27.1583 19.575 27.1417C19.625 27.125 19.65 27.1 19.6583 27.05L19.6667 27.0167C19.6667 27.0167 19.6917 27.0167 19.7084 27L19.75 26.9833V27.0167C19.7502 27.025 19.7502 27.0333 19.75 27.0417L19.725 27.1333C19.7793 27.1518 19.8351 27.1658 19.8917 27.175C19.9 27.1583 19.8917 27.1417 19.8834 27.1167L19.8583 27.0667C19.8583 27.0577 19.8613 27.0489 19.8667 27.0417L19.8917 27.025L19.975 26.95L20.0167 27.0333V27.1167L20 27.3583ZM19.0584 26.6333L18.8917 26.7417L18.7833 26.6667L18.6667 26.75L18.5084 26.6667L18.6583 26.5583L18.7833 26.625L18.9083 26.5417L19.0584 26.625V26.6333ZM18.8084 27.3083L18.2 27.2083L18.2667 27.0417L18.7833 27.125C18.7833 27.0917 18.7834 27.0667 18.7667 27.0417C18.7548 27.0182 18.7409 26.9959 18.725 26.975L18.8583 26.8333C18.8917 26.8833 18.9084 26.9167 18.9167 26.9667C18.9167 27.0083 18.9 27.0667 18.875 27.1417L18.8084 27.3083ZM18.3 27.225L18.1667 27.2C18.0917 27.1833 18.05 27.15 18.0417 27.1C18.025 27.05 18.05 26.975 18.1083 26.8667L18.2084 26.7C18.2334 26.6583 18.2417 26.625 18.2333 26.6C18.2285 26.5793 18.22 26.5595 18.2084 26.5417L18.3917 26.4083C18.4167 26.45 18.4167 26.4917 18.4167 26.525C18.4167 26.5667 18.3917 26.6167 18.3583 26.675L18.2917 26.7917C18.2543 26.8469 18.2288 26.9094 18.2167 26.975C18.2167 27.0083 18.2334 27.025 18.2584 27.0333L18.3917 27.0667L18.3 27.2333V27.225ZM17.9833 26.5667L17.775 26.6583L17.625 26.5167L17.8417 26.4333L17.9833 26.575V26.5667ZM17.9 27.125C17.862 27.1706 17.817 27.21 17.7667 27.2417C17.7236 27.2684 17.6753 27.2855 17.625 27.2917L17.425 27.2833C17.3455 27.2715 17.2674 27.252 17.1917 27.225C17.0844 27.195 16.9867 27.1375 16.9083 27.0583C16.8583 26.9917 16.8583 26.9333 16.9083 26.875C16.9552 26.8207 17.0117 26.7755 17.075 26.7417C17.1417 26.7 17.2417 26.6583 17.3917 26.6083L17.425 26.65L17.1917 26.75C17.15 26.775 17.1084 26.8 17.0834 26.8333C17.05 26.8667 17.0584 26.9167 17.1 26.9667C17.2504 27.0832 17.4347 27.1476 17.625 27.15C17.725 27.15 17.7917 27.125 17.8167 27.0917C17.8417 27.0667 17.85 27.0417 17.8583 27.0083L17.875 26.875L18.0834 26.75C18.0845 26.7918 18.0817 26.8337 18.075 26.875C18.0572 26.9249 18.0288 26.9704 17.9917 27.0083L17.8917 27.125" fill="#BF0000"/>
</g>
</g>
<defs>
<clipPath id="clip0_769_6068">
<path d="M0 20C0 8.95431 8.95431 0 20 0C31.0457 0 40 8.95431 40 20C40 31.0457 31.0457 40 20 40C8.95431 40 0 31.0457 0 20Z" fill="white"/>
</clipPath>
<clipPath id="clip1_769_6068">
<rect width="53.3333" height="40" fill="white" transform="translate(-7)"/>
</clipPath>
</defs>
</svg>
