<svg width="40" height="40" viewBox="0 0 40 40" fill="none" xmlns="http://www.w3.org/2000/svg">
<g clip-path="url(#clip0_769_6920)">
<path d="M0 20C0 8.95431 8.95431 0 20 0C31.0457 0 40 8.95431 40 20C40 31.0457 31.0457 40 20 40C8.95431 40 0 31.0457 0 20Z" fill="#E94E0F"/>
<g clip-path="url(#clip1_769_6920)">
<path d="M-7 0H46.3333V40H-7V0Z" fill="#E41E20"/>
<path fill-rule="evenodd" clip-rule="evenodd" d="M12.6835 8.50785C12.6488 8.21814 13.2765 8.0355 13.6583 8.00076L13.6666 8C14.0154 8.00622 14.3607 8.07096 14.6881 8.19153C15.2288 8.31078 15.7815 8.36718 16.3351 8.35962C16.1211 8.57371 16.0206 8.65553 15.8817 8.7687C15.8115 8.82584 15.7316 8.89096 15.6222 8.98514C16.0842 9.11415 16.4996 9.37248 16.8196 9.72968C16.6652 9.74931 16.5453 9.76022 16.4485 9.76903C16.2549 9.78666 16.1535 9.79589 16.0524 9.84972C16.708 9.97414 17.0166 10.0548 17.3795 10.3649C17.2565 10.3928 17.0853 10.4419 17.0136 10.4819C16.9419 10.5219 16.9699 10.5528 17.0325 10.5973C17.1172 10.6462 17.3529 10.8624 17.5745 11.0658C17.7458 11.2229 17.9087 11.3723 17.987 11.4309L19.8349 14.0826L19.8349 14.1068L21.6575 11.4718C21.7356 11.413 21.898 11.263 22.0687 11.1053C22.2896 10.9012 22.5245 10.6842 22.6091 10.6349C22.6715 10.5902 22.6993 10.5592 22.6275 10.5194C22.5557 10.4797 22.3843 10.4312 22.2612 10.4037C22.6231 10.0924 22.9314 10.0106 23.5866 9.88393C23.4853 9.83046 23.3838 9.82158 23.1901 9.80463C23.0933 9.79616 22.9734 9.78567 22.8189 9.76658C23.1377 9.40826 23.5522 9.14849 24.0137 9.01786C23.904 8.92407 23.8238 8.85922 23.7535 8.80232C23.6141 8.68965 23.5134 8.60817 23.2986 8.39483C23.8523 8.40046 24.4047 8.34213 24.945 8.221C25.272 8.09928 25.6171 8.03333 25.9659 8.0259L25.9742 8.02663C26.3561 8.06004 26.9844 8.24049 26.9507 8.53032C28.0451 8.4504 28.1146 8.89983 28.0133 9.2925C27.9275 9.12605 27.8109 9.02384 27.712 9.00682C27.5731 8.96957 27.4193 9.0063 27.2536 9.08382C27.0967 9.16414 26.9524 9.26707 26.8253 9.38933C27.1811 9.50802 27.4736 9.48481 27.7624 9.4619C27.7771 9.46073 27.7917 9.45957 27.8064 9.45843C27.9784 9.43721 28.1449 9.38365 28.297 9.30059C28.3773 9.25666 28.4267 9.21004 28.5001 9.14093C28.5471 9.09657 28.604 9.04296 28.6852 8.97485C28.9297 8.76201 29.1646 8.84949 29.0587 9.19992C28.8553 9.51673 28.5517 9.64074 28.1806 9.6752C28.1415 9.67733 28.0979 9.6807 28.0503 9.68437C27.8829 9.69729 27.6672 9.71394 27.4345 9.69357C27.3316 9.68457 27.2252 9.6703 27.1223 9.65651C26.9263 9.63023 26.743 9.60566 26.6209 9.6224C26.6427 9.63857 26.665 9.65746 26.689 9.67778C26.7775 9.75273 26.889 9.84717 27.0821 9.89697C27.2468 9.94517 27.4779 9.88542 27.6836 9.83224C27.7834 9.80643 27.8772 9.78217 27.9546 9.77254C27.913 9.9613 27.6479 10.1221 27.1577 10.1796L27.0986 10.1866C26.3138 10.2797 25.6675 10.3563 25.2177 10.5536C24.8528 10.7172 24.5229 10.9497 24.246 11.2382C23.8557 11.6216 23.7734 11.9492 23.7436 12.0675C23.7406 12.0796 23.7381 12.0895 23.7359 12.097C23.589 12.8203 23.81 13.2579 24.2799 13.4329C24.5073 13.5113 24.9491 13.4329 25.1145 13.2633C25.2965 13.0952 25.4653 12.7921 25.4673 12.2903C25.4619 12.2508 25.4499 12.1959 25.4362 12.1333C25.3853 11.9009 25.3109 11.561 25.4616 11.4952C26.3688 11.0952 27.3012 10.7548 28.2527 10.4762C28.4675 10.4113 28.6089 10.7081 28.6651 10.8302C29.2856 10.7983 29.8911 10.6287 30.4379 10.3336C30.9846 10.0385 31.4587 9.62536 31.8258 9.12414C32.2297 8.52372 32.7639 9.20621 32.6113 9.80351C32.3954 10.4538 31.8469 10.891 31.2021 11.186C30.5497 11.4718 29.7312 11.7432 28.944 11.6576C28.5051 11.7029 28.4655 12.2515 28.9624 12.4037C29.9669 12.4916 30.7736 12.5455 31.593 11.881C32.2116 11.4081 32.4725 12.0583 32.2843 12.3932C31.9069 13.456 30.3276 13.6274 28.7891 13.1414C28.1835 12.9881 28.4921 13.6675 28.6574 13.6904C29.2802 14.2217 30.4108 14.7807 31.5298 13.9417C32.035 13.6178 32.3326 13.945 32.1042 14.452C31.5278 15.7818 29.7932 15.3373 28.6476 14.5679C28.3557 14.3666 28.0386 14.7404 28.3853 15.0803C29.7964 16.2577 30.542 16.3397 31.2576 16.0008C32.1342 15.7345 32.1185 16.6784 31.5928 16.9503C31.0076 17.2337 29.6098 16.8604 28.6219 16.1048C28.2026 15.7335 28.1403 16.2551 28.4044 16.4873C29.5476 17.6664 30.0127 17.9915 31.3147 17.9298C31.9583 17.9359 31.881 18.7238 31.3561 18.9874C30.63 19.3505 29.3461 18.5355 28.3847 17.573C27.965 17.3021 27.8569 17.6774 28.0328 18.1529C28.4355 18.8434 29.0151 19.4139 29.7118 19.8055C30.2733 20.0805 30.8241 20.0953 31.2259 19.9966C31.722 19.8727 31.7365 20.3758 31.4316 20.8009C31.2499 21.061 30.5868 21.0867 29.8947 20.7752C29.2025 20.4637 28.4911 19.7991 28.0284 19.0643C27.6073 18.6176 27.61 19.1616 27.7924 19.5623C28.6931 21.3142 29.6024 22.0127 30.8812 22.0242C31.4462 21.9733 31.5412 22.4166 31.1479 22.8004C30.472 23.2599 29.6931 23.1751 29.0408 22.5993C28.4856 21.9652 27.4269 20.5844 26.8722 19.8499C26.4702 19.4717 26.2993 19.7998 26.3712 20.5087C26.4525 20.9174 26.697 21.3737 27.4595 21.7416C27.9722 22.096 27.5284 22.4838 27.1285 22.4655C26.9043 22.4459 26.4793 22.141 26.164 21.7286C25.8348 21.2763 25.7721 20.9645 25.6625 20.4195C25.6379 20.2971 25.6109 20.1629 25.578 20.0127C25.379 19.6105 24.9396 19.7561 24.9048 20.1546C25.0426 20.9697 25.1963 21.1253 25.583 21.4854C25.9405 21.8931 25.2655 21.9595 25.0552 21.7822C24.4509 21.2983 24.2657 20.7196 24.0962 20.1899L24.0915 20.1754C23.9575 19.7956 23.4939 19.9308 23.6567 20.5557C24.0285 22.0437 24.8092 22.6809 26.2193 23.1054C26.3582 23.1426 26.4423 23.2336 26.3779 23.3953L25.746 23.9256C26.2405 24.1219 26.6841 24.2754 27.1368 24.4321C27.476 24.5496 27.8203 24.6688 28.195 24.809L29.4948 24.103C29.5092 24.0749 29.5231 24.045 29.5373 24.0144C29.653 23.766 29.7885 23.4748 30.3425 23.784C30.7916 23.6225 30.9926 23.7154 31.2152 23.944C30.8665 23.9135 30.7084 24 30.5534 24.1454C30.3294 24.6026 29.91 24.6161 29.4982 24.4462C29.3513 24.5464 29.2386 24.6391 29.1247 24.7328C29.011 24.8263 28.8961 24.9207 28.7449 25.0245L30.135 25.1042C30.6788 24.6248 31.0585 24.6831 31.3709 25.1287C31.3847 25.1321 31.3981 25.1353 31.4111 25.1384C31.6524 25.196 31.757 25.221 31.9034 25.5434C31.6313 25.4025 31.4516 25.3533 31.3162 25.4669C30.7663 25.7283 30.4317 25.6321 30.1955 25.3689L28.7347 25.3331C28.8269 25.4329 28.9413 25.5095 29.0551 25.5858C29.1488 25.6485 29.2421 25.711 29.3224 25.786C30.0885 25.6356 30.4608 25.9693 30.5406 26.5869C30.6243 26.839 30.6354 27.1096 30.5727 27.3677C30.5281 27.1128 30.4217 26.8944 30.2167 26.751C29.5381 26.8589 29.313 26.5632 29.3064 26.1611C29.1529 26.0146 28.9581 25.9162 28.764 25.8181C28.5675 25.7189 28.3718 25.62 28.2206 25.4721C27.9899 25.5209 27.8294 25.5613 27.6564 25.6048C27.5354 25.6353 27.4083 25.6673 27.2466 25.7048C27.0775 26.1083 26.7565 26.2391 26.2679 26.0876C25.7906 26.0596 25.7566 26.2275 25.7233 26.3917C25.7159 26.4279 25.7086 26.464 25.6966 26.4977C25.5546 26.2092 25.5868 25.936 25.9739 25.7189C26.1379 25.3736 26.4513 25.2337 26.815 25.4746C27.006 25.4401 27.1266 25.3863 27.2489 25.3319C27.3661 25.2796 27.4847 25.2268 27.6681 25.1896C27.2243 25.0044 26.8419 24.881 26.4595 24.7576C26.0771 24.6342 25.6948 24.5108 25.2509 24.3256L24.5623 24.8342C24.4312 24.898 24.3135 24.9045 24.2468 24.8066C24.0409 24.4442 23.8869 24.1048 23.7438 23.7895C23.5392 23.3388 23.3569 22.9372 23.0774 22.5879C23.0699 22.5779 23.0623 22.5677 23.0547 22.5575C22.8716 22.3119 22.648 22.0119 22.3833 21.9165C22.2458 21.8627 22.0693 21.8723 21.9422 21.9867C21.8241 22.0934 21.7131 22.3096 21.7166 22.6529C21.7304 23.0478 21.8026 23.2311 21.8882 23.4484C21.9063 23.4943 21.925 23.5417 21.9438 23.5929C22.0394 23.843 22.1532 24.0149 22.277 24.202C22.3032 24.2415 22.3298 24.2816 22.3567 24.3234C22.6159 24.7375 22.9782 25.0172 23.2318 25.213C23.2655 25.2389 23.2972 25.2634 23.3265 25.2865C23.7165 25.5874 23.9417 25.5753 24.2188 25.5604C24.298 25.5562 24.3814 25.5517 24.4742 25.5543C25.0004 25.6589 25.1107 25.9278 24.6478 26.247C24.2304 26.428 23.863 26.421 23.5692 26.3367C23.385 26.2828 23.186 26.071 23.0134 25.8872C22.9567 25.827 22.9029 25.7697 22.8534 25.722C22.6449 25.4277 22.2181 25.7166 22.4638 26.0643C22.9027 26.6883 23.3508 27.1123 23.9575 27.157C24.5895 27.2959 24.4337 27.642 24.0034 27.78C23.2128 28.0204 22.5829 27.3797 22.2684 26.959C22.0281 26.6452 21.8379 26.6202 21.8395 27.0804C22.0415 27.9263 22.3709 28.273 22.965 28.3668C23.4508 28.3591 23.4257 28.7417 23.047 28.9595C22.2021 29.4377 21.7038 28.4405 21.4792 27.852C21.3333 27.3206 21.0134 27.5352 20.9431 27.9556C20.893 28.5285 21.1021 29.0068 21.7403 29.6482C21.4421 30.0446 21.1208 30.4431 20.7994 30.8416C20.478 31.2401 20.1566 31.6386 19.8585 32.035L19.857 31.3583L19.8578 31.9876C19.5582 31.5923 19.2354 31.1949 18.9127 30.7975C18.5899 30.4001 18.2672 30.0028 17.9676 29.6075C18.6036 28.9638 18.811 28.4847 18.7589 27.9121C18.6872 27.4919 18.3665 27.2784 18.2224 27.8103C17.9999 28.3995 17.5051 29.3985 16.6585 28.9233C16.279 28.7068 16.2526 28.3243 16.7385 28.3303C17.3322 28.2344 17.6604 27.8865 17.8595 27.04C17.8594 26.5798 17.6693 26.6055 17.4302 26.9201C17.1171 27.3419 16.4894 27.9847 15.698 27.7472C15.2672 27.6106 15.1102 27.2651 15.7417 27.124C16.3483 27.0771 16.7949 26.6516 17.2317 26.0261C17.4761 25.6775 17.0483 25.3901 16.8408 25.6851C16.7914 25.733 16.7378 25.7904 16.6814 25.8509C16.5094 26.0353 16.3112 26.2478 16.1271 26.3023C15.8337 26.3876 15.4662 26.3959 15.0482 26.2164C14.5842 25.8988 14.6936 25.6295 15.2194 25.523C15.3122 25.5202 15.3956 25.5244 15.4749 25.5283C15.752 25.5422 15.9772 25.5535 16.3662 25.2513C16.3954 25.2281 16.4271 25.2035 16.4606 25.1774C16.7135 24.9807 17.0748 24.6998 17.3326 24.2848C17.3594 24.2429 17.3859 24.2027 17.4119 24.1631C17.5351 23.9756 17.6483 23.8033 17.7429 23.5529C17.7616 23.5016 17.7801 23.4541 17.7981 23.4081C17.8829 23.1905 17.9545 23.007 17.9669 22.6121C17.9692 22.2688 17.8575 22.053 17.739 21.9466C17.6115 21.8327 17.4349 21.8237 17.2976 21.878C17.0333 21.9744 16.8107 22.2751 16.6285 22.5213C16.6209 22.5316 16.6133 22.5418 16.6059 22.5518C16.3276 22.9021 16.1467 23.3043 15.9437 23.7557C15.8017 24.0716 15.6488 24.4115 15.4442 24.7746C15.3778 24.8727 15.2601 24.8667 15.1288 24.8033L14.4385 24.2971C13.9952 24.4839 13.6133 24.6086 13.2314 24.7333C12.8494 24.858 12.4675 24.9827 12.0243 25.1695C12.2078 25.2061 12.3266 25.2585 12.444 25.3103C12.5664 25.3644 12.6873 25.4177 12.8783 25.4516C13.2412 25.2094 13.5551 25.3482 13.7203 25.6929C14.1082 25.9087 14.1414 26.1818 14.0003 26.4708C13.9882 26.4371 13.9807 26.4011 13.9733 26.3649C13.9394 26.2008 13.9048 26.0329 13.4276 26.0627C12.9395 26.2159 12.6181 26.0861 12.4476 25.6833C12.2858 25.6463 12.1585 25.6148 12.0374 25.5847C11.8642 25.5418 11.7036 25.5019 11.4728 25.454C11.3221 25.6024 11.1267 25.702 10.9306 25.8019C10.7369 25.9006 10.5424 25.9997 10.3894 26.1467C10.3842 26.5488 10.1601 26.8454 9.48111 26.7398C9.27666 26.8839 9.17106 27.1027 9.12732 27.3577C9.0637 27.0998 9.07387 26.8293 9.15667 26.5769C9.23432 25.959 9.60548 25.6239 10.372 25.7717C10.4521 25.6965 10.5452 25.6336 10.6386 25.5706C10.7522 25.4939 10.8663 25.4169 10.9582 25.3167L9.49757 25.3576C9.2622 25.6217 8.92798 25.7191 8.3772 25.4596C8.24138 25.3464 8.06183 25.3962 7.79023 25.5381C7.93552 25.2152 8.04008 25.1899 8.28109 25.1314C8.2941 25.1282 8.3075 25.125 8.32134 25.1216C8.63213 24.6749 9.01162 24.6153 9.55715 25.0928L10.9469 25.0082C10.7953 24.9049 10.6802 24.8109 10.5662 24.7178C10.4519 24.6245 10.3389 24.5322 10.1916 24.4326C9.78042 24.6039 9.36094 24.5919 9.13531 24.1354C8.97987 23.9906 8.82143 23.9046 8.47287 23.9363C8.69466 23.7069 8.89534 23.6134 9.34501 23.7733C9.89786 23.4622 10.0344 23.7529 10.151 24.0009C10.1653 24.0314 10.1793 24.0613 10.1938 24.0893L11.4961 24.7908C11.8703 24.6492 12.2142 24.5288 12.553 24.4102C13.0051 24.2519 13.4482 24.0968 13.942 23.8988L13.3082 23.3707C13.2433 23.2093 13.327 23.118 13.4658 23.0803C14.8744 22.6508 15.6529 22.011 16.0194 20.5216C16.1801 19.8962 15.7161 19.7627 15.5833 20.1429L15.5788 20.1574C15.4111 20.6877 15.2279 21.267 14.6253 21.753C14.4156 21.9311 13.7403 21.8671 14.0964 21.4581C14.4819 21.0967 14.635 20.9405 14.77 20.1249C14.7338 19.7265 14.2939 19.5825 14.0963 19.9854C14.0639 20.1357 14.0374 20.27 14.0132 20.3925C13.9056 20.9378 13.8439 21.2499 13.5162 21.7034C13.2024 22.1168 12.7785 22.4232 12.5544 22.4436C12.1545 22.4632 11.7093 22.077 12.2208 21.7208C12.9821 21.3503 13.2249 20.8931 13.3049 20.4842C13.3742 19.775 13.2022 19.4475 12.8016 19.8271C12.2494 20.5635 11.1955 21.948 10.6426 22.5841C9.99228 23.1621 9.21369 23.2497 8.53613 22.7925C8.14151 22.4101 8.23502 21.9664 8.80012 22.0154C10.0789 21.9994 10.9857 21.2977 11.8804 19.5427C12.0614 19.1413 12.0621 18.5974 11.6427 19.0456C11.1825 19.782 10.4734 20.449 9.78231 20.7629C9.09125 21.0768 8.42807 21.0535 8.24547 20.794C7.93911 20.37 7.95189 19.8668 8.44834 19.9889C8.85048 20.0862 9.40124 20.0696 9.96178 19.7926C10.6572 19.3985 11.2348 18.826 11.635 18.1342C11.8093 17.6581 11.6998 17.2831 11.2811 17.5555C10.323 18.5213 9.04204 19.3408 8.3147 18.9802C7.78882 18.7185 7.70877 17.9308 8.35232 17.9225C9.65454 17.9797 10.1185 17.653 11.2576 16.4699C11.5209 16.2367 11.4567 15.7154 11.0388 16.0881C10.0535 16.8472 8.65706 17.2253 8.07081 16.944C7.54417 16.6739 7.52522 15.7301 8.40269 15.9933C9.11946 16.3297 9.86486 16.2452 11.2718 15.0628C11.6173 14.7217 11.2989 14.349 11.0077 14.5513C9.86477 15.3247 8.13181 15.7753 7.55074 14.4475C7.32058 13.9413 7.61706 13.613 8.12333 13.9352C9.2453 14.7702 10.3739 14.2073 10.9948 13.6738C11.16 13.6504 11.4663 12.9699 10.8612 13.1254C9.32441 13.6167 7.74454 13.4508 7.36344 12.3893C7.17403 12.0551 7.43275 11.404 8.05297 11.8747C8.87464 12.5363 9.68116 12.4796 10.6853 12.3883C11.1818 12.2343 11.1402 11.6858 10.7011 11.6421C9.91422 11.7304 9.09484 11.4619 8.44145 11.1783C7.7956 10.8856 7.24555 10.4504 7.02745 9.8008C6.87273 9.20403 7.40456 8.51968 7.81052 9.11869C8.17936 9.61863 8.65493 10.0301 9.20268 10.3233C9.75042 10.6165 10.3566 10.784 10.9772 10.8137C11.033 10.6914 11.1733 10.3942 11.3883 10.4583C12.3408 10.7336 13.2743 11.0707 14.183 11.4675C14.3339 11.5328 14.2607 11.8729 14.2106 12.1055C14.1971 12.1682 14.1853 12.2231 14.18 12.2627C14.1838 12.7644 14.3536 13.0669 14.5362 13.2344C14.7022 13.4034 15.1443 13.4803 15.3714 13.401C15.8407 13.2245 16.0602 12.7861 15.9107 12.0633C15.9085 12.0558 15.906 12.0459 15.9029 12.0339C15.8728 11.9157 15.7893 11.5883 15.3976 11.2063C15.1198 10.9187 14.789 10.6874 14.4235 10.5251C13.973 10.3294 13.3265 10.255 12.5414 10.1647C12.5218 10.1624 12.5021 10.1602 12.4823 10.1579C11.9919 10.1021 11.7263 9.94218 11.684 9.75357C11.7614 9.76293 11.8553 9.78686 11.9552 9.81232C12.1611 9.86479 12.3923 9.92373 12.5569 9.87495C12.7498 9.82448 12.861 9.72966 12.9492 9.65439C12.9732 9.63399 12.9954 9.61503 13.0171 9.59877C12.8949 9.58246 12.7118 9.60767 12.5159 9.63463C12.413 9.64879 12.3067 9.66343 12.2038 9.67279C11.9711 9.69397 11.7554 9.67807 11.5879 9.66574C11.5404 9.66223 11.4967 9.65902 11.4577 9.65702C11.0865 9.62386 10.7824 9.50091 10.5779 9.18481C10.4707 8.83475 10.7054 8.74645 10.9506 8.95843C11.032 9.02626 11.0891 9.07968 11.1363 9.12387C11.2099 9.19272 11.2595 9.23917 11.3399 9.28282C11.4923 9.36535 11.659 9.41832 11.8311 9.43894C11.8458 9.44004 11.8604 9.44115 11.8751 9.44226C12.164 9.46417 12.4565 9.48636 12.8119 9.36642C12.6844 9.2446 12.5398 9.14218 12.3826 9.06241C12.2166 8.98547 12.0627 8.94927 11.9238 8.98701C11.825 9.00437 11.7088 9.10699 11.6236 9.27374C11.521 8.88142 11.5888 8.43176 12.6835 8.50785ZM14.3162 8.88643C14.3042 8.75365 14.1035 8.66313 13.7881 8.69183C13.4727 8.72053 13.2826 8.83825 13.2947 8.97103C13.306 9.09552 13.5165 9.20188 13.8319 9.17318C14.1473 9.14448 14.3283 9.01922 14.3162 8.88643ZM25.3193 8.9146C25.3309 8.78177 25.5313 8.69055 25.8468 8.71815C26.1622 8.74575 26.3528 8.8628 26.3411 8.99563C26.3302 9.12015 26.1201 9.22725 25.8047 9.19965C25.4892 9.17205 25.3077 9.04742 25.3193 8.9146Z" fill="black"/>
</g>
</g>
<defs>
<clipPath id="clip0_769_6920">
<path d="M0 20C0 8.95431 8.95431 0 20 0C31.0457 0 40 8.95431 40 20C40 31.0457 31.0457 40 20 40C8.95431 40 0 31.0457 0 20Z" fill="white"/>
</clipPath>
<clipPath id="clip1_769_6920">
<rect width="53.3333" height="40" fill="white" transform="translate(-7)"/>
</clipPath>
</defs>
</svg>
