<svg width="40" height="40" viewBox="0 0 40 40" fill="none" xmlns="http://www.w3.org/2000/svg">
<g clip-path="url(#clip0_769_7014)">
<path d="M0 20C0 8.95431 8.95431 0 20 0C31.0457 0 40 8.95431 40 20C40 31.0457 31.0457 40 20 40C8.95431 40 0 31.0457 0 20Z" fill="#E94E0F"/>
<g clip-path="url(#clip1_769_7014)">
<path d="M-7 0H46.3333V40H-7V0Z" fill="#000066"/>
<path d="M-7.05005 20L46.2833 0V40L-7.05005 20Z" fill="#BD1021"/>
<path d="M-2.0249 20L46.3084 2.14166V37.8583" fill="white"/>
<path d="M32.505 22.535C32.9262 22.5605 32.9134 22.9818 32.9134 22.9818L34.4197 23.0201C34.6112 22.4903 34.8154 22.5542 35.1792 22.8158C35.4031 22.9682 35.6483 23.0865 35.9068 23.1669C36.0536 22.4138 37.1195 22.5669 37.1195 22.5669C37.579 21.4819 37.6173 21.4947 37.3429 21.3543C37.1806 21.2727 37.047 21.1435 36.9599 20.9841C36.7046 20.6713 36.5706 20.2246 36.5387 19.9501C36.5068 19.6757 36.1877 20.0841 36.1302 20.0012C36.0728 19.9118 35.6005 19.9629 35.6005 19.9629C35.7154 20.0905 35.3196 20.0139 35.3196 20.0139C35.3579 20.0458 35.3196 20.1607 35.3196 20.1607C35.2813 20.1097 34.975 20.0586 34.975 20.0586C34.9495 20.1224 34.8792 20.1926 34.8792 20.1926C34.7133 20.1288 34.3878 20.1352 34.3878 20.1352C34.0678 20.1228 33.7511 20.2026 33.4751 20.365C33.3411 20.4416 32.856 20.6841 32.4539 21.0734C32.0582 21.4564 31.8348 21.4117 31.8348 21.4117C31.7199 21.8457 30.7689 22.3691 30.7689 22.3691C30.6157 22.5031 30.137 22.5669 29.8945 22.3691C29.652 22.1648 29.8945 21.7946 29.8945 21.7946C29.9902 21.6287 30.0732 21.6351 30.086 21.0479C30.0924 20.6522 30.5008 20.3331 30.9221 19.8735C31.4391 19.3055 32.1603 18.3736 32.1603 18.3736C32.1603 18.6608 32.3199 18.7055 32.3199 18.7055C32.4603 18.4183 32.6645 18.1822 32.6645 18.1822C32.6773 18.2077 32.7092 18.2204 32.7092 18.2204C32.8688 18.0034 32.9645 17.9205 32.9645 17.9205C32.9134 17.8949 32.4603 17.9205 32.0454 18.2843C31.6242 18.6481 31.3433 18.5268 31.3433 18.5268C31.0497 18.4311 31.0242 18.2077 31.0242 18.2077C30.8136 17.295 31.6433 16.644 31.6433 16.644C30.5264 16.3759 31.3306 14.9526 32.722 14.3463C34.107 13.7463 34.0942 13.4719 34.0942 13.4719C34.1772 13.5676 34.241 13.7272 34.241 13.7272C34.2538 13.7208 34.3559 13.5676 35.1601 13.2166C35.9579 12.8591 36.3408 12.5528 36.3408 12.5528C36.443 12.7506 36.4238 12.8911 36.4238 12.8911C38.613 12.1252 40.7639 10.3636 40.7639 10.3636C40.8277 10.5104 40.7958 10.7338 40.7958 10.7338C41.1532 10.4019 42.4425 9.63599 42.4425 9.63599C42.4617 10.1274 42.0596 10.3125 42.0596 10.3125C42.1042 10.3827 42.1234 10.5104 42.1234 10.5104C42.5297 10.2541 42.9298 9.98808 43.3233 9.71258C43.6871 10.0253 43.3616 10.5295 43.3616 10.5295C43.4892 10.5104 43.5786 10.4019 43.5786 10.4019C43.6743 10.9316 43.0871 11.3976 43.0871 11.3976C43.1893 11.3976 43.3616 11.2954 43.3616 11.2954C43.2467 11.8699 42.1553 12.5081 42.1553 12.5081C42.3149 12.6549 42.1617 12.84 42.0276 12.9294C41.9 13.0123 41.6702 13.1974 41.7404 13.274C41.8106 13.3506 42.2957 13.0059 42.2957 13.0059C42.3787 13.2485 41.7596 13.7272 41.7596 13.7272C42.1936 13.7846 43.3935 13.2357 43.3935 13.2357C43.2978 13.7016 42.8446 14.0654 42.2829 14.2761C41.7213 14.4867 41.7532 14.5186 41.7532 14.5186C41.8489 14.5952 42.6212 14.3718 42.6212 14.3718C42.3914 14.8888 41.5872 15.2462 41.5872 15.2462C41.8043 15.4377 42.1106 15.2143 42.4106 15.0101C42.7744 14.7803 43.1672 14.6 43.5786 14.4739C44.0254 14.3207 44.3509 14.4356 44.3509 14.4356C44.7338 14.3144 45.0529 14.4867 45.0529 14.4867C45.7742 14.5441 45.8508 14.8058 45.8508 14.8058C45.9273 14.825 45.9912 14.8569 46.1763 14.9973C46.3614 15.1313 46.3486 15.5526 46.3422 15.7632C46.3358 15.9674 46.2784 15.9674 46.2401 16.0185C46.2082 16.0823 46.2018 16.1461 46.2018 16.2227C46.2018 16.3057 46.0167 16.7972 44.8934 16.7972H43.1956C43.0999 16.7972 42.9914 16.8546 42.9914 16.8546C42.5191 17.0907 42.768 16.695 42.2064 17.1546C41.6447 17.6205 41.3575 17.5375 41.3575 17.5375C41.0442 17.8611 40.7024 18.1559 40.3363 18.4183C40.0044 18.6353 40.0618 18.6098 40.3554 18.7374C40.649 18.8651 41.0894 18.7374 41.0894 18.7374C40.8086 18.9289 41.0064 19.0183 41.0064 19.0183C41.3766 18.7885 41.6064 18.8715 41.6064 18.8715C41.7213 19.197 41.2937 19.714 41.2937 19.714C41.4596 19.7331 41.7723 19.714 41.7723 19.714C41.6958 19.931 41.3894 20.1735 41.1596 20.2437C40.9299 20.3203 40.9681 20.3522 41.0384 20.4862C41.1022 20.6267 41.0511 20.7671 41.0511 20.7671C40.649 20.4926 40.6363 20.7352 40.6363 20.7352C40.5916 21.0607 40.598 21.533 40.598 21.533C40.3171 21.3926 40.3044 21.5776 40.3044 21.5776C40.2278 21.8776 39.8831 22.2159 39.8831 22.2159C39.8704 22.0372 39.698 21.9861 39.698 21.9861C39.5193 22.3308 39.1874 22.5414 39.1874 22.5414C39.1491 22.835 39.2321 23.2562 39.2321 23.2562C39.0151 23.2116 38.9385 23.2116 38.9066 23.2626C38.8747 23.3137 38.9513 23.3392 38.9513 23.3392L41.734 23.4094C41.7723 23.4094 41.9383 23.435 41.9383 23.7285C41.9447 24.0349 41.6958 24.0477 41.6958 24.0477L38.6577 23.9775C38.6577 23.9775 38.6704 24.0604 38.5109 24.1434C38.3513 24.2264 38.4088 24.0477 38.3641 24.4242C38.3194 24.7944 37.7131 24.3923 37.7131 24.3923C37.6173 24.5391 37.3812 24.7306 37.3812 24.7306C37.2408 24.3157 37.1004 24.1881 36.8833 24.5455C36.6663 24.9029 37.2791 24.8391 37.2791 24.8391C37.2791 24.8391 40.8469 24.3157 41.0447 24.2966C41.2362 24.2774 41.4468 24.2902 41.5362 24.5583C41.6192 24.8327 41.1022 24.8774 41.1022 24.8774L37.4386 25.2731C37.362 25.4901 37.0557 25.4774 37.0557 25.4774C37.0812 25.6816 36.8642 25.8156 36.7557 25.8858C36.6408 25.9624 36.2898 25.9305 36.2898 25.9305C35.8685 26.2177 35.6579 25.9943 35.6579 25.9943C35.3835 26.1092 35.2111 26.0582 34.9814 25.9624C34.7516 25.8603 34.7707 25.5859 34.7707 25.5859L32.4603 25.8284C32.3922 25.8523 32.3293 25.8892 32.2752 25.9369C32.3582 26.0454 32.1092 26.2879 32.1092 26.2879C32.1794 26.3326 32.3135 26.4666 32.3326 26.7539C32.3518 27.0602 31.9561 27.1113 32.1539 27.3283C32.3454 27.5389 32.7092 27.3602 33.1113 27.1687C33.507 26.9772 33.9027 27.0028 34.0687 27.0028C34.241 27.0028 34.7197 27.1304 35.0133 27.2325C35.3133 27.3347 35.4154 27.2708 35.4345 27.1177C35.4537 26.9709 35.5877 26.9262 35.5877 26.9262C35.5494 27.073 35.6324 27.1432 35.6324 27.1432C35.7473 27.1432 35.9451 27.0347 35.9451 27.0347C35.926 27.1496 35.7792 27.2198 35.7792 27.2198C35.492 27.4112 35.8877 27.341 35.8877 27.341C36.6855 27.1751 36.9727 27.1942 37.1769 27.2134C37.5814 27.3355 37.9779 27.4826 38.3641 27.6538C38.396 27.5517 38.3769 27.3091 38.3769 27.3091C38.6258 27.3793 38.7279 27.5261 38.7279 27.5261C38.8236 27.424 38.7598 27.2453 38.7598 27.2453C39.564 27.6985 38.5939 27.9027 38.3322 27.9921C38.0769 28.075 38.0769 28.1835 38.0769 28.1835C38.2939 28.1197 38.4407 28.0878 38.6194 28.075C38.7981 28.0623 38.7343 28.075 39.1619 27.9921C39.5895 27.9027 39.8065 28.0878 39.8065 28.0878C39.4491 28.1069 39.347 28.2154 39.347 28.2154C39.5704 28.3622 39.3534 28.4963 39.3534 28.4963C39.0342 28.0878 38.7534 28.509 38.7534 28.509C38.9362 28.509 39.1168 28.5481 39.2832 28.6239C39.3534 28.6686 39.5257 28.7516 39.7299 28.8473C40.0299 28.9813 39.9725 28.8984 40.2022 28.9813C40.432 29.0707 40.3427 29.2877 40.3427 29.2877C40.2469 29.109 40.0363 29.0452 40.0363 29.0452C40.0172 29.2877 39.7746 29.3324 39.7746 29.3324C40.0746 29.0005 39.43 28.8537 39.1236 28.8601C38.8236 28.8601 38.6002 29.0579 38.6002 29.0579C39.2066 29.6324 39.6278 29.4409 39.6278 29.4409C39.5512 29.6515 39.0534 29.5685 39.0534 29.5685C39.2832 29.7472 39.2576 29.8685 39.2576 29.8685C39.13 29.7472 38.9321 29.8047 38.4917 29.5302C38.0577 29.243 37.6684 29.3388 37.6684 29.3388C38.096 29.7855 37.5152 30.06 37.5152 30.06C37.2982 30.1876 37.6046 30.3472 37.6046 30.3472C37.3365 30.3983 37.2982 30.1302 37.2982 30.1302C37.1578 30.0983 36.9536 30.2706 36.9536 30.2706C36.9663 29.9962 37.3301 30.1366 37.3365 29.843C37.3493 29.5558 37.0046 29.3324 35.977 29.4728C34.9431 29.6196 34.6431 29.2877 34.6431 29.2877C34.5537 29.2877 34.541 29.3771 34.541 29.3771C34.7069 29.543 34.7835 29.6068 34.758 29.7217C34.7261 29.8366 34.809 29.8749 34.809 29.8749C34.6176 29.8621 34.6048 29.6387 34.6048 29.6387C34.6048 29.7345 34.5665 29.7409 34.5027 29.8366C34.4388 29.9323 34.5027 30.06 34.5027 30.06C34.4197 29.9898 34.2729 29.9068 34.4133 29.7026C34.5154 29.5494 34.1899 29.3515 34.1899 29.3515C34.0623 29.2239 33.724 29.3451 33.724 29.3451C33.0219 29.4792 32.6135 29.0388 32.6135 29.0388C32.5305 29.0388 32.3773 28.9941 32.3773 28.9941C31.6369 29.326 30.9859 28.6112 30.9859 28.6112C30.4243 28.7133 30.169 28.4452 30.003 28.1772C29.9077 27.9935 29.7554 27.8457 29.569 27.7559C29.3456 27.6283 29.135 27.2389 29.3456 27.0347C29.5243 26.856 29.4733 26.8177 29.4733 26.8177C29.1797 26.3262 29.9839 26.173 30.003 26.0518C30.0222 25.8858 30.1945 25.7773 30.3732 25.7646C30.5583 25.7518 30.5583 25.7646 30.6796 25.6497C30.7944 25.522 31.0242 25.6752 31.0242 25.6752C31.0753 25.6433 31.471 25.3306 31.8284 25.4901C32.1858 25.6497 32.4794 25.5412 32.4794 25.5412C32.7347 25.4837 34.8154 25.2029 34.8154 25.2029C34.9431 24.9987 35.0452 24.7561 35.6196 24.6285C36.194 24.5008 36.6217 24.1306 36.6217 24.1306C36.5195 24.0221 36.3472 24.0285 36.2642 24.0158C36.1749 24.0094 35.9962 23.8498 35.9962 23.8498C35.8877 23.9009 35.8366 23.8753 35.0835 24.3349C34.4069 24.7434 34.3878 23.9328 34.3878 23.9328H32.9198C32.8943 24.2455 32.6645 24.3668 32.6645 24.3668L32.122 24.3923C31.8284 24.2391 31.822 23.7094 31.822 23.7094C30.2073 23.7349 29.3137 24.3094 29.3137 24.3094C27.4819 23.3775 26.0522 23.1605 26.0522 23.1605C28.2734 22.9244 29.4477 22.3052 29.4477 22.3052C30.1676 22.7423 30.9818 23.0006 31.822 23.0584C31.8667 22.6116 32.1667 22.5031 32.1667 22.5031L32.505 22.535Z" fill="black"/>
<path d="M29.8563 26.2177C29.3967 26.4858 29.4797 26.639 29.5244 26.7219C29.5627 26.8049 29.5691 26.8879 29.4414 27.0155C29.3138 27.1432 29.3265 27.1879 29.3265 27.1879C29.3457 27.6346 29.6648 27.7304 29.7988 27.8453C29.9137 27.9346 30.0988 28.2282 30.0988 28.2282C30.3413 28.5665 30.5903 28.5729 30.7754 28.5729C30.9668 28.5729 30.9477 28.5537 30.8519 28.4707L30.5775 28.241C30.761 28.3215 30.9261 28.4388 31.0626 28.5856C31.5349 29.1026 31.9689 29.0324 32.1604 29.0132C32.3518 28.9877 32.3199 28.8728 32.3199 28.8728C32.3072 28.8537 32.1284 28.8409 32.1284 28.8409C31.4136 28.7771 31.203 28.3112 31.203 28.3112C31.5637 28.6271 32.0255 28.8036 32.505 28.809C32.7093 28.7962 32.6965 28.8601 32.6518 28.8728C32.6071 28.8792 32.5497 28.8728 32.454 28.8601C32.3582 28.8601 32.3582 28.8792 32.3774 28.9239C32.4029 28.9558 32.4922 28.9622 32.6007 28.9558C32.7156 28.9558 32.6263 28.9686 32.9199 29.192C33.2135 29.4217 33.9411 29.2366 33.9411 29.2366C33.4688 29.1217 33.4049 28.9047 33.4049 28.9047C32.7667 28.9813 32.505 28.5984 32.505 28.5984C32.3901 28.4835 32.0455 28.3048 32.0455 28.3048C31.6881 28.1516 31.6306 27.8261 31.6306 27.8261C31.7327 27.9729 31.9306 28.1388 32.1795 28.2091C32.4348 28.2729 32.4986 28.3112 32.4986 28.3112C32.4344 28.3246 32.3675 28.318 32.3072 28.292C32.0582 28.2154 32.1987 28.3176 32.1987 28.3176C32.4795 28.5409 32.5561 28.5218 32.5561 28.5218C33.2773 28.5984 32.9199 28.3048 32.9199 28.3048C33.4305 28.4324 33.5198 28.241 33.5198 28.241C33.6283 28.4644 34.0177 28.3814 34.0177 28.3814C33.5007 28.6367 33.89 28.5601 33.89 28.5601C34.4198 28.4644 34.5283 28.5984 34.5283 28.5984C34.6623 28.726 34.8091 28.7133 34.8091 28.7133C34.8091 28.7133 34.9048 28.7133 35.1027 28.7516C35.3005 28.7899 35.6133 28.9622 35.9005 28.9303C36.1877 28.892 36.2388 28.9813 36.2388 28.9813C36.1813 28.9622 36.0537 28.943 35.8303 29.0452C35.6069 29.1473 35.2176 29.1728 34.6495 29.0452C34.0815 28.9175 34.0368 28.9303 34.0368 28.9303C34.1708 29.026 34.2921 29.1728 34.3176 29.2685C34.3432 29.3643 34.4453 29.3707 34.4453 29.3707C34.4836 29.243 34.6495 29.192 34.6495 29.192C34.7644 29.2941 35.0644 29.4281 35.0644 29.4281C35.0963 29.3643 35.0644 29.3132 35.0644 29.3132C35.2814 29.5238 35.5367 29.46 35.5367 29.46C35.6005 29.4153 35.5814 29.2941 35.5814 29.2941C35.6707 29.2941 35.6835 29.3451 35.7473 29.3898C35.8111 29.4281 36.0026 29.4026 36.0026 29.4026C35.9324 29.3707 35.875 29.2622 35.875 29.2622C36.1686 29.0643 36.7877 29.1473 36.7877 29.1473C37.2344 29.2303 37.1834 29.5238 37.1834 29.5238C37.2727 29.5621 37.394 29.7026 37.394 29.7026C37.4323 29.6004 37.394 29.4919 37.394 29.4919C37.6046 29.5877 37.6493 29.8302 37.6493 29.8302C37.8855 29.5558 37.4195 29.2558 37.4195 29.2558C37.6429 29.2239 37.8918 29.243 38.045 29.2622C38.1982 29.2877 38.4088 29.3643 38.5875 29.5175C38.7662 29.6579 39.079 29.7281 39.079 29.7281C39.0726 29.6643 38.9003 29.5621 38.862 29.543C38.8237 29.5238 38.8109 29.4664 38.8109 29.4664C38.9641 29.4983 39.0662 29.4792 39.0662 29.4792C38.5301 29.1473 38.3897 28.9941 38.3897 28.9941C38.5939 29.0196 38.7088 28.892 38.7088 28.892C38.2812 28.8984 38.262 28.7899 38.262 28.7899C38.3195 28.8026 38.5173 28.8537 38.7726 28.8026C39.0279 28.7516 39.379 28.8026 39.379 28.8026C39.1939 28.5026 38.479 28.5537 38.2493 28.5665C38.0195 28.5792 37.9301 28.5473 37.9301 28.5473C37.9684 28.5346 38.0067 28.4963 38.1854 28.4899C38.3641 28.4899 38.5429 28.509 38.7471 28.3622C38.945 28.2282 39.2258 28.2729 39.2258 28.2729C39.162 28.1388 38.8365 28.0878 38.5556 28.2729C38.2684 28.4516 38.0131 28.4005 38.0131 28.4005C38.4599 28.3367 38.5875 28.1771 38.5875 28.1771C38.4599 28.1388 38.3833 28.1835 38.1088 28.241C37.8408 28.292 37.7706 28.1963 37.7706 28.1963C38.0642 28.024 38.2748 27.9538 38.2748 27.9538C38.0195 27.8963 37.7897 27.7878 37.7897 27.7878C37.528 28.0367 37.3238 28.1708 36.8196 27.9155C36.3154 27.6474 36.0537 27.6793 36.0537 27.6793C36.5005 27.424 36.9472 27.5325 37.2791 27.7304C37.611 27.9218 37.7067 27.7687 37.7067 27.7687C37.5982 27.7048 37.6174 27.641 37.6174 27.641C38.4152 28.0495 38.7662 27.8006 38.9386 27.6793C39.1173 27.558 38.8556 27.3985 38.8556 27.3985C38.8428 27.6538 38.5173 27.7814 38.2556 27.6921C38.0003 27.6027 37.7642 27.4942 37.394 27.3347C37.0238 27.1815 36.5643 27.2644 36.1303 27.3538C35.6963 27.4432 35.6452 27.3985 35.6005 27.3666C35.5622 27.3347 35.5431 27.2261 35.3197 27.3155C35.1027 27.4112 34.5857 27.1687 34.2666 27.0921C33.9475 27.0155 33.4241 27.0538 32.9709 27.3027C32.5242 27.558 32.2944 27.4942 32.1604 27.4304C32.0263 27.3666 31.937 27.2006 32.0838 27.0474C32.2306 26.8943 32.2433 26.856 32.2306 26.6326C32.2178 26.4156 32.0008 26.2815 32.0008 26.2815C32.1986 26.0773 32.2497 26.0262 32.1795 25.9433C32.1157 25.8539 32.2178 25.8539 32.3327 25.8029C32.4476 25.7518 32.3965 25.7454 32.371 25.6752C32.3455 25.6114 32.2752 25.6241 32.2752 25.6241C32.0136 25.6369 31.8668 25.5603 31.8668 25.5603C31.4328 25.3625 31.0243 25.7518 31.0243 25.7518C30.7754 25.5603 30.7179 25.688 30.6732 25.7326C30.6349 25.7773 30.5456 25.8092 30.4307 25.822C30.3222 25.8348 30.1626 25.8731 30.1116 25.9752C30.1116 25.9752 30.0605 26.0518 30.118 26.1411C30.118 26.1411 30.1818 26.2432 30.0669 26.3645C29.9392 26.4922 29.8946 26.5177 29.9392 26.639C29.9712 26.7538 29.9648 26.8432 29.9137 26.9198C29.9137 26.9198 29.8563 26.856 29.8754 26.773C29.8882 26.6964 29.8882 26.6453 29.869 26.607C29.869 26.607 29.7478 26.7219 29.7286 26.8113C29.7286 26.8113 29.6776 26.6773 29.8563 26.4985C30.0286 26.3262 30.1116 26.2369 30.0605 26.1667C30.0222 26.1156 29.8946 26.1986 29.8627 26.2177H29.8563Z" fill="#FFC221"/>
<path d="M30.3667 28.1644C30.3667 28.1644 30.1433 27.9984 30.1689 27.7623C30.1944 27.5325 30.1944 27.507 30.1689 27.4496C30.1689 27.4496 30.1242 27.4751 30.1306 27.5644C30.1306 27.6538 30.1178 27.7431 30.1114 27.7559C30.1114 27.7559 29.9965 27.5644 29.9455 27.5261C29.9455 27.5261 29.9902 27.3219 29.9263 27.2389C29.8625 27.1496 29.7987 27.1432 29.7285 27.1751C29.6264 27.207 29.5498 27.3028 29.888 27.5772C29.888 27.5772 30.0157 27.6793 30.0987 27.8963C30.188 28.1197 30.3348 28.1516 30.3603 28.1644H30.3667ZM31.4518 27.5198C31.4518 27.5198 31.439 27.3921 31.5603 27.156C31.6002 27.0854 31.6228 27.0063 31.6261 26.9253C31.6295 26.8443 31.6134 26.7636 31.5794 26.69C31.5539 26.6262 31.5347 26.6517 31.656 26.5496C31.8028 26.422 31.5985 26.2688 31.8475 26.0518C31.8475 26.0518 32.0006 25.9178 32.0389 25.8603C32.0389 25.8603 31.7836 25.9943 31.6113 26.0646C31.4454 26.1348 30.8071 26.4475 30.9475 26.6581C31.0879 26.8687 31.0752 26.8815 31.0497 26.9709C31.0497 26.9709 30.6667 26.7666 30.8071 26.4411C30.8071 26.4411 30.8646 26.3135 31.0241 26.1603C31.1709 26.0263 31.088 26.1922 31.3815 26.0199C31.3815 26.0199 31.6113 25.8795 31.739 25.6944C31.739 25.6944 31.5794 25.7901 31.5283 25.8093C31.5283 25.8093 31.1837 25.8731 31.0433 26.0135C30.9092 26.1603 30.6156 26.4092 30.7114 26.69C30.7114 26.69 30.3731 26.6517 30.2965 26.2943C30.2965 26.2943 29.6583 27.073 30.9922 27.4432C30.9922 27.4432 31.2347 27.507 31.4581 27.5198H31.4518Z" fill="black"/>
<path d="M37.2983 24.9093C37.7961 24.8391 40.6682 24.3987 40.9363 24.3732C41.2171 24.3477 41.3256 24.3094 41.4214 24.5391C41.5299 24.7944 41.0257 24.8008 41.0257 24.8008L37.5983 25.1901C37.4323 25.2093 37.394 25.1455 37.394 25.1455L37.2664 24.9731C37.2664 24.9731 37.2217 24.9221 37.2983 24.9093Z" fill="#FFC221"/>
<path d="M30.2774 26.473C30.2774 26.473 29.9073 27.2517 31.3625 27.4432C31.3625 27.4432 31.3689 27.3602 31.4263 27.2325C31.4901 27.1113 31.6178 26.8624 31.4901 26.7028C31.3752 26.5432 31.5922 26.6262 31.6178 26.4156C31.6561 26.2113 31.5986 26.2369 31.7007 26.1028C31.7007 26.1028 31.2476 26.2688 31.0689 26.473C30.8965 26.6709 31.305 26.8241 31.0689 27.0475C31.0689 27.0475 30.8583 26.9709 30.737 26.7475C30.737 26.7475 30.4562 26.7539 30.2774 26.473Z" fill="#5A3719"/>
<path d="M31.7071 27.4304C31.7071 27.4304 32.0646 27.7431 32.4922 27.7304C32.9198 27.7112 33.1049 27.6027 33.2134 27.4304C33.2134 27.4304 33.2964 27.558 33.2964 27.6474C33.2964 27.6474 33.6666 27.341 34.3048 27.6091C34.9431 27.8772 34.7516 27.8006 34.892 27.8197C34.892 27.8197 34.6176 27.775 33.9985 28.0559C33.3602 28.3495 31.688 28.2473 31.7008 27.4304H31.7071Z" fill="black"/>
<path d="M31.1073 26.0518C31.1073 26.0518 31.2669 26.0773 31.4264 25.8922C31.4264 25.8922 31.2094 25.9369 31.1073 26.0518ZM29.8819 27.5006C29.8819 27.5006 29.5819 27.2644 29.7734 27.2198C29.7734 27.2198 29.9138 27.1942 29.8819 27.5006Z" fill="#5A3719"/>
<path d="M36.4302 28.9813C36.4302 28.9813 36.5961 28.6941 37.0557 28.6941C37.5152 28.6941 37.5663 28.9111 38.1535 28.9494C38.1535 28.9494 37.4514 29.1409 36.9663 28.9686C36.711 28.8728 36.4812 28.9494 36.4302 28.9813Z" fill="black"/>
<path d="M31.8604 27.641C31.8604 27.641 32.556 28.0559 33.1688 27.6027C33.1688 27.6027 33.2198 27.6538 33.2645 27.7623C33.2645 27.7623 33.7304 27.3155 34.5601 27.8006C34.5601 27.8006 34.458 27.7878 34.0687 27.9537C33.5581 28.1771 32.2816 28.3239 31.8604 27.6346V27.641Z" fill="#5A3719"/>
<path d="M34.5283 28.0623C34.5283 28.0623 35.1921 28.1388 35.7474 28.1069C36.092 28.0878 36.4686 28.024 36.2835 28.1388C36.092 28.2537 36.1878 28.2665 36.9792 28.1963C37.7706 28.1197 36.9728 28.3431 37.5153 28.4133C37.5153 28.4133 36.1942 29.0898 34.5283 28.0623Z" fill="black"/>
<path d="M36.2643 27.641C36.2643 27.641 36.6536 27.5006 37.0174 27.6665C37.3748 27.8389 37.3174 27.8516 37.5599 27.8772C37.5599 27.8772 37.394 28.1133 36.9983 27.9218C36.6026 27.7304 36.4941 27.6921 36.2643 27.641ZM36.6983 28.8345C36.6983 28.8345 37.0813 28.6431 37.5025 28.8409C37.5536 28.8665 37.6684 28.9175 37.7769 28.9367C37.7769 28.9367 37.4578 29.0388 37.1259 28.9367C36.9855 28.892 36.877 28.8601 36.6983 28.8345ZM34.8091 28.1516C34.8091 28.1516 35.6643 28.2282 36.1239 28.1389C36.1239 28.1389 35.5878 28.3942 36.9345 28.2793C36.9345 28.2793 37.2281 28.2474 37.1898 28.292C37.1578 28.3367 37.1323 28.375 37.2791 28.4197C37.2791 28.4197 36.2834 28.8665 34.8091 28.1516Z" fill="#5A3719"/>
<path d="M30.5582 27.4304C30.5582 27.4304 30.5709 27.4942 30.756 27.5772C30.9475 27.6665 31.0496 27.8133 31.0879 27.8963C31.117 27.9551 31.1582 28.0071 31.2088 28.0489C31.2594 28.0907 31.3183 28.1214 31.3815 28.1388C31.3815 28.1388 30.7114 28.2793 30.4178 27.9282C30.4178 27.9282 30.188 27.6793 30.5518 27.4304" fill="black"/>
<path d="M35.811 28.9686C35.811 28.9686 35.5493 28.9494 35.1855 28.8282C34.8281 28.7005 34.7324 28.809 34.5281 28.6558C34.3239 28.5027 33.9154 28.5984 33.8388 28.6112C33.7622 28.6176 33.5452 28.6112 33.8133 28.4325C33.8133 28.4325 33.5963 28.4325 33.5133 28.3176C33.5133 28.3176 33.4176 28.4133 33.0474 28.3814C33.0474 28.3814 33.2133 28.6367 32.5559 28.5601C32.6665 28.6891 32.8129 28.7823 32.9766 28.8278C33.1403 28.8733 33.3138 28.8689 33.475 28.8154C33.475 28.8218 33.4304 29.0196 33.7303 29.0962C34.0431 29.1728 34.1005 29.2303 34.2601 29.2941C34.2601 29.2941 34.2792 29.1664 33.8771 28.8728C33.8771 28.8728 34.0941 28.8601 34.4069 28.9367C34.7196 29.0133 35.4281 29.192 35.811 28.9686ZM35.977 29.2749C35.977 29.2749 36.0408 29.4281 36.245 29.3898C36.4429 29.3579 36.7748 29.3005 37.0939 29.46C37.0939 29.46 37.1514 29.192 36.5067 29.1728C36.5067 29.1728 36.1046 29.192 35.977 29.2749ZM30.5391 27.5261C30.5391 27.5261 30.2902 27.7304 30.5135 27.941C30.7178 28.1325 31.0369 28.1197 31.1901 28.1133C31.1901 28.1133 31.0944 28.0623 31.0178 27.941C30.9348 27.8197 30.9348 27.7368 30.7625 27.6602C30.5901 27.5836 30.571 27.5644 30.5391 27.5261ZM30.2838 26.473C30.2838 26.473 29.9072 27.2517 31.3688 27.4432C31.3688 27.4432 31.3688 27.3602 31.4326 27.2325C31.4837 27.1113 31.6113 26.8624 31.4965 26.7028C31.3688 26.5432 31.5922 26.6262 31.6241 26.4156C31.656 26.2113 31.5986 26.2369 31.7007 26.1028C31.7007 26.1028 31.2475 26.2688 31.0688 26.473C30.8965 26.6709 31.305 26.8241 31.0688 27.0475C31.0688 27.0475 30.8582 26.9709 30.7369 26.7539C30.7369 26.7539 30.4561 26.7539 30.2774 26.473H30.2838Z" fill="#5A3719"/>
<path d="M34.1069 28.2729C34.1069 28.2729 34.4133 28.2218 35.192 28.5154C35.9706 28.8026 36.2961 28.7324 36.411 28.726C36.411 28.726 35.9706 28.9558 35.2941 28.6558C34.6941 28.3878 34.6558 28.4899 34.1069 28.2729Z" fill="black"/>
<path d="M38.9832 28.1005C38.9832 28.1005 39.1556 28.0942 39.2641 28.1388C39.2641 28.1388 39.3279 28.0814 39.4938 28.0622C39.4938 28.0622 39.3853 27.9601 38.9832 28.1005ZM38.4471 27.6665C38.4471 27.6665 38.6258 27.6602 38.6833 27.5708C38.6833 27.5708 38.5875 27.4623 38.4535 27.4049C38.4535 27.4049 38.479 27.5325 38.4535 27.6665H38.4471ZM32.4731 25.6816C32.4731 25.6816 32.4348 25.5922 32.6263 25.5667L35.2303 25.1901C35.2303 25.1901 35.358 25.1901 35.3771 25.2731C35.3963 25.3688 35.3644 25.4327 34.7772 25.5029C34.1964 25.5667 32.6454 25.7645 32.6454 25.7645C32.6454 25.7645 32.4859 25.7901 32.4731 25.6816Z" fill="#FFC221"/>
<path d="M34.8345 25.5731C34.8345 25.5731 34.8345 25.9178 35.1855 25.9688C35.5238 26.0199 35.6387 25.9497 35.728 25.771C35.7536 25.7199 35.8557 25.3625 35.7089 25.3369C35.6451 25.3242 35.5429 25.3369 35.4663 25.3625C35.3515 25.4135 35.243 25.471 35.2749 25.5284C35.3642 25.6561 35.377 25.688 35.3515 25.6944C35.2621 25.7199 35.2047 25.6433 35.1855 25.5922C35.1664 25.5284 35.2302 25.4901 35.0068 25.5284C34.9111 25.5348 34.8345 25.5348 34.8345 25.5731Z" fill="#FFC221"/>
<path d="M36.2898 25.3114C36.4621 25.3306 36.4493 25.7071 36.2387 25.8795C36.0089 26.0646 35.7919 25.9943 35.7919 25.9943C35.6707 25.9497 35.6898 25.9624 35.7792 25.8284C35.8621 25.7007 35.9068 25.5284 35.8558 25.4072C35.843 25.3689 35.8813 25.3369 35.9387 25.3242C35.9387 25.3242 36.1047 25.2923 36.2898 25.3114Z" fill="#FFC221"/>
<path d="M36.443 25.3433C36.443 25.3433 36.5707 25.5029 36.4111 25.7965C36.4111 25.7965 36.3409 25.8858 36.5005 25.8731C36.6537 25.8603 37.0111 25.6944 36.9728 25.4774C36.9728 25.4774 36.96 25.4263 36.8643 25.4263C36.7749 25.4327 36.8515 25.3816 36.8898 25.3625C36.9281 25.3625 37.0494 25.3114 36.7366 25.1072C36.7366 25.1072 36.6856 25.0625 36.6218 25.0816C36.5771 25.1008 36.4111 25.1646 36.4111 25.2667C36.4111 25.305 36.443 25.3433 36.443 25.3433Z" fill="#FFC221"/>
<path d="M36.7813 25.0752C36.7813 25.0752 37.0366 25.254 37.0302 25.305C37.0302 25.3561 37.0047 25.4327 37.0749 25.4199C37.1387 25.4199 37.4068 25.3561 37.3302 25.1838C37.26 25.005 37.1834 24.9412 37.0621 24.8965C36.9345 24.8519 36.9025 24.9093 36.794 24.9923C36.794 24.9923 36.7175 25.0433 36.7813 25.0752ZM35.441 25.3242C35.441 25.3242 35.4792 25.1965 35.2559 25.1455C35.2559 25.1455 35.3516 25.0625 35.5431 25.1072C35.7282 25.1455 35.709 25.2731 35.709 25.2859C35.709 25.2859 35.5622 25.2859 35.441 25.3242ZM35.926 25.2923C35.926 25.2923 36.1813 25.2476 36.2962 25.2603C36.2962 25.2603 36.1686 24.9795 35.8239 25.0689C35.8239 25.0689 35.9516 25.2157 35.926 25.2923ZM36.3664 25.2284C36.3664 25.2284 36.3664 25.1327 36.5834 25.0497C36.5834 25.0497 36.4813 24.9476 36.3281 24.9604C36.1622 24.9667 36.1239 25.0242 36.1239 25.0242C36.1239 25.0242 36.3154 25.0944 36.3664 25.222V25.2284ZM36.4494 24.9221C36.4494 24.9221 36.5898 24.9604 36.6728 25.0306C36.6728 25.0306 36.8004 24.8902 36.9089 24.8646C36.9089 24.8646 36.6983 24.7497 36.4494 24.9285V24.9221Z" fill="#FFC221"/>
<path d="M29.3136 24.2392C29.3136 24.2392 29.9136 23.7286 30.2518 23.7924C30.5837 23.8562 30.4178 23.8115 30.7816 23.7541C31.1518 23.6966 31.5283 23.6583 31.6815 23.6775C31.6815 23.6775 31.2347 23.3584 30.4433 23.3647C30.4433 23.3647 29.888 23.5562 29.4987 23.8115C29.4987 23.8115 28.7583 23.403 27.9924 23.6456C27.9924 23.6456 28.8222 23.9519 29.3136 24.2392Z" fill="#5A3719"/>
<path d="M35.6835 25.1199L35.7856 25.1008C35.7856 25.1008 35.9515 25.3114 35.8303 25.3114C35.7345 25.3114 35.7664 25.2859 35.7537 25.2221C35.7422 25.1812 35.7176 25.1453 35.6835 25.1199ZM34.9303 25.1327C34.9303 25.1327 34.8665 25.2093 34.9814 25.1965C35.1218 25.171 35.0963 25.1965 35.2431 25.0944C35.2431 25.0944 35.3388 24.9987 35.5111 25.0561C35.5111 25.0561 35.6579 25.1072 35.7728 25.0497C35.8941 24.9859 35.9196 24.9923 35.9835 24.9987C36.0473 25.0051 36.0473 25.0178 36.1239 24.954C36.2132 24.8902 36.36 24.9412 36.4494 24.8646C36.5451 24.7881 36.66 24.8519 36.4494 24.7051C36.4494 24.7051 36.4047 24.6604 36.4111 24.6221C36.4111 24.6221 36.4941 24.6476 36.5579 24.7051C36.6217 24.7625 36.7238 24.7434 36.743 24.7306C36.743 24.7306 36.7557 24.5455 36.9344 24.3732C37.1259 24.2009 37.1259 24.1881 37.0174 24.1881C36.9089 24.1881 36.7238 24.1434 36.66 24.1881C36.5962 24.2328 36.06 24.5902 35.7409 24.6476C35.4218 24.7115 35.1346 24.8008 34.9303 25.1327ZM26.4927 23.186C26.4927 23.186 27.4628 23.435 27.6798 23.5371C27.6798 23.5371 27.7309 23.3775 27.2905 23.2499C27.2905 23.2499 28.3627 23.218 29.4925 23.7349C29.4925 23.7349 30.0413 23.2626 31.8029 23.4094C31.8029 23.4094 31.8029 23.2563 31.8157 23.135C31.8157 23.135 30.5839 23.0967 29.4478 22.4074C29.4478 22.4074 28.4266 22.9116 26.4927 23.186ZM31.8859 23.652C31.8221 22.6627 32.1986 22.5669 32.1986 22.5669C32.1986 22.5669 32.3773 22.5733 32.5688 22.6052C32.5688 22.6052 32.2688 22.9627 32.3518 23.6711C32.3518 23.6711 32.3837 23.786 32.1284 23.786C31.8731 23.786 31.8859 23.6583 31.8859 23.6583V23.652Z" fill="#FFC221"/>
<path d="M32.1476 24.3094C32.1476 24.3094 31.9562 24.1179 31.9434 23.9009C31.9434 23.9009 31.937 23.8498 32.1221 23.8498C32.3136 23.8562 32.3327 23.8371 32.3774 23.9456C32.4221 24.0477 32.5433 24.2711 32.5689 24.2966L32.1476 24.3094Z" fill="#5A3719"/>
<path d="M32.5433 23.8115C32.5269 23.6867 32.5205 23.5608 32.5242 23.435C32.537 22.8861 32.6263 22.9307 32.6646 23.0009H32.8561C32.8561 23.0009 32.7157 22.3818 32.5497 22.7456C32.4254 23.0192 32.3811 23.3224 32.4221 23.6201C32.4348 23.786 32.454 23.8881 32.4731 23.9456L32.5433 23.8115Z" fill="#FFC221"/>
<path d="M34.6815 23.8115C34.6815 23.8115 35.0453 23.8753 34.49 24.003C34.49 24.003 34.5155 24.6795 35.1729 24.2072C35.1729 24.2072 35.5686 23.9583 35.8367 23.8562C35.8367 23.8562 35.9707 23.8115 35.958 23.7094C35.958 23.7094 35.9707 23.5817 35.8303 23.6137C35.8303 23.6137 35.7154 23.6137 35.6388 23.5881C35.6388 23.5881 35.5622 23.4924 35.5112 23.5243C35.4601 23.5626 35.3325 23.5435 35.4346 23.6647C35.5303 23.7796 35.5622 23.7477 35.6069 23.7158C35.6516 23.6839 35.8622 23.6009 35.6707 23.7732C35.4793 23.9455 35.3261 23.6775 35.2623 23.6264L34.6815 23.8115ZM32.8497 23.8945H32.6901C32.6901 23.8945 32.6008 24.0221 32.5433 23.8115L32.4795 23.9455C32.4795 23.9455 32.671 24.6732 32.8497 23.8945Z" fill="#5A3719"/>
<path d="M32.6199 23.052C32.6199 23.052 32.537 23.5307 32.6455 23.8179L34.4007 23.8562C34.4007 23.8562 34.3815 23.5179 34.4007 23.052H34.1581C34.1581 23.052 34.1198 23.4349 34.1581 23.6711H34.1134C34.1134 23.6711 34.0815 23.3456 34.1134 23.052H33.9092C33.9092 23.052 33.8773 23.4094 33.9028 23.6775H33.8645C33.8645 23.6775 33.8326 23.3647 33.8645 23.052H33.6667C33.6667 23.052 33.6284 23.3711 33.6667 23.6711H33.6156C33.6156 23.6711 33.5773 23.352 33.6156 23.052H33.3922C33.3922 23.052 33.3412 23.352 33.3922 23.6775H33.3475C33.3475 23.6775 33.2965 23.3711 33.3475 23.052H33.1242C33.1242 23.052 33.0731 23.3966 33.1242 23.6775H33.0731C33.0731 23.6775 33.0412 23.3456 33.0859 23.052H32.8752C32.8752 23.052 32.8178 23.3392 32.8689 23.6775H32.8178C32.8178 23.6775 32.7859 23.4222 32.8306 23.052H32.6199ZM34.4772 23.92C34.4772 23.92 34.4326 23.0648 34.5921 22.835C34.7581 22.618 34.7964 22.6627 35.0772 22.835C35.358 23.0201 35.7154 23.2116 35.7793 23.2307C35.8367 23.2562 35.9197 23.2754 35.9197 23.4349C35.9197 23.5881 35.9452 23.6328 35.7027 23.4349C35.6708 23.4094 35.5559 23.3073 35.4729 23.2818C35.2559 23.2116 35.524 23.3264 35.6006 23.4413C35.6644 23.5307 35.7218 23.5243 35.5495 23.569C35.1886 23.6749 34.831 23.792 34.4772 23.92Z" fill="#FFC221"/>
<path d="M35.0899 23.3009C35.0899 23.3009 34.9623 23.1478 35.1282 23.1095C35.2878 23.0712 35.3005 23.3648 35.3324 23.5371C35.358 23.7158 35.1282 23.3584 35.0963 23.3073L35.0899 23.3009ZM34.8601 24.0541C34.8601 24.0541 34.6687 24.1243 34.7963 24.1817C34.9176 24.2455 35.2622 23.9583 35.1474 23.9775C35.0197 23.9966 34.8601 24.0541 34.8601 24.0541ZM35.1154 23.7924C35.1154 23.7924 35.2814 23.7732 35.2431 23.8434C35.2176 23.92 35.1537 23.8754 35.1282 23.8562C35.1027 23.8434 34.9878 23.7988 35.1154 23.7924Z" fill="black"/>
<path d="M36.0027 23.5626C36.0027 23.5626 36.0473 23.8945 36.3282 23.9775C36.3282 23.9775 36.4941 24.0157 36.4558 23.8753C36.4558 23.8753 36.4303 23.7477 36.4111 23.703C36.3856 23.6519 36.2707 23.62 36.258 23.6136C36.2452 23.6136 36.2324 23.5754 36.309 23.6009C36.3856 23.6264 36.3984 23.6328 36.392 23.5754C36.392 23.5179 36.3409 23.5434 36.2707 23.5115C36.2452 23.4924 36.2707 23.4732 36.3026 23.4796C36.3345 23.486 36.4048 23.5115 36.4048 23.3966C36.4048 23.3966 36.4175 23.3328 36.3345 23.3328C36.2388 23.3264 36.2452 23.2818 36.2707 23.2754C36.3026 23.2754 36.3984 23.3392 36.4303 23.2243C36.4558 23.1158 36.2963 23.1796 36.3154 23.1222C36.3409 23.0584 36.4558 23.1541 36.4622 23.0839C36.475 23.0201 36.5643 22.9882 36.4048 22.9626C36.3345 22.9563 36.4048 22.918 36.4877 22.9307C36.5771 22.9435 36.6281 22.835 36.6792 22.7967C36.7366 22.7584 37.0302 22.5861 36.6345 22.6435C36.2452 22.701 36.1239 22.8924 36.1048 22.9307C36.0067 23.1282 35.9711 23.3508 36.0027 23.569V23.5626Z" fill="#FFC221"/>
<path d="M36.9217 23.8179C36.9727 23.8115 37.0174 23.8179 37.0366 23.8562C37.1004 23.9902 36.9536 23.9456 36.8706 24.0413C36.7876 24.137 36.7813 24.1179 36.6664 24.086C36.5515 24.0477 36.5068 23.8754 36.5068 23.8754C36.494 23.8179 36.5451 23.8115 36.6025 23.8243C36.6025 23.8243 36.794 23.8434 36.9217 23.8243V23.8179ZM36.494 23.7541C36.494 23.7541 36.5004 23.786 36.5706 23.7924C36.6345 23.7988 36.8259 23.8179 36.9472 23.7796C36.9472 23.7796 36.9855 23.7732 36.9664 23.6966C36.9664 23.6966 36.9663 23.6456 36.8642 23.6647C36.7557 23.6839 36.6089 23.6647 36.5579 23.6583C36.5068 23.6456 36.4685 23.6583 36.494 23.7477V23.7541ZM36.4813 23.5115C36.4813 23.5115 36.4749 23.6137 36.577 23.6264C36.6855 23.6392 36.8132 23.6392 36.8642 23.6264C36.9089 23.6264 36.9855 23.6073 36.9919 23.5435C36.9919 23.4796 37.011 23.4413 36.8834 23.4733C36.7557 23.5052 36.6025 23.4796 36.5834 23.4733C36.5706 23.4733 36.4813 23.4477 36.4813 23.5115ZM36.526 23.3009C36.526 23.3009 36.5004 23.352 36.5068 23.3967C36.5068 23.4413 36.5834 23.4605 36.7174 23.4605C36.8515 23.4605 36.9727 23.4413 36.9855 23.3967C36.9919 23.3456 37.0238 23.2945 36.9217 23.3137C36.8132 23.3265 36.6791 23.3328 36.6217 23.3137C36.5706 23.2882 36.5323 23.2818 36.526 23.3009Z" fill="#FFC221"/>
<path d="M41.5107 23.8307C41.5107 23.8307 41.5107 23.92 41.5809 24.0158L37.8152 23.9073C37.8152 23.9073 37.8662 23.8753 37.879 23.7285L41.5107 23.8307Z" fill="#5A3719"/>
<path d="M36.5578 23.1477C36.5578 23.1477 36.5259 23.2435 36.5897 23.2626C36.6535 23.2818 36.7748 23.3009 36.928 23.2754C36.928 23.2754 37.0046 23.2754 37.0301 23.1988C37.062 23.1158 37.0556 23.1605 36.8386 23.1222C36.8386 23.1222 36.7748 23.0967 36.9663 23.0967C36.9663 23.0967 37.0811 23.0967 37.0939 23.0839C37.1131 23.0648 37.2599 22.9435 37.0684 22.9563C36.8769 22.9563 36.9726 22.918 37.0684 22.918C37.1705 22.918 37.196 22.9435 37.2279 22.9116C37.2599 22.8797 37.2279 22.8988 37.1769 22.8478C37.1258 22.7967 37.1641 22.8095 37.2024 22.8414C37.2407 22.8669 37.2662 22.8797 37.3045 22.8414C37.3492 22.8031 37.2726 22.7456 37.3045 22.752C37.3364 22.7584 37.3556 22.8222 37.4769 22.7648C37.6045 22.701 37.7705 22.7329 37.8151 22.7648C37.8598 22.8031 37.9875 22.8478 38.0704 22.7648C38.147 22.6882 37.9747 22.618 38.0449 22.6116C38.1215 22.5989 38.1726 22.6244 38.1981 22.5669C38.23 22.5031 38.0832 22.4521 38.2236 22.4138C38.3576 22.3755 38.2428 21.9925 38.1981 21.9606C38.1981 21.9606 38.0449 22.05 37.879 22.318C37.7066 22.5925 37.6109 22.752 37.3811 22.6691C37.062 22.5414 36.8897 22.7201 36.8386 22.752C36.762 22.7967 37.0046 22.8159 36.8578 22.8222C36.7173 22.8222 36.7173 22.8414 36.7046 22.8605C36.6918 22.8797 36.7046 22.8988 36.7301 22.9052C36.7556 22.9052 36.8067 22.9563 36.7237 22.9563C36.6344 22.9563 36.5705 22.9371 36.5961 23.0329C36.5961 23.0329 36.5961 23.052 36.6471 23.0584C36.6982 23.0584 36.7173 23.1222 36.6216 23.1222C36.5578 23.1222 36.5578 23.1414 36.5578 23.1477ZM36.9024 24.0924C36.9024 24.0924 36.8386 24.137 36.928 24.1434C37.0237 24.1434 37.0684 24.1689 37.1003 24.1179C37.1322 24.0668 37.2535 24.086 37.1705 24.0158C37.0875 23.9519 37.0301 23.9902 36.9024 24.0924Z" fill="#FFC221"/>
<path d="M37.2918 22.9563C37.2918 22.9563 37.611 22.6627 37.8663 22.8605C38.1343 23.0648 38.1535 23.0903 38.1599 23.0967C38.1599 23.0967 38.1918 23.1222 38.1216 23.186C38.0514 23.2499 38.1216 23.2499 38.1982 23.2052C38.2748 23.1669 38.2811 23.2052 38.3194 23.2499C38.3577 23.2882 38.4088 23.3137 38.2875 23.3137H37.9046C37.9046 23.3137 37.7322 23.3328 37.8216 23.2563C37.9046 23.186 37.8918 23.1031 37.8471 23.0967C37.8024 23.0903 37.8471 23.1414 37.8216 23.1733C37.7897 23.2052 37.7322 23.2371 37.6684 23.2371C37.6046 23.2371 37.5535 23.2818 37.6493 23.3137C37.745 23.352 37.6365 23.3775 37.5854 23.3775C37.5344 23.3775 37.2918 23.3903 37.5408 23.4222C37.7897 23.4541 37.5152 23.4477 37.7003 23.5498C37.9046 23.6647 37.7578 23.9073 37.6812 23.9328C37.6812 23.9328 37.5982 23.9775 37.7003 23.9647C37.8088 23.9519 37.8663 23.9392 37.7897 23.9966C37.7195 24.0541 37.5663 24.2392 37.3621 24.0987C37.3621 24.0987 37.2663 24.0541 37.4323 24.0413C37.6046 24.0349 37.2982 23.9966 37.2408 23.9647C37.1961 23.9328 36.9982 23.7349 37.1195 23.7541C37.2472 23.7796 37.2025 23.7094 37.1259 23.6839C37.0557 23.6584 37.0429 23.5498 37.1259 23.569C37.2025 23.5945 37.2982 23.6392 37.3684 23.6328C37.4323 23.6328 37.4131 23.6073 37.2727 23.569C37.1323 23.5179 37.0748 23.5116 37.1068 23.3967C37.1387 23.2754 37.2982 23.4413 37.2599 23.352C37.2216 23.2626 37.0876 23.3073 37.1578 23.1924C37.228 23.0775 37.2472 23.1286 37.2791 23.1414C37.311 23.1541 37.3621 23.1414 37.2727 23.0775C37.2089 23.0329 37.2727 22.969 37.2918 22.9563Z" fill="#FFC221"/>
<path d="M37.5151 23.0392C37.5151 23.0392 37.5151 23.0009 37.579 23.0073C37.63 23.0073 37.6173 22.9882 37.63 22.9754C37.6492 22.9754 37.7896 23.0201 37.6556 23.0648C37.6109 23.0839 37.5279 23.0711 37.5215 23.0392H37.5151Z" fill="black"/>
<path d="M37.8215 23.3711C37.8215 23.3711 37.713 23.4286 37.8088 23.5371C37.8917 23.6328 37.8917 23.6647 37.8854 23.7285C37.879 23.7924 41.5106 23.8307 41.5106 23.8307C41.5106 23.8307 41.5042 23.5945 41.6574 23.4605L37.8215 23.3711Z" fill="#FFC221"/>
<path d="M37.4067 24.6157C37.4067 24.6157 37.6493 24.4051 37.6876 24.3157C37.6876 24.3157 38.3386 24.7816 38.3003 24.354C38.3003 24.354 38.3003 24.2391 38.3194 24.1306C38.3194 24.1306 38.5556 24.1562 38.5939 23.9647L37.9812 23.9455C37.9812 23.9455 37.9173 23.9328 37.8216 24.0349C37.7322 24.137 37.5344 24.2455 37.3557 24.1498C37.3557 24.1498 37.2791 24.086 37.2025 24.1434C37.1195 24.1945 37.1195 24.2072 37.1833 24.271C37.2472 24.3349 37.3812 24.5136 37.4067 24.6157ZM38.8109 23.3328L38.4535 23.3201C38.4535 23.3201 38.3258 23.135 38.0705 22.9371C38.0705 22.9371 37.9939 22.8988 38.1343 22.7839C38.2811 22.669 38.3258 22.5478 38.3258 22.4903C38.3322 22.4393 38.3258 22.3499 38.3769 22.4137C38.4279 22.4776 38.7981 22.8158 38.8556 22.7201C38.9066 22.618 38.9194 22.5733 38.9194 22.5414C38.9321 22.5095 38.9449 22.4201 38.996 22.5159C39.0534 22.6116 39.0853 22.5861 39.0917 22.835C39.0917 22.835 39.0981 23.0903 39.1364 23.1733C39.1364 23.1733 38.6705 23.0265 38.8173 23.3328H38.8109ZM37.2599 22.5669C37.2599 22.5669 37.5344 22.7265 37.6684 22.5159C37.7961 22.3116 37.8918 22.2797 37.7897 22.0755C37.6876 21.884 37.7897 21.7883 37.8663 21.7053C37.9492 21.6223 38.0131 21.6415 38.0194 21.3223C38.0322 21.0032 38.2492 20.9011 38.3513 20.799C38.4471 20.7032 38.696 20.5564 38.3194 20.4926C37.9492 20.4288 37.2025 20.2373 37.011 19.9501C36.8195 19.6565 36.7302 19.8288 36.7302 19.8416C36.7302 19.8544 36.6664 20.065 36.8578 20.4479C37.0493 20.8309 37.2089 21.0798 37.4003 21.2011C37.5854 21.3287 37.7514 21.3925 37.6556 21.6478C37.5599 21.9031 37.4003 22.3627 37.2599 22.5733V22.5669Z" fill="#7B3C20"/>
<path d="M38.2682 21.7564C38.2682 21.7564 38.3129 22.4138 38.7916 22.6499C38.7916 22.6499 38.9001 22.3946 38.8554 22.1393C38.8554 22.1393 39.015 22.1521 39.0597 22.2223C39.0597 22.2223 39.0597 22.0308 38.8427 21.9606C38.6129 21.8968 38.7214 21.4628 38.8044 21.4181C38.8809 21.367 38.8554 21.2777 38.8044 21.2011C38.7469 21.1245 38.7405 21.0096 38.9256 21.0607C39.1171 21.1053 39.0852 21.0096 38.9703 20.9139C38.8554 20.8245 38.8618 20.7096 39.0214 20.7096C39.1809 20.7096 39.449 20.5501 39.2894 20.5054C39.1299 20.4543 39.0788 20.4033 39.2894 20.3394C39.5128 20.2756 39.6213 20.199 39.4554 20.1799C39.2894 20.1607 39.1809 20.1033 39.3405 20.0778C39.5 20.0458 39.315 19.8863 39.1299 19.8799C38.9384 19.8671 38.5427 19.9437 38.8554 19.6884C39.1745 19.4395 38.4086 19.6246 38.7214 19.4587C39.0405 19.2927 38.6129 19.3629 38.5554 19.3629C38.498 19.3629 38.498 19.3629 38.5235 19.2799C38.5427 19.197 38.4788 19.1523 38.3831 19.2097C38.2938 19.2608 38.2938 19.2608 38.3001 19.1459C38.3001 19.0246 38.1916 19.114 38.1214 19.1459C38.0512 19.1714 37.8789 19.3055 37.8023 19.2353C37.7385 19.1587 37.7002 19.0885 37.4832 19.2161C37.2662 19.3438 37.3172 19.2353 37.3236 19.1778C37.3236 19.114 37.4066 18.8906 37.113 19.1331C36.8194 19.3757 37.0556 18.8778 36.8258 19.0438C36.596 19.2161 36.5705 19.248 36.5322 19.1714C36.4939 19.0949 36.4492 19.031 36.1939 19.197C35.9386 19.3565 36.1301 19.0949 36.162 19.0374C36.2003 18.98 36.3088 18.6098 36.0854 18.9034C36.0854 18.9034 35.9769 19.1012 35.7344 18.7438C35.7344 18.7438 35.4791 19.1012 35.4089 18.9417C35.345 18.7821 35.2812 18.7693 35.1919 18.8715C35.1089 18.9736 35.1727 18.8651 35.1344 18.7757C35.0961 18.6928 35.077 18.5332 34.6493 18.8396C34.2217 19.1587 34.7961 18.9289 34.4706 19.0693C34.1451 19.2097 33.3537 19.6565 34.0749 19.5544C34.8025 19.4523 33.7239 19.8352 33.9728 19.9054C34.2281 19.9756 34.1451 20.199 35.0897 19.9373C36.028 19.682 35.8748 19.899 36.3599 19.6884C36.8385 19.4842 36.245 19.7586 36.8896 19.7522C37.5342 19.7331 36.9981 19.7522 37.1258 19.8799C37.2534 20.0139 37.7959 20.3267 38.3001 20.3841C38.8107 20.4352 38.9384 20.2437 38.7916 20.4671C38.6448 20.6841 38.5937 20.7671 38.5044 20.85C38.4214 20.9202 38.1789 21.099 38.1725 21.3989C38.1725 21.7053 37.7768 21.7564 37.9172 22.0946L38.2682 21.7564Z" fill="#5A3719"/>
<path d="M39.1045 22.4903C39.1045 22.4903 38.9896 22.4074 38.9896 22.2606C38.9896 22.2606 39.0726 22.2733 39.1045 22.3244C39.1045 22.3244 39.3981 21.9989 39.0406 21.8776C38.696 21.7564 38.8683 21.4372 38.9896 21.4372C39.1109 21.4372 39.13 21.4053 39.0279 21.2713C38.9258 21.1436 38.9385 21.1309 39.1364 21.099C39.3279 21.067 39.3087 21.0224 39.2194 20.9713C39.1597 20.9376 39.1058 20.8945 39.0598 20.8437C39.0598 20.8437 39.6215 20.6011 39.4427 20.4862C39.2577 20.3777 39.4427 20.4033 39.6023 20.2884C39.7683 20.1735 39.7938 20.148 39.8129 20.1033C39.8129 20.1033 39.6534 20.1224 39.5321 20.1033C39.5321 20.1033 39.6725 20.0267 39.5321 19.9118C39.3917 19.7969 39.3406 19.6948 39.1109 19.7459C38.8875 19.8033 38.9641 19.7267 39.047 19.6374C39.1364 19.5416 39.0981 19.4906 38.9385 19.465C38.9385 19.465 38.9577 19.3693 39.0789 19.2544C39.0789 19.2544 38.7726 19.2736 38.6705 19.2225C38.6705 19.2225 38.7981 19.1395 38.7981 19.0374C38.7981 19.0374 38.6322 19.0949 38.4215 19.0757C38.4215 19.0757 38.5492 18.9672 38.5492 18.8715C38.5492 18.8715 38.179 18.9544 38.0131 19.0821C38.0131 19.0821 37.9748 19.0757 37.9492 19.0374C37.9173 18.9991 37.8982 18.9544 37.4897 19.0821C37.4897 19.0821 37.5344 18.9034 37.6365 18.8268C37.7322 18.763 37.7195 18.6162 37.0876 19.0119C37.0876 19.0119 37.0046 18.9608 36.9344 18.7694C36.9344 18.7694 36.794 18.9608 36.6919 19.0247C36.6919 19.0247 36.6025 19.0629 36.6153 18.9417C36.6281 18.814 36.5515 18.9034 36.4876 18.9417C36.4238 18.9736 36.3791 19.0629 36.4111 18.814C36.443 18.5651 36.3217 18.5141 36.3217 18.5141C36.3217 18.5141 36.1302 18.7949 36.0153 18.8268C36.0153 18.8268 35.8111 18.6226 35.7345 18.4885C35.6643 18.3609 35.6643 18.3098 35.5877 18.5396C35.5175 18.7693 35.4282 18.7885 35.4282 18.7885C35.4282 18.7885 35.3005 18.68 35.2877 18.6226C35.2877 18.6226 35.2686 18.6864 35.2239 18.7119C35.2239 18.7119 35.1154 18.5843 35.1218 18.3992C35.1218 18.3992 34.4452 18.7757 34.3559 18.9991C34.3559 18.9991 33.7176 18.9608 33.456 19.0119C33.456 19.0119 33.5198 18.8076 33.6857 18.6991C33.6857 18.6991 33.5198 18.68 33.5134 18.5077C33.5134 18.5077 33.6474 18.5268 33.7304 18.5077C33.8134 18.4885 33.6155 18.246 33.8261 18.2396C34.0368 18.2332 34.1708 18.3417 34.0814 18.0609C33.9857 17.7801 34.024 17.7801 34.024 17.7801C34.024 17.7801 34.3942 17.9971 34.4516 17.9396C34.5155 17.8886 34.407 17.7737 34.7325 17.8247C35.058 17.8822 34.9686 17.6971 35.0963 17.6843C35.2239 17.6779 35.2877 17.7673 35.2111 17.1737C35.1346 16.5802 35.6069 17.4673 35.2814 16.5738C35.2814 16.5738 35.2048 16.2993 35.0069 16.1844C35.0069 16.1844 34.9622 16.3759 34.7452 16.21C34.5218 16.0376 34.0942 15.9738 34.2729 15.8398C34.458 15.6994 34.541 15.5207 34.4899 15.4058C34.4899 15.4058 34.2729 15.6292 33.9027 15.4696C33.6091 15.3419 33.5453 15.5717 33.2453 15.5079C33.2453 15.5079 33.2453 15.4313 33.5006 15.2271C33.7559 15.0292 33.3538 15.2909 33.2007 15.3292C33.0411 15.3675 32.9964 15.3356 33.3283 15.0739C33.6602 14.8186 34.324 14.3654 34.2346 13.9889C34.2346 13.9889 34.3878 14.1867 34.8027 14.0399C35.2111 13.8995 35.5175 13.8484 35.6388 13.6314C35.7664 13.4208 36.0856 13.2102 36.1685 13.1591C36.2579 13.1145 36.3664 13.0825 36.2387 13.2868C36.1111 13.4846 35.9068 13.8293 35.3388 14.0654C34.7708 14.3016 34.5537 14.4675 34.4516 14.5952C34.3495 14.7165 33.8325 14.9909 34.1708 14.9462C34.5027 14.8952 35.0835 14.9462 34.809 14.8696C34.541 14.7931 34.2346 14.9207 34.4835 14.6909C34.7325 14.4675 34.7771 14.391 35.1409 14.2378C35.5047 14.0846 35.9068 13.7336 35.8685 14.1101C35.8239 14.4739 35.1473 14.8696 34.9814 14.9909C34.8154 15.1122 34.8793 15.093 34.8793 15.1377C34.8793 15.1888 34.8537 15.2909 34.7835 15.3292C34.7197 15.3802 34.7388 15.4313 34.758 15.5334C34.7771 15.6419 34.7388 15.6802 34.7899 15.6994C34.841 15.7121 34.892 15.7185 34.9048 15.7951C34.9239 15.8717 34.9622 15.8781 35.058 15.8717C35.1537 15.8589 35.2175 15.8717 35.2239 15.9291C35.2303 15.9866 35.326 16.0632 35.3324 15.8908C35.3452 15.7121 35.409 15.6802 35.2303 15.7632C35.0516 15.8398 35.0133 15.8143 35.0197 15.7313C35.0197 15.6483 35.0005 15.6675 34.9303 15.6611C34.8537 15.6547 34.8282 15.5462 34.9622 15.476C35.0899 15.4122 35.0899 15.476 35.2558 15.3419C35.4218 15.2015 35.4218 15.1696 35.4473 15.0994C35.4728 15.0356 35.2111 15.2909 35.0835 15.3483C34.9558 15.4058 34.9941 15.3037 35.0197 15.1632C35.0388 15.0228 35.3516 14.8313 35.492 14.8313C35.6388 14.8313 35.9579 14.9143 35.8239 15.1122C35.6835 15.3037 35.2877 15.5398 35.4537 15.559C35.626 15.5717 35.6515 15.5079 35.7537 15.5909C35.8494 15.6802 35.7537 15.8589 35.7154 15.9547C35.6706 16.0435 35.6075 16.1218 35.5303 16.1844C35.5303 16.1844 35.3516 15.8653 35.3579 16.1206C35.3579 16.3759 35.3196 16.4653 35.3579 16.4716C35.3962 16.4844 35.5941 16.6184 35.6579 16.6184C35.7217 16.6184 35.3133 16.8099 35.4856 16.8227C35.6579 16.8355 35.9324 16.7461 36.0217 16.5674C36.0217 16.5674 35.6707 16.4844 35.5367 16.3568C35.5367 16.3568 35.9388 16.261 35.8239 15.8717C35.8239 15.8717 36.2323 15.9802 36.0536 16.1653C35.8813 16.344 35.7728 16.3185 35.926 16.3695C36.0792 16.4206 36.1494 16.4653 36.1494 16.4653C36.1494 16.4653 36.2579 16.5163 36.1941 16.5993C36.1302 16.6887 36.1302 16.8163 36.1877 16.8099C36.2323 16.8099 36.4047 16.7269 36.2643 16.644C36.1175 16.5546 36.4238 16.5738 36.2962 16.4972C36.1685 16.4206 36.1302 16.4078 36.0983 16.3695C36.06 16.3376 37.7386 15.3483 36.8897 15.7185C36.8897 15.7185 37.0685 15.3356 37.3174 15.3356C37.5599 15.3356 37.5791 15.527 37.445 15.6802C37.2982 15.827 37.2089 16.0632 36.8834 16.1142C36.8834 16.1142 37.3493 16.344 36.794 16.7206C36.794 16.7206 36.6727 16.778 36.7174 16.8163C36.7621 16.861 37.094 16.6759 37.1387 16.5674C37.1833 16.4653 37.2535 16.3759 37.3812 16.3185C37.5088 16.2546 38.1279 15.8334 38.313 15.5143C38.5045 15.1951 38.5492 15.1888 38.913 14.8952C39.2768 14.6016 39.213 14.659 39.264 14.5888C39.3087 14.5186 39.3279 14.3973 39.4938 14.308C39.6597 14.2122 40.3108 13.8548 40.515 13.708C40.7192 13.5612 41.1341 13.2868 41.3128 13.057C41.4915 12.8336 41.9766 12.54 42.0979 12.5911C42.2191 12.6485 42.0851 12.8209 41.8043 13.0379C41.5171 13.2485 40.815 13.8165 40.7001 13.9059C40.4178 14.1332 40.1039 14.3181 39.7683 14.4548C39.5449 14.4867 39.5704 14.5633 39.4364 14.7101C39.3023 14.8569 38.9896 15.1569 38.8875 15.2398C38.7853 15.3292 38.5364 15.4951 38.5237 15.6164C38.5109 15.7377 38.5683 15.7504 38.3705 15.9355C38.1726 16.127 37.5918 16.5482 37.3748 16.6121C37.3748 16.6121 37.7514 16.7397 37.528 16.995C37.3046 17.2439 37.3174 17.2056 37.3046 17.2248C37.3046 17.2248 37.8663 17.1354 37.4706 17.5822C37.4706 17.5822 37.3876 17.7099 37.5663 17.5758C37.7578 17.429 37.6812 17.2376 37.6556 17.212C37.6556 17.212 37.9556 17.0205 38.3067 17.0205C38.6513 17.0142 38.6386 16.9886 38.3258 16.8993C38.3258 16.8993 38.5492 16.6312 38.7343 16.7652C38.9258 16.8929 38.8619 16.9759 38.6705 17.0844C38.4662 17.1865 38.179 17.2248 37.962 17.3461C37.962 17.3461 38.3705 17.429 38.5939 17.2567C38.8109 17.0908 38.8236 17.1737 38.8492 17.2056C38.8811 17.2376 38.9066 17.2886 38.8109 17.429C38.7088 17.5694 38.7024 17.5758 38.7088 17.6077C38.7088 17.6396 38.696 17.7354 38.4981 17.7673C38.3067 17.7992 38.2109 17.8822 38.2811 17.9779C38.345 18.0737 38.345 18.3034 38.179 18.2843C38.0131 18.2587 38.0514 18.1247 37.9875 18.0737C37.9237 18.0226 37.8344 17.946 37.5408 18.0928C37.2408 18.246 37.2216 18.0673 37.2344 17.9652C37.2344 17.9652 37.0429 18.1375 36.8834 17.9843C36.7238 17.8247 36.8642 17.7673 36.96 17.6907C37.0493 17.6141 37.4259 17.4482 37.2025 17.4801C36.9727 17.5056 36.6408 17.5184 36.5642 17.3524C36.4813 17.1737 36.7302 17.1929 36.7685 17.212C36.8068 17.2248 36.96 17.3524 36.9727 17.1865C36.9727 17.0142 37.228 16.995 37.1387 16.9631C37.0557 16.9312 36.9344 17.0397 36.9025 17.078C36.9025 17.078 36.7302 16.8355 36.4494 16.912C36.1685 16.995 36.5387 16.9631 36.6089 16.9759C36.6855 16.9886 36.6408 17.129 36.3919 17.3588C36.1366 17.5822 36.2515 17.512 36.4366 17.512C36.6281 17.512 37.0876 17.512 36.8195 17.729C36.5515 17.9524 36.443 18.0609 36.3089 18.0226C36.1685 17.9843 36.3217 17.8949 36.3855 17.8503C36.4494 17.812 36.4813 17.7482 36.3472 17.7992C36.2196 17.8439 36.1749 17.8567 36.0664 17.6716C35.9643 17.4801 36.0026 17.5439 36.0536 17.4163C36.0983 17.295 36.2004 17.1673 36.0792 17.212C35.9515 17.2567 35.9643 17.2631 35.977 17.1227C35.9834 16.9822 35.8366 16.9503 35.8366 16.9503C35.8366 16.9503 35.9005 17.0908 35.843 17.1801C35.792 17.2695 35.7856 17.3014 35.8749 17.3205C35.9643 17.3461 36.0473 17.4226 35.926 17.5056C35.8047 17.5822 35.8239 17.5694 35.8941 17.6205C35.9707 17.6716 36.0856 17.729 35.9643 17.8439C35.8494 17.9588 35.9451 17.9205 36.0026 17.9205C36.0664 17.9205 36.1941 17.9715 36.1941 18.0864C36.1941 18.1949 36.1877 18.2205 36.3791 18.1183C36.5706 18.0098 36.9408 18.0226 36.9408 18.1694C36.9344 18.3162 36.8897 18.3609 37.094 18.2332C37.2918 18.1056 37.3812 18.3481 37.5216 18.2332C37.6556 18.112 37.745 17.9971 37.9046 18.2013C38.0641 18.3992 38.0131 18.4566 37.8216 18.6034C37.6301 18.7438 37.9173 18.6353 38.0641 18.5587C38.2109 18.4821 38.6258 18.4311 38.8619 18.5396C39.0981 18.6417 39.1683 18.6226 39.3406 18.546C39.5193 18.4758 39.6087 18.4566 39.8704 18.6353C40.1384 18.814 40.3427 18.8459 40.4831 18.8396C40.4831 18.8396 40.1895 18.9544 39.8576 18.9736C39.5257 18.9991 39.3598 19.0566 39.2959 19.1076C39.2959 19.1076 39.4938 19.2353 39.5321 19.3757C39.5321 19.3757 39.7491 19.3502 39.8512 19.3885C39.8512 19.3885 39.8002 19.548 39.9342 19.631C40.0682 19.714 40.1576 19.7459 40.0618 19.8608C39.9597 19.9756 40.215 19.9246 40.0682 20.0841C39.9278 20.2501 39.8895 20.3267 39.8831 20.4607C39.8831 20.5884 39.915 20.6075 39.7874 20.6203C39.6597 20.633 39.8065 20.7798 39.7491 20.9522C39.6917 21.1181 39.3342 21.099 39.347 21.5585C39.347 21.5585 39.4491 21.3351 39.6661 21.1373C39.8768 20.9458 39.8831 20.9266 39.8768 20.8054C39.8768 20.6905 39.864 20.716 39.9789 20.6267C40.0874 20.5373 39.9278 20.4543 40.0427 20.3267C40.1512 20.199 40.0555 20.2246 40.1895 20.0969C40.3171 19.9693 40.0682 19.9565 40.2086 19.8225C40.3363 19.6948 39.8768 19.5352 40.0172 19.4523C40.1448 19.3693 40.3746 19.248 39.6023 19.2608C39.6023 19.2608 39.7874 18.9544 40.4384 19.0183C40.4384 19.0183 40.2725 19.1459 40.2533 19.2608C40.2533 19.2608 40.3299 19.2991 40.381 19.3119C40.381 19.3119 40.3491 19.4012 40.2278 19.5033C40.2278 19.5033 40.5724 19.6948 40.6299 19.8161C40.6299 19.8161 40.4193 19.8799 40.3618 19.9693C40.3618 19.9693 40.4576 20.0778 40.4895 20.2118C40.4895 20.2118 40.2533 20.1863 40.2214 20.3586C40.1895 20.5373 40.1193 20.416 40.1193 20.5182C40.1193 20.6203 40.1257 20.665 40.0427 20.6841C39.9597 20.6969 40.0299 20.7862 40.0427 20.8437C40.0555 20.9011 40.0874 21.0351 40.0746 21.0734C40.0746 21.0734 39.9533 21.0734 39.8959 21.0926C39.8959 21.0926 39.9342 21.3479 39.7938 21.3798C39.6534 21.4181 39.8704 21.4691 39.7172 21.4947C39.5704 21.5202 39.5895 21.533 39.4044 21.8649C39.4044 21.8649 39.564 21.7755 39.7236 21.667C39.8895 21.5585 39.7108 21.5904 39.9789 21.3287C40.2469 21.0607 40.2023 21.0415 40.1767 20.9075C40.1576 20.7735 40.1512 20.665 40.2469 20.5373C40.3491 20.4097 40.3746 20.2629 40.7256 20.282C40.7256 20.282 40.6235 20.0522 40.4959 19.9948C40.4959 19.9948 40.6618 19.8799 40.8341 19.8671C40.8341 19.8671 40.681 19.6757 40.3682 19.5033C40.3682 19.5033 40.6235 19.2799 40.6873 19.1778C40.6873 19.1778 40.5661 19.197 40.4703 19.1778C40.4703 19.1778 40.515 19.0693 40.7512 18.9161C40.7512 18.9161 40.8788 19.0374 40.866 19.1587C40.866 19.1587 41.2681 18.9353 41.4915 18.9608C41.4915 18.9608 41.6064 19.2417 41.0511 19.7842C41.0511 19.7842 41.3958 19.8161 41.5426 19.7969C41.5426 19.7969 41.4596 20.0586 41.0448 20.2118C40.6299 20.3714 41.1341 20.5564 40.7065 20.5245C40.2852 20.4926 40.4129 20.633 40.4256 20.85C40.4384 21.067 40.4512 21.2904 40.4448 21.3479C40.4448 21.3479 40.1065 21.2394 40.1129 21.5649C40.1193 21.8968 39.9342 21.967 39.9023 21.9925C39.9023 21.9925 39.8002 21.9095 39.6534 21.8521C39.6534 21.8521 39.4427 22.2542 39.1045 22.4903Z" fill="#5A3719"/>
<path d="M38.6194 18.3736C38.6194 18.3736 38.7342 18.3545 38.9321 18.4758C39.1236 18.6034 39.3151 18.3481 39.1044 18.2843C38.881 18.2205 39.1044 18.1375 39.2959 18.297C39.5001 18.4566 39.5767 18.3736 39.6469 18.3226C39.7171 18.2651 39.8065 18.2332 39.6725 18.1439C39.5384 18.0481 39.7618 18.0928 39.8639 18.163C39.9661 18.2268 39.9278 18.2907 39.915 18.3098C39.8959 18.329 39.8895 18.546 40.0873 18.3481C40.2852 18.1439 40.3873 17.946 40.3809 17.8503C40.3809 17.8503 40.4894 17.9141 40.5086 18.0417C40.5213 18.1694 40.6745 17.9779 40.7256 17.9077C40.7766 17.8439 40.8596 17.6652 40.8532 17.5375C40.8532 17.5375 40.9809 17.7481 41.1851 17.5375C41.383 17.3333 41.3 17.4609 41.5362 17.3971C41.7787 17.3333 42.0787 17.161 42.2382 16.9631C42.4042 16.7589 42.4169 16.8993 42.6276 16.8482C42.8382 16.7972 43.2658 16.5036 43.3041 16.3376C43.3424 16.1844 43.336 16.0823 43.2786 16.1398C43.2148 16.1908 43.2403 16.1461 43.1509 16.0951C43.0552 16.0313 42.9212 16.1653 42.9212 16.1653C42.9212 16.1653 43.0552 16.2674 42.9531 16.3121C42.851 16.3568 42.7616 16.5036 42.5637 16.4397C42.3723 16.3887 42.168 16.6248 42.168 16.6248C42.168 16.6248 42.3404 16.7589 42.1106 16.8482C41.8872 16.9376 41.9191 16.9631 41.7851 16.8674C41.7851 16.8674 41.5425 17.1737 41.4021 17.2375C41.4021 17.2375 41.3383 17.2375 41.3 17.1737C41.3 17.1737 41.1404 17.3524 41.0639 17.3843C41.0639 17.3843 40.9617 17.295 40.8724 17.2567C40.8724 17.2567 40.6809 17.4992 40.5213 17.5694C40.5213 17.5694 40.4767 17.4801 40.3745 17.4226C40.3745 17.4226 40.3235 17.729 39.9916 17.9077C39.9916 17.9077 40.0107 17.8311 39.8448 17.7162C39.8448 17.7162 39.4299 18.0737 39.2704 18.112C39.1044 18.1439 39.2512 18.0354 39.2704 17.9843C39.2959 17.9396 39.398 17.7928 39.2002 17.729C39.0023 17.6652 39.0342 17.7737 38.9895 17.7928C38.9449 17.812 38.9449 17.7545 38.8045 17.7737C38.6768 17.7928 38.6959 17.8503 38.6385 17.8758C38.5747 17.8949 38.3449 17.8375 38.3577 17.9907C38.3704 18.1439 38.4789 18.2524 38.2747 18.3417C38.0705 18.4311 38.3513 18.4119 38.6194 18.3736Z" fill="#7B3C20"/>
<path d="M39.4555 17.9396C39.4555 17.9396 39.5066 17.7354 39.3342 17.646C39.3342 17.646 40.432 17.4737 39.6023 17.0525C39.6023 17.0525 40.5916 16.8546 40.3554 16.5419C40.1257 16.2227 39.8959 16.2866 39.864 16.2993C39.8321 16.2993 40.0746 16.1142 40.1384 16.1398C40.2022 16.1653 40.9937 16.4653 40.7894 16.2036C40.5916 15.9483 40.6043 15.9611 40.5724 15.8845C40.5724 15.8845 40.8341 15.8845 41.2298 16.2674C41.2298 16.2674 41.3128 16.1844 41.3064 16.0249C41.3064 16.0249 41.5873 16.1078 41.6766 16.1908C41.6766 16.1908 41.7213 16.0951 41.7021 16.0376C41.7021 16.0376 41.9511 16.1653 42.034 16.3057C42.034 16.3057 42.1425 16.21 42.1617 16.0951C42.1617 16.0951 42.4042 16.1972 42.468 16.2738C42.468 16.2738 42.551 16.1653 42.5191 16.0185C42.5191 16.0185 42.9212 16.1334 42.9786 15.8908C42.9786 15.8908 43.3807 15.9738 43.1191 16.1334C42.7808 16.3376 43.0871 16.0823 42.7361 16.3249C42.468 16.5163 42.3149 16.7333 42.1872 16.6887C42.0915 16.6504 41.9766 16.9312 41.8489 16.7972C41.7213 16.6567 41.7213 16.7206 41.6255 16.861C41.5362 17.0014 41.3894 17.1482 41.3894 17.1482C41.3894 17.1482 41.3256 17.1099 41.2617 17.0525C41.2617 17.0525 41.1915 17.1801 41.0894 17.2822C41.0894 17.2822 41.0064 17.1737 40.8788 17.1099C40.8788 17.1099 40.6809 17.3397 40.5597 17.4226C40.5597 17.4226 40.4384 17.3078 40.3171 17.2695C40.3171 17.2695 40.298 17.5822 40.0555 17.7418C40.0555 17.7418 40.0044 17.6396 39.8448 17.5758C39.8448 17.5758 39.7236 17.7673 39.4619 17.9332L39.4555 17.9396Z" fill="#5A3719"/>
<path d="M38.8811 17.4546C38.8811 17.4546 38.747 17.5567 38.83 17.6652C38.9194 17.7801 38.9257 17.646 39.0342 17.6396C39.1428 17.6269 40.4895 17.3971 39.2704 17.0333C39.2704 17.0333 39.3215 16.9822 39.5257 16.9695C39.7427 16.944 40.5086 16.7397 40.1512 16.4653C39.7938 16.1972 39.4938 16.561 39.7938 16.2355C40.0363 15.9738 39.8448 15.8462 39.8448 15.8462C39.8448 15.8462 39.1364 16.3185 38.9768 16.4078C38.8236 16.4908 38.5939 16.6631 38.8619 16.7461C39.13 16.8291 39.3087 16.4589 39.3342 16.5419C39.3598 16.6248 38.7981 16.9376 38.8811 17.078C38.9577 17.2248 38.9449 17.346 39.0789 17.3141C39.2193 17.2886 39.5895 17.3843 39.2895 17.378C38.9832 17.3652 38.8811 17.4546 38.8811 17.4546Z" fill="#5A3719"/>
<path d="M39.3662 16.778C39.3662 16.778 39.2386 16.8674 39.4045 16.8227C39.5705 16.778 39.896 16.7078 39.8385 16.6248C39.7747 16.5355 39.5577 16.6376 39.3662 16.778Z" fill="black"/>
<path d="M41.5298 15.3739C41.5298 15.3739 42.1553 15.3547 42.4106 15.5334C42.6659 15.7057 42.7935 15.8206 42.8701 15.8462C42.8701 15.8462 42.8573 16.0823 42.4553 15.91C42.4553 15.91 42.4808 16.0249 42.4361 16.1398C42.4361 16.1398 42.2893 16.0376 42.117 15.9993C42.117 15.9993 42.0851 16.0887 42.034 16.1398C42.034 16.1398 41.8553 15.961 41.6511 15.9036C41.6511 15.9036 41.6128 15.993 41.5808 16.0313C41.5808 16.0313 41.3638 15.9036 41.1979 15.9036C41.1979 15.9036 41.2298 16.0376 41.1979 16.0951C41.1979 16.0951 40.7511 15.7313 40.3426 15.776C40.3426 15.776 40.5341 16.0632 40.6618 16.2036C40.6618 16.2036 39.8448 16.1398 39.9852 15.6994C40.1129 15.259 39.9725 15.3675 40.5086 15.3739H41.5298Z" fill="#7B3C20"/>
<path d="M37.6939 16.5929C37.6939 16.5929 37.5982 16.6695 37.6939 16.7333C37.7833 16.7971 38.1088 16.5674 38.1535 16.5355C38.1981 16.4972 38.313 16.5035 38.1535 16.6248C37.9939 16.7461 37.8343 16.8801 37.7258 17.0078C37.7258 17.0078 38.2683 16.861 38.6194 16.5546C38.9768 16.2482 38.6066 16.4461 39.2066 16.1589C39.8065 15.8653 40.1256 15.3994 39.8001 15.4504C39.481 15.5015 39.1874 15.8717 38.9321 16.0121C38.6832 16.1525 38.5428 16.1717 38.5811 16.0887C38.6194 16.0057 38.8045 16.0376 39.1555 15.7632C39.5002 15.4823 39.4236 15.5079 39.4236 15.4058C39.4236 15.31 39.2959 15.0675 39.8129 14.793C40.3363 14.5186 41.951 13.5804 42.0915 13.2485C42.0915 13.2485 41.6192 13.2995 40.9937 13.7591C40.6508 14.0459 40.276 14.2922 39.8767 14.4931C39.7044 14.5569 39.7236 14.5122 39.6151 14.6462C39.5002 14.7803 38.8874 15.3738 38.7726 15.4632C38.6641 15.5462 38.6258 15.6036 38.6194 15.7823C38.6194 15.8653 37.9173 16.395 37.7003 16.5929H37.6939Z" fill="#5A3719"/>
<path d="M39.8321 15.3611C39.8321 15.3611 39.7045 15.4121 39.5896 15.3611C39.4747 15.2973 39.513 15.0547 39.7938 14.9015C40.123 14.7209 40.4751 14.5856 40.8406 14.4995C40.8406 14.4995 40.8023 14.8186 39.9981 15.093C39.9981 15.093 40.0491 15.259 39.8321 15.3611Z" fill="#5A3719"/>
<path d="M37.2535 15.9993C37.2535 15.9993 37.062 16.1398 37.1386 16.2036C37.2216 16.2738 37.3556 16.2866 37.6492 16.044C37.9428 15.7951 38.6513 15.1888 38.2045 15.1632C38.2045 15.1632 37.6301 15.1313 37.6492 15.4824C37.6684 15.8334 37.279 15.9802 37.2535 15.9993ZM35.926 15.7951C35.926 15.7951 36.3089 16.0185 36.1621 16.1972C36.1621 16.1972 37.3237 15.2143 36.9918 14.9973C36.6727 14.7867 36.4174 15.1888 36.494 15.2271C36.5706 15.2717 36.7429 15.1951 36.6855 15.2717C36.6216 15.3483 36.0025 15.7632 35.926 15.7951ZM35.626 15.476C35.626 15.476 35.8813 15.5526 35.894 15.6675C35.9004 15.7696 36.6599 15.1313 36.4621 14.8569C36.3663 14.7356 35.9515 14.6845 35.926 14.9271C35.9068 15.1696 36.3089 14.9016 36.1685 15.0739C35.9898 15.3037 35.6834 15.4377 35.626 15.476ZM38.3449 14.9398C38.3449 14.9398 38.1854 15.0547 38.3322 15.1313C38.479 15.1951 38.5683 15.0866 38.6449 15.0228C38.7151 14.959 39.0789 14.6909 39.1555 14.525C39.2449 14.3527 39.3661 14.3016 39.5002 14.2186C39.6278 14.1293 40.5533 13.6697 41.1213 13.1591C41.6894 12.6485 41.4532 12.7826 42.0404 12.4571C42.6276 12.1315 43.0169 11.8316 43.1382 11.4742C43.1382 11.4742 42.8637 11.5635 42.6276 11.7231C42.385 11.8762 41.8425 12.2145 41.734 12.2656C41.6255 12.3103 41.4787 12.3166 41.3958 12.3996C41.3128 12.489 41.3192 12.5911 41.0383 12.8209C40.7511 13.057 39.2895 14.091 39.1108 14.2378C38.9321 14.3846 38.3449 14.9398 38.3449 14.9398Z" fill="#5A3719"/>
<path d="M37.1707 15.2845C37.1707 15.2845 37.3302 15.1951 37.6302 15.2207C37.9302 15.2334 39.1173 14.0846 39.462 13.8548C39.8066 13.6187 40.8853 12.8464 41.0257 12.706C41.1725 12.5592 41.198 12.406 41.3257 12.323C41.4533 12.24 41.5682 12.2528 41.8554 12.0869C42.149 11.9209 43.5468 11.0848 43.4638 10.5997C43.4638 10.5997 41.3831 11.8443 40.9044 12.2528C40.2395 12.7718 39.5539 13.2636 38.8493 13.7272C38.6131 13.8803 38.428 14.1356 38.0259 14.4611C37.6302 14.7803 37.2345 15.0547 37.1707 15.2845Z" fill="#AA5323"/>
<path d="M36.7302 14.8377C36.7302 14.8377 37.1132 14.7994 37.1706 14.9909C37.1706 14.9909 37.994 14.4229 38.1791 14.1931C38.3705 13.9569 38.1152 14.091 38.5875 13.7846C39.3532 13.2738 40.1045 12.7417 40.8406 12.189C41.0639 11.9975 41.4916 11.7358 41.8298 11.5061C42.1681 11.2763 43.4893 10.6253 43.3425 10.0955L42.1553 10.887C41.932 11.0337 41.8362 10.9508 41.6192 11.1231C41.3958 11.3018 40.9044 11.6465 40.8214 11.7614C40.7321 11.8635 39.9853 12.4379 39.6215 12.6804C39.2577 12.923 38.4471 13.3953 38.0514 13.7399C37.6557 14.0782 36.9026 14.7101 36.7302 14.8377Z" fill="#AA5323"/>
<path d="M35.5367 14.7292C35.5367 14.7292 35.7281 14.7292 35.792 14.8058C35.792 14.8058 36.1494 14.4867 36.5323 14.8058C36.5323 14.8058 37.9365 13.8484 38.0769 13.6123C38.2173 13.3761 38.4471 13.3697 38.9896 12.974C39.5385 12.5719 39.8831 12.3996 40.2469 12.1251C40.6107 11.8379 40.9171 11.5188 41.1788 11.3529C41.4341 11.1805 42.0979 10.7465 41.9894 10.3763C41.9894 10.3763 41.4532 10.6763 41.1086 11.0593C40.7575 11.4422 40.7895 11.1167 40.432 11.4358C40.0202 11.8154 39.5637 12.1433 39.0726 12.4124C38.6194 12.6357 38.8939 12.6102 38.562 12.8208C38.2365 13.0315 38.262 12.9996 38.1407 13.0315C38.0131 13.057 37.8344 13.1463 37.7131 13.2868C37.5854 13.4272 37.2663 13.6187 36.9153 13.8229C36.4264 14.0812 35.9627 14.3846 35.5303 14.7292H35.5367Z" fill="#AA5323"/>
<path d="M35.9578 14.0016C35.9578 14.0016 35.8812 13.842 36.0153 13.7272C36.1493 13.6187 36.3982 13.3251 36.4365 13.14C36.4748 12.9485 36.4429 12.9868 36.8322 12.8208C37.9604 12.3472 39.0293 11.7431 40.0171 11.021C40.1703 10.8997 40.5532 10.638 40.7064 10.5104C40.7064 10.5104 40.7766 10.7146 40.6107 10.8614C40.0377 11.309 39.4388 11.7225 38.8172 12.0996C38.6321 12.1954 38.1789 12.4251 38.0194 12.5592C37.8598 12.6932 37.8853 12.7315 37.1705 13.0825C36.4557 13.4272 36.4237 13.4655 36.4429 13.491C36.4684 13.5229 36.7875 13.3825 36.9407 13.2931C37.0939 13.2038 37.6747 12.9357 37.8534 12.7953C38.0258 12.6549 38.3193 12.4379 38.447 12.3677C38.5746 12.3039 39.6278 11.6656 39.9341 11.4422C40.2341 11.2188 40.3171 11.1486 40.3809 11.1869C40.4447 11.2252 40.5532 11.2252 40.4192 11.3529C40.2852 11.4805 39.8575 11.8635 39.6916 11.9656C39.5256 12.0741 39.015 12.3804 38.8746 12.4507C38.7342 12.5272 38.6768 12.6613 38.5938 12.7187C38.5172 12.7825 38.281 12.9421 38.0002 13.0059C37.7194 13.0698 37.6683 13.2868 37.4832 13.408C37.2918 13.5229 35.977 14.2378 35.9387 14.2697C35.9387 14.2697 36.0153 14.1867 35.9578 14.0016Z" fill="#AA5323"/>
<path d="M34.5792 13.5868C34.5792 13.5868 34.1835 13.7974 34.3239 13.9314C34.4643 14.0591 34.6749 14.0208 34.7707 13.9825C34.8536 13.9506 35.0196 13.9059 35.0451 13.8995C35.0706 13.8931 35.4153 13.791 35.5046 13.6314C35.5876 13.4719 35.8238 13.2868 36.0089 13.1527C36.194 13.0251 36.2642 12.8847 36.2323 12.7889C36.2323 12.7889 34.6749 13.5293 34.5792 13.5868ZM32.2177 15.4185C32.2177 15.4185 32.4985 15.2526 32.8814 15.3547C32.8814 15.3547 32.8623 15.2654 32.8048 15.2143C32.8048 15.2143 33.2708 15.093 33.3729 14.8888C33.475 14.6782 33.5005 14.7228 33.5835 14.6654C33.6793 14.6016 34.3047 14.0974 34.2345 13.9889C34.1579 13.8803 34.1452 13.7336 34.0941 13.6825C34.0941 13.6825 33.9665 13.8612 33.3474 14.1548C32.741 14.4548 32.0581 14.6782 31.5603 15.3419C31.0688 16.0121 31.1199 16.3951 31.7262 16.5674C31.7262 16.5674 32.1475 16.2993 33.1878 16.3887C34.2218 16.4844 34.5728 16.8737 34.643 16.9439C34.7068 17.0142 34.9175 17.2695 34.7132 17.7035C34.7132 17.7035 34.9238 17.7928 34.9366 17.595C34.9557 17.3971 34.9685 17.4418 35.0132 17.4673C35.0643 17.4992 35.1217 17.5056 35.0962 17.3524C35.077 17.1992 35.0068 16.861 34.9047 16.7461C34.8153 16.6248 34.9238 16.6823 34.9813 16.7014C35.0451 16.7269 35.2621 16.9057 35.1345 16.5738C35.0068 16.2546 34.9685 16.4142 34.9621 16.427C34.9621 16.4461 34.9366 16.5291 34.6494 16.3121C34.4297 16.1443 34.1809 16.0188 33.9154 15.9419C33.7239 15.8908 33.858 15.8908 33.9728 15.8525C34.0877 15.8079 34.2345 15.7887 34.292 15.6611C34.292 15.6611 34.1771 15.6866 33.9728 15.61C33.8108 15.5632 33.6401 15.5545 33.474 15.5843C33.308 15.6142 33.1511 15.682 33.0155 15.7823C33.0155 15.7823 33.1176 15.3994 32.8112 15.4185C32.5049 15.4377 32.2942 15.4313 31.9687 15.6866C31.9687 15.6866 31.9496 15.2973 32.256 15.093C32.5623 14.8952 32.524 15.0164 32.69 14.9654C32.8623 14.9143 32.8814 14.742 32.8048 14.6845C32.8048 14.6845 33.2069 14.7547 33.8771 14.1995C33.8771 14.1995 33.5133 14.6718 33.0793 14.7675C33.0793 14.7675 33.0091 15.0228 32.607 15.0739C32.2113 15.1313 32.224 15.3611 32.224 15.4185H32.2177Z" fill="#7B3C20"/>
<path d="M31.0754 17.7226C31.0754 17.7226 31.2668 16.5482 32.371 16.4653C33.3284 16.3887 33.6347 16.5099 33.8262 16.5738C34.0177 16.6376 34.49 16.7716 34.3049 16.9248C34.1262 17.0716 34.0177 17.0461 34.0177 17.0461C34.0177 17.0461 34.2283 16.8099 34.0368 16.7716C33.8454 16.7333 33.8326 16.8482 33.8071 16.9439C33.7752 17.0461 33.7688 17.161 33.673 17.2375C33.673 17.2375 33.5773 17.129 33.4369 17.2248C33.2965 17.3205 33.4177 17.3269 33.4752 17.3078C33.5262 17.295 33.6028 17.2631 33.5837 17.3524C33.5709 17.4354 33.4943 17.5822 33.2646 17.7035C33.0412 17.8184 33.0476 17.812 32.7795 17.8566C32.505 17.9013 32.2561 18.0098 31.9115 18.3034C31.5604 18.6034 31.1839 18.5013 31.1073 18.1758C31.0434 17.8886 31.0754 17.729 31.0754 17.729V17.7226Z" fill="#5A3719"/>
<path d="M32.3327 17.6843C32.3327 17.6843 32.4348 17.4545 32.2497 17.346C32.2497 17.346 31.6753 17.4482 31.4966 17.2758C31.4966 17.2758 32.1284 17.2375 32.5178 17.0843C32.9007 16.9376 32.7922 16.829 32.6582 16.8035C32.5242 16.778 32.2752 16.8418 32.2497 16.9631C32.2497 16.9631 32.1731 16.8354 32.2689 16.7461C32.371 16.6567 32.5242 16.644 32.6582 16.6823C32.7986 16.7205 32.9199 16.7844 33.373 16.5482C33.373 16.5482 33.6347 16.612 33.6475 16.7844C33.6475 16.9631 33.6283 17.0333 33.6028 17.0588C33.5837 17.0907 33.5517 17.1418 33.4943 17.1354C33.4432 17.129 33.3667 17.1163 33.3028 17.2375C33.239 17.3652 33.1943 17.4673 33.0794 17.5503C33.0794 17.5503 33.2071 17.1673 32.8752 17.078C32.8752 17.078 32.6008 17.2375 32.3901 17.2503C32.3901 17.2503 32.6582 17.4992 32.3263 17.6843H32.3327Z" fill="black"/>
<path d="M32.939 16.9822C32.939 16.9822 32.8113 16.8482 32.9773 16.8291C33.1432 16.8163 33.3602 16.9376 33.3219 17.0461C33.2772 17.1482 33.0794 17.1418 32.939 16.9822Z" fill="#5A3719"/>
<path d="M33.2261 16.8163C33.2261 16.8163 33.3729 16.861 33.4112 16.9631C33.4495 17.0652 33.5389 16.9184 33.5389 16.8737C33.5325 16.8291 33.4431 16.6184 33.2836 16.7206C33.124 16.8099 33.207 16.8099 33.2261 16.8163Z" fill="#5A3719"/>
<path d="M32.8241 18.8332C32.8241 18.8332 33.1305 18.6864 33.3985 18.7055C33.3985 18.7055 33.29 18.3417 33.4751 18.3991C33.6538 18.463 33.6028 18.4374 33.6411 18.4374C33.6411 18.4374 33.6538 18.1949 33.6028 18.0992C33.6028 18.0992 33.7943 18.1438 33.9793 18.1438C33.9793 18.1438 33.8006 17.7992 33.9985 17.5567C33.9985 17.5567 34.107 17.7864 34.3495 17.8439V17.646C34.3495 17.646 34.4899 17.6269 34.6048 17.6843C34.7197 17.7481 34.8091 17.0524 34.4772 16.9056C34.4772 16.9056 34.3942 17.0333 34.0815 17.0971C33.7687 17.1609 33.7751 17.2248 33.6475 17.4609C33.5198 17.6971 33.4049 17.6971 33.1369 17.8694C32.8816 18.0353 32.722 18.38 32.7092 18.4119C32.7092 18.4119 32.8433 18.5779 32.8241 18.8332Z" fill="#7B3C20"/>
<path d="M30.1624 21.3223C30.1624 21.3223 30.1433 20.8117 30.3986 20.5564C30.6539 20.3011 31.8857 19.0182 32.0772 18.6608C32.0772 18.6608 32.2368 18.7693 32.2431 18.9736C32.2431 18.9736 32.4538 18.6161 32.6133 18.4821C32.6133 18.4821 32.7601 18.6289 32.741 18.9289C32.741 18.9289 33.0346 18.7693 33.4941 18.7693C33.4941 18.7693 33.3218 18.9672 33.3154 19.0885C33.3154 19.0885 33.9536 19.0119 34.2919 19.0693C34.2919 19.0693 33.4111 19.5608 33.6537 19.6054C33.909 19.6501 34.1643 19.6054 34.1643 19.6054C34.1643 19.6054 33.8834 19.8863 33.4367 19.9437C33.4367 19.9437 34.0047 19.9373 34.1196 20.065C34.1196 20.065 33.5643 20.1479 33.1239 20.4862C33.1239 20.4862 33.0792 20.4671 33.0792 20.3394C33.0792 20.3394 33.0601 20.4543 32.9324 20.5628C32.8048 20.6649 32.5048 20.8947 32.3899 21.0096C32.275 21.1181 32.0708 21.3479 31.841 21.3351C31.841 21.3351 31.8921 21.1628 31.7261 21.1053C31.6397 21.0763 31.5467 21.0729 31.4583 21.0955C31.37 21.1182 31.2901 21.1659 31.2283 21.233C31.2283 21.233 30.6347 21.2457 30.4433 21.2713C30.4433 21.2713 30.5773 21.0543 30.6986 21.0606C30.8262 21.0606 31.3241 21.1372 31.3687 20.7926C31.4134 20.4543 31.0496 20.5437 31.1836 20.3458C31.3241 20.1416 31.2921 20.1543 31.2985 20.1288C31.2985 20.1288 31.1836 20.1926 31.1198 20.3713C31.056 20.55 31.0049 20.6905 30.7688 20.8692C30.6044 20.9744 30.4667 21.1164 30.3667 21.284C30.3667 21.284 30.2582 21.2968 30.1624 21.3223Z" fill="white"/>
<path d="M30.7371 21.016C30.7371 21.016 30.7562 20.9522 30.9285 20.9202C31.1072 20.8883 31.12 20.8054 31.0945 20.7671C31.069 20.7352 30.9668 20.7351 31.1328 20.5373C31.1328 20.5373 31.1966 20.5564 31.2349 20.6011C31.2796 20.6522 31.471 21.0607 30.7371 21.016Z" fill="white"/>
<path d="M30.3222 20.6585C30.3286 20.9968 30.769 20.8692 30.769 20.8692C30.6511 20.9537 30.5439 21.0523 30.4498 21.1628C30.4818 20.9968 30.2009 20.9585 30.2009 20.9585C30.2265 20.8564 30.2648 20.7479 30.3222 20.6585ZM31.937 18.8651C32.0008 18.7821 32.0519 18.7119 32.0774 18.6608C32.0774 18.6608 32.2369 18.7693 32.2433 18.9736C32.2433 18.9736 32.4539 18.6161 32.6135 18.4821C32.6135 18.4821 32.7603 18.6289 32.7412 18.9289C32.7412 18.9289 33.0348 18.7693 33.4943 18.7693C33.4943 18.7693 33.322 18.9672 33.3156 19.0885C33.3156 19.0885 33.9538 19.0119 34.2921 19.0693C34.2921 19.0693 33.4113 19.5608 33.6539 19.6054C33.9092 19.6501 34.1645 19.6054 34.1645 19.6054C34.1645 19.6054 33.8836 19.8863 33.4369 19.9437C33.4369 19.9437 34.0049 19.9373 34.1198 20.065C34.1198 20.065 33.9538 20.0905 33.7368 20.1671C33.7368 20.1671 33.5773 20.0139 33.0986 20.0394C33.0986 20.0394 33.4688 19.8288 33.7624 19.7586C33.7624 19.7586 33.6347 19.5927 33.4305 19.7459C33.4305 19.7459 33.0284 19.4714 33.3666 19.2353C33.3666 19.2353 33.1305 19.1906 32.9773 19.2991C32.9773 19.2991 32.9773 19.1076 33.1496 19.0246C33.1496 19.0246 32.7029 18.948 32.5944 19.2799C32.5944 19.2799 32.505 19.1459 32.5497 18.9927C32.5497 18.9927 32.2752 19.1459 32.154 19.3246C32.154 19.3246 32.1093 18.9863 31.937 18.8651ZM31.0689 20.9968C30.9924 21.016 30.8775 21.0224 30.7371 21.016C30.7371 21.016 30.7498 20.9713 30.8456 20.9394C30.8456 20.9394 30.8711 20.9968 31.0689 20.9968Z" fill="#999999"/>
<path d="M31.8857 19.7267C31.8857 19.7267 32.09 19.8863 32.1602 19.982C32.1602 19.982 32.3517 19.8544 32.4155 19.7459C32.4155 19.7459 32.5623 19.8416 32.607 19.982C32.607 19.982 32.7155 19.9182 32.7346 19.8161C32.7346 19.8161 32.9899 19.8671 33.0793 19.9501C33.0793 19.9501 33.1176 19.7076 33.0793 19.548C33.0793 19.548 33.258 19.5671 33.3665 19.6118C33.3665 19.6118 33.2644 19.4459 33.7813 19.2353C33.7813 19.2353 33.392 19.3246 33.2388 19.4906C33.2388 19.4906 33.0729 19.5033 33.0027 19.4523V19.8224C33.0027 19.8224 32.9006 19.7778 32.7091 19.7331C32.7091 19.7331 32.658 19.8161 32.6261 19.8352C32.6261 19.8352 32.4985 19.7331 32.4474 19.6118C32.4474 19.6118 32.2559 19.7842 32.1921 19.8544C32.1921 19.8544 32.007 19.7267 31.8857 19.7267Z" fill="black"/>
<path d="M30.7114 22.2733C30.7114 22.2733 30.7944 22.3116 30.9859 22.1584C31.1773 22.0053 31.7071 21.667 31.7518 21.3925C31.8092 21.1181 31.5858 21.1053 31.4135 21.1819C31.2348 21.2649 31.3114 21.4117 31.3178 21.4628C31.3241 21.5138 31.3305 21.7053 31.0433 21.967L30.7114 22.2733Z" fill="#FFC221"/>
<path d="M30.654 22.3563C30.654 22.3563 30.2264 22.1776 30.6094 21.9861C30.9923 21.7946 31.1646 21.7436 31.2093 21.5776C31.254 21.4181 31.2285 21.45 31.0817 21.5138C30.9413 21.5776 30.3987 21.8329 30.3158 21.5968C30.3158 21.5968 30.5392 21.6861 30.82 21.5521C31.1008 21.4117 31.3306 21.3734 31.1519 21.3159C30.9732 21.2585 30.3285 21.3287 30.2264 21.3606C30.1179 21.3925 30.1434 21.3862 30.1243 21.4883C30.1051 21.5968 29.9903 21.8202 29.9456 21.884C29.9009 21.9478 29.7924 22.2223 29.9903 22.3435C30.1817 22.4648 30.5009 22.452 30.654 22.3563Z" fill="#FFC221"/>
<path d="M30.4882 21.4245C30.4882 21.4245 30.3861 21.4372 30.4052 21.4755C30.4244 21.5138 30.4499 21.5074 30.4882 21.5074C30.5201 21.5074 30.5776 21.4883 30.5839 21.4692C30.5903 21.4436 30.5201 21.4117 30.4882 21.4245Z" fill="black"/>
<path d="M30.6222 22.2606C30.6222 22.2606 30.4243 22.1648 30.6541 22.0436C30.8838 21.9159 31.1264 21.7947 31.1647 21.7436C31.1647 21.7436 31.0498 21.8968 30.6285 22.2606H30.6222Z" fill="white"/>
</g>
</g>
<defs>
<clipPath id="clip0_769_7014">
<path d="M0 20C0 8.95431 8.95431 0 20 0C31.0457 0 40 8.95431 40 20C40 31.0457 31.0457 40 20 40C8.95431 40 0 31.0457 0 20Z" fill="white"/>
</clipPath>
<clipPath id="clip1_769_7014">
<rect width="53.3333" height="40" fill="white" transform="translate(-7)"/>
</clipPath>
</defs>
</svg>
