<svg width="40" height="40" viewBox="0 0 40 40" fill="none" xmlns="http://www.w3.org/2000/svg">
<g clip-path="url(#clip0_769_5841)">
<path d="M0 20C0 8.95431 8.95431 0 20 0C31.0457 0 40 8.95431 40 20C40 31.0457 31.0457 40 20 40C8.95431 40 0 31.0457 0 20Z" fill="#E94E0F"/>
<g clip-path="url(#clip1_769_5841)">
<path d="M-7 0H46.3333V40H-7V0Z" fill="#D0103A"/>
<path d="M-7 0H29.2667V40H-7V0Z" fill="#FEDF00"/>
<path d="M-7 0H10.0667V40H-7V0Z" fill="#0018A8"/>
<path d="M18.0334 11.3834C18.6751 11.3834 18.9418 11.9334 19.5834 11.9334C19.9751 11.9334 20.2084 11.8084 20.5584 11.6084C20.8001 11.475 20.9501 11.4 21.2251 11.4C21.5084 11.4 21.6834 11.4834 21.8334 11.7334C21.9168 11.8667 21.9834 12.1417 21.9418 12.2917C21.8922 12.5298 21.8168 12.7617 21.7168 12.9834C21.6584 13.1167 21.6084 13.1917 21.6084 13.3334C21.6084 13.675 22.0751 13.7917 22.3918 13.8C22.4584 13.8 23.0334 13.8 23.3918 13.45C23.2001 13.4417 22.9834 13.2834 22.9834 13.0917C22.9834 12.875 23.1334 12.7334 23.3418 12.6667C23.3834 12.6584 23.4501 12.6917 23.4834 12.6667C23.5418 12.6417 23.5168 12.5834 23.5668 12.55C23.6668 12.4667 23.7334 12.4167 23.8668 12.4167C23.9501 12.4167 24.0001 12.425 24.0751 12.475C24.1084 12.5084 24.1251 12.5417 24.1584 12.5417C24.2584 12.5417 24.3084 12.475 24.4084 12.475C24.4754 12.476 24.5412 12.4932 24.6001 12.525C24.6501 12.55 24.6501 12.65 24.7168 12.65C24.7501 12.65 24.9168 12.575 25.0084 12.575C25.1918 12.575 25.2918 12.6417 25.4084 12.7834C25.4418 12.825 25.4584 12.9 25.4918 12.9C25.5735 12.907 25.6524 12.9332 25.722 12.9767C25.7915 13.0202 25.8497 13.0796 25.8918 13.15C25.9168 13.1834 25.9501 13.2667 25.9834 13.275C26.0334 13.3 26.0668 13.2917 26.1251 13.3334C26.1934 13.3763 26.2502 13.4351 26.2909 13.5047C26.3315 13.5744 26.3547 13.6528 26.3584 13.7334C26.3584 13.7917 26.3334 13.8667 26.3168 13.9167C26.1668 14.4584 25.7918 14.6334 25.4168 15.1084C25.2501 15.3084 25.1251 15.4667 25.1251 15.725C25.1251 15.7834 25.2084 15.9 25.2334 15.95C25.2168 15.8334 25.2751 15.6834 25.4001 15.675C25.483 15.6746 25.5631 15.7051 25.6248 15.7606C25.6864 15.8161 25.7251 15.8925 25.7334 15.975C25.7354 16.0262 25.7269 16.0773 25.7084 16.125C25.8095 16.0618 25.9234 16.0219 26.0418 16.0084H26.2001C26.4751 16.0084 26.7834 16.1667 26.9751 16.325C27.1757 16.4973 27.3346 16.7127 27.44 16.9552C27.5453 17.1977 27.5944 17.4609 27.5834 17.725C27.5168 18.1584 27.5584 18.9584 26.4334 19.275C26.6418 19.3584 26.7834 19.525 26.7834 19.7084C26.7857 19.7583 26.7779 19.8082 26.7606 19.8551C26.7433 19.902 26.7167 19.9449 26.6826 19.9814C26.6484 20.0179 26.6073 20.0472 26.5617 20.0676C26.516 20.0879 26.4667 20.099 26.4168 20.1C26.3625 20.1034 26.3083 20.0947 26.2578 20.0745C26.2074 20.0543 26.162 20.0232 26.1251 19.9834C25.8918 20.2167 25.8501 20.4584 25.8501 20.7917C25.8501 20.9917 25.8834 21.1084 25.9668 21.2917C26.0501 21.475 26.1168 21.5834 26.2751 21.7167C26.3584 21.5917 26.4501 21.5 26.6084 21.5C26.7501 21.5 26.8751 21.55 26.9334 21.6834C26.9501 21.725 26.9334 21.7584 26.9584 21.8C26.9834 21.85 27.0251 21.8584 27.0501 21.9084C27.0918 21.9917 27.0501 22.0584 27.0918 22.1334C27.1168 22.1917 27.1668 22.2 27.1918 22.25C27.2251 22.3334 27.2334 22.3834 27.2334 22.475C27.2334 22.725 27.0084 22.9084 26.7584 22.9084C26.6751 22.9084 26.6418 22.875 26.5668 22.8834C26.7084 23.025 26.8168 23.0917 26.9251 23.2584C27.0952 23.5117 27.1826 23.8116 27.1751 24.1167C27.1818 24.443 27.1012 24.7652 26.9418 25.05C26.8174 25.3361 26.6153 25.5815 26.3584 25.7584C25.9654 26.0445 25.5071 26.2278 25.0251 26.2917C24.7229 26.3533 24.4165 26.3923 24.1084 26.4084L22.9334 26.475C22.3334 26.5084 21.9168 26.6 21.4918 27.025C21.6918 27.1667 21.8251 27.3167 21.8251 27.5584C21.8251 27.8084 21.6751 28 21.4334 28.075C21.3751 28.0917 21.3334 28.075 21.2751 28.1084C21.2168 28.1417 21.2168 28.2167 21.1584 28.25C21.0647 28.3114 20.9536 28.3407 20.8418 28.3334C20.743 28.3404 20.6439 28.3254 20.5516 28.2894C20.4593 28.2533 20.3763 28.1972 20.3084 28.125C20.1251 28.275 20.0584 28.4084 19.8501 28.5334C19.7834 28.5667 19.7501 28.6167 19.6751 28.6167C19.5501 28.6167 19.4918 28.5334 19.3918 28.4667C19.2556 28.3719 19.1324 28.2599 19.0251 28.1334C18.8334 28.2417 18.7251 28.3334 18.5001 28.3334C18.3831 28.3397 18.267 28.3106 18.1668 28.25C18.1168 28.2084 18.1001 28.15 18.0418 28.1167C17.9834 28.075 17.9334 28.0917 17.8668 28.0584C17.6168 27.95 17.4501 27.7667 17.4501 27.4917C17.4501 27.25 17.6001 27.1 17.8168 26.9917C17.4001 26.575 16.9834 26.5084 16.4001 26.475L15.2334 26.4084C14.8668 26.3834 14.6668 26.35 14.3168 26.2917C14.0418 26.25 13.8834 26.2334 13.6334 26.1167C12.7834 25.7167 12.2334 25.175 12.1334 24.2417C12.1168 24.1584 12.1168 24.1167 12.1168 24.0334C12.1168 23.55 12.3084 23.25 12.6501 22.9084C12.5668 22.8834 12.5084 22.9084 12.4168 22.8834C12.2084 22.8 12.0501 22.6584 12.0501 22.425C12.0501 22.3417 12.0501 22.2834 12.0918 22.2084C12.1251 22.1584 12.1751 22.15 12.1918 22.0917C12.2084 22.0084 12.1918 21.9584 12.2251 21.8834C12.2501 21.8417 12.2918 21.8334 12.3084 21.7834C12.3918 21.625 12.4751 21.5 12.6501 21.5C12.8001 21.5 12.9001 21.5834 12.9668 21.7084C13.1168 21.6417 13.1501 21.5334 13.2334 21.4C13.3344 21.2357 13.3973 21.0509 13.4175 20.8591C13.4376 20.6673 13.4146 20.4734 13.3501 20.2917C13.3168 20.1667 13.3001 20.0834 13.2001 19.9834C13.1168 20.0667 13.0334 20.1 12.9168 20.1C12.6751 20.1 12.5001 19.8917 12.5001 19.6584C12.4976 19.5766 12.5202 19.496 12.5649 19.4274C12.6096 19.3589 12.6742 19.3057 12.7501 19.275C12.6168 19.1584 12.5001 19.15 12.3584 19.0584C12.1418 18.925 12.0668 18.775 11.9251 18.5584C11.8251 18.425 11.8001 18.325 11.7584 18.1667C11.6856 17.9582 11.6573 17.7368 11.6751 17.5167C11.7251 17.1 11.8001 16.85 12.0584 16.525C12.2084 16.3334 12.3084 16.2167 12.5418 16.1167C12.7334 16.0334 12.8501 15.975 13.0584 15.975L13.2251 15.9834C13.3067 15.9887 13.3863 16.0115 13.4584 16.05C13.4918 16.0667 13.5501 16.125 13.5501 16.0834C13.5501 16.0417 13.5251 16.0167 13.5251 15.975C13.5251 15.8084 13.6501 15.6417 13.8251 15.6417C13.9501 15.6417 14.0001 15.7584 14.0668 15.8667C14.1001 15.8 14.1251 15.75 14.1251 15.675C14.1251 15.3917 13.9668 15.2417 13.7918 15.0167C13.4001 14.5334 12.9168 14.3084 12.9168 13.6834C12.9168 13.5 13.0001 13.375 13.1668 13.275C13.2084 13.25 13.2751 13.275 13.3168 13.25C13.3584 13.225 13.3501 13.1667 13.3751 13.1334C13.4168 13.075 13.4584 13.05 13.5084 13C13.5918 12.9167 13.6751 12.95 13.7668 12.875C13.8168 12.8417 13.8334 12.7917 13.8668 12.7584C13.9751 12.625 14.0751 12.5584 14.2501 12.5584C14.3334 12.5584 14.3834 12.5584 14.4584 12.5917L14.5418 12.6334C14.5668 12.6167 14.6084 12.5667 14.6668 12.5417C14.7217 12.5076 14.7854 12.4902 14.8501 12.4917C14.9418 12.4917 15.0001 12.5417 15.1001 12.5417C15.1251 12.5417 15.1334 12.5084 15.1668 12.4917C15.2501 12.4334 15.2918 12.4084 15.3918 12.4084C15.4918 12.4084 15.5418 12.4334 15.6251 12.4917C15.7084 12.5334 15.7084 12.6 15.7918 12.6417C15.8334 12.6667 15.8751 12.6584 15.9168 12.675C16.1334 12.75 16.2918 12.8917 16.2918 13.1167C16.2918 13.2417 16.2668 13.325 16.1751 13.4084C16.1001 13.4667 16.0334 13.4584 15.9418 13.4917C16.2069 13.7056 16.5438 13.81 16.8834 13.7834C17.2334 13.7834 17.6584 13.6417 17.6584 13.2917C17.6584 13.125 17.5751 13.0417 17.5084 12.8917C17.3952 12.6726 17.3352 12.43 17.3334 12.1834C17.3334 11.95 17.3584 11.8084 17.4918 11.625C17.6251 11.4334 17.7918 11.3834 18.0334 11.3834Z" fill="#C7B37F"/>
<path d="M15.7 13.25C15.7143 13.2972 15.74 13.3401 15.7749 13.375C15.8098 13.4099 15.8527 13.4357 15.9 13.45C15.9666 13.475 16.125 13.4667 16.2166 13.3333C16.3 13.2333 16.3 13.1 16.2666 13C16.239 12.926 16.1896 12.8621 16.125 12.8167L15.7 13.25Z" stroke="#703D29" stroke-width="0.0583333" stroke-linejoin="round"/>
<path d="M26.4167 19.675C26.3167 19.4333 26.0584 19.5417 26.05 19.675C26.0084 19.9833 26.275 20.075 26.4667 20.025C26.511 20.0131 26.5524 19.9921 26.5883 19.9634C26.6241 19.9347 26.6537 19.899 26.675 19.8583C26.725 19.775 26.7417 19.6583 26.7084 19.55C26.6945 19.5018 26.6719 19.4566 26.6417 19.4167C26.6118 19.3772 26.5751 19.3433 26.5334 19.3167C26.4584 19.2667 26.375 19.2667 26.25 19.2667C25.7917 19.2667 25.3834 19.8083 25.25 20.3833C25.2 20.5667 25.1417 20.9917 25.225 21.3833C25.2943 21.7382 25.4651 22.0653 25.7167 22.325C25.9518 22.5462 26.2338 22.7115 26.5417 22.8083C26.6502 22.8397 26.765 22.8425 26.875 22.8167C27.1417 22.7583 27.2667 22.5 27.125 22.2333C27.0167 22.025 26.6834 21.9 26.525 22.1833C26.5167 22.2083 26.4917 22.2583 26.4917 22.3083C26.4917 22.3833 26.525 22.475 26.575 22.5083C26.7 22.5833 26.8917 22.5583 26.8834 22.3417" stroke="#703D29" stroke-width="0.0583333" stroke-linecap="round"/>
<path d="M24.9832 22.8333C25.1257 22.6704 25.3199 22.5615 25.5332 22.525C25.7832 22.4917 25.9999 22.5667 26.2165 22.6917C26.4874 22.8156 26.7165 23.0154 26.8762 23.2668C27.0359 23.5182 27.1194 23.8105 27.1165 24.1083C27.1165 24.4083 27.0332 24.7333 26.9499 24.8917C26.8832 25.0333 26.6999 25.6417 25.6749 26.0583C25.0832 26.3083 24.1749 26.3583 23.5332 26.3917C22.6665 26.4167 21.8665 26.45 21.4082 27.025" stroke="#703D29" stroke-width="0.0666667"/>
<path d="M20.5416 13.5583C20.6083 13.675 20.6499 13.75 20.6083 13.8833C20.5583 14.025 20.4583 14.1166 20.3083 14.1166C19.9749 14.1166 19.7833 13.7166 19.9333 13.4666C20.1999 13.025 20.7083 13.275 21.1833 13.4916C21.1583 13.3833 21.1166 13.3416 21.1249 13.2C21.1333 12.85 21.3916 12.7 21.4999 12.3666C21.5583 12.175 21.5833 12.0083 21.4416 11.8666C21.3166 11.7583 21.1749 11.7583 21.0166 11.8166C20.6999 11.9416 20.3083 12.3083 19.6333 12.3166C18.9499 12.3083 18.5666 11.9416 18.2416 11.8166C18.0749 11.7583 17.9416 11.7583 17.8166 11.875C17.6749 12.0083 17.6999 12.175 17.7583 12.375C17.8666 12.6916 18.1249 12.85 18.1333 13.2083C18.1333 13.3416 18.0999 13.375 18.0749 13.4916C18.5499 13.275 19.0749 13 19.3249 13.4666C19.4666 13.7333 19.2833 14.1083 18.9499 14.1083C18.7999 14.1083 18.6999 14.025 18.6499 13.8833C18.6166 13.7583 18.6499 13.65 18.7166 13.55M25.1999 23.8083C25.1749 23.725 25.1999 23.6333 25.2666 23.5333C25.3666 23.4 25.5749 23.3583 25.7666 23.45C25.8491 23.4945 25.9203 23.5572 25.9749 23.6333L26.0666 23.7666C26.1249 23.8583 26.1499 23.9333 26.1499 23.975C26.3583 24.5583 26.0333 25.1833 25.6083 25.4416C25.2749 25.6416 24.8833 25.725 24.4083 25.775C24.1999 25.8083 24.0749 25.8 23.8666 25.8166H23.0666C22.8667 25.8064 22.6665 25.8064 22.4666 25.8166C22.2249 25.8416 22.0499 25.85 21.8333 25.8833C21.6999 25.9 21.5499 25.925 21.3833 25.9666C21.3333 25.9666 21.2833 25.9833 21.2333 26L21.1333 26.025C20.8333 26.1166 20.5499 26.225 20.3166 26.375C20.2499 26.4166 20.1666 26.4583 20.1083 26.5166L19.9999 26.6166C19.8333 26.7833 19.6749 26.95 19.6333 27.175V27.3083C19.6333 27.4583 19.7499 27.6666 20.0833 27.725L25.1999 23.8083Z" stroke="#703D29" stroke-width="0.0583333"/>
<path d="M19.3833 13.8C19.375 13.925 19.325 14.0083 19.1917 14.0583M19.2167 13.325C19.2852 13.3692 19.3402 13.4316 19.3755 13.5051C19.4108 13.5786 19.4251 13.6605 19.4167 13.7417C19.4 13.95 19.35 14 19.1833 14.1167L19.2167 13.325Z" stroke="#703D29" stroke-width="0.0583333" stroke-linecap="round"/>
<path d="M16.0582 12.775L16.1165 12.8167L16.1832 12.8834L16.2249 12.9667L16.2415 13.0334V13.1917L16.2249 13.2584L16.1832 13.3084L16.1332 13.3584L16.0582 13.4L15.9749 13.4167L15.8915 13.4334L15.8082 13.3917L15.7332 13.3417L15.6915 13.275L15.6582 13.1917V13.1584L16.0582 12.775Z" fill="#C7B37F"/>
<path d="M15.9333 13.1C15.9083 12.9584 15.75 12.9334 15.6833 13.0167C15.5917 13.1417 15.6583 13.35 15.85 13.4084C15.9097 13.4204 15.9715 13.4159 16.0288 13.3954C16.0861 13.3748 16.1367 13.339 16.175 13.2917C16.2583 13.1834 16.25 13.0584 16.2167 12.9584C16.19 12.8838 16.1404 12.8196 16.075 12.775C15.85 12.6084 15.4833 12.6417 15.3583 12.9417C15.2083 13.3084 15.5417 13.5917 15.8583 13.8C16.2417 14.0667 16.6917 14.1167 17.025 14.1167C17.7917 14.1084 18.375 13.7417 18.75 13.5334C18.8333 13.4834 18.925 13.4917 18.975 13.55C18.9999 13.5838 19.0112 13.6257 19.0066 13.6674C19.0019 13.7091 18.9817 13.7476 18.95 13.775" stroke="#703D29" stroke-width="0.0583333" stroke-linecap="round"/>
<path d="M14.65 23.45L14.6417 23.6L14.6166 23.7L14.5333 23.8833L14.425 24.0333L14.3 24.1333L14.2083 24.175L14.075 24.2083M13.6667 23.4333L13.5 23.4917L13.3333 23.625L13.25 23.7333L13.1583 23.9L13.1166 24.025L13.0833 24.175L13.0667 24.2917L13.6667 23.4333Z" stroke="#703D29" stroke-width="0.0583333"/>
<path d="M19.6416 27.425C19.6166 27.5667 19.4832 27.725 19.1999 27.775L19.1499 27.7917" stroke="#703D29" stroke-width="0.0666667"/>
<path d="M26.6833 23.0167C26.8342 23.1621 26.9535 23.337 27.0338 23.5306C27.1141 23.7241 27.1536 23.9321 27.1499 24.1417C27.1499 24.4417 27.0666 24.7667 26.9833 24.925C26.9166 25.0667 26.7333 25.675 25.7083 26.0917C25.0184 26.3111 24.2989 26.4236 23.5749 26.425C22.7166 26.45 21.9249 26.4833 21.4583 27.0333" stroke="#703D29" stroke-width="0.075"/>
<path d="M25.2917 23.575C25.3584 23.4917 25.5834 23.375 25.7751 23.4834C25.8518 23.5221 25.9177 23.5794 25.9667 23.65" stroke="#703D29" stroke-width="0.05"/>
<path d="M26.4668 22.8167L26.5835 22.8583C26.6922 22.8908 26.8081 22.8908 26.9168 22.8583C27.1501 22.7917 27.3001 22.575 27.1835 22.2833C27.1478 22.2141 27.0964 22.1542 27.0335 22.1083" stroke="#703D29" stroke-width="0.075"/>
<path d="M16.2415 13.1667C16.2415 13.3167 16.1415 13.4 15.9915 13.4334M13.0249 16.65C12.8582 16.7417 12.7499 16.7667 12.6249 16.9084C12.5284 17.087 12.4555 17.2775 12.4082 17.475L13.0249 16.65Z" stroke="#703D29" stroke-width="0.0583333" stroke-linecap="round"/>
<path d="M26.0918 16C26.3026 16.0043 26.5105 16.0506 26.7032 16.1363C26.8959 16.2219 27.0695 16.3452 27.2139 16.4989C27.3583 16.6526 27.4705 16.8336 27.544 17.0313C27.6175 17.229 27.6507 17.4393 27.6418 17.65C27.6418 18.9833 26.8168 19.1917 26.4918 19.2833" stroke="#703D29" stroke-width="0.05"/>
<path d="M26.2 16C26.875 15.975 27.575 16.475 27.6083 17.725C27.6333 18.7 26.9416 19.1416 26.6083 19.225" stroke="#703D29" stroke-width="0.0583333"/>
<path d="M14.0332 15.875V15.9583M25.8166 20.7L25.8249 20.5667L25.8749 20.3584L25.9332 20.1917L26.0082 20.0583L26.0916 19.95L25.8166 20.7ZM26.7416 19.6667V19.7917L26.6999 19.875L26.6416 19.9667L26.5749 20.0167L26.4749 20.0583H26.3832L26.3166 20.05L26.7416 19.6667ZM25.1249 15.65L25.1499 15.5084L25.2166 15.375L25.2999 15.25L25.4332 15.0667L25.5499 14.95L25.7166 14.7667L25.8832 14.6084L25.9749 14.5L26.0999 14.3417L26.2166 14.175L26.2832 14.0333L26.3249 13.85L26.3332 13.625L26.3166 13.5583L25.1249 15.65ZM25.2916 24.2417L25.4249 24.2084L25.5249 24.1583L25.5832 24.1L25.6249 24.0333L25.6499 23.9334V23.8583L25.2916 24.2417ZM12.4666 22.85H12.6916L12.8249 22.8L12.4666 22.85ZM13.2416 19.7584L13.2249 19.875L13.1916 19.925L13.1582 19.975L13.0999 20.0167L13.0416 20.0417L12.9582 20.05H12.9082L13.2416 19.7584ZM13.7332 18.7584L13.7082 18.9333L13.6666 19.0167L13.5999 19.1167L13.4999 19.1917L13.3999 19.2417L13.2082 19.2833L13.7332 18.7584ZM14.4832 15.975L14.4416 16.0833L14.3999 16.1667L14.3332 16.25L14.2499 16.3333L14.1499 16.375L14.0582 16.4L14.0082 16.3917L14.4832 15.975Z" stroke="#703D29" stroke-width="0.05"/>
<path d="M26.5583 22.5167L26.5999 22.5334C26.7166 22.6 26.9499 22.5167 26.8833 22.3334M14.1916 18.6667C14.1409 18.716 14.0816 18.7556 14.0166 18.7834L14.1916 18.6667Z" stroke="#703D29" stroke-width="0.05" stroke-linecap="round"/>
<path d="M20.2833 28.0583C20.1263 28.286 19.9061 28.4627 19.6499 28.5667C19.3954 28.4598 19.176 28.2837 19.0166 28.0583M26.1499 19.9667C26.2333 20.075 26.3916 20.1083 26.5166 20.075C26.5609 20.0631 26.6023 20.0421 26.6382 20.0134C26.674 19.9848 26.7036 19.949 26.7249 19.9083C26.7749 19.825 26.7916 19.7083 26.7583 19.6C26.7419 19.5512 26.7164 19.506 26.6833 19.4667C26.6535 19.4199 26.617 19.3778 26.5749 19.3417L26.5416 19.325L26.1499 19.9667ZM27.0749 22.1583C27.0794 22.1392 27.0822 22.1197 27.0833 22.1C27.0838 22.0531 27.0745 22.0065 27.0558 21.9634C27.0371 21.9204 27.0096 21.8817 26.9749 21.85L26.9083 21.7833L27.0749 22.1583ZM26.9416 21.825C26.9416 21.675 26.8166 21.5583 26.6583 21.5333L26.9416 21.825ZM26.3083 21.7667L26.1999 21.6833C25.9717 21.4423 25.8436 21.1236 25.8416 20.7917C25.8416 20.4417 25.9749 20.0917 26.1416 19.9583L26.3083 21.7667ZM21.4333 27L21.5833 26.8667L21.6833 26.7833L21.8749 26.6667L22.0583 26.5833L22.1916 26.5417L22.4416 26.4917L22.7416 26.4417L21.4333 27Z" stroke="#703D29" stroke-width="0.05"/>
<path d="M19.1999 27.7167C19.1678 27.8464 19.1049 27.9664 19.0166 28.0667" stroke="#703D29" stroke-width="0.05" stroke-linecap="round"/>
<path d="M20.25 28.0333C20.1416 28.2 19.8916 28.45 19.6166 28.55C19.3611 28.4409 19.1415 28.2618 18.9833 28.0333M19.225 27.5417L19.1916 27.725L19.225 27.5417ZM19 28.0833L18.9166 28.1667L18.775 28.2417L18.6083 28.2917L19 28.0833ZM18.1417 13.475C18.1667 13.4083 18.1833 13.3583 18.1833 13.2583C18.175 12.9083 17.9167 12.75 17.8083 12.425C17.75 12.2333 17.725 12.0667 17.8666 11.925C17.9833 11.8083 18.1333 11.8083 18.2833 11.875C18.6166 12 19 12.3583 19.675 12.375C19 12.3583 18.6083 12 18.2916 11.875C18.125 11.8083 17.975 11.7917 17.85 11.9167C17.7083 12.05 17.75 12.2333 17.8083 12.425C17.9167 12.75 18.1583 12.9083 18.1666 13.2583C18.1666 13.3583 18.1416 13.4083 18.125 13.475H18.1417ZM19.6666 12.3333C20.3333 12.3 20.9083 11.85 21.0916 11.8083C21.2583 11.775 21.3416 11.7917 21.4666 11.9C21.35 11.7917 21.2166 11.8 21.05 11.8583C20.7333 11.9833 20.35 12.3417 19.6666 12.3583V12.3333ZM26.3 21.7667C26.1396 21.6464 26.0094 21.4904 25.9197 21.311C25.83 21.1316 25.7833 20.9339 25.7833 20.7333C25.7833 20.3917 25.925 20.0333 26.0833 19.9L26.3 21.7667Z" stroke="#703D29" stroke-width="0.05"/>
<path d="M18.5583 13.6417L18.75 13.5333C18.8333 13.4833 18.9417 13.4917 18.9917 13.55C19.0417 13.6083 19.05 13.7167 18.975 13.7833" stroke="#703D29" stroke-width="0.05" stroke-linecap="round"/>
<path d="M14.2666 16.2583C14.3381 16.3148 14.3957 16.3871 14.4347 16.4695C14.4737 16.5519 14.4932 16.6422 14.4916 16.7333C14.4916 16.9917 14.2749 17.4167 13.7416 17.5667C13.5646 17.6149 13.3758 17.5909 13.2166 17.5M17.5582 14.1083C18.0166 14.0083 18.3916 13.8083 18.6749 13.65L17.5582 14.1083ZM21.3582 27.3333C21.3999 27.3583 21.4249 27.4167 21.4249 27.4167C21.4332 27.4333 21.4499 27.4583 21.4499 27.4833C21.4749 27.6083 21.3916 27.6833 21.2832 27.7C21.1416 27.7167 21.0332 27.6333 20.9916 27.5333L21.3582 27.3333ZM17.5332 14.0833C17.9916 13.9917 18.3666 13.7833 18.6499 13.625L17.5332 14.0833ZM26.7832 22.5333C26.6999 22.5667 26.6499 22.5583 26.5332 22.5167L26.3832 22.4333C26.0792 22.2601 25.8351 21.9985 25.6832 21.6833C25.6195 21.5623 25.5718 21.4334 25.5416 21.3C25.5149 21.2107 25.5009 21.1182 25.4999 21.025C25.4908 20.5691 25.6281 20.1222 25.8916 19.75C25.9832 19.6167 26.0666 19.5417 26.2416 19.5333L26.7832 22.5333Z" stroke="#703D29" stroke-width="0.05"/>
<path d="M14.3582 17.1334C14.4499 17.2 14.4915 17.275 14.4915 17.4084C14.4915 17.4917 14.4332 17.6084 14.3332 17.7167C14.2395 17.8185 14.1263 17.9005 14.0004 17.9578C13.8744 18.015 13.7382 18.0464 13.5999 18.05C13.4332 18.05 13.2665 18.0167 13.0999 17.9084C12.9411 17.8039 12.8279 17.6431 12.7832 17.4584" stroke="#703D29" stroke-width="0.05"/>
<path d="M14.4833 16.0583C14.46 16.1321 14.4212 16.2 14.3695 16.2575C14.3177 16.315 14.2542 16.3607 14.1833 16.3917C14.025 16.4583 13.85 16.3917 13.75 16.325M14.35 17.6917C14.4583 17.7917 14.4917 17.9167 14.4917 18.075C14.4917 18.3 14.4 18.475 14.1833 18.6583C14.1333 18.7083 14.0833 18.7417 14.0167 18.7833L14.35 17.6917ZM24.8083 16.9417V17.2333V16.9417ZM24.7833 16.8667V17.2833V16.8667ZM24.8083 15.9667V16.5167V15.9667ZM24.7833 15.85V16.5917V15.85ZM24.625 23.425C24.5387 23.6012 24.42 23.7595 24.275 23.8917C24.136 24.034 23.9722 24.1498 23.7917 24.2333C23.6179 24.3202 23.4328 24.3819 23.2417 24.4167C23.0559 24.4613 22.866 24.4864 22.675 24.4917C22.4667 24.4917 22.35 24.4917 22.1417 24.475C21.925 24.4583 21.8083 24.425 21.5833 24.4083C21.4 24.3917 21.3 24.375 21.1167 24.3833C20.8042 24.3721 20.4926 24.423 20.2 24.5333C19.9833 24.6167 19.725 24.7833 19.675 24.85C19.5165 24.7149 19.3361 24.6078 19.1417 24.5333C19.0052 24.4775 18.8625 24.4383 18.7167 24.4167C18.525 24.3833 18.425 24.3833 18.2333 24.3833C18.05 24.3833 17.95 24.3917 17.7667 24.4083C17.55 24.4333 17.4333 24.4583 17.2083 24.475C17 24.4917 16.8833 24.5 16.675 24.4917C16.2894 24.4875 15.9089 24.4024 15.5583 24.2417C15.3548 24.1466 15.1732 24.0104 15.025 23.8417L24.625 23.425ZM18.5333 28.2917L18.6833 28.275L18.5333 28.2917ZM21.2083 28.075L21.3583 28.0667L21.5 28.0083L21.6 27.9417L21.7417 27.775L21.7667 27.725L21.7917 27.5833V27.5167L21.2083 28.075ZM25.7083 16.125C25.7667 15.9083 25.6917 15.675 25.475 15.6833L25.7083 16.125ZM14.475 19.5583C14.4293 19.7203 14.3255 19.8598 14.1833 19.95L14.475 19.5583Z" stroke="#703D29" stroke-width="0.05"/>
<path d="M13.3167 16.8667C13.4417 16.9333 13.575 16.8333 13.55 16.6667C13.5383 16.6184 13.512 16.5749 13.4748 16.5421C13.4375 16.5093 13.391 16.4888 13.3417 16.4833" stroke="#703D29" stroke-width="0.05" stroke-linecap="round"/>
<path d="M13.8499 23.8833C13.8749 23.9083 13.8832 23.9417 13.9166 23.95C13.9749 23.9667 14.0166 23.9833 14.0749 23.9083C14.1416 23.8167 14.0999 23.675 14.0332 23.5833C13.9718 23.5201 13.892 23.478 13.8051 23.463C13.7183 23.4481 13.6289 23.461 13.5499 23.5C13.4832 23.5417 13.4082 23.5833 13.3332 23.6833L13.2416 23.8167C13.1832 23.9083 13.1582 23.9833 13.1499 24.0167C12.9832 24.5083 13.1832 25.0167 13.4916 25.325" stroke="#703D29" stroke-width="0.05"/>
<path d="M21.3501 27.3167L21.4084 27.3833L21.4251 27.4583C21.4501 27.5833 21.3667 27.6583 21.2584 27.675C21.1251 27.6917 21.0251 27.6083 20.9834 27.5083" stroke="#703D29" stroke-width="0.05" stroke-linecap="round"/>
<path d="M26.9083 21.7834C26.8948 21.7135 26.8576 21.6504 26.8029 21.6048C26.7482 21.5592 26.6794 21.534 26.6083 21.5334C26.5265 21.5334 26.4481 21.5658 26.3902 21.6237C26.3324 21.6815 26.2999 21.7599 26.2999 21.8417C26.2999 21.925 26.3333 22.0084 26.3833 22.0584M25.4499 12.9C25.5916 12.9212 25.7214 12.991 25.8172 13.0974C25.913 13.2038 25.9688 13.3403 25.9749 13.4834C25.9749 13.85 25.8499 13.9834 25.6583 14.25C25.4499 14.5334 24.7666 15.05 24.7666 15.6417C24.7666 16 24.8666 16.225 25.1249 16.3417C25.2916 16.425 25.4833 16.3417 25.5749 16.2584C25.7916 16.0584 25.6999 15.7167 25.4749 15.675C25.2083 15.625 25.1499 16.0584 25.4166 16.0334L25.4499 12.9Z" stroke="#703D29" stroke-width="0.05"/>
<path d="M14.1665 18.675C14.3915 18.8584 14.4915 19.025 14.4915 19.3C14.4966 19.4244 14.4684 19.5479 14.4098 19.6578C14.3512 19.7677 14.2643 19.8599 14.1582 19.925M24.9915 16.2584C24.92 16.3148 24.8624 16.3871 24.8234 16.4695C24.7844 16.5519 24.7649 16.6422 24.7665 16.7334C24.7665 16.9917 24.9832 17.4167 25.5165 17.5667C25.7165 17.625 25.9165 17.6167 26.0332 17.5417L24.9915 16.2584ZM13.0332 16.6834C12.8719 16.7348 12.7315 16.8371 12.6332 16.975C12.4347 17.2897 12.3688 17.6702 12.4499 18.0334C12.4831 18.1998 12.5482 18.3583 12.6415 18.5C12.666 18.536 12.6939 18.5695 12.7249 18.6L12.8249 18.6834L13.0332 16.6834ZM18.1582 26.35C18.5665 26.525 18.8582 26.6584 19.1082 27.0584C19.1759 27.1837 19.2103 27.3243 19.2082 27.4667C19.2082 27.6917 19.1249 27.9417 18.9332 28.1C18.8579 28.1668 18.7689 28.2162 18.6725 28.245C18.576 28.2738 18.4745 28.2812 18.3749 28.2667C18.2165 28.25 18.0665 28.1334 18.0415 28.05L18.1582 26.35Z" stroke="#703D29" stroke-width="0.05"/>
<path d="M13.9583 19.7C14.2916 20.125 14.4833 20.375 14.4916 20.875C14.4999 21.35 14.3499 21.675 14.0749 22.0167" stroke="#703D29" stroke-width="0.05" stroke-linecap="round"/>
<path d="M24.8084 21.2917V22.6417L24.8001 22.85C24.7929 22.8974 24.7846 22.9447 24.7751 22.9917M20.4834 14.1083C20.5443 14.0628 20.5883 13.9983 20.6084 13.925C20.6501 13.8 20.6501 13.6917 20.5917 13.5917C20.6751 13.7083 20.6751 13.8 20.6501 13.925C20.6417 14.0083 20.5834 14.05 20.5167 14.1167L20.4834 14.1083Z" stroke="#703D29" stroke-width="0.05"/>
<path d="M14.6749 23.375C14.6886 23.4894 14.6786 23.6053 14.6456 23.7157C14.6127 23.8261 14.5574 23.9285 14.4832 24.0166C14.4166 24.0916 14.2666 24.2333 14.0666 24.2333C13.7582 24.2333 13.6666 24.025 13.6499 23.9666M24.7832 21.1666V22.825L24.7416 23.0416L24.7832 21.1666ZM24.7832 19.4583V20.675V19.4583ZM24.8082 19.5583V20.5416V19.5583ZM24.8082 18.3083V19.0416V18.3083ZM24.7832 18.2166V19.1333V18.2166ZM24.8082 17.55V17.8416V17.55ZM24.7832 17.4916V17.9083V17.4916ZM24.6332 23.3416L24.5999 23.4C24.517 23.5785 24.4011 23.7396 24.2582 23.875C24.1161 24.0152 23.9495 24.1282 23.7666 24.2083C23.5955 24.2944 23.4131 24.3561 23.2249 24.3916C22.9999 24.4416 22.8749 24.4583 22.6499 24.4666C22.4416 24.4666 22.3249 24.4666 22.1249 24.45C21.8999 24.4333 21.7832 24.4083 21.5582 24.3833C21.3749 24.3666 21.2749 24.3583 21.0916 24.3583C20.9082 24.3583 20.7999 24.3583 20.6166 24.3916C20.4679 24.4126 20.3224 24.4518 20.1832 24.5083C19.9582 24.6 19.7082 24.7583 19.6499 24.825C19.5999 24.7583 19.3416 24.6 19.1249 24.5083C18.9858 24.4518 18.8402 24.4126 18.6916 24.3916C18.5082 24.3583 18.3999 24.3583 18.2082 24.3583C18.0249 24.3583 17.9249 24.3666 17.7416 24.3833C17.5249 24.4083 17.4082 24.4333 17.1832 24.45C16.9749 24.4666 16.8582 24.475 16.6582 24.4666C16.2698 24.4637 15.8864 24.3785 15.5332 24.2166C15.3526 24.1333 15.1887 24.0175 15.0499 23.875C14.9739 23.8033 14.9042 23.7252 14.8416 23.6416L24.6332 23.3416Z" stroke="#703D29" stroke-width="0.05"/>
<path d="M20.3167 28.0833L20.3751 28.1416C20.4504 28.2084 20.5394 28.2578 20.6358 28.2866C20.7323 28.3154 20.8338 28.3228 20.9334 28.3083C21.0009 28.3005 21.0659 28.2777 21.1235 28.2417C21.1812 28.2057 21.2301 28.1572 21.2667 28.1L21.3084 28.0416M14.3001 23.2416C14.3584 23.3 14.4084 23.3666 14.4584 23.45C14.5417 23.6 14.5084 23.85 14.4501 23.9666C14.4424 23.9782 14.434 23.9893 14.4251 24L14.3001 23.2416ZM12.7334 25.5C12.9251 25.7 13.2084 25.9166 13.6417 26.0916C14.2334 26.3416 15.1501 26.3916 15.7834 26.425C16.6167 26.45 17.3917 26.4833 17.8667 27.0083L12.7334 25.5ZM19.3084 26.675C19.4614 26.7924 19.5771 26.9516 19.6417 27.1333L19.3084 26.675ZM19.0334 28.0916C19.0151 28.1122 18.9957 28.1317 18.9751 28.15C18.9007 28.2156 18.8131 28.2644 18.7182 28.2931C18.6233 28.3219 18.5233 28.3299 18.4251 28.3166C18.2584 28.3 18.1084 28.1833 18.0667 28.1L19.0334 28.0916ZM17.6167 27.8583L17.6417 27.8916C17.7525 28.0103 17.9047 28.0819 18.0667 28.0916L17.6167 27.8583ZM20.3167 28.0916C20.1541 28.3173 19.9319 28.4933 19.6751 28.6C19.4205 28.4931 19.2011 28.317 19.0417 28.0916L19.0167 28.05L20.3167 28.0916Z" stroke="#703D29" stroke-width="0.05"/>
<path d="M21.25 28.05L21.1916 28.15L21.1 28.2333L20.9583 28.2917H20.825" stroke="#703D29" stroke-width="0.05"/>
<path d="M23.75 12.75C23.8308 12.803 23.8945 12.8783 23.9334 12.9667C24.0834 13.3417 23.75 13.625 23.4334 13.8333C23.2249 13.9729 22.9891 14.0666 22.7417 14.1083M21.5834 27.1083C21.669 27.1711 21.7377 27.2541 21.7834 27.35C21.8084 27.4083 21.8167 27.475 21.825 27.5417C21.8283 27.6054 21.819 27.6691 21.7975 27.7292C21.7761 27.7892 21.7429 27.8445 21.7 27.8917C21.6425 27.9537 21.5729 28.0035 21.4956 28.0379C21.4182 28.0722 21.3347 28.0905 21.25 28.0917C21.2389 28.0921 21.2278 28.0921 21.2167 28.0917L21.5834 27.1083ZM21.2334 28.075C21.1522 28.0773 21.0716 28.0621 20.9968 28.0304C20.922 27.9988 20.8549 27.9515 20.8 27.8917L21.2334 28.075ZM26.1084 22.2333C25.9459 22.0794 25.8107 21.8991 25.7084 21.7C25.6453 21.5816 25.5977 21.4555 25.5667 21.325C25.5401 21.2357 25.5261 21.1432 25.525 21.05C25.5158 20.5953 25.65 20.1492 25.9084 19.775C25.9667 19.7083 26.025 19.625 26.0834 19.5917L26.1084 22.2333ZM25.975 13.2667C26.1834 13.2833 26.375 13.5167 26.375 13.7417C26.375 14.0583 26.2667 14.2 26.0084 14.5167C25.7917 14.7833 25.125 15.2667 25.15 15.725C25.15 15.8083 25.1917 15.8917 25.2417 15.9583L25.975 13.2667ZM24.975 16.25C25.0233 16.2984 25.0798 16.3378 25.1417 16.3667C25.1995 16.3895 25.2617 16.3991 25.3237 16.3948C25.3857 16.3904 25.446 16.3723 25.5 16.3417L24.975 16.25Z" stroke="#703D29" stroke-width="0.05"/>
<path d="M21.8166 13.6666C21.7787 13.6448 21.7449 13.6166 21.7166 13.5833C21.6332 13.5 21.5916 13.3916 21.6499 13.2166C21.6999 13.0583 21.9582 12.6166 21.9666 12.3083C21.9832 11.8416 21.7999 11.5583 21.5249 11.4583M23.3832 13.4666C23.3338 13.4653 23.2852 13.4534 23.2407 13.4318C23.1961 13.4103 23.1567 13.3796 23.1249 13.3416C23.1006 13.3176 23.0808 13.2894 23.0666 13.2583L23.3832 13.4666Z" stroke="#703D29" stroke-width="0.05"/>
<path d="M24.7751 23.9166L24.8251 23.9833C24.8834 24.0666 25.0918 24.2333 25.2834 24.2333C25.5918 24.2333 25.6668 24.0166 25.6751 23.9666C25.7168 23.725 25.6334 23.6666 25.5084 23.5916C25.5084 23.5916 25.4418 23.5583 25.3501 23.575M21.9418 12.2083L21.9334 12.375L21.8834 12.5583L21.8001 12.8083L21.7168 12.9666L21.6501 13.125L21.6168 13.2333L21.6001 13.3166L21.6084 13.3916L21.9418 12.2083Z" stroke="#703D29" stroke-width="0.05" stroke-linecap="round"/>
<path d="M14.3834 17.15C14.425 17.1834 14.4584 17.225 14.4751 17.2584M12.75 22.8667C12.6492 22.8948 12.5426 22.8948 12.4417 22.8667C12.2 22.7917 12.0084 22.5667 12.1084 22.2834L12.75 22.8667ZM13.225 19.6334C13.25 19.6584 13.2584 19.6917 13.2584 19.7167C13.2917 20.0334 13.025 20.1167 12.8417 20.0667C12.7387 20.0337 12.6503 19.966 12.5917 19.875C12.556 19.8173 12.5359 19.7512 12.5334 19.6834L13.225 19.6334ZM14.3667 17.7167C14.4167 17.7584 14.4501 17.8 14.4751 17.8584L14.3667 17.7167Z" stroke="#703D29" stroke-width="0.05"/>
<path d="M14.4917 17.5417C14.459 17.6155 14.4139 17.6831 14.3584 17.7417C14.2647 17.8435 14.1515 17.9255 14.0256 17.9827C13.8996 18.04 13.7634 18.0714 13.6251 18.075C13.4584 18.075 13.2917 18.0417 13.1251 17.9333C12.9596 17.8249 12.8406 17.6584 12.7917 17.4667" stroke="#703D29" stroke-width="0.05" stroke-linecap="round"/>
<path d="M14.2832 16.275C14.3743 16.3496 14.4434 16.4475 14.4832 16.5584" stroke="#703D29" stroke-width="0.05"/>
<path d="M14.4832 16.9333C14.4082 17.1833 14.1916 17.4834 13.7666 17.5917C13.5666 17.6417 13.2999 17.575 13.2166 17.5084" stroke="#703D29" stroke-width="0.05" stroke-linecap="round"/>
<path d="M13 16.8834C13.025 17.1 13.1667 17.2667 13.45 17.2667C13.8417 17.275 14.0833 16.7083 13.7333 16.3083" stroke="#703D29" stroke-width="0.05"/>
<path d="M13.25 19.3084C13.6 19.2667 13.8 19 13.75 18.7C13.725 18.4667 13.5167 18.2834 13.3667 18.275M12.1167 18.7917C12.175 18.8667 12.2417 18.9334 12.3167 18.9917C12.4627 19.1167 12.6329 19.2103 12.8167 19.2667L12.1167 18.7917Z" stroke="#703D29" stroke-width="0.05" stroke-linecap="round"/>
<path d="M13.8167 15.675C13.975 15.675 14.0666 15.8083 14.0583 15.925" stroke="#703D29" stroke-width="0.05"/>
<path d="M26.2165 16.6583C26.3582 16.85 26.2665 17.2416 25.8832 17.2416C25.808 17.2425 25.7339 17.2237 25.6681 17.1871C25.6024 17.1506 25.5473 17.0976 25.5082 17.0333M13.7832 13.5833C13.8612 13.7904 14.0084 13.9641 14.1999 14.075L13.7832 13.5833Z" stroke="#703D29" stroke-width="0.05" stroke-linecap="round"/>
<path d="M24.8083 14.0917V15.4167" stroke="#703D29" stroke-width="0.05"/>
<path d="M24.1667 12.575C24.3917 12.4583 24.5667 12.475 24.6917 12.6583C24.8118 12.8337 24.8595 13.0486 24.8251 13.2583C24.7928 13.4507 24.6885 13.6235 24.5334 13.7417M13.3167 16.8583C13.4334 16.9417 13.5917 16.8 13.5251 16.6417C13.4834 16.5417 13.3417 16.425 13.1334 16.5667C12.9001 16.725 12.9667 17.2167 13.4001 17.225C13.7917 17.225 14.0334 16.6583 13.6834 16.2583C13.3501 15.875 12.7417 15.9583 12.3501 16.275C12.0483 16.5252 11.8375 16.8679 11.7501 17.25C11.6972 17.5028 11.6972 17.7639 11.7501 18.0167C11.792 18.2393 11.8769 18.4516 12.0001 18.6417L12.1084 18.7833C12.1751 18.85 12.1917 18.8833 12.2751 18.95C12.5142 19.1592 12.8241 19.2695 13.1417 19.2583C13.5251 19.2417 13.7501 18.975 13.7084 18.65C13.6751 18.3333 13.3584 18.175 13.1501 18.325C13.0084 18.425 12.9584 18.7333 13.2084 18.8083C13.3417 18.85 13.4667 18.6667 13.3751 18.5583L13.3167 16.8583Z" stroke="#703D29" stroke-width="0.05" stroke-linecap="round"/>
<path d="M24.7083 12.6667C24.9666 12.5 25.2499 12.575 25.3999 12.8C25.5083 12.9667 25.5416 13.1 25.5333 13.3084C25.5253 13.4659 25.4776 13.6188 25.3945 13.7529C25.3114 13.8869 25.1958 13.9978 25.0583 14.075" stroke="#703D29" stroke-width="0.05" stroke-linecap="round"/>
<path d="M25.9166 13.2667C26.1333 13.2833 26.2999 13.475 26.2999 13.6917C26.2999 14.0083 26.2166 14.15 25.9666 14.4667C25.7416 14.7417 25.0833 15.2167 25.0999 15.6833C25.0999 15.8583 25.2499 16.0167 25.3749 16.0333" stroke="#703D29" stroke-width="0.05"/>
<path d="M25.9501 16.8583C25.8251 16.9417 25.6751 16.8083 25.7418 16.6583C25.7834 16.5583 25.9251 16.425 26.1334 16.5667C26.3584 16.725 26.3001 17.2167 25.8584 17.225C25.4668 17.225 25.1918 16.675 25.5751 16.2583C25.9084 15.875 26.5501 15.95 26.9501 16.2667C27.1168 16.4 27.4584 16.7667 27.5334 17.2667C27.6168 17.85 27.6084 18.5667 27.0001 19.0167C26.7501 19.1917 26.4168 19.275 26.1168 19.2667C25.7334 19.25 25.5084 18.975 25.5501 18.65C25.5918 18.3333 25.8834 18.2 26.1084 18.325C26.3418 18.45 26.3001 18.775 26.0501 18.8083C25.9084 18.825 25.7918 18.6667 25.8834 18.5583" stroke="#703D29" stroke-width="0.05" stroke-linecap="round"/>
<path d="M25.7417 16.6583C25.8084 16.3667 26.05 16.3417 26.2584 16.3417C26.8 16.35 27.1834 17.0083 27.1917 17.6333C27.1917 18.425 26.8584 18.9 26.275 18.925C26.1167 18.925 25.8584 18.8583 25.8584 18.675" stroke="#703D29" stroke-width="0.05"/>
<path d="M26.0832 16.525C26.6582 16.6584 26.8582 17.175 26.8582 17.675C26.8582 18.0834 26.8166 18.6417 26.0249 18.8334" stroke="#703D29" stroke-width="0.05" stroke-linecap="square"/>
<path d="M27.0334 22.1083C27.0427 22.052 27.0369 21.9941 27.0167 21.9407C26.9965 21.8872 26.9626 21.84 26.9183 21.8039C26.874 21.7677 26.821 21.7439 26.7646 21.7348C26.7082 21.7256 26.6504 21.7315 26.597 21.7519C26.5436 21.7722 26.4965 21.8063 26.4605 21.8506C26.4244 21.895 26.4007 21.948 26.3917 22.0045C26.3828 22.0609 26.3888 22.1187 26.4093 22.1721C26.4298 22.2254 26.4639 22.2724 26.5084 22.3083" stroke="#703D29" stroke-width="0.05"/>
<path d="M26.2833 22.9916C26.0166 22.8083 25.4916 22.575 25.0333 22.8083C24.9497 22.8401 24.8739 22.8892 24.8107 22.9524C24.7475 23.0156 24.6984 23.0914 24.6666 23.175C24.6226 23.3088 24.6133 23.4517 24.6396 23.5901C24.6658 23.7286 24.7267 23.8581 24.8166 23.9666C24.8916 24.05 25.0416 24.1833 25.2333 24.1916C25.5499 24.1916 25.6249 23.975 25.6333 23.925C25.6666 23.6916 25.5333 23.6 25.4666 23.5833C25.4083 23.5583 25.2333 23.5666 25.1999 23.6916C25.1833 23.7333 25.1833 23.8 25.2166 23.8583M25.8666 21.6166C25.9833 21.7833 26.1166 21.9583 26.3916 22.1166L25.8666 21.6166Z" stroke="#703D29" stroke-width="0.05" stroke-linecap="round"/>
<path d="M21.3749 27.3667C21.4583 27.55 21.3583 27.6334 21.2416 27.65C21.0583 27.675 20.9666 27.5334 20.9583 27.4C20.9549 27.3505 20.9616 27.3008 20.9779 27.254C20.9943 27.2071 21.02 27.1641 21.0535 27.1274C21.087 27.0908 21.1276 27.0614 21.1728 27.0409C21.2181 27.0204 21.267 27.0094 21.3166 27.0084C21.5083 27.0084 21.6583 27.1334 21.7333 27.3C21.7583 27.3584 21.7749 27.425 21.7749 27.5C21.7816 27.6247 21.7398 27.7471 21.6583 27.8417C21.6014 27.9053 21.5322 27.9566 21.4548 27.9924C21.3774 28.0282 21.2935 28.0478 21.2083 28.05C20.8583 28.0584 20.5833 27.7334 20.5833 27.4C20.5833 26.7584 21.5333 26.4 21.9166 26.3167C22.4052 26.1966 22.9053 26.1296 23.4083 26.1167C23.6999 26.1084 23.9249 26.1167 24.2499 26.075C24.5416 26.05 24.6999 26.0334 24.9999 25.9667C25.3908 25.8845 25.753 25.7005 26.0499 25.4334C26.2916 25.2084 26.4249 25.0584 26.5416 24.75C26.6065 24.5603 26.6305 24.3589 26.6118 24.1592C26.5931 23.9595 26.5323 23.7661 26.4333 23.5917C26.3416 23.4391 26.2169 23.309 26.0684 23.211C25.9198 23.1129 25.7512 23.0494 25.5749 23.025C25.2666 22.9834 24.9916 23.1167 24.8249 23.425C24.7416 23.575 24.7749 23.825 24.8333 23.9417C24.8742 24.0131 24.9321 24.0732 25.0019 24.1168C25.0717 24.1604 25.1512 24.1861 25.2333 24.1917C25.5499 24.1917 25.6249 23.975 25.6333 23.925C25.6666 23.6917 25.5333 23.6 25.4666 23.575C25.4083 23.5584 25.2333 23.5667 25.1999 23.6917C25.1833 23.7334 25.1833 23.8 25.2166 23.8584" stroke="#703D29" stroke-width="0.05" stroke-linecap="round"/>
<path d="M21.0999 26.35C20.6999 26.525 20.3999 26.6583 20.1499 27.0583C20.0819 27.1835 20.0474 27.3242 20.0499 27.4666C20.0499 27.6916 20.1416 27.9416 20.3249 28.1C20.4003 28.1667 20.4893 28.2162 20.5857 28.245C20.6821 28.2738 20.7837 28.2812 20.8833 28.2666C21.0499 28.25 21.1916 28.1333 21.2166 28.05" stroke="#703D29" stroke-width="0.05" stroke-linecap="round"/>
<path d="M25.0917 18.675C24.9 18.7417 24.7667 19.025 24.7667 19.3C24.7616 19.4244 24.7899 19.5479 24.8485 19.6578C24.9071 19.7676 24.9939 19.8599 25.1 19.925" stroke="#703D29" stroke-width="0.05"/>
<path d="M25.2999 19.7C24.9666 20.125 24.7749 20.375 24.7666 20.875C24.7666 21.35 24.9083 21.675 25.1916 22.0167" stroke="#703D29" stroke-width="0.05" stroke-linecap="round"/>
<path d="M23.4917 12.6667L23.5167 12.625C23.6584 12.425 23.9084 12.3667 24.0917 12.5C24.3084 12.6667 24.3667 12.95 24.3084 13.25C24.2667 13.4333 24.1417 13.5917 23.975 13.7083" stroke="#703D29" stroke-width="0.05"/>
<path d="M15.0917 12.5666C14.875 12.4666 14.7 12.4833 14.5667 12.65C14.5019 12.7341 14.4563 12.8315 14.4333 12.9351C14.4102 13.0388 14.4103 13.1463 14.4333 13.25C14.4833 13.475 14.55 13.5666 14.725 13.7333" stroke="#703D29" stroke-width="0.05" stroke-linecap="round"/>
<path d="M14.55 12.6667C14.4965 12.628 14.4357 12.6007 14.3713 12.5864C14.3068 12.5722 14.2402 12.5713 14.1754 12.5838C14.1106 12.5962 14.049 12.6219 13.9945 12.6591C13.94 12.6963 13.8936 12.7442 13.8584 12.8C13.7547 12.9481 13.7075 13.1284 13.725 13.3083C13.7417 13.6583 13.9584 13.9417 14.2084 14.075" stroke="#703D29" stroke-width="0.05"/>
<path d="M13.8083 12.9C13.6727 12.9161 13.5474 12.9805 13.4556 13.0816C13.3637 13.1826 13.3114 13.3135 13.3083 13.45C13.3083 13.825 13.3917 13.975 13.6 14.25C13.8083 14.5334 14.4917 15.05 14.4917 15.6417C14.4917 16 14.3917 16.225 14.1334 16.3417C13.9667 16.425 13.775 16.3417 13.6833 16.2584C13.4667 16.0584 13.5583 15.7167 13.7833 15.675C14.0583 15.625 14.1084 16.0584 13.8417 16.0334" stroke="#703D29" stroke-width="0.05"/>
<path d="M13.3334 13.2667C13.1251 13.2833 12.9167 13.4583 12.9167 13.6833C12.9167 14 13.0417 14.15 13.3001 14.4667C13.5167 14.7417 14.1417 15.2167 14.1251 15.675C14.1251 15.8417 14.0001 16.0583 13.8834 16.0333" stroke="#703D29" stroke-width="0.05"/>
<path d="M12.8333 19.675C12.9416 19.4333 13.1999 19.5417 13.2166 19.675C13.2499 19.9833 12.9833 20.075 12.7916 20.025C12.7473 20.0131 12.7059 19.9921 12.67 19.9634C12.6342 19.9347 12.6046 19.899 12.5833 19.8583C12.5575 19.8117 12.5412 19.7605 12.5355 19.7075C12.5298 19.6546 12.5347 19.601 12.5499 19.55C12.5663 19.5012 12.5918 19.456 12.6249 19.4167C12.6523 19.3779 12.6861 19.3441 12.7249 19.3167C12.8083 19.2667 12.8833 19.2667 13.0083 19.2667C13.4666 19.2667 13.8749 19.8083 14.0083 20.3833C14.0583 20.5667 14.1166 20.9917 14.0333 21.3833C13.9664 21.7373 13.7985 22.0643 13.5499 22.325C13.3123 22.5471 13.0274 22.7123 12.7166 22.8083C12.6112 22.8419 12.4985 22.8447 12.3916 22.8167C12.1583 22.7417 12.0083 22.525 12.1249 22.2333C12.2249 22.0167 12.5749 21.9 12.7333 22.1833C12.7499 22.2083 12.7666 22.2583 12.7666 22.3083C12.7666 22.3833 12.7333 22.475 12.6833 22.5083C12.5666 22.5833 12.3749 22.5583 12.3833 22.3417" stroke="#703D29" stroke-width="0.05" stroke-linecap="round"/>
<path d="M12.2251 22.1167C12.2145 22.0603 12.219 22.0021 12.2382 21.948C12.2574 21.8939 12.2905 21.8458 12.3343 21.8087C12.3781 21.7716 12.4309 21.7468 12.4874 21.7367C12.5439 21.7266 12.602 21.7316 12.6559 21.7513C12.7098 21.771 12.7576 21.8046 12.7943 21.8487C12.831 21.8928 12.8554 21.9459 12.8649 22.0025C12.8745 22.059 12.8689 22.1172 12.8487 22.1709C12.8286 22.2246 12.7945 22.272 12.7501 22.3083M12.4834 22.5333C12.5667 22.5667 12.6167 22.5583 12.7251 22.5167L12.8751 22.4333C13.0917 22.3083 13.3417 22.1167 13.5751 21.675C13.6382 21.5566 13.6858 21.4305 13.7167 21.3C13.7417 21.2167 13.7584 21.1167 13.7667 21.025C13.7734 20.5681 13.6332 20.1212 13.3667 19.75C13.2751 19.6167 13.2001 19.5417 13.0167 19.5333L12.4834 22.5333Z" stroke="#703D29" stroke-width="0.05"/>
<path d="M12.3501 21.7833C12.3638 21.712 12.4023 21.6478 12.4587 21.6021C12.5151 21.5564 12.5858 21.532 12.6584 21.5333C12.7388 21.5355 12.8151 21.5689 12.8711 21.6265C12.9271 21.6841 12.9585 21.7613 12.9584 21.8416C12.9591 21.9218 12.9293 21.9992 12.8751 22.0583" stroke="#703D29" stroke-width="0.05"/>
<path d="M12.95 21.775C13.1104 21.6547 13.2406 21.4987 13.3303 21.3193C13.4199 21.14 13.4666 20.9422 13.4666 20.7417C13.4666 20.4 13.3333 20.0417 13.1666 19.9083" stroke="#703D29" stroke-width="0.05"/>
<path d="M13.3917 21.6166C13.2646 21.8273 13.0833 21.9999 12.8667 22.1166" stroke="#703D29" stroke-width="0.05" stroke-linecap="round"/>
<path d="M14.2166 22.8084C14.1333 22.625 13.9833 22.5417 13.7333 22.5167C13.4833 22.4917 13.2749 22.5584 13.0499 22.675C12.7797 22.7998 12.5512 22.9998 12.3916 23.251C12.232 23.5022 12.1481 23.7941 12.1499 24.0917C12.1532 24.3639 12.2098 24.6329 12.3166 24.8834C12.3916 25.0167 12.5666 25.6334 13.5916 26.05C14.2849 26.2661 15.007 26.3757 15.7333 26.375C16.5999 26.4084 17.3999 26.4417 17.8666 27.0084" stroke="#703D29" stroke-width="0.05"/>
<path d="M12.9751 22.9917C13.2501 22.8083 13.7668 22.575 14.2334 22.8083C14.3144 22.8428 14.3878 22.8929 14.4493 22.9558C14.5108 23.0188 14.5592 23.0933 14.5918 23.175C14.6357 23.3089 14.645 23.4517 14.6188 23.5902C14.5926 23.7286 14.5317 23.8582 14.4418 23.9667C14.3668 24.05 14.2168 24.1833 14.0251 24.1917C13.7084 24.1917 13.6334 23.975 13.6251 23.925C13.5918 23.6917 13.7251 23.6 13.7918 23.575C13.8501 23.5583 14.0251 23.5667 14.0584 23.6917C14.0751 23.7333 14.0751 23.8 14.0418 23.8583" stroke="#703D29" stroke-width="0.05" stroke-linecap="round"/>
<path d="M14.0583 23.8083C14.0833 23.725 14.0749 23.625 13.9916 23.5333C13.9283 23.4676 13.8454 23.424 13.7554 23.409C13.6653 23.394 13.5728 23.4084 13.4916 23.45C13.4333 23.4917 13.3583 23.5333 13.2916 23.6333C13.2583 23.6667 13.2083 23.725 13.1916 23.7667C13.1333 23.8583 13.1083 23.9333 13.1083 23.975C12.8999 24.5583 13.2333 25.175 13.6499 25.4417C14.0166 25.675 14.3833 25.7417 14.8499 25.775C15.0583 25.8 15.1833 25.8 15.3916 25.8167H16.1916C16.3915 25.8064 16.5917 25.8064 16.7916 25.8167C17.0416 25.8417 17.2166 25.85 17.4249 25.8833C17.5583 25.9 17.7166 25.925 17.8749 25.9667C17.9249 25.9667 17.9749 25.9833 18.0249 26L18.1249 26.025C18.4249 26.1167 18.7083 26.225 18.9416 26.375C19.0083 26.4167 19.0916 26.4583 19.1499 26.5167L19.2583 26.6167C19.4249 26.7833 19.5916 26.95 19.6249 27.175V27.3083C19.6249 27.4583 19.5083 27.6667 19.1833 27.725" stroke="#703D29" stroke-width="0.05"/>
<path d="M17.8835 27.3667C17.8001 27.55 17.9001 27.6334 18.0168 27.65C18.2001 27.675 18.2918 27.5334 18.3085 27.4C18.3119 27.3498 18.3049 27.2994 18.2881 27.252C18.2712 27.2046 18.2447 27.1612 18.2103 27.1244C18.1759 27.0877 18.1343 27.0584 18.0881 27.0385C18.0419 27.0185 17.9921 27.0082 17.9418 27.0084C17.8513 27.0104 17.7634 27.0392 17.6893 27.0911C17.6151 27.143 17.558 27.2157 17.5251 27.3C17.4994 27.3637 17.4853 27.4314 17.4835 27.5C17.4767 27.6247 17.5186 27.7471 17.6001 27.8417C17.6569 27.9053 17.7262 27.9566 17.8036 27.9924C17.881 28.0282 17.9649 28.0478 18.0501 28.05C18.4001 28.0584 18.6751 27.7334 18.6751 27.4C18.6751 26.7584 17.7251 26.4 17.3418 26.3167C16.8532 26.1966 16.3531 26.1296 15.8501 26.1167C15.5585 26.1084 15.3335 26.1167 15.0085 26.075C14.7168 26.05 14.5585 26.0334 14.2585 25.9667C13.8705 25.8832 13.5113 25.6992 13.2168 25.4334C12.9393 25.228 12.7465 24.9283 12.6743 24.5907C12.6022 24.2532 12.6558 23.9009 12.8251 23.6C12.9159 23.4459 13.0401 23.3142 13.1887 23.2147C13.3373 23.1151 13.5064 23.0503 13.6835 23.025C14.0001 22.9834 14.2668 23.1167 14.4335 23.425C14.5168 23.575 14.4835 23.825 14.4251 23.9417C14.3842 24.0131 14.3262 24.0732 14.2565 24.1168C14.1867 24.1604 14.1072 24.1861 14.0251 24.1917C13.7085 24.1917 13.6335 23.975 13.6251 23.925C13.5918 23.6917 13.7251 23.6 13.7918 23.575C13.8501 23.5584 14.0251 23.5667 14.0585 23.6917C14.0751 23.7334 14.0751 23.8 14.0418 23.8584" stroke="#703D29" stroke-width="0.05"/>
<path d="M15.7749 12.6667L15.7415 12.625C15.5999 12.425 15.3499 12.3667 15.1665 12.5C14.9499 12.6667 14.8915 12.95 14.9582 13.25C15.0051 13.4405 15.1247 13.605 15.2915 13.7083" stroke="#703D29" stroke-width="0.05" stroke-linecap="round"/>
<path d="M23.5666 13.3C23.2333 13.6666 22.8916 13.7833 22.3916 13.8C22.225 13.8 21.9333 13.75 21.7583 13.625C21.65 13.5416 21.525 13.4083 21.6 13.1666C21.65 13.0083 21.9083 12.5666 21.9166 12.2583C21.9416 11.7916 21.7583 11.5333 21.475 11.4333C20.9583 11.25 20.3916 11.7666 20.0583 11.8833C19.8833 11.9416 19.7916 11.95 19.6333 11.95C19.4666 11.95 19.3833 11.9416 19.2 11.8833C18.8666 11.7666 18.3083 11.25 17.7833 11.4333C17.5 11.5333 17.325 11.7916 17.3416 12.2666C17.35 12.5666 17.6083 13.0166 17.6583 13.1666C17.7416 13.4083 17.6166 13.5416 17.5 13.625C17.3333 13.75 17.025 13.8 16.875 13.7916C16.375 13.7833 16.0333 13.6666 15.7 13.3" stroke="#703D29" stroke-width="0.05"/>
<path d="M17.7749 26.2C17.8416 26.225 17.7916 26.1833 18.2166 26.3667C18.6047 26.5014 18.9363 26.7626 19.1582 27.1083C19.2558 27.2954 19.2824 27.5115 19.2332 27.7167" stroke="#703D29" stroke-width="0.05" stroke-linecap="round"/>
<path d="M17.8083 28C17.891 28.0434 17.9819 28.069 18.075 28.075C18.425 28.0833 18.7 27.7583 18.7 27.425C18.7 27.1917 18.575 26.9917 18.4 26.8417" stroke="#703D29" stroke-width="0.05"/>
<path d="M17.8834 27.3667C17.8001 27.5583 17.9168 27.6583 18.0334 27.675C18.2168 27.6917 18.3168 27.5583 18.3334 27.425C18.3385 27.3554 18.324 27.2857 18.2916 27.2239C18.2592 27.1621 18.2102 27.1105 18.1501 27.075" stroke="#703D29" stroke-width="0.05" stroke-linecap="round"/>
<path d="M25.5083 12.9C25.775 12.9 26.0083 13.2 26.0083 13.5C26.0083 13.8584 25.825 14.075 25.6833 14.2334C25.575 14.3667 25.4583 14.4834 25.3167 14.625" stroke="#703D29" stroke-width="0.05"/>
<path d="M12.4833 22.0167C12.5833 22.0167 12.6917 22.0917 12.7583 22.2084C12.7667 22.225 12.7917 22.275 12.7917 22.3334C12.7917 22.4084 12.7583 22.4834 12.7083 22.5167C12.5833 22.6 12.375 22.5584 12.375 22.35M25.1917 12.6167C25.2824 12.6665 25.3619 12.7346 25.425 12.8167C25.5333 12.9834 25.5667 13.125 25.5583 13.3334C25.5417 13.6834 25.2917 13.925 25.0583 14.0834L25.1917 12.6167ZM24.6667 12.6167L24.7167 12.675C24.875 12.8584 24.8833 13.125 24.85 13.275C24.8313 13.3679 24.7935 13.4558 24.739 13.5333C24.6844 13.6108 24.6144 13.6761 24.5333 13.725L24.6667 12.6167ZM24.1167 12.525C24.3333 12.6917 24.4 12.975 24.325 13.275C24.275 13.4834 24.1417 13.6084 23.975 13.7084L24.1167 12.525ZM24.9 17.1334C24.925 17.2167 24.975 17.2417 25.025 17.3C25.168 17.4417 25.3464 17.5425 25.5417 17.5917C25.7417 17.65 25.925 17.6084 26.0667 17.5167L24.9 17.1334Z" stroke="#703D29" stroke-width="0.05" stroke-linecap="round"/>
<path d="M12.6582 21.5417C12.8249 21.5417 12.9749 21.7 12.9749 21.875C12.9755 21.9552 12.9457 22.0326 12.8915 22.0917M13.1249 19.275C13.5415 19.3584 13.9332 19.85 14.0582 20.3834C14.1082 20.575 14.1665 20.9917 14.0832 21.3834C14.0132 21.7422 13.8393 22.0725 13.5832 22.3334C13.5295 22.3911 13.471 22.444 13.4082 22.4917L13.3249 22.55L13.1249 19.275Z" stroke="#703D29" stroke-width="0.05"/>
<path d="M12.55 21.725C12.725 21.725 12.8917 21.8916 12.8917 22.075C12.8918 22.1227 12.8814 22.1698 12.8612 22.213C12.8411 22.2562 12.8116 22.2944 12.775 22.325" stroke="#703D29" stroke-width="0.05"/>
<path d="M14.4833 21.3083C14.4556 21.4242 14.4136 21.5361 14.3583 21.6416C14.2809 21.788 14.1795 21.9204 14.0583 22.0333M14.1667 19.9583C14.3225 20.1435 14.4311 20.3637 14.4833 20.6L14.1667 19.9583Z" stroke="#703D29" stroke-width="0.05" stroke-linecap="round"/>
<path d="M14.1917 18.6917C14.3417 18.8167 14.4416 18.9417 14.4833 19.0917" stroke="#703D29" stroke-width="0.05"/>
<path d="M13.4417 17.2416L13.625 17.1916L13.7333 17.1083L13.8 17.0166L13.8583 16.8666L13.8833 16.7416M14.4916 18.2916C14.4365 18.4443 14.3381 18.5775 14.2083 18.675L14.4916 18.2916Z" stroke="#703D29" stroke-width="0.05" stroke-linecap="round"/>
<path d="M13.0833 16.6083C13.025 16.625 12.95 16.6417 12.875 16.675C12.7577 16.7316 12.6572 16.8178 12.5833 16.925C12.3857 17.24 12.3198 17.6202 12.4 17.9833C12.4332 18.1498 12.4983 18.3083 12.5917 18.45L12.675 18.5667C12.7917 18.675 12.8917 18.7333 13.0583 18.7083" stroke="#703D29" stroke-width="0.05"/>
<path d="M14.0833 15.8167C14.0583 15.925 13.9999 16.0583 13.8333 16.0417" stroke="#703D29" stroke-width="0.05" stroke-linecap="round"/>
<path d="M13.475 16.5417C13.3083 16.3834 12.975 16.3417 12.6333 16.5584L12.5 16.6667C12.4559 16.7063 12.4167 16.751 12.3833 16.8C12.2949 16.9274 12.2274 17.0681 12.1833 17.2167C12.125 17.4667 12.125 17.6834 12.1333 17.7417C12.1333 17.825 12.15 17.9 12.1583 17.9667C12.2083 18.2 12.275 18.3667 12.35 18.4834C12.425 18.6084 12.6 18.9 12.9917 18.9334C13.1417 18.9417 13.3917 18.875 13.4083 18.6834" stroke="#703D29" stroke-width="0.05"/>
<path d="M23.3166 13.0834C23.3416 12.95 23.5083 12.925 23.5666 13C23.6666 13.1334 23.6 13.35 23.4 13.4084C23.3416 13.4188 23.2815 13.4136 23.2258 13.3931C23.1701 13.3725 23.1209 13.3376 23.0833 13.2917C23 13.1834 23.0083 13.0584 23.0416 12.9584C23.0583 12.8917 23.1166 12.8334 23.1833 12.775C23.4083 12.6084 23.775 12.6417 23.9 12.9417C24.05 13.3084 23.7166 13.5917 23.4 13.8C23.0166 14.0667 22.5666 14.1167 22.2333 14.1084C21.4666 14.1084 20.8916 13.7417 20.5083 13.525C20.425 13.4834 20.3333 13.4917 20.2833 13.55C20.2584 13.5838 20.2471 13.6257 20.2518 13.6674C20.2564 13.7091 20.2766 13.7476 20.3083 13.775" stroke="#703D29" stroke-width="0.05" stroke-linecap="round"/>
<path d="M24.9084 17.725C24.6167 18.0416 24.8917 18.5833 25.1084 18.7083C25.1834 18.7666 25.2167 18.7333 25.275 18.7666M23.4667 12.9583C23.55 12.9583 23.5667 12.9916 23.5917 13.025C23.6917 13.15 23.6167 13.3666 23.425 13.4333L23.4667 12.9583Z" stroke="#703D29" stroke-width="0.05" stroke-linecap="round"/>
<path d="M24.925 17.1167C24.8334 17.1833 24.8 17.2583 24.7917 17.3917C24.7872 17.4523 24.7952 17.5132 24.8153 17.5705C24.8353 17.6279 24.867 17.6805 24.9084 17.725C25.1199 17.9198 25.3959 18.0296 25.6834 18.0333C25.85 18.0333 26.0167 18 26.1834 17.8917C26.3421 17.7872 26.4553 17.6264 26.5 17.4417L24.925 17.1167ZM24.7667 22.5917L24.75 22.8C24.7328 23.0034 24.6762 23.2015 24.5834 23.3833C24.4971 23.5595 24.3784 23.7179 24.2334 23.85C24.0912 23.9902 23.9246 24.1032 23.7417 24.1833C23.571 24.2723 23.3887 24.3369 23.2 24.375C22.838 24.4472 22.4671 24.4641 22.1 24.425C21.875 24.4083 21.7584 24.3833 21.5334 24.3583C21.35 24.35 21.25 24.3333 21.0667 24.3333C20.7565 24.3258 20.4478 24.3796 20.1584 24.4917C19.9334 24.575 19.6834 24.7417 19.625 24.8083C19.575 24.7333 19.3167 24.575 19.1 24.4917C18.9613 24.4323 18.8157 24.3903 18.6667 24.3667C18.4834 24.3333 18.375 24.3333 18.1834 24.3333C18 24.3333 17.9 24.35 17.7167 24.3667C17.5 24.3833 17.3834 24.4167 17.1584 24.425C16.95 24.4417 16.8334 24.45 16.6334 24.4417C16.4371 24.4403 16.2415 24.418 16.05 24.375C15.8618 24.3395 15.6795 24.2778 15.5084 24.1917C15.3278 24.1082 15.164 23.9924 15.025 23.85C14.8792 23.7154 14.7604 23.5542 14.675 23.375C14.5834 23.1957 14.5269 23.0005 14.5084 22.8C14.4917 22.7167 14.4917 22.5917 14.4917 22.5917V14.1083H24.7584V22.5917H24.7667Z" stroke="#703D29" stroke-width="0.05"/>
<path d="M13.6667 23.8C13.6667 23.7447 13.6886 23.6918 13.7277 23.6527C13.7668 23.6136 13.8197 23.5917 13.875 23.5917C13.9303 23.5917 13.9832 23.6136 14.0223 23.6527C14.0614 23.6918 14.0833 23.7447 14.0833 23.8C14.0833 23.8552 14.0614 23.9082 14.0223 23.9473C13.9832 23.9864 13.9303 24.0083 13.875 24.0083C13.8197 24.0083 13.7668 23.9864 13.7277 23.9473C13.6886 23.9082 13.6667 23.8552 13.6667 23.8ZM12.375 22.3333C12.375 22.225 12.4417 22.1417 12.525 22.1417C12.6083 22.1417 12.6667 22.225 12.6667 22.3333C12.6667 22.4333 12.6 22.5167 12.525 22.5167C12.4417 22.5167 12.375 22.4333 12.375 22.3333Z" fill="#C7B37F" stroke="#C7B37F" stroke-width="0.025"/>
<path d="M13.1084 18.6333C13.1084 18.55 13.1751 18.4833 13.2501 18.4833C13.3334 18.4833 13.3917 18.55 13.3917 18.6333C13.3917 18.7167 13.3334 18.7833 13.2501 18.7833C13.1667 18.7833 13.1084 18.7167 13.1084 18.6333ZM15.6667 13.1667C15.6667 13.0833 15.7084 13 15.7834 13C15.8584 12.9917 15.9251 13.05 15.9334 13.1333C15.9334 13.2167 15.8917 13.3 15.8167 13.3C15.7417 13.3083 15.6834 13.25 15.6667 13.1667Z" fill="#C7B37F"/>
<path d="M14.15 19.85L14.0833 19.7833L14 19.7167L13.925 19.65M12.9417 19.5C12.9084 19.5083 12.8917 19.5167 12.875 19.5417C12.85 19.5667 12.8417 19.575 12.825 19.6167L12.8083 19.7167L12.9417 19.5ZM13.2 21.9417L13.2833 21.8583L13.3333 21.775L13.375 21.6917L13.4333 21.5833L13.2 21.9417ZM13.325 22.75L13.2 22.8083L13.1084 22.8583C13.0713 22.879 13.0351 22.9012 13 22.925L12.9 23.0083L13.325 22.75Z" stroke="#C7B37F" stroke-width="0.05" stroke-linecap="round"/>
<path d="M14.1835 18.75L14.0835 18.7917C14.0433 18.8062 14.0012 18.8147 13.9585 18.8167" stroke="#C7B37F" stroke-width="0.05"/>
<path d="M14.9168 13.3083C14.9418 13.3667 14.9418 13.3917 14.9751 13.4417C14.9918 13.4834 15.0084 13.5083 15.0418 13.5417L15.1501 13.65C15.2084 13.7 15.2501 13.7083 15.3168 13.7417M12.7834 17.3667C12.8001 17.4167 12.8001 17.45 12.8251 17.4917C12.8418 17.55 12.8668 17.5834 12.9001 17.6334C12.9542 17.7239 13.0283 17.8009 13.1168 17.8583L13.2418 17.925L12.7834 17.3667ZM13.1584 17.4417L13.2668 17.4917C13.3457 17.5256 13.4309 17.5426 13.5168 17.5417L13.6668 17.5333L13.1584 17.4417ZM14.2668 14.1417L14.1001 14.0417C14.0251 14 13.9918 13.9667 13.9334 13.9167C13.8996 13.8835 13.869 13.8472 13.8418 13.8083L13.7751 13.7L14.2668 14.1417ZM14.4001 13.3167L14.4501 13.4583C14.48 13.5197 14.5194 13.5759 14.5668 13.625C14.6501 13.7083 14.7084 13.7333 14.8001 13.8083L14.4001 13.3167Z" stroke="#C7B37F" stroke-width="0.05" stroke-linecap="round"/>
<path d="M20.7749 12.6333C20.7749 12.4917 20.6332 12.4833 20.5749 12.4833C20.4249 12.4833 20.3832 12.575 20.1916 12.675C20.0264 12.7852 19.8318 12.8433 19.6332 12.8417C19.4347 12.8428 19.2404 12.7848 19.0749 12.675C18.8832 12.575 18.8499 12.4833 18.6916 12.4833C18.6664 12.4844 18.6417 12.4904 18.6188 12.5011C18.596 12.5117 18.5755 12.5267 18.5584 12.5453C18.5414 12.5639 18.5282 12.5856 18.5196 12.6093C18.511 12.633 18.5071 12.6582 18.5082 12.6833V12.7583L18.5332 12.775C18.5332 12.7083 18.5416 12.675 18.5749 12.6333C18.5912 12.6135 18.6115 12.5973 18.6345 12.5858C18.6575 12.5744 18.6826 12.5678 18.7082 12.5667C18.8582 12.5667 18.9166 12.6667 19.1082 12.7667C19.3582 12.9 19.4582 12.925 19.6666 12.9333C19.8679 12.9361 20.0654 12.878 20.2332 12.7667C20.4249 12.6667 20.4832 12.5583 20.6332 12.5583C20.6832 12.5583 20.7166 12.5917 20.7416 12.6417V12.7167L20.7582 12.725C20.7582 12.7 20.7749 12.6917 20.7749 12.6417V12.6333Z" fill="#703D29" stroke="#703D29" stroke-width="0.0166667"/>
<path d="M15.0334 24.5C15.075 24.4583 15.1084 24.475 15.1167 24.45C15.1167 24.4333 15.1167 24.4333 15.0917 24.425L15.0167 24.4083L14.95 24.375C14.9417 24.375 14.9167 24.3583 14.9084 24.375C14.9 24.4083 14.9917 24.4083 14.9584 24.4916C14.9429 24.529 14.9203 24.563 14.8917 24.5916L14.675 24.8416L14.6584 24.85V24.4916L14.6667 24.3416C14.6834 24.3083 14.7334 24.3416 14.7417 24.3083C14.7417 24.3 14.7417 24.2916 14.7167 24.2833C14.7 24.2833 14.675 24.2833 14.625 24.2583L14.5417 24.2166C14.525 24.2166 14.5 24.2 14.4917 24.2166L14.5 24.2416C14.5334 24.2583 14.5417 24.275 14.5417 24.325V24.9416C14.5417 24.9833 14.55 24.9916 14.5584 25C14.5667 25 14.575 25 14.5917 24.975L15.0334 24.5Z" fill="#703D29"/>
<path d="M15.2916 24.6C15.3166 24.5084 15.375 24.5667 15.375 24.5334C15.3833 24.5167 15.375 24.5167 15.3583 24.5084L15.25 24.475C15.2166 24.475 15.1833 24.45 15.15 24.4417C15.15 24.4417 15.125 24.4334 15.1166 24.4417C15.1083 24.4834 15.2083 24.4834 15.1833 24.5667L15.0416 25.025C15.0166 25.1084 14.9583 25.075 14.95 25.1084V25.1167L15.05 25.15L15.1833 25.1917H15.2083C15.225 25.1584 15.1083 25.1667 15.15 25.05L15.2916 24.6ZM15.6 24.6834C15.6166 24.6334 15.6416 24.6417 15.675 24.65C15.7583 24.675 15.7916 24.7584 15.7583 24.8584C15.7416 24.9084 15.725 24.9584 15.5916 24.925C15.5666 24.9167 15.5333 24.9084 15.5416 24.8834L15.6 24.6917V24.6834ZM15.3666 25.1C15.325 25.2167 15.2666 25.1667 15.2583 25.2C15.2583 25.2167 15.275 25.2167 15.2833 25.225L15.4166 25.2584L15.4833 25.2834H15.5166C15.525 25.2417 15.4333 25.2584 15.4583 25.1584L15.5083 24.9917C15.5166 24.9584 15.5166 24.95 15.5583 24.9667C15.6083 24.975 15.6166 24.9917 15.625 25.0334L15.65 25.2C15.6666 25.275 15.675 25.3417 15.7333 25.3667C15.775 25.3667 15.8333 25.3667 15.85 25.3334L15.8333 25.3167H15.8083C15.8083 25.3167 15.7833 25.3167 15.7833 25.2917L15.725 24.9917C15.725 24.975 15.7583 24.975 15.7916 24.9667C15.8124 24.9556 15.8305 24.9401 15.8449 24.9215C15.8593 24.9028 15.8695 24.8813 15.875 24.8584C15.8833 24.8167 15.9083 24.675 15.725 24.6167L15.55 24.575L15.45 24.5417H15.425C15.4166 24.5834 15.5166 24.575 15.4833 24.6834L15.3583 25.1H15.3666ZM16.0666 25.3084C16.0333 25.425 15.95 25.35 15.9416 25.3917C15.9416 25.4084 15.95 25.4167 15.9666 25.4167L16.0916 25.4417L16.2083 25.475C16.2333 25.475 16.25 25.4917 16.2583 25.4667C16.2583 25.4417 16.15 25.4417 16.175 25.3167L16.2833 24.8834C16.2833 24.8334 16.3 24.8334 16.3333 24.8417L16.4166 24.8584C16.5083 24.8834 16.4583 24.9834 16.5 24.9917C16.5166 24.9917 16.5166 24.9584 16.5166 24.9417L16.525 24.8584V24.825L16.25 24.7667L15.9833 24.7C15.975 24.7 15.9666 24.7 15.9666 24.7167L15.925 24.8417C15.9166 24.85 15.9083 24.875 15.925 24.875C15.9666 24.8834 15.9666 24.75 16.0666 24.775L16.1416 24.7917C16.175 24.8 16.1833 24.8084 16.175 24.8584L16.0666 25.3084ZM17.125 25.0334C17.1583 24.9834 17.1916 24.9917 17.2 24.975C17.2 24.9584 17.1833 24.9584 17.1666 24.95H17.0916L17.0166 24.925C17.0083 24.925 16.9833 24.9167 16.9833 24.9334C16.975 24.9667 17.0666 24.95 17.05 25.0417C17.05 25.0584 17.0416 25.0917 17 25.15L16.8333 25.425L16.8083 25.4417V25.425L16.75 25.0917C16.7388 25.0425 16.736 24.9918 16.7416 24.9417C16.7416 24.9 16.8 24.925 16.8 24.9C16.8 24.8834 16.8 24.8834 16.7666 24.875L16.675 24.8667C16.6416 24.8667 16.6166 24.85 16.5916 24.8417C16.575 24.8417 16.55 24.8334 16.5416 24.85L16.55 24.8667C16.5916 24.8834 16.6 24.9 16.6083 24.9417L16.7166 25.55C16.725 25.5917 16.7333 25.6084 16.7416 25.6084C16.75 25.6084 16.7583 25.6084 16.775 25.5834L17.125 25.0334ZM17.175 25.6C17.175 25.625 17.175 25.625 17.1916 25.6417C17.2416 25.6584 17.275 25.6917 17.3333 25.7C17.45 25.7167 17.55 25.6417 17.5666 25.5167C17.5916 25.3917 17.5416 25.3417 17.45 25.275C17.3416 25.2 17.3 25.1834 17.3083 25.1084C17.3166 25.05 17.3666 25.025 17.425 25.025C17.575 25.05 17.5583 25.2417 17.575 25.2417C17.6 25.2417 17.6 25.2334 17.6 25.2084L17.6166 25.075V25.0417H17.5666C17.5333 25.0417 17.5083 25 17.4333 24.9834C17.3333 24.9667 17.2416 25.0417 17.225 25.15C17.2083 25.25 17.2583 25.3 17.325 25.35C17.4583 25.4417 17.5083 25.4667 17.4916 25.55C17.4833 25.6334 17.4166 25.6667 17.35 25.6584C17.25 25.6417 17.2166 25.5417 17.2 25.4417C17.2 25.425 17.2 25.4167 17.1833 25.4167C17.1666 25.4167 17.1666 25.4417 17.1666 25.4584V25.6H17.175ZM18.4916 25.225C18.5166 25.1667 18.5583 25.175 18.5583 25.15C18.5583 25.1334 18.55 25.1417 18.525 25.1334H18.45L18.375 25.125C18.3666 25.125 18.3416 25.125 18.3416 25.1417C18.3416 25.175 18.425 25.1417 18.425 25.2334C18.425 25.25 18.4166 25.2834 18.3833 25.35L18.2333 25.6417L18.225 25.6667L18.2166 25.6417L18.125 25.3084C18.1099 25.2654 18.1015 25.2205 18.1 25.175C18.1 25.1334 18.1583 25.15 18.1583 25.125C18.1583 25.1084 18.1583 25.1084 18.125 25.1084H18.025L17.9416 25.0917C17.925 25.0917 17.9 25.0834 17.8916 25.1L17.9083 25.1167C17.9416 25.1334 17.9583 25.1417 17.9666 25.1834L18.1416 25.775L18.175 25.8334C18.1833 25.8334 18.1916 25.8334 18.2 25.8L18.4916 25.2167V25.225Z" fill="#703D29"/>
<path d="M18.6332 25.7084C18.6332 25.8084 18.5499 25.7917 18.5499 25.8334C18.5499 25.85 18.5582 25.8417 18.5749 25.8417H18.7582L18.7915 25.8334C18.7915 25.7834 18.6749 25.85 18.6749 25.6667V25.3167L18.6832 25.3084L18.6999 25.3167L19.1249 25.8417L19.1499 25.85L19.1665 25.825V25.2667C19.1665 25.1584 19.2499 25.1834 19.2499 25.1584C19.2499 25.1584 19.2499 25.1417 19.2249 25.1417H19.0332C19.0165 25.1417 19.0165 25.15 19.0165 25.1584C19.0165 25.1917 19.1249 25.175 19.1249 25.2667V25.6L19.1165 25.6334L19.0832 25.6084L18.7332 25.1667C18.7165 25.1417 18.7249 25.1417 18.6999 25.1417H18.5499L18.5332 25.15C18.5332 25.2 18.6332 25.1334 18.6332 25.325V25.7084ZM19.4999 25.25C19.4999 25.1584 19.5665 25.1917 19.5665 25.1584C19.5665 25.15 19.5665 25.1417 19.5332 25.1417H19.3165C19.3165 25.1417 19.2915 25.1417 19.2915 25.1584C19.2915 25.1917 19.3832 25.1584 19.3832 25.2584V25.7334C19.3832 25.825 19.3165 25.8 19.3165 25.8334C19.3165 25.8334 19.3165 25.85 19.3332 25.85H19.5665C19.5832 25.85 19.5915 25.85 19.5915 25.8334C19.5915 25.8 19.4915 25.85 19.4915 25.725L19.4999 25.25ZM19.8749 25.7084C19.8749 25.8334 19.7749 25.7917 19.7749 25.825C19.7749 25.8417 19.7915 25.8417 19.8082 25.8417H20.0582C20.0832 25.8417 20.0999 25.8417 20.0999 25.8167C20.0999 25.7917 19.9832 25.8167 19.9832 25.7V25.25C19.9832 25.2 19.9832 25.2 20.0249 25.2H20.1082C20.2082 25.1917 20.1749 25.3 20.2165 25.3C20.2332 25.3 20.2249 25.2667 20.2249 25.25L20.2165 25.1667C20.2165 25.15 20.2165 25.1334 20.1999 25.1334L19.9249 25.1417H19.6499L19.6332 25.1667L19.6249 25.3L19.6332 25.3334C19.6749 25.3334 19.6499 25.2 19.7499 25.2H19.8249C19.8582 25.2 19.8665 25.2 19.8749 25.25V25.7167V25.7084ZM20.3999 25.525H20.3665L20.3749 25.4834L20.4332 25.3V25.2834L20.4499 25.2917L20.5332 25.4667L20.5499 25.5C20.5499 25.5167 20.5332 25.5167 20.5165 25.5167H20.3999V25.525ZM20.5499 25.5667C20.5749 25.5667 20.5749 25.5667 20.6165 25.65L20.6332 25.7167C20.6332 25.775 20.5749 25.7667 20.5749 25.8C20.5749 25.8084 20.5915 25.8084 20.6082 25.8H20.7082L20.8165 25.7917C20.8415 25.7917 20.8499 25.7917 20.8499 25.775C20.8499 25.7417 20.7999 25.775 20.7665 25.7167L20.4832 25.1334L20.4582 25.1C20.4415 25.1 20.4415 25.1167 20.4332 25.1334L20.2499 25.75C20.2332 25.8084 20.1832 25.8084 20.1915 25.8334H20.3832C20.3999 25.825 20.4249 25.8334 20.4249 25.8084C20.4249 25.7834 20.3249 25.8084 20.3165 25.7334L20.3332 25.65C20.3499 25.5834 20.3665 25.5834 20.3832 25.5834L20.5582 25.5667H20.5499ZM21.2415 25.15C21.2332 25.0834 21.2415 25.0834 21.3415 25.0667C21.5082 25.05 21.4582 25.175 21.5082 25.1667C21.5249 25.1667 21.5082 25.1334 21.5082 25.1167L21.4999 25.025C21.4999 25.0167 21.4915 25.0084 21.4749 25.0084C21.3915 25.0084 21.3332 25.025 21.2749 25.0334L21.0415 25.0667C21.0249 25.0667 21.0165 25.0667 21.0165 25.0834C21.0249 25.125 21.1249 25.0834 21.1332 25.1667L21.1915 25.625C21.2082 25.75 21.1332 25.7084 21.1415 25.75C21.1415 25.75 21.1415 25.7584 21.1582 25.75L21.2749 25.7417L21.3749 25.7334C21.3999 25.7334 21.4165 25.7334 21.4165 25.7084C21.4165 25.6834 21.3165 25.7167 21.2999 25.6084L21.2832 25.4667C21.2749 25.4084 21.2749 25.3917 21.3082 25.3834H21.3749C21.4665 25.3667 21.4582 25.475 21.4832 25.4667C21.5082 25.4667 21.4999 25.4334 21.4915 25.425L21.4665 25.25C21.4665 25.225 21.4499 25.225 21.4499 25.225C21.4249 25.225 21.4415 25.3167 21.3665 25.325L21.3082 25.3334C21.2665 25.3417 21.2665 25.3334 21.2582 25.2917L21.2415 25.15ZM21.5749 25.3834C21.6082 25.575 21.7499 25.6917 21.9249 25.6584C22.2082 25.6 22.2165 25.3584 22.1915 25.2167C22.1499 25.0084 21.9999 24.9084 21.8249 24.9417C21.6165 24.9834 21.5332 25.1667 21.5749 25.3834ZM21.6665 25.3C21.6415 25.1667 21.6665 25.0167 21.8082 24.9917C21.9249 24.9667 22.0582 25.0584 22.0915 25.275C22.1165 25.4417 22.0915 25.575 21.9415 25.6084C21.7832 25.6417 21.6915 25.4417 21.6665 25.3084V25.3ZM22.3582 24.9584C22.3499 24.9 22.3749 24.8917 22.4082 24.8834C22.4915 24.8667 22.5582 24.925 22.5832 25.0167C22.5999 25.075 22.6082 25.1334 22.4749 25.1667C22.4499 25.1667 22.4165 25.175 22.4082 25.15L22.3665 24.9584H22.3582ZM22.3582 25.4334C22.3915 25.55 22.3165 25.5417 22.3165 25.5667C22.3249 25.5917 22.3415 25.5834 22.3499 25.575C22.3999 25.575 22.4332 25.55 22.4832 25.5417L22.5665 25.525C22.5832 25.525 22.5832 25.5167 22.5832 25.5084C22.5832 25.475 22.4999 25.5334 22.4749 25.425L22.4332 25.2584C22.4332 25.225 22.4165 25.225 22.4665 25.2167C22.5082 25.2 22.5249 25.2084 22.5582 25.2417L22.6665 25.375C22.7082 25.425 22.7499 25.4834 22.8165 25.4667C22.8582 25.4584 22.8999 25.425 22.8999 25.3917L22.8832 25.3834L22.8582 25.3917C22.8582 25.3917 22.8332 25.4 22.8249 25.3917L22.6249 25.15L22.6665 25.1C22.6832 25.0667 22.6999 25.025 22.6832 24.9667C22.6749 24.925 22.6249 24.7917 22.4332 24.8334L22.2582 24.8834L22.1582 24.9C22.1415 24.9 22.1332 24.9084 22.1415 24.9167C22.1415 24.9584 22.2332 24.9 22.2582 25L22.3582 25.4334ZM23.0832 25.2667C23.1082 25.3834 22.9999 25.3667 23.0082 25.4C23.0082 25.425 23.0332 25.4167 23.0499 25.4167L23.1665 25.375L23.2915 25.35C23.3165 25.35 23.3332 25.35 23.3249 25.3167C23.3249 25.2917 23.2165 25.35 23.1832 25.2334L23.0749 24.7917C23.0582 24.75 23.0749 24.7417 23.0999 24.7334L23.1832 24.7167C23.2749 24.6834 23.2749 24.8 23.3082 24.7917C23.3332 24.7917 23.3082 24.75 23.3082 24.7334L23.2749 24.65C23.2749 24.65 23.2749 24.625 23.2582 24.6334L22.9915 24.7084L22.7249 24.7667V24.7917L22.7332 24.925C22.7332 24.9417 22.7332 24.9584 22.7582 24.9584C22.7999 24.95 22.7332 24.825 22.8415 24.8L22.9082 24.7834C22.9415 24.775 22.9582 24.7834 22.9665 24.825L23.0832 25.2667ZM23.5415 24.6584C23.5165 24.575 23.5915 24.5834 23.5749 24.55H23.5499L23.4332 24.5834L23.3332 24.6084C23.3332 24.6084 23.3082 24.6084 23.3082 24.625C23.3165 24.6584 23.4082 24.6084 23.4332 24.6917L23.5665 25.1584C23.5832 25.2417 23.5165 25.2417 23.5249 25.2667C23.5249 25.275 23.5249 25.2834 23.5415 25.275L23.6332 25.25L23.7665 25.2167C23.7915 25.2167 23.7915 25.2084 23.7915 25.1917C23.7832 25.1667 23.6999 25.2334 23.6665 25.1167L23.5415 24.6584ZM23.7332 24.8834C23.7915 25.075 23.9499 25.1667 24.1249 25.1084C24.3915 25.0167 24.3749 24.7667 24.3249 24.6334C24.2582 24.4334 24.0915 24.3584 23.9249 24.4084C23.7249 24.4834 23.6582 24.675 23.7332 24.8834ZM23.8165 24.8C23.7665 24.6584 23.7665 24.5084 23.9082 24.4667C24.0165 24.425 24.1582 24.5 24.2332 24.7084C24.2832 24.8584 24.2749 25.0084 24.1332 25.0584C23.9832 25.1084 23.8665 24.9334 23.8165 24.7917V24.8ZM24.4499 24.3417C24.4332 24.2834 24.4499 24.275 24.4832 24.2584C24.5665 24.2334 24.6499 24.2834 24.6832 24.375C24.6999 24.425 24.7165 24.4834 24.5915 24.5334C24.5665 24.5334 24.5332 24.55 24.5249 24.5334L24.4499 24.3417ZM24.5165 24.8084C24.5665 24.925 24.4832 24.925 24.4999 24.95C24.4999 24.975 24.5165 24.9584 24.5332 24.9584L24.6582 24.9L24.7332 24.8834C24.7499 24.875 24.7499 24.8667 24.7499 24.8584C24.7332 24.825 24.6665 24.8917 24.6332 24.7917L24.5665 24.6334C24.5499 24.6 24.5499 24.5917 24.5915 24.575C24.6332 24.5584 24.6499 24.5667 24.6832 24.6L24.8165 24.7167C24.8582 24.7584 24.9082 24.8084 24.9832 24.7834C25.0082 24.7667 25.0582 24.725 25.0415 24.7L25.0249 24.6917L25.0082 24.7084H24.9665L24.7332 24.5L24.7665 24.4417C24.7757 24.4207 24.7805 24.398 24.7805 24.375C24.7805 24.3521 24.7757 24.3294 24.7665 24.3084C24.7582 24.2584 24.6832 24.1417 24.5082 24.2084L24.3415 24.2834L24.2415 24.3167L24.2249 24.3334C24.2415 24.3667 24.3165 24.3 24.3582 24.4L24.5249 24.8167L24.5165 24.8084Z" fill="#703D29"/>
<path d="M15.0107 14.6293H19.3894V19.0027H15.0107V14.6293Z" fill="#D52B1E"/>
<path d="M17.0639 18.0694C17.0639 18.0694 17.0639 18.2294 17.0213 18.352C16.9679 18.496 16.9679 18.496 16.9199 18.5654C16.8682 18.65 16.7991 18.7227 16.7173 18.7787C16.6106 18.8427 16.5039 18.8747 16.3973 18.864C16.1093 18.8427 15.9706 18.5227 15.9066 18.2667C15.8373 17.9947 15.6399 17.84 15.5066 17.9467C15.4319 18 15.4319 18.096 15.4906 18.192C15.5481 18.2613 15.6238 18.3131 15.7093 18.3414L15.5546 18.5387C15.5546 18.5387 15.2186 18.496 15.1546 18.144C15.1279 18.0107 15.1919 17.7654 15.4159 17.6907C15.6986 17.5947 15.8746 17.7974 15.9653 17.968C16.0826 18.2027 16.1359 18.6294 16.4666 18.5654C16.6479 18.528 16.7333 18.2667 16.7333 18.144L16.8613 18.0054L17.0586 18.0694H17.0639Z" fill="white"/>
<path d="M17.5921 16.2133L18.1681 15.5893C18.1681 15.5893 18.2534 15.52 18.2534 15.408L18.1361 15.4293L18.1094 15.3653L18.1041 15.3066L18.2641 15.2693V15.2L18.2801 15.1306L18.1094 15.1413L18.1254 15.0666L18.1521 15.0133L18.2534 14.992H18.3548C18.4508 14.8106 18.8454 14.6506 19.1228 14.9386C19.3254 15.152 19.2828 15.536 19.0161 15.6426C18.9565 15.6691 18.8904 15.6777 18.826 15.6673C18.7616 15.6568 18.7016 15.6279 18.6534 15.584L18.7601 15.3706C18.9041 15.4613 19.0268 15.3546 19.0161 15.2426C19.0054 15.0986 18.9094 15.0133 18.7868 15.0026C18.6641 14.992 18.5734 15.056 18.5201 15.1626C18.4881 15.232 18.5041 15.28 18.4934 15.3546C18.4828 15.4346 18.4934 15.4773 18.4668 15.5573C18.4407 15.631 18.3967 15.697 18.3388 15.7493L17.7521 16.3893L15.4588 18.864L15.2881 18.704L17.5921 16.2133Z" fill="#FEDF00"/>
<path d="M15.9067 16.4266C15.9067 16.4266 16.0507 17.1413 16.5414 18.2133C16.792 18.1226 16.936 18.064 17.2027 18.064C17.464 18.064 17.608 18.1173 17.8587 18.2133C18.1318 17.6414 18.3445 17.0426 18.4934 16.4266L17.2027 14.7733L15.9014 16.4266H15.9067Z" fill="white"/>
<path d="M17.3254 15.328L18.2214 16.4853C18.2214 16.4853 18.104 17.0453 17.7414 17.888C17.5974 17.856 17.4747 17.8293 17.3254 17.8187V15.328ZM17.0747 15.328L16.1787 16.4853C16.1787 16.4853 16.296 17.0453 16.6587 17.888C16.8027 17.856 16.9254 17.8293 17.0747 17.8187V15.328Z" fill="#FEDF00"/>
<path d="M19.8584 14.625H24.2417V19H19.8584V14.625Z" fill="#FEDF00"/>
<path d="M20.4751 14.625H21.1251V19H20.4751V14.625ZM21.7251 14.625H22.3751V19H21.7251V14.625ZM22.9751 14.625H23.6334V19H22.9751V14.625Z" fill="#D52B1E"/>
<path d="M15.025 22.7916C15.0333 22.875 15.0666 23.0083 15.1416 23.15C15.225 23.275 15.1916 23.2666 15.3666 23.4666C15.4639 23.5647 15.5765 23.6463 15.7 23.7083C16.0938 23.8779 16.5221 23.9521 16.95 23.925C17.175 23.9166 17.35 23.8916 17.5 23.8666C17.8038 23.8263 18.1102 23.8095 18.4166 23.8166C18.5416 23.8166 18.6666 23.8416 18.8083 23.8666C19.1 23.925 19.3916 24.0333 19.3916 24.0333V19.475H15.0083V22.5833L15.025 22.7833V22.7916Z" fill="#FEDF00"/>
<path d="M15.5334 23.5917L15.7418 23.7167L16.0251 23.8167V19.4667H15.5334V23.5917ZM17.9668 23.7917V19.4667H17.4834V23.8667L17.9668 23.8083V23.7917ZM18.9418 19.4667H18.4584V23.8083C18.6168 23.825 18.7751 23.8583 18.9418 23.8917V19.475V19.4667ZM16.9918 19.4667V23.9167C16.9918 23.9167 16.6751 23.9333 16.5084 23.9167V19.4667H16.9918Z" fill="#D52B1E" stroke="#D52B1E" stroke-width="0.025"/>
<path d="M24.2266 22.7947C24.2076 22.9178 24.1679 23.0368 24.1093 23.1467C24.0293 23.2693 24.056 23.2693 23.88 23.4667C23.6893 23.6548 23.4487 23.7843 23.1866 23.84C22.8981 23.9161 22.5991 23.9449 22.3013 23.9253C22.072 23.9147 21.9013 23.888 21.752 23.872C21.5493 23.84 21.3946 23.824 21.1653 23.8187C21.0552 23.8132 20.9448 23.8132 20.8346 23.8187C20.5019 23.8563 20.1745 23.9315 19.8586 24.0427V19.4667H24.2426V22.5867L24.2266 22.7893V22.7947Z" fill="#FEDF00"/>
<path d="M20.9787 19.84L20.9467 19.8507L20.904 19.8933C20.8827 19.9147 20.8667 19.92 20.84 19.936L20.808 19.9627C20.792 19.9787 20.808 19.9947 20.792 20.016C20.7867 20.0373 20.776 20.048 20.76 20.0693C20.7387 20.0907 20.7227 20.096 20.7067 20.1227L20.6427 20.176L20.6267 20.1813H20.5947C20.5733 20.192 20.568 20.2133 20.552 20.224L20.568 20.256L20.6107 20.3307C20.6213 20.3467 20.6213 20.368 20.6373 20.3733C20.664 20.384 20.6853 20.384 20.7067 20.3787C20.7493 20.3893 20.776 20.3893 20.8133 20.4053L20.8933 20.448C20.92 20.464 20.936 20.4693 20.9627 20.4747H21.0587V20.4907L21.1653 20.544C21.1627 20.5509 21.1609 20.558 21.16 20.5653C21.1547 20.5813 21.1493 20.6027 21.1547 20.608C21.1867 20.7093 21.2187 20.768 21.2347 20.7787C21.2667 20.7893 21.2773 20.8267 21.2933 20.8587L21.2773 20.8747C21.2453 20.9067 21.2133 20.928 21.1867 20.9707C21.1493 21.0347 21.1227 21.0347 21.1707 21.12L21.2507 21.248C21.272 21.2853 21.2827 21.312 21.2933 21.3547C21.304 21.392 21.3093 21.4187 21.3093 21.4613L21.3627 21.4773L21.4 21.4453L21.432 21.3813V21.328C21.4213 21.3227 21.416 21.3067 21.4213 21.2907C21.4213 21.2693 21.448 21.2747 21.4587 21.2587C21.4747 21.232 21.4373 21.216 21.4213 21.2C21.3893 21.1627 21.3467 21.152 21.336 21.0987C21.336 21.088 21.336 21.0773 21.3573 21.0613L21.464 20.9653C21.4747 20.9707 21.496 20.976 21.5173 20.9707L21.5867 20.992C21.6187 21.0027 21.6347 20.992 21.6507 20.992H21.672L21.6773 21.024C21.6827 21.0773 21.672 21.184 21.688 21.2107L21.704 21.2427L21.7147 21.2747V21.3813L21.704 21.472C21.704 21.4933 21.6933 21.5093 21.6773 21.5253C21.6667 21.5467 21.6453 21.5467 21.624 21.5627V21.616L21.6827 21.6427L21.752 21.6587L21.7893 21.6427L21.7947 21.6107L21.8213 21.584C21.8427 21.5733 21.864 21.584 21.8693 21.5787C21.88 21.5627 21.8693 21.5573 21.8693 21.536C21.8693 21.504 21.8587 21.4827 21.8533 21.4507C21.8456 21.4013 21.8438 21.3512 21.848 21.3013C21.848 21.2693 21.848 21.248 21.8587 21.2213C21.864 21.168 21.88 21.1467 21.8907 21.104C21.9067 21.0507 21.9067 21.0187 21.912 20.9707C22.0918 20.9978 22.2753 20.9869 22.4507 20.9387C22.4933 20.976 22.5413 21.0027 22.5947 21.024V21.0773C22.5947 21.0933 22.5947 21.0987 22.6053 21.1147L22.6213 21.1307C22.6373 21.1307 22.648 21.1307 22.6587 21.12C22.6693 21.1093 22.6693 21.0987 22.6693 21.0827V21.0453H22.7653V21.104C22.7707 21.12 22.7813 21.1253 22.792 21.1253C22.797 21.1277 22.8025 21.1289 22.808 21.1289C22.8135 21.1289 22.819 21.1277 22.824 21.1253C22.84 21.1147 22.8347 21.0933 22.84 21.072V21.0347L22.8933 21.0133C22.8948 21.0293 22.8948 21.0454 22.8933 21.0613L22.8773 21.1093C22.8667 21.1413 22.8507 21.152 22.8347 21.184C22.8133 21.216 22.808 21.2373 22.7813 21.264L22.7493 21.3013L22.7173 21.3493L22.6693 21.4027C22.632 21.4347 22.6053 21.4133 22.5627 21.4507L22.5467 21.504L22.6213 21.536L22.6907 21.5467L22.712 21.536C22.712 21.52 22.712 21.504 22.728 21.4933C22.7387 21.4773 22.7493 21.4773 22.7653 21.472C22.7867 21.472 22.808 21.472 22.8187 21.4613C22.84 21.4453 22.84 21.408 22.856 21.3813C22.8953 21.3022 22.9496 21.2316 23.016 21.1733L23.1067 21.0987C23.1173 21.0773 23.1333 21.072 23.1333 21.0453L23.1227 21.0133L23.112 20.96C23.192 20.9973 23.1653 20.9973 23.176 21.0347C23.192 21.0667 23.176 21.088 23.1813 21.1253C23.1867 21.168 23.208 21.184 23.208 21.2267C23.2133 21.2747 23.2027 21.3013 23.192 21.3493C23.1867 21.392 23.1867 21.4187 23.1653 21.456C23.1527 21.4871 23.1326 21.5146 23.1067 21.536L23.0747 21.5627L23.0693 21.616L23.128 21.6373L23.2133 21.6587L23.2347 21.6427C23.2453 21.6053 23.2347 21.552 23.256 21.552C23.2773 21.5467 23.2933 21.552 23.2987 21.536V21.4987L23.336 21.2587L23.3573 21.1573L23.3787 21.0667C23.416 20.96 23.368 20.944 23.3253 20.8747C23.2987 20.8373 23.288 20.8213 23.288 20.7947V20.64C23.2864 20.5902 23.2864 20.5404 23.288 20.4907L23.3093 20.48C23.3733 20.4427 23.4 20.432 23.4373 20.3467C23.4487 20.3216 23.4541 20.2942 23.4533 20.2667V20.2133L23.432 20.16C23.4236 20.1442 23.4128 20.1298 23.4 20.1173C23.3627 20.064 23.3093 20.0587 23.256 20.0373C23.176 20.0107 23.1227 20.016 23.0427 20.0107C22.9467 20 22.8987 20 22.808 20.0107C22.7013 20.0107 22.6427 20.032 22.536 20.048L22.2747 20.0693C22.152 20.0693 22.04 20.0427 21.9653 20.048C21.8373 20.0587 21.832 20.0907 21.6347 20.1067C21.5672 20.1122 21.4996 20.1157 21.432 20.1173L21.3147 20.08C21.3627 20.064 21.3733 20.0533 21.3947 20.0267C21.4107 20.0053 21.4053 19.9893 21.4267 19.968L21.464 19.9147C21.4498 19.904 21.4334 19.8967 21.416 19.8933H21.3627C21.3405 19.8942 21.3187 19.8996 21.2987 19.9093L21.256 19.9413L21.1387 19.8773C21.0886 19.8519 21.0344 19.8356 20.9787 19.8293V19.84Z" fill="#D52B1E"/>
<path d="M23.336 20.5067L23.2933 20.5227C23.2453 20.544 23.208 20.544 23.1546 20.5493C23.016 20.56 22.9253 20.4907 22.7813 20.5013C22.7066 20.5067 22.6746 20.5653 22.5946 20.5867C22.5648 20.593 22.5344 20.5966 22.504 20.5973L22.5306 20.544C22.5306 20.544 22.4666 20.56 22.424 20.56C22.3952 20.5595 22.3666 20.5559 22.3386 20.5493L22.392 20.496L22.3226 20.4853C22.303 20.4757 22.2851 20.4631 22.2693 20.448C22.2997 20.4439 22.33 20.4386 22.36 20.432C22.44 20.4107 22.4666 20.368 22.568 20.3573C22.6266 20.3573 22.728 20.3573 22.9733 20.4C23.1333 20.4267 23.208 20.4107 23.2666 20.384C23.3093 20.368 23.32 20.3307 23.3253 20.288C23.3306 20.2453 23.304 20.2133 23.2826 20.192C23.2773 20.192 23.256 20.176 23.224 20.1707" stroke="#FEDF00" stroke-width="0.0533333" stroke-linecap="round"/>
<path d="M20.9894 20.032C20.9627 20.032 20.9414 20.032 20.92 20.048C20.8934 20.064 20.888 20.0853 20.8667 20.1066C20.8934 20.112 20.9094 20.128 20.9307 20.1226C20.952 20.1226 20.9574 20.112 20.9734 20.096C20.9894 20.0746 20.9947 20.0586 20.9947 20.032H20.9894Z" fill="#FCD900" stroke="#FEDF00" stroke-width="0.0266667"/>
<path d="M21.3574 20.7574C21.4054 20.768 21.3894 20.9334 21.4588 20.9707M21.5868 20.736C21.6007 20.7785 21.6186 20.8195 21.6401 20.8587C21.6508 20.9014 21.6401 20.9227 21.6508 20.9654V21.0507L21.5868 20.736ZM22.0134 20.6774L21.9974 20.7467L21.9441 20.9334V20.9707L22.0134 20.6774Z" stroke="#FEDF00" stroke-width="0.0533333" stroke-linecap="round"/>
<path d="M22.8721 21.056L22.8934 21.04C22.9473 21.0179 22.9963 20.9853 23.0374 20.944" stroke="#FEDF00" stroke-width="0.0533333"/>
<path d="M22.6534 20.7253H22.6961C22.7761 20.7093 22.7868 20.7573 22.8401 20.7893C22.9414 20.8427 22.9521 20.912 23.0694 20.9707L23.0908 20.976L23.1334 20.9973M22.4614 20.96C22.6481 20.912 22.7761 20.8213 22.8668 20.8053L22.4614 20.96Z" stroke="#FEDF00" stroke-width="0.0533333" stroke-linecap="round"/>
<path d="M20.6106 20.24H20.6479L20.6906 20.2293C20.7066 20.2293 20.7173 20.2293 20.7279 20.24C20.7386 20.24 20.7386 20.2453 20.7439 20.256C20.7439 20.2666 20.7546 20.272 20.7493 20.2826C20.7493 20.2933 20.7333 20.304 20.7173 20.304C20.7066 20.304 20.6959 20.304 20.6906 20.288C20.6891 20.2846 20.6884 20.281 20.6884 20.2773C20.6884 20.2736 20.6891 20.27 20.6906 20.2666C20.6832 20.2704 20.6749 20.2723 20.6666 20.2723C20.6583 20.2723 20.65 20.2704 20.6426 20.2666C20.6357 20.2646 20.6294 20.2611 20.6239 20.2566C20.6184 20.252 20.6139 20.2463 20.6106 20.24Z" fill="#FCD900" stroke="#FEDF00" stroke-width="0.0266667"/>
<path d="M21.0053 20.7573L20.8987 20.7093C20.92 20.6986 20.936 20.6986 20.952 20.6826C20.968 20.6613 20.968 20.64 20.9787 20.6133C20.9893 20.5866 20.9893 20.56 21.016 20.5386C21.032 20.528 21.0587 20.528 21.0747 20.5333C21.096 20.5333 21.1173 20.5546 21.1227 20.5706C21.1227 20.6026 21.112 20.624 21.1067 20.6506C21.1067 20.6826 21.0907 20.6986 21.096 20.7253C21.096 20.7466 21.1067 20.7573 21.1173 20.7786L21.0107 20.7573H21.0053ZM20.952 20.8106C20.9511 20.8044 20.952 20.7981 20.9546 20.7924C20.9573 20.7866 20.9615 20.7818 20.9669 20.7786C20.9722 20.7753 20.9785 20.7736 20.9847 20.7738C20.991 20.7741 20.9971 20.7761 21.0022 20.7798C21.0074 20.7834 21.0113 20.7885 21.0135 20.7944C21.0158 20.8003 21.0162 20.8067 21.0149 20.8128C21.0135 20.819 21.0103 20.8246 21.0058 20.8289C21.0013 20.8333 20.9955 20.8362 20.9893 20.8373C20.9847 20.8381 20.98 20.8378 20.9754 20.8366C20.9709 20.8353 20.9667 20.8331 20.9632 20.8301C20.9596 20.827 20.9568 20.8232 20.9548 20.8189C20.9529 20.8146 20.9519 20.81 20.952 20.8053V20.8106ZM20.8613 19.9253H20.8507C20.8293 19.904 20.8293 19.8826 20.8187 19.8613C20.81 19.8409 20.8047 19.8193 20.8027 19.7973V19.6906C20.8027 19.6746 20.8027 19.6586 20.792 19.6426C20.792 19.632 20.7707 19.6266 20.776 19.6213C20.776 19.616 20.792 19.6213 20.7973 19.6213C20.8187 19.6213 20.8293 19.6266 20.8507 19.6426C20.8667 19.6586 20.8773 19.6746 20.8827 19.696L20.904 19.776L20.92 19.8186L20.9467 19.8506L20.9093 19.8933L20.8613 19.9253ZM21.0533 20.4906L21.1707 20.544C21.251 20.4956 21.3157 20.4253 21.3573 20.3413C21.4053 20.2453 21.4107 20.1973 21.432 20.1066L21.336 20.08H21.3147C21.288 20.176 21.2773 20.224 21.2293 20.304C21.1867 20.3733 21.1387 20.4266 21.0907 20.464L21.0533 20.4906ZM21.32 21.4613L21.3627 21.392L21.4373 21.3333H21.4587C21.458 21.3842 21.449 21.4347 21.432 21.4826L21.4107 21.536L21.384 21.5626C21.3573 21.52 21.3147 21.4933 21.3147 21.456L21.32 21.4613ZM23.08 21.5573L23.1547 21.5893L23.2347 21.6373V21.664L23.1547 21.6746C23.1316 21.6764 23.1084 21.6764 23.0853 21.6746H23.032L23 21.6533C23.0267 21.616 23.0427 21.568 23.0747 21.5573H23.08ZM22.5573 21.4506L22.632 21.4773L22.712 21.5306C22.712 21.536 22.7173 21.5466 22.712 21.552C22.6651 21.5646 22.6165 21.57 22.568 21.568L22.5147 21.5626L22.4773 21.5466C22.5093 21.5093 22.5253 21.456 22.5573 21.4506ZM21.6293 21.5626L21.7093 21.5893L21.7893 21.6426V21.6693C21.7404 21.6807 21.69 21.6843 21.64 21.68H21.5867L21.5547 21.6586C21.5813 21.6213 21.5973 21.5733 21.6293 21.5626ZM21.1493 19.9733C21.1173 19.9573 21.096 19.92 21.1173 19.888C21.1227 19.8773 21.1387 19.8773 21.1493 19.8666C21.16 19.8506 21.1547 19.84 21.1493 19.824L21.144 19.7706L21.1333 19.7173C21.1333 19.6853 21.1333 19.664 21.1547 19.632C21.1653 19.616 21.192 19.6 21.1973 19.6C21.208 19.6053 21.1973 19.6266 21.1973 19.6426C21.1973 19.6693 21.2027 19.68 21.2133 19.7066L21.2507 19.776C21.2613 19.808 21.272 19.8186 21.272 19.8506C21.272 19.8773 21.272 19.888 21.2613 19.9146C21.2545 19.9313 21.2434 19.946 21.2293 19.9573C21.2169 19.9676 21.2023 19.9748 21.1867 19.9786C21.1762 19.9816 21.1651 19.9816 21.1547 19.9786L21.1493 19.9733Z" fill="#0065BD"/>
<path d="M15.0083 14.625H19.3916V19H15.0083V14.625ZM19.8583 14.625H24.2416V19H19.8583V14.625ZM15.025 22.7917C15.0333 22.875 15.0666 23.0083 15.1416 23.15C15.225 23.275 15.1916 23.2667 15.3666 23.4667C15.4639 23.5647 15.5765 23.6464 15.7 23.7083C16.0938 23.8779 16.5221 23.9521 16.95 23.925C17.175 23.9167 17.35 23.8917 17.5 23.8667C17.8038 23.8263 18.1102 23.8096 18.4166 23.8167C18.5416 23.8167 18.6666 23.8417 18.8083 23.8667C19.1 23.925 19.3916 24.0333 19.3916 24.0333V19.475H15.0083V22.5833L15.025 22.7833V22.7917ZM24.225 22.7917C24.2073 22.917 24.1678 23.0383 24.1083 23.15C24.025 23.275 24.0583 23.2667 23.8833 23.4667C23.7859 23.5646 23.6734 23.6462 23.55 23.7083C23.4416 23.7667 23.3583 23.7917 23.1833 23.8417C22.8954 23.9177 22.597 23.9458 22.3 23.925C22.075 23.9167 21.9 23.8833 21.7583 23.8667C21.5593 23.8398 21.359 23.8231 21.1583 23.8167C21.05 23.8114 20.9416 23.8114 20.8333 23.8167C20.7083 23.8167 20.5833 23.8417 20.4416 23.8667C20.15 23.925 19.8583 24.0333 19.8583 24.0333V19.4667H24.25V22.5917L24.2333 22.7917H24.225Z" stroke="#703D29" stroke-width="0.0416667"/>
</g>
</g>
<defs>
<clipPath id="clip0_769_5841">
<path d="M0 20C0 8.95431 8.95431 0 20 0C31.0457 0 40 8.95431 40 20C40 31.0457 31.0457 40 20 40C8.95431 40 0 31.0457 0 20Z" fill="white"/>
</clipPath>
<clipPath id="clip1_769_5841">
<rect width="53.3333" height="40" fill="white" transform="translate(-7)"/>
</clipPath>
</defs>
</svg>
