<svg width="40" height="40" viewBox="0 0 40 40" fill="none" xmlns="http://www.w3.org/2000/svg">
<g clip-path="url(#clip0_769_6937)">
<path d="M0 20C0 8.95431 8.95431 0 20 0C31.0457 0 40 8.95431 40 20C40 31.0457 31.0457 40 20 40C8.95431 40 0 31.0457 0 20Z" fill="#E94E0F"/>
<g clip-path="url(#clip1_769_6937)">
<path fill-rule="evenodd" clip-rule="evenodd" d="M-7 0H46.3333V20.3H-7V0Z" fill="#FF0000"/>
<path fill-rule="evenodd" clip-rule="evenodd" d="M-7 19.7H46.3333V40H-7V19.7Z" fill="black"/>
<path fill-rule="evenodd" clip-rule="evenodd" d="M12.0583 12.35C25.825 15.9583 16.975 33.65 6.11663 26.2833L5.3833 27.4167C11.775 31.9667 18.1 28.3 19.8833 23.55C21.7333 18.65 19.25 11.7583 12.1666 11.05L12.0583 12.35Z" fill="#FFEC00"/>
<path fill-rule="evenodd" clip-rule="evenodd" d="M7.16665 27.5667L8.97498 28.4083L8.12498 30.225L6.31665 29.375L7.16665 27.5667ZM19.5833 19.275H21.5833V21.275H19.5833V19.275ZM18.6083 16.0333L20.4667 15.3167L21.1916 17.175L19.3333 17.9L18.6083 16.0333ZM16.4416 13.6083L17.8666 12.2L19.275 13.6167L17.8583 15.025L16.4416 13.6083ZM14.2583 10.2917L16.125 10.9917L15.4167 12.8583L13.55 12.1583L14.2583 10.2917ZM19.3333 22.5L21.1916 23.2417L20.4416 25.0917L18.5917 24.35L19.3333 22.5ZM13.5083 28.3333L15.3417 27.5583L16.1333 29.3917L14.3 30.175L13.5083 28.3333ZM10.2167 28.5667H12.2167V30.5667H10.2167V28.5667ZM13.6583 18.9L11.9667 17.65L10.275 18.8667L10.9417 16.95L9.24998 15.7H11.2917L12 13.8167L12.65 15.7083L14.7083 15.6833L13.075 16.9583L13.6583 18.9083V18.9Z" fill="#FFEC00"/>
<path fill-rule="evenodd" clip-rule="evenodd" d="M21 28.8667C20.9 28.9 20.4833 29.9 20.1917 30.3833L20.5 30.4667C21.6333 30.8667 22.2 31.2333 22.6833 31.925C22.7951 32.0339 22.9419 32.0995 23.0976 32.1102C23.2533 32.1209 23.4077 32.0759 23.5333 31.9833C23.5333 31.9833 23.7667 31.9 24.0667 31.5667C24.3167 31.1917 24.25 30.9 23.95 30.6417C23.0333 29.975 22.0417 29.475 21 28.8667Z" fill="#FFEE00"/>
<path fill-rule="evenodd" clip-rule="evenodd" d="M23.4417 31.0667C23.4417 31.1628 23.4035 31.255 23.3355 31.323C23.2675 31.391 23.1753 31.4292 23.0792 31.4292C22.983 31.4292 22.8908 31.391 22.8229 31.323C22.7549 31.255 22.7167 31.1628 22.7167 31.0667C22.7167 30.9716 22.7544 30.8805 22.8216 30.8133C22.8888 30.7461 22.98 30.7083 23.075 30.7083C23.1701 30.7083 23.2612 30.7461 23.3284 30.8133C23.3956 30.8805 23.4333 30.9716 23.4333 31.0667H23.4417ZM21.6583 29.9333C21.6583 30.0295 21.6202 30.1217 21.5522 30.1897C21.4842 30.2576 21.392 30.2958 21.2958 30.2958C21.1997 30.2958 21.1075 30.2576 21.0395 30.1897C20.9715 30.1217 20.9333 30.0295 20.9333 29.9333C20.9333 29.8372 20.9715 29.745 21.0395 29.677C21.1075 29.609 21.1997 29.5708 21.2958 29.5708C21.392 29.5708 21.4842 29.609 21.5522 29.677C21.6202 29.745 21.6583 29.8372 21.6583 29.9333ZM22.5667 30.5167C22.5667 30.6128 22.5285 30.705 22.4605 30.773C22.3925 30.841 22.3003 30.8792 22.2042 30.8792C22.108 30.8792 22.0158 30.841 21.9479 30.773C21.8799 30.705 21.8417 30.6128 21.8417 30.5167C21.8417 30.4205 21.8799 30.3283 21.9479 30.2603C22.0158 30.1924 22.108 30.1542 22.2042 30.1542C22.3003 30.1542 22.3925 30.1924 22.4605 30.2603C22.5285 30.3283 22.5667 30.4205 22.5667 30.5167Z" fill="black"/>
<path fill-rule="evenodd" clip-rule="evenodd" d="M20.0416 30.3083C16.4916 28.2833 12.7666 26.1 9.20831 24.075C7.64998 23.1 7.57498 21.2917 8.62498 19.9167C8.72498 19.725 8.85831 19.7667 8.90831 19.875C9.03331 20.5417 9.40831 21.2333 9.85831 21.6667C13.5518 23.99 17.2105 26.368 20.8333 28.8C20.55 29.2833 20.3333 29.825 20.0416 30.3V30.3083Z" fill="#FFEE00"/>
<path fill-rule="evenodd" clip-rule="evenodd" d="M17.7667 25.4583L19.25 26.7917L17.9167 28.275L16.4333 26.9417L17.7667 25.4583Z" fill="#FFEC00"/>
<path d="M17.3499 28.9L13.7749 26.8333M20.6249 29.0667L10.2083 22.775L20.6249 29.0667ZM19.3416 27.6167L15.8333 25.3417L19.3416 27.6167Z" stroke="black" stroke-width="0.25"/>
</g>
</g>
<defs>
<clipPath id="clip0_769_6937">
<path d="M0 20C0 8.95431 8.95431 0 20 0C31.0457 0 40 8.95431 40 20C40 31.0457 31.0457 40 20 40C8.95431 40 0 31.0457 0 20Z" fill="white"/>
</clipPath>
<clipPath id="clip1_769_6937">
<rect width="53.3333" height="40" fill="white" transform="translate(-7)"/>
</clipPath>
</defs>
</svg>
