<svg width="40" height="40" viewBox="0 0 40 40" fill="none" xmlns="http://www.w3.org/2000/svg">
<g clip-path="url(#clip0_769_6159)">
<path d="M0 20C0 8.95431 8.95431 0 20 0C31.0457 0 40 8.95431 40 20C40 31.0457 31.0457 40 20 40C8.95431 40 0 31.0457 0 20Z" fill="#E94E0F"/>
<g clip-path="url(#clip1_769_6159)">
<path d="M-7 0H46.3333V40H-7V0Z" fill="#012169"/>
<path d="M33.3584 15.0333L33.5251 15.2L33.3584 15.0333Z" fill="#49497D"/>
<path d="M33.5249 15.0333L33.6916 15.2L33.5249 15.0333Z" fill="#0E0E6E"/>
<path d="M33.0166 15.2L33.1833 15.3667L33.0166 15.2Z" fill="#262678"/>
<path d="M33.1917 15.2L33.3583 15.3667L33.1917 15.2Z" fill="#808067"/>
<path d="M33.6917 15.2L33.8583 15.3667L33.6917 15.2Z" fill="#58587B"/>
<path d="M27.4333 15.375L27.6 15.5417L27.4333 15.375Z" fill="#0E0E6E"/>
<path d="M32.6833 15.375L32.85 15.5417L32.6833 15.375Z" fill="#1B1B74"/>
<path d="M32.8501 15.375L33.0168 15.5417L32.8501 15.375Z" fill="#6E6C70"/>
<path d="M27.7332 15.6667C27.7332 20.05 27.2332 24.975 30.4832 28.4C31.1499 29.1 32.4332 30.7083 33.5249 30.65C34.6666 30.5833 36.1416 28.8917 36.7916 28.0667C39.6249 24.3333 39.1832 19.8833 39.2749 15.55C37.9999 16.125 37.3583 16.3167 36.2416 16.3C35.4083 16.3833 34.1332 15.8417 33.3666 15.4667C32.8666 15.8 32.1416 16.2083 30.8332 16.25C29.3332 16.3167 28.8499 16.0583 27.7332 15.6667Z" fill="#CCCC33"/>
<path d="M33.8667 15.375L34.0334 15.5417L33.8667 15.375Z" fill="#99994E"/>
<path d="M34.0332 15.375L34.1999 15.5417L34.0332 15.375Z" fill="#49497D"/>
<path d="M39.2749 15.375L39.4416 15.5417L39.2749 15.375Z" fill="#0E0E6E"/>
<path d="M27.6084 15.5417L27.7751 15.7083L27.6084 15.5417Z" fill="#A4A43D"/>
<path d="M27.7749 15.5417L27.9416 15.7083L27.7749 15.5417Z" fill="#6E6C70"/>
<path d="M27.9417 15.5417L28.1083 15.7083L27.9417 15.5417Z" fill="#3A3A7C"/>
<path d="M32.3333 15.5417L32.4999 15.7083L32.3333 15.5417Z" fill="#1B1B74"/>
<path d="M32.5 15.5417L32.6667 15.7083L32.5 15.5417Z" fill="#6E6C70"/>
<path d="M32.6833 15.5417L32.85 15.7083L32.6833 15.5417Z" fill="#A4A43D"/>
<path d="M33.3584 15.5417L33.5251 15.7083L33.3584 15.5417Z" fill="#D0D045"/>
<path d="M34.0332 15.5417L34.1999 15.7083L34.0332 15.5417Z" fill="#A4A43D"/>
<path d="M34.2 15.5417L34.3666 15.7083L34.2 15.5417Z" fill="#8D8D5B"/>
<path d="M34.375 15.5417L34.5417 15.7083L34.375 15.5417Z" fill="#3A3A7C"/>
<path d="M38.7666 15.5417L38.9333 15.7083L38.7666 15.5417Z" fill="#262678"/>
<path d="M38.9417 15.5417L39.1083 15.7083L38.9417 15.5417Z" fill="#53527C"/>
<path d="M39.1084 15.5417L39.2751 15.7083L39.1084 15.5417Z" fill="#8D8D5B"/>
<path d="M28.2832 15.7167L28.4499 15.8833L28.2832 15.7167Z" fill="#737370"/>
<path d="M28.45 15.7167L28.6166 15.8833L28.45 15.7167Z" fill="#53527C"/>
<path d="M28.6167 15.7167L28.7834 15.8833L28.6167 15.7167Z" fill="#1B1B74"/>
<path d="M32 15.7167L32.1667 15.8833L32 15.7167Z" fill="#262678"/>
<path d="M32.1667 15.7167L32.3334 15.8833L32.1667 15.7167Z" fill="#6E6C70"/>
<path d="M32.3333 15.7167L32.4999 15.8833L32.3333 15.7167Z" fill="#A4A43D"/>
<path d="M33.1917 15.7167L33.3583 15.8833L33.1917 15.7167Z" fill="#E5E59D"/>
<path d="M28.075 16.15C27.9917 18.45 28.0583 21.0333 28.4083 23.4833C28.8167 24.775 28.7584 25.4833 29.35 26.25L37.6 26.1833C38.1 25.375 38.475 24.15 38.5167 23.6583C38.9833 21.1833 38.9917 18.4417 39.0083 15.9917C38.1009 16.4907 37.0644 16.7056 36.0334 16.6083C35.1379 16.5545 34.2675 16.292 33.4917 15.8417C32.7 16.3083 32.425 16.525 31.125 16.5833C30.1084 16.6333 29.2917 16.7167 28.075 16.15Z" fill="white"/>
<path d="M33.5249 15.7167L33.6916 15.8833L33.5249 15.7167Z" fill="#F2F1D7"/>
<path d="M33.6917 15.7167L33.8583 15.8833L33.6917 15.7167Z" fill="#D9D868"/>
<path d="M34.375 15.7167L34.5417 15.8833L34.375 15.7167Z" fill="#A4A43D"/>
<path d="M34.5417 15.7167L34.7084 15.8833L34.5417 15.7167Z" fill="#99994E"/>
<path d="M34.7083 15.7167L34.8749 15.8833L34.7083 15.7167Z" fill="#49497D"/>
<path d="M34.875 15.7167L35.0417 15.8833L34.875 15.7167Z" fill="#0E0E6E"/>
<path d="M38.2666 15.7167L38.4333 15.8833L38.2666 15.7167Z" fill="#3A3A7C"/>
<path d="M38.4333 15.7167L38.6 15.8833L38.4333 15.7167Z" fill="#666677"/>
<path d="M38.6001 15.7167L38.7668 15.8833L38.6001 15.7167Z" fill="#99994E"/>
<path d="M38.7667 15.7167L38.9334 15.8833L38.7667 15.7167ZM28.6167 15.8833L28.7834 16.05L28.6167 15.8833Z" fill="#A4A43D"/>
<path d="M28.7917 15.8833L28.9584 16.05L28.7917 15.8833Z" fill="#99994E"/>
<path d="M28.9583 15.8833L29.1249 16.05L28.9583 15.8833Z" fill="#6E6C70"/>
<path d="M29.125 15.8833L29.2917 16.05L29.125 15.8833Z" fill="#49497D"/>
<path d="M29.2917 15.8833L29.4584 16.05L29.2917 15.8833ZM31.4917 15.8833L31.6584 16.05L31.4917 15.8833Z" fill="#1B1B74"/>
<path d="M31.6582 15.8833L31.8249 16.05L31.6582 15.8833Z" fill="#53527C"/>
<path d="M31.8333 15.8833L31.9999 16.05L31.8333 15.8833Z" fill="#8D8D5B"/>
<path d="M32 15.8833L32.1667 16.05L32 15.8833Z" fill="#A4A43D"/>
<path d="M32.8501 15.8833L33.0168 16.05L32.8501 15.8833Z" fill="#E5E59D"/>
<path d="M33.0166 15.8833L33.1833 16.05L33.0166 15.8833Z" fill="#FBFAF2"/>
<path d="M33.8667 15.8833L34.0334 16.05L33.8667 15.8833Z" fill="#F2F1D2"/>
<path d="M34.0332 15.8833L34.1999 16.05L34.0332 15.8833Z" fill="#D9D868"/>
<path d="M34.875 15.8833L35.0417 16.05L34.875 15.8833Z" fill="#A4A43D"/>
<path d="M35.05 15.8833L35.2167 16.05L35.05 15.8833Z" fill="#6E6C70"/>
<path d="M35.2168 15.8833L35.3835 16.05L35.2168 15.8833Z" fill="#3A3A7C"/>
<path d="M37.4167 15.8833L37.5834 16.05L37.4167 15.8833Z" fill="#0E0E6E"/>
<path d="M37.5833 15.8833L37.7499 16.05L37.5833 15.8833Z" fill="#32327B"/>
<path d="M37.75 15.8833L37.9167 16.05L37.75 15.8833Z" fill="#58587B"/>
<path d="M37.9167 15.8833L38.0834 16.05L37.9167 15.8833Z" fill="#808067"/>
<path d="M38.2083 15.9333L38.3166 15.9917L38.2083 15.9333Z" fill="#A4A43D"/>
<path d="M27.9417 16.05L28.1083 16.2167L27.9417 16.05Z" fill="#DDDC7A"/>
<path d="M28.1084 16.05L28.2751 16.2167L28.1084 16.05Z" fill="#D0D045"/>
<path d="M29.4082 16.1L29.5249 16.1583L29.4082 16.1Z" fill="#A4A43D"/>
<path d="M29.6333 16.05L29.8 16.2167L29.6333 16.05Z" fill="#808067"/>
<path d="M29.8 16.05L29.9667 16.2167L29.8 16.05Z" fill="#666677"/>
<path d="M29.9751 16.05L30.1418 16.2167L29.9751 16.05Z" fill="#58587B"/>
<path d="M30.1416 16.05L30.3083 16.2167L30.1416 16.05Z" fill="#49497D"/>
<path d="M31.1582 16.05L31.3249 16.2167L31.1582 16.05Z" fill="#737370"/>
<path d="M31.325 16.05L31.4916 16.2167L31.325 16.05Z" fill="#99994E"/>
<path d="M31.4917 16.05L31.6584 16.2167L31.4917 16.05Z" fill="#A4A43D"/>
<path d="M32.5 16.05L32.6667 16.2167L32.5 16.05Z" fill="#E5E59D"/>
<path d="M32.6833 16.05L32.85 16.2167L32.6833 16.05Z" fill="#FBFAF2"/>
<path d="M34.2 16.05L34.3666 16.2167L34.2 16.05Z" fill="#F2F1D2"/>
<path d="M34.375 16.05L34.5417 16.2167L34.375 16.05Z" fill="#D9D868"/>
<path d="M35.325 16.1L35.4416 16.1583L35.3333 16.1H35.325Z" fill="#A4A43D"/>
<path d="M35.5583 16.05L35.725 16.2167L35.5583 16.05Z" fill="#808067"/>
<path d="M35.7251 16.05L35.8918 16.2167L35.7251 16.05Z" fill="#666677"/>
<path d="M35.8916 16.05L36.0583 16.2167L35.8916 16.05Z" fill="#58587B"/>
<path d="M36.0667 16.05L36.2333 16.2167L36.0667 16.05Z" fill="#3A3A7C"/>
<path d="M36.8501 16.1L36.9668 16.1583L36.8501 16.1Z" fill="#58587B"/>
<path d="M37.075 16.05L37.2416 16.2167L37.075 16.05Z" fill="#737370"/>
<path d="M37.2417 16.05L37.4084 16.2167L37.2417 16.05Z" fill="#99994E"/>
<path d="M37.4167 16.05L37.5834 16.2167L37.4167 16.05Z" fill="#A4A43D"/>
<path d="M38.7666 16.05L38.9333 16.2167L38.7666 16.05Z" fill="#DDDC7A"/>
<path d="M38.9417 16.05L39.1083 16.2167L38.9417 16.05Z" fill="#D0D045"/>
<path d="M28.2832 16.2167L28.4499 16.3833L28.2832 16.2167Z" fill="#F2F1D7"/>
<path d="M28.45 16.2167L28.6166 16.3833L28.45 16.2167Z" fill="#E0DEA1"/>
<path d="M28.6167 16.2167L28.7834 16.3833L28.6167 16.2167Z" fill="#DDDC7A"/>
<path d="M32 16.2167L32.1667 16.3833L32 16.2167Z" fill="#D9D868"/>
<path d="M32.1667 16.2167L32.3334 16.3833L32.1667 16.2167Z" fill="#E5E3AF"/>
<path d="M34.5417 16.2167L34.7084 16.3833L34.5417 16.2167Z" fill="#F6F6E4"/>
<path d="M34.7083 16.2167L34.8749 16.3833L34.7083 16.2167Z" fill="#E1E18C"/>
<path d="M38.0833 16.2167L38.2499 16.3833L38.0833 16.2167Z" fill="#D4D456"/>
<path d="M38.2666 16.2167L38.4333 16.3833L38.2666 16.2167Z" fill="#E1E18C"/>
<path d="M38.4333 16.2167L38.6 16.3833L38.4333 16.2167Z" fill="#EEEDC1"/>
<path d="M28.9583 16.3833L29.1249 16.55L28.9583 16.3833Z" fill="#F2F1D2"/>
<path d="M29.125 16.3833L29.2917 16.55L29.125 16.3833Z" fill="#E0DEA1"/>
<path d="M29.2917 16.3833L29.4584 16.55L29.2917 16.3833Z" fill="#DDDC7A"/>
<path d="M29.4668 16.3833L29.6335 16.55L29.4668 16.3833Z" fill="#D0D045"/>
<path d="M31.4917 16.3833L31.6584 16.55L31.4917 16.3833Z" fill="#DDDC7A"/>
<path d="M31.6582 16.3833L31.8249 16.55L31.6582 16.3833Z" fill="#E5E3AF"/>
<path d="M31.8333 16.3833L31.9999 16.55L31.8333 16.3833Z" fill="#F6F6E4"/>
<path d="M35.05 16.3833L35.2167 16.55L35.05 16.3833Z" fill="#EEEDC1"/>
<path d="M35.2168 16.3833L35.3835 16.55L35.2168 16.3833Z" fill="#E1E18C"/>
<path d="M35.3833 16.3833L35.55 16.55L35.3833 16.3833Z" fill="#D4D456"/>
<path d="M37.4167 16.3833L37.5834 16.55L37.4167 16.3833Z" fill="#D9D868"/>
<path d="M37.5833 16.3833L37.7499 16.55L37.5833 16.3833Z" fill="#E1E18C"/>
<path d="M37.75 16.3833L37.9167 16.55L37.75 16.3833Z" fill="#EEEDC1"/>
<path d="M37.9167 16.3833L38.0834 16.55L37.9167 16.3833Z" fill="#F6F6E4"/>
<path d="M29.8 16.55L29.9667 16.7167L29.8 16.55Z" fill="#F2F1D7"/>
<path d="M29.9751 16.55L30.1418 16.7167L29.9751 16.55Z" fill="#F2F1D2"/>
<path d="M30.1416 16.55L30.3083 16.7167L30.1416 16.55Z" fill="#EEEDC1"/>
<path d="M30.9333 16.6083L31.0417 16.6667L30.9333 16.6083Z" fill="#F2F1D2"/>
<path d="M31.1582 16.55L31.3249 16.7167L31.1582 16.55Z" fill="#FBFAF2"/>
<path d="M32 16.55L32.3333 16.8833V16.55H32Z" fill="#FEF8F1"/>
<path d="M35.7251 16.55L35.8918 16.7167L35.7251 16.55Z" fill="#F2F1D7"/>
<path d="M35.8916 16.55L36.0583 16.7167L35.8916 16.55Z" fill="#F2F1D2"/>
<path d="M36.0667 16.55L36.2333 16.7167L36.0667 16.55Z" fill="#E5E3AF"/>
<path d="M36.3501 16.6083L36.4585 16.6667L36.3418 16.6083H36.3501Z" fill="#E5E59D"/>
<path d="M36.575 16.55L36.7416 16.7167L36.575 16.55Z" fill="#E0DEA1"/>
<path d="M36.8501 16.6083L36.9668 16.6667L36.8501 16.6083Z" fill="#F2F1D2"/>
<path d="M37.075 16.55L37.2416 16.7167L37.075 16.55Z" fill="#FBFAF2"/>
<path d="M31.6582 16.725L31.8249 16.8917L31.6582 16.725Z" fill="#FEF8F1"/>
<path d="M31.8333 16.725L31.9999 16.8917L31.8333 16.725Z" fill="#FBBE66"/>
<path d="M31.6582 16.8917L31.8249 17.0583L31.6582 16.8917Z" fill="#FBC477"/>
<path d="M32 16.8917L32.1667 17.0583L32 16.8917Z" fill="#FCB144"/>
<path d="M31.6582 17.0667L31.8249 17.2333L31.6582 17.0667Z" fill="#FE9F11"/>
<path d="M32 17.0667L32.1667 17.2333L32 17.0667Z" fill="#FEA522"/>
<path d="M31.4917 17.2333L31.6584 17.4L31.4917 17.2333ZM32.175 17.2333L32.3417 17.4L32.175 17.2333Z" fill="#FAE3C9"/>
<path d="M33.0166 17.2333L33.1833 17.4L33.0166 17.2333Z" fill="#FBEAD6"/>
<path d="M33.1917 17.2333L33.3583 17.4L33.1917 17.2333Z" fill="#F9D6AA"/>
<path d="M33.8667 17.2333L34.0334 17.4L33.8667 17.2333Z" fill="#FAE3C9"/>
<path d="M34.0332 17.2333L34.1999 17.4L34.0332 17.2333Z" fill="#FEF8F1"/>
<path d="M31.4917 17.4L31.6584 17.5667L31.4917 17.4Z" fill="#F9D099"/>
<path d="M32.1667 17.4L32.3334 17.5667L32.1667 17.4Z" fill="#FDAB33"/>
<path d="M32.5 17.4L32.6667 17.5667L32.5 17.4Z" fill="#FCF1E4"/>
<path d="M32.6833 17.4L32.85 17.5667L32.6833 17.4Z" fill="#FBC477"/>
<path d="M32.8501 17.4L33.0168 17.5667L32.8501 17.4Z" fill="#FEA522"/>
<path d="M34.2 17.4L34.3666 17.5667L34.2 17.4Z" fill="#FCB755"/>
<path d="M34.375 17.4L34.5417 17.5667L34.375 17.4Z" fill="#F9D6AA"/>
<path d="M31.4917 17.575L31.6584 17.7417L31.4917 17.575Z" fill="#FACA88"/>
<path d="M32.3333 17.575L32.4999 17.7417L32.3333 17.575ZM34.5416 17.575L34.7083 17.7417L34.5416 17.575Z" fill="#FEA522"/>
<path d="M34.7083 17.575L34.8749 17.7417L34.7083 17.575Z" fill="#F8DCBB"/>
<path d="M27.9417 17.7417L28.1083 17.9083L27.9417 17.7417Z" fill="#F6F6E4"/>
<path d="M31.4917 17.7417L31.6584 17.9083L31.4917 17.7417Z" fill="#FBC477"/>
<path d="M34.875 17.7417L35.0417 17.9083L34.875 17.7417Z" fill="#FBBE66"/>
<path d="M35.05 17.7417L35.2167 17.9083L35.05 17.7417Z" fill="#F8DCBB"/>
<path d="M31.4917 17.9083L31.6584 18.075L31.4917 17.9083Z" fill="#FACA88"/>
<path d="M35.3833 17.9083L35.55 18.075L35.3833 17.9083Z" fill="#FCB755"/>
<path d="M35.5583 17.9083L35.725 18.075L35.5583 17.9083Z" fill="#F8DCBB"/>
<path d="M31.325 18.0833L31.4916 18.25L31.325 18.0833Z" fill="#FEF8F1"/>
<path d="M31.4917 18.0833L31.6584 18.25L31.4917 18.0833Z" fill="#FE9F11"/>
<path d="M36.2334 18.0833L36.4001 18.25L36.2334 18.0833Z" fill="#FDAB33"/>
<path d="M36.4082 18.0833L36.5749 18.25L36.4082 18.0833Z" fill="#FCB144"/>
<path d="M36.575 18.0833L36.7416 18.25L36.575 18.0833Z" fill="#FBC477"/>
<path d="M36.7417 18.0833L37.075 18.4167L36.7417 18.0833Z" fill="#F9D6AA"/>
<path d="M36.9082 18.0833L37.0749 18.25L36.9082 18.0833Z" fill="#FEF8F1"/>
<path d="M31.325 18.25L31.4916 18.4167L31.325 18.25Z" fill="#FCB144"/>
<path d="M33.6917 18.25L33.8583 18.4167L33.6917 18.25Z" fill="#FDAB33"/>
<path d="M33.8667 18.25L34.0334 18.4167L33.8667 18.25ZM34.5334 18.25L34.7 18.4167L34.5334 18.25Z" fill="#FBC477"/>
<path d="M34.7083 18.25L34.8749 18.4167L34.7083 18.25Z" fill="#FEA522"/>
<path d="M31.1582 18.4167L31.3249 18.5833L31.1582 18.4167Z" fill="#FAE3C9"/>
<path d="M33.3584 18.4167L33.5251 18.5833L33.3584 18.4167Z" fill="#FCB144"/>
<path d="M33.5249 18.4167L33.6916 18.5833L33.5249 18.4167Z" fill="#FAE3C9"/>
<path d="M34.875 18.4167L35.0417 18.5833L34.875 18.4167Z" fill="#F8DCBB"/>
<path d="M35.05 18.4167L35.2167 18.5833L35.05 18.4167Z" fill="#FDAB33"/>
<path d="M36.0667 18.4167L36.2333 18.5833L36.0667 18.4167Z" fill="#FE9F11"/>
<path d="M36.2334 18.4167L36.4001 18.5833L36.2334 18.4167Z" fill="#FCB755"/>
<path d="M36.4082 18.4167L36.5749 18.5833L36.4082 18.4167Z" fill="#F9D099"/>
<path d="M36.575 18.4167L36.7416 18.5833L36.575 18.4167Z" fill="#FBEAD6"/>
<path d="M31.1582 18.5833L31.3249 18.75L31.1582 18.5833Z" fill="#FCB144"/>
<path d="M33.1917 18.5833L33.3583 18.75L33.1917 18.5833Z" fill="#FBBE66"/>
<path d="M35.2168 18.5833L35.3835 18.75L35.2168 18.5833Z" fill="#F9D099"/>
<path d="M35.8916 18.5833L36.0583 18.75L35.8916 18.5833Z" fill="#FBEAD6"/>
<path d="M30.9917 18.75L31.1584 18.9167L30.9917 18.75Z" fill="#FCF1E4"/>
<path d="M33.0166 18.75L33.1833 18.9167L33.0166 18.75Z" fill="#FBBE66"/>
<path d="M35.3833 18.75L35.55 18.9167L35.3833 18.75Z" fill="#F9D099"/>
<path d="M35.8916 18.75L36.0583 18.9167L35.8916 18.75Z" fill="#FAE3C9"/>
<path d="M30.9917 18.9167L31.1584 19.0833L30.9917 18.9167Z" fill="#FBC477"/>
<path d="M32.8501 18.9167L33.0168 19.0833L32.8501 18.9167ZM35.5584 18.9167L35.7251 19.0833L35.5584 18.9167Z" fill="#FCB144"/>
<path d="M35.8916 18.9167L36.0583 19.0833L35.8916 18.9167Z" fill="#FBBE66"/>
<path d="M27.9417 19.0833L28.1083 19.25L27.9417 19.0833Z" fill="#F6F6E4"/>
<path d="M30.9917 19.0833L31.1584 19.25L30.9917 19.0833Z" fill="#FEA522"/>
<path d="M32.8501 19.0833L33.0168 19.25L32.8501 19.0833Z" fill="#FBEAD6"/>
<path d="M35.5583 19.0833L35.725 19.25L35.5583 19.0833Z" fill="#FCF1E4"/>
<path d="M36.0667 19.0833L36.2333 19.25L36.0667 19.0833Z" fill="#FEF8F1"/>
<path d="M30.825 19.2667L30.9916 19.4333L30.825 19.2667Z" fill="#FCF1E4"/>
<path d="M32.6833 19.2667L32.85 19.4333L32.6833 19.2667Z" fill="#FBBE66"/>
<path d="M35.7251 19.2667L35.8918 19.4333L35.7251 19.2667Z" fill="#FACA88"/>
<path d="M36.0667 19.2667L36.2333 19.4333L36.0667 19.2667Z" fill="#F9D099"/>
<path d="M30.825 19.4333L30.9916 19.6L30.825 19.4333Z" fill="#F9D6AA"/>
<path d="M32.6833 19.4333L32.85 19.6L32.6833 19.4333Z" fill="#FCF1E4"/>
<path d="M33.5249 19.4333L33.6916 19.6L33.5249 19.4333Z" fill="#FAE3C9"/>
<path d="M33.6917 19.4333L33.8583 19.6L33.6917 19.4333Z" fill="#FEA522"/>
<path d="M33.8667 19.4333L34.0334 19.6L33.8667 19.4333Z" fill="#FCB144"/>
<path d="M34.0332 19.4333L34.1999 19.6L34.0332 19.4333Z" fill="#F9D6AA"/>
<path d="M35.7251 19.4333L35.8918 19.6L35.7251 19.4333Z" fill="#FEF8F1"/>
<path d="M35.8916 19.4333L36.0583 19.6L35.8916 19.4333Z" fill="#FEA522"/>
<path d="M36.0667 19.4333L36.2333 19.6L36.0667 19.4333Z" fill="#FDAB33"/>
<path d="M30.8249 19.6L30.6499 20.1L30.8166 19.6H30.8249Z" fill="#FACA88"/>
<path d="M32.5 19.6L32.6667 19.7667L32.5 19.6Z" fill="#FEA522"/>
<path d="M32.6833 19.6L32.85 19.7667L32.6833 19.6Z" fill="#FEF8F1"/>
<path d="M33.5249 19.6L33.6916 19.7667L33.5249 19.6Z" fill="#F9D099"/>
<path d="M34.2 19.6L34.3666 19.7667L34.2 19.6Z" fill="#FDAB33"/>
<path d="M34.375 19.6L34.5417 19.7667L34.375 19.6Z" fill="#FAE3C9"/>
<path d="M35.8916 19.6L36.0583 19.7667L35.8916 19.6Z" fill="#F8DCBB"/>
<path d="M36.0667 19.6L36.2333 19.7667L36.0667 19.6Z" fill="#FF9900"/>
<path d="M36.2917 19.7167L36.3417 19.825L36.2917 19.7167Z" fill="#FBEAD6"/>
<path d="M32.8501 19.7667L33.0168 19.9333L32.8501 19.7667Z" fill="#FEA522"/>
<path d="M33.0166 19.7667L33.1833 19.9333L33.0166 19.7667Z" fill="#FBBE66"/>
<path d="M33.1917 19.7667L33.3583 19.9333L33.1917 19.7667Z" fill="#FACA88"/>
<path d="M33.3584 19.7667L33.5251 19.9333L33.3584 19.7667Z" fill="#FCB144"/>
<path d="M33.5249 19.7667L33.6916 19.9333L33.5249 19.7667Z" fill="#FAE3C9"/>
<path d="M33.6917 19.7667L33.8583 19.9333L33.6917 19.7667Z" fill="#FE9F11"/>
<path d="M34.5417 19.7667L34.7084 19.9333L34.5417 19.7667Z" fill="#FDAB33"/>
<path d="M34.7083 19.7667L34.8749 19.9333L34.7083 19.7667Z" fill="#FBC477"/>
<path d="M34.875 19.7667L35.0417 19.9333L34.875 19.7667Z" fill="#FACA88"/>
<path d="M35.05 19.7667L35.2167 19.9333L35.05 19.7667Z" fill="#F9D6AA"/>
<path d="M35.325 19.825L35.4416 19.8833L35.3333 19.825H35.325Z" fill="#FAE3C9"/>
<path d="M35.5583 19.7667L35.725 19.9333L35.5583 19.7667Z" fill="#FEF8F1"/>
<path d="M36.0667 19.7667L36.2333 19.9333L36.0667 19.7667Z" fill="#FBC477"/>
<path d="M28.7917 19.9417L28.9584 20.1083L28.7917 19.9417Z" fill="#FEF8F1"/>
<path d="M28.9583 19.9417L29.1249 20.1083L28.9583 19.9417Z" fill="#FCF1E4"/>
<path d="M33.3584 19.9417L33.5251 20.1083L33.3584 19.9417Z" fill="#FCB755"/>
<path d="M33.6917 19.9417L33.8583 20.1083L33.6917 19.9417Z" fill="#FBEAD6"/>
<path d="M33.8667 19.9417L34.0334 20.1083L33.8667 19.9417Z" fill="#FEA522"/>
<path d="M35.2168 19.9417L35.3835 20.1083L35.2168 19.9417Z" fill="#FE9F11"/>
<path d="M35.3835 19.9417L35.2168 20.275L35.3835 19.9417Z" fill="#FCB144"/>
<path d="M35.7251 19.9417L35.8918 20.1083L35.7251 19.9417Z" fill="#FE9F11"/>
<path d="M35.8916 19.9417L36.0583 20.1083L35.8916 19.9417Z" fill="#FBBE66"/>
<path d="M36.0667 19.9417L36.2333 20.1083L36.0667 19.9417Z" fill="#FCF1E4"/>
<path d="M28.7917 20.1083L28.9584 20.275L28.7917 20.1083Z" fill="#FAE3C9"/>
<path d="M28.9583 20.1083L29.2916 20.4417L28.9583 20.1083Z" fill="#FE9F11"/>
<path d="M29.125 20.1083L29.2917 20.275L29.125 20.1083ZM30.65 20.1083L30.8167 20.275L30.65 20.1083Z" fill="#FBEAD6"/>
<path d="M30.825 20.1083L30.9916 20.275L30.825 20.1083Z" fill="#FAE3C9"/>
<path d="M32.3333 20.1083L32.4999 20.275L32.3333 20.1083Z" fill="#FE9F11"/>
<path d="M32.5 20.1083L32.6667 20.275L32.5 20.1083Z" fill="#FBC477"/>
<path d="M32.6833 20.1083L32.85 20.275L32.6833 20.1083Z" fill="#FEA522"/>
<path d="M33.1917 20.1083L33.3583 20.275L33.1917 20.1083Z" fill="#FBC477"/>
<path d="M33.3584 20.1083L33.5251 20.275L33.3584 20.1083Z" fill="#FEF8F1"/>
<path d="M34.0332 20.1083L34.1999 20.275L34.0332 20.1083Z" fill="#FBC477"/>
<path d="M35.3833 20.1083L35.55 20.275L35.3833 20.1083Z" fill="white"/>
<path d="M35.5583 20.1083L35.725 20.275L35.5583 20.1083Z" fill="#FDAB33"/>
<path d="M36.2334 20.1083L36.4001 20.275L36.2334 20.1083Z" fill="#FBC477"/>
<path d="M28.7917 20.275L28.9584 20.4417L28.7917 20.275Z" fill="#FEF8F1"/>
<path d="M29.2917 20.275L29.4584 20.4417L29.2917 20.275Z" fill="#FBEAD6"/>
<path d="M30.1416 20.275L30.3083 20.4417L30.1416 20.275Z" fill="#F9D6AA"/>
<path d="M30.9917 20.275L31.1584 20.4417L30.9917 20.275Z" fill="#FE9F11"/>
<path d="M31.2666 20.3333L31.3833 20.3917L31.2666 20.3333Z" fill="#F9D6AA"/>
<path d="M32.3333 20.275L32.4999 20.4417L32.3333 20.275Z" fill="#F8DCBB"/>
<path d="M32.8501 20.275L33.0168 20.4417L32.8501 20.275Z" fill="#FCF1E4"/>
<path d="M34.2 20.275L34.3666 20.4417L34.2 20.275Z" fill="#F9D6AA"/>
<path d="M35.3833 20.275L35.55 20.4417L35.3833 20.275Z" fill="#FDAB33"/>
<path d="M36.4082 20.275L36.5749 20.4417L36.4082 20.275Z" fill="#FCB755"/>
<path d="M36.575 20.275L36.7416 20.4417L36.575 20.275Z" fill="#FEF8F1"/>
<path d="M27.4333 20.45L27.6 20.6167L27.4333 20.45Z" fill="#53527C"/>
<path d="M28.9583 20.45L29.1249 20.6167L28.9583 20.45Z" fill="#FCB755"/>
<path d="M29.2917 20.45L29.4584 20.6167L29.2917 20.45Z" fill="#FEA522"/>
<path d="M29.9751 20.45L30.1418 20.6167L29.9751 20.45Z" fill="#FBEAD6"/>
<path d="M30.3083 20.45L30.475 20.6167L30.3083 20.45Z" fill="#FE9F11"/>
<path d="M30.4834 20.45L30.6501 20.6167L30.4834 20.45Z" fill="#FCF1E4"/>
<path d="M30.9917 20.45L31.1584 20.6167L30.9917 20.45Z" fill="#FBBE66"/>
<path d="M31.1582 20.45L31.3249 20.6167L31.1582 20.45Z" fill="#FBC477"/>
<path d="M31.325 20.45L31.4916 20.6167L31.325 20.45Z" fill="#FBBE66"/>
<path d="M32.1667 20.45L32.3334 20.6167L32.1667 20.45Z" fill="#FEA522"/>
<path d="M34.375 20.45L34.5417 20.6167L34.375 20.45Z" fill="#F9D6AA"/>
<path d="M36.575 20.45L36.7416 20.6167L36.575 20.45Z" fill="#FCB144"/>
<path d="M39.2749 20.45L39.4416 20.6167L39.2749 20.45Z" fill="#8D8D5B"/>
<path d="M27.9417 20.6167L28.1083 20.7833L27.9417 20.6167Z" fill="#E5E3AF"/>
<path d="M28.9583 20.6167L29.1249 20.7833L28.9583 20.6167Z" fill="#F8DCBB"/>
<path d="M29.4668 20.6167L29.6335 20.7833L29.4668 20.6167Z" fill="#FDAB33"/>
<path d="M29.9751 20.6167L30.1418 20.7833L29.9751 20.6167Z" fill="#FE9F11"/>
<path d="M30.3083 20.6167L30.475 20.7833L30.3083 20.6167Z" fill="#FACA88"/>
<path d="M30.9917 20.6167L31.1584 20.7833L30.9917 20.6167Z" fill="#FCF1E4"/>
<path d="M32.1667 20.6167L32.3334 20.7833L32.1667 20.6167ZM34.5417 20.6167L34.7084 20.7833L34.5417 20.6167Z" fill="#F9D099"/>
<path d="M36.7417 20.6167L36.9084 20.7833L36.7417 20.6167Z" fill="#FBBE66"/>
<path d="M29.125 20.7833L29.2917 20.95L29.125 20.7833Z" fill="#FEA522"/>
<path d="M29.6333 20.7833L29.8 20.95L29.6333 20.7833Z" fill="#FDAB33"/>
<path d="M29.8 20.7833L29.9667 20.95L29.8 20.7833Z" fill="#FEA522"/>
<path d="M30.1416 20.7833L30.3083 20.95L30.1416 20.7833Z" fill="#FE9F11"/>
<path d="M30.3083 20.7833L30.475 20.95L30.3083 20.7833Z" fill="#FEF8F1"/>
<path d="M31.1582 20.7833L31.3249 20.95L31.1582 20.7833Z" fill="#FBBE66"/>
<path d="M32.1667 20.7833L32.3334 20.95L32.1667 20.7833Z" fill="#FEF8F1"/>
<path d="M34.7083 20.7833L34.8749 20.95L34.7083 20.7833Z" fill="#FBBE66"/>
<path d="M36.9082 20.7833L37.0749 20.95L36.9082 20.7833Z" fill="#F9D099"/>
<path d="M29.125 20.9583L29.2917 21.125L29.125 20.9583Z" fill="#F9D6AA"/>
<path d="M30.1416 20.9583L30.3083 21.125L30.1416 20.9583Z" fill="#F9D099"/>
<path d="M31.1582 20.9583L31.3249 21.125L31.1582 20.9583Z" fill="#FCF1E4"/>
<path d="M32 20.9583L32.1667 21.125L32 20.9583ZM34.875 20.9583L35.0417 21.125L34.875 20.9583Z" fill="#FDAB33"/>
<path d="M37.075 20.9583L37.2416 21.125L37.075 20.9583Z" fill="#FBEAD6"/>
<path d="M29.2917 21.125L29.4584 21.2917L29.2917 21.125Z" fill="#FEA522"/>
<path d="M29.9751 21.125L30.1418 21.2917L29.9751 21.125Z" fill="#FE9F11"/>
<path d="M31.325 21.125L31.4916 21.2917L31.325 21.125Z" fill="#FCB144"/>
<path d="M32 21.125L32.1667 21.2917L32 21.125Z" fill="#FACA88"/>
<path d="M34.875 21.125L35.0417 21.2917L34.875 21.125Z" fill="#F8DCBB"/>
<path d="M37.075 21.125L37.2416 21.2917L37.075 21.125Z" fill="#FCB144"/>
<path d="M27.9417 21.3L28.1083 21.4667L27.9417 21.3Z" fill="#D3D079"/>
<path d="M29.2917 21.3L29.4584 21.4667L29.2917 21.3ZM31.3251 21.3L31.4917 21.4667L31.3251 21.3Z" fill="#FACA88"/>
<path d="M32 21.3L32.1667 21.4667L32 21.3ZM34.875 21.3L35.0417 21.4667L34.875 21.3Z" fill="#FAE3C9"/>
<path d="M37.2417 21.3L37.4084 21.4667L37.2417 21.3Z" fill="#F8DCBB"/>
<path d="M38.7666 21.3L38.9333 21.4667L38.7666 21.3Z" fill="#F2F1D7"/>
<path d="M39.3333 21.4083L39.3916 21.5167L39.3333 21.4083Z" fill="#58587B"/>
<path d="M27.9917 21.575L28.0584 21.6917L28 21.575H27.9917Z" fill="#D9D868"/>
<path d="M29.2917 21.4667L29.4584 21.6333L29.2917 21.4667Z" fill="#F8DCBB"/>
<path d="M34.7083 21.4667L34.8749 21.6333L34.7083 21.4667Z" fill="#F9D6AA"/>
<path d="M34.875 21.4667L35.0417 21.6333L34.875 21.4667Z" fill="#FE9F11"/>
<path d="M37.2417 21.4667L37.4084 21.6333L37.2417 21.4667Z" fill="#FCB144"/>
<path d="M38.825 21.575L38.8833 21.6917L38.825 21.575Z" fill="#F2F1D2"/>
<path d="M29.2917 21.6333L29.4584 21.8L29.2917 21.6333Z" fill="#FCF1E4"/>
<path d="M34.5417 21.6333L34.7084 21.8L34.5417 21.6333Z" fill="#FEF8F1"/>
<path d="M34.7083 21.6333L34.8749 21.8L34.7083 21.6333Z" fill="#FE9F11"/>
<path d="M35.2167 21.6333L35.05 21.9667L35.2167 21.6333Z" fill="#FDAB33"/>
<path d="M35.3833 21.6333L35.55 21.8L35.3833 21.6333Z" fill="#FCB755"/>
<path d="M37.4167 21.6333L37.5834 21.8L37.4167 21.6333Z" fill="#FEA522"/>
<path d="M37.5833 21.6333L37.7499 21.8L37.5833 21.6333Z" fill="#F9D099"/>
<path d="M39.2749 21.6333L39.4416 21.8L39.2749 21.6333Z" fill="#53527C"/>
<path d="M27.6582 21.9167L27.7165 22.025L27.6582 21.9167Z" fill="#808067"/>
<path d="M29.4668 21.8L29.6335 21.9667L29.4668 21.8ZM29.9668 21.8L30.1335 21.9667L29.9668 21.8Z" fill="#FEA522"/>
<path d="M31.8333 21.8L31.9999 21.9667L31.8333 21.8Z" fill="#FE9F11"/>
<path d="M34.5417 21.8L34.7084 21.9667L34.5417 21.8Z" fill="#FAE3C9"/>
<path d="M35.2168 21.8L35.3835 21.9667L35.2168 21.8Z" fill="#FEF8F1"/>
<path d="M35.5583 21.8L35.725 21.9667L35.5583 21.8Z" fill="#FCB144"/>
<path d="M37.75 21.8L37.9167 21.9667L37.75 21.8Z" fill="#FCB755"/>
<path d="M37.9167 21.8L38.2501 22.1333L37.9167 21.8Z" fill="#FEF8F1"/>
<path d="M38.825 21.9167L38.8833 22.025L38.825 21.9167Z" fill="#E5E59D"/>
<path d="M39.3333 21.9167L39.3916 22.025L39.3333 21.9167Z" fill="#32327B"/>
<path d="M29.5249 22.0833L29.5749 22.2L29.5249 22.0833Z" fill="#FCB755"/>
<path d="M30.1416 21.9667L30.3083 22.1333L30.1416 21.9667Z" fill="#FEF8F1"/>
<path d="M31.8333 21.9667L31.9999 22.1333L31.8333 21.9667Z" fill="#FBBE66"/>
<path d="M34.5417 21.9667L34.7084 22.1333L34.5417 21.9667Z" fill="#FBEAD6"/>
<path d="M34.875 21.9667L35.0417 22.1333L34.875 21.9667Z" fill="#FE9F11"/>
<path d="M35.05 21.9667L35.2167 22.1333L35.05 21.9667Z" fill="#FCF1E4"/>
<path d="M35.5583 21.9667L35.725 22.1333L35.5583 21.9667Z" fill="#FBEAD6"/>
<path d="M37.9167 21.9667L38.0834 22.1333L37.9167 21.9667Z" fill="#FDAB33"/>
<path d="M27.6084 22.1333L27.7751 22.3L27.6084 22.1333Z" fill="#666677"/>
<path d="M28.1084 22.1333L28.2751 22.3L28.1084 22.1333Z" fill="#F6F6E4"/>
<path d="M30.1416 22.1333L30.3083 22.3L30.1416 22.1333Z" fill="#F9D6AA"/>
<path d="M31.4917 22.1333L31.6584 22.3L31.4917 22.1333Z" fill="#FDAB33"/>
<path d="M31.6582 22.1333L31.8249 22.3L31.6582 22.1333Z" fill="#FE9F11"/>
<path d="M31.8333 22.1333L31.9999 22.3L31.8333 22.1333Z" fill="#FCF1E4"/>
<path d="M34.7083 22.1333L34.8749 22.3L34.7083 22.1333Z" fill="#FEA522"/>
<path d="M34.875 22.1333L35.0417 22.3L34.875 22.1333ZM35.725 22.1333L35.8917 22.3L35.725 22.1333Z" fill="#FACA88"/>
<path d="M38.0833 22.1333L38.2499 22.3L38.0833 22.1333Z" fill="#FCB144"/>
<path d="M38.7666 22.1333L38.9333 22.3L38.7666 22.1333Z" fill="#DDDC7A"/>
<path d="M27.6084 22.3083L27.7751 22.475L27.6084 22.3083Z" fill="#58587B"/>
<path d="M28.1084 22.3083L28.2751 22.475L28.1084 22.3083Z" fill="#F2F1D2"/>
<path d="M29.5249 22.4167L29.5749 22.5333L29.5249 22.4167Z" fill="#FCB144"/>
<path d="M30.1416 22.3083L30.3083 22.475L30.1416 22.3083Z" fill="#FEA522"/>
<path d="M31.8333 22.3083L31.9999 22.475L31.8333 22.3083Z" fill="#FEF8F1"/>
<path d="M32 22.3083L32.1667 22.475L32 22.3083Z" fill="#FEA522"/>
<path d="M32.3333 22.3083L32.4999 22.475L32.3333 22.3083Z" fill="#FCB144"/>
<path d="M32.5 22.3083L32.6667 22.475L32.5 22.3083Z" fill="#FBEAD6"/>
<path d="M34.7083 22.3083L34.8749 22.475L34.7083 22.3083Z" fill="#F8DCBB"/>
<path d="M34.875 22.3083L35.0417 22.475L34.875 22.3083Z" fill="#FCF1E4"/>
<path d="M35.7251 22.3083L35.8918 22.475L35.7251 22.3083Z" fill="#FEF8F1"/>
<path d="M35.8916 22.3083L36.0583 22.475L35.8916 22.3083Z" fill="#FE9F11"/>
<path d="M38.2666 22.3083L38.4333 22.475L38.2666 22.3083Z" fill="#FBEAD6"/>
<path d="M38.7666 22.3083L38.9333 22.475L38.7666 22.3083Z" fill="#D9D868"/>
<path d="M27.6084 22.475L27.7751 22.6417L27.6084 22.475Z" fill="#3A3A7C"/>
<path d="M28.1084 22.475L28.2751 22.6417L28.1084 22.475Z" fill="#E5E3AF"/>
<path d="M30.3083 22.475L30.475 22.6417L30.3083 22.475Z" fill="#FACA88"/>
<path d="M32 22.475L32.1667 22.6417L32 22.475Z" fill="#FBEAD6"/>
<path d="M32.5 22.475L32.6667 22.6417L32.5 22.475Z" fill="#FE9F11"/>
<path d="M32.6833 22.475L32.85 22.6417L32.6833 22.475Z" fill="#FCF1E4"/>
<path d="M34.5417 22.475L34.7084 22.6417L34.5417 22.475Z" fill="#FBEAD6"/>
<path d="M34.7083 22.475L34.8749 22.6417L34.7083 22.475Z" fill="#FAE3C9"/>
<path d="M34.875 22.475L35.0417 22.6417L34.875 22.475Z" fill="#FBEAD6"/>
<path d="M35.8916 22.475L36.0583 22.6417L35.8916 22.475ZM37.2499 22.475L37.4166 22.6417L37.2499 22.475Z" fill="#FBBE66"/>
<path d="M37.4167 22.475L37.5834 22.6417L37.4167 22.475Z" fill="#FCF1E4"/>
<path d="M37.5833 22.475L37.7499 22.6417L37.5833 22.475Z" fill="#FEF8F1"/>
<path d="M37.75 22.475L37.9167 22.6417L37.75 22.475Z" fill="#F8DCBB"/>
<path d="M37.9167 22.475L38.0834 22.6417L37.9167 22.475Z" fill="#FCB755"/>
<path d="M38.2666 22.475L38.4333 22.6417L38.2666 22.475Z" fill="#FAE3C9"/>
<path d="M39.1084 22.475L39.2751 22.6417L39.1084 22.475Z" fill="#808067"/>
<path d="M27.6084 22.65L27.7751 22.8167L27.6084 22.65Z" fill="#32327B"/>
<path d="M27.825 22.75L27.8833 22.875L27.8333 22.7583L27.825 22.75Z" fill="#A4A43D"/>
<path d="M28.1084 22.65L28.2751 22.8167L28.1084 22.65Z" fill="#E5E59D"/>
<path d="M29.4668 22.65L29.6335 22.8167L29.4668 22.65Z" fill="#FBC477"/>
<path d="M30.4834 22.65L30.6501 22.8167L30.4834 22.65Z" fill="#F9D6AA"/>
<path d="M32.1667 22.65L32.3334 22.8167L32.1667 22.65Z" fill="#FBBE66"/>
<path d="M32.6833 22.65L32.85 22.8167L32.6833 22.65Z" fill="#F9D099"/>
<path d="M34.2 22.65L34.3666 22.8167L34.2 22.65Z" fill="#FAE3C9"/>
<path d="M34.375 22.65L34.5417 22.8167L34.375 22.65Z" fill="#FCB144"/>
<path d="M35.05 22.65L35.2167 22.8167L35.05 22.65Z" fill="#FAE3C9"/>
<path d="M35.8916 22.65L36.0583 22.8167L35.8916 22.65Z" fill="#F8DCBB"/>
<path d="M37.2417 22.65L37.4084 22.8167L37.2417 22.65Z" fill="#F9D099"/>
<path d="M38.0833 22.65L38.2499 22.8167L38.0833 22.65Z" fill="#FBC477"/>
<path d="M38.2666 22.65L38.4333 22.8167L38.2666 22.65Z" fill="#FBEAD6"/>
<path d="M39.1084 22.65L39.2751 22.8167L39.1084 22.65Z" fill="#737370"/>
<path d="M28.1084 22.8167L28.2751 22.9833L28.1084 22.8167Z" fill="#D9D868"/>
<path d="M29.4668 22.8167L29.6335 22.9833L29.4668 22.8167Z" fill="#F9D099"/>
<path d="M30.6499 22.8167L30.8166 22.9833L30.6499 22.8167ZM32.1749 22.8167L32.3416 22.9833L32.1749 22.8167Z" fill="#F9D6AA"/>
<path d="M32.6833 22.8167L32.85 22.9833L32.6833 22.8167Z" fill="#FBC477"/>
<path d="M33.5249 22.8167L33.6916 22.9833L33.5249 22.8167Z" fill="#FEF8F1"/>
<path d="M33.6917 22.8167L33.8583 22.9833L33.6917 22.8167Z" fill="#F8DCBB"/>
<path d="M33.8667 22.8167L34.0334 22.9833L33.8667 22.8167Z" fill="#FBC477"/>
<path d="M34.0332 22.8167L34.1999 22.9833L34.0332 22.8167Z" fill="#FEA522"/>
<path d="M35.05 22.8167L35.2167 22.9833L35.05 22.8167Z" fill="#FBEAD6"/>
<path d="M38.6001 22.8167L38.7668 22.9833L38.6001 22.8167Z" fill="#F2F1D2"/>
<path d="M39.1084 22.8167L39.2751 22.9833L39.1084 22.8167Z" fill="#58587B"/>
<path d="M27.7749 22.9833L27.9416 23.15L27.7749 22.9833Z" fill="#99994E"/>
<path d="M28.1084 22.9833L28.2751 23.15L28.1084 22.9833Z" fill="#D0D045"/>
<path d="M30.825 22.9833L30.9916 23.15L30.825 22.9833Z" fill="#FCB144"/>
<path d="M30.9917 22.9833L31.1584 23.15L30.9917 22.9833Z" fill="#FAE3C9"/>
<path d="M32.1667 22.9833L32.3334 23.15L32.1667 22.9833Z" fill="#FEF8F1"/>
<path d="M32.8501 22.9833L33.0168 23.15L32.8501 22.9833Z" fill="#FCB755"/>
<path d="M33.0166 22.9833L33.1833 23.15L33.0166 22.9833Z" fill="#FBC477"/>
<path d="M33.1917 22.9833L33.3583 23.15L33.1917 22.9833Z" fill="#FCB144"/>
<path d="M33.3584 22.9833L33.5251 23.15L33.3584 22.9833Z" fill="#FEA522"/>
<path d="M34.7083 22.9833L34.8749 23.15L34.7083 22.9833Z" fill="#FE9F11"/>
<path d="M34.875 22.9833L35.0417 23.15L34.875 22.9833Z" fill="#F9D6AA"/>
<path d="M37.2417 22.9833L37.4084 23.15L37.2417 22.9833Z" fill="#FEF8F1"/>
<path d="M38.6001 22.9833L38.7668 23.15L38.6001 22.9833Z" fill="#E0DEA1"/>
<path d="M39.1084 22.9833L39.2751 23.15L39.1084 22.9833Z" fill="#3A3A7C"/>
<path d="M27.7749 23.1583L27.9416 23.325L27.7749 23.1583Z" fill="#737370"/>
<path d="M28.2832 23.1583L28.4499 23.325L28.2832 23.1583Z" fill="#FBFAF2"/>
<path d="M29.6333 23.1583L29.8 23.325L29.6333 23.1583Z" fill="#FEA522"/>
<path d="M31.1582 23.1583L31.3249 23.325L31.1582 23.1583Z" fill="#FE9F11"/>
<path d="M31.325 23.1583L31.4916 23.325L31.325 23.1583Z" fill="#FCB144"/>
<path d="M31.4917 23.1583L31.6584 23.325L31.4917 23.1583Z" fill="#FBC477"/>
<path d="M31.6582 23.1583L31.8249 23.325L31.6582 23.1583Z" fill="#FACA88"/>
<path d="M31.8333 23.1583L31.9999 23.325L31.8333 23.1583Z" fill="#FBC477"/>
<path d="M32 23.1583L32.1667 23.325L32 23.1583Z" fill="#FCB144"/>
<path d="M32.1667 23.1583L32.3334 23.325L32.1667 23.1583Z" fill="#FDAB33"/>
<path d="M34.5417 23.1583L34.7084 23.325L34.5417 23.1583Z" fill="#FBC477"/>
<path d="M34.7083 23.1583L34.8749 23.325L34.7083 23.1583Z" fill="#FEF8F1"/>
<path d="M37.075 23.1583L37.2416 23.325L37.075 23.1583Z" fill="#FDAB33"/>
<path d="M38.6001 23.1583L38.7668 23.325L38.6001 23.1583Z" fill="#E1E18C"/>
<path d="M38.9917 23.2667L39.05 23.3833L38.9917 23.2667Z" fill="#A4A43D"/>
<path d="M39.1084 23.1583L39.2751 23.325L39.1084 23.1583Z" fill="#262678"/>
<path d="M27.7749 23.325L27.9416 23.4917L27.7749 23.325Z" fill="#58587B"/>
<path d="M28.2832 23.325L28.4499 23.4917L28.2832 23.325Z" fill="#F2F1D2"/>
<path d="M29.6333 23.325L29.8 23.4917L29.6333 23.325Z" fill="#FACA88"/>
<path d="M34.2 23.325L34.3666 23.4917L34.2 23.325Z" fill="#FE9F11"/>
<path d="M34.375 23.325L34.5417 23.4917L34.375 23.325Z" fill="#FBEAD6"/>
<path d="M35.8916 23.325L36.0583 23.4917L35.8916 23.325Z" fill="#FBC477"/>
<path d="M37.075 23.325L37.2416 23.4917L37.075 23.325Z" fill="#FACA88"/>
<path d="M38.6001 23.325L38.7668 23.4917L38.6001 23.325Z" fill="#D4D456"/>
<path d="M27.7749 23.4917L27.9416 23.6583L27.7749 23.4917Z" fill="#32327B"/>
<path d="M28.2832 23.4917L28.4499 23.6583L28.2832 23.4917Z" fill="#E5E59D"/>
<path d="M29.6333 23.4917L29.8 23.6583L29.6333 23.4917Z" fill="#FEF8F1"/>
<path d="M29.8 23.4917L29.9667 23.6583L29.8 23.4917Z" fill="#FE9F11"/>
<path d="M34.2 23.4917L34.3666 23.6583L34.2 23.4917Z" fill="#FBEAD6"/>
<path d="M35.8916 23.4917L36.0583 23.6583L35.8916 23.4917Z" fill="#FEA522"/>
<path d="M37.075 23.4917L37.2416 23.6583L37.075 23.4917Z" fill="#FCF1E4"/>
<path d="M38.9417 23.4917L39.1083 23.6583L38.9417 23.4917Z" fill="#808067"/>
<path d="M27.7749 23.6583L27.9416 23.825L27.7749 23.6583Z" fill="#0E0E6E"/>
<path d="M27.9417 23.6583L28.1083 23.825L27.9417 23.6583Z" fill="#A4A43D"/>
<path d="M28.2832 23.6583L28.4499 23.825L28.2832 23.6583Z" fill="#D9D868"/>
<path d="M29.8 23.6583L29.9667 23.825L29.8 23.6583Z" fill="#F8DCBB"/>
<path d="M35.7251 23.6583L35.8918 23.825L35.7251 23.6583Z" fill="#F9D6AA"/>
<path d="M36.9082 23.6583L37.0749 23.825L36.9082 23.6583Z" fill="#FACA88"/>
<path d="M38.4333 23.6583L38.6 23.825L38.4333 23.6583Z" fill="#F2F1D2"/>
<path d="M38.9417 23.6583L39.1083 23.825L38.9417 23.6583Z" fill="#58587B"/>
<path d="M27.9417 23.8333L28.1083 24L27.9417 23.8333Z" fill="#8D8D5B"/>
<path d="M29.9751 23.8333L30.1418 24L29.9751 23.8333Z" fill="#F9D6AA"/>
<path d="M33.3584 23.8333L33.5251 24L33.3584 23.8333Z" fill="#FDAB33"/>
<path d="M33.5249 23.8333L33.6916 24L33.5249 23.8333Z" fill="white"/>
<path d="M33.8083 23.8833L33.925 23.9417L33.8083 23.8833Z" fill="#FCB144"/>
<path d="M35.5583 23.8333L35.3916 24.1667L35.5583 23.8333Z" fill="#FEF8F1"/>
<path d="M35.7251 23.8333L35.8918 24L35.7251 23.8333Z" fill="#FE9F11"/>
<path d="M36.7416 23.8333L36.575 24.1667L36.7416 23.8333Z" fill="#FDAB33"/>
<path d="M38.4333 23.8333L38.6 24L38.4333 23.8333Z" fill="#E5E59D"/>
<path d="M38.9417 23.8333L39.1083 24L38.9417 23.8333Z" fill="#3A3A7C"/>
<path d="M27.9417 24L28.1083 24.1667L27.9417 24Z" fill="#666677"/>
<path d="M28.45 24L28.6166 24.1667L28.45 24Z" fill="#F2F1D2"/>
<path d="M30.1416 24L30.3083 24.1667L30.1416 24Z" fill="#F9D6AA"/>
<path d="M33.3584 24L33.5251 24.1667L33.3584 24Z" fill="#FE9F11"/>
<path d="M33.5249 24L33.6916 24.1667L33.5249 24Z" fill="#FACA88"/>
<path d="M33.6917 24L33.8583 24.1667L33.6917 24Z" fill="#FEA522"/>
<path d="M33.8667 24L34.0334 24.1667L33.8667 24Z" fill="#FCF1E4"/>
<path d="M35.5583 24L35.725 24.1667L35.5583 24Z" fill="#FDAB33"/>
<path d="M36.7417 24L36.9084 24.1667L36.7417 24Z" fill="#FEF8F1"/>
<path d="M38.4333 24L38.6 24.1667L38.4333 24Z" fill="#D9D868"/>
<path d="M38.7666 24L38.9333 24.1667L38.7666 24Z" fill="#A4A43D"/>
<path d="M38.9417 24L39.1083 24.1667L38.9417 24Z" fill="#0E0E6E"/>
<path d="M27.9417 24.1667L28.1083 24.3333L27.9417 24.1667Z" fill="#3A3A7C"/>
<path d="M28.45 24.1667L28.6166 24.3333L28.45 24.1667Z" fill="#E5E59D"/>
<path d="M30.3083 24.1667L30.6417 24.5L30.3083 24.1667Z" fill="#FAE3C9"/>
<path d="M30.4834 24.1667L30.6501 24.3333L30.4834 24.1667Z" fill="#FE9F11"/>
<path d="M33.6917 24.1667L33.8583 24.3333L33.6917 24.1667Z" fill="#F8DCBB"/>
<path d="M35.2168 24.1667L35.3835 24.3333L35.2168 24.1667Z" fill="#FCF1E4"/>
<path d="M35.3833 24.1667L35.55 24.3333L35.3833 24.1667Z" fill="#FDAB33"/>
<path d="M36.4082 24.1667L36.5749 24.3333L36.4082 24.1667Z" fill="#FCB144"/>
<path d="M36.575 24.1667L36.7416 24.3333L36.575 24.1667Z" fill="#FEF8F1"/>
<path d="M38.2666 24.1667L38.4333 24.3333L38.2666 24.1667Z" fill="#FBFAF2"/>
<path d="M38.7666 24.1667L38.9333 24.3333L38.7666 24.1667Z" fill="#8D8D5B"/>
<path d="M27.9417 24.3333L28.1083 24.5L27.9417 24.3333Z" fill="#0E0E6E"/>
<path d="M28.1084 24.3333L28.2751 24.5L28.1084 24.3333Z" fill="#A4A43D"/>
<path d="M28.45 24.3333L28.6166 24.5L28.45 24.3333Z" fill="#D4D456"/>
<path d="M33.5249 24.3333L33.6916 24.5L33.5249 24.3333Z" fill="#F9D6AA"/>
<path d="M35.05 24.3333L35.2167 24.5L35.05 24.3333Z" fill="#F9D099"/>
<path d="M35.2168 24.3333L35.3835 24.5L35.2168 24.3333Z" fill="#FE9F11"/>
<path d="M36.2334 24.3333L36.4001 24.5L36.2334 24.3333Z" fill="#FACA88"/>
<path d="M38.2666 24.3333L38.4333 24.5L38.2666 24.3333Z" fill="#EEEDC1"/>
<path d="M38.7666 24.3333L38.9333 24.5L38.7666 24.3333Z" fill="#58587B"/>
<path d="M28.1084 24.5L28.2751 24.6667L28.1084 24.5Z" fill="#737370"/>
<path d="M28.6167 24.5L28.7834 24.6667L28.6167 24.5Z" fill="#F6F6E4"/>
<path d="M30.4834 24.5L30.6501 24.6667L30.4834 24.5Z" fill="#FBBE66"/>
<path d="M33.1917 24.5L33.3583 24.6667L33.1917 24.5Z" fill="#FCB144"/>
<path d="M33.4082 24.625L33.4665 24.7333L33.4082 24.625Z" fill="#F8DCBB"/>
<path d="M34.7083 24.5L34.8749 24.6667L34.7083 24.5Z" fill="#FBBE66"/>
<path d="M34.875 24.5L35.0417 24.6667L34.875 24.5Z" fill="#FE9F11"/>
<path d="M35.8916 24.5L36.0583 24.6667L35.8916 24.5Z" fill="#FBC477"/>
<path d="M36.0667 24.5L36.2333 24.6667L36.0667 24.5Z" fill="#FCF1E4"/>
<path d="M38.2666 24.5L38.4333 24.6667L38.2666 24.5Z" fill="#D3D079"/>
<path d="M38.6001 24.5L38.7668 24.6667L38.6001 24.5Z" fill="#A4A43D"/>
<path d="M38.7666 24.5L38.9333 24.6667L38.7666 24.5Z" fill="#262678"/>
<path d="M28.1084 24.6667L28.2751 24.8333L28.1084 24.6667Z" fill="#49497D"/>
<path d="M28.6167 24.6667L28.7834 24.8333L28.6167 24.6667Z" fill="#E0DEA1"/>
<path d="M30.3083 24.6667L30.475 24.8333L30.3083 24.6667Z" fill="#FAE3C9"/>
<path d="M32.6833 24.6667L32.85 24.8333L32.6833 24.6667Z" fill="#FDAB33"/>
<path d="M32.8501 24.6667L33.0168 24.8333L32.8501 24.6667Z" fill="#FBC477"/>
<path d="M33.0166 24.6667L33.1833 24.8333L33.0166 24.6667Z" fill="#FBEAD6"/>
<path d="M33.5249 24.6667L33.6916 24.8333L33.5249 24.6667Z" fill="#FCB144"/>
<path d="M35.7251 24.6667L35.8918 24.8333L35.7251 24.6667Z" fill="#F9D6AA"/>
<path d="M38.6001 24.6667L38.7668 24.8333L38.6001 24.6667Z" fill="#99994E"/>
<path d="M28.1084 24.85L28.2751 25.0167L28.1084 24.85Z" fill="#0E0E6E"/>
<path d="M28.2832 24.85L28.4499 25.0167L28.2832 24.85Z" fill="#A4A43D"/>
<path d="M28.6167 24.85L28.7834 25.0167L28.6167 24.85Z" fill="#D4D456"/>
<path d="M30.1416 24.85L30.3083 25.0167L30.1416 24.85Z" fill="#F9D099"/>
<path d="M30.3083 24.85L30.475 25.0167L30.3083 24.85ZM31.1583 24.85L31.325 25.0167L31.1583 24.85Z" fill="#FE9F11"/>
<path d="M31.325 24.85L31.4916 25.0167L31.325 24.85Z" fill="#F9D6AA"/>
<path d="M31.4917 24.85L31.6584 25.0167L31.4917 24.85Z" fill="#F9D099"/>
<path d="M32.1667 24.85L32.3334 25.0167L32.1667 24.85Z" fill="#F9D6AA"/>
<path d="M32.3333 24.85L32.4999 25.0167L32.3333 24.85Z" fill="#FAE3C9"/>
<path d="M32.5 24.85L32.6667 25.0167L32.5 24.85Z" fill="#FEF8F1"/>
<path d="M33.8667 24.85L34.0334 25.0167L33.8667 24.85Z" fill="#FBEAD6"/>
<path d="M34.0332 24.85L34.1999 25.0167L34.0332 24.85Z" fill="#FAE3C9"/>
<path d="M34.2 24.85L34.3666 25.0167L34.2 24.85Z" fill="#FACA88"/>
<path d="M34.375 24.85L34.5417 25.0167L34.375 24.85Z" fill="#FBC477"/>
<path d="M34.5417 24.85L34.7084 25.0167L34.5417 24.85Z" fill="#FDAB33"/>
<path d="M35.3833 24.85L35.55 25.0167L35.3833 24.85Z" fill="#FE9F11"/>
<path d="M35.5583 24.85L35.725 25.0167L35.5583 24.85Z" fill="#F9D6AA"/>
<path d="M38.0833 24.85L38.2499 25.0167L38.0833 24.85Z" fill="#E5E3AF"/>
<path d="M38.6001 24.85L38.7668 25.0167L38.6001 24.85Z" fill="#666677"/>
<path d="M28.2832 25.0167L28.4499 25.1833L28.2832 25.0167Z" fill="#737370"/>
<path d="M28.7917 25.0167L28.9584 25.1833L28.7917 25.0167Z" fill="#F2F1D7"/>
<path d="M29.9751 25.0167L30.1418 25.1833L29.9751 25.0167Z" fill="#FEA522"/>
<path d="M30.825 25.0167L30.9916 25.1833L30.825 25.0167Z" fill="#FE9F11"/>
<path d="M30.9917 25.0167L31.1584 25.1833L30.9917 25.0167Z" fill="#FBBE66"/>
<path d="M31.1582 25.0167L31.3249 25.1833L31.1582 25.0167Z" fill="#FCF1E4"/>
<path d="M35.2168 25.0167L35.3835 25.1833L35.2168 25.0167Z" fill="#FEA522"/>
<path d="M35.3833 25.0167L35.55 25.1833L35.3833 25.0167Z" fill="#FBEAD6"/>
<path d="M38.0833 25.0167L38.2499 25.1833L38.0833 25.0167Z" fill="#DDDC7A"/>
<path d="M38.4333 25.0167L38.6 25.1833L38.4333 25.0167Z" fill="#A4A43D"/>
<path d="M38.6001 25.0167L38.7668 25.1833L38.6001 25.0167Z" fill="#262678"/>
<path d="M28.2832 25.1833L28.4499 25.35L28.2832 25.1833Z" fill="#49497D"/>
<path d="M28.5 25.3L28.5667 25.4083L28.5 25.3Z" fill="#A4A43D"/>
<path d="M28.7917 25.1833L28.9584 25.35L28.7917 25.1833Z" fill="#D3D079"/>
<path d="M30.1416 25.1833L30.3083 25.35L30.1416 25.1833Z" fill="#F9D099"/>
<path d="M30.3083 25.1833L30.475 25.35L30.3083 25.1833Z" fill="#FCB144"/>
<path d="M30.4834 25.1833L30.6501 25.35L30.4834 25.1833Z" fill="#FACA88"/>
<path d="M30.6499 25.1833L30.8166 25.35L30.6499 25.1833Z" fill="#F8DCBB"/>
<path d="M30.825 25.1833L30.9916 25.35L30.825 25.1833Z" fill="#FEF8F1"/>
<path d="M34.5417 25.1833L34.7084 25.35L34.5417 25.1833Z" fill="#F8DCBB"/>
<path d="M35.2168 25.1833L35.3835 25.35L35.2168 25.1833Z" fill="#FCF1E4"/>
<path d="M37.9167 25.1833L38.0834 25.35L37.9167 25.1833Z" fill="#F6F6E4"/>
<path d="M38.4333 25.1833L38.6 25.35L38.4333 25.1833Z" fill="#8D8D5B"/>
<path d="M28.9583 25.35L29.1249 25.5167L28.9583 25.35Z" fill="#FBFAF2"/>
<path d="M34.5417 25.35L34.7084 25.5167L34.5417 25.35Z" fill="#FBBE66"/>
<path d="M35.05 25.35L35.2167 25.5167L35.05 25.35Z" fill="#FACA88"/>
<path d="M37.9167 25.35L38.0834 25.5167L37.9167 25.35Z" fill="#E1E18C"/>
<path d="M38.4333 25.35L38.6 25.5167L38.4333 25.35Z" fill="#49497D"/>
<path d="M28.45 25.525L28.6166 25.6917L28.45 25.525Z" fill="#58587B"/>
<path d="M28.9583 25.525L29.1249 25.6917L28.9583 25.525Z" fill="#E5E59D"/>
<path d="M34.5417 25.525L34.7084 25.6917L34.5417 25.525Z" fill="#FE9F11"/>
<path d="M34.875 25.525L35.0417 25.6917L34.875 25.525Z" fill="#FDAB33"/>
<path d="M37.75 25.525L37.9167 25.6917L37.75 25.525Z" fill="#FBFAF2"/>
<path d="M38.2666 25.525L38.4333 25.6917L38.2666 25.525Z" fill="#A4A43D"/>
<path d="M38.4333 25.525L38.6 25.6917L38.4333 25.525Z" fill="#0E0E6E"/>
<path d="M28.45 25.6917L28.6166 25.8583L28.45 25.6917Z" fill="#1B1B74"/>
<path d="M28.6167 25.6917L28.7834 25.8583L28.6167 25.6917Z" fill="#A4A43D"/>
<path d="M28.9583 25.6917L29.1249 25.8583L28.9583 25.6917Z" fill="#D0D045"/>
<path d="M34.375 25.6917L34.5417 25.8583L34.375 25.6917Z" fill="#FBEAD6"/>
<path d="M34.7083 25.6917L34.8749 25.8583L34.7083 25.6917Z" fill="#FE9F11"/>
<path d="M34.875 25.6917L35.0417 25.8583L34.875 25.6917Z" fill="#FBEAD6"/>
<path d="M37.75 25.6917L37.9167 25.8583L37.75 25.6917Z" fill="#E5E59D"/>
<path d="M38.2666 25.6917L38.4333 25.8583L38.2666 25.6917Z" fill="#666677"/>
<path d="M28.6167 25.8583L28.7834 26.025L28.6167 25.8583Z" fill="#6E6C70"/>
<path d="M29.125 25.8583L29.2917 26.025L29.125 25.8583Z" fill="#E5E3AF"/>
<path d="M34.4167 25.975L34.4834 26.0917L34.4167 25.975Z" fill="#FACA88"/>
<path d="M34.7083 25.8583L34.8749 26.025L34.7083 25.8583Z" fill="#FAE3C9"/>
<path d="M37.5833 25.8583L37.7499 26.025L37.5833 25.8583Z" fill="#FBFAF2"/>
<path d="M38.0833 25.8583L38.2499 26.025L38.0833 25.8583Z" fill="#A4A43D"/>
<path d="M38.2667 25.8583L38.4334 26.025L38.2667 25.8583ZM28.6167 26.025L28.7834 26.1917L28.6167 26.025Z" fill="#1B1B74"/>
<path d="M28.7917 26.0333L28.9584 26.2L28.7917 26.0333Z" fill="#A4A43D"/>
<path d="M29.125 26.0333L29.2917 26.2L29.125 26.0333Z" fill="#D0D045"/>
<path d="M29.2917 26.0333L29.4584 26.2L29.2917 26.0333Z" fill="#FBFAF2"/>
<path d="M34.5417 26.0333L34.7084 26.2L34.5417 26.0333Z" fill="#F9D6AA"/>
<path d="M37.5833 26.0333L37.7499 26.2L37.5833 26.0333Z" fill="#E5E59D"/>
<path d="M38.0834 26.0333L38.2501 26.2L38.0834 26.0333ZM28.7917 26.2L28.9584 26.3667L28.7917 26.2Z" fill="#6E6C70"/>
<path d="M29.2917 26.2L29.4584 26.3667L29.2917 26.2Z" fill="#8CBF84"/>
<path d="M29.3667 26.2C29.95 27.4333 32.0334 30.35 33.6167 30.3C35.1667 30.2417 36.9084 27.3833 37.5834 26.2H29.3667Z" fill="#00CCFF"/>
<path d="M37.9167 26.2L38.0834 26.3667L37.9167 26.2Z" fill="#A4A43D"/>
<path d="M38.0834 26.2L38.2501 26.3667L38.0834 26.2ZM28.7917 26.3667L28.9584 26.5333L28.7917 26.3667Z" fill="#1B1B74"/>
<path d="M28.9583 26.3667L29.1249 26.5333L28.9583 26.3667Z" fill="#A4A43D"/>
<path d="M29.2917 26.3667L29.4584 26.5333L29.2917 26.3667Z" fill="#ADB333"/>
<path d="M29.4668 26.3667L29.6335 26.5333L29.4668 26.3667Z" fill="#1AC5B5"/>
<path d="M37.4167 26.3667L37.5834 26.5333L37.4167 26.3667Z" fill="#68B070"/>
<path d="M37.9167 26.3667L38.0834 26.5333L37.9167 26.3667Z" fill="#666677"/>
<path d="M28.9583 26.5417L29.1249 26.7083L28.9583 26.5417Z" fill="#58587B"/>
<path d="M29.4668 26.5417L29.6335 26.7083L29.4668 26.5417Z" fill="#7FB15C"/>
<path d="M37.2417 26.5417L37.4084 26.7083L37.2417 26.5417Z" fill="#27C2AA"/>
<path d="M37.7499 26.5417L37.5833 26.875L37.7499 26.5417Z" fill="#A4A43D"/>
<path d="M37.9166 26.5417L38.0833 26.7083L37.9166 26.5417ZM28.9583 26.7083L29.1249 26.875L28.9583 26.7083Z" fill="#0E0E6E"/>
<path d="M29.125 26.7083L29.4583 27.0417L29.125 26.7083Z" fill="#A4A43D"/>
<path d="M29.6333 26.7083L29.8 26.875L29.6333 26.7083Z" fill="#34BE9E"/>
<path d="M37.2417 26.7083L37.4084 26.875L37.2417 26.7083Z" fill="#96B247"/>
<path d="M37.75 26.7083L37.9167 26.875L37.75 26.7083Z" fill="#53527C"/>
<path d="M29.125 26.8833L29.2917 27.05L29.125 26.8833Z" fill="#3A3A7C"/>
<path d="M29.6333 26.8833L29.8 27.05L29.6333 26.8833Z" fill="#A2B23D"/>
<path d="M29.8 26.8833L29.9667 27.05L29.8 26.8833Z" fill="#0DC9C1"/>
<path d="M37.075 26.8833L37.2416 27.05L37.075 26.8833Z" fill="#5BB47C"/>
<path d="M37.5833 26.8833L37.7499 27.05L37.5833 26.8833Z" fill="#8D8D5B"/>
<path d="M29.2917 27.05L29.4584 27.2167L29.2917 27.05Z" fill="#737370"/>
<path d="M29.8 27.05L29.9667 27.2167L29.8 27.05Z" fill="#74B166"/>
<path d="M36.9082 27.05L37.0749 27.2167L36.9082 27.05Z" fill="#27C2AA"/>
<path d="M37.4167 27.05L37.25 27.3833L37.4167 27.05Z" fill="#A4A43D"/>
<path d="M37.5833 27.05L37.7499 27.2167L37.5833 27.05Z" fill="#262678"/>
<path d="M29.2917 27.2167L29.4584 27.3833L29.2917 27.2167Z" fill="#0E0E6E"/>
<path d="M29.4668 27.2167L29.8001 27.55L29.4668 27.2167Z" fill="#A4A43D"/>
<path d="M29.9751 27.2167L30.1418 27.3833L29.9751 27.2167Z" fill="#42BB92"/>
<path d="M36.7417 27.2167L36.9084 27.3833L36.7417 27.2167Z" fill="#0DC9C1"/>
<path d="M36.9082 27.2167L37.0749 27.3833L36.9082 27.2167Z" fill="#96B247"/>
<path d="M37.4167 27.2167L37.5834 27.3833L37.4167 27.2167Z" fill="#58587B"/>
<path d="M29.4668 27.3833L29.6335 27.55L29.4668 27.3833Z" fill="#3A3A7C"/>
<path d="M29.9751 27.3833L30.1418 27.55L29.9751 27.3833Z" fill="#ADB333"/>
<path d="M30.1416 27.3833L30.3083 27.55L30.1416 27.3833Z" fill="#27C2AA"/>
<path d="M36.7417 27.3833L36.9084 27.55L36.7417 27.3833Z" fill="#74B166"/>
<path d="M37.2417 27.3833L37.4084 27.55L37.2417 27.3833Z" fill="#8D8D5B"/>
<path d="M29.6333 27.55L29.8 27.7167L29.6333 27.55Z" fill="#6E6C70"/>
<path d="M30.1416 27.55L30.3083 27.7167L30.1416 27.55Z" fill="#96B247"/>
<path d="M30.3083 27.55L30.475 27.7167L30.3083 27.55Z" fill="#0DC9C1"/>
<path d="M36.575 27.55L36.7416 27.7167L36.575 27.55Z" fill="#42BB92"/>
<path d="M37.075 27.55L36.7417 28.05L37.075 27.55Z" fill="#A4A43D"/>
<path d="M37.2417 27.55L37.4084 27.7167L37.2417 27.55Z" fill="#1B1B74"/>
<path d="M29.6333 27.7167L29.8 27.8833L29.6333 27.7167Z" fill="#0E0E6E"/>
<path d="M29.8 27.7167L29.9667 27.8833L29.8 27.7167Z" fill="#8D8D5B"/>
<path d="M30.3083 27.7167L30.475 27.8833L30.3083 27.7167Z" fill="#7FB15C"/>
<path d="M36.4082 27.7167L36.5749 27.8833L36.4082 27.7167Z" fill="#34BE9E"/>
<path d="M37.075 27.7167L37.2416 27.8833L37.075 27.7167Z" fill="#3A3A7C"/>
<path d="M29.8 27.8917L29.9667 28.0583L29.8 27.8917Z" fill="#1B1B74"/>
<path d="M29.9751 27.8917L31.8334 29.75L29.9751 27.8917Z" fill="#A4A43D"/>
<path d="M30.4834 27.8917L30.6501 28.0583L30.4834 27.8917Z" fill="#74B166"/>
<path d="M36.2334 27.8917L36.4001 28.0583L36.2334 27.8917Z" fill="#27C2AA"/>
<path d="M36.4082 27.8917L36.5749 28.0583L36.4082 27.8917Z" fill="#ADB333"/>
<path d="M36.9082 27.8917L37.0749 28.0583L36.9082 27.8917Z" fill="#666677"/>
<path d="M29.9751 28.0583L30.1418 28.225L29.9751 28.0583Z" fill="#32327B"/>
<path d="M30.6499 28.0583L30.8166 28.225L30.6499 28.0583Z" fill="#42BB92"/>
<path d="M36.0666 28.0583L35.3833 28.9083L36.075 28.05L36.0666 28.0583Z" fill="#0DC9C1"/>
<path d="M36.2334 28.0583L36.4001 28.225L36.2334 28.0583Z" fill="#ADB333"/>
<path d="M36.7417 28.0583L36.9084 28.225L36.7417 28.0583Z" fill="#737370"/>
<path d="M30.1416 28.2333L30.3083 28.4L30.1416 28.2333Z" fill="#49497D"/>
<path d="M30.825 28.2333L30.9916 28.4L30.825 28.2333Z" fill="#42BB92"/>
<path d="M36.0667 28.2333L36.2333 28.4L36.0667 28.2333Z" fill="#96B247"/>
<path d="M36.5749 28.2333L36.4082 28.5667L36.5749 28.2333Z" fill="#8D8D5B"/>
<path d="M36.7417 28.2333L36.9084 28.4L36.7417 28.2333Z" fill="#0E0E6E"/>
<path d="M30.3083 28.4L30.475 28.5667L30.3083 28.4Z" fill="#53527C"/>
<path d="M30.9917 28.4L31.1584 28.5667L30.9917 28.4Z" fill="#42BB92"/>
<path d="M35.8916 28.4L36.0583 28.5667L35.8916 28.4Z" fill="#96B247"/>
<path d="M36.575 28.4L36.7416 28.5667L36.575 28.4Z" fill="#0E0E6E"/>
<path d="M30.4834 28.5667L30.6501 28.7333L30.4834 28.5667Z" fill="#6E6C70"/>
<path d="M31.1582 28.5667L31.3249 28.7333L31.1582 28.5667Z" fill="#42BB92"/>
<path d="M35.7251 28.5667L35.8918 28.7333L35.7251 28.5667Z" fill="#96B247"/>
<path d="M36.2332 28.5667L35.8999 29.0667L36.2332 28.5667Z" fill="#A4A43D"/>
<path d="M36.4082 28.5667L36.5749 28.7333L36.4082 28.5667Z" fill="#262678"/>
<path d="M30.6499 28.7417L30.8166 28.9083L30.6499 28.7417Z" fill="#6E6C70"/>
<path d="M31.325 28.7417L31.4916 28.9083L31.325 28.7417Z" fill="#42BB92"/>
<path d="M35.5583 28.7417L35.725 28.9083L35.5583 28.7417Z" fill="#96B247"/>
<path d="M36.2334 28.7417L36.4001 28.9083L36.2334 28.7417Z" fill="#262678"/>
<path d="M30.825 28.9083L30.9916 29.075L30.825 28.9083Z" fill="#6E6C70"/>
<path d="M31.4917 28.9083L31.6584 29.075L31.4917 28.9083Z" fill="#68B070"/>
<path d="M35.2168 28.9083L35.3835 29.075L35.2168 28.9083Z" fill="#27C2AA"/>
<path d="M35.3833 28.9083L35.55 29.075L35.3833 28.9083Z" fill="#ADB333"/>
<path d="M36.0667 28.9083L36.2333 29.075L36.0667 28.9083Z" fill="#262678"/>
<path d="M30.9917 29.075L31.1584 29.2417L30.9917 29.075Z" fill="#666677"/>
<path d="M31.6582 29.075L31.8249 29.2417L31.6582 29.075Z" fill="#74B166"/>
<path d="M35.05 29.075L35.2167 29.2417L35.05 29.075Z" fill="#34BE9E"/>
<path d="M35.2168 29.075L35.3835 29.2417L35.2168 29.075Z" fill="#ADB333"/>
<path d="M35.725 29.075L35.5583 29.4083L35.725 29.075Z" fill="#8D8D5B"/>
<path d="M35.8916 29.075L36.0583 29.2417L35.8916 29.075Z" fill="#262678"/>
<path d="M31.1582 29.2417L31.3249 29.4083L31.1582 29.2417Z" fill="#49497D"/>
<path d="M31.8333 29.2417L31.9999 29.4083L31.8333 29.2417Z" fill="#96B247"/>
<path d="M32 29.2417L32.1667 29.4083L32 29.2417Z" fill="#0DC9C1"/>
<path d="M34.875 29.2417L35.0417 29.4083L34.875 29.2417Z" fill="#42BB92"/>
<path d="M35.7251 29.2417L35.8918 29.4083L35.7251 29.2417Z" fill="#0E0E6E"/>
<path d="M31.325 29.4167L31.4916 29.5833L31.325 29.4167Z" fill="#49497D"/>
<path d="M32 29.4167L32.1667 29.5833L32 29.4167Z" fill="#A2B23D"/>
<path d="M32.1667 29.4167L32.3334 29.5833L32.1667 29.4167Z" fill="#27C2AA"/>
<path d="M34.7083 29.4167L34.8749 29.5833L34.7083 29.4167Z" fill="#74B166"/>
<path d="M35.2168 29.4167L34.7168 30.0833L35.2168 29.4167Z" fill="#A4A43D"/>
<path d="M35.3833 29.4167L35.55 29.5833L35.3833 29.4167Z" fill="#808067"/>
<path d="M35.5583 29.4167L35.725 29.5833L35.5583 29.4167Z" fill="#0E0E6E"/>
<path d="M31.4917 29.5833L31.6584 29.75L31.4917 29.5833Z" fill="#262678"/>
<path d="M32.1667 29.5833L32.3334 29.75L32.1667 29.5833Z" fill="#ADB333"/>
<path d="M32.3333 29.5833L32.4999 29.75L32.3333 29.5833Z" fill="#42BB92"/>
<path d="M34.375 29.5833L34.5417 29.75L34.375 29.5833Z" fill="#0DC9C1"/>
<path d="M34.5417 29.5833L34.7084 29.75L34.5417 29.5833Z" fill="#96B247"/>
<path d="M35.2168 29.5833L35.3835 29.75L35.2168 29.5833Z" fill="#6E6C70"/>
<path d="M31.6582 29.75L31.8249 29.9167L31.6582 29.75Z" fill="#1B1B74"/>
<path d="M31.8333 29.75L31.9999 29.9167L31.8333 29.75Z" fill="#8D8D5B"/>
<path d="M32.5 29.75L32.6667 29.9167L32.5 29.75Z" fill="#74B166"/>
<path d="M32.6833 29.75L32.85 29.9167L32.6833 29.75Z" fill="#0DC9C1"/>
<path d="M34.2 29.75L34.3666 29.9167L34.2 29.75Z" fill="#34BE9E"/>
<path d="M34.375 29.75L34.5417 29.9167L34.375 29.75Z" fill="#ADB333"/>
<path d="M35.05 29.75L35.2167 29.9167L35.05 29.75Z" fill="#49497D"/>
<path d="M31.8333 29.9167L31.9999 30.0833L31.8333 29.9167Z" fill="#0E0E6E"/>
<path d="M32 29.9167L32.1667 30.0833L32 29.9167Z" fill="#6E6C70"/>
<path d="M32.1667 29.9167L32.5001 30.25L32.1667 29.9167Z" fill="#A4A43D"/>
<path d="M32.6833 29.9167L32.85 30.0833L32.6833 29.9167Z" fill="#96B247"/>
<path d="M32.8501 29.9167L33.0168 30.0833L32.8501 29.9167Z" fill="#27C2AA"/>
<path d="M34.0332 29.9167L34.1999 30.0833L34.0332 29.9167Z" fill="#68B070"/>
<path d="M34.875 29.9167L35.0417 30.0833L34.875 29.9167Z" fill="#32327B"/>
<path d="M32.1667 30.0833L32.3334 30.25L32.1667 30.0833Z" fill="#49497D"/>
<path d="M33.0166 30.0833L33.1833 30.25L33.0166 30.0833Z" fill="#5BB47C"/>
<path d="M33.6917 30.0833L33.8583 30.25L33.6917 30.0833Z" fill="#27C2AA"/>
<path d="M33.8667 30.0833L34.0334 30.25L33.8667 30.0833Z" fill="#96B247"/>
<path d="M34.3749 30.0833L34.2083 30.4167L34.3749 30.0833Z" fill="#A4A43D"/>
<path d="M34.5417 30.0833L34.7084 30.25L34.5417 30.0833Z" fill="#808067"/>
<path d="M34.7083 30.0833L34.8749 30.25L34.7083 30.0833Z" fill="#0E0E6E"/>
<path d="M32.3333 30.25L32.4999 30.4167L32.3333 30.25Z" fill="#262678"/>
<path d="M32.5 30.25L32.6667 30.4167L32.5 30.25Z" fill="#8D8D5B"/>
<path d="M33.1917 30.25L33.3583 30.4167L33.1917 30.25Z" fill="#8BB252"/>
<path d="M33.3584 30.25L33.5251 30.4167L33.3584 30.25Z" fill="#1AC5B5"/>
<path d="M33.5249 30.25L33.6916 30.4167L33.5249 30.25Z" fill="#5BB47C"/>
<path d="M34.375 30.25L34.5417 30.4167L34.375 30.25Z" fill="#58587B"/>
<path d="M32.5 30.4333L32.6667 30.6L32.5 30.4333Z" fill="#0E0E6E"/>
<path d="M32.6833 30.4333L32.85 30.6L32.6833 30.4333Z" fill="#666677"/>
<path d="M32.8501 30.4333L33.0168 30.6L32.8501 30.4333Z" fill="#A4A43D"/>
<path d="M34.0332 30.4333L34.1999 30.6L34.0332 30.4333Z" fill="#99994E"/>
<path d="M34.2001 30.4333L34.3668 30.6L34.2001 30.4333ZM32.8501 30.6L33.0168 30.7667L32.8501 30.6Z" fill="#32327B"/>
<path d="M33.0166 30.6L33.1833 30.7667L33.0166 30.6Z" fill="#99994E"/>
<path d="M33.6917 30.6L33.8583 30.7667L33.6917 30.6Z" fill="#A4A43D"/>
<path d="M33.8667 30.6L34.0334 30.7667L33.8667 30.6Z" fill="#666677"/>
<path d="M34.0333 30.6L34.1999 30.7667L34.0333 30.6ZM33.0166 30.7667L33.1833 30.9333L33.0166 30.7667Z" fill="#0E0E6E"/>
<path d="M33.1917 30.7667L33.3583 30.9333L33.1917 30.7667Z" fill="#666677"/>
<path d="M33.3584 30.7667L33.5251 30.9333L33.3584 30.7667Z" fill="#A4A43D"/>
<path d="M33.5249 30.7667L33.6916 30.9333L33.5249 30.7667Z" fill="#99994E"/>
<path d="M33.6917 30.7667L33.8583 30.9333L33.6917 30.7667Z" fill="#32327B"/>
<path d="M33.3584 30.9333L33.5251 31.1L33.3584 30.9333Z" fill="#262678"/>
<path d="M33.5249 30.9333L33.6916 31.1L33.5249 30.9333Z" fill="#0E0E6E"/>
<path d="M33.6917 19.6C33.9584 20.2167 34.7917 20.8917 35.0251 21.225C34.7334 21.5583 34.6751 21.525 34.7084 22.1417C35.2084 21.6083 35.2251 21.5583 35.5584 21.6333C36.2751 22.35 35.6834 23.8833 35.0918 24.2167C34.5001 24.575 34.6084 24.2083 33.7168 24.65C34.1251 25 34.6001 24.6 34.9834 24.7083C35.1917 24.9583 34.8834 25.4083 35.0418 25.8417C35.3751 25.8083 35.3418 25.1167 35.4251 24.8667C35.6751 23.95 37.1751 23.3167 37.2501 22.475C37.5668 22.3333 37.8751 22.4333 38.2501 22.6417C38.0668 21.8583 37.4418 21.8667 37.2668 21.625C36.8668 21.0083 36.5084 20.3083 35.6501 20.125C34.9834 19.9833 35.0418 20.1667 34.6251 19.875C34.3584 19.675 33.5667 19.2917 33.6917 19.6Z" fill="#FF9900"/>
<path fill-rule="evenodd" clip-rule="evenodd" d="M35.575 20.3C35.575 20.3365 35.5606 20.3714 35.5348 20.3972C35.509 20.423 35.474 20.4375 35.4375 20.4375C35.4011 20.4375 35.3661 20.423 35.3403 20.3972C35.3145 20.3714 35.3 20.3365 35.3 20.3C35.3 20.2635 35.3145 20.2286 35.3403 20.2028C35.3661 20.177 35.4011 20.1625 35.4375 20.1625C35.474 20.1625 35.509 20.177 35.5348 20.2028C35.5606 20.2286 35.575 20.2635 35.575 20.3Z" fill="white"/>
<path d="M31.6 22.2083C32.0167 21.6917 32.2334 20.625 32.4167 20.275C32.85 20.375 32.8334 20.4417 33.375 20.125C32.6667 19.925 32.6084 19.9417 32.525 19.6167C32.825 18.6417 34.4584 18.45 35.025 18.8167C35.625 19.175 35.25 19.25 36.0584 19.8167C36.175 19.3 35.6 19.0667 35.5167 18.6833C35.6417 18.375 36.1834 18.4333 36.4834 18.1C36.3 17.8083 35.7084 18.1667 35.45 18.2167C34.5334 18.425 33.2584 17.4 32.4834 17.7167C32.2084 17.5083 32.15 17.1833 32.15 16.7417C31.5584 17.2833 31.8584 17.825 31.7167 18.1C31.3667 18.7417 30.9084 19.3917 31.15 20.2333C31.3334 20.8833 31.4667 20.75 31.4167 21.2583C31.3584 21.5833 31.3834 22.4667 31.6 22.2083Z" fill="#FF9900"/>
<path fill-rule="evenodd" clip-rule="evenodd" d="M31.3333 20.2167C31.4083 20.1833 31.4916 20.2083 31.525 20.275C31.5365 20.2985 31.5409 20.3248 31.5376 20.3507C31.5343 20.3766 31.5234 20.401 31.5063 20.4208C31.4893 20.4406 31.4668 20.455 31.4416 20.4621C31.4165 20.4692 31.3898 20.4688 31.3649 20.4609C31.34 20.4529 31.3179 20.4379 31.3015 20.4175C31.2851 20.3972 31.275 20.3725 31.2726 20.3464C31.2701 20.3204 31.2753 20.2943 31.2876 20.2712C31.2999 20.2481 31.3187 20.2291 31.3416 20.2167H31.3333Z" fill="white"/>
<path d="M35.0249 22.5667C34.3583 22.4833 33.3499 22.8417 32.9416 22.875C32.8166 22.45 32.8749 22.4167 32.3249 22.125C32.5166 22.8417 32.5583 22.875 32.3249 23.125C31.3416 23.3667 30.325 22.0667 30.3416 21.3917C30.3416 20.7 30.6083 20.975 30.675 19.975C30.175 20.1417 30.2749 20.7667 29.9833 21.0417C29.6499 21.0917 29.4333 20.6 28.9833 20.5167C28.8333 20.825 29.4416 21.1417 29.6166 21.3417C30.2749 22.025 30.05 23.6333 30.725 24.1333C30.6916 24.4833 30.4416 24.7 30.0583 24.9167C30.8333 25.1583 31.1416 24.6083 31.4499 24.5833C32.1833 24.5667 32.9749 24.6167 33.5749 23.975C34.0249 23.475 33.85 23.4333 34.3083 23.225C34.6166 23.1083 35.3583 22.625 35.0249 22.5583V22.5667Z" fill="#FF9900"/>
<path fill-rule="evenodd" clip-rule="evenodd" d="M33.4582 23.825C33.4429 23.8157 33.4296 23.8035 33.419 23.789C33.4084 23.7745 33.4007 23.7581 33.3965 23.7407C33.3922 23.7233 33.3914 23.7052 33.3942 23.6875C33.3969 23.6698 33.4031 23.6528 33.4124 23.6375C33.4217 23.6222 33.4339 23.6088 33.4484 23.5982C33.4628 23.5876 33.4792 23.58 33.4967 23.5757C33.5141 23.5715 33.5321 23.5707 33.5499 23.5734C33.5676 23.5762 33.5846 23.5824 33.5999 23.5917C33.6308 23.6104 33.6531 23.6408 33.6616 23.6759C33.6702 23.7111 33.6645 23.7482 33.6457 23.7792C33.6269 23.8101 33.5966 23.8323 33.5615 23.8409C33.5263 23.8495 33.4892 23.8438 33.4582 23.825Z" fill="white"/>
<path d="M-7 0H19.6667V20H-7V0Z" fill="#012169"/>
<path d="M-3.875 0L6.29167 7.54167L16.4167 0H19.6667V2.58333L9.66667 10.0417L19.6667 17.4583V20H16.3333L6.33333 12.5417L-3.625 20H-7V17.5L2.95833 10.0833L-7 2.66667V0H-3.875Z" fill="white"/>
<path d="M10.6667 11.7083L19.6667 18.3333V20L8.375 11.7083H10.6667ZM3 12.5417L3.25 14L-4.75 20H-7L3 12.5417ZM19.6667 0V0.125L9.29167 7.95833L9.375 6.125L17.5833 0H19.6667ZM-7 0L2.95833 7.33333H0.458333L-7 1.75V0Z" fill="#C8102E"/>
<path d="M3.04167 0V20H9.70833V0H3.04167ZM-7 6.66667V13.3333H19.6667V6.66667H-7Z" fill="white"/>
<path d="M-7 8.04167V12.0417H19.6667V8.04167H-7ZM4.375 0V20H8.375V0H4.375Z" fill="#C8102E"/>
</g>
</g>
<defs>
<clipPath id="clip0_769_6159">
<path d="M0 20C0 8.95431 8.95431 0 20 0C31.0457 0 40 8.95431 40 20C40 31.0457 31.0457 40 20 40C8.95431 40 0 31.0457 0 20Z" fill="white"/>
</clipPath>
<clipPath id="clip1_769_6159">
<rect width="53.3333" height="40" fill="white" transform="translate(-7)"/>
</clipPath>
</defs>
</svg>
