<svg width="40" height="40" viewBox="0 0 40 40" fill="none" xmlns="http://www.w3.org/2000/svg">
<g clip-path="url(#clip0_769_6952)">
<path d="M0 20C0 8.95431 8.95431 0 20 0C31.0457 0 40 8.95431 40 20C40 31.0457 31.0457 40 20 40C8.95431 40 0 31.0457 0 20Z" fill="#E94E0F"/>
<g clip-path="url(#clip1_769_6952)">
<path d="M-7 0H46.3333V40H-7V0Z" fill="#3A7DCE"/>
<path d="M6.14163 19.2333C5.84997 18.5833 5.84997 18.5833 5.84997 17.9333C5.69997 17.9333 5.6833 17.9583 5.59997 17.9333C5.5083 17.9083 5.47497 18.5333 5.19997 18.4167C5.1583 18.35 5.39997 17.9 5.14163 17.7083C5.0583 17.65 5.1583 17.275 5.12497 17.1083C5.12497 17.1083 4.79163 17.3083 4.54163 16.625C4.41663 16.4417 4.24997 16.7917 4.24997 16.7917C4.24997 16.7917 4.32497 16.9917 4.19163 17.0417C4.0083 16.8917 3.86663 16.975 3.6333 16.7583C3.39997 16.55 3.6833 16.3083 3.2333 16.1333C3.52497 15.3167 3.52497 15.475 4.24997 15.15C3.81663 14.8167 3.81663 14.8167 3.52497 14.3333C3.09163 14.1667 2.94163 14 2.5083 13.6833C1.92497 12.8583 1.6333 11.225 1.6333 10.0833C1.99997 9.69999 2.5083 11.3917 3.2333 11.8833L4.24997 12.375C4.8333 12.7 4.97497 13.025 5.41663 13.35L6.71663 13.85C7.29997 14.3333 7.59163 14.9833 8.02497 15.15C8.49997 15.15 8.59163 14.8417 8.74163 14.825C9.59997 14.775 10.0333 14.6583 10.2 14.3667C10.375 14.1333 10.7833 14.5 11.95 14.0083L11.8083 13.35C11.8083 13.35 12.1166 13.0667 12.5333 13.1833C12.525 12.8917 12.4916 12.1 12.9083 11.7333C12.6583 11.4417 13.0583 10.9833 13.075 10.8417C12.9583 10.125 13.1916 10.1167 13.2416 9.89999C13.2916 9.69166 13.0416 9.75833 13.1083 9.46666C13.1833 9.17499 13.6083 9.10833 13.6583 8.86666C13.7166 8.62499 13.5666 7.67499 13.55 7.46666C14.3333 7.23333 14.5833 6.51666 14.8583 6.81666C15 5.83333 15.15 5.49999 16.025 5.49999C16.1416 5.19999 15.7 4.94166 15.875 4.84166C16.1666 4.79999 16.3833 4.82499 16.725 5.31666C16.8333 5.48333 16.8583 5.09166 16.9666 5.04999C17.075 5.00833 17.3333 5.00833 17.375 4.81666C17.4166 4.61666 17.475 4.34999 17.625 4.02499C17.7416 3.75833 17.8333 4.13333 17.9416 4.64999C18.5583 4.67499 19.9416 4.82499 20.525 5.00833C20.9583 5.13333 21.25 4.88333 21.6666 4.82499C21.975 5.17499 22.2666 4.90833 22.4333 5.65833C22.6583 6.05833 23.0416 5.69166 23.125 5.80833C23.6083 7.31666 25.275 6.29999 25.4083 6.32499C25.6166 6.32499 25.875 6.99166 26.05 6.98333C26.3166 6.93333 26.2416 6.72499 26.4833 6.80833C26.4166 7.37499 26.95 8.02499 26.95 8.44999C26.95 8.44999 27.075 8.52499 27.2 8.39999C27.3166 8.26666 27.425 7.94999 27.5333 7.95833C27.7833 7.99999 29.3666 8.45833 29.6833 8.61666C29.825 8.90833 29.9583 9.05833 30.25 9.00833C30.4833 9.18333 30.3166 9.42499 30.45 9.43333C30.7416 9.26666 30.8416 9.09999 31.1333 9.25833C31.425 9.42499 31.7166 9.74999 31.8583 10.075C31.8583 10.2417 31.7083 10.8917 31.8583 11.875C31.9333 12.2 32.6666 14.5667 32.6666 14.8083C32.6666 15.1417 32.4416 15.3083 32.2916 15.6333C32.875 16.125 32.2916 16.9417 32 17.4333C34.1833 17.925 33.1666 18.9 34.9083 18.4083C34.475 19.5583 34.625 19.4667 35.0583 20.6083C34.1916 21.2583 35.0416 21.4583 34.4666 22.275C34.425 22.3333 34.8083 22.9917 35.3416 22.9917C35.2 24.2917 34.7583 23.8083 34.9083 25.7667C33.7666 25.7417 34.225 27.2333 33.4583 27.075C33.5 28.0083 33.8916 28.0917 33.7416 29.0333C33.1583 29.2 33.1583 29.2 32.875 29.6917L32.4416 29.525C32.2916 30.3417 32 30.5083 32.4416 31.325C32.4416 31.325 31.875 31.3417 31.7083 31.325C31.7 31.6083 31.9583 31.6833 32 31.975C31.9833 32.0917 31.175 32.6083 30.55 32.6333C30.3833 33.0333 30.9833 33.4667 30.95 33.6667C30.2666 33.8167 29.9666 34.75 29.9666 34.75C29.9666 34.75 30.3166 34.9167 30.2583 35.0833C30.075 34.9333 29.9666 34.9167 29.675 34.9167C29.5333 34.9583 29.175 34.9167 28.8416 35.5583C28.4666 35.6917 28.2916 35.6417 28.0083 36.0583C27.8833 35.6667 27.7 36.0667 27.4833 36.225C27.2583 36.375 26.9666 36.7667 26.925 36.75C26.9333 36.6333 27.0583 36.225 27.0583 36.225L26.25 36.4167C26.1916 36.425 26.2083 35.9417 26.0666 35.9583C25.925 35.975 25.5333 36.5667 25.4 36.5833C25.2666 36.6 25.225 36.4 25.1083 36.4167C24.9916 36.4333 24.775 37.0417 24.6916 37.0583C24.6083 37.0667 24.275 36.6833 24 36.7417C22.575 37.3083 22.3416 35.625 22.125 36.575C21.825 36.3917 21.875 36.4917 21.5666 36.5833C21.375 36.6417 21.3583 36.3 21.1833 36.3C20.8416 36.3167 20.85 36.6833 20.6666 36.575C20.5166 35.8083 19.5833 35.9417 19.5 35.6167C19.4166 35.2833 19.9 35.2833 20.05 35.05C20.1666 34.7167 19.925 34.5833 20.4083 34.2667C21.0333 33.7917 20.975 32.6167 20.8166 32.1583C20.8166 32.1583 20.325 30.6833 20.2333 30.6833C19.9416 30.6 19.9416 31.225 19.5166 31.4C18.6416 31.7333 17.1 30.575 16.8333 30.575C16.5916 30.575 15.4583 30.875 15.5 30.2417C15.3333 30.8583 14.7083 30.3833 14.6666 30.3833C14.0833 30.3833 14.3083 30.8917 13.9166 30.875C13.7416 30.8083 11.95 30.6833 11.95 30.6833V31.0167L9.77497 30.0333C8.89997 29.7 9.3333 28.8917 7.8833 29.3833V28.4H7.1583C7.44997 26.4333 7.1583 27.4167 7.0083 25.6167L6.42497 25.7833C5.84163 24.9 7.24163 25.0667 5.99163 24.475C5.99163 24.475 6.01663 23.5 5.69997 23.825C5.64163 23.8667 5.84997 24.3083 5.84997 24.3083C4.6833 24.1417 4.39997 23.825 4.39997 22.5167C4.39997 22.5167 5.34997 22.6667 5.26663 22.5167C5.1333 22.2667 4.9583 20.6833 4.9833 20.5667C4.97497 20.35 5.87497 19.8167 5.69997 19.3C5.81663 19.25 6.14163 19.2417 6.14163 19.2417" fill="white"/>
<path d="M35.6879 23.9999C35.6449 24.1048 35.6521 24.2096 35.6951 24.2903C35.774 24.1532 35.7094 24.0967 35.6951 23.9999H35.6879ZM1.56627 11.9516C1.56627 11.9516 1.35122 11.9193 1.39423 12.1371C1.46591 11.9758 1.5591 11.9596 1.56627 11.9516ZM1.54476 11.4354C1.4229 11.4354 1.27236 11.4193 1.32971 11.6371C1.4014 11.4677 1.54476 11.4435 1.54476 11.4354ZM2.45515 14.3629C2.45515 14.3629 2.64153 14.3467 2.59852 14.5645C2.52684 14.4032 2.45515 14.3709 2.45515 14.3629Z" stroke="white" stroke-width="0.190082" stroke-linejoin="round"/>
</g>
</g>
<defs>
<clipPath id="clip0_769_6952">
<path d="M0 20C0 8.95431 8.95431 0 20 0C31.0457 0 40 8.95431 40 20C40 31.0457 31.0457 40 20 40C8.95431 40 0 31.0457 0 20Z" fill="white"/>
</clipPath>
<clipPath id="clip1_769_6952">
<rect width="53.3333" height="40" fill="white" transform="translate(-7)"/>
</clipPath>
</defs>
</svg>
