<svg width="40" height="40" viewBox="0 0 40 40" fill="none" xmlns="http://www.w3.org/2000/svg">
<g clip-path="url(#clip0_769_6960)">
<path d="M0 20C0 8.95431 8.95431 0 20 0C31.0457 0 40 8.95431 40 20C40 31.0457 31.0457 40 20 40C8.95431 40 0 31.0457 0 20Z" fill="#E94E0F"/>
<g clip-path="url(#clip1_769_6960)">
<path d="M-7 -0.263153H46.3333V39.7368H-7V-0.263153Z" fill="#74ACDF"/>
<path d="M-6.99976 13.0702H46.3336V26.4035H-6.99976V13.0702Z" fill="white"/>
<path d="M19.4084 19.8368L21.6918 24.7952C21.6918 24.7952 21.7334 24.8952 21.7918 24.8702C21.8584 24.8368 21.8168 24.7535 21.8168 24.7535L19.9168 19.6368L19.4084 19.8368ZM19.8668 21.5618C19.8334 22.3118 20.3001 22.7285 20.2418 23.4035C20.1751 24.0868 20.5418 24.4618 20.6418 24.7202C20.7251 24.9868 20.5418 25.1368 20.6168 25.1785C20.7001 25.2202 20.8584 25.0118 20.8084 24.6368C20.7501 24.2702 20.4751 24.1535 20.5334 23.3368C20.6001 22.5118 20.2001 22.3202 20.2918 21.5785" fill="#F6B40E"/>
<path d="M19.8668 21.5618C19.8334 22.3118 20.3001 22.7285 20.2418 23.4035C20.1751 24.0868 20.5418 24.4618 20.6418 24.7202C20.7251 24.9868 20.5418 25.1368 20.6168 25.1785C20.7001 25.2202 20.8584 25.0118 20.8084 24.6368C20.7501 24.2702 20.4751 24.1535 20.5334 23.3368C20.6001 22.5118 20.2001 22.3202 20.2918 21.5785M19.4084 19.8368L21.6918 24.7952C21.6918 24.7952 21.7334 24.8952 21.7918 24.8702C21.8584 24.8368 21.8168 24.7535 21.8168 24.7535L19.9168 19.6368L19.4084 19.8368Z" stroke="#85340A" stroke-width="0.088" stroke-miterlimit="3.84"/>
<path d="M19.3916 19.7368L19.6 25.1952C19.6 25.1952 19.6 25.2952 19.6666 25.3035C19.7416 25.2952 19.7333 25.2035 19.7333 25.2035L19.9416 19.7452L19.3916 19.7368ZM19.15 21.4952C18.8333 22.1785 19.1 22.7368 18.7916 23.3368C18.475 23.9368 18.6666 24.4285 18.6583 24.7118C18.6333 24.9868 18.4 25.0535 18.4583 25.1202C18.5166 25.1868 18.7416 25.0535 18.8416 24.6952C18.9333 24.3368 18.7166 24.1202 19.0916 23.3868C19.4666 22.6535 19.1666 22.3202 19.5416 21.6702" fill="#F6B40E"/>
<path d="M19.15 21.4952C18.8333 22.1785 19.1 22.7368 18.7916 23.3368C18.475 23.9368 18.6666 24.4285 18.6583 24.7118C18.6333 24.9868 18.4 25.0535 18.4583 25.1202C18.5166 25.1868 18.7416 25.0535 18.8416 24.6952C18.9333 24.3368 18.7166 24.1202 19.0916 23.3868C19.4666 22.6535 19.1666 22.3202 19.5416 21.6702M19.3916 19.7368L19.6 25.1952C19.6 25.1952 19.6 25.2952 19.6666 25.3035C19.7416 25.2952 19.7333 25.2035 19.7333 25.2035L19.9416 19.7452L19.3916 19.7368Z" stroke="#85340A" stroke-width="0.088" stroke-miterlimit="3.84"/>
<path d="M19.4083 19.6285L17.5166 24.7452C17.5166 24.7452 17.4749 24.8452 17.5416 24.8702C17.6083 24.8952 17.6416 24.8035 17.6416 24.8035L19.9249 19.8452L19.4083 19.6285ZM18.5166 21.1702C17.9583 21.6785 17.9999 22.3035 17.4833 22.7369C16.9583 23.1702 16.9499 23.6952 16.8333 23.9535C16.6999 24.1952 16.4666 24.1702 16.4916 24.2619C16.5166 24.3452 16.7833 24.3119 17.0083 24.0119C17.2249 23.7119 17.1083 23.4369 17.7416 22.8952C18.3666 22.3619 18.2249 21.9369 18.8166 21.4785" fill="#F6B40E"/>
<path d="M18.5166 21.1702C17.9583 21.6785 17.9999 22.3035 17.4833 22.7369C16.9583 23.1702 16.9499 23.6952 16.8333 23.9535C16.6999 24.1952 16.4666 24.1702 16.4916 24.2619C16.5166 24.3452 16.7833 24.3119 17.0083 24.0119C17.2249 23.7119 17.1083 23.4369 17.7416 22.8952C18.3666 22.3619 18.2249 21.9369 18.8166 21.4785M19.4083 19.6285L17.5166 24.7452C17.5166 24.7452 17.4749 24.8452 17.5416 24.8702C17.6083 24.8952 17.6416 24.8035 17.6416 24.8035L19.9249 19.8452L19.4083 19.6285Z" stroke="#85340A" stroke-width="0.088" stroke-miterlimit="3.84"/>
<path d="M19.475 19.5369L15.7666 23.5452C15.7666 23.5452 15.6916 23.6202 15.7416 23.6702C15.7916 23.7202 15.8583 23.6452 15.8583 23.6452L19.8666 19.9369L19.475 19.5369ZM18.0583 20.6202C17.35 20.8785 17.1416 21.4702 16.5 21.6702C15.85 21.8702 15.6416 22.3535 15.4333 22.5452C15.2166 22.7202 15.0083 22.6119 15 22.6952C14.9916 22.7869 15.25 22.8535 15.575 22.6619C15.8916 22.4702 15.8916 22.1702 16.675 21.9119C17.4583 21.6535 17.4833 21.2119 18.2083 21.0202" fill="#F6B40E"/>
<path d="M18.0583 20.6202C17.35 20.8785 17.1416 21.4702 16.5 21.6702C15.85 21.8702 15.6416 22.3535 15.4333 22.5452C15.2166 22.7202 15.0083 22.6119 15 22.6952C14.9916 22.7869 15.25 22.8535 15.575 22.6619C15.8916 22.4702 15.8916 22.1702 16.675 21.9119C17.4583 21.6535 17.4833 21.2119 18.2083 21.0202M19.475 19.5369L15.7666 23.5452C15.7666 23.5452 15.6916 23.6202 15.7416 23.6702C15.7916 23.7202 15.8583 23.6452 15.8583 23.6452L19.8666 19.9369L19.475 19.5369Z" stroke="#85340A" stroke-width="0.088" stroke-miterlimit="3.84"/>
<path d="M20.0084 21.6868C20.0501 22.4035 20.4584 22.7285 20.3751 23.3868C20.5501 22.8702 20.1251 22.4618 20.1501 21.6868H20.0084ZM19.5417 19.7952L21.1001 23.2035L19.8001 19.6952" fill="#85340A"/>
<path d="M19.2336 21.6702C18.992 22.3535 19.2503 22.8035 18.9253 23.3868C19.2836 22.9702 19.0503 22.4368 19.367 21.7368L19.2336 21.6702ZM19.5253 19.7368L19.667 23.4868L19.8086 19.7452" fill="#85340A"/>
<path d="M18.5332 21.3619C18.0499 21.8952 18.1166 22.4119 17.5916 22.8285C18.0832 22.5869 18.0749 21.9952 18.6332 21.4702L18.5332 21.3619ZM19.5332 19.6869L18.2249 23.2035L19.7832 19.7952" fill="#85340A"/>
<path d="M17.9919 20.8035C17.3419 21.1118 17.2003 21.6118 16.5586 21.7952C17.1086 21.7618 17.3169 21.2118 18.0419 20.9368L17.9919 20.8035ZM19.5669 19.6368L17.0169 22.3785L19.7586 19.8285" fill="#85340A"/>
<path d="M19.5669 19.4785L14.6086 21.7619C14.6086 21.7619 14.5086 21.8035 14.5336 21.8619C14.5669 21.9285 14.6502 21.8869 14.6502 21.8869L19.7669 19.9869L19.5669 19.4785ZM17.8419 19.9369C17.0919 19.9035 16.6752 20.3702 16.0002 20.3119C15.3169 20.2452 14.9419 20.6119 14.6836 20.7119C14.4169 20.7952 14.2669 20.6119 14.2252 20.6869C14.1836 20.7702 14.3919 20.9285 14.7669 20.8785C15.1336 20.8202 15.2502 20.5452 16.0669 20.6035C16.8919 20.6702 17.0836 20.2702 17.8252 20.3619" fill="#F6B40E"/>
<path d="M17.8419 19.9369C17.0919 19.9035 16.6752 20.3702 16.0002 20.3119C15.3169 20.2452 14.9419 20.6119 14.6836 20.7119C14.4169 20.7952 14.2669 20.6119 14.2252 20.6869C14.1836 20.7702 14.3919 20.9285 14.7669 20.8785C15.1336 20.8202 15.2502 20.5452 16.0669 20.6035C16.8919 20.6702 17.0836 20.2702 17.8252 20.3619M19.5669 19.4785L14.6086 21.7619C14.6086 21.7619 14.5086 21.8035 14.5336 21.8619C14.5669 21.9285 14.6502 21.8869 14.6502 21.8869L19.7669 19.9869L19.5669 19.4785Z" stroke="#85340A" stroke-width="0.088" stroke-miterlimit="3.84"/>
<path d="M19.6668 19.4619L14.2084 19.6702C14.2084 19.6702 14.1084 19.6702 14.1001 19.7369C14.1084 19.8119 14.2001 19.8035 14.2001 19.8035L19.6584 20.0119L19.6668 19.4619ZM17.9084 19.2202C17.2251 18.9035 16.6668 19.1702 16.0668 18.8619C15.4668 18.5452 14.9751 18.7369 14.6918 18.7285C14.4168 18.7035 14.3501 18.4702 14.2834 18.5285C14.2168 18.5869 14.3501 18.8119 14.7084 18.9119C15.0668 19.0035 15.2834 18.7869 16.0168 19.1619C16.7501 19.5369 17.0834 19.2369 17.7334 19.6119" fill="#F6B40E"/>
<path d="M17.9084 19.2202C17.2251 18.9035 16.6668 19.1702 16.0668 18.8619C15.4668 18.5452 14.9751 18.7369 14.6918 18.7285C14.4168 18.7035 14.3501 18.4702 14.2834 18.5285C14.2168 18.5869 14.3501 18.8119 14.7084 18.9119C15.0668 19.0035 15.2834 18.7869 16.0168 19.1619C16.7501 19.5369 17.0834 19.2369 17.7334 19.6119M19.6668 19.4619L14.2084 19.6702C14.2084 19.6702 14.1084 19.6702 14.1001 19.7369C14.1084 19.8119 14.2001 19.8035 14.2001 19.8035L19.6584 20.0119L19.6668 19.4619Z" stroke="#85340A" stroke-width="0.088" stroke-miterlimit="3.84"/>
<path d="M19.775 19.4786L14.6584 17.5869C14.6584 17.5869 14.5584 17.5452 14.5334 17.6119C14.5084 17.6786 14.6 17.7119 14.6 17.7119L19.5584 19.9952L19.775 19.4786ZM18.2334 18.5869C17.725 18.0286 17.1 18.0702 16.6667 17.5536C16.2334 17.0286 15.7084 17.0202 15.45 16.9036C15.2084 16.7702 15.2334 16.5369 15.1417 16.5619C15.0584 16.5869 15.0917 16.8536 15.3917 17.0786C15.6917 17.2952 15.9667 17.1786 16.5084 17.8119C17.0417 18.4369 17.4667 18.2952 17.925 18.8869" fill="#F6B40E"/>
<path d="M18.2334 18.5869C17.725 18.0286 17.1 18.0702 16.6667 17.5536C16.2334 17.0286 15.7084 17.0202 15.45 16.9036C15.2084 16.7702 15.2334 16.5369 15.1417 16.5619C15.0584 16.5869 15.0917 16.8536 15.3917 17.0786C15.6917 17.2952 15.9667 17.1786 16.5084 17.8119C17.0417 18.4369 17.4667 18.2952 17.925 18.8869M19.775 19.4786L14.6584 17.5869C14.6584 17.5869 14.5584 17.5452 14.5334 17.6119C14.5084 17.6786 14.6 17.7119 14.6 17.7119L19.5584 19.9952L19.775 19.4786Z" stroke="#85340A" stroke-width="0.088" stroke-miterlimit="3.84"/>
<path d="M19.8666 19.5452L15.8583 15.8368C15.8583 15.8368 15.7833 15.7618 15.7333 15.8118C15.6833 15.8618 15.7583 15.9285 15.7583 15.9285L19.4666 19.9368L19.8666 19.5452ZM18.7833 18.1285C18.5249 17.4202 17.9333 17.2118 17.7333 16.5702C17.5333 15.9202 17.0499 15.7118 16.8583 15.5035C16.6833 15.2868 16.7916 15.0785 16.7083 15.0702C16.6166 15.0618 16.5499 15.3202 16.7416 15.6452C16.9333 15.9618 17.2333 15.9618 17.4916 16.7452C17.7499 17.5285 18.1916 17.5535 18.3833 18.2785" fill="#F6B40E"/>
<path d="M18.7833 18.1285C18.5249 17.4202 17.9333 17.2118 17.7333 16.5702C17.5333 15.9202 17.0499 15.7118 16.8583 15.5035C16.6833 15.2868 16.7916 15.0785 16.7083 15.0702C16.6166 15.0618 16.5499 15.3202 16.7416 15.6452C16.9333 15.9618 17.2333 15.9618 17.4916 16.7452C17.7499 17.5285 18.1916 17.5535 18.3833 18.2785M19.8666 19.5452L15.8583 15.8368C15.8583 15.8368 15.7833 15.7618 15.7333 15.8118C15.6833 15.8618 15.7583 15.9285 15.7583 15.9285L19.4666 19.9368L19.8666 19.5452Z" stroke="#85340A" stroke-width="0.088" stroke-miterlimit="3.84"/>
<path d="M17.7168 20.0785C17.0002 20.1202 16.6752 20.5285 16.0168 20.4452C16.5335 20.6202 16.9418 20.1952 17.7168 20.2202V20.0785ZM19.6085 19.6119L16.2002 21.1702L19.7085 19.8702" fill="#85340A"/>
<path d="M17.7334 19.3035C17.0501 19.0618 16.6001 19.3202 16.0167 18.9952C16.4334 19.3535 16.9667 19.1202 17.6667 19.4368L17.7334 19.3035ZM19.6667 19.5952L15.9167 19.7368L19.6584 19.8785" fill="#85340A"/>
<path d="M18.0419 18.6035C17.5085 18.1202 16.9919 18.1869 16.5752 17.6619C16.8169 18.1535 17.4085 18.1452 17.9335 18.7035L18.0419 18.6035ZM19.7169 19.6035L16.2002 18.2952L19.6085 19.8535" fill="#85340A"/>
<path d="M18.6004 18.0618C18.2921 17.4118 17.7921 17.2702 17.6087 16.6285C17.6421 17.1785 18.1921 17.3868 18.4671 18.1118L18.6004 18.0618ZM19.7671 19.6368L17.0254 17.0868L19.5754 19.8285" fill="#85340A"/>
<path d="M19.9251 19.6368L17.6418 14.6785C17.6418 14.6785 17.6001 14.5785 17.5418 14.6035C17.4751 14.6368 17.5168 14.7202 17.5168 14.7202L19.4168 19.8368L19.9251 19.6368ZM19.4668 17.9118C19.5001 17.1618 19.0334 16.7452 19.0918 16.0702C19.1584 15.3868 18.7918 15.0118 18.6918 14.7535C18.6084 14.4868 18.7918 14.3368 18.7168 14.2952C18.6334 14.2535 18.4751 14.4618 18.5251 14.8368C18.5834 15.2035 18.8584 15.3202 18.8001 16.1368C18.7334 16.9618 19.1334 17.1535 19.0418 17.8952" fill="#F6B40E"/>
<path d="M19.4668 17.9118C19.5001 17.1618 19.0334 16.7452 19.0918 16.0702C19.1584 15.3868 18.7918 15.0118 18.6918 14.7535C18.6084 14.4868 18.7918 14.3368 18.7168 14.2952C18.6334 14.2535 18.4751 14.4618 18.5251 14.8368C18.5834 15.2035 18.8584 15.3202 18.8001 16.1368C18.7334 16.9618 19.1334 17.1535 19.0418 17.8952M19.9251 19.6368L17.6418 14.6785C17.6418 14.6785 17.6001 14.5785 17.5418 14.6035C17.4751 14.6368 17.5168 14.7202 17.5168 14.7202L19.4168 19.8368L19.9251 19.6368Z" stroke="#85340A" stroke-width="0.088" stroke-miterlimit="3.84"/>
<path d="M19.9416 19.7369L19.7333 14.2785C19.7333 14.2785 19.7333 14.1785 19.6666 14.1702C19.5916 14.1785 19.5999 14.2702 19.5999 14.2702L19.3916 19.7285L19.9416 19.7369ZM20.1833 17.9785C20.4999 17.2952 20.2333 16.7369 20.5416 16.1369C20.8583 15.5369 20.6666 15.0452 20.6749 14.7619C20.6999 14.4869 20.9333 14.4202 20.8749 14.3535C20.8166 14.2869 20.5916 14.4202 20.4916 14.7785C20.3999 15.1369 20.6166 15.3535 20.2416 16.0869C19.8666 16.8202 20.1666 17.1535 19.7916 17.8035" fill="#F6B40E"/>
<path d="M20.1833 17.9785C20.4999 17.2952 20.2333 16.7369 20.5416 16.1369C20.8583 15.5369 20.6666 15.0452 20.6749 14.7619C20.6999 14.4869 20.9333 14.4202 20.8749 14.3535C20.8166 14.2869 20.5916 14.4202 20.4916 14.7785C20.3999 15.1369 20.6166 15.3535 20.2416 16.0869C19.8666 16.8202 20.1666 17.1535 19.7916 17.8035M19.9416 19.7369L19.7333 14.2785C19.7333 14.2785 19.7333 14.1785 19.6666 14.1702C19.5916 14.1785 19.5999 14.2702 19.5999 14.2702L19.3916 19.7285L19.9416 19.7369Z" stroke="#85340A" stroke-width="0.088" stroke-miterlimit="3.84"/>
<path d="M19.9251 19.8452L21.8168 14.7285C21.8168 14.7285 21.8584 14.6285 21.7918 14.6035C21.7251 14.5785 21.6918 14.6702 21.6918 14.6702L19.4084 19.6285L19.9251 19.8452ZM20.8168 18.3035C21.3751 17.7952 21.3334 17.1702 21.8501 16.7368C22.3751 16.3035 22.3834 15.7785 22.5001 15.5202C22.6334 15.2785 22.8668 15.3035 22.8418 15.2118C22.8168 15.1202 22.5501 15.1618 22.3251 15.4618C22.1084 15.7618 22.2251 16.0368 21.5918 16.5785C20.9668 17.1118 21.1084 17.5368 20.5168 17.9952" fill="#F6B40E"/>
<path d="M20.8168 18.3035C21.3751 17.7952 21.3334 17.1702 21.8501 16.7368C22.3751 16.3035 22.3834 15.7785 22.5001 15.5202C22.6334 15.2785 22.8668 15.3035 22.8418 15.2118C22.8168 15.1202 22.5501 15.1618 22.3251 15.4618C22.1084 15.7618 22.2251 16.0368 21.5918 16.5785C20.9668 17.1118 21.1084 17.5368 20.5168 17.9952M19.9251 19.8452L21.8168 14.7285C21.8168 14.7285 21.8584 14.6285 21.7918 14.6035C21.7251 14.5785 21.6918 14.6702 21.6918 14.6702L19.4084 19.6285L19.9251 19.8452Z" stroke="#85340A" stroke-width="0.088" stroke-miterlimit="3.84"/>
<path d="M19.8582 19.9368L23.5666 15.9285C23.5666 15.9285 23.6416 15.8535 23.5916 15.8035C23.5416 15.7535 23.4749 15.8285 23.4749 15.8285L19.4666 19.5368L19.8582 19.9368ZM21.2749 18.8535C21.9832 18.5952 22.1916 18.0035 22.8332 17.8035C23.4832 17.6035 23.6916 17.1202 23.8999 16.9285C24.1166 16.7535 24.3249 16.8618 24.3332 16.7785C24.3416 16.6868 24.0832 16.6202 23.7582 16.8118C23.4416 17.0035 23.4416 17.3035 22.6582 17.5618C21.8749 17.8202 21.8499 18.2618 21.1249 18.4535" fill="#F6B40E"/>
<path d="M21.2749 18.8535C21.9832 18.5952 22.1916 18.0035 22.8332 17.8035C23.4832 17.6035 23.6916 17.1202 23.8999 16.9285C24.1166 16.7535 24.3249 16.8618 24.3332 16.7785C24.3416 16.6868 24.0832 16.6202 23.7582 16.8118C23.4416 17.0035 23.4416 17.3035 22.6582 17.5618C21.8749 17.8202 21.8499 18.2618 21.1249 18.4535M19.8582 19.9368L23.5666 15.9285C23.5666 15.9285 23.6416 15.8535 23.5916 15.8035C23.5416 15.7535 23.4749 15.8285 23.4749 15.8285L19.4666 19.5368L19.8582 19.9368Z" stroke="#85340A" stroke-width="0.088" stroke-miterlimit="3.84"/>
<path d="M19.3251 17.7869C19.2834 17.0702 18.8751 16.7452 18.9584 16.0869C18.7834 16.6035 19.2084 17.0119 19.1834 17.7869H19.3251ZM19.7917 19.6785L18.2334 16.2702L19.5334 19.7785" fill="#85340A"/>
<path d="M20.1004 17.8035C20.3421 17.1202 20.0837 16.6702 20.4087 16.0868C20.0504 16.5035 20.2837 17.0368 19.9671 17.7368L20.1004 17.8035ZM19.8087 19.7368L19.6671 15.9868L19.5254 19.7285" fill="#85340A"/>
<path d="M20.8003 18.1118C21.2836 17.5785 21.217 17.0618 21.742 16.6452C21.2503 16.8868 21.2586 17.4785 20.7003 18.0035L20.8003 18.1118ZM19.8003 19.7868L21.1086 16.2702L19.5503 19.6785" fill="#85340A"/>
<path d="M21.3416 18.6702C21.9916 18.3618 22.1333 17.8618 22.775 17.6785C22.225 17.7118 22.0166 18.2618 21.2916 18.5368L21.3416 18.6702ZM19.7666 19.8368L22.3166 17.0952L19.575 19.6452" fill="#85340A"/>
<path d="M19.7667 19.9952L24.725 17.7118C24.725 17.7118 24.825 17.6702 24.8 17.6118C24.7667 17.5452 24.6833 17.5868 24.6833 17.5868L19.5667 19.4868L19.7667 19.9952ZM21.4917 19.5368C22.2417 19.5702 22.6583 19.1035 23.3333 19.1618C24.0167 19.2285 24.3917 18.8618 24.65 18.7618C24.9167 18.6785 25.0666 18.8618 25.1083 18.7868C25.15 18.7035 24.9416 18.5452 24.5666 18.5952C24.2 18.6535 24.0833 18.9285 23.2667 18.8702C22.4417 18.8035 22.25 19.2035 21.5083 19.1118" fill="#F6B40E"/>
<path d="M21.4917 19.5368C22.2417 19.5702 22.6583 19.1035 23.3333 19.1618C24.0167 19.2285 24.3917 18.8618 24.65 18.7618C24.9167 18.6785 25.0667 18.8618 25.1083 18.7868C25.15 18.7035 24.9417 18.5452 24.5667 18.5952C24.2 18.6535 24.0833 18.9285 23.2667 18.8702C22.4417 18.8035 22.25 19.2035 21.5083 19.1118M19.7667 19.9952L24.725 17.7118C24.725 17.7118 24.825 17.6702 24.8 17.6118C24.7667 17.5452 24.6833 17.5868 24.6833 17.5868L19.5667 19.4868L19.7667 19.9952Z" stroke="#85340A" stroke-width="0.088" stroke-miterlimit="3.84"/>
<path d="M19.6667 20.0119L25.1251 19.8036C25.1251 19.8036 25.2251 19.8036 25.2334 19.7369C25.2251 19.6619 25.1334 19.6702 25.1334 19.6702L19.6751 19.4619L19.6667 20.0119ZM21.4251 20.2536C22.1084 20.5702 22.6667 20.3036 23.2667 20.6119C23.8667 20.9286 24.3584 20.7369 24.6417 20.7452C24.9167 20.7702 24.9834 21.0036 25.0501 20.9452C25.1167 20.8869 24.9834 20.6619 24.6251 20.5619C24.2667 20.4702 24.0501 20.6869 23.3167 20.3119C22.5834 19.9369 22.2501 20.2369 21.6001 19.8619" fill="#F6B40E"/>
<path d="M21.4251 20.2536C22.1084 20.5702 22.6667 20.3036 23.2667 20.6119C23.8667 20.9286 24.3584 20.7369 24.6417 20.7452C24.9167 20.7702 24.9834 21.0036 25.0501 20.9452C25.1167 20.8869 24.9834 20.6619 24.6251 20.5619C24.2667 20.4702 24.0501 20.6869 23.3167 20.3119C22.5834 19.9369 22.2501 20.2369 21.6001 19.8619M19.6667 20.0119L25.1251 19.8036C25.1251 19.8036 25.2251 19.8036 25.2334 19.7369C25.2251 19.6619 25.1334 19.6702 25.1334 19.6702L19.6751 19.4619L19.6667 20.0119Z" stroke="#85340A" stroke-width="0.088" stroke-miterlimit="3.84"/>
<path d="M19.5586 19.9952L24.6753 21.8869C24.6753 21.8869 24.7753 21.9285 24.8003 21.8619C24.8253 21.7952 24.7336 21.7619 24.7336 21.7619L19.7753 19.4785L19.5586 19.9952ZM21.1003 20.8869C21.6086 21.4452 22.2336 21.4035 22.6669 21.9202C23.1003 22.4452 23.6253 22.4535 23.8836 22.5702C24.1253 22.7035 24.1003 22.9369 24.1919 22.9119C24.2753 22.8869 24.2419 22.6202 23.9419 22.3952C23.6419 22.1785 23.3669 22.2952 22.8253 21.6619C22.2919 21.0369 21.8669 21.1785 21.4086 20.5869" fill="#F6B40E"/>
<path d="M21.1003 20.8869C21.6086 21.4452 22.2336 21.4035 22.6669 21.9202C23.1003 22.4452 23.6253 22.4535 23.8836 22.5702C24.1253 22.7035 24.1003 22.9369 24.1919 22.9119C24.2753 22.8869 24.2419 22.6202 23.9419 22.3952C23.6419 22.1785 23.3669 22.2952 22.8253 21.6619C22.2919 21.0369 21.8669 21.1785 21.4086 20.5869M19.5586 19.9952L24.6753 21.8869C24.6753 21.8869 24.7753 21.9285 24.8003 21.8619C24.8253 21.7952 24.7336 21.7619 24.7336 21.7619L19.7753 19.4785L19.5586 19.9952Z" stroke="#85340A" stroke-width="0.088" stroke-miterlimit="3.84"/>
<path d="M19.4666 19.9285L23.4749 23.6369C23.4749 23.6369 23.5499 23.7119 23.5999 23.6619C23.6499 23.6119 23.5749 23.5452 23.5749 23.5452L19.8666 19.5369L19.4666 19.9285ZM20.5499 21.3452C20.8082 22.0535 21.3999 22.2619 21.5999 22.9035C21.7999 23.5535 22.2832 23.7619 22.4749 23.9702C22.6499 24.1869 22.5416 24.3952 22.6249 24.4035C22.7166 24.4119 22.7832 24.1535 22.5916 23.8285C22.3999 23.5119 22.0999 23.5119 21.8416 22.7285C21.5832 21.9452 21.1416 21.9202 20.9499 21.1952" fill="#F6B40E"/>
<path d="M20.5499 21.3452C20.8082 22.0535 21.3999 22.2619 21.5999 22.9035C21.7999 23.5535 22.2832 23.7619 22.4749 23.9702C22.6499 24.1869 22.5416 24.3952 22.6249 24.4035C22.7166 24.4119 22.7832 24.1535 22.5916 23.8285C22.3999 23.5119 22.0999 23.5119 21.8416 22.7285C21.5832 21.9452 21.1416 21.9202 20.9499 21.1952M19.4666 19.9285L23.4749 23.6369C23.4749 23.6369 23.5499 23.7119 23.5999 23.6619C23.6499 23.6119 23.5749 23.5452 23.5749 23.5452L19.8666 19.5369L19.4666 19.9285Z" stroke="#85340A" stroke-width="0.088" stroke-miterlimit="3.84"/>
<path d="M21.6167 19.3952C22.3333 19.3535 22.6583 18.9452 23.3167 19.0285C22.8 18.8535 22.3917 19.2785 21.6167 19.2535V19.3952ZM19.725 19.8619L23.1333 18.3035L19.625 19.6035" fill="#85340A"/>
<path d="M21.6001 20.1702C22.2834 20.4118 22.7334 20.1535 23.3167 20.4785C22.9001 20.1202 22.3667 20.3535 21.6667 20.0368L21.6001 20.1702ZM19.6667 19.8785L23.4167 19.7368L19.6751 19.5952" fill="#85340A"/>
<path d="M21.2917 20.8702C21.825 21.3535 22.3417 21.2868 22.7584 21.8118C22.5167 21.3202 21.925 21.3285 21.4 20.7702L21.2917 20.8702ZM19.6167 19.8702L23.1334 21.1785L19.725 19.6202" fill="#85340A"/>
<path d="M20.7333 21.4119C21.0417 22.0619 21.5417 22.2035 21.725 22.8452C21.6917 22.2952 21.1417 22.0869 20.8667 21.3619L20.7333 21.4119ZM19.5667 19.8369L22.3083 22.3869L19.7583 19.6452" fill="#85340A"/>
<path d="M19.6671 21.9618C20.896 21.9618 21.8921 20.9656 21.8921 19.7368C21.8921 18.508 20.896 17.5118 19.6671 17.5118C18.4383 17.5118 17.4421 18.508 17.4421 19.7368C17.4421 20.9656 18.4383 21.9618 19.6671 21.9618Z" fill="#F6B40E" stroke="#85340A" stroke-width="0.116667"/>
<path d="M20.4248 19.2618C20.2748 19.2618 20.1248 19.3285 20.0415 19.4618C20.2082 19.6202 20.5915 19.6285 20.8498 19.4452C20.7415 19.3285 20.5832 19.2618 20.4248 19.2618ZM20.4248 19.2952C20.5665 19.2952 20.7082 19.3618 20.7248 19.4285C20.5582 19.6202 20.2832 19.5952 20.1082 19.4618C20.1748 19.3535 20.2998 19.2868 20.4248 19.2952Z" fill="#843511"/>
<path d="M20.4502 19.1535C20.2252 19.1535 20.1752 19.2119 20.0752 19.2952C19.9752 19.3785 19.9169 19.3619 19.9085 19.3785C19.8835 19.3952 19.9085 19.4452 19.9335 19.4285C19.9752 19.4119 20.0419 19.3785 20.1419 19.2952C20.2419 19.2119 20.3502 19.2119 20.4502 19.2119C20.7585 19.2119 20.9252 19.4619 20.9669 19.4452C20.9919 19.4285 20.7919 19.1535 20.4502 19.1535Z" fill="#85340A"/>
<path d="M21.067 19.2619C20.6754 18.9202 20.1754 18.8619 19.9004 19.1202C19.8337 19.2035 19.792 19.3035 19.7754 19.4119C19.742 19.6035 19.8004 19.8119 19.9504 20.0285L19.8837 20.0619C19.7504 19.8202 19.7087 19.5452 19.7504 19.2785C19.7587 19.2119 19.7754 19.1452 19.8004 19.0869C20.1754 18.7785 20.692 18.7535 21.067 19.2535V19.2619Z" fill="#85340A"/>
<path d="M20.4169 19.5869C20.5043 19.5869 20.5752 19.516 20.5752 19.4285C20.5752 19.3411 20.5043 19.2702 20.4169 19.2702C20.3294 19.2702 20.2585 19.3411 20.2585 19.4285C20.2585 19.516 20.3294 19.5869 20.4169 19.5869Z" fill="#85340A"/>
<path d="M20.8585 19.5285C20.5668 19.7535 20.2752 19.7369 20.1085 19.6369C19.9418 19.5285 19.9418 19.4952 19.9752 19.4952C20.0085 19.4952 20.0418 19.5285 20.1752 19.6035C20.3168 19.6702 20.5168 19.6702 20.8585 19.5285Z" fill="#85340A"/>
<path d="M19.3334 20.0452C19.2501 20.0535 19.1834 20.1285 19.1918 20.2202C19.2001 20.3035 19.2751 20.3702 19.3668 20.3619C19.4168 20.3535 19.4584 20.3285 19.4834 20.2869C19.5418 20.3202 19.6001 20.3369 19.6668 20.3369H19.6834C19.7501 20.3369 19.8168 20.3202 19.8751 20.2869C19.9251 20.3535 20.0251 20.3702 20.1001 20.3202C20.1668 20.2702 20.1834 20.1702 20.1334 20.0952C20.1084 20.0619 20.0668 20.0369 20.0251 20.0285C20.0668 20.0535 20.0918 20.0869 20.0918 20.1369C20.0918 20.1869 20.0501 20.2369 19.9918 20.2369C19.9334 20.2369 19.8918 20.1952 19.8918 20.1369C19.8501 20.2202 19.7668 20.2785 19.6751 20.2785C19.5834 20.2702 19.5084 20.2202 19.4668 20.1369C19.4668 20.1952 19.4251 20.2369 19.3668 20.2369H19.3584C19.3084 20.2369 19.2584 20.1869 19.2584 20.1369C19.2584 20.0869 19.2834 20.0535 19.3251 20.0369H19.3334V20.0452ZM19.5001 20.5035C19.3251 20.5035 19.2501 20.6535 19.1001 20.7535C19.1834 20.7202 19.2584 20.6535 19.3751 20.5869C19.4918 20.5202 19.6001 20.6035 19.6668 20.6035C19.7334 20.6035 19.8334 20.5202 19.9584 20.5869C20.0751 20.6535 20.1501 20.7202 20.2334 20.7535C20.0751 20.6535 20.0084 20.5035 19.8334 20.5035C19.7751 20.5119 19.7168 20.5285 19.6668 20.5535C19.6168 20.5202 19.5584 20.5035 19.5001 20.5035Z" fill="#85340A"/>
<path d="M19.4335 20.7035C19.3668 20.7035 19.2835 20.7202 19.1501 20.7535C19.4585 20.6869 19.5251 20.7952 19.6668 20.7952C19.8001 20.7952 19.8668 20.6869 20.1751 20.7535C19.8418 20.6535 19.7668 20.7202 19.6668 20.7202C19.6001 20.7202 19.5501 20.6952 19.4335 20.7035Z" fill="#85340A"/>
<path d="M19.1668 20.7536H19.1001C19.4584 20.7952 19.2918 21.0036 19.6668 21.0036C20.0418 21.0036 19.8751 20.7952 20.2334 20.7536C19.8584 20.7202 19.9751 20.9452 19.6668 20.9452C19.3751 20.9452 19.4668 20.7536 19.1668 20.7536ZM19.9751 21.3119C19.9751 21.1452 19.8334 21.0036 19.6668 21.0036C19.5001 21.0036 19.3584 21.1452 19.3584 21.3119C19.4001 21.1452 19.5668 21.0369 19.7418 21.0786C19.8584 21.1036 19.9501 21.1952 19.9751 21.3119Z" fill="#85340A"/>
<path d="M18.2834 19.2619C18.6751 18.9202 19.1751 18.8619 19.4501 19.1202C19.5168 19.2035 19.5584 19.3035 19.5751 19.4119C19.6084 19.6035 19.5501 19.8119 19.4001 20.0285L19.4668 20.0619C19.6001 19.8202 19.6418 19.5452 19.6001 19.2785C19.5918 19.2119 19.5751 19.1452 19.5501 19.0869C19.1751 18.7785 18.6584 18.7535 18.2834 19.2535V19.2619Z" fill="#85340A"/>
<path d="M18.9004 19.1535C19.1254 19.1535 19.1754 19.2119 19.2754 19.2952C19.3754 19.3785 19.4337 19.3619 19.442 19.3785C19.467 19.3952 19.442 19.4452 19.417 19.4285C19.3754 19.4119 19.3087 19.3785 19.2087 19.2952C19.1087 19.2119 19.0004 19.2119 18.9004 19.2119C18.592 19.2119 18.4254 19.4619 18.3837 19.4452C18.3587 19.4285 18.5587 19.1535 18.9004 19.1535Z" fill="#85340A"/>
<path d="M18.8921 19.2618C18.7421 19.2618 18.5921 19.3285 18.5088 19.4618C18.6755 19.6202 19.0588 19.6285 19.3171 19.4452C19.2088 19.3285 19.0505 19.2618 18.8921 19.2618ZM18.8921 19.2952C19.0338 19.2952 19.1755 19.3618 19.1921 19.4285C19.0255 19.6202 18.7505 19.5952 18.5755 19.4618C18.6421 19.3535 18.7671 19.2868 18.8921 19.2952Z" fill="#843511"/>
<path d="M18.9086 19.5869C18.996 19.5869 19.0669 19.516 19.0669 19.4285C19.0669 19.3411 18.996 19.2702 18.9086 19.2702C18.8211 19.2702 18.7502 19.3411 18.7502 19.4285C18.7502 19.516 18.8211 19.5869 18.9086 19.5869Z" fill="#85340A"/>
<path d="M18.4919 19.5285C18.7836 19.7535 19.0753 19.7369 19.2419 19.6369C19.4086 19.5285 19.4086 19.4952 19.3753 19.4952C19.3419 19.4952 19.3086 19.5285 19.1753 19.6035C19.0336 19.6702 18.8336 19.6702 18.4919 19.5285Z" fill="#85340A"/>
</g>
</g>
<defs>
<clipPath id="clip0_769_6960">
<path d="M0 20C0 8.95431 8.95431 0 20 0C31.0457 0 40 8.95431 40 20C40 31.0457 31.0457 40 20 40C8.95431 40 0 31.0457 0 20Z" fill="white"/>
</clipPath>
<clipPath id="clip1_769_6960">
<rect width="53.3333" height="40" fill="white" transform="translate(-7 -0.263153)"/>
</clipPath>
</defs>
</svg>
