<svg width="40" height="40" viewBox="0 0 40 40" fill="none" xmlns="http://www.w3.org/2000/svg">
<g clip-path="url(#clip0_769_7116)">
<path d="M0 20C0 8.95431 8.95431 0 20 0C31.0457 0 40 8.95431 40 20C40 31.0457 31.0457 40 20 40C8.95431 40 0 31.0457 0 20Z" fill="#E94E0F"/>
<g clip-path="url(#clip1_769_7116)">
<path d="M-7 0V39.9996H52.9994V0H-7Z" fill="#3399CC"/>
<path d="M-7 26.6664V28.8886H52.9994V26.6664H-7ZM-7 31.1108V33.333H52.9994V31.1108H-7Z" fill="#FFFF00"/>
<path d="M4.8916 2.33334L5.13327 2.58334L4.88327 2.33334H4.8916ZM4.6416 2.83334L4.8916 3.08334L4.6416 2.83334ZM5.13327 2.83334L5.38327 3.08334L5.13327 2.83334Z" fill="#99CCCC"/>
<path d="M4.6416 3.08335L4.8916 3.32501L4.6416 3.07501V3.08335ZM5.13327 3.07501L5.38327 3.32501L5.13327 3.07501Z" fill="#CCCCFF"/>
<path d="M4.3916 3.56665L4.6416 3.81665L4.3916 3.56665Z" fill="#66CCCC"/>
<path d="M4.89163 3.56665L5.1333 3.81665L4.8833 3.56665H4.89163Z" fill="#CC6666"/>
<path d="M5.38333 3.56665L5.625 3.81665L5.375 3.56665H5.38333Z" fill="#66CCCC"/>
<path d="M4.3916 3.81665L4.6416 4.06665L4.3916 3.81665ZM5.38327 3.81665L5.62494 4.06665L5.37494 3.81665H5.38327Z" fill="#CCCCFF"/>
<path d="M4.6416 4.05835L4.8916 4.30835L4.6416 4.05835ZM5.13327 4.05835L5.38327 4.30835L5.13327 4.05835Z" fill="#FFCCCC"/>
<path d="M4.1499 4.30835L4.3999 4.55835L4.1499 4.30835Z" fill="#66CCCC"/>
<path d="M4.84998 2.83334L3.12498 9.37501L-3.43335 11.1667L3.09998 12.875L4.84998 19.4083L6.59165 12.875L13.125 11.125L6.59165 9.38334L4.84165 2.85001L4.84998 2.83334Z" fill="#CC0000" stroke="white" stroke-width="0.308333"/>
<path d="M5.625 4.30835L5.875 4.55835L5.625 4.30835Z" fill="#66CCCC"/>
<path d="M4.1499 4.54999L4.3999 4.79999L4.1499 4.54999ZM5.6249 4.54999L5.8749 4.79999L5.6249 4.54999Z" fill="#99CCFF"/>
<path d="M4.3916 4.79999L4.6416 5.04999L4.3916 4.79999ZM5.38327 4.79999L5.62494 5.04999L5.37494 4.79999H5.38327Z" fill="#FFCCCC"/>
<path d="M3.8999 5.04166L4.1499 5.29166L3.8999 5.04166Z" fill="#6699CC"/>
<path d="M4.4751 5.20834L4.55843 5.37501L4.4751 5.20834ZM5.45843 5.20834L5.54176 5.37501L5.45843 5.20834Z" fill="#CC3333"/>
<path d="M5.875 5.04166L6.125 5.29166L5.875 5.04166Z" fill="#6699CC"/>
<path d="M3.8999 5.29166L4.1499 5.54166L3.8999 5.29166ZM5.8749 5.29166L6.1249 5.54166L5.8749 5.29166Z" fill="#99CCFF"/>
<path d="M4.1499 5.53333L4.3999 5.78333L4.1499 5.53333ZM5.6249 5.53333L5.8749 5.78333L5.6249 5.53333Z" fill="#FFCCCC"/>
<path d="M3.6582 5.78333L3.9082 6.03333L3.6582 5.78333ZM6.11654 5.78333L6.36654 6.03333L6.11654 5.78333Z" fill="#6699CC"/>
<path d="M3.6582 6.02499L3.9082 6.27499L3.6582 6.02499ZM6.11654 6.02499L6.36654 6.27499L6.11654 6.02499Z" fill="#99CCCC"/>
<path d="M3.6582 6.27499L3.9082 6.52499L3.6582 6.27499ZM6.11654 6.27499L6.36654 6.52499L6.11654 6.27499Z" fill="#CCFFFF"/>
<path d="M3.41654 6.525L3.6582 6.76666L3.4082 6.51666L3.41654 6.525Z" fill="#6699CC"/>
<path d="M3.8999 6.525L4.1499 6.76666L3.8999 6.51666V6.525ZM5.8749 6.51666L6.1249 6.76666L5.8749 6.51666Z" fill="#FFCCCC"/>
<path d="M6.3667 6.525L6.6167 6.76666L6.3667 6.51666V6.525Z" fill="#6699CC"/>
<path d="M3.41654 6.76666L3.6582 7.01666L3.4082 6.76666H3.41654Z" fill="#99CCCC"/>
<path d="M3.9834 6.93335L4.06673 7.10002L3.9834 6.93335ZM5.95006 6.93335L6.0334 7.10002L5.95006 6.93335Z" fill="#CC3333"/>
<path d="M6.3667 6.76666L6.6167 7.01666L6.3667 6.76666Z" fill="#99CCCC"/>
<path d="M3.41654 7.01666L3.6582 7.26666L3.4082 7.01666H3.41654ZM6.36654 7.01666L6.61654 7.26666L6.36654 7.01666Z" fill="#CCFFFF"/>
<path d="M3.6582 7.25833L3.9082 7.50833L3.6582 7.25833ZM6.11654 7.25833L6.36654 7.50833L6.11654 7.25833Z" fill="#FFCCCC"/>
<path d="M3.16675 7.5L3.41675 7.75L3.16675 7.5Z" fill="#99CCCC"/>
<path d="M3.7417 7.66666L3.82503 7.83332L3.7417 7.66666ZM6.20003 7.66666L6.28337 7.83332L6.20003 7.66666Z" fill="#CC3333"/>
<path d="M6.6084 7.5L6.8584 7.75L6.6084 7.5Z" fill="#99CCCC"/>
<path d="M3.16675 7.75L3.41675 8L3.16675 7.75ZM6.60841 7.75L6.85841 8L6.60841 7.75Z" fill="#CCCCFF"/>
<path d="M3.41654 8L3.6582 8.25L3.4082 8H3.41654ZM6.36654 8L6.61654 8.25L6.36654 8Z" fill="#FFCCCC"/>
<path d="M2.91675 8.25L3.16675 8.49167L2.91675 8.24167V8.25Z" fill="#99CCCC"/>
<path d="M3.50003 8.40833L3.57503 8.57499L3.4917 8.40833H3.50003ZM6.4417 8.40833L6.52503 8.57499L6.4417 8.40833Z" fill="#CC3333"/>
<path d="M6.8584 8.25L7.1084 8.49167L6.8584 8.24167V8.25Z" fill="#99CCCC"/>
<path d="M2.91675 8.49167L3.16675 8.74167L2.91675 8.49167ZM6.85842 8.49167L7.10842 8.74167L6.85842 8.49167Z" fill="#CCCCFF"/>
<path d="M3.16675 8.73334L3.41675 8.98334L3.16675 8.73334ZM6.60841 8.73334L6.85841 8.98334L6.60841 8.73334Z" fill="#FFCCCC"/>
<path d="M2.66675 8.98334L2.91675 9.23334L2.66675 8.98334Z" fill="#99CCCC"/>
<path d="M3.16675 8.98334L3.41675 9.23334L3.16675 8.98334ZM6.60841 8.98334L6.85841 9.23334L6.60841 8.98334Z" fill="#CC3333"/>
<path d="M7.10002 8.98334L7.35002 9.23334L7.10002 8.98334ZM1.93335 9.23334L2.18335 9.475L1.93335 9.225V9.23334Z" fill="#99CCCC"/>
<path d="M2.18335 9.22501L2.43335 9.47501L2.18335 9.22501ZM7.60002 9.22501L7.84168 9.47501L7.59168 9.22501H7.60002Z" fill="#CCCCFF"/>
<path d="M7.83328 9.22501L8.08328 9.47501L7.83328 9.22501ZM1.19995 9.47501L1.44995 9.72501L1.19995 9.47501Z" fill="#99CCCC"/>
<path d="M1.44165 9.47501L1.69165 9.72501L1.44165 9.47501Z" fill="#CCCCFF"/>
<path d="M2.42505 9.47501L2.67505 9.72501L2.42505 9.47501Z" fill="#FFCCCC"/>
<path d="M2.66675 9.47501L2.91675 9.72501L2.66675 9.47501ZM7.10008 9.47501L7.35008 9.72501L7.10008 9.47501Z" fill="#CC3333"/>
<path d="M7.3501 9.47501L7.6001 9.72501L7.3501 9.47501Z" fill="#FFCCCC"/>
<path d="M8.33325 9.47501L8.58325 9.72501L8.33325 9.47501Z" fill="#CCCCFF"/>
<path d="M8.58329 9.47501L8.82495 9.72501L8.57495 9.47501H8.58329Z" fill="#99CCCC"/>
<path d="M0.216797 9.71667L0.466797 9.96667L0.216797 9.71667Z" fill="#6699CC"/>
<path d="M0.458252 9.71667L0.708252 9.96667L0.458252 9.71667Z" fill="#99CCCC"/>
<path d="M0.708252 9.71667L0.958252 9.96667L0.708252 9.71667Z" fill="#CCFFFF"/>
<path d="M1.69165 9.71667L1.94165 9.96667L1.69165 9.71667Z" fill="#FFCCCC"/>
<path d="M2.1001 9.79999L2.26676 9.88332L2.1001 9.79999ZM7.75843 9.79999L7.9251 9.88332L7.75843 9.79999Z" fill="#CC3333"/>
<path d="M8.08325 9.71667L8.33325 9.96667L8.08325 9.71667Z" fill="#FFCCCC"/>
<path d="M9.06665 9.71667L9.31665 9.96667L9.06665 9.71667Z" fill="#CCFFFF"/>
<path d="M9.31665 9.71667L9.56665 9.96667L9.31665 9.71667Z" fill="#99CCCC"/>
<path d="M9.55843 9.71667L9.80843 9.96667L9.55843 9.71667ZM-0.524902 9.96667L-0.274902 10.2167L-0.524902 9.96667Z" fill="#6699CC"/>
<path d="M-0.0332031 9.96667L0.216797 10.2167L-0.0332031 9.96667Z" fill="#CCFFFF"/>
<path d="M0.949951 9.96667L1.19995 10.2167L0.949951 9.96667Z" fill="#FFCCCC"/>
<path d="M1.3584 10.05L1.52507 10.1333L1.3584 10.05ZM8.49173 10.05L8.6584 10.1333L8.49173 10.05Z" fill="#CC3333"/>
<path d="M8.82495 9.96667L9.07495 10.2167L8.82495 9.96667Z" fill="#FFCCCC"/>
<path d="M9.80835 9.96667L10.0583 10.2167L9.80835 9.96667Z" fill="#CCFFFF"/>
<path d="M10.05 9.96667L10.3 10.2167L10.05 9.96667Z" fill="#99CCCC"/>
<path d="M10.3001 9.96667L10.5501 10.2167L10.3001 9.96667ZM-1.2666 10.2167L-1.0166 10.4583L-1.2666 10.2083V10.2167Z" fill="#6699CC"/>
<path d="M0.216797 10.2083L0.466797 10.4583L0.216797 10.2083Z" fill="#FFCCCC"/>
<path d="M0.625 10.2917L0.791667 10.375L0.625 10.2917ZM9.23333 10.2917L9.4 10.375L9.23333 10.2917Z" fill="#CC3333"/>
<path d="M9.55835 10.2083L9.80835 10.4583L9.55835 10.2083Z" fill="#FFCCCC"/>
<path d="M10.7917 10.2083L11.0417 10.4583L10.7917 10.2083Z" fill="#99CCFF"/>
<path d="M11.0332 10.2083L11.2832 10.4583L11.0332 10.2083Z" fill="#6699CC"/>
<path d="M-0.766569 10.4583L-0.524902 10.7083L-0.774902 10.4583H-0.766569ZM10.5501 10.4583L10.7918 10.7083L10.5418 10.4583H10.5501Z" fill="#FFCCCC"/>
<path d="M11.5249 10.4583L11.7749 10.7083L11.5249 10.4583Z" fill="#99CCFF"/>
<path d="M11.775 10.4583L12.025 10.7083L11.775 10.4583ZM-2.7417 10.7083L-2.4917 10.95L-2.7417 10.7V10.7083Z" fill="#66CCCC"/>
<path d="M-1.1001 10.7833L-0.933431 10.8667L-1.1001 10.7833ZM10.9582 10.7833L11.1249 10.8667L10.9582 10.7833Z" fill="#CC3333"/>
<path d="M11.2832 10.7L11.5332 10.95L11.2832 10.7Z" fill="#FFCCCC"/>
<path d="M12.2666 10.7L12.5166 10.95L12.2666 10.7Z" fill="#CCCCFF"/>
<path d="M12.5166 10.7L12.7666 10.95L12.5166 10.7Z" fill="#66CCCC"/>
<path d="M-2.25 10.95L-2 11.2L-2.25 10.95ZM12.025 10.95L12.275 11.2L12.025 10.95Z" fill="#FFCCCC"/>
<path d="M13 10.95L13.25 11.2L13 10.95Z" fill="#CCCCFF"/>
<path d="M13.2499 10.95L13.4999 11.2L13.2499 10.95ZM-3.9668 11.2L-3.7168 11.4417L-3.9668 11.1917V11.2Z" fill="#99CCCC"/>
<path d="M-2.7417 11.1917L-2.4917 11.4417L-2.7417 11.1917ZM12.5083 11.1917L12.7583 11.4417L12.5083 11.1917Z" fill="#CC6666"/>
<path d="M13.7499 11.1917L13.9916 11.4417L13.7416 11.1917H13.7499ZM-3.4751 11.4417L-3.2251 11.6917L-3.4751 11.4417Z" fill="#99CCCC"/>
<path d="M-2.25 11.4417L-2 11.6917L-2.25 11.4417ZM12.025 11.4417L12.275 11.6917L12.025 11.4417Z" fill="#FFCCCC"/>
<path d="M13 11.4417L13.25 11.6917L13 11.4417Z" fill="#CCCCFF"/>
<path d="M13.25 11.4417L13.5 11.6917L13.25 11.4417Z" fill="#99CCCC"/>
<path d="M-1.1001 11.7667L-0.933431 11.85L-1.1001 11.7667ZM10.9582 11.7667L11.1249 11.85L10.9582 11.7667Z" fill="#CC3333"/>
<path d="M11.2832 11.6917L11.5332 11.9333L11.2832 11.6833V11.6917Z" fill="#FFCCCC"/>
<path d="M12.2666 11.6917L12.5166 11.9333L12.2666 11.6833V11.6917Z" fill="#CCCCFF"/>
<path d="M12.5167 11.6917L12.7667 11.9333L12.5167 11.6833V11.6917ZM-2 11.9333L-1.75 12.1833L-2 11.9333Z" fill="#66CCCC"/>
<path d="M-0.766569 11.9333L-0.524902 12.1833L-0.774902 11.9333H-0.766569ZM10.5501 11.9333L10.7918 12.1833L10.5418 11.9333H10.5501Z" fill="#FFCCCC"/>
<path d="M11.5249 11.9333L11.7749 12.1833L11.5249 11.9333Z" fill="#99CCFF"/>
<path d="M11.7749 11.9333L12.0249 12.1833L11.7749 11.9333Z" fill="#66CCCC"/>
<path d="M0.216797 12.1833L0.466797 12.425L0.216797 12.175V12.1833Z" fill="#FFCCCC"/>
<path d="M0.625 12.2583L0.791667 12.3417L0.625 12.2583ZM9.23333 12.2583L9.4 12.3417L9.23333 12.2583Z" fill="#CC3333"/>
<path d="M9.55835 12.1833L9.80835 12.425L9.55835 12.175V12.1833Z" fill="#FFCCCC"/>
<path d="M10.7917 12.1833L11.0417 12.425L10.7917 12.175V12.1833Z" fill="#99CCFF"/>
<path d="M11.0334 12.1833L11.2834 12.425L11.0334 12.175V12.1833ZM-0.524902 12.425L-0.274902 12.675L-0.524902 12.425Z" fill="#6699CC"/>
<path d="M-0.0332031 12.425L0.216797 12.675L-0.0332031 12.425Z" fill="#CCFFFF"/>
<path d="M0.949951 12.425L1.19995 12.675L0.949951 12.425Z" fill="#FFCCCC"/>
<path d="M1.3584 12.5L1.52507 12.5833L1.3584 12.5ZM8.49173 12.5L8.6584 12.5833L8.49173 12.5Z" fill="#CC3333"/>
<path d="M8.82495 12.425L9.07495 12.675L8.82495 12.425Z" fill="#FFCCCC"/>
<path d="M9.80835 12.425L10.0583 12.675L9.80835 12.425Z" fill="#CCFFFF"/>
<path d="M10.05 12.425L10.3 12.675L10.05 12.425Z" fill="#99CCCC"/>
<path d="M10.2999 12.425L10.5499 12.675L10.2999 12.425ZM0.216585 12.675L0.458252 12.9167L0.208252 12.6667L0.216585 12.675Z" fill="#6699CC"/>
<path d="M0.458252 12.6667L0.708252 12.9167L0.458252 12.6667Z" fill="#99CCCC"/>
<path d="M0.708252 12.6667L0.958252 12.9167L0.708252 12.6667Z" fill="#CCFFFF"/>
<path d="M1.69165 12.6667L1.94165 12.9167L1.69165 12.6667Z" fill="#FFCCCC"/>
<path d="M2.1001 12.75L2.26676 12.8333L2.1001 12.75ZM7.75843 12.75L7.9251 12.8333L7.75843 12.75Z" fill="#CC3333"/>
<path d="M8.08325 12.6667L8.33325 12.9167L8.08325 12.6667Z" fill="#FFCCCC"/>
<path d="M9.06665 12.6667L9.31665 12.9167L9.06665 12.6667Z" fill="#CCFFFF"/>
<path d="M9.31665 12.6667L9.56665 12.9167L9.31665 12.6667Z" fill="#99CCCC"/>
<path d="M9.55835 12.6667L9.80835 12.9167L9.55835 12.6667Z" fill="#6699CC"/>
<path d="M1.19995 12.9167L1.44995 13.1667L1.19995 12.9167Z" fill="#99CCCC"/>
<path d="M1.44165 12.9167L1.69165 13.1667L1.44165 12.9167Z" fill="#CCCCFF"/>
<path d="M2.42505 12.9167L2.67505 13.1667L2.42505 12.9167Z" fill="#FFCCCC"/>
<path d="M2.66675 12.9167L2.91675 13.1667L2.66675 12.9167ZM7.10008 12.9167L7.35008 13.1667L7.10008 12.9167Z" fill="#CC3333"/>
<path d="M7.3501 12.9167L7.6001 13.1667L7.3501 12.9167Z" fill="#FFCCCC"/>
<path d="M8.33325 12.9167L8.58325 13.1667L8.33325 12.9167Z" fill="#CCCCFF"/>
<path d="M8.58335 12.9167L8.82502 13.1667L8.57502 12.9167H8.58335ZM1.93335 13.1667L2.18335 13.4167L1.93335 13.1667Z" fill="#99CCCC"/>
<path d="M2.18335 13.1667L2.43335 13.4167L2.18335 13.1667ZM7.60002 13.1667L7.84168 13.4167L7.59168 13.1667H7.60002Z" fill="#CCCCFF"/>
<path d="M7.83341 13.1667L8.08341 13.4167L7.83341 13.1667ZM2.66675 13.4167L2.91675 13.6583L2.66675 13.4083V13.4167Z" fill="#99CCCC"/>
<path d="M3.16675 13.4167L3.41675 13.6583L3.16675 13.4083V13.4167ZM6.60841 13.4083L6.85841 13.6583L6.60841 13.4083Z" fill="#CC3333"/>
<path d="M7.1001 13.4167L7.3501 13.6583L7.1001 13.4083V13.4167Z" fill="#99CCCC"/>
<path d="M3.16675 13.6583L3.41675 13.9083L3.16675 13.6583ZM6.60841 13.6583L6.85841 13.9083L6.60841 13.6583Z" fill="#FFCCCC"/>
<path d="M2.91675 13.9L3.16675 14.15L2.91675 13.9Z" fill="#CCCCFF"/>
<path d="M3.50003 14.0667L3.57503 14.2333L3.4917 14.0667H3.50003ZM6.4417 14.0667L6.52503 14.2333L6.4417 14.0667Z" fill="#CC3333"/>
<path d="M6.8584 13.9L7.1084 14.15L6.8584 13.9Z" fill="#CCCCFF"/>
<path d="M2.91675 14.15L3.16675 14.4L2.91675 14.15ZM6.85842 14.15L7.10842 14.4L6.85842 14.15Z" fill="#99CCCC"/>
<path d="M3.41654 14.3917L3.6582 14.6417L3.4082 14.3917H3.41654ZM6.36654 14.3917L6.61654 14.6417L6.36654 14.3917Z" fill="#FFCCCC"/>
<path d="M3.16675 14.6417L3.41675 14.8917L3.16675 14.6417Z" fill="#CCCCFF"/>
<path d="M3.7417 14.8L3.82503 14.9667L3.7417 14.8ZM6.20003 14.8L6.28337 14.9667L6.20003 14.8Z" fill="#CC3333"/>
<path d="M6.6084 14.6417L6.8584 14.8917L6.6084 14.6417Z" fill="#CCCCFF"/>
<path d="M3.16675 14.8833L3.41675 15.1333L3.16675 14.8833ZM6.60841 14.8833L6.85841 15.1333L6.60841 14.8833Z" fill="#99CCCC"/>
<path d="M3.6582 15.1333L3.9082 15.3833L3.6582 15.1333ZM6.11654 15.1333L6.36654 15.3833L6.11654 15.1333Z" fill="#FFCCCC"/>
<path d="M3.41654 15.375L3.6582 15.625L3.4082 15.375H3.41654Z" fill="#CCFFFF"/>
<path d="M3.9834 15.5417L4.06673 15.7083L3.9834 15.5417ZM5.95006 15.5417L6.0334 15.7083L5.95006 15.5417Z" fill="#CC3333"/>
<path d="M6.3667 15.375L6.6167 15.625L6.3667 15.375Z" fill="#CCFFFF"/>
<path d="M3.41654 15.625L3.6582 15.875L3.4082 15.625H3.41654ZM6.36654 15.625L6.61654 15.875L6.36654 15.625Z" fill="#99CCCC"/>
<path d="M3.41654 15.8667L3.6582 16.1167L3.4082 15.8667H3.41654Z" fill="#6699CC"/>
<path d="M3.8999 15.8667L4.1499 16.1167L3.8999 15.8667ZM5.8749 15.8667L6.1249 16.1167L5.8749 15.8667Z" fill="#FFCCCC"/>
<path d="M6.3667 15.8667L6.6167 16.1167L6.3667 15.8667Z" fill="#6699CC"/>
<path d="M3.6582 16.1167L3.9082 16.3667L3.6582 16.1167ZM6.11654 16.1167L6.36654 16.3667L6.11654 16.1167Z" fill="#CCFFFF"/>
<path d="M3.6582 16.3583L3.9082 16.6083L3.6582 16.3583ZM6.11654 16.3583L6.36654 16.6083L6.11654 16.3583Z" fill="#99CCCC"/>
<path d="M3.6582 16.6083L3.9082 16.8583L3.6582 16.6083ZM6.11654 16.6083L6.36654 16.8583L6.11654 16.6083Z" fill="#6699CC"/>
<path d="M4.1499 16.85L4.3999 17.1L4.1499 16.85ZM5.6249 16.85L5.8749 17.1L5.6249 16.85Z" fill="#FFCCCC"/>
<path d="M3.8999 17.1L4.1499 17.35L3.8999 17.1Z" fill="#99CCFF"/>
<path d="M4.4751 17.2667L4.55843 17.4333L4.4751 17.2667ZM5.45843 17.2667L5.54176 17.4333L5.45843 17.2667Z" fill="#CC3333"/>
<path d="M5.875 17.1L6.125 17.35L5.875 17.1Z" fill="#99CCFF"/>
<path d="M3.8999 17.35L4.1499 17.5917L3.8999 17.3417V17.35ZM5.8749 17.3417L6.1249 17.5917L5.8749 17.3417Z" fill="#6699CC"/>
<path d="M4.3916 17.5917L4.6416 17.8417L4.3916 17.5917ZM5.38327 17.5917L5.62494 17.8417L5.37494 17.5917H5.38327Z" fill="#FFCCCC"/>
<path d="M4.1499 17.8333L4.3999 18.0833L4.1499 17.8333ZM5.6249 17.8333L5.8749 18.0833L5.6249 17.8333Z" fill="#99CCFF"/>
<path d="M4.1499 18.0833L4.3999 18.3333L4.1499 18.0833ZM5.6249 18.0833L5.8749 18.3333L5.6249 18.0833Z" fill="#66CCCC"/>
<path d="M4.6416 18.3333L4.8916 18.5833L4.6416 18.3333ZM5.13327 18.3333L5.38327 18.5833L5.13327 18.3333Z" fill="#FFCCCC"/>
<path d="M4.3916 18.575L4.6416 18.825L4.3916 18.575ZM5.38327 18.575L5.62494 18.825L5.37494 18.575H5.38327Z" fill="#CCCCFF"/>
<path d="M4.3916 18.825L4.6416 19.075L4.3916 18.825Z" fill="#66CCCC"/>
<path d="M4.89163 18.825L5.1333 19.075L4.8833 18.825H4.89163Z" fill="#CC6666"/>
<path d="M5.38333 18.825L5.625 19.075L5.375 18.825H5.38333Z" fill="#66CCCC"/>
<path d="M4.6416 19.3167L4.8916 19.5667L4.6416 19.3167ZM5.13327 19.3167L5.38327 19.5667L5.13327 19.3167Z" fill="#CCCCFF"/>
<path d="M4.6416 19.5583L4.8916 19.8083L4.6416 19.5583ZM5.13327 19.5583L5.38327 19.8083L5.13327 19.5583ZM4.88327 20.0583L5.13327 20.3L4.88327 20.05V20.0583Z" fill="#99CCCC"/>
</g>
</g>
<defs>
<clipPath id="clip0_769_7116">
<path d="M0 20C0 8.95431 8.95431 0 20 0C31.0457 0 40 8.95431 40 20C40 31.0457 31.0457 40 20 40C8.95431 40 0 31.0457 0 20Z" fill="white"/>
</clipPath>
<clipPath id="clip1_769_7116">
<rect width="53.3333" height="40" fill="white" transform="translate(-7)"/>
</clipPath>
</defs>
</svg>
