<svg width="40" height="40" viewBox="0 0 40 40" fill="none" xmlns="http://www.w3.org/2000/svg">
<g clip-path="url(#clip0_769_5989)">
<path d="M0 20C0 8.95431 8.95431 0 20 0C31.0457 0 40 8.95431 40 20C40 31.0457 31.0457 40 20 40C8.95431 40 0 31.0457 0 20Z" fill="#E94E0F"/>
<g clip-path="url(#clip1_769_5989)">
<path d="M46.3333 40V0H-7V40H46.3333Z" fill="#000066"/>
<path d="M40.875 16.6417C40.875 21.95 40.025 27.6833 33.125 30.4167C26.2417 27.6833 25.4 21.95 25.3667 16.6417H40.875Z" fill="#8FC5FF" stroke="white" stroke-width="0.358333"/>
<path d="M33.1168 30.3917C35.7398 29.4733 37.9265 27.6104 39.2501 25.1667H38.6001C38.4085 25.1333 31.9835 24.5167 31.2085 24.1917C30.5501 23.9583 28.0085 24.4167 26.8418 24.8417C28.1305 27.4398 30.3863 29.4294 33.1251 30.3833L33.1168 30.3917Z" fill="#366CC9" stroke="black" stroke-width="0.358333"/>
<path d="M28.2999 27.1333H28.6916C28.7833 27.1333 28.7833 27.1333 28.8166 27.0333C28.8499 26.9333 28.9499 26.9667 29.0166 27C29.0749 27.0333 29.2083 27 29.2666 26.9333C29.3416 26.8667 29.3416 26.8667 29.4083 26.9333C29.4666 27 29.4999 26.9667 29.5749 26.9333C29.5999 26.9333 29.7333 26.8667 29.7666 26.7667C29.7916 26.675 29.8916 26.6417 29.9333 26.7083C29.9583 26.775 30.0166 26.775 30.0916 26.775C30.1499 26.775 30.1499 26.8 30.1499 26.9C30.1499 26.9666 30.1499 27 30.3166 26.8666C30.4499 27 30.4833 26.9333 30.4833 26.8C30.4833 26.675 30.4833 26.15 30.4166 26.1166C30.3499 26.0833 30.3166 25.8583 30.2833 25.7C30.2833 25.3666 30.2833 25.3666 29.9583 25.2C29.9583 25.1166 29.8916 25.075 29.6249 25.075C29.6666 25.0416 29.6249 24.95 29.5666 24.9083C29.4999 24.8833 29.4999 24.85 29.5666 24.7167C29.6333 24.7167 29.7666 24.7166 29.7916 24.6166C29.8583 24.5583 30.0583 24.5583 30.1833 24.6166C30.3166 24.6833 30.4499 24.6833 30.6749 24.6166L31.0666 24.425C31.2333 24.325 31.2583 24.2916 31.2583 24.1666C31.2583 23.8333 31.1666 23.5167 31.0916 23.35C31.0083 23.1833 31.0083 23.0166 30.8666 22.7333C30.7416 22.4666 30.7416 22.4 30.6166 22.2416C30.5416 22.175 30.5083 22.1417 30.5083 22.05C30.4986 21.9213 30.4387 21.8016 30.3416 21.7167C30.0916 21.4917 30.0249 20.7416 29.8916 20.1916C29.8249 19.8583 29.8916 19.1083 29.7666 18.9833C29.5333 18.8166 29.4333 18.85 29.2666 18.7916C29.1416 18.625 29.1083 18.3333 28.9833 18.0416C28.8166 18.075 28.7166 18.2333 28.6249 18.2916C28.5249 18.3666 28.4916 18.3666 28.4916 18.525C28.4916 18.6583 28.3916 18.8583 28.2666 19.1083C28.1333 19.375 27.8416 19.275 27.6083 19.6333C27.1583 19.0833 27.1583 18.9167 27.1249 18.7583C27.1249 18.5917 27.0249 18.5583 26.7666 18.3333V17.8333C26.5333 17.6666 26.4083 17.7083 26.3083 17.8333C26.2083 17.9333 26.1416 18.0916 25.9833 18.1666C25.9166 18.2916 25.6499 18.55 25.4583 18.9166C25.6583 21.8416 26.3083 24.775 28.2916 27.125L28.2999 27.1333Z" fill="#5D3100" stroke="black" stroke-width="0.0333333"/>
<path d="M40.875 16.6416C40.875 14.6166 40.775 12.6583 40.8084 10.975C38.3571 10.0217 35.7467 9.54377 33.1167 9.56664C31.3917 9.56664 28 9.82497 25.4334 10.9666C25.4917 12.6583 25.3667 14.6166 25.3667 16.6333L40.875 16.6416Z" fill="#FFFF00" stroke="white" stroke-width="0.358333"/>
<path d="M25.7917 18.95C25.8751 19.0833 26.0334 19.3083 26.0417 19.45C26.1084 19.3167 26.1584 19.2667 26.1667 19.1917C26.1667 19.1083 26.2751 18.9667 26.2334 18.8833C26.2001 18.8 26.1751 18.7417 26.2667 18.8C26.3584 18.8583 26.3417 18.9667 26.3251 19.1167C26.2667 19.5333 26.1001 19.6167 26.0751 19.8917C26.3167 20.475 26.1334 20.6917 26.4084 21.275C26.4501 21.2917 26.5584 21.25 26.5917 21.2583C26.7417 21.1583 26.8417 21.1833 27.0501 21.2333C27.2501 21.275 27.3584 21.4167 27.3584 21.55C27.3584 21.6833 27.3584 21.7083 27.4084 21.7833C27.4501 21.85 27.5251 21.975 27.5167 22.0667C27.4917 22.15 27.5251 22.2 27.5584 22.2333C27.5834 22.275 27.5417 22.3833 27.5251 22.4333C27.5001 22.4833 27.5084 22.575 27.6084 22.7C27.7084 22.825 27.9417 23.3583 27.9417 23.6667C27.9417 23.9917 27.9667 24.1333 28.0917 24.1917C28.2167 24.25 28.2584 24.3 28.2417 24.4333C28.2251 24.5583 28.3001 25.2667 28.3167 25.3833C28.3251 25.4917 28.3751 25.4667 28.4334 25.525C28.4834 25.5833 28.5167 25.65 28.6834 25.65C28.8584 25.65 29.0167 25.6333 29.1167 25.65C29.2834 25.8583 29.3667 26.15 29.4084 26.325C29.4501 26.5083 29.4417 26.7417 29.4917 26.7417C29.5584 26.7417 29.6167 26.7417 29.6001 26.5333C29.5834 26.3167 29.5667 26.2833 29.4917 26.1667C29.4084 26.0583 29.3667 26 29.4084 25.9417C29.4501 25.875 29.4584 25.775 29.4501 25.6833C29.4334 25.6 29.4001 25.4667 29.5501 25.6333L29.7751 25.9083C29.8167 25.9583 29.8334 26.075 29.8251 26.1833C29.8167 26.2833 29.8251 26.325 29.9001 26.2667C29.9584 26.2167 30.0251 26.3083 29.9834 26.4167C29.9584 26.525 30.0084 26.5917 30.1084 26.6333C30.2084 26.6667 30.2501 26.6917 30.2751 26.7667C30.3001 26.8333 30.3834 26.875 30.3834 26.7167C30.3752 26.5215 30.3416 26.3282 30.2834 26.1417C30.2417 26.0417 30.2084 25.825 30.2001 25.6917C30.1834 25.5667 30.1667 25.5333 30.1084 25.5167C30.0501 25.4917 29.9917 25.4333 29.9834 25.3833C29.9834 25.325 29.9251 25.3 29.8917 25.3C29.8501 25.3 29.8167 25.275 29.7917 25.2333C29.7751 25.1833 29.7501 25.1833 29.7084 25.1833C29.6667 25.175 29.6001 25.2 29.5751 25.1333C29.5584 25.0667 29.5251 24.9667 29.4834 24.9167C29.4417 24.8667 29.4084 24.8417 29.4001 24.65C29.4001 24.4583 29.4001 24.4333 29.3334 24.3667C29.2667 24.3 29.1667 24.1167 29.1251 24.05C29.0917 23.9667 29.0417 23.8917 29.0417 24.05C29.0417 24.2167 29.0417 24.3 29.1501 24.3583C29.2501 24.4167 29.2751 24.4167 29.2334 24.5083C29.1834 24.5917 29.2334 24.65 29.2501 24.7083C29.2751 24.7667 29.3001 24.825 29.2501 24.875C29.2001 24.9417 29.1501 24.925 29.1584 24.8333C29.1588 24.7365 29.1329 24.6415 29.0834 24.5583C29.0501 24.475 29.0084 24.425 28.9584 24.475C28.9084 24.5083 28.8667 24.4583 28.9001 24.425C28.9417 24.3917 28.9251 24.3667 28.9001 24.3417C28.8834 24.325 28.8667 24.2917 28.9084 24.2417C28.9501 24.1917 28.9501 24.1667 28.9251 24.05C28.9001 23.9333 28.7167 23.3333 28.6334 23.2C28.5501 23.0583 28.5584 22.9667 28.6584 23.0917C28.7667 23.225 28.8667 23.3417 28.8834 23.4583C28.8834 23.575 28.9084 23.6417 28.9417 23.675C28.9834 23.7167 29.0001 23.7083 29.0251 23.6083C29.0251 23.5167 29.1084 23.55 28.9917 23.375C28.8667 23.2 28.6501 22.9 28.5584 22.3583C28.4751 21.825 28.4417 21.4833 28.3584 21.3417C28.2751 21.1917 28.2501 21.1583 28.2417 21.025C28.2334 20.8917 28.2417 20.75 28.1834 20.65C28.1251 20.55 28.0834 20.5333 28.0751 20.6833C28.0667 20.8333 28.0751 21.1833 28.1251 21.2333C28.1751 21.2917 28.1417 21.45 28.1251 21.525C28.1084 21.6083 27.9834 21.7 28.2667 21.8667C28.3751 21.9417 28.3501 22.0333 28.3501 22.0833C28.3251 22.15 28.3084 22.1417 28.2501 22.05C28.1917 21.9583 28.1334 21.875 28.0751 21.8333C28.0167 21.7917 28.0001 21.75 28.0167 21.625C28.0334 21.5 28.0417 21.4167 28.0167 21.375C27.9834 21.3417 27.9667 21.3667 27.9417 21.4417C27.9251 21.5083 27.9167 21.6917 27.8667 21.7417C27.8251 21.7917 27.8251 21.7583 27.8001 21.65C27.7667 21.5417 27.8084 21.3667 27.8667 21.175C27.9251 20.9917 27.9667 20.775 27.9167 20.525C27.8667 20.275 27.8834 20.1917 27.7001 19.9833C27.5001 19.7667 27.2751 19.5667 27.1917 19.3083C27.0917 19.0417 27.0751 18.8083 26.9667 18.6917C26.8729 18.5716 26.7604 18.4675 26.6334 18.3833V17.9917C26.6334 17.8917 26.5917 17.8417 26.4834 17.8583C26.3751 17.875 26.3001 17.9667 26.2334 18.0917C26.1667 18.225 26.1167 18.1667 26.0167 18.3833C25.9167 18.6 25.8001 18.7167 25.8001 18.95H25.7917Z" fill="#CF6200"/>
<path d="M26.4 21.425C26.4834 21.475 26.5417 21.5 26.65 21.45C26.7417 21.4 26.8584 21.25 27.0084 21.4C27.135 21.5588 27.2054 21.7552 27.2084 21.9583C27.2084 22.15 27.2084 22.5 27.425 22.6916C27.6417 22.8833 27.75 23.0916 27.7584 23.3416C27.7757 23.5945 27.8148 23.8454 27.875 24.0916C27.9084 24.1916 27.9584 24.3083 28.0334 24.3833C28.0917 24.45 28.15 24.6416 28.1584 24.8416C28.1667 25.05 28.1334 25.1833 28.1584 25.2916C28.1917 25.3916 28.1584 25.475 28.0917 25.4333C28.0084 25.3916 27.9917 25.35 27.9417 25.2666C27.8917 25.1833 27.8584 25.1916 27.9 25.325C27.9417 25.4583 28.0667 25.575 28.175 25.575C28.2834 25.575 28.3167 25.5833 28.3917 25.6583C28.4584 25.725 28.4667 25.7583 28.5834 25.7583C28.7 25.7583 28.7167 25.7583 28.8334 25.7916C28.9417 25.8166 28.9417 25.8083 29 25.7916C29.0584 25.7666 29.1167 25.825 29.1584 25.9333C29.1917 26.0416 29.3 26.35 29.3 26.4333C29.3 26.5166 29.3 26.6 29.3584 26.6833C29.4167 26.775 29.4 26.85 29.3334 26.8083C29.275 26.7583 29.2667 26.7666 29.225 26.7833C29.175 26.8 29.1417 26.7666 29.0667 26.7166C29 26.6833 29.0417 26.6916 28.975 26.5916C28.9084 26.4833 28.8667 26.45 28.8667 26.5333C28.8667 26.6166 28.85 26.7 28.8 26.65C28.75 26.6083 28.725 26.6083 28.6834 26.65C28.6417 26.7 28.625 26.7333 28.575 26.65C28.525 26.5666 28.4667 26.5666 28.4084 26.5416C28.3667 26.5333 28.3667 26.5333 28.3417 26.4583C28.3167 26.375 28.2334 26.3583 28.175 26.3583C28.1 26.3583 28.0667 26.325 28.0584 26.275C28.0584 26.225 28.0084 26.1916 27.975 26.1666C27.9334 26.1416 27.9584 26.0833 27.95 26.025C27.95 25.9666 27.8917 25.9833 27.8584 25.975C27.8167 25.9583 27.8 25.9666 27.8 25.875C27.8 25.7916 27.7584 25.7666 27.7417 25.7083C27.7084 25.6416 27.7417 25.5833 27.7584 25.525C27.7667 25.4416 27.7584 25.4083 27.7084 25.3583C27.6584 25.2916 27.7084 25.2333 27.5667 25.1083C27.425 25 27.3584 25.1 27.3167 24.825C27.2927 24.5008 27.2255 24.1813 27.1167 23.875C27.0334 23.7916 26.9917 23.7083 26.9084 23.6833C26.825 23.6583 26.7917 23.6833 26.7834 23.5166C26.775 23.35 26.725 23.15 26.6167 23.05L26.425 22.8666C26.375 22.8333 26.35 22.75 26.425 22.6166C26.5 22.4666 26.4667 22.2666 26.4584 22.175C26.45 22.0916 26.425 21.9583 26.4417 21.8583C26.4584 21.7583 26.4417 21.6333 26.425 21.5666C26.4 21.5083 26.3667 21.4833 26.4084 21.425H26.4ZM28.4417 19.025C28.331 19.1716 28.199 19.3008 28.05 19.4083C27.8917 19.525 27.6917 19.6083 27.8 19.8C27.9167 19.9916 28.0084 20.0166 28.025 20.1583C28.05 20.3083 28.0917 20.4333 28.1917 20.4666C28.3167 20.5 28.3584 20.4833 28.3584 20.7166C28.3584 20.9416 28.3584 21.05 28.4584 21.1333C28.5584 21.2166 28.5417 21.3166 28.5917 21.525C28.6417 21.7416 28.6417 22.2083 28.775 22.525C28.9 22.8333 29.2167 23.4416 29.175 23.5583C29.1417 23.6833 29.1084 23.775 29.2334 23.925C29.375 24.0666 29.4584 24.2833 29.4834 24.4083C29.4834 24.5333 29.5084 24.575 29.65 24.5333C29.7424 24.5101 29.8263 24.4609 29.8917 24.3916C29.9334 24.3333 30.025 24.3416 30.15 24.4083C30.275 24.4833 30.4667 24.5416 30.5834 24.4833C30.6917 24.4083 30.75 24.3083 30.85 24.3083C31.0084 24.1916 31.0667 23.9583 31.1 23.8916C31.1334 23.825 31.1084 23.825 31.0417 23.7583C30.975 23.6916 31.0084 23.575 31 23.4666C30.9834 23.35 30.9417 23.175 30.8084 22.925C30.675 22.675 30.5834 22.375 30.5 22.3C30.4167 22.2166 30.3667 22.025 30.3584 21.9333C30.35 21.85 30.2417 21.7666 30.175 21.7C30.1 21.625 30.0417 21.5333 29.9584 21.1333C29.875 20.7416 29.825 20.4666 29.825 20.3833C29.825 20.3166 29.8084 20.3166 29.7417 20.2833C29.675 20.2583 29.6417 20.15 29.675 20.1C29.6834 20.0416 29.6417 19.9833 29.6167 19.9166C29.6 19.85 29.6167 19.725 29.6667 19.65C29.7084 19.5833 29.7 19.4 29.6584 19.2333C29.6167 19.0833 29.5667 18.95 29.3834 18.9166C29.2084 18.9 29.1667 18.85 29.1084 18.7C29.025 18.5583 28.9584 18.3 28.9417 18.2416C28.925 18.1833 28.8834 18.175 28.75 18.2916C28.6167 18.4 28.5667 18.4333 28.5667 18.65C28.5667 18.7916 28.6 18.8333 28.6417 18.9083C28.6834 18.9916 28.7 19.0166 28.725 19.225C28.7584 19.4333 28.95 19.775 28.7084 19.975C28.4584 20.1583 28.4917 20.2083 28.5 20.3416C28.5167 20.4833 28.4334 20.5666 28.3917 20.3833C28.3417 20.1833 28.3917 20.075 28.525 19.9833C28.6584 19.9 28.7834 19.775 28.6917 19.65C28.6117 19.4767 28.5637 19.2904 28.55 19.1C28.5417 18.9666 28.525 18.9166 28.4417 19.025Z" fill="#CF6200"/>
<path d="M26.4332 21.9L26.4582 22.175C26.4582 22.2667 26.4915 22.4667 26.4165 22.6083C26.3499 22.75 26.3665 22.825 26.4165 22.8667H26.4249C26.5665 22.825 26.5915 22.675 26.5499 22.6C26.5319 22.5602 26.5241 22.5165 26.527 22.4729C26.5299 22.4293 26.5435 22.3871 26.5665 22.35C26.6082 22.2667 26.6082 22.225 26.5665 22.1667C26.5249 22.1083 26.5249 22.1083 26.5665 21.95C26.6165 21.8083 26.5082 21.8083 26.4332 21.9ZM27.8832 24.0917C27.8582 23.9917 27.7582 23.5917 27.7582 23.3417C27.7499 23.0917 27.6332 22.8833 27.4249 22.6917C27.2582 22.5417 27.2249 22.3 27.2082 22.1083C27.0832 22.0333 27.0415 22.0667 27.0499 22.2083C27.0499 22.3583 27.2165 22.425 27.1915 22.65C27.1665 22.8667 27.1665 22.8167 27.2749 22.925C27.3665 23.025 27.4165 23.1417 27.3582 23.175C27.2999 23.2167 27.2999 23.3 27.3749 23.325C27.4582 23.3583 27.4582 23.4417 27.4499 23.525C27.4415 23.6 27.5249 23.6167 27.5582 23.6667C27.6082 23.725 27.6082 23.8667 27.5582 23.9417C27.5249 24.025 27.5165 24.15 27.5915 24.0833C27.6749 24.0083 27.7082 24.0833 27.7665 24.1833C27.8165 24.2667 27.8665 24.2417 27.9332 24.225C27.9092 24.1827 27.8897 24.138 27.8749 24.0917H27.8832ZM28.9665 26.0583C28.9332 26.1583 28.8749 26.1333 28.8249 26.0833C28.7749 26.0333 28.7165 26.0333 28.7415 25.9333C28.7582 25.8417 28.7415 25.825 28.6832 25.775L28.6582 25.75H28.5915C28.4665 25.75 28.4582 25.725 28.3832 25.65C28.3698 25.6382 28.3559 25.6271 28.3415 25.6167V25.6833C28.3415 25.775 28.3415 25.75 28.2582 25.7833C28.1749 25.8083 28.1749 25.6917 28.1582 25.6167C28.1569 25.5998 28.1541 25.5831 28.1499 25.5667C28.09 25.5533 28.035 25.5237 27.9909 25.481C27.9467 25.4384 27.9153 25.3844 27.8999 25.325C27.8582 25.1917 27.8999 25.1833 27.9499 25.2667C27.9999 25.35 28.0082 25.375 28.0832 25.4333C28.1499 25.475 28.1832 25.3917 28.1499 25.2917C28.1453 25.2557 28.1453 25.2193 28.1499 25.1833C28.1374 25.149 28.114 25.1197 28.0832 25.1C27.9332 25.0417 27.9832 25.0333 27.9832 24.9167C27.9999 24.8083 27.9749 24.8083 27.8832 24.8667C27.7999 24.925 27.7999 24.8667 27.7999 24.6833C27.7999 24.5167 27.6832 24.5167 27.6582 24.6333C27.6332 24.7583 27.5832 24.675 27.5415 24.5083C27.4999 24.3417 27.4165 24.2917 27.4165 24.4583C27.4165 24.6 27.3665 24.625 27.2832 24.5583L27.3165 24.8167C27.3582 25.0917 27.4249 24.9833 27.5665 25.1083C27.6999 25.225 27.6582 25.2917 27.7082 25.35C27.7582 25.4083 27.7665 25.45 27.7582 25.5167C27.7332 25.5833 27.7082 25.6417 27.7332 25.7C27.7582 25.7667 27.7999 25.7833 27.7999 25.875C27.7999 25.9583 27.8165 25.95 27.8582 25.975H27.9249L27.9832 25.8917C28.0915 25.7917 28.2332 25.8917 28.2915 26.0333C28.3415 26.1583 28.3999 26.1917 28.4832 26.0833C28.5665 25.9833 28.5332 26 28.6165 26.0917C28.6999 26.1917 28.7332 26.175 28.7332 26.175C28.7332 26.175 28.8165 26.1417 28.8832 26.1917C28.9415 26.2417 28.9665 26.2333 29.0832 26.075C29.1915 25.9083 29.0332 25.9583 28.9832 26.0583H28.9665ZM29.2832 21.4083C29.3165 21.1583 29.2915 20.9167 29.3915 20.825C29.4999 20.7417 29.6165 20.55 29.6165 20.9417C29.5999 21.325 29.5832 21.3 29.5082 21.3917C29.4249 21.4833 29.3582 21.5083 29.4249 21.65C29.5165 21.7917 29.5249 21.8167 29.5165 22.0333C29.5082 22.2583 29.5082 22.3583 29.5915 22.4667C29.6832 22.5833 29.7082 22.5833 29.7332 22.7167C29.7594 22.8594 29.8293 22.9904 29.9332 23.0917C30.0332 23.1917 30.1499 23.4417 30.1582 23.625C30.1749 23.8083 30.3249 23.85 30.4749 23.9833C30.6249 24.1083 30.4415 24.1917 30.3332 24.1333C30.2165 24.0833 30.2582 24.1333 30.1915 24.2167C30.1249 24.3 30.1082 24.3083 30.0499 24.1667C29.9915 24.0333 29.7999 23.9417 29.7082 23.9083C29.6165 23.875 29.5415 23.725 29.4582 23.575C29.4248 23.516 29.3779 23.4656 29.3215 23.428C29.265 23.3903 29.2005 23.3665 29.1332 23.3583C29.1665 23.45 29.1832 23.525 29.1749 23.5583C29.1415 23.6833 29.1082 23.775 29.2332 23.925C29.3749 24.0667 29.4582 24.2833 29.4832 24.4083C29.4832 24.5333 29.5082 24.575 29.6499 24.5333C29.7405 24.5058 29.8233 24.4573 29.8915 24.3917C29.9332 24.3333 30.0249 24.3333 30.1499 24.4083C30.2749 24.475 30.4665 24.5417 30.5832 24.475C30.6915 24.4 30.7499 24.3083 30.8499 24.3083C31.0082 24.1917 31.0665 23.95 31.0999 23.8917C31.1332 23.8083 31.1082 23.8083 31.0415 23.75C30.9749 23.6833 31.0082 23.5667 30.9915 23.4583C30.9915 23.3417 30.9415 23.175 30.8082 22.925C30.6665 22.675 30.5832 22.375 30.4999 22.3C30.4165 22.2167 30.3582 22.025 30.3582 21.9333C30.3415 21.85 30.2415 21.7667 30.1749 21.6917C30.0999 21.625 30.0332 21.525 29.9582 21.1333C29.8999 20.825 29.8415 20.5833 29.8332 20.4667C29.7499 20.5917 29.6915 20.6333 29.6665 20.5333C29.6249 20.4333 29.5915 20.3833 29.5415 20.45C29.4999 20.5167 29.4832 20.3833 29.4832 20.325C29.4832 20.2667 29.4832 20.2667 29.4082 20.2667C29.3415 20.2667 29.4082 20.1833 29.3832 20C29.3582 19.8333 29.3249 19.8167 29.3082 20.0167C29.2832 20.2167 29.1665 20.35 29.2165 20.3833C29.2582 20.4333 29.2332 20.525 29.1915 20.6583C29.1551 20.755 29.1551 20.8617 29.1915 20.9583C29.2249 21.0417 29.1749 21.225 29.1582 21.3667C29.1332 21.5083 29.2499 21.6583 29.2832 21.4167V21.4083ZM27.2165 19.3917C27.1332 19.3917 27.0749 19.475 27.1249 19.725C27.1582 19.8917 27.0415 19.8583 26.9915 19.775C26.9499 19.6917 26.9082 19.525 26.8249 19.3833C26.7332 19.2417 26.7749 19.475 26.7665 19.6167C26.7499 19.7583 26.8415 19.7583 26.9165 19.8667C26.9999 19.9833 26.9332 20.025 26.8499 20.025C26.7665 20.025 26.7915 20.2083 26.8165 20.325C26.8415 20.45 26.7915 20.475 26.7332 20.375C26.6499 20.2667 26.7082 20.125 26.7165 19.925C26.7332 19.7333 26.7415 19.775 26.6165 19.7333C26.4915 19.6833 26.5082 19.6583 26.5665 19.55C26.6082 19.4333 26.6499 19.3833 26.5915 19.325C26.5415 19.2667 26.5499 19.2333 26.6415 19.225C26.7249 19.2083 26.6915 19.1417 26.7749 19.125C26.8582 19.1 26.8915 19.125 26.8999 18.9833C26.9082 18.8583 26.9499 18.7917 27.0415 18.825C27.0999 19.0167 27.1665 19.3083 27.2165 19.3917ZM28.3582 20.725C28.3582 20.9583 28.3582 21.0583 28.4582 21.1417C28.5582 21.225 28.5415 21.325 28.5915 21.5333C28.6415 21.75 28.6415 22.2167 28.7749 22.5333L28.9249 22.8667C28.9953 22.8073 29.0522 22.7334 29.0915 22.65C29.1165 22.5833 29.0165 22.4167 28.9415 22.2917C28.8582 22.1417 28.9499 22.1 29.0249 21.925C29.1082 21.7667 29.0249 21.7583 28.8915 21.7083C28.7749 21.6667 28.7749 21.5417 28.7082 21.3667C28.6415 21.1833 28.6499 21.1083 28.6915 21C28.7332 20.9 28.7082 20.825 28.6165 20.8C28.5249 20.775 28.5499 20.7167 28.5832 20.6C28.6165 20.4917 28.6415 20.4667 28.4999 20.4917C28.3999 20.525 28.3749 20.55 28.3415 20.575L28.3582 20.725Z" fill="#00B800"/>
<path d="M29.6583 21.1917C29.6416 21.325 29.6416 21.4 29.6083 21.4417C29.5749 21.4833 29.5999 21.55 29.6333 21.625C29.6749 21.6917 29.6833 21.775 29.6583 21.9083C29.6249 22.0333 29.6749 22.125 29.7416 22.1583C29.8083 22.1917 29.8416 22.1583 29.8249 22.325C29.8179 22.3967 29.8269 22.4691 29.8514 22.5369C29.8759 22.6047 29.9153 22.6661 29.9666 22.7167C30.0499 22.7833 30.1083 22.8917 30.0916 22.9667C30.0916 23.0333 30.1499 23.0917 30.2333 23.1333C30.3166 23.1667 30.2999 23.175 30.2999 23.2167C30.2999 23.2583 30.3333 23.2667 30.4166 23.2917C30.4999 23.3167 30.5833 23.3667 30.6833 23.4917C30.7833 23.625 30.9333 23.6833 30.9083 23.55C30.8833 23.425 30.9083 23.3167 30.7749 23.2583C30.6333 23.1917 30.5333 22.8667 30.4833 22.6417C30.4218 22.4203 30.3074 22.2173 30.1499 22.05C30.1249 21.8833 30.1499 21.8083 30.0499 21.7333C30.007 21.7032 29.9718 21.6633 29.9472 21.617C29.9226 21.5706 29.9092 21.5191 29.9083 21.4667C29.9083 21.4 29.8583 21.3 29.8083 21.2667C29.7666 21.2417 29.7416 21.1917 29.7416 21.1167C29.7416 21.05 29.6749 21.0583 29.6583 21.2V21.1917Z" fill="#5D3100"/>
<path d="M29.0583 27.25C29.3367 27.2074 29.6084 27.129 29.8667 27.0167C30.0083 27.1083 30.2417 27.2333 30.3417 27.2333C30.15 27.275 30.0167 27.2583 29.975 27.2167C30 27.275 30.0583 27.375 30.1083 27.3833C29.9167 27.3833 29.7083 27.3333 29.6417 27.2667C29.475 27.3333 29.2083 27.35 29.0583 27.25ZM29.4167 27.5C29.4917 27.525 29.85 27.5833 29.9 27.5833C29.7833 27.6833 29.8833 27.7833 30.075 27.7667C29.9917 27.7833 29.875 27.8167 29.95 27.8333C30.2044 27.8302 30.456 27.7793 30.6917 27.6833C30.525 27.8917 29.7417 28.0833 29.4167 27.5ZM29.75 28.0083C29.8964 27.9721 30.0503 27.9808 30.1917 28.0333C30.075 28.0833 29.8167 28.0833 29.7417 28.0167L29.75 28.0083Z" fill="#00D860"/>
<path d="M30.1084 28.0083C30.2751 27.9833 30.7751 28.0916 30.9418 27.9916C30.8834 28.15 30.5834 28.175 30.4668 28.1333C30.3584 28.1083 30.2584 28.0666 30.1834 28.0666C30.2334 28.0416 30.1668 28.0416 30.1001 28.0083H30.1084Z" fill="black"/>
<path d="M30.2832 28.25C30.5364 28.257 30.7892 28.2261 31.0332 28.1583C31.1749 28.2083 31.4832 28.2917 31.5499 28.2833C31.4082 28.3667 31.1332 28.3167 31.0499 28.2833C30.9274 28.3341 30.7953 28.3574 30.6628 28.3516C30.5304 28.3458 30.4008 28.3112 30.2832 28.25Z" fill="#00D860"/>
<path d="M30.5 28.325C30.6916 28.3667 30.8583 28.3417 31.0416 28.2833C31.1 28.3 31.2333 28.3333 31.3666 28.3333C31.45 28.375 31.5583 28.4417 31.675 28.4583C31.4649 28.487 31.2511 28.4671 31.05 28.4C30.8214 28.3935 30.594 28.4362 30.3833 28.525C30.3874 28.4854 30.4008 28.4474 30.4226 28.414C30.4443 28.3807 30.4737 28.353 30.5083 28.3333L30.5 28.325Z" fill="#00D860"/>
<path d="M30.2835 27.3834C30.4251 27.425 30.9668 27.4 31.2251 27.275C31.3418 27.2167 31.4085 27.3084 31.2835 27.3417C30.8501 27.5084 30.4918 27.5584 30.2418 27.425C30.1418 27.375 30.1251 27.325 30.2835 27.375V27.3834Z" fill="black"/>
<path d="M32.8833 26.65C32.225 26.9584 31.8 27.05 30.8917 26.7667C30.8083 26.75 30.75 26.7667 30.8417 26.825C31.069 26.9233 31.3066 26.996 31.55 27.0417C31.6667 27.05 31.625 27.1 31.55 27.125C31.4833 27.1417 31.4667 27.1917 31.5583 27.1584C31.65 27.1167 32.2083 27.1 32.4333 27.2167C32.525 27.275 32.55 27.2584 32.5417 27.2167C32.5333 27.1834 32.5833 27.1584 32.6583 27.15C32.725 27.1417 32.775 27.1167 32.7167 27.1C32.6583 27.075 32.65 27.0584 32.6917 27.0417C32.7333 27.0167 32.7417 26.9917 32.675 26.9834C32.6167 26.9667 32.5667 26.95 32.625 26.925C32.6939 26.8948 32.7669 26.8752 32.8417 26.8667C32.8583 26.825 32.8333 26.7 32.8833 26.65Z" fill="#00D860"/>
<path d="M31.8001 26.725C32.3168 26.7326 32.8193 26.5553 33.2168 26.225C33.3501 26.3083 33.5251 26.3916 33.6251 26.4083C33.7168 26.425 33.7917 26.5083 33.6501 26.5083C33.5084 26.5083 33.3168 26.45 33.2168 26.4083C32.7918 26.6686 32.2977 26.7936 31.8001 26.7666C31.7084 26.7666 31.6834 26.725 31.8001 26.7333V26.725Z" fill="black"/>
<path d="M30.6916 24.6917C30.8249 24.7833 31.0499 24.9333 31.3416 24.9083C31.4826 25.0212 31.6438 25.106 31.8166 25.1583C31.6166 25.225 31.3999 25.3 31.3499 25.3583C31.2666 25.275 31.1416 25.2917 31.1166 25.2417C31.0333 25.325 31.0416 25.35 31.0999 25.3917C31.2891 25.4479 31.4861 25.4732 31.6833 25.4667C31.7833 25.4333 31.8249 25.525 31.7333 25.55C31.5083 25.6333 31.0666 25.55 30.9166 25.3083C30.7499 25.0667 30.6249 24.975 30.2083 25.2C30.1666 25.075 30.1666 25.0583 30.0833 25.0583C29.9999 25.0583 29.8499 24.95 29.9666 24.95C30.0833 24.95 30.4166 24.9 30.6916 24.7V24.6917Z" fill="#00D860"/>
<path d="M30.7999 25.25C30.7165 25.2583 30.5249 25.3666 30.4582 25.375C30.3832 25.3916 30.2582 25.4916 30.3832 25.4916C30.5249 25.4916 30.6915 25.35 30.7832 25.35C30.8749 25.35 30.8832 25.225 30.7999 25.2416V25.25ZM31.2165 25.6666C31.1582 25.6833 30.9415 25.7333 30.8832 25.7333C30.8249 25.7333 30.7582 25.7333 30.7665 25.7833C30.7749 25.825 30.7915 25.8583 30.6915 25.8416C30.6082 25.825 30.5332 25.8666 30.5165 25.8916C30.4915 25.9166 30.4749 25.9416 30.5665 25.95C30.6499 25.95 30.6999 25.975 30.8082 25.9166C30.9082 25.8666 30.9999 25.8083 31.1082 25.8C31.2165 25.8 31.3249 25.65 31.2082 25.675L31.2165 25.6666Z" fill="#00D860"/>
<path d="M30.9083 25.925C31 26 31.4583 26.1416 31.6167 26.1416C31.7833 26.1333 31.7583 26.2 31.6333 26.225C31.4916 26.2459 31.3471 26.2367 31.2093 26.198C31.0714 26.1592 30.9433 26.0917 30.8333 26C30.7333 25.9166 30.8333 25.8833 30.9 25.925H30.9083Z" fill="black"/>
<path d="M33.0668 26.1667C32.7898 26.2448 32.4979 26.2534 32.2168 26.1917C32.0751 26.1417 31.9418 26.1417 32.0501 26.2417C32.1335 26.3334 32.4501 26.3917 32.6335 26.35C32.0001 26.4917 31.8335 26.4834 31.6835 26.4584C31.49 26.4349 31.2947 26.4293 31.1001 26.4417C31.0072 26.4567 30.9118 26.4452 30.8251 26.4084C30.7668 26.3667 30.7501 26.3167 30.9168 26.3334C31.0835 26.3417 31.1085 26.3167 30.9668 26.2917C30.8168 26.2667 30.6251 26.325 30.8168 26.4584C31.0168 26.575 31.4335 26.4417 31.7085 26.525C31.9488 26.5876 32.2007 26.5915 32.4429 26.5364C32.6851 26.4813 32.9105 26.3688 33.1001 26.2084C33.1251 26.1917 33.1751 26.125 33.0668 26.1584V26.1667ZM31.3501 25.6417C31.3668 25.6917 31.3668 25.725 31.3501 25.7584C31.3335 25.7917 31.3418 25.8334 31.3918 25.7917C31.4418 25.75 31.4751 25.6917 31.5418 25.725C31.6001 25.75 31.7335 25.75 31.7918 25.7417C31.8585 25.7417 31.8751 25.7167 31.7918 25.6834C31.7154 25.6506 31.6332 25.6336 31.5501 25.6334C31.5001 25.6417 31.4335 25.6334 31.3918 25.6084C31.3501 25.5834 31.3418 25.6084 31.3501 25.6417Z" fill="#00D860"/>
<path d="M32.2499 25.8083C32.1833 25.8083 32.0499 25.7583 31.9916 25.725C31.9249 25.7 31.8249 25.7 31.8916 25.8083C31.9666 25.9083 32.2749 25.95 32.3916 25.9083C32.4999 25.8583 32.4583 25.8083 32.5583 25.875C32.6749 25.9417 32.7833 25.9833 32.8666 25.9833C32.9499 25.9833 32.9749 25.9833 32.8916 25.9333C32.8083 25.8833 32.7583 25.875 32.7416 25.8333C32.7249 25.7917 32.7249 25.7583 32.8166 25.7917C32.8999 25.8167 32.9833 25.8583 33.0499 25.825C33.1166 25.7917 33.2333 25.7167 33.3416 25.7167L33.3583 25.65C33.2083 25.65 33.1083 25.6917 33.0666 25.7C33.0333 25.7167 32.9499 25.7333 32.8666 25.7167C32.7833 25.7 32.6833 25.6917 32.6583 25.675C32.6249 25.65 32.6333 25.6333 32.6999 25.625C32.7666 25.6083 32.7833 25.5667 32.6999 25.575C32.6166 25.5917 32.3499 25.5917 32.2166 25.55C32.0916 25.5083 32.0333 25.5 31.9833 25.525C31.9249 25.5417 31.9333 25.6083 32.0083 25.6083C32.0916 25.6083 32.2749 25.6333 32.3416 25.6917C32.3916 25.75 32.3916 25.75 32.3249 25.725C32.2499 25.6917 32.1166 25.7083 32.2499 25.8083Z" fill="#00D860"/>
<path d="M33.3583 25.65L33.3333 25.7167C33.4916 25.7167 33.8666 25.75 33.9999 25.825C34.1166 25.7334 34.0916 25.7 34.1666 25.725C34.2499 25.75 34.3666 25.7667 34.4166 25.75C34.4545 25.7283 34.4993 25.7223 34.5416 25.7334C34.5916 25.7334 34.7083 25.7167 34.7666 25.6834C34.8333 25.6417 34.9666 25.6 35.0416 25.6C35.1083 25.6 35.2083 25.575 35.0666 25.55C34.9333 25.525 34.7166 25.575 34.6499 25.6C34.5666 25.625 34.3583 25.6417 34.2333 25.6417C34.1083 25.6417 33.9333 25.7 33.7916 25.6667C33.6416 25.6334 33.4416 25.65 33.3499 25.65H33.3583Z" fill="#00D860"/>
<path d="M35.3251 25.5833C35.0751 25.7667 34.7584 25.8083 34.4001 25.8333C34.2918 25.8333 34.3251 25.8667 34.4168 25.875C34.8001 25.9167 35.2334 25.775 35.3834 25.625C35.4251 25.575 35.4168 25.5083 35.3251 25.575V25.5833Z" fill="black"/>
<path d="M33.5918 26.0167C33.798 26.0476 34.0014 26.095 34.2001 26.1583C34.3001 26.1417 34.3251 26.125 34.3085 26.0833C34.2835 26.05 34.2751 26.0167 34.4501 26.0333H35.0751C35.1418 26.0083 35.2668 25.9083 35.3251 25.9083C35.1751 25.9083 34.5335 25.9417 34.4585 25.9333C34.3751 25.9333 34.3335 25.9333 34.2835 25.9667C34.2335 25.9917 34.2085 26.0083 34.1418 25.975C34.0585 25.95 33.9668 25.9167 33.8918 25.9667C33.8418 26 33.7001 25.9667 33.5918 26.0167Z" fill="#00D860"/>
<path d="M35.0751 26.0333C35.1334 26.0083 35.2668 25.9083 35.3251 25.9C35.4418 25.8917 35.5584 25.9333 35.6168 25.95C35.6751 25.9667 35.7418 25.95 35.7001 25.9C35.6668 25.8583 35.7001 25.7667 35.8668 25.7917C36.0501 25.8083 36.1334 25.8417 36.3084 25.825C36.4834 25.8083 36.5501 25.9333 36.8668 25.8083C36.8501 25.9333 36.9084 25.9417 36.9668 25.9167C37.0251 25.9 37.0918 25.9 37.1918 25.975C37.3001 26.0583 37.9168 26.0583 38.0584 26.0333C38.2084 26.0083 38.2751 26.0833 38.1668 26.1167C38.0584 26.15 38.0334 26.2 38.0584 26.2417C38.0834 26.275 38.1084 26.3167 37.9751 26.3C37.8334 26.2833 37.8084 26.325 37.7501 26.3667C37.6834 26.4167 37.6668 26.45 37.4751 26.4083C37.2918 26.375 37.2501 26.4 37.1501 26.4083C37.0501 26.425 37.0251 26.4333 36.9168 26.4C36.7697 26.3471 36.6104 26.3384 36.4584 26.375C36.3251 26.425 36.2334 26.4583 36.1084 26.425C35.9834 26.4 35.9834 26.4083 36.0584 26.3417C36.1251 26.2583 36.1418 26.2583 36.2918 26.25C36.4418 26.2333 36.5418 26.1917 36.4501 26.1333C36.3418 26.075 36.3168 26.0833 36.1751 26.1417C36.0418 26.2083 35.9751 26.2583 35.8168 26.175C35.6668 26.0917 35.6001 26.1 35.4834 26.1333C35.3834 26.1583 35.2168 26.0917 35.0751 26.0333ZM35.5834 26.2833C35.3834 26.3167 35.3334 26.1917 35.1334 26.2083C35.0668 26.225 34.9501 26.3083 35.1084 26.2917C35.2668 26.2833 35.4418 26.3667 35.5918 26.3583C35.7418 26.35 35.6751 26.275 35.5918 26.2833H35.5834ZM35.3668 26.425C35.4584 26.3917 35.6668 26.4667 35.7668 26.45C35.8584 26.4333 35.9334 26.4833 35.8334 26.525C35.7334 26.5583 35.5251 26.4667 35.4168 26.4917C35.3251 26.525 35.2168 26.4833 35.3584 26.425H35.3668ZM33.3334 26.9833C33.4751 26.9833 33.9834 26.9583 34.1834 26.5417C34.2001 26.5083 34.2084 26.4917 34.2668 26.5417C34.3251 26.5833 34.5668 26.7167 35.0001 26.7583C35.1251 26.7583 35.2501 26.825 35.0084 26.8167C34.7584 26.8 34.3751 26.7333 34.2501 26.65C34.0251 26.9917 33.6334 27.0333 33.3334 27.025C33.1584 27.025 33.2001 26.975 33.3334 26.9833Z" fill="#00D860"/>
<path d="M34.425 26.4C34.3584 26.4917 34.125 26.65 34.025 26.6667C33.9167 26.6667 33.5917 26.65 33.5167 26.6167C33.4334 26.5917 33.3417 26.5917 33.45 26.675C33.603 26.7579 33.7765 26.7954 33.95 26.7834C34.0834 26.7584 34.2084 26.7167 34.3 26.7834C34.3834 26.8334 34.55 26.9334 34.65 26.9167C34.75 26.8917 34.9417 26.8917 35.0084 26.9167C35.075 26.95 35.1834 27.05 35.0167 27C34.85 26.9417 34.7167 26.9834 34.6417 26.95C34.725 27.0667 34.9167 27.2584 35.075 27.2584C35.1167 27.2584 35.15 27.3334 35.075 27.3667C35.1417 27.4 35.325 27.4417 35.4334 27.3417C35.4 27.3834 35.4167 27.4 35.4584 27.4167C35.5 27.4334 35.55 27.4667 35.475 27.4834C35.3917 27.5 35.225 27.5084 35.175 27.4834C35.3417 27.5917 35.7584 27.7667 36.2 27.675C36.2834 27.6667 36.3334 27.625 36.2 27.6334C35.9084 27.6334 35.8917 27.6334 35.8417 27.6084C35.7917 27.575 35.8084 27.55 35.8917 27.525C36.0091 27.4948 36.1291 27.4752 36.25 27.4667C36.3334 27.4667 36.425 27.4417 36.25 27.4417C36.0834 27.4417 35.8667 27.4417 35.775 27.4084C35.6917 27.3834 35.6334 27.3334 35.725 27.275C35.8084 27.2167 35.9 27.2334 35.9417 27.1917C35.6667 27.1917 35.325 27.025 35.5084 26.8917C35.55 26.8667 35.5417 26.8584 35.475 26.85C35.3462 26.8247 35.2205 26.7856 35.1 26.7334C35.0167 26.6917 35.0667 26.6417 35.1417 26.625C34.975 26.65 34.6417 26.5667 34.425 26.4084V26.4ZM36.9084 26.4C36.7584 26.5084 36.4667 26.5667 36.3417 26.5667C36.225 26.5667 36.2 26.6 36.3 26.6084C36.4 26.6167 36.5084 26.6417 36.55 26.625C36.5917 26.6084 36.625 26.6084 36.6834 26.6417C36.7861 26.676 36.8973 26.676 37 26.6417C37.125 26.6084 37.3084 26.5917 37.3917 26.5917C37.475 26.6 37.5584 26.6 37.3917 26.5584C37.2417 26.5167 36.975 26.5417 36.9084 26.5584C36.85 26.575 36.675 26.5584 36.7667 26.5417C36.8584 26.5167 36.9334 26.4584 36.9834 26.425L36.9084 26.4ZM36.825 26.7334C36.677 26.8437 36.5008 26.9101 36.3167 26.925C36.4834 26.9917 36.6334 27.175 36.75 27.1584C36.6917 27.2 36.625 27.2417 36.5584 27.2584C36.7135 27.2846 36.8729 27.255 37.0084 27.175C37.2584 27.2417 37.5917 27.1917 37.7 27.0917C37.5334 27.0917 37.3417 27.0417 37.25 26.9584C37.3334 26.9584 37.4084 26.9167 37.4417 26.8667C37.25 26.9 36.9417 26.8084 36.8334 26.7167L36.825 26.7334Z" fill="#00D860"/>
<path d="M36.5583 27.25C36.625 27.25 36.7 27.2 36.75 27.1666C36.4268 27.1897 36.1042 27.1142 35.825 26.95C35.6416 26.7916 35.6416 26.9166 35.7666 27.025C35.872 27.1243 35.9995 27.1972 36.1386 27.2378C36.2776 27.2784 36.4243 27.2854 36.5666 27.2583L36.5583 27.25ZM37.0083 27.6416C36.9333 27.6833 36.5666 27.7166 36.45 27.6833C36.325 27.6583 36.2833 27.6666 36.2999 27.725C36.3249 27.775 36.35 27.8083 36.25 27.7916C36.1373 27.7866 36.0246 27.8007 35.9166 27.8333C35.8333 27.85 35.75 27.9166 35.9 27.8916C36.0583 27.875 36.1916 27.8416 36.3166 27.8666C36.425 27.8916 36.825 27.9 36.9 27.8666C36.9833 27.8333 36.9333 27.8416 36.9 27.8416C36.8583 27.8416 36.8416 27.8166 36.9 27.7833C36.9583 27.7583 36.9916 27.7 37.0083 27.6416ZM33.4833 27.1583C33.2226 27.249 32.9551 27.3187 32.6833 27.3666C32.5166 27.4416 32.3833 27.4833 32.3 27.4833C32.3583 27.5333 32.5916 27.5833 32.675 27.5583C32.625 27.6166 32.5083 27.6666 32.4666 27.7C32.6083 27.675 32.7583 27.7166 32.8333 27.725C32.6621 27.8163 32.4684 27.8568 32.275 27.8416C32.325 27.8916 32.3833 27.95 32.4583 27.95C32.3092 27.9932 32.1518 27.9989 32 27.9666C32.05 28.05 32.0833 28.1 32.15 28.1166C32.0083 28.125 31.8416 28.15 31.7 28.0666C31.8083 28.2166 32.05 28.2583 32.4166 28.2166C32.7833 28.175 33.0833 28.0166 33.1666 27.95C33.0166 27.9666 32.8083 27.975 32.7166 27.95C32.9693 27.8827 33.2107 27.7788 33.4333 27.6416C33.3497 27.6411 33.2682 27.6149 33.2 27.5666C33.4243 27.5778 33.649 27.5553 33.8666 27.5C33.7489 27.4746 33.6449 27.4063 33.575 27.3083C34.0361 27.4413 34.5234 27.4556 34.9916 27.35C35.0583 27.3333 35.0583 27.2416 34.9333 27.2583C34.7 27.275 34.2416 27.2083 34.1166 27.15C34.2161 27.2208 34.3299 27.2692 34.45 27.2916C34.2416 27.3583 33.9333 27.4 33.4833 27.15V27.1583Z" fill="#00D860"/>
<path d="M32.4667 27.7C32.5083 27.6667 32.6333 27.6167 32.675 27.5583C32.5833 27.5833 32.3583 27.5333 32.3 27.475C32.3833 27.475 32.5167 27.4417 32.6833 27.3667C32.3833 27.3583 32.1833 27.3583 32.0583 27.2917C31.9417 27.225 31.75 27.2583 31.6667 27.275C31.5833 27.2833 31.6167 27.4167 31.9417 27.3833C31.7432 27.4722 31.5231 27.5011 31.3083 27.4667C31.3417 27.5833 31.3667 27.6917 31.3333 27.7583C31.5083 27.8583 31.975 27.9833 32.2083 27.9667C32 27.8917 31.8917 27.8083 32.0583 27.7833C32.225 27.7667 32.325 27.7333 32.475 27.7H32.4667Z" fill="#00D860"/>
<path d="M31.9417 28.25C32.3417 28.2167 32.8917 28.2083 33.325 27.8333C33.4333 27.75 33.5083 27.7833 33.4 27.875C33.0164 28.1727 32.5514 28.347 32.0667 28.375C31.8417 28.375 31.7417 28.2667 31.9417 28.2417V28.25Z" fill="black"/>
<path d="M34.9749 27.5833C34.8235 27.6287 34.6662 27.6512 34.5082 27.65C34.4168 27.6297 34.3215 27.6355 34.2332 27.6667C34.1665 27.7083 34.1582 27.75 34.2499 27.75L34.5249 27.7667C34.4663 27.7969 34.4151 27.8395 34.3749 27.8917C34.5249 27.8583 34.7665 27.9167 34.8415 27.9583C34.813 27.9643 34.7835 27.9644 34.7548 27.9587C34.7262 27.953 34.699 27.9415 34.6749 27.925C34.8999 28.175 35.5832 28.175 35.6915 28.125C35.6415 28.1667 35.5915 28.2083 35.5499 28.2083C35.7332 28.25 35.9499 28.2417 36.1749 28.125L35.8249 28.1083C35.8716 28.0621 35.9288 28.0278 35.9915 28.0083C35.9082 27.9917 35.6415 28 35.5749 28.0333C35.5997 27.9736 35.6437 27.9237 35.6999 27.8917C35.3665 27.8917 34.9582 27.8917 34.8165 27.8083C35.0415 27.8417 35.3082 27.7 35.4165 27.7C35.2332 27.7 35.0332 27.6583 34.9832 27.575L34.9749 27.5833ZM34.1332 27.75C33.9665 27.7917 33.7165 27.8667 33.6415 27.9C33.5749 27.9417 33.5082 27.9583 33.6499 27.9583C33.6665 27.9555 33.6832 27.9527 33.6999 27.95C33.6415 27.95 33.5749 27.95 33.6915 27.9083C33.7999 27.875 33.9415 27.8 34.1249 27.7667L34.1332 27.75ZM33.7999 28.1583C33.8582 28.1583 34.1082 28.1583 34.2165 28.075C34.3165 28.1417 34.5249 28.2583 34.6499 28.2583C34.7832 28.2583 34.7665 28.2917 34.6499 28.3083C34.4897 28.3032 34.3341 28.2542 34.1999 28.1667C34.0499 28.225 33.9249 28.175 33.7832 28.1583H33.7999ZM31.8332 29.3C32.1028 29.4191 32.4029 29.4512 32.6915 29.3917C32.8415 29.5167 33.1332 29.525 33.2915 29.4917C33.4582 29.4583 33.5999 29.4417 33.7832 29.4917C33.9499 29.5583 34.3165 29.5667 34.4249 29.65L34.0832 29.6583C34.0332 29.675 34.0582 29.7 34.1499 29.7417C33.8192 29.7386 33.4938 29.8249 33.2082 29.9917C33.251 29.8954 33.3213 29.814 33.4103 29.7576C33.4992 29.7013 33.6029 29.6725 33.7082 29.675C33.5582 29.625 33.0665 29.6167 32.8999 29.7167C32.8556 29.6685 32.8216 29.6118 32.7999 29.55C32.5415 29.6917 32.0332 29.475 31.8249 29.3H31.8332ZM31.1665 28.8167C31.3874 28.7983 31.5984 28.7173 31.7749 28.5833C31.8332 28.6333 32.0665 28.6833 32.3165 28.6083C32.2665 28.6417 32.2582 28.7167 32.2749 28.75C32.0737 28.7687 31.8768 28.8193 31.6915 28.9C31.5915 28.95 31.2749 28.9917 31.1749 28.9333C31.0749 28.8833 31.0749 28.8333 31.1582 28.8167H31.1665Z" fill="#00D860"/>
<path d="M32.275 28.7583C32.0738 28.777 31.8769 28.8276 31.6917 28.9083L31.7333 29.05C32.1473 28.9317 32.5788 28.8866 33.0083 28.9167C32.875 28.925 32.6333 29.0667 32.5 29.075C32.8333 29.05 33.15 29.1167 33.2333 29.1417C33.3167 29.1583 33.3417 29.225 33.275 29.2917C33.2083 29.3667 33.1833 29.35 33.3167 29.3667C33.45 29.3667 33.7333 29.3417 33.8583 29.2167C33.8 29.1667 33.675 29.1917 33.6333 29.1417C33.7174 29.1148 33.7944 29.0692 33.8583 29.0083C33.73 29.0117 33.6017 29.0033 33.475 28.9833C33.4083 28.9667 33.35 28.9417 33.4417 28.8917C33.5047 28.861 33.5612 28.8186 33.6083 28.7667C33.4417 28.8083 33.1833 28.85 32.9583 28.6833C33.0417 28.7 33.2333 28.6833 33.3 28.6583C33.2447 28.6225 33.182 28.5997 33.1167 28.5917C33.2833 28.5083 33.6167 28.4333 34.0583 28.6C34.2561 28.585 34.4551 28.5962 34.65 28.6333C34.7333 28.5667 34.8667 28.4 34.9417 28.3667C34.4417 28.4 33.5417 28.3167 33.5667 28.05C33.4 28.2667 33.025 28.3833 32.8667 28.35C32.85 28.4167 32.9167 28.5167 32.975 28.5667C32.8083 28.6 32.5167 28.6333 32.3833 28.6C32.4667 28.675 32.6 28.7417 32.6833 28.7417C32.5167 28.7417 32.4167 28.775 32.275 28.7583Z" fill="#00D860"/>
<path d="M33.3083 29.3583C33.4583 29.3583 33.725 29.3417 33.8583 29.2167C33.8 29.1667 33.675 29.1917 33.6333 29.1417C33.7175 29.1148 33.7944 29.0692 33.8583 29.0083C34.225 28.975 34.5333 28.9917 34.6917 28.95C34.8417 28.9083 35.2333 28.925 35.3083 28.9083C34.9667 28.9667 34.9 28.9917 34.8917 29.05C34.875 29.1083 34.9917 29.1417 35.075 29.1417C34.9333 29.1417 34.7333 29.3 34.7083 29.3667C34.5083 29.25 34.425 29.3833 34.3917 29.4333C34.3083 29.4 34.025 29.4083 33.8833 29.5333C33.7 29.475 33.575 29.45 33.3833 29.475C33.5083 29.45 33.4833 29.3667 33.3167 29.3583H33.3083ZM34.9333 28.3583C35.05 28.3583 35.3 28.375 35.3917 28.3583C35.3358 28.3856 35.2851 28.4222 35.2417 28.4667C35.5333 28.4333 35.925 28.4083 36.0417 28.4333C35.8917 28.4083 35.75 28.5083 35.675 28.55C35.6083 28.5917 35.65 28.625 35.75 28.6333C35.85 28.65 35.975 28.7167 35.8 28.7C35.6333 28.6833 35.2667 28.675 35.1833 28.6833C35.1 28.7 35.05 28.6583 35.1833 28.6333C35.2734 28.6199 35.3607 28.5917 35.4417 28.55C35.3417 28.575 35.15 28.575 35.0833 28.55C35.0167 28.525 34.9917 28.5083 35.0583 28.4833C35.1333 28.4583 35.0833 28.45 35.0083 28.4583C34.9333 28.4583 34.7583 28.5417 34.65 28.6333C34.7583 28.5167 34.8667 28.4167 34.9333 28.3667V28.3583Z" fill="#00D860"/>
<path d="M33.6501 28.5583C33.7203 28.6392 33.8074 28.7036 33.9054 28.7469C34.0034 28.7901 34.1097 28.8111 34.2168 28.8083C34.2668 28.8083 34.3835 28.8833 34.2418 28.8916C33.8835 28.9083 33.7085 28.8166 33.5501 28.5916C33.5168 28.5416 33.5751 28.475 33.6501 28.5583ZM35.7751 25.5916C35.9585 25.675 36.3335 25.7583 36.6251 25.75C36.6835 25.75 36.7751 25.8 36.6501 25.8083C36.3401 25.8462 36.026 25.788 35.7501 25.6416C35.6751 25.6 35.7001 25.5583 35.7751 25.5916Z" fill="black"/>
<path d="M35.9584 25.5916C36.2501 25.5916 36.4668 25.5916 36.5418 25.6666C36.7084 25.625 37.0168 25.5916 37.0751 25.6083C37.1418 25.625 37.2251 25.5833 37.0668 25.55C36.9001 25.5166 36.5501 25.5 36.4334 25.525C36.3168 25.5416 35.9584 25.5583 35.8501 25.5416C35.8918 25.5416 35.9251 25.5583 35.9584 25.5916ZM37.0751 25.7C37.2084 25.6333 37.6001 25.7 37.7168 25.65C37.6334 25.75 37.9918 25.7583 38.3001 25.6833C38.1834 25.75 37.9251 25.7666 37.8168 25.8166C37.7084 25.8666 37.6501 25.825 37.5668 25.7916C37.4137 25.719 37.2435 25.6901 37.0751 25.7083V25.7Z" fill="#00D860"/>
<path d="M38.2999 25.6834C37.9916 25.75 37.6333 25.75 37.7166 25.65C37.5999 25.7 37.2166 25.6334 37.075 25.7C37.225 25.6167 37.3249 25.6917 37.4249 25.5167C37.4916 25.525 37.6416 25.5334 37.6916 25.4667C37.7749 25.4917 37.9416 25.525 37.9833 25.575C38.0249 25.625 38.0916 25.5584 38.0416 25.4917C38.1833 25.4417 38.0916 25.55 38.4166 25.4667C38.4916 25.45 38.6499 25.4167 38.7083 25.4167C38.581 25.5225 38.441 25.6121 38.2916 25.6834H38.2999Z" fill="#00D860"/>
<path d="M32.3 24.2583L32.2416 17.025C32.2416 16.7 32.075 16.775 32.075 17.025V24.1917L32.3 24.2583ZM34.65 16.6417L34.9083 24.2583L34.875 24.325H34.7083L34.55 16.6417H34.65ZM36.8666 23.0917L36.7333 16.9C36.7333 16.7 36.5666 16.7333 36.5666 16.9333L36.7 23.0917H36.8666Z" fill="#FFFF00" stroke="black" stroke-width="0.0333333"/>
<path d="M33.3501 17.9083L31.0667 17.875C30.9667 18.3333 31.5251 18.2917 31.7167 18.2083C31.9751 18.3667 32.1751 18.3667 32.3001 18.2083C32.5001 18.3667 32.7584 18.3333 32.8584 18.2083C33.1167 18.4333 33.4084 18.2083 33.3501 17.875V17.9083ZM33.5167 19.0167H31.2251C30.8084 19.4083 31.3251 19.6 31.7834 19.3417C31.8501 19.475 32.1084 19.5333 32.3001 19.4417C32.5001 19.5667 32.7584 19.475 32.8834 19.3417C33.1167 19.4417 33.4084 19.475 33.5417 19.0083L33.5167 19.0167ZM33.4417 20.4833H31.2251C31.2001 20.8417 31.6501 20.8083 31.8084 20.7083C31.9751 20.975 32.3667 20.9083 32.5001 20.7417C32.7251 20.9083 32.9167 20.875 33.0167 20.7417C33.2501 20.9417 33.4751 20.675 33.4417 20.4833ZM33.5834 21.9167L31.0751 21.8833C30.9417 22.3 31.3334 22.375 31.4917 22.275C31.5667 22.5 31.8917 22.4417 31.9917 22.275C32.1167 22.375 32.2834 22.3083 32.3417 22.2083C32.3751 22.4333 32.6751 22.4667 32.9001 22.275C33.3584 22.6 33.7751 22.2083 33.5501 21.9167H33.5834ZM35.7667 21.3333H33.7167C33.8084 21.7167 34.0084 21.8167 34.3334 21.5833C34.5917 21.85 34.9834 21.75 35.0834 21.625C35.5417 21.9833 35.7667 21.5583 35.7667 21.2917V21.3333ZM35.5667 19.9L33.5501 19.8333C33.5834 20.35 34.0751 20.3167 34.3334 20.125C34.5001 20.35 34.8251 20.2917 34.9834 20.125C35.2084 20.3833 35.6334 20.225 35.5667 19.9ZM35.8334 18.3H33.6667C33.6667 18.6583 34.1501 18.85 34.5084 18.525C34.6084 18.95 35.0001 18.8167 35.1667 18.6583C35.4167 18.9833 35.9751 18.5917 35.8167 18.325L35.8334 18.3ZM35.7001 17.2167L33.7417 17.2583C33.7417 17.5833 34.2001 17.7167 34.3667 17.45C34.4667 17.6167 34.7834 17.5833 34.8834 17.45C35.0167 17.6833 35.2167 17.5167 35.2751 17.45C35.5084 17.6167 35.7334 17.5167 35.7001 17.225V17.2167ZM37.9501 17.9417L35.6001 17.9083C35.6001 18.1333 35.8334 18.2417 35.9917 18.1333C35.9917 18.4 36.3251 18.4667 36.5501 18.2667C36.6751 18.4917 37.1001 18.525 37.2667 18.2667C37.5917 18.5583 37.9834 18.3333 37.9167 17.9333L37.9501 17.9417ZM37.9167 19.8583H35.6334C35.6334 20.1917 35.9917 20.2833 36.2167 20.125C36.2584 20.3833 36.5501 20.4167 36.7167 20.2583C36.9417 20.4833 37.2667 20.5083 37.4667 20.2583C37.7167 20.35 37.9501 20.125 37.9167 19.8667V19.8583ZM37.7834 21.5917H35.9584C35.9584 21.9167 36.3501 21.9167 36.5167 21.7583C36.7084 21.9833 36.9751 21.9833 37.1334 21.8167C37.3584 22.0167 37.7501 21.95 37.7834 21.5917Z" fill="white" stroke="black" stroke-width="0.0333333"/>
<path d="M34.8749 24.3333C33.8999 24.3333 32.8916 24.3333 32.2082 24.2583C31.5249 24.2 31.3249 24.0667 30.8416 23.775L28.9999 22.6667C28.8416 22.6 28.6832 22.7 28.9082 22.8333L30.7332 24.0333C31.1489 24.3017 31.5224 24.6303 31.8416 25.0083C32.2332 25.4333 32.4916 25.4333 32.6832 25.3667C32.8832 25.3083 33.1416 25.2 33.4332 25.275C33.6999 25.3333 34.0832 25.3667 34.2832 25.3333C34.4499 25.5 34.8666 25.4667 35.0999 25.4C35.3249 25.3333 35.4916 25.3333 35.6499 25.3667H36.2082C36.3749 25.3667 36.7916 25.275 37.0832 25.3083C37.4166 25.3667 37.6999 25.3083 37.8999 25.3083C38.1121 25.2533 38.3332 25.2419 38.5499 25.275C38.7499 25.1417 38.8082 24.975 38.8832 24.8167C39.0749 24.7833 39.1332 24.75 39.1666 24.65L39.3666 24.1333H39.4332V23.9333L39.2999 23.7417L39.3666 23.4083L39.5332 23.35L39.4666 23.0167L36.5999 23.0917C36.4963 23.1864 36.4261 23.3121 36.3999 23.45L35.5499 23.575C35.4582 23.6083 35.3582 23.6083 35.2582 23.7417L34.8749 24.3333Z" fill="black" stroke="black" stroke-width="0.0333333"/>
<path d="M38.2999 23.0583L38.7166 21.4583C38.7833 21.2917 38.6249 21.2667 38.5583 21.4583L38.1416 23.0583H38.2999Z" fill="black" stroke="black" stroke-width="0.0333333"/>
<path d="M39.9582 21.2667C39.5999 21.4333 39.4082 21.525 39.2416 21.4583C39.0749 21.3917 38.8832 21.3583 38.7582 21.425C38.7593 21.4361 38.7593 21.4472 38.7582 21.4583C38.6405 21.8727 38.521 22.2866 38.3999 22.7C38.6499 22.8 39.1166 22.8 39.2082 22.7C39.3416 22.5667 39.6332 22.6 39.7916 22.6C39.8916 22.4667 39.9249 22.3083 39.8916 22.2417C39.8582 22.175 39.8916 22.0167 39.8916 21.9083C39.8916 21.825 40.0249 21.4583 39.9582 21.2667Z" fill="white" stroke="black" stroke-width="0.0333333"/>
<path d="M37.3333 21.9416H36.9416M31.7499 18.2C31.1178 19.846 30.2383 21.3859 29.1416 22.7666L31.7499 18.2ZM29.7916 23.1583C31.2377 21.9919 32.4919 20.6056 33.5083 19.05L29.7916 23.1583ZM31.2249 20.45C31.1333 21.3333 30.8666 22.8916 30.7416 23.7083L31.2249 20.45ZM31.5833 22.4083C31.2583 22.7333 30.8333 23.25 30.4833 23.5416L31.5833 22.4083ZM34.6166 20.6416C34.3583 20.9083 34.0666 21.225 33.7666 21.3L34.6166 20.6416ZM34.7833 20.7166C35.0219 20.9886 35.3219 21.2 35.6583 21.3333L34.7833 20.7166ZM34.6166 19.3083C34.3332 19.5591 34.0014 19.7492 33.6416 19.8666L34.6166 19.3083ZM34.7499 19.3333C34.9416 19.525 35.1666 19.75 35.4666 19.8916L34.7499 19.3333ZM33.7083 18.2916C34.0328 18.1947 34.3317 18.0267 34.5833 17.8L33.7083 18.2916ZM34.6833 17.8C34.9357 18.0333 35.2336 18.212 35.5583 18.325L34.6833 17.8ZM33.7666 17.2416C34.0731 17.1901 34.351 17.0305 34.5499 16.7916L33.7666 17.2416ZM34.6499 16.725C34.8749 16.925 35.2999 17.1833 35.5333 17.2166L34.6499 16.725ZM36.5749 17.475C36.4416 17.6416 36.0833 17.9 35.8583 17.9L36.5749 17.475ZM36.7333 17.4833C36.8333 17.6416 37.0916 17.9 37.2583 17.9L36.7333 17.4833ZM35.6916 19.8583C36.0426 19.7266 36.3569 19.5122 36.6083 19.2333L35.6916 19.8583ZM36.7749 19.2666C36.9294 19.5059 37.1378 19.7057 37.3833 19.85L36.7749 19.2666ZM36.0499 21.55C36.1833 21.55 36.5416 21.35 36.6333 21.1333L36.0499 21.55ZM36.8333 21.025C37.0128 21.2504 37.2333 21.4399 37.4833 21.5833L36.8333 21.025ZM31.3916 21.875C31.8083 21.7416 32.6333 21.225 33.0583 20.7333L31.3916 21.875ZM32.2749 21.35C32.5999 21.5833 33.0249 21.85 33.3166 21.9083L32.2749 21.35ZM31.2916 20.4416C31.5799 20.3257 31.8452 20.1592 32.0749 19.95L31.2916 20.4416ZM32.2416 19.9166C32.3333 20.05 33.0166 20.475 33.3166 20.475L32.2416 19.9166ZM32.0749 18.5583C31.8262 18.7475 31.5511 18.8991 31.2583 19.0083L32.0749 18.5583ZM32.2416 18.55C32.4666 18.7166 32.9583 19.0083 33.2416 19.0083L32.2416 18.55ZM32.0833 17.25C31.8916 17.4416 31.5666 17.7666 31.2999 17.8666L32.0833 17.25ZM32.2499 17.2833C32.3749 17.5083 32.7666 17.8333 33.0249 17.8666L32.2499 17.2833ZM35.6333 18.7166C36.2583 19.7916 37.3583 21.1333 38.4666 21.8416L35.6333 18.7166ZM33.8833 17.5083C34.7916 18.8083 36.5499 21.65 38.2416 22.6916L33.8833 17.5083ZM38.5749 21.5833C38.1383 22.1774 37.5959 22.6859 36.9749 23.0833L38.5749 21.5833ZM38.4333 21.9416C37.8833 21.025 37.5916 19.8916 37.1333 18.3583L38.4333 21.9416ZM32.5749 22.4L33.2249 24.35L32.5749 22.4ZM32.4416 22.3666L33.0583 24.3166L32.4416 22.3666ZM32.2833 22.2666L32.8666 24.2833L32.2833 22.2666ZM32.2166 22.3L32.6666 24.2833L32.2166 22.3ZM32.6666 24.225H33.2249H32.6666ZM33.1583 24.025H32.6416H33.1583ZM33.0916 23.8583H32.5749H33.0916ZM33.0249 23.7H32.4999H33.0249ZM32.9166 23.5083H32.4999H32.9166ZM32.4666 23.3416H32.8833H32.4666ZM32.4333 23.2083H32.8499H32.4333ZM32.3999 23.0416H32.7916H32.3999ZM32.3749 22.9166H32.7249H32.3749ZM32.3333 22.75H32.6666H32.3333ZM32.2999 22.625H32.6333H32.2999ZM32.2749 22.525H32.5999H32.2749ZM32.2666 22.4H32.5666H32.2666ZM31.7166 22.4L31.3249 24.025L31.7166 22.4ZM31.8166 22.4L31.4833 24.0916L31.8166 22.4ZM31.9166 22.3333L31.6499 24.125L31.9166 22.3333ZM32.0416 22.2916L31.8499 24.1916L32.0416 22.2916ZM32.0749 24.0583H31.4249H32.0749ZM32.0749 23.8916H31.3249H32.0749ZM32.0749 23.7H31.3916H32.0749ZM32.0416 23.5333H31.4249H32.0416ZM32.0749 23.3666H31.4583H32.0749ZM32.0749 23.175H31.5249H32.0749ZM32.0749 23.0083H31.5249H32.0749ZM32.0416 22.85H31.5583H32.0416ZM32.0416 22.6833H31.6249H32.0416ZM32.0416 22.525H31.6499H32.0416ZM32.0416 22.425H31.6833H32.0416ZM32.0166 24.225V22.3V24.225ZM34.1249 21.65L32.8333 24.2916L34.1249 21.65ZM34.2333 21.625L33.1249 24.325L34.2333 21.625ZM34.2999 21.5916L33.4166 24.325L34.2999 21.5916ZM34.3999 21.6583L33.6833 24.325L34.3999 21.6583ZM33.7166 24.2333H32.8999H33.7166ZM33.7749 23.9666H32.9999H33.7749ZM33.8083 23.775H33.1583H33.8083ZM33.9416 23.575H33.2916H33.9416ZM33.9749 23.3833H33.3583H33.9749ZM34.0416 23.1833H33.4583H34.0416ZM34.0999 22.9583H33.5833H34.0999ZM34.1333 22.7916H33.6499H34.1333ZM34.1999 22.6H33.7416H34.1999ZM34.2416 22.4666H33.8083H34.2416ZM34.2666 22.3416H33.8083H34.2666ZM34.2333 22.2083H33.9083H34.2333ZM34.2416 22.1083H33.9416H34.2416ZM34.2666 21.9833H33.9999H34.2666ZM34.3249 21.85H34.0666H34.3249ZM34.3166 21.75H34.0916H34.3166ZM35.1999 21.7166L35.7583 23.55L35.1999 21.7166ZM35.2999 21.75L35.9833 23.5166L35.2999 21.75ZM35.3999 21.75L36.2166 23.4833L35.3999 21.75ZM36.4083 23.3166L35.4916 21.7166L36.4083 23.3166ZM36.4083 23.35H35.7583H36.4083ZM36.3416 23.0916H35.6916H36.3416ZM36.2499 22.8916H35.6249H36.2499ZM36.1166 22.6666H35.5583H36.1166ZM35.9833 22.4666H35.4999H35.9833ZM35.8583 22.2416H35.4333H35.8583ZM35.7583 22.0166H35.3666H35.7583ZM35.6249 21.8166H35.2999H35.6249ZM36.3416 21.85L35.7583 23.5416L36.3416 21.85ZM36.5083 21.7916L35.9833 23.5166L36.5083 21.7916ZM36.2166 23.4833L36.6083 21.85L36.2166 23.4833ZM36.6999 21.9166L36.3749 23.45L36.6999 21.9166ZM35.8249 23.35H36.3749H35.8249ZM35.8916 23.1583H36.4416H35.8916ZM35.9499 22.925H36.4749H35.9499ZM36.0583 22.7333H36.5416H36.0583ZM36.1166 22.5H36.5749H36.1166ZM36.1833 22.3083H36.5999H36.1833ZM36.2749 22.075H36.6666H36.2749ZM36.3416 21.8833H36.6749H36.3416ZM36.9666 21.9166L37.2166 23.0833L36.9666 21.9166ZM37.0583 21.85L37.4166 23.0583L37.0583 21.85ZM37.1916 21.85L37.5833 23.0583L37.1916 21.85ZM37.3499 21.9166L37.7749 23.0583L37.3499 21.9166ZM37.7416 22.9583H37.1916H37.7416ZM37.6833 22.7916H37.1583H37.6833ZM37.6166 22.6333H37.1249H37.6166ZM37.5416 22.4333H37.0583H37.5416ZM37.4499 22.2666H36.9999H37.4499ZM37.3916 22.1083H36.9749H37.3916Z" stroke="black" stroke-width="0.0333333"/>
<path d="M31.9668 24.9333C32.2251 24.7666 32.6751 24.7916 32.9085 24.9666C33.1835 24.8166 33.6751 24.8583 33.9001 25.0666C34.2501 24.8166 34.5418 24.7833 34.8751 25.0166C35.0227 24.9187 35.1965 24.8679 35.3736 24.8709C35.5506 24.8739 35.7226 24.9305 35.8668 25.0333C36.1751 24.8916 36.5085 24.775 36.8001 25.0833C36.6586 24.988 36.4897 24.9421 36.3194 24.9527C36.1491 24.9632 35.9871 25.0296 35.8585 25.1416C35.5668 24.85 35.0501 24.9583 34.8751 25.1666C34.8138 25.1001 34.739 25.0473 34.6558 25.0117C34.5726 24.9761 34.4827 24.9585 34.3922 24.96C34.3017 24.9616 34.2126 24.9823 34.1306 25.0208C34.0487 25.0593 33.9758 25.1147 33.9168 25.1833C33.6085 24.9333 33.1585 24.9166 32.9168 25.1C32.7821 25.0007 32.6262 24.934 32.4614 24.9051C32.2965 24.8762 32.1273 24.8858 31.9668 24.9333Z" fill="#00B800"/>
<path d="M36.5917 24.5667C35.2501 24.8 32.3084 24.65 31.6751 24.475C31.4501 24.425 31.5084 24.3417 31.7001 24.3917C32.4417 24.5583 34.0251 24.5583 34.8917 24.5083L35.4084 23.8C35.4917 23.6917 35.5251 23.6833 35.7001 23.6583L36.4251 23.5333V23.6333C36.4084 23.6583 36.3917 23.6833 36.3667 23.6917C36.3667 23.8583 36.4001 24.2833 36.4417 24.4417L36.5334 24.4167C36.5917 24.4 36.6501 24.5583 36.5917 24.5667Z" fill="#CF6200"/>
<path d="M38.7999 24.6333H38.9833C39.0333 24.6333 39.1166 24.5917 39.1416 24.5083L39.3249 23.9833L39.1833 23.775L39.2583 23.3333L39.4249 23.2583C39.4416 23.2333 39.4249 23.125 39.3916 23.0917L36.7583 23.175C36.6749 23.175 36.6416 23.175 36.6166 23.2833C36.5388 23.6357 36.5599 24.0028 36.6775 24.3439C36.7952 24.6851 37.0048 24.9871 37.2833 25.2167C37.3249 25.25 37.3833 25.2167 37.3083 25.1583C37.1676 25.0172 37.047 24.8574 36.9499 24.6833H37.3833C37.4166 24.825 37.5249 25.1167 37.5499 25.175C37.5666 25.2333 37.6166 25.2333 37.5833 25.15C37.5333 24.9833 37.4999 24.775 37.4749 24.675H37.9166L37.9499 25.1083C37.9499 25.1667 37.9999 25.1667 37.9999 25.1V24.6667L38.3999 24.65L38.3666 25.0833C38.3583 25.1583 38.3916 25.1833 38.4083 25.0833L38.4666 24.65L38.7416 24.6333C38.7416 24.7333 38.6499 25 38.6249 25.0667C38.5999 25.15 38.6416 25.15 38.6666 25.075C38.7239 24.9348 38.7685 24.7898 38.7999 24.6417V24.6333Z" fill="#CF6200"/>
<path d="M36.875 24.5666C36.8333 24.475 36.6833 24.1416 36.675 23.9H37.2583C37.275 24.075 37.325 24.4666 37.3583 24.5583L36.875 24.5666ZM37.3583 23.8833C37.3667 24.0333 37.4417 24.5083 37.4583 24.55H37.925L37.8917 23.875L37.3583 23.8833ZM36.7 23.3C36.6793 23.4658 36.6737 23.6331 36.6833 23.8L37.2417 23.775L37.1917 23.2833L36.7 23.3ZM37.3083 23.2833L37.3417 23.7833L37.8917 23.7666L37.8667 23.2666L37.3083 23.2833ZM37.975 23.2583L37.9917 23.7583L38.4667 23.75C38.4667 23.6416 38.4917 23.3166 38.4833 23.2416L37.975 23.2583ZM38.575 23.2416L38.5583 23.7416L39.075 23.725C39.1 23.6166 39.15 23.3333 39.15 23.225L38.575 23.2416ZM39.1 23.8416L38.55 23.8583L38.5 24.525L39.025 24.5083C39.0988 24.3456 39.1628 24.1787 39.2167 24.0083C39.175 23.925 39.1417 23.9 39.1 23.8416ZM37.9917 23.875L38.0083 24.5416L38.4083 24.525L38.4583 23.8583L37.9917 23.875ZM35.7417 23.7416L35.525 23.775C35.3568 24.0242 35.1817 24.2687 35 24.5083L35.775 24.4916L35.75 23.7416H35.7417ZM35.8417 23.7166L35.875 24.4833L36.3417 24.45L36.2583 23.65L35.8417 23.7166Z" fill="black"/>
<path d="M33.575 21.9167H31.0667V21.85L33.5667 21.8833L33.575 21.9167ZM35.5333 19.9C35.5583 19.9 35.5583 19.9 35.5333 19.9L33.575 19.8667C33.5417 19.8667 33.5417 19.8667 33.575 19.8667H35.5333V19.9ZM33.45 20.45C33.475 20.45 33.475 20.4833 33.45 20.4833H31.225C31.2 20.4833 31.225 20.45 31.225 20.45H33.45ZM33.5083 19.0167C33.5417 19.0167 33.5417 19.05 33.5083 19.05H31.2C31.1667 19.05 31.1667 19.0167 31.2 19.0167H33.5083ZM33.3417 17.875C33.375 17.875 33.375 17.9083 33.3417 17.9083H31.0917C31.0667 17.9083 31.0917 17.8417 31.0917 17.8417L33.375 17.875H33.3417Z" fill="black" stroke="black" stroke-width="0.0333333"/>
<path d="M35.6917 17.225L33.7334 17.2583L35.6917 17.225Z" fill="white" stroke="black" stroke-width="0.0333333"/>
<path d="M35.7916 18.3333C35.8249 18.3333 35.8249 18.3333 35.7916 18.3333H33.6666C33.6333 18.3333 33.6333 18.3333 33.6666 18.3333H35.7916ZM37.9083 19.8333V19.8667H35.6249C35.5583 19.8667 35.5583 19.8667 35.6249 19.8667H37.9166L37.9083 19.8333ZM37.9083 17.9083C37.9749 17.9083 37.9749 17.9417 37.9083 17.9417H35.5833C35.5499 17.9417 35.5499 17.9083 35.5833 17.9083H37.9333H37.9083ZM35.7499 21.3C35.7833 21.3 35.7833 21.3333 35.7499 21.3333H33.6666V21.3H35.7499ZM37.7666 21.5917C37.7999 21.5917 37.7999 21.5917 37.7666 21.5917H35.9416H37.7666Z" fill="black" stroke="black" stroke-width="0.0333333"/>
<path d="M39.4417 21.9167C39.4781 21.7661 39.4781 21.6089 39.4417 21.4583C39.3764 21.4773 39.307 21.4773 39.2417 21.4583C39.2098 21.4341 39.1764 21.4118 39.1417 21.3917C39.1323 21.6052 39.0902 21.816 39.0167 22.0167C38.9167 22.0167 38.6834 22.0167 38.5917 21.95L38.4917 22.275C38.6536 22.3107 38.8214 22.3107 38.9834 22.275C38.9834 22.4667 38.95 22.6333 38.85 22.7667C39.0167 22.7667 39.1834 22.7667 39.2084 22.6667C39.3084 22.5333 39.3084 22.3333 39.3417 22.2417L39.5084 22.2083L39.6667 22.1417L39.8917 22.1083V21.9167L39.9584 21.7833L39.4417 21.95V21.9167Z" fill="#EF072D" stroke="black" stroke-width="0.0333333"/>
<path d="M31.3582 10.9C31.0999 10.9 30.5082 10.9 30.3832 10.9667C30.2832 11.0333 30.2499 11.0667 30.4499 11.1C30.6416 11.1333 30.9999 11.2667 31.1999 11.3583C31.3916 11.4917 31.5249 11.6917 31.5249 12.0083C31.4525 12.4102 31.5076 12.8247 31.6824 13.1938C31.8572 13.5629 32.143 13.8681 32.4999 14.0667C32.5332 14.1 32.5666 14.125 32.5332 14.2583L32.4332 14.6167C32.4332 14.6833 32.3999 14.75 32.4999 14.7167C32.397 14.894 32.2857 15.0665 32.1666 15.2333C31.6499 15.175 31.1999 15.2333 31.1999 15.8167C31.1999 15.8917 31.1999 15.95 31.2582 15.8167C31.3582 15.6917 31.4582 15.5667 31.6832 15.5C31.5582 15.725 31.4916 15.9167 31.5166 16.05C31.5166 16.15 31.5832 16.2167 31.6499 16.05C31.6832 15.9167 31.8166 15.7917 31.9166 15.6917C31.9749 15.6583 31.9749 15.6583 31.9416 15.7583C31.9276 15.8862 31.9634 16.0145 32.0416 16.1167C32.1082 16.1833 32.1416 16.15 32.1082 16.05C32.1082 15.9167 32.1082 15.6917 32.2749 15.6333C32.4666 15.5 32.6582 15.5583 32.7249 15.6917C32.8249 15.8583 32.8916 15.6917 32.7916 15.5583C32.6916 15.4333 32.5999 15.2667 32.4666 15.2667L32.7999 14.7167C32.7999 14.65 32.8582 14.6167 32.9249 14.65C32.9249 14.6833 32.9916 14.6833 33.0166 14.5833L33.2499 14.125L33.4416 14.0667L33.7749 14.55V14.75C33.7749 14.875 33.6416 15.1667 33.6082 15.2667C33.2166 15.2667 33.0249 15.2667 32.8916 15.5C32.8249 15.5917 32.9249 15.625 33.0166 15.5917C33.1174 15.5316 33.2325 15.4999 33.3499 15.5C33.4082 15.5 33.4416 15.5583 33.3499 15.5917C33.1166 15.6917 32.9582 15.8583 32.9582 16.0833C32.9582 16.15 33.0166 16.1833 33.0499 16.0833C33.1452 15.9233 33.2967 15.8045 33.4749 15.75C33.4749 15.9167 33.5082 16.1833 33.6416 16.25C33.7332 16.3083 33.7332 16.25 33.7082 16.15C33.6416 15.9833 33.7082 15.8167 33.7999 15.725C33.9666 15.5333 34.3582 15.7917 34.4582 15.8583C34.5166 15.9167 34.5832 15.95 34.5166 15.7583C34.4832 15.5333 34.1582 15.425 33.8666 15.3667L34.2582 14C34.4249 14.1 34.5916 13.8333 34.8416 13.9333C35.279 14.1288 35.6952 14.3689 36.0832 14.65C36.2166 14.75 36.2499 14.7167 36.3082 14.65C36.3749 14.6167 36.4749 14.65 36.5749 14.65C36.6332 14.6833 36.6999 14.7167 36.6082 14.5167C36.4207 14.1752 36.1515 13.886 35.8249 13.675C36.0832 13.675 36.4082 13.675 36.4082 13.6083C36.4082 13.5417 36.0166 13.4083 35.8582 13.4083C36.0499 13.3734 36.2285 13.287 36.3749 13.1583C36.4416 13.0833 36.3749 13.05 36.1166 13.05C35.4332 13.05 35.0749 13.05 34.7166 12.8583C34.1332 12.525 33.7666 12.1417 33.4749 12.0083C33.3499 11.9167 33.2499 11.7167 33.1499 11.5583C32.9832 11.0583 32.9832 10.8083 32.5666 10.6417C32.1416 10.475 31.5832 10.675 31.3582 10.9Z" fill="black" stroke="black" stroke-width="0.0333333"/>
<path d="M31.3916 11.0333H30.8416C30.8416 11.0333 30.775 11.0333 30.8416 11.0333L31.325 11.1667C31.425 11.1667 31.3916 11.2583 31.325 11.225C31.2583 11.2 31.2 11.225 31.2583 11.2917C31.5916 11.525 31.65 11.625 31.5916 12.5L31.75 12.6333C31.8166 12.6333 31.7833 12.6917 31.75 12.6583C31.7166 12.6333 31.5833 12.6583 31.6833 12.725C31.7833 12.7917 31.85 12.7917 31.75 12.7917C31.65 12.7917 31.5583 12.8583 31.75 12.825C31.9166 12.825 32.0083 12.8917 31.75 12.925C31.5583 12.925 31.6166 12.9917 31.75 12.9917C31.975 12.9917 31.9166 13.05 31.85 13.05C31.7833 13.05 31.75 13.1167 31.9166 13.1167H32.1416C32.175 13.1167 32.2083 13.1167 32.1416 13.15C32.075 13.15 32.075 13.2167 32.175 13.2167C32.275 13.2167 32.3416 13.2167 32.2416 13.25C32.2083 13.25 32.1416 13.2833 32.2416 13.3167C32.4666 13.3167 32.4916 13.375 32.4333 13.4083C32.3666 13.4417 32.3333 13.4417 32.4333 13.4417C32.5333 13.4417 32.6333 13.475 32.5333 13.5083C32.4666 13.5083 32.4333 13.575 32.5333 13.575C32.6333 13.575 32.7 13.6417 32.6333 13.675C32.5666 13.7083 32.5333 13.7417 32.6333 13.7417C32.725 13.7417 32.7583 13.7667 32.6916 13.8C32.6333 13.8667 32.6 13.8667 32.525 13.8C32.525 13.7417 32.4666 13.7417 32.4666 13.8L32.4 13.7083C32.3666 13.6083 32.3 13.6083 32.3 13.7083C32.3 13.8 32.2416 13.7417 32.175 13.7083C32.3327 13.8891 32.5464 14.0119 32.7819 14.0572C33.0175 14.1025 33.2615 14.0677 33.475 13.9583C33.5083 13.9583 33.5416 13.9583 33.575 14.0667L33.7666 14.425C33.8 14.4833 33.8666 14.425 33.8666 14.3583L34.0666 13.8C34.0666 13.7083 34.1916 13.6333 34.1583 13.9C34.2583 13.8333 34.65 13.8 34.975 13.9C35.2891 14.0256 35.586 14.1908 35.8583 14.3917C35.8817 14.4097 35.9088 14.422 35.9377 14.4278C35.9667 14.4336 35.9965 14.4326 36.025 14.425C36.1083 14.425 36.15 14.425 35.9833 14.2583C35.8166 14.0917 35.8916 14.0333 35.9833 14.0917C36.0833 14.1583 36.15 14.125 36.05 14.0333L35.725 13.7417C35.6916 13.7417 35.6916 13.675 35.5333 13.675H35.0333C34.975 13.675 34.9083 13.675 35.1083 13.7417C35.3 13.8 35.6583 14.0667 35.7583 14.125C35.8583 14.1917 35.8916 14.325 35.725 14.1917C35.3537 13.9447 34.9636 13.7274 34.5583 13.5417C33.675 13.6417 32.9583 13.7417 32.4333 13.1833C32.175 12.8917 32.175 12.2667 32.6 12.0167C32.5333 11.9417 32.5333 11.8833 32.5666 11.8833V11.6833C32.5 11.65 32.4333 11.5833 32.4333 11.5167C32.3333 11.5167 32.2666 11.3583 32.1083 11.425C31.9416 11.4917 31.9166 11.425 31.85 11.3917C31.8166 11.325 31.7833 11.325 31.6833 11.325C31.5833 11.325 31.5166 11.325 31.5166 11.2583C31.5166 11.2 31.5833 11.2 31.7166 11.2583C31.9416 11.3583 32.1333 11.425 32.3 11.2C32.4333 11 32.2416 10.8417 31.975 10.775C31.6833 10.7083 31.4916 10.9417 31.3583 11.0333H31.3916Z" fill="white" stroke="black" stroke-width="0.0333333"/>
<path d="M32.825 10.9334C32.7287 10.8466 32.6151 10.7813 32.4917 10.7417C32.4083 10.7417 32.4083 10.8084 32.4333 10.8417V11.0334C32.5 11.0667 32.5333 11.1334 32.4333 11.1334C32.3667 11.2 32.4333 11.425 32.5333 11.3584H32.6C32.6 11.3584 32.6 11.4584 32.6583 11.4584C32.725 11.4584 32.6583 11.525 32.6583 11.5584H32.725C32.7917 11.5584 32.7583 11.6834 32.6917 11.725C32.7917 11.725 32.825 11.725 32.825 11.7834C32.8583 11.85 32.9583 11.8834 32.9583 11.975C32.9583 12.075 32.9583 12.075 32.825 12.0417C32.6917 12.0084 32.6917 12.0417 32.6583 12.1084C32.6333 12.175 32.6 12.2084 32.6583 12.2084C32.725 12.2084 32.7917 12.2417 32.6917 12.275C32.6 12.3 32.5 12.275 32.4667 12.3667C32.4667 12.4667 32.4667 12.5 32.5333 12.4667L32.7583 12.3334L32.925 12.3667C32.9917 12.4 32.925 12.5334 32.8583 12.4667C32.7917 12.4 32.725 12.4667 32.6917 12.5L32.525 12.5667C32.4667 12.5667 32.4 12.5667 32.4417 12.7334C32.4417 13.1834 32.7917 13.5084 33.4417 13.5084H34.525C34.325 13.375 34.1917 13.3167 34.0917 13.3167H34C34.0333 13.2834 34 13.2167 33.9667 13.2167C33.9333 13.2167 33.8667 13.15 33.8 13.2167L33.475 13.3834C33.4083 13.3834 33.3083 13.3834 33.4083 13.3167L33.7083 13.1834C33.7667 13.1834 33.7333 13.1167 33.7333 13.1167C33.7333 13.1167 33.7333 13.0167 33.8333 13.05C34.0333 13.1834 34.325 13.35 34.4167 13.35C34.5167 13.35 34.55 13.2834 34.4833 13.25C34.425 13.2167 34.3917 13.15 34.3917 13.1167C34.3917 13.0834 34.425 13.05 34.5583 13.1167C34.6833 13.2167 34.875 13.2834 34.975 13.3167C35.075 13.35 35.1417 13.35 34.975 13.25L34.225 12.6917C34.125 12.6 34.125 12.6917 34.1583 12.7584C34.1917 12.825 34.0667 12.8584 33.9917 12.7917C33.9333 12.725 33.9 12.6917 33.9917 12.6584C34.0917 12.6334 34.0667 12.6 33.9667 12.4917C33.8333 12.4084 33.8 12.4084 33.8333 12.4917C33.8667 12.6 33.8667 12.6584 33.7667 12.6334C33.675 12.6 33.575 12.5334 33.675 12.5C33.7333 12.4334 33.8417 12.4 33.675 12.3C33.5083 12.2084 33.6083 12.3 33.575 12.3667C33.5417 12.4334 33.4417 12.4334 33.4083 12.3667C33.375 12.3 33.3167 12.275 33.35 12.2417C33.375 12.2084 33.375 12.175 33.4417 12.2417C33.5083 12.3 33.575 12.2417 33.475 12.1417C33.375 12.0417 33.35 12.075 33.375 12.1417C33.4083 12.2084 33.3167 12.275 33.1833 12.1417C33.1167 12.1084 33.1167 12.0417 33.1833 12.0084C33.25 12.0084 33.25 11.975 33.1833 11.9167C32.9583 11.525 33.05 11.225 32.7917 10.9334H32.825Z" fill="white" stroke="black" stroke-width="0.0333333"/>
<path d="M32.8332 11C32.8166 11.0333 32.8082 11.025 32.7666 11.0583C32.7249 11.0917 32.7082 11.1833 32.7916 11.175C32.8146 11.1726 32.8368 11.1654 32.8569 11.1539C32.877 11.1425 32.8945 11.1269 32.9082 11.1083C32.8892 11.0703 32.8669 11.0341 32.8416 11H32.8332ZM32.5832 10.7833C32.5082 10.85 32.4999 10.8833 32.5332 10.8833C32.5749 10.8833 32.5582 10.8833 32.5332 10.9333C32.4999 10.975 32.5832 11 32.6166 10.9583C32.6582 10.925 32.6582 10.9167 32.6749 10.9583C32.6832 11 32.7582 10.9583 32.7832 10.9333C32.7249 10.875 32.6416 10.825 32.5749 10.7833H32.5832ZM32.4582 11.15C32.3749 11.1917 32.3999 11.4167 32.5332 11.35C32.5749 11.3333 32.6082 11.35 32.6082 11.375V11.4333C32.6623 11.411 32.7107 11.3768 32.7499 11.3333C32.8249 11.2333 32.7499 11.25 32.6332 11.25C32.5166 11.25 32.4916 11.225 32.5999 11.1583C32.6999 11.0917 32.6249 11.0583 32.4916 11.075C32.5082 11.1 32.4999 11.125 32.4582 11.15ZM32.9499 11.65C32.8832 11.575 32.9249 11.55 32.9916 11.5083C33.0046 11.5029 33.0161 11.4943 33.0249 11.4833L32.9666 11.2667C32.9416 11.2833 32.8999 11.3583 32.8832 11.3917C32.8666 11.45 32.8499 11.4833 32.7999 11.475C32.7416 11.45 32.6916 11.5083 32.6832 11.5667H32.7249C32.7416 11.575 32.7499 11.6167 32.7416 11.65C32.8999 11.65 32.9249 11.7417 32.9499 11.8167C32.9832 11.9 33.0082 11.8917 33.0332 11.8417C33.0582 11.7917 33.0082 11.7167 32.9499 11.65Z" fill="#CF6200"/>
<path d="M32.9917 12.5333C32.9583 12.6 32.9583 12.5917 32.8667 12.5917C32.7833 12.6 32.6667 12.6167 32.6167 12.6667C32.5917 12.6917 32.4333 12.7083 32.4333 12.775C32.4333 12.85 32.4333 12.9 32.5 12.9083C32.5667 12.9083 32.5833 12.925 32.5583 12.975C32.525 13.025 32.5083 13.1 32.625 13.1167C32.7417 13.1167 32.8333 13.0917 32.8583 13.15C32.8917 13.2333 32.8583 13.325 32.8833 13.375C32.9 13.4167 32.9833 13.4333 33.1083 13.475C33.1917 13.4917 33.5083 13.5167 33.6083 13.5C33.6917 13.4833 33.6583 13.4333 33.5667 13.4333C33.4667 13.4167 33.4 13.4 33.375 13.3333C33.35 13.2583 33.3333 13.225 33.3917 13.1667C33.4417 13.1 33.4917 13.0583 33.4583 12.9583C33.4333 12.8667 33.375 12.75 33.2667 12.7167C33.1583 12.6833 33.1917 12.525 33.075 12.5167C33.0333 12.5167 33.0083 12.5167 32.9917 12.5333Z" fill="#FFFF00"/>
<path d="M32.4417 13.45C32.5417 13.4666 32.6167 13.4916 32.5417 13.5166C32.4667 13.5416 32.4167 13.5833 32.5167 13.5916C32.6167 13.5916 32.7083 13.6416 32.625 13.6583C32.5417 13.6833 32.5417 13.7416 32.6333 13.7416C32.725 13.7416 32.775 13.775 32.7083 13.825C32.6333 13.8583 32.5917 13.8833 32.5417 13.8166C32.5 13.7416 32.475 13.7333 32.4667 13.775C32.45 13.825 32.425 13.7916 32.3917 13.7166C32.3667 13.65 32.2917 13.6166 32.3083 13.675C32.3333 13.7333 32.2583 13.75 32.1833 13.7166C32.2518 13.7967 32.3336 13.8644 32.425 13.9166C32.525 13.8833 32.6417 13.9166 32.675 13.9166C32.725 13.9166 32.85 13.95 32.925 13.9916C33 14.025 33.05 13.9583 33.0167 13.8833C32.9833 13.8 32.9833 13.825 32.95 13.8833C32.9 13.9166 32.9 13.8583 32.9 13.7666C32.9 13.7 32.85 13.7083 32.8417 13.7583C32.825 13.8 32.7833 13.725 32.8 13.6833C32.825 13.6416 32.8 13.6166 32.7667 13.6333C32.725 13.65 32.725 13.6333 32.7167 13.55C32.7083 13.4583 32.675 13.4666 32.6667 13.5083C32.6583 13.5416 32.6167 13.4916 32.5583 13.425C32.5167 13.375 32.475 13.4083 32.3833 13.4333L32.4417 13.45Z" fill="#CF6200"/>
<path d="M33.4667 13.9833C33.0084 14.1666 32.675 14.0833 32.425 13.9166C32.525 13.8833 32.6417 13.9166 32.6834 13.9166C32.725 13.9166 32.8584 13.95 32.925 13.9916C32.9917 14.025 33.05 13.9583 33.0167 13.8833C33.075 13.9666 33.125 14.0166 33.2 14.0083L33.4667 13.9833ZM32.4834 11.8333C32.45 11.7333 32.425 11.7166 32.375 11.725C32.325 11.725 32.3 11.7166 32.2417 11.6916C32.1917 11.6666 32.1167 11.6916 32.1084 11.8C32.0917 11.9083 32.025 11.95 31.9417 12.0166C31.8584 12.075 31.8167 12.125 31.8167 12.2333C31.8167 12.3333 31.7917 12.35 31.7334 12.4333L31.6417 12.5416L31.7417 12.6C31.8084 12.6333 31.7834 12.675 31.725 12.6583C31.6667 12.6416 31.6 12.675 31.7084 12.6916C31.8084 12.7166 31.85 12.775 31.7584 12.775C31.65 12.75 31.5417 12.8416 31.7334 12.8166C31.925 12.8 31.9917 12.8916 31.775 12.8916C31.55 12.8916 31.6334 12.9666 31.7584 12.9666C31.9667 12.9666 31.9 13.025 31.8417 13.025C31.7917 13.025 31.7667 13.1083 31.9084 13.0833L31.9584 13C31.9834 12.9333 32 12.7416 32.0834 12.6833C32.1584 12.6333 32.2 12.5416 32.2 12.4916C32.2 12.4416 32.325 12.1833 32.3917 12.125C32.475 12.0666 32.5084 11.9333 32.475 11.8416L32.4834 11.8333Z" fill="#FFFF00"/>
<path d="M32.3166 11.85C32.2416 11.7917 32.1582 11.8334 32.1582 11.9334C32.1582 12.0167 32.1083 12.0584 32.0416 12.1C32.0043 12.1193 31.9715 12.1464 31.9456 12.1795C31.9197 12.2125 31.9013 12.2508 31.8916 12.2917C31.8916 12.375 31.9082 12.4167 31.8582 12.4834C31.7999 12.5417 31.7916 12.5917 31.8249 12.6334C31.8749 12.6667 31.8749 12.6667 31.8833 12.7167C31.9083 12.7667 31.9999 12.7167 31.9999 12.6584C31.9999 12.6 32.0249 12.6 32.0833 12.5667C32.1499 12.5334 32.2499 12.3667 32.2249 12.325C32.2083 12.2834 32.1416 12.2417 32.2249 12.1834C32.3083 12.1167 32.3749 12.1 32.3749 12.05C32.3749 11.9834 32.3916 11.9667 32.4166 11.9417C32.4416 11.9167 32.3666 11.8834 32.3166 11.8584V11.85Z" fill="#CF6200"/>
<path d="M32.3167 11.7667C32.2667 11.75 32.2334 11.8584 32.3084 11.875C32.3834 11.8917 32.3917 11.8 32.3084 11.775L32.3167 11.7667ZM32.3084 11.9084C32.2501 11.9167 32.1834 11.9917 32.2751 11.9917C32.3751 11.975 32.4084 11.9084 32.3001 11.9084H32.3084ZM32.1917 12.05C32.1334 12.075 32.1501 12.1584 32.2334 12.1C32.3167 12.0417 32.3334 11.975 32.1917 12.05ZM32.1084 12.1667C32.0501 12.1917 32.0501 12.275 32.1417 12.2167C32.2251 12.1667 32.2501 12.0917 32.1084 12.1667Z" fill="black"/>
<path d="M31.9918 12.225C31.9334 12.25 31.9668 12.325 32.0501 12.275C32.1334 12.225 32.1334 12.15 31.9918 12.225ZM32.0584 12.3C31.9918 12.325 32.0334 12.4 32.1168 12.35C32.2001 12.3 32.2001 12.225 32.0501 12.3H32.0584Z" fill="black"/>
<path d="M31.95 12.325C31.9 12.3583 31.9333 12.425 32.025 12.375C32.1083 12.325 32.1 12.25 31.95 12.325ZM32.025 12.4083C31.9583 12.4333 31.9917 12.5083 32.0833 12.4583C32.1667 12.4 32.1667 12.3333 32.0167 12.4083H32.025Z" fill="black"/>
<path d="M31.9168 12.4584C31.8668 12.4834 31.9001 12.5584 31.9918 12.5084C32.0751 12.4584 32.0584 12.3834 31.9251 12.4584H31.9168Z" fill="black"/>
<path d="M31.9167 12.525C31.875 12.5584 31.9083 12.6417 32 12.5834C32.0833 12.525 32.0667 12.4584 31.9167 12.525Z" fill="black"/>
<path d="M31.8833 13.2417C31.825 13.2417 31.7833 13.3334 31.8583 13.35C31.9333 13.3667 31.95 13.375 31.95 13.425C31.95 13.475 31.975 13.5667 32.05 13.5667C32.1333 13.5667 32.2 13.4834 32.1333 13.4584C32.0583 13.4334 32 13.4084 31.9917 13.3417C31.9917 13.2834 31.925 13.2417 31.8833 13.2417Z" fill="#CF6200"/>
<path d="M33.9583 12.75L33.9999 12.8C34.0583 12.8417 34.1666 12.8 34.1416 12.7584C34.1333 12.725 34.0749 12.5917 34.2249 12.6917L34.9916 13.2334C35.1499 13.35 35.0416 13.3667 34.9749 13.325L34.5583 13.1334C34.4333 13.0584 34.4166 13.0917 34.3916 13.1084C34.3916 13.1334 34.3916 13.1834 34.4416 13.225C34.3666 13.2334 34.2499 13.225 34.2083 13.1417C34.1666 13.0417 34.0666 12.925 33.9916 12.8334C33.9666 12.8 33.9583 12.775 33.9666 12.7584L33.9583 12.75Z" fill="#FFFF00"/>
<path d="M38.1666 26.625C38.0582 26.7 37.9166 26.825 38.0082 27L38.0416 26.9917C38.4481 26.4983 38.8079 25.9682 39.1166 25.4083V25.3583C39.0033 25.4514 38.8769 25.5272 38.7416 25.5833C38.7916 25.725 38.5499 25.9 38.4332 25.95C38.4832 26.0333 38.4666 26.1667 38.3499 26.1917C38.3749 26.2583 38.2916 26.2583 38.1832 26.3083C38.0916 26.35 38.0416 26.375 38.0082 26.4333C38.0582 26.4 38.1416 26.375 38.1749 26.3917C38.2082 26.4083 38.2249 26.4667 38.1499 26.4833C38.0832 26.5083 38.0332 26.5417 37.9999 26.5667C38.1082 26.5417 38.2666 26.55 38.1666 26.625Z" fill="#00D860"/>
<path d="M33.1499 12.6C33.0165 12.5 32.9832 12.5667 33.0165 12.6C33.0499 12.6333 33.0165 12.725 32.9249 12.7667H32.5915C32.5332 12.7667 32.4332 12.8917 32.5915 12.85L33.1165 12.7667C33.1832 12.7667 33.2499 12.6917 33.1165 12.6H33.1499ZM33.3749 12.7917C33.2832 12.6917 33.2499 12.725 33.2832 12.7917C33.3165 12.8583 33.2499 12.8917 33.1832 12.8917L32.7249 13.0167C32.5999 13.0167 32.5999 13.1167 32.7582 13.1167C32.9249 13.1167 33.2499 12.95 33.2832 12.95C33.3165 12.95 33.3499 12.8583 33.3749 12.8917C33.4082 12.925 33.4749 12.8917 33.3749 12.7917ZM33.4749 13.05L33.1499 13.2167C33.0499 13.2167 32.9832 13.3167 33.1499 13.3167C33.3165 13.3167 33.4832 13.15 33.5415 13.1167L33.6749 13.05C33.6749 13.05 33.7999 13.0167 33.6749 12.925C33.5415 12.825 33.4082 12.925 33.4749 12.9583C33.5415 12.9917 33.4749 13.05 33.4749 13.05Z" fill="black" stroke="black" stroke-width="0.0333333"/>
<path d="M32.1418 10.9333C31.9335 10.7917 31.7085 11.075 31.9335 11.2333C32.1335 11.375 32.3501 11.0667 32.1501 10.9333H32.1418Z" fill="black"/>
<path d="M31.8834 11.0583H31.9417C31.9417 11.125 32.0001 11.225 32.0917 11.2C32.0167 11.2583 31.8751 11.1833 31.8834 11.0583ZM32.6834 14.1417C32.7501 14.1667 32.9667 14.1833 33.0501 14.1833L32.9501 14.3667C32.9251 14.425 32.9167 14.4334 32.9084 14.3417C32.9084 14.2584 32.8584 14.2 32.8167 14.2917L32.7334 14.4583C32.7084 14.4917 32.6751 14.5 32.6834 14.4083C32.7001 14.3167 32.6917 14.2167 32.6834 14.1417Z" fill="white"/>
<path d="M40.875 16.6416C40.875 21.95 40.025 27.6833 33.125 30.4166C26.2417 27.6833 25.4 21.95 25.3667 16.6416H40.875ZM40.875 16.6416C40.875 14.6166 40.775 12.6583 40.8084 10.975C38.3571 10.0217 35.7467 9.54377 33.1167 9.56664C31.3917 9.56664 28 9.82497 25.4334 10.9666C25.4917 12.6583 25.3667 14.6166 25.3667 16.6333L40.875 16.6416Z" stroke="black" stroke-width="0.1"/>
<path d="M-7 0H19.6667V20H-7V0Z" fill="#012169"/>
<path d="M-3.875 0L6.29167 7.54167L16.4167 0H19.6667V2.58333L9.66667 10.0417L19.6667 17.4583V20H16.3333L6.33333 12.5417L-3.625 20H-7V17.5L2.95833 10.0833L-7 2.66667V0H-3.875Z" fill="white"/>
<path d="M10.6667 11.7083L19.6667 18.3333V20L8.375 11.7083H10.6667ZM3 12.5417L3.25 14L-4.75 20H-7L3 12.5417ZM19.6667 0V0.125L9.29167 7.95833L9.375 6.125L17.5833 0H19.6667ZM-7 0L2.95833 7.33333H0.458333L-7 1.75V0Z" fill="#C8102E"/>
<path d="M3.04167 0V20H9.70833V0H3.04167ZM-7 6.66667V13.3333H19.6667V6.66667H-7Z" fill="white"/>
<path d="M-7 8.04167V12.0417H19.6667V8.04167H-7ZM4.375 0V20H8.375V0H4.375Z" fill="#C8102E"/>
</g>
</g>
<defs>
<clipPath id="clip0_769_5989">
<path d="M0 20C0 8.95431 8.95431 0 20 0C31.0457 0 40 8.95431 40 20C40 31.0457 31.0457 40 20 40C8.95431 40 0 31.0457 0 20Z" fill="white"/>
</clipPath>
<clipPath id="clip1_769_5989">
<rect width="53.3333" height="40" fill="white" transform="translate(-7)"/>
</clipPath>
</defs>
</svg>
