<svg width="40" height="40" viewBox="0 0 40 40" fill="none" xmlns="http://www.w3.org/2000/svg">
<g clip-path="url(#clip0_769_7099)">
<path d="M0 20C0 8.95431 8.95431 0 20 0C31.0457 0 40 8.95431 40 20C40 31.0457 31.0457 40 20 40C8.95431 40 0 31.0457 0 20Z" fill="#E94E0F"/>
<g clip-path="url(#clip1_769_7099)">
<path d="M-7 0H46.3333V40H-7V0Z" fill="#00008B"/>
<path d="M-3.875 0L6.29167 7.54167L16.4167 0H19.6667V2.58333L9.66667 10.0417L19.6667 17.4583V20H16.3333L6.33333 12.5417L-3.625 20H-7V17.5L2.95833 10.0833L-7 2.66667V0H-3.875Z" fill="white"/>
<path d="M10.6667 11.7083L19.6667 18.3333V20L8.375 11.7083H10.6667ZM3 12.5417L3.25 14L-4.75 20H-7L3 12.5417ZM19.6667 0V0.125L9.29167 7.95833L9.375 6.125L17.5833 0H19.6667ZM-7 0L2.95833 7.33333H0.458333L-7 1.75V0Z" fill="#FF0000"/>
<path d="M3.04167 0V20H9.70833V0H3.04167ZM-7 6.66667V13.3333H19.6667V6.66667H-7Z" fill="white"/>
<path d="M-7 8.04167V12.0417H19.6667V8.04167H-7ZM4.375 0V20H8.375V0H4.375Z" fill="#FF0000"/>
<path d="M36.9171 33.0583L35.2088 33.275L35.3921 34.9833L34.1588 33.7833L32.9338 34.9916L33.1004 33.2833L31.3921 33.0833L32.8338 32.15L31.9254 30.6916L33.5588 31.2333L34.1338 29.6083L34.7254 31.225L36.3504 30.6666L35.4588 32.1333L36.9088 33.0583H36.9171Z" fill="white"/>
<path d="M36.6088 23.2916L36.8338 22.2083L36.0171 21.4583L37.1171 21.3333L37.5754 20.325L38.0338 21.3333L39.1338 21.4583L38.3171 22.2083L38.5421 23.2916L37.5754 22.7416L36.6088 23.2916Z" fill="white"/>
<path d="M27.9337 18.2916L26.242 18.475L26.392 20.1666L25.192 18.9583L23.9587 20.1333L24.1587 18.4416L22.4753 18.2166L23.917 17.3166L23.042 15.8583L24.6503 16.425L25.2503 14.8333L25.8087 16.4416L27.4253 15.9166L26.517 17.3583L27.942 18.2916H27.9337Z" fill="white"/>
<path d="M44.917 15.5583L43.1753 15.7833L43.367 17.525L42.1087 16.3L40.8587 17.5333L41.0337 15.7833L39.292 15.5833L40.767 14.625L39.842 13.1333L41.5087 13.6917L42.092 12.0417L42.692 13.6917L44.3503 13.1167L43.4337 14.6167L44.917 15.5583Z" fill="white"/>
<path d="M36.9085 8.59998L35.1835 8.79165L35.3418 10.525L34.1168 9.29165L32.8585 10.4916L33.0585 8.76665L31.3335 8.53332L32.8085 7.61665L31.9168 6.12498L33.5585 6.69998L34.1668 5.07498L34.7335 6.71665L36.3835 6.17498L35.4585 7.64165L36.9085 8.59998Z" fill="white"/>
<path d="M12.5003 32.1416L8.68363 32.5916L9.06696 36.4166L6.33363 33.7166L3.58363 36.4L3.99196 32.575L0.175293 32.0916L3.41696 30.025L1.41696 26.7416L5.05029 27.9916L6.36696 24.375L7.65863 28L11.3003 26.775L9.27529 30.0416L12.5086 32.1333L12.5003 32.1416Z" fill="white"/>
</g>
</g>
<defs>
<clipPath id="clip0_769_7099">
<path d="M0 20C0 8.95431 8.95431 0 20 0C31.0457 0 40 8.95431 40 20C40 31.0457 31.0457 40 20 40C8.95431 40 0 31.0457 0 20Z" fill="white"/>
</clipPath>
<clipPath id="clip1_769_7099">
<rect width="53.3333" height="40" fill="white" transform="translate(-7)"/>
</clipPath>
</defs>
</svg>
