<svg width="40" height="40" viewBox="0 0 40 40" fill="none" xmlns="http://www.w3.org/2000/svg">
<g clip-path="url(#clip0_769_7312)">
<path d="M0 20C0 8.95431 8.95431 0 20 0C31.0457 0 40 8.95431 40 20C40 31.0457 31.0457 40 20 40C8.95431 40 0 31.0457 0 20Z" fill="#E94E0F"/>
<g clip-path="url(#clip1_769_7312)">
<path d="M-6.9917 0H46.3416V40H-6.9917V0Z" fill="#3F9C35"/>
<path d="M-6.9917 0H46.3416V26.6667H-6.9917V0Z" fill="#ED2939"/>
<path d="M-6.9917 0H46.3416V13.3333H-6.9917V0Z" fill="#00B9E4"/>
<path d="M18.3333 26C21.647 26 24.3333 23.3137 24.3333 20C24.3333 16.6863 21.647 14 18.3333 14C15.0195 14 12.3333 16.6863 12.3333 20C12.3333 23.3137 15.0195 26 18.3333 26Z" fill="white"/>
<path d="M19.6667 25C22.4282 25 24.6667 22.7614 24.6667 20C24.6667 17.2386 22.4282 15 19.6667 15C16.9053 15 14.6667 17.2386 14.6667 20C14.6667 22.7614 16.9053 25 19.6667 25Z" fill="#ED2939"/>
<path d="M25.0001 16.6667L25.6417 18.4583L27.3584 17.6417L26.5417 19.3667L28.3334 20L26.5417 20.6417L27.3584 22.3583L25.6417 21.5417L25.0001 23.3333L24.3584 21.5417L22.6417 22.3583L23.4584 20.6417L21.6667 20L23.4584 19.3583L22.6417 17.6417L24.3584 18.4583L25.0001 16.6667Z" fill="white"/>
</g>
</g>
<defs>
<clipPath id="clip0_769_7312">
<path d="M0 20C0 8.95431 8.95431 0 20 0C31.0457 0 40 8.95431 40 20C40 31.0457 31.0457 40 20 40C8.95431 40 0 31.0457 0 20Z" fill="white"/>
</clipPath>
<clipPath id="clip1_769_7312">
<rect width="53.3333" height="40" fill="white" transform="translate(-7)"/>
</clipPath>
</defs>
</svg>
