<svg width="40" height="40" viewBox="0 0 40 40" fill="none" xmlns="http://www.w3.org/2000/svg">
<g clip-path="url(#clip0_769_7341)">
<path d="M0 20C0 8.95431 8.95431 0 20 0C31.0457 0 40 8.95431 40 20C40 31.0457 31.0457 40 20 40C8.95431 40 0 31.0457 0 20Z" fill="#E94E0F"/>
<g clip-path="url(#clip1_769_7341)">
<path d="M-7 0H46.3333V40H-7V0Z" fill="#006A4E"/>
<path d="M16.3333 33.3333C23.6971 33.3333 29.6667 27.3638 29.6667 20C29.6667 12.6362 23.6971 6.66666 16.3333 6.66666C8.96954 6.66666 3 12.6362 3 20C3 27.3638 8.96954 33.3333 16.3333 33.3333Z" fill="#F42A41"/>
</g>
</g>
<defs>
<clipPath id="clip0_769_7341">
<path d="M0 20C0 8.95431 8.95431 0 20 0C31.0457 0 40 8.95431 40 20C40 31.0457 31.0457 40 20 40C8.95431 40 0 31.0457 0 20Z" fill="white"/>
</clipPath>
<clipPath id="clip1_769_7341">
<rect width="53.3333" height="40" fill="white" transform="translate(-7)"/>
</clipPath>
</defs>
</svg>
