<svg width="40" height="40" viewBox="0 0 40 40" fill="none" xmlns="http://www.w3.org/2000/svg">
<g clip-path="url(#clip0_769_7333)">
<path d="M0 20C0 8.95431 8.95431 0 20 0C31.0457 0 40 8.95431 40 20C40 31.0457 31.0457 40 20 40C8.95431 40 0 31.0457 0 20Z" fill="#E94E0F"/>
<g clip-path="url(#clip1_769_7333)">
<path d="M-7 0H46.3333V40H-7V0Z" fill="#00267F"/>
<path d="M10.7749 0H28.5582V40H10.7749V0Z" fill="#FFC726"/>
<path fill-rule="evenodd" clip-rule="evenodd" d="M19.6016 11.0049L19.6034 11L19.6041 11.0115L19.6382 11.1042C20.2091 12.6548 20.7943 14.2443 22.0332 15.475C21.6415 15.3417 20.9498 15.225 20.5165 15.2417V21.8667L22.3832 22.1417C22.4498 22.1417 22.4665 22.0333 22.4665 21.8917C22.6498 19.8333 23.1332 18.1 23.6998 16.3083C23.7126 16.2341 23.7883 16.0954 23.8711 15.9437C24.0579 15.6014 24.2809 15.1929 23.8998 15.3083C23.8785 15.3083 23.7897 15.3391 23.6824 15.3762C23.4545 15.4551 23.1428 15.563 23.2165 15.4667C24.2635 14.4106 25.6163 13.7109 27.0832 13.4667C27.2082 13.4417 27.2832 13.5083 27.1665 13.65C25.2998 16.5333 23.7248 19.9417 23.7415 23.9833C23.3738 23.9833 22.7463 23.8744 22.1205 23.7657C21.4984 23.6577 20.878 23.55 20.5165 23.55V28.225H19.6201H19.5832H18.6868V23.55C18.3253 23.55 17.7049 23.6577 17.0827 23.7657C16.457 23.8744 15.8295 23.9833 15.4618 23.9833C15.4784 19.9417 13.9034 16.5333 12.0368 13.65C11.9201 13.5083 11.9951 13.4417 12.1201 13.4667C13.587 13.7109 14.9398 14.4106 15.9868 15.4667C16.0604 15.563 15.7488 15.4551 15.5209 15.3762C15.4136 15.3391 15.3248 15.3083 15.3034 15.3083C14.9224 15.1929 15.1454 15.6014 15.3321 15.9437C15.4149 16.0954 15.4906 16.2341 15.5034 16.3083C16.0701 18.1 16.5534 19.8333 16.7368 21.8917C16.7368 22.0333 16.7534 22.1417 16.8201 22.1417L18.6868 21.8667V15.2417C18.2534 15.225 17.5618 15.3417 17.1701 15.475C18.409 14.2443 18.9942 12.6548 19.5651 11.1042L19.5992 11.0115L19.5998 11L19.6016 11.0049Z" fill="black"/>
</g>
</g>
<defs>
<clipPath id="clip0_769_7333">
<path d="M0 20C0 8.95431 8.95431 0 20 0C31.0457 0 40 8.95431 40 20C40 31.0457 31.0457 40 20 40C8.95431 40 0 31.0457 0 20Z" fill="white"/>
</clipPath>
<clipPath id="clip1_769_7333">
<rect width="53.3333" height="40" fill="white" transform="translate(-7)"/>
</clipPath>
</defs>
</svg>
