<svg width="40" height="40" viewBox="0 0 40 40" fill="none" xmlns="http://www.w3.org/2000/svg">
<g clip-path="url(#clip0_769_8393)">
<path d="M0 20C0 8.95431 8.95431 0 20 0C31.0457 0 40 8.95431 40 20C40 31.0457 31.0457 40 20 40C8.95431 40 0 31.0457 0 20Z" fill="#E94E0F"/>
<g clip-path="url(#clip1_769_8393)">
<path fill-rule="evenodd" clip-rule="evenodd" d="M0 -0.5H80.0085V26.0703H0V-0.5Z" fill="#B20000"/>
<path fill-rule="evenodd" clip-rule="evenodd" d="M0 26.0703H80.0085V39.5H0V26.0703Z" fill="#429F00"/>
<path fill-rule="evenodd" clip-rule="evenodd" d="M0 -0.5H8.86032V39.5H0V-0.5Z" fill="white"/>
<path fill-rule="evenodd" clip-rule="evenodd" d="M0.421875 0.179688H0.843795V0.859375H0.421875V0.179688ZM1.68764 0.179688H2.95339V0.859375H1.68764V0.179688ZM2.10956 -0.5H2.53148V0.179688H2.10956V-0.5ZM4.21916 -0.5H4.64108V0.179688H4.21916V-0.5ZM5.90684 0.179688H7.1726V0.859375H5.90684V0.179688ZM6.32876 -0.5H6.75068V0.179688H6.32876V-0.5ZM1.26572 0.859375H2.10956V1.53125H1.26572V0.859375ZM2.53148 0.859375H3.37532V1.53125H2.53148V0.859375ZM5.48491 0.859375H6.32876V1.53125H5.48491V0.859375ZM6.75068 0.859375H7.59451V1.53125H6.75068V0.859375ZM0.843795 1.53125H1.68764V2.21094H0.843795V1.53125ZM2.95339 1.53125H3.79724V2.21094H2.95339V1.53125ZM5.063 1.53125H5.90684V2.21094H5.063V1.53125ZM7.1726 1.53125H8.01644V2.21094H7.1726V1.53125ZM8.01644 0.179688H8.43836V0.859375H8.01644V0.179688ZM0.421875 2.21094H1.26572V2.89062H0.421875V2.21094ZM3.37532 2.21094H4.21916V2.89062H3.37532V2.21094ZM7.59451 2.21094H8.43836V2.89062H7.59451V2.21094ZM0.843795 4.24219H1.68764V4.92188H0.843795V4.24219ZM1.26572 4.92188H2.10956V5.60156H1.26572V4.92188ZM2.95339 4.25H3.79724V4.92188H2.95339V4.25ZM2.53148 4.92188H3.37532V5.60156H2.53148V4.92188ZM1.68764 5.60156H2.95339V6.28125H1.68764V5.60156Z" fill="#B20000"/>
<path fill-rule="evenodd" clip-rule="evenodd" d="M2.1096 6.28125H2.53152V6.96094H2.1096V6.28125ZM5.06304 4.25H5.90688V4.92188H5.06304V4.25ZM5.48496 4.92188H6.3288V5.60156H5.48496V4.92188ZM7.17264 4.25H8.01648V4.92188H7.17264V4.25ZM6.75072 4.92188H7.59456V5.60156H6.75072V4.92188ZM5.90688 5.60156H7.17264V6.28125H5.90688V5.60156ZM6.3288 6.28125H6.75072V6.96094H6.3288V6.28125ZM4.2192 5.59375H4.64112V6.27344H4.2192V5.59375ZM0 5.59375H0.42192V6.27344H0V5.59375ZM8.4384 5.59375H8.86032V6.27344H8.4384V5.59375ZM2.1096 8.98438H2.53152V9.66406H2.1096V8.98438ZM1.68768 9.67187H2.95344V10.3438H1.68768V9.67187ZM1.26576 10.3438H3.37536V11.0234H1.26576V10.3438ZM6.3288 8.99219H6.75072V9.67187H6.3288V8.99219ZM5.90688 9.67187H7.17264V10.3438H5.90688V9.67187ZM5.48496 10.3438H7.59456V11.0234H5.48496V10.3438ZM5.90688 13.7344H8.01648V14.4141H5.90688V13.7344ZM5.06304 11.0234H8.01648V11.7031H5.06304V11.0234ZM0.84384 11.0234H3.79728V11.7031H0.84384V11.0234ZM1.26576 14.4141H2.53152V15.0938H1.26576V14.4141ZM0.84384 13.7344H2.95344V14.4141H0.84384V13.7344ZM6.75072 12.3906H8.86032V13.0703H6.75072V12.3906ZM6.3288 14.4219H7.59456V15.1016H6.3288V14.4219Z" fill="#B20000"/>
<path fill-rule="evenodd" clip-rule="evenodd" d="M1.68768 15.0938H2.1096V15.7734H1.68768V15.0938ZM6.75072 15.0938H7.17264V15.7734H6.75072V15.0938ZM0 12.3828H2.1096V13.0625H0V12.3828ZM3.79728 13.7344H5.06304V14.4141H3.79728V13.7344ZM4.2192 14.4219H4.64112V15.1016H4.2192V14.4219ZM2.95344 12.3906H5.90688V13.0703H2.95344V12.3906ZM4.64112 2.21094H5.48496V2.89063H4.64112V2.21094ZM3.79728 2.89063H5.06304V3.57031H3.79728V2.89063ZM3.37536 3.57031H4.2192V4.24219H3.37536V3.57031ZM4.64112 3.57031H5.48496V4.24219H4.64112V3.57031ZM0 2.89063H0.84384V3.57031H0V2.89063ZM0.42192 3.57031H1.26576V4.24219H0.42192V3.57031ZM8.01648 2.89063H8.86032V3.5625H8.01648V2.89063ZM7.59456 3.5625H8.4384V4.23437H7.59456V3.5625ZM0 9.65625H0.42192V10.3359H0V9.65625ZM8.4384 9.65625H8.86032V10.3359H8.4384V9.65625ZM3.79728 15.0859H5.06304V15.7656H3.79728V15.0859ZM3.37536 15.7656H4.2192V16.4375H3.37536V15.7656ZM4.64112 15.7656H5.48496V16.4375H4.64112V15.7656ZM2.95344 16.4375H3.79728V17.1172H2.95344V16.4375ZM5.06304 16.4375H5.90688V17.1172H5.06304V16.4375ZM2.53152 17.1172H3.37536V17.7969H2.53152V17.1172ZM5.48496 17.1172H6.3288V17.7969H5.48496V17.1172ZM2.1096 17.8047H2.95344V18.4844H2.1096V17.8047ZM5.90688 17.8047H6.75072V18.4844H5.90688V17.8047ZM1.26576 18.4844H2.53152V19.1641H1.26576V18.4844ZM6.3288 18.4844H7.59456V19.1641H6.3288V18.4844ZM7.17264 17.8047H8.01648V18.4844H7.17264V17.8047ZM7.59456 17.125H8.4384V17.8047H7.59456V17.125ZM8.01648 16.4453H8.86032V17.125H8.01648V16.4453ZM0.84384 17.8047H1.68768V18.4844H0.84384V17.8047ZM0.42192 17.125H1.26576V17.8047H0.42192V17.125ZM0 16.4531H0.84384V17.1328H0V16.4531ZM1.68768 19.1719H2.1096V19.8438H1.68768V19.1719ZM6.75072 19.1719H7.17264V19.8438H6.75072V19.1719ZM4.2192 17.1406H4.64112V17.8125H4.2192V17.1406ZM2.95344 19.1719H3.37536V19.8438H2.95344V19.1719ZM5.48496 19.1719H5.90688V19.8438H5.48496V19.1719ZM4.2192 19.1719H4.64112V19.8438H4.2192V19.1719ZM0 19.1719H0.42192V19.8438H0L0 19.1719ZM8.4384 19.1719H8.86032V19.8438H8.4384V19.1719ZM4.2192 9.67188H4.64112V10.3438H4.2192V9.67188ZM2.1096 2.89063H2.53152V3.57031H2.1096V2.89063ZM6.3288 2.89063H6.75072V3.57031H6.3288V2.89063ZM3.79728 7.63281H5.06304V8.3125H3.79728V7.63281ZM2.95344 8.3125H4.2192V8.99219H2.95344V8.3125ZM3.37536 8.99219H3.79728V9.67188H3.37536V8.99219ZM2.53152 7.63281H3.37536V8.3125H2.53152V7.63281ZM2.95344 6.96094H4.2192V7.63281H2.95344V6.96094ZM3.37536 6.28125H3.79728V6.96094H3.37536V6.28125ZM4.64112 6.96094H5.90688V7.63281H4.64112V6.96094ZM5.06304 6.28125H5.48496V6.96094H5.06304V6.28125ZM5.48496 7.63281H6.3288V8.3125H5.48496V7.63281ZM4.64112 8.3125H5.90688V8.99219H4.64112V8.3125ZM5.06304 8.99219H5.48496V9.67188H5.06304V8.99219ZM6.75072 7.63281H7.59456V8.3125H6.75072V7.63281ZM7.17264 6.96094H8.4384V7.63281H7.17264V6.96094ZM8.01648 7.63281H8.86032V8.3125H8.01648V7.63281ZM7.17264 8.3125H8.4384V8.99219H7.17264V8.3125ZM7.59456 8.99219H8.01648V9.67188H7.59456V8.99219ZM7.59456 6.28125H8.01648V6.96094H7.59456V6.28125ZM0 7.625H0.84384V8.30469H0V7.625ZM0.42192 6.95312H1.68768V7.625H0.42192V6.95312ZM1.26576 7.625H2.1096V8.30469H1.26576V7.625ZM0.42192 8.30469H1.68768V8.98438H0.42192V8.30469Z" fill="#B20000"/>
<path fill-rule="evenodd" clip-rule="evenodd" d="M0.84384 8.99219H1.26576V9.67187H0.84384V8.99219ZM0.84384 6.28125H1.26576V6.96094H0.84384V6.28125ZM0.42192 11.7031H2.1096V12.3828H0.42192V11.7031ZM2.53152 11.7031H4.2192V12.3828H2.53152V11.7031ZM4.64112 11.7031H6.3288V12.3828H4.64112V11.7031ZM6.75072 11.7031H8.4384V12.3828H6.75072V11.7031ZM3.37536 13.0625H5.48496V13.7344H3.37536V13.0625ZM0.42192 13.0625H2.53152V13.7344H0.42192V13.0625ZM6.3288 13.0625H8.4384V13.7344H6.3288V13.0625ZM8.4384 15.7734H8.86032V16.4453H8.4384V15.7734ZM0 15.7734H0.42192V16.4453H0V15.7734ZM0.42192 38.8203H0.84384V38.1484H0.42192V38.8203ZM1.68768 38.8203H2.95344V38.1484H1.68768V38.8203ZM2.1096 39.5H2.53152V38.8203H2.1096V39.5ZM4.2192 39.5H4.64112V38.8203H4.2192V39.5ZM5.90688 38.8203H7.17264V38.1406H5.90688V38.8203ZM6.3288 39.5H6.75072V38.8203H6.3288V39.5ZM1.26576 38.1406H2.1096V37.4688H1.26576V38.1406ZM2.53152 38.1406H3.37536V37.4688H2.53152V38.1406ZM5.48496 38.1406H6.3288V37.4688H5.48496V38.1406ZM6.75072 38.1406H7.59456V37.4688H6.75072V38.1406ZM2.95344 37.4688H3.79728V36.7891H2.95344V37.4688ZM5.06304 37.4688H5.90688V36.7891H5.06304V37.4688ZM7.17264 37.4688H8.01648V36.7891H7.17264V37.4688ZM8.01648 38.8203H8.4384V38.1406H8.01648V38.8203ZM0.42192 36.7891H1.26576V36.1094H0.42192V36.7891ZM3.37536 36.7891H4.2192V36.1094H3.37536V36.7891ZM7.59456 36.7891H8.4384V36.1094H7.59456V36.7891ZM0.84384 34.7578H1.68768V34.0781H0.84384V34.7578ZM1.26576 34.0781H2.1096V33.3984H1.26576V34.0781ZM2.95344 34.7578H3.79728V34.0781H2.95344V34.7578ZM2.53152 34.0781H3.37536V33.3984H2.53152V34.0781ZM1.68768 33.3984H2.95344V32.7188H1.68768V33.3984ZM2.1096 32.7188H2.53152V32.0469H2.1096V32.7188ZM5.06304 34.75H5.90688V34.0781H5.06304V34.75ZM5.48496 34.0781H6.3288V33.3984H5.48496V34.0781ZM7.17264 34.7578H8.01648V34.0781H7.17264V34.7578ZM6.75072 34.0781H7.59456V33.3984H6.75072V34.0781ZM5.90688 33.3984H7.17264V32.7188H5.90688V33.3984ZM6.3288 32.7188H6.75072V32.0469H6.3288V32.7188ZM4.2192 33.4062H4.64112V32.7266H4.2192V33.4062ZM0 33.4062H0.42192V32.7266H0V33.4062ZM8.4384 33.4062H8.86032V32.7266H8.4384V33.4062ZM2.1096 30.0156H2.53152V29.3359H2.1096V30.0156ZM1.68768 29.3281H2.95344V28.6563H1.68768V29.3281ZM1.26576 28.6563H3.37536V27.9766H1.26576V28.6563ZM6.3288 30.0078H6.75072V29.3281H6.3288V30.0078Z" fill="#B20000"/>
<path fill-rule="evenodd" clip-rule="evenodd" d="M5.90688 29.3281H7.17264V28.6562H5.90688V29.3281ZM5.48496 28.6562H7.59456V27.9766H5.48496V28.6562ZM5.90688 25.2656H8.01648V24.5781H5.90688V25.2656ZM5.06304 27.9766H8.01648V27.2969H5.06304V27.9766ZM0.84384 27.9766H3.79728V27.2969H0.84384V27.9766ZM1.26576 24.5859H2.53152V23.9062H1.26576V24.5859ZM0.84384 25.2656H2.95344V24.5781H0.84384V25.2656ZM6.75072 26.6094H8.86032V25.9297H6.75072V26.6094ZM6.3288 24.5781H7.59456V23.8984H6.3288V24.5781ZM0 26.6094H2.1096V25.9297H0V26.6094ZM3.79728 25.2578H5.06304V24.5781H3.79728V25.2578ZM4.2192 24.5781H4.64112V23.8984H4.2192V24.5781ZM2.95344 26.6094H5.90688V25.9297H2.95344V26.6094ZM4.64112 36.7812H5.48496V36.1016H4.64112V36.7812ZM3.79728 36.1016H5.06304V35.4375H3.79728V36.1016ZM3.37536 35.4219H4.2192V34.7422H3.37536V35.4219ZM4.64112 35.4219H5.48496V34.7422H4.64112V35.4219ZM0 36.1094H0.84384V35.4375H0V36.1094ZM0.42192 35.4297H1.26576V34.7578H0.42192V35.4297ZM8.01648 36.1094H8.86032V35.4375H8.01648V36.1094ZM7.59456 35.4297H8.4384V34.7578H7.59456V35.4297ZM0 29.3438H0.42192V28.6641H0V29.3438ZM8.4384 29.3438H8.86032V28.6641H8.4384V29.3438ZM3.37536 23.2344H4.2192V22.5625H3.37536V23.2344ZM4.64112 23.2344H5.48496V22.5625H4.64112V23.2344ZM2.95344 22.5625H3.79728V21.8828H2.95344V22.5625ZM5.06304 22.5625H5.90688V21.8828H5.06304V22.5625ZM2.53152 21.8828H3.37536V21.2031H2.53152V21.8828ZM5.48496 21.8828H6.3288V21.2031H5.48496V21.8828ZM2.1096 21.1953H2.95344V20.5156H2.1096V21.1953ZM5.90688 21.1953H6.75072V20.5156H5.90688V21.1953ZM1.26576 20.5156H2.53152V19.8359H1.26576V20.5156ZM6.3288 20.5156H7.59456V19.8359H6.3288V20.5156ZM7.17264 21.1953H8.01648V20.5156H7.17264V21.1953ZM7.59456 21.875H8.4384V21.1953H7.59456V21.875ZM8.01648 22.5547H8.86032V21.875H8.01648V22.5547ZM0.84384 21.1953H1.68768V20.5156H0.84384V21.1953ZM0.42192 21.875H1.26576V21.1953H0.42192V21.875ZM0 22.5469H0.84384V21.8672H0V22.5469ZM1.68768 19.8281H2.1096V19.1562H1.68768V19.8281ZM4.2192 21.8594H4.64112V21.1875H4.2192V21.8594ZM4.2192 29.3203H4.64112V28.6484H4.2192V29.3203ZM2.1096 36.1016H2.53152V35.4375H2.1096V36.1016ZM6.3288 36.1016H6.75072V35.4375H6.3288V36.1016ZM3.79728 31.375H5.06304V30.6953H3.79728V31.375ZM2.95344 30.6953H4.2192V30.0156H2.95344V30.6953ZM3.37536 30.0156H3.79728V29.3359H3.37536V30.0156ZM2.53152 31.375H3.37536V30.6953H2.53152V31.375ZM2.95344 32.0391H4.2192V31.375H2.95344V32.0391ZM3.37536 32.7188H3.79728V32.0469H3.37536V32.7188ZM4.64112 32.0391H5.90688V31.375H4.64112V32.0391ZM5.06304 32.7188H5.48496V32.0469H5.06304V32.7188ZM5.48496 31.3672H6.3288V30.6875H5.48496V31.3672ZM4.64112 30.6875H5.90688V30.0078H4.64112V30.6875ZM5.06304 30.0078H5.48496V29.3281H5.06304V30.0078ZM6.75072 31.375H7.59456V30.6953H6.75072V31.375ZM7.17264 32.0391H8.4384V31.375H7.17264V32.0391ZM8.01648 31.3672H8.86032V30.6875H8.01648V31.3672ZM7.17264 30.6875H8.4384V30.0078H7.17264V30.6875ZM7.59456 30.0078H8.01648V29.3281H7.59456V30.0078ZM7.59456 32.7188H8.01648V32.0469H7.59456V32.7188ZM0 31.375H0.84384V30.6953H0V31.375ZM0.42192 32.0391H1.68768V31.375H0.42192V32.0391Z" fill="#B20000"/>
<path fill-rule="evenodd" clip-rule="evenodd" d="M1.26576 31.3672H2.1096V30.6875H1.26576V31.3672ZM0.42192 30.6875H1.68768V30.0078H0.42192V30.6875ZM0.84384 30.0078H1.26576V29.3281H0.84384V30.0078ZM0.84384 32.7188H1.26576V32.0469H0.84384V32.7188ZM0.42192 27.2969H2.1096V26.6172H0.42192V27.2969ZM2.53152 27.2969H4.2192V26.6172H2.53152V27.2969ZM4.64112 27.2969H6.3288V26.6172H4.64112V27.2969ZM6.75072 27.2969H8.4384V26.6172H6.75072V27.2969ZM3.37536 25.9375H5.48496V25.2656H3.37536V25.9375ZM0.42192 25.9375H2.53152V25.2656H0.42192V25.9375ZM6.3288 25.9375H8.4384V25.2656H6.3288V25.9375ZM8.4384 23.2344H8.86032V22.5469H8.4384V23.2344ZM0 23.2344H0.42192V22.5469H0V23.2344ZM3.79728 19.8359H4.2192V20.5156H3.79728V19.8359ZM4.64112 19.8359H5.06304V20.5156H4.64112V19.8359ZM4.64112 18.4844H5.06304V19.1641H4.64112V18.4844ZM3.79728 18.4844H4.2192V19.1641H3.79728V18.4844ZM0.84384 36.7891H1.68768V37.4688H0.84384V36.7891ZM6.75072 23.9062H7.17264V23.2266H6.75072V23.9062ZM1.68768 23.9062H2.1096V23.2266H1.68768V23.9062ZM3.79728 23.2266H5.06304V23.9062H3.79728V23.2266Z" fill="#B20000"/>
</g>
</g>
<defs>
<clipPath id="clip0_769_8393">
<path d="M0 20C0 8.95431 8.95431 0 20 0C31.0457 0 40 8.95431 40 20C40 31.0457 31.0457 40 20 40C8.95431 40 0 31.0457 0 20Z" fill="white"/>
</clipPath>
<clipPath id="clip1_769_8393">
<rect width="53.3333" height="40" fill="white" transform="translate(0 -0.5)"/>
</clipPath>
</defs>
</svg>
