<svg width="40" height="40" viewBox="0 0 40 40" fill="none" xmlns="http://www.w3.org/2000/svg">
<g clip-path="url(#clip0_769_7414)">
<path d="M0 20C0 8.95431 8.95431 0 20 0C31.0457 0 40 8.95431 40 20C40 31.0457 31.0457 40 20 40C8.95431 40 0 31.0457 0 20Z" fill="#E94E0F"/>
<g clip-path="url(#clip1_769_7414)">
<path d="M-7 0H46.3333V40H-7V0Z" fill="#CF142B"/>
<path d="M39.6416 10.8833V24.35C39.6416 27.9417 32.4583 29.1167 32.4583 29.1167C32.4583 29.1167 25.2583 27.95 25.2583 24.3333V10.8833H39.6333H39.6416Z" fill="white"/>
<path d="M39.6416 24.35C39.6416 27.9417 32.4583 29.1167 32.4583 29.1167C32.4583 29.1167 25.2583 27.95 25.2583 24.3333C25.2583 24.3333 25.2583 24.0417 25.4083 23.8833C25.4083 23.8833 25.325 24.475 25.7833 24.9333C25.7833 24.9333 25.425 24.2833 25.7833 23.6583C25.7833 23.6583 25.6416 24.475 26.15 24.9333C26.15 24.9333 25.875 24.275 26.1833 23.5417C26.1833 23.5417 26.0333 24.7333 26.575 24.9833C26.575 24.9833 26.725 24.2833 26.5083 23.85C26.5083 23.85 26.8833 24 26.8666 25C26.8666 25 26.9833 24.85 27.0166 24.125C27.0166 24.125 27.0333 24.9583 27.3083 25.15C27.3083 25.15 27.4083 25.0667 27.2833 24.6917C27.15 24.325 27.3333 24.1917 27.3666 24.1917C27.3666 24.1917 27.3 24.6083 27.65 24.925C27.65 24.925 27.5 24.2667 27.7083 24.175C27.7083 24.175 27.6583 24.7333 28.1083 24.85C28.1083 24.85 28.1333 24.6917 28.0416 24.5167C28.0416 24.5167 27.9583 24.3083 28.0166 24.1417C28.0166 24.1417 28.1583 24.6417 28.35 24.725C28.35 24.725 28.2333 24.425 28.35 24.1417C28.35 24.1417 28.3666 24.5583 28.7416 24.7333C28.7416 24.7333 28.4916 24.4 28.5833 24.05L30.975 24.1667L32.225 24.225L35.95 23.975L36.5833 23.4167C36.5833 23.4167 36.8416 23.7583 36.4333 24.3167C36.4333 24.3167 36.8333 24.25 36.9583 23.625C36.9583 23.625 37.125 23.9667 36.9 24.3583C36.9 24.3583 37.3416 23.9083 37.4 23.4167C37.4 23.4167 37.575 23.9 37.1583 24.4167C37.1583 24.4167 37.525 24.2833 37.6833 23.7417C37.6833 23.7417 37.8166 24.075 37.4583 24.5333C37.4583 24.5333 38.1333 24.1917 38.1166 23.45C38.1166 23.45 38.3916 23.85 38.075 24.4167C38.075 24.4167 38.4083 24.1083 38.45 23.6417C38.45 23.6417 38.6416 23.85 38.4333 24.425C38.4333 24.425 38.85 24.025 38.9166 23.6C38.9166 23.6 39 24 38.65 24.5C38.65 24.5 38.8916 24.4333 39.125 23.95C39.125 23.95 39.1833 24.15 38.975 24.5C38.975 24.5 39.2083 24.4583 39.3583 24.0083C39.3583 24.0083 39.3833 24.275 39.3166 24.5083C39.3166 24.5083 39.4916 24.4 39.5333 23.9C39.5346 24.0288 39.569 24.155 39.6333 24.2667V24.3333L39.6416 24.35Z" fill="#2F8F22"/>
<path d="M35.9501 16.5583C35.9501 16.5583 35.7001 16.6083 35.3668 16.5083C35.0501 16.4083 34.9251 16.45 34.8251 16.5083C34.8251 16.5083 34.9501 16.25 34.6334 16.0417C34.6334 16.0417 34.7334 16.3083 34.5918 16.425C34.5918 16.425 34.5334 16.4833 34.4584 16.4C34.4584 16.4 34.3501 16.275 34.2251 16.2C34.2251 16.2 34.5001 16.1 34.4501 15.825C34.4001 15.55 34.2501 15.525 34.1751 15.4833C34.1616 15.5493 34.1616 15.6174 34.1751 15.6833C34.1751 15.6833 33.8834 15.5167 34.2751 15.2917C34.6751 15.0667 34.6084 14.925 34.5334 14.8083C34.4565 14.6905 34.3574 14.5886 34.2418 14.5083C34.2418 14.5083 34.3251 14.6417 34.3001 14.75C34.2918 14.85 34.1001 14.9167 34.1334 14.7417C34.1751 14.5417 34.1334 14.575 34.1334 14.3833C34.1334 14.3833 34.4834 14.5 34.6334 14.15C34.6334 14.15 34.7668 13.7917 34.3168 13.6167C34.3168 13.6167 34.4251 13.7667 34.3751 13.8667C34.3751 13.8667 34.2751 14.05 34.1668 13.9167C34.0584 13.775 33.9834 13.7333 33.9918 13.5667C33.9918 13.5667 34.4001 13.625 34.2918 13.175C34.2918 13.175 34.2168 13.475 33.6918 13.075C33.6918 13.075 34.0418 12.725 33.9001 12.4417C33.9001 12.4417 33.8584 12.3167 33.4918 12.3833C33.4918 12.3833 33.8084 12.1833 33.6834 12.0083C33.6834 12.0083 33.6084 11.9 33.3001 12.0417C33.3001 12.0417 33.4251 11.85 33.1251 11.625C33.1251 11.625 32.9251 11.725 32.8251 11.825C32.8251 11.825 32.6251 11.575 32.4918 11.4667C32.4918 11.4667 32.2584 11.5583 32.2001 11.825C32.2001 11.825 32.0918 11.7 31.8418 11.625C31.8418 11.625 31.7251 11.8583 31.8834 12.0417C31.8834 12.0417 31.7668 12.0417 31.5501 11.95C31.5501 11.95 31.3168 11.85 31.3584 12.0417C31.3834 12.2417 31.4084 12.2917 31.4584 12.3917C31.4584 12.3917 30.9168 12.2667 30.9418 12.5583C30.9466 12.6568 30.9712 12.7534 31.0141 12.8421C31.0571 12.9309 31.1175 13.0101 31.1918 13.075C31.1918 13.075 30.9001 13.475 30.6418 13.175C30.6418 13.175 30.5418 13.275 30.7418 13.525C30.7418 13.525 30.9418 13.7333 30.7668 13.875C30.7668 13.875 30.5584 14.0417 30.4584 13.7083C30.4584 13.7083 30.1168 14.05 30.5251 14.3083C30.5251 14.3083 30.7751 14.4583 31.0501 14.225C31.0501 14.225 30.9668 14.8917 30.7168 14.7583C30.7168 14.7583 30.5584 14.6583 30.8334 14.5167C30.8334 14.5167 30.4334 14.4667 30.3751 14.85C30.3751 14.85 30.3251 15.1417 30.6668 15.2667C30.6668 15.2667 30.9251 15.3667 30.6668 15.5667C30.6668 15.5667 30.4584 15.7083 30.5918 15.9333C30.5918 15.9333 30.7418 16.1667 30.3501 16.2C30.3501 16.2 30.1501 16.2 30.0751 16.1667C30.0751 16.1667 29.9918 16.3333 30.0418 16.5C30.0418 16.5 29.8501 16.3583 29.4168 16.5167C28.9834 16.6833 29.0084 16.5667 28.9834 16.6167L28.8501 16.8167C28.8501 16.8167 29.0834 17.1167 29.0918 17.0917L29.0418 17.425L29.1584 17.475L30.0584 17.075L30.9751 16.6L31.7168 16.6333L32.1834 16.7417L32.7834 16.7917L33.2334 16.5583H33.8668L34.5668 16.9083L35.3584 17.3833L35.7751 17.4667L36.1001 17.4417V16.7917L35.9501 16.5583Z" fill="#D40000" stroke="black" stroke-width="0.1" stroke-linejoin="round"/>
<path d="M28.6832 17.3083C28.6832 17.3083 29.0332 17.4917 29.1832 17.2833C29.1832 17.2833 29.3665 16.9167 28.9499 16.7833C28.9499 16.7833 29.1832 16.5167 28.9332 16.2667C28.9332 16.2667 28.7999 16.1333 28.5832 16.225C28.5832 16.225 28.4832 16.0333 28.2749 16.0417C28.2749 16.0417 28.0749 16.0417 28.0249 16.25C28.0249 16.25 27.7582 16.15 27.6165 16.3C27.6165 16.3 27.3665 16.5667 27.7082 16.7833L27.9499 16.8083L28.1832 16.6917L28.4582 16.7667C28.4582 16.7667 28.3832 17.0333 28.6832 17.3083Z" fill="#D40000" stroke="black" stroke-width="0.1" stroke-linejoin="round"/>
<path d="M36.4667 16.675C36.5838 16.6603 36.7024 16.683 36.8057 16.7399C36.909 16.7968 36.9916 16.8849 37.0417 16.9917C37.2584 17.5083 36.7917 17.7917 36.7917 17.7917C36.8251 17.9 36.8334 18.0583 36.8334 18.0583C37.4834 18.1417 37.3668 18.875 37.3668 18.875L37.1501 18.6917C36.7751 18.5417 36.3751 18.875 36.1001 19.4083C35.8168 19.9583 35.9501 20.2 36.0001 20.85C36.0501 21.4917 37.0834 21.8833 37.0834 21.8833L36.2751 23.9667C35.9584 24.8 35.2751 24.4583 35.0834 24.275C34.8918 24.1083 34.8418 24.2083 34.7501 24.275C34.6584 24.3583 35.1918 24.775 34.2084 25.175C33.2334 25.5667 33.0667 25.8667 32.9001 25.9667C32.7334 26.0667 32.0668 26.0083 32.0001 25.9167C31.9167 25.8333 31.9668 25.8333 31.7084 25.675C31.4584 25.5333 31.0251 25.3833 30.5584 25.1583C30.0918 24.9333 30.1084 24.6417 30.1167 24.5833C30.1167 24.525 30.2751 24.0417 29.7251 24.425C29.1834 24.8167 28.7168 24.2417 28.7168 24.2417C28.6168 24.1 28.1501 22.875 28.1501 22.875C28.0538 22.5338 27.9341 22.1997 27.7918 21.875C27.7918 21.875 27.7584 21.9417 28.1668 21.7083C28.5668 21.4833 28.7501 21.1 28.8918 20.7167C29.0334 20.3333 28.8918 19.675 28.8418 19.55C28.7918 19.4167 28.4917 18.8083 28.1167 18.6833C27.7501 18.55 27.4917 18.8833 27.4917 18.8833C27.4917 18.8833 27.3834 18.1333 28.0418 18.05C28.0418 18.05 28.0417 17.9 28.0751 17.7917C28.0751 17.7917 27.6084 17.5083 27.8251 16.9917C27.8251 16.9917 27.9751 16.6333 28.3918 16.675L28.3001 16.875C28.3001 16.875 28.2001 17.925 29.7334 17.225C31.2751 16.5083 31.2334 16.375 32.1251 16.825L32.7584 16.8167C32.7584 16.8167 33.6751 16.375 33.9834 16.5667C34.2751 16.7583 35.3418 17.35 35.3418 17.35C35.3418 17.35 36.3751 17.7417 36.5834 17.0167L36.4667 16.675Z" fill="#64B4D1" stroke="black" stroke-width="0.1"/>
<path d="M31.8166 21.25C31.8166 21.25 31.7666 20.925 31.7166 20.7167C31.7166 20.7167 31.5916 20.3917 31.7999 20.15L32.0332 19.875C32.0332 19.875 32.1832 19.675 32.3666 19.65C32.3666 19.65 32.5582 19.65 32.5666 19.6083C32.5916 19.5667 32.7999 19.2333 33.2832 19.6083C33.2832 19.6083 33.4332 19.3583 33.6832 19.3083C33.6832 19.3083 33.9332 19.2417 34.0582 19.425C34.0582 19.425 34.3499 19.2083 34.5916 19.5667C34.5916 19.5667 34.9332 19.3667 35.1916 19.7583C35.1916 19.7583 35.5249 19.5917 35.7249 19.9333C35.9332 20.2917 35.8916 20.4333 35.8916 20.4333L36.0582 21L36.5999 21.6667L35.3332 22.15H34.7499L33.6082 22.45L31.5832 22.6083L31.0249 21.9417L31.8249 21.25H31.8166Z" fill="white" stroke="#00247D" stroke-width="0.1" stroke-miterlimit="10"/>
<path d="M30.1084 24.625C30.1084 24.625 29.8084 24.6333 29.6501 24.725C29.5001 24.7917 29.3751 24.875 29.2001 24.9917C29.2001 24.9917 29.1167 25.1 28.7667 25.0333C28.7667 25.0333 28.1667 24.8917 28.1667 25.3667C28.1667 25.3667 27.4334 25.4167 27.7334 26.0583C27.7334 26.0583 27.9251 26.5583 28.3417 26.2083C28.3417 26.2083 28.0751 26.5833 28.5917 26.7333C28.5917 26.7333 28.9584 26.8333 29.0751 26.4417C29.0751 26.4417 29.1334 26.2917 28.9917 26.1083C28.9917 26.1083 29.1667 26.075 29.2917 25.8833C29.2917 25.8833 28.9084 26.3667 29.3334 26.55C29.3334 26.55 29.8584 26.675 29.8834 26.1333C29.8834 26.1333 29.8334 25.8667 30.0501 25.775C30.0501 25.775 30.4667 25.675 30.6334 25.225C30.6334 25.225 30.0501 24.9 30.1084 24.625ZM28.8834 19.8333C28.8834 19.8333 28.4167 19.625 28.1834 19.8333C28.1834 19.8333 27.8917 19.65 27.5584 19.8333C27.5584 19.8333 27.2501 20.0333 27.0334 20.2667C27.0334 20.2667 26.8834 20.3917 26.9334 20.8C26.9334 20.8 27.0167 21.0917 26.9751 21.225C26.9751 21.225 26.8751 21.2083 26.6667 21.4583C26.6667 21.4583 26.4084 21.75 26.1667 21.4833C26.1667 21.4833 26.2501 21.8667 26.6751 21.8C26.6751 21.8 26.4667 21.9667 26.6501 22.3833C26.6501 22.3833 26.7834 22.6833 26.5667 23.0667C26.5667 23.0667 26.9417 22.9167 26.9334 22.4667C26.9334 22.4667 26.8917 22.1667 27.0167 21.9667C27.0167 21.9667 26.8917 22.15 27.1501 22.5583C27.1501 22.5583 27.3501 22.8583 27.1917 23.1583C27.1917 23.1583 27.5584 23.025 27.5251 22.575C27.4917 22.125 27.2751 22.3083 27.4084 21.8917C27.4084 21.8917 27.4501 22.1083 27.5584 22.225C27.6414 22.295 27.7039 22.3863 27.7391 22.489C27.7743 22.5918 27.781 22.7021 27.7584 22.8083C27.7584 22.8083 27.9751 22.525 27.9251 22.2417C27.9108 22.114 27.8741 21.9899 27.8167 21.875L28.5167 21.475L28.8751 20.85L28.8834 19.8333Z" fill="#D40000" stroke="black" stroke-width="0.1" stroke-linejoin="round"/>
<path d="M26.9751 21.225C26.9751 21.225 27.0751 21.225 27.1751 21.325C27.1751 21.325 27.2334 21.425 27.3334 21.4083M27.8168 21.625C27.8168 21.625 27.5251 21.6083 27.4834 21.375L27.8168 21.625Z" stroke="black" stroke-width="0.1" stroke-miterlimit="10"/>
<path d="M28.2501 20.7667C28.2501 20.7667 28.1001 20.7667 28.0001 20.7C28.0001 20.7 27.9251 20.6417 27.8751 20.7333C27.8751 20.7333 27.7918 20.8667 27.9418 20.925C27.9418 20.925 28.1251 21.025 27.8418 21.2083C27.8418 21.2083 28.1751 21.075 28.0418 20.9083C28.0418 20.9083 27.8918 20.8083 27.9418 20.7667C27.9418 20.7667 27.9585 20.7333 28.0251 20.7667C28.0751 20.8167 28.1918 20.8 28.2501 20.7667Z" fill="black"/>
<path d="M32.7999 21.5833L32.9749 21.5333L31.8082 17.5333H31.7749L32.7999 21.5833Z" fill="#784421" stroke="black" stroke-width="0.1"/>
<path d="M28.9333 26.025C28.9333 26.025 28.6667 25.8667 28.4333 26.05C28.4333 26.05 28.4667 25.95 28.6333 25.9083C28.6333 25.9083 28.7333 25.6417 28.9917 25.6667C28.9917 25.6667 28.8833 25.8 28.7417 25.9C28.7417 25.9 28.8917 25.9167 28.9417 26.025H28.9333Z" fill="black"/>
<path d="M27.9749 26.65C27.9749 26.65 27.5416 26.3833 27.7833 25.925C27.7833 25.925 27.8499 25.8 27.9749 25.825C27.9749 25.825 28.2499 25.9083 28.0416 26.2833C28.0416 26.2833 27.9249 26.525 27.9749 26.6583V26.65ZM28.8499 27.0917C28.8499 27.0917 28.2333 26.8083 28.4249 26.325C28.4249 26.325 28.4833 26.1583 28.6249 26.175C28.6249 26.175 28.8583 26.1917 28.8166 26.5083C28.8166 26.5083 28.7416 26.8083 28.8499 27.0917Z" fill="#64B4D1" stroke="#00247D" stroke-width="0.1" stroke-miterlimit="2.6"/>
<path d="M28.7249 25.3C28.7249 25.3 28.5332 25.4417 28.4665 25.5333C28.4665 25.5333 28.3832 25.4333 28.2832 25.3833C28.2832 25.3833 28.4082 25.3583 28.4665 25.4083C28.4665 25.4083 28.5665 25.325 28.7165 25.3H28.7249Z" fill="black"/>
<path d="M29.2666 26.9667C29.2666 26.9667 29.7666 26.85 29.6666 26.3417C29.6666 26.3417 29.6166 26.125 29.4166 26.1583C29.4166 26.1583 29.1666 26.225 29.3333 26.5417C29.3333 26.5417 29.4249 26.7583 29.2666 26.9667Z" fill="#64B4D1" stroke="#00247D" stroke-width="0.1" stroke-miterlimit="2.6"/>
<path d="M31.4668 16.3917L31.9418 16.55C31.9418 16.55 32.3918 16.7417 32.9668 16.55L33.4001 16.3833L33.1085 16.8333V17.075L33.2835 17.3417C33.2835 17.3417 33.1751 17.3917 32.8335 17.175C32.8335 17.175 32.4668 16.8917 32.0335 17.175C32.0335 17.175 31.7835 17.3417 31.5835 17.3417L31.8751 17.025L31.7668 16.7333L31.4668 16.375V16.3917Z" fill="#F5CE00" stroke="black" stroke-width="0.1" stroke-miterlimit="2.6"/>
<path d="M29.4584 26.375C29.4584 26.375 29.4751 26.3417 29.4584 26.3333L29.4168 26.35C29.4168 26.35 29.3668 26.4333 29.4168 26.55C29.4168 26.55 29.4584 26.625 29.4418 26.7V26.7333C29.4418 26.7333 29.4668 26.725 29.4668 26.7C29.4668 26.7 29.5001 26.6333 29.4501 26.55C29.4501 26.55 29.4001 26.4333 29.4584 26.375Z" fill="white"/>
<path d="M36.1666 17.3083C36.1666 17.3083 35.8166 17.4917 35.6666 17.2833C35.6666 17.2833 35.4916 16.9167 35.9083 16.7833C35.9083 16.7833 35.6749 16.5167 35.9166 16.2667C35.9166 16.2667 36.0499 16.1333 36.2666 16.225C36.2666 16.225 36.3666 16.0333 36.5749 16.0417C36.5749 16.0417 36.7749 16.0417 36.8249 16.25C36.8249 16.25 37.0999 16.15 37.2416 16.3C37.2416 16.3 37.4749 16.5667 37.1416 16.7833L36.8999 16.8083L36.6583 16.6917L36.4083 16.7667C36.4083 16.7667 36.4749 17.0333 36.1583 17.3083H36.1666Z" fill="#D40000" stroke="black" stroke-width="0.1" stroke-linejoin="round"/>
<path d="M33.3999 17.0333C33.3999 17.0333 33.3999 17.1 33.3332 17.1167C33.3332 17.1167 33.2499 17.1417 33.2082 17.0417V17.0167C33.2082 16.975 33.1832 16.85 33.3249 16.7417C33.3249 16.7417 33.5416 16.5667 33.9582 16.7833C34.3601 17.0093 34.7716 17.2179 35.1916 17.4083C35.1916 17.4083 35.4499 17.5417 35.8499 17.5583C35.8499 17.5583 36.3916 17.6 36.6249 17.2167C36.6249 17.2167 36.7999 16.925 36.6249 16.7333C36.6249 16.7333 36.5499 16.65 36.4332 16.6667C36.3725 16.6802 36.3191 16.7158 36.2832 16.7667C36.2832 16.7667 36.1999 16.8833 36.2916 16.975C36.2916 16.975 36.4249 17.0583 36.4749 16.8917C36.4749 16.9083 36.5166 17.0333 36.4416 17.1333C36.4416 17.1333 36.1082 17.6333 35.1999 17.125L34.0082 16.45C34.0082 16.45 33.4166 16.1417 33.0416 16.625C33.0416 16.625 32.7582 17.025 33.1332 17.2833C33.1332 17.2833 33.4166 17.45 33.5832 17.1833C33.5832 17.1833 33.7332 16.925 33.4999 16.8167C33.4999 16.8167 33.2999 16.7167 33.2249 16.9167C33.1416 17.1167 33.3749 17.1667 33.3916 17.025C33.3916 17.025 33.3916 16.9917 33.4166 17.025L33.3999 17.0333Z" fill="#F5CE00" stroke="black" stroke-width="0.1" stroke-miterlimit="2.6"/>
<path d="M28.6666 19.1V18.35C28.6666 18.2833 28.6666 18.25 28.7666 18.1667C28.85 18.1 28.9416 17.975 29.075 18.3083C29.075 18.3083 29.3416 18.0167 29.425 17.975C29.425 17.975 29.5916 17.85 29.7 18.0333C29.7 18.0333 29.8333 17.8167 29.95 17.7667C29.95 17.7667 30.2166 17.6 30.225 18.1167L30.4333 17.9167C30.4333 17.9167 30.6 17.7917 30.7833 17.975C30.7833 17.975 31.075 18.275 31.1166 18.3583C31.1166 18.3583 31.1833 18.4417 31.2 18.5833C31.2 18.5833 31.2 18.75 31.2833 18.8333C31.2833 18.8333 31.375 18.9167 31.4666 18.9333C31.4666 18.9333 31.675 18.9417 31.7666 19.15C31.7666 19.15 31.7916 19.1083 31.9 20.0833V21.875L30.7 23.3L28.775 22.75L28.0083 22.425L27.825 21.875L28.575 21.3833L28.975 20.3L28.85 19.525L28.6666 19.0917V19.1Z" fill="#E4CB5E" stroke="black" stroke-width="0.1" stroke-miterlimit="2.6"/>
<path d="M33.9668 20.0333L34.0668 19.9083L34.2751 19.7417C34.2751 19.7417 34.6085 20.6083 34.6251 20.8V21.0667C34.6251 21.0667 35.1251 21.2 35.2251 21.9583L34.8085 22.725L34.1585 22.3583L33.9668 22.2333V20.0417V20.0333Z" fill="#784421" stroke="black" stroke-width="0.1"/>
<path d="M27.8584 26.0333C27.8584 26.0333 27.875 26.0083 27.8584 25.9833L27.8167 26.0167C27.8167 26.0167 27.6917 26.1583 27.8 26.3833C27.8 26.3833 27.8 26.4167 27.825 26.4C27.825 26.4 27.85 26.4 27.825 26.375C27.825 26.375 27.7334 26.175 27.8584 26.0417V26.0333Z" fill="white"/>
<path d="M29.8083 25.8833C29.8083 25.8833 29.8166 25.8167 29.775 25.75C29.775 25.75 29.75 25.7 29.7583 25.625" stroke="black" stroke-width="0.1" stroke-miterlimit="10"/>
<path d="M30.2251 18.1167C30.2251 18.1167 30.2251 18.3083 30.2834 18.45C30.3334 18.5833 30.5251 18.825 30.5334 18.9417" stroke="black" stroke-width="0.1" stroke-miterlimit="10"/>
<path d="M34.7501 24.625C34.7501 24.625 35.0501 24.6333 35.2085 24.725C35.3751 24.7917 35.4918 24.875 35.6668 24.9917C35.6668 24.9917 35.7501 25.1 36.1001 25.0333C36.1001 25.0333 36.7001 24.8917 36.7001 25.3667C36.7001 25.3667 37.4251 25.4167 37.1335 26.0583C37.1335 26.0583 36.9335 26.5583 36.5168 26.2083C36.5168 26.2083 36.7835 26.5833 36.2668 26.7333C36.2668 26.7333 35.9001 26.8333 35.7918 26.4417C35.7918 26.4417 35.7251 26.2917 35.8751 26.1083C35.8751 26.1083 35.7001 26.075 35.5835 25.8833C35.5835 25.8833 35.9585 26.3667 35.5418 26.55C35.5418 26.55 35.0168 26.675 34.9835 26.1333C34.9835 26.1333 35.0251 25.8667 34.8168 25.775C34.8168 25.775 34.4001 25.675 34.2168 25.225C34.2168 25.225 34.8168 24.9 34.7585 24.625H34.7501Z" fill="#D40000" stroke="black" stroke-width="0.1" stroke-linejoin="round"/>
<path d="M30.2001 18.925L30.8501 22.6083M29.9834 18.95L30.4834 22.9333L29.9834 18.95ZM30.1084 18.9417L30.6584 22.6583L30.1084 18.9417Z" stroke="black" stroke-width="0.1" stroke-miterlimit="10"/>
<path d="M31.2167 22.2917L31.4 22.2333L30.2333 18.2333H30.1917L31.2167 22.2917Z" fill="#784421" stroke="black" stroke-width="0.1"/>
<path d="M30.4834 18.8167L31.6167 21.9M30.5584 18.775L31.7334 21.7333L30.5584 18.775Z" stroke="black" stroke-width="0.1" stroke-miterlimit="10"/>
<path d="M28.6332 26.8C28.6332 26.8 28.4915 26.675 28.5165 26.4417C28.5165 26.4417 28.5165 26.3917 28.4915 26.3833C28.4915 26.3833 28.4665 26.375 28.4665 26.4333C28.4665 26.4333 28.4249 26.675 28.5915 26.8083C28.5915 26.8083 28.5999 26.8333 28.6249 26.825C28.6249 26.825 28.6415 26.825 28.6249 26.8H28.6332Z" fill="white"/>
<path d="M30.2917 18.9L31.0417 22.5417M30.6251 18.7333L31.8167 21.4333L30.6251 18.7333Z" stroke="black" stroke-width="0.1" stroke-miterlimit="10"/>
<path d="M36.3333 21.5833C35.8083 21.2833 35.6916 20.6333 35.6916 20.6333C35.6163 20.2317 35.6627 19.8167 35.825 19.4417C36.1583 18.725 36.75 18.5833 36.75 18.5833C36.75 18.5833 36.175 18.9833 36.0166 19.5167C36.0166 19.5167 35.9 19.975 35.9666 20.4083C36.0333 20.8667 36.0083 20.75 36.1166 21.1L36.3333 21.6V21.5833Z" fill="#F5CE00" stroke="black" stroke-width="0.1" stroke-miterlimit="2.6"/>
<path d="M34.0583 19.8917L31.8417 20.6L31.725 21.6C31.2 22.3583 30.125 22.4917 30.125 22.4917L30.9583 23.3833L32.5417 23.7167L33.3917 23.0667L34.1583 22.3667C34.075 21.9917 34.1167 21.4333 34.1167 21.4333C34.1167 21.3333 34.1583 21.1167 34.1583 21.1167C34.1583 21.1167 34.0333 20.225 34.0583 19.9083V19.8917Z" fill="#784421" stroke="black" stroke-width="0.1"/>
<path d="M31.05 22.1833C31.05 22.1833 32.8834 21.85 34.1584 21.1167L34.625 20.8M31.75 21.35C31.75 21.35 33.2167 20.8917 34.0834 20.5167L31.75 21.35Z" stroke="black" stroke-width="0.1" stroke-miterlimit="10"/>
<path d="M34.1166 22.1C34.1166 22.1 32.5499 22.9167 31.6666 22.9167M34.6249 21.0667L34.1249 21.4333C34.1249 21.4333 32.0832 22.3666 30.5249 22.4L34.6249 21.0667Z" stroke="black" stroke-width="0.1" stroke-miterlimit="10"/>
<path d="M35.9834 19.8333C35.9834 19.8333 36.4501 19.625 36.6834 19.8333C36.6834 19.8333 36.9834 19.65 37.3167 19.8333C37.3167 19.8333 37.6167 20.0333 37.8334 20.2667C37.8334 20.2667 37.9834 20.3917 37.9334 20.8C37.9334 20.8 37.8501 21.0917 37.9084 21.225C37.9084 21.225 38.0001 21.2083 38.2001 21.4583C38.2001 21.4583 38.4751 21.75 38.7001 21.4833C38.7001 21.4833 38.6334 21.8667 38.2001 21.8C38.2001 21.8 38.4001 21.9667 38.2251 22.3833C38.2251 22.3833 38.0917 22.6833 38.3084 23.0667C38.3084 23.0667 37.9251 22.9167 37.9417 22.4667C37.9417 22.4667 37.9751 22.1667 37.8584 21.9667C37.8584 21.9667 37.9751 22.15 37.7167 22.5583C37.7167 22.5583 37.5167 22.8583 37.6834 23.1583C37.6834 23.1583 37.3084 23.025 37.3501 22.575C37.3751 22.125 37.6001 22.3083 37.4584 21.8917C37.4584 21.8917 37.4251 22.1083 37.3167 22.225C37.2337 22.295 37.1713 22.3863 37.1361 22.489C37.1008 22.5918 37.0942 22.7021 37.1167 22.8083C37.1167 22.8083 36.9001 22.525 36.9501 22.2417C37.0001 21.95 37.0501 21.875 37.0501 21.875L36.3584 21.475L36.0084 20.85L35.9834 19.8333Z" fill="#D40000" stroke="black" stroke-width="0.1" stroke-linejoin="round"/>
<path d="M28.0501 22.3667C28.0501 22.3667 28.1167 22.0583 28.4084 22.1667C28.4084 22.1667 28.5084 21.6667 29.0501 21.65C29.5917 21.6333 29.6167 22.1833 29.6167 22.2167C29.6167 22.2167 29.7834 21.9833 30.0417 22.0083C30.0417 22.0083 30.5001 21.9833 30.3417 22.7167L30.4251 22.8167C30.4251 22.8167 30.7667 21.9917 31.4834 22.2C31.4834 22.2 32.1834 22.4167 31.7334 23.0917C31.7334 23.0917 32.0834 23.55 32.3667 23.5083C32.6667 23.4667 32.9251 23.375 33.2167 22.8583C33.5167 22.3417 34.1917 22.2583 34.3584 22.2917C34.5251 22.3167 34.6667 22.4417 34.6917 22.5583C34.6917 22.5583 35.0501 21.3667 36.3417 21.5417L36.8584 21.8167L37.0584 21.9L36.7584 22.7333L36.0584 24.3333L35.5084 24.5L34.9417 24.175L34.7417 24.275V24.7667L33.9917 25.3L33.4751 25.5083L32.9084 25.9083L32.7667 26.2583C32.7667 26.2583 32.4584 26.1167 32.1001 26.2583L31.9834 25.9583L31.6501 25.65L30.3501 25.0333L30.1251 24.2833L29.8834 24.175L29.6167 24.475L29.2417 24.525L28.6584 24.125L28.0417 22.375L28.0501 22.3667Z" fill="white" stroke="#00247D" stroke-width="0.1" stroke-miterlimit="10"/>
<path d="M33.6834 16.5C33.6834 16.5 33.1834 16.4833 33.2084 17" stroke="black" stroke-width="0.1" stroke-miterlimit="2.6"/>
<path d="M36.9166 21.9417C36.0666 21.675 35.8333 20.75 35.8333 20.75C35.7313 20.3195 35.7663 19.868 35.9333 19.4583C36.3333 18.5417 36.9916 18.5417 36.9916 18.5417C37.0764 18.5294 37.1627 18.5503 37.2325 18.5999C37.3023 18.6496 37.3503 18.7242 37.3666 18.8083C37.3999 19.0083 37.2583 19.0833 37.2583 19.0833C37.0333 19.2083 36.8833 19.0417 36.8833 19.0417C36.7833 18.9083 36.8583 18.8 36.8583 18.8C36.9166 18.7167 37.0249 18.7667 37.0249 18.7667C37.1333 18.7833 37.1083 18.9 37.1083 18.9C37.1083 18.9 37.1416 18.7667 37.0083 18.75C37.0083 18.75 36.7416 18.6917 36.4416 19.0667C36.4416 19.0667 36.0499 19.575 36.0499 20.2417C36.0499 20.2417 35.9999 21.475 37.2749 21.7917C37.2749 21.7917 37.1416 21.9917 36.8916 22.7167C36.8916 22.7167 36.6166 23.65 36.3583 24.1583C36.3583 24.1583 35.9999 24.875 35.1999 24.5833C35.1999 24.5833 34.7333 24.375 34.7333 24.0417C34.7333 24.0417 34.7083 23.725 34.9833 23.7083C34.9833 23.7083 35.2583 23.6833 35.2583 23.9167C35.2583 23.9167 35.2583 24.1667 34.9666 24.1167C34.9666 24.1167 34.8666 24.0917 34.8749 23.9917C34.8749 23.9917 34.8916 23.8917 35.0249 23.9417C35.1499 23.9917 35.0249 23.9417 35.0249 23.9333C35.0249 23.9333 34.9749 23.9083 34.9249 23.9333C34.9249 23.9333 34.8749 23.9333 34.8749 24.0167C34.8749 24.0167 34.8749 24.0667 34.9333 24.1083L35.0749 24.125C35.0749 24.125 35.1583 24.2917 35.3249 24.35C35.4245 24.3807 35.5299 24.3877 35.6326 24.3703C35.7354 24.353 35.8326 24.3118 35.9166 24.25C36.0284 24.1531 36.1143 24.03 36.1666 23.8917C36.3349 23.5263 36.4796 23.1505 36.5999 22.7667C36.5999 22.7667 36.7499 22.2917 36.8833 22.0417L36.9166 21.9417Z" fill="#F5CE00" stroke="black" stroke-width="0.1" stroke-miterlimit="2.6"/>
<path d="M34.5 24.2833C34.5 24.2833 34.6667 24.2667 34.6667 24.4083C34.6667 24.4083 34.6583 24.6083 34.4 24.5667C34.4 24.5667 34.15 24.5167 34.2333 24.2333C34.2333 24.2333 34.3 24.0417 34.5333 24.0667C34.5333 24.0667 34.7667 24.0667 34.8667 24.3833C34.8667 24.3833 34.95 24.6583 34.8083 24.8833C34.6583 25.1333 34.2917 25.3 34.1083 25.3833C34.1083 25.3833 33.3833 25.6583 33.1667 25.825C33.1667 25.825 32.8333 26.0667 32.9833 26.2917C32.9833 26.2917 33.0417 26.3833 33.125 26.3833C33.125 26.3833 33.225 26.3833 33.2333 26.2833C33.2333 26.2833 33.2333 26.3417 33.175 26.3667C33.175 26.3667 33.1083 26.4 33.0333 26.3417C33.0333 26.3417 32.95 26.2583 33.0167 26.1417C33.0167 26.1417 33.1 26.0083 33.3167 26.0917C33.3167 26.0917 33.4833 26.1833 33.4167 26.3667C33.4167 26.3667 33.3417 26.5417 33.1333 26.5333C33.1333 26.5333 32.975 26.5333 32.8667 26.4333C32.7 26.2583 32.7 25.9333 32.85 25.7667C32.85 25.7667 32.975 25.5917 33.2417 25.4667L33.9917 25.175C34.2083 25.0833 34.4 24.9833 34.525 24.8333C34.525 24.8333 34.6333 24.7167 34.675 24.5C34.675 24.5 34.7083 24.3333 34.6083 24.3L34.5083 24.275L34.5 24.2833Z" fill="#F5CE00" stroke="black" stroke-width="0.1" stroke-miterlimit="2.6"/>
<path d="M34.9333 23.925C34.9333 23.925 34.7583 23.95 34.8499 24.2083C34.9416 24.45 35.0999 24.5167 35.1416 24.5583M34.5166 24.2833C34.5166 24.2833 34.6916 24.25 34.8083 24.4667C34.8083 24.4667 34.8666 24.5917 34.8749 24.675L34.5166 24.2833Z" stroke="black" stroke-width="0.1" stroke-miterlimit="2.6"/>
<path d="M31.4667 17.0333C31.4667 17.0333 31.4667 17.1 31.55 17.1167C31.55 17.1167 31.6167 17.1333 31.6583 17.0417V17.0167C31.6583 16.975 31.6833 16.85 31.5583 16.7417C31.5583 16.7417 31.325 16.5667 30.9083 16.7833C30.9083 16.7833 30.575 16.95 30.35 17.0833C30.35 17.0833 29.7583 17.4 29.6833 17.4167C29.6833 17.4167 29.4167 17.55 29.0167 17.5667C29.0167 17.5667 28.475 17.6083 28.25 17.225C28.25 17.225 28.0667 16.9333 28.25 16.7417C28.25 16.7417 28.3167 16.6583 28.4333 16.675C28.4833 16.6833 28.5333 16.7083 28.5833 16.775C28.5833 16.775 28.6667 16.8917 28.575 16.9833C28.575 16.9833 28.4417 17.0667 28.3917 16.9C28.3917 16.9167 28.3667 17.0333 28.4333 17.15C28.4333 17.15 28.7667 17.6417 29.6667 17.125L30.8583 16.4583C30.8583 16.4583 31.4583 16.15 31.825 16.625C31.825 16.625 32.1083 17.025 31.7417 17.2917C31.7417 17.2917 31.4667 17.4583 31.2833 17.1917C31.2833 17.1917 31.15 16.9417 31.3667 16.825C31.3667 16.825 31.5667 16.725 31.6583 16.925C31.7417 17.125 31.4917 17.175 31.475 17.0333C31.475 17.0333 31.475 17 31.4667 17.0333ZM28.5333 21.5917C29.0583 21.3 29.1833 20.6333 29.1833 20.6333C29.3 19.9667 29.0417 19.4417 29.0417 19.4417C28.7083 18.725 28.125 18.5833 28.125 18.5833C28.125 18.5833 28.6917 18.9833 28.85 19.5167C28.85 19.5167 28.9833 19.975 28.9 20.4083C28.8333 20.8667 28.8583 20.75 28.75 21.1L28.5333 21.5917Z" fill="#F5CE00" stroke="black" stroke-width="0.1" stroke-miterlimit="2.6"/>
<path d="M31.2 16.5C31.2 16.5 31.7 16.4833 31.6666 17" stroke="black" stroke-width="0.1" stroke-miterlimit="2.6"/>
<path d="M27.9416 21.9417C28.7999 21.675 29.0249 20.75 29.0249 20.75C29.1295 20.3204 29.0975 19.8689 28.9333 19.4583C28.5333 18.5417 27.8749 18.5417 27.8749 18.5417C27.7901 18.5294 27.7039 18.5503 27.6341 18.5999C27.5642 18.6496 27.5162 18.7242 27.4999 18.8083C27.4749 19.0083 27.6083 19.0833 27.6083 19.0833C27.8416 19.2083 27.9916 19.0417 27.9916 19.0417C28.0833 18.9083 28.0083 18.8 28.0083 18.8C27.9499 18.7167 27.8416 18.7667 27.8416 18.7667C27.7416 18.7833 27.7583 18.9 27.7583 18.9C27.7583 18.9 27.7333 18.7667 27.8583 18.75C27.8583 18.75 28.1249 18.6917 28.4249 19.0667C28.4249 19.0667 28.8249 19.575 28.8249 20.2417C28.8249 20.2417 28.8749 21.475 27.5916 21.7917C27.5916 21.7917 27.7333 21.9917 27.9749 22.7167C27.9749 22.7167 28.2583 23.65 28.5249 24.1583C28.5249 24.1583 28.8749 24.875 29.6666 24.5833C29.6666 24.5833 30.1333 24.375 30.1333 24.0417C30.1333 24.0417 30.1666 23.725 29.8833 23.7083C29.8833 23.7083 29.6083 23.6833 29.6083 23.9167C29.6083 23.9167 29.6083 24.1667 29.9083 24.1167C29.9083 24.1167 30.0083 24.0917 29.9916 23.9917C29.9916 23.9917 29.9749 23.8917 29.8499 23.9417C29.7166 23.9917 29.8499 23.9417 29.8499 23.9333C29.8499 23.9333 29.8916 23.9083 29.9416 23.9333C29.9416 23.9333 29.9916 23.9333 29.9916 24.0167C29.9916 24.0167 29.9916 24.0667 29.9333 24.1083L29.8083 24.125C29.8083 24.125 29.7249 24.2917 29.5416 24.35C29.4437 24.3828 29.3392 24.3909 29.2374 24.3734C29.1356 24.356 29.0397 24.3136 28.9583 24.25C28.8465 24.1531 28.7606 24.03 28.7083 23.8917C28.5372 23.5265 28.3897 23.1507 28.2666 22.7667C28.2666 22.7667 28.1166 22.2917 27.9999 22.0417L27.9499 21.9417H27.9416Z" fill="#F5CE00" stroke="black" stroke-width="0.1" stroke-miterlimit="2.6"/>
<path d="M30.3751 24.2833C30.3751 24.2833 30.2084 24.2667 30.2084 24.4083C30.2084 24.4083 30.2084 24.6083 30.4751 24.5667C30.4751 24.5667 30.7251 24.5167 30.6334 24.2333C30.6334 24.2333 30.5751 24.0417 30.3334 24.0667C30.3334 24.0667 30.1084 24.0667 30.0001 24.3833C30.0001 24.3833 29.9251 24.6583 30.0667 24.8833C30.2167 25.1333 30.5834 25.3 30.7584 25.3833C30.7584 25.3833 31.4834 25.6583 31.7084 25.825C31.7084 25.825 32.0334 26.0667 31.8834 26.2917C31.8834 26.2917 31.8334 26.3833 31.7417 26.3833C31.7417 26.3833 31.6417 26.3833 31.6334 26.2833C31.6334 26.2833 31.6334 26.3417 31.6917 26.3667C31.6917 26.3667 31.7667 26.4 31.8334 26.3417C31.8334 26.3417 31.9167 26.2583 31.8501 26.1417C31.8501 26.1417 31.7667 26.0083 31.5667 26.0917C31.5667 26.0917 31.3834 26.1833 31.4667 26.3667C31.4667 26.3667 31.5251 26.5417 31.7334 26.5333C31.7334 26.5333 31.9001 26.5333 32.0001 26.4333C32.1667 26.2583 32.1667 25.9333 32.0334 25.7667C32.0334 25.7667 31.8917 25.5917 31.6334 25.4667C31.4751 25.4167 31.1751 25.2917 30.8834 25.175C30.6584 25.0833 30.4667 24.9833 30.3417 24.8333C30.3417 24.8333 30.2334 24.7167 30.1917 24.5C30.1917 24.5 30.1667 24.3333 30.2667 24.3L30.3667 24.275L30.3751 24.2833Z" fill="#F5CE00" stroke="black" stroke-width="0.1" stroke-miterlimit="2.6"/>
<path d="M32.0084 16.9667C32.0084 16.9667 32.4418 16.6917 32.8751 16.9917M30.3501 24.2833C30.3501 24.2833 30.1751 24.25 30.0668 24.4667C30.0668 24.4667 30.0084 24.5917 29.9918 24.675L30.3501 24.2833ZM29.9334 23.925C29.9334 23.925 30.1168 23.95 30.0251 24.2083C29.9251 24.45 29.7751 24.5167 29.7251 24.5583L29.9334 23.925Z" stroke="black" stroke-width="0.1" stroke-miterlimit="2.6"/>
<path d="M29.6999 18.0333L29.8916 18.5833L30.1416 19.15M29.5666 19.6C29.5666 19.6 29.6249 19.35 29.3499 18.9333C29.3499 18.9333 29.1666 18.5417 29.0833 18.3083L29.5666 19.6Z" stroke="black" stroke-width="0.1" stroke-miterlimit="2.6"/>
<path d="M31.2333 19.3584C31.2333 19.3584 31.5166 19.4917 31.4833 20.1917C31.4833 20.1917 31.4333 20.6083 31.5583 20.8333M29.7666 19.8584C29.7666 19.8584 29.9333 20.0333 29.9166 20.325L29.7666 19.8584ZM29.2416 19.6667C29.2416 19.6667 29.4166 19.75 29.3999 20.2334C29.3999 20.2334 29.3916 20.5667 29.6499 20.75L29.2416 19.6667ZM29.2083 20.8667C29.2083 20.8667 29.7666 20.8083 29.8083 21.1583C29.8083 21.1583 29.8083 21.4917 30.0083 21.5167C30.0083 21.5167 30.2833 21.5417 30.3416 21.8167L29.2083 20.8667ZM29.3916 21.25C29.3916 21.25 29.4916 21.3917 29.5916 21.4667L29.3916 21.25ZM30.1083 20.8834C30.1083 20.8834 30.2416 21.1083 30.2749 21.225L30.1083 20.8834ZM30.7166 18.3083C30.7166 18.3083 30.8499 18.4833 30.9749 18.5583L30.7166 18.3083Z" stroke="black" stroke-width="0.1" stroke-miterlimit="10"/>
<path d="M29.925 18.8833L29.9584 18.95C29.9584 18.95 30.4584 18.975 30.7167 18.6333L30.6917 18.5667C30.6917 18.5667 30.25 18.5417 29.9417 18.8833H29.925Z" fill="#784421" stroke="black" stroke-width="0.1"/>
<path d="M31.7251 21.5417C31.7251 21.5417 33.4418 21.0417 34.1084 20.7417" stroke="black" stroke-width="0.1" stroke-miterlimit="10"/>
<path d="M31.5416 18.375L31.5249 18.325L32.3666 17.9917L32.3916 18.0583L31.5416 18.375Z" fill="#784421" stroke="black" stroke-width="0.1"/>
<path d="M34.05 19.5417L34.1667 19.8167M31.6167 18.3417L32.1834 21.1167L31.6167 18.3417ZM31.7167 18.3167L32.3584 21.0667L31.7167 18.3167ZM31.825 18.2667L32.525 21.0083L31.825 18.2667ZM32.1084 18.1667L33.0667 20.2167L32.1084 18.1667ZM32.2334 18.1333L33.2584 20.15L32.2334 18.1333ZM32.3167 18.0833L33.4334 20.1083L32.3167 18.0833ZM32.1417 21.1417L32.575 21.0083L32.1417 21.1417ZM31.8167 20.875C31.8167 20.875 33.0834 20.5 34.0667 20.1083L31.8167 20.875ZM31.7834 21C31.7834 21 33.4084 20.5833 34.05 20.2667L31.7834 21ZM32.2834 22.3167L32.3667 22.5917L32.6 22.5083L32.5167 22.25L32.2834 22.3167ZM32.9334 22.1417L33.0167 22.3917L33.25 22.3167L33.1667 22.0667L32.9334 22.1417ZM31.8334 20.6L31.8167 20.25L33.9417 19.6083L34.05 19.9083L31.8334 20.6ZM32.7167 19.975L32.825 20.2917L32.7167 19.975ZM33.4584 19.7583L33.5917 20.0583L33.4584 19.7583ZM33.6334 19.7L33.7667 19.975L33.6334 19.7ZM33.8 19.6417L33.9334 19.9417L33.8 19.6417ZM33.9334 19.6083L34.1667 19.475L34.2667 19.7333L33.9334 19.6083Z" stroke="black" stroke-width="0.1" stroke-miterlimit="10"/>
<path d="M30.8832 23.0083C30.8832 23.0083 31.0165 22.6833 31.3165 22.7083C31.3165 22.7083 31.1749 22.775 31.1749 22.9167C31.1749 22.9167 31.1582 23.1667 31.4165 23.1833C31.4165 23.1833 31.6249 23.2167 31.7332 23.1M28.7915 23.5917C28.7915 23.5917 28.3749 23.1667 28.7915 22.7583C28.7915 22.7583 28.3332 22.5417 28.4082 22.175L28.7915 23.5917ZM29.5415 23.925C29.5415 23.925 29.0999 23.9833 29.2332 23.1417C29.2332 23.1417 29.0499 23.475 28.9915 23.6417C28.9655 23.7245 28.9677 23.8137 28.9979 23.8952C29.028 23.9766 29.0844 24.0458 29.1582 24.0917C29.2332 24.1417 29.6165 24.2417 29.7415 23.9917L29.5415 23.925ZM29.0499 22.6417C29.0499 22.6417 28.8749 22.8 28.9999 23.0917L29.0499 22.6417ZM29.2332 22.675C29.2332 22.675 29.2499 22.9667 29.3999 23.125L29.2332 22.675ZM29.3582 22.5667C29.3582 22.5667 29.3582 22.9 29.5999 23.1167L29.3582 22.5667ZM29.4749 22.45C29.4749 22.45 29.4749 22.825 29.7582 23.0667L29.4749 22.45Z" stroke="#00247D" stroke-width="0.1" stroke-miterlimit="10"/>
<path d="M34.6916 22.5583C34.6916 22.5583 34.7583 22.8167 34.6916 22.975M31.5916 24.425C31.5916 24.425 30.85 24.075 30.925 23.5833C30.925 23.5833 30.9583 23.2833 31.2583 23.1333L31.5916 24.425ZM31.0916 23.45C31.0916 23.45 31.025 23.6583 31.175 23.8083L31.0916 23.45ZM31.2666 23.3083C31.2666 23.3083 31.1666 23.5417 31.325 23.7083L31.2666 23.3083ZM31.45 23.1833C31.45 23.1833 31.3333 23.3833 31.4666 23.5583L31.45 23.1833ZM30.7666 24.475C30.7666 24.475 31.1666 24.8333 31.4833 24.8333L30.7666 24.475ZM30.6416 24.5917C30.6416 24.5917 31.0166 24.8917 31.2583 24.9417L30.6416 24.5917ZM30.5083 24.675C30.5083 24.675 30.9666 25.0833 31.2583 25.1083L30.5083 24.675ZM32.4 25.4917C32.4 25.4917 31.9416 25.7417 32.3 26.0083L32.4 25.4917ZM32.1 25.225L32.85 24.8417L32.1 25.225ZM32.2916 25.3583C32.2916 25.3583 33.0416 24.9 33.2666 24.8L32.2916 25.3583ZM32.6833 25.4C32.6833 25.4 33.325 24.9667 33.675 24.775L32.6833 25.4ZM33.1083 25.3667C33.1083 25.3667 33.55 25.0333 33.9833 24.775L33.1083 25.3667ZM34.125 24.35C34.125 24.35 33.9083 24.025 33.1916 24.35C33.1916 24.35 33.4666 24.1083 33.9833 23.9167L34.125 24.35Z" stroke="#00247D" stroke-width="0.1" stroke-miterlimit="10"/>
<path d="M34.8917 20.375C34.8917 20.375 34.9667 20.5 34.9001 20.6M33.5417 23.8083C33.5417 23.8083 33.6917 23.5917 34.0667 23.475C34.0667 23.475 34.1667 23.725 34.4667 23.6833C34.4667 23.6833 34.9001 23.5917 34.7667 23.1C34.7667 23.1 34.6751 22.75 34.1667 22.7083L33.5417 23.8083ZM35.6751 22.1C35.6751 22.1 36.1834 22.2 36.1751 22.6083C36.1751 22.6083 36.2251 23.2417 35.5584 23.3583L35.6751 22.1ZM36.1084 22.3583C36.1084 22.3583 36.2417 22.05 36.5667 21.925L36.1084 22.3583ZM36.1834 21.7417C36.1834 21.7417 36.3251 21.975 36.4167 22L36.1834 21.7417ZM36.1167 21.9167C36.1167 21.9167 36.2417 22.0917 36.2834 22.125L36.1167 21.9167ZM36.0667 22.0833C36.1021 22.1333 36.1442 22.1782 36.1917 22.2167L36.0667 22.0833ZM33.4167 19.65C33.4167 19.65 33.5167 19.4833 33.7751 19.55L33.4167 19.65ZM34.7834 20.8667C34.7834 20.8667 34.9501 20.2167 35.4917 20.45L34.7834 20.8667ZM35.2751 20.4C35.2751 20.4 35.3251 20.1 35.1917 19.9417L35.2751 20.4Z" stroke="#00247D" stroke-width="0.1" stroke-miterlimit="10"/>
<path d="M36.0166 27.0833C36.0166 27.0833 36.6333 26.8083 36.4416 26.325C36.4416 26.325 36.3833 26.1583 36.2416 26.175C36.2416 26.175 36.0083 26.1833 36.05 26.5083C36.05 26.5083 36.1333 26.825 36.0083 27.0917L36.0166 27.0833Z" fill="#64B4D1" stroke="#00247D" stroke-width="0.1" stroke-miterlimit="2.6"/>
<path d="M36.2334 26.8C36.2334 26.8 36.3751 26.675 36.3584 26.4417C36.3584 26.4417 36.3417 26.3917 36.3584 26.3833C36.3584 26.3833 36.3917 26.375 36.3917 26.4333C36.3917 26.4333 36.4334 26.675 36.2751 26.8083C36.2751 26.8083 36.2667 26.8333 36.2417 26.825C36.2417 26.825 36.2251 26.825 36.2417 26.8H36.2334Z" fill="white"/>
<path d="M36.8918 26.65C36.8918 26.65 37.3251 26.3833 37.0918 25.925C37.0918 25.925 37.0168 25.8 36.8918 25.825C36.8918 25.825 36.6251 25.9083 36.8335 26.2833C36.8335 26.2833 36.9335 26.525 36.8918 26.6583V26.65Z" fill="#64B4D1" stroke="#00247D" stroke-width="0.1" stroke-miterlimit="2.6"/>
<path d="M37.0001 26.0333C37.0001 26.0333 36.9834 26.0083 37.0001 25.9833L37.0334 26.0167C37.0334 26.0167 37.1584 26.1583 37.0584 26.3833C37.0584 26.3833 37.0501 26.4167 37.0168 26.4V26.375C37.0168 26.375 37.1167 26.175 37.0001 26.0417V26.0333Z" fill="white"/>
<path d="M35.5834 26.9667C35.5834 26.9667 35.1001 26.85 35.1917 26.3417C35.1917 26.3417 35.2417 26.125 35.4501 26.1583C35.4501 26.1583 35.7001 26.225 35.5334 26.5417C35.5334 26.5417 35.4417 26.7583 35.5917 26.9667H35.5834Z" fill="#64B4D1" stroke="#00247D" stroke-width="0.1" stroke-miterlimit="2.6"/>
<path d="M35.4 26.375V26.3333C35.4 26.3333 35.4334 26.3333 35.4417 26.35C35.4417 26.35 35.4917 26.4333 35.45 26.55C35.45 26.55 35.4084 26.625 35.4334 26.7C35.4334 26.7 35.4334 26.725 35.4084 26.7333L35.3917 26.7C35.3917 26.7 35.3667 26.6333 35.4084 26.55C35.4084 26.55 35.4584 26.4333 35.4084 26.375H35.4Z" fill="white"/>
<path d="M35.9333 26.025C35.9333 26.025 36.2166 25.8667 36.4333 26.05C36.4333 26.05 36.4166 25.95 36.2333 25.9083C36.2333 25.9083 36.15 25.6417 35.8833 25.6667C35.8833 25.6667 35.9833 25.8 36.1333 25.9C36.1333 25.9 35.9833 25.9167 35.9333 26.025ZM36.1333 25.3C36.1333 25.3 36.3333 25.4417 36.4 25.5333C36.4 25.5333 36.475 25.4333 36.5666 25.3833C36.5666 25.3833 36.4666 25.3583 36.4 25.4083C36.4 25.4083 36.3083 25.325 36.15 25.3H36.1333Z" fill="black"/>
<path d="M37.8918 21.225C37.8918 21.225 37.7918 21.225 37.7085 21.325C37.7085 21.325 37.6335 21.425 37.5418 21.4083M35.0668 25.8833C35.0668 25.8833 35.0418 25.8167 35.0918 25.75C35.0918 25.75 35.1251 25.7 35.1085 25.625L35.0668 25.8833ZM37.0585 21.625C37.0585 21.625 37.3501 21.6083 37.3918 21.375L37.0585 21.625Z" stroke="black" stroke-width="0.1" stroke-miterlimit="10"/>
<path d="M36.6333 20.7667C36.6333 20.7667 36.7833 20.7667 36.8583 20.7C36.8583 20.7 36.95 20.6417 37 20.7333C37 20.7333 37.0833 20.8667 36.9333 20.925C36.9333 20.925 36.75 21.025 37.0416 21.2083C37.0416 21.2083 36.6916 21.075 36.8416 20.9083C36.8416 20.9083 36.9916 20.8083 36.925 20.7667C36.925 20.7667 36.9083 20.7333 36.85 20.7667C36.7916 20.8167 36.675 20.8 36.6333 20.7667Z" fill="black"/>
<path d="M36.8333 17.1333C36.8333 17.1333 36.8999 17.0333 36.8749 16.7667C36.8416 16.5 37.0916 16.4583 37.1749 16.5333C37.1749 16.5333 37.2749 16.6167 37.1749 16.7917C37.1058 16.9429 36.9845 17.0642 36.8333 17.1333Z" fill="#64B4D1" stroke="#00247D" stroke-width="0.1" stroke-miterlimit="2.6"/>
<path d="M36.9167 16.9167C36.9167 16.9167 37.0167 16.825 36.9667 16.6167L36.9834 16.6H37.0084C37.0084 16.6 37.0584 16.8333 36.9584 16.95C36.9584 16.95 36.9417 16.975 36.9167 16.95V16.9167Z" fill="white"/>
<path d="M36.7582 17.0333C36.7582 17.0333 36.7582 16.9167 36.5666 16.7333C36.3666 16.5333 36.5249 16.3667 36.6499 16.3667C36.6499 16.3667 36.7582 16.3667 36.8166 16.5583C36.8543 16.7186 36.8336 16.887 36.7582 17.0333Z" fill="#64B4D1" stroke="#00247D" stroke-width="0.1" stroke-miterlimit="2.6"/>
<path d="M36.7334 16.7833C36.7334 16.7833 36.7334 16.65 36.55 16.5083V16.475H36.5834C36.5834 16.475 36.775 16.625 36.775 16.7917C36.775 16.7917 36.7751 16.8167 36.7501 16.8167C36.7501 16.8167 36.7334 16.8167 36.7334 16.7833Z" fill="white"/>
<path d="M36.5 16.9417C36.5 16.9417 36.4416 16.8583 36.2083 16.7667C35.9666 16.6833 36.025 16.475 36.125 16.4333C36.125 16.4333 36.2333 16.3917 36.3416 16.525C36.4401 16.6413 36.4934 16.7893 36.4916 16.9417H36.5Z" fill="#64B4D1" stroke="#00247D" stroke-width="0.1" stroke-miterlimit="2.6"/>
<path d="M36.3834 16.775C36.3834 16.775 36.3334 16.6583 36.1168 16.6C36.1168 16.6 36.1001 16.6 36.1001 16.575C36.1001 16.575 36.1001 16.5583 36.1251 16.5667C36.1251 16.5667 36.3668 16.6167 36.4334 16.7667L36.4251 16.7917C36.4251 16.7917 36.4001 16.7917 36.3918 16.775H36.3834Z" fill="white"/>
<path d="M36.6417 17.0333C36.6417 17.0333 36.5334 17.075 36.2751 16.95C36.0167 16.825 35.9084 17.0417 35.9584 17.1417C35.9584 17.1417 36.0001 17.275 36.1917 17.2417C36.3612 17.2325 36.5214 17.1613 36.6417 17.0417V17.0333Z" fill="#64B4D1" stroke="#00247D" stroke-width="0.1" stroke-miterlimit="2.6"/>
<path d="M36.05 17.1167C36.05 17.1167 36.1667 17.2 36.375 17.1167H36.4C36.4 17.1167 36.4 17.1333 36.3833 17.1417C36.3833 17.1417 36.1667 17.2417 36.0167 17.15C36.0167 17.15 36 17.15 36.0167 17.125H36.05V17.1167Z" fill="white"/>
<path d="M36.2749 16.225C36.2749 16.225 36.3916 16.2917 36.3749 16.4333" stroke="black" stroke-width="0.1" stroke-miterlimit="2.6"/>
<path d="M36.8333 16.25C36.8333 16.25 36.8833 16.4083 36.8333 16.5" stroke="black" stroke-width="0.1" stroke-miterlimit="10"/>
<path d="M28.0167 17.1333C28.0167 17.1333 27.95 17.0333 27.975 16.7667C28.0084 16.4833 27.7667 16.4583 27.6834 16.5333C27.6834 16.5333 27.5834 16.6167 27.6667 16.7917C27.7379 16.9444 27.8623 17.0659 28.0167 17.1333Z" fill="#64B4D1" stroke="#00247D" stroke-width="0.1" stroke-miterlimit="2.6"/>
<path d="M27.925 16.9167C27.925 16.9167 27.8416 16.825 27.875 16.6167V16.6H27.8416C27.8416 16.6 27.7999 16.8333 27.8999 16.95C27.8999 16.95 27.9166 16.975 27.925 16.95V16.9167Z" fill="white"/>
<path d="M28.0999 17.0333C28.0999 17.0333 28.0999 16.9167 28.2999 16.7333C28.4916 16.5333 28.3332 16.3667 28.2166 16.3667C28.2166 16.3667 28.0832 16.3667 28.0499 16.5583C28.0096 16.7176 28.0274 16.886 28.0999 17.0333Z" fill="#64B4D1" stroke="#00247D" stroke-width="0.1" stroke-miterlimit="2.6"/>
<path d="M28.125 16.7833C28.125 16.7833 28.125 16.65 28.2916 16.5083C28.2916 16.5083 28.3166 16.4833 28.2916 16.475H28.275C28.275 16.475 28.075 16.625 28.075 16.7917C28.075 16.7917 28.075 16.8167 28.1083 16.8167C28.1083 16.8167 28.125 16.8167 28.125 16.7833Z" fill="white"/>
<path d="M28.3584 16.9417C28.3584 16.9417 28.4084 16.8583 28.6501 16.7667C28.8834 16.6833 28.8168 16.475 28.7251 16.4333C28.7251 16.4333 28.6251 16.3917 28.5084 16.525C28.4099 16.6413 28.3567 16.7893 28.3584 16.9417Z" fill="#64B4D1" stroke="#00247D" stroke-width="0.1" stroke-miterlimit="2.6"/>
<path d="M28.4667 16.775C28.4667 16.775 28.5167 16.6583 28.7334 16.6C28.7334 16.6 28.75 16.6 28.75 16.575C28.75 16.575 28.75 16.5583 28.7334 16.5667C28.7334 16.5667 28.4917 16.6167 28.425 16.7667V16.7917C28.425 16.7917 28.4584 16.7917 28.4667 16.775Z" fill="white"/>
<path d="M28.2083 17.0333C28.2083 17.0333 28.3249 17.075 28.5749 16.95C28.8249 16.825 28.9416 17.0417 28.9083 17.1417C28.9083 17.1417 28.8499 17.275 28.6583 17.2417C28.4888 17.2325 28.3286 17.1613 28.2083 17.0417V17.0333Z" fill="#64B4D1" stroke="#00247D" stroke-width="0.1" stroke-miterlimit="2.6"/>
<path d="M28.7999 17.1167C28.7999 17.1167 28.6916 17.2 28.4749 17.1167H28.4583V17.1417C28.4583 17.1417 28.6916 17.2417 28.8333 17.15C28.8333 17.15 28.8499 17.15 28.8333 17.125H28.7999V17.1167Z" fill="white"/>
<path d="M28.5833 16.225C28.5833 16.225 28.4583 16.2917 28.4833 16.4333" stroke="black" stroke-width="0.1" stroke-miterlimit="2.6"/>
<path d="M28.0166 16.25C28.0166 16.25 27.9666 16.4083 28.0166 16.5" stroke="black" stroke-width="0.1" stroke-miterlimit="10"/>
<path d="M33.5583 14.8C33.5583 14.8 33.6417 15.025 33.6083 15.2333C33.5833 15.4333 33.625 15.475 33.6917 15.5167C33.75 15.5417 33.8917 15.4833 33.9 15.3333C33.9 15.3333 34.0667 15.65 33.75 15.8583C33.75 15.8583 33.525 16 33.3333 15.825C33.2667 15.75 33.2333 15.575 33.275 15.4083C33.275 15.4083 33.325 15.1833 33.2333 14.95C33.2333 14.95 33.3667 15.0833 33.3333 15.3583C33.3333 15.3583 33.2667 15.8583 33.6333 15.825C33.6333 15.825 33.8833 15.825 33.8833 15.525C33.8833 15.525 33.7917 15.625 33.6833 15.5917C33.633 15.5797 33.5893 15.5487 33.5613 15.5052C33.5333 15.4617 33.5233 15.4091 33.5333 15.3583C33.5417 15.225 33.5833 15 33.5583 14.8ZM33.1667 15.5833C33.1667 15.5833 33.1333 15.9833 32.7833 16.075C32.7833 16.075 32.8333 16 32.7583 15.8C32.7583 15.8 32.675 15.7 32.675 15.525C32.675 15.525 32.575 15.6083 32.7 15.8417C32.7833 15.9833 32.7 16.1417 32.6917 16.15C32.6583 16.1583 33.2667 16.0667 33.1583 15.5917L33.1667 15.5833ZM32.7 15.2083C32.7 15.2083 32.6083 15.1083 32.6 14.8917C32.6 14.6667 32.5583 14.6083 32.525 14.5917C32.525 14.5917 32.5667 14.7833 32.5583 14.8917C32.5511 14.9764 32.5624 15.0617 32.5917 15.1417C32.5917 15.1417 32.3917 15.1667 32.2667 14.8917C32.1583 14.6167 32.0417 14.6417 31.9833 14.6417C31.9833 14.6417 32.05 14.65 32.1833 14.8917C32.3167 15.1417 32.3583 15.2 32.7 15.2V15.2083ZM31.8 14.625C31.8 14.625 31.9 14.8917 31.9167 15.025C31.9167 15.025 31.6583 14.9417 31.5833 14.7333C31.5833 14.7333 31.3167 14.8167 31.4167 15.125C31.4167 15.125 31.175 15.0417 31.0667 14.8583C31.0667 14.8583 31.2 14.9583 31.325 15C31.325 15 31.3083 14.7417 31.625 14.65C31.625 14.65 31.675 14.875 31.8417 14.925L31.8 14.625ZM32.2167 14.175C32.2167 14.175 32.3167 14.3 32.5 14.3C32.5514 14.3038 32.603 14.2944 32.6497 14.2725C32.6964 14.2506 32.7367 14.217 32.7667 14.175C32.7667 14.175 32.7583 14.3917 32.5 14.4C32.5 14.4 32.225 14.4 32.225 14.175H32.2167ZM31.1 15.7167L31.2667 15.875C31.2667 15.875 31.3667 15.975 31.4333 15.85C31.4333 15.85 31.5417 15.65 31.675 15.6667C31.675 15.6667 31.575 15.725 31.475 15.9167C31.475 15.9167 31.4583 15.975 31.375 15.9833C31.3333 15.9833 31.2917 16 31.225 15.925C31.225 15.925 31.1667 15.85 31.1 15.725V15.7167ZM32.4917 13.2667C32.225 13.2667 32.45 13.4667 32.45 13.4667C32.45 13.8 32.1917 13.9167 32.0083 13.8167C31.825 13.7167 31.975 13.4833 31.975 13.4833C31.975 13.4833 31.775 13.6083 31.8917 13.8083C32.025 14.0083 32.3667 13.9083 32.4917 13.7333C32.6167 13.9167 32.9667 14.0083 33.0833 13.8083C33.225 13.6083 33.0167 13.475 33.0167 13.475C33.0167 13.475 33.1667 13.7167 32.975 13.8083C32.8 13.9167 32.525 13.8083 32.5417 13.475C32.5417 13.475 32.7667 13.2667 32.5 13.2667H32.4917ZM32.6583 12.9C32.6583 12.9 32.7583 13.0667 32.7417 13.3167C32.7417 13.3167 32.8167 13.0666 32.6583 12.9083V12.9ZM31.825 13.2917C31.825 13.2917 31.8 13.1083 31.625 13.0917C31.625 13.0917 31.7833 13.2 31.825 13.2917ZM33.1583 13.2917C33.1583 13.2917 33.1833 13.1083 33.3667 13.0917C33.3667 13.0917 33.2167 13.2 33.1667 13.2917H33.1583ZM31.5583 13.5583C31.5583 13.5583 31.6917 13.6 31.775 13.5L31.5583 13.5583ZM31.1083 12.4667C31.1083 12.4667 31.2667 12.4583 31.425 12.6917C31.425 12.6917 31.2667 12.775 31.225 12.825C31.225 12.825 31.225 12.7417 31.3083 12.6833C31.3083 12.6833 31.275 12.5667 31.1083 12.475V12.4667ZM33.775 12.4667C33.775 12.4667 33.6083 12.4583 33.45 12.6917C33.45 12.6917 33.6167 12.775 33.65 12.825C33.65 12.825 33.65 12.7417 33.5667 12.6833C33.5667 12.6833 33.6 12.5667 33.775 12.475V12.4667ZM32.55 12.65C32.55 12.65 32.6917 12.6917 32.8667 12.5917C32.8667 12.5917 33.0833 12.475 33.225 12.5917C33.225 12.5917 33.1083 12.5333 32.8667 12.65C32.8667 12.65 32.6417 12.7833 32.55 12.65Z" fill="black"/>
<path d="M32.7 12.8C32.7 12.8 32.8166 12.5917 33.2 12.6333C33.2 12.6333 33.0916 12.9333 32.7 12.8Z" fill="white"/>
<path d="M32.95 12.825C32.9868 12.825 33.0166 12.784 33.0166 12.7333C33.0166 12.6827 32.9868 12.6417 32.95 12.6417C32.9131 12.6417 32.8833 12.6827 32.8833 12.7333C32.8833 12.784 32.9131 12.825 32.95 12.825Z" fill="#784421"/>
<path d="M32.9499 12.7917C32.9729 12.7917 32.9915 12.7655 32.9915 12.7333C32.9915 12.7011 32.9729 12.675 32.9499 12.675C32.9269 12.675 32.9082 12.7011 32.9082 12.7333C32.9082 12.7655 32.9269 12.7917 32.9499 12.7917Z" fill="black"/>
<path d="M31.9 12.3417C31.9 12.3417 32.1333 12.3667 32.2833 12.4417C32.2833 12.4417 32.4333 12.5417 32.6 12.4167C32.6 12.4167 32.7833 12.3 32.9083 12.1583C32.9083 12.1583 32.6167 12.35 32.5083 12.3833C32.5083 12.3833 32.4083 12.3 32.3833 12.1917C32.3833 12.1917 32.3833 12.1083 32.55 11.9667C32.55 11.9667 32.3417 12.0333 32.3 12.2083C32.3265 12.279 32.3661 12.344 32.4167 12.4C32.4167 12.4 32.3833 12.425 32.2833 12.35C32.2833 12.35 32.05 12.2833 31.9 12.35V12.3417ZM32.5 13.7583C32.3 13.9333 32.5 13.9167 32.5 13.9167C32.5 13.9167 32.7 13.9333 32.5 13.75V13.7583ZM32.3833 12.6583C32.3833 12.6583 32.2333 12.7 32.05 12.6C32.05 12.6 31.8333 12.4833 31.6917 12.6C31.6917 12.6 31.8167 12.5417 32.05 12.6583C32.05 12.6583 32.2917 12.7917 32.3833 12.6583Z" fill="black"/>
<path d="M32.2334 12.8C32.2334 12.8 32.1084 12.5917 31.7334 12.6333C31.7334 12.6333 31.8334 12.9333 32.2334 12.8Z" fill="white"/>
<path d="M31.9749 12.825C32.0117 12.825 32.0415 12.784 32.0415 12.7333C32.0415 12.6827 32.0117 12.6417 31.9749 12.6417C31.9381 12.6417 31.9082 12.6827 31.9082 12.7333C31.9082 12.784 31.9381 12.825 31.9749 12.825Z" fill="#784421"/>
<path d="M31.975 12.7917C31.998 12.7917 32.0167 12.7655 32.0167 12.7333C32.0167 12.7011 31.998 12.675 31.975 12.675C31.952 12.675 31.9333 12.7011 31.9333 12.7333C31.9333 12.7655 31.952 12.7917 31.975 12.7917Z" fill="black"/>
<path d="M39.6665 10.8833V24.35C39.6665 27.9417 32.4832 29.1167 32.4832 29.1167C32.4832 29.1167 25.2832 27.95 25.2832 24.35V10.8833H39.6749H39.6665Z" stroke="black" stroke-width="0.1"/>
<path d="M-7 0H19.6667V20H-7V0Z" fill="#000066"/>
<path d="M-3.875 0L6.29167 7.54167L16.4167 0H19.6667V2.58333L9.66667 10.0417L19.6667 17.4583V20H16.3333L6.33333 12.5417L-3.625 20H-7V17.5L2.95833 10.0833L-7 2.66667V0H-3.875Z" fill="white"/>
<path d="M10.6667 11.7083L19.6667 18.3333V20L8.375 11.7083H10.6667ZM3 12.5417L3.25 14L-4.75 20H-7L3 12.5417ZM19.6667 0V0.125L9.29167 7.95833L9.375 6.125L17.5833 0H19.6667ZM-7 0L2.95833 7.33333H0.458333L-7 1.75V0Z" fill="#C8102E"/>
<path d="M3.04167 0V20H9.70833V0H3.04167ZM-7 6.66667V13.3333H19.6667V6.66667H-7Z" fill="white"/>
<path d="M-7 8.04167V12.0417H19.6667V8.04167H-7ZM4.375 0V20H8.375V0H4.375Z" fill="#C8102E"/>
</g>
</g>
<defs>
<clipPath id="clip0_769_7414">
<path d="M0 20C0 8.95431 8.95431 0 20 0C31.0457 0 40 8.95431 40 20C40 31.0457 31.0457 40 20 40C8.95431 40 0 31.0457 0 20Z" fill="white"/>
</clipPath>
<clipPath id="clip1_769_7414">
<rect width="53.3333" height="40" fill="white" transform="translate(-7)"/>
</clipPath>
</defs>
</svg>
