<svg width="40" height="40" viewBox="0 0 40 40" fill="none" xmlns="http://www.w3.org/2000/svg">
<g clip-path="url(#clip0_769_8286)">
<path d="M0 20C0 8.95431 8.95431 0 20 0C31.0457 0 40 8.95431 40 20C40 31.0457 31.0457 40 20 40C8.95431 40 0 31.0457 0 20Z" fill="#E94E0F"/>
<g clip-path="url(#clip1_769_8286)">
<path d="M-6.9917 0H46.35V40H-6.9917V0Z" fill="#FFD520"/>
<path d="M-6.9917 40H46.35V0L-6.9917 40Z" fill="#FF4E12"/>
<path d="M21.7833 12.5C21.4499 12.3917 21.2333 12.5583 21.2499 12.9917C21.2499 13.4167 21.4833 13.6583 21.8166 13.5L21.7833 12.5Z" fill="white" stroke="black" stroke-width="0.0333333"/>
<path d="M22.0749 11.7C21.7999 11.4833 21.5416 11.575 21.4083 11.9833C21.2833 12.4 21.4166 12.7 21.7833 12.65L22.0749 11.7Z" fill="white" stroke="black" stroke-width="0.0333333"/>
<path d="M22.5334 10.9167C22.3 10.6667 22.0334 10.7167 21.8334 11.1C21.6417 11.4833 21.725 11.8083 22.1 11.825L22.5334 10.925V10.9167ZM22.2334 14.7083C21.825 14.8583 21.7834 15.4167 22.0417 15.7583C22.2917 16.1 22.7667 16.1667 23.025 15.7583L22.2334 14.7083Z" fill="white" stroke="black" stroke-width="0.0333333"/>
<path d="M21.7583 13.525C21.375 13.4 21.025 13.9167 20.9667 14.3833C20.8917 14.9667 20.05 15.1667 20.5167 16.0583C20.6167 15.4917 20.9917 15.175 21.2917 15.1583C21.5917 15.1333 22.0417 15.075 22.2333 14.7083L21.7583 13.525ZM22.9833 15.825C22.5333 15.9333 22.4667 16.5333 22.7917 16.9583C23.0667 17.325 23.9333 17.2417 23.9083 16.875L22.9917 15.825H22.9833ZM24.2583 19.4417C24.2833 19.05 23.6583 18.9 23.3583 18.975C23.0583 19.0583 22.4833 18.9667 22.3583 18.6417C22.2417 18.9 22.4 19.1833 22.8333 19.325C23.1667 19.425 23.1583 19.6583 23.0583 19.775C23.3083 19.8167 24.0333 19.8167 24.2583 19.4417Z" fill="white" stroke="black" stroke-width="0.0333333"/>
<path d="M23.9082 16.975C23.4666 16.775 23.2082 17.075 23.0416 17.3583C22.7916 17.775 22.0332 17.2417 21.7749 17.8C22.1249 17.65 22.4749 17.9667 22.6416 18.075C23.1166 18.3833 24.0249 18.2917 24.1582 17.5583L23.9082 16.975Z" fill="white" stroke="black" stroke-width="0.0333333"/>
<path d="M24.1666 17.4834C23.7249 17.8167 23.5499 18.2167 23.5666 18.4834C23.5749 18.75 23.9499 19.3417 24.3583 19.375C24.5916 18.8917 24.7166 17.875 24.1666 17.4834ZM22.3333 19.5584C22.3333 19.3917 22.5666 19.3334 22.7333 19.3917C22.8916 19.4417 23.1416 19.6 23.0499 19.775L22.3333 19.5584ZM19.9166 18.6667C19.8749 18.475 20.1833 18.1417 20.5999 18.325C21.0166 18.5084 21.0749 18.8584 20.8999 19L19.9166 18.6667Z" fill="white" stroke="black" stroke-width="0.0333333"/>
<path d="M20.9333 19.0333C20.8999 18.925 21.2083 18.7083 21.7166 18.8333C22.2333 18.9667 22.3583 19.3 22.3416 19.5583L20.9333 19.0333ZM19.8583 18.675C20.1333 18.475 20.0249 18.0917 19.7833 17.9667C19.3499 17.75 19.5083 17.2 19.2249 17.0917C18.9499 16.9833 18.6833 16.7917 18.6666 16.5917C18.5333 16.8667 18.6166 17.1083 18.8083 17.2833C18.9999 17.45 18.6583 18.15 18.9083 18.3333L19.8583 18.675ZM14.1083 18.525C13.8833 18.175 13.3499 18.2333 13.1249 18.4833C12.8999 18.7333 12.9333 19.0917 13.1416 19.2583L14.1083 18.525ZM15.3999 18C15.3166 17.525 14.7416 17.475 14.4333 17.5917C14.1166 17.7083 13.9083 18.1833 14.1083 18.525L15.3999 18Z" fill="white" stroke="black" stroke-width="0.0333333"/>
<path d="M16.25 17.9334C16.4583 17.5417 16.0583 16.95 15.6083 16.8667C15.2333 16.7834 14.7916 16.7917 14.6416 16.425C14.5583 16.7417 14.7916 16.95 15.075 17.1334C15.35 17.3167 15.025 17.7834 15.475 18.05L16.2583 17.9334H16.25Z" fill="white" stroke="black" stroke-width="0.0333333"/>
<path d="M16.2167 17.95C16.1167 17.6667 16.3083 17.2834 16.6917 17.3167C17.0833 17.3417 17.3 17.6167 17.1333 17.975L16.2167 17.95Z" fill="white" stroke="black" stroke-width="0.0333333"/>
<path d="M17.0751 17.975C17.0167 17.675 17.2584 17.325 17.6417 17.4083C18.0167 17.4917 18.1917 17.8 17.9751 18.1167L17.0751 17.9667V17.975Z" fill="white" stroke="black" stroke-width="0.0333333"/>
<path d="M17.9165 18.1084C17.8832 17.8084 18.1415 17.475 18.5165 17.575C18.8915 17.675 19.0499 17.9917 18.8165 18.3L17.9249 18.1084H17.9165ZM11.4499 23.025C10.7249 23.025 10.5499 23.1917 10.4499 23.9417C10.3165 24.8583 11.5749 24.9667 11.4499 23.025Z" fill="white" stroke="black" stroke-width="0.0333333"/>
<path d="M11.7667 22.0584C10.6667 21.6417 10.0667 23.3917 8.96673 23.075C9.3584 23.7 10.3084 23.075 10.6667 23.1417C11.2667 23.25 12.5667 23.025 11.7667 22.0584ZM11.0501 24.45C10.5001 24.2 9.91673 25.0334 10.0167 25.4084C10.1584 25.8667 11.4084 25.4917 11.0501 24.45ZM8.50006 28.0584C8.80006 28.1417 9.16673 28.3084 9.10006 28.8917C9.0334 29.475 7.9334 30.65 6.95006 30.725C5.96673 30.7834 5.61673 31.975 4.7584 31.6417C5.5584 31.4917 5.5584 30.5917 6.17507 30.3084C5.72506 30.1417 5.49173 31.1667 4.9084 31.1667C4.32506 31.1667 4.05006 32.0917 3.34173 32.025C2.6334 31.9667 2.56673 33.15 1.14173 33.1667C0.0583981 33.175 -1.27493 34.4417 -1.7666 33.8917C-0.708268 33.7417 -0.283268 33.1584 0.341732 32.5167C1.34173 31.4917 2.4834 31.95 2.87506 31.0417C2.42524 31.3452 1.89262 31.5024 1.35006 31.4917C0.683398 31.475 -0.0332686 32.5417 -0.774935 32.075C-0.349935 32.0167 -0.0666018 31.8334 0.383398 31.3584C0.841732 30.875 1.52506 31.1917 2.0584 30.6917C2.89173 29.925 3.61673 30.5667 4.41673 29.6084C4.19173 29.4917 3.7084 29.5667 3.2584 29.8084C2.8084 30.0417 2.2334 29.6417 1.71673 29.925C1.77506 29.2917 2.9834 29.65 3.7334 29.2167C4.5834 28.7167 5.2834 28.8667 5.95006 28.925C5.01673 28.925 4.6584 28.0334 3.36673 28.2917C2.8084 28.4084 2.3584 27.5167 1.80006 27.9667C1.81673 27.6334 2.40006 27.3667 3.00006 27.6917C3.60006 28.0167 3.84173 27.4084 5.04173 28.1667C5.54173 28.475 6.3834 27.9667 6.91673 28.3C6.85006 28.1 6.54173 27.9667 6.1834 28C6.4084 27.5334 7.86673 27.5917 8.50006 28.0584Z" fill="white" stroke="black" stroke-width="0.0333333"/>
<path d="M9.45003 27.3584C8.98337 26.9917 8.32503 27.4334 7.8667 27.2584C7.8667 27.5584 8.02503 28.0084 8.5167 28.1834C8.6667 28.075 9.35003 27.4834 9.45003 27.3584Z" fill="white" stroke="black" stroke-width="0.0333333"/>
<path d="M10.1917 26.3167C9.45003 25.9417 9.32503 26.875 8.7417 26.6834C8.7667 26.95 8.98337 27.2834 9.45003 27.3584L10.2 26.3167H10.1917Z" fill="white" stroke="black" stroke-width="0.0333333"/>
<path d="M10.6333 25.4667C9.54163 25.0417 9.39997 26.0917 8.7583 25.8834C8.9083 26.25 9.82497 26.45 10.3 26.3167L10.6333 25.4667ZM12.1333 20.8667C11.8416 20.45 11.2333 20.7834 11.1333 21.275C11.0416 21.7584 11.275 22.4334 11.6833 22.275L12.1333 20.8584V20.8667Z" fill="white" stroke="black" stroke-width="0.0333333"/>
<path d="M12.8751 19.5833C12.3751 19.4583 11.7918 19.5167 11.8584 20C11.6584 20.0917 11.6084 20.725 12.1334 20.8667L12.8751 19.575V19.5833Z" fill="white" stroke="black" stroke-width="0.0333333"/>
<path d="M13.2082 19.25C12.7082 18.6667 12.1666 18.675 11.8582 18.9167C11.2832 19.375 10.7332 19.1167 10.7166 19.5667C11.0582 19.3 11.3666 19.6167 11.6332 19.525C11.9166 19.425 12.1249 19.9667 12.8999 19.7417L13.2082 19.2417V19.25ZM12.0166 27.9083C12.0916 28.05 12.5499 28.1083 12.7749 27.875C13.0749 27.5583 12.7499 26.6917 12.2749 26.625C11.7999 26.5667 11.7582 27.6083 12.0166 27.9083Z" fill="white" stroke="black" stroke-width="0.0333333"/>
<path d="M11.4834 27.925C12.1501 28.175 12.4417 27.6167 12.0834 27.2583C11.8986 27.4938 11.6981 27.7165 11.4834 27.925Z" fill="white" stroke="black" stroke-width="0.0333333"/>
<path d="M8.95 28.85C8.81667 29.2417 8.15 29.3 7.4 30.5C6.65 31.7083 5.93333 31.2 5.75 32.025C6.65 31.3 7.35833 31.775 7.9 31.0583C8.70833 29.9667 9.38333 30.125 9.7 29.3917C10.15 28.3333 12.1167 28.3583 12.2333 26.7C11.5667 26.575 9.45833 28.3583 8.95 28.85ZM25.8833 12.625C26.7417 12.9083 26.7583 14.0167 27.75 14.3833C28.7333 14.75 28.8333 15.6333 29.6417 15.4167C28.8917 15.2083 28.9417 14.3417 28.1583 14.125C27.2417 13.875 26.8917 12.475 26.1583 12.2583L25.8833 12.625ZM29.825 18.45C29.975 18.8 29.95 19.4083 29.4083 19.5667C29.7 19.75 30.1333 19.5833 30.3667 19.1833C30.0167 19.9667 30.25 20.675 30.8083 20.8167C30.5417 20.2667 31.1417 20.0083 30.95 19.65C31.3 19.8083 31.6167 20.2917 31.6 20.5917C32.0667 20.075 31.2667 19.3833 31.4083 18.9L29.825 18.45ZM24.25 23.9667C23.725 23.5083 23.5 24.0917 23.25 23.8833C23 23.7 22.6833 23.675 22.5583 23.8583C23.0083 23.875 22.7917 24.225 23.6667 24.3083C22.7917 24.3667 22.95 25.35 22.3667 25.3C22.9833 25.8833 23.3083 24.775 23.8167 24.9583C23.6667 25 24.05 25.35 23.7833 25.825C24.2167 25.8167 24.3917 25.2167 24.45 24.9083L24.25 23.9667ZM12.6667 28.9833C12.4833 28.8167 11.9167 28.7417 11.7083 28.875C11.4917 29 11.5667 29.0417 11.825 29.0583C12.0833 29.075 12.4083 29.4917 11.8583 29.5167C11.6 29.525 11.6917 30.15 11.15 30.1917C11.3667 30.4583 12 30.2833 12.225 29.9917C12.1833 30.2333 12.5 30.45 12.375 30.7417C12.7667 30.7833 12.5417 29.9333 13.1667 29.975C12.9167 30.0083 13.0167 30.5917 13.4667 30.4417C13.2 30.5667 13.3417 30.8833 13.6333 30.8083C13.45 30.8667 13.3833 31.1167 13.65 31.2583C13.9083 30.9 13.6167 29.6333 12.675 28.9833H12.6667ZM36.05 17.1417C36.2547 17.157 36.4604 17.1299 36.6541 17.0621C36.8479 16.9943 37.0256 16.8873 37.176 16.7476C37.3265 16.608 37.4465 16.4388 37.5286 16.2507C37.6107 16.0625 37.6531 15.8595 37.6531 15.6542C37.6531 15.4489 37.6107 15.2458 37.5286 15.0577C37.4465 14.8695 37.3265 14.7004 37.176 14.5607C37.0256 14.4211 36.8479 14.314 36.6541 14.2462C36.4604 14.1784 36.2547 14.1513 36.05 14.1667C35.6747 14.1948 35.3239 14.3637 35.068 14.6396C34.812 14.9154 34.6698 15.2779 34.6698 15.6542C34.6698 16.0305 34.812 16.3929 35.068 16.6688C35.3239 16.9447 35.6747 17.1136 36.05 17.1417Z" fill="white" stroke="black" stroke-width="0.0333333"/>
<path d="M28.2833 18.9333C28.7416 18.5083 29.4249 18.2917 29.9 18.6167C30.3666 18.9333 31.9333 19.3167 32.7083 18.7833C33.4833 18.25 33.8499 17.9667 34.1916 18.0333C34.4416 18.4167 34.7583 18.6 35.1416 18.6334C35.2583 18.7667 35.6833 18.8667 35.9166 18.8417C36.2583 18.925 36.6749 18.8167 37.0083 18.45C37.5249 18.5333 38.0083 18.1417 38.1916 17.5583C38.7416 17.5 38.7749 16.8917 38.4249 16.475C38.1083 16.4167 38.35 15.325 37.1833 15.5417C37.6833 15.8417 37.2999 16.4417 37.7083 16.725C37.4333 16.725 37.0666 16.8417 36.9833 17.2584C37.0916 16.975 36.9666 16.775 36.9 16.7167C36.9 16.4667 36.3583 15.8584 35.8416 16.0833C36.2083 16.1667 36.0083 16.75 36.275 16.9834C36.1737 16.9875 36.0747 17.0143 35.9853 17.0619C35.8958 17.1095 35.8182 17.1767 35.7583 17.2584C35.6166 17.0084 35.125 16.7584 34.8249 16.7334C34.8249 16.65 34.8083 16.4833 34.7666 16.3917C34.6333 16.1333 34.5166 15.825 34.5749 15.4333C34.3312 15.7202 34.1293 16.04 33.975 16.3834C33.5666 16.1 32.5583 16.5083 32.0833 16.6167C31.6166 16.725 30.025 16.4667 29.6666 16.0833C29.1566 15.6757 28.5567 15.3957 27.9166 15.2667C27 15 27 14 25.9916 13.3083C25.9666 14.5583 27.8583 18.5083 28.2833 18.9333ZM17.7666 28.425C18.149 28.425 18.5157 28.2731 18.786 28.0028C19.0564 27.7324 19.2083 27.3657 19.2083 26.9833C19.2083 26.601 19.0564 26.2343 18.786 25.9639C18.5157 25.6936 18.149 25.5417 17.7666 25.5417C17.3843 25.5417 17.0176 25.6936 16.7472 25.9639C16.4768 26.2343 16.325 26.601 16.325 26.9833C16.325 27.3657 16.4768 27.7324 16.7472 28.0028C17.0176 28.2731 17.3843 28.425 17.7666 28.425Z" fill="white" stroke="black" stroke-width="0.0333333"/>
<path d="M14.3334 27.3167C14.625 27.6917 15.1167 27.6667 15.325 27.6417C15.4917 28.0917 16.0417 28.075 16.275 28.325C16.5167 28.575 17.3167 28.55 17.55 28.4084C17.3417 28.3917 17.0584 28.2584 16.8 28.0334C16.4667 27.7667 16.6167 27.2167 16.3667 27.0334C16.4454 26.9332 16.5023 26.8177 16.5339 26.6943C16.5654 26.5709 16.5709 26.4423 16.55 26.3167C16.75 26.2 16.9 26.0084 16.9167 25.9084C17.2157 25.8939 17.4995 25.7727 17.7167 25.5667C17.9 25.7334 18.3584 25.5167 18.6084 25.8C18.6584 25.0917 17.9834 24.7167 17.525 24.9584C17.35 24.8584 16.8667 24.925 16.775 25.05C16.6334 24.9834 16.2084 25.2 16.025 25.3417C16.2334 25.225 16.2667 24.8667 16.1834 24.7417C16.3667 24.6584 16.5667 24.4167 16.5917 24.2417C16.8417 24.2834 17.2334 24.1084 17.4 24.15C17.125 23.7834 16.6667 23.65 16.1917 23.6917C15.7 23.7167 15.4917 24.0584 15.425 24.425C15.1417 24.6 15.0417 25.175 15.15 25.3834C14.9834 25.3834 14.825 25.5417 14.7667 25.6334C14.5178 25.5309 14.2524 25.4744 13.9834 25.4667L14.3334 27.3167ZM14.0917 24.8834C13.9917 24.6 14.1167 24.35 14.1834 24.1334C14.35 23.5667 14.25 23.4167 13.7417 23.4917C13.7717 23.9732 13.8903 24.445 14.0917 24.8834Z" fill="white" stroke="black" stroke-width="0.0333333"/>
<path d="M13.7166 23.525C13.8499 23.6584 14.2999 23.7167 14.3499 23.3084C14.4082 22.8417 14.2166 22.6584 13.8082 22.8417C13.7749 22.95 13.7416 23.3834 13.7249 23.525H13.7166Z" fill="white" stroke="black" stroke-width="0.0333333"/>
<path d="M13.8167 22.825C13.9833 22.8917 14.3583 23.0333 14.5666 22.6333C14.7333 22.3 14.5083 22.05 14.15 22.0667C14.0667 22.1667 13.9 22.5083 13.8167 22.825Z" fill="white" stroke="black" stroke-width="0.0333333"/>
<path d="M14.1333 22.0333C14.175 22.1667 14.6166 22.5917 14.9333 22.2833C15.2583 21.975 15.2583 21.5083 14.775 21.3417C14.65 21.3583 14.2583 21.8083 14.1333 22.0333Z" fill="white" stroke="black" stroke-width="0.0333333"/>
<path d="M14.7749 21.3334C14.8666 21.6084 15.1749 22.0667 15.7332 21.8584C16.2916 21.6417 16.0499 20.9417 15.7916 20.8C15.4182 20.9068 15.0717 21.0914 14.7749 21.3417V21.3334Z" fill="white" stroke="black" stroke-width="0.0333333"/>
<path d="M15.7917 20.8C15.7501 21.0417 15.7917 21.6833 16.5584 21.675C17.3167 21.6583 17.1084 20.7667 16.9084 20.6417C16.6001 20.6417 16.0751 20.65 15.7917 20.8083V20.8Z" fill="white" stroke="black" stroke-width="0.0333333"/>
<path d="M16.9417 20.6667C16.8583 20.8584 16.6667 22.0584 18.1583 21.725C18.35 21.6834 18.85 20.575 16.9417 20.675V20.6667Z" fill="white" stroke="black" stroke-width="0.0333333"/>
<path d="M17.7584 20.7833C17.6084 20.9333 17.9918 22.1417 19.0084 21.9417C20.0084 21.7333 19.1668 20.5833 17.7584 20.775V20.7833Z" fill="white" stroke="black" stroke-width="0.0333333"/>
<path d="M18.6167 20.9667C18.45 21.3 18.7 22.2833 19.9417 22.2833C21.0667 22.2833 19.8834 20.9833 18.6167 20.9667Z" fill="white" stroke="black" stroke-width="0.0333333"/>
<path d="M19.5916 21.25C19.5082 21.4417 19.4166 22.4833 20.8832 22.575C21.9416 22.6417 21.6832 21.1333 19.5916 21.25Z" fill="white" stroke="black" stroke-width="0.0333333"/>
<path d="M21.1666 21.6917C20.9916 22.0167 20.7999 22.8167 22.4082 22.8833C23.4332 22.925 22.7999 21.7167 21.1749 21.6917H21.1666Z" fill="white" stroke="black" stroke-width="0.0333333"/>
<path d="M22.5083 21.9417C22.275 22.2583 22.45 22.8917 23.05 23.0083C23.8 23.1583 23.9083 22.45 23.3916 22.1083C22.875 21.775 22.5083 21.9417 22.5083 21.9417Z" fill="white" stroke="black" stroke-width="0.0333333"/>
<path d="M23.25 22.0833C23.075 22.3917 23.175 23.1167 24.3166 23.1167C24.55 23.1167 25.45 22.2 23.2416 22.0917L23.25 22.0833ZM14.425 36.0833C14.867 36.0833 15.2909 35.9078 15.6035 35.5952C15.916 35.2826 16.0916 34.8587 16.0916 34.4167C16.0916 33.9746 15.916 33.5507 15.6035 33.2382C15.2909 32.9256 14.867 32.75 14.425 32.75C13.9829 32.75 13.559 32.9256 13.2465 33.2382C12.9339 33.5507 12.7583 33.9746 12.7583 34.4167C12.7583 34.8587 12.9339 35.2826 13.2465 35.5952C13.559 35.9078 13.9829 36.0833 14.425 36.0833Z" fill="white" stroke="black" stroke-width="0.0333333"/>
<path d="M26.6748 11.8084C26.4949 12.0089 26.3435 12.2332 26.2248 12.475C25.6665 14.1417 27.1582 15.3917 28.0248 17.2C28.3814 18.0138 28.5257 18.9047 28.444 19.7894C28.3624 20.6741 28.0576 21.5236 27.5582 22.2584C27.1915 22.7417 27.2998 22.8834 26.8248 23.375C26.6415 23.5667 26.4415 23.8084 26.5082 24.4917C26.8082 24.3834 27.2332 24.6584 27.3165 24.9084C27.5332 24.7917 27.8332 24.8334 27.9415 24.9667C28.3082 24.8 28.6082 24.8834 28.9332 25.2167C29.2082 25.1834 29.5165 25.2167 29.7915 25.525C29.9415 25.225 30.2415 25.1084 30.4582 25.1834C30.4332 24.7917 30.8165 24.5167 31.1582 24.6667C31.1315 24.5567 31.1347 24.4415 31.1676 24.3332C31.2005 24.2248 31.2618 24.1273 31.3452 24.0507C31.4286 23.9742 31.531 23.9213 31.6417 23.8978C31.7525 23.8742 31.8675 23.8807 31.9748 23.9167C32.3665 23.6167 33.1415 23.5917 33.5248 24.0417C32.8332 23.85 32.8582 24.5834 32.2748 24.5167C32.4248 24.9417 32.0415 25.1917 31.6582 25.3334C31.9082 25.2167 32.1748 25.075 32.2582 25.225C32.4748 25.0334 32.8998 25.1084 33.0082 25.2C33.2915 25.1167 33.5665 25.1834 33.6915 25.525C34.0832 25.7584 34.3415 26.3584 34.0582 26.8084C33.9748 26.3417 33.6498 26.3584 33.5248 26.1667C33.2248 26.275 32.9248 26.275 32.8332 26.0834C32.6665 26.25 32.0832 26.4084 31.8332 26.15C31.7332 26.5334 31.3998 26.8584 31.0082 26.8584C31.1165 27.1584 30.8165 27.6667 30.5832 27.925C30.9498 28.1167 30.8332 28.55 30.7498 28.8084C31.3165 28.8917 30.8332 29.3917 31.8082 29.7084C31.3332 29.8584 30.4082 29.7084 30.2832 29.125C29.8082 29.1084 29.4915 28.6334 29.5082 28.1417C29.1415 27.8 29.0915 27.3084 29.5915 26.9584C29.1665 27.0917 28.9248 26.4 28.3082 26.6834C27.9998 26.825 27.1832 26.5834 27.1915 26.3C27.0665 26.5084 26.2748 26.425 26.1748 26.0584C25.9165 26.2 25.3165 25.9667 25.3248 25.6084C24.9915 25.7584 24.5415 25.4917 24.5665 25.15C24.2498 25.1084 24.2165 24.825 24.2332 24.5917C23.9582 24.4584 24.0332 24.1917 24.1498 23.875C23.9498 23.6584 24.0332 23.3584 24.1832 23.075C23.9748 22.8584 24.0165 22.6084 24.0748 22.3C23.0498 22.2167 21.7582 21.9667 18.7998 21.0584C14.3332 19.6834 13.1332 22.9084 14.1165 24.925C15.2582 27.2584 13.9915 27.7584 14.3748 29.4917C14.7915 29.575 14.9999 29.925 14.9748 30.2917C15.2248 30.3 15.3915 30.525 15.3082 30.9584C15.4214 30.9397 15.5373 30.9473 15.6471 30.9806C15.7569 31.0138 15.8576 31.0718 15.9415 31.15C16.0915 30.8667 16.5915 30.8 16.8415 31.125C17.3998 31.0834 17.6832 31.5417 17.6582 32.0917C17.7927 32.3438 17.8524 32.6292 17.8303 32.9141C17.8082 33.199 17.7051 33.4717 17.5332 33.7C17.5665 33.475 17.5332 33.1584 17.5248 32.9584C17.4998 32.6084 17.0082 32.5334 17.0582 32.2417C16.8082 32.2667 16.5582 32.125 16.4748 31.9334C16.4004 31.9976 16.3106 32.0413 16.2142 32.0603C16.1178 32.0793 16.018 32.0729 15.9248 32.0417C16.2082 32.1667 16.4415 32.6834 16.3498 33.025C16.4999 33.2834 16.4665 33.7584 16.2915 33.9584C16.2082 34.375 15.8748 34.525 15.4582 34.3417C15.6998 34.1917 15.7832 33.925 15.7748 33.7C15.6342 33.5595 15.5485 33.3732 15.5332 33.175C15.1165 33.2417 14.5332 32.8834 14.4332 32.7417C14.2136 32.7417 13.9962 32.7851 13.7934 32.8693C13.5907 32.9536 13.4066 33.0771 13.2517 33.2328C13.0968 33.3884 12.9742 33.5732 12.891 33.7763C12.8077 33.9795 12.7654 34.1971 12.7665 34.4167C12.7165 34.075 12.2832 33.7334 12.3415 33.4417C12.0832 32.65 12.4498 31.9084 13.4998 31.7584C13.3665 31.4584 13.8165 31.15 13.6498 30.8084C13.3152 30.1997 12.9035 29.6367 12.4248 29.1334C12.7915 28.5084 12.6748 27.675 12.4665 27.1584C12.1582 26.4167 11.8665 26.6 10.7748 27.8C8.99152 29.7584 6.60818 29.2167 4.50818 30.5084C3.94985 30.8417 3.39151 30.975 3.99151 30.375C4.59151 29.775 6.17485 29.175 7.20818 28.6584C9.14151 27.6917 10.7748 26.0834 11.4165 22.95C12.9248 15.5834 18.4999 18.0167 22.0165 19.3834C25.3249 20.675 24.7248 17.7584 23.0499 15.9917C21.0332 13.8834 21.4415 12.2167 22.3832 10.8834C24.0749 10.65 27.3332 11.2417 26.6748 11.8084Z" fill="white" stroke="black" stroke-width="0.0333333"/>
<path d="M32.6583 29.9C32.8996 29.9 33.1385 29.8525 33.3615 29.7601C33.5844 29.6678 33.787 29.5325 33.9576 29.3618C34.1282 29.1912 34.2636 28.9886 34.3559 28.7657C34.4483 28.5428 34.4958 28.3038 34.4958 28.0625C34.4958 27.8212 34.4483 27.5823 34.3559 27.3593C34.2636 27.1364 34.1282 26.9338 33.9576 26.7632C33.787 26.5926 33.5844 26.4572 33.3615 26.3649C33.1385 26.2725 32.8996 26.225 32.6583 26.225C32.1721 26.225 31.7057 26.4182 31.3619 26.762C31.0181 27.1058 30.825 27.5721 30.825 28.0584C30.825 28.5446 31.0181 29.0109 31.3619 29.3547C31.7057 29.6985 32.1721 29.8917 32.6583 29.8917V29.9Z" fill="white" stroke="black" stroke-width="0.0333333"/>
<path d="M25.65 11.8917C25.2333 13.7 25.5833 14.5167 26.1833 15.3084C27.425 16.95 28.4166 20.6917 27 23.1417" stroke="black" stroke-width="0.0333333"/>
<path d="M25.9165 14C25.9832 13.9667 26.1915 13.9 26.1665 13.75M27.7915 21.025C27.9582 20.9667 28.2915 20.7584 28.3582 20.4084L27.7915 21.025ZM27.9248 20.2417C27.9748 19.9334 28.4582 19.8 28.4665 19.4667L27.9248 20.2417ZM27.9332 19.0334C27.8998 18.7084 28.4165 18.4167 28.3415 18.1L27.9332 19.0334ZM27.6498 17.875C27.6082 17.6917 28.0832 17.35 27.9498 17.0584L27.6498 17.875ZM27.2998 16.7417C27.1998 16.5417 27.5248 16.3084 27.3832 16.0917L27.2998 16.7417ZM26.7832 15.8417C26.7498 15.7084 26.9498 15.4 26.8415 15.2167L26.7832 15.8417ZM26.2665 14.7834C26.3082 14.725 26.4832 14.6 26.4165 14.4417L26.2665 14.7834Z" stroke="black" stroke-width="0.0333333" stroke-linecap="round"/>
<path d="M36.6249 15.3834C36.3165 15.3917 36.0582 15.1 36.0749 14.8584C36.0749 15.0417 36.4915 15.125 36.6249 15.0084M15.1665 34.2417C14.7499 34.0917 14.2082 34.3 14.0999 34.6667L15.1665 34.2417ZM14.4249 35C14.4749 34.6334 15.0332 34.475 15.1999 34.6417C14.8499 34.45 14.6749 35.1417 14.9915 35.1584L14.4249 35ZM17.8749 26.5084C17.6249 26.6417 17.5415 27.1084 17.8749 27.4667V26.5084ZM18.2582 26.6167C18.0832 26.7667 18.0915 27.2167 18.3582 27.325C18.1332 27.1584 18.3582 26.8834 18.5249 26.875C18.6832 26.8667 18.7915 27.0584 18.5915 27.25L18.2582 26.6167ZM33.3415 27.6834C32.7415 27.5167 32.2582 28.2167 32.8082 28.8417C32.7915 28.2417 33.2249 27.8417 33.7499 27.95L33.3415 27.6834ZM33.4999 28.3667C33.4402 28.3667 33.383 28.3904 33.3408 28.4326C33.2986 28.4748 33.2749 28.532 33.2749 28.5917C33.2749 28.7084 33.3749 28.825 33.5415 28.825C33.6499 28.825 33.7415 28.7 33.7415 28.6L33.4999 28.3667ZM35.6249 15.1834C35.7249 15.55 36.2249 15.7084 36.6249 15.6167L35.6249 15.1834Z" stroke="black" stroke-width="0.0333333" stroke-linecap="round" stroke-linejoin="round"/>
<path d="M36.9916 17.2584C36.95 17.4232 36.8635 17.5732 36.7416 17.6917M15.3249 27.6417C15.2416 27.425 15.5749 27.2084 15.5916 27.0084C15.5999 26.8 15.9749 26.6417 16.3666 27.025L15.3249 27.6417ZM16.1832 24.7417L15.9749 24.8417L16.1832 24.7417ZM16.9249 25.9084C16.8332 25.9084 16.6416 25.9084 16.5416 25.8334L16.9249 25.9084ZM16.5416 26.3167C16.4749 26.3584 16.3082 26.4167 16.2082 26.4417L16.5416 26.3167ZM12.8666 32.8C12.8499 32.9917 13.0499 33.275 13.1499 33.3584L12.8666 32.8ZM13.6999 32.3417C13.6408 32.4348 13.6008 32.5388 13.5822 32.6475C13.5636 32.7562 13.5668 32.8675 13.5916 32.975L13.6999 32.3417ZM15.2999 32.975C15.1082 32.85 15.2332 32.525 15.2166 32.3084C15.1916 32.0917 15.4416 31.75 15.9249 32.0417L15.2999 32.975ZM13.4999 31.75C13.6916 31.7167 13.8916 31.725 14.0249 31.7834L13.4999 31.75ZM15.9416 31.1417C15.8745 31.2408 15.8343 31.3557 15.8249 31.475L15.9416 31.1417ZM16.8499 31.1167C16.6999 31.1167 16.5666 31.225 16.4999 31.3334L16.8499 31.1167ZM14.7666 25.625C14.9332 25.6834 15.3832 25.9584 15.3999 26.2417L14.7666 25.625ZM16.5916 24.225C16.0666 24.2167 15.8582 23.6834 16.2582 23.6834L16.5916 24.225ZM17.5332 24.95C17.3332 25.0334 17.4249 25.3834 17.7166 25.5584L17.5332 24.95ZM16.2749 28.3167C16.1749 28.1834 16.3082 27.8167 16.6416 27.925L16.2749 28.3167ZM17.0582 32.2334C17.0832 31.9 17.4916 31.7167 17.6582 32.0834L17.0582 32.2334ZM15.5332 33.1667C15.5082 32.8084 15.6999 32.6917 15.8499 32.6667C16.0166 32.65 16.2416 32.7834 16.3499 33.0167L15.5332 33.1667ZM12.3416 33.4334C12.3582 33.2167 12.5416 32.9917 12.7332 33.025L12.3416 33.4334ZM31.9832 23.9084C31.8416 24.0084 31.7499 24.4667 32.2749 24.5084L31.9832 23.9084ZM31.1666 24.6667C31.1666 24.7167 31.2332 24.7917 31.2749 24.8334L31.1666 24.6667ZM33.6915 25.525C33.5582 25.4167 33.1915 25.8584 33.5249 26.1667L33.6915 25.525ZM30.2749 29.1334C30.1999 28.825 30.4832 28.7417 30.7582 28.8084L30.2749 29.1334ZM29.5916 26.9584C29.7582 26.8584 29.9249 26.7334 30.1249 26.6834L29.5916 26.9584ZM29.5082 28.1417C29.5082 27.8917 29.6416 27.6667 29.7582 27.6084L29.5082 28.1417ZM30.4582 25.1834C30.4457 25.4533 30.5154 25.7206 30.6582 25.95L30.4582 25.1834ZM33.0082 25.2C32.8499 25.25 32.7166 25.3084 32.6582 25.4417L33.0082 25.2ZM32.8332 26.0834C32.9166 26.0167 32.9999 25.9417 33.0332 25.8917L32.8332 26.0834ZM36.8916 16.7084C36.8916 17.0084 36.5166 17.175 36.2666 16.9834L36.8916 16.7084ZM37.7082 16.725C37.8749 16.85 38.4499 16.725 38.3165 16.3917L37.7082 16.725ZM36.9999 18.45C36.844 18.4043 36.7031 18.3181 36.5915 18.2L36.9999 18.45ZM38.1832 17.5584C37.9916 17.6 37.8582 17.5584 37.7666 17.5167L38.1832 17.5584ZM35.1332 18.6334C35.3208 18.6253 35.5049 18.5799 35.6749 18.5L35.1332 18.6334ZM34.8332 16.7334C34.6916 16.7167 34.5832 16.7417 34.5082 16.8L34.8332 16.7334Z" stroke="black" stroke-width="0.0333333" stroke-linecap="round"/>
<path d="M35.7582 17.2584C35.6679 17.3979 35.6162 17.559 35.6083 17.725M34.4583 17.7334C34.7249 17.6167 35.0583 18.525 35.7083 18.2084L34.4583 17.7334Z" stroke="black" stroke-width="0.0333333" stroke-linecap="round" stroke-linejoin="round"/>
<path d="M23.425 15.6C23.7917 16.05 24.35 16.325 24.875 15.5667M22.9167 15.8667C23 15.85 23.1583 15.825 23.1917 15.7167L22.9167 15.8667ZM11.875 25.8584C12.2 26.0417 12.425 26.35 12.2917 26.8084L11.875 25.8584ZM26.6333 14.875C26.7333 14.9417 27.0917 14.9417 27.3 14.875H26.6333ZM27.55 15.0917C27.55 15.2417 27.5917 15.8084 27.3 15.925L27.55 15.0917ZM27.4083 15.8584C27.675 15.9417 28.2083 15.9084 28.3833 15.4167L27.4083 15.8584ZM28.0083 15.8334C28.15 16.05 28.1917 16.4667 27.775 16.6917L28.0083 15.8334ZM28.1083 16.1917C28.425 16.2917 29.1417 16.3084 29.0667 15.6917L28.1083 16.1917ZM28.8167 16.1917C29.0417 16.4834 29.9833 16.8417 29.8333 16.2167L28.8167 16.1917ZM27.9583 17.05C28.3167 17.1417 28.8333 16.8917 28.625 16.25L27.9583 17.05ZM29.65 16.575C29.7 16.825 30.9 17.075 30.7417 16.5167L29.65 16.575ZM30.5167 16.8417C30.7417 17.3584 31.9333 17.3167 31.5583 16.625L30.5167 16.8417ZM31.3667 17.1667C31.6 17.45 32.6583 17.2834 32.2333 16.5834L31.3667 17.1667ZM32.225 17.15C32.8833 17.65 33.6417 16.9417 32.8083 16.425L32.225 17.15ZM33.1917 16.9917C33.775 17.45 34.4833 16.6167 33.975 16.3834L33.1917 16.9917ZM28.6083 16.8C28.7917 16.85 29.175 16.8334 29.2667 16.5L28.6083 16.8ZM29.1167 16.725C29.1 17.2084 29.9167 17.3917 30.125 16.8334L29.1167 16.725ZM29.85 17.1417C30 17.4667 30.725 17.5917 30.8417 17.1334L29.85 17.1417ZM30.725 17.35C30.8417 17.6667 31.4667 17.6334 31.6417 17.3L30.725 17.35ZM31.4083 17.5167C31.6 17.9334 32.4 17.9334 32.575 17.325L31.4083 17.5167ZM32.4417 17.5917C32.75 17.7834 33.4167 17.7084 33.3583 17.1084L32.4417 17.5917ZM33.2333 17.5417C33.7 17.9167 34.35 17.55 34.025 16.9167L33.2333 17.5417ZM34 18.0334C34.25 17.9917 34.375 17.5 34.1167 17.3667L34 18.0334ZM28.2833 18.1167C28.7833 17.8417 28.8917 17.3667 28.5333 16.9084L28.2833 18.1167ZM28.7167 17.65C29.0417 17.8417 29.65 17.6334 29.7583 17.1667L28.7167 17.65ZM29.1583 17.7C29.3417 17.9334 29.375 18.225 29.1333 18.4917L29.1583 17.7ZM29.3 18C29.875 17.65 30.5833 18.3 30.05 18.7L29.3 18ZM29.9667 17.9667C30.0917 17.9334 30.3167 17.7 30.3333 17.4334L29.9667 17.9667ZM30.2167 18.2167C30.4583 17.9667 32.0667 18.4667 31.05 18.9917L30.2167 18.2167ZM30.9667 17.5417C31.2833 17.6584 31.4417 18.1 30.9667 18.25V17.5417ZM31.3833 18.6167C31.7167 18.2584 32.8 18.4834 32.4083 18.9334L31.3833 18.6167ZM32.15 18.475C32.3417 17.8167 33.4917 18.225 33.1167 18.4917L32.15 18.475ZM31.9167 17.825C31.95 17.95 31.9583 18.2667 31.75 18.4417L31.9167 17.825ZM32.8833 17.6917C32.9066 17.7655 32.9127 17.8437 32.9011 17.9202C32.8896 17.9968 32.8607 18.0697 32.8167 18.1334L32.8833 17.6917ZM33.6083 17.7C33.675 17.8167 33.775 18.0417 33.5417 18.225L33.6083 17.7ZM24.425 12.7667C24.4333 13.375 24.65 13.7834 25.475 13.4L24.425 12.7667ZM24.6833 13.4917C24.2667 14.0417 24.7333 14.6334 25.5417 14.0417L24.6833 13.4917ZM23.4167 13.75C23.975 14.35 24.975 13.9167 24.3333 13L23.4167 13.75ZM25 14.2667C24.9 14.8584 25.3833 14.975 25.775 14.7084L25 14.2667ZM22.925 13.85C23.025 14.4417 23.6333 14.9084 24.225 14.55L22.925 13.85ZM23.65 14.6667C23.65 15.5167 24.8167 15.6084 25.0917 14.7334L23.65 14.6667ZM24.675 15.2667C25.05 16.0417 25.8667 15.725 26.1333 15.2584L24.675 15.2667ZM23.85 14.0334C24 14.4084 24.3 14.825 24.9917 14.5167L23.85 14.0334ZM21.7 13.85C21.8 14.1584 22.3583 14.5334 23 14.1L21.7 13.85ZM22.1 14.25C21.75 14.75 22.4333 15.225 23.2667 14.475L22.1 14.25ZM22.5083 14.8667C22.6417 15.575 22.925 16.15 23.925 15.2334L22.5083 14.8667Z" stroke="black" stroke-width="0.0333333"/>
<path d="M24.7583 20.6584C24.5 21.3834 24.7417 21.6417 25.325 21.65M25.275 15.7334C25.2417 16.275 25.3417 16.5417 25.7667 16.5167C26.1 16.5 26.4083 16.2417 26.5917 15.9584L25.275 15.7334ZM25.6917 16.5167C25.675 17.1334 26.1583 17.6167 27.0667 16.9917L25.6917 16.5167ZM26.0667 17.2417C25.9 17.7 26.4083 18.45 27.4167 18.0667L26.0667 17.2417ZM23.925 16.0167C23.8667 16.6 24.4083 17 25.2917 16.2417L23.925 16.0167ZM24.3583 16.6667C24.3917 17.15 24.9417 17.7334 25.7417 16.8917L24.3583 16.6667ZM24.7417 17.2834C24.6833 18.1084 25.4417 18.3417 26.0833 17.7084L24.7417 17.2834ZM23.6 16.6667C23.7667 16.6834 23.9083 16.5334 23.9917 16.4167L23.6 16.6667ZM23.9583 17.2667C24.1083 17.3 24.375 17.1667 24.4583 16.9917L23.9583 17.2667ZM24.3417 18.2417C24.5083 18.4334 25.0917 18.3 25.1667 18.05L24.3417 18.2417ZM24.9833 18.2334C25.3 18.9834 26.1583 18.9584 26.5167 18.1084L24.9833 18.2334ZM26.35 18.4084C26.5167 18.85 26.925 19.125 27.5917 18.975L26.35 18.4084ZM26.675 18.8584C26.3 19.4667 26.7917 20.1917 27.6333 19.4834L26.675 18.8584ZM26.8833 19.775C26.8417 20.1584 27.1917 20.6 27.675 20.65L26.8833 19.775ZM25.2917 18.65C25.1667 19.5167 25.7917 19.9334 26.5667 19.4667L25.2917 18.65ZM24.3833 19.0667C24.5833 19.225 24.95 19.2417 25.3 19.1167L24.3833 19.0667ZM25.7167 19.6167C25.5167 20.35 26.2667 20.875 26.9083 20.0584L25.7167 19.6167ZM24.6667 19.1834C24.6833 19.5584 25.0417 19.9667 25.675 19.85L24.6667 19.1834ZM27.45 20.6C27.0167 20.8834 26.9333 21.4 27.5333 21.7334L27.45 20.6ZM26.4 20.45C26.4167 20.8834 26.625 21.1334 27.1083 21.175L26.4 20.45ZM25.7667 20.225C25.1167 20.8084 25.75 21.5 26.5167 20.9167L25.7667 20.225ZM26.2167 21.1C26 21.775 26.8 22.1834 27.2333 21.5L26.2167 21.1ZM24.8833 19.6667C24.65 20.3334 24.95 20.7667 25.5 20.725L24.8833 19.6667ZM24.0333 19.5334C24.0667 19.9334 24.4083 20.075 24.8 19.9834L24.0333 19.5334ZM24.2833 19.95C23.9917 20.5084 24.4333 20.8084 25.0167 20.6L24.2833 19.95ZM26.7667 21.85C26.6833 22.2 26.7333 22.45 27.2583 22.575L26.7667 21.85ZM26.8083 22.35C26.175 22.6334 26.1167 23.25 26.6083 23.6417L26.8083 22.35ZM26.2917 21.6667C26.2159 21.733 26.157 21.8164 26.1199 21.91C26.0828 22.0036 26.0685 22.1047 26.0783 22.2049C26.0881 22.3051 26.1216 22.4015 26.1761 22.4862C26.2306 22.5709 26.3045 22.6413 26.3917 22.6917L26.2917 21.6667ZM23.475 19.7084C23.1167 20.0667 23.4583 21.0584 24.2667 20.5167L23.475 19.7084ZM25.575 20.9584C25.075 21.375 25.3 22.1084 26.1167 21.9084L25.575 20.9584Z" stroke="black" stroke-width="0.0333333"/>
<path d="M22.075 21.15C21.5583 21.1667 21.325 21.425 21.325 21.775M22.9416 19.675C22.8617 19.7298 22.7944 19.801 22.7441 19.8837C22.6938 19.9665 22.6617 20.059 22.6499 20.1552C22.6381 20.2513 22.6468 20.3489 22.6756 20.4414C22.7043 20.5339 22.7524 20.6192 22.8166 20.6917C23.0083 20.9084 23.375 20.8084 23.4833 20.5334L22.9416 19.675ZM22.0166 19.3834C21.525 20.0167 22.0166 20.7667 22.7166 20.55L22.0166 19.3834ZM24.6583 21.2667C24.1583 21.4417 23.7666 21.9 24.075 22.3084C24.2666 22.5417 25.0583 22.575 25.2833 21.6584L24.6583 21.2667ZM23.75 20.675C23.4583 21.0917 23.55 21.4917 24.0833 21.6917L23.75 20.675ZM23.7166 21.4584C23.4 21.625 23.2 21.8334 23.275 22.2084L23.7166 21.4584ZM23.0166 20.8C22.9 21.3 23.0416 21.6167 23.35 21.7667L23.0166 20.8ZM23.0083 21.4C22.525 21.3667 22.275 21.5667 22.4416 22.05L23.0083 21.4ZM22.4833 21.5167C22.0083 21.35 21.9333 20.9334 22.1416 20.5167L22.4833 21.5167Z" stroke="black" stroke-width="0.0333333"/>
<path d="M17.8999 19.8C17.2832 19.7167 17.1915 20.4334 17.3999 20.7584M21.3749 19.1417C20.9999 19.3 20.8749 19.8084 21.0165 20.0834C21.1582 20.3584 21.5999 20.3834 21.8665 20.2L21.3749 19.1417ZM20.3332 18.7417C19.9915 19.125 20.3832 19.8834 20.9999 19.7L20.3332 18.7417ZM19.4499 18.4417C19.1332 18.8917 19.4832 19.6417 20.3082 19.425L19.4499 18.4417ZM20.3499 21.5167C20.2665 20.9834 20.8249 20.6334 21.5165 21.325L20.3499 21.5167ZM21.1832 20.2417C21.085 20.3299 21.009 20.44 20.9612 20.5631C20.9135 20.6861 20.8953 20.8187 20.9082 20.95L21.1832 20.2417ZM18.5749 18.1834C18.2165 18.7834 18.6499 19.3334 19.4082 19.1167L18.5749 18.1834ZM20.5582 19.675C20.0582 20.175 20.2249 20.6834 20.5999 20.975L20.5582 19.675ZM20.2332 20.2667C19.4749 20.275 19.4332 21.1584 20.0499 21.4334L20.2332 20.2667ZM19.6582 19.3834C19.3415 19.6 19.2415 20.1917 19.7832 20.425L19.6582 19.3834ZM19.6332 20.7084C19.3082 20.5584 18.9249 20.7417 18.9582 21.1167L19.6332 20.7084ZM19.1499 20.7167C18.8582 20.0334 18.0165 20.15 18.0915 20.8584L19.1499 20.7167ZM19.3832 19.8667C19.2082 19.9 18.8415 20.0084 18.6999 20.2834L19.3832 19.8667ZM18.7499 19.0917C18.6828 19.1609 18.634 19.2455 18.6076 19.3382C18.5813 19.4308 18.5783 19.5286 18.599 19.6226C18.6196 19.7167 18.6632 19.8042 18.7259 19.8773C18.7886 19.9505 18.8684 20.0069 18.9582 20.0417L18.7499 19.0917ZM17.7249 18C17.6582 18.4667 17.8415 18.6917 18.4249 18.65L17.7249 18ZM17.9249 18.5917C17.7082 19.15 18.0082 19.4 18.5915 19.3667L17.9249 18.5917ZM18.0582 19.2834C17.7165 19.6917 17.9499 20.125 18.2832 20.3084L18.0582 19.2834Z" stroke="black" stroke-width="0.0333333"/>
<path d="M17.15 19.0084C16.8334 19.4834 17.1167 19.8417 17.45 19.975M17.4084 17.9584C17.0334 18.125 16.8167 18.5917 17.0167 18.875C17.225 19.1667 17.6334 19.075 17.85 18.925L17.4084 17.9584Z" stroke="black" stroke-width="0.0333333"/>
<path d="M13.8749 22.8167C13.3916 22.675 13.3749 22.1 13.8083 21.8834M15.9416 17.9C15.6916 18.1584 15.8499 18.6834 16.4416 18.7C16.9333 18.7 17.1749 18.25 17.0249 17.925L15.9416 17.9ZM16.3583 18.7C16.1666 19.125 16.2916 19.5917 17.0249 19.5167L16.3583 18.7ZM17.3249 20.1834C16.8833 19.9834 16.2749 20.1834 16.5333 20.725L17.3249 20.1834ZM16.4749 19.425C16.2916 19.6834 16.3499 20.05 16.5583 20.275L16.4749 19.425ZM16.4416 20.1084C16.1416 20.1667 15.8499 20.325 16.0249 20.8L16.4416 20.1084ZM15.9833 20.4167C15.5999 20.3 15.1083 20.5834 15.3999 20.975L15.9833 20.4167ZM15.3416 20.6C15.0083 20.5417 14.6166 20.9 14.9333 21.25L15.3416 20.6ZM14.8083 20.9584C14.5083 21.0417 14.1499 21.375 14.4666 21.65L14.8083 20.9584ZM16.3249 19.275C15.8916 19.4667 15.8499 19.95 16.0499 20.3084L16.3249 19.275ZM15.8666 18.3917C15.2249 18.6417 15.2333 19.4917 15.9499 19.7584L15.8666 18.3917ZM15.6416 19.5667C15.2583 19.7917 15.1833 20.225 15.4416 20.5L15.6416 19.5667ZM14.9666 18.0667C14.7166 18.15 14.7333 18.9417 15.4166 18.925L14.9666 18.0667ZM14.2583 18.3334C13.7416 18.675 14.3666 19.5417 15.1999 18.9167L14.2583 18.3334ZM14.7416 19.1417C14.6666 19.4917 14.7666 19.875 15.3333 19.925L14.7416 19.1417ZM14.7749 19.6084C14.3666 19.7584 14.2916 20.6 15.0249 20.6667L14.7749 19.6084ZM13.4749 18.85C12.9499 19.3334 13.9083 19.75 14.2583 19.05L13.4749 18.85ZM12.7499 19.65C12.4916 19.9667 13.3916 20.7834 13.7916 19.4167L12.7499 19.65ZM13.8833 19.3917C13.9083 19.725 14.0999 19.9084 14.4916 19.9334L13.8833 19.3917ZM14.4916 20.2417C13.8499 20.3417 13.6499 21.1334 14.3583 21.3084L14.4916 20.2417ZM13.3166 20.1417C13.2916 20.4334 13.6083 20.6834 13.9583 20.6334L13.3166 20.1417ZM14.2833 21.2834C13.6999 21.4167 13.6249 22.1667 14.1416 22.1167L14.2833 21.2834Z" stroke="black" stroke-width="0.0333333"/>
<path d="M14.9667 30.2834C14.7833 30.3 14.5917 30.425 14.725 30.825C14.825 31.1 15.2333 31.1084 15.3 30.95M13.475 22.3167C13.0667 22.5667 13.225 23.15 13.4417 23.2334C13.6583 23.3167 13.8333 23.2167 13.8583 23.0334L13.475 22.3167ZM13.8167 23.8667C13.8667 24.1417 12.825 24.0334 13.3583 23.1667L13.8167 23.8667ZM13.3583 23.9084C13.0083 24.4584 13.575 24.9084 13.9333 24.4334L13.3583 23.9084ZM13.4 24.5667C13.2583 25.0084 13.7917 25.325 14.1333 24.9834L13.4 24.5667ZM12.25 20.45C12.0583 20.8417 13.025 20.9917 13.0833 20.175L12.25 20.45ZM11.9833 21.0334C11.7917 21.8084 13.25 21.65 12.875 20.65L11.9833 21.0334ZM12.9083 21.1667C13.0053 21.2121 13.1115 21.2341 13.2185 21.2309C13.3255 21.2277 13.4302 21.1994 13.5243 21.1484C13.6183 21.0973 13.6991 21.0248 13.76 20.9368C13.8209 20.8488 13.8603 20.7477 13.875 20.6417L12.9083 21.1667ZM13.4333 21.1917C13.4598 21.3011 13.5081 21.4041 13.5754 21.4943C13.6427 21.5845 13.7276 21.6602 13.825 21.7167L13.4333 21.1917ZM12.7333 21.3917C12.6667 21.8084 13.0917 22.1584 13.5667 22.125L12.7333 21.3917ZM12.8083 21.8C12.575 22.125 12.5 22.7417 13.2417 22.7834L12.8083 21.8ZM11.6667 21.9167C11.55 22.25 12.25 22.5917 12.65 22.0417L11.6667 21.9167ZM11.45 22.7667C11.3917 23.0167 12.0167 23.35 12.3667 22.2834L11.45 22.7667ZM12.0917 22.825C12.2417 23.0917 12.75 23.3084 13.0583 22.7834L12.0917 22.825ZM12.5583 23.1084C12.425 23.4834 12.7833 23.8334 13.2083 23.7334L12.5583 23.1084ZM11.75 23.025C11.6667 23.5584 12.2917 23.8667 12.6667 23.5917L11.75 23.025ZM11.3417 23.2584C11.1583 23.9417 12.0417 24.2 12.375 23.6834L11.3417 23.2584ZM12.15 23.8917C12.1833 24.275 12.7833 24.6084 13.25 24.2917L12.15 23.8917ZM11.075 24.2084C11.0333 24.3834 11.75 24.5584 11.8583 23.9584L11.075 24.2084ZM11.4917 24.3667C11.6583 24.8 12.2417 24.9084 12.575 24.3667H11.4917ZM12.3833 24.5834C12.4667 25 12.9833 25.225 13.45 24.9417L12.3833 24.5834ZM13.6417 25.1084C13.525 25.65 14.0917 26.0917 14.4417 25.7917L13.6417 25.1084ZM12.725 25.0084C12.5583 25.6084 13.3083 25.95 13.725 25.6167L12.725 25.0084ZM11.825 24.7C11.7833 25.2667 12.225 25.6 12.725 25.35L11.825 24.7ZM10.8667 24.7667C10.7167 25.125 11.5167 25.425 11.8917 25.1167L10.8667 24.7667ZM10.375 25.7584C10.5833 25.9917 11.2917 25.7584 11.35 25.2334L10.375 25.7584ZM11.1583 25.6167C11.4167 25.9167 12.0333 26.0834 12.275 25.4334L11.1583 25.6167ZM12.0583 25.7667C12.0583 26.2334 12.875 26.5667 13.1417 25.7167L12.0583 25.7667ZM14.1167 25.8834C14.0333 26.1084 14.2167 26.4667 14.5917 26.5084L14.1167 25.8834ZM13.4333 25.7417C13.3833 25.9917 13.7583 26.3584 14.1583 26.2167L13.4333 25.7417ZM14.2333 26.325C14.125 26.6 14.2167 27 14.5917 26.9917L14.2333 26.325ZM14.2667 26.8417C13.9833 27.075 14.1 27.5 14.5083 27.5084L14.2667 26.8417ZM14.125 27.2417C13.725 27.5084 13.8667 28.1 14.3917 28.0667L14.125 27.2417ZM12.9167 26.0834C12.9167 26.6667 13.6417 26.75 13.775 26.2167L12.9167 26.0834ZM13.5 26.55C13.3917 26.9 13.6667 27.2334 14.1083 27.1334L13.5 26.55ZM13.5833 30.7C13.6833 30.8417 14.0833 30.6 13.975 30.3667C13.8667 30.1334 13.4417 30.2584 13.4917 30.5084L13.5833 30.7ZM13.875 30.2667C13.925 29.8 13.375 29.725 13.2333 30.1334L13.875 30.2667ZM13.4333 29.8917C13.575 29.6584 13.1 29.3334 12.9083 29.6834L13.4333 29.8917ZM13.075 29.5417C13.2083 29.2 12.675 29.0417 12.6333 29.3584L13.075 29.5417ZM12.5083 28.9084C12.575 28.7417 13.175 28.8417 12.925 29.2L12.5083 28.9084ZM13.3833 29.625C13.6167 29.4084 13.2167 28.975 12.9667 29.125L13.3833 29.625Z" stroke="black" stroke-width="0.0333333"/>
<path d="M10.5916 26.4584C10.5666 26.675 10.675 27.0417 11.225 26.8834M14.7083 30.4917C14.525 30.3667 14.125 30.575 14.3083 30.9584C14.4416 31.25 14.7916 31.125 14.8416 30.975L14.7083 30.4917ZM13.675 31.0417C13.775 31.2084 14.225 31.125 14.3083 30.9584L13.675 31.0417ZM13.9916 30.5084C14.0916 30.4417 14.2666 30.525 14.3 30.6084L13.9916 30.5084ZM13.9666 27.8584C13.65 28.0667 13.8416 28.6917 14.325 28.525L13.9666 27.8584ZM13.8583 28.3667C13.6083 28.5584 13.8416 29.1667 14.3 28.9334L13.8583 28.3667ZM13.9416 28.9334C13.7666 29.1084 13.9333 29.5834 14.375 29.4917L13.9416 28.9334ZM13.875 29.175C13.775 29.1334 13.525 29.1584 13.4166 29.325L13.875 29.175ZM13.5916 26.9917C13.3583 27.225 13.475 27.6834 13.9083 27.725L13.5916 26.9917ZM13.5083 27.475C13.175 27.6417 13.175 28.3084 13.8416 28.3334L13.5083 27.475ZM13.4833 28.225C13.2916 28.375 13.3833 28.9584 13.8666 28.8834L13.4833 28.225ZM13.6333 28.8584C13.5666 28.9334 13.55 29.1084 13.6166 29.1834L13.6333 28.8584ZM13.425 28.6417C13.2583 28.6417 13.025 28.7667 12.9666 28.95L13.425 28.6417ZM12.6583 28.325C12.7166 28.1584 13.25 28.1584 13.2916 28.6667L12.6583 28.325ZM13.3416 28.0667C13.2666 28.0834 13.125 28.15 13.0916 28.3L13.3416 28.0667ZM13.1083 26.4917C12.8833 26.7084 12.775 27.3667 13.4666 27.4917L13.1083 26.4917ZM12.6416 27.8584C12.6416 27.6834 13.125 27.525 13.2916 27.7917L12.6416 27.8584ZM12.3333 26.9C12.4 27.0334 12.7333 27.2167 12.9333 27.0667L12.3333 26.9ZM10.6 25.85C10.5967 25.9271 10.6105 26.004 10.6404 26.0752C10.6702 26.1464 10.7154 26.2101 10.7727 26.2618C10.83 26.3136 10.898 26.352 10.9718 26.3745C11.0457 26.3969 11.1236 26.4028 11.2 26.3917C11.5583 26.35 11.6333 26.0417 11.525 25.8334L10.6 25.85ZM11.2583 26.4084C11.0166 26.6917 11.3083 27.1 11.575 26.9834L11.2583 26.4084ZM11.525 26.2C11.6666 26.15 12.125 26.0834 12.2666 26.3L11.525 26.2ZM10.0333 26.2834C9.92496 26.45 10.5916 26.6084 10.8166 26.3L10.0333 26.2834Z" stroke="black" stroke-width="0.0333333"/>
<path d="M9.89172 26.5C9.72505 26.7834 10.35 27.2917 10.7084 26.8167M11.3167 27.2167C11.4 27.0334 11 26.7334 10.6834 27.0667C10.375 27.4 10.7334 27.775 10.9251 27.65L11.3167 27.2167Z" stroke="black" stroke-width="0.0333333"/>
<path d="M9.47489 26.9834C9.24989 27.2167 9.53322 27.6417 9.86655 27.5084C10.2082 27.3834 10.1749 27.025 10.0916 26.9334" stroke="black" stroke-width="0.0333333"/>
<path d="M14.225 31.3334C14.425 31.4834 14.7667 31.3084 14.7667 31.0834M9.04168 27.4167C8.85835 27.5834 9.04168 27.9667 9.29168 27.9667C9.54168 27.9667 9.70001 27.775 9.65001 27.5167L9.04168 27.4167ZM10.0667 27.3834C10.0333 27.6334 10.4 27.8 10.6417 27.5667L10.0667 27.3834ZM10.6417 27.1167C10.6833 27.0667 10.6583 26.975 10.6 26.925L10.6417 27.1167ZM8.65001 27.7417C8.44168 27.9084 8.90001 28.375 9.17501 27.95L8.65001 27.7417ZM10.2667 27.6584C10.1333 27.7834 10.35 28.1167 10.5667 28.0167L10.2667 27.6584ZM9.53335 27.8917C9.56668 28.1167 10.0167 28.2917 10.3 27.9417L9.53335 27.8917ZM9.77501 28.1167C9.70835 28.2667 9.85001 28.4917 10.025 28.4667L9.77501 28.1167ZM14.05 29.45C13.8833 29.775 14.4167 30.1584 14.8 29.7584L14.05 29.45ZM14.4333 29.9334C14.35 30.1084 14.45 30.3584 14.6 30.45L14.4333 29.9334ZM13.9333 30.3084C13.9667 30.1417 14.2 29.9917 14.4083 30.0667L13.9333 30.3084ZM13.6583 29.8834C13.6833 29.7334 13.875 29.5917 14.025 29.6334L13.6583 29.8834ZM26.2917 23.1834C25.525 23.1917 25.85 24.4167 26.5083 24.175L26.2917 23.1834ZM26.0417 24.0917C25.8917 24.3334 26.1833 24.725 26.5083 24.4917L26.0417 24.0917ZM26.425 24.5417C26.1917 24.9167 27 25.4917 27.325 24.9L26.425 24.5417ZM27.0667 25.125C27.0667 25.4834 28.1083 25.7084 27.9583 25L27.0667 25.125ZM27.8583 25.3834C28.1083 25.8 29.025 25.8417 28.9333 25.2167L27.8583 25.3834ZM28.725 25.65C28.9167 25.9334 29.825 26.1 29.7917 25.525L28.725 25.65ZM25.0667 22.125C25.1917 22.4584 25.6333 22.575 26.1167 22.375L25.0667 22.125ZM24.7833 22.3584C25.0917 22.55 24.65 23.4334 24.1917 23.075L24.7833 22.3584ZM24.7917 22.9084C25.125 23.0667 25.5333 22.95 25.65 22.475L24.7917 22.9084ZM25.4417 22.8417C25.475 23.0917 25.8333 23.2834 26.2917 23.1834L25.4417 22.8417ZM24.6167 23.1C25.05 23.4667 24.425 24.2167 24.1417 23.875L24.6167 23.1ZM24.775 23.375C24.9833 23.525 25.5083 23.4417 25.5583 23.0417L24.775 23.375ZM25.325 23.375C25.3667 23.6334 25.575 23.7334 25.8583 23.7417L25.325 23.375ZM24.6583 23.7334C24.875 24.0334 25.4083 24.1167 25.65 23.725L24.6583 23.7334ZM25.4083 23.95C25.3917 24.2334 25.7083 24.475 26.0417 24.4084L25.4083 23.95ZM24.25 24.5834C24.525 24.725 24.8333 24.1917 24.5917 23.8334L24.25 24.5834ZM24.575 25.1417C24.9083 25.1584 24.95 24.6584 24.6333 24.375L24.575 25.1417ZM25.3333 25.6C25.6167 25.5334 25.525 24.925 24.85 24.875L25.3333 25.6ZM26.1833 26.05C26.45 25.975 26.2333 25.3 25.4917 25.3417L26.1833 26.05ZM27.2 26.2917C27.3833 26.0084 26.7833 25.5417 26.2833 25.7917L27.2 26.2917ZM27.7 26.675C28.0333 26.775 28.2667 25.8917 27.2083 26.0334L27.7 26.675ZM28.3167 26.675C28.6083 26.5917 28.8167 26.075 27.9667 26.2417L28.3167 26.675ZM28.9667 26.7167C29.2167 26.85 29.3333 26.0917 28.55 26.3L28.9667 26.7167ZM24.6333 24.3834C24.9583 24.5584 25.4667 24.35 25.4167 23.9417L24.6333 24.3834ZM25.2917 24.2917C25.4 24.4834 25.3583 24.8584 25.15 24.9584L25.2917 24.2917ZM25.3167 24.7417C25.5333 24.825 25.825 24.75 26 24.4084L25.3167 24.7417ZM25.7 24.7417C25.7583 24.8917 25.7833 25.1917 25.6417 25.3417L25.7 24.7417ZM25.75 25C25.9917 25.1334 26.2667 24.9584 26.3833 24.7084L25.75 25ZM26.2333 24.925C26.4 25.0334 26.5583 25.5334 26.2667 25.7417L26.2333 24.925ZM26.4333 25.5084C26.6333 25.5084 26.9333 25.5084 27.125 25.2584L26.4333 25.5084ZM26.9833 25.4C27.1667 25.45 27.3833 25.75 27.3083 26.0167L26.9833 25.4ZM27.3167 25.925C27.525 25.9 27.875 25.7584 27.975 25.5084L27.3167 25.925ZM27.875 25.675C27.9674 25.7295 28.0419 25.8098 28.0893 25.906C28.1367 26.0022 28.1549 26.1102 28.1417 26.2167L27.875 25.675ZM28.1417 26.0417C28.35 26.0334 28.5333 25.925 28.5833 25.7L28.1417 26.0417ZM28.5333 25.85C28.6833 25.9 28.8667 26.075 28.875 26.275L28.5333 25.85ZM28.85 26.15C29 26.125 29.1083 26.0334 29.2083 25.8834L28.85 26.15ZM29.6167 25.8584C29.8083 26.05 29.55 26.6917 29.15 26.575L29.6167 25.8584ZM25.4917 12.85C25.1 13.0917 23.9667 13.0167 24.525 12.0834L25.4917 12.85ZM25.6083 12.2167C24.8167 12.5334 23.8583 11.925 24.8583 11.275L25.6083 12.2167ZM24.5917 11.0584C23.9417 11.0584 23.5 12.1084 24.375 12.475L24.5917 11.0584ZM22.05 11.5C21.8833 11.8334 22.4917 12.2 22.9083 11.8667C23.2333 11.6084 23.2083 10.9084 23.0167 10.6417L22.05 11.5ZM21.7167 12.2917C21.5 13 23.0833 13.0417 22.8333 11.9167L21.7167 12.2917ZM21.6333 13.35C21.6833 13.8834 23.1417 13.7084 22.675 12.625L21.6333 13.35ZM22.8417 12.325C22.9583 12.4917 23.2833 12.7667 23.8333 12.7084L22.8417 12.325ZM23.0833 11.5834C23.1333 11.775 23.4583 11.9167 23.875 11.775L23.0833 11.5834ZM8.45001 27.9C8.07501 28.1584 8.65001 28.575 8.85835 28.1167L8.45001 27.9ZM8.15835 28.1C7.79168 28.3667 8.35835 28.7834 8.56668 28.325L8.15835 28.1ZM7.85001 28.3C7.48335 28.5667 8.05001 28.975 8.26668 28.525L7.85001 28.3ZM7.53335 28.4834C7.17501 28.675 7.59168 29.1334 7.95001 28.7334L7.53335 28.4834ZM7.18335 28.6584C6.82501 28.85 7.24168 29.3084 7.60001 28.9084L7.18335 28.6584ZM8.98335 28.1084C8.97501 28.3834 9.49168 28.4917 9.68335 28.0834L8.98335 28.1084ZM9.30835 28.3584C9.14168 28.5667 9.44168 28.8167 9.60001 28.725L9.30835 28.3584ZM8.61668 28.325C8.60001 28.5584 9.05001 28.6917 9.26668 28.4334L8.61668 28.325ZM8.85835 28.5667C8.71668 28.75 9.00001 29.0084 9.19168 28.9334L8.85835 28.5667ZM8.31668 28.5334C8.33335 28.7167 8.59168 28.925 8.86668 28.8084L8.31668 28.5334ZM8.48335 28.7834C8.37501 28.875 8.42501 29.1 8.57501 29.175L8.48335 28.7834ZM7.92501 28.7584C7.88335 28.925 8.16668 29.225 8.45835 29.0334L7.92501 28.7584ZM7.98335 28.95C7.81668 29.0917 7.83335 29.2917 8.05001 29.325L7.98335 28.95ZM7.56668 28.9334C7.55001 29.05 7.69168 29.2334 7.87501 29.2084L7.56668 28.9334ZM6.65001 28.925C6.48335 29.0167 6.91668 29.4834 7.19168 29.05L6.65001 28.925ZM6.22501 29.1167C6.00835 29.2167 6.54168 29.7334 6.78335 29.2084L6.22501 29.1167ZM7.61668 29.1C7.45001 29.1334 7.34168 29.375 7.48335 29.475L7.61668 29.1ZM7.06668 29.1834C7.05001 29.2834 7.25835 29.4334 7.42501 29.3834L7.06668 29.1834ZM6.93335 29.225C6.76668 29.325 6.85835 29.6084 7.05001 29.5667L6.93335 29.225ZM6.35835 29.4167C6.20835 29.525 6.31668 29.75 6.52501 29.7L6.35835 29.4167ZM6.63335 29.4C6.63335 29.4584 6.77501 29.55 6.88335 29.5084L6.63335 29.4ZM5.84168 29.3C5.65001 29.3834 5.66668 29.85 6.30001 29.6L5.84168 29.3ZM5.41668 29.4917C5.15001 29.6167 5.24168 29.975 5.81668 29.6334L5.41668 29.4917ZM5.85835 29.6584C5.79168 29.7167 5.71668 29.95 5.98335 29.8584L5.85835 29.6584ZM5.38335 29.775C5.27501 29.8667 5.34168 30.0667 5.57501 29.9917L5.38335 29.775ZM4.82501 29.8084C4.63335 29.9167 5.05835 30.0667 5.34168 29.7667L4.82501 29.8084ZM4.95835 29.9417C4.87501 30.025 4.87501 30.2834 5.09168 30.1917L4.95835 29.9417ZM4.40835 30.05C4.28335 30.1417 4.49168 30.275 4.90835 30.0917L4.40835 30.05ZM4.57501 30.1834C4.41668 30.3084 4.43335 30.4667 4.65835 30.4167L4.57501 30.1834ZM4.12501 30.25C3.95835 30.4084 4.20001 30.5084 4.49168 30.3834L4.12501 30.25ZM4.12501 30.425C3.84168 30.55 3.96668 30.7917 4.14168 30.7L4.12501 30.425ZM13.625 31.2417C13.5583 31.3834 13.775 31.5 13.9833 31.4667C14.175 31.4417 14.3667 31.275 14.2167 31.05L13.625 31.2417Z" stroke="black" stroke-width="0.0333333"/>
<path d="M26.0667 8.58337C25.2084 8.1667 23.4251 7.3667 22.9167 8.00837C23.3834 7.8167 24.7334 8.0167 25.8501 9.05003L26.0667 8.5917V8.58337Z" fill="white" stroke="black" stroke-width="0.0333333"/>
<path d="M26.5834 8.54172C25.5918 7.38339 25.0001 7.64172 24.2918 7.25006C23.6251 6.87506 22.5584 6.80006 22.3501 7.39172C23.3251 6.91672 24.2251 7.64172 24.7834 7.74172C25.5334 7.85839 25.9668 8.45006 26.1918 8.71672L26.5834 8.55006V8.54172ZM30.3251 8.39172C29.8084 7.21672 28.7084 7.52506 28.2251 7.02506C27.5168 6.29172 25.7251 5.60839 24.9751 6.11672C26.6084 6.03339 27.3084 7.24172 28.1751 7.66672C28.8001 7.96672 29.4668 8.60839 30.3251 8.39172Z" fill="white" stroke="black" stroke-width="0.0333333"/>
<path d="M28.3918 8.26671C27.5168 7.17505 26.1585 6.20838 25.5418 6.56671C26.3585 6.61671 26.6168 7.18338 27.1918 7.55005C27.7752 7.90838 27.5168 8.44171 28.3918 8.26671ZM24.2085 10.2C23.2918 9.85838 21.4835 9.68338 20.6418 10.7334C22.0418 10.975 24.1418 10.8417 24.2085 10.2Z" fill="white" stroke="black" stroke-width="0.0333333"/>
<path d="M24.0334 10.6084C23.1167 10.175 22.3917 10.775 21.5251 10.6917C19.8751 10.525 18.6917 10.625 18.5417 11.425C19.4834 10.575 21.0751 11.275 21.7167 11.1C22.3584 10.9334 24.7417 11.075 25.4917 11.4C25.1084 10.925 24.5084 10.8 24.0334 10.6084ZM26.9334 8.15003C26.7167 7.4417 26.7334 6.69169 27.7917 6.74169C27.5251 6.40836 26.5417 6.2417 26.3751 7.48336C25.2084 6.62503 23.9251 6.47503 23.6917 7.21669C24.2917 6.70003 25.2251 7.07503 26.3417 8.34169C26.5277 8.24709 26.7273 8.1824 26.9334 8.15003Z" fill="white" stroke="black" stroke-width="0.0333333"/>
<path d="M25.325 9.12505C24.6583 8.69172 23.7583 8.00005 25.3333 7.71672C24.6666 7.35839 23.6666 7.51672 23.775 8.75839C21.975 8.03339 20.6833 8.27505 20.4083 9.00005C20.1083 9.79172 21.225 10.2334 21.4166 9.72505C21.2166 9.80839 20.5166 9.57505 20.8833 9.12505C21.25 8.67505 23.1166 9.01672 24.8916 9.94172C25.3916 10.1917 27.0833 10.1584 25.325 9.12505Z" fill="white" stroke="black" stroke-width="0.0333333"/>
<path d="M24.8502 10.3084C24.3419 9.25837 22.6752 10.2084 22.3419 9.19171C21.8752 10.6834 24.7086 9.85837 24.8502 10.3084ZM35.4419 11.4417C35.7919 11.6167 36.0919 11.3417 35.5586 11.1334C35.9086 11.3 36.2169 11.0417 35.6836 10.825C36.0336 10.9917 36.3336 10.7334 35.8002 10.5167C35.6586 10.6584 35.4586 11.1834 35.4419 11.4417ZM35.6252 9.42504C36.4002 8.60837 35.5669 8.33337 36.5086 7.49171C37.2836 6.80837 36.6586 6.35004 37.3836 5.82504C37.6252 5.65004 38.1336 5.30837 38.1836 4.95837C38.4919 5.73337 37.2169 5.84171 37.3002 7.08337C37.3586 7.87504 36.8169 7.80837 36.6169 9.15004C36.5752 9.42504 36.3752 10.05 35.6252 9.42504Z" fill="white" stroke="black" stroke-width="0.0333333"/>
<path d="M35.9668 9.79171C36.4001 8.87504 36.8918 8.88337 37.1335 8.52504C37.5835 7.83337 38.5335 8.64171 39.3418 8.02504C39.2001 8.90004 38.1168 8.59171 37.6418 9.15004C37.1751 9.70837 36.7835 9.95837 35.9751 9.79171H35.9668Z" fill="white" stroke="black" stroke-width="0.0333333"/>
<path d="M36.0833 10.0917C36.8333 9.49171 37.3833 9.89171 37.9 9.57505C39.2083 8.78338 39.7333 9.74171 40.9 9.35838C40.6 10.1084 38.8667 9.46671 38.1167 10.025C37.3667 10.5834 34.725 11.125 36.075 10.0917H36.0833ZM33.8917 14.375C33.875 14.0334 33.5583 13.5917 33.1083 13.5417C32.6583 13.4834 32.4583 13.0084 32.1167 12.9917C31.775 12.9667 31.55 12.2834 31.075 12.2917C30.6083 12.3 30.4083 12.9167 31.5167 13.475C32.625 14.0334 33.85 14.675 33.8917 14.375ZM32.4917 14.6667C32.025 14.6834 31.9583 15.375 31.5083 15.3917C32.125 15.725 32.5833 15.2417 32.9 14.8084L32.5 14.6667H32.4917Z" fill="white" stroke="black" stroke-width="0.0333333"/>
<path d="M32.8835 14.75C32.4668 15.0917 32.3501 15.8084 32.9418 16.0167C32.5918 15.525 33.5668 15.3084 33.2668 14.85L32.8835 14.75Z" fill="white" stroke="black" stroke-width="0.0333333"/>
<path d="M33.2833 14.775C32.9666 15.3917 33.7916 15.4667 33.5749 15.9417C34.0499 15.8334 34.1249 14.9417 33.6916 14.7084L33.2833 14.7667V14.775Z" fill="white" stroke="black" stroke-width="0.0333333"/>
<path d="M30.1333 13.4417C30.9083 13.4 31.6083 13.8167 32.0833 14.4917C32.3833 14.9167 33.3916 15.0917 33.7416 14.7417C34.075 14.4084 33.8916 13.675 33.0333 13.9084C32.8166 13.55 32.2 13.675 31.8916 13.375C31.5916 13.075 30.4333 12.2167 30.1333 13.4417Z" fill="white" stroke="black" stroke-width="0.0333333"/>
<path d="M33.0334 13.9167C32.8251 13.9584 32.7584 14.3084 32.8917 14.4917L33.0334 13.9167ZM33.4751 14.125C33.5334 14.2334 33.4917 14.3834 33.4584 14.4584L33.4751 14.125ZM31.3584 13.475C31.7501 13.4917 31.8251 13.7834 32.2584 13.8917L31.3584 13.475Z" fill="white"/>
<path d="M31.3584 13.475C31.7501 13.4917 31.8251 13.7834 32.2584 13.8917M33.0334 13.9167C32.8251 13.9584 32.7584 14.3084 32.8917 14.4917L33.0334 13.9167ZM33.4751 14.125C33.5334 14.2334 33.4917 14.3834 33.4584 14.4584L33.4751 14.125Z" stroke="black" stroke-width="0.0333333" stroke-linecap="round"/>
<path d="M31.0917 12.5C32.1743 12.7116 33.2267 13.0559 34.2251 13.525C34.9001 13.9084 35.9501 14.025 36.8584 13.7584C37.7751 13.5084 39.5417 13.2667 39.4501 14.4084C39.9334 13.8334 39.3251 13.225 38.1001 13.1167C38.1251 12.5584 37.5251 12.0584 37.1001 12.3917C37.4917 12.3334 37.8334 13.075 37.0501 13.375C37.0853 13.2459 37.0827 13.1094 37.0426 12.9816C37.0026 12.8539 36.9268 12.7403 36.8242 12.6544C36.7216 12.5684 36.5964 12.5137 36.4637 12.4967C36.3309 12.4797 36.196 12.5011 36.0751 12.5584C36.4417 12.6667 36.8251 13.2917 35.9917 13.525C35.4667 13.675 34.7084 13.4834 34.1417 13.1417C33.5751 12.8 30.3917 11.5584 31.0917 12.4917V12.5Z" fill="white" stroke="black" stroke-width="0.0333333"/>
<path d="M34.5501 11.9417C34.1251 12.1334 34.4001 12.5834 33.7417 12.8417C33.0751 13.0917 32.6084 13.6834 32.7584 14.1917C33.2084 13.2 34.0084 13.25 34.2834 12.8584C34.5667 12.475 34.9751 11.9084 34.5501 11.9417Z" fill="white" stroke="black" stroke-width="0.0333333"/>
<path d="M34.6667 12C34.6501 12.7834 34.0334 12.5 34.2751 13.6C34.3501 13.9417 34.4917 14.5 34.2501 15.0584C34.9417 14.5584 34.5001 13.5 34.8084 13.1C34.9584 12.9 35.1584 12.6 35.2251 12.35C35.0667 12.7917 35.0834 13.6334 35.5167 13.85C35.1667 13.0167 36.4751 12.325 35.5751 11.35C35.4417 11.6 35.0334 12.0167 34.6751 12H34.6667ZM32.4834 11.2167C32.5917 11.3834 32.7001 11.7834 32.6001 12.0167C32.8167 11.8834 33.1251 11.55 33.2251 11.325C33.6667 11.3917 33.8334 11.9334 33.4167 12.175C33.6667 12.175 34.1167 12.175 34.3584 11.8834C34.0584 11.55 33.1251 11.0334 32.4834 11.2167Z" fill="white" stroke="black" stroke-width="0.0333333"/>
<path d="M25.8085 9.67504C25.6922 9.58518 25.5542 9.52768 25.4085 9.50837C24.7585 9.37504 25.1002 8.79171 25.6502 8.80004C26.8335 7.50837 27.4918 8.50004 28.9335 8.10004C29.4335 7.95004 29.7835 7.99171 30.0502 8.11671C30.7002 7.68337 31.4502 7.80004 32.0002 8.30837C32.0556 8.21279 32.1447 8.14143 32.2502 8.10837C32.7585 7.96671 33.1668 8.39171 33.3085 8.95004C33.7002 8.88337 34.1502 9.07504 34.4502 9.34171C34.8585 9.13337 35.1335 9.12504 35.2418 9.34171C35.6085 9.17504 36.0752 9.05837 36.3168 9.64171C36.5585 10.225 35.7585 10.05 35.6252 11.275C35.5418 12.025 34.7085 12.325 34.0418 11.875C32.9752 11.15 31.9335 11.0417 31.4168 12.125C30.9085 13.225 30.5002 13.8584 29.2502 13.5C28.9906 13.4411 28.7194 13.4612 28.4714 13.5578C28.2234 13.6543 28.0099 13.8228 27.8585 14.0417C27.4918 14.5417 26.9418 14.075 26.2752 14.125C27.1085 14 26.7835 13.7917 27.5168 13.7417C28.1835 13.7 28.0085 13.075 28.4335 12.9917C26.7668 13.4167 26.8252 12.7917 25.4502 13.225C26.0502 12.45 27.0002 12.8834 27.4668 12.4334C26.2252 12.4084 25.6668 11.6 25.1085 11.9334C24.2335 12.475 24.6085 14 22.3168 13.8667C21.2002 13.8084 20.4918 13.95 19.8335 14.6167C20.9918 12.2167 22.5668 13.5334 23.3335 12.775C23.7313 12.4172 24.0764 12.0047 24.3585 11.55C24.3914 11.4841 24.4383 11.4261 24.4958 11.38C24.5534 11.334 24.6203 11.301 24.6918 11.2834C22.7835 10.6834 23.9418 9.74171 25.8085 9.67504Z" fill="white" stroke="black" stroke-width="0.0333333"/>
<path d="M35.2418 9.33337C35.2668 9.40004 35.2835 9.48337 35.2835 9.58337C35.2835 10.05 34.5752 10.0667 34.5335 10.7667C34.5085 11.1334 34.4668 11.3334 34.2252 11.2917C33.9752 11.25 33.7585 10.8667 33.9918 10.4167" fill="white"/>
<path d="M35.2418 9.33337C35.2668 9.40004 35.2835 9.48337 35.2835 9.58337C35.2835 10.05 34.5752 10.0667 34.5335 10.7667C34.5085 11.1334 34.4668 11.3334 34.2252 11.2917C33.9752 11.25 33.7585 10.8667 33.9918 10.4167" stroke="black" stroke-width="0.0333333" stroke-linecap="round"/>
<path d="M26.1668 8.97503C26.0166 8.86514 25.8362 8.80405 25.6501 8.80003L26.1668 8.97503ZM30.0501 8.10837C30.6168 8.35837 30.8918 8.9417 31.7168 8.97503C32.5168 9.00003 33.0085 10.1584 34.3418 9.40003C34.3749 9.38278 34.4082 9.36611 34.4418 9.35003L30.0501 8.10837ZM32.0001 8.30837C31.8856 8.51659 31.8446 8.75728 31.8835 8.9917L32.0001 8.30837ZM29.4001 10.7417C28.4001 10.7417 28.1335 11.25 28.1335 11.7417C28.1335 12.2417 28.6085 12.8834 29.4418 12.8834C30.2751 12.8834 30.7335 12.3667 30.7335 11.8084C30.7335 11.25 30.2168 10.7334 29.4001 10.7334V10.7417Z" fill="white" stroke="black" stroke-width="0.0333333"/>
<path d="M29.5834 12.8584C29.5667 12.5834 29.0584 12.625 29.0834 12.4084C29.1001 12.1917 29.3584 12.1084 29.3584 11.8084C29.3584 11.5084 29.8084 11.4834 29.9584 11.725C30.1084 11.9584 30.5584 12.4167 30.6584 12.1834L29.5834 12.8584ZM29.9584 11.725C29.8207 11.8717 29.7414 12.0635 29.7352 12.2646C29.7291 12.4656 29.7966 12.662 29.9251 12.8167L29.9584 11.725ZM30.2834 12.0834C30.2001 12.25 30.1834 12.5 30.2751 12.65L30.2834 12.0834Z" fill="white"/>
<path d="M30.2834 12.0834C30.2001 12.25 30.1834 12.5 30.2751 12.65M29.5834 12.8584C29.5667 12.5834 29.0584 12.625 29.0834 12.4084C29.1001 12.1917 29.3584 12.1084 29.3584 11.8084C29.3584 11.5084 29.8084 11.4834 29.9584 11.725C30.1084 11.9584 30.5584 12.4167 30.6584 12.1834L29.5834 12.8584ZM29.9584 11.725C29.8207 11.8717 29.7414 12.0635 29.7352 12.2646C29.7291 12.4656 29.7966 12.662 29.9251 12.8167L29.9584 11.725Z" stroke="black" stroke-width="0.0333333"/>
<path d="M33.3168 8.95838C33.0501 8.60838 32.4168 8.49171 32.4001 9.22504M34.2918 11.3C35.0835 11.3667 35.2085 10.4917 34.6251 10.4417L34.2918 11.3Z" stroke="black" stroke-width="0.0333333"/>
<path d="M32.3335 10.0667C32.0668 9.40003 31.3751 9.30837 31.0168 9.6417C30.7085 9.9167 30.7001 10.6417 31.3501 10.7917C31.5835 10.5167 32.0168 10.1667 32.3335 10.0667ZM32.0418 9.65003C31.6501 9.30837 31.0835 9.95837 31.6001 10.55L32.0418 9.65003ZM24.6835 11.275C24.9501 11.2167 25.3251 11.3417 25.9085 11.6084C26.2668 11.7834 27.3668 12.15 28.0501 11.7834C27.3418 12.0417 26.8001 10.975 26.2668 11.1C25.7335 11.2334 24.7501 11.4334 24.3418 11.0334C25.3418 11.1 25.8835 10.3 27.0418 10.9917C27.3692 11.1948 27.7483 11.2989 28.1335 11.2917C27.1918 10.1584 25.9501 10.8834 25.8168 9.95837C26.3835 10.575 27.7751 9.82504 28.4835 10.9667L24.6835 11.275ZM26.0251 10.1334C25.8918 9.9667 25.9418 9.80003 25.8085 9.67503L26.0251 10.1334Z" fill="white"/>
<path d="M26.0251 10.1334C25.8918 9.9667 25.9418 9.80003 25.8085 9.67503M32.3335 10.0667C32.0668 9.40003 31.3751 9.30837 31.0168 9.6417C30.7085 9.9167 30.7001 10.6417 31.3501 10.7917C31.5835 10.5167 32.0168 10.1667 32.3335 10.0667ZM32.0418 9.65003C31.6501 9.30837 31.0835 9.95837 31.6001 10.55L32.0418 9.65003ZM24.6835 11.275C24.9501 11.2167 25.3251 11.3417 25.9085 11.6084C26.2668 11.7834 27.3668 12.15 28.0501 11.7834C27.3418 12.0417 26.8001 10.975 26.2668 11.1C25.7335 11.2334 24.7501 11.4334 24.3418 11.0334C25.3418 11.1 25.8835 10.3 27.0418 10.9917C27.3692 11.1948 27.7483 11.2989 28.1335 11.2917C27.1918 10.1584 25.9501 10.8834 25.8168 9.95837C26.3835 10.575 27.7751 9.82504 28.4835 10.9667L24.6835 11.275Z" stroke="black" stroke-width="0.0333333"/>
<path d="M33.3167 8.95836C33.0833 8.70836 32.5667 8.90003 32.7167 9.40836C32.7712 9.28848 32.8545 9.18392 32.9592 9.10396C33.0639 9.02401 33.1867 8.97113 33.3167 8.95003V8.95836ZM31.8583 10.3334C32.0019 10.2203 32.1621 10.1304 32.3333 10.0667C32.2678 9.89688 32.1586 9.7474 32.0167 9.63336C31.8917 9.55003 31.5417 10.025 31.8583 10.325V10.3334Z" fill="black"/>
<path d="M29.3666 9.71669C28.95 9.63336 28.6 9.75836 28.825 9.90836M31.225 9.45836C30.8416 9.20003 30.4833 9.22503 30.3666 9.43336C30.0916 9.43336 29.8583 9.63336 29.85 10.0334L31.225 9.45836ZM30.4416 10.2084C29.9833 9.89169 29.35 10.0084 29.3916 10.7167L30.4416 10.2084ZM29.1083 11.125C29.3333 10.9417 29.6583 10.8084 29.9083 11.125H29.1083ZM32.5583 10.425C32.475 10.5417 32.4083 10.725 32.55 11.0084C32.3833 10.775 31.95 10.775 31.4833 11.375L32.5583 10.425ZM33.575 10.3917C33.0166 10.4584 33.0333 10.825 33.4833 10.975L33.575 10.3917ZM29.6083 9.02503C29.1333 8.93336 28.7916 9.20836 29.4416 9.44169L29.6083 9.02503ZM30.5083 8.70836C29.8416 8.54169 29.575 8.71669 29.875 8.87503L30.5083 8.70836ZM28.5833 11.375C28.5666 11.6167 28.6916 11.925 29.0833 11.575L28.5833 11.375ZM28.7166 12.0834C28.7166 12.15 28.7083 12.225 28.6583 12.2834L28.7166 12.0834ZM27.1666 8.95003C26.7583 8.82503 26.6833 8.45003 27.1666 8.48336V8.95003ZM27.0333 9.81669C26.5833 9.65836 26.5833 9.22503 26.95 9.26669L27.0333 9.81669ZM27.8666 9.58336C27.3416 9.45836 27.325 9.09169 27.7166 9.15003L27.8666 9.58336ZM27.9333 8.46669C27.65 8.45003 27.225 8.75836 27.9416 8.94169L27.9333 8.46669ZM28.7166 9.09169C28.0583 9.00003 28.075 9.25836 28.4583 9.43336L28.7166 9.09169ZM29.2083 8.46669C28.7083 8.37503 28.5333 8.67503 28.875 8.80003L29.2083 8.46669ZM27.625 10.325C27.5 10.225 27.4 9.74169 27.9833 9.88336L27.625 10.325ZM28.8416 10.175C28.45 10.0667 28.075 10.4584 28.4333 10.675L28.8416 10.175Z" stroke="black" stroke-width="0.0333333" stroke-linecap="round"/>
<path d="M33.2999 8.95836C33.1737 8.98113 33.0549 9.0339 32.9533 9.11221C32.8518 9.19053 32.7706 9.2921 32.7166 9.40836" fill="white"/>
<path d="M33.2999 8.95836C33.1737 8.98113 33.0549 9.0339 32.9533 9.11221C32.8518 9.19053 32.7706 9.2921 32.7166 9.40836" stroke="black" stroke-width="0.0333333"/>
</g>
</g>
<defs>
<clipPath id="clip0_769_8286">
<path d="M0 20C0 8.95431 8.95431 0 20 0C31.0457 0 40 8.95431 40 20C40 31.0457 31.0457 40 20 40C8.95431 40 0 31.0457 0 20Z" fill="white"/>
</clipPath>
<clipPath id="clip1_769_8286">
<rect width="53.3333" height="40" fill="white" transform="translate(-7)"/>
</clipPath>
</defs>
</svg>
