<svg width="40" height="40" viewBox="0 0 40 40" fill="none" xmlns="http://www.w3.org/2000/svg">
<g clip-path="url(#clip0_769_7324)">
<path d="M0 20C0 8.95431 8.95431 0 20 0C31.0457 0 40 8.95431 40 20C40 31.0457 31.0457 40 20 40C8.95431 40 0 31.0457 0 20Z" fill="#E94E0F"/>
<g clip-path="url(#clip1_769_7324)">
<path fill-rule="evenodd" clip-rule="evenodd" d="M-6.99731 0H46.3308V40H-6.99731V0Z" fill="#000099"/>
<path fill-rule="evenodd" clip-rule="evenodd" d="M4.08081 0L44.0027 40.0234V0.0234375L4.08081 0Z" fill="#FFCC00"/>
<path fill-rule="evenodd" clip-rule="evenodd" d="M34.0339 37.6172L31.8542 36.0312L29.6199 37.6094L30.4636 35.0156L28.2605 33.4141H30.9949L31.8386 30.8203L32.6746 33.4219H35.4089L33.2214 35.0391L34.0339 37.6172ZM40.3855 38.4297L37.6511 38.4219L36.8152 35.8203L35.9714 38.4141H33.2371L35.4402 40.0156L34.5964 42.6094L36.8308 41.0312L39.0183 42.6172L38.198 40.0391L40.3855 38.4297ZM28.2292 30.0547L30.4167 28.4375L27.6824 28.4297L26.8464 25.8359L26.0027 28.4297L23.2683 28.4219L25.4714 30.0234L24.6277 32.625L26.8621 31.0391L29.0496 32.6328L28.2292 30.0547ZM23.2058 25.0156L25.3933 23.4062L22.6589 23.3984L21.823 20.7969L20.9714 23.3906H18.2449L20.448 24.9922L19.6042 27.5859L21.8386 26.0078L24.0183 27.5938L23.2058 25.0156ZM18.2292 20.0469L20.4167 18.4297H17.6824L16.8542 15.8203L16.0105 18.4141H13.2761L15.4792 20.0078L14.6355 22.6094L16.8699 21.0234L19.0574 22.6172L18.2371 20.0391L18.2292 20.0469ZM13.198 15.0234L15.3855 13.4141L12.6511 13.4062L11.8152 10.8047L10.9636 13.3984H8.23706L10.448 15L9.60425 17.5938L11.8386 16.0156L14.0183 17.6016L13.2058 15.0234H13.198ZM8.22925 10.0312L10.4089 8.41406H7.67456L6.84644 5.80469L5.99487 8.40625H3.2605L5.47925 10L4.62769 12.5938L6.86206 11.0156L9.03394 12.6094L8.22925 10.0312ZM3.22925 5.03125L5.40894 3.41406H2.67456L1.84644 0.804688L0.994873 3.40625H-1.7395L0.479248 5L-0.380127 7.60156L1.86206 6.01562L4.03394 7.60938L3.22925 5.03125ZM-1.77075 0.03125L0.401123 -1.58594H-2.33325L-3.16919 -4.1875L-4.00513 -1.59375H-6.7395L-4.52856 0L-5.37231 2.59375L-3.13794 1.01562L-0.966064 2.60938L-1.77075 0.03125Z" fill="white"/>
</g>
</g>
<defs>
<clipPath id="clip0_769_7324">
<path d="M0 20C0 8.95431 8.95431 0 20 0C31.0457 0 40 8.95431 40 20C40 31.0457 31.0457 40 20 40C8.95431 40 0 31.0457 0 20Z" fill="white"/>
</clipPath>
<clipPath id="clip1_769_7324">
<rect width="53.3333" height="40" fill="white" transform="translate(-7)"/>
</clipPath>
</defs>
</svg>
