<svg width="40" height="40" viewBox="0 0 40 40" fill="none" xmlns="http://www.w3.org/2000/svg">
<g clip-path="url(#clip0_769_8237)">
<path d="M0 20C0 8.95431 8.95431 0 20 0C31.0457 0 40 8.95431 40 20C40 31.0457 31.0457 40 20 40C8.95431 40 0 31.0457 0 20Z" fill="#E94E0F"/>
<g clip-path="url(#clip1_769_8237)">
<path fill-rule="evenodd" clip-rule="evenodd" d="M-7 0H46.3333V40H-7V0Z" fill="#229E45"/>
<path fill-rule="evenodd" clip-rule="evenodd" d="M19.7834 36.3333L44.9084 20.025L19.6334 3.66666L-5.57495 20.0583L19.7834 36.3333Z" fill="#F8E509"/>
<path fill-rule="evenodd" clip-rule="evenodd" d="M30.7333 20C30.7333 25.8583 25.975 30.6083 20.1 30.6083C18.0006 30.605 15.9493 29.9794 14.2054 28.8104C12.4615 27.6415 11.1033 25.9817 10.3026 24.041C9.50183 22.1003 9.29445 19.9658 9.70665 17.9072C10.1189 15.8486 11.1321 13.9585 12.6184 12.4757C14.1047 10.993 15.9972 9.98414 18.0567 9.57679C20.1162 9.16943 22.2503 9.38184 24.1891 10.1872C26.1279 10.9925 27.7845 12.3545 28.9493 14.1012C30.1141 15.8478 30.735 17.9006 30.7333 20Z" fill="#2B49A3"/>
<path fill-rule="evenodd" clip-rule="evenodd" d="M16.6083 26.3583L16.275 26.1667L15.9416 26.3333L16.0166 25.9583L15.75 25.675L16.125 25.6333L16.3083 25.3L16.4666 25.65L16.8333 25.7167L16.5583 25.9667L16.6083 26.3583ZM23.725 28.1583L23.4 27.9667L23.0666 28.1333L23.1333 27.7583L22.875 27.4833L23.25 27.4417L23.425 27.1L23.5916 27.45L23.9583 27.5167L23.675 27.775L23.725 28.1583ZM20.6583 25.275L20.375 25.1083L20.0833 25.2583L20.15 24.9333L19.9166 24.6917L20.25 24.6583L20.4 24.3583L20.5333 24.6667L20.8583 24.725L20.6083 24.95L20.6583 25.275ZM27.8583 24.2417L27.5749 24.075L27.2833 24.225L27.35 23.9L27.125 23.6667L27.4499 23.6333L27.6 23.3417L27.7333 23.6417L28.05 23.7L27.8083 23.9167L27.8583 24.2417ZM20.5333 22.0833L20.2 21.9L19.8666 22.0667L19.9333 21.6833L19.675 21.4083L20.05 21.3667L20.225 21.025L20.3916 21.375L20.7583 21.4417L20.475 21.7083L20.5333 22.0833ZM11.7583 18.7917L11.425 18.6083L11.0916 18.775L11.175 18.3917L10.9 18.1167L11.2833 18.075L11.45 17.7333L11.6166 18.0833L11.9833 18.15L11.7083 18.4083L11.7583 18.7917ZM12.8166 23.175L12.4833 22.9833L12.15 23.15L12.225 22.775L11.9583 22.5L12.3333 22.45L12.5083 22.1167L12.675 22.4667L13.0416 22.5333L12.7666 22.7917L12.8166 23.175ZM23.7666 17.1833L23.4666 17.0167L23.1666 17.1667L23.2333 16.8333L23 16.5833L23.3333 16.5417L23.4916 16.2417L23.6333 16.5583L23.9666 16.6167L23.7166 16.8417L23.7666 17.1833ZM23.1583 20.0333L22.9333 19.9L22.6916 20.0167L22.7416 19.75L22.5583 19.5583L22.825 19.525L22.95 19.2917L23.0583 19.5417L23.3083 19.5833L23.125 19.7667L23.1583 20.0333ZM11.275 23.9667L11.05 23.8417L10.825 23.95L10.875 23.7L10.7 23.5167L10.95 23.4833L11.0666 23.2583L11.175 23.4917L11.425 23.5417L11.2333 23.7083L11.275 23.9667ZM27.9166 24.9833L27.7333 24.8917L27.55 24.975L27.5916 24.7833L27.4499 24.65L27.65 24.625L27.75 24.4583L27.8333 24.625L28.0416 24.6667L27.8833 24.7917" fill="#FFFFEF"/>
<path fill-rule="evenodd" clip-rule="evenodd" d="M11.275 23.9667L11.05 23.8417L10.825 23.95L10.875 23.7L10.7 23.5167L10.95 23.4833L11.0666 23.2583L11.175 23.4917L11.425 23.5417L11.2333 23.7083" fill="#FFFFEF"/>
<path fill-rule="evenodd" clip-rule="evenodd" d="M11.275 23.9667L11.05 23.8417L10.825 23.95L10.875 23.7L10.7 23.5167L10.95 23.4833L11.0666 23.2583L11.175 23.4917L11.425 23.5417L11.2333 23.7083L11.275 23.9667ZM14.7583 23.9583L14.5416 23.8417L14.3166 23.95L14.3666 23.7L14.1916 23.5167L14.4416 23.4833L14.5583 23.2583L14.6666 23.4917L14.9166 23.5333L14.725 23.7083L14.7583 23.9583ZM14.325 25.125L14.1083 25L13.8833 25.1167L13.9333 24.8667L13.7583 24.675L14.0083 24.6417L14.125 24.4167L14.2333 24.65L14.4833 24.7L14.2916 24.8667L14.325 25.125ZM21.575 23.0167L21.3583 22.8833L21.125 23L21.175 22.75L21.0083 22.5583L21.2583 22.5333L21.375 22.3083L21.475 22.5417L21.725 22.5833L21.5416 22.7583L21.575 23.0167ZM19.45 23.0083L19.225 22.8833L19 23L19.05 22.75L18.8833 22.5583L19.1333 22.5333L19.25 22.3L19.35 22.5417L19.6 22.5833L19.4166 22.7583L19.45 23.0083ZM13.6833 22.275L13.5416 22.1917L13.4 22.2583L13.4333 22.1L13.325 21.9833L13.4833 21.9667L13.55 21.825L13.6166 21.975L13.775 22L13.6583 22.1083L13.6833 22.275ZM27.6416 25.8917L27.425 25.7667L27.2 25.8833L27.25 25.6333L27.075 25.4417L27.325 25.4083L27.4416 25.1833L27.55 25.4167L27.8 25.4667L27.6083 25.6333L27.6416 25.8917ZM25.875 26.1333L25.6916 26.0167L25.5 26.1167L25.5416 25.9L25.4 25.75L25.6083 25.725L25.7083 25.5333L25.7916 25.7333L26 25.7667L25.8416 25.9167L25.875 26.1333ZM26.7083 26.1083L26.5416 26.0083L26.3666 26.0917L26.4 25.9L26.2666 25.7583L26.4583 25.7333L26.55 25.5667L26.6333 25.7333L26.825 25.775L26.6833 25.9083L26.7083 26.1083ZM29.1083 24.0083L28.9416 23.925L28.775 24.0083L28.8166 23.8167L28.6833 23.675L28.875 23.65L28.9583 23.4833L29.0416 23.6583L29.2166 23.6917L29.0833 23.825L29.1083 24.0083ZM25.85 27.3083L25.6416 27.1917L25.4166 27.2917L25.4666 27.0583L25.3 26.8917L25.55 26.8667L25.6583 26.6583L25.7583 26.875L26.0083 26.9167L25.8166 27.075L25.85 27.3083ZM25.8666 28.2583L25.6666 28.1417L25.4666 28.25L25.5166 28.0167L25.3583 27.85L25.5833 27.8167L25.6833 27.6083L25.775 27.825L26 27.8667L25.8333 28.0333L25.8666 28.2583ZM24.25 26.1083L24.0916 26.0083L23.925 26.0917L23.9583 25.9083L23.8333 25.7667L24.0166 25.75L24.1 25.5833L24.1833 25.75L24.3666 25.7833L24.2333 25.9167L24.25 26.1083ZM22.75 26.1083L22.5833 26.0083L22.4166 26.0917L22.4583 25.9083L22.325 25.7667L22.5166 25.75L22.6 25.5833L22.6833 25.75L22.8583 25.7833L22.725 25.9167L22.75 26.1083ZM20.1916 23.8667L20.025 23.775L19.8583 23.8583L19.9 23.6667L19.7666 23.5333L19.95 23.5083L20.0333 23.3417L20.1166 23.5083L20.3 23.55L20.1666 23.675L20.1916 23.8667ZM20.475 28.425L20.3416 28.35L20.1916 28.425L20.225 28.2583L20.1166 28.1417L20.275 28.125L20.35 27.9833L20.4166 28.1333L20.575 28.1583L20.4583 28.2667L20.475 28.425ZM16.6083 21.05L16.275 20.8583L15.9416 21.025L16.0166 20.65L15.75 20.375L16.125 20.325L16.3083 19.9917L16.4666 20.3417L16.8333 20.4083L16.5583 20.6667" fill="#FFFFEF"/>
<path fill-rule="evenodd" clip-rule="evenodd" d="M30.0334 23.8167C30.2399 23.281 30.4015 22.7291 30.5167 22.1667C24.8667 17.2083 18.5751 14.6667 10.6251 15.1917C10.3367 15.7496 10.0997 16.3325 9.91675 16.9333C19.3334 16.0333 26.2501 20.2 30.0334 23.8167Z" fill="white"/>
<path d="M27.5 21.0333L27.6917 21.1417C27.6631 21.1983 27.6543 21.2628 27.6667 21.325C27.6862 21.3853 27.7279 21.4359 27.7833 21.4667C27.8417 21.5083 27.9 21.5333 27.95 21.525C28 21.525 28.0333 21.5 28.0583 21.4667C28.0729 21.4445 28.0788 21.4179 28.075 21.3917C28.0682 21.3609 28.0539 21.3323 28.0333 21.3083C28.0167 21.2833 27.975 21.225 27.9083 21.1583C27.8398 21.0876 27.7885 21.0021 27.7583 20.9083C27.7376 20.8374 27.7429 20.7613 27.7735 20.694C27.8041 20.6267 27.8579 20.5727 27.925 20.5417C27.9856 20.5164 28.0526 20.5105 28.1167 20.525C28.195 20.543 28.2688 20.5771 28.3333 20.625C28.45 20.7083 28.525 20.7917 28.55 20.8917C28.5615 20.9384 28.563 20.9871 28.5544 21.0345C28.5458 21.0819 28.5273 21.1269 28.5 21.1667L28.3 21.0417C28.325 20.9917 28.3333 20.9417 28.3167 20.9C28.3083 20.8583 28.275 20.8167 28.2167 20.7833C28.1739 20.7489 28.1215 20.7285 28.0667 20.725C28.0516 20.7245 28.0366 20.7281 28.0234 20.7354C28.0102 20.7428 27.9992 20.7536 27.9917 20.7667C27.975 20.7917 27.975 20.8167 27.9833 20.85C27.9917 20.8833 28.0333 20.95 28.1167 21.0333C28.2 21.1167 28.25 21.1917 28.2833 21.2417C28.3131 21.2963 28.3266 21.3583 28.3221 21.4203C28.3177 21.4824 28.2956 21.5418 28.2583 21.5917C28.2194 21.6483 28.1642 21.6919 28.1 21.7167C28.0375 21.7454 27.9677 21.7542 27.9 21.7417C27.825 21.725 27.75 21.6917 27.6667 21.6333C27.5417 21.55 27.4667 21.4583 27.4417 21.3583C27.4145 21.2449 27.4325 21.1254 27.4917 21.025L27.5 21.0333ZM26.5333 20.4L26.7417 20.5083C26.7159 20.5659 26.71 20.6304 26.725 20.6917C26.7463 20.7489 26.7878 20.7963 26.8417 20.825C26.9083 20.8667 26.9583 20.8833 27.0083 20.875C27.0583 20.875 27.0917 20.85 27.1167 20.8083C27.1293 20.7885 27.1352 20.7651 27.1333 20.7417C27.1333 20.7167 27.1167 20.6833 27.0917 20.6583C27.049 20.6068 27.0045 20.5568 26.9583 20.5083C26.8667 20.4167 26.8083 20.3417 26.7917 20.275C26.7781 20.2321 26.774 20.1868 26.7797 20.1421C26.7855 20.0975 26.8009 20.0547 26.825 20.0167C26.8567 19.9652 26.9032 19.9246 26.9583 19.9C27.0156 19.8736 27.0794 19.8649 27.1417 19.875C27.2188 19.888 27.2924 19.9163 27.3583 19.9583C27.4833 20.0417 27.5583 20.125 27.5833 20.2167C27.5985 20.2635 27.6034 20.3131 27.5977 20.362C27.5919 20.4109 27.5757 20.458 27.55 20.5L27.3417 20.3833C27.3667 20.325 27.375 20.2833 27.3583 20.2417C27.3417 20.2 27.3083 20.1583 27.25 20.125C27.2039 20.0919 27.1484 20.0744 27.0917 20.075C27.078 20.0759 27.0648 20.0802 27.0531 20.0875C27.0415 20.0947 27.0318 20.1048 27.025 20.1167C27.0083 20.1417 27.0083 20.1667 27.0167 20.2C27.025 20.2333 27.075 20.3 27.1583 20.3833C27.2417 20.4667 27.3 20.5333 27.325 20.5833C27.3584 20.6356 27.3762 20.6963 27.3762 20.7583C27.3762 20.8204 27.3584 20.8811 27.325 20.9333C27.2891 20.9915 27.237 21.0378 27.175 21.0667C27.1125 21.0954 27.0427 21.1042 26.975 21.0917C26.8893 21.0772 26.8072 21.046 26.7333 21C26.6256 20.9426 26.5426 20.8477 26.5 20.7333C26.4678 20.6221 26.4798 20.5027 26.5333 20.4ZM25.35 20.0833L25.9583 19.0833L26.6917 19.5417L26.5917 19.7083L26.0583 19.375L25.925 19.6L26.425 19.9083L26.3167 20.075L25.8167 19.7667L25.65 20.0417L26.2083 20.375L26.1083 20.5417L25.3583 20.0833H25.35ZM23.625 18.6667L23.7167 18.5L24.1667 18.725L23.9583 19.1417C23.8917 19.1583 23.8083 19.1667 23.7083 19.1583C23.6123 19.1477 23.5191 19.1195 23.4333 19.075C23.3325 19.0259 23.2463 18.9512 23.1833 18.8583C23.126 18.7721 23.0969 18.6702 23.1 18.5667C23.1042 18.4589 23.1327 18.3535 23.1833 18.2583C23.2334 18.1581 23.3079 18.0721 23.4 18.0083C23.4881 17.9474 23.5929 17.9154 23.7 17.9167C23.7833 17.9167 23.8667 17.9417 23.9667 18C24.1 18.0583 24.1833 18.1417 24.225 18.2333C24.2684 18.3243 24.2772 18.428 24.25 18.525L24.025 18.4583C24.0388 18.4025 24.0329 18.3437 24.0083 18.2917C23.9833 18.2417 23.9417 18.2083 23.875 18.175C23.8362 18.1528 23.7931 18.1391 23.7485 18.1348C23.704 18.1305 23.6591 18.1357 23.6167 18.15C23.5333 18.175 23.4583 18.25 23.4 18.3667C23.3417 18.4833 23.3167 18.5917 23.3417 18.6833C23.3532 18.7268 23.3741 18.7672 23.4029 18.8018C23.4317 18.8363 23.4677 18.8642 23.5083 18.8833C23.55 18.9083 23.6 18.925 23.65 18.925C23.6997 18.9325 23.7503 18.9325 23.8 18.925L23.8667 18.7917L23.625 18.6667ZM16.1083 16.8083L16.275 15.6417L16.625 15.7L16.7167 16.5167L17.0417 15.7667L17.3917 15.8167L17.225 16.9667L17 16.9333L17.1417 16.025L16.775 16.9L16.55 16.8667L16.4583 15.925L16.325 16.8417L16.1083 16.8083ZM14.9333 16.6667L15.0417 15.5L15.9 15.5833L15.8833 15.7833L15.2583 15.725L15.2333 15.975L15.8167 16.0333L15.7917 16.2333L15.2083 16.175L15.1833 16.4917L15.8333 16.55L15.8167 16.75L14.9333 16.6667Z" fill="#309E3A"/>
<path d="M11.0418 15.9417C11.0418 15.8167 11.0668 15.725 11.1001 15.6417C11.1293 15.5824 11.1688 15.5288 11.2168 15.4833C11.2595 15.4402 11.3105 15.4062 11.3668 15.3833C11.4501 15.3583 11.5334 15.3417 11.6168 15.3417C11.7918 15.3417 11.9251 15.4083 12.0334 15.5083C12.085 15.572 12.1234 15.6454 12.1463 15.7241C12.1691 15.8028 12.1761 15.8852 12.1668 15.9667C12.1668 16.15 12.1084 16.3 12.0001 16.4083C11.9444 16.4598 11.8786 16.499 11.8068 16.5234C11.735 16.5478 11.6589 16.5569 11.5834 16.55C11.509 16.5507 11.4351 16.5364 11.3663 16.5077C11.2976 16.4791 11.2354 16.4367 11.1834 16.3833C11.0797 16.2606 11.0288 16.1018 11.0418 15.9417Z" fill="#309E3A"/>
<path d="M11.2834 15.9417C11.2834 16.0667 11.3084 16.1667 11.3668 16.2417C11.4251 16.3083 11.5001 16.35 11.6001 16.35C11.6434 16.353 11.6868 16.3464 11.7271 16.3305C11.7675 16.3146 11.8038 16.29 11.8334 16.2583C11.8918 16.1917 11.9168 16.0917 11.9251 15.95C11.9251 15.8167 11.9084 15.7167 11.8418 15.65C11.8146 15.6164 11.7804 15.5893 11.7415 15.5705C11.7026 15.5518 11.66 15.5419 11.6168 15.5417C11.5729 15.5403 11.5293 15.5485 11.489 15.5658C11.4487 15.583 11.4127 15.6089 11.3834 15.6417C11.3168 15.7083 11.2918 15.8083 11.2834 15.9417Z" fill="#F7FFFF"/>
<path d="M12.4167 16.5417L12.4334 15.375H12.9334C13.0584 15.375 13.1417 15.3917 13.2001 15.4167C13.2584 15.4333 13.3001 15.475 13.3334 15.525C13.3667 15.575 13.3834 15.6417 13.3834 15.7167C13.3841 15.7968 13.3543 15.8743 13.3001 15.9333C13.2385 15.991 13.1592 16.0263 13.0751 16.0333L13.2001 16.1333C13.2334 16.1667 13.2751 16.2333 13.3251 16.325L13.4667 16.5583H13.1834L13.0167 16.2917L12.9001 16.125C12.8799 16.1021 12.854 16.0848 12.8251 16.075C12.7872 16.0639 12.7479 16.0583 12.7084 16.0583H12.6584V16.5417H12.4167Z" fill="#309E3A"/>
<path d="M12.6667 15.875H12.8334C12.9501 15.875 13.0251 15.875 13.0501 15.8583C13.0751 15.8583 13.1001 15.8333 13.1167 15.8167C13.1334 15.8 13.1417 15.7583 13.1417 15.7333C13.1417 15.6833 13.1334 15.65 13.1084 15.6333C13.0917 15.6083 13.0584 15.5917 13.0251 15.5833H12.8584L12.6667 15.575V15.8667V15.875Z" fill="white"/>
<path d="M13.7502 15.4333L14.1836 15.4583C14.2752 15.4583 14.3502 15.4667 14.4002 15.4833C14.4651 15.5068 14.5226 15.5471 14.5669 15.6C14.6149 15.6582 14.6491 15.7266 14.6669 15.8C14.6919 15.875 14.7002 15.9667 14.6919 16.075C14.6918 16.16 14.6777 16.2445 14.6502 16.325C14.6169 16.4083 14.5669 16.475 14.5086 16.525C14.46 16.565 14.403 16.5935 14.3419 16.6083C14.2919 16.625 14.2169 16.625 14.1336 16.625L13.6919 16.6L13.7502 15.4333Z" fill="#309E3A"/>
<path d="M13.9753 15.6416L13.9336 16.4166H14.2503C14.2919 16.4166 14.3253 16.4 14.3503 16.375C14.3753 16.35 14.4003 16.3166 14.4169 16.2666C14.4336 16.2166 14.4503 16.1416 14.4503 16.05L14.4419 15.8416C14.43 15.7977 14.4071 15.7575 14.3753 15.725C14.3476 15.6971 14.3131 15.677 14.2753 15.6666C14.2122 15.6526 14.1481 15.6443 14.0836 15.6416H13.9753Z" fill="white"/>
<path d="M19.4666 17.5167L19.7416 16.3834L20.1082 16.4667L20.3749 16.55C20.4332 16.5834 20.4832 16.6334 20.5082 16.7084C20.5416 16.775 20.5416 16.85 20.5249 16.9417C20.5082 17.0084 20.4832 17.0667 20.4416 17.1084C20.411 17.145 20.3728 17.1744 20.3295 17.1945C20.2863 17.2147 20.2392 17.2251 20.1916 17.225C20.1332 17.225 20.0499 17.2084 19.9416 17.1834L19.7999 17.1417L19.6999 17.575L19.4666 17.5167Z" fill="#309E3A"/>
<path d="M19.9165 16.6334L19.8499 16.95L19.9749 16.9834C20.0582 17 20.1249 17.0167 20.1582 17.0084C20.1906 17.0039 20.2208 16.9894 20.2447 16.967C20.2686 16.9447 20.2849 16.9154 20.2915 16.8834C20.2915 16.8417 20.2915 16.8084 20.2749 16.775C20.2566 16.7412 20.2271 16.7147 20.1915 16.7L20.0332 16.6584L19.9249 16.6334H19.9165Z" fill="white"/>
<path d="M20.5503 17.8417L20.942 16.7417L21.4003 16.9084C21.5253 16.95 21.6003 16.9917 21.6503 17.025C21.692 17.0667 21.7253 17.1084 21.7336 17.175C21.742 17.2417 21.7503 17.3 21.7336 17.3667C21.7003 17.45 21.6503 17.5084 21.5836 17.55C21.517 17.5834 21.4336 17.5917 21.3336 17.575C21.367 17.6167 21.4003 17.6584 21.417 17.7084L21.4836 17.9334L21.5336 18.1917L21.2753 18.1L21.192 17.8C21.1768 17.7322 21.1573 17.6654 21.1336 17.6C21.1226 17.5741 21.1054 17.5512 21.0836 17.5334C21.067 17.5084 21.0336 17.4917 20.9753 17.475L20.9336 17.4584L20.767 17.925L20.5503 17.8417Z" fill="#309E3A"/>
<path d="M21.0003 17.2834L21.1586 17.3417C21.2669 17.3834 21.3336 17.4 21.3669 17.4C21.3919 17.4 21.4169 17.4 21.4419 17.375C21.4669 17.3584 21.4836 17.3334 21.4919 17.3C21.5086 17.2667 21.5086 17.2334 21.4919 17.2C21.4796 17.1677 21.4559 17.1411 21.4253 17.125L21.2586 17.0667L21.0919 17.0084L20.9919 17.2834H21.0003Z" fill="white"/>
<path d="M21.9168 17.8C21.9454 17.7024 21.9936 17.6117 22.0585 17.5334C22.1006 17.4831 22.1514 17.4407 22.2085 17.4084C22.2601 17.3792 22.3165 17.3594 22.3751 17.35C22.4585 17.35 22.5418 17.35 22.6335 17.3834C22.7079 17.4018 22.7777 17.4358 22.838 17.4832C22.8983 17.5307 22.9479 17.5903 22.9835 17.6584C23.0501 17.7917 23.0501 17.95 23.0001 18.1334C22.9589 18.2909 22.857 18.4257 22.7168 18.5084C22.5918 18.5834 22.4418 18.5917 22.2835 18.5417C22.2092 18.5228 22.1397 18.4885 22.0794 18.4412C22.0191 18.3938 21.9694 18.3344 21.9335 18.2667C21.9001 18.1938 21.8814 18.1151 21.8786 18.035C21.8757 17.9549 21.8887 17.8751 21.9168 17.8Z" fill="#309E3A"/>
<path d="M22.15 17.8667C22.1167 17.9917 22.1084 18.1 22.15 18.1833C22.1917 18.2667 22.25 18.3167 22.3417 18.35C22.425 18.375 22.5084 18.3667 22.5917 18.3167C22.675 18.275 22.725 18.1833 22.7667 18.05C22.8084 17.925 22.8084 17.825 22.7667 17.7417C22.7503 17.7021 22.7253 17.6667 22.6936 17.6379C22.6619 17.6091 22.6243 17.5876 22.5834 17.575C22.5424 17.5609 22.4988 17.5558 22.4556 17.5601C22.4125 17.5644 22.3708 17.578 22.3334 17.6C22.25 17.65 22.1917 17.7333 22.15 17.8667Z" fill="white"/>
<path d="M24.1919 19.425L24.7252 18.3917L25.1669 18.6167C25.2502 18.6566 25.3262 18.7101 25.3919 18.775C25.4336 18.8167 25.4586 18.8667 25.4586 18.9333C25.4586 19 25.4586 19.0583 25.4252 19.1167C25.3932 19.1916 25.3335 19.2513 25.2586 19.2833C25.1752 19.3 25.0919 19.3 25.0002 19.2667C25.0336 19.3167 25.0502 19.3667 25.0669 19.4083C25.0836 19.4583 25.0919 19.5333 25.1002 19.6417L25.1169 19.9083L24.8669 19.7833L24.8336 19.475C24.8296 19.4051 24.8213 19.3355 24.8086 19.2667C24.8029 19.2355 24.7884 19.2066 24.7669 19.1833L24.6669 19.125L24.6252 19.1L24.4002 19.5333L24.1919 19.425Z" fill="#309E3A"/>
<path d="M24.7085 18.9333L24.8668 19.0167C24.9668 19.0667 25.0335 19.1 25.0585 19.1C25.0835 19.1 25.1168 19.1 25.1418 19.0833C25.1668 19.075 25.1835 19.05 25.2002 19.0167C25.2168 18.9833 25.2252 18.95 25.2168 18.9167C25.2065 18.8835 25.1861 18.8544 25.1585 18.8333C25.1097 18.8034 25.0597 18.7756 25.0085 18.75L24.8418 18.6667L24.7085 18.9333Z" fill="white"/>
<path d="M28.508 21.5584C28.562 21.4727 28.6329 21.3989 28.7164 21.3417C28.7724 21.3058 28.8345 21.2804 28.8997 21.2667C28.9602 21.2543 29.0225 21.2543 29.083 21.2667C29.1664 21.2834 29.2414 21.3167 29.3164 21.3667C29.3812 21.4071 29.4369 21.4606 29.48 21.5237C29.523 21.5868 29.5524 21.6582 29.5664 21.7334C29.5914 21.875 29.5497 22.0334 29.4497 22.1917C29.366 22.3294 29.2312 22.4283 29.0747 22.4667C29.0001 22.4828 28.9229 22.483 28.8482 22.4672C28.7736 22.4514 28.7031 22.42 28.6414 22.375C28.5765 22.3346 28.5208 22.2812 28.4777 22.218C28.4347 22.1549 28.4053 22.0835 28.3914 22.0084C28.3664 21.8584 28.408 21.7084 28.508 21.5584Z" fill="#309E3A"/>
<path d="M28.7164 21.6917C28.6331 21.8 28.6081 21.9 28.6247 21.9917C28.6309 22.0339 28.646 22.0743 28.6689 22.1102C28.6919 22.1462 28.7223 22.1768 28.7581 22.2C28.8414 22.2584 28.9247 22.275 29.0081 22.25C29.0914 22.225 29.1747 22.1667 29.2497 22.05C29.3247 21.9334 29.3581 21.8334 29.3414 21.75C29.3331 21.6667 29.2831 21.5917 29.2081 21.5334C29.1331 21.475 29.0414 21.4667 28.9581 21.4917C28.8747 21.5084 28.7914 21.575 28.7081 21.6917H28.7164Z" fill="white"/>
<path d="M18.1499 17.0417L18.3416 16.225L18.9416 16.3667L18.9166 16.5L18.4749 16.4L18.4332 16.5833L18.8416 16.675L18.8082 16.8167L18.3999 16.7167L18.3499 16.9417L18.8082 17.05L18.7749 17.1833L18.1499 17.0417Z" fill="#309E3A"/>
</g>
</g>
<defs>
<clipPath id="clip0_769_8237">
<path d="M0 20C0 8.95431 8.95431 0 20 0C31.0457 0 40 8.95431 40 20C40 31.0457 31.0457 40 20 40C8.95431 40 0 31.0457 0 20Z" fill="white"/>
</clipPath>
<clipPath id="clip1_769_8237">
<rect width="53.3333" height="40" fill="white" transform="translate(-7)"/>
</clipPath>
</defs>
</svg>
