<svg width="40" height="40" viewBox="0 0 40 40" fill="none" xmlns="http://www.w3.org/2000/svg">
<g clip-path="url(#clip0_769_18624)">
<path d="M0 20C0 8.95431 8.95431 0 20 0C31.0457 0 40 8.95431 40 20C40 31.0457 31.0457 40 20 40C8.95431 40 0 31.0457 0 20Z" fill="#E94E0F"/>
<g clip-path="url(#clip1_769_18624)">
<path fill-rule="evenodd" clip-rule="evenodd" d="M46.3333 34.6833C45.7333 35.2417 45.225 36.5167 43.6333 36.5167C40.4583 36.5167 39.6667 33.8083 37.2833 33.8083C35.7 33.8083 34.9083 36.5167 33.3167 36.5167C30.1417 36.5167 29.35 33.8083 26.9667 33.8083C25.3833 33.8083 24.5917 36.5167 23.0083 36.5167C19.825 36.5167 19.0333 33.8083 16.65 33.8083C15.0667 33.8083 14.2667 36.5167 12.6833 36.5167C9.50833 36.5167 8.71667 33.8083 6.33333 33.8083C4.75 33.8083 3.95 36.5167 2.36667 36.5167C-0.816667 36.5167 -1.60833 33.8083 -3.98333 33.8083C-5.56667 33.8083 -6.05 35.7417 -7 35.7417V39.2167C-6.05 39.2167 -5.575 37.3 -3.975 37.3C-1.6 37.3 -0.808333 40 2.35833 40C3.95 40 4.74167 37.2917 6.33333 37.2917C8.71667 37.2917 9.50833 40 12.6917 40C14.275 40 15.0583 37.2917 16.65 37.2917C19.0333 37.2917 19.825 40 23 40C24.5833 40 25.3833 37.2917 26.9667 37.2917C29.35 37.2917 30.1417 40 33.3167 40C34.9 40 35.7 37.2917 37.2833 37.2917C39.6667 37.2917 40.4667 40 43.6333 40C45.2167 40 45.7333 39.2333 46.3333 38.6833V34.6833ZM46.3333 27.9167C45.7333 28.475 45.225 29.75 43.6333 29.75C40.4583 29.75 39.6667 27.0417 37.2833 27.0417C35.7 27.0417 34.9083 29.75 33.3167 29.75C30.1417 29.75 29.35 27.0417 26.9667 27.0417C25.3833 27.0417 24.5917 29.75 23.0083 29.75C19.825 29.75 19.0333 27.0417 16.65 27.0417C15.0667 27.0417 14.2667 29.75 12.6833 29.75C9.50833 29.75 8.71667 27.0417 6.33333 27.0417C4.75 27.0417 3.95 29.75 2.36667 29.75C-0.816667 29.75 -1.60833 27.0417 -3.98333 27.0417C-5.56667 27.0417 -6.05 28.975 -7 28.975V32.4583C-6.05 32.4583 -5.575 30.5333 -3.975 30.5333C-1.6 30.5333 -0.808333 33.2417 2.35833 33.2417C3.95 33.2417 4.74167 30.5333 6.33333 30.5333C8.71667 30.5333 9.50833 33.2417 12.6917 33.2417C14.275 33.2417 15.0583 30.5333 16.65 30.5333C19.0333 30.5333 19.825 33.2417 23.0083 33.2417C24.5917 33.2417 25.3833 30.5333 26.9667 30.5333C29.35 30.5333 30.1417 33.2417 33.3167 33.2417C34.9 33.2417 35.7 30.5333 37.2833 30.5333C39.6667 30.5333 40.4667 33.2417 43.6333 33.2417C45.2167 33.2417 45.7333 32.475 46.3333 31.925V27.9167ZM46.3333 21.1583C45.7333 21.7167 45.225 22.9917 43.6333 22.9917C40.4583 22.9917 39.6667 20.2833 37.2833 20.2833C35.7 20.2833 34.9083 22.9917 33.3167 22.9917C30.1417 22.9917 29.35 20.2833 26.9667 20.2833C25.3833 20.2833 24.5917 22.9917 23.0083 22.9917C19.825 22.9917 19.0333 20.2833 16.65 20.2833C15.0667 20.2833 14.2667 22.9917 12.6833 22.9917C9.50833 22.9917 8.71667 20.2833 6.33333 20.2833C4.75 20.2833 3.95 22.9917 2.36667 22.9917C-0.816667 22.9917 -1.60833 20.2833 -3.98333 20.2833C-5.56667 20.2833 -6.05 22.2167 -7 22.2167V25.7C-6.05 25.7 -5.575 23.7667 -3.975 23.7667C-1.6 23.7667 -0.808333 26.475 2.35833 26.475C3.95 26.475 4.74167 23.7667 6.33333 23.7667C8.71667 23.7667 9.50833 26.475 12.6917 26.475C14.275 26.475 15.0583 23.7667 16.65 23.7667C19.0333 23.7667 19.825 26.475 23.0083 26.475C24.5917 26.475 25.3833 23.7667 26.9667 23.7667C29.35 23.7667 30.1417 26.475 33.3167 26.475C34.9 26.475 35.7 23.7667 37.2833 23.7667C39.6667 23.7667 40.4667 26.475 43.6333 26.475C45.2167 26.475 45.7333 25.7083 46.3333 25.1583V21.1583ZM46.3333 14.4C45.7333 14.95 45.225 16.2333 43.6333 16.2333C40.4583 16.2333 39.6667 13.525 37.2833 13.525C35.7 13.525 34.9083 16.2333 33.3167 16.2333C30.1417 16.2333 29.35 13.525 26.9667 13.525C25.3833 13.525 24.5917 16.2333 23.0083 16.2333C19.825 16.2333 19.0333 13.525 16.65 13.525C15.0667 13.525 14.2667 16.2333 12.6833 16.2333C9.50833 16.2333 8.71667 13.525 6.33333 13.525C4.75 13.525 3.95 16.2333 2.36667 16.2333C-0.816667 16.2333 -1.60833 13.525 -3.98333 13.525C-5.56667 13.525 -6.05 15.4583 -7 15.4583V18.9333C-6.05 18.9333 -5.575 17.0167 -3.975 17.0167C-1.6 17.0167 -0.808333 19.7167 2.35833 19.7167C3.95 19.7167 4.74167 17.0083 6.33333 17.0083C8.71667 17.0083 9.50833 19.7167 12.6917 19.7167C14.275 19.7167 15.0583 17.0083 16.65 17.0083C19.0333 17.0083 19.825 19.7167 23.0083 19.7167C24.5917 19.7167 25.3833 17.0083 26.9667 17.0083C29.35 17.0083 30.1417 19.7167 33.3167 19.7167C34.9 19.7167 35.7 17.0083 37.2833 17.0083C39.6667 17.0083 40.4667 19.7167 43.6333 19.7167C45.2167 19.7167 45.7333 18.9417 46.3333 18.3917V14.4ZM46.3333 7.625C45.7333 8.18333 45.225 9.46667 43.6333 9.46667C40.4583 9.46667 39.6667 6.75833 37.2833 6.75833C35.7 6.75833 34.9083 9.46667 33.3167 9.46667C30.1417 9.46667 29.35 6.75833 26.9667 6.75833C25.3833 6.75833 24.5917 9.46667 23.0083 9.46667C19.825 9.46667 19.0333 6.75833 16.65 6.75833C15.0667 6.75833 14.2667 9.46667 12.6833 9.46667C9.50833 9.46667 8.71667 6.75833 6.33333 6.75833C4.75 6.75833 3.95 9.46667 2.36667 9.46667C-0.816667 9.46667 -1.60833 6.75833 -3.98333 6.75833C-5.56667 6.76667 -6.05 8.7 -7 8.7V12.1833C-6.05 12.1833 -5.575 10.2583 -3.98333 10.2583C-1.60833 10.2583 -0.808333 12.9667 2.36667 12.9667C3.95 12.9667 4.74167 10.2583 6.33333 10.2583C8.71667 10.2583 9.50833 12.9667 12.6917 12.9667C14.275 12.9667 15.0583 10.2583 16.6417 10.2583C19.0333 10.2583 19.825 12.9667 23 12.9667C24.5833 12.9667 25.3833 10.2583 26.9667 10.2583C29.35 10.2583 30.1417 12.9667 33.3167 12.9667C34.9 12.9667 35.7 10.2583 37.2833 10.2583C39.6667 10.2583 40.4667 12.9667 43.6333 12.9667C45.2167 12.9667 45.7333 12.1917 46.3333 11.6417V7.64167V7.625ZM46.3333 0.875C45.7333 1.425 45.225 2.70833 43.6333 2.70833C40.4583 2.70833 39.6667 0 37.2833 0C35.7 0 34.9083 2.70833 33.3167 2.70833C30.1417 2.70833 29.35 0 26.9667 0C25.3833 0 24.5917 2.70833 23.0083 2.70833C19.825 2.70833 19.0333 0 16.65 0C15.0667 0 14.2667 2.70833 12.6833 2.70833C9.5 2.70833 8.71667 0 6.33333 0C4.75 0 3.95 2.70833 2.36667 2.70833C-0.816667 2.70833 -1.60833 0 -3.98333 0C-5.56667 0 -6.05 1.93333 -7 1.93333V5.425C-6.05 5.41667 -5.575 3.5 -3.98333 3.5C-1.60833 3.5 -0.808333 6.2 2.36667 6.2C3.95 6.2 4.74167 3.5 6.33333 3.5C8.71667 3.5 9.50833 6.2 12.6917 6.2C14.275 6.2 15.0583 3.5 16.6417 3.5C19.0333 3.5 19.825 6.2 23 6.2C24.5833 6.2 25.3833 3.5 26.9667 3.5C29.35 3.5 30.1417 6.2 33.3167 6.2C34.9 6.2 35.7 3.5 37.2833 3.5C39.6667 3.5 40.4667 6.2 43.6333 6.2C45.2167 6.2 45.7333 5.43333 46.3333 4.88333V0.875Z" fill="#000063"/>
<path fill-rule="evenodd" clip-rule="evenodd" d="M32.5666 10.975L32.2749 38.3917C32.2749 39.8333 33.5832 39.8333 33.7249 38.3917L33.4332 10.975H32.5666Z" fill="#A24300" stroke="white" stroke-width="0.175"/>
<path fill-rule="evenodd" clip-rule="evenodd" d="M35.5583 21.1667L34.6417 20.175L34.425 21.1833L34.0333 19.725L33.6583 20.4583L33.5917 18.9083L33.225 19.6417L33.1583 18.0917L32.7917 18.825L32.5833 17L32.2167 17.7333L32 15.9167L31.625 16.65L31.4167 14.825L31.3083 13.9083L31.4917 13.55L31.975 13.725L32.7333 14.45L34.2583 15.9L33.3167 15.5417L34.8417 16.9917L33.8917 16.6333L35.4167 18.075L34.4667 17.725L35.85 18.8917L34.9083 18.5417L36.2834 19.7083L35.3417 19.3583L36.3917 20.625L35.3 19.9917L35.55 21.1833L35.5583 21.1667Z" fill="#006D00" stroke="white" stroke-width="0.15"/>
<path d="M34.2583 15.9L32.0833 14.6333L31.6333 16.6417M35.5583 21.1667L31.5 13.55L35.5583 21.1667Z" stroke="black" stroke-width="0.025"/>
<path d="M34.8501 16.9833L32.6585 15.725L32.2168 17.7333" stroke="black" stroke-width="0.025"/>
<path d="M35.4251 18.0667L33.2417 16.8167L32.7917 18.8167" stroke="black" stroke-width="0.025"/>
<path d="M35.8584 18.8917L33.8167 17.9L33.2334 19.65" stroke="black" stroke-width="0.025"/>
<path d="M36.2917 19.7083L34.2501 18.7167L33.6667 20.4667" stroke="black" stroke-width="0.025"/>
<path d="M36.4 20.6167L34.5417 19.2667L34.425 21.1833" stroke="black" stroke-width="0.025"/>
<path fill-rule="evenodd" clip-rule="evenodd" d="M24.9167 8.15833L26.4001 8.725L25.9667 7.6L27.2667 8.875L27.1417 7.95833L28.1917 9.49167L28.0667 8.575L29.1167 10.1083L28.9917 9.19167L30.3501 10.925L30.2251 10.0083L31.5834 11.7417L31.4667 10.825L32.8167 12.5583L33.5001 13.425L33.5584 13.8833L33.0001 13.9333L31.8334 13.575L29.4834 12.85L30.5917 12.7583L28.2501 12.0333L29.3584 11.9417L27.0167 11.2167L28.1251 11.1167L26.0917 10.6L27.2001 10.5083L25.1667 9.99167L26.2751 9.89167L24.4834 9.11667L25.9084 9.225L24.9251 8.16667L24.9167 8.15833Z" fill="#006D00" stroke="white" stroke-width="0.166667"/>
<path d="M29.4834 12.85L32.3251 13.0667L31.4667 10.825M24.9167 8.15834L33.5584 13.8833L24.9167 8.15834Z" stroke="black" stroke-width="0.025"/>
<path d="M28.25 12.0333L31.0833 12.25L30.225 10" stroke="black" stroke-width="0.025"/>
<path d="M27.0166 11.2167L29.8499 11.4333L28.9916 9.18333" stroke="black" stroke-width="0.025"/>
<path d="M26.0833 10.6L28.6249 10.6083L28.0666 8.575" stroke="black" stroke-width="0.025"/>
<path d="M25.1667 9.98333L27.7001 10L27.1417 7.95833" stroke="black" stroke-width="0.025"/>
<path d="M24.4834 9.11667L27.0751 9.59167L25.9751 7.6" stroke="black" stroke-width="0.025"/>
<path fill-rule="evenodd" clip-rule="evenodd" d="M42.1499 10.0667L40.9166 10.975L42.2832 11.125L40.3749 11.575L41.3916 11.875L39.3332 12.025L40.3499 12.325L38.2916 12.475L39.2999 12.7833L36.8916 13.0833L37.9082 13.3833L35.4999 13.6833L36.5166 13.9833L34.1082 14.2833L32.8999 14.4333L32.3999 14.2833L32.5832 13.8333L33.4749 13.0833L35.2499 11.575L34.8666 12.475L36.6416 10.975L36.2582 11.875L38.0332 10.375L37.6499 11.275L39.0832 9.91667L38.7082 10.825L40.1249 9.46667L39.7499 10.3667L41.3332 9.31667L40.6082 10.375L42.1582 10.075L42.1499 10.0667Z" fill="#006D00" stroke="white" stroke-width="0.166667"/>
<path d="M35.2416 11.575L33.7916 13.6833L36.5166 13.9833M42.1499 10.0667L32.3999 14.2833L42.1499 10.0667Z" stroke="black" stroke-width="0.025"/>
<path d="M36.6417 10.975L35.1833 13.0833L37.9084 13.3833" stroke="black" stroke-width="0.025"/>
<path d="M38.0333 10.3667L36.575 12.475L39.2999 12.7833" stroke="black" stroke-width="0.025"/>
<path d="M39.0834 9.91667L37.9751 11.875L40.3501 12.325" stroke="black" stroke-width="0.025"/>
<path d="M40.1249 9.46666L39.0166 11.425L41.3916 11.875" stroke="black" stroke-width="0.025"/>
<path d="M41.3335 9.31667L39.7168 11.125H42.2751" stroke="black" stroke-width="0.025"/>
<path fill-rule="evenodd" clip-rule="evenodd" d="M41.9501 19.1917L40.4167 18.75L40.9667 19.8333L39.5417 18.6667L39.7584 19.5583L38.5501 18.125L38.7751 19.025L37.5667 17.5833L37.7834 18.4833L36.2417 16.8667L36.4667 17.7667L34.9251 16.15L35.1501 17.05L33.6084 15.4333L32.8417 14.625L32.7334 14.175L33.2834 14.075L34.4917 14.3417L36.9084 14.875L35.8084 15.0583L38.2251 15.5917L37.1251 15.775L39.5417 16.3083L38.4417 16.5L40.5251 16.85L39.4251 17.0333L41.5084 17.3833L40.4167 17.5833L42.2751 18.2083H40.8584L41.9417 19.2083L41.9501 19.1917Z" fill="#006D00" stroke="white" stroke-width="0.166667"/>
<path d="M36.9001 14.875L34.0501 14.8917L35.1501 17.0583M41.9501 19.1917L32.7334 14.175L41.9501 19.1917Z" stroke="black" stroke-width="0.025"/>
<path d="M38.2167 15.5917L35.3667 15.6083L36.4667 17.775" stroke="black" stroke-width="0.025"/>
<path d="M39.5334 16.3083L36.6833 16.325L37.7834 18.4917" stroke="black" stroke-width="0.025"/>
<path d="M40.525 16.85L38 17.0417L38.775 19.025" stroke="black" stroke-width="0.025"/>
<path d="M41.5167 17.3917L38.9917 17.575L39.7584 19.5583" stroke="black" stroke-width="0.025"/>
<path d="M42.2749 18.2L39.6499 17.9333L40.9666 19.8333" stroke="black" stroke-width="0.025"/>
<path fill-rule="evenodd" clip-rule="evenodd" d="M25.9332 19.7167L26.7082 18.6333L25.5332 18.8083L26.9832 17.9833L26.0582 17.9417L27.7249 17.3583L26.7999 17.3083L28.4665 16.725L27.5415 16.675L29.4582 15.875L28.5249 15.8333L30.4415 15.025L29.5165 14.9833L31.4332 14.1833L32.3915 13.775L32.8582 13.8L32.8249 14.2417L32.2999 15.1083L31.2499 16.8417L31.3165 15.9583L30.2665 17.6917L30.3249 16.8L29.2749 18.5333L29.3332 17.65L28.5332 19.1667L28.5915 18.2833L27.7915 19.8L27.8499 18.9167L26.8332 20.2L27.1415 19.1L25.9332 19.7167Z" fill="#006D00" stroke="white" stroke-width="0.15"/>
<path d="M31.2583 16.8417L31.8667 14.6417L29.5167 14.9833M25.9333 19.7167L32.85 13.8L25.9333 19.7167Z" stroke="black" stroke-width="0.025"/>
<path d="M30.2666 17.6917L30.8749 15.4917L28.5249 15.825" stroke="black" stroke-width="0.025"/>
<path d="M29.2751 18.5333L29.8917 16.3333L27.5417 16.675" stroke="black" stroke-width="0.025"/>
<path d="M28.5334 19.1667L28.9 17.1833L26.8 17.3083" stroke="black" stroke-width="0.025"/>
<path d="M27.7917 19.8L28.1583 17.8167L26.0583 17.9417" stroke="black" stroke-width="0.025"/>
<path d="M26.8332 20.2L27.6665 18.2417L25.5332 18.8083" stroke="black" stroke-width="0.025"/>
<path fill-rule="evenodd" clip-rule="evenodd" d="M39.9167 5.51667L38.4251 6.51667L38.1834 5.44167L37.3084 6.925L37.1417 6.21667L36.4251 7.73333L36.3251 7.03333L35.7667 8.59167L35.4501 7.84167L34.8917 9.73333L34.5751 8.98333L34.0167 10.875L33.6917 10.125L33.1334 12.0167L32.8584 12.9667L33.0167 13.3417L33.6167 13.1417L34.6501 12.375L36.7334 10.8417L35.5334 11.2333L37.6084 9.69167L36.4084 10.0917L38.4834 8.55L37.2834 8.95L39.3667 7.75L37.9501 8.08333L40.1667 6.94167L38.8084 7.29167L40.4501 5.99167L39.0334 6.66667L39.9167 5.51667Z" fill="#006D00" stroke="white" stroke-width="0.166667"/>
<path d="M39.3333 6.05833L37.1833 7.90833L33.0166 13.3417" stroke="black" stroke-width="0.025"/>
<path d="M36.275 11.0667L33.8917 12.1917L33.6917 10.4583" stroke="black" stroke-width="0.025"/>
<path d="M37.1833 9.93333L34.7666 11.05L34.575 9.31667" stroke="black" stroke-width="0.025"/>
<path d="M38.0418 8.79167L35.6501 9.90833L35.4668 8.18333" stroke="black" stroke-width="0.025"/>
<path d="M38.7582 7.94167L36.5249 8.76667L36.2749 7.35" stroke="black" stroke-width="0.025"/>
<path d="M39.5834 7.125L37.1834 7.91666L37.1001 6.55" stroke="black" stroke-width="0.025"/>
<path d="M39.9 6.35L37.6833 7.48334L38.1167 5.76667" stroke="black" stroke-width="0.025"/>
<path fill-rule="evenodd" clip-rule="evenodd" d="M31.8416 3.65L32.5083 5.16667L33.3666 4.36667L33.225 6.01667L33.7916 5.48333L33.4833 7.1L33.9833 6.55L33.525 8.13333L34.25 7.63333L33.5833 9.49167L34.3 8.99167L33.6333 10.8667L34.3583 10.3667L33.6916 12.2333L33.3583 13.1667L32.9916 13.4167L32.5916 12.975L32.175 11.8583L31.3416 9.61667L32.125 10.4917L31.2833 8.24167L32.0666 9.125L31.2333 6.875L32 7.75L30.9583 5.8L31.9583 6.725L30.7583 4.73333L31.7 5.65L31.0916 3.8L31.8916 5.01667L31.8416 3.65Z" fill="#006D00" stroke="white" stroke-width="0.166667"/>
<path d="M32.0166 4.36667L32.7249 6.90834L32.9916 13.4083" stroke="black" stroke-width="0.025"/>
<path d="M31.5833 10.0167L32.9333 12.0417L34.1583 10.65" stroke="black" stroke-width="0.025"/>
<path d="M31.5 8.64167L32.875 10.675L34.1 9.28333" stroke="black" stroke-width="0.025"/>
<path d="M31.4583 7.275L32.8249 9.30833L34.0249 7.91667" stroke="black" stroke-width="0.025"/>
<path d="M31.3667 6.24167L32.7667 7.94167L33.85 6.85834" stroke="black" stroke-width="0.025"/>
<path d="M31.1667 5.16667L32.7251 6.91667L33.6417 5.78333" stroke="black" stroke-width="0.025"/>
<path d="M31.3584 4.36667L32.5584 6.325L33.2334 4.66667" stroke="black" stroke-width="0.025"/>
<path fill-rule="evenodd" clip-rule="evenodd" d="M22.9167 14.8333L24.8584 13.4833L23.8834 12.9833L25.5917 13.2667L25.0084 12.4917L26.6584 13.1167L26.0751 12.3417L27.7334 12.9583L27.1501 12.1917L29.1501 12.8667L28.5667 12.0917L30.5084 13.1L29.9251 12.325L31.9251 13.0083L32.9001 13.5083L33.1917 13.8917L32.8001 14.1667L31.7251 14.3167L30.0001 15.0333L30.3167 14.4167L28.1751 14.7167L28.9501 14.1833L26.7584 14.8167L27.5417 14.275L25.6917 14.9667L26.5167 14.1L24.6167 15.1167L25.4501 14.25L23.8834 15.3333L24.7584 14.1333L22.9167 14.8333Z" fill="#006D00" stroke="white" stroke-width="0.158333"/>
<path d="M23.5249 14.4667L25.5416 13.5917L26.6166 13.4417L27.5082 13.425L29.0499 13.525L30.4416 13.5833L33.1916 13.8917" stroke="black" stroke-width="0.025"/>
<path d="M30.2667 14.7417L31.8084 13.7917L30.2417 12.5667" stroke="black" stroke-width="0.025"/>
<path d="M28.5417 14.6L30.4334 13.5833L28.8751 12.35" stroke="black" stroke-width="0.025"/>
<path d="M25.0083 14.85L26.6166 13.4417L25.3166 12.7333M27.3083 14.5667L29.05 13.525L27.4666 12.3833L27.3083 14.5667Z" stroke="black" stroke-width="0.025"/>
<path d="M26.0751 14.7L27.6584 13.4333L26.3917 12.5667M24.2917 14.9417L25.5417 13.6L24.5417 13.225L24.2917 14.9417Z" stroke="black" stroke-width="0.025"/>
<path fill-rule="evenodd" clip-rule="evenodd" d="M29.4586 29.5951L29.4402 27.3221L28.7817 26.2605C28.6168 25.7386 28.6976 25.4866 28.9649 25.4688C29.2311 25.4529 29.4952 25.6037 29.8789 25.6206C30.2626 25.6374 30.1904 25.0312 30.7574 25.0481C31.3243 25.065 32.3127 25.3686 33.1534 25.4192C33.9952 25.4688 34.4339 25.1493 35.4039 25.1156C36.374 25.0818 36.6294 25.5362 36.6844 25.5362C36.7394 25.5362 37.0142 25.3517 37.288 25.318C37.5629 25.2842 37.6545 25.4192 37.6545 25.4192C37.6545 25.4192 37.6362 25.9916 37.5079 26.328C37.3796 26.6653 36.9226 27.2209 36.9043 27.2209C36.886 27.2209 36.7394 29.6963 36.7394 29.7132C36.7394 29.73 29.4586 29.6457 29.4586 29.5951Z" fill="#CC0000" stroke="black" stroke-width="0.0103411"/>
<path fill-rule="evenodd" clip-rule="evenodd" d="M36.9894 27.2659C36.9894 27.2659 37.7223 26.75 37.7417 25.5088C37.7525 24.7944 37.3709 24.2785 36.416 24.2785C35.0794 24.2785 33.1706 24.8054 33.1706 24.8054V24.981C33.1706 24.981 34.6979 24.4541 36.4171 24.4541C37.1802 24.4541 37.5628 24.9701 37.5628 25.4979C37.5628 26.3769 36.7975 27.2669 36.7975 27.2669V28.6727H36.9894V27.2659Z" fill="#FFF100" stroke="black" stroke-width="0.0103411"/>
<path fill-rule="evenodd" clip-rule="evenodd" d="M37.3881 26.8989C37.3861 26.9231 37.3896 26.9475 37.3983 26.9704C37.407 26.9934 37.4208 27.0144 37.4387 27.0322C37.4567 27.05 37.4785 27.0643 37.5027 27.074C37.5269 27.0837 37.553 27.0887 37.5794 27.0887C37.6058 27.0887 37.6319 27.0837 37.6561 27.074C37.6803 27.0643 37.7021 27.05 37.72 27.0322C37.738 27.0144 37.7518 26.9934 37.7605 26.9704C37.7692 26.9475 37.7727 26.9231 37.7707 26.8989C37.7671 26.8545 37.7453 26.8129 37.7099 26.7826C37.6744 26.7523 37.6278 26.7355 37.5794 26.7355C37.531 26.7355 37.4844 26.7523 37.4489 26.7826C37.4134 26.8129 37.3917 26.8545 37.3881 26.8989Z" fill="white" stroke="black" stroke-width="0.0103411"/>
<path fill-rule="evenodd" clip-rule="evenodd" d="M37.5775 26.4964C37.5755 26.5207 37.579 26.545 37.5877 26.568C37.5965 26.5909 37.6102 26.612 37.6282 26.6298C37.6461 26.6476 37.6679 26.6618 37.6921 26.6715C37.7163 26.6812 37.7424 26.6863 37.7688 26.6863C37.7952 26.6863 37.8214 26.6812 37.8456 26.6715C37.8698 26.6618 37.8915 26.6476 37.9095 26.6298C37.9274 26.612 37.9412 26.5909 37.9499 26.568C37.9587 26.545 37.9621 26.5207 37.9602 26.4964C37.9565 26.452 37.9348 26.4105 37.8993 26.3802C37.8638 26.3499 37.8172 26.3331 37.7688 26.3331C37.7204 26.3331 37.6738 26.3499 37.6384 26.3802C37.6029 26.4105 37.5811 26.452 37.5775 26.4964Z" fill="white" stroke="black" stroke-width="0.0103411"/>
<path fill-rule="evenodd" clip-rule="evenodd" d="M37.6801 26.0861C37.6781 26.1103 37.6816 26.1347 37.6903 26.1576C37.699 26.1806 37.7128 26.2016 37.7307 26.2194C37.7487 26.2373 37.7704 26.2515 37.7946 26.2612C37.8188 26.2709 37.845 26.2759 37.8714 26.2759C37.8978 26.2759 37.9239 26.2709 37.9481 26.2612C37.9723 26.2515 37.9941 26.2373 38.012 26.2194C38.03 26.2016 38.0438 26.1806 38.0525 26.1576C38.0612 26.1347 38.0647 26.1103 38.0627 26.0861C38.0591 26.0417 38.0373 26.0002 38.0019 25.9699C37.9664 25.9396 37.9198 25.9227 37.8714 25.9227C37.823 25.9227 37.7764 25.9396 37.7409 25.9699C37.7054 26.0002 37.6837 26.0417 37.6801 26.0861Z" fill="white" stroke="black" stroke-width="0.0103411"/>
<path fill-rule="evenodd" clip-rule="evenodd" d="M37.7511 25.6521C37.7491 25.6763 37.7526 25.7007 37.7613 25.7236C37.77 25.7466 37.7838 25.7676 37.8018 25.7854C37.8197 25.8032 37.8415 25.8175 37.8657 25.8272C37.8899 25.8369 37.916 25.8419 37.9424 25.8419C37.9688 25.8419 37.9949 25.8369 38.0192 25.8272C38.0434 25.8175 38.0651 25.8032 38.0831 25.7854C38.101 25.7676 38.1148 25.7466 38.1235 25.7236C38.1322 25.7007 38.1357 25.6763 38.1337 25.6521C38.1301 25.6077 38.1084 25.5661 38.0729 25.5358C38.0374 25.5055 37.9908 25.4887 37.9424 25.4887C37.894 25.4887 37.8474 25.5055 37.8119 25.5358C37.7765 25.5661 37.7547 25.6077 37.7511 25.6521Z" fill="white" stroke="black" stroke-width="0.0103411"/>
<path fill-rule="evenodd" clip-rule="evenodd" d="M37.7355 25.1786C37.7335 25.2029 37.737 25.2272 37.7457 25.2502C37.7544 25.2731 37.7682 25.2941 37.7861 25.312C37.8041 25.3298 37.8259 25.344 37.8501 25.3537C37.8743 25.3634 37.9004 25.3685 37.9268 25.3685C37.9532 25.3685 37.9793 25.3634 38.0035 25.3537C38.0277 25.344 38.0495 25.3298 38.0674 25.312C38.0854 25.2941 38.0992 25.2731 38.1079 25.2502C38.1166 25.2272 38.1201 25.2029 38.1181 25.1786C38.1145 25.1342 38.0928 25.0927 38.0573 25.0624C38.0218 25.0321 37.9752 25.0152 37.9268 25.0152C37.8784 25.0152 37.8318 25.0321 37.7963 25.0624C37.7608 25.0927 37.7391 25.1342 37.7355 25.1786Z" fill="white" stroke="black" stroke-width="0.0103411"/>
<path fill-rule="evenodd" clip-rule="evenodd" d="M37.1119 27.254C37.11 27.2782 37.1134 27.3026 37.1222 27.3255C37.1309 27.3485 37.1447 27.3695 37.1626 27.3873C37.1806 27.4051 37.2023 27.4194 37.2265 27.4291C37.2507 27.4388 37.2769 27.4438 37.3033 27.4438C37.3297 27.4438 37.3558 27.4388 37.38 27.4291C37.4042 27.4194 37.426 27.4051 37.4439 27.3873C37.4619 27.3695 37.4756 27.3485 37.4844 27.3255C37.4931 27.3026 37.4966 27.2782 37.4946 27.254C37.491 27.2096 37.4692 27.168 37.4337 27.1377C37.3983 27.1074 37.3517 27.0906 37.3033 27.0906C37.2549 27.0906 37.2083 27.1074 37.1728 27.1377C37.1373 27.168 37.1156 27.2096 37.1119 27.254Z" fill="white" stroke="black" stroke-width="0.0103411"/>
<path fill-rule="evenodd" clip-rule="evenodd" d="M37.5697 24.7288C37.5677 24.7531 37.5712 24.7774 37.5799 24.8004C37.5886 24.8233 37.6024 24.8443 37.6204 24.8622C37.6383 24.88 37.6601 24.8942 37.6843 24.9039C37.7085 24.9136 37.7346 24.9187 37.761 24.9187C37.7874 24.9187 37.8136 24.9136 37.8378 24.9039C37.862 24.8942 37.8837 24.88 37.9017 24.8622C37.9196 24.8443 37.9334 24.8233 37.9421 24.8004C37.9508 24.7774 37.9543 24.7531 37.9523 24.7288C37.9487 24.6844 37.927 24.6429 37.8915 24.6126C37.856 24.5823 37.8094 24.5655 37.761 24.5655C37.7126 24.5655 37.666 24.5823 37.6305 24.6126C37.5951 24.6429 37.5733 24.6844 37.5697 24.7288Z" fill="white" stroke="black" stroke-width="0.0103411"/>
<path fill-rule="evenodd" clip-rule="evenodd" d="M37.2145 24.3737C37.2125 24.398 37.216 24.4223 37.2247 24.4453C37.2334 24.4682 37.2472 24.4893 37.2651 24.5071C37.2831 24.5249 37.3049 24.5391 37.3291 24.5488C37.3533 24.5585 37.3794 24.5636 37.4058 24.5636C37.4322 24.5636 37.4583 24.5585 37.4825 24.5488C37.5067 24.5391 37.5285 24.5249 37.5465 24.5071C37.5644 24.4893 37.5782 24.4682 37.5869 24.4453C37.5956 24.4223 37.5991 24.398 37.5971 24.3737C37.5935 24.3293 37.5718 24.2878 37.5363 24.2575C37.5008 24.2272 37.4542 24.2104 37.4058 24.2104C37.3574 24.2104 37.3108 24.2272 37.2753 24.2575C37.2398 24.2878 37.2181 24.3293 37.2145 24.3737Z" fill="white" stroke="black" stroke-width="0.0103411"/>
<path fill-rule="evenodd" clip-rule="evenodd" d="M36.7411 24.137C36.7391 24.1612 36.7426 24.1856 36.7513 24.2085C36.76 24.2315 36.7738 24.2525 36.7918 24.2703C36.8097 24.2882 36.8315 24.3024 36.8557 24.3121C36.8799 24.3218 36.906 24.3268 36.9324 24.3268C36.9588 24.3268 36.9849 24.3218 37.0091 24.3121C37.0333 24.3024 37.0551 24.2882 37.0731 24.2703C37.091 24.2525 37.1048 24.2315 37.1135 24.2085C37.1222 24.1856 37.1257 24.1612 37.1237 24.137C37.1201 24.0926 37.0984 24.0511 37.0629 24.0208C37.0274 23.9905 36.9808 23.9736 36.9324 23.9736C36.884 23.9736 36.8374 23.9905 36.8019 24.0208C36.7664 24.0511 36.7447 24.0926 36.7411 24.137Z" fill="white" stroke="black" stroke-width="0.0103411"/>
<path fill-rule="evenodd" clip-rule="evenodd" d="M36.2677 24.1054C36.2657 24.1297 36.2692 24.154 36.2779 24.177C36.2866 24.1999 36.3004 24.221 36.3184 24.2388C36.3363 24.2566 36.3581 24.2708 36.3823 24.2805C36.4065 24.2902 36.4326 24.2953 36.459 24.2953C36.4854 24.2953 36.5116 24.2902 36.5358 24.2805C36.56 24.2708 36.5817 24.2566 36.5997 24.2388C36.6176 24.221 36.6314 24.1999 36.6401 24.177C36.6488 24.154 36.6523 24.1297 36.6503 24.1054C36.6467 24.061 36.625 24.0195 36.5895 23.9892C36.554 23.9589 36.5074 23.9421 36.459 23.9421C36.4106 23.9421 36.364 23.9589 36.3285 23.9892C36.2931 24.0195 36.2713 24.061 36.2677 24.1054Z" fill="white" stroke="black" stroke-width="0.0103411"/>
<path fill-rule="evenodd" clip-rule="evenodd" d="M35.7548 24.1212C35.7528 24.1455 35.7563 24.1698 35.765 24.1928C35.7737 24.2157 35.7875 24.2367 35.8054 24.2546C35.8234 24.2724 35.8452 24.2866 35.8694 24.2963C35.8936 24.306 35.9197 24.311 35.9461 24.311C35.9725 24.311 35.9986 24.306 36.0228 24.2963C36.047 24.2866 36.0688 24.2724 36.0867 24.2546C36.1047 24.2367 36.1185 24.2157 36.1272 24.1928C36.1359 24.1698 36.1394 24.1455 36.1374 24.1212C36.1338 24.0768 36.112 24.0353 36.0766 24.005C36.0411 23.9747 35.9945 23.9578 35.9461 23.9578C35.8977 23.9578 35.8511 23.9747 35.8156 24.005C35.7801 24.0353 35.7584 24.0768 35.7548 24.1212Z" fill="white" stroke="black" stroke-width="0.0103411"/>
<path fill-rule="evenodd" clip-rule="evenodd" d="M35.2418 24.1922C35.2398 24.2165 35.2433 24.2408 35.252 24.2638C35.2608 24.2867 35.2745 24.3078 35.2925 24.3256C35.3105 24.3434 35.3322 24.3576 35.3564 24.3673C35.3806 24.377 35.4067 24.3821 35.4331 24.3821C35.4595 24.3821 35.4857 24.377 35.5099 24.3673C35.5341 24.3576 35.5558 24.3434 35.5738 24.3256C35.5918 24.3078 35.6055 24.2867 35.6142 24.2638C35.623 24.2408 35.6264 24.2165 35.6245 24.1922C35.6208 24.1478 35.5991 24.1063 35.5636 24.076C35.5281 24.0457 35.4815 24.0289 35.4331 24.0289C35.3847 24.0289 35.3381 24.0457 35.3027 24.076C35.2672 24.1063 35.2455 24.1478 35.2418 24.1922Z" fill="white" stroke="black" stroke-width="0.0103411"/>
<path fill-rule="evenodd" clip-rule="evenodd" d="M34.7367 24.2554C34.7347 24.2796 34.7382 24.304 34.7469 24.3269C34.7556 24.3498 34.7694 24.3709 34.7874 24.3887C34.8053 24.4065 34.8271 24.4207 34.8513 24.4305C34.8755 24.4402 34.9016 24.4452 34.928 24.4452C34.9544 24.4452 34.9805 24.4402 35.0047 24.4305C35.0289 24.4207 35.0507 24.4065 35.0687 24.3887C35.0866 24.3709 35.1004 24.3498 35.1091 24.3269C35.1178 24.304 35.1213 24.2796 35.1193 24.2554C35.1157 24.2109 35.094 24.1694 35.0585 24.1391C35.023 24.1088 34.9764 24.092 34.928 24.092C34.8796 24.092 34.833 24.1088 34.7975 24.1391C34.7621 24.1694 34.7403 24.2109 34.7367 24.2554Z" fill="white" stroke="black" stroke-width="0.0103411"/>
<path fill-rule="evenodd" clip-rule="evenodd" d="M34.1845 24.3343C34.1825 24.3585 34.186 24.3829 34.1947 24.4058C34.2034 24.4288 34.2172 24.4498 34.2351 24.4676C34.2531 24.4854 34.2748 24.4996 34.299 24.5094C34.3232 24.5191 34.3494 24.5241 34.3758 24.5241C34.4022 24.5241 34.4283 24.5191 34.4525 24.5094C34.4767 24.4996 34.4985 24.4854 34.5164 24.4676C34.5344 24.4498 34.5482 24.4288 34.5569 24.4058C34.5656 24.3829 34.5691 24.3585 34.5671 24.3343C34.5635 24.2899 34.5417 24.2483 34.5063 24.218C34.4708 24.1877 34.4242 24.1709 34.3758 24.1709C34.3274 24.1709 34.2808 24.1877 34.2453 24.218C34.2098 24.2483 34.1881 24.2899 34.1845 24.3343Z" fill="white" stroke="black" stroke-width="0.0103411"/>
<path fill-rule="evenodd" clip-rule="evenodd" d="M33.7108 24.4605C33.7088 24.4848 33.7123 24.5091 33.721 24.5321C33.7298 24.555 33.7435 24.5761 33.7615 24.5939C33.7794 24.6117 33.8012 24.6259 33.8254 24.6356C33.8496 24.6453 33.8757 24.6504 33.9021 24.6504C33.9285 24.6504 33.9547 24.6453 33.9789 24.6356C34.0031 24.6259 34.0248 24.6117 34.0428 24.5939C34.0607 24.5761 34.0745 24.555 34.0832 24.5321C34.092 24.5091 34.0954 24.4848 34.0935 24.4605C34.0898 24.4161 34.0681 24.3746 34.0326 24.3443C33.9971 24.314 33.9505 24.2972 33.9021 24.2972C33.8537 24.2972 33.8071 24.314 33.7717 24.3443C33.7362 24.3746 33.7144 24.4161 33.7108 24.4605Z" fill="white" stroke="black" stroke-width="0.0103411"/>
<path fill-rule="evenodd" clip-rule="evenodd" d="M28.952 26.8989C28.954 26.9231 28.9505 26.9475 28.9418 26.9704C28.9331 26.9933 28.9193 27.0144 28.9014 27.0322C28.8834 27.05 28.8616 27.0642 28.8374 27.074C28.8132 27.0837 28.7871 27.0887 28.7607 27.0887C28.7343 27.0887 28.7082 27.0837 28.684 27.074C28.6598 27.0642 28.638 27.05 28.6201 27.0322C28.6021 27.0144 28.5883 26.9933 28.5796 26.9704C28.5709 26.9475 28.5674 26.9231 28.5694 26.8989C28.573 26.8544 28.5947 26.8129 28.6302 26.7826C28.6657 26.7523 28.7123 26.7355 28.7607 26.7355C28.8091 26.7355 28.8557 26.7523 28.8912 26.7826C28.9267 26.8129 28.9484 26.8544 28.952 26.8989Z" fill="white" stroke="black" stroke-width="0.0103411"/>
<path fill-rule="evenodd" clip-rule="evenodd" d="M28.7548 26.4964C28.7567 26.5207 28.7533 26.545 28.7445 26.568C28.7358 26.5909 28.722 26.6119 28.7041 26.6298C28.6861 26.6476 28.6644 26.6618 28.6402 26.6715C28.616 26.6812 28.5898 26.6862 28.5634 26.6862C28.537 26.6862 28.5109 26.6812 28.4867 26.6715C28.4625 26.6618 28.4407 26.6476 28.4228 26.6298C28.4048 26.6119 28.3911 26.5909 28.3823 26.568C28.3736 26.545 28.3701 26.5207 28.3721 26.4964C28.3757 26.452 28.3975 26.4105 28.433 26.3802C28.4684 26.3499 28.515 26.333 28.5634 26.333C28.6118 26.333 28.6584 26.3499 28.6939 26.3802C28.7294 26.4105 28.7511 26.452 28.7548 26.4964Z" fill="white" stroke="black" stroke-width="0.0103411"/>
<path fill-rule="evenodd" clip-rule="evenodd" d="M28.66 26.0861C28.662 26.1103 28.6585 26.1347 28.6498 26.1576C28.6411 26.1806 28.6273 26.2016 28.6094 26.2194C28.5914 26.2372 28.5696 26.2515 28.5454 26.2612C28.5212 26.2709 28.4951 26.2759 28.4687 26.2759C28.4423 26.2759 28.4162 26.2709 28.392 26.2612C28.3678 26.2515 28.346 26.2372 28.3281 26.2194C28.3101 26.2016 28.2963 26.1806 28.2876 26.1576C28.2789 26.1347 28.2754 26.1103 28.2774 26.0861C28.281 26.0417 28.3027 26.0001 28.3382 25.9698C28.3737 25.9395 28.4203 25.9227 28.4687 25.9227C28.5171 25.9227 28.5637 25.9395 28.5992 25.9698C28.6347 26.0001 28.6564 26.0417 28.66 26.0861Z" fill="white" stroke="black" stroke-width="0.0103411"/>
<path fill-rule="evenodd" clip-rule="evenodd" d="M28.589 25.6521C28.591 25.6763 28.5875 25.7007 28.5788 25.7236C28.57 25.7465 28.5563 25.7676 28.5383 25.7854C28.5204 25.8032 28.4986 25.8174 28.4744 25.8272C28.4502 25.8369 28.4241 25.8419 28.3977 25.8419C28.3713 25.8419 28.3451 25.8369 28.3209 25.8272C28.2967 25.8174 28.275 25.8032 28.257 25.7854C28.2391 25.7676 28.2253 25.7465 28.2166 25.7236C28.2079 25.7007 28.2044 25.6763 28.2063 25.6521C28.21 25.6076 28.2317 25.5661 28.2672 25.5358C28.3027 25.5055 28.3493 25.4887 28.3977 25.4887C28.4461 25.4887 28.4927 25.5055 28.5281 25.5358C28.5636 25.5661 28.5854 25.6076 28.589 25.6521Z" fill="white" stroke="black" stroke-width="0.0103411"/>
<path fill-rule="evenodd" clip-rule="evenodd" d="M28.6049 25.1786C28.6068 25.2028 28.6034 25.2272 28.5946 25.2501C28.5859 25.2731 28.5721 25.2941 28.5542 25.3119C28.5362 25.3298 28.5145 25.344 28.4903 25.3537C28.4661 25.3634 28.4399 25.3684 28.4135 25.3684C28.3871 25.3684 28.361 25.3634 28.3368 25.3537C28.3126 25.344 28.2908 25.3298 28.2729 25.3119C28.2549 25.2941 28.2412 25.2731 28.2324 25.2501C28.2237 25.2272 28.2202 25.2028 28.2222 25.1786C28.2258 25.1342 28.2476 25.0927 28.2831 25.0624C28.3185 25.0321 28.3651 25.0152 28.4135 25.0152C28.4619 25.0152 28.5085 25.0321 28.544 25.0624C28.5795 25.0927 28.6012 25.1342 28.6049 25.1786Z" fill="white" stroke="black" stroke-width="0.0103411"/>
<path fill-rule="evenodd" clip-rule="evenodd" d="M28.7626 24.7288C28.7645 24.7531 28.7611 24.7774 28.7523 24.8003C28.7436 24.8233 28.7299 24.8443 28.7119 24.8622C28.6939 24.88 28.6722 24.8942 28.648 24.9039C28.6238 24.9136 28.5977 24.9186 28.5713 24.9186C28.5448 24.9186 28.5187 24.9136 28.4945 24.9039C28.4703 24.8942 28.4486 24.88 28.4306 24.8622C28.4126 24.8443 28.3989 24.8233 28.3902 24.8003C28.3814 24.7774 28.378 24.7531 28.3799 24.7288C28.3836 24.6844 28.4053 24.6429 28.4408 24.6126C28.4762 24.5823 28.5229 24.5654 28.5713 24.5654C28.6196 24.5654 28.6663 24.5823 28.7017 24.6126C28.7372 24.6429 28.7589 24.6844 28.7626 24.7288Z" fill="white" stroke="black" stroke-width="0.0103411"/>
<path fill-rule="evenodd" clip-rule="evenodd" d="M29.1097 24.3737C29.1117 24.398 29.1082 24.4223 29.0995 24.4453C29.0908 24.4682 29.077 24.4892 29.0591 24.5071C29.0411 24.5249 29.0193 24.5391 28.9951 24.5488C28.9709 24.5585 28.9448 24.5635 28.9184 24.5635C28.892 24.5635 28.8659 24.5585 28.8417 24.5488C28.8175 24.5391 28.7957 24.5249 28.7778 24.5071C28.7598 24.4892 28.746 24.4682 28.7373 24.4453C28.7286 24.4223 28.7251 24.398 28.7271 24.3737C28.7307 24.3293 28.7525 24.2878 28.7879 24.2575C28.8234 24.2272 28.87 24.2103 28.9184 24.2103C28.9668 24.2103 29.0134 24.2272 29.0489 24.2575C29.0844 24.2878 29.1061 24.3293 29.1097 24.3737Z" fill="white" stroke="black" stroke-width="0.0103411"/>
<path fill-rule="evenodd" clip-rule="evenodd" d="M29.5912 24.137C29.5932 24.1612 29.5897 24.1856 29.581 24.2085C29.5722 24.2315 29.5585 24.2525 29.5405 24.2703C29.5226 24.2881 29.5008 24.3024 29.4766 24.3121C29.4524 24.3218 29.4263 24.3268 29.3999 24.3268C29.3735 24.3268 29.3473 24.3218 29.3231 24.3121C29.2989 24.3024 29.2772 24.2881 29.2592 24.2703C29.2413 24.2525 29.2275 24.2315 29.2188 24.2085C29.21 24.1856 29.2066 24.1612 29.2085 24.137C29.2122 24.0926 29.2339 24.051 29.2694 24.0207C29.3049 23.9904 29.3515 23.9736 29.3999 23.9736C29.4483 23.9736 29.4949 23.9904 29.5303 24.0207C29.5658 24.051 29.5876 24.0926 29.5912 24.137Z" fill="white" stroke="black" stroke-width="0.0103411"/>
<path fill-rule="evenodd" clip-rule="evenodd" d="M30.0646 24.1054C30.0665 24.1297 30.0631 24.154 30.0544 24.177C30.0456 24.1999 30.0319 24.2209 30.0139 24.2388C29.9959 24.2566 29.9742 24.2708 29.95 24.2805C29.9258 24.2902 29.8997 24.2953 29.8733 24.2953C29.8468 24.2953 29.8207 24.2902 29.7965 24.2805C29.7723 24.2708 29.7506 24.2566 29.7326 24.2388C29.7146 24.2209 29.7009 24.1999 29.6922 24.177C29.6834 24.154 29.68 24.1297 29.6819 24.1054C29.6856 24.061 29.7073 24.0195 29.7428 23.9892C29.7782 23.9589 29.8249 23.942 29.8733 23.942C29.9216 23.942 29.9683 23.9589 30.0037 23.9892C30.0392 24.0195 30.0609 24.061 30.0646 24.1054Z" fill="white" stroke="black" stroke-width="0.0103411"/>
<path fill-rule="evenodd" clip-rule="evenodd" d="M30.5775 24.1212C30.5795 24.1454 30.576 24.1698 30.5673 24.1927C30.5586 24.2157 30.5448 24.2367 30.5268 24.2545C30.5089 24.2724 30.4871 24.2866 30.4629 24.2963C30.4387 24.306 30.4126 24.311 30.3862 24.311C30.3598 24.311 30.3337 24.306 30.3095 24.2963C30.2853 24.2866 30.2635 24.2724 30.2455 24.2545C30.2276 24.2367 30.2138 24.2157 30.2051 24.1927C30.1964 24.1698 30.1929 24.1454 30.1949 24.1212C30.1985 24.0768 30.2202 24.0353 30.2557 24.005C30.2912 23.9747 30.3378 23.9578 30.3862 23.9578C30.4346 23.9578 30.4812 23.9747 30.5167 24.005C30.5522 24.0353 30.5739 24.0768 30.5775 24.1212Z" fill="white" stroke="black" stroke-width="0.0103411"/>
<path fill-rule="evenodd" clip-rule="evenodd" d="M31.0904 24.1922C31.0924 24.2165 31.0889 24.2408 31.0802 24.2638C31.0715 24.2867 31.0577 24.3077 31.0398 24.3256C31.0218 24.3434 31.0001 24.3576 30.9759 24.3673C30.9517 24.377 30.9255 24.3821 30.8991 24.3821C30.8727 24.3821 30.8466 24.377 30.8224 24.3673C30.7982 24.3576 30.7764 24.3434 30.7585 24.3256C30.7405 24.3077 30.7268 24.2867 30.718 24.2638C30.7093 24.2408 30.7058 24.2165 30.7078 24.1922C30.7114 24.1478 30.7332 24.1063 30.7686 24.076C30.8041 24.0457 30.8507 24.0288 30.8991 24.0288C30.9475 24.0288 30.9941 24.0457 31.0296 24.076C31.0651 24.1063 31.0868 24.1478 31.0904 24.1922Z" fill="white" stroke="black" stroke-width="0.0103411"/>
<path fill-rule="evenodd" clip-rule="evenodd" d="M31.6034 24.2554C31.6054 24.2796 31.6019 24.3039 31.5932 24.3269C31.5845 24.3498 31.5707 24.3709 31.5527 24.3887C31.5348 24.4065 31.513 24.4207 31.4888 24.4304C31.4646 24.4402 31.4385 24.4452 31.4121 24.4452C31.3857 24.4452 31.3595 24.4402 31.3353 24.4304C31.3111 24.4207 31.2894 24.4065 31.2714 24.3887C31.2535 24.3709 31.2397 24.3498 31.231 24.3269C31.2223 24.3039 31.2188 24.2796 31.2208 24.2554C31.2244 24.2109 31.2461 24.1694 31.2816 24.1391C31.3171 24.1088 31.3637 24.092 31.4121 24.092C31.4605 24.092 31.5071 24.1088 31.5426 24.1391C31.578 24.1694 31.5998 24.2109 31.6034 24.2554Z" fill="white" stroke="black" stroke-width="0.0103411"/>
<path fill-rule="evenodd" clip-rule="evenodd" d="M32.1478 24.3343C32.1498 24.3585 32.1463 24.3829 32.1376 24.4058C32.1289 24.4287 32.1151 24.4498 32.0972 24.4676C32.0792 24.4854 32.0574 24.4996 32.0332 24.5094C32.009 24.5191 31.9829 24.5241 31.9565 24.5241C31.9301 24.5241 31.904 24.5191 31.8798 24.5094C31.8556 24.4996 31.8338 24.4854 31.8159 24.4676C31.7979 24.4498 31.7841 24.4287 31.7754 24.4058C31.7667 24.3829 31.7632 24.3585 31.7652 24.3343C31.7688 24.2898 31.7905 24.2483 31.826 24.218C31.8615 24.1877 31.9081 24.1709 31.9565 24.1709C32.0049 24.1709 32.0515 24.1877 32.087 24.218C32.1225 24.2483 32.1442 24.2898 32.1478 24.3343Z" fill="white" stroke="black" stroke-width="0.0103411"/>
<path fill-rule="evenodd" clip-rule="evenodd" d="M32.6215 24.4605C32.6234 24.4848 32.62 24.5091 32.6112 24.5321C32.6025 24.555 32.5887 24.576 32.5708 24.5939C32.5528 24.6117 32.5311 24.6259 32.5069 24.6356C32.4827 24.6453 32.4565 24.6503 32.4301 24.6503C32.4037 24.6503 32.3776 24.6453 32.3534 24.6356C32.3292 24.6259 32.3074 24.6117 32.2895 24.5939C32.2715 24.576 32.2578 24.555 32.249 24.5321C32.2403 24.5091 32.2368 24.4848 32.2388 24.4605C32.2424 24.4161 32.2642 24.3746 32.2997 24.3443C32.3351 24.314 32.3817 24.2971 32.4301 24.2971C32.4785 24.2971 32.5251 24.314 32.5606 24.3443C32.5961 24.3746 32.6178 24.4161 32.6215 24.4605Z" fill="white" stroke="black" stroke-width="0.0103411"/>
<path fill-rule="evenodd" clip-rule="evenodd" d="M29.2203 27.254C29.2223 27.2782 29.2188 27.3026 29.2101 27.3255C29.2014 27.3484 29.1876 27.3695 29.1697 27.3873C29.1517 27.4051 29.1299 27.4193 29.1057 27.4291C29.0815 27.4388 29.0554 27.4438 29.029 27.4438C29.0026 27.4438 28.9765 27.4388 28.9523 27.4291C28.9281 27.4193 28.9063 27.4051 28.8884 27.3873C28.8704 27.3695 28.8566 27.3484 28.8479 27.3255C28.8392 27.3026 28.8357 27.2782 28.8377 27.254C28.8413 27.2095 28.8631 27.168 28.8985 27.1377C28.934 27.1074 28.9806 27.0906 29.029 27.0906C29.0774 27.0906 29.124 27.1074 29.1595 27.1377C29.195 27.168 29.2167 27.2095 29.2203 27.254Z" fill="white" stroke="black" stroke-width="0.0103411"/>
<path fill-rule="evenodd" clip-rule="evenodd" d="M29.3507 27.2659C29.3507 27.2659 28.6178 26.75 28.5984 25.5088C28.5876 24.7944 28.9691 24.2785 29.9241 24.2785C31.2606 24.2785 33.1695 24.8053 33.1695 24.8053V24.981C33.1695 24.981 31.6422 24.4541 29.923 24.4541C29.1599 24.4541 28.7773 24.97 28.7773 25.4979C28.7773 26.3769 29.5426 27.2669 29.5426 27.2669V28.6727H29.3507V27.2659Z" fill="#FFF100" stroke="black" stroke-width="0.0103411"/>
<path fill-rule="evenodd" clip-rule="evenodd" d="M30.6819 27.9174C30.6819 27.9174 30.7369 27.7836 30.9366 27.7836C31.0724 27.7836 31.191 27.9174 31.191 28.0512V28.3192H31.3185V28.0512C31.3185 27.9174 31.4457 27.7836 31.5729 27.7836C31.764 27.7836 31.8276 27.9174 31.8276 27.9174C31.8276 27.9174 31.8276 27.5156 31.5729 27.5156C31.3821 27.5156 31.3185 27.6494 31.3185 27.6494C31.3185 27.6494 31.3821 27.4487 31.3821 27.2477C31.3821 27.0466 31.2549 26.9128 31.2549 26.9128C31.2549 26.9385 31.1274 27.0469 31.1274 27.2477C31.1274 27.4484 31.191 27.6494 31.191 27.6494C31.191 27.6494 31.1274 27.5156 30.9366 27.5156C30.6819 27.5156 30.6819 27.9174 30.6819 27.9174Z" fill="#FFF100" stroke="black" stroke-width="0.0110554"/>
<path fill-rule="evenodd" clip-rule="evenodd" d="M34.501 27.9174C34.501 27.9174 34.5559 27.7836 34.7557 27.7836C34.8915 27.7836 35.0101 27.9174 35.0101 28.0512V28.3192H35.1376V28.0512C35.1376 27.9174 35.2648 27.7836 35.392 27.7836C35.5831 27.7836 35.6467 27.9174 35.6467 27.9174C35.6467 27.9174 35.6467 27.5156 35.392 27.5156C35.2012 27.5156 35.1376 27.6494 35.1376 27.6494C35.1376 27.6494 35.2012 27.4487 35.2012 27.2477C35.2012 27.0466 35.074 26.9128 35.074 26.9128C35.074 26.9385 34.9465 27.0469 34.9465 27.2477C34.9465 27.4484 35.0101 27.6494 35.0101 27.6494C35.0101 27.6494 34.9465 27.5156 34.7557 27.5156C34.501 27.5156 34.501 27.9174 34.501 27.9174Z" fill="#FFF100" stroke="black" stroke-width="0.0110554"/>
<path fill-rule="evenodd" clip-rule="evenodd" d="M29.3506 29.7274V28.1449C29.3506 28.1449 29.7321 28.6727 30.3056 28.6727C30.7744 28.6727 31.2605 27.9693 31.2605 27.9693C31.2605 27.9693 31.7078 28.4971 32.2155 28.4971C32.6682 28.4971 33.1694 27.8165 33.1694 27.8165C33.1694 27.8165 33.635 28.4971 34.1244 28.4971C34.6148 28.4971 35.0793 27.9693 35.0793 27.9693C35.0793 27.9693 35.5784 28.6727 36.2251 28.6727C36.7974 28.6727 36.9893 28.1449 36.9893 28.1449V29.7274H29.3506Z" fill="#FFF100" stroke="black" stroke-width="0.0103411"/>
<path fill-rule="evenodd" clip-rule="evenodd" d="M29.3511 29.7274V28.4971C29.3511 28.4971 30.4968 28.8473 30.4968 29.7274H29.3511Z" fill="#FFF100" stroke="black" stroke-width="0.0103411"/>
<path fill-rule="evenodd" clip-rule="evenodd" d="M36.9814 29.7274V28.4971C36.9814 28.4971 35.8357 28.8473 35.8357 29.7274H36.9814Z" fill="#FFF100" stroke="black" stroke-width="0.0103411"/>
<path fill-rule="evenodd" clip-rule="evenodd" d="M30.115 29.7274C30.115 28.8473 31.2607 28.2917 31.2607 28.2917C31.2607 28.2917 32.4065 28.8473 32.4065 29.7274H30.115Z" fill="#FFF100" stroke="black" stroke-width="0.0103411"/>
<path fill-rule="evenodd" clip-rule="evenodd" d="M33.9341 29.7274C33.9341 28.8473 35.0798 28.2917 35.0798 28.2917C35.0798 28.2917 36.2256 28.8473 36.2256 29.7274H33.9341Z" fill="#FFF100" stroke="black" stroke-width="0.0103411"/>
<path fill-rule="evenodd" clip-rule="evenodd" d="M31.8328 29.7322C31.8328 28.8531 33.1704 28.1507 33.1704 28.1507C33.1704 28.1507 34.5069 28.8531 34.5069 29.7322H31.8338H31.8328Z" fill="#FFF100" stroke="black" stroke-width="0.0103411"/>
<path fill-rule="evenodd" clip-rule="evenodd" d="M37.1765 29.729C36.7993 29.5534 35.4075 29.3778 33.1663 29.3778C30.9252 29.3778 29.4364 29.5534 29.0581 29.729C28.6808 29.9046 28.6808 30.2568 29.0581 30.4324C29.4353 30.608 30.9262 30.7837 33.1663 30.7837C35.4064 30.7837 36.7993 30.608 37.1765 30.4324C37.5538 30.2568 37.5538 29.9046 37.1765 29.729Z" fill="white" stroke="black" stroke-width="0.0102826"/>
<path fill-rule="evenodd" clip-rule="evenodd" d="M36.9894 30.4301C36.9894 30.7851 33.8093 30.7851 33.1701 30.7851C32.4757 30.7851 29.3508 30.8798 29.3508 30.4301C29.3508 30.0828 32.4994 30.0828 33.1701 30.0828C33.833 30.0828 36.9894 30.1539 36.9894 30.4301Z" fill="#808080"/>
<path fill-rule="evenodd" clip-rule="evenodd" d="M29.7296 29.1675C29.7296 29.2858 29.6507 29.3805 29.5402 29.3805C29.4297 29.3805 29.3508 29.2858 29.3508 29.1675C29.3508 29.0491 29.4297 28.9623 29.5402 28.9623C29.6428 28.9623 29.7296 29.057 29.7296 29.1675ZM36.9894 29.1675C36.9894 29.2858 36.9026 29.3805 36.7921 29.3805C36.6895 29.3805 36.6027 29.2858 36.6027 29.1675C36.6027 29.0491 36.6895 28.9623 36.7921 28.9623C36.9026 28.9623 36.9815 29.057 36.9815 29.1675H36.9894Z" fill="#CC0000"/>
<path fill-rule="evenodd" clip-rule="evenodd" d="M33.5489 29.0649C33.5489 29.1754 33.3753 29.2701 33.1701 29.2701C32.9649 29.2701 32.7834 29.1754 32.7834 29.057C32.7834 28.9386 32.9571 28.8518 33.1701 28.8518C33.3832 28.8518 33.5489 28.9465 33.5489 29.057V29.0649Z" fill="black"/>
<path fill-rule="evenodd" clip-rule="evenodd" d="M35.3796 29.0649C35.3796 29.1754 35.2533 29.2701 35.0955 29.2701C34.9377 29.2701 34.8114 29.1754 34.8114 29.057C34.8114 28.9386 34.9377 28.8518 35.0955 28.8518C35.2533 28.8518 35.3796 28.9465 35.3796 29.057V29.0649ZM31.4498 29.0649C31.4498 29.1754 31.3236 29.2701 31.1658 29.2701C31.0079 29.2701 30.8738 29.1754 30.8738 29.057C30.8738 28.9386 31 28.8518 31.1658 28.8518C31.3236 28.8518 31.4498 28.9465 31.4498 29.057V29.0649Z" fill="#006300"/>
<path fill-rule="evenodd" clip-rule="evenodd" d="M32.403 27.8526C32.403 27.8526 32.621 27.5521 32.8396 27.5521H33.0577V27.7523C33.0577 28.0539 32.7306 28.1548 32.7306 28.1548H33.6033C33.6033 28.1548 33.2757 28.0539 33.2757 27.7523V27.5521H33.4943C33.7124 27.5521 33.9304 27.8538 33.9304 27.8538V27.0492C33.9304 27.0492 33.7124 27.3509 33.4943 27.3509H33.2757V27.1496C33.2757 26.8485 33.6033 26.7482 33.6033 26.7482H32.73C32.73 26.7482 33.057 26.8485 33.057 27.1496V27.3509H32.839C32.6204 27.3509 32.4023 27.0492 32.4023 27.0492V27.8532L32.403 27.8526Z" fill="#FFF100" stroke="black" stroke-width="0.0130005"/>
<path fill-rule="evenodd" clip-rule="evenodd" d="M29.3457 28.499H29.5641C29.5641 28.499 29.4002 28.4112 29.4002 28.1472V27.9721H29.5092C29.6186 27.9721 29.7279 28.236 29.7279 28.236V27.532C29.7279 27.532 29.6186 27.796 29.5092 27.796H29.4002V27.6199C29.4002 27.3564 29.5641 27.2686 29.5641 27.2686H29.3457V28.499Z" fill="#FFF100" stroke="black" stroke-width="0.0128995"/>
<path fill-rule="evenodd" clip-rule="evenodd" d="M36.9866 28.499H36.7682C36.7682 28.499 36.9321 28.4112 36.9321 28.1472V27.9721H36.823C36.7137 27.9721 36.6044 28.236 36.6044 28.236V27.532C36.6044 27.532 36.7137 27.796 36.823 27.796H36.9321V27.6199C36.9321 27.3564 36.7682 27.2686 36.7682 27.2686H36.9866V28.499Z" fill="#FFF100" stroke="black" stroke-width="0.0128995"/>
<path fill-rule="evenodd" clip-rule="evenodd" d="M33.3603 27.4425C33.3603 27.489 33.3402 27.5337 33.3044 27.5666C33.2687 27.5996 33.2201 27.6181 33.1695 27.6181C33.1189 27.6181 33.0704 27.5996 33.0346 27.5666C32.9989 27.5337 32.9788 27.489 32.9788 27.4425C32.9788 27.3959 32.9989 27.3512 33.0346 27.3183C33.0704 27.2854 33.1189 27.2669 33.1695 27.2669C33.2201 27.2669 33.2687 27.2854 33.3044 27.3183C33.3402 27.3512 33.3603 27.3959 33.3603 27.4425Z" fill="white" stroke="black" stroke-width="0.0103411"/>
<path fill-rule="evenodd" clip-rule="evenodd" d="M32.403 24.1596C32.403 24.1596 32.621 23.8591 32.8396 23.8591H33.0577V24.0593C33.0577 24.3609 32.7306 24.4618 32.7306 24.4618H33.6033C33.6033 24.4618 33.2757 24.3609 33.2757 24.0593V23.8591H33.4943C33.7124 23.8591 33.9304 24.1607 33.9304 24.1607V23.3562C33.9304 23.3562 33.7124 23.6578 33.4943 23.6578H33.2757V23.4566C33.2757 23.1555 33.6033 23.0551 33.6033 23.0551H32.73C32.73 23.0551 33.057 23.1555 33.057 23.4566V23.6578H32.839C32.6204 23.6578 32.4023 23.3562 32.4023 23.3562V24.1602L32.403 24.1596Z" fill="#FFF100" stroke="black" stroke-width="0.0130005"/>
<path fill-rule="evenodd" clip-rule="evenodd" d="M33.3762 23.781C33.3762 23.8276 33.3561 23.8722 33.3203 23.9052C33.2845 23.9381 33.236 23.9566 33.1854 23.9566C33.1348 23.9566 33.0863 23.9381 33.0505 23.9052C33.0147 23.8722 32.9946 23.8276 32.9946 23.781C32.9946 23.7344 33.0147 23.6898 33.0505 23.6568C33.0863 23.6239 33.1348 23.6054 33.1854 23.6054C33.236 23.6054 33.2845 23.6239 33.3203 23.6568C33.3561 23.6898 33.3762 23.7344 33.3762 23.781Z" fill="white" stroke="black" stroke-width="0.0103411"/>
<path fill-rule="evenodd" clip-rule="evenodd" d="M32.7879 24.4578H33.5521V24.9856H32.7869L32.7879 24.4578Z" fill="#FFF100" stroke="black" stroke-width="0.0103411"/>
<path fill-rule="evenodd" clip-rule="evenodd" d="M32.7879 24.7336H33.5521V26.7427H32.7869L32.7879 24.7336Z" fill="#FFF100" stroke="black" stroke-width="0.0103411"/>
<path fill-rule="evenodd" clip-rule="evenodd" d="M33.3551 26.3859C33.3571 26.4102 33.3536 26.4345 33.3449 26.4575C33.3362 26.4804 33.3224 26.5015 33.3044 26.5193C33.2865 26.5371 33.2647 26.5513 33.2405 26.561C33.2163 26.5708 33.1902 26.5758 33.1638 26.5758C33.1374 26.5758 33.1113 26.5708 33.0871 26.561C33.0628 26.5513 33.0411 26.5371 33.0231 26.5193C33.0052 26.5015 32.9914 26.4804 32.9827 26.4575C32.974 26.4345 32.9705 26.4102 32.9725 26.3859C32.9761 26.3415 32.9978 26.3 33.0333 26.2697C33.0688 26.2394 33.1154 26.2226 33.1638 26.2226C33.2122 26.2226 33.2588 26.2394 33.2943 26.2697C33.3297 26.3 33.3515 26.3415 33.3551 26.3859Z" fill="white" stroke="black" stroke-width="0.0103411"/>
<path fill-rule="evenodd" clip-rule="evenodd" d="M33.3551 25.9362C33.3571 25.9604 33.3536 25.9847 33.3449 26.0077C33.3362 26.0306 33.3224 26.0517 33.3044 26.0695C33.2865 26.0873 33.2647 26.1015 33.2405 26.1112C33.2163 26.121 33.1902 26.126 33.1638 26.126C33.1374 26.126 33.1113 26.121 33.0871 26.1112C33.0628 26.1015 33.0411 26.0873 33.0231 26.0695C33.0052 26.0517 32.9914 26.0306 32.9827 26.0077C32.974 25.9847 32.9705 25.9604 32.9725 25.9362C32.9761 25.8917 32.9978 25.8502 33.0333 25.8199C33.0688 25.7896 33.1154 25.7728 33.1638 25.7728C33.2122 25.7728 33.2588 25.7896 33.2943 25.8199C33.3297 25.8502 33.3515 25.8917 33.3551 25.9362Z" fill="white" stroke="black" stroke-width="0.0103411"/>
<path fill-rule="evenodd" clip-rule="evenodd" d="M33.3551 25.5179C33.3571 25.5422 33.3536 25.5665 33.3449 25.5895C33.3362 25.6124 33.3224 25.6334 33.3044 25.6513C33.2865 25.6691 33.2647 25.6833 33.2405 25.693C33.2163 25.7027 33.1902 25.7078 33.1638 25.7078C33.1374 25.7078 33.1113 25.7027 33.0871 25.693C33.0628 25.6833 33.0411 25.6691 33.0231 25.6513C33.0052 25.6334 32.9914 25.6124 32.9827 25.5895C32.974 25.5665 32.9705 25.5422 32.9725 25.5179C32.9761 25.4735 32.9978 25.432 33.0333 25.4017C33.0688 25.3714 33.1154 25.3546 33.1638 25.3546C33.2122 25.3546 33.2588 25.3714 33.2943 25.4017C33.3297 25.432 33.3515 25.4735 33.3551 25.5179Z" fill="white" stroke="black" stroke-width="0.0103411"/>
<path fill-rule="evenodd" clip-rule="evenodd" d="M33.3551 25.076C33.3571 25.1003 33.3536 25.1246 33.3449 25.1476C33.3362 25.1705 33.3224 25.1915 33.3044 25.2094C33.2865 25.2272 33.2647 25.2414 33.2405 25.2511C33.2163 25.2608 33.1902 25.2659 33.1638 25.2659C33.1374 25.2659 33.1113 25.2608 33.0871 25.2511C33.0628 25.2414 33.0411 25.2272 33.0231 25.2094C33.0052 25.1915 32.9914 25.1705 32.9827 25.1476C32.974 25.1246 32.9705 25.1003 32.9725 25.076C32.9761 25.0316 32.9978 24.9901 33.0333 24.9598C33.0688 24.9295 33.1154 24.9126 33.1638 24.9126C33.2122 24.9126 33.2588 24.9295 33.2943 24.9598C33.3297 24.9901 33.3515 25.0316 33.3551 25.076Z" fill="white" stroke="black" stroke-width="0.0103411"/>
<path fill-rule="evenodd" clip-rule="evenodd" d="M33.5726 29.7356C33.5726 29.8145 33.399 29.8777 33.1781 29.8777C32.9571 29.8777 32.7993 29.8145 32.7993 29.7356C32.7993 29.6567 32.9729 29.5936 33.186 29.5936C33.399 29.5936 33.5726 29.6567 33.5726 29.7356ZM37.0921 30.0828C37.0684 30.1381 36.879 30.146 36.666 30.0907C36.4529 30.0434 36.303 29.9645 36.3187 29.9092C36.3424 29.854 36.5318 29.8461 36.7449 29.9014C36.9579 29.9487 37.1079 30.0276 37.0921 30.0828ZM35.6164 29.8461C35.6164 29.9171 35.4271 29.9566 35.2061 29.9487C34.993 29.9329 34.8194 29.8619 34.8273 29.7909C34.8352 29.7199 35.0246 29.6804 35.2377 29.6962C35.4586 29.712 35.6322 29.7751 35.6164 29.8461ZM29.1615 30.0828C29.1773 30.1381 29.3667 30.146 29.5798 30.0907C29.7928 30.0434 29.9506 29.9645 29.927 29.9092C29.9033 29.854 29.7139 29.8461 29.5008 29.9014C29.2957 29.9487 29.1379 30.0276 29.1615 30.0828ZM30.7003 29.8145C30.7082 29.8856 30.8976 29.925 31.1106 29.9092C31.3316 29.8935 31.5052 29.8303 31.4894 29.7514C31.4894 29.6883 31.3 29.6409 31.0791 29.6567C30.866 29.6725 30.6924 29.7356 30.7003 29.8145Z" fill="black"/>
<path d="M-7 0H19.6667V20H-7V0Z" fill="#012169"/>
<path d="M-3.875 0L6.29167 7.54167L16.4167 0H19.6667V2.58333L9.66667 10.0417L19.6667 17.4583V20H16.3333L6.33333 12.5417L-3.625 20H-7V17.5L2.95833 10.0833L-7 2.66667V0H-3.875Z" fill="white"/>
<path d="M10.6667 11.7083L19.6667 18.3333V20L8.375 11.7083H10.6667ZM3 12.5417L3.25 14L-4.75 20H-7L3 12.5417ZM19.6667 0V0.125L9.29167 7.95833L9.375 6.125L17.5833 0H19.6667ZM-7 0L2.95833 7.33333H0.458333L-7 1.75V0Z" fill="#C8102E"/>
<path d="M3.04167 0V20H9.70833V0H3.04167ZM-7 6.66667V13.3333H19.6667V6.66667H-7Z" fill="white"/>
<path d="M-7 8.04167V12.0417H19.6667V8.04167H-7ZM4.375 0V20H8.375V0H4.375Z" fill="#C8102E"/>
</g>
</g>
<defs>
<clipPath id="clip0_769_18624">
<path d="M0 20C0 8.95431 8.95431 0 20 0C31.0457 0 40 8.95431 40 20C40 31.0457 31.0457 40 20 40C8.95431 40 0 31.0457 0 20Z" fill="white"/>
</clipPath>
<clipPath id="clip1_769_18624">
<rect width="53.3333" height="40" fill="white" transform="translate(-7)"/>
</clipPath>
</defs>
</svg>
