<svg width="40" height="40" viewBox="0 0 40 40" fill="none" xmlns="http://www.w3.org/2000/svg">
<g clip-path="url(#clip0_769_7516)">
<path d="M0 20C0 8.95431 8.95431 0 20 0C31.0457 0 40 8.95431 40 20C40 31.0457 31.0457 40 20 40C8.95431 40 0 31.0457 0 20Z" fill="#E94E0F"/>
<g clip-path="url(#clip1_769_7516)">
<path d="M-7 0H46.3333V40H-7V0Z" fill="#F7E017"/>
<path d="M-7 2.77499V20.5583L46.3333 28.8917V19.4417L-7 2.77499Z" fill="white"/>
<path d="M-7 12.225V20.5583L46.3333 37.225V28.8917L-7 12.225Z" fill="black"/>
<path d="M18.3168 31.6501C17.3417 31.5425 16.4035 31.2158 15.5724 30.6946C15.439 30.6057 15.3168 30.5279 15.2946 30.5279C15.2724 30.5279 15.2612 30.6335 15.2612 30.7557C15.2612 31.1113 15.1168 31.289 14.7612 31.3835C14.4168 31.4724 13.8946 31.2946 13.4723 30.939C13.072 30.5965 12.6046 30.341 12.1001 30.189C11.5746 30.0639 11.0214 30.135 10.5446 30.389C10.4974 30.4222 10.4447 30.4466 10.389 30.4613C10.3279 30.4613 10.3334 30.0779 10.4001 29.9613C10.4834 29.7946 10.6834 29.639 10.9223 29.5557C11.0446 29.5112 11.1446 29.4557 11.1446 29.4279C11.1446 29.4057 11.1001 29.3168 11.0501 29.2279C10.889 28.9446 10.9557 28.6724 11.239 28.4557C11.5279 28.2335 12.0168 28.2001 12.4446 28.3612C12.5168 28.3921 12.5911 28.418 12.6668 28.439C12.7223 28.439 12.689 28.3557 12.5335 28.1279C12.3557 27.8668 12.3168 27.739 12.339 27.4224C12.3543 27.2285 12.4382 27.0465 12.5757 26.909C12.7132 26.7715 12.8952 26.6876 13.089 26.6723C13.4112 26.6501 13.6112 26.7612 14.089 27.2112C15.3722 28.5028 17.0576 29.3181 18.8668 29.5224C19.3279 29.5779 20.2446 29.5501 20.7835 29.4668C22.4907 29.182 24.0735 28.3925 25.328 27.2001C25.6835 26.8668 25.8502 26.7779 26.1446 26.7779C26.3946 26.7779 26.5724 26.8557 26.7557 27.0557C26.9224 27.239 26.978 27.4112 26.9558 27.6946C26.9446 27.8724 26.9169 27.9557 26.8113 28.1335C26.6557 28.3835 26.6835 28.4112 26.9891 28.289C27.4113 28.1224 27.928 28.2001 28.2058 28.4668C28.4502 28.7001 28.4724 28.9335 28.2835 29.2446C28.2113 29.3613 28.1558 29.4668 28.1558 29.489C28.1558 29.5224 28.2113 29.5335 28.4613 29.5779C28.7946 29.6335 28.9891 29.8779 28.9891 30.2557C28.9891 30.3668 28.9724 30.4613 28.9558 30.4613C28.9391 30.4613 28.8113 30.4113 28.678 30.3557C28.2891 30.1946 28.0669 30.1557 27.6113 30.1613C27.2669 30.1613 27.1502 30.1779 26.9113 30.2557C26.5114 30.3948 26.1432 30.6119 25.828 30.8946C25.4724 31.2113 25.2502 31.3113 24.9057 31.3057C24.5835 31.3057 24.3668 31.2113 24.2502 31.0279C24.1891 30.9279 24.178 30.8724 24.1946 30.6501C24.2057 30.5057 24.2002 30.389 24.1946 30.389C24.178 30.389 24.0557 30.4668 23.9168 30.5613C23.5997 30.7886 23.2542 30.9735 22.8891 31.1113C21.4269 31.6409 19.8621 31.8253 18.3168 31.6501Z" fill="#CF1126"/>
<path d="M18.9057 29.1779C17.831 29.0792 16.7899 28.752 15.8519 28.2183C14.9139 27.6847 14.1007 26.9568 13.4668 26.0835C12.1112 24.239 11.689 21.8001 12.1001 19.5723C12.3223 18.5557 12.7668 17.539 13.5168 16.8168C12.8985 18.0999 12.7283 19.5533 13.0334 20.9446C13.5334 23.7112 15.8668 26.0501 18.6613 26.4557C19.7724 26.7724 20.9113 26.4335 21.9668 26.0946C24.3002 25.2724 26.078 23.0612 26.2891 20.589C26.4724 19.2557 26.2724 17.8612 25.6668 16.6445C26.0113 16.8279 26.4446 17.5445 26.7002 18.0223C27.5891 19.7445 27.628 21.8057 27.1057 23.6446C26.3946 25.9835 24.6057 28.0335 22.2446 28.7779C21.1674 29.1145 20.0375 29.25 18.9113 29.1779H18.9057Z" fill="#CF1126"/>
<path d="M8.11128 26.1057C7.97239 26.0834 7.81683 26.2223 7.87239 26.3668C7.97239 26.5112 8.15017 26.589 8.30572 26.6557C8.71558 26.8157 9.15554 26.884 9.59462 26.8557C9.91676 26.8557 10.2364 26.7993 10.5391 26.689C10.7057 26.6334 10.9168 26.5779 10.9835 26.389C11.0557 26.2723 10.928 26.1501 10.8113 26.1723C10.6446 26.2112 10.478 26.2834 10.3113 26.3334C9.94494 26.4372 9.56305 26.4748 9.1835 26.4445C8.90728 26.4044 8.63802 26.3258 8.3835 26.2112C8.29461 26.1723 8.21128 26.1168 8.11128 26.1057Z" fill="#CF1126"/>
<path d="M8.26687 25.5279C8.12799 25.5057 8.00576 25.6723 8.06132 25.8057C8.17243 25.9612 8.35576 26.0446 8.52799 26.1168C8.82844 26.2346 9.14991 26.2895 9.47244 26.2779H9.55577C9.83007 26.2791 10.1019 26.2262 10.3558 26.1223C10.5058 26.0612 10.6947 26.0001 10.7613 25.8334C10.8113 25.739 10.7724 25.6057 10.6502 25.5946C10.5502 25.5946 10.4558 25.6612 10.3558 25.689C9.99387 25.8385 9.60152 25.8994 9.21132 25.8668C8.96688 25.839 8.7391 25.7501 8.51688 25.6446C8.43354 25.6057 8.36132 25.5446 8.26687 25.5334V25.5279Z" fill="#CF1126"/>
<path d="M8.46134 24.9779C8.33912 24.9612 8.25578 25.1001 8.278 25.2057C8.29467 25.3057 8.378 25.3723 8.45023 25.4279C8.75272 25.6374 9.11606 25.7409 9.48357 25.7223H9.57245C9.80347 25.7206 10.0312 25.6675 10.2391 25.5668C10.378 25.5112 10.5391 25.439 10.5891 25.2779C10.6113 25.2056 10.6225 25.1001 10.5391 25.0556C10.4502 25.0112 10.3669 25.0834 10.2891 25.1112C10.0234 25.2508 9.72819 25.3251 9.42801 25.3279C9.17035 25.3176 8.91969 25.241 8.70023 25.1056C8.61689 25.0668 8.55023 24.9945 8.46134 24.9779Z" fill="#CF1126"/>
<path d="M6.41675 16.8167C6.23897 17.0001 6.37786 17.3334 6.3612 17.5667C6.4612 18.3001 6.57786 19.039 6.85009 19.7334C7.18342 20.4001 7.89454 20.7612 8.32232 21.3557C8.47787 21.639 8.42232 21.9834 8.45565 22.3001C8.47787 23.1501 8.47232 24.0057 8.45565 24.8557C8.84454 25.0557 9.26121 25.2446 9.70566 25.1723C9.96677 25.1112 10.4557 25.0723 10.5112 24.8112L10.4557 20.3945C10.3057 19.9445 9.84454 19.7112 9.50565 19.4223C9.2224 19.1427 8.95881 18.8438 8.71676 18.5279C8.57232 18.2779 8.00009 18.1945 8.20565 18.6168C8.32787 18.989 8.63343 19.2612 8.71121 19.6501C8.72787 19.8668 8.98899 20.2612 8.76676 20.3834C8.62989 20.142 8.42247 19.9481 8.17231 19.8279C7.92787 19.6445 7.52231 19.5668 7.43342 19.2445C7.35338 18.7862 7.14094 18.3613 6.82231 18.0223C6.90564 17.6112 6.82231 17.0945 6.46675 16.8279L6.41675 16.8167Z" fill="#CF1126"/>
<path d="M6.96685 16.9001C6.80018 16.9278 6.81129 17.1334 6.88351 17.2445C6.96586 17.4836 6.98687 17.7396 6.94463 17.9889C7.24928 18.3282 7.45322 18.7457 7.53352 19.1945C7.53352 19.3612 7.7113 19.4167 7.82796 19.5001C8.10019 19.6723 8.40019 19.8001 8.64463 20.0167C8.69463 20.0723 8.73352 20.1278 8.70019 20.0167C8.6613 19.8723 8.64463 19.7167 8.53352 19.6112C8.37796 19.4445 8.18908 19.3001 7.96685 19.2556C7.95019 19.0223 7.83907 18.8112 7.73907 18.6112C7.62796 18.4167 7.51129 18.2112 7.3224 18.0889C7.3224 17.7501 7.32241 17.3945 7.17796 17.0778C7.13352 17.0001 7.06685 16.9056 6.96685 16.9001Z" fill="#CF1126"/>
<path d="M7.42791 17.0334C7.31679 17.0667 7.33902 17.2112 7.37235 17.2945C7.42087 17.5357 7.43953 17.782 7.42791 18.0278C7.64457 18.1945 7.77235 18.4389 7.89457 18.6723C7.97235 18.8278 8.03902 18.9945 8.0668 19.1667C8.23902 19.2223 8.38902 19.3334 8.52236 19.4445C8.4668 19.289 8.35569 19.1667 8.27236 19.0167C8.18902 18.8667 8.10569 18.7056 8.0668 18.5334C7.90013 18.3612 7.81124 18.1112 7.84458 17.8667C7.85569 17.6056 7.77235 17.3334 7.59457 17.1334C7.55013 17.0889 7.49457 17.0389 7.42791 17.0334Z" fill="#CF1126"/>
<path d="M7.95578 17.1112C7.88911 17.1223 7.85577 17.1778 7.82244 17.2278C7.80577 17.2778 7.86689 17.3278 7.878 17.3834C7.95058 17.5668 7.97728 17.7651 7.95578 17.9612C7.95022 18.1001 8.00022 18.2389 8.06689 18.3501C8.07937 18.3073 8.10473 18.2694 8.13953 18.2416C8.17433 18.2137 8.21686 18.1973 8.26133 18.1945C8.28911 18.1945 8.33911 18.2056 8.31689 18.1556C8.29467 17.8889 8.25578 17.6223 8.16133 17.3778C8.13397 17.2815 8.08006 17.1949 8.00578 17.1278C7.99467 17.1167 7.97244 17.1056 7.95022 17.1112H7.95578Z" fill="#CF1126"/>
<path d="M19.428 26.4446C19.0527 26.404 18.6969 26.2569 18.4026 26.0206C18.1082 25.7844 17.8876 25.4688 17.7668 25.1112C17.7835 24.989 17.9335 25.1779 18.0057 25.1946C18.1412 25.2753 18.2931 25.3247 18.4502 25.339C18.6446 25.4223 18.7669 25.6168 18.9557 25.7223C19.0446 25.789 19.3557 25.9223 19.2946 25.7057C19.2224 25.5946 19.1724 25.4501 19.2391 25.3168C19.3391 25.089 19.5002 24.889 19.6669 24.6946C19.7835 24.6557 19.8669 24.8946 19.9502 24.9723C20.0669 25.1557 20.2113 25.3779 20.1391 25.6001C20.0724 25.6834 20.028 25.9335 20.2113 25.8557C20.4335 25.7557 20.6169 25.589 20.8002 25.4334C20.9669 25.3223 21.1724 25.3168 21.3391 25.2112C21.4224 25.1946 21.5835 25.039 21.6169 25.1223C21.5174 25.3707 21.3785 25.6014 21.2058 25.8057C20.9386 26.1228 20.5693 26.3369 20.1613 26.4112C19.9169 26.4557 19.6724 26.4668 19.428 26.4446Z" fill="#CF1126"/>
<path d="M20.3058 25.5668C20.3225 25.4168 20.2892 25.2668 20.2114 25.1223C20.0947 24.889 19.9336 24.6779 19.7669 24.4612C19.6114 24.3723 19.528 24.6668 19.428 24.7501C19.2669 24.989 19.0669 25.2334 19.0558 25.5279C18.9669 25.6668 18.8003 25.4168 18.728 25.3334C18.58 25.1431 18.5016 24.9079 18.5058 24.6668C18.4924 24.2756 18.5605 23.8858 18.7058 23.5223C18.8169 23.2112 18.9891 22.9112 18.9725 22.5779C18.9836 22.3168 18.9336 22.039 18.728 21.8668C18.528 21.7112 18.8558 21.6779 18.9558 21.7557C19.1336 21.7723 19.228 22.0612 19.3891 21.989C19.4503 21.839 19.4669 21.6557 19.6003 21.539C19.728 21.3612 19.8614 21.6112 19.9058 21.7334C20.0003 21.8334 19.9058 22.0945 20.0503 22.1001C20.228 21.9723 20.3558 21.7668 20.5836 21.7168C20.678 21.6612 20.8336 21.7168 20.7114 21.8168C20.5447 21.9779 20.4003 22.1723 20.3669 22.4112C20.3169 22.7057 20.3892 23.0057 20.5169 23.2668C20.7669 23.789 20.9614 24.3779 20.8336 24.9612C20.778 25.2168 20.6003 25.439 20.3892 25.589C20.3614 25.6057 20.3169 25.6057 20.3058 25.5668Z" fill="#CF1126"/>
<path d="M20.0392 21.6446C19.9644 21.4942 19.8583 21.3616 19.728 21.2557C19.5947 21.2557 19.5114 21.4223 19.4225 21.5112C19.3614 21.6279 19.2836 21.8223 19.128 21.6723C18.878 21.5279 18.8391 21.2112 18.8391 20.9501C18.8225 20.5279 18.9947 20.1334 19.1447 19.7501C19.2392 19.5112 19.2169 19.239 19.1558 18.9945C19.0836 18.7168 18.8558 18.5168 18.6836 18.2945C18.6947 18.2112 18.9169 18.2557 19.0003 18.2723C19.1892 18.3223 19.3003 18.4834 19.4392 18.6057C19.5392 18.5723 19.4947 18.3723 19.5447 18.2779C19.5447 18.1445 19.7225 17.9723 19.7947 18.1612C19.9058 18.2834 19.7947 18.5223 19.9336 18.5945C20.0669 18.5445 20.1336 18.4001 20.2558 18.3334C20.3196 18.2921 20.393 18.2679 20.4689 18.263C20.5447 18.2582 20.6206 18.2728 20.6892 18.3057C20.7392 18.4279 20.5447 18.5279 20.4892 18.639C20.3781 18.7775 20.3011 18.9401 20.2645 19.1138C20.2278 19.2875 20.2325 19.4674 20.278 19.639C20.3558 19.9168 20.4892 20.1668 20.5392 20.4446C20.5992 20.7613 20.5897 21.0874 20.5114 21.4001C20.4614 21.589 20.3003 21.7112 20.1336 21.789C20.0892 21.7501 20.0669 21.6946 20.0392 21.6446Z" fill="#CF1126"/>
<path d="M19.2001 18.1612C19.0113 18.0223 18.9501 17.8945 18.9501 17.6334C18.9501 17.5056 18.9779 17.4334 19.0613 17.3112C19.1946 17.1334 19.1724 17.0779 18.989 17.1279C18.6946 17.2112 18.5557 17.139 18.5446 16.889C18.5446 16.7667 18.5668 16.7167 18.7279 16.5167C18.8613 16.3612 18.9113 16.2778 18.8835 16.2501C18.8557 16.2278 18.7001 16.3612 18.3835 16.6834C18.1849 16.8928 17.9734 17.0895 17.7501 17.2723C17.2057 17.639 16.6835 17.6945 16.4446 17.4112C16.3224 17.2667 16.3279 17.189 16.4668 17.1001C16.5553 17.0403 16.6372 16.9714 16.7112 16.8945C16.9835 16.6459 17.2837 16.4297 17.6057 16.2501C17.8057 16.1501 17.8501 16.0834 17.7224 16.0834C17.5557 16.0834 17.0279 16.4278 16.6224 16.7945C16.5057 16.9056 16.3335 17.0279 16.2446 17.0723C15.9974 17.1624 15.7299 17.1817 15.4724 17.1279C15.3501 17.089 15.1223 16.8779 15.1223 16.8001C15.1223 16.7834 15.1779 16.739 15.2335 16.7001C15.324 16.6489 15.4096 16.5894 15.489 16.5223C15.8112 16.2445 16.4224 15.9501 16.9057 15.8445C17.0612 15.8167 17.0001 15.7334 16.8279 15.7445C16.318 15.8419 15.8405 16.0654 15.439 16.3945C14.9779 16.7779 14.2835 16.739 14.0612 16.3223C14.0223 16.2501 13.9946 16.1834 14.0057 16.1723C14.3992 16.073 14.7796 15.9275 15.139 15.739C15.4486 15.5565 15.7897 15.434 16.1446 15.3778C16.3001 15.3501 16.3112 15.2723 16.1612 15.2556C15.9612 15.2334 15.6612 15.3334 15.1335 15.589C14.4501 15.9278 14.2557 15.989 13.9001 15.9667C13.5668 15.9445 13.3835 15.8612 13.1223 15.6112C12.9446 15.4445 12.7001 15.0278 12.7446 14.9778C13.033 15.0385 13.3279 15.0628 13.6223 15.0501C14.0835 15.0501 14.2112 15.039 14.4557 14.9667C14.9332 14.8154 15.3834 14.5884 15.789 14.2945C16.3609 13.8108 17.0845 13.5433 17.8335 13.5389C18.5224 13.5389 18.9557 13.6945 19.3446 14.089C19.4779 14.2223 19.589 14.3056 19.6057 14.289C19.6224 14.2723 19.639 14.0389 19.6446 13.7723C19.6446 13.7723 19.8501 13.7501 19.8946 13.8112C19.8946 14.239 19.8946 14.2778 19.9613 14.2778C20.0001 14.2778 20.0446 14.2334 20.0724 14.1667C20.1279 14.0278 20.3502 13.8334 20.5835 13.7112C21.0835 13.4612 21.9557 13.4501 22.6557 13.6945C22.9904 13.8215 23.3033 13.9995 23.5835 14.2223C23.9922 14.5097 24.4416 14.7345 24.9168 14.889C25.2946 15.0001 25.9724 15.0278 26.3113 14.9445C26.4104 14.9216 26.5105 14.903 26.6113 14.889C26.7391 14.889 26.5224 15.3112 26.2668 15.5612C25.8002 16.0167 25.1946 16.0112 24.3446 15.5556C23.8113 15.2667 23.1779 15.1112 23.1779 15.2667C23.1779 15.3001 23.2113 15.3223 23.2613 15.3223C23.4446 15.3223 23.8002 15.4445 24.3002 15.6834C24.6143 15.8646 24.9588 15.9869 25.3168 16.0445C25.4446 16.0445 25.4502 16.1278 25.328 16.3056C25.2002 16.4945 24.9835 16.5834 24.678 16.5834C24.3835 16.5834 24.2168 16.5223 23.9557 16.3056C23.5113 15.939 22.4224 15.5278 22.4613 15.7501C22.4724 15.789 22.5224 15.8167 22.6391 15.8334C23.1083 15.9353 23.5475 16.1445 23.9224 16.4445L24.2502 16.6834C24.3113 16.7167 24.3113 16.7279 24.2613 16.8223C24.1835 16.9779 23.9724 17.0945 23.7502 17.1167C23.4613 17.1501 23.2057 17.0612 22.9446 16.839C22.3891 16.3779 21.8724 16.0445 21.7057 16.0445C21.5668 16.0445 21.6279 16.1223 21.8724 16.2501C22.1886 16.4176 22.4833 16.6228 22.7502 16.8612C22.8613 16.9667 22.9891 17.0667 23.0279 17.089C23.1335 17.1445 23.1279 17.2223 23.0168 17.3667C22.9057 17.5112 22.7168 17.5779 22.4779 17.5501C22.0002 17.5001 21.6224 17.2723 21.0335 16.6612C20.8935 16.5048 20.7411 16.3599 20.5779 16.2278C20.5002 16.2278 20.5502 16.3334 20.7002 16.5056C20.889 16.7112 20.9224 16.8279 20.8502 17.0056C20.789 17.1501 20.6835 17.189 20.4724 17.1279C20.2502 17.0723 20.2168 17.1279 20.3613 17.3001C20.5724 17.5723 20.5446 17.8945 20.2779 18.1223C20.2228 18.1754 20.1589 18.2187 20.089 18.2501C20.0668 18.2501 20.0113 18.1945 19.9613 18.1167C19.7946 17.8612 19.6446 17.8612 19.4779 18.1167C19.4428 18.1735 19.4057 18.2291 19.3668 18.2834C19.3106 18.2436 19.255 18.2028 19.2001 18.1612Z" fill="#CF1126"/>
<path d="M20.0391 12.9445L19.7502 13.1667L19.4946 12.9779V14.5223H20.0391V12.9445Z" fill="#CF1126"/>
<path d="M18.2725 11.35C18.2219 11.9746 18.0522 12.5838 17.7725 13.1445L18.3891 12.5723L18.8169 13.0834L19.2836 12.5612L19.7558 13.0056L20.2114 12.5445L20.6836 13.1001L21.0947 12.6445L21.7947 13.1445C21.5391 12.5889 21.2003 12.1112 21.2391 11.3223C20.5669 11.8223 18.9614 11.9112 18.2725 11.3445V11.35Z" fill="#CF1126"/>
<path d="M19.5003 10.9778C19.2503 10.9778 18.9892 10.9834 18.7558 11.0334C18.6013 11.058 18.4537 11.1148 18.3225 11.2001C18.3392 11.6778 20.6003 11.8723 21.2059 11.2112C21.0696 11.1169 20.9139 11.0542 20.7503 11.0278C20.5281 10.9834 20.2725 10.9834 20.0336 10.9723V11.3667H19.5003V10.9778Z" fill="#CF1126"/>
<path d="M19.9391 8.5556H19.5891V11.3001H19.9447L19.9391 8.5556Z" fill="#CF1126"/>
<path d="M19.9392 8.62228L19.8058 9.93895L21.1558 10.6001L20.4725 9.68339L21.4058 9.37784L19.9392 8.62228ZM19.7892 8.28339C19.5836 8.28339 19.4336 8.36116 19.4336 8.45005C19.4336 8.53894 19.5836 8.61672 19.7892 8.61672C19.9947 8.61672 20.1447 8.53894 20.1447 8.45005C20.1447 8.36116 19.9947 8.28339 19.7892 8.28339Z" fill="#CF1126"/>
<path d="M19.167 31.325C19.392 31.25 19.517 31.1167 19.6086 30.8583C19.6503 30.725 19.6836 30.5917 19.6753 30.5583C19.6586 30.475 19.5586 30.475 19.4586 30.5667C19.3836 30.625 19.3753 30.6583 19.392 30.7833C19.4503 31.0917 19.3336 31.175 18.7503 31.2333C18.692 31.2333 18.517 31.2333 18.3753 31.2083C18.092 31.175 17.992 31.2083 18.092 31.2917C18.1458 31.3261 18.2049 31.3514 18.267 31.3667C18.4253 31.4083 19.0003 31.3833 19.167 31.325ZM20.392 31.275C20.4253 31.2417 20.5336 31.1917 20.642 31.15C20.7836 31.1083 20.8586 31.0667 20.917 30.9667C21.092 30.7167 21.0586 30.4917 20.8086 30.1917C20.667 30.025 20.6086 30.0333 20.5003 30.2167C20.4003 30.3667 20.4086 30.3833 20.542 30.4167C20.617 30.4333 20.6836 30.4833 20.717 30.55C20.867 30.8083 20.8253 30.9667 20.6003 30.9667C20.4003 30.9667 20.3503 31 20.292 31.1333L20.242 31.2917C20.242 31.3417 20.3253 31.3333 20.392 31.275ZM19.992 30.9833C20.0253 30.875 20.042 30.6917 20.0336 30.3167C20.0426 30.1385 20.0342 29.9599 20.0086 29.7833C19.9753 29.75 19.817 29.85 19.792 29.925C19.7837 29.9865 19.7985 30.0489 19.8336 30.1C19.8836 30.2 19.892 30.3 19.8753 30.6833C19.8503 31.1833 19.8836 31.2667 19.992 30.9833Z" fill="#F7E017"/>
<path d="M19.0503 30.75L19.1086 30.3333C19.1169 30.1917 19.1503 30.0167 19.1669 29.9417C19.2253 29.75 19.1669 29.7 19.0169 29.8083L18.9086 29.8917L18.9253 30.1667C18.9503 30.4167 18.9086 30.875 18.8503 31.0583C18.8336 31.1083 18.8586 31.0917 18.9253 31.0167C18.9753 30.9583 19.0336 30.8333 19.0503 30.7417V30.75ZM18.2169 30.8833C18.4169 30.7167 18.3919 30.4167 18.4419 30.1833C18.4419 30.025 18.5419 29.8417 18.4753 29.7C18.2836 29.7333 18.1669 29.9167 18.2669 30.0917C18.2669 30.3 18.2669 30.525 18.1586 30.7083C18.0753 30.8333 17.7919 30.8 17.8086 30.625C17.8753 30.375 17.5669 30.5 17.4503 30.5667C17.3586 30.6333 17.1586 30.6417 17.2336 30.4833C17.1836 30.2583 16.9086 30.4 16.7586 30.4C16.6169 30.4 16.7503 30.1083 16.5419 30.15C16.1669 30.125 15.7503 30.1583 15.4169 29.9333C15.2253 29.8417 15.2503 29.6083 15.3586 29.4583C15.4753 29.2583 15.5086 29 15.6919 28.8417C15.8836 28.6667 15.5253 28.7417 15.4419 28.8C15.2586 28.9 15.4253 29.1583 15.2753 29.3C15.1919 29.45 15.0753 29.65 14.8753 29.625C14.5836 29.5667 14.4169 29.2917 14.2086 29.125C14.0253 29.0833 14.1253 29.4083 14.2253 29.475C14.41 29.6131 14.6193 29.7149 14.8419 29.775C15.0586 29.7333 15.0669 30.025 15.2586 30.0667C15.5919 30.2333 15.9753 30.275 16.3503 30.3C16.5003 30.3083 16.4169 30.575 16.6086 30.5167C16.7169 30.55 16.9669 30.475 16.9753 30.6C16.8086 30.8 17.1336 30.7917 17.2503 30.7667C17.4086 30.7333 17.6003 30.6833 17.6419 30.8833C17.7669 31.025 18.0003 31 18.1586 30.925L18.2169 30.8833Z" fill="#F7E017"/>
<path d="M14.9004 29.2C14.9787 29.0904 15.0457 28.9732 15.1004 28.85C15.1428 28.7433 15.1988 28.6424 15.267 28.55C15.367 28.45 15.3087 28.3834 15.1504 28.4167C15.067 28.4334 15.0337 28.4667 15.0254 28.5417C14.988 28.7461 14.9176 28.9432 14.817 29.125C14.6754 29.3334 14.6754 29.3417 14.7337 29.3417C14.7587 29.3417 14.8337 29.275 14.9004 29.2ZM12.817 27.8917C12.6587 27.8917 12.6504 27.9917 12.8004 28.0417C12.8837 28.0667 12.942 28.125 12.992 28.2334C13.1337 28.525 13.2254 28.5834 13.617 28.6167L13.867 28.6334L13.8837 28.7917C13.8837 28.875 13.9087 28.9417 13.9254 28.9417L14.142 28.8584C14.3254 28.7584 14.5004 28.5417 14.5004 28.4C14.5004 28.3167 14.3504 28.2167 14.217 28.2167C14.1587 28.2167 14.0504 28.2667 13.9587 28.3334C13.6754 28.5334 13.3754 28.5 13.2087 28.2334C13.0837 28.0167 12.942 27.9 12.817 27.9V27.8917ZM14.1754 28.4334C14.2504 28.4334 14.2587 28.4917 14.2254 28.6C14.2202 28.6147 14.2107 28.6275 14.198 28.6365C14.1853 28.6455 14.1701 28.6504 14.1545 28.6504C14.1389 28.6504 14.1238 28.6455 14.1111 28.6365C14.0984 28.6275 14.0888 28.6147 14.0837 28.6C14.0504 28.5167 14.092 28.4334 14.167 28.4334H14.1754ZM24.717 28.1C24.6087 28.1 24.5837 28.1167 24.517 28.2167C24.4087 28.375 24.4004 28.7167 24.5004 28.8334C24.5587 28.9084 24.567 28.9084 24.692 28.85C24.8754 28.775 24.9087 28.7834 24.9004 28.875C24.9004 29.125 24.5504 29.6 24.1837 29.85C24.1085 29.8944 24.0409 29.9507 23.9837 30.0167C23.9587 30.0834 24.092 30.075 24.2587 29.9834C24.5346 29.8251 24.7622 29.5946 24.917 29.3167C25.0087 29.125 25.0254 29.0667 25.042 28.7334C25.042 28.4167 25.042 28.3167 24.992 28.2167C24.9254 28.1 24.9087 28.0917 24.7587 28.0917H24.717V28.1ZM24.7254 28.3084C24.8087 28.3084 24.8087 28.325 24.8254 28.4417C24.8254 28.525 24.817 28.5834 24.767 28.6334C24.7004 28.6917 24.6837 28.6917 24.6337 28.6C24.5504 28.4667 24.6004 28.3084 24.7254 28.3084ZM23.042 30.6834C23.367 30.5167 23.5587 30.3417 23.6754 30.0834C23.7186 30.0004 23.7549 29.914 23.7837 29.825C23.7837 29.775 23.6254 29.7 23.5337 29.7C23.442 29.7 23.417 29.6334 23.4504 29.45C23.492 29.275 23.4504 29.05 23.367 29.05C23.342 29.05 23.2837 29.0917 23.2587 29.1417C23.2087 29.225 23.2004 29.2584 23.242 29.3667C23.3004 29.5334 23.2504 29.6667 23.1004 29.775C23.0254 29.825 22.992 29.8834 22.992 29.9417L23.0004 30.025L23.1754 29.9417L23.342 29.8417L23.4337 29.925C23.492 29.9584 23.5337 30.025 23.5337 30.0667C23.5337 30.2667 22.967 30.6 22.5837 30.6334C22.3754 30.65 22.3337 30.6334 22.267 30.5667C22.2087 30.5084 22.192 30.4584 22.2087 30.4L22.2504 30.1834C22.2837 30.0084 22.217 30.0334 22.0837 30.2334C21.9837 30.4 21.9504 30.575 22.0087 30.6667C22.0587 30.75 22.3754 30.8167 22.6087 30.8C22.7504 30.8 22.892 30.7584 23.042 30.6834ZM25.2087 29.475C25.4087 29.2667 25.5004 29.0167 25.5004 28.6417V28.35L25.667 28.2667C25.892 28.1667 26.1004 27.9584 26.1004 27.8417C26.1004 27.725 26.042 27.725 25.9504 27.8584C25.8754 27.95 25.7837 28.0084 25.4504 28.1667C25.367 28.2 25.3587 28.225 25.3337 28.5834C25.317 29 25.2504 29.15 25.0254 29.4334C24.8837 29.6 24.8754 29.6334 24.9754 29.6334C25.017 29.6334 25.1254 29.5584 25.2087 29.4667V29.475ZM22.9837 29.2417C23.0004 29.1834 22.8837 29.1417 22.842 29.1917C22.817 29.2084 22.8087 29.2417 22.8254 29.2667C22.8587 29.3167 22.9587 29.3 22.9837 29.2417ZM26.0504 28.45C26.0754 28.3834 25.9587 28.3417 25.9087 28.3917C25.892 28.4167 25.8837 28.45 25.9004 28.475C25.9337 28.525 26.0337 28.5084 26.0504 28.45ZM22.3587 26.2917C22.2754 26.3334 22.2337 26.4167 22.1837 26.4834C22.142 26.5084 22.1754 26.5334 22.192 26.5667C22.3337 26.7084 22.392 26.9167 22.4587 27.1084C22.5254 27.3334 22.6087 27.575 22.542 27.8084C22.517 27.8917 22.442 27.9834 22.342 27.9584C22.1754 27.95 22.0087 27.9 21.842 27.9C21.6837 27.9084 21.567 28.05 21.417 28.0334C21.317 28.0334 21.317 27.8334 21.2337 27.8917C21.1837 28 21.2087 28.1167 21.2004 28.225C21.217 28.25 21.267 28.2334 21.292 28.2417H21.6004C21.617 28.3417 21.617 28.4667 21.6837 28.55C21.792 28.5834 21.917 28.55 22.017 28.5084C22.117 28.4584 22.1337 28.3334 22.167 28.2334C22.2004 28.125 22.3337 28.15 22.417 28.1084C22.5173 28.0771 22.6043 28.0136 22.6647 27.9277C22.725 27.8417 22.7551 27.7382 22.7504 27.6334C22.7337 27.3084 22.617 27.0167 22.517 26.7167C22.4754 26.5834 22.442 26.4417 22.392 26.3084L22.3587 26.2917ZM21.8587 28.1084C21.967 28.1084 22.017 28.2417 21.992 28.3334C21.9504 28.4584 21.792 28.3834 21.767 28.2917C21.7087 28.2084 21.742 28.1 21.8504 28.1084H21.8587Z" fill="#F7E017"/>
<path d="M17.667 27.0667C17.617 27.0667 17.5586 27.0833 17.5003 27.125C17.2086 27.3333 17.1253 27.575 17.3336 27.675C17.4753 27.7417 17.442 27.825 17.2086 27.9417C16.8753 28.1083 16.5836 28.0833 16.0253 27.8583C15.892 27.8 15.8586 27.825 15.8836 27.9417C15.917 28.0667 16.0336 28.1333 16.3086 28.1917C16.6086 28.275 16.9753 28.25 17.2086 28.15C17.3456 28.0801 17.4674 27.9838 17.567 27.8667L17.7503 27.675L17.9586 27.7C18.217 27.7333 18.2253 27.7333 18.2253 27.8583C18.2253 27.9583 18.2253 27.9583 18.467 27.9833L18.8586 28C18.967 28 19.0253 28.025 19.0586 28.075C19.1086 28.1333 19.1336 28.1417 19.5253 28.1083C19.892 28.075 19.9586 28.075 20.1253 28.1333C20.242 28.1667 20.3753 28.1833 20.467 28.175C20.7503 28.1417 21.1336 27.9167 21.192 27.75C21.192 27.725 21.3003 27.6917 21.417 27.6667C21.7003 27.6083 21.7086 27.55 21.4503 27.5167C21.3197 27.4994 21.1912 27.4687 21.067 27.425C20.974 27.3857 20.8757 27.3604 20.7753 27.35C20.6336 27.35 20.5003 27.4333 20.5003 27.5333C20.5003 27.5917 20.517 27.6 20.692 27.5833C20.842 27.5667 20.892 27.575 20.9753 27.6417C21.0336 27.6833 21.067 27.7333 21.0586 27.75C21.017 27.8167 20.6836 27.9667 20.542 27.9917C20.4563 28.0059 20.3684 27.9912 20.292 27.95C20.1586 27.8833 19.9753 27.875 19.9336 27.9333C19.917 27.9583 19.8836 27.9417 19.8253 27.8917L19.742 27.8083L19.542 27.8917C19.342 27.975 19.267 27.975 19.267 27.875C19.267 27.8333 19.2086 27.825 18.917 27.85C18.592 27.8667 18.5586 27.8583 18.5003 27.7917C18.442 27.7333 18.442 27.7083 18.4836 27.65C18.517 27.5833 18.517 27.5667 18.4836 27.525C18.4503 27.4917 18.4003 27.4917 18.2753 27.525C17.9503 27.6083 17.8586 27.5667 17.8586 27.3167C17.8586 27.1583 17.7753 27.0667 17.667 27.0667ZM17.5836 27.3C17.6003 27.3 17.617 27.3083 17.642 27.3333C17.667 27.3583 17.6836 27.4167 17.667 27.4417C17.642 27.5167 17.5003 27.5167 17.4753 27.4417C17.4586 27.4 17.4753 27.3583 17.517 27.3333L17.5836 27.3Z" fill="#F7E017"/>
<path d="M17.0003 27.5334C17.2003 27.4084 17.2003 27.4167 17.2253 27.075C17.2419 26.825 17.2419 26.8084 17.1753 26.8084C17.0753 26.8084 17.0253 26.9167 17.0253 27.1167C17.0253 27.25 17.0086 27.3084 16.9419 27.3667C16.7753 27.5334 16.3753 27.4584 16.3169 27.2584C16.3003 27.1917 16.3253 27.125 16.4086 27.0084C16.5836 26.7584 16.5503 26.6917 16.3253 26.8834C16.1836 27.0167 16.1586 27.0167 16.1836 26.9084C16.2086 26.8 16.1586 26.7584 16.0336 26.7917C15.9753 26.8084 15.9336 26.8417 15.9253 26.925C15.9086 26.9917 15.8753 27.0334 15.8169 27.05C15.7169 27.075 15.5503 26.9834 15.5503 26.9C15.5503 26.8417 15.8003 26.5334 16.1253 26.2C16.2419 26.075 16.3419 25.95 16.3419 25.9417C16.3419 25.925 16.2753 25.9084 16.2003 25.9084C16.0836 25.9084 16.0503 25.925 16.0503 25.975C16.0503 26.0084 15.8919 26.225 15.6919 26.45C15.2753 26.9167 15.2419 27.0084 15.4419 27.1334C15.5252 27.1847 15.6217 27.2105 15.7194 27.2075C15.8172 27.2045 15.9119 27.173 15.9919 27.1167L16.1253 27.025V27.1917C16.1253 27.4 16.1669 27.4834 16.3336 27.5667C16.4379 27.6202 16.5544 27.6453 16.6714 27.6395C16.7885 27.6336 16.9019 27.597 17.0003 27.5334ZM25.7003 24.65C25.5503 24.7417 25.6669 24.9334 25.7003 25.0667C25.6336 25.2334 25.4086 25.2834 25.2419 25.3167C25.0086 25.3584 24.8419 25.55 24.7586 25.7584C24.7086 25.8917 24.5919 26.0917 24.4669 25.8917C24.3586 25.7834 24.1586 25.6917 24.0336 25.825C23.9336 25.9167 23.9086 26.05 23.8669 26.175C23.8086 26.0834 23.7836 25.9417 23.6669 25.9084C23.4669 25.9334 23.5419 26.1834 23.6336 26.2834C23.7169 26.4084 23.8003 26.5584 23.7169 26.7C23.6336 26.8667 23.3836 26.9834 23.2419 26.8417C23.1086 26.7667 23.2003 26.5084 23.0586 26.4917C22.9919 26.5417 22.9919 26.8167 22.8836 26.6667C22.8003 26.5417 22.8503 26.3667 22.7503 26.2584C22.6419 26.275 22.5503 26.4667 22.5836 26.5667C22.7336 26.7667 22.8003 27.0167 22.8586 27.2584C22.8919 27.3584 22.8503 27.55 22.9419 27.5917C23.0003 27.4334 22.9419 27.2584 22.9919 27.1C23.1419 27.0834 23.3003 27.15 23.4503 27.1167C23.6753 27.0917 23.8419 26.9 23.9169 26.7084C23.9419 26.5584 23.9169 26.4084 23.9086 26.2584C24.0753 26.2917 24.2586 26.2917 24.4253 26.3417C24.5086 26.4667 24.4003 26.65 24.3753 26.7834C24.2919 27.0667 24.0669 27.2667 23.8586 27.45C23.7669 27.5084 23.7586 27.65 23.8836 27.575C24.1686 27.4396 24.3919 27.2015 24.5086 26.9084C24.6003 26.6917 24.5253 26.45 24.5919 26.2334C24.6753 26.0667 24.8836 26.1 25.0419 26.1C25.2003 26.1 25.3336 25.9084 25.2836 25.75C25.2336 25.5667 25.4253 25.4834 25.5503 25.4167C25.7253 25.3334 25.8586 25.1584 25.8419 24.9584C25.8419 24.85 25.8419 24.6584 25.7003 24.65ZM25.0919 25.6917C25.2753 25.7417 25.0586 26.0917 24.9586 25.8667C24.9253 25.7834 25.0003 25.6917 25.0919 25.6917ZM24.2336 25.9417C24.4753 25.9334 24.3836 26.275 24.1836 26.125C24.0753 26.0667 24.1086 25.9417 24.2336 25.9417ZM15.5003 27.3C15.5003 27.2667 15.4836 27.2417 15.4503 27.2417C15.3919 27.2417 15.3503 27.3 15.3753 27.35C15.4086 27.4084 15.4836 27.375 15.5003 27.3ZM18.3336 27C18.3336 26.9417 18.3086 26.925 18.2669 26.9334C18.1753 26.95 18.1586 27.075 18.2586 27.075C18.3086 27.075 18.3336 27.05 18.3336 26.9917V27ZM14.8336 25.3C14.7253 25.275 14.6503 25.375 14.6086 25.4667C14.5253 25.6084 14.4253 25.75 14.2753 25.825C14.1669 25.8584 14.0503 25.8167 13.9503 25.7584C13.8419 25.7 13.8669 25.5667 13.8169 25.475C13.7336 25.4084 13.5919 25.5 13.6003 25.6C13.5919 25.7334 13.7086 25.8084 13.8169 25.8584C13.9003 25.9167 14.0336 25.9417 14.0669 26.05C14.0669 26.1417 14.1003 26.25 14.2086 26.2167C14.3336 26.2167 14.3753 26.3667 14.3169 26.4584C14.2612 26.56 14.2407 26.6772 14.2586 26.7917C14.3169 26.85 14.3753 26.7084 14.4253 26.675L14.5086 26.5584C14.7336 26.5667 14.9503 26.6 15.1753 26.5917C15.3419 26.5917 15.4669 26.4917 15.5669 26.375C15.7169 26.225 15.8336 26.05 15.9919 25.925C16.1086 25.8917 16.0503 25.675 15.9253 25.7417C15.8169 25.7834 15.7836 25.9084 15.7086 25.9834C15.5871 26.1435 15.4472 26.289 15.2919 26.4167C15.1669 26.4667 15.0336 26.4417 14.9086 26.4167C14.8586 26.375 15.0086 26.3334 15.0336 26.2834C15.1003 26.2167 15.1836 26.15 15.2253 26.0584C15.1836 25.975 15.0669 25.975 14.9836 25.975C14.7836 25.9917 14.6253 26.1667 14.4169 26.1834C14.2586 26.1834 14.3419 26.0167 14.4169 25.9584C14.5503 25.7917 14.7003 25.6417 14.8419 25.4834C14.8836 25.4334 15.0336 25.3834 14.9419 25.3167C14.9086 25.3 14.8669 25.3 14.8336 25.3ZM14.9336 26.1334C15.0419 26.1917 14.8669 26.2834 14.8003 26.275C14.7086 26.3 14.7003 26.2084 14.7836 26.1917C14.8336 26.1584 14.8836 26.1334 14.9336 26.1334ZM14.6169 26.35C14.6753 26.35 14.8003 26.4084 14.6836 26.4417C14.6003 26.5084 14.5169 26.375 14.6169 26.35Z" fill="#F7E017"/>
<path d="M17.1169 26.4833C17.1169 26.4 16.9836 26.4167 16.9669 26.5C16.9503 26.55 16.9669 26.5583 17.0336 26.55C17.0836 26.55 17.1169 26.5167 17.1169 26.4833ZM23.3419 25.9333C23.3586 25.8583 23.2586 25.8083 23.2002 25.8667C23.1419 25.9167 23.2003 26.025 23.2669 26.0083C23.3003 26.0083 23.3336 25.9667 23.3503 25.9333H23.3419ZM13.6669 25.175C13.7586 25.0917 13.7669 25.0833 13.7252 24.9C13.6586 24.6417 13.6669 24.6083 13.7669 24.5833C13.8919 24.5583 14.2086 24.725 14.2669 24.8583C14.3336 24.9667 14.3253 24.975 14.2336 25.0583C14.1336 25.15 14.1336 25.2583 14.2336 25.2583C14.3169 25.2583 14.5419 25.0417 14.5419 24.9667C14.5419 24.8583 14.2919 24.6 14.0919 24.5083C13.9719 24.4525 13.841 24.424 13.7086 24.425C13.4503 24.425 13.4169 24.4833 13.4836 24.775C13.5669 25.125 13.4586 25.175 13.1753 24.9083C13.0744 24.8197 12.9956 24.7087 12.945 24.5844C12.8944 24.46 12.8734 24.3256 12.8836 24.1917C12.8836 23.8583 13.0169 23.6833 13.3086 23.6417C13.5086 23.6167 13.5002 23.5667 13.3086 23.5417C13.0086 23.4917 12.7586 23.6917 12.6669 24.0417C12.5586 24.4333 12.8002 24.9083 13.2252 25.15C13.4502 25.275 13.5336 25.2833 13.6669 25.175ZM25.2669 24.7417C25.2919 24.725 25.3086 24.6667 25.3086 24.625C25.3086 24.5833 25.3503 24.4917 25.4002 24.425C25.4502 24.3583 25.4836 24.2917 25.4836 24.275C25.4836 24.2083 25.3753 24.2083 25.2919 24.275C25.2003 24.35 25.1253 24.3583 25.1253 24.275L25.2253 24.2C25.3586 24.1417 25.3669 24.075 25.2586 24.025C25.1169 23.9583 24.9669 24.075 24.9586 24.275C24.9503 24.4083 24.9586 24.425 25.0586 24.4833C25.1503 24.5417 25.1669 24.5667 25.1502 24.65C25.1252 24.7833 25.1836 24.8333 25.2669 24.7417ZM26.3503 24.625C26.4336 24.5417 26.5003 24.4667 26.5003 24.4417C26.5003 24.4167 26.5753 24.3417 26.6586 24.275C26.8919 24.1083 26.9503 23.9417 26.8419 23.6667C26.8003 23.5583 26.6753 23.4167 26.3836 23.1667C26.2507 23.0248 26.0994 22.9015 25.9336 22.8C25.8586 22.8 25.8753 23.0833 25.9503 23.1083C26.0919 23.1583 26.1836 23.2167 26.4002 23.4167C26.6669 23.65 26.7836 23.875 26.7169 24C26.6586 24.1167 26.5753 24.0833 26.3419 23.8333C26.2663 23.7393 26.1763 23.6577 26.0753 23.5917C26.0503 23.5917 26.0336 23.6417 26.0336 23.7083C26.0336 23.7917 26.0753 23.875 26.2003 24C26.3919 24.2167 26.4086 24.3417 26.2586 24.4583C26.2248 24.4927 26.1853 24.5209 26.1419 24.5417C25.9514 24.2156 25.6962 23.932 25.3919 23.7083C25.3669 23.7083 25.3503 23.7417 25.3503 23.825C25.3503 23.9333 25.3669 23.9667 25.4503 24.0083C25.6693 24.1765 25.8654 24.3726 26.0336 24.5917L26.1836 24.7583C26.2458 24.7195 26.3019 24.6718 26.3503 24.6167V24.625ZM26.8503 23.225C26.8086 23.125 26.1503 22.4417 26.0753 22.4417C26.0419 22.4417 26.0336 22.4833 26.0419 22.5917C26.0419 22.725 26.0669 22.7417 26.1586 22.7667C26.3009 22.8499 26.4301 22.9538 26.5419 23.075C26.6325 23.1724 26.7363 23.2566 26.8503 23.325V23.225ZM22.8669 30.9417C22.8714 30.9541 22.8723 30.9673 22.8695 30.98C22.8668 30.9928 22.8606 31.0049 22.8513 31.0153C22.842 31.0257 22.8299 31.0341 22.8159 31.04C22.802 31.0458 22.7867 31.0488 22.7711 31.0488C22.7555 31.0488 22.7402 31.0458 22.7262 31.04C22.7123 31.0341 22.7002 31.0257 22.6909 31.0153C22.6816 31.0049 22.6753 30.9928 22.6726 30.98C22.6699 30.9673 22.6708 30.9541 22.6753 30.9417C22.6708 30.9292 22.6699 30.9161 22.6726 30.9033C22.6753 30.8906 22.6816 30.8785 22.6909 30.8681C22.7002 30.8577 22.7123 30.8492 22.7262 30.8434C22.7402 30.8376 22.7555 30.8345 22.7711 30.8345C22.7867 30.8345 22.802 30.8376 22.8159 30.8434C22.8299 30.8492 22.842 30.8577 22.8513 30.8681C22.8606 30.8785 22.8668 30.8906 22.8695 30.9033C22.8723 30.9161 22.8714 30.9292 22.8669 30.9417ZM23.2169 30.825C23.2169 30.836 23.2143 30.8468 23.2093 30.8569C23.2043 30.867 23.1969 30.8762 23.1876 30.8839C23.1783 30.8917 23.1673 30.8978 23.1552 30.902C23.1431 30.9062 23.13 30.9083 23.1169 30.9083C23.1038 30.9083 23.0908 30.9062 23.0786 30.902C23.0665 30.8978 23.0555 30.8917 23.0462 30.8839C23.0369 30.8762 23.0296 30.867 23.0245 30.8569C23.0195 30.8468 23.0169 30.836 23.0169 30.825C23.0169 30.8141 23.0195 30.8032 23.0245 30.7931C23.0296 30.783 23.0369 30.7738 23.0462 30.7661C23.0555 30.7584 23.0665 30.7522 23.0786 30.748C23.0908 30.7438 23.1038 30.7417 23.1169 30.7417C23.13 30.7417 23.1431 30.7438 23.1552 30.748C23.1673 30.7522 23.1783 30.7584 23.1876 30.7661C23.1969 30.7738 23.2043 30.783 23.2093 30.7931C23.2143 30.8032 23.2169 30.8141 23.2169 30.825Z" fill="#F7E017"/>
</g>
</g>
<defs>
<clipPath id="clip0_769_7516">
<path d="M0 20C0 8.95431 8.95431 0 20 0C31.0457 0 40 8.95431 40 20C40 31.0457 31.0457 40 20 40C8.95431 40 0 31.0457 0 20Z" fill="white"/>
</clipPath>
<clipPath id="clip1_769_7516">
<rect width="53.3333" height="40" fill="white" transform="translate(-7)"/>
</clipPath>
</defs>
</svg>
