<svg width="40" height="40" viewBox="0 0 40 40" fill="none" xmlns="http://www.w3.org/2000/svg">
<g clip-path="url(#clip0_769_7366)">
<path d="M0 20C0 8.95431 8.95431 0 20 0C31.0457 0 40 8.95431 40 20C40 31.0457 31.0457 40 20 40C8.95431 40 0 31.0457 0 20Z" fill="#E94E0F"/>
<g clip-path="url(#clip1_769_7366)">
<path fill-rule="evenodd" clip-rule="evenodd" d="M-7 26.6667H46.3333V40H-7V26.6667Z" fill="#D62612"/>
<path fill-rule="evenodd" clip-rule="evenodd" d="M-7 0H46.3333V13.3333H-7V0Z" fill="white"/>
<path fill-rule="evenodd" clip-rule="evenodd" d="M-7 13.3333H46.3333V26.6667H-7V13.3333Z" fill="#00966E"/>
</g>
</g>
<defs>
<clipPath id="clip0_769_7366">
<path d="M0 20C0 8.95431 8.95431 0 20 0C31.0457 0 40 8.95431 40 20C40 31.0457 31.0457 40 20 40C8.95431 40 0 31.0457 0 20Z" fill="white"/>
</clipPath>
<clipPath id="clip1_769_7366">
<rect width="53.3333" height="40" fill="white" transform="translate(-7)"/>
</clipPath>
</defs>
</svg>
