<svg width="40" height="40" viewBox="0 0 40 40" fill="none" xmlns="http://www.w3.org/2000/svg">
<g clip-path="url(#clip0_769_7383)">
<path d="M0 20C0 8.95431 8.95431 0 20 0C31.0457 0 40 8.95431 40 20C40 31.0457 31.0457 40 20 40C8.95431 40 0 31.0457 0 20Z" fill="#E94E0F"/>
<g clip-path="url(#clip1_769_7383)">
<path fill-rule="evenodd" clip-rule="evenodd" d="M-13.8315 0L19.6685 20L-13.8315 40V0ZM53.1685 0L19.6685 20L53.1685 40V0Z" fill="#18B637"/>
<path fill-rule="evenodd" clip-rule="evenodd" d="M-13.8315 0L19.6685 20L53.1685 0H-13.8315ZM-13.8315 40L19.6685 20L53.1685 40H-13.8315Z" fill="#CF0921"/>
<path fill-rule="evenodd" clip-rule="evenodd" d="M53.1685 0H46.9263L-13.8315 36.2734V40H-7.58936L53.1685 3.72656V0Z" fill="white"/>
<path fill-rule="evenodd" clip-rule="evenodd" d="M31.2388 20C31.2388 23.0676 30.0202 26.0096 27.851 28.1787C25.6819 30.3478 22.74 31.5664 19.6724 31.5664C16.6048 31.5664 13.6628 30.3478 11.4937 28.1787C9.32456 26.0096 8.10596 23.0676 8.10596 20C8.10596 16.9334 9.32414 13.9925 11.4925 11.8241C13.6609 9.65569 16.6019 8.4375 19.6685 8.4375C22.735 8.4375 25.676 9.65569 27.8444 11.8241C30.0128 13.9925 31.231 16.9334 31.231 20H31.2388Z" fill="white"/>
<path fill-rule="evenodd" clip-rule="evenodd" d="M-13.8315 0V3.72656L46.9263 40H53.1685V36.2734L-7.58936 0H-13.8315Z" fill="white"/>
<path fill-rule="evenodd" clip-rule="evenodd" d="M21.9497 15.6406L20.4419 15.6641L19.6606 16.9453L18.8872 15.6641L17.3872 15.6328L18.1138 14.3125L17.395 13L18.895 12.9687L19.6763 11.6875L20.4497 12.9766L21.9497 13.0078L21.2231 14.3203L21.9497 15.6406ZM16.9028 24.3594L15.4028 24.3828L14.6216 25.6641L13.8481 24.3828L12.3481 24.3516L13.0747 23.0312L12.356 21.7188L13.856 21.6875L14.6372 20.4062L15.4106 21.6953L16.9106 21.7266L16.1841 23.0391L16.9028 24.3594ZM27.106 24.3594L25.606 24.3828L24.8247 25.6641L24.0435 24.3828L22.5513 24.3516L23.2778 23.0312L22.5513 21.7188L24.0513 21.6875L24.8325 20.4062L25.6138 21.6953L27.1138 21.7266L26.3794 23.0391L27.106 24.3594Z" fill="#CF0921" stroke="#18B637" stroke-width="0.304688"/>
</g>
</g>
<defs>
<clipPath id="clip0_769_7383">
<path d="M0 20C0 8.95431 8.95431 0 20 0C31.0457 0 40 8.95431 40 20C40 31.0457 31.0457 40 20 40C8.95431 40 0 31.0457 0 20Z" fill="white"/>
</clipPath>
<clipPath id="clip1_769_7383">
<rect width="53.3333" height="40" fill="white" transform="translate(-7)"/>
</clipPath>
</defs>
</svg>
