<svg width="40" height="40" viewBox="0 0 40 40" fill="none" xmlns="http://www.w3.org/2000/svg">
<g clip-path="url(#clip0_769_8677)">
<path d="M0 20C0 8.95431 8.95431 0 20 0C31.0457 0 40 8.95431 40 20C40 31.0457 31.0457 40 20 40C8.95431 40 0 31.0457 0 20Z" fill="#E94E0F"/>
<g clip-path="url(#clip1_769_8677)">
<path fill-rule="evenodd" clip-rule="evenodd" d="M-7.02439 18.2517H59.2769V34.3883H-7.03223L-7.02439 18.2517Z" fill="white"/>
<path fill-rule="evenodd" clip-rule="evenodd" d="M-6.97729 0H59.2927V20.1003H-6.97729V0ZM-6.95379 30.2288H59.794V40.1067H-6.95379V30.2288Z" fill="#081873"/>
<path fill-rule="evenodd" clip-rule="evenodd" d="M-6.95386 23.7037H59.3161V26.8057H-6.95386V23.7037Z" fill="#DE3929"/>
<path fill-rule="evenodd" clip-rule="evenodd" d="M12.9036 31.2707L13.4206 32.8687H15.097L13.734 33.8635L14.251 35.4693L12.9036 34.4667L11.5406 35.4615L12.0655 33.8557L10.7025 32.8608H12.3866L12.9036 31.2707ZM27.4736 19.6147L27.9985 21.2205H29.667L28.304 22.2075L28.821 23.8133L27.458 22.8185L26.095 23.8133L26.612 22.2075L25.249 21.2205H26.941L27.4736 19.6147ZM9.55097 26.2652L10.068 27.871H11.7521L10.397 28.8737L10.9218 30.4717L9.5588 29.4847L8.1958 30.4717L8.7128 28.8737L7.3498 27.8788H9.03397L9.55097 26.2652ZM27.4736 25.8108L27.9985 27.4088H29.667L28.304 28.4037L28.821 30.0017L27.458 29.0147L26.095 30.0095L26.612 28.4037L25.249 27.4088H26.941L27.4736 25.8108ZM23.7685 14.7423L24.2933 16.3403H25.9853L24.6223 17.3352L25.1393 18.941L23.7763 17.9462L22.4133 18.941L22.9381 17.3352L21.5673 16.3403H23.2593L23.7685 14.7423ZM18.2068 12.7997L18.7316 14.4055H20.4158L19.0528 15.3925L19.5698 16.9983L18.2068 16.0113L16.8438 16.9983L17.3686 15.3925L16.0056 14.4055H17.682L18.2068 12.7997ZM12.6295 14.6327L13.1543 16.2385H14.8385L13.4755 17.2255L14.0003 18.8313L12.6295 17.8365L11.2665 18.8313L11.7913 17.2255L10.4283 16.2385H12.1203L12.6295 14.6327ZM9.3943 19.6225L9.9113 21.2283H11.6033L10.2325 22.2153L10.7573 23.8212L9.3943 22.8263L8.0313 23.8212L8.5483 22.2153L7.1853 21.2283H8.86947L9.3943 19.6225ZM18.2068 32.9313L18.7316 34.5372H20.4158L19.0528 35.5242L19.5776 37.13L18.2068 36.1352L16.8438 37.13L17.3686 35.5242L16.0056 34.5372H17.682L18.2068 32.9313ZM24.121 31.2707L24.638 32.8687H26.3221L24.967 33.8635L25.4918 35.4693L24.1288 34.4745L22.758 35.4693L23.2828 33.8635L21.9198 32.8687H23.604" fill="#FFCE08"/>
</g>
</g>
<defs>
<clipPath id="clip0_769_8677">
<path d="M0 20C0 8.95431 8.95431 0 20 0C31.0457 0 40 8.95431 40 20C40 31.0457 31.0457 40 20 40C8.95431 40 0 31.0457 0 20Z" fill="white"/>
</clipPath>
<clipPath id="clip1_769_8677">
<rect width="53.3333" height="40" fill="white" transform="translate(-7)"/>
</clipPath>
</defs>
</svg>
