<svg width="40" height="40" viewBox="0 0 40 40" fill="none" xmlns="http://www.w3.org/2000/svg">
<g clip-path="url(#clip0_769_19080)">
<path d="M0 20C0 8.95431 8.95431 0 20 0C31.0457 0 40 8.95431 40 20C40 31.0457 31.0457 40 20 40C8.95431 40 0 31.0457 0 20Z" fill="#E94E0F"/>
<g clip-path="url(#clip1_769_19080)">
<path d="M-6 0.000488281H47V39.7505H-6V0.000488281Z" fill="#032EA1"/>
<path d="M-6 9.93799H47V29.813H-6V9.93799Z" fill="#E00025"/>
<path d="M20.2679 12.1076C20.2679 12.1076 20.2597 11.7018 20.4998 11.6936C20.7317 11.6936 20.7151 12.1076 20.7151 12.1076H20.2679ZM19.0258 17.5236V16.977C19.0258 16.6954 18.7442 16.6789 18.7442 16.4801C18.7442 16.4801 18.7028 16.182 18.7856 16.0412C18.8933 16.4387 19.0837 16.3725 19.0837 16.1986C19.0837 16.0578 18.9844 15.917 18.7525 15.5692C18.6697 15.4615 18.7194 15.1137 18.8187 14.9812C18.8601 15.2793 18.9098 15.4284 19.034 15.4284C19.1169 15.4284 19.1748 15.3787 19.1748 15.2297C19.1748 15.0309 19.0423 14.9315 18.9761 14.7493C18.9098 14.5672 18.9512 14.3601 19.0837 14.2193C19.1334 14.5175 19.1251 14.6334 19.2494 14.6334C19.5144 14.5423 19.2494 14.1531 19.1914 14.0537C19.1334 13.9461 19.2908 13.7142 19.2908 13.7142C19.3736 13.9792 19.3901 14.004 19.4895 13.9709C19.6054 13.9378 19.5889 13.7722 19.4481 13.6314C19.357 13.532 19.3653 13.3995 19.4647 13.3001C19.564 13.4906 19.68 13.4823 19.6965 13.3581L19.6137 12.9192H21.3445L21.2534 13.3498C21.2369 13.4658 21.3942 13.4989 21.4936 13.3001C21.5929 13.3995 21.6012 13.5403 21.5101 13.6314C21.3694 13.7722 21.3528 13.9378 21.4687 13.9709C21.5681 14.004 21.5847 13.9709 21.6675 13.7142C21.6675 13.7142 21.8165 13.8633 21.7669 14.0537C21.7089 14.1531 21.4356 14.5506 21.7089 14.6334C21.8414 14.6334 21.8248 14.5175 21.8745 14.2193C22.007 14.3601 22.0484 14.5672 21.9739 14.7493C21.9159 14.9315 21.7751 15.0309 21.7751 15.2297C21.7751 15.3787 21.8414 15.4284 21.9242 15.4284C22.0567 15.4284 22.1064 15.2876 22.1395 14.9812C22.2389 15.1137 22.2886 15.4615 22.2058 15.5775C21.9739 15.917 21.8662 16.0578 21.8662 16.1903C21.8662 16.3559 22.065 16.4304 22.1644 16.0329C22.2554 16.1737 22.214 16.4718 22.214 16.4718C22.214 16.6706 21.949 16.6872 21.9325 16.9687V17.5153L19.0258 17.5236ZM19.7379 12.9523L19.6965 12.6459H21.2783L21.2369 12.9523H19.7379ZM19.8373 12.6293L19.8208 12.3809H21.1623L21.1292 12.6293H19.8373ZM20.0692 12.3726L20.0361 12.1159H20.9304L20.9222 12.3726H20.0692ZM23.3486 23.3039C23.1498 23.2376 22.8517 23.014 22.8517 22.807V20.3889L23.1084 20.0493H17.8829L18.1314 20.3889V22.807C18.1314 23.014 17.9326 23.2376 17.7339 23.3039H23.3486Z" fill="white" stroke="black" stroke-width="0.099375" stroke-miterlimit="4.8"/>
<path d="M18.7939 21.1259H19.15V22.7656H18.7939V21.1259ZM21.8166 21.1259H22.1727V22.7656H21.8166V21.1259Z" fill="white" stroke="black" stroke-width="0.099375" stroke-miterlimit="4.8" stroke-linejoin="bevel"/>
<path d="M17.7839 17.3083V20.0494H23.1502V17.3083C23.0259 17.358 22.9266 17.4573 22.8934 17.5898V18.7658H18.0572V17.5898C18.0572 17.5898 17.9992 17.3911 17.7756 17.3083H17.7839Z" fill="white" stroke="black" stroke-width="0.099375" stroke-miterlimit="4.8"/>
<path d="M22.4132 23.3039C22.231 23.2376 21.8583 23.014 21.8583 22.807V20.1073C21.8998 19.9583 22.0985 19.8672 22.2227 19.7678H18.6784C18.844 19.8672 19.0344 19.9334 19.109 20.1073V22.807C19.109 23.014 18.8108 23.2376 18.6287 23.3039H22.4132Z" fill="white" stroke="black" stroke-width="0.099375" stroke-miterlimit="4.8"/>
<path d="M22.8931 19.7927V17.8466H22.4045V17.6561H18.5455V17.8549H18.0486V19.7927H22.8931ZM21.6592 23.3039C21.477 23.2377 21.2286 23.0141 21.2286 22.8071V20.5049L21.3694 20.2978H19.6137L19.7628 20.4966V22.8153C19.7628 23.0224 19.5061 23.246 19.3322 23.3122H21.6592V23.3039Z" fill="white" stroke="black" stroke-width="0.099375" stroke-miterlimit="4.8"/>
<path d="M20.0361 20.2896H20.9305V23.3039H20.0361V20.2896Z" fill="white" stroke="black" stroke-width="0.099375" stroke-miterlimit="4.8"/>
<path d="M21.4028 19.6271C21.4028 19.4283 21.9825 19.4201 22.2806 19.2461H18.7031C19.0012 19.4118 19.5644 19.4283 19.5644 19.6271L19.6803 20.0163L21.1709 20.0743L21.4028 19.6271Z" fill="white" stroke="black" stroke-width="0.099375" stroke-miterlimit="4.8" stroke-linejoin="bevel"/>
<path d="M22.0984 17.5236C22.0984 17.035 22.115 16.8611 22.2641 16.8611V18.3849C21.8997 18.5256 21.6347 18.9811 21.6347 18.9811H19.3325C19.3325 18.9811 19.0758 18.5256 18.7031 18.3849V16.8445C18.8853 16.8445 18.8853 17.0433 18.8853 17.507L22.0984 17.5236ZM22.2641 17.3249C22.2641 16.77 22.7527 16.712 22.7527 16.712V17.2089C22.5622 17.2006 22.4711 17.3663 22.4711 17.6064C22.4711 17.8549 22.6202 17.8549 22.6202 17.8549V19.2627H22.2641V17.3249Z" fill="white" stroke="black" stroke-width="0.099375" stroke-miterlimit="4.8"/>
<path d="M18.7112 17.3249C18.7112 16.77 18.2227 16.712 18.2227 16.712V17.2089C18.4131 17.2006 18.5042 17.3663 18.5042 17.6064C18.5042 17.8549 18.3552 17.8549 18.3552 17.8549V19.2627H18.7112V17.3249Z" fill="white" stroke="black" stroke-width="0.099375" stroke-miterlimit="4.8"/>
<path d="M18.9761 16.3394H21.9987M19.6551 13.4741H21.3611H19.6551ZM19.4564 14.0124H21.5433H19.4564ZM19.2576 14.6584H21.7337H19.2576ZM19.0423 15.4451H21.9739H19.0423Z" stroke="black" stroke-width="0.0795" stroke-miterlimit="4.8"/>
<path d="M18.0654 19.2793H22.8934H18.0654ZM19.5892 19.2793H21.3779V19.9335H19.5892V19.2793Z" stroke="black" stroke-width="0.099375" stroke-miterlimit="4.8"/>
<path d="M19.374 17.8052C19.6721 18.1613 19.6307 18.7658 19.6307 19.1302H21.3615C21.3615 18.7741 21.3201 18.1696 21.6182 17.8052H19.374ZM20.3346 13.7308L20.0945 13.5983V13.2505C20.1939 13.2837 20.2932 13.2919 20.3098 13.4493C20.3429 13.2174 20.4092 13.2423 20.5003 13.1512C20.5996 13.2423 20.6493 13.2174 20.6907 13.4493C20.6907 13.2919 20.8067 13.2837 20.8978 13.2505V13.5983L20.6659 13.7143L20.3346 13.7308Z" fill="white" stroke="black" stroke-width="0.099375" stroke-miterlimit="4.8"/>
<path d="M20.3179 14.3022L19.9204 14.0206V13.7142C20.0695 13.7473 20.2185 13.7639 20.2351 13.9295C20.2765 13.6811 20.3676 13.5651 20.5001 13.4658C20.6326 13.5651 20.7154 13.6811 20.7651 13.9295C20.7734 13.7639 20.9307 13.739 21.0632 13.7142V14.0289L20.674 14.2939H20.3179V14.3022Z" fill="white" stroke="black" stroke-width="0.099375" stroke-miterlimit="4.8"/>
<path d="M20.2848 15.1883L19.8376 14.7908V14.3271C19.995 14.3685 20.1771 14.385 20.1937 14.6335C20.2434 14.2857 20.3428 14.0952 20.4918 13.9544C20.6492 14.0952 20.7485 14.2857 20.8065 14.6335C20.8231 14.385 21.0053 14.3685 21.1626 14.3271V14.7908L20.7071 15.1883H20.2848ZM21.1212 15.71L20.7237 16.2732H20.26L19.8542 15.71H21.1212ZM19.614 16.6541C19.8128 16.7618 19.8956 16.9936 19.9121 17.4077H21.0632C21.0798 16.9936 21.1626 16.7618 21.3614 16.6541H19.614Z" fill="white" stroke="black" stroke-width="0.099375" stroke-miterlimit="4.8"/>
<path d="M21.3779 15.7018V15.1469C21.204 15.18 21.0632 15.3043 20.9969 15.4782C20.9969 15.2794 20.7485 14.8488 20.4835 14.6335C20.2185 14.8736 19.9535 15.2711 19.97 15.4699C19.9204 15.3208 19.7879 15.2049 19.5891 15.1552V15.7183L21.3779 15.7018Z" fill="white" stroke="black" stroke-width="0.099375" stroke-miterlimit="4.8" stroke-linejoin="bevel"/>
<path d="M21.4605 16.6541V16.0992C21.2535 16.1572 21.1127 16.2649 21.0547 16.4305C21.0547 16.2317 20.7897 15.8011 20.4916 15.5858C20.1935 15.8342 19.9119 16.2235 19.9285 16.4305C19.8788 16.2814 19.7297 16.1655 19.5227 16.0992V16.6624L21.4605 16.6541Z" fill="white" stroke="black" stroke-width="0.099375" stroke-miterlimit="4.8" stroke-linejoin="bevel"/>
<path d="M21.7011 17.8218V17.1676C21.494 17.2338 21.3118 17.3663 21.1959 17.5485C21.1959 17.2007 20.7984 16.6542 20.492 16.4885C20.1773 16.6707 19.7881 17.2256 19.7881 17.5485C19.6639 17.3663 19.4817 17.2338 19.2747 17.1676V17.8218H21.7011Z" fill="white" stroke="black" stroke-width="0.099375" stroke-miterlimit="4.8" stroke-linejoin="bevel"/>
<path d="M21.5601 19.2792V18.6001C21.32 18.6912 21.262 18.9065 21.1792 19.0639C21.2123 18.3765 20.7982 17.656 20.4835 17.4656C20.1689 17.656 19.7465 18.4014 19.7879 19.0556C19.7051 18.9148 19.6389 18.6912 19.407 18.6001V19.2626L21.5601 19.2792Z" fill="white" stroke="black" stroke-width="0.099375" stroke-miterlimit="4.8" stroke-linejoin="bevel"/>
<path d="M21.4026 20.2896V19.6105C21.1542 19.6685 21.1459 19.7596 21.0631 19.9087C21.0962 19.5029 20.8064 19.0309 20.4834 18.8569C20.1687 19.0391 19.8872 19.5029 19.9037 19.9087C19.8209 19.7596 19.8126 19.6685 19.5642 19.6105V20.2896H21.4026Z" fill="white" stroke="black" stroke-width="0.099375" stroke-miterlimit="4.8"/>
<path d="M10.9271 22.774V20.7451C10.8609 20.4883 10.629 20.2482 10.4717 20.2068V18.418L10.8361 18.6168L11.2667 20.4966V22.7822L10.9271 22.774Z" fill="white" stroke="black" stroke-width="0.099375" stroke-miterlimit="4.8"/>
<path d="M10.9271 22.7905V20.7533C10.8609 20.4966 10.629 20.2564 10.4717 20.215V18.3103C10.7201 18.3103 10.8361 18.625 10.8361 18.625L11.2667 20.5049V22.7739L10.9271 22.7905Z" fill="white" stroke="black" stroke-width="0.099375" stroke-miterlimit="4.8"/>
<path d="M10.6619 23.3039C10.8275 23.2376 11.0759 23.014 11.0759 22.807V20.2647L10.96 20.0659H15.2994L15.1337 20.2647V22.807C15.1503 23.0223 15.2745 23.2128 15.4733 23.3039H10.6619Z" fill="white" stroke="black" stroke-width="0.099375" stroke-miterlimit="4.8"/>
<path d="M14.587 23.3039C14.4214 23.2377 14.173 23.0141 14.173 22.8071V20.3889L14.5291 20.0494H11.5892L11.9453 20.3889V22.8071C11.9453 23.0141 11.6969 23.2377 11.5312 23.3039H14.587Z" fill="white" stroke="black" stroke-width="0.099375" stroke-miterlimit="4.8"/>
<path d="M14.1734 23.3039C14.0078 23.2377 13.7428 23.0141 13.7428 22.8071V20.6208L13.9829 20.2896H12.1114L12.3515 20.6208V22.8071C12.3515 23.0141 12.1031 23.2377 11.9209 23.3039H14.1734Z" fill="white" stroke="black" stroke-width="0.099375" stroke-miterlimit="4.8"/>
<path d="M12.6162 20.2896H13.5023V23.3122H12.6079L12.6162 20.2896Z" fill="white" stroke="black" stroke-width="0.099375" stroke-miterlimit="4.8"/>
<path d="M11.3906 21.1259H11.7467V22.7656H11.3906V21.1259ZM14.4547 21.1259H14.8025V22.7656H14.4464L14.4547 21.1259ZM11.0842 18.3683H11.5231V20.0577H11.0842V18.3683ZM11.0842 18.0453H11.5149V18.36H11.0842V18.0453ZM14.6203 18.7327H15.2249V20.0245H14.6203V18.7327Z" fill="white" stroke="black" stroke-width="0.099375" stroke-miterlimit="4.8" stroke-linejoin="bevel"/>
<path d="M11.5147 20.0328V17.1509C11.6307 17.1509 11.6555 17.5815 11.9288 17.5815C12.0779 17.5815 12.0696 17.3993 11.9785 17.2668C11.9122 17.1343 11.8211 16.9687 11.9371 16.6375C12.0282 16.8859 12.2435 16.9687 12.2021 16.8196C12.1358 16.5546 11.9205 16.505 12.0861 16.0909C12.1358 16.4304 12.3511 16.4221 12.3015 16.2234C12.2435 15.9915 12.111 15.8921 12.2683 15.5775C12.3594 15.9418 12.4671 15.9253 12.4671 15.6934C12.4671 15.3539 12.4671 14.9978 12.8811 14.8653C12.8811 14.8653 12.9143 14.5671 13.0716 14.5671C13.2207 14.5671 13.2538 14.8653 13.2538 14.8653C13.6844 14.9978 13.6679 15.3621 13.6679 15.6934C13.6679 15.9253 13.7755 15.9418 13.8666 15.5775C14.024 15.8921 13.8997 15.9915 13.8335 16.2234C13.7838 16.4221 13.9991 16.4304 14.0488 16.0909C14.2061 16.4967 13.9991 16.5464 13.9329 16.8196C13.8915 16.9687 14.115 16.8859 14.1979 16.6375C14.3138 16.9687 14.231 17.1343 14.1565 17.2668C14.0736 17.4076 14.0571 17.5815 14.2061 17.5815C14.4877 17.5815 14.5043 17.1675 14.6202 17.1675V20.041H11.5147V20.0328ZM10.8274 17.8548V20.0493H11.0758V17.8548C10.9847 17.8051 10.9102 17.8051 10.8274 17.8548Z" fill="white" stroke="black" stroke-width="0.099375" stroke-miterlimit="4.8"/>
<path d="M10.8442 19.2793C11.1506 19.4366 11.4571 19.6271 11.5399 20.0577H10.8442V19.2793ZM15.1422 18.6251V20.0577H15.341V18.6251C15.283 18.5919 15.1919 18.5836 15.1422 18.6251Z" fill="white" stroke="black" stroke-width="0.099375" stroke-miterlimit="4.8"/>
<path d="M15.3409 19.2792C15.0345 19.4283 14.7281 19.6105 14.6453 20.0411H15.3409V19.2792ZM13.2954 15.9336L13.4776 15.7845V15.5858C13.4196 15.5858 13.3782 15.6189 13.3285 15.6851C13.2871 15.5526 13.196 15.445 13.0801 15.387C12.9559 15.445 12.8648 15.5444 12.8234 15.6769C12.7737 15.6106 12.7406 15.5941 12.6743 15.5775V15.7762L12.8565 15.9336H13.2954Z" fill="white" stroke="black" stroke-width="0.099375" stroke-miterlimit="4.8"/>
<path d="M13.3948 16.4139L13.4776 16.2234V15.975C13.4196 15.975 13.3782 16.0081 13.3285 16.0743C13.2871 15.9418 13.196 15.8342 13.0801 15.7762C12.9559 15.8342 12.8648 15.9336 12.8234 16.0661C12.7737 15.9998 12.7406 15.9832 12.6743 15.975V16.2234L12.7571 16.4139H13.3948Z" fill="white" stroke="black" stroke-width="0.099375" stroke-miterlimit="4.8"/>
<path d="M13.4111 17.0764L13.6678 16.7452V16.4305C13.5684 16.4305 13.5187 16.4802 13.4525 16.5878C13.3862 16.356 13.2537 16.3228 13.0716 16.2069C12.8811 16.3063 12.7569 16.356 12.6906 16.5713C12.6078 16.4636 12.5581 16.4305 12.4587 16.4222V16.7369L12.7237 17.0682H13.4111V17.0764Z" fill="white" stroke="black" stroke-width="0.099375" stroke-miterlimit="4.8"/>
<path d="M13.4778 17.7224C13.4778 17.7224 13.7925 17.4574 13.809 17.3083V16.9605C13.6931 16.9688 13.5771 17.0019 13.4943 17.1509C13.4115 16.8611 13.2956 16.7866 13.0803 16.6541C12.8484 16.7866 12.7325 16.8611 12.6662 17.1509C12.5668 17.0019 12.4675 16.9688 12.335 16.9522V17.3083C12.4178 17.4656 12.5254 17.6064 12.6662 17.7224H13.4778Z" fill="white" stroke="black" stroke-width="0.099375" stroke-miterlimit="4.8"/>
<path d="M13.6102 18.9148C13.6102 18.9148 14.0491 18.4511 14.0574 18.2606V17.7223C13.9 17.7389 13.7427 17.8548 13.6185 18.0784C13.5191 17.6312 13.3617 17.3248 13.0719 17.1012C12.7738 17.3166 12.6164 17.6312 12.5171 18.0784C12.4011 17.8466 12.2521 17.7389 12.0864 17.7223V18.2606C12.1196 18.4511 12.5253 18.9148 12.5253 18.9148H13.6102Z" fill="white" stroke="black" stroke-width="0.099375" stroke-miterlimit="4.8"/>
<path d="M13.6102 19.6187C13.6102 19.6187 13.9746 19.2544 14.0574 19.0887V18.5505C13.9 18.567 13.7427 18.683 13.6185 18.8983C13.5688 18.5339 13.37 18.2027 13.0719 17.9873C12.7738 18.2027 12.6164 18.4511 12.5171 18.8983C12.4011 18.683 12.2521 18.567 12.0864 18.5505V19.0887C12.1858 19.2461 12.5253 19.6187 12.5253 19.6187H13.6102Z" fill="white" stroke="black" stroke-width="0.099375" stroke-miterlimit="4.8"/>
<path d="M13.7591 20.0328C13.6597 19.5691 13.5604 19.2213 13.0552 18.8734C12.5418 19.2213 12.4507 19.5691 12.343 20.0328H13.7591Z" fill="white" stroke="black" stroke-width="0.099375" stroke-miterlimit="4.8"/>
<path d="M14.0242 20.2895V19.6105C13.7841 19.7098 13.5771 19.8423 13.4942 19.9914C13.4114 19.6105 13.2458 19.4531 13.0388 19.2295C12.8317 19.4614 12.691 19.627 12.5999 19.9914C12.5171 19.8423 12.31 19.7016 12.0864 19.6105V20.2895H14.0242Z" fill="white" stroke="black" stroke-width="0.099375" stroke-miterlimit="4.8"/>
<path d="M30.0732 22.774V20.7451C30.1394 20.4883 30.3713 20.2482 30.5286 20.2068V18.418L30.1643 18.6168L29.7336 20.4966V22.7822L30.0732 22.774Z" fill="white" stroke="black" stroke-width="0.099375" stroke-miterlimit="4.8"/>
<path d="M30.0732 22.7905V20.7533C30.1394 20.4966 30.3713 20.2564 30.5286 20.215V18.3103C30.2802 18.3103 30.1643 18.625 30.1643 18.625L29.7336 20.5049V22.7739L30.0732 22.7905Z" fill="white" stroke="black" stroke-width="0.099375" stroke-miterlimit="4.8"/>
<path d="M30.3466 23.3039C30.1809 23.2376 29.9325 23.014 29.9325 22.807V20.2647L30.0484 20.0659H25.7091L25.8747 20.2647V22.807C25.8581 23.0223 25.7339 23.2128 25.5352 23.3039H30.3466Z" fill="white" stroke="black" stroke-width="0.099375" stroke-miterlimit="4.8"/>
<path d="M26.4211 23.3039C26.5868 23.2377 26.8352 23.0141 26.8352 22.8071V20.3889L26.4791 20.0494H29.419L29.0629 20.3889V22.8071C29.0629 23.0141 29.3113 23.2377 29.4769 23.3039H26.4211Z" fill="white" stroke="black" stroke-width="0.099375" stroke-miterlimit="4.8"/>
<path d="M26.8271 23.3039C26.9928 23.2377 27.2578 23.0141 27.2578 22.8071V20.6208L27.0176 20.2896H28.8892L28.649 20.6208V22.8071C28.649 23.0141 28.8975 23.2377 29.0796 23.3039H26.8271Z" fill="white" stroke="black" stroke-width="0.099375" stroke-miterlimit="4.8"/>
<path d="M28.3837 20.2896H27.4976V23.3122H28.3919L28.3837 20.2896Z" fill="white" stroke="black" stroke-width="0.099375" stroke-miterlimit="4.8"/>
<path d="M29.6094 21.1259H29.2533V22.7656H29.6094V21.1259ZM26.5453 21.1259H26.1975V22.7656H26.5536L26.5453 21.1259ZM29.9158 18.3683H29.4769V20.0577H29.9158V18.3683ZM29.9158 18.0453H29.4851V18.36H29.9158V18.0453ZM26.3797 18.7327H25.7751V20.0245H26.3797V18.7327Z" fill="white" stroke="black" stroke-width="0.099375" stroke-miterlimit="4.8" stroke-linejoin="bevel"/>
<path d="M29.4932 20.0328V17.1509C29.3772 17.1509 29.3524 17.5815 29.0791 17.5815C28.93 17.5815 28.9383 17.3993 29.0294 17.2668C29.0957 17.1343 29.1868 16.9687 29.0708 16.6375C28.9797 16.8859 28.7644 16.9687 28.8058 16.8196C28.8721 16.5546 29.0874 16.505 28.9218 16.0909C28.8721 16.4304 28.6568 16.4221 28.7064 16.2234C28.7644 15.9915 28.8969 15.8921 28.7396 15.5775C28.6485 15.9418 28.5408 15.9253 28.5408 15.6934C28.5408 15.3539 28.5408 14.9978 28.1268 14.8653C28.1268 14.8653 28.0936 14.5671 27.9363 14.5671C27.7872 14.5671 27.7541 14.8653 27.7541 14.8653C27.3235 14.9978 27.34 15.3621 27.34 15.6934C27.34 15.9253 27.2324 15.9418 27.1413 15.5775C26.9839 15.8921 27.1082 15.9915 27.1744 16.2234C27.2241 16.4221 27.0088 16.4304 26.9591 16.0909C26.8018 16.4967 27.0088 16.5464 27.075 16.8196C27.1164 16.9687 26.8929 16.8859 26.81 16.6375C26.6941 16.9687 26.7769 17.1343 26.8514 17.2668C26.9343 17.4076 26.9508 17.5815 26.8018 17.5815C26.5202 17.5815 26.5036 17.1675 26.3877 17.1675V20.041H29.4932V20.0328ZM30.1722 17.8548V20.0493H29.9238V17.8548C30.0149 17.8051 30.0977 17.8051 30.1722 17.8548Z" fill="white" stroke="black" stroke-width="0.099375" stroke-miterlimit="4.8"/>
<path d="M30.1562 19.2793C29.8498 19.4366 29.5434 19.6271 29.4605 20.0577H30.1562V19.2793ZM25.8665 18.6251V20.0577H25.6677V18.6251C25.7257 18.5919 25.8168 18.5836 25.8665 18.6251Z" fill="white" stroke="black" stroke-width="0.099375" stroke-miterlimit="4.8"/>
<path d="M25.6677 19.2792C25.9741 19.4283 26.2805 19.6105 26.3633 20.0411H25.6677V19.2792ZM27.7132 15.9336L27.531 15.7845V15.5858C27.589 15.5858 27.6304 15.6189 27.6801 15.6851C27.7215 15.5526 27.8126 15.445 27.9285 15.387C28.0527 15.445 28.1438 15.5444 28.1852 15.6769C28.2349 15.6106 28.268 15.5941 28.3343 15.5775V15.7762L28.1521 15.9336H27.7132Z" fill="white" stroke="black" stroke-width="0.099375" stroke-miterlimit="4.8"/>
<path d="M27.6138 16.4139L27.531 16.2234V15.975C27.589 15.975 27.6304 16.0081 27.6801 16.0743C27.7215 15.9418 27.8126 15.8342 27.9285 15.7762C28.0527 15.8342 28.1438 15.9336 28.1852 16.0661C28.2349 15.9998 28.268 15.9832 28.3343 15.975V16.2234L28.2515 16.4139H27.6138Z" fill="white" stroke="black" stroke-width="0.099375" stroke-miterlimit="4.8"/>
<path d="M27.5888 17.0764L27.332 16.7452V16.4305C27.4314 16.4305 27.4811 16.4802 27.5473 16.5878C27.6136 16.356 27.7461 16.3228 27.9283 16.2069C28.1188 16.3063 28.243 16.356 28.3092 16.5713C28.392 16.4636 28.4417 16.4305 28.5411 16.4222V16.7369L28.2761 17.0682H27.5888V17.0764Z" fill="white" stroke="black" stroke-width="0.099375" stroke-miterlimit="4.8"/>
<path d="M27.5227 17.7224C27.5227 17.7224 27.208 17.4574 27.1914 17.3083V16.9605C27.3073 16.9688 27.4233 17.0019 27.5061 17.1509C27.5889 16.8611 27.7048 16.7866 27.9202 16.6541C28.152 16.7866 28.268 16.8611 28.3342 17.1509C28.4336 17.0019 28.533 16.9688 28.6655 16.9522V17.3083C28.5827 17.4656 28.475 17.6064 28.3342 17.7224H27.5227Z" fill="white" stroke="black" stroke-width="0.099375" stroke-miterlimit="4.8"/>
<path d="M27.3901 18.9148C27.3901 18.9148 26.9512 18.4511 26.9429 18.2606V17.7223C27.1002 17.7389 27.2576 17.8548 27.3818 18.0784C27.4812 17.6312 27.6385 17.3248 27.9283 17.1012C28.2265 17.3166 28.3838 17.6312 28.4832 18.0784C28.5991 17.8466 28.7482 17.7389 28.9138 17.7223V18.2606C28.8807 18.4511 28.4749 18.9148 28.4749 18.9148H27.3901Z" fill="white" stroke="black" stroke-width="0.099375" stroke-miterlimit="4.8"/>
<path d="M27.3901 19.6187C27.3901 19.6187 27.0257 19.2544 26.9429 19.0887V18.5505C27.1002 18.567 27.2576 18.683 27.3818 18.8983C27.4315 18.5339 27.6302 18.2027 27.9283 17.9873C28.2265 18.2027 28.3838 18.4511 28.4832 18.8983C28.5991 18.683 28.7482 18.567 28.9138 18.5505V19.0887C28.8144 19.2461 28.4749 19.6187 28.4749 19.6187H27.3901Z" fill="white" stroke="black" stroke-width="0.099375" stroke-miterlimit="4.8"/>
<path d="M27.2412 20.0328C27.3406 19.5691 27.44 19.2213 27.9451 18.8734C28.4586 19.2213 28.5496 19.5691 28.6573 20.0328H27.2412Z" fill="white" stroke="black" stroke-width="0.099375" stroke-miterlimit="4.8"/>
<path d="M26.9758 20.2895V19.6105C27.216 19.7098 27.423 19.8423 27.5058 19.9914C27.5886 19.6105 27.7543 19.4531 27.9613 19.2295C28.1683 19.4614 28.3091 19.627 28.4002 19.9914C28.483 19.8423 28.69 19.7016 28.9136 19.6105V20.2895H26.9758Z" fill="white" stroke="black" stroke-width="0.099375" stroke-miterlimit="4.8"/>
<path d="M8.31 25.7717H32.69V27.0139H8.31V25.7717ZM7.66406 27.0139H33.3359V28.2561H7.66406V27.0139ZM9.59359 23.9002H31.3981V24.7034H9.59359V23.9002Z" fill="white" stroke="black" stroke-width="0.099375" stroke-miterlimit="4.8"/>
<path d="M8.95605 24.7034H32.0525V25.7551H8.95605V24.7034ZM9.97465 23.2873H31.0421V23.9001H9.97465V23.2873Z" fill="white" stroke="black" stroke-width="0.099375" stroke-miterlimit="4.8"/>
<path d="M12.2603 23.2873H13.8503V28.2561H12.2603V23.2873Z" fill="white" stroke="black" stroke-width="0.099375" stroke-miterlimit="4.8"/>
<path d="M12.6162 23.2873H13.5023V28.2561H12.6079L12.6162 23.2873ZM19.6718 23.2873H21.2618V28.2561H19.6718V23.2873Z" fill="white" stroke="black" stroke-width="0.099375" stroke-miterlimit="4.8"/>
<path d="M20.0361 23.2873H20.9305V28.2561H20.0361V23.2873ZM27.1414 23.2873H28.7314V28.2561H27.1414V23.2873Z" fill="white" stroke="black" stroke-width="0.099375" stroke-miterlimit="4.8"/>
<path d="M27.4893 23.2873H28.3836V28.2561H27.4893V23.2873Z" fill="white" stroke="black" stroke-width="0.099375" stroke-miterlimit="4.8"/>
<path d="M27.481 23.9002H28.3919M10.9268 22.7739H30.1061H10.9268ZM12.5996 27.6267H13.5105H12.5996ZM12.5996 26.9974H13.5105H12.5996ZM12.5996 26.3846H13.5105H12.5996ZM12.5996 25.7552H13.5105H12.5996ZM12.5996 25.1424H13.5105H12.5996ZM12.5996 24.513H13.5105H12.5996ZM12.5996 23.9002H13.5105H12.5996ZM20.0527 27.6267H20.9057H20.0527ZM20.0527 26.9974H20.9057H20.0527ZM20.0527 26.3846H20.9057H20.0527ZM20.0527 25.7552H20.9057H20.0527ZM20.0527 25.1424H20.9057H20.0527ZM20.0527 24.513H20.9057H20.0527ZM20.0527 23.9002H20.9057H20.0527ZM27.481 27.6267H28.3919H27.481ZM27.481 26.9974H28.3919H27.481ZM27.481 26.3846H28.3919H27.481ZM27.481 25.7552H28.3919H27.481ZM27.481 25.1424H28.3919H27.481ZM27.481 24.513H28.3919H27.481Z" stroke="black" stroke-width="0.099375" stroke-miterlimit="4.8"/>
<path d="M14.9021 18.7326H26.2143V23.0886H14.9021V18.7326Z" fill="white" stroke="black" stroke-width="0.099375" stroke-miterlimit="4.8" stroke-linejoin="bevel"/>
<path d="M25.6346 21.126H25.9824V22.7657H25.6346V21.126ZM14.9021 20.3227H26.2143V20.8196H14.9021V20.3227ZM14.9021 19.6271H26.2143V20.0826H14.9021V19.6271Z" fill="white" stroke="black" stroke-width="0.099375" stroke-miterlimit="4.8" stroke-linejoin="bevel"/>
<path d="M14.9021 18.948H26.2143V19.3787H14.9021V18.948Z" fill="white" stroke="black" stroke-width="0.0894375" stroke-miterlimit="4.8" stroke-linejoin="bevel"/>
<path d="M17.8829 21.1259H18.2389V22.7656H17.8829V21.1259ZM22.7522 21.1259H23.1083V22.7656H22.7522V21.1259ZM15.001 21.1259H15.3488V22.7656H15.001V21.1259ZM15.6966 21.1259H16.0444V22.7656H15.6966V21.1259ZM16.4419 21.1259H16.7897V22.7656H16.4419V21.1259ZM17.1872 21.1259H17.535V22.7656H17.1872V21.1259ZM23.4313 21.1259H23.7874V22.7656H23.4313V21.1259ZM24.1766 21.1259H24.5327V22.7656H24.1766V21.1259ZM24.9219 21.1259H25.278V22.7656H24.9219V21.1259Z" fill="white" stroke="black" stroke-width="0.099375" stroke-miterlimit="4.8" stroke-linejoin="bevel"/>
<path d="M10.4797 23.3039C10.6868 23.188 10.8441 23.0058 10.9186 22.7739H30.1063C30.1808 22.9975 30.3382 23.188 30.5452 23.3039H10.4797Z" fill="white" stroke="black" stroke-width="0.099375" stroke-miterlimit="4.8"/>
</g>
</g>
<defs>
<clipPath id="clip0_769_19080">
<path d="M0 20C0 8.95431 8.95431 0 20 0C31.0457 0 40 8.95431 40 20C40 31.0457 31.0457 40 20 40C8.95431 40 0 31.0457 0 20Z" fill="white"/>
</clipPath>
<clipPath id="clip1_769_19080">
<rect width="53" height="39.75" fill="white" transform="translate(-6 0.000488281)"/>
</clipPath>
</defs>
</svg>
