<svg width="40" height="40" viewBox="0 0 40 40" fill="none" xmlns="http://www.w3.org/2000/svg">
<g clip-path="url(#clip0_769_8619)">
<path d="M0 20C0 8.95431 8.95431 0 20 0C31.0457 0 40 8.95431 40 20C40 31.0457 31.0457 40 20 40C8.95431 40 0 31.0457 0 20Z" fill="#E94E0F"/>
<g clip-path="url(#clip1_769_8619)">
<path d="M-7 0H10.775V40H-7V0Z" fill="#007A5E"/>
<path d="M10.7749 0H28.5582V40H10.7749V0Z" fill="#CE1126"/>
<path d="M16.5005 24.5L19.5005 15.5L22.5005 24.5L14.5005 19H24.5005L20.5005 21.75L16.5005 24.5Z" fill="#FFDE00"/>
<path d="M28.5583 0H46.3333V40H28.5583V0Z" fill="#FCD116"/>
</g>
</g>
<defs>
<clipPath id="clip0_769_8619">
<path d="M0 20C0 8.95431 8.95431 0 20 0C31.0457 0 40 8.95431 40 20C40 31.0457 31.0457 40 20 40C8.95431 40 0 31.0457 0 20Z" fill="white"/>
</clipPath>
<clipPath id="clip1_769_8619">
<rect width="53.3333" height="40" fill="white" transform="translate(-7)"/>
</clipPath>
</defs>
</svg>
