<svg width="40" height="40" viewBox="0 0 40 40" fill="none" xmlns="http://www.w3.org/2000/svg">
<g clip-path="url(#clip0_769_8523)">
<path d="M0 20C0 8.95431 8.95431 0 20 0C31.0457 0 40 8.95431 40 20C40 31.0457 31.0457 40 20 40C8.95431 40 0 31.0457 0 20Z" fill="#E94E0F"/>
<g clip-path="url(#clip1_769_8523)">
<path d="M5.51099 0H33.8157V40H5.51099V0Z" fill="white"/>
<path d="M-8.63745 0H5.51099V40H-8.63745V0ZM33.8157 0H47.9641V40H33.8235L33.8157 0ZM9.75317 19.3281L8.6438 19.7031L13.761 24.1953C14.1516 25.3438 13.6282 25.6797 13.2922 26.2891L18.8391 25.5859L18.7063 31.1719L19.8625 31.1406L19.6047 25.5938L25.1672 26.2578C24.8235 25.5312 24.5188 25.1484 24.8313 23.9922L29.9407 19.7344L29.05 19.4062C28.3157 18.8438 29.3625 16.6953 29.5188 15.3359C29.5188 15.3359 26.5422 16.3594 26.3469 15.8203L25.5813 14.3594L22.8704 17.3438C22.5735 17.4141 22.4485 17.2969 22.3782 17.0469L23.6282 10.8125L21.6438 11.9297C21.4797 12.0078 21.3157 11.9453 21.2063 11.75L19.2922 7.92188L17.3235 11.8984C17.175 12.0391 17.0266 12.0547 16.9016 11.9609L15.011 10.8984L16.1516 17.0781C16.0579 17.3281 15.8391 17.3906 15.5891 17.2578L12.9875 14.3125C12.6516 14.8594 12.425 15.7422 11.9719 15.9453C11.5266 16.1328 10.0188 15.5703 9.01099 15.3516C9.35474 16.5938 10.4329 18.6562 9.75317 19.3359V19.3281Z" fill="#D52B1E"/>
</g>
</g>
<defs>
<clipPath id="clip0_769_8523">
<path d="M0 20C0 8.95431 8.95431 0 20 0C31.0457 0 40 8.95431 40 20C40 31.0457 31.0457 40 20 40C8.95431 40 0 31.0457 0 20Z" fill="white"/>
</clipPath>
<clipPath id="clip1_769_8523">
<rect width="53.3333" height="40" fill="white" transform="translate(-7)"/>
</clipPath>
</defs>
</svg>
