<svg width="40" height="40" viewBox="0 0 40 40" fill="none" xmlns="http://www.w3.org/2000/svg">
<g clip-path="url(#clip0_769_19249)">
<path d="M0 20C0 8.95431 8.95431 0 20 0C31.0457 0 40 8.95431 40 20C40 31.0457 31.0457 40 20 40C8.95431 40 0 31.0457 0 20Z" fill="#E94E0F"/>
<g clip-path="url(#clip1_769_19249)">
<path d="M-7 -0.000244141H46.3333V39.9998H-7V-0.000244141Z" fill="#000066"/>
<path d="M-7 -0.000244141H19.6667V19.9998H-7V-0.000244141Z" fill="#012169"/>
<path d="M-3.875 -0.000244141L6.29167 7.54142L16.4167 -0.000244141H19.6667V2.58309L9.66667 10.0414L19.6667 17.4581V19.9998H16.3333L6.33333 12.5414L-3.625 19.9998H-7V17.4998L2.95833 10.0831L-7 2.66642V-0.000244141H-3.875Z" fill="white"/>
<path d="M10.6667 11.7081L19.6667 18.3331V19.9998L8.375 11.7081H10.6667ZM3 12.5414L3.25 13.9998L-4.75 19.9998H-7L3 12.5414ZM19.6667 -0.000244141V0.124756L9.29167 7.95809L9.375 6.12476L17.5833 -0.000244141H19.6667ZM-7 -0.000244141L2.95833 7.33309H0.458333L-7 1.74976V-0.000244141Z" fill="#C8102E"/>
<path d="M3.04167 -0.000244141V19.9998H9.70833V-0.000244141H3.04167ZM-7 6.66642V13.3331H19.6667V6.66642H-7Z" fill="white"/>
<path d="M-7 8.04142V12.0414H19.6667V8.04142H-7ZM4.375 -0.000244141V19.9998H8.375V-0.000244141H4.375Z" fill="#C8102E"/>
<path d="M39.3 15.1498V21.9331C39.3 27.8164 36.5166 29.8331 32.7916 31.4331C29.0666 29.8331 26.2583 27.8164 26.2583 21.9331V15.1414L39.3 15.1498Z" fill="white" stroke="white" stroke-width="0.697092" stroke-miterlimit="3.4854" stroke-linejoin="round"/>
<path d="M22.2168 30.8831C22.4251 31.4331 23.9251 32.1664 25.6668 31.2331C26.8501 30.5664 27.6168 29.6331 28.3501 27.9664C28.5501 27.5414 28.6584 27.0248 28.1751 26.7081C27.7918 26.4248 27.1584 26.1164 26.8834 25.8331C26.7418 25.6914 26.6084 25.5831 26.5084 25.4831C26.5834 25.5581 26.6501 25.6248 26.7084 25.7248C27.4084 26.5581 26.6834 27.7831 25.9084 28.5164C25.3501 29.0414 24.3501 30.3248 22.8834 29.1081C22.5584 28.8248 21.8251 29.9748 22.2168 30.8831Z" fill="#FCEA83" stroke="white" stroke-width="0.697092" stroke-miterlimit="3.4854" stroke-linejoin="round"/>
<path d="M43.375 30.8831C43.125 31.4331 41.6334 32.1664 39.925 31.2331C38.75 30.5664 37.975 29.6331 37.2167 27.9664C37.0417 27.5414 36.9334 27.0248 37.4167 26.7081C37.8 26.4248 38.4334 26.1164 38.7084 25.8331C38.85 25.6914 38.95 25.5831 39.0834 25.4831C39.0084 25.5581 38.9417 25.6248 38.8834 25.7248C38.1834 26.5581 38.9084 27.7831 39.6417 28.5164C40.2 29.0414 41.2417 30.3248 42.7084 29.1081C43.025 28.8248 43.725 29.9748 43.375 30.8831Z" fill="#FCEA83" stroke="white" stroke-width="0.697092" stroke-miterlimit="3.4854" stroke-linejoin="round"/>
<path d="M32.7918 33.8748C35.5751 33.8748 39.8584 32.6164 42.1584 28.2331C42.5334 27.5081 42.1584 27.1248 41.7001 26.8831C41.1834 26.6248 40.7084 26.2831 40.3084 25.8664C40.8668 26.4248 40.7584 26.8081 40.3834 27.4331C38.6084 30.3998 36.1751 31.8914 32.7918 31.8914C29.4084 31.8914 26.9834 30.3914 25.2001 27.4331C24.8251 26.8081 24.7168 26.4248 25.2334 25.8748C24.8334 26.2914 24.3584 26.6331 23.8418 26.8831C23.3918 27.1248 23.0084 27.5081 23.3918 28.2331C25.6918 32.6164 30.0084 33.8748 32.7918 33.8748Z" fill="#FCEA83" stroke="white" stroke-width="0.697092" stroke-miterlimit="3.4854" stroke-linejoin="round"/>
<path d="M26.3501 27.9914C26.2751 27.6414 25.8334 27.7831 25.7001 28.1998C25.5084 27.9581 25.3501 27.6998 25.2084 27.4331C24.7917 26.8081 24.7251 26.3914 25.3167 25.7998C25.5917 25.5248 26.1501 25.2081 26.5334 25.5498C27.3251 26.2081 26.9084 27.2914 26.3501 27.9914Z" fill="#C8102E" stroke="white" stroke-width="0.697092" stroke-miterlimit="3.4854" stroke-linejoin="round"/>
<path d="M39.2001 27.9914C39.2751 27.6414 39.7584 27.7831 39.9001 28.1998C40.0751 27.9498 40.2501 27.7164 40.3834 27.4331C40.8001 26.8081 40.8667 26.3914 40.2417 25.7998C40.0001 25.5248 39.4417 25.2081 39.0251 25.5498C38.2501 26.2081 38.6417 27.2914 39.2001 27.9914Z" fill="#C8102E" stroke="white" stroke-width="0.697092" stroke-miterlimit="3.4854" stroke-linejoin="round"/>
<path d="M22.2166 30.8831C21.8666 30.3581 21.5916 28.9914 21.5166 28.6497C21.4166 28.3414 21.375 28.0581 21.7666 27.9248C22.15 27.7831 22.4916 28.2664 22.6666 28.6831C22.8416 29.0998 23.125 29.7247 23.4333 30.4914C22.6666 30.0414 22.0416 30.3498 22.2166 30.8831Z" fill="#C8102E" stroke="white" stroke-width="0.697092" stroke-miterlimit="3.4854" stroke-linejoin="round"/>
<path d="M30.1168 15.1164C29.6668 15.2164 29.3585 15.2581 28.9335 14.8664C28.6585 14.5914 28.7252 14.1081 29.0085 13.9247C29.3168 13.7247 29.6002 13.5831 29.9835 13.6831C30.3668 13.7914 31.3752 14.7247 31.1335 14.7664C30.8752 14.7664 30.5002 15.0081 30.1168 15.1164Z" fill="white" stroke="white" stroke-width="0.697092" stroke-miterlimit="3.4854" stroke-linejoin="round"/>
<path d="M31.1917 13.4414C31.3333 13.3331 31.5083 13.2664 31.9583 13.2248C32.3833 13.1998 32.6833 13.1998 32.7917 13.5164C32.9333 13.8914 33.0417 14.3414 33.3167 14.5581C33.1417 14.6581 32.275 14.7664 31.9583 14.5914C31.5417 14.3831 31.4333 13.5748 31.1917 13.4414Z" fill="white" stroke="white" stroke-width="0.697092" stroke-miterlimit="3.4854" stroke-linejoin="round"/>
<path d="M34.1833 13.4831C34.325 13.3748 34.4917 13.3748 34.9417 13.4081C35.3917 13.4414 35.5667 13.4831 35.6667 13.7914C35.775 14.1414 35.6667 14.5914 35.8833 14.8998C35.6667 14.9748 34.975 14.9748 34.725 14.7248C34.3583 14.4581 34.3917 13.6498 34.1833 13.4831Z" fill="white" stroke="white" stroke-width="0.697092" stroke-miterlimit="3.4854" stroke-linejoin="round"/>
<path d="M36.2667 13.6831C35.9584 13.6081 35.7417 13.5831 35.6167 13.6831C35.7834 13.8914 35.6417 14.7248 35.9917 15.0081C36.2334 15.1831 36.8667 15.2248 37 14.8331C37.175 14.4831 37.175 13.9581 36.2667 13.6831Z" fill="#073163" stroke="white" stroke-width="0.697092" stroke-miterlimit="3.4854" stroke-linejoin="round"/>
<path d="M32.6917 13.3331C32.7917 13.2331 33 13.1914 33.4167 13.1914C33.875 13.1914 34.1417 13.2664 34.2917 13.5414C34.4333 13.8914 34.3917 14.3414 34.6417 14.6248C34.5417 14.7664 33.6 14.7664 33.3167 14.5498C32.9333 14.3081 32.8917 13.5081 32.6917 13.3331Z" fill="#073163" stroke="white" stroke-width="0.697092" stroke-miterlimit="3.4854" stroke-linejoin="round"/>
<path d="M29.7334 13.6498C29.7334 13.4748 29.9751 13.4498 30.6084 13.4081C31.2251 13.3331 31.2584 13.3748 31.4751 13.8248C31.5751 14.0748 31.7167 14.4831 32.0001 14.6248C31.2334 14.8081 30.9834 14.9081 30.5667 14.6581C30.2667 14.4664 30.0167 14.2081 29.8417 13.8998C29.8001 13.7914 29.8001 13.6831 29.7334 13.6498Z" fill="#073163" stroke="white" stroke-width="0.697092" stroke-miterlimit="3.4854" stroke-linejoin="round"/>
<path d="M29.8001 10.5581C29.5501 10.5581 29.3501 10.4581 29.2084 10.2831C28.9667 9.96646 28.3084 9.82479 28.0251 10.1081C27.9251 10.1831 27.7834 10.1831 27.6834 10.2081C27.5084 10.2081 27.3001 10.3831 27.3667 10.7331C27.5084 10.6248 27.5417 10.7331 27.6501 10.7331C27.7251 10.6998 27.6834 10.7665 27.6834 10.8331C27.6834 11.0081 28.0584 11.3581 28.4084 11.3165C28.7917 11.3165 28.9667 11.4581 29.0334 11.5331C29.1417 11.6248 29.0667 11.5998 29.1417 11.7748C29.2417 11.8748 29.2834 11.9165 29.1084 12.0498C28.8084 12.2998 28.7667 12.7415 29.0167 13.0415C29.0417 13.0748 29.0751 13.1081 29.1084 13.1331C29.5584 13.4748 30.7084 14.0081 32.0001 12.9915C33.2501 12.0165 35.1917 12.5748 35.3417 12.9165C35.5167 13.2748 35.5834 13.4748 35.6167 13.6498C35.6501 13.7915 35.8251 13.9331 36.0751 13.8998C36.3167 13.8998 36.5917 13.9998 36.7251 14.1081C36.9084 14.2081 37.1501 14.1831 37.0834 13.8581C36.9417 12.8831 36.3501 12.7498 36.2834 12.2998C36.6251 12.3248 36.8667 12.3248 37.0084 12.1915C37.1084 12.0498 37.2501 11.8081 37.3917 11.7415C37.4917 11.6665 37.4917 11.5998 37.3584 11.6331C37.1834 11.6665 37.0834 11.7415 36.7667 11.7081C35.1584 11.5248 30.6751 10.3081 29.8001 10.5581Z" fill="#059334" stroke="white" stroke-width="0.697092" stroke-miterlimit="3.4854" stroke-linejoin="round"/>
<path d="M36.9 11.7414C36.6334 11.9248 36.4084 12.1664 36.2334 12.4414C35.8917 12.8914 34.85 13.3414 33.55 13.3414C32.3 13.3414 31.5417 13.1414 30.9834 12.6914C30.7417 12.4998 30.4834 12.3331 30.2167 12.1998C29.8417 12.0248 29.7667 11.6414 29.8667 11.3248C29.7667 11.4998 29.7 11.6748 29.4917 11.6331C29.35 11.6331 29.0667 11.6331 29.1417 11.7748C29.1084 11.6998 29.1084 11.5998 29.0667 11.5581L28.9917 11.4914C29.1 11.5664 29.35 11.3498 29.525 11.3498C29.6667 11.3831 29.8334 11.2081 29.8 10.9998L29.7 10.5498C29.975 10.4081 33.625 11.0748 34.3584 11.1414C35.0834 11.1831 37.175 11.4914 36.9 11.7414Z" fill="black" stroke="white" stroke-width="0.697092" stroke-miterlimit="3.4854" stroke-linejoin="round"/>
<path d="M30.2835 10.4165C30.6335 10.0665 31.0419 9.89147 31.4669 9.99147H31.5669C31.7835 9.81647 32.2669 9.78314 32.5502 9.91647H32.6919C33.1085 9.7748 33.9085 9.91647 34.1835 10.1998L34.2835 10.2748C35.2252 10.1998 35.7835 10.6165 36.4419 11.2831C36.5169 11.3581 36.6169 11.4831 36.7919 11.5248C37.0002 11.5581 37.0419 11.6665 36.8669 11.7748C36.5835 11.9498 36.3419 12.1665 36.1419 12.4248C35.8252 12.8498 34.8169 13.2665 33.5585 13.2665C32.3419 13.2665 31.6085 13.0498 31.0502 12.6331C30.7419 12.3915 30.5002 12.2581 30.3252 12.1498C30.1169 12.0748 29.8419 11.7998 29.9419 11.5248C30.0169 11.2498 29.8419 10.8998 29.7002 10.5498C29.8002 10.4748 30.0752 10.3748 30.2169 10.4498L30.2835 10.4165Z" fill="#059334" stroke="white" stroke-width="0.697092" stroke-miterlimit="3.4854" stroke-linejoin="round"/>
<path d="M36.4417 11.2915C35.7917 10.6248 35.225 10.2082 34.2833 10.2748C34.2833 10.3082 34.2833 10.4165 34.25 10.4915C34.9083 10.7832 35.4917 11.2248 35.9583 11.7748C36.1 11.6332 36.3417 11.4665 36.4417 11.2915Z" fill="#00493D" stroke="white" stroke-width="0.697092" stroke-miterlimit="3.4854" stroke-linejoin="round"/>
<path d="M34.1834 10.2082C33.9 9.93317 33.1 9.78317 32.6917 9.93317C32.6917 10.0748 32.6917 10.2832 32.6167 10.4165C32.8667 10.5165 33.0667 10.7665 33.275 11.0082C33.4167 10.9748 33.7584 10.8665 33.9334 10.8332C34.0417 10.6332 34.125 10.4248 34.1834 10.2082Z" fill="#00493D" stroke="white" stroke-width="0.697092" stroke-miterlimit="3.4854" stroke-linejoin="round"/>
<path d="M32.5501 9.92483C32.2668 9.78317 31.7835 9.82483 31.5668 9.99983C31.4918 10.1415 31.4668 10.4248 31.4668 10.5582C31.6085 10.5582 31.8168 10.6582 31.8835 10.7332C32.1001 10.6582 32.3751 10.5248 32.4751 10.4248C32.5168 10.2748 32.5835 10.0665 32.5501 9.92483Z" fill="#00493D" stroke="white" stroke-width="0.697092" stroke-miterlimit="3.4854" stroke-linejoin="round"/>
<path d="M30.2834 10.4165C30.6334 10.0665 31.0418 9.89151 31.4668 9.99151C31.3918 10.0998 31.3668 10.2998 31.3668 10.5165C30.9834 10.4832 30.4918 10.5915 30.2834 10.7248V10.4165Z" fill="#00493D" stroke="white" stroke-width="0.697092" stroke-miterlimit="3.4854" stroke-linejoin="round"/>
<path d="M35.8167 11.8415C35.3834 11.3248 34.8334 10.9082 34.2167 10.6248C34.2167 10.6582 34.1417 10.7998 34.1084 10.9082C34.3167 11.2165 34.7334 11.9165 34.9084 12.2998C35.0834 12.2248 35.5751 12.0165 35.8167 11.8415Z" fill="#00493D" stroke="white" stroke-width="0.697092" stroke-miterlimit="3.4854" stroke-linejoin="round"/>
<path d="M33.175 12.6082C33.2334 12.1332 33.2667 11.6582 33.275 11.1748C33.45 11.1415 33.8 11.0332 33.9334 10.9998C34.1084 11.2832 34.525 12.0165 34.7 12.3582C34.2917 12.4665 33.5917 12.6415 33.175 12.6082Z" fill="#00493D" stroke="white" stroke-width="0.697092" stroke-miterlimit="3.4854" stroke-linejoin="round"/>
<path d="M31.9585 10.9415C32.1335 10.8665 32.3835 10.7248 32.5502 10.5915C32.6918 10.6915 32.9752 10.9415 33.0752 11.0748C33.0752 11.3832 32.9752 12.2915 32.9335 12.5998C32.6585 12.5998 32.2085 12.5332 31.9585 12.3998C31.9918 11.8748 32.0335 11.2915 31.9585 10.9415Z" fill="#00493D" stroke="white" stroke-width="0.697092" stroke-miterlimit="3.4854" stroke-linejoin="round"/>
<path d="M30.2168 11.3582C30.2501 11.2832 30.2918 11.0498 30.2918 10.9415C30.5668 10.7665 31.2668 10.5915 31.7835 10.8665C31.8168 11.2165 31.7835 12.0832 31.7501 12.2998C31.2835 11.9165 30.7668 11.5998 30.2168 11.3582Z" fill="#00493D" stroke="white" stroke-width="0.697092" stroke-miterlimit="3.4854" stroke-linejoin="round"/>
<path d="M28.4833 10.7247C28.4083 10.7247 28.375 10.5247 28.2333 10.5247C28.2 10.5247 28.0917 10.5581 28.0583 10.5247C28.0583 10.5997 28.0917 10.6664 28.1333 10.6997C28.1667 10.7914 28.3417 10.7331 28.4833 10.7247Z" fill="black"/>
<path d="M28.4834 11.3164C28.9001 11.3164 28.9667 10.7914 29.1834 10.7664" stroke="white" stroke-width="0.697092" stroke-miterlimit="3.4854" stroke-linejoin="round"/>
<path d="M28.7168 11.3581C29.0251 11.4997 29.2751 10.7664 29.5168 10.7997" stroke="white" stroke-width="0.697092" stroke-miterlimit="3.4854" stroke-linejoin="round"/>
<path d="M28.0918 10.4497C28.1918 10.4497 28.2668 10.3081 28.4418 10.4747C28.5168 10.5497 28.6168 10.5831 28.6918 10.5831" stroke="white" stroke-width="0.697092" stroke-miterlimit="3.4854" stroke-linejoin="round"/>
<path d="M28.6168 10.9664C28.4751 11.1831 28.2335 11.3164 28.0918 11.2497" stroke="white" stroke-width="0.697092" stroke-miterlimit="3.4854" stroke-linejoin="round"/>
<path d="M28.0251 10.1081C27.9251 10.1831 27.8584 10.3081 27.7834 10.4164" stroke="white" stroke-width="0.697092" stroke-miterlimit="3.4854" stroke-linejoin="round"/>
<path d="M27.6833 10.6247V10.7997" stroke="white" stroke-width="0.697092" stroke-miterlimit="3.4854" stroke-linejoin="round"/>
<path d="M31.4085 10.108C30.6752 9.54971 29.8002 9.02471 29.0085 8.92471C29.8419 9.48305 30.6335 10.0997 31.3752 10.7664" fill="black"/>
<path d="M31.4085 10.108C30.6752 9.54971 29.8002 9.02471 29.0085 8.92471C29.8419 9.48305 30.6335 10.0997 31.3752 10.7664" stroke="white" stroke-width="0.697092" stroke-miterlimit="3.4854" stroke-linejoin="round"/>
<path d="M31.8168 9.58303C30.9418 8.99136 29.9335 8.32469 28.9668 8.25803C29.8751 8.78303 30.6918 9.46636 31.3668 10.2747" fill="black"/>
<path d="M31.8168 9.58303C30.9418 8.99136 29.9335 8.32469 28.9668 8.25803C29.8751 8.78303 30.6918 9.46636 31.3668 10.2747" stroke="white" stroke-width="0.697092" stroke-miterlimit="3.4854" stroke-linejoin="round"/>
<path d="M32.9333 8.60804C33.325 7.71637 33.9083 6.91637 34.6417 6.26637C34.2917 6.99971 33.9167 8.49971 33.7333 9.09137" fill="black"/>
<path d="M32.9333 8.60804C33.325 7.71637 33.9083 6.91637 34.6417 6.26637C34.2917 6.99971 33.9167 8.49971 33.7333 9.09137" stroke="white" stroke-width="0.697092" stroke-miterlimit="3.4854" stroke-linejoin="round"/>
<path d="M33.7 8.43305C34.0333 7.61638 34.6666 6.94971 35.475 6.58305C34.875 7.33305 34.425 8.19971 34.15 9.12471" fill="black"/>
<path d="M33.7 8.43305C34.0333 7.61638 34.6666 6.94971 35.475 6.58305C34.875 7.33305 34.425 8.19971 34.15 9.12471" stroke="white" stroke-width="0.697092" stroke-miterlimit="3.4854" stroke-linejoin="round"/>
<path d="M34.0168 9.12471C34.6835 8.10805 35.6418 7.30805 36.7585 6.83305C35.8835 7.70805 34.6002 9.29971 34.2918 9.93305" fill="black"/>
<path d="M34.0168 9.12471C34.6835 8.10805 35.6418 7.30805 36.7585 6.83305C35.8835 7.70805 34.6002 9.29971 34.2918 9.93305" stroke="white" stroke-width="0.697092" stroke-miterlimit="3.4854" stroke-linejoin="round"/>
<path d="M34.5 9.89136C35.125 9.54136 36.3833 8.98303 37.2833 9.16636C36.7333 9.36636 35.0583 10.133 34.325 10.833" fill="black"/>
<path d="M34.5 9.89136C35.125 9.54136 36.3833 8.98303 37.2833 9.16636C36.7333 9.36636 35.0583 10.133 34.325 10.833" stroke="white" stroke-width="0.697092" stroke-miterlimit="3.4854" stroke-linejoin="round"/>
<path d="M34.3583 9.64969C34.95 9.02469 36.0249 8.09136 37.1749 7.69969C36.3416 8.49969 34.5583 10.3164 34.325 10.5914" fill="black"/>
<path d="M34.3583 9.64969C34.95 9.02469 36.0249 8.09136 37.1749 7.69969C36.3416 8.49969 34.5583 10.3164 34.325 10.5914" stroke="white" stroke-width="0.697092" stroke-miterlimit="3.4854" stroke-linejoin="round"/>
<path d="M32.6918 9.26635C32.2668 7.97469 31.6502 6.75802 30.7085 6.37469C31.4585 7.44135 31.9752 8.64969 32.2335 9.92469" fill="black"/>
<path d="M32.6918 9.26635C32.2668 7.97469 31.6502 6.75802 30.7085 6.37469C31.4585 7.44135 31.9752 8.64969 32.2335 9.92469" stroke="white" stroke-width="0.697092" stroke-miterlimit="3.4854" stroke-linejoin="round"/>
<path d="M31.8834 9.23302C31.1917 8.39969 30.25 7.56636 29.175 7.39136C30.225 8.08302 31.0584 9.05802 31.575 10.208" fill="black"/>
<path d="M31.8834 9.23302C31.1917 8.39969 30.25 7.56636 29.175 7.39136C30.225 8.08302 31.0584 9.05802 31.575 10.208" stroke="white" stroke-width="0.697092" stroke-miterlimit="3.4854" stroke-linejoin="round"/>
<path d="M32.2751 9.19971C31.4001 7.63304 30.7334 7.35804 30.3584 7.04137C30.6667 7.63304 31.4334 9.19971 31.8834 9.85804" fill="black"/>
<path d="M32.2751 9.19971C31.4001 7.63304 30.7334 7.35804 30.3584 7.04137C30.6667 7.63304 31.4334 9.19971 31.8834 9.85804" stroke="white" stroke-width="0.697092" stroke-miterlimit="3.4854" stroke-linejoin="round"/>
<path d="M30.5334 9.09969C31.0334 9.40802 31.4584 9.82469 31.7834 10.3164" stroke="white" stroke-width="0.697092" stroke-miterlimit="3.4854" stroke-linejoin="round"/>
<path d="M30.5334 9.82469C30.7334 9.99969 31.1251 10.208 31.4668 10.5247L30.5334 9.82469Z" fill="black"/>
<path d="M30.5334 9.82469C30.7334 9.99969 31.1251 10.208 31.4668 10.5247" stroke="white" stroke-width="0.697092" stroke-miterlimit="3.4854" stroke-linejoin="round"/>
<path d="M34.675 10.3414C35.025 10.0664 35.7834 9.61638 36.1667 9.46638L34.675 10.3414Z" fill="black"/>
<path d="M34.675 10.3414C35.025 10.0664 35.7834 9.61638 36.1667 9.46638" stroke="white" stroke-width="0.697092" stroke-miterlimit="3.4854" stroke-linejoin="round"/>
<path d="M34.425 10.108C34.775 9.6497 35.4667 9.0247 35.7167 8.81637L34.425 10.108Z" fill="black"/>
<path d="M34.425 10.108C34.775 9.6497 35.4667 9.0247 35.7167 8.81637" stroke="white" stroke-width="0.697092" stroke-miterlimit="3.4854" stroke-linejoin="round"/>
<path d="M35.4002 7.94136C34.9335 8.46636 34.4919 9.01636 34.0752 9.58303L35.4002 7.94136Z" fill="black"/>
<path d="M35.4002 7.94136C34.9335 8.46636 34.4919 9.01636 34.0752 9.58303" stroke="white" stroke-width="0.697092" stroke-miterlimit="3.4854" stroke-linejoin="round"/>
<path d="M34.5 7.63303C34.1667 8.11636 33.875 8.63303 33.625 9.16636L34.5 7.63303Z" fill="black"/>
<path d="M34.5 7.63303C34.1667 8.11636 33.875 8.63303 33.625 9.16636" stroke="white" stroke-width="0.697092" stroke-miterlimit="3.4854" stroke-linejoin="round"/>
<path d="M31.75 7.69969C31.9583 8.25803 32.3417 9.19969 32.475 9.58302L31.75 7.69969Z" fill="black"/>
<path d="M31.75 7.69969C31.9583 8.25803 32.3417 9.19969 32.475 9.58303" stroke="white" stroke-width="0.697092" stroke-miterlimit="3.4854" stroke-linejoin="round"/>
<path d="M31.4333 8.29137C31.575 8.50804 31.8583 8.99137 31.9583 9.33304L31.4333 8.29137Z" fill="black"/>
<path d="M31.4333 8.29137C31.575 8.50804 31.8583 8.99137 31.9583 9.33304" stroke="white" stroke-width="0.697092" stroke-miterlimit="3.4854" stroke-linejoin="round"/>
<path d="M32.6167 8.11646C32.6167 7.80813 32.825 7.46646 33.0417 7.46646C33.2834 7.46646 33.4584 7.88313 33.4584 8.11646C33.4584 8.39979 33.25 8.64146 33.0417 8.64146C32.825 8.64146 32.6167 8.43313 32.6167 8.11646Z" fill="black" stroke="white" stroke-width="0.697092" stroke-miterlimit="3.4854" stroke-linejoin="round"/>
<path d="M32.1667 8.39981C32.2 8.04981 32.4417 7.77481 32.65 7.80815C32.8584 7.84148 32.9584 8.26648 32.925 8.50815C32.8917 8.78315 32.6501 8.99148 32.4751 8.95815C32.3084 8.94981 32.1334 8.70815 32.1667 8.39981Z" fill="black" stroke="white" stroke-width="0.697092" stroke-miterlimit="3.4854" stroke-linejoin="round"/>
<path d="M33.1085 8.49979C33.0335 8.19145 33.1835 7.84979 33.3918 7.79979C33.5918 7.77479 33.8085 8.10812 33.8418 8.39145C33.9168 8.66645 33.7335 8.94146 33.5585 8.94146C33.3918 8.98312 33.1418 8.81645 33.1085 8.49979Z" fill="black" stroke="white" stroke-width="0.697092" stroke-miterlimit="3.4854" stroke-linejoin="round"/>
<path d="M32.5835 8.77481C32.5835 8.43314 32.7918 8.12481 33.0085 8.12481C33.2502 8.12481 33.4252 8.49981 33.4252 8.77481C33.4252 9.05814 33.2252 9.29981 33.0085 9.29981C32.7918 9.29981 32.5835 9.09981 32.5835 8.77481Z" fill="black" stroke="white" stroke-width="0.697092" stroke-miterlimit="3.4854" stroke-linejoin="round"/>
<path d="M31.9585 8.94982C31.9585 8.64149 32.2085 8.29982 32.4085 8.29982C32.6252 8.29982 32.8335 8.71649 32.8335 8.94982C32.8335 9.23315 32.5835 9.47482 32.4085 9.47482C32.2085 9.47482 31.9585 9.26649 31.9585 8.94982Z" fill="black" stroke="white" stroke-width="0.697092" stroke-miterlimit="3.4854" stroke-linejoin="round"/>
<path d="M33.2417 8.81646C33.2417 8.50813 33.4584 8.16646 33.6667 8.16646C33.9084 8.16646 34.0834 8.58313 34.0834 8.81646C34.0834 9.09979 33.8834 9.34146 33.6667 9.34146C33.45 9.33312 33.2417 9.12479 33.2417 8.81646Z" fill="black" stroke="white" stroke-width="0.697092" stroke-miterlimit="3.4854" stroke-linejoin="round"/>
<path d="M33.1084 9.09981C33.1084 8.74981 33.3584 8.44147 33.5584 8.44147C33.7751 8.44147 33.9834 8.81647 33.9834 9.09147C33.9834 9.37481 33.7751 9.62481 33.5584 9.62481C33.3501 9.61647 33.1084 9.39981 33.1084 9.09981Z" fill="black" stroke="white" stroke-width="0.697092" stroke-miterlimit="3.4854" stroke-linejoin="round"/>
<path d="M32.55 9.40814C32.55 9.05814 32.75 8.74981 32.9667 8.74981C33.2167 8.74981 33.3917 9.16648 33.3917 9.39981C33.3917 9.69148 33.175 9.93314 32.9667 9.93314C32.7584 9.93314 32.5417 9.71648 32.55 9.40814Z" fill="black" stroke="white" stroke-width="0.697092" stroke-miterlimit="3.4854" stroke-linejoin="round"/>
<path d="M31.6833 9.40814C31.6833 9.05814 31.8583 8.74981 32.0333 8.74981C32.2083 8.74981 32.3417 9.16648 32.3417 9.39981C32.3417 9.69148 32.1667 9.93314 32.0333 9.93314C31.8583 9.93314 31.6833 9.71648 31.6833 9.40814Z" fill="black" stroke="white" stroke-width="0.697092" stroke-miterlimit="3.4854" stroke-linejoin="round"/>
<path d="M33.625 9.34149C33.625 9.02483 33.8 8.70816 33.975 8.70816C34.15 8.70816 34.325 9.09149 34.325 9.33316C34.325 9.64149 34.1167 9.85816 33.975 9.85816C33.8 9.85816 33.625 9.64983 33.625 9.34149Z" fill="black" stroke="white" stroke-width="0.697092" stroke-miterlimit="3.4854" stroke-linejoin="round"/>
<path d="M33.8418 9.9248C33.9168 9.58313 34.1168 9.2998 34.2584 9.34147C34.4001 9.36647 34.4334 9.78313 34.3668 10.0331C34.3334 10.3415 34.1168 10.5165 33.9834 10.4831C33.8334 10.4498 33.7668 10.2081 33.8418 9.9248Z" fill="black" stroke="white" stroke-width="0.697092" stroke-miterlimit="3.4854" stroke-linejoin="round"/>
<path d="M33.175 9.82479C33.2083 9.51646 33.4167 9.19979 33.5917 9.23313C33.8 9.23313 33.9 9.64979 33.875 9.88313C33.8417 10.1998 33.6583 10.4165 33.4917 10.3748C33.3167 10.3831 33.1417 10.1331 33.175 9.82479Z" fill="black" stroke="white" stroke-width="0.697092" stroke-miterlimit="3.4854" stroke-linejoin="round"/>
<path d="M32.2084 9.92481C32.1 9.58315 31.8917 9.34148 31.75 9.37481C31.6084 9.40815 31.575 9.82481 31.65 10.0748C31.725 10.3498 31.925 10.5248 32.0667 10.4915C32.1667 10.4498 32.275 10.2081 32.2084 9.92481Z" fill="black" stroke="white" stroke-width="0.697092" stroke-miterlimit="3.4854" stroke-linejoin="round"/>
<path d="M31.9585 9.85815C31.9585 9.54981 32.1335 9.23315 32.3085 9.23315C32.5168 9.23315 32.6585 9.61648 32.6585 9.85815C32.6585 10.1665 32.4835 10.3831 32.3085 10.3831C32.1585 10.3831 31.9585 10.1748 31.9585 9.85815Z" fill="black" stroke="white" stroke-width="0.697092" stroke-miterlimit="3.4854" stroke-linejoin="round"/>
<path d="M32.4834 9.9998C32.4834 9.6498 32.6917 9.3498 32.9001 9.3498C33.1501 9.3498 33.3251 9.7248 33.3251 9.9998C33.3251 10.2831 33.1167 10.5248 32.9001 10.5248C32.6917 10.5165 32.4834 10.3081 32.4834 9.9998Z" fill="black" stroke="white" stroke-width="0.697092" stroke-miterlimit="3.4854" stroke-linejoin="round"/>
<path d="M32.6583 6.16646C32.5833 6.44146 32.35 6.69146 32.5167 7.0748C32.2083 6.96646 31.9333 6.93313 31.6917 7.21646C32 7.18313 32.2833 7.29146 32.4167 7.49146C32.1417 7.45813 32 7.5998 31.9333 7.7748C32.1833 7.6998 32.4167 7.63313 32.525 7.66646C32.4167 7.7748 32.2417 7.94146 32.2167 8.09146C32.4167 7.91646 32.6667 7.9498 32.8083 7.84146C32.7083 8.09146 32.9083 8.3248 33.0833 8.56646C33.0583 8.2248 33.2583 7.98313 33.1583 7.80813C33.4667 7.88313 33.5083 8.15813 33.9583 8.15813C33.7833 8.05813 33.6833 7.70813 33.475 7.70813C33.575 7.6748 34 7.63313 34.0667 7.70813C33.9917 7.56646 33.75 7.43313 33.6083 7.43313C33.75 7.29146 33.9917 7.00813 34.1667 6.94146C33.9167 6.9748 33.5417 7.01646 33.4083 7.2248C33.75 6.94146 33.6833 6.4248 34.0583 6.3498C33.8583 6.31646 33.5417 6.4498 33.3 6.6998C33.4083 6.49146 33.4083 6.21646 33.55 6.14146C33.2667 6.21646 32.9583 6.56646 32.85 6.73313C32.8167 6.53313 32.7583 6.34146 32.6583 6.16646Z" fill="black" stroke="white" stroke-width="0.697092" stroke-miterlimit="3.4854" stroke-linejoin="round"/>
<path d="M32.8251 6.72482C32.8251 6.82482 32.8251 7.03315 32.7917 7.09982L32.8251 6.72482Z" fill="black"/>
<path d="M32.8251 6.72482C32.8251 6.82482 32.8251 7.03315 32.7917 7.09982" stroke="white" stroke-width="0.697092" stroke-miterlimit="3.4854" stroke-linejoin="round"/>
<path d="M33.275 6.69147C33.2 6.76647 33.0667 6.9998 33.0667 7.21647L33.275 6.69147Z" fill="black"/>
<path d="M33.275 6.69147C33.2 6.76647 33.0667 6.9998 33.0667 7.21647" stroke="white" stroke-width="0.697092" stroke-miterlimit="3.4854" stroke-linejoin="round"/>
<path d="M33.4917 7.10814C33.375 7.18314 33.2834 7.29147 33.2417 7.42481" stroke="white" stroke-width="0.697092" stroke-miterlimit="3.4854" stroke-linejoin="round"/>
<path d="M22.2168 30.8831C22.4251 31.4331 23.9251 32.1664 25.6668 31.2331C26.8501 30.5664 27.6168 29.6331 28.3501 27.9664C28.5501 27.5414 28.6584 27.0248 28.1751 26.7081C27.7918 26.4248 27.1584 26.1164 26.8834 25.8331C26.7418 25.6914 26.6084 25.5831 26.5084 25.4831C26.5834 25.5581 26.6501 25.6248 26.7084 25.7248C27.4084 26.5581 26.6834 27.7831 25.9084 28.5164C25.3501 29.0414 24.3501 30.3248 22.8834 29.1081C22.5584 28.8248 21.8251 29.9748 22.2168 30.8831Z" fill="#FCEA83" stroke="black" stroke-width="0.101658" stroke-miterlimit="3.4854"/>
<path d="M43.375 30.883C43.125 31.433 41.6334 32.1664 39.925 31.233C38.75 30.5664 37.975 29.633 37.2167 27.9664C37.0417 27.5414 36.9334 27.0247 37.4167 26.708C37.8 26.4247 38.4334 26.1164 38.7084 25.833C38.85 25.6914 38.95 25.583 39.0834 25.483C39.0084 25.558 38.9417 25.6247 38.8834 25.7247C38.1834 26.558 38.9084 27.783 39.6417 28.5164C40.2 29.0414 41.2417 30.3247 42.7084 29.108C43.025 28.8247 43.725 29.9747 43.375 30.883Z" fill="#FCEA83" stroke="black" stroke-width="0.101658" stroke-miterlimit="3.4854"/>
<path d="M32.7918 33.8747C35.5751 33.8747 39.8584 32.6164 42.1584 28.233C42.5334 27.508 42.1584 27.1247 41.7001 26.883C41.1834 26.6247 40.7084 26.283 40.3084 25.8664C40.8668 26.4247 40.7584 26.808 40.3834 27.433C38.6084 30.3997 36.1751 31.8914 32.7918 31.8914C29.4084 31.8914 26.9834 30.3914 25.2001 27.433C24.8251 26.808 24.7168 26.4247 25.2334 25.8747C24.8334 26.2914 24.3584 26.633 23.8418 26.883C23.3918 27.1247 23.0084 27.508 23.3918 28.233C25.6918 32.6164 30.0084 33.8747 32.7918 33.8747Z" fill="#FCEA83" stroke="black" stroke-width="0.101658" stroke-miterlimit="3.4854"/>
<path d="M26.3501 27.9915C26.2751 27.6415 25.8334 27.7832 25.7001 28.1998C25.5084 27.9582 25.3501 27.6998 25.2084 27.4332C24.7917 26.8082 24.7251 26.3915 25.3167 25.7998C25.5917 25.5248 26.1501 25.2082 26.5334 25.5498C27.3251 26.2082 26.9084 27.2915 26.3501 27.9915Z" fill="#C8102E" stroke="black" stroke-width="0.101658" stroke-miterlimit="3.4854"/>
<path d="M39.2001 27.9915C39.2751 27.6415 39.7584 27.7832 39.9001 28.1998C40.0751 27.9498 40.2501 27.7165 40.3834 27.4332C40.8001 26.8082 40.8667 26.3915 40.2417 25.7998C40.0001 25.5248 39.4417 25.2082 39.0251 25.5498C38.2501 26.2082 38.6417 27.2915 39.2001 27.9915Z" fill="#C8102E" stroke="black" stroke-width="0.101658" stroke-miterlimit="3.4854"/>
<path d="M22.2166 30.8832C21.8666 30.3582 21.5916 28.9915 21.5166 28.6498C21.4166 28.3415 21.375 28.0582 21.7666 27.9248C22.15 27.7832 22.4916 28.2665 22.6666 28.6832C22.8416 29.0998 23.125 29.7248 23.4333 30.4915C22.6666 30.0415 22.0416 30.3498 22.2166 30.8832Z" fill="#C8102E" stroke="black" stroke-width="0.101658" stroke-miterlimit="3.4854"/>
<path d="M24.2335 27.7414L23.9585 27.8831C23.8835 27.9081 23.8835 27.9831 23.8835 28.0248H23.8502L23.7085 27.7164H23.7418C23.7418 27.7414 23.7752 27.7914 23.8418 27.7414L24.4335 27.4331C24.5085 27.3998 24.5085 27.3581 24.4668 27.3331L24.4918 27.2998L24.6668 27.6498H24.6418C24.6085 27.6164 24.5668 27.5748 24.5002 27.6164L24.2585 27.7581L24.3585 27.9581L24.6418 27.8581C24.7168 27.8248 24.6668 27.7498 24.6668 27.7164H24.7002L24.8418 28.0331C24.8085 27.9998 24.7668 27.9581 24.7002 27.9998L24.1085 28.3081C24.0335 28.3414 24.0335 28.3831 24.0752 28.4081L24.0418 28.4414L23.8668 28.1331L23.9002 28.0998C23.9335 28.1331 23.9752 28.1748 24.0418 28.1331L24.3168 27.9914L24.2335 27.7414Z" fill="#00493D"/>
<path d="M24.825 28.1998C24.9 28.1664 24.9 28.1248 24.85 28.0581H24.8834L25.2334 28.5831L25 28.7498V28.7248C25.1417 28.6164 25.1417 28.4748 25.1 28.4414C25.0667 28.4081 25.025 28.3664 25.025 28.3414C25 28.3414 25 28.3081 24.925 28.3748L24.675 28.5498C24.7084 28.5748 24.75 28.6914 24.925 28.5748H24.9584L24.575 28.8581V28.8248C24.75 28.6831 24.675 28.5748 24.65 28.5498L24.4 28.7248C24.325 28.7498 24.325 28.7998 24.325 28.8248C24.3584 28.8248 24.3584 28.8581 24.4 28.8998C24.4334 28.9748 24.5417 29.0414 24.7084 28.9748L24.7417 28.9998L24.4667 29.0998L24.1167 28.5498H24.15C24.175 28.5748 24.225 28.6248 24.2917 28.5748L24.825 28.1998Z" fill="#00493D"/>
<path d="M25.3751 29.5248L25.1334 29.7248C25.1001 29.7581 25.1001 29.8331 25.1334 29.8664H25.1001L24.8501 29.6164L24.8834 29.5831C24.9168 29.6164 24.9584 29.6581 25.0251 29.5831L25.4751 29.1331C25.5501 29.0998 25.5501 29.0581 25.5001 28.9914L25.7501 29.2831C25.7168 29.2414 25.6501 29.2414 25.6084 29.2831L25.4084 29.4831L25.5834 29.6581L25.7918 29.4831C25.8668 29.4081 25.8251 29.3831 25.7918 29.3414L25.8251 29.3164L26.0668 29.5914H26.0334C26.0084 29.5914 25.9584 29.5664 25.8918 29.6248L25.4418 30.0498C25.3668 30.1248 25.3668 30.1498 25.4084 30.1914V30.2248L25.1668 29.9414C25.1918 29.9414 25.2668 29.9748 25.3084 29.9414L25.5501 29.6998L25.3751 29.5248Z" fill="#00493D"/>
<path d="M25.9 30.2581L26.0084 30.3581L26.15 30.0498C26.15 30.0498 26.0417 30.0748 25.8667 30.1914L25.9 30.2581L25.8667 30.2831L25.7917 30.2081C25.7667 30.2414 25.725 30.2414 25.6917 30.2831C25.5917 30.3581 25.6167 30.3914 25.6667 30.4248V30.4498L25.4917 30.2748H25.5167L25.6584 30.2414L26.35 29.8664L26.3834 29.8914C26.3834 29.8914 26.35 29.9248 26.0334 30.6248C26.0334 30.6998 26.0084 30.7248 26.0334 30.7998L25.7584 30.5581L25.7917 30.5248C25.825 30.5998 25.8917 30.5998 25.9334 30.5248C25.9334 30.4914 25.9667 30.4164 25.9667 30.3831L25.8584 30.2831L25.9 30.2581Z" fill="#00493D"/>
<path d="M26.175 30.9414L26.2084 30.9081C26.2417 30.9414 26.2834 30.9414 26.35 30.9081L26.8 30.3164L26.7667 30.2831C26.6917 30.2498 26.5917 30.2498 26.4917 30.3581V30.3248L26.6334 30.1498L27.1584 30.5331L26.9834 30.7331H26.95C27.05 30.6331 27.025 30.4914 26.95 30.4581V30.4248L26.5 31.0164C26.425 31.0498 26.4667 31.1164 26.5 31.1581H26.4667L26.175 30.9414Z" fill="#00493D"/>
<path d="M27.0835 31.0831L26.9085 31.3331C26.8752 31.4081 26.9085 31.4331 26.9419 31.4748L26.9085 31.4998L26.6335 31.2914V31.2581C26.7085 31.2914 26.7335 31.2914 26.7752 31.2331L27.1585 30.7081C27.1835 30.6331 27.1585 30.5998 27.1252 30.5664L27.1585 30.5414L27.4335 30.7414V30.7748C27.3585 30.7414 27.3335 30.7414 27.2919 30.8081L27.1252 31.0581L27.3335 31.1998L27.5085 30.9498C27.5335 30.8748 27.5085 30.8498 27.4752 30.8081L27.5085 30.7748L27.7835 30.9831V31.0164C27.7502 30.9831 27.6835 30.9831 27.6419 31.0498L27.3002 31.5998C27.2252 31.6331 27.2669 31.6748 27.3002 31.7081V31.7331L26.9919 31.5331H27.0252C27.0502 31.5331 27.1002 31.5331 27.1252 31.4998L27.3002 31.2248L27.0835 31.0831Z" fill="#00493D"/>
<path d="M27.7834 32.0664L27.8168 32.0331C27.8501 32.0664 27.9168 32.0664 27.9584 31.9998L28.2334 31.4081C28.2668 31.3331 28.2334 31.2998 28.2001 31.2664L28.7918 31.5498L28.6501 31.8248L28.6251 31.7914C28.7251 31.6498 28.6251 31.5164 28.5918 31.4831C28.5584 31.4831 28.5168 31.4498 28.4918 31.4498C28.4584 31.4498 28.4584 31.4498 28.4168 31.5248C28.3834 31.5581 28.2751 31.7664 28.2751 31.7664C28.3084 31.7998 28.3751 31.8748 28.5251 31.6914H28.5501L28.3501 32.1164L28.3168 32.0914C28.4168 31.8748 28.2834 31.8414 28.2418 31.8414L28.1001 32.1164C28.0668 32.1914 28.1001 32.2248 28.1334 32.2248V32.2581L27.7834 32.0664Z" fill="#00493D"/>
<path d="M28.7918 32.5498C28.6918 32.4748 28.6918 32.2664 28.7918 32.0664C28.8668 31.8498 29.0001 31.6831 29.1418 31.7498C29.2418 31.7831 29.2168 31.9998 29.1418 32.2081C29.0335 32.4414 28.8918 32.5831 28.7918 32.5498H28.7585C29.0085 32.6498 29.1835 32.5164 29.2835 32.2664C29.3835 32.0664 29.3585 31.8164 29.1418 31.7164C28.9418 31.6081 28.7251 31.7414 28.6251 31.9914C28.5251 32.2414 28.5501 32.4748 28.7668 32.5498H28.7918Z" fill="#00493D"/>
<path d="M29.8668 32.6165L30.0085 32.1998C30.0335 32.1248 30.0085 32.0915 29.9752 32.0581L30.1502 32.0915V32.1248C30.1168 32.1248 30.0752 32.1248 30.0418 32.1998L29.9002 32.6165C29.8252 32.7915 29.7252 32.9248 29.5252 32.8665C29.3835 32.8331 29.2752 32.6581 29.3502 32.4831L29.5252 32.0331C29.5502 31.9581 29.5252 31.9248 29.4918 31.8915V31.8665L29.8002 32.0081V32.0415C29.7668 32.0081 29.7002 32.0081 29.7002 32.0748L29.5168 32.5165C29.4835 32.6581 29.4835 32.7915 29.5918 32.8248C29.6918 32.8581 29.7918 32.7831 29.8668 32.6165Z" fill="#00493D"/>
<path d="M30.1833 32.1665C30.1833 32.1331 30.1833 32.1331 30.15 32.1331L30.3916 32.1665L30.6083 32.8248L30.7083 32.3998C30.7333 32.3248 30.7083 32.2998 30.675 32.2581L30.875 32.2915L30.85 32.3248C30.8166 32.3248 30.775 32.3248 30.7416 32.3998L30.5666 33.1581H30.5416L30.2583 32.3248L30.0833 32.8831C30.0833 32.9831 30.1166 32.9831 30.1583 33.0248V33.0581L29.95 32.9831V32.9498C29.9833 32.9831 30.05 32.9498 30.05 32.8748L30.225 32.2498L30.1833 32.1665Z" fill="#00493D"/>
<path d="M31.3668 32.8665C31.2918 33.1748 31.1502 33.2498 31.0835 33.2498H31.0085C31.0085 33.2498 30.9835 33.2165 31.0085 33.1748L31.1168 32.4748C31.1502 32.4415 31.1502 32.3998 31.1918 32.4415H31.2668C31.3335 32.4415 31.4002 32.5831 31.3668 32.8665L31.4668 32.8998C31.5418 32.5498 31.3918 32.4081 31.2168 32.3748C31.0752 32.3415 30.8668 32.2998 30.8668 32.2998V32.3331C30.9002 32.3665 30.9752 32.3665 30.9418 32.4748L30.8418 33.0915C30.8085 33.1665 30.7668 33.1998 30.7335 33.1998H30.7085L31.0502 33.2748C31.2252 33.2998 31.4002 33.2748 31.4752 32.8915L31.3668 32.8665Z" fill="#00493D"/>
<path d="M31.6834 32.5831C31.6834 32.5081 31.6084 32.4831 31.575 32.4831V32.4498L32.2084 32.5248L32.175 32.7998C32.175 32.6248 32.0667 32.5581 32 32.5581C31.9667 32.5248 31.925 32.5248 31.8917 32.5248C31.8667 32.5248 31.8667 32.5248 31.8667 32.6248L31.8334 32.9081C31.8667 32.9081 31.975 32.9331 32.0417 32.7331L32.0084 33.1831H31.975C31.975 32.9748 31.875 32.9748 31.8334 32.9748L31.8084 33.2831C31.8084 33.3581 31.8084 33.3581 31.8417 33.3581L31.9167 33.3915C32.0167 33.3915 32.1167 33.3581 32.1917 33.1415H32.225L32.15 33.4165L31.4917 33.3415C31.5667 33.3415 31.5917 33.3165 31.6334 33.2498L31.6834 32.5831Z" fill="#00493D"/>
<path d="M32.8252 32.9998C32.8252 33.3081 32.7168 33.4164 32.6168 33.4164C32.5835 33.3914 32.5835 33.3914 32.5418 33.3914L32.5168 33.3581L32.5502 32.6331C32.5502 32.5914 32.5502 32.5914 32.5752 32.5914H32.6502C32.7252 32.5831 32.8252 32.6914 32.8252 32.9998H32.9668C32.9668 32.6498 32.7918 32.5498 32.6168 32.5498C32.4752 32.5164 32.2668 32.5164 32.2668 32.5164V32.5498C32.3002 32.5498 32.3752 32.5748 32.3752 32.6498L32.3418 33.3081C32.3418 33.3831 32.3085 33.4081 32.2668 33.4081V33.4414H32.5752C32.7502 33.4414 32.9252 33.3664 32.9585 32.9914L32.8252 32.9998Z" fill="#00493D"/>
<path d="M33.8419 33.2748C33.8419 33.3498 33.8752 33.3498 33.9419 33.3498V33.3831L33.5585 33.4081C33.5919 33.3831 33.6669 33.3331 33.6669 33.2665L33.5919 32.6165C33.5585 32.5415 33.5169 32.5415 33.4502 32.5415V32.5081L33.8335 32.4748C33.8002 32.5081 33.7252 32.5498 33.7585 32.6165L33.8419 33.2748Z" fill="#00493D"/>
<path d="M34.1834 33.3498V33.3164C34.2167 33.3164 34.2584 33.2831 34.2584 33.2165L34.1167 32.4914H34.0834C34.0084 32.5165 33.9417 32.5831 33.9834 32.7331H33.9501L33.9167 32.4831L34.5501 32.3831L34.5751 32.6248H34.5501C34.5501 32.4831 34.4417 32.4498 34.3334 32.4498H34.3084L34.4501 33.1748C34.4501 33.2498 34.4751 33.2831 34.5501 33.2831V33.3164L34.1834 33.3498Z" fill="#00493D"/>
<path d="M35.6834 32.6498L35.5417 32.2331C35.5417 32.1581 35.475 32.1581 35.4417 32.1581V32.1248L35.6167 32.0498V32.0831C35.5834 32.1164 35.5834 32.1164 35.5834 32.1914L35.725 32.6414C35.75 32.7831 35.75 32.9914 35.55 33.0664C35.4084 33.0914 35.2417 33.0331 35.2 32.8164L35.0584 32.3664C35.0334 32.2914 34.9917 32.2914 34.9584 32.2914L34.925 32.2581L35.275 32.1581V32.1914C35.25 32.2248 35.2 32.2664 35.25 32.3331L35.35 32.7831C35.3834 32.9248 35.4917 32.9914 35.5917 32.9914C35.6834 32.9664 35.7167 32.8248 35.6834 32.6498Z" fill="#00493D"/>
<path d="M36.0668 32.4081C36.2335 32.3331 36.2085 32.2414 36.1668 32.1331C36.1335 32.0331 36.0668 31.9581 35.9918 31.9914C35.9585 31.9914 35.9168 32.0248 35.9585 32.0664L36.0668 32.4081L36.0918 32.4414L36.1668 32.7248C36.2002 32.7998 36.2668 32.7998 36.3085 32.7498V32.7831L35.9918 32.9248L35.9585 32.8914C36.0335 32.8581 36.0335 32.8164 36.0335 32.7498L35.7835 32.1581C35.7502 32.0581 35.7085 32.0831 35.6418 32.0831V32.0581L35.9918 31.9164C36.1335 31.8914 36.2668 31.9164 36.3418 32.0581C36.3752 32.2331 36.3085 32.3331 36.1668 32.4081C36.1335 32.4081 36.0918 32.4331 36.0918 32.4331L36.0668 32.4081Z" fill="#00493D"/>
<path d="M36.9334 32.5081C36.8334 32.5498 36.6917 32.4081 36.5834 32.1664C36.4834 31.9581 36.4834 31.7414 36.5834 31.7164C36.6917 31.6831 36.8334 31.8164 36.9334 32.0248C37.0417 32.2414 37.0417 32.4414 36.9334 32.5081C37.15 32.4414 37.2167 32.1998 37.1084 31.9581C37.0084 31.7498 36.8 31.6081 36.5834 31.6831C36.3834 31.7831 36.3 32.0248 36.4 32.2248C36.4 32.2331 36.4084 32.2331 36.4084 32.2414C36.5167 32.4748 36.725 32.6164 36.9334 32.5081Z" fill="#00493D"/>
<path d="M36.9668 31.5414H36.9001L37.1001 31.3998L37.7335 31.7498L37.5168 31.3748C37.4918 31.2998 37.4168 31.2998 37.3835 31.2998V31.2664L37.5585 31.1914C37.5251 31.2331 37.4835 31.2664 37.5585 31.3331L37.9085 32.0331L37.8751 32.0664L37.1085 31.6414L37.3918 32.1664C37.4168 32.2414 37.4918 32.2414 37.5335 32.1998V32.2331L37.3585 32.3331V32.2998C37.3918 32.2664 37.3918 32.2248 37.3585 32.1581L37.0835 31.5998L36.9668 31.5414Z" fill="#00493D"/>
<path d="M38.5334 31.6414V31.6081C38.5334 31.5748 38.5668 31.5331 38.5334 31.4664L38.1084 30.8748H38.0751C38.0001 30.8998 37.9751 31.0498 38.0751 31.1498L38.0501 31.1831L37.9084 30.9331L38.4334 30.5831L38.5751 30.7998C38.4668 30.6914 38.3584 30.6914 38.2918 30.7248L38.2584 30.7498L38.6834 31.3414C38.7168 31.4164 38.7834 31.4164 38.8251 31.3748V31.3998L38.5334 31.6414Z" fill="#00493D"/>
<path d="M38.925 30.8081L39.1251 31.0581C39.1584 31.0831 39.2334 31.0831 39.2667 31.0581V31.0831L38.9834 31.3331V31.2998C39.0167 31.2664 39.0167 31.2248 38.9834 31.1581L38.5667 30.6331C38.5334 30.5581 38.4917 30.5998 38.425 30.5998L38.7084 30.3581V30.3914C38.7084 30.4164 38.6751 30.4664 38.7084 30.5331L38.8834 30.7331L39.0834 30.5914L38.9167 30.3498C38.8834 30.2748 38.8084 30.3164 38.775 30.3164L39.0584 30.0664V30.0998C39.0251 30.1331 39.0251 30.1748 39.0584 30.2414L39.4751 30.7581C39.5084 30.7914 39.5501 30.7914 39.5834 30.7581L39.6084 30.7914L39.3334 31.0414L39.3 31.0081C39.3334 30.9748 39.3751 30.9331 39.3334 30.8664L39.1251 30.6248L38.925 30.8081Z" fill="#00493D"/>
<path d="M39.2335 30.0748C39.2001 30.0498 39.1251 30.0498 39.0918 30.0748V30.0498L39.5501 29.6248L39.7585 29.8331H39.7251C39.6168 29.6914 39.4751 29.7581 39.4168 29.7998C39.4168 29.8331 39.3835 29.8331 39.3418 29.8748C39.3418 29.8748 39.3418 29.8998 39.3751 29.9748L39.5835 30.1831C39.6085 30.1498 39.7251 30.0748 39.5835 29.8998H39.6085L39.8918 30.2164V30.2414C39.7168 30.0664 39.6418 30.1664 39.6085 30.2164L39.8251 30.4164C39.8501 30.4914 39.8918 30.4914 39.8918 30.4914L39.9918 30.3914C40.0251 30.3581 40.0668 30.2498 39.9918 30.0414H40.0251L40.1668 30.2831L39.7168 30.7331L39.6835 30.7081C39.7168 30.6748 39.7585 30.6331 39.6835 30.5664L39.2335 30.0748Z" fill="#00493D"/>
<path d="M40.0668 29.0998C40.0335 29.1331 40.0335 29.2081 40.0918 29.2414C40.1668 29.3081 40.2335 29.3081 40.3752 29.2414C40.4502 29.2081 40.5752 29.1664 40.6835 29.2664C40.8585 29.4414 40.7835 29.5748 40.7585 29.6498C40.7252 29.6831 40.6502 29.7248 40.6168 29.7498C40.5835 29.7498 40.5835 29.7498 40.5835 29.7831V29.8164L40.3418 29.6081H40.3752C40.5168 29.6831 40.6502 29.7081 40.7252 29.6081C40.8002 29.5331 40.7252 29.4664 40.6918 29.4331C40.6168 29.3581 40.5502 29.3581 40.4418 29.4331C40.3418 29.4664 40.2002 29.4664 40.0918 29.3998C39.9502 29.2581 39.9502 29.1581 40.0168 29.0498L40.1585 28.9498C40.1918 28.9498 40.1918 28.9498 40.1585 28.8748L40.4085 29.0498H40.3752C40.2085 28.9914 40.1002 29.0331 40.0668 29.0998Z" fill="#00493D"/>
<path d="M30.1133 15.1157C29.6631 15.2173 29.3509 15.2536 28.9297 14.8688C28.6538 14.5929 28.7191 14.1064 29.0023 13.9248C29.3146 13.7215 29.5905 13.5835 29.9753 13.6852C30.3602 13.7941 31.3695 14.7308 31.1226 14.7671C30.8757 14.7671 30.4981 15.0068 30.1133 15.1157Z" fill="white" stroke="black" stroke-width="0.088581" stroke-miterlimit="3.4854"/>
<path d="M31.188 13.4456C31.3332 13.3367 31.5075 13.2713 31.9577 13.2277C32.3788 13.1987 32.6838 13.1987 32.7927 13.5182C32.938 13.8958 33.0396 14.346 33.3156 14.5566C33.1413 14.6582 32.2699 14.7672 31.9577 14.5929C31.5438 14.3823 31.4349 13.5763 31.188 13.4456Z" fill="white" stroke="black" stroke-width="0.088581" stroke-miterlimit="3.4854"/>
<path d="M34.1868 13.4819C34.3247 13.373 34.499 13.373 34.9492 13.4093C35.3994 13.4456 35.5737 13.4819 35.6753 13.7941C35.7843 14.1427 35.6753 14.5929 35.8932 14.9051C35.6753 14.9777 34.9855 14.9777 34.7386 14.7308C34.361 14.4549 34.3901 13.6489 34.1868 13.4819Z" fill="white" stroke="black" stroke-width="0.088581" stroke-miterlimit="3.4854"/>
<path d="M36.271 13.6852C35.9587 13.6126 35.7481 13.5835 35.6174 13.6852C35.7844 13.8958 35.6465 14.7308 35.995 15.0068C36.2346 15.181 36.8664 15.2246 37.0043 14.8325C37.1786 14.4839 37.1786 13.9611 36.2782 13.6852H36.271Z" fill="#073163" stroke="black" stroke-width="0.088581" stroke-miterlimit="3.4854"/>
<path d="M32.6909 13.3367C32.7926 13.235 33.0032 13.1987 33.4171 13.1987C33.8745 13.1987 34.1432 13.2713 34.2884 13.5473C34.4336 13.8958 34.3901 14.346 34.637 14.6292C34.5353 14.7672 33.5913 14.7672 33.3154 14.5566C32.9305 14.3097 32.8942 13.5109 32.6909 13.3367Z" fill="#073163" stroke="black" stroke-width="0.088581" stroke-miterlimit="3.4854"/>
<path d="M29.7356 13.6489C29.7356 13.4746 29.9752 13.4456 30.607 13.4093C31.2242 13.3367 31.2605 13.373 31.4711 13.8232C31.5727 14.0701 31.7107 14.484 31.9939 14.6219C31.2242 14.8034 30.9773 14.9051 30.5634 14.6582C30.2584 14.4694 30.0115 14.208 29.8373 13.8958C29.8009 13.7941 29.8009 13.6852 29.7356 13.6489Z" fill="#073163" stroke="black" stroke-width="0.088581" stroke-miterlimit="3.4854"/>
<path d="M31.4057 10.1054C30.6723 9.54628 29.8009 9.02346 29.0022 8.92181C29.8373 9.48093 30.6287 10.0909 31.3694 10.7662" fill="#F9D050"/>
<path d="M31.4057 10.1054C30.6723 9.54628 29.8009 9.02346 29.0022 8.92181C29.8373 9.48093 30.6287 10.0909 31.3694 10.7662" stroke="black" stroke-width="0.0379623" stroke-miterlimit="3.4854"/>
<path d="M31.8195 9.58259C30.9482 8.98716 29.9388 8.32638 28.9658 8.26102C29.8735 8.7911 30.6868 9.47367 31.3621 10.2797" fill="#F9D050"/>
<path d="M31.8195 9.58259C30.9482 8.98716 29.9388 8.32638 28.9658 8.26102C29.8735 8.7911 30.6868 9.47367 31.3621 10.2797" stroke="black" stroke-width="0.0379623" stroke-miterlimit="3.4854"/>
<path d="M32.9307 8.60954C33.3228 7.7164 33.9037 6.91765 34.6371 6.27139C34.2885 7.00479 33.9109 8.50062 33.7294 9.09605" fill="#F9D050"/>
<path d="M32.9307 8.60954C33.3228 7.7164 33.9037 6.91765 34.6371 6.27139C34.2885 7.00479 33.9109 8.50062 33.7294 9.09605" stroke="black" stroke-width="0.0379623" stroke-miterlimit="3.4854"/>
<path d="M33.7002 8.4353C34.0342 7.61477 34.666 6.95398 35.472 6.58366C34.8693 7.33884 34.4191 8.20293 34.1504 9.12512" fill="#F9D050"/>
<path d="M33.7002 8.4353C34.0342 7.61477 34.666 6.95398 35.472 6.58366C34.8693 7.33883 34.4191 8.20293 34.1504 9.12512" stroke="black" stroke-width="0.0379623" stroke-miterlimit="3.4854"/>
<path d="M34.0125 9.12512C34.6805 8.10127 35.6317 7.30252 36.7572 6.83054C35.8859 7.7019 34.6006 9.29939 34.2884 9.93113" fill="#F9D050"/>
<path d="M34.0125 9.12512C34.6805 8.10127 35.6317 7.30252 36.7572 6.83054C35.8859 7.7019 34.6006 9.29939 34.2884 9.93113" stroke="black" stroke-width="0.0379623" stroke-miterlimit="3.4854"/>
<path d="M34.499 9.89482C35.1235 9.54627 36.3797 8.98715 37.2801 9.16868C36.7282 9.372 35.0581 10.1344 34.3247 10.8388" fill="#F9D050"/>
<path d="M34.499 9.89482C35.1235 9.54627 36.3797 8.98715 37.2801 9.16868C36.7282 9.372 35.0581 10.1344 34.3247 10.8388" stroke="black" stroke-width="0.0379623" stroke-miterlimit="3.4854"/>
<path d="M34.361 9.64792C34.9492 9.02344 36.0311 8.08673 37.1784 7.70188C36.3434 8.50063 34.5643 10.316 34.3247 10.5919" fill="#F9D050"/>
<path d="M34.361 9.64792C34.9492 9.02344 36.0311 8.08673 37.1784 7.70188C36.3434 8.50063 34.5643 10.316 34.3247 10.5919" stroke="black" stroke-width="0.0379623" stroke-miterlimit="3.4854"/>
<path d="M32.6911 9.27034C32.2699 7.97783 31.6455 6.76518 30.7087 6.38033C31.4567 7.44775 31.9722 8.65313 32.2336 9.93113" fill="#F9D050"/>
<path d="M32.6911 9.27034C32.2699 7.97783 31.6455 6.76518 30.7087 6.38033C31.4567 7.44775 31.9722 8.65313 32.2336 9.93113" stroke="black" stroke-width="0.0379623" stroke-miterlimit="3.4854"/>
<path d="M31.885 9.23403C31.1952 8.39897 30.2512 7.56392 29.1765 7.38965C30.2294 8.07948 31.0645 9.05975 31.5728 10.207" fill="#F9D050"/>
<path d="M31.885 9.23403C31.1952 8.39897 30.2512 7.56392 29.1765 7.38965C30.2294 8.07948 31.0645 9.05975 31.5728 10.207" stroke="black" stroke-width="0.0379623" stroke-miterlimit="3.4854"/>
<path d="M32.2771 9.19774C31.4057 7.62929 30.7377 7.35336 30.3601 7.04112C30.6723 7.62929 31.4348 9.19774 31.885 9.85852" fill="#F9D050"/>
<path d="M32.2771 9.19774C31.4057 7.62929 30.7377 7.35336 30.3601 7.04112C30.6723 7.62929 31.4348 9.19774 31.885 9.85852" stroke="black" stroke-width="0.0379623" stroke-miterlimit="3.4854"/>
<path d="M30.5344 9.09607C31.0282 9.40831 31.4566 9.8222 31.7834 10.3087" stroke="black" stroke-width="0.0379623" stroke-miterlimit="3.4854"/>
<path d="M30.5344 9.82221C30.7377 9.99648 31.1226 10.2071 31.4711 10.5193L30.5344 9.82221Z" fill="#F9D050"/>
<path d="M30.5344 9.82221C30.7377 9.99648 31.1226 10.2071 31.4711 10.5193" stroke="black" stroke-width="0.0379623" stroke-miterlimit="3.4854"/>
<path d="M34.6733 10.345C35.0219 10.0691 35.7843 9.61888 36.1692 9.47366L34.6733 10.345Z" fill="#F9D050"/>
<path d="M34.6733 10.345C35.0219 10.0691 35.7843 9.61888 36.1692 9.47366" stroke="black" stroke-width="0.0379623" stroke-miterlimit="3.4854"/>
<path d="M34.4265 10.1054C34.7751 9.64792 35.4721 9.02344 35.719 8.81287L34.4265 10.1054Z" fill="#F9D050"/>
<path d="M34.4265 10.1054C34.7751 9.64792 35.4721 9.02344 35.719 8.81287" stroke="black" stroke-width="0.0379623" stroke-miterlimit="3.4854"/>
<path d="M35.3994 7.94152C34.9347 8.46434 34.4918 9.0162 34.0779 9.58258L35.3994 7.94152Z" fill="#F9D050"/>
<path d="M35.3994 7.94152C34.9347 8.46434 34.4918 9.0162 34.0779 9.58258" stroke="black" stroke-width="0.0379623" stroke-miterlimit="3.4854"/>
<path d="M34.499 7.62926C34.1723 8.11577 33.8746 8.63133 33.6277 9.16141L34.499 7.62926Z" fill="#F9D050"/>
<path d="M34.499 7.62926C34.1723 8.11577 33.8746 8.63133 33.6277 9.16141" stroke="black" stroke-width="0.0379623" stroke-miterlimit="3.4854"/>
<path d="M31.7471 7.70188C31.9576 8.261 32.3425 9.19772 32.4732 9.58257L31.7471 7.70188Z" fill="#F9D050"/>
<path d="M31.7471 7.70188C31.9576 8.261 32.3425 9.19772 32.4732 9.58257" stroke="black" stroke-width="0.0379623" stroke-miterlimit="3.4854"/>
<path d="M31.4348 8.29005C31.58 8.50789 31.856 8.98713 31.9576 9.33568L31.4348 8.29005Z" fill="#F9D050"/>
<path d="M31.4348 8.29005C31.58 8.50789 31.856 8.98713 31.9576 9.33568" stroke="black" stroke-width="0.0379623" stroke-miterlimit="3.4854"/>
<path d="M32.6184 8.11579C32.6184 7.80355 32.829 7.46227 33.0396 7.46227C33.2792 7.46227 33.4535 7.87616 33.4535 8.11579C33.4535 8.39898 33.2429 8.6386 33.0396 8.6386C32.8217 8.6386 32.6184 8.43528 32.6184 8.11579Z" fill="#F9D050" stroke="black" stroke-width="0.0379623" stroke-miterlimit="3.4854"/>
<path d="M32.1682 8.39897C32.2045 8.05043 32.4441 7.7745 32.6547 7.80355C32.8653 7.83985 32.9669 8.26101 32.9306 8.50063C32.8943 8.77656 32.6547 8.98714 32.4804 8.95084C32.3061 8.95084 32.1319 8.71121 32.1682 8.39897Z" fill="#F9D050" stroke="black" stroke-width="0.0379623" stroke-miterlimit="3.4854"/>
<path d="M33.1049 8.50065C33.0323 8.18841 33.1775 7.84713 33.3881 7.80356C33.5914 7.77452 33.802 8.1158 33.8383 8.39899C33.9109 8.67492 33.7293 8.95085 33.5551 8.95085C33.3881 8.98716 33.1412 8.81289 33.1049 8.50065Z" fill="#F9D050" stroke="black" stroke-width="0.0379623" stroke-miterlimit="3.4854"/>
<path d="M32.582 8.77657C32.582 8.43529 32.7926 8.12305 33.0032 8.12305C33.2428 8.12305 33.4171 8.50064 33.4171 8.77657C33.4171 9.05977 33.2138 9.29939 33.0032 9.29939C32.7926 9.29939 32.582 9.09607 32.582 8.77657Z" fill="#F9D050" stroke="black" stroke-width="0.0379623" stroke-miterlimit="3.4854"/>
<path d="M31.9575 8.95084C31.9575 8.6386 32.2044 8.29732 32.4077 8.29732C32.6256 8.29732 32.8289 8.71121 32.8289 8.95084C32.8289 9.23403 32.582 9.47365 32.4077 9.47365C32.2044 9.47365 31.9575 9.27034 31.9575 8.95084Z" fill="#F9D050" stroke="black" stroke-width="0.0379623" stroke-miterlimit="3.4854"/>
<path d="M33.2429 8.81287C33.2429 8.50063 33.4608 8.15935 33.6641 8.15935C33.9037 8.15935 34.078 8.57324 34.078 8.81287C34.078 9.09606 33.8747 9.33568 33.6641 9.33568C33.4535 9.33568 33.2429 9.1251 33.2429 8.81287Z" fill="#F9D050" stroke="black" stroke-width="0.0379623" stroke-miterlimit="3.4854"/>
<path d="M33.105 9.09607C33.105 8.74753 33.3519 8.43529 33.5552 8.43529C33.773 8.43529 33.9763 8.81288 33.9763 9.08881C33.9763 9.372 33.7658 9.61889 33.5552 9.61889C33.3519 9.61889 33.105 9.40105 33.105 9.09607Z" fill="#F9D050" stroke="black" stroke-width="0.0379623" stroke-miterlimit="3.4854"/>
<path d="M32.5529 9.40829C32.5529 9.05975 32.7562 8.74751 32.9668 8.74751C33.2137 8.74751 33.388 9.16141 33.388 9.40103C33.388 9.69149 33.1701 9.93111 32.9668 9.93111C32.7562 9.93111 32.5457 9.71327 32.5529 9.40829Z" fill="#F9D050" stroke="black" stroke-width="0.0379623" stroke-miterlimit="3.4854"/>
<path d="M31.6816 9.40829C31.6816 9.05975 31.8559 8.74751 32.0302 8.74751C32.2045 8.74751 32.3424 9.16141 32.3424 9.40103C32.3424 9.69149 32.1681 9.93111 32.0302 9.93111C31.8559 9.93111 31.6816 9.71327 31.6816 9.40829Z" fill="#F9D050" stroke="black" stroke-width="0.0379623" stroke-miterlimit="3.4854"/>
<path d="M33.6277 9.34296C33.6277 9.02346 33.802 8.71122 33.9762 8.71122C34.1505 8.71122 34.3248 9.09607 34.3248 9.33569C34.3248 9.64793 34.1142 9.85851 33.9762 9.85851C33.802 9.85851 33.6277 9.64793 33.6277 9.34296Z" fill="#F9D050" stroke="black" stroke-width="0.0379623" stroke-miterlimit="3.4854"/>
<path d="M33.8384 9.92386C33.911 9.58258 34.1143 9.29939 34.2523 9.34296C34.3975 9.372 34.4266 9.7859 34.3612 10.0328C34.3249 10.345 34.1143 10.5193 33.9764 10.483C33.8312 10.4539 33.7658 10.2071 33.8384 9.92386Z" fill="#F9D050" stroke="black" stroke-width="0.0379623" stroke-miterlimit="3.4854"/>
<path d="M33.1774 9.82221C33.2138 9.50997 33.4171 9.19774 33.5913 9.23404C33.8019 9.23404 33.9036 9.64794 33.8745 9.88756C33.8382 10.2071 33.6567 10.4176 33.4897 10.3813C33.3154 10.3813 33.1411 10.1344 33.1774 9.82221Z" fill="#F9D050" stroke="black" stroke-width="0.0379623" stroke-miterlimit="3.4854"/>
<path d="M32.2046 9.92387C32.0957 9.58259 31.8851 9.34297 31.7471 9.37201C31.6092 9.40832 31.5729 9.82221 31.6455 10.0691C31.7181 10.345 31.9214 10.5193 32.0594 10.483C32.1683 10.4539 32.2772 10.2071 32.2046 9.92387Z" fill="#F9D050" stroke="black" stroke-width="0.0379623" stroke-miterlimit="3.4854"/>
<path d="M31.9575 9.85851C31.9575 9.54628 32.1318 9.23404 32.3061 9.23404C32.5166 9.23404 32.6546 9.61889 32.6546 9.85851C32.6546 10.1708 32.4803 10.3813 32.3061 10.3813C32.1608 10.3813 31.9575 10.1708 31.9575 9.85851Z" fill="#F9D050" stroke="black" stroke-width="0.0379623" stroke-miterlimit="3.4854"/>
<path d="M32.4805 9.99647C32.4805 9.64792 32.691 9.34295 32.8944 9.34295C33.1413 9.34295 33.3155 9.72054 33.3155 9.99647C33.3155 10.2797 33.1049 10.5193 32.8944 10.5193C32.691 10.5193 32.4805 10.3087 32.4805 9.99647Z" fill="#F9D050" stroke="black" stroke-width="0.0379623" stroke-miterlimit="3.4854"/>
<path d="M32.6547 6.16976C32.582 6.44569 32.3424 6.69258 32.5094 7.07743C32.2045 6.96851 31.9285 6.9322 31.6816 7.21539C31.9939 7.17908 32.2698 7.28801 32.4078 7.49132C32.1318 7.45502 31.9939 7.60024 31.9213 7.77451C32.1681 7.7019 32.4078 7.62929 32.5167 7.66559C32.4078 7.77451 32.2335 7.94152 32.2045 8.08675C32.4078 7.91248 32.6547 7.94153 32.7926 7.83987C32.691 8.08675 32.8943 8.32638 33.0686 8.566C33.0395 8.22472 33.2428 7.98509 33.1412 7.80356C33.4534 7.87617 33.4897 8.1521 33.9399 8.1521C33.7656 8.05045 33.664 7.7019 33.4534 7.7019C33.5551 7.66559 33.9762 7.62929 34.0488 7.7019C33.9762 7.55667 33.7293 7.42597 33.5914 7.42597C33.7366 7.28074 33.9762 7.00481 34.1505 6.9322C33.9036 6.96851 33.526 7.00481 33.3881 7.21539C33.7293 6.9322 33.664 6.41664 34.0416 6.34403C33.8383 6.30772 33.526 6.44569 33.2791 6.69258C33.3881 6.482 33.3881 6.20607 33.526 6.13345C33.2428 6.20607 32.9306 6.55461 32.8289 6.72888C32.8144 6.53283 32.7563 6.34403 32.6547 6.16976Z" fill="#F9D050" stroke="black" stroke-width="0.0379623" stroke-miterlimit="3.4854"/>
<path d="M32.829 6.72886C32.829 6.83052 32.829 7.0411 32.7927 7.10645L32.829 6.72886Z" fill="#F9D050"/>
<path d="M32.829 6.72886C32.829 6.83052 32.829 7.0411 32.7927 7.10645" stroke="black" stroke-width="0.0379623" stroke-miterlimit="3.4854"/>
<path d="M33.2792 6.69257C33.2066 6.76518 33.0686 7.0048 33.0686 7.21538L33.2792 6.69257Z" fill="#F9D050"/>
<path d="M33.2792 6.69257C33.2066 6.76518 33.0686 7.0048 33.0686 7.21538" stroke="black" stroke-width="0.0379623" stroke-miterlimit="3.4854"/>
<path d="M33.4898 7.10648C33.3736 7.17909 33.2792 7.29527 33.2429 7.42597" stroke="black" stroke-width="0.0379623" stroke-miterlimit="3.4854"/>
<path d="M29.8011 10.5556C29.5542 10.5556 29.3509 10.454 29.2057 10.2797C28.9661 9.96019 28.3053 9.82223 28.0221 10.1054C27.9204 10.178 27.7825 10.178 27.6808 10.2071C27.5065 10.2071 27.296 10.3814 27.3613 10.7299C27.5065 10.621 27.5356 10.7299 27.6445 10.7299C27.7171 10.6936 27.6808 10.7662 27.6808 10.8316C27.6808 11.0058 28.0584 11.3544 28.4069 11.3181C28.7918 11.3181 28.9661 11.4633 29.0314 11.5359C29.1403 11.6303 29.0677 11.6013 29.1403 11.7755C29.242 11.8772 29.2783 11.9135 29.104 12.0515C28.8063 12.2983 28.7627 12.7413 29.0169 13.0463C29.0459 13.0753 29.075 13.1116 29.104 13.1334C29.5542 13.4747 30.7015 14.0048 31.994 12.9882C33.243 12.0152 35.189 12.5743 35.3343 12.9156C35.5085 13.2714 35.5739 13.4747 35.6102 13.649C35.6465 13.7942 35.8208 13.9321 36.0676 13.8958C36.3073 13.8958 36.5832 13.9975 36.7212 14.1064C36.9027 14.2081 37.1423 14.179 37.077 13.8595C36.9317 12.8865 36.3436 12.7485 36.2782 12.2983C36.6195 12.3274 36.8591 12.3274 37.0044 12.1894C37.106 12.0515 37.244 11.8046 37.3892 11.7392C37.4909 11.6666 37.4909 11.594 37.3529 11.6303C37.1786 11.6666 37.077 11.7392 36.7575 11.7029C35.16 11.5286 30.6725 10.3087 29.8011 10.5556Z" fill="#059334" stroke="black" stroke-width="0.088581" stroke-miterlimit="3.4854"/>
<path d="M36.9025 11.7392C36.6338 11.928 36.4087 12.1604 36.2344 12.4363C35.8931 12.8865 34.8475 13.3367 33.555 13.3367C32.306 13.3367 31.5436 13.1334 30.9845 12.6832C30.7449 12.4944 30.4907 12.3274 30.2148 12.1894C29.8372 12.0151 29.7646 11.6303 29.8662 11.318C29.7646 11.4923 29.6992 11.6666 29.4886 11.6303C29.3434 11.6303 29.0675 11.6303 29.1401 11.7755C29.1038 11.7029 29.1038 11.6012 29.0675 11.5577L28.9949 11.4923C29.1038 11.5649 29.3507 11.3543 29.5249 11.3543C29.6629 11.3907 29.8372 11.2164 29.8009 11.0058L29.6992 10.5556C29.9752 10.4104 33.6276 11.0784 34.361 11.1438C35.0871 11.1801 37.1784 11.4923 36.9025 11.7392Z" fill="black" stroke="black" stroke-width="0.088581" stroke-miterlimit="3.4854"/>
<path d="M30.2876 10.4177C30.6362 10.0691 31.0501 9.89484 31.4712 9.9965H31.5729C31.7907 9.82222 32.27 9.78592 32.5532 9.92388H32.6911C33.105 9.78592 33.9038 9.92388 34.187 10.2071L34.2886 10.2797C35.2326 10.2071 35.7845 10.621 36.4452 11.289C36.5179 11.3616 36.6195 11.4923 36.7938 11.5286C37.0044 11.5649 37.0407 11.6739 36.8664 11.7755C36.5905 11.9498 36.3436 12.1676 36.1403 12.429C35.8208 12.8502 34.8114 13.2714 33.5552 13.2714C32.3426 13.2714 31.6092 13.0535 31.0501 12.6396C30.7378 12.4 30.4982 12.262 30.3239 12.1531C30.1134 12.0805 29.8374 11.8046 29.9391 11.5286C30.0117 11.2527 29.8374 10.9042 29.6995 10.5556C29.8011 10.483 30.0771 10.3813 30.215 10.454L30.2876 10.4177Z" fill="#059334" stroke="black" stroke-width="0.088581" stroke-miterlimit="3.4854"/>
<path d="M36.4451 11.2891C35.7916 10.621 35.2325 10.2071 34.2885 10.2725C34.2885 10.3088 34.2885 10.4177 34.2522 10.4903C34.913 10.788 35.4939 11.2237 35.9586 11.7756C36.1038 11.6303 36.3435 11.4633 36.4451 11.2891Z" fill="#00493D" stroke="black" stroke-width="0.088581" stroke-miterlimit="3.4854"/>
<path d="M34.1869 10.2071C33.9037 9.93119 33.1049 9.78596 32.691 9.93119C32.691 10.0692 32.691 10.2797 32.6184 10.4177C32.8653 10.5194 33.0686 10.7662 33.2792 11.0059C33.4244 10.9696 33.7657 10.8679 33.94 10.8316C34.0416 10.6355 34.1288 10.425 34.1869 10.2071Z" fill="#00493D" stroke="black" stroke-width="0.088581" stroke-miterlimit="3.4854"/>
<path d="M32.5531 9.92392C32.2699 9.78595 31.7834 9.82226 31.5728 9.99653C31.5002 10.1418 31.4712 10.4177 31.4712 10.5557C31.6164 10.5557 31.8197 10.6573 31.8851 10.7299C32.1029 10.6573 32.3789 10.5193 32.4805 10.4177C32.5168 10.2725 32.5822 10.0691 32.5531 9.92392Z" fill="#00493D" stroke="black" stroke-width="0.088581" stroke-miterlimit="3.4854"/>
<path d="M30.2876 10.4177C30.6361 10.0691 31.05 9.89487 31.4712 9.99653C31.3986 10.1055 31.3695 10.3088 31.3695 10.5193C30.9847 10.483 30.4982 10.592 30.2876 10.7299V10.4177Z" fill="#00493D" stroke="black" stroke-width="0.088581" stroke-miterlimit="3.4854"/>
<path d="M35.8207 11.8409C35.385 11.3254 34.8404 10.9042 34.2232 10.621C34.2232 10.6573 34.1506 10.7953 34.1143 10.9042C34.3248 11.2165 34.7387 11.9135 34.913 12.2984C35.0873 12.2258 35.5738 12.0152 35.8207 11.8409Z" fill="#00493D" stroke="black" stroke-width="0.088581" stroke-miterlimit="3.4854"/>
<path d="M33.1775 12.6106C33.2356 12.1386 33.2719 11.6594 33.2791 11.1801C33.4534 11.1438 33.802 11.0422 33.9399 11.0059C34.1142 11.289 34.5354 12.0224 34.7096 12.3637C34.2885 12.4654 33.5914 12.6397 33.1775 12.6106Z" fill="#00493D" stroke="black" stroke-width="0.088581" stroke-miterlimit="3.4854"/>
<path d="M31.9575 10.9405C32.1318 10.8679 32.3787 10.7227 32.5457 10.592C32.6909 10.6936 32.9668 10.9405 33.0685 11.0785C33.0685 11.3907 32.9668 12.2984 32.9305 12.6034C32.6546 12.6034 32.2044 12.538 31.9575 12.4C31.9938 11.8772 32.0301 11.2891 31.9575 10.9405Z" fill="#00493D" stroke="black" stroke-width="0.088581" stroke-miterlimit="3.4854"/>
<path d="M30.2148 11.3544C30.2512 11.2818 30.2875 11.0422 30.2875 10.9405C30.5634 10.7662 31.2605 10.592 31.7833 10.8679C31.8196 11.2164 31.7833 12.0878 31.747 12.2984C31.2823 11.9208 30.7667 11.6013 30.2148 11.3544Z" fill="#00493D" stroke="black" stroke-width="0.088581" stroke-miterlimit="3.4854"/>
<path d="M28.4795 10.7227C28.4069 10.7227 28.3706 10.5193 28.2326 10.5193C28.1963 10.5193 28.0947 10.5556 28.0583 10.5193C28.0583 10.5919 28.0947 10.6646 28.131 10.6936C28.1673 10.7953 28.3415 10.7299 28.4795 10.7227Z" fill="black"/>
<path d="M28.4795 11.3181C28.8934 11.3181 28.966 10.7953 29.1766 10.7662" stroke="black" stroke-width="0.088581" stroke-miterlimit="3.4854"/>
<path d="M28.719 11.3544C29.0312 11.4996 29.2781 10.7662 29.5177 10.7952" stroke="black" stroke-width="0.088581" stroke-miterlimit="3.4854"/>
<path d="M28.0945 10.454C28.1961 10.454 28.2688 10.3088 28.443 10.483C28.5156 10.5557 28.6173 10.592 28.6899 10.592" stroke="black" stroke-width="0.088581" stroke-miterlimit="3.4854"/>
<path d="M28.6173 10.9695C28.4721 11.1874 28.2324 11.3181 28.0945 11.2527" stroke="black" stroke-width="0.088581" stroke-miterlimit="3.4854"/>
<path d="M28.0219 10.1054C27.9202 10.178 27.8548 10.3087 27.7822 10.4177" stroke="black" stroke-width="0.088581" stroke-miterlimit="3.4854"/>
<path d="M27.6807 10.621V10.7953" stroke="black" stroke-width="0.088581" stroke-miterlimit="3.4854"/>
<path d="M39.2989 15.1519V21.934C39.2989 27.8157 36.5178 29.8343 32.7928 31.4318C29.0677 29.8343 26.2576 27.8157 26.2576 21.934V15.1447L39.2989 15.1519Z" fill="white"/>
<path d="M32.7927 20.8884C33.1049 20.8884 33.5915 20.6125 34.0126 20.1913C34.4628 19.7048 35.2325 19.5378 36.0313 20.1913C36.83 20.8521 37.3165 20.5761 37.7377 20.1913C38.1516 19.8137 38.5001 19.6685 39.2989 19.6685V15.1519H26.2502V19.6757C27.049 19.6757 27.3975 19.821 27.8187 20.1986C28.2326 20.5834 28.7191 20.8593 29.5251 20.1986C30.3602 19.545 31.0863 19.712 31.5728 20.1986C31.9577 20.6197 32.4442 20.8956 32.7927 20.8956V20.8884Z" fill="#C8102E"/>
<path d="M32.7927 24.3738C33.2139 24.3738 34.0489 23.9164 34.2522 23.8147C35.0219 23.3572 35.5738 23.7784 36.0313 23.989C36.5178 24.1923 37.4182 24.4392 37.9773 23.989C38.5364 23.5315 38.8487 23.5678 39.2335 23.5678C39.3061 23.045 39.3061 22.5222 39.3061 21.934V21.5129C38.8124 21.4112 38.5727 21.5492 38.0499 22.0066C37.5271 22.4568 36.9317 22.3552 36.162 22.0793C35.4358 21.7598 34.7097 21.2079 33.9763 22.0793C33.6713 22.4205 33.2502 22.6239 32.7927 22.6602C32.2699 22.6602 31.8197 22.3189 31.6091 22.0793C30.8467 21.2079 30.1496 21.7598 29.4162 22.0793C28.6537 22.3552 28.022 22.4568 27.5065 22.0066C27.0199 21.5492 26.7731 21.4112 26.2502 21.5129V21.934C26.2502 22.5222 26.2866 23.045 26.3519 23.5678C26.7368 23.5678 27.0199 23.5315 27.5718 23.989C28.1309 24.4392 29.0676 24.1923 29.5251 23.989C30.0116 23.7784 30.5635 23.3572 31.3332 23.8147C31.5438 23.9164 32.3425 24.3666 32.7927 24.3666V24.3738Z" fill="#0B50A0"/>
<path d="M32.7926 25.8698C33.3953 25.8407 33.9835 25.6592 34.499 25.347C35.1961 24.9621 35.6826 25.1291 36.3797 25.4849C37.1059 25.8335 37.7013 25.7245 38.1224 25.4849C38.3258 25.3397 38.5 25.0638 38.9502 25.1727C38.7469 26.044 38.4274 26.8065 38.0498 27.431C37.4471 27.627 36.7936 27.5834 36.2345 27.293C35.5084 26.9444 34.6007 26.7339 34.1142 27.0461C33.7221 27.3003 33.2646 27.4455 32.7926 27.4673C32.4078 27.4673 31.9213 27.322 31.4711 27.0461C30.9846 26.7339 30.0769 26.9444 29.3507 27.293C28.7916 27.5834 28.1381 27.6343 27.5354 27.4382C27.1578 26.8065 26.8456 26.0368 26.635 25.1727C27.0852 25.0638 27.2595 25.347 27.4701 25.4849C28.0001 25.7826 28.6464 25.7826 29.1765 25.4849C29.9026 25.1364 30.3891 24.9621 31.0862 25.3397C31.6018 25.6519 32.1899 25.8335 32.7926 25.8698Z" fill="#0B50A0"/>
<path d="M32.7927 31.4319C34.136 30.9091 35.3923 30.183 36.5178 29.2753C36.2346 29.1737 36.0676 29.239 35.8207 29.0648C35.5738 28.8905 34.8476 28.8251 34.2232 29.1737C33.3446 29.6892 32.2481 29.6892 31.3695 29.1737C30.7377 28.8251 30.0116 28.8905 29.772 29.0648C29.5251 29.239 29.3508 29.1737 29.0676 29.2826C30.1859 30.1975 31.4421 30.9237 32.7927 31.4319Z" fill="#0B50A0"/>
<path d="M31.8851 16.8511C31.9214 16.9237 31.8561 17.098 31.8851 17.1634C31.9577 17.3086 31.9578 17.3812 32.0594 17.4466H32.3063C33.0687 17.4466 33.9764 17.1343 34.7388 17.1343C35.4722 17.1343 35.9224 17.374 36.3363 17.374C36.5832 17.374 36.7938 17.1997 36.7938 17.0254C36.7938 16.8511 36.5179 16.7495 35.9224 16.7495C35.0874 16.7495 34.6372 16.9601 33.9401 16.9601C32.8945 16.9601 32.7202 16.5752 32.7202 16.4009C32.7202 16.2267 32.8945 15.987 33.4536 15.987C33.6279 15.987 33.7658 15.9507 33.8384 15.8781C33.8747 15.8055 33.9764 15.6675 34.187 15.5659C34.4266 15.4207 34.9131 15.5659 35.16 15.3916C35.16 15.5368 34.9494 15.7402 34.7751 15.8128C35.1237 15.7038 35.5013 15.7038 35.5739 15.987C35.3996 15.8781 35.1237 15.9507 35.022 15.987C34.8768 16.0161 34.8115 16.0597 34.6735 16.0887C34.8115 16.0524 34.8841 16.3283 35.0874 16.3283C34.8841 16.5026 34.5355 16.5026 34.187 16.3646C34.0781 16.3283 33.8021 16.2267 33.6279 16.2267C33.2793 16.2267 33.0687 16.2993 33.0687 16.4372C33.0687 16.6115 33.2866 16.7132 33.9038 16.7132C34.5355 16.7132 34.8841 16.5389 35.8208 16.5389C35.7482 16.4372 35.8571 16.3283 35.7191 16.2267C36.0677 16.2267 36.4453 16.3283 36.5905 16.5752C36.5542 16.3283 36.7575 16.125 36.6921 15.9144C36.9027 15.9507 37.077 16.154 37.106 16.3283C37.106 16.2267 37.2513 16.2267 37.2513 16.125C37.4473 16.2339 37.5635 16.4518 37.5272 16.6769C37.6289 16.5026 37.7378 16.5752 37.8031 16.3646C37.8757 16.5099 37.8394 16.9237 37.5925 17.0617C37.8104 16.9165 38.1154 16.9165 38.3259 17.1634C38.1154 17.1343 38.0137 17.236 37.912 17.2723C37.4037 17.5337 36.8374 17.6499 36.271 17.6208C35.7191 17.5845 35.6465 17.4756 35.298 17.4756C35.5085 17.5119 35.9224 17.9331 36.3145 17.9331C36.5542 17.9331 36.7284 17.9331 36.8301 17.8968C36.9318 17.8605 37.106 17.8968 37.244 17.9694C37.3529 18.071 37.5635 18.1727 37.7015 18.1437C37.6652 18.2816 37.5925 18.347 37.4909 18.3833C37.6652 18.4922 37.5635 18.5575 37.7378 18.6955C37.6652 18.6955 37.5925 18.7681 37.4909 18.7318C37.5925 18.8335 37.5925 18.9787 37.7015 19.0441C37.6652 19.0441 37.5562 19.0804 37.4909 19.0441C37.5925 19.1893 37.4909 19.3563 37.5925 19.4289C37.7015 19.5741 37.4909 19.7411 37.3166 19.6032C37.3529 19.7048 37.244 19.8138 37.1423 19.7775C37.0407 19.7411 36.9681 19.6322 36.9971 19.6032C36.9971 19.5669 36.9971 19.5669 37.0407 19.5306C36.9681 19.6395 36.8301 19.6395 36.7575 19.6032C36.7284 19.5669 36.6849 19.5306 36.6849 19.5015C36.4453 19.5741 36.3436 19.3563 36.3799 19.2546C36.4089 19.153 36.6195 19.1094 36.6921 19.153C36.7648 19.182 36.8301 19.2256 36.9027 19.153C36.9753 19.1167 37.0044 19.0441 37.0044 18.9787C37.0044 18.8698 36.9027 18.5575 36.4453 18.5939C35.9224 18.6302 35.0874 18.4922 34.6735 18.347C34.6372 18.3179 34.6009 18.3179 34.5646 18.2744C34.5646 18.4196 34.4266 18.4922 34.4266 18.6302C34.4266 18.8044 34.4992 18.9424 34.7098 19.0078C34.6009 19.182 34.4266 19.153 34.3613 19.0441C34.3613 19.153 34.216 19.2183 34.216 19.3563C34.187 19.2837 34.1434 19.2546 34.1144 19.182C34.0127 19.4289 33.7295 19.5669 33.5915 19.5015C33.4173 19.6395 33.214 19.6032 33.1413 19.4652C33.0397 19.5378 32.8945 19.5378 32.8291 19.4652C32.8291 19.5669 32.7565 19.5378 32.7202 19.6758C32.7202 19.7484 32.5822 19.7775 32.5169 19.7484C32.4443 19.7048 32.408 19.5669 32.4806 19.5015C32.3789 19.5741 32.27 19.5741 32.2046 19.5015C32.2046 19.4289 32.2046 19.3273 32.2772 19.2837H32.3426C32.27 19.2546 32.1683 19.2837 32.0957 19.2546C32.0231 19.182 32.0231 19.1094 32.0594 19.0441C32.0957 19.0078 32.2046 18.9424 32.2772 19.0078L32.3063 19.0441C32.3063 18.9714 32.3426 18.9061 32.3789 18.9061C32.4515 18.8698 32.5459 18.8698 32.6548 18.9787C32.7275 19.0804 32.7928 19.0804 33.0034 19.0513C33.1777 19.0513 33.4536 18.8698 33.6569 18.6955C33.076 18.5939 33.4173 18.209 33.5915 18.071C33.4536 18.0347 33.243 18.0347 33.105 18.1073C32.3789 18.4922 31.6092 18.9424 31.1227 18.8044C31.13 18.877 31.1517 18.9497 31.1953 19.0078C31.0864 19.0078 30.8758 19.0078 30.8105 18.9061C30.7742 18.9787 30.7088 19.153 30.7742 19.2909C30.7015 19.2183 30.4982 19.1457 30.3893 19.1167C30.4619 19.1893 30.3893 19.3273 30.4256 19.4289C30.324 19.3273 30.1497 19.2546 30.0771 19.3273C30.0045 19.3999 29.8665 19.4289 29.7648 19.3999C29.6995 19.4943 29.5978 19.5669 29.4889 19.6032C29.4889 19.5306 29.4889 19.4289 29.4526 19.3926C29.4163 19.5015 29.3074 19.6395 29.1767 19.7048C29.1767 19.6322 29.1767 19.5306 29.1404 19.4652C29.1404 19.6032 28.8644 19.6758 28.8281 19.7775C28.8644 19.6758 28.8644 19.5669 28.8644 19.5015C28.7845 19.625 28.6611 19.7121 28.5159 19.7411C28.5449 19.6685 28.5885 19.5959 28.5449 19.5306C28.5159 19.6758 28.3053 19.7484 28.131 19.7048C28.131 19.7775 27.9858 19.8791 27.8188 19.7775C27.7099 19.7411 27.6445 19.6322 27.7099 19.5669C27.5719 19.5669 27.4339 19.4289 27.5066 19.3273C27.5066 19.2909 27.5356 19.2546 27.5356 19.2183C27.4339 19.1457 27.3976 19.0078 27.5066 18.9061C27.5356 18.8698 27.6445 18.8698 27.7099 18.8698C27.7099 18.5939 27.9568 18.5939 28.0584 18.7972C28.131 18.9061 28.3416 19.0804 28.5159 19.0441C28.5885 19.0441 28.6175 19.0078 28.6901 19.0078C29.0024 18.9061 29.3001 18.7536 29.5615 18.5575C29.5906 18.4559 29.5906 18.3833 29.5906 18.3179C29.4526 18.3905 29.3146 18.4559 29.242 18.5575V18.4559C29.1404 18.4559 28.9661 18.4196 28.8935 18.4196C28.9298 18.3833 28.9661 18.209 29.0387 18.1727C28.8644 18.209 28.6901 18.1727 28.5449 18.1437C28.6175 18.071 28.6175 17.9694 28.6538 17.8605C28.5812 17.8968 28.407 17.8314 28.269 17.8605C28.3053 17.7588 28.3416 17.6208 28.4433 17.5845C28.298 17.6208 28.131 17.5845 27.9568 17.5119C28.102 17.5119 28.1673 17.3376 28.269 17.3376C27.9931 17.3376 27.9204 17.1997 27.7825 17.1343C27.8841 17.1634 27.9568 17.0617 28.0584 17.0617C27.9568 17.0254 27.7825 16.8511 27.8551 16.7495C27.8188 16.7858 27.7825 16.8511 27.7099 16.8947C27.6373 16.9238 27.5066 16.8947 27.3976 16.7858C27.325 16.6406 27.3613 16.4735 27.5066 16.4372C27.4122 16.43 27.3468 16.3501 27.3541 16.263C27.3541 16.2267 27.3758 16.1831 27.3976 16.154C27.4339 16.0814 27.5719 15.987 27.6445 16.0814L27.7462 16.2267C27.7099 16.154 27.7099 16.0161 27.7099 15.9144C27.7462 15.8128 27.8188 15.8128 27.9277 15.7692C28.0221 15.7692 28.0947 15.8781 28.0947 15.987C28.0947 16.0887 28.131 16.154 28.1673 16.2993L28.1964 16.154C28.1964 16.0161 28.3707 16.0524 28.4796 16.0814C28.5812 16.125 28.6175 16.3283 28.4796 16.4372C28.407 16.5099 28.4433 16.6115 28.5159 16.6769C28.7555 17.0617 29.1694 17.374 29.5252 17.4103C29.5252 17.265 29.5978 17.1343 29.6995 17.0254C29.6995 16.9528 29.7285 16.8511 29.7721 16.7858C29.8011 16.5752 29.9028 16.4735 30.0408 16.5389C30.0117 16.5026 29.9681 16.4663 29.9681 16.4372C29.8665 16.3283 29.7648 16.154 29.8374 16.0161C29.9101 15.8781 30.1134 15.9144 30.186 15.987C30.1497 15.7692 30.3893 15.6022 30.3893 15.4933C30.4256 15.6022 30.4982 15.7402 30.4619 15.8418C30.4982 15.7038 30.7378 15.5296 30.9121 15.4642C30.8395 15.5659 31.0573 15.7402 31.021 15.8418C31.0937 15.6675 31.3696 15.5659 31.5729 15.5659C31.5003 15.6385 31.5003 15.7765 31.5003 15.8418C31.6092 15.8418 31.7907 15.8128 31.8561 15.7038C31.8561 15.8491 31.7835 15.987 31.7109 16.0524C31.7472 16.0161 31.8851 16.0161 31.9941 16.0161C31.8851 16.125 31.9214 16.2339 31.8198 16.2993C31.9578 16.2267 32.132 16.2267 32.1683 16.3719C32.2409 16.4735 32.132 16.6478 32.0594 16.7495C31.9868 16.7858 31.9214 16.8511 31.8851 16.8511Z" fill="#F9D050" stroke="black" stroke-width="0.088581" stroke-miterlimit="3.4854"/>
<path d="M29.7357 17.2724C29.4888 17.374 29.4162 17.6209 29.3799 17.7589" stroke="black" stroke-width="0.088581" stroke-miterlimit="3.4854"/>
<path d="M29.6994 17.512C29.3508 17.7298 29.2056 17.8968 29.2782 18.2817" stroke="black" stroke-width="0.088581" stroke-miterlimit="3.4854"/>
<path d="M29.8665 18.5649C30.0843 18.4923 30.215 18.4196 30.3893 18.1074" stroke="black" stroke-width="0.088581" stroke-miterlimit="3.4854"/>
<path d="M30.2874 18.2453C30.2148 18.3906 30.2874 18.6302 30.1858 18.7319C30.3746 18.6375 30.5053 18.4559 30.5343 18.2453" stroke="black" stroke-width="0.088581" stroke-miterlimit="3.4854"/>
<path d="M30.3601 18.6302C30.4981 18.5576 30.7087 18.347 30.8103 18.1074C30.774 18.2091 30.8103 18.3833 30.7377 18.4923C30.912 18.318 30.9846 18.2091 31.0209 18.0348L31.0499 18.18C31.1225 18.1074 31.1952 18.0348 31.1952 17.8968" stroke="black" stroke-width="0.088581" stroke-miterlimit="3.4854"/>
<path d="M31.188 17.9985V18.1727C31.3332 18.0711 31.3695 17.9331 31.3695 17.7589" stroke="black" stroke-width="0.088581" stroke-miterlimit="3.4854"/>
<path d="M31.3333 17.9694C31.5438 17.8242 31.5729 17.6209 31.5729 17.3086" stroke="black" stroke-width="0.088581" stroke-miterlimit="3.4854"/>
<path d="M31.5728 17.6572C31.718 17.5483 31.747 17.4829 31.747 17.1634" stroke="black" stroke-width="0.088581" stroke-miterlimit="3.4854"/>
<path d="M31.2969 16.2267C31.2243 16.2267 31.1516 16.263 31.1516 16.3719C31.1516 16.4373 31.05 16.539 31.05 16.6479C31.0209 16.7858 30.9483 16.8221 30.8467 16.7858C30.7377 16.7132 30.7377 16.7132 30.7377 16.6116C30.7377 16.4663 30.912 16.4373 30.912 16.2993C30.9483 16.2267 30.9846 16.1251 31.0209 16.1251C30.8467 16.2267 30.5998 16.1541 30.5635 15.9508" stroke="black" stroke-width="0.088581" stroke-miterlimit="3.4854"/>
<path d="M31.609 16.3284C31.5364 16.3647 31.4637 16.2558 31.3693 16.2993C31.333 16.2993 31.2241 16.3284 31.1951 16.2993" stroke="black" stroke-width="0.088581" stroke-miterlimit="3.4854"/>
<path d="M31.1226 16.5027C31.1589 16.539 31.3331 16.6116 31.5074 16.539C31.3622 16.5753 31.2605 16.401 31.3985 16.2993" stroke="black" stroke-width="0.088581" stroke-miterlimit="3.4854"/>
<path d="M30.8103 16.1541C30.665 16.1541 30.5634 16.263 30.5997 16.3719C30.636 16.4736 30.774 16.4736 30.8756 16.401" stroke="black" stroke-width="0.088581" stroke-miterlimit="3.4854"/>
<path d="M30.5635 17.8968C30.5998 17.8605 30.6361 17.7952 30.6361 17.7516C30.7087 17.7516 30.7813 17.7225 30.8104 17.6862C30.9483 17.6862 31.05 17.5846 31.0863 17.4829C31.1589 17.4829 31.1952 17.3087 31.2315 17.236C31.2606 17.2723 31.3332 17.236 31.3695 17.0908C31.4421 17.1344 31.5438 17.0908 31.5728 16.9892" stroke="black" stroke-width="0.088581" stroke-miterlimit="3.4854"/>
<path d="M30.1495 16.7495C30.1495 16.7858 30.0769 16.8512 30.0042 16.8948C30.0406 16.9601 30.0042 17.1344 29.9389 17.1634C29.9752 17.236 29.9389 17.3377 29.9026 17.4103C29.9026 17.4466 29.9389 17.5555 29.9389 17.5846" stroke="black" stroke-width="0.088581" stroke-miterlimit="3.4854"/>
<path d="M30.2876 16.0524C30.2149 16.2267 30.2513 16.4373 30.3892 16.4736" stroke="black" stroke-width="0.088581" stroke-miterlimit="3.4854"/>
<path d="M30.3601 16.6043C30.3238 16.7858 30.3238 17.0255 30.2875 17.1344C30.2512 17.207 30.1858 17.4466 30.4617 17.512C30.774 17.5846 30.9483 17.5483 31.1225 17.0255" stroke="black" stroke-width="0.088581" stroke-miterlimit="3.4854"/>
<path d="M31.6454 18.3833C31.6454 18.4196 31.6091 18.4922 31.5437 18.4922" stroke="black" stroke-width="0.088581" stroke-miterlimit="3.4854"/>
<path d="M31.8851 18.318C31.8851 18.3906 31.8125 18.4923 31.7834 18.5213" stroke="black" stroke-width="0.088581" stroke-miterlimit="3.4854"/>
<path d="M32.1319 18.2453C32.1319 18.318 32.1319 18.4196 32.0593 18.4559" stroke="black" stroke-width="0.088581" stroke-miterlimit="3.4854"/>
<path d="M30.0116 16.0888C30.0407 16.0888 30.0842 16.1614 30.1133 16.2267C30.0116 16.1541 29.9027 16.3284 29.968 16.4373" stroke="black" stroke-width="0.088581" stroke-miterlimit="3.4854"/>
<path d="M29.9026 16.6769L29.7646 16.7858" stroke="black" stroke-width="0.088581" stroke-miterlimit="3.4854"/>
<path d="M29.8011 16.9892C29.7648 16.9892 29.7285 17.0255 29.6995 17.0255" stroke="black" stroke-width="0.088581" stroke-miterlimit="3.4854"/>
<path d="M28.1309 16.3647C28.1309 16.3284 28.1309 16.3284 28.1672 16.2921" stroke="black" stroke-width="0.088581" stroke-miterlimit="3.4854"/>
<path d="M27.8187 16.263C27.7824 16.263 27.7824 16.263 27.7461 16.2267" stroke="black" stroke-width="0.088581" stroke-miterlimit="3.4854"/>
<path d="M27.8477 16.7495H27.9203" stroke="black" stroke-width="0.088581" stroke-miterlimit="3.4854"/>
<path d="M27.7097 16.539C27.6516 16.4809 27.5862 16.4518 27.5063 16.4373" stroke="black" stroke-width="0.088581" stroke-miterlimit="3.4854"/>
<path d="M29.6268 17.8315C29.3799 18.0348 29.2783 18.2091 29.2419 18.4559" stroke="black" stroke-width="0.088581" stroke-miterlimit="3.4854"/>
<path d="M29.8663 17.9985C29.8082 18.1292 29.7065 18.2381 29.5903 18.318" stroke="black" stroke-width="0.088581" stroke-miterlimit="3.4854"/>
<path d="M28.5157 19.0441C28.2834 19.1167 28.022 19.0804 27.8186 18.9425C27.7823 18.9061 27.746 18.9061 27.7097 18.8698" stroke="black" stroke-width="0.088581" stroke-miterlimit="3.4854"/>
<path d="M29.5542 18.5648C29.5252 18.6955 29.4816 18.8698 29.4163 18.9061C29.6995 18.7609 29.9391 18.5576 29.9754 18.2453" stroke="black" stroke-width="0.088581" stroke-miterlimit="3.4854"/>
<path d="M27.5354 19.2184C27.6443 19.1821 27.7532 19.2547 27.8186 19.1821" stroke="black" stroke-width="0.088581" stroke-miterlimit="3.4854"/>
<path d="M33.5916 18.0711C33.6642 18.1074 33.7658 18.1437 33.8021 18.1728C33.8384 18.1001 33.9764 17.9985 34.0781 17.9694" stroke="black" stroke-width="0.088581" stroke-miterlimit="3.4854"/>
<path d="M31.1225 18.8045C31.0862 18.6593 31.1588 18.4923 31.3694 18.4196" stroke="black" stroke-width="0.088581" stroke-miterlimit="3.4854"/>
<path d="M29.7646 19.3927C29.801 19.3201 29.801 19.2184 29.8373 19.153" stroke="black" stroke-width="0.088581" stroke-miterlimit="3.4854"/>
<path d="M28.2325 19.5016C28.1962 19.5742 28.1309 19.6395 28.1309 19.7049" stroke="black" stroke-width="0.088581" stroke-miterlimit="3.4854"/>
<path d="M27.7097 19.5669C27.7097 19.5669 27.7097 19.5306 27.746 19.5306C27.8186 19.5016 27.9203 19.429 27.9566 19.3564" stroke="black" stroke-width="0.088581" stroke-miterlimit="3.4854"/>
<path d="M32.4441 19.0804C32.3715 19.1167 32.3425 19.0804 32.3062 19.0441" stroke="black" stroke-width="0.088581" stroke-miterlimit="3.4854"/>
<path d="M32.4078 19.2547C32.4078 19.2547 32.3788 19.291 32.3352 19.291" stroke="black" stroke-width="0.088581" stroke-miterlimit="3.4854"/>
<path d="M32.5821 19.429C32.5458 19.4653 32.5095 19.5016 32.4805 19.5016" stroke="black" stroke-width="0.088581" stroke-miterlimit="3.4854"/>
<path d="M33.5916 19.5016C33.6642 19.4653 33.7005 19.3927 33.7368 19.2547" stroke="black" stroke-width="0.088581" stroke-miterlimit="3.4854"/>
<path d="M33.1411 19.4653C33.2428 19.429 33.3154 19.3564 33.417 19.2547" stroke="black" stroke-width="0.088581" stroke-miterlimit="3.4854"/>
<path d="M34.1143 19.1821C34.1143 19.1095 34.1143 19.0441 34.1506 18.9788" stroke="black" stroke-width="0.088581" stroke-miterlimit="3.4854"/>
<path d="M36.692 19.5016C36.6194 19.429 36.6194 19.3273 36.7283 19.2547C36.8009 19.2184 36.8299 19.1821 36.9025 19.153" stroke="black" stroke-width="0.088581" stroke-miterlimit="3.4854"/>
<path d="M34.5646 18.2744C34.0127 18.0348 34.049 17.7226 33.5916 17.7589" stroke="black" stroke-width="0.088581" stroke-miterlimit="3.4854"/>
<path d="M37.0405 19.3636C37.0768 19.3926 37.0405 19.5016 37.0405 19.5306" stroke="black" stroke-width="0.088581" stroke-miterlimit="3.4854"/>
<path d="M37.3527 19.3636C37.3164 19.4653 37.3164 19.5016 37.3164 19.6032" stroke="black" stroke-width="0.088581" stroke-miterlimit="3.4854"/>
<path d="M34.6733 16.0888H34.3828" stroke="black" stroke-width="0.088581" stroke-miterlimit="3.4854"/>
<path d="M31.7471 17.2724C31.7471 17.345 31.856 17.4829 32.1319 17.4829C32.0956 17.4829 32.0593 17.4466 32.0593 17.4466" stroke="black" stroke-width="0.088581" stroke-miterlimit="3.4854"/>
<path d="M31.8851 16.8512C31.856 16.8875 31.8125 16.8512 31.8125 16.8512C31.7471 16.7786 31.856 16.6479 31.9577 16.5753C31.856 16.6116 31.7834 16.6116 31.7108 16.6116C31.6382 16.8221 31.4349 16.9238 31.2969 16.7858C31.2606 16.9238 31.0863 17.0981 30.9484 17.0618C30.8031 16.9891 30.7741 16.8875 30.8031 16.7858C30.6361 16.9892 30.4255 16.8584 30.3602 16.7858C30.3239 16.7132 30.3602 16.5389 30.4328 16.3284" stroke="black" stroke-width="0.088581" stroke-miterlimit="3.4854"/>
<path d="M34.1141 18.1727C34.0124 18.2453 33.9035 18.1727 33.8019 18.2816C33.7293 18.3542 33.8382 18.3833 33.9035 18.3833C33.8745 18.4922 33.8745 18.5285 34.0488 18.5285C33.9761 18.6302 34.1867 18.6665 34.1504 18.8044C34.2375 18.71 34.2666 18.5793 34.223 18.4559C34.1867 18.347 34.0052 18.2816 34.1141 18.1727Z" fill="black"/>
<path d="M30.9482 17.0617C30.8029 16.9891 30.7739 16.8874 30.8029 16.7858C30.7739 16.8584 30.7085 16.8874 30.6359 16.8874C30.4907 17.1997 30.3237 17.4828 30.1131 17.4828C29.8662 17.5119 29.9025 17.7588 30.0768 17.7588C30.4616 17.8314 30.6359 17.6862 30.9482 17.0617Z" fill="#073163"/>
<path d="M27.5063 16.2266C27.6079 16.125 27.5353 16.0161 27.47 15.987C27.3611 15.9507 27.1577 15.987 27.0488 16.154C27.1577 16.125 27.2667 16.125 27.2957 16.1903C27.332 16.2629 27.3974 16.3356 27.5063 16.2266Z" fill="#073163"/>
<path d="M27.6806 15.6022C27.9202 15.6022 27.9928 15.6385 28.0219 15.7401C28.0582 15.8128 27.9928 15.9144 27.9202 15.9144C27.8186 15.9144 27.7096 15.8418 27.746 15.8128C27.7823 15.7401 27.7823 15.6385 27.6733 15.5949L27.6806 15.6022Z" fill="#073163"/>
<path d="M28.3706 16.154C28.5448 16.1903 28.6174 16.0814 28.5158 15.9507C28.4795 15.8418 28.3706 15.7764 28.1963 15.8055C28.3706 15.9144 28.1963 16.0887 28.3706 16.154Z" fill="#073163"/>
<path d="M27.0852 16.7495C27.1506 16.8802 27.2958 16.9383 27.4337 16.8947C27.5354 16.8511 27.579 16.7495 27.5354 16.6768C27.4628 16.5752 27.3611 16.5389 27.3321 16.6768C27.2595 16.8221 27.1578 16.7858 27.0852 16.7495Z" fill="#073163"/>
<path d="M27.6082 18.8698C27.5355 18.7318 27.3322 18.7318 27.158 18.8698C27.2306 18.8335 27.3613 18.8698 27.3976 18.9424C27.4339 19.015 27.5065 19.015 27.5428 19.015C27.5719 18.9787 27.6445 18.9424 27.6082 18.8698Z" fill="#073163"/>
<path d="M27.8839 18.6665C27.8839 18.4922 27.6443 18.4486 27.5063 18.5212C27.579 18.5212 27.6806 18.5938 27.6806 18.6665C27.7097 18.7391 27.7823 18.7681 27.8186 18.7681C27.8912 18.7318 27.9202 18.6955 27.8912 18.6665H27.8839Z" fill="#073163"/>
<path d="M27.5354 19.2909C27.3321 19.2546 27.2231 19.5015 27.2231 19.6685C27.2595 19.5669 27.3684 19.5015 27.47 19.5305C27.5717 19.5305 27.608 19.5015 27.608 19.4289C27.6443 19.3563 27.608 19.3272 27.5354 19.2909Z" fill="#073163"/>
<path d="M27.5718 19.8791C27.6444 19.9154 27.717 19.8428 27.746 19.7411C27.746 19.6685 27.8913 19.6685 27.9203 19.7048C27.9929 19.7411 27.9929 19.8791 27.884 19.9517C27.8114 19.988 27.6444 20.0243 27.5718 19.8791Z" fill="#073163"/>
<path d="M32.4079 18.8335C32.3353 18.8044 32.1682 18.7318 32.0303 18.8335C32.1319 18.8044 32.2045 18.8698 32.2336 18.9424C32.2336 19.015 32.3425 19.044 32.3788 18.9787C32.4079 18.9424 32.4514 18.8698 32.4079 18.8335Z" fill="#073163"/>
<path d="M32.0956 19.0803C31.9576 19.0077 31.7834 19.182 31.7471 19.3272C31.8197 19.2691 31.9068 19.2328 31.994 19.2183C32.0666 19.2546 32.1319 19.2183 32.1319 19.1457C32.1682 19.1166 32.1682 19.0803 32.0956 19.0803Z" fill="#073163"/>
<path d="M32.2772 19.3635C32.1682 19.3635 32.0303 19.5015 32.0303 19.6395C32.0593 19.5669 32.1319 19.5306 32.2045 19.5669C32.2772 19.5669 32.3788 19.5306 32.3788 19.4652C32.3788 19.3926 32.3425 19.3563 32.2699 19.3563L32.2772 19.3635Z" fill="#073163"/>
<path d="M32.582 19.6395C32.5094 19.6032 32.4077 19.6395 32.4077 19.7411C32.4077 19.8428 32.4077 19.9517 32.3787 19.988C32.4513 19.9154 32.5166 19.8791 32.582 19.8428C32.6183 19.8137 32.6546 19.7048 32.582 19.6395Z" fill="#073163"/>
<path d="M36.5176 19.3272C36.445 19.2546 36.3434 19.2909 36.3071 19.3563C36.2708 19.4289 36.2344 19.6032 36.3071 19.7411C36.3071 19.6685 36.3797 19.5669 36.4523 19.5669C36.5539 19.5306 36.583 19.3926 36.5176 19.3272Z" fill="#073163"/>
<path d="M36.7282 19.4652C36.583 19.5378 36.583 19.7774 36.6919 19.9154C36.6919 19.8428 36.7282 19.7411 36.7936 19.7048C36.9025 19.7048 36.9388 19.5669 36.9025 19.5015C36.8299 19.4289 36.7572 19.4652 36.7282 19.4652Z" fill="#073163"/>
<path d="M37.1422 19.6032C37.0695 19.5669 36.9969 19.6395 36.9969 19.7048C36.9679 19.8137 37.0405 19.9517 37.1422 20.0171C37.1422 19.9444 37.1785 19.8791 37.2148 19.8428C37.3164 19.7702 37.2874 19.6395 37.1422 19.6032Z" fill="#073163"/>
<path d="M37.4545 19.5668C37.3819 19.5668 37.3165 19.6685 37.3819 19.7774C37.4182 19.85 37.4908 19.8791 37.6288 19.85C37.5925 19.85 37.5271 19.7411 37.5561 19.7048C37.5925 19.6322 37.5561 19.5668 37.4545 19.5668Z" fill="#073163"/>
<path d="M39.2989 15.1519V21.934C39.2989 27.8157 36.5178 29.8343 32.7928 31.4318C29.0677 29.8343 26.2576 27.8157 26.2576 21.934V15.1447L39.2989 15.1519Z" stroke="black" stroke-width="0.088581" stroke-miterlimit="3.4854"/>
<path d="M27.7833 26.0748L29.525 20.7164L31.2666 26.0748L26.7 22.7748H32.35L27.7833 26.0748Z" fill="#F9D050"/>
<path d="M28.1334 25.5831L31.75 22.9414H27.3L30.8834 25.5831L29.5334 21.3414L28.1334 25.5831Z" fill="#024919"/>
<path d="M34.325 26.0748L36.0667 20.7164L37.8084 26.0748L33.2417 22.7748H38.8917L34.325 26.0748Z" fill="#F9D050"/>
<path d="M34.6751 25.5831L38.2918 22.9414H33.8418L37.4251 25.5831L36.0751 21.3414L34.6751 25.5831Z" fill="#024919"/>
<path d="M31.0501 29.8664L32.7918 24.5081L34.5335 29.8664L29.9668 26.5664H35.6168L31.0501 29.8664Z" fill="#F9D050"/>
<path d="M31.4 29.3748L35.0167 26.7331H30.5667L34.15 29.3748L32.8 25.1331L31.4 29.3748Z" fill="#024919"/>
</g>
</g>
<defs>
<clipPath id="clip0_769_19249">
<path d="M0 20C0 8.95431 8.95431 0 20 0C31.0457 0 40 8.95431 40 20C40 31.0457 31.0457 40 20 40C8.95431 40 0 31.0457 0 20Z" fill="white"/>
</clipPath>
<clipPath id="clip1_769_19249">
<rect width="53.3333" height="40" fill="white" transform="translate(-7 -0.000244141)"/>
</clipPath>
</defs>
</svg>
