<svg width="40" height="40" viewBox="0 0 40 40" fill="none" xmlns="http://www.w3.org/2000/svg">
<g clip-path="url(#clip0_769_23685)">
<path d="M0 20C0 8.95431 8.95431 0 20 0C31.0457 0 40 8.95431 40 20C40 31.0457 31.0457 40 20 40C8.95431 40 0 31.0457 0 20Z" fill="#E94E0F"/>
<g clip-path="url(#clip1_769_23685)">
<path fill-rule="evenodd" clip-rule="evenodd" d="M-7 0.000488281H10.8333V40.0005H-7V0.000488281Z" fill="#000067"/>
<path fill-rule="evenodd" clip-rule="evenodd" d="M28.5 0.000488281H46.3333V40.0005H28.5V0.000488281Z" fill="#FF0000"/>
<path fill-rule="evenodd" clip-rule="evenodd" d="M10.8333 0.000488281H28.4999V40.0005H10.8333V0.000488281Z" fill="#FFFF00"/>
</g>
</g>
<defs>
<clipPath id="clip0_769_23685">
<path d="M0 20C0 8.95431 8.95431 0 20 0C31.0457 0 40 8.95431 40 20C40 31.0457 31.0457 40 20 40C8.95431 40 0 31.0457 0 20Z" fill="white"/>
</clipPath>
<clipPath id="clip1_769_23685">
<rect width="53.3333" height="40" fill="white" transform="translate(-7 0.000488281)"/>
</clipPath>
</defs>
</svg>
