<svg width="40" height="40" viewBox="0 0 40 40" fill="none" xmlns="http://www.w3.org/2000/svg">
<g clip-path="url(#clip0_769_8628)">
<path d="M0 20C0 8.95431 8.95431 0 20 0C31.0457 0 40 8.95431 40 20C40 31.0457 31.0457 40 20 40C8.95431 40 0 31.0457 0 20Z" fill="#E94E0F"/>
<g clip-path="url(#clip1_769_8628)">
<path d="M0 0H53.3333V40H0V0Z" fill="#DE2910"/>
<path d="M6.39997 14.8L9.99993 4L13.5999 14.8L4 8.2H15.9999L6.39997 14.8Z" fill="#FFDE00"/>
<path d="M22.0142 4.20697L18.3094 5.02798L20.7807 2.14826L20.5383 6.02398L18.4824 2.5928L22.0142 4.20697Z" fill="#FFDE00"/>
<path d="M25.7533 8.94561L22.0201 8.26548L25.4148 6.56961L23.6882 10.048L23.1239 6.08798L25.7533 8.94561Z" fill="#FFDE00"/>
<path d="M25.2083 15.5937L22.077 13.4501L25.8682 13.2862L22.8731 15.7579L23.973 11.9121L25.2083 15.5937Z" fill="#FFDE00"/>
<path d="M20.499 19.9367L18.4386 16.7501L21.9989 18.0632L18.2816 19.1863L20.7815 16.0637L20.499 19.9367Z" fill="#FFDE00"/>
</g>
</g>
<defs>
<clipPath id="clip0_769_8628">
<path d="M0 20C0 8.95431 8.95431 0 20 0C31.0457 0 40 8.95431 40 20C40 31.0457 31.0457 40 20 40C8.95431 40 0 31.0457 0 20Z" fill="white"/>
</clipPath>
<clipPath id="clip1_769_8628">
<rect width="53.3333" height="40" fill="white"/>
</clipPath>
</defs>
</svg>
