<svg width="40" height="40" viewBox="0 0 40 40" fill="none" xmlns="http://www.w3.org/2000/svg">
<g clip-path="url(#clip0_769_8697)">
<path d="M0 20C0 8.95431 8.95431 0 20 0C31.0457 0 40 8.95431 40 20C40 31.0457 31.0457 40 20 40C8.95431 40 0 31.0457 0 20Z" fill="#E94E0F"/>
<g clip-path="url(#clip1_769_8697)">
<path d="M-7 0H46.3333V40H-7V0Z" fill="#0021AD"/>
<path d="M-7 0H46.3333V40L-7 0Z" fill="#1C8A42"/>
<path d="M19.6668 24.8167C22.3269 24.8167 24.4834 22.6602 24.4834 20C24.4834 17.3398 22.3269 15.1833 19.6668 15.1833C17.0066 15.1833 14.8501 17.3398 14.8501 20C14.8501 22.6602 17.0066 24.8167 19.6668 24.8167Z" fill="#FFC639"/>
<path d="M16.7249 17.8333C17.0583 18.2917 17.5583 19.05 17.9583 18.85C18.2666 18.85 18.4333 18.875 18.4749 19.0833C18.9968 19.135 19.5233 19.0526 20.0045 18.8441C20.4857 18.6356 20.9057 18.3078 21.2249 17.8917C21.2249 17.8917 21.2916 17.8917 21.2666 17.5167C21.2666 17.35 21.4999 17.3833 21.4999 17.4333C21.5333 17.5167 21.5333 17.575 21.5749 17.5833C21.6583 17.55 21.7999 17.3333 21.9083 17.2C21.9333 17.1417 21.9166 17.075 21.9249 17C21.9833 16.8583 22.1249 16.8917 22.1583 16.9667L22.2083 17.1C22.3583 17.2 22.6249 17.1 22.6416 17.1C22.6666 16.9833 22.7416 17 22.7416 17C22.8416 16.975 22.7999 16.9833 22.8666 17.0167C22.8083 17.6583 22.9916 17.6833 22.9749 18.0167C22.9833 18.3833 22.8666 18.4833 22.8666 18.625C22.8999 18.7917 23.4499 18.8 23.2499 18.95C23.0833 19.0333 23.2499 19.2 22.9999 19.2667C22.2666 19.6417 22.1333 19.9583 22.1333 19.9583C22.1333 19.9583 21.9499 20.3083 21.9249 20.3083C21.7999 20.5417 21.6499 20.4083 21.5583 20.525C21.5166 20.6667 21.4749 20.9833 21.5583 21.1417C21.5999 21.3667 21.5583 21.4917 21.4999 21.7167C21.4499 22.1833 21.2666 22.2583 21.2416 22.4167C21.1583 22.6 21.2583 23.4167 21.1749 23.4167C20.6333 23.4333 20.2166 23.3167 19.9999 23.275C20.2083 22.3667 20.1249 21.575 20.1249 21.4917C20.0749 20.8417 19.1583 21 19.0166 20.9083C18.8999 20.8917 18.8249 20.8 18.7916 20.7583C18.6583 20.7417 18.6083 20.7083 18.4833 20.7C18.4166 20.7333 18.4583 20.7667 18.3166 20.8083C17.9416 20.85 17.7833 20.4917 17.7833 20.4917C17.7999 20.3667 16.9583 20.5167 16.5083 20.4083C16.3166 20.5167 16.2333 20.825 16.0833 20.8583C16.0833 20.95 15.8333 20.775 15.7833 20.6917C15.7666 20.4083 16.0166 20.2917 16.0166 20.2917C16.2166 20.15 16.3333 20.125 16.4333 20.0333C16.4749 19.7917 16.4499 19.6167 16.5583 19.4417C16.6416 19.3 16.7666 19.3583 16.8499 19.3083C16.9416 19.2417 16.9833 18.8417 16.8999 18.725L16.5083 18.375C16.3916 18.0333 16.6499 17.8083 16.7249 17.8333Z" fill="#1C8A42"/>
<path d="M39.8249 11.8667C39.6083 11.0083 37.6582 9.14167 36.1832 7.95833C35.8332 7.725 35.5999 7.86667 35.6499 8.20833C35.8332 8.50833 35.9666 8.84167 36.1499 9.15C36.1999 9.35833 36.2999 9.5 36.3499 9.7C36.3499 9.7 36.3666 10.05 36.3999 10.0833C36.8499 10.5833 36.9166 11.0083 36.9166 11.0083C37.1463 11.5011 37.4721 11.9431 37.8749 12.3083C38.3916 12.6333 38.0082 13.6417 38.0249 14.1833C38.0249 14.5167 37.7832 14.4833 37.5666 14.4333C35.8916 12.8917 34.2249 12.8917 32.7499 12.4417C32.1832 12.3833 32.1666 12.6583 32.3582 12.8083C33.2766 13.8313 34.3827 14.6687 35.6166 15.275L36.2582 15.675L36.9916 16.2833C37.5582 16.65 37.5999 16.9833 37.5999 17.0167C37.6166 17.7 37.2499 18.2333 37.1416 18.45C36.9499 19.175 36.5582 19.3 36.5582 19.3C33.4249 21.4167 31.7749 21.9667 26.6916 21.3083C26.6082 21.275 26.1249 21.35 26.6916 21.5583C27.9832 21.9917 31.1666 22.6833 34.2416 21.225C34.9916 20.7083 35.4749 20.875 36.0166 20.5583C36.7781 20.0868 37.5654 19.6583 38.3749 19.275C39.0666 18.9 40.9832 18.4917 41.4249 18.125C41.9332 18.0833 42.4583 18.0167 42.4916 17.5833C42.6583 17.475 42.9082 17.5583 43.0916 17.2C43.4916 17.125 43.4249 16.9833 43.4249 16.9833C43.3249 16.7 42.9416 16.5833 42.6749 16.375C42.2749 16.2417 42.0082 16.2083 41.7166 16.3417L41.4416 16.4667C41.4416 16.4667 41.0166 16.4083 41.0166 16.375C40.0666 16.325 40.1583 13.1833 39.8249 11.875V11.8667Z" fill="#FFC639"/>
<path d="M3.03727 16.8534L2.3546 16.2134L1.6666 16.8427L1.74127 15.9147L0.818604 15.7654L1.59194 15.2427L1.13327 14.432L2.02394 14.7147L2.3706 13.8507L2.7066 14.72L3.59727 14.4534L3.12794 15.2534L3.89594 15.7867L2.97327 15.92L3.03727 16.848V16.8534Z" fill="white"/>
<path d="M5.44783 24.56L4.71183 24.0747L3.99717 24.5867L4.25317 23.76L3.52783 23.2534L4.41317 23.232L4.67983 22.4054L4.9785 23.2214L5.86917 23.216L5.15983 23.7334L5.4425 24.5547L5.44783 24.56Z" fill="white"/>
</g>
</g>
<defs>
<clipPath id="clip0_769_8697">
<path d="M0 20C0 8.95431 8.95431 0 20 0C31.0457 0 40 8.95431 40 20C40 31.0457 31.0457 40 20 40C8.95431 40 0 31.0457 0 20Z" fill="white"/>
</clipPath>
<clipPath id="clip1_769_8697">
<rect width="53.3333" height="40" fill="white" transform="translate(-7)"/>
</clipPath>
</defs>
</svg>
