<svg width="40" height="41" viewBox="0 0 40 41" fill="none" xmlns="http://www.w3.org/2000/svg">
<g clip-path="url(#clip0_769_8530)">
<path d="M0 20.5C0 9.45431 8.95431 0.5 20 0.5V0.5C31.0457 0.5 40 9.45431 40 20.5V20.5C40 31.5457 31.0457 40.5 20 40.5V40.5C8.95431 40.5 0 31.5457 0 20.5V20.5Z" fill="#E94E0F"/>
<g clip-path="url(#clip1_769_8530)">
<path d="M-7 0.5H46.3333V40.5H-7V0.5Z" fill="#008000"/>
<path d="M19.6667 26.0583C22.7365 26.0583 25.2251 23.5698 25.2251 20.5C25.2251 17.4302 22.7365 14.9417 19.6667 14.9417C16.5969 14.9417 14.1084 17.4302 14.1084 20.5C14.1084 23.5698 16.5969 26.0583 19.6667 26.0583Z" fill="#FFE000"/>
<path d="M21.4 25.075C23.9267 25.075 25.975 23.0267 25.975 20.5C25.975 17.9733 23.9267 15.925 21.4 15.925C18.8732 15.925 16.825 17.9733 16.825 20.5C16.825 23.0267 18.8732 25.075 21.4 25.075Z" fill="#008000"/>
<path d="M2.14992 20.7583C5.36238 20.7583 7.96659 18.1541 7.96659 14.9417C7.96659 11.7292 5.36238 9.125 2.14992 9.125C-1.06254 9.125 -3.66675 11.7292 -3.66675 14.9417C-3.66675 18.1541 -1.06254 20.7583 2.14992 20.7583Z" fill="#FFE000"/>
<path d="M1.75 19.3333H3.20833C3.20833 19.3333 3.26667 19.2 3.19167 19.1333C3.10833 19.0667 2.8 19.05 2.88333 18.8167C3.05 18.3333 3.08333 18.4833 3.19167 17.3333C3.27094 16.3487 3.32651 15.3623 3.35833 14.375H3.14167C3.14167 14.375 3.18333 14.9333 3.05833 15.6667C2.94167 16.4 2.9 16.4583 2.76667 17.025C2.70386 17.3439 2.6118 17.6563 2.49167 17.9583C2.375 18.2917 2.35833 18.3 2.175 18.6083C1.98333 18.9083 2.05 18.7917 1.95 18.975C1.89167 19.0667 1.83333 19.0417 1.79167 19.1083C1.75833 19.175 1.75 19.3333 1.75 19.3333V19.3333Z" fill="#802000" stroke="#7B3100" stroke-width="0.125"/>
<path d="M2.85824 10.7083C2.87733 10.968 2.8433 11.2289 2.75824 11.475C2.64276 11.7325 2.57769 12.0097 2.56657 12.2917C2.41657 12.3417 2.25824 11.9667 2.10824 12.1917C2.21657 12.5 2.4749 12.7417 2.64157 13.0167C2.6749 13.1 2.9249 13.325 2.7749 13.375C2.41657 13.25 2.3249 12.7917 2.10824 12.5167C1.98143 12.2795 1.7963 12.0785 1.57031 11.9327C1.34432 11.7869 1.08492 11.7011 0.816569 11.6833C0.608236 11.6917 -0.0500974 11.6417 0.116569 11.9917C0.366569 12.1583 0.683236 12.275 0.933236 12.4667C1.1249 12.4833 1.45824 12.8 1.44157 12.9167C1.10824 12.7833 0.958236 12.625 0.608236 12.4833C0.124903 12.3 -0.533431 12.4083 -0.808431 12.8833C-0.850097 13.0083 -0.925097 13.3667 -0.766764 13.4083C-0.583431 13.125 -0.325098 12.8 0.0582356 12.8917C0.358236 12.9167 -0.275098 13.45 -0.033431 13.3417C0.0499023 13.3083 0.216569 13.1917 0.349902 13.175C0.474902 13.175 0.541569 13.2583 0.633236 13.275C0.824902 13.3 0.883236 13.375 0.858236 13.425C0.841569 13.475 0.774902 13.425 0.583236 13.4917C0.491569 13.525 0.441569 13.6083 0.333236 13.65C0.216569 13.6833 -0.0167639 13.6917 -0.100097 13.65C-0.408431 13.525 -0.908431 13.5417 -1.0001 13.925C-1.0001 14.0917 -1.1501 13.9083 -1.21676 13.9833C-1.2751 14.1667 -1.28343 14.35 -1.5501 14.3333C-1.71676 14.5 -1.88343 14.6833 -2.1001 14.8083C-1.9751 15.0917 -1.49176 14.525 -1.51676 14.7667C-1.7251 15.0583 -1.4001 15.1167 -1.26676 14.8917C-1.0251 14.6417 -0.725098 14.3333 -0.375098 14.5917C-0.208431 14.75 -0.108431 14.5083 0.0165689 14.5083C0.0999022 14.7167 0.191569 14.525 0.283236 14.4667C0.424903 14.45 0.383236 14.65 0.549902 14.525C0.891569 14.3 1.30824 14.4917 1.64157 14.275C1.9999 14.1083 1.69157 14.4 1.5999 14.5167C1.44157 14.8167 1.5749 15.2167 1.24157 15.4C1.0999 15.7583 1.3999 16.2333 1.0999 16.5C1.05824 16.6667 1.48324 16.65 1.5999 16.7167C1.81657 16.7167 1.5999 16.2333 1.80824 16.1667C2.09157 16.3333 2.0749 15.85 2.01657 15.7C2.0499 15.3667 2.06657 14.9833 2.23324 14.675C2.41657 14.3 2.58324 14.8333 2.38324 14.9833C2.26657 15.325 2.0999 15.7667 2.35824 16.0917C2.44157 16.1083 2.4999 16.2917 2.59157 16.3417C2.69157 16.4 2.8249 16.3333 2.84157 16.1667C2.9749 15.6667 2.90824 15.1333 3.09157 14.6417C3.21657 14.4917 3.39157 14.6167 3.46657 14.7583C3.71657 15.05 3.89157 15.4083 4.19157 15.65C4.47555 15.7661 4.7069 15.9827 4.84157 16.2583C4.84157 16.475 5.45824 16.5083 5.2749 16.2583C5.0999 16.0333 5.21657 15.7917 5.39157 15.6333C5.49157 15.6583 5.46657 15.4833 5.39157 15.55C5.26657 15.525 5.25824 15.3 5.4249 15.4083C5.71657 15.5 5.40824 15.2 5.2999 15.1917C5.05824 15.0417 4.78324 14.875 4.66657 14.6083C4.98324 14.6083 5.30824 14.7833 5.6249 14.6833C5.88324 14.55 6.14157 14.6833 6.23324 14.9167C6.43324 14.8833 6.3499 14.6833 6.23324 14.6167C6.3749 14.5583 6.48324 14.4333 6.2999 14.325C6.21657 14.2083 6.4249 13.9917 6.15824 14.0083C6.16657 13.8 6.09157 13.6167 5.86657 13.5417C5.64157 13.3583 4.98324 13.825 5.00824 13.4C4.94157 13.1667 5.2749 13.3667 5.36657 13.25C5.45824 13 4.90824 13.0333 5.09157 12.8333C5.20824 12.7667 5.76657 12.6583 5.33324 12.575C5.23526 12.6037 5.13215 12.6104 5.03129 12.5945C4.93044 12.5787 4.83434 12.5407 4.7499 12.4833C4.59157 12.7417 4.1499 12.3333 4.2249 12.8C4.16657 12.975 3.76657 13.4333 3.65824 13.0833C3.74157 12.8083 4.2249 12.725 4.0749 12.35C4.0499 12.125 3.85824 12.3917 3.7749 12.375C3.7249 12.2333 3.90824 12.0583 4.04157 12.025C4.29157 12.225 4.29157 11.775 4.54157 11.8167C4.71657 11.775 4.48324 11.7 4.43324 11.6667C4.48324 11.5417 4.75824 11.475 4.49157 11.3583C4.2499 11.1917 4.0749 11.5333 3.88324 11.55C3.6999 11.3417 4.0499 11.2417 4.1499 11.1333C4.15824 11.05 3.9499 11.1083 4.00824 11.0333C4.06657 10.9417 4.44157 10.9333 4.25824 10.7833C3.97804 10.6978 3.67648 10.7156 3.40824 10.8333C3.24157 10.8833 3.1999 11.25 3.05824 11.2333C2.9999 11.0667 3.08324 10.75 2.85824 10.7083V10.7083ZM4.10824 14.2333C4.30824 14.2 4.10824 14.5417 4.0249 14.5333C4.0249 14.4167 3.7249 14.425 3.91657 14.3167C3.97517 14.278 4.04002 14.2498 4.10824 14.2333V14.2333Z" fill="#008000"/>
<path d="M33.0051 27.4867L33.3723 28.6286L34.4942 28.2037L33.8306 29.2033L34.8625 29.8155L33.6665 29.9198L33.8311 31.1083L33.0051 30.2383L32.1785 31.1078L32.3431 29.9198L31.1477 29.815L32.1796 29.2028L31.5155 28.2032L32.6373 28.6281L33.0051 27.4867Z" fill="#FFE000"/>
<path d="M26.3376 16.9298L26.7048 18.0717L27.8267 17.6468L27.1631 18.6464L28.195 19.2587L26.9991 19.3629L27.1636 20.5514L26.3376 19.6815L25.511 20.5509L25.6756 19.3629L24.4802 19.2581L25.5121 18.6459L24.848 17.6463L25.9698 18.0712L26.3376 16.9298Z" fill="#FFE000"/>
<path d="M33.0051 9.70667L33.3723 10.8486L34.4942 10.4237L33.8306 11.4233L34.8625 12.0355L33.6665 12.1398L33.8311 13.3283L33.0051 12.4583L32.1785 13.3278L32.3431 12.1398L31.1477 12.035L32.1796 11.4228L31.5155 10.4232L32.6373 10.8481L33.0051 9.70667Z" fill="#FFE000"/>
<path d="M38.9318 15.1518L39.2991 16.2937L40.4209 15.8688L39.7573 16.8684L40.7892 17.4807L39.5933 17.5849L39.7579 18.7734L38.9318 17.9035L38.1053 18.7729L38.2699 17.5849L37.0745 17.4801L38.1063 16.8679L37.4422 15.8683L38.5641 16.2932L38.9318 15.1518Z" fill="#FFE000"/>
<path d="M35.672 20.5017L35.9625 21.2134L36.7288 21.2695L36.1414 21.7658L36.325 22.512L35.672 22.1066L35.019 22.5125L35.2021 21.7664L34.6147 21.27L35.382 21.2139L35.672 20.5017Z" fill="#FFE000"/>
</g>
</g>
<defs>
<clipPath id="clip0_769_8530">
<path d="M0 20.5C0 9.45431 8.95431 0.5 20 0.5V0.5C31.0457 0.5 40 9.45431 40 20.5V20.5C40 31.5457 31.0457 40.5 20 40.5V40.5C8.95431 40.5 0 31.5457 0 20.5V20.5Z" fill="white"/>
</clipPath>
<clipPath id="clip1_769_8530">
<rect width="53.3333" height="40" fill="white" transform="translate(-7 0.5)"/>
</clipPath>
</defs>
</svg>
