<svg width="40" height="40" viewBox="0 0 40 40" fill="none" xmlns="http://www.w3.org/2000/svg">
<g clip-path="url(#clip0_769_19187)">
<path d="M0 20C0 8.95431 8.95431 0 20 0C31.0457 0 40 8.95431 40 20C40 31.0457 31.0457 40 20 40C8.95431 40 0 31.0457 0 20Z" fill="#E94E0F"/>
<g clip-path="url(#clip1_769_19187)">
<path fill-rule="evenodd" clip-rule="evenodd" d="M0 -0.000244141H60.0625V9.99976H0V-0.000244141Z" fill="#FFFF00"/>
<path fill-rule="evenodd" clip-rule="evenodd" d="M0 9.99976H60.0625V19.9998H0V9.99976Z" fill="white"/>
<path fill-rule="evenodd" clip-rule="evenodd" d="M0 19.9998H60.0625V29.9998H0V19.9998Z" fill="#BE0027"/>
<path fill-rule="evenodd" clip-rule="evenodd" d="M0 29.9998H60.0625V39.9998H0V29.9998Z" fill="#3B5AA3"/>
<path fill-rule="evenodd" clip-rule="evenodd" d="M0 -0.000244141V39.9998L29.8359 20.0544L0 -0.000244141Z" fill="#239E46"/>
<path fill-rule="evenodd" clip-rule="evenodd" d="M12.2813 11.0466C5.64066 10.7107 2.6016 16.0076 2.60941 20.1013C2.59379 24.9451 7.18754 28.9294 11.4219 28.6951C9.14066 27.6169 6.34379 24.5779 6.32816 20.0779C6.30473 16.0076 8.63285 12.4607 12.2891 11.0466H12.2813Z" fill="white"/>
<path fill-rule="evenodd" clip-rule="evenodd" d="M12.1875 15.3904L11.25 14.6638L10.1094 15.0232L10.5156 13.8982L9.82813 12.9294L11.0156 12.9763L11.7187 12.0154L12.0547 13.1638L13.1797 13.5388L12.1953 14.2029L12.1875 15.3904ZM12.1641 19.4607L11.2266 18.7263L10.0859 19.0857L10.5 17.9685L9.80469 16.9998L11 17.0388L11.7031 16.0857L12.0312 17.2263L13.1641 17.6091L12.1719 18.2732L12.1641 19.4607ZM12.1797 23.5701L11.2422 22.8357L10.1094 23.1951L10.5156 22.0779L9.82813 21.1091L11.0156 21.1482L11.7187 20.1951L12.0547 21.3357L13.1797 21.7107L12.1953 22.3826L12.1797 23.5701ZM12.1641 27.7107L11.2266 26.9841L10.0781 27.3435L10.4922 26.2185L9.79688 25.2498L10.9922 25.2966L11.6953 24.3357L12.0234 25.4841L13.1562 25.8591L12.1641 26.5232V27.7107Z" fill="white"/>
</g>
</g>
<defs>
<clipPath id="clip0_769_19187">
<path d="M0 20C0 8.95431 8.95431 0 20 0C31.0457 0 40 8.95431 40 20C40 31.0457 31.0457 40 20 40C8.95431 40 0 31.0457 0 20Z" fill="white"/>
</clipPath>
<clipPath id="clip1_769_19187">
<rect width="53.3333" height="40" fill="white" transform="translate(0 -0.000244141)"/>
</clipPath>
</defs>
</svg>
