<svg width="340" height="208" viewBox="0 0 340 208" fill="none" xmlns="http://www.w3.org/2000/svg">
<rect width="340" height="204" transform="translate(0 4)" fill="#F8F9FB"/>
<path d="M169.552 69.514L163.538 77.5484L162.544 76.6695L168.527 68.6045L169.552 69.514Z" fill="#F8AD07"/>
<path d="M168.884 77.9273L169.395 79.0582L162.414 81.6721L161.889 80.5215L168.884 77.9273Z" fill="#F8AD07"/>
<path d="M159.257 77.1811L159.36 71.341L160.617 71.7299L160.599 77.6085L159.257 77.1811Z" fill="#F8AD07"/>
<rect y="192" width="340" height="16" fill="#F9D2C3"/>
<path d="M222.62 10.7638C220.116 10.7638 217.613 11.0714 215.209 11.7889C214.708 5.22814 209.401 0 202.791 0C198.185 0 194.179 2.56281 191.976 6.35578C189.472 5.53568 186.869 5.02312 184.165 5.02312C179.558 5.02312 175.252 6.35578 171.647 8.61105C169.544 8.09849 167.24 7.79095 165.037 7.79095C153.821 7.79095 144.107 14.1467 139 23.4754H160.731H191.075H196.182H199.286H207.799H209.701H246.254C241.046 15.8894 232.434 10.7638 222.62 10.7638Z" fill="#F8BFCD"/>
<path d="M146.639 90.6082C146.975 90.1898 147.152 89.7256 147.29 89.2499C147.388 88.7628 147.723 88.3444 148.183 88.0908C148.745 87.7807 149.262 87.3289 149.626 86.6612C150.367 85.2862 150.09 83.5738 148.989 82.4823C147.443 81.004 145.063 81.2179 143.772 82.8633C143.436 83.2817 143.259 83.7459 143.121 84.2216C143.012 84.7483 142.676 85.1667 142.228 85.3807C141.82 85.6062 141.428 85.9224 141.092 86.3408C140.62 86.9345 140.414 87.648 140.389 88.328C140.365 88.7077 140.182 89.0415 139.865 89.2503C139.535 89.4987 139.223 89.8378 138.978 90.2394C138.47 91.2524 138.613 92.5394 139.352 93.3974C140.593 94.7444 142.65 94.6089 143.691 93.2348C143.89 92.9917 143.998 92.7653 144.079 92.4878C144.221 92.1425 144.483 91.8316 144.857 91.725C145.532 91.6194 146.167 91.2019 146.639 90.6082Z" fill="#E4003A"/>
<path d="M179.104 111.823C179.104 111.823 180.753 110.916 182.114 110.957C182.65 110.957 183.227 111.122 183.639 111.535L184.959 112.814C185.041 112.896 185 113.061 184.876 113.02L182.815 112.607C182.609 112.566 182.402 112.649 182.279 112.855C181.99 113.268 181.537 113.515 181.083 113.515L179.351 113.763L179.104 111.823Z" fill="#F8BFCD"/>
<path d="M179.31 113.763L162.076 120.406L152.634 105.139L158.984 101.219L166.405 113.185L179.145 111.782L179.31 113.763Z" fill="#F8BFCD"/>
<path d="M140.595 134.601L143.275 160.803L122.618 179.288L124.845 179.825L147.851 162.866C148.676 162.247 149.171 161.298 149.212 160.266L149.789 141.78H151.438L155.149 163.98L146.463 193.326L149 193.5L160.592 163.98V134.559H140.595V134.601Z" fill="#F8BFCD"/>
<path d="M140.595 134.601L143.275 160.803C143.275 160.803 144.5 162.5 145.775 162.803C147.05 163.105 147.769 162.907 147.769 162.907C148.594 162.288 149.088 161.339 149.13 160.307L149.707 141.822H151.356L155.067 164.021H160.509V134.601H140.595Z" fill="#303642"/>
<path d="M163.022 134.182L137.5 140L141.708 103.076C141.956 99.6922 144.718 97.0926 148.099 97.0926H153.582C156.469 97.0926 158.901 99.3208 159.066 102.25L163.022 134.182Z" fill="#F8AD07"/>
<path d="M130.61 131.821L125.812 112.626C125.331 110.686 126.242 108.6 128.067 107.722L143 99.4999L147 107.5L132.502 113.239L132.466 131.322L130.61 131.821Z" fill="#F8BFCD"/>
<path d="M153.088 89.0463H149.83L147.48 97.1338C147.439 97.2576 147.48 97.4227 147.604 97.4639L152.016 100.146C152.51 100.435 153.129 100.187 153.253 99.6509L153.789 97.4639C153.789 97.4227 153.789 97.3401 153.789 97.2989L153.088 89.0463Z" fill="#F8BFCD"/>
<path d="M151.892 93.3376L149.666 93.0075C148.676 92.8837 147.975 91.9347 148.14 90.9444L149.047 84.3835L156.304 85.4151L155.603 90.573C155.314 92.3473 153.665 93.5852 151.892 93.3376Z" fill="#F8BFCD"/>
<path d="M147.563 88.84C149.624 88.84 151.315 87.1482 151.315 85.0851V82.2792H150.696C148.965 82.2792 147.563 83.6821 147.563 85.4152V88.84Z" fill="#E4003A"/>
<path d="M156.757 85.8691H153.005C151.768 85.8691 150.82 84.7137 151.067 83.5171L151.315 82.3204H153.211C155.149 82.3204 156.757 83.8884 156.757 85.8691Z" fill="#E4003A"/>
<path d="M149.583 88.3861C149.542 88.7574 149.171 89.005 148.8 88.9638C148.429 88.9225 148.181 88.5511 148.222 88.1798C148.264 87.8084 148.635 87.5608 149.006 87.6021C149.377 87.6433 149.624 88.0147 149.583 88.3861Z" fill="#F8BFCD"/>
<path d="M132.475 131.308C132.475 131.308 133.548 132.87 133.654 134.218C133.703 134.766 133.624 135.339 133.23 135.786L132.072 137.254C132.02 137.331 131.857 137.309 131.833 137.18L132.039 135.083C132.067 134.878 131.932 134.652 131.739 134.542C131.272 134.312 130.996 133.9 130.982 133.398L130.549 131.714L132.475 131.308Z" fill="#F8BFCD"/>
<path d="M128.279 184.414L126.242 183.037L124.558 181.047L125.63 179.463L127.116 181.745L128.871 183.539L128.279 184.414Z" fill="#870B58"/>
<path d="M123.527 181.201L122 180.168L123.466 178L125.63 179.463L124.558 181.047L123.527 181.201Z" fill="#870B58"/>
<path d="M153.415 196.22L151.15 196.067L148.881 195.262L149 193.5L151.247 194.63L153.48 195.246L153.415 196.22Z" fill="#870B58"/>
<path d="M148.093 195.833L146.301 195.712L146.464 193.301L149.003 193.472L148.884 195.234L148.093 195.833Z" fill="#870B58"/>
<path d="M123.5 122.159C121.167 120.826 115.2 118.359 110 119.159C103.5 120.159 98 121.159 95 120.159C92 119.159 92.5 115.159 95 116.159C97.9362 117.333 92.5 126.159 88 123.659" stroke="#F8AD07" stroke-width="0.5" stroke-linecap="round" stroke-dasharray="2 2"/>
<path d="M281.9 138.8H215V145.8H281.9V138.8Z" fill="#870B58"/>
<path d="M281.9 149.4H215V156.4H281.9V149.4Z" fill="#870B58"/>
<path d="M281.9 163.4H215V166.9H281.9V163.4Z" fill="#870B58"/>
<path d="M307.8 193.6H295.7V195.1H307.8V193.6Z" fill="#870B58"/>
<path d="M217.7 137H215V195.1H217.7V137Z" fill="#870B58"/>
<path d="M281.9 137H279.2V195.1H281.9V137Z" fill="#870B58"/>
<path d="M302.8 174.2H300.5V195H302.8V174.2Z" fill="#870B58"/>
<path d="M308.3 185.5H295.1L293.3 167.9H310.2L308.3 185.5Z" fill="#F8AD07"/>
<path d="M71.5326 70.0253C72.8838 64.1217 73.6044 57.5824 73.6044 50.7706C73.6945 22.706 61.0835 0 45.5 0C29.9164 0 17.3055 22.706 17.3055 50.7706C17.3055 57.5824 18.0261 64.1217 19.3773 70.0253C14.1527 76.1105 11 84.103 11 92.8221C11 111.986 26.4034 127.608 45.5 127.608C64.5065 127.608 80 112.077 80 92.8221C80 84.103 76.8473 76.1105 71.5326 70.0253Z" fill="#870B58"/>
<path d="M46.671 96.4551H42.1671V194H46.671V96.4551Z" fill="#E1C2D5"/>
<path d="M58.4085 104.878L43.6951 119.714L45.2874 121.319L60.0008 106.484L58.4085 104.878Z" fill="#E1C2D5"/>
<path d="M164.243 113.671L163.948 111.51C163.933 111.382 164.02 111.283 164.125 111.255L164.45 111.205C164.578 111.189 164.676 111.276 164.705 111.381L164.999 113.543C165.014 113.671 164.928 113.769 164.822 113.798L164.497 113.848C164.356 113.885 164.258 113.799 164.243 113.671Z" fill="#555D71"/>
<path d="M164.142 112.87C163.853 112.703 163.759 112.351 163.926 112.061C164.094 111.772 164.445 111.677 164.734 111.844C165.023 112.011 165.117 112.363 164.95 112.652C164.783 112.942 164.431 113.037 164.142 112.87Z" fill="#555D71"/>
<path d="M164.219 112.736C163.997 112.607 163.944 112.339 164.06 112.138C164.188 111.915 164.457 111.862 164.657 111.978C164.879 112.106 164.932 112.374 164.816 112.575C164.71 112.811 164.442 112.864 164.219 112.736Z" fill="white"/>
</svg>
