<svg width="340" height="208" viewBox="0 0 340 208" fill="none" xmlns="http://www.w3.org/2000/svg">
<rect width="340" height="204" transform="translate(0 4)" fill="#F8F9FB"/>
<path d="M249.76 44.1779C246.455 44.1779 243.351 44.8955 240.446 46.2281C238.644 43.1528 235.339 41 231.534 41C225.826 41 221.219 45.7156 221.219 51.5588C221.219 51.6613 221.219 51.7638 221.219 51.8663C220.418 51.6613 219.516 51.5588 218.615 51.5588C214.109 51.5588 210.203 54.0191 208 57.7095H223.222H229.23H239.846H270.189C266.784 49.7136 258.873 44.1779 249.76 44.1779Z" fill="#F3A687"/>
<path d="M92.2095 175.457L90.1841 174.523L88.498 172.891L89.3098 171.138L90.8747 173.053L92.6699 174.477L92.2095 175.457Z" fill="#E4003A"/>
<path d="M87.6092 173.274L86.0719 172.571L87.223 170.119L89.3096 171.139L88.4978 172.891L87.6092 173.274Z" fill="#E4003A"/>
<rect y="192" width="340" height="16" fill="#FDEAC1"/>
<path d="M309.533 70.0253C310.884 64.1217 311.604 57.5824 311.604 50.7706C311.695 22.706 299.084 0 283.5 0C267.916 0 255.305 22.706 255.305 50.7706C255.305 57.5824 256.026 64.1217 257.377 70.0253C252.153 76.1105 249 84.103 249 92.8221C249 111.986 264.403 127.608 283.5 127.608C302.507 127.608 318 112.077 318 92.8221C318 84.103 314.847 76.1105 309.533 70.0253Z" fill="#870B58"/>
<path d="M284.671 96.4551H280.167V194H284.671V96.4551Z" fill="#E1C2D5"/>
<path d="M296.408 104.878L281.695 119.714L283.287 121.319L298.001 106.484L296.408 104.878Z" fill="#E1C2D5"/>
<path d="M90.8864 134.493L110.584 145.399L89.3864 170.366L87.0456 169.984L100.885 145.928L80.9754 137.701L90.8864 134.493Z" fill="#F9D2C3"/>
<path d="M90.403 174.302C90.403 185.441 81.263 194.5 69.9515 194.5C58.64 194.5 49.5 185.441 49.5 174.302C49.5 163.163 58.64 154.104 69.9515 154.104C81.263 154.104 90.403 163.163 90.403 174.302Z" stroke="#303642" stroke-width="3"/>
<path d="M157.5 174.302C157.5 185.441 148.36 194.5 137.048 194.5C125.737 194.5 116.597 185.441 116.597 174.302C116.597 163.163 125.737 154.104 137.048 154.104C148.36 154.104 157.5 163.163 157.5 174.302Z" stroke="#303642" stroke-width="3"/>
<path d="M97.7015 173.893L125.037 144.416H86.1045L70.3657 173.893H97.7015ZM97.7015 173.893L81.1344 135.819M90.2463 135.819H81.1344M77.4068 135.819H81.1344" stroke="#F8AD07" stroke-width="3" stroke-linecap="round" stroke-linejoin="round"/>
<path d="M137.463 174.302L120.481 129H130.795" stroke="#F8AD07" stroke-width="3" stroke-linecap="round" stroke-linejoin="round"/>
<path d="M81.5574 125.428L94.6495 132.197L109.781 142.532C111.079 143.307 112.038 144.595 112.479 146.014L114.093 179.192L111.744 179.386L105.66 149.283L83.9047 139.444C79.6927 137.794 77.8209 132.868 79.8957 128.787L81.5574 125.428Z" fill="#F9D2C3"/>
<path d="M118.852 181.12L116.597 181.269L114.245 180.808L114.072 178.852L116.466 179.643L118.781 179.989L118.852 181.12Z" fill="#E4003A"/>
<path d="M113.572 181.596L111.881 181.708L111.723 179.046L114.072 178.852L114.244 180.808L113.572 181.596Z" fill="#E4003A"/>
<path d="M123.809 124.522L126.266 124.969C126.912 125.075 127.481 125.463 127.839 126.017L128.953 127.739C129.019 127.842 128.903 127.975 128.789 127.932L126.548 126.88C126.307 126.775 126.037 126.804 125.846 126.956C125.384 127.314 124.783 127.412 124.239 127.24L123.352 126.941L123.809 124.522Z" fill="#F8BFCD"/>
<path d="M112.607 105.026L115.605 119.197L125.189 124.863L124.105 126.932L112.465 123.077L108.51 108.55L112.607 105.026Z" fill="#BF0031"/>
<path d="M109.922 96.2589L106.537 95.518C105.882 95.3718 105.477 94.7246 105.628 94.1055L107.038 87.6553L113.667 89.1352L112.464 94.6878C112.217 95.7891 111.083 96.516 109.922 96.2589Z" fill="#F9D2C3"/>
<path d="M80.7398 126.934L97.7854 134.924L112.392 112.352C114.93 108.359 113.343 103.057 109.047 101.045L99.7179 96.6826C95.0638 94.5077 89.6544 97.2496 88.6935 102.268L86.1066 115.767L80.7398 126.934Z" fill="#E4003A"/>
<path d="M107.501 100.295L104.52 107.716L102.468 97.9441L105.247 99.2521L107.501 100.295Z" fill="white"/>
<path d="M106.551 93.1631L109.744 93.8431L107.502 100.295L105.469 100.897L102.468 97.9441L106.551 93.1631Z" fill="#F9D2C3"/>
<path d="M120.472 123.192L122.247 124.568C122.711 124.918 122.998 125.496 123.041 126.135L123.195 128.133C123.204 128.26 123.044 128.344 122.987 128.228L121.638 126.388C121.489 126.198 121.265 126.113 121.043 126.179C120.53 126.318 120.006 126.179 119.645 125.781L119.051 125.172L120.472 123.192Z" fill="#F8BFCD"/>
<path d="M96.2918 100.263L103.763 115.627L120.472 123.192L119.072 125.177L99.3278 119.162L90.226 103.263L96.2918 100.263Z" fill="#E4003A"/>
<path d="M115.894 86.6689L108.254 85.965C106.673 85.8119 105.671 86.4975 105.378 87.7695L104.684 90.7821C104.514 91.5185 104.976 92.2595 105.71 92.4288L107.111 92.752L107.806 89.7394C107.976 89.003 108.649 88.5236 109.383 88.6928L114.055 89.77L115.894 86.6689Z" fill="#F8AD07"/>
<path d="M106.062 90.6609C105.887 91.1539 106.122 91.7921 106.695 91.9952C107.187 92.1693 107.824 91.9326 108.028 91.3574C108.231 90.7822 107.967 90.2262 107.394 90.0231C106.821 89.8199 106.236 90.1678 106.062 90.6609Z" fill="#F8BFCD"/>
<path d="M98.0001 134.5L81.5886 125.181L79.8557 128.504C77.6944 132.54 79.4608 137.505 83.6366 139.244L105.177 149.545L112.5 146C112.09 144.572 111.281 143.303 110 142.5L98.0001 134.5Z" fill="#303642"/>
<path d="M78.7655 82.514L84.7797 90.5484L85.7734 89.6695L79.7902 81.6045L78.7655 82.514Z" fill="#F8AD07"/>
<path d="M79.4338 90.9273L78.9223 92.0582L85.9036 94.6721L86.4279 93.5215L79.4338 90.9273Z" fill="#F8AD07"/>
<path d="M89.0609 90.1811L88.9572 84.341L87.7007 84.7299L87.7184 90.6085L89.0609 90.1811Z" fill="#F8AD07"/>
<path d="M258.791 161H257.209V175.238H258.791V161Z" fill="#F17F9C"/>
<path d="M264.507 193.94H251.493V169.265C251.493 165.706 254.412 162.81 258 162.81C261.588 162.81 264.507 165.706 264.507 169.265V193.94Z" fill="#E4003A"/>
<path d="M265.054 171.196H250.946C250.095 171.196 249.426 170.532 249.426 169.687C249.426 168.843 250.095 168.179 250.946 168.179H265.054C265.906 168.179 266.574 168.843 266.574 169.687C266.635 170.532 265.906 171.196 265.054 171.196Z" fill="#F17F9C"/>
<path d="M266.574 191.285H249.365V193.94H266.574V191.285Z" fill="#F17F9C"/>
<path d="M267 181.995L258 184.287L249 181.995V178.314L258 176.022L267 178.314V181.995Z" fill="#E4003A"/>
<path d="M261.527 180.185C261.527 182.115 259.946 183.684 258 183.684C256.054 183.684 254.473 182.115 254.473 180.185C254.473 178.254 256.054 176.686 258 176.686C259.946 176.625 261.527 178.194 261.527 180.185Z" fill="#F17F9C"/>
<path d="M94.6198 10.7638C92.1162 10.7638 89.6126 11.0714 87.2092 11.7889C86.7085 5.22814 81.4009 0 74.7914 0C70.1848 0 66.179 2.56281 63.9759 6.35578C61.4723 5.53568 58.8686 5.02312 56.1647 5.02312C51.5581 5.02312 47.2519 6.35578 43.6468 8.61105C41.5438 8.09849 39.2405 7.79095 37.0373 7.79095C25.8212 7.79095 16.1073 14.1467 11 23.4754H32.7311H63.0746H68.1819H71.2864H79.7986H81.7013H118.254C113.046 15.8894 104.434 10.7638 94.6198 10.7638Z" fill="#F8BFCD"/>
</svg>
