<svg width="40" height="40" viewBox="0 0 40 40" fill="none" xmlns="http://www.w3.org/2000/svg">
<g clip-path="url(#clip0_769_8597)">
<path d="M0 20C0 8.95431 8.95431 0 20 0C31.0457 0 40 8.95431 40 20C40 31.0457 31.0457 40 20 40C8.95431 40 0 31.0457 0 20Z" fill="#E94E0F"/>
<g clip-path="url(#clip1_769_8597)">
<path d="M-7 0H46.3333V40H-7V0Z" fill="#000066"/>
<path fill-rule="evenodd" clip-rule="evenodd" d="M32.3 17.75L32.7334 16.3583L31.5667 15.475L33.0334 15.4583L33.5334 14.0833L34 15.4583L35.475 15.5L34.3 16.375L34.7167 17.7667L33.5084 16.9333L32.3 17.75ZM35.7667 18.0167L36.6334 16.8583L35.825 15.625L37.2167 16.1083L38.1334 14.9833V16.45L39.5 16.9833L38.1 17.4L38.0334 18.8583L37.1834 17.6583L35.7667 18.0167ZM28.9834 18.9083L28.925 17.45L27.525 17.0167L28.9167 16.5V15.05L29.825 16.175L31.225 15.7083L30.4084 16.9333L31.2667 18.1L29.85 17.725L28.9834 18.9083ZM26.55 21.1333L25.9334 19.8167L24.4834 19.9667L25.55 18.9417L25 17.5833L26.2667 18.2667L27.375 17.2833L27.0917 18.7333L28.3334 19.475L26.8917 19.6833L26.55 21.1333ZM25.4167 24.3167L24.3084 23.3917L23.0584 24.1583L23.5917 22.7667L22.5167 21.8L23.9584 21.8583L24.5417 20.4917L24.9 21.925L26.3334 22.05L25.1167 22.8667L25.4167 24.3167ZM25.3834 27.9L24.0084 27.5L23.1667 28.7083L23.1084 27.2167L21.7417 26.7583L23.0834 26.2417V24.7417L23.975 25.9167L25.3417 25.45L24.5417 26.7L25.3834 27.9ZM27 30.9333L25.5834 31.1333L25.2917 32.5833L24.6417 31.25L23.2167 31.3833L24.2334 30.3583L23.6417 28.9917L24.9167 29.7L25.9834 28.7167L25.75 30.1667L27 30.9333ZM29.5 33.3333L28.2417 34.0167L28.4584 35.4833L27.4 34.45L26.1 35.0833L26.7084 33.7583L25.6834 32.6833L27.125 32.9L27.7917 31.6083L28.075 33.0583L29.5 33.3333ZM32.5584 33.8083L31.8667 35.0833L32.8417 36.1833L31.3917 35.9083L30.65 37.1583L30.45 35.7167L29.0167 35.3833L30.3334 34.7667L30.1917 33.3083L31.2084 34.375L32.5584 33.8083ZM35.9917 33.2833L35.95 34.7333L37.3084 35.2667L35.8917 35.6833L35.7917 37.1417L34.9584 35.95L33.5417 36.3167L34.4417 35.1583L33.6584 33.9333L35.0417 34.4083L35.9917 33.2833ZM39.5834 17.4833L40.5834 18.5333L41.9084 17.9167L41.2167 19.2333L42.175 20.325L40.7584 20.0917L40.0084 21.3833L39.8334 19.9167L38.4167 19.625L39.725 18.9583L39.5834 17.4833ZM42.575 20.7083L43.0334 22.0917L44.4917 22.1167L43.3084 23.0083L43.7 24.4083L42.525 23.575L41.3084 24.4167L41.7584 23.0167L40.6084 22.1333L42.075 22.1L42.575 20.7083ZM43.7 24.8667L43.5334 26.3167L44.8417 26.9583L43.4 27.2583L43.175 28.7L42.45 27.4417L41 27.6833L42 26.6L41.325 25.3083L42.6584 25.9083L43.7 24.8667ZM42.9084 29.225L42.2584 30.525L43.25 31.5833L41.8 31.3583L41.1 32.6333L40.85 31.1917L39.4 30.9167L40.7 30.25L40.5084 28.8L41.5584 29.825L42.9084 29.225ZM40.7417 33.0833L39.5167 33.85L39.8334 35.2917L38.7084 34.3333L37.4584 35.05L37.9834 33.6917L36.8917 32.6833L38.3417 32.8083L38.925 31.475L39.2917 32.9083" fill="white"/>
<path d="M-7 0H19.6667V20H-7V0Z" fill="#000066"/>
<path d="M-3.875 0L6.29167 7.54167L16.4167 0H19.6667V2.58333L9.66667 10.0417L19.6667 17.4583V20H16.3333L6.33333 12.5417L-3.625 20H-7V17.5L2.95833 10.0833L-7 2.66667V0H-3.875Z" fill="white"/>
<path d="M10.6667 11.7083L19.6667 18.3333V20L8.375 11.7083H10.6667ZM3 12.5417L3.25 14L-4.75 20H-7L3 12.5417ZM19.6667 0V0.125L9.29167 7.95833L9.375 6.125L17.5833 0H19.6667ZM-7 0L2.95833 7.33333H0.458333L-7 1.75V0Z" fill="#C8102E"/>
<path d="M3.04167 0V20H9.70833V0H3.04167ZM-7 6.66667V13.3333H19.6667V6.66667H-7Z" fill="white"/>
<path d="M-7 8.04167V12.0417H19.6667V8.04167H-7ZM4.375 0V20H8.375V0H4.375Z" fill="#C8102E"/>
</g>
</g>
<defs>
<clipPath id="clip0_769_8597">
<path d="M0 20C0 8.95431 8.95431 0 20 0C31.0457 0 40 8.95431 40 20C40 31.0457 31.0457 40 20 40C8.95431 40 0 31.0457 0 20Z" fill="white"/>
</clipPath>
<clipPath id="clip1_769_8597">
<rect width="53.3333" height="40" fill="white" transform="translate(-7)"/>
</clipPath>
</defs>
</svg>
