<svg width="40" height="40" viewBox="0 0 40 40" fill="none" xmlns="http://www.w3.org/2000/svg">
<g clip-path="url(#clip0_769_8588)">
<path d="M0 20C0 8.95431 8.95431 0 20 0V0C31.0457 0 40 8.95431 40 20V20C40 31.0457 31.0457 40 20 40V40C8.95431 40 0 31.0457 0 20V20Z" fill="#E94E0F"/>
<g clip-path="url(#clip1_769_8588)">
<path fill-rule="evenodd" clip-rule="evenodd" d="M28.5667 0H46.3333V40H28.5667V0Z" fill="#00CD00"/>
<path fill-rule="evenodd" clip-rule="evenodd" d="M-7 0H10.7417V40H-7V0Z" fill="#FF9A00"/>
<path fill-rule="evenodd" clip-rule="evenodd" d="M10.7417 0H28.575V40H10.7417V0Z" fill="white"/>
</g>
</g>
<defs>
<clipPath id="clip0_769_8588">
<path d="M0 20C0 8.95431 8.95431 0 20 0V0C31.0457 0 40 8.95431 40 20V20C40 31.0457 31.0457 40 20 40V40C8.95431 40 0 31.0457 0 20V20Z" fill="white"/>
</clipPath>
<clipPath id="clip1_769_8588">
<rect width="53.3333" height="40" fill="white" transform="translate(-7)"/>
</clipPath>
</defs>
</svg>
