<svg width="40" height="41" viewBox="0 0 40 41" fill="none" xmlns="http://www.w3.org/2000/svg">
<g clip-path="url(#clip0_769_8687)">
<path d="M0 20.75C0 9.70431 8.95431 0.75 20 0.75V0.75C31.0457 0.75 40 9.70431 40 20.75V20.75C40 31.7957 31.0457 40.75 20 40.75V40.75C8.95431 40.75 0 31.7957 0 20.75V20.75Z" fill="#E94E0F"/>
<g clip-path="url(#clip1_769_8687)">
<path d="M0 0.75H60.16V40.8567H0V0.75Z" fill="#002B7F"/>
<path d="M0 25.8167H60.16V30.83H0V25.8167Z" fill="#F9E814"/>
<path d="M6.68499 4.09248L7.35349 6.43222H10.0275L7.68774 7.43497L8.35623 9.77471L6.68499 8.77196L4.6795 10.109L5.348 7.76922L3.67676 6.43222H6.0165L6.68499 4.09248Z" fill="white"/>
<path d="M13.3716 9.66433L14.263 12.7843H17.8287L14.7087 14.1215L15.6001 17.2415L13.3716 15.9044L10.6973 17.6872L11.5887 14.5672L9.36011 12.7843H12.4801L13.3716 9.66433Z" fill="white"/>
</g>
</g>
<defs>
<clipPath id="clip0_769_8687">
<path d="M0 20.75C0 9.70431 8.95431 0.75 20 0.75V0.75C31.0457 0.75 40 9.70431 40 20.75V20.75C40 31.7957 31.0457 40.75 20 40.75V40.75C8.95431 40.75 0 31.7957 0 20.75V20.75Z" fill="white"/>
</clipPath>
<clipPath id="clip1_769_8687">
<rect width="53.3333" height="40" fill="white" transform="translate(0 0.75)"/>
</clipPath>
</defs>
</svg>
