<svg width="40" height="40" viewBox="0 0 40 40" fill="none" xmlns="http://www.w3.org/2000/svg">
<g clip-path="url(#clip0_769_8712)">
<path d="M0 20C0 8.95431 8.95431 0 20 0C31.0457 0 40 8.95431 40 20C40 31.0457 31.0457 40 20 40C8.95431 40 0 31.0457 0 20Z" fill="#E94E0F"/>
<g clip-path="url(#clip1_769_8712)">
<path d="M0 0H53.3333V40H0V0Z" fill="white"/>
<path d="M25.6501 33.2167C25.6436 33.2121 25.6379 33.2065 25.6334 33.2H25.6251L25.5168 33.0833L25.2001 32.7083L24.7917 32.1833L24.7417 32.1083L24.2251 31.95L23.8418 31.775L24.0417 31.55L24.7417 31.8417L25.2584 31.95L26.2168 32.6583L25.9417 32.9C25.8439 32.9912 25.752 33.0886 25.6667 33.1917L25.7251 33.15L25.7917 33.2L25.6584 33.2167H25.6501ZM22.1001 32.15C21.6302 32.1458 21.1699 32.0164 20.7668 31.775C20.7668 31.775 20.8251 31.6667 20.9584 31.575C21.0918 31.475 21.3251 31.3667 21.7084 31.3583C22.1584 31.3583 22.7084 31.5167 23.3334 31.8083C22.96 32.0288 22.5338 32.144 22.1001 32.1417V32.15ZM20.1417 31.7167C20.0584 31.7167 19.9751 31.6833 19.9251 31.6333C19.8778 31.5757 19.8463 31.5068 19.8334 31.4333C19.8113 31.3406 19.8029 31.2452 19.8084 31.15C19.8432 31.1376 19.8799 31.132 19.9167 31.1333C20.0834 31.1333 20.2168 31.275 20.2751 31.4167C20.3084 31.5 20.3168 31.5667 20.2917 31.625C20.2751 31.675 20.2084 31.7083 20.1417 31.7083V31.7167ZM23.5834 31.3167C22.4251 31.15 21.9334 30.7333 21.7251 30.4083C21.5084 30.0667 21.5584 29.7417 21.5584 29.7417C21.5584 29.7417 21.6251 29.725 21.7251 29.725C22.0418 29.725 22.8251 29.8833 23.5834 31.3083V31.3167ZM21.2084 31.0833C20.7168 31.0833 20.3418 31 20.0918 30.8333C19.9849 30.7662 19.8984 30.6711 19.8418 30.5583C19.8239 30.5159 19.8126 30.4709 19.8084 30.425C19.9984 30.3458 20.2026 30.3061 20.4084 30.3083C20.7058 30.319 20.9982 30.3886 21.2686 30.513C21.5389 30.6375 21.7819 30.8143 21.9834 31.0333C21.7001 31.0667 21.4418 31.0833 21.2084 31.0833ZM18.8168 31C18.3001 31 17.5834 30.8333 17.1334 30.3917C17.1334 30.3917 17.6251 30.2667 18.1667 30.25H18.2667C18.7584 30.25 19.1334 30.3417 19.3834 30.5333C19.4668 30.6 19.5168 30.6583 19.5251 30.7167C19.5334 30.7667 19.5084 30.8167 19.4584 30.8583C19.3418 30.9417 19.1418 30.9917 18.8584 30.9917H18.8168V31ZM17.1251 30.125C17.0929 30.1244 17.0612 30.1166 17.0323 30.1022C17.0035 30.0877 16.9782 30.0671 16.9584 30.0417C16.9236 29.992 16.9008 29.935 16.8917 29.875C16.8667 29.7583 16.8751 29.6417 16.8751 29.6333C16.9013 29.6219 16.9298 29.6162 16.9584 29.6167C17.0334 29.6167 17.0918 29.6583 17.1251 29.7C17.1758 29.7463 17.2156 29.8032 17.2417 29.8667C17.2584 29.9417 17.2667 30 17.2417 30.05C17.2417 30.0833 17.1918 30.1333 17.1334 30.1333L17.1251 30.125ZM21.0334 30.0417C20.9501 30.0417 20.8668 30.0083 20.8168 29.9583C20.7695 29.9007 20.7379 29.8318 20.7251 29.7583C20.7029 29.6656 20.6945 29.5702 20.7001 29.475C20.7348 29.4626 20.7716 29.457 20.8084 29.4583C20.9751 29.4583 21.1167 29.6 21.1667 29.7417C21.2001 29.825 21.2084 29.8917 21.1918 29.95C21.1668 30 21.1084 30.0333 21.0251 30.0333L21.0334 30.0417ZM19.1334 29.9583C18.0834 29.925 17.5334 29.625 17.2667 29.375C17.1505 29.2745 17.0544 29.1529 16.9834 29.0167C16.9418 28.9333 16.9251 28.8667 16.9251 28.85C16.9251 28.8333 17.0251 28.8167 17.1751 28.8167H17.2084C17.5584 28.8167 18.2834 28.9667 19.1251 29.9583H19.1334ZM20.2667 29.8583C19.667 29.7931 19.1094 29.5187 18.6918 29.0833C18.538 28.9151 18.4216 28.7163 18.3501 28.5C18.3501 28.5 18.4501 28.475 18.6001 28.4667C18.6279 28.4657 18.6556 28.4657 18.6834 28.4667C19.1001 28.475 19.8751 28.6667 20.2667 29.8583ZM15.9334 29.4417C15.6672 29.4441 15.4016 29.4161 15.1417 29.3583C14.7001 29.2417 14.5084 29.075 14.4251 28.95C14.391 28.8999 14.3683 28.8431 14.3584 28.7833C14.3558 28.7612 14.3558 28.7388 14.3584 28.7167C14.3584 28.7167 14.6501 28.6333 15.0584 28.625C15.2652 28.6198 15.4719 28.6365 15.6751 28.675C16.1002 28.7646 16.4788 29.0042 16.7417 29.35C16.7417 29.35 16.4084 29.45 15.9334 29.45V29.4417ZM17.8917 28.7417C17.8532 28.7427 17.8148 28.7358 17.779 28.7215C17.7432 28.7072 17.7106 28.6857 17.6834 28.6583C17.6362 28.6007 17.6046 28.5318 17.5918 28.4583C17.5584 28.325 17.5668 28.1917 17.5668 28.175C17.5983 28.1608 17.6322 28.1523 17.6667 28.15H17.6751C17.8418 28.15 17.9751 28.3 18.0334 28.4417C18.0667 28.525 18.0668 28.5917 18.0501 28.6417C18.0251 28.7 17.9667 28.7333 17.8917 28.7333V28.7417ZM16.4251 28.5333C16.1437 28.4536 15.8746 28.3358 15.6251 28.1833C15.2584 27.9583 14.8001 27.5583 14.7501 26.9333L14.8334 26.925H14.8584C14.9668 26.925 15.1918 26.95 15.4668 27.1583C15.8168 27.425 16.1334 27.8917 16.4251 28.5333ZM17.3834 28.5C17.1536 28.3954 16.9402 28.2578 16.7501 28.0917C16.2624 27.6707 15.8824 27.1393 15.6417 26.5417C15.6417 26.5417 15.7168 26.5 15.8334 26.4917C15.839 26.4915 15.8445 26.4915 15.8501 26.4917H15.8834C16.0501 26.4917 16.2917 26.5667 16.5584 26.8583C16.8751 27.1917 17.1501 27.7417 17.3917 28.5H17.3834ZM14.8917 28.425C14.5667 28.425 14.4584 28.2583 14.4251 28.175C14.3928 28.0959 14.3813 28.0098 14.3917 27.925C14.4465 27.9129 14.5024 27.9073 14.5584 27.9083C14.6619 27.9051 14.7648 27.926 14.8588 27.9694C14.9528 28.0128 15.0354 28.0775 15.1001 28.1583C15.1167 28.1917 15.1667 28.275 15.1251 28.35C15.0917 28.4 15.0167 28.4333 14.8917 28.4333V28.425ZM14.1834 27.525C13.9322 27.5277 13.6812 27.5082 13.4334 27.4667C13.1501 27.4167 12.9918 27.175 12.9001 26.975C12.8168 26.7667 12.7834 26.5583 12.7834 26.5583C13.6667 26.5833 14.0917 26.8417 14.2834 27.0583C14.4044 27.1829 14.4807 27.3441 14.5001 27.5167C14.5001 27.5167 14.3667 27.5333 14.1834 27.5333V27.525ZM15.1001 26.6083C15.0289 26.5172 14.9621 26.4226 14.9001 26.325C14.7918 26.1583 14.7001 25.9917 14.7001 25.8583C14.7001 25.7167 14.6668 25.4417 14.6501 25.275L14.6001 24.9C14.6251 24.9 15.1501 25.1 15.1501 25.6C15.1501 26.1 15.1001 26.6 15.1001 26.6V26.6083ZM14.4167 26.5583H14.4001C13.8284 26.3871 13.3076 26.0781 12.8834 25.6583C12.7418 25.4917 12.6501 25.225 12.6251 24.875C12.6084 24.625 12.6251 24.4167 12.6251 24.3917C12.655 24.3838 12.6859 24.3809 12.7168 24.3833C12.8334 24.3833 12.9668 24.4333 13.1334 24.55C13.2881 24.6595 13.4331 24.7822 13.5668 24.9167C13.8334 25.1833 14.0417 25.45 14.0417 25.45C14.0667 25.4833 14.2084 25.7583 14.3334 26.025C14.3919 26.1474 14.4366 26.276 14.4668 26.4083C14.4751 26.4583 14.4834 26.4917 14.4668 26.525C14.4628 26.5388 14.4539 26.5507 14.4418 26.5583C14.4308 26.5608 14.4194 26.5608 14.4084 26.5583H14.4167Z" fill="#435125"/>
<path d="M43.2501 6.36667L43.1001 6.425L43.0334 6.45L42.8501 6.44167L42.6667 6.525L42.3501 6.74167L42.3417 6.75L42.2167 6.78334L42.1084 6.73334L42.0501 6.76667L42.0251 6.89167L41.9667 6.98334L41.8917 7.03334L41.6417 7.05834L41.4334 7.175L41.1501 7.09167L41.0251 7.15L40.7501 7.4L40.6084 7.45834H40.5667L40.3751 7.45L40.3001 7.475L40.1834 7.58334L39.9667 7.6L39.8917 7.65L39.7834 7.86667L39.6667 8L39.6001 8.00834L39.5334 7.98334L39.4751 7.99167L39.4501 8.13334L39.4001 8.19167L39.2501 8.24167L39.1334 8.34167L39.0251 8.39167H38.8584L38.7167 8.475L38.4584 8.49167L38.3501 8.59167L38.3251 8.61667L38.2751 8.64167L38.1917 8.69167L38.1751 8.70834L38.0751 8.69167L37.9584 8.73334L37.9084 8.66667L37.8251 8.70834L37.7251 8.71667L37.5917 8.65834L37.4834 8.60834L37.4084 8.625L37.3834 8.75V8.76667L37.3001 8.86667L37.1584 8.95834L37.1417 8.98334L36.9751 9.2L36.6584 9.53334L36.3917 9.66667L36.1167 9.75L35.9251 9.90834L35.4251 10.1583L34.6167 10.5583L34.4501 10.6083L34.2167 10.6417L33.8001 10.8L33.4334 10.9083L33.4084 10.9167L33.3417 10.9417L32.8167 11.1L32.5751 11.0667L32.4334 11.125L32.0584 11.0833H31.8001L31.6334 11.1167L31.3251 11.2667L30.8001 11.5167L30.6334 11.6833L30.3667 11.8167L30.0501 11.9167V11.7833L29.9417 11.8167L29.8584 11.8417L29.6084 11.875H29.4667L29.3751 11.85H29.3584L28.8417 12.025L28.2584 12.0833L27.9667 12.175H27.7501L27.6167 12.2167L27.3501 12.25L27.2501 12.225L27.2334 12.2167L26.4501 12.25L26.0917 12.2083L25.9251 12.25L25.6334 12.15L25.2167 12.1L25.1167 12.075L24.9001 12.0083L24.8001 12.0667L24.7167 12.075L24.5501 12.0083H24.4834L24.3334 12.0583L24.2501 12.0417L24.1667 11.975L23.9917 11.95L23.8751 11.8583L23.2501 11.9417L23.0834 11.8917L22.5084 11.725H22.4251L22.3084 11.8083L22.1417 11.875L21.9834 11.9083L21.7834 11.9167L21.5501 11.8583L21.3167 11.7417L21.2251 11.7167L21.0251 11.7417H20.9667L20.6001 11.55L20.1334 11.2583L19.8167 11.1L19.6917 11.0833L19.6751 11.1417L19.7334 11.325L19.7584 11.5167V11.6833L19.7501 11.7917L19.7751 11.8833L19.8917 12.0167L19.9417 12.1417L19.9751 12.4917V12.85L19.9167 13.4167L19.9001 13.5L19.8334 13.8L19.7751 14.075L19.5334 14.8L19.4751 14.8833L19.3084 14.9917L18.9501 15.2417L18.6834 15.3917L18.6001 15.425L18.3834 15.4417H18.2501L18.0834 15.35L17.9167 15.3083L17.7001 15.15L17.4667 15.1L17.2001 14.95L17.1334 14.8667L16.9917 14.85L16.7917 14.7917L16.7167 14.7667L16.6667 14.7583L16.4167 14.75L16.1751 14.6417L16.0501 14.6083H15.8834L15.7084 14.6917L15.6167 14.725L15.5001 14.6833H15.4167L15.3334 14.825L15.3167 14.85L15.2501 14.8833H15.1084L15.0417 14.9083L14.9501 14.95L14.8667 14.9833L14.8251 15H14.8001L14.7584 15.0167H14.7084L14.6084 14.9667L14.5584 14.9417L14.4751 14.925L14.4334 14.95L14.4251 15.1083L14.3834 15.2L14.2501 15.3167L14.1167 15.4333L14.0334 15.5667L13.7834 16.125L13.6251 16.35L13.5834 16.4083L13.4167 16.5833L13.2751 16.6917L12.9501 16.9417L12.6417 17.0667L12.3751 17.1167H12.2417L11.9917 17.0833L11.7751 17.0167L11.5251 16.8667L11.2667 16.65L10.8751 16.275L10.8251 16.2417L10.8084 16.2333L10.6917 16.15H10.6001L10.5667 16.2167L10.5417 16.3L10.5251 16.375L10.4834 16.7917V16.8167L10.5084 16.9917L10.8084 17.4083L10.8917 17.625L10.9084 17.65L10.9667 17.75L11.0167 17.8333L11.1251 18.1333L11.0501 18.3L11.0834 18.4167L11.0001 18.4833L10.9834 18.5833L11.2417 18.9167L11.3001 19.0583L11.2417 19.2583L11.1334 19.375L11.1084 19.4L11.1251 19.4833L11.2417 19.6L11.4501 19.7833L11.5584 20.05L11.6417 20.1333L11.7417 20.1083L11.7917 20.15H11.8751L11.9584 20.2333L12.0084 20.25L12.0917 20.2917L12.1584 20.375L12.1667 20.6417L12.2917 20.9583V21.1667L12.3751 21.2917L12.3917 21.3917L12.3501 21.6667L12.4501 21.75L12.5501 21.7333L12.6167 21.7417L12.7251 21.8333L12.8584 22.0333L12.9917 22.0167L13.0751 22.05L13.4667 22.4083L13.5501 22.4583L13.6251 22.4917L13.7084 22.575L13.8251 22.4917H13.8417L13.9751 22.475L14.0334 22.5167L14.1501 22.5917H14.2917L14.6251 22.6917L14.7584 22.725L15.0417 22.9L15.1667 22.975L15.2334 23.0333L15.3334 23.1167L15.5167 23.2L15.6834 23.2333L15.7667 23.25L15.8417 23.275L16.1917 23.4167L16.3834 23.4583L16.5501 23.525L16.6834 23.5667H16.7834L16.9167 23.4583H17.0417L17.1501 23.475L17.2584 23.4583L17.4251 23.3583L17.4501 23.3083L17.5667 23.2583L17.9667 23.2083L18.0834 23.2417L18.3834 23.1167L18.5834 23.1667L18.7501 23.1083L19.1417 23.1917L19.2417 23.2667L19.3584 23.3917H19.5001L19.4417 23.4833L19.6084 23.6667L19.7667 23.8917L19.7751 23.925L19.8834 24.25L19.9667 24.3667L20.0251 24.525V24.625L19.9417 24.7L19.9251 24.7333V24.75L19.9417 24.7917L19.9751 24.775L20.0334 24.7417L20.1167 24.725L20.2501 24.7417L20.3417 24.75L20.4834 24.6833L20.5834 24.6333L20.7334 24.7H20.9001L20.9751 24.725L21.1751 24.8167L21.2751 24.825L21.3084 24.8L21.3334 24.75L21.3251 24.6833L21.2417 24.5917L21.0751 24.3917L21.0084 24.2917L20.9584 24.15L20.9417 23.9667L20.9251 23.8417L20.9501 23.675L20.9917 23.6167L21.0251 23.4833L21.0334 23.45L21.1334 23.325L21.3834 23.1583L21.6501 22.925L21.8584 22.7833L22.0751 22.6917V22.6667L22.1084 22.675L22.6584 22.4833L22.9084 22.4417L24.5751 22.5583L24.6334 22.5417L24.6917 22.3833L24.7167 22.3583L24.7417 22.3417L24.9251 22.2583L25.0084 22.2417L25.2417 22.3L25.3417 22.325L25.5001 22.2417H25.6084L25.8334 22.1167H25.9751L26.0334 22.1L26.3084 21.9L26.5667 21.825L26.6334 21.7917L26.6584 21.775L26.9334 21.6333L27.1001 21.5L27.2501 21.4167L27.4167 21.3833L27.8334 21.35L27.9251 21.2083L28.1084 21.1833L28.2167 21.0583L28.3417 21.0083L28.4334 20.875L28.5167 20.7667L28.6167 20.7083L28.9584 20.6833L29.3584 20.7333L29.4167 20.7L29.5001 20.375L29.6001 20.3167L29.8501 19.9417V19.8083L29.8584 19.6917L29.9001 19.525L29.8751 19.2417L29.9084 18.9417L30.0667 18.5667L30.2084 18.4167L30.4334 18.2583L30.5501 18.2083L30.7167 18.1833H30.7334L30.7751 18.1667H31.5417L31.7334 18.1583L32.2084 18.2417H32.2417L32.4001 18.3L32.5834 18.4417L32.7834 18.6333L32.8167 18.6667L32.9417 18.725L32.9834 18.7417L33.0834 18.725L33.2334 18.6417L33.3501 18.5583L33.5001 18.475V18.4583L33.5917 18.3333L33.6251 18.275L33.9251 18.1583L34.2751 18.1417L34.3167 18.1167H34.3334L34.4251 18H34.5084L34.7251 18.0833L34.8667 18.05L34.9834 18.0917L35.0751 18.0833L35.2417 18.0583L35.4334 18.1917L35.5417 18.2083L35.9167 18.425H35.9501L35.9667 18.4333L36.0084 18.4167L36.0751 18.4H36.0834L36.0917 18.4083L36.1417 18.4667L36.2001 18.475L36.2667 18.3917L36.2417 18.3417L36.2334 18.325L36.0917 18.3L35.9751 18.0917L36.0917 17.9667L35.9084 17.75L35.8751 17.7083V17.7L35.8084 17.6L35.4917 17.1167L35.0751 16.7833L34.9334 16.675L34.8834 16.6333L34.6584 16.4083L34.5001 16.2L34.4834 16.1583L34.4501 16.0833L34.3584 15.8833L34.1917 15.7583L34.0584 15.6083L33.7751 15.225L33.7334 15.1667L33.6667 15.125H33.5251L33.5167 15.1083H33.5084V15.1L33.5751 15.0333L33.6584 15.0167L33.6834 14.9417L33.5417 14.5333V14.5167L33.5334 14.3917L33.6417 13.8L33.6584 13.725L33.8584 13.3333L33.9751 13.2333L34.1084 12.975L34.2251 12.8083L34.3334 12.7L34.3501 12.6917L34.5417 12.575L34.7084 12.55L34.8667 12.525L35.1417 12.6083H35.3917L35.4501 12.6L35.5667 12.5833L35.7584 12.525L35.8501 12.4667L35.9001 12.4L36.0001 12.0667L36.0334 11.9583L36.0917 11.8417L36.4501 11.4333L36.7167 11.1833L37.3167 10.75L37.6084 10.575L37.7584 10.4833L39.1001 9.88334L39.4501 9.53334L39.6334 9.35L39.9501 9.13334L40.3251 8.975L40.6584 8.725L40.7251 8.63334L40.8084 8.34167L40.8917 8.325L40.9501 8.18334L40.9751 8.14167L41.2334 7.95834L41.2667 7.94167L42.2917 7.425L42.4417 7.45L42.5251 7.325L42.8167 7.275H42.8751L42.9501 7.23334L43.0084 7.125V7.1L43.0167 6.81667L43.0834 6.74167L43.1167 6.55833L43.1501 6.50834L43.1834 6.46667L43.2667 6.40834L43.2501 6.375V6.36667Z" fill="#D47600"/>
</g>
</g>
<defs>
<clipPath id="clip0_769_8712">
<path d="M0 20C0 8.95431 8.95431 0 20 0C31.0457 0 40 8.95431 40 20C40 31.0457 31.0457 40 20 40C8.95431 40 0 31.0457 0 20Z" fill="white"/>
</clipPath>
<clipPath id="clip1_769_8712">
<rect width="53.3333" height="40" fill="white"/>
</clipPath>
</defs>
</svg>
