<svg width="40" height="40" viewBox="0 0 40 40" fill="none" xmlns="http://www.w3.org/2000/svg">
<g clip-path="url(#clip0_769_8548)">
<path d="M0 20C0 8.95431 8.95431 0 20 0C31.0457 0 40 8.95431 40 20C40 31.0457 31.0457 40 20 40C8.95431 40 0 31.0457 0 20Z" fill="#E94E0F"/>
<g clip-path="url(#clip1_769_8548)">
<path d="M0 0H53.3333V40H0V0Z" fill="#007FFF"/>
<path d="M2.4 8H8L9.73333 2.4L11.4667 8H17.0667L12.5333 11.4667L14.2667 17.0667L9.73333 13.6L5.2 17.0667L6.93333 11.4667L2.4 8ZM50 0L0 30V40H3.33333L53.3333 10V0H50Z" fill="#F7D618"/>
<path d="M53.3333 0L0 32V40L53.3333 8V0Z" fill="#CE1021"/>
</g>
</g>
<defs>
<clipPath id="clip0_769_8548">
<path d="M0 20C0 8.95431 8.95431 0 20 0C31.0457 0 40 8.95431 40 20C40 31.0457 31.0457 40 20 40C8.95431 40 0 31.0457 0 20Z" fill="white"/>
</clipPath>
<clipPath id="clip1_769_8548">
<rect width="53.3333" height="40" fill="white"/>
</clipPath>
</defs>
</svg>
