<svg width="40" height="40" viewBox="0 0 40 40" fill="none" xmlns="http://www.w3.org/2000/svg">
<g clip-path="url(#clip0_769_8885)">
<path d="M0 20C0 8.95431 8.95431 0 20 0C31.0457 0 40 8.95431 40 20C40 31.0457 31.0457 40 20 40C8.95431 40 0 31.0457 0 20Z" fill="#E94E0F"/>
<g clip-path="url(#clip1_769_8885)">
<path fill-rule="evenodd" clip-rule="evenodd" d="M-20.5918 0H59.8957V40.1067H-20.5918V0Z" fill="#108C00"/>
<path fill-rule="evenodd" clip-rule="evenodd" d="M-20.7251 13.959H60.1619V17.8835H-20.7251V13.959Z" fill="#FFD600"/>
<path fill-rule="evenodd" clip-rule="evenodd" d="M13.8201 0H17.6192V40.1067H13.8279L13.8201 0Z" fill="#FFD600"/>
<path fill-rule="evenodd" clip-rule="evenodd" d="M17.4861 0H21.2774V40.1067H17.4861V0Z" fill="black"/>
<path fill-rule="evenodd" clip-rule="evenodd" d="M-20.7251 17.7504H60.1619V21.6827H-20.7251V17.7504Z" fill="black"/>
<path fill-rule="evenodd" clip-rule="evenodd" d="M-20.7251 21.6827H60.1619V25.6072H-20.7251V21.6827Z" fill="white"/>
<path fill-rule="evenodd" clip-rule="evenodd" d="M21.2773 0H25.0765V40.1067H21.2773V0Z" fill="white"/>
<path d="M9.10434 20.0846C9.10434 26.0332 13.9056 30.8555 19.8282 30.8555C25.7508 30.8555 30.552 26.0332 30.552 20.0846C30.552 14.1361 25.7508 9.3138 19.8282 9.3138C13.9056 9.3138 9.10434 14.1361 9.10434 20.0846Z" fill="#E72910"/>
<path fill-rule="evenodd" clip-rule="evenodd" d="M19.2642 10.7317L19.7029 9.47833L20.1024 10.7082C20.1024 10.7082 21.4419 10.7473 21.4419 10.7238C21.4419 10.7003 20.3844 11.5307 20.3844 11.5307L20.8622 12.9093C20.8465 12.8702 19.7029 12.0555 19.7029 12.0555C19.7029 12.0555 18.5435 12.8702 18.567 12.8702C18.5905 12.8702 19.0057 11.5385 19.0057 11.5385L17.9639 10.7473L19.2642 10.7238V10.7317Z" fill="black"/>
<path fill-rule="evenodd" clip-rule="evenodd" d="M19.3268 10.7865L19.6949 9.71332L20.0396 10.7787C20.0396 10.7787 21.2068 10.81 21.2068 10.7943C21.2068 10.7787 20.2903 11.4993 20.2903 11.4993L20.6976 12.69C20.6819 12.6508 19.6949 11.9537 19.6949 11.9537C19.6949 11.9537 18.6923 12.6587 18.7079 12.6587C18.7236 12.6587 19.0996 11.4993 19.0996 11.4993L18.1909 10.81L19.3189 10.7943L19.3268 10.7865Z" fill="#FFE700"/>
<path fill-rule="evenodd" clip-rule="evenodd" d="M19.4834 10.9667L19.7027 10.34L19.9064 10.9589C19.9064 10.9589 20.5722 10.9745 20.5722 10.9589C20.5722 10.9432 20.0474 11.3662 20.0474 11.3662L20.2824 12.0555C20.2746 12.032 19.7027 11.6325 19.7027 11.6325L19.1387 12.0399C19.1544 12.0399 19.3581 11.374 19.3581 11.374L18.8411 10.9824L19.4834 10.9667Z" fill="#108C00"/>
<path fill-rule="evenodd" clip-rule="evenodd" d="M27.5989 16.591L28.0376 15.3377L28.4293 16.5675C28.4293 16.5675 29.7766 16.6145 29.7766 16.591C29.7766 16.5675 28.7191 17.3979 28.7191 17.3979L29.1891 18.7765C29.1734 18.7374 28.0376 17.9227 28.0376 17.9227C28.0376 17.9227 26.8783 18.7374 26.9018 18.7374C26.9253 18.7374 27.3404 17.4057 27.3404 17.4057L26.2986 16.6067L27.5989 16.5832V16.591Z" fill="black"/>
<path fill-rule="evenodd" clip-rule="evenodd" d="M27.6539 16.6537L28.0377 15.5649L28.3824 16.638C28.3824 16.638 29.5417 16.6694 29.5417 16.6537C29.5417 16.638 28.6252 17.3587 28.6252 17.3587L29.0404 18.5415C29.0247 18.5102 28.0377 17.8052 28.0377 17.8052C28.0377 17.8052 27.035 18.5102 27.0507 18.5102C27.0664 18.5102 27.4345 17.3509 27.4345 17.3509L26.5337 16.6694L27.6539 16.6537Z" fill="#FFE700"/>
<path fill-rule="evenodd" clip-rule="evenodd" d="M27.8181 16.8339L28.0375 16.2072L28.2333 16.8182L28.907 16.8339L28.3743 17.2334C28.3743 17.2334 28.625 17.9384 28.6093 17.9227C28.6093 17.8992 28.0375 17.4997 28.0375 17.4997L27.4656 17.8992L27.685 17.2334L27.168 16.8417L27.8181 16.8339Z" fill="#108C00"/>
<path fill-rule="evenodd" clip-rule="evenodd" d="M25.1705 25.897L25.6091 24.6437L26.0008 25.8813C26.0008 25.8813 27.3481 25.9205 27.3481 25.9048C27.3481 25.8892 26.2906 26.7117 26.2906 26.7117L26.7606 28.0825C26.745 28.0433 25.6091 27.2365 25.6091 27.2365C25.6091 27.2365 24.4498 28.0433 24.4655 28.0433C24.4811 28.0433 24.912 26.7117 24.912 26.7117L23.8701 25.9283L25.1705 25.9048V25.897Z" fill="black"/>
<path fill-rule="evenodd" clip-rule="evenodd" d="M25.2254 25.9597L25.6092 24.8787L25.9539 25.944C25.9539 25.944 27.1132 25.9832 27.1132 25.9597C27.1132 25.9362 26.1967 26.6647 26.1967 26.6647L26.6119 27.8553C26.5962 27.8162 25.6092 27.119 25.6092 27.119C25.6092 27.119 24.6066 27.824 24.6222 27.824C24.6379 27.824 25.0061 26.6647 25.0061 26.6647L24.1052 25.9832L25.2254 25.9597Z" fill="#FFE700"/>
<path fill-rule="evenodd" clip-rule="evenodd" d="M25.3899 26.1399L25.6092 25.5132L25.8051 26.132C25.8051 26.132 26.4787 26.1555 26.4787 26.1399C26.4787 26.1242 25.9461 26.5472 25.9461 26.5472L26.1811 27.2287C26.1811 27.213 25.6092 26.8057 25.6092 26.8057L25.0374 27.213L25.2567 26.5472L24.7397 26.1555L25.3899 26.1399Z" fill="#108C00"/>
<path fill-rule="evenodd" clip-rule="evenodd" d="M13.5223 25.897L13.9609 24.6437L14.3526 25.8813C14.3526 25.8813 15.6921 25.9205 15.6921 25.9048C15.6921 25.8892 14.6346 26.7117 14.6346 26.7117L15.1203 28.0825C15.0968 28.0433 13.9609 27.2365 13.9609 27.2365C13.9609 27.2365 12.8016 28.0433 12.8173 28.0433C12.8329 28.0433 13.2638 26.7117 13.2638 26.7117L12.2219 25.9283L13.5223 25.9048V25.897Z" fill="black"/>
<path fill-rule="evenodd" clip-rule="evenodd" d="M13.585 25.9597L13.961 24.8787L14.3057 25.944C14.3057 25.944 15.465 25.9832 15.465 25.9597C15.465 25.9362 14.5485 26.6647 14.5485 26.6647L14.9637 27.8553C14.948 27.8162 13.961 27.119 13.961 27.119C13.961 27.119 12.9584 27.824 12.974 27.824C12.9897 27.824 13.3579 26.6647 13.3579 26.6647L12.457 25.9832L13.5772 25.9597H13.585Z" fill="#FFE700"/>
<path fill-rule="evenodd" clip-rule="evenodd" d="M13.7415 26.1399L13.9608 25.5132L14.1566 26.132C14.1566 26.132 14.8303 26.1555 14.8303 26.1399C14.8303 26.1242 14.2976 26.5472 14.2976 26.5472L14.5326 27.2287C14.5326 27.213 13.9608 26.8057 13.9608 26.8057L13.389 27.213L13.6083 26.5472L13.0913 26.1555L13.7415 26.1399Z" fill="#108C00"/>
<path fill-rule="evenodd" clip-rule="evenodd" d="M11.3916 16.3482L11.8303 15.0948L12.2298 16.3325C12.2298 16.3325 13.5693 16.3717 13.5693 16.3482C13.5693 16.3247 12.5118 17.1628 12.5118 17.1628L12.9896 18.5337C12.9661 18.4945 11.8303 17.6877 11.8303 17.6877C11.8303 17.6877 10.671 18.4867 10.6945 18.4867C10.718 18.4867 11.1331 17.155 11.1331 17.155L10.0913 16.3717L11.3916 16.3482Z" fill="black"/>
<path fill-rule="evenodd" clip-rule="evenodd" d="M11.4542 16.4108L11.8302 15.3298L12.1827 16.3952C12.1827 16.3952 13.3342 16.4343 13.3342 16.4108C13.3342 16.3873 12.4177 17.1158 12.4177 17.1158L12.8328 18.3065C12.8172 18.2673 11.8302 17.5702 11.8302 17.5702C11.8302 17.5702 10.8275 18.2752 10.851 18.2752C10.8745 18.2752 11.227 17.1158 11.227 17.1158L10.3262 16.4343L11.4542 16.4108Z" fill="#FFE700"/>
<path fill-rule="evenodd" clip-rule="evenodd" d="M11.6111 16.591L11.8304 15.9644L12.0341 16.5832L12.6999 16.591L12.1751 16.9984L12.4101 17.6799C12.4022 17.6642 11.8304 17.2569 11.8304 17.2569L11.2664 17.6642C11.2821 17.6642 11.4857 16.9984 11.4857 16.9984L10.9688 16.6067L11.6111 16.591Z" fill="#108C00"/>
<path fill-rule="evenodd" clip-rule="evenodd" d="M25.0685 13.6379L24.6299 14.8912L24.2382 13.6614C24.2382 13.6614 22.8909 13.6222 22.8909 13.6379C22.8909 13.6535 23.9484 12.831 23.9484 12.831L23.4784 11.4602C23.494 11.4994 24.6299 12.3062 24.6299 12.3062C24.6299 12.3062 25.7892 11.4994 25.7657 11.4994C25.7422 11.4994 25.327 12.831 25.327 12.831L26.3689 13.6144L25.0685 13.6379Z" fill="black"/>
<path fill-rule="evenodd" clip-rule="evenodd" d="M25.0138 13.5752C25.0138 13.5987 24.6221 14.664 24.6221 14.664L24.2853 13.5987C24.2853 13.5987 23.126 13.5595 23.126 13.5752C23.126 13.5909 24.0425 12.878 24.0425 12.878L23.6273 11.6874C23.643 11.7265 24.63 12.4237 24.63 12.4237C24.63 12.4237 25.6326 11.7187 25.617 11.7187C25.6013 11.7187 25.2331 12.878 25.2331 12.878L26.134 13.5595L25.006 13.5752H25.0138Z" fill="#FFE700"/>
<path fill-rule="evenodd" clip-rule="evenodd" d="M24.8491 13.395L24.6298 14.0217L24.4339 13.4107C24.4339 13.4107 23.7603 13.3872 23.7603 13.4029C23.7603 13.4185 24.2929 12.9955 24.2929 12.9955L24.0579 12.314C24.0579 12.3297 24.6298 12.737 24.6298 12.737L25.2016 12.3297C25.1859 12.3297 24.9744 12.9955 24.9744 12.9955L25.4993 13.3872L24.8491 13.4029V13.395Z" fill="#108C00"/>
<path fill-rule="evenodd" clip-rule="evenodd" d="M28.4135 22.7402L27.9748 23.9935L27.5832 22.7559C27.5832 22.7559 26.2358 22.7167 26.2358 22.7402C26.2358 22.7637 27.2933 21.9334 27.2933 21.9334L26.8233 20.5547C26.839 20.5939 27.9748 21.4007 27.9748 21.4007C27.9748 21.4007 29.1342 20.5939 29.1107 20.5939C29.0872 20.5939 28.672 21.9255 28.672 21.9255L29.7217 22.7167L28.4213 22.7402H28.4135Z" fill="black"/>
<path fill-rule="evenodd" clip-rule="evenodd" d="M28.3585 22.6775L27.9747 23.7585L27.63 22.6932C27.63 22.6932 26.4707 22.6619 26.4707 22.6775C26.4707 22.6932 27.3872 21.9725 27.3872 21.9725L26.972 20.7819C26.9877 20.821 27.9747 21.5182 27.9747 21.5182C27.9747 21.5182 28.9774 20.8132 28.9617 20.8132C28.946 20.8132 28.5779 21.9725 28.5779 21.9725L29.4787 22.6619L28.3507 22.6775H28.3585Z" fill="#FFE700"/>
<path fill-rule="evenodd" clip-rule="evenodd" d="M28.1943 22.4973L27.975 23.124L27.7791 22.5052C27.7791 22.5052 27.1055 22.4895 27.1055 22.5052C27.1055 22.5208 27.6381 22.0978 27.6381 22.0978L27.4031 21.4085C27.4031 21.432 27.975 21.8315 27.975 21.8315L28.5468 21.4242C28.5311 21.4242 28.3196 22.0978 28.3196 22.0978L28.8445 22.4895L28.1943 22.4973Z" fill="#108C00"/>
<path fill-rule="evenodd" clip-rule="evenodd" d="M20.1179 29.3985L19.6792 30.6518L19.2875 29.4142C19.2875 29.4142 17.9402 29.375 17.9402 29.3907C17.9402 29.4063 18.9977 28.5838 18.9977 28.5838L18.5277 27.213C18.5434 27.2522 19.6792 28.059 19.6792 28.059C19.6792 28.059 20.8385 27.2522 20.815 27.2522C20.7915 27.2522 20.3764 28.5838 20.3764 28.5838L21.4182 29.375L20.1179 29.3985Z" fill="black"/>
<path fill-rule="evenodd" clip-rule="evenodd" d="M20.0631 29.328L19.6793 30.4247L19.3346 29.3515C19.3346 29.3515 18.1753 29.3124 18.1753 29.3359C18.1753 29.3594 19.0918 28.6309 19.0918 28.6309L18.6766 27.4402C18.6923 27.4794 19.6793 28.1765 19.6793 28.1765C19.6793 28.1765 20.682 27.4715 20.6663 27.4715C20.6506 27.4715 20.2825 28.6309 20.2825 28.6309L21.1833 29.3124L20.0631 29.3359V29.328Z" fill="#FFE700"/>
<path fill-rule="evenodd" clip-rule="evenodd" d="M19.8984 29.1557L19.6791 29.7823L19.4832 29.1635C19.4832 29.1635 18.8096 29.14 18.8096 29.1557C18.8096 29.1713 19.3422 28.7483 19.3422 28.7483L19.1072 28.0668C19.1072 28.0825 19.6791 28.4898 19.6791 28.4898L20.2509 28.0825L20.0316 28.7483L20.5486 29.14L19.8984 29.1557Z" fill="#108C00"/>
<path fill-rule="evenodd" clip-rule="evenodd" d="M12.3317 22.7401L11.8852 23.9935L11.4936 22.7558C11.4936 22.7558 10.1462 22.7166 10.1462 22.7401C10.1462 22.7636 11.2037 21.9333 11.2037 21.9333L10.7337 20.5546C10.7494 20.5938 11.8852 21.4006 11.8852 21.4006L13.0367 20.6016L12.5902 21.9333L13.6321 22.7245L12.3317 22.748V22.7401Z" fill="black"/>
<path fill-rule="evenodd" clip-rule="evenodd" d="M12.2692 22.6775L11.8853 23.7585L11.5407 22.6931C11.5407 22.6931 10.3813 22.6618 10.3813 22.6775C10.3813 22.6931 11.2978 21.9725 11.2978 21.9725L10.8827 20.7818C10.8983 20.821 11.8853 21.5181 11.8853 21.5181C11.8853 21.5181 12.888 20.8131 12.8723 20.8131C12.8567 20.8131 12.4885 21.9725 12.4885 21.9725L13.3893 22.6618L12.2692 22.6775Z" fill="#FFE700"/>
<path fill-rule="evenodd" clip-rule="evenodd" d="M12.1045 22.4973L11.8851 23.1239L11.6893 22.5051C11.6893 22.5051 11.0156 22.4894 11.0156 22.5051C11.0156 22.5208 11.5483 22.0978 11.5483 22.0978L11.3133 21.4084C11.3133 21.4319 11.8851 21.8314 11.8851 21.8314L12.457 21.4241L12.2376 22.0978L12.7546 22.4894L12.1045 22.4973Z" fill="#108C00"/>
<path fill-rule="evenodd" clip-rule="evenodd" d="M15.2065 13.771L14.7678 15.0243L14.3605 13.7945C14.3605 13.7945 13.0288 13.7553 13.0288 13.771C13.0288 13.7867 14.0863 12.9642 14.0863 12.9642L13.6085 11.5933C13.6241 11.6325 14.76 12.4393 14.76 12.4393C14.76 12.4393 15.9193 11.6325 15.9036 11.6325C15.888 11.6325 15.465 12.9642 15.465 12.9642L16.499 13.7475L15.2065 13.7788V13.771Z" fill="black"/>
<path fill-rule="evenodd" clip-rule="evenodd" d="M15.1437 13.7083L14.7599 14.805L14.4152 13.7318C14.4152 13.7318 13.2559 13.6927 13.2559 13.7162C13.2559 13.7397 14.1724 13.0112 14.1724 13.0112L13.7572 11.8205C13.7729 11.8597 14.7599 12.5568 14.7599 12.5568C14.7599 12.5568 15.7625 11.8518 15.7469 11.8518C15.7312 11.8518 15.3709 13.0112 15.3709 13.0112L16.2639 13.6927L15.1437 13.7162V13.7083Z" fill="#FFE700"/>
<path fill-rule="evenodd" clip-rule="evenodd" d="M14.9794 13.536L14.7601 14.1626L14.5643 13.5438C14.5643 13.5438 13.8984 13.5203 13.8984 13.536C13.8984 13.5516 14.4233 13.1286 14.4233 13.1286L14.1883 12.4471C14.1883 12.4628 14.7601 12.8701 14.7601 12.8701L15.3319 12.4628L15.1126 13.1286L15.6296 13.5203L14.9794 13.536Z" fill="#108C00"/>
<path d="M20.4737 25.1524C20.7841 25.1136 21.0357 23.8361 21.0357 22.299C21.0357 20.7618 20.7841 19.5472 20.4737 19.586C20.1633 19.6248 19.9116 20.9023 19.9116 22.4395C19.9116 23.9766 20.1633 25.1913 20.4737 25.1524Z" fill="#009200" stroke="black" stroke-width="0.0410548"/>
<path d="M21.192 25.1111C21.5246 25.0695 21.7942 23.7897 21.7942 22.2525C21.7942 20.7154 21.5246 19.503 21.192 19.5446C20.8595 19.5862 20.5898 20.866 20.5898 22.4031C20.5898 23.9402 20.8595 25.1526 21.192 25.1111Z" fill="#009200" stroke="black" stroke-width="0.0424957"/>
<path d="M20.9073 25.5087C21.1734 25.4755 21.3891 24.0778 21.3891 22.387C21.3891 20.6961 21.1734 19.3524 20.9073 19.3856C20.6412 19.4189 20.4255 20.8166 20.4255 22.5074C20.4255 24.1983 20.6412 25.542 20.9073 25.5087Z" fill="#009200" stroke="black" stroke-width="0.0398645"/>
<path fill-rule="evenodd" clip-rule="evenodd" d="M17.6001 23.0369C18.0889 23.0125 17.8771 22.7681 18.1215 22.6296C18.3659 22.4992 18.7162 22.5807 18.8221 22.7436C18.928 22.9066 18.8465 23.0695 18.985 23.0695C19.1235 23.0695 22.814 22.8658 22.9443 22.9962C23.0747 23.1347 23.1072 23.4035 22.9688 23.5094C22.8384 23.6235 18.1704 23.7538 18.0074 23.6398C17.8445 23.5257 17.6001 23.0695 17.6001 23.0369Z" fill="#A95600" stroke="black" stroke-width="0.0407333"/>
<path fill-rule="evenodd" clip-rule="evenodd" d="M20.1532 24.0023C20.1532 24.3282 20.7105 24.2288 20.7251 24.5009C20.7166 24.7893 19.7879 24.5294 19.7646 24.0023C19.7879 23.4744 20.6811 23.2039 20.7019 23.5053C20.7166 23.7546 20.152 23.6764 20.152 24.0023H20.1532Z" fill="#FFFF00" stroke="black" stroke-width="0.0389126"/>
<path fill-rule="evenodd" clip-rule="evenodd" d="M20.4789 24.0104C20.4789 24.3363 21.0362 24.2369 21.0508 24.509C21.0423 24.7974 20.1136 24.5375 20.0903 24.0104C20.1136 23.4825 21.0068 23.212 21.0276 23.5135C21.0423 23.7627 20.4777 23.6845 20.4777 24.0104H20.4789Z" fill="#FFFF00" stroke="black" stroke-width="0.0389126"/>
<path fill-rule="evenodd" clip-rule="evenodd" d="M20.8293 23.9941C20.8293 24.32 21.3865 24.2206 21.4012 24.4927C21.3926 24.7811 20.4639 24.5212 20.4407 23.9941C20.4639 23.4662 21.3572 23.1957 21.3779 23.4972C21.3926 23.7465 20.828 23.6682 20.828 23.9941H20.8293Z" fill="#FFFF00" stroke="black" stroke-width="0.0389126"/>
<path fill-rule="evenodd" clip-rule="evenodd" d="M21.1552 23.9941C21.1552 24.32 21.7124 24.2206 21.7271 24.4927C21.7185 24.7811 20.7898 24.5212 20.7666 23.9941C20.7898 23.4662 21.6831 23.1957 21.7039 23.4972C21.7185 23.7465 21.154 23.6682 21.154 23.9941H21.1552Z" fill="#FFFF00" stroke="black" stroke-width="0.0389126"/>
<path d="M22.7237 24.985C22.8969 24.9881 23.0398 24.8481 23.0429 24.6722C23.046 24.4962 22.908 24.3511 22.7348 24.3479C22.5616 24.3448 22.4187 24.4848 22.4156 24.6608C22.4125 24.8367 22.5505 24.9818 22.7237 24.985Z" fill="#A95600" stroke="black" stroke-width="0.0366567"/>
<path d="M20.7732 24.7069C20.9315 24.6908 21.0314 24.3979 20.9963 24.0527C20.9612 23.7075 20.8045 23.4407 20.6462 23.4568C20.4879 23.4729 20.388 23.7657 20.4231 24.111C20.4582 24.4562 20.6149 24.723 20.7732 24.7069Z" fill="#009200" stroke="black" stroke-width="0.0475028"/>
<path d="M20.2942 24.6655C20.4525 24.6494 20.5524 24.3566 20.5173 24.0114C20.4822 23.6661 20.3255 23.3993 20.1672 23.4154C20.0089 23.4315 19.909 23.7244 19.9441 24.0696C19.9792 24.4148 20.1359 24.6816 20.2942 24.6655Z" fill="#009200" stroke="black" stroke-width="0.0475028"/>
<path d="M19.9534 24.0532C20.1116 24.0371 20.2115 23.7443 20.1765 23.399C20.1414 23.0538 19.9847 22.787 19.8264 22.8031C19.6681 22.8192 19.5682 23.1121 19.6033 23.4573C19.6384 23.8025 19.7951 24.0693 19.9534 24.0532Z" fill="#009200" stroke="black" stroke-width="0.0475028"/>
<path d="M20.3049 23.9416C20.4538 23.9265 20.5435 23.6081 20.5051 23.2305C20.4668 22.853 20.3149 22.5592 20.166 22.5743C20.017 22.5894 19.9273 22.9078 19.9657 23.2853C20.004 23.6629 20.1559 23.9567 20.3049 23.9416Z" fill="#009200" stroke="black" stroke-width="0.0481963"/>
<path d="M20.9761 24.0223C21.1251 24.0071 21.2165 23.7063 21.1804 23.3503C21.1442 22.9943 20.9941 22.718 20.8452 22.7331C20.6962 22.7482 20.6048 23.0491 20.6409 23.4051C20.6771 23.7611 20.8272 24.0374 20.9761 24.0223Z" fill="#009200" stroke="black" stroke-width="0.046799"/>
<path d="M20.6094 23.7975C20.7584 23.7823 20.8498 23.4815 20.8137 23.1255C20.7775 22.7695 20.6274 22.4932 20.4785 22.5083C20.3295 22.5234 20.2381 22.8243 20.2742 23.1803C20.3104 23.5363 20.4605 23.8126 20.6094 23.7975Z" fill="#009200" stroke="black" stroke-width="0.046799"/>
<path d="M20.1509 23.4756C20.2999 23.4604 20.3913 23.1596 20.3552 22.8036C20.319 22.4476 20.1689 22.1713 20.02 22.1864C19.871 22.2015 19.7796 22.5024 19.8157 22.8584C19.8519 23.2144 20.002 23.4907 20.1509 23.4756Z" fill="#009200" stroke="black" stroke-width="0.046799"/>
<path d="M19.7227 23.2898C19.8717 23.2747 19.9631 22.9738 19.927 22.6178C19.8908 22.2618 19.7407 21.9855 19.5918 22.0006C19.4428 22.0157 19.3513 22.3166 19.3875 22.6726C19.4237 23.0286 19.5737 23.3049 19.7227 23.2898Z" fill="#009200" stroke="black" stroke-width="0.046799"/>
<path fill-rule="evenodd" clip-rule="evenodd" d="M19.3272 16.6662C19.3272 16.6662 18.3741 17.4809 18.5044 19.6723C18.6511 21.8719 20.6633 22.8903 20.6633 22.8903C20.6633 22.8903 21.1684 22.263 21.0869 20.487C20.924 17.8964 19.9627 16.764 19.9627 16.764L19.3272 16.6581V16.6662Z" fill="#804BFF" stroke="black" stroke-width="0.0407333"/>
<path d="M21.3192 24.7961C21.4778 24.8086 21.6285 24.5383 21.6557 24.1923C21.6829 23.8464 21.5764 23.5559 21.4178 23.5434C21.2592 23.5309 21.1085 23.8012 21.0813 24.1471C21.0541 24.4931 21.1606 24.7836 21.3192 24.7961Z" fill="#009200" stroke="black" stroke-width="0.0475028"/>
<path d="M20.8551 24.6697C21.0137 24.6822 21.1643 24.4119 21.1916 24.0659C21.2188 23.72 21.1123 23.4295 20.9537 23.417C20.7951 23.4045 20.6444 23.6748 20.6172 24.0207C20.59 24.3667 20.6965 24.6572 20.8551 24.6697Z" fill="#009200" stroke="black" stroke-width="0.0475028"/>
<path d="M20.6295 24.0063C20.7881 24.0188 20.9388 23.7485 20.966 23.4026C20.9932 23.0567 20.8867 22.7662 20.7281 22.7537C20.5695 22.7412 20.4188 23.0115 20.3916 23.3574C20.3644 23.7033 20.4709 23.9939 20.6295 24.0063Z" fill="#009200" stroke="black" stroke-width="0.0475028"/>
<path d="M20.9952 23.9594C21.1445 23.9711 21.2896 23.6739 21.3194 23.2956C21.3492 22.9172 21.2523 22.601 21.103 22.5893C20.9538 22.5775 20.8086 22.8747 20.7788 23.253C20.7491 23.6314 20.8459 23.9476 20.9952 23.9594Z" fill="#009200" stroke="black" stroke-width="0.0481963"/>
<path d="M21.6413 24.1588C21.7905 24.1705 21.9343 23.8909 21.9624 23.5342C21.9905 23.1774 21.8922 22.8787 21.7429 22.867C21.5937 22.8552 21.4499 23.1349 21.4218 23.4916C21.3937 23.8483 21.492 24.147 21.6413 24.1588Z" fill="#009200" stroke="black" stroke-width="0.046799"/>
<path d="M21.3207 23.872C21.47 23.8838 21.6138 23.6041 21.6418 23.2474C21.6699 22.8907 21.5717 22.592 21.4224 22.5802C21.2731 22.5685 21.1293 22.8481 21.1013 23.2049C21.0732 23.5616 21.1714 23.8603 21.3207 23.872Z" fill="#009200" stroke="black" stroke-width="0.046799"/>
<path d="M20.9272 23.4733C21.0764 23.4851 21.2202 23.2054 21.2483 22.8487C21.2764 22.4919 21.1781 22.1932 21.0288 22.1815C20.8796 22.1697 20.7358 22.4494 20.7077 22.8061C20.6796 23.1628 20.7779 23.4616 20.9272 23.4733Z" fill="#009200" stroke="black" stroke-width="0.046799"/>
<path d="M20.539 23.214C20.6883 23.2257 20.832 22.9461 20.8601 22.5893C20.8882 22.2326 20.7899 21.9339 20.6406 21.9222C20.4914 21.9104 20.3476 22.1901 20.3195 22.5468C20.2915 22.9035 20.3897 23.2022 20.539 23.214Z" fill="#009200" stroke="black" stroke-width="0.046799"/>
<path d="M22.1344 22.9738C22.5541 22.8164 22.4862 21.6685 21.9827 20.4098C21.4793 19.1512 20.7309 18.2584 20.3112 18.4158C19.8915 18.5732 19.9594 19.7211 20.4629 20.9798C20.9664 22.2384 21.7147 23.1312 22.1344 22.9738Z" fill="#C90000" stroke="black" stroke-width="0.0135359"/>
<path d="M20.754 18.7997C20.9483 18.8031 21.1083 18.6647 21.1113 18.4906C21.1144 18.3165 20.9593 18.1726 20.765 18.1692C20.5706 18.1658 20.4106 18.3042 20.4076 18.4783C20.4045 18.6524 20.5596 18.7963 20.754 18.7997Z" fill="#009200" stroke="black" stroke-width="0.0423313"/>
<path d="M20.8672 18.3535C21.0373 18.3565 21.1776 18.2178 21.1806 18.0437C21.1836 17.8696 21.0483 17.7261 20.8782 17.7231C20.7082 17.7201 20.5678 17.8588 20.5648 18.0329C20.5618 18.207 20.6972 18.3506 20.8672 18.3535Z" fill="#009200" stroke="black" stroke-width="0.0422371"/>
<path d="M20.4436 18.3462C20.6137 18.3491 20.754 18.2104 20.757 18.0363C20.7601 17.8622 20.6247 17.7187 20.4546 17.7157C20.2846 17.7127 20.1443 17.8515 20.1412 18.0256C20.1382 18.1997 20.2736 18.3432 20.4436 18.3462Z" fill="#009200" stroke="black" stroke-width="0.0422371"/>
<path d="M20.6076 17.649C20.7873 17.6522 20.9353 17.5277 20.938 17.371C20.9408 17.2143 20.7972 17.0847 20.6175 17.0816C20.4377 17.0785 20.2898 17.2029 20.287 17.3596C20.2843 17.5163 20.4278 17.6459 20.6076 17.649Z" fill="#009200" stroke="black" stroke-width="0.0411986"/>
<path d="M20.5734 17.2818C20.7532 17.2849 20.9011 17.1604 20.9038 17.0037C20.9066 16.8471 20.7631 16.7175 20.5833 16.7144C20.4035 16.7112 20.2556 16.8357 20.2529 16.9924C20.2501 17.1491 20.3936 17.2786 20.5734 17.2818Z" fill="#009200" stroke="black" stroke-width="0.0411986"/>
<path d="M20.0405 18.1109C20.2106 18.1139 20.3509 17.9752 20.3539 17.8011C20.357 17.627 20.2216 17.4834 20.0515 17.4805C19.8815 17.4775 19.7412 17.6162 19.7382 17.7903C19.7351 17.9644 19.8705 18.108 20.0405 18.1109Z" fill="#009200" stroke="black" stroke-width="0.0422371"/>
<path d="M20.1257 17.8843C20.2958 17.8873 20.4361 17.7485 20.4391 17.5745C20.4422 17.4004 20.3068 17.2568 20.1368 17.2538C19.9667 17.2509 19.8264 17.3896 19.8234 17.5637C19.8203 17.7378 19.9557 17.8813 20.1257 17.8843Z" fill="#009200" stroke="black" stroke-width="0.0422371"/>
<path d="M19.7786 17.7235C19.973 17.7268 20.133 17.5885 20.136 17.4144C20.139 17.2403 19.984 17.0964 19.7896 17.093C19.5953 17.0896 19.4353 17.228 19.4322 17.4021C19.4292 17.5762 19.5843 17.7201 19.7786 17.7235Z" fill="#009200" stroke="black" stroke-width="0.0423313"/>
<path d="M20.3368 16.8295C20.5166 16.8326 20.6645 16.7082 20.6673 16.5515C20.67 16.3948 20.5265 16.2652 20.3467 16.2621C20.167 16.259 20.019 16.3834 20.0163 16.5401C20.0136 16.6968 20.1571 16.8264 20.3368 16.8295Z" fill="#009200" stroke="black" stroke-width="0.0411986"/>
<path d="M19.824 17.4391C19.994 17.442 20.1344 17.3033 20.1374 17.1292C20.1404 16.9551 20.005 16.8116 19.835 16.8086C19.6649 16.8056 19.5246 16.9444 19.5216 17.1185C19.5186 17.2925 19.6539 17.4361 19.824 17.4391Z" fill="#009200" stroke="black" stroke-width="0.0422371"/>
<path d="M19.159 17.7371C19.329 17.7401 19.4693 17.6013 19.4724 17.4272C19.4754 17.2531 19.34 17.1096 19.17 17.1066C18.9999 17.1037 18.8596 17.2424 18.8566 17.4165C18.8535 17.5906 18.9889 17.7341 19.159 17.7371Z" fill="#009200" stroke="black" stroke-width="0.0422371"/>
<path d="M19.2656 17.6819C19.4357 17.6849 19.576 17.5462 19.579 17.3721C19.5821 17.198 19.4467 17.0544 19.2766 17.0515C19.1066 17.0485 18.9663 17.1872 18.9632 17.3613C18.9602 17.5354 19.0956 17.6789 19.2656 17.6819Z" fill="#009200" stroke="black" stroke-width="0.0422371"/>
<path d="M19.4004 17.4317C19.5705 17.4346 19.7108 17.2959 19.7138 17.1218C19.7168 16.9477 19.5815 16.8042 19.4114 16.8012C19.2414 16.7982 19.1011 16.937 19.098 17.1111C19.095 17.2852 19.2304 17.4287 19.4004 17.4317Z" fill="#009200" stroke="black" stroke-width="0.0422371"/>
<path d="M22.3678 24.1086C22.9028 23.9266 22.8505 22.4743 22.2511 20.8647C21.6516 19.2551 20.732 18.0978 20.1971 18.2797C19.6622 18.4617 19.7145 19.914 20.3139 21.5236C20.9133 23.1332 21.8329 24.2905 22.3678 24.1086Z" fill="#009200" stroke="black" stroke-width="0.0378819"/>
<path d="M22.3361 22.3068C22.4349 22.2593 22.4087 21.9476 22.2775 21.6106C22.1462 21.2737 21.9597 21.0391 21.8609 21.0866C21.762 21.1341 21.7883 21.4458 21.9195 21.7828C22.0507 22.1197 22.2372 22.3543 22.3361 22.3068Z" fill="#009200" stroke="black" stroke-width="0.0387001"/>
<path fill-rule="evenodd" clip-rule="evenodd" d="M21.9712 21.6612C22.775 22.7705 22.6538 23.4594 22.5539 24.0411C22.308 23.3601 22.1796 22.9324 21.3758 21.823C20.572 20.7137 21.0007 19.962 21.0658 19.5599C21.1827 19.9125 21.1674 20.5518 21.9712 21.6612Z" fill="#009200" stroke="black" stroke-width="0.0390663"/>
<path fill-rule="evenodd" clip-rule="evenodd" d="M22.0284 22.541C22.8322 23.6504 22.7109 24.3392 22.6111 24.921C22.3651 24.2399 22.2367 23.8123 21.4329 22.7029C20.6291 21.5936 21.0579 20.8418 21.123 20.4398C21.2398 20.7924 21.2246 21.4317 22.0284 22.541Z" fill="#009200" stroke="black" stroke-width="0.0390663"/>
<path fill-rule="evenodd" clip-rule="evenodd" d="M22.0918 23.2469C22.921 24.3375 22.8151 25.0293 22.7281 25.6135C22.4668 24.9381 22.3287 24.5134 21.4995 23.4229C20.6704 22.3323 21.0827 21.5704 21.1388 21.1667C21.2636 21.5166 21.2627 22.1564 22.0918 23.2469Z" fill="#009200" stroke="black" stroke-width="0.0390923"/>
<path d="M21.8889 21.7992C22.0827 21.7513 22.0524 21.2244 21.8211 20.6223C21.5898 20.0202 21.2451 19.5709 21.0513 19.6188C20.8574 19.6666 20.8877 20.1936 21.119 20.7957C21.3503 21.3978 21.695 21.8471 21.8889 21.7992Z" fill="#009200" stroke="black" stroke-width="0.039056"/>
<path d="M21.5414 22.1231C21.717 22.0956 21.7147 21.6714 21.5363 21.1758C21.3578 20.6802 21.0709 20.3007 20.8953 20.3282C20.7197 20.3557 20.722 20.7798 20.9005 21.2755C21.0789 21.7711 21.3659 22.1506 21.5414 22.1231Z" fill="#009200" stroke="black" stroke-width="0.0380522"/>
<path d="M20.9758 22.4934C21.1513 22.4695 21.1597 22.0453 20.9945 21.546C20.8293 21.0467 20.553 20.6613 20.3775 20.6852C20.2019 20.7092 20.1935 21.1333 20.3587 21.6327C20.5239 22.132 20.8002 22.5173 20.9758 22.4934Z" fill="#009200" stroke="black" stroke-width="0.0379659"/>
<path d="M21.3355 20.7356C21.4755 20.7117 21.4631 20.3946 21.3078 20.0275C21.1525 19.6603 20.9131 19.3821 20.7731 19.4061C20.633 19.43 20.6454 19.747 20.8007 20.1142C20.956 20.4813 21.1954 20.7595 21.3355 20.7356Z" fill="#009200" stroke="black" stroke-width="0.0388438"/>
<path d="M21.0549 21.0976C21.1982 21.082 21.2072 20.7629 21.075 20.3847C20.9428 20.0066 20.7195 19.7126 20.5763 19.7282C20.433 19.7437 20.424 20.0629 20.5562 20.4411C20.6884 20.8192 20.9117 21.1132 21.0549 21.0976Z" fill="#009200" stroke="black" stroke-width="0.0392177"/>
<path fill-rule="evenodd" clip-rule="evenodd" d="M20.5391 20.0171C20.7684 20.6708 20.8534 21.256 20.728 21.3236C20.6027 21.3912 20.3153 20.9152 20.0859 20.2615" fill="#009200"/>
<path d="M20.5391 20.0171C20.7684 20.6708 20.8534 21.256 20.728 21.3236C20.6027 21.3912 20.3153 20.9152 20.0859 20.2615" stroke="black" stroke-width="0.0392681"/>
<path d="M21.0315 20.3383C21.1747 20.3228 21.1837 20.0036 21.0516 19.6254C20.9194 19.2473 20.6961 18.9533 20.5528 18.9689C20.4096 18.9845 20.4006 19.3036 20.5328 19.6818C20.6649 20.0599 20.8882 20.3539 21.0315 20.3383Z" fill="#009200" stroke="black" stroke-width="0.0392177"/>
<path d="M20.6174 20.6158C20.7607 20.6038 20.775 20.2846 20.6495 19.9028C20.5239 19.521 20.306 19.2211 20.1627 19.2331C20.0195 19.2451 20.0051 19.5643 20.1307 19.9461C20.2562 20.3279 20.4742 20.6278 20.6174 20.6158Z" fill="#009200" stroke="black" stroke-width="0.0392371"/>
<path fill-rule="evenodd" clip-rule="evenodd" d="M20.1614 19.1334C20.3908 19.5765 20.5111 19.9876 20.4296 20.0512C20.348 20.1147 20.096 19.8063 19.8667 19.3631" fill="#009200"/>
<path d="M20.1614 19.1334C20.3908 19.5765 20.5111 19.9876 20.4296 20.0512C20.348 20.1147 20.096 19.8063 19.8667 19.3631" stroke="black" stroke-width="0.0392115"/>
<path fill-rule="evenodd" clip-rule="evenodd" d="M20.3314 18.8482C20.5607 19.2914 20.6811 19.7024 20.5995 19.766C20.518 19.8296 20.266 19.5211 20.0366 19.0779" fill="#009200"/>
<path d="M20.3314 18.8482C20.5607 19.2914 20.6811 19.7024 20.5995 19.766C20.518 19.8296 20.266 19.5211 20.0366 19.0779" stroke="black" stroke-width="0.0392115"/>
<path fill-rule="evenodd" clip-rule="evenodd" d="M21.0727 19.0043C21.3918 19.6137 21.5585 20.1782 21.4441 20.2648C21.3296 20.3513 20.9783 19.9265 20.6592 19.3171" fill="#009200"/>
<path d="M21.0727 19.0043C21.3918 19.6137 21.5585 20.1782 21.4441 20.2648C21.3296 20.3513 20.9783 19.9265 20.6592 19.3171" stroke="black" stroke-width="0.0392693"/>
<path fill-rule="evenodd" clip-rule="evenodd" d="M20.588 18.5822C20.8173 19.0697 20.9377 19.5222 20.8561 19.5925C20.7746 19.6628 20.5226 19.3239 20.2932 18.8364" fill="#009200"/>
<path d="M20.588 18.5822C20.8173 19.0697 20.9377 19.5222 20.8561 19.5925C20.7746 19.6628 20.5226 19.3239 20.2932 18.8364" stroke="black" stroke-width="0.0387121"/>
<path fill-rule="evenodd" clip-rule="evenodd" d="M20.9247 16.8852C20.7644 17.0501 20.9299 17.3368 21.0811 17.4354C21.2506 17.5734 22.2099 18.4785 22.8577 17.6505C22.3259 17.6648 21.3105 16.5178 20.9247 16.8852Z" fill="#804BFF" stroke="black" stroke-width="0.0382113"/>
<path fill-rule="evenodd" clip-rule="evenodd" d="M20.8107 16.4045C20.6504 16.5694 20.8159 16.8562 20.9671 16.9548C21.1365 17.0928 22.0959 17.9979 22.7437 17.1698C22.2119 17.1842 21.1965 16.0371 20.8107 16.4045Z" fill="#804BFF" stroke="black" stroke-width="0.0382113"/>
<path fill-rule="evenodd" clip-rule="evenodd" d="M20.664 15.9483C20.5036 16.1132 20.6692 16.3999 20.8204 16.4985C20.9898 16.6365 21.9492 17.5416 22.597 16.7136C22.0652 16.7279 21.0498 15.5809 20.664 15.9483Z" fill="#804BFF" stroke="black" stroke-width="0.0382113"/>
<path fill-rule="evenodd" clip-rule="evenodd" d="M20.3463 15.4269C20.186 15.5918 20.3515 15.8786 20.5027 15.9772C20.6722 16.1152 21.6315 17.0203 22.2794 16.1922C21.7476 16.2066 20.7322 15.0595 20.3463 15.4269Z" fill="#804BFF" stroke="black" stroke-width="0.0382113"/>
<path fill-rule="evenodd" clip-rule="evenodd" d="M18.8901 15.1963C19.199 14.955 19.778 14.8836 20.2358 15.1243C20.6178 15.3171 21.2633 16.0975 21.7392 16.2825C21.615 16.3114 21.4849 16.3176 21.3564 16.3007C21.228 16.2838 21.1038 16.2441 20.9913 16.184C20.5797 16.498 20.4322 16.5434 20.005 16.6056C19.4144 16.6915 18.9173 16.5304 18.7384 16.2097C18.5522 15.9073 18.6165 15.422 18.8901 15.1963Z" fill="#804BFF" stroke="black" stroke-width="0.0397557"/>
<path d="M19.7931 15.7232C19.9528 15.726 20.0835 15.6572 20.0851 15.5694C20.0866 15.4817 19.9584 15.4083 19.7987 15.4056C19.639 15.4028 19.5083 15.4716 19.5067 15.5593C19.5052 15.6471 19.6334 15.7204 19.7931 15.7232Z" fill="#FF0000" stroke="black" stroke-width="0.0367165"/>
<path d="M19.0893 16.4285C19.3004 16.3483 19.4327 16.184 19.3847 16.0615C19.3368 15.9391 19.1268 15.9048 18.9157 15.985C18.7046 16.0652 18.5723 16.2295 18.6203 16.3519C18.6682 16.4744 18.8782 16.5087 19.0893 16.4285Z" fill="#FFFF00" stroke="black" stroke-width="0.0405302"/>
<path d="M19.3356 16.1634C19.3878 16.1643 19.4308 16.1227 19.4317 16.0706C19.4326 16.0184 19.3911 15.9753 19.3389 15.9744C19.2867 15.9735 19.2436 16.0151 19.2427 16.0673C19.2418 16.1194 19.2834 16.1625 19.3356 16.1634Z" fill="black"/>
<path fill-rule="evenodd" clip-rule="evenodd" d="M19.4648 15.7651C19.4986 15.883 19.4054 16.0443 19.1892 16.1031C18.9694 16.1853 18.809 16.369 18.7255 16.6686C18.3528 15.9894 18.5551 15.699 18.9116 15.627C19.2178 15.5385 19.4051 15.5483 19.4648 15.7651Z" fill="#FFFF00" stroke="black" stroke-width="0.0480916"/>
<path d="M18.5495 16.4902C18.5918 16.491 18.6266 16.4573 18.6274 16.415C18.6281 16.3727 18.5944 16.3378 18.5522 16.3371C18.5099 16.3364 18.475 16.37 18.4742 16.4123C18.4735 16.4546 18.5072 16.4895 18.5495 16.4902Z" fill="black"/>
</g>
</g>
<defs>
<clipPath id="clip0_769_8885">
<path d="M0 20C0 8.95431 8.95431 0 20 0C31.0457 0 40 8.95431 40 20C40 31.0457 31.0457 40 20 40C8.95431 40 0 31.0457 0 20Z" fill="white"/>
</clipPath>
<clipPath id="clip1_769_8885">
<rect width="53.3333" height="40" fill="white" transform="translate(-7)"/>
</clipPath>
</defs>
</svg>
