<svg width="40" height="40" viewBox="0 0 40 40" fill="none" xmlns="http://www.w3.org/2000/svg">
<g clip-path="url(#clip0_769_16313)">
<path d="M0 20C0 8.95431 8.95431 0 20 0C31.0457 0 40 8.95431 40 20C40 31.0457 31.0457 40 20 40C8.95431 40 0 31.0457 0 20Z" fill="#E94E0F"/>
<g clip-path="url(#clip1_769_16313)">
<path fill-rule="evenodd" clip-rule="evenodd" d="M-7 0H46.3333V40H-7V0Z" fill="#FFE800"/>
<path fill-rule="evenodd" clip-rule="evenodd" d="M-7 20H46.3333V40H-7V20Z" fill="#00148E"/>
<path fill-rule="evenodd" clip-rule="evenodd" d="M-7 30H46.3333V40H-7V30Z" fill="#DA0010"/>
<path fill-rule="evenodd" clip-rule="evenodd" d="M15.4664 24.2334L9.41641 30.6084L9.31641 30.475L15.3497 24.1L15.4497 24.2334H15.4664ZM19.6664 25.275L11.7664 33.6084L11.6331 33.475L19.5247 25.1417L19.6664 25.275Z" fill="black"/>
<path fill-rule="evenodd" clip-rule="evenodd" d="M11.7908 33.511L11.0524 34.2494L10.2109 34.8845L10.8459 34.0429L11.5843 33.3045L11.7908 33.511Z" fill="#808080" stroke="black" stroke-width="0.0404265"/>
<path fill-rule="evenodd" clip-rule="evenodd" d="M9.75732 30.2527L9.01899 30.991L8.17741 31.6261L8.81249 30.7845L9.55082 30.0462L9.75732 30.2527Z" fill="#808080" stroke="black" stroke-width="0.0404265"/>
<path fill-rule="evenodd" clip-rule="evenodd" d="M10.3284 9.56598C10.3284 9.56598 9.66464 27.518 12.3196 27.518C14.9746 27.518 16.3059 25.63 16.3059 25.63L16.2759 15.7633L10.3284 9.56598Z" fill="#FFDF00" stroke="black" stroke-width="0.0447214"/>
<path fill-rule="evenodd" clip-rule="evenodd" d="M11.952 11.2407C11.952 12.1847 11.6558 25.63 12.9833 25.63C14.3108 25.63 16.3058 24.686 16.3058 24.686L16.2758 15.7633L11.952 11.2407Z" fill="#0000C4" stroke="black" stroke-width="0.0447214"/>
<path fill-rule="evenodd" clip-rule="evenodd" d="M12.8145 12.1473C12.8145 13.0913 12.9832 23.742 14.3145 23.742H16.3057L16.2757 15.7633L12.8145 12.1473Z" fill="#E10000" stroke="black" stroke-width="0.0447214"/>
<path fill-rule="evenodd" clip-rule="evenodd" d="M10.1833 9.66666L16.2167 16.0417L16.325 15.9083L10.2917 9.53333L10.1833 9.66666Z" fill="black"/>
<path fill-rule="evenodd" clip-rule="evenodd" d="M8.35799 13.2447C8.35799 13.2447 6.64699 30.6357 11.78 30.6357C16.0575 30.6357 16.0575 27.8922 16.913 27.8922L16.0575 21.4855L8.35316 13.2447H8.35799Z" fill="#FFDF00" stroke="black" stroke-width="0.0499722"/>
<path d="M12.5981 16.136C12.6348 16.1333 13.9331 13.3236 17.1781 11.5452" stroke="black" stroke-width="0.0721794"/>
<path fill-rule="evenodd" clip-rule="evenodd" d="M12.0668 13.4876C12.5193 13.6987 12.8057 13.9417 13.0663 14.2251C12.5485 14.1166 12.2813 14.0727 11.8288 13.8616C11.3763 13.6504 11.0307 13.3274 10.756 13.0661C11.0928 13.1686 11.6118 13.2752 12.0668 13.4876Z" fill="#005B00" stroke="black" stroke-width="0.0244849"/>
<path fill-rule="evenodd" clip-rule="evenodd" d="M13.2018 15.2083C13.2352 15.2649 13.2065 15.3448 13.136 15.3839C13.0655 15.4231 12.981 15.408 12.9468 15.3499C12.9127 15.2919 12.943 15.2149 13.0135 15.1757C13.084 15.1365 13.1685 15.1516 13.2018 15.2083Z" fill="#FF0000" stroke="black" stroke-width="0.0167937"/>
<path fill-rule="evenodd" clip-rule="evenodd" d="M14.6239 11.6891C14.4278 12.1869 14.2115 12.5149 13.9621 12.8209C14.0742 12.2671 14.1218 11.9829 14.3179 11.4851C14.514 10.9874 14.8001 10.5879 15.0315 10.2699C14.9316 10.6339 14.821 11.1886 14.6239 11.6891Z" fill="#005B00" stroke="black" stroke-width="0.0230834"/>
<path fill-rule="evenodd" clip-rule="evenodd" d="M13.9619 11.6633C13.9167 12.1611 13.8175 12.5466 13.6872 12.9376C13.6531 12.4538 13.6277 12.2121 13.6729 11.7143C13.7182 11.2166 13.857 10.7321 13.9703 10.3441C13.9719 10.6793 14.0074 11.1628 13.9619 11.6633Z" fill="#005B00" stroke="black" stroke-width="0.0199307"/>
<path fill-rule="evenodd" clip-rule="evenodd" d="M14.3943 12.2325C14.1378 12.5342 13.9222 12.665 13.6955 12.75C13.9239 12.3317 14.0358 12.1092 14.2923 11.8075C14.5487 11.5058 14.8235 11.3642 15.0442 11.2542C14.88 11.5088 14.6521 11.9292 14.3943 12.2325Z" fill="#005B00" stroke="black" stroke-width="0.0216483"/>
<path fill-rule="evenodd" clip-rule="evenodd" d="M12.2098 12.654C12.5114 13.016 12.6614 13.3647 12.7748 13.75C12.3798 13.4814 12.1714 13.356 11.8698 12.994C11.5681 12.632 11.3981 12.1787 11.2648 11.8134C11.5098 12.023 11.9064 12.29 12.2098 12.654Z" fill="#005B00" stroke="black" stroke-width="0.0247716"/>
<path fill-rule="evenodd" clip-rule="evenodd" d="M11.6025 15.4444C11.9795 15.746 12.1785 16.057 12.3372 16.4084C11.8575 16.2094 11.6055 16.12 11.2285 15.8184C10.8514 15.5167 10.6219 15.1087 10.4412 14.7794C10.7417 14.9439 11.2233 15.141 11.6025 15.4444Z" fill="#005B00" stroke="black" stroke-width="0.0263008"/>
<path fill-rule="evenodd" clip-rule="evenodd" d="M13.3684 15.2787C13.0667 15.7614 12.7404 16.0857 12.3664 16.3917C12.5467 15.8624 12.6247 15.5914 12.9264 15.1087C13.228 14.6261 13.6587 14.2294 14.0067 13.9134C13.8499 14.2632 13.6717 14.7934 13.3684 15.2787Z" fill="#005B00" stroke="black" stroke-width="0.0270185"/>
<path fill-rule="evenodd" clip-rule="evenodd" d="M13.6836 15.2596C13.201 15.5914 12.7808 15.7641 12.3331 15.9001C12.7458 15.4749 12.946 15.2514 13.4286 14.9196C13.9113 14.5877 14.4496 14.3894 14.8823 14.2334C14.5804 14.4991 14.169 14.9259 13.6836 15.2596Z" fill="#005B00" stroke="black" stroke-width="0.025965"/>
<path fill-rule="evenodd" clip-rule="evenodd" d="M16.9375 11.791C16.7263 12.0323 16.537 12.1753 16.333 12.3C16.5068 12.012 16.5903 11.8623 16.8015 11.621C17.0126 11.3797 17.2563 11.2097 17.4523 11.075C17.323 11.2595 17.1498 11.5483 16.9375 11.791Z" fill="#005B00" stroke="black" stroke-width="0.0137504"/>
<path fill-rule="evenodd" clip-rule="evenodd" d="M16.4801 11.0791C16.3594 11.3356 16.2304 11.5282 16.0831 11.7209C16.1571 11.4645 16.1894 11.3356 16.3101 11.0791C16.4308 10.8227 16.6008 10.5819 16.7381 10.3892C16.6746 10.5649 16.6014 10.8213 16.4801 11.0791Z" fill="#005B00" stroke="black" stroke-width="0.0114225"/>
<path fill-rule="evenodd" clip-rule="evenodd" d="M17.1865 11.5394C16.9753 11.66 16.8166 11.697 16.658 11.7084C16.8691 11.5224 16.9753 11.422 17.1865 11.3014C17.3976 11.1807 17.596 11.1467 17.7546 11.1214C17.61 11.2309 17.3988 11.418 17.1865 11.5394Z" fill="#005B00" stroke="black" stroke-width="0.0125206"/>
<path fill-rule="evenodd" clip-rule="evenodd" d="M14.2724 12.8913C13.8953 13.1175 13.5851 13.2492 13.2621 13.3625C13.6066 13.0896 13.7763 12.9475 14.1534 12.7213C14.5305 12.495 14.9243 12.3392 15.2403 12.2159C14.9954 12.39 14.6516 12.6638 14.2724 12.8913Z" fill="#005B00" stroke="black" stroke-width="0.0157206"/>
<path fill-rule="evenodd" clip-rule="evenodd" d="M15.3732 13.2291C14.8755 13.5307 14.4516 13.6731 14.004 13.7751C14.441 13.3707 14.6545 13.1567 15.1522 12.8551C15.65 12.5534 16.1911 12.3947 16.6258 12.2707C16.3097 12.5196 15.8737 12.9257 15.3732 13.2291Z" fill="#005B00" stroke="black" stroke-width="0.026168"/>
<path d="M11.9903 18.1114C12.0224 18.093 11.719 15.4464 13.7438 12.6934" stroke="black" stroke-width="0.0710477"/>
<path fill-rule="evenodd" clip-rule="evenodd" d="M15.0937 12.5333C15.127 12.5899 15.0983 12.6698 15.0278 12.709C14.9573 12.7481 14.8728 12.733 14.8387 12.6749C14.8045 12.6169 14.8348 12.5399 14.9053 12.5007C14.9758 12.4615 15.0603 12.4766 15.0937 12.5333Z" fill="#FF0000" stroke="black" stroke-width="0.0167937"/>
<path fill-rule="evenodd" clip-rule="evenodd" d="M15.9936 12.0083C16.0269 12.0649 15.9982 12.1448 15.9277 12.1839C15.8572 12.2231 15.7727 12.208 15.7386 12.1499C15.7044 12.0918 15.7347 12.0148 15.8052 11.9757C15.8757 11.9365 15.9602 11.9516 15.9936 12.0083Z" fill="#FF0000" stroke="black" stroke-width="0.0167937"/>
<path fill-rule="evenodd" clip-rule="evenodd" d="M13.4822 13.7726C13.5055 13.816 13.462 13.8845 13.3837 13.9236C13.3053 13.9628 13.2228 13.9587 13.1988 13.9143C13.1749 13.8699 13.2196 13.8035 13.2979 13.7644C13.3762 13.7252 13.4588 13.7293 13.4822 13.7726Z" fill="#FF0000" stroke="black" stroke-width="0.0151417"/>
<path fill-rule="evenodd" clip-rule="evenodd" d="M13.7488 13.656C13.7721 13.6993 13.7286 13.7678 13.6503 13.807C13.5719 13.8462 13.4894 13.8421 13.4654 13.7977C13.4415 13.7532 13.4862 13.6869 13.5645 13.6477C13.6429 13.6086 13.7254 13.6127 13.7488 13.656Z" fill="#FF0000" stroke="black" stroke-width="0.0151417"/>
<path fill-rule="evenodd" clip-rule="evenodd" d="M13.5906 13.906C13.6139 13.9493 13.5704 14.0178 13.4921 14.057C13.4137 14.0962 13.3311 14.0921 13.3072 14.0477C13.2833 14.0032 13.328 13.9369 13.4063 13.8977C13.4846 13.8586 13.5672 13.8627 13.5906 13.906Z" fill="#FF0000" stroke="black" stroke-width="0.0151417"/>
<path fill-rule="evenodd" clip-rule="evenodd" d="M14.0581 13.9417C14.0914 14.0084 14.0581 14.0917 13.9747 14.1334C13.8914 14.175 13.8081 14.15 13.7747 14.075C13.7414 14 13.7747 13.925 13.8581 13.8834C13.9414 13.8417 14.0247 13.8667 14.0497 13.9417H14.0581Z" fill="#FF0000" stroke="black" stroke-width="0.025"/>
<path fill-rule="evenodd" clip-rule="evenodd" d="M14.2497 13.7417C14.2747 13.8084 14.2497 13.8917 14.1663 13.9334C14.083 13.975 13.9997 13.95 13.958 13.8834C13.9163 13.8167 13.958 13.725 14.0413 13.6834C14.1247 13.6417 14.208 13.675 14.2413 13.7417H14.2497Z" fill="#FF0000" stroke="black" stroke-width="0.025"/>
<path fill-rule="evenodd" clip-rule="evenodd" d="M14.2915 13.8334C14.3248 13.9 14.2915 13.9917 14.2081 14.025C14.1248 14.0584 14.0415 14.0417 14.0081 13.975C13.9748 13.9084 14.0081 13.825 14.0915 13.7834C14.1748 13.7417 14.2581 13.7667 14.2915 13.8334Z" fill="#FF0000" stroke="black" stroke-width="0.025"/>
<path fill-rule="evenodd" clip-rule="evenodd" d="M10.069 15.0789C10.069 15.9934 8.358 26.0632 12.6403 28.8067C14.3513 29.7212 16.9178 27.8922 16.9178 28.8067L16.0623 21.4855L10.069 15.0789Z" fill="#0000C4" stroke="black" stroke-width="0.0499722"/>
<path fill-rule="evenodd" clip-rule="evenodd" d="M11.7801 16.9078C11.7801 17.8223 10.9246 25.1435 13.496 26.9777C15.207 28.8067 19.4893 28.3107 19.4893 28.3107L16.0625 21.4855L11.7801 16.9078Z" fill="#E10000" stroke="black" stroke-width="0.0499722"/>
<path fill-rule="evenodd" clip-rule="evenodd" d="M8.31665 13.1667L16.2167 21.5L16.3583 21.3667L8.45832 13.0417L8.32498 13.175L8.31665 13.1667Z" fill="black"/>
<path fill-rule="evenodd" clip-rule="evenodd" d="M7.10126 12.1788L7.60276 12.2673L7.75026 12.4148C7.73009 12.4133 7.89776 12.5623 7.69126 12.7688C7.48476 12.9753 7.19093 12.6792 7.19093 12.6792C7.19093 12.6792 7.27943 13.1807 7.57526 13.4765C7.87109 13.7723 8.22426 13.7125 8.22426 13.7125C8.22426 13.7125 7.88809 13.437 8.13576 13.211C8.38376 12.983 8.48976 13.152 8.48976 13.152L8.78476 13.447L8.99243 13.2393L7.81159 12.0585L7.72309 11.557L6.96243 11.431L7.10159 12.1768L7.10126 12.1788Z" fill="#CECECC" stroke="black" stroke-width="0.0139443"/>
<path fill-rule="evenodd" clip-rule="evenodd" d="M8.26481 8.67686L8.87164 9.61753L9.63981 9.82486L9.13831 10.1494L10.0528 10.1199L10.467 10.4157L10.6153 10.1784L10.2 9.88169L9.87631 8.96586L9.78697 9.5867L9.31464 8.90603L8.26447 8.67469L8.26481 8.67686Z" fill="#CECECC" stroke="black" stroke-width="0.0150143"/>
<path fill-rule="evenodd" clip-rule="evenodd" d="M10.7333 9.24165C10.7333 9.29165 10.6666 9.33415 10.59 9.33415C10.5133 9.33415 10.4433 9.29165 10.4433 9.24165C10.4433 9.19165 10.51 9.14665 10.59 9.14665C10.67 9.14665 10.7333 9.18915 10.7333 9.24165ZM10.5266 9.43915C10.5266 10.3341 11.2233 14.1341 11.28 14.2266C11.2833 14.3391 11.12 14.3866 11.0433 14.2491C10.8233 13.8141 10.35 10.2491 10.3333 9.41665C10.3233 9.07415 10.4566 9.04665 10.61 9.05415C10.7333 9.05915 10.8866 9.14665 10.8866 9.25165C10.8866 9.37665 10.6933 9.46915 10.5266 9.43915Z" fill="#E10000" stroke="black" stroke-width="0.0288675"/>
<path fill-rule="evenodd" clip-rule="evenodd" d="M11.0001 10.1292C10.9751 10.1792 10.8905 10.205 10.8177 10.1859C10.7449 10.1667 10.6996 10.1067 10.7246 10.0567C10.7496 10.0067 10.8355 9.97836 10.9115 9.99836C10.9875 10.0184 11.0264 10.0767 11.0001 10.1292ZM10.705 10.275C10.935 12.0725 10.1635 14.8484 10.1698 14.9575C10.118 15.0684 9.93779 15.0775 9.93496 14.9184C9.89704 14.815 10.7853 12.3075 10.5326 10.2042C10.6944 9.85919 10.8348 9.86503 10.9767 9.91086C11.0914 9.94669 11.1933 10.0725 11.1408 10.1775C11.0783 10.3025 10.8484 10.3467 10.705 10.275Z" fill="#0000C4" stroke="black" stroke-width="0.030253"/>
<path fill-rule="evenodd" clip-rule="evenodd" d="M8.55844 12.625C8.55844 12.7083 8.4751 12.7917 8.3751 12.7917C8.2751 12.7917 8.19177 12.7083 8.19177 12.625C8.19177 12.5417 8.2751 12.475 8.3751 12.475C8.4751 12.475 8.5501 12.5417 8.5501 12.625H8.55844ZM8.29177 12.9583C8.29177 14.45 9.16677 20.7833 9.23344 20.9417C9.23344 21.125 9.04177 21.2083 8.94177 20.975C8.66677 20.25 8.0751 14.3083 8.0501 12.925C8.04177 12.35 8.20844 12.3083 8.4001 12.3167C8.55844 12.325 8.74177 12.475 8.74177 12.65C8.74177 12.85 8.5001 13.0083 8.29177 12.9583Z" fill="#E10000" stroke="black" stroke-width="0.0583333"/>
<path fill-rule="evenodd" clip-rule="evenodd" d="M9.0083 13.3946C8.97496 13.4746 8.86663 13.5176 8.77463 13.4888C8.68263 13.4601 8.62696 13.3658 8.6603 13.2858C8.69363 13.2058 8.80363 13.1588 8.89963 13.1888C8.99563 13.2188 9.0433 13.3106 9.0083 13.3946ZM8.62863 13.6331C8.8653 16.4828 7.7983 20.9098 7.80296 21.0831C7.73363 21.2603 7.5043 21.2791 7.50563 21.0263C7.46063 20.8631 8.66763 16.8596 8.41163 13.5246C8.62796 12.9728 8.8063 12.9788 8.9853 13.0483C9.12996 13.1026 9.25563 13.3001 9.18563 13.4681C9.1023 13.6681 8.80863 13.7436 8.62863 13.6331Z" fill="#0000C4" stroke="black" stroke-width="0.0426145"/>
<path fill-rule="evenodd" clip-rule="evenodd" d="M23.8667 24.2334L29.9084 30.6084L30.0167 30.475L23.9751 24.1L23.8667 24.2334ZM19.6667 25.275L27.5667 33.6084L27.7001 33.475L19.8084 25.1417L19.6667 25.275Z" fill="black"/>
<path fill-rule="evenodd" clip-rule="evenodd" d="M27.5425 33.511L28.2808 34.2494L29.1224 34.8845L28.4873 34.0429L27.749 33.3045L27.5425 33.511Z" fill="#808080" stroke="black" stroke-width="0.0404265"/>
<path fill-rule="evenodd" clip-rule="evenodd" d="M29.5757 30.2527L30.314 30.991L31.1556 31.6261L30.5205 30.7845L29.7822 30.0462L29.5757 30.2527Z" fill="#808080" stroke="black" stroke-width="0.0404265"/>
<path fill-rule="evenodd" clip-rule="evenodd" d="M29.0049 9.56598C29.0049 9.56598 29.6686 27.518 27.0136 27.518C24.3586 27.518 23.0274 25.63 23.0274 25.63L23.0574 15.7633L29.0049 9.56598Z" fill="#FFDF00" stroke="black" stroke-width="0.0447214"/>
<path fill-rule="evenodd" clip-rule="evenodd" d="M27.3812 11.2407C27.3812 12.1847 27.6775 25.63 26.35 25.63C25.0225 25.63 23.0275 24.686 23.0275 24.686L23.0575 15.7633L27.3812 11.2407Z" fill="#0000C4" stroke="black" stroke-width="0.0447214"/>
<path fill-rule="evenodd" clip-rule="evenodd" d="M26.5188 12.1473C26.5188 13.0913 26.35 23.742 25.0188 23.742H23.0275L23.0575 15.7633L26.5188 12.1473Z" fill="#E10000" stroke="black" stroke-width="0.0447214"/>
<path fill-rule="evenodd" clip-rule="evenodd" d="M29.15 9.66666L23.1166 16.0417L23.0083 15.9083L29.0416 9.53333L29.15 9.66666Z" fill="black"/>
<path fill-rule="evenodd" clip-rule="evenodd" d="M24.3874 14.5897C24.3874 14.5897 26.0787 16.7597 26.8947 18.4368C27.71 20.1173 28.662 22.6782 28.662 22.6782C28.662 22.6782 28.118 20.157 27.0914 18.1358C25.746 15.593 24.3867 14.7343 24.3874 14.5897Z" fill="#005B00" stroke="black" stroke-width="0.0208669"/>
<path fill-rule="evenodd" clip-rule="evenodd" d="M24.3289 12.8658C24.3289 12.8658 26.2164 15.5496 27.0779 17.54C27.9383 19.5342 28.8963 22.5233 28.8963 22.5233C28.8963 22.5233 28.4313 19.6475 27.3404 17.2412C25.9028 14.205 24.3169 13.0254 24.3289 12.8658Z" fill="#005B00" stroke="black" stroke-width="0.0241113"/>
<path fill-rule="evenodd" clip-rule="evenodd" d="M25.9577 10.2124C25.9577 10.2124 27.2931 14.1865 27.7 16.644C28.1047 19.1037 28.3519 22.4887 28.3519 22.4887C28.3519 22.4887 28.6091 19.6477 28.0636 16.6319C27.3091 12.7707 25.9024 10.3355 25.9577 10.2124Z" fill="#005B00" stroke="black" stroke-width="0.0273869"/>
<path fill-rule="evenodd" clip-rule="evenodd" d="M24.7588 10.0305C24.7588 10.0305 26.6079 13.5599 27.3282 15.9584C28.0465 18.3602 28.722 21.8254 28.722 21.8254C28.722 21.8254 28.6245 18.6775 27.6941 15.7579C26.446 12.049 24.7184 10.1898 24.7588 10.0305Z" fill="#005B00" stroke="black" stroke-width="0.0277518"/>
<path fill-rule="evenodd" clip-rule="evenodd" d="M26.9795 11.1536C26.9795 11.1536 27.8997 14.9536 28.1308 17.2207C28.3602 19.4893 28.4258 22.5501 28.4258 22.5501C28.4258 22.5501 28.7455 20.073 28.4247 17.2817C27.9685 13.697 26.93 11.2523 26.9795 11.1536Z" fill="#005B00" stroke="black" stroke-width="0.0246109"/>
<path fill-rule="evenodd" clip-rule="evenodd" d="M24.5478 11.2584C24.5478 11.2584 26.3366 14.2817 27.0606 16.395C27.7828 18.5117 28.494 21.605 28.494 21.605C28.494 21.605 28.3211 18.7384 27.3907 16.1717C26.1481 12.9184 24.515 11.4084 24.5478 11.2584Z" fill="#005B00" stroke="black" stroke-width="0.0253117"/>
<path fill-rule="evenodd" clip-rule="evenodd" d="M24.2122 13.3639C24.2122 13.3639 26.0997 15.7606 26.9612 17.5962C27.8216 19.4355 28.7796 22.2284 28.7796 22.2284C28.7796 22.2284 28.3146 19.4922 27.2237 17.2784C25.7861 14.4917 24.2002 13.5198 24.2122 13.3639Z" fill="#005B00" stroke="black" stroke-width="0.0238449"/>
<path fill-rule="evenodd" clip-rule="evenodd" d="M24.4574 12.2628C24.4574 12.2628 26.1936 15.0824 26.9494 17.122C27.704 19.1652 28.5074 22.196 28.5074 22.196C28.5074 22.196 28.1857 19.3238 27.2232 16.8534C25.9482 13.7303 24.4378 12.4186 24.4574 12.2628Z" fill="#005B00" stroke="black" stroke-width="0.0237938"/>
<path fill-rule="evenodd" clip-rule="evenodd" d="M26.3376 10.2725C26.3376 10.2725 27.4538 14.1634 27.7305 16.5399C28.0049 18.9182 28.0766 22.1694 28.0766 22.1694C28.0766 22.1694 28.4752 19.4735 28.0902 16.5539C27.5417 12.812 26.2767 10.3863 26.3376 10.2725Z" fill="#005B00" stroke="black" stroke-width="0.0266217"/>
<path fill-rule="evenodd" clip-rule="evenodd" d="M24.8054 9.30251C24.8054 9.30251 26.4354 12.9678 27.0254 15.4153C27.6134 17.8662 28.1134 21.373 28.1134 21.373C28.1134 21.373 28.1574 18.2288 27.3874 15.2451C26.3454 11.4493 24.7594 9.45793 24.8054 9.30251Z" fill="#005B00" stroke="black" stroke-width="0.0273693"/>
<path fill-rule="evenodd" clip-rule="evenodd" d="M27.4008 11.432C27.4008 11.432 28.1019 15.0809 28.2028 17.2423C28.3018 19.405 28.192 22.3112 28.192 22.3112C28.192 22.3112 28.6532 19.9774 28.4928 17.3144C28.2427 13.8924 27.3458 11.5232 27.4008 11.432Z" fill="#005B00" stroke="black" stroke-width="0.023664"/>
<path fill-rule="evenodd" clip-rule="evenodd" d="M24.5972 10.8137C24.5972 10.8137 26.2272 13.9728 26.8172 16.1353C27.4052 18.301 27.9052 21.436 27.9052 21.436C27.9052 21.436 27.9492 18.573 27.1792 15.9422C26.1372 12.602 24.5512 10.9598 24.5972 10.8137Z" fill="#005B00" stroke="black" stroke-width="0.0258646"/>
<path fill-rule="evenodd" clip-rule="evenodd" d="M30.9753 13.2447C30.9753 13.2447 32.6863 30.6357 27.5533 30.6357C23.2758 30.6357 23.2758 27.8922 22.4203 27.8922L23.2758 21.4855L30.9801 13.2447H30.9753Z" fill="#FFDF00" stroke="black" stroke-width="0.0499722"/>
<path fill-rule="evenodd" clip-rule="evenodd" d="M29.2643 15.0789C29.2643 15.9934 30.9753 26.0632 26.6929 28.8067C24.9819 29.7212 22.4154 27.8922 22.4154 28.8067L23.2709 21.4855L29.2643 15.0789Z" fill="#0000C4" stroke="black" stroke-width="0.0499722"/>
<path fill-rule="evenodd" clip-rule="evenodd" d="M27.5534 16.9078C27.5534 17.8223 28.4089 25.1435 25.8375 26.9777C24.1265 28.8067 19.8442 28.3107 19.8442 28.3107L23.271 21.4855L27.5534 16.9078Z" fill="#E10000" stroke="black" stroke-width="0.0499722"/>
<path fill-rule="evenodd" clip-rule="evenodd" d="M31.0168 13.1667L23.1168 21.5L22.9751 21.3667L30.8751 13.0417L31.0168 13.175V13.1667Z" fill="black"/>
<path fill-rule="evenodd" clip-rule="evenodd" d="M32.2322 12.1788L31.7307 12.2673L31.5832 12.4148C31.6034 12.4133 31.4357 12.5623 31.6422 12.7688C31.8487 12.9753 32.1426 12.6792 32.1426 12.6792C32.1426 12.6792 32.0541 13.1807 31.7582 13.4765C31.4624 13.7723 31.1092 13.7125 31.1092 13.7125C31.1092 13.7125 31.4454 13.437 31.1977 13.211C30.9497 12.983 30.8437 13.152 30.8437 13.152L30.5487 13.447L30.3411 13.2393L31.5219 12.0585L31.6104 11.557L32.3711 11.431L32.2319 12.1768L32.2322 12.1788Z" fill="#CECECC" stroke="black" stroke-width="0.0139443"/>
<path fill-rule="evenodd" clip-rule="evenodd" d="M31.0684 8.67686L30.4616 9.61753L29.6934 9.82486L30.1949 10.1494L29.2804 10.1199L28.8663 10.4157L28.7179 10.1784L29.1333 9.88169L29.4569 8.96586L29.5463 9.5867L30.0186 8.90603L31.0688 8.67469L31.0684 8.67686Z" fill="#CECECC" stroke="black" stroke-width="0.0150143"/>
<path fill-rule="evenodd" clip-rule="evenodd" d="M28.6083 9.24165C28.6083 9.29165 28.6749 9.33415 28.7516 9.33415C28.8283 9.33415 28.8983 9.29165 28.8983 9.24165C28.8983 9.19165 28.8316 9.14665 28.7516 9.14665C28.6716 9.14665 28.6083 9.18915 28.6083 9.24165ZM28.8149 9.43915C28.8149 10.3341 28.1183 14.1341 28.0616 14.2266C28.0583 14.3391 28.2216 14.3866 28.2983 14.2491C28.5183 13.8141 28.9916 10.2491 29.0083 9.41665C29.0183 9.07415 28.8849 9.04665 28.7316 9.05415C28.6083 9.05915 28.4549 9.14665 28.4549 9.25165C28.4549 9.37665 28.6483 9.46915 28.8149 9.43915Z" fill="#E10000" stroke="black" stroke-width="0.0288675"/>
<path fill-rule="evenodd" clip-rule="evenodd" d="M28.3334 10.1292C28.3584 10.1792 28.443 10.205 28.5158 10.1859C28.5886 10.1667 28.6339 10.1067 28.6089 10.0567C28.5839 10.0067 28.498 9.97836 28.422 9.99836C28.346 10.0184 28.3071 10.0767 28.3334 10.1292ZM28.6285 10.275C28.3985 12.0725 29.17 14.8484 29.1637 14.9575C29.2155 15.0684 29.3957 15.0775 29.3985 14.9184C29.4365 14.815 28.5482 12.3075 28.8009 10.2042C28.6391 9.85919 28.4987 9.86503 28.3568 9.91086C28.2421 9.94669 28.1402 10.0725 28.1927 10.1775C28.2552 10.3025 28.4851 10.3467 28.6285 10.275Z" fill="#0000C4" stroke="black" stroke-width="0.030253"/>
<path fill-rule="evenodd" clip-rule="evenodd" d="M30.7834 12.625C30.7834 12.7083 30.8668 12.7917 30.9584 12.7917C31.0584 12.7917 31.1418 12.7083 31.1418 12.625C31.1418 12.5417 31.0584 12.475 30.9584 12.475C30.8584 12.475 30.7834 12.5417 30.7834 12.625ZM31.0334 12.9583C30.8339 15.6313 30.5225 18.2947 30.1001 20.9417C30.1001 21.125 30.2918 21.2083 30.3918 20.975C30.6668 20.25 31.2584 14.3083 31.2834 12.925C31.2918 12.35 31.1251 12.3083 30.9334 12.3167C30.7751 12.325 30.5918 12.475 30.5918 12.65C30.5918 12.85 30.8334 13.0083 31.0418 12.9583H31.0334Z" fill="#E10000" stroke="black" stroke-width="0.0583333"/>
<path fill-rule="evenodd" clip-rule="evenodd" d="M30.325 13.3946C30.3583 13.4746 30.4666 13.5176 30.5586 13.4888C30.6506 13.4601 30.7063 13.3658 30.673 13.2858C30.6396 13.2058 30.5296 13.1588 30.4336 13.1888C30.3376 13.2188 30.29 13.3106 30.325 13.3946ZM30.7046 13.6331C30.468 16.4828 31.535 20.9098 31.5303 21.0831C31.5996 21.2603 31.829 21.2791 31.8276 21.0263C31.8726 20.8631 30.6656 16.8596 30.9216 13.5246C30.7053 12.9728 30.527 12.9788 30.348 13.0483C30.2033 13.1026 30.0776 13.3001 30.1476 13.4681C30.231 13.6681 30.5246 13.7436 30.7046 13.6331Z" fill="#0000C4" stroke="black" stroke-width="0.0426145"/>
<path fill-rule="evenodd" clip-rule="evenodd" d="M16.9228 35.2134C17.3133 35.4532 17.7557 35.5793 18.2061 35.5793C18.6564 35.5793 19.0988 35.4532 19.4893 35.2134V27.8922H17.7783C18.6338 30.6357 18.6338 33.3844 16.918 35.2134H16.9228Z" fill="#E10000" stroke="black" stroke-width="0.0499722"/>
<path fill-rule="evenodd" clip-rule="evenodd" d="M18.2777 28.0542C18.2777 33.2167 17.0381 34.3659 17.0381 35.4042C17.5543 35.4042 17.8985 34.9201 18.2777 34.2551C18.7939 33.2167 18.8435 27.9726 18.7939 28.0542H18.2777Z" fill="#0000C4" stroke="black" stroke-width="0.0412479"/>
<path fill-rule="evenodd" clip-rule="evenodd" d="M17.2452 28.0542C17.2189 31.07 15.9385 33.8642 16.1806 34.4825C16.4548 35.0367 17.2452 33.2167 18.2777 34.2492C18.7939 33.2167 18.8435 27.9725 18.7939 28.0484H17.2452V28.0542Z" fill="#0000C4" stroke="black" stroke-width="0.0412479"/>
<path fill-rule="evenodd" clip-rule="evenodd" d="M17.3609 27.6142C17.3609 31.0067 16.1738 31.2329 16.1738 32.1375C16.6901 32.1375 17.358 31.643 17.3609 31.689C17.8772 31.0067 17.9267 27.5605 17.8772 27.6142H17.3609Z" fill="#FFDF00" stroke="black" stroke-width="0.0334373"/>
<path fill-rule="evenodd" clip-rule="evenodd" d="M16.3284 27.6142C16.3022 29.596 15.0509 31.2827 15.293 31.689C15.5701 32.0494 16.3284 31.0067 17.3609 31.689C17.8772 31.0067 17.9268 27.5605 17.8772 27.6142H16.3284Z" fill="#FFDF00" stroke="black" stroke-width="0.0334373"/>
<path fill-rule="evenodd" clip-rule="evenodd" d="M22.4107 35.2134C22.0202 35.4532 21.5778 35.5793 21.1274 35.5793C20.6771 35.5793 20.2347 35.4532 19.8442 35.2134V27.8922H21.5552C20.6997 30.6357 20.6997 33.3844 22.4155 35.2134H22.4107Z" fill="#E10000" stroke="black" stroke-width="0.0499722"/>
<path fill-rule="evenodd" clip-rule="evenodd" d="M21.0558 28.0542C21.0558 33.2167 22.2954 34.3659 22.2954 35.4042C21.7792 35.4042 21.435 34.9201 21.0558 34.2551C20.5396 33.2167 20.49 27.9726 20.5396 28.0542H21.0558Z" fill="#0000C4" stroke="black" stroke-width="0.0412479"/>
<path fill-rule="evenodd" clip-rule="evenodd" d="M22.0886 28.0542C22.1148 31.07 23.3952 33.8642 23.1532 34.4825C22.879 35.0367 22.0886 33.2167 21.0561 34.2492C20.5398 33.2167 20.4902 27.9725 20.5398 28.0484H22.0886V28.0542Z" fill="#0000C4" stroke="black" stroke-width="0.0412479"/>
<path fill-rule="evenodd" clip-rule="evenodd" d="M21.9726 27.6142C21.9726 31.0067 23.1597 31.2329 23.1597 32.1375C22.6434 32.1375 21.9755 31.643 21.9726 31.689C21.4563 31.0067 21.4068 27.5605 21.4563 27.6142H21.9726Z" fill="#FFDF00" stroke="black" stroke-width="0.0334373"/>
<path fill-rule="evenodd" clip-rule="evenodd" d="M23.005 27.6142C23.0313 29.596 24.2825 31.2827 24.0405 31.689C23.7634 32.0494 23.005 31.0067 21.9725 31.689C21.4563 31.0067 21.4067 27.5605 21.4563 27.6142H23.005Z" fill="#FFDF00" stroke="black" stroke-width="0.0334373"/>
<path fill-rule="evenodd" clip-rule="evenodd" d="M13.1358 28.4633L12.2388 29.1123L13.1358 29.7613L13.5838 29.4368L13.8078 29.7613L14.0318 30.4103L14.2568 29.7613L14.4808 29.4368H26.4998V28.7878H14.4798L14.2558 28.4615C14.2558 28.137 14.3028 27.8125 14.4808 27.8125H15.3768C15.3768 27.488 14.9288 26.839 14.0318 26.839C13.1358 26.839 12.6868 27.488 12.6868 27.8125H13.5838C13.7608 27.8125 13.8078 28.137 13.8078 28.4633L13.5838 28.7878L13.1348 28.4615L13.1358 28.4633Z" fill="#908F8A" stroke="black" stroke-width="0.0609303"/>
<path fill-rule="evenodd" clip-rule="evenodd" d="M15.7668 30.0366H23.6232V30.4348H15.7692L15.7668 30.0366ZM15.7668 29.6361H23.6232V30.0366H15.7692L15.7668 29.6361ZM15.7668 29.2378H23.6232V29.6383H15.7692L15.7668 29.2378ZM15.7668 28.8396H23.6232V29.2378H15.7692L15.7668 28.8396ZM15.7668 28.4413H23.6232V28.8396H15.7692L15.7668 28.4413ZM15.7668 28.0408H23.6232V28.4413H15.7692L15.7668 28.0408ZM15.7668 27.6448H23.6232V28.0408H15.7692L15.7668 27.6448Z" fill="#B74D00" stroke="black" stroke-width="0.0412432"/>
<path fill-rule="evenodd" clip-rule="evenodd" d="M16.1414 27.6212L19.0122 30.4112H19.4226L16.5539 27.6234H16.1434L16.1414 27.6212Z" fill="#908F8A" stroke="black" stroke-width="0.0714471"/>
<path fill-rule="evenodd" clip-rule="evenodd" d="M16.1414 30.4955L19.0122 27.7055H19.4226L16.5539 30.4932H16.1434L16.1414 30.4955Z" fill="#908F8A" stroke="black" stroke-width="0.0714471"/>
<path fill-rule="evenodd" clip-rule="evenodd" d="M16.2212 27.6212V30.4112H16.6342V27.6212H16.2212Z" fill="#908F8A" stroke="black" stroke-width="0.0710299"/>
<path fill-rule="evenodd" clip-rule="evenodd" d="M19.833 27.6212L22.7038 30.4112H23.1143L20.2455 27.6234H19.8351L19.833 27.6212Z" fill="#908F8A" stroke="black" stroke-width="0.0714471"/>
<path fill-rule="evenodd" clip-rule="evenodd" d="M19.833 30.4955L22.7038 27.7055H23.1143L20.2455 30.4932H19.8351L19.833 30.4955Z" fill="#908F8A" stroke="black" stroke-width="0.0714471"/>
<path fill-rule="evenodd" clip-rule="evenodd" d="M22.7878 27.6212V30.4112H23.2008V27.6212H22.7878Z" fill="#908F8A" stroke="black" stroke-width="0.0710299"/>
<path fill-rule="evenodd" clip-rule="evenodd" d="M19.9211 27.6212V30.4112H20.3341V27.6212H19.9211Z" fill="#908F8A" stroke="black" stroke-width="0.0710299"/>
<path fill-rule="evenodd" clip-rule="evenodd" d="M19.0879 27.6212V30.4112H19.5009V27.6212H19.0879Z" fill="#908F8A" stroke="black" stroke-width="0.0710299"/>
<path fill-rule="evenodd" clip-rule="evenodd" d="M25.4823 19.6565C25.4823 24.2031 22.7949 27.8921 19.4889 27.8921C16.1829 27.8921 13.4956 24.2031 13.4956 19.6565C13.4956 15.1098 16.1781 11.4156 19.4889 11.4156C22.7998 11.4156 25.4823 15.1046 25.4823 19.6513V19.6565ZM24.6268 19.6565C24.6268 23.6968 22.3261 26.9776 19.4889 26.9776C16.6518 26.9776 14.3511 23.6968 14.3511 19.6565C14.3511 15.611 16.6518 12.3302 19.4889 12.3302C22.3261 12.3302 24.6268 15.611 24.6268 19.6565Z" fill="#FFDF00" stroke="black" stroke-width="0.0499722"/>
<path fill-rule="evenodd" clip-rule="evenodd" d="M21.8235 12.0666C21.1034 11.6481 20.3155 11.4156 19.489 11.4156C18.6625 11.4156 17.8747 11.6481 17.1545 12.0615L17.4929 12.9088C18.1007 12.5343 18.7899 12.3372 19.4915 12.3372C20.193 12.3372 20.8822 12.5343 21.49 12.9088L21.8235 12.0615V12.0666Z" fill="#FFDF00" stroke="black" stroke-width="0.0499722"/>
<path fill-rule="evenodd" clip-rule="evenodd" d="M21.8401 27.025C21.12 27.4435 20.3321 27.676 19.5056 27.676C18.6791 27.676 17.8913 27.4435 17.1711 27.0301L17.5095 26.1828C18.1173 26.5573 18.8065 26.7545 19.5081 26.7545C20.2096 26.7545 20.8988 26.5573 21.5066 26.1828L21.8401 27.0301V27.025Z" fill="#FFDF00" stroke="black" stroke-width="0.0499722"/>
<path fill-rule="evenodd" clip-rule="evenodd" d="M24.6334 19.6583C24.6334 23.7 22.3251 26.975 19.4917 26.975C16.6584 26.975 14.3584 23.7 14.3584 19.6583C14.3584 15.6167 16.6584 12.325 19.4917 12.325C22.3251 12.325 24.6334 15.6083 24.6334 19.6583Z" fill="#A7CFFF"/>
<path fill-rule="evenodd" clip-rule="evenodd" d="M24.6269 19.6565C24.6801 21.0308 24.4046 21.7025 24.0517 23.1336C23.9599 23.2886 23.5201 22.7978 23.2591 22.555C22.9981 22.3121 22.8821 22.772 22.5534 22.4C22.2296 22.0176 22.0217 22.5033 21.7801 22.183C21.5384 21.8626 19.3006 21.8213 19.3006 21.7903C19.5229 21.6766 20.6636 21.8006 20.4799 21.2168C20.2721 20.6071 18.9816 21.1961 18.8076 20.4211C18.6867 19.6461 16.2169 19.6151 16.0381 19.4291C16.1106 19.7185 17.9617 19.8425 17.9182 20.5916C17.8747 20.9016 16.0961 20.9895 15.9221 21.2478C15.7771 21.5733 17.3237 21.16 17.3769 21.5578C17.3769 21.7231 17.1497 21.5578 16.3474 21.8161C15.9414 21.9453 17.0917 22.3483 16.6567 22.5705C16.2217 22.7926 15.2889 22.8908 15.3276 22.9838C15.4726 23.4488 17.4881 23.9965 17.2899 24.074C16.5746 24.415 16.1976 24.6371 15.8544 24.8335C14.8489 23.3238 14.3221 21.5095 14.3512 19.6565C15.8834 19.0675 15.5596 18.9435 18.3919 18.9435C21.2242 18.9435 22.1619 19.0623 24.6269 19.6565Z" fill="#AFFF7B" stroke="black" stroke-width="0.0499722"/>
<path fill-rule="evenodd" clip-rule="evenodd" d="M24.627 19.6565C24.2403 19.6565 23.8343 19.8321 23.4187 19.8321C22.9981 19.8321 22.5728 19.6513 22.1378 19.6513C21.7028 19.6513 21.205 19.889 20.7603 19.889C20.3108 19.889 19.9193 19.6565 19.4698 19.6565C19.0203 19.6565 18.5708 19.8321 18.1262 19.8321C17.6815 19.8321 17.2417 19.6513 16.8115 19.6513C16.3813 19.6513 15.956 19.8321 15.5452 19.8321C15.1343 19.8321 14.7332 19.6513 14.3513 19.6513C14.3513 18.6438 14.4963 17.6828 14.7573 16.8045C16.0623 16.9078 15.289 15.9933 16.0623 15.9933C16.2881 15.9802 16.5138 16.0186 16.7247 16.1059C16.9355 16.1932 17.1265 16.3274 17.2852 16.4996C17.4012 16.4996 17.9812 15.9106 18.6337 15.9933C19.2813 16.076 19.0445 17.4038 19.9097 17.471C20.3447 17.8223 20.6008 18.0445 21.2002 18.1891C22.0557 18.2718 24.5061 18.06 24.5206 18.1788C24.5912 18.6678 24.6268 19.1617 24.627 19.6565Z" fill="white" stroke="black" stroke-width="0.0499722"/>
<path fill-rule="evenodd" clip-rule="evenodd" d="M20.2651 23.9183C20.2651 23.6903 20.4901 23.5383 20.4901 23.1743C20.4901 22.8103 20.2901 22.8023 20.2834 22.4623C20.2801 22.3223 20.4551 22.1823 20.5318 22.1663C20.6084 22.1503 20.6734 22.4623 20.6734 22.5303C20.6734 22.5983 20.5951 22.3623 20.5301 22.3583C20.4651 22.3543 20.3251 22.3823 20.3251 22.4503C20.3251 22.5863 20.5718 22.7543 20.5534 23.2103C20.5351 23.6583 20.3418 23.7943 20.3418 23.9303C20.3418 24.0663 20.4251 24.4423 20.4251 24.4423C20.4251 24.4423 20.2634 24.1423 20.2634 23.9143L20.2651 23.9183Z" fill="black" stroke="black" stroke-width="0.0258199"/>
<path fill-rule="evenodd" clip-rule="evenodd" d="M20.9849 23.885C20.9849 23.657 20.7599 23.505 20.7599 23.141C20.7599 22.777 20.9599 22.769 20.9666 22.429C20.9832 22.269 20.7699 22.165 20.6932 22.153C20.6166 22.141 20.5266 22.473 20.5266 22.537C20.5266 22.601 20.6166 22.329 20.6816 22.325C20.7466 22.321 20.9249 22.349 20.9249 22.417C20.9249 22.553 20.6782 22.721 20.6966 23.177C20.7149 23.625 20.9082 23.761 20.9082 23.897C20.9082 24.033 20.8249 24.409 20.8249 24.409C20.8249 24.409 20.9866 24.109 20.9866 23.881L20.9849 23.885Z" fill="black" stroke="black" stroke-width="0.0258199"/>
<path fill-rule="evenodd" clip-rule="evenodd" d="M20.75 22.075C20.75 22.1833 20.6916 22.275 20.625 22.275C20.5583 22.275 20.5083 22.1833 20.5083 22.0666C20.5083 21.95 20.5583 21.8666 20.625 21.8666C20.6916 21.8666 20.75 21.9583 20.75 22.075ZM22.1666 22.825H22.2V24.45H22.1583L22.1666 22.825ZM22.5083 22.6916H22.55V24.3333H22.5083V22.6916Z" fill="black"/>
<path fill-rule="evenodd" clip-rule="evenodd" d="M22.3833 23.4333V23.3917L22.7166 23.45V23.4917L22.3833 23.4333Z" fill="black"/>
<path fill-rule="evenodd" clip-rule="evenodd" d="M17.6196 23.905C17.6196 23.905 18.8762 24.494 19.1517 24.8453C19.4224 25.1967 19.3161 25.1967 19.3161 25.1967L22.1049 25.3155C22.1049 25.1398 22.5979 25.1398 22.7091 24.7265C22.8202 24.3183 22.8202 24.1995 22.8202 24.1995L21.9454 24.494L21.9937 23.967H21.2301L21.1189 24.494L19.4756 24.4372L19.5867 23.0267L19.2581 23.0835L19.2097 24.4268C19.1517 24.4268 17.6727 24.0187 17.6147 23.905H17.6196Z" fill="#B74D00" stroke="black" stroke-width="0.0499722"/>
<path fill-rule="evenodd" clip-rule="evenodd" d="M15.0908 15.4921C15.0908 15.4921 16.913 14.9135 19.5423 14.9548C22.1717 14.9961 23.9938 15.6161 23.9552 15.6161C23.9165 15.6161 23.4525 14.6655 23.4525 14.6655C23.4525 14.6655 21.5965 14.123 19.5037 14.0816C17.4157 14.0403 15.5935 14.495 15.637 14.5363L15.0908 15.4921Z" fill="#FEDE00" stroke="#FEDE00" stroke-width="0.0499722"/>
<path fill-rule="evenodd" clip-rule="evenodd" d="M18.5 14.15L19.6333 14.1334L19.65 14.7917L18.5167 14.8167L18.5 14.15ZM15.9 14.5084L15.5 15.1667L16.85 15L16.7417 14.3584L15.9 14.525V14.5084ZM17.0417 14.2584L18.175 14.1667L18.225 14.8167L17.1 14.9167L17.0417 14.2584ZM21.1167 14.2L19.9917 14.1167L19.95 14.7834L21.075 14.85L21.1167 14.2ZM23.55 14.6167L23.9583 15.4167L22.7417 15.1167L22.875 14.475L23.5417 14.6084L23.55 14.6167ZM22.5667 14.3667L21.45 14.225L21.3667 14.875L22.4917 15.025L22.5667 14.3667Z" fill="#38A9F9"/>
<path fill-rule="evenodd" clip-rule="evenodd" d="M19.5424 15.8641L19.4215 15.1666L19.0542 15.7608L19.1895 15.0633L18.6434 15.4611L19.0107 14.8773L18.363 15.022L18.9189 14.6293L18.2664 14.5001L18.9189 14.3658L18.363 13.9731L19.0107 14.1178L18.6385 13.534L19.1895 13.9318L19.0542 13.2343L19.4215 13.8285L19.5424 13.131L19.668 13.8285L20.0305 13.2343L19.9 13.9318L20.4462 13.534L20.074 14.1178L20.7265 13.9731L20.1707 14.3658L20.8232 14.5001L20.1707 14.6293L20.7265 15.022L20.074 14.8773L20.4462 15.4611L19.9 15.0633L20.0354 15.7608L19.668 15.1666L19.5424 15.8641Z" fill="#FFDF00" stroke="black" stroke-width="0.0499722"/>
<path fill-rule="evenodd" clip-rule="evenodd" d="M20.5076 14.0625C20.5076 14.45 20.1941 14.7625 19.8046 14.7625C19.4151 14.7625 19.1016 14.45 19.1016 14.0625C19.1016 13.675 19.4151 13.3583 19.8046 13.3583C20.1941 13.3583 20.5076 13.675 20.5076 14.0667V14.0625Z" fill="#FFDF00" stroke="black" stroke-width="0.0444878"/>
<path fill-rule="evenodd" clip-rule="evenodd" d="M19.725 14.2166C19.725 14.2583 19.6166 14.3 19.4916 14.3C19.3666 14.3 19.2583 14.2583 19.2583 14.2166C19.2583 14.175 19.3583 14.1333 19.4916 14.1333C19.625 14.1333 19.725 14.1666 19.725 14.2166ZM20.225 14.2166C20.225 14.2583 20.15 14.3 20.0583 14.3C19.9666 14.3 19.875 14.2583 19.875 14.2166C19.875 14.1666 19.9583 14.1333 20.05 14.1333C20.1416 14.1333 20.225 14.1666 20.225 14.2166Z" fill="black"/>
<path d="M19.7007 14.504L19.7493 14.532C19.6323 14.4605 19.6856 14.487 19.8693 14.668C19.9742 14.607 19.9941 14.5515 20.0593 14.476" stroke="black" stroke-width="0.0504716"/>
<path d="M19.2352 14.8722L19.2739 14.9135C19.182 14.8102 19.2255 14.8618 19.4285 14.9962C19.6219 15.022 19.82 14.9342 19.936 14.7895" stroke="black" stroke-width="0.0499722"/>
<path fill-rule="evenodd" clip-rule="evenodd" d="M16.45 16.2333C16.45 16.2333 16.5333 16.9 16.025 17.7333C15.525 18.5583 15.6 18.2667 15.6 18.2667C15.6 18.2667 15.8333 18.725 15.7917 18.725C15.75 18.725 15.4 18.3083 15.4 18.3083L14.9833 18.7667C14.9833 18.7667 15.3667 18.0583 15.325 18.0583C15.2833 18.0583 15.2083 17.8083 15.2083 17.8083L15.5167 17.6833C15.5167 17.6833 15.9833 16.8167 15.9833 16.8583C15.9833 16.9 14.5917 17.8083 14.5917 17.8083L16.45 16.2417V16.2333ZM16.7583 16.4833C16.7167 16.4833 16.95 17.15 17.15 17.4833C17.3417 17.8167 17.3417 18.225 17.3417 18.225L18 18.5583L17.15 17.275L17.6917 17.475L16.7583 16.4833ZM16.7583 18.225C16.7583 18.225 17.225 18.725 17.2583 18.8917C17.2917 19.0583 17.3 19.425 17.3 19.425L17.1083 19.0083L16.8333 19.3833C16.8333 19.3833 17.0333 18.8 16.9917 18.7583C16.95 18.7167 16.6833 18.9667 16.6833 18.9667C16.6833 18.9667 16.8 18.6333 16.8 18.6C16.8 18.5667 16.8 18.35 16.7583 18.225ZM14.4333 19.3833C14.5917 19.2583 14.9 19.175 14.9 19.175C14.9 19.175 14.7083 19.5083 14.6667 19.5083C14.625 19.5083 14.5167 19.5083 14.4333 19.3833ZM19.775 17.5667C19.775 17.5667 20.7833 18.1833 20.7833 18.225C20.7833 18.2667 20.125 17.9333 20.125 17.9333L19.775 17.5667ZM17.9583 16.275C18.0417 16.3167 19.4333 17.475 19.3917 17.475C19.35 17.475 18.775 17.1417 18.775 17.1917V17.475L18.4583 16.8167L18.3833 17.0667L17.9667 16.275H17.9583ZM18.3083 18.1417L18.6917 18.925L19.0833 18.8417C19.0833 18.8417 18.35 18.1417 18.3083 18.1417ZM19.5083 17.6417L19.55 18.3917C19.55 18.3917 19.775 18.6 19.775 18.5583C19.775 18.5167 19.55 17.6833 19.5083 17.6417Z" fill="#B7E1FF"/>
<path fill-rule="evenodd" clip-rule="evenodd" d="M8.2168 7.45835C8.2168 7.45835 9.9668 6.49168 11.9585 5.77501C13.4238 5.23661 14.9358 4.8349 16.4751 4.57501C17.0585 4.57501 18.0751 6.05835 18.2418 6.05835C18.4085 6.05835 19.0835 5.64168 19.9335 5.64168C20.7835 5.64168 21.2751 6.30835 21.4501 6.30835H22.9668C23.1335 6.30835 22.4585 4.65835 22.9668 4.74168C23.2168 4.78335 25.3668 5.11668 27.3668 5.75835C29.3668 6.40835 32.2001 7.55835 32.2001 7.55835C32.2001 7.55835 27.5751 8.16668 26.3335 7.99168C26.1668 8.07501 26.3335 9.07501 26.0835 8.63335C25.7001 8.55001 24.2751 8.32501 24.0251 8.32501C23.7751 8.32501 23.3001 8.60835 22.6251 8.77501C21.9585 8.94168 21.1085 9.19168 21.1085 9.19168L22.2085 10.9167L20.8585 11.5833C20.8585 11.5833 20.0168 9.60001 19.6751 9.60001C19.3335 9.60001 19.1751 11 18.7501 10.9167C18.3335 10.8333 18.1668 9.60001 17.8251 9.26668C17.4918 8.94168 15.7085 8.81668 15.0335 8.65835C14.3668 8.49168 13.2751 8.36668 12.6835 8.20001C12.1001 8.03335 11.5001 8.61668 11.2501 8.61668C11.0001 8.61668 11.5835 8.11668 11.3335 8.03335C11.0835 7.95001 10.9168 8.28335 10.7501 8.28335C10.5835 8.28335 8.80846 7.95001 8.6418 7.86668C8.47513 7.78335 9.05846 7.45835 8.8918 7.45835H8.2168Z" fill="#984000"/>
<path fill-rule="evenodd" clip-rule="evenodd" d="M20.7883 6.6333C20.7883 7.09263 20.4107 7.4653 19.9468 7.4653C19.483 7.4653 19.1072 7.09263 19.1072 6.6333C19.1072 6.17397 19.483 5.80347 19.9468 5.80347C20.4107 5.80347 20.7883 6.17613 20.7883 6.6333Z" fill="#808080" stroke="#772600" stroke-width="0.0737426"/>
<path fill-rule="evenodd" clip-rule="evenodd" d="M16.5225 6.79165C16.6732 6.61565 16.86 6.34899 17.3482 6.34899C17.4607 6.30365 17.4607 6.03699 17.7217 6.03699C17.985 6.03699 17.9085 6.30365 18.0975 6.39432C18.2842 6.48232 19.821 6.30365 19.821 6.30365C19.821 6.30365 19.9695 6.43699 19.9695 6.61565C19.9695 6.79432 19.857 6.92499 19.821 6.92499C19.785 6.92499 18.2842 6.79165 18.1717 6.83699C18.0592 6.88232 17.985 6.92499 17.7217 6.92499C17.4607 6.92499 17.3842 6.61565 17.1975 6.61565C17.0107 6.61565 16.824 6.57032 16.5225 6.79432V6.79165Z" fill="#984000" stroke="#772600" stroke-width="0.129823"/>
<path d="M18.4709 10.6963C18.4484 10.6963 18.3989 10.5523 18.3224 10.4297C18.2684 10.2697 18.2009 10.3603 18.1334 10.1177C18.1424 9.86699 18.1492 9.82433 18.1334 9.58433C17.9804 9.45633 17.9152 9.41899 17.7959 9.18433C17.6069 8.99766 17.8252 8.67766 17.8612 8.44299C17.6947 8.40033 17.6137 8.74966 17.3594 8.87499C17.1749 9.02166 17.3369 8.57099 17.2469 8.30966C17.1862 7.93899 17.0039 8.49633 16.9364 8.65366C16.8127 8.75233 16.7744 8.88033 16.5989 8.69633C16.5989 8.56033 16.7092 8.17633 16.6619 8.10166C16.4864 8.20566 16.2569 8.51499 16.0747 8.56299C15.8902 8.51766 16.1129 8.16833 16.1129 7.90966C16.0454 7.88299 15.7822 8.59766 15.6742 8.60299C15.5662 8.60833 15.6134 7.90966 15.5617 7.92566C15.4829 8.05899 15.3232 8.33633 15.2129 8.43233C14.9992 8.39766 15.2444 7.96566 15.2759 7.80566C15.3119 7.61366 15.0757 8.17366 14.9497 8.20833C14.8574 8.30433 14.6752 8.36833 14.6122 8.38699C14.6842 8.22166 15.0397 7.88833 15.0172 7.79233C14.8079 7.80033 14.4907 8.12566 14.3129 8.16566C14.1959 8.16566 14.0339 8.21099 14.0137 8.20833C14.0227 7.99499 14.4502 7.81899 14.5177 7.68833C14.3084 7.72833 13.9057 7.94699 13.7887 8.12033C13.6492 8.15499 13.4737 8.20033 13.3387 8.12033C13.3589 7.92033 13.6739 7.53366 13.7437 7.40566C13.5524 7.50433 13.4579 7.58166 13.2554 7.62699C13.2172 7.67233 13.1092 7.76833 13.1429 7.67233C13.2037 7.48566 13.2937 7.40566 13.3679 7.27233C13.1992 7.30966 13.1362 7.42433 12.9562 7.53899C12.8414 7.54433 12.5129 7.93633 12.4027 7.94166C12.2161 8.11599 11.9982 8.23732 11.7659 8.29633C11.5949 8.33366 11.5117 8.37633 11.4284 8.47499C11.5139 8.29633 11.6444 8.12833 11.7659 8.03233C11.8401 7.87046 11.9594 7.74415 12.1034 7.67499C12.1462 7.61366 12.2632 7.59766 12.1394 7.58699C12.0337 7.69899 11.8537 7.82699 11.7659 7.89899C11.6512 7.98433 11.5184 8.06966 11.4644 8.03233C11.5252 7.84033 11.6332 7.79233 11.7277 7.63233C11.9257 7.48299 11.7277 7.57899 11.5769 7.63233C11.4802 7.73366 11.3069 7.81099 11.1652 7.89899C11.0077 7.94699 10.9019 8.05899 10.7152 8.12033C10.7152 8.18433 10.7692 8.00566 10.7917 7.94166C10.9447 7.74433 10.9852 7.68833 11.1652 7.63233C11.2102 7.55499 11.2642 7.58699 11.1292 7.58699C11.0257 7.69366 10.8862 7.75233 10.7534 7.85366C10.6207 7.88833 10.4474 7.89899 10.2674 7.89899C10.0334 7.93099 10.0537 7.95233 10.2674 7.80833C10.3867 7.67499 10.4857 7.70966 10.4924 7.54166C10.3507 7.66433 10.1774 7.75499 10.0042 7.85366C9.86015 7.85899 9.8219 7.89899 9.66665 7.89899C9.7409 7.80833 9.7859 7.69366 9.89165 7.63233C10.0492 7.42699 9.79265 7.59233 9.7409 7.63233H9.1784C9.0794 7.78166 9.1739 7.63233 9.2549 7.54166C9.35165 7.48299 9.4529 7.40566 9.44165 7.36566C9.32915 7.48033 9.2009 7.53366 9.10415 7.63233C9.00065 7.66966 8.87915 7.68566 8.87915 7.72033C8.9624 7.57899 9.09515 7.49099 9.18065 7.36566C9.30665 7.33366 9.41465 7.28566 9.44165 7.23233H8.9174H9.2909C9.48215 7.23233 9.64415 7.21099 9.8174 7.18699C10.1144 7.12833 9.7904 7.09899 9.6284 7.09899C9.59915 7.02966 9.7229 6.99233 9.8534 6.96566C9.9659 6.90166 10.1077 6.84566 10.2292 6.78699C10.3364 6.74828 10.4375 6.68881 10.5284 6.61099C10.4159 6.61633 10.4159 6.64833 10.3034 6.65366C10.4722 6.64033 10.5914 6.61099 10.7917 6.61099C10.9566 6.54656 11.1188 6.47269 11.2777 6.38966C11.3452 6.29366 11.3722 6.29899 11.2034 6.29899C11.3542 6.24299 11.5679 6.21366 11.6894 6.16566C11.8445 6.12716 11.9954 6.06812 12.1394 5.98966C12.2497 5.90166 12.3127 5.79766 12.4387 5.72299C12.5849 5.84033 12.5872 5.85633 12.8504 5.85633C13.0619 5.85366 13.1924 5.79233 13.3004 5.67766C13.4624 5.62433 13.4917 5.53366 13.6762 5.50166C13.8495 5.53394 14.0249 5.54821 14.2004 5.54433C14.3804 5.48833 14.5537 5.38433 14.6864 5.27766C14.8012 5.21099 14.9384 5.11499 15.0622 5.05633C15.1972 5.13899 15.3052 5.20566 15.4739 5.23499C15.6472 5.20299 15.7394 5.10166 15.8857 5.05633C15.9759 4.94254 16.0939 4.86514 16.2232 4.83499C16.4414 4.70699 16.4257 4.87499 16.5224 5.01099C16.6349 5.14966 16.7789 5.08299 16.9342 5.14433C17.0219 5.30433 17.0849 5.41099 17.1974 5.49899C17.2852 5.62699 17.3887 5.65899 17.5732 5.67766C17.6407 5.78433 17.5867 5.85899 17.7217 5.89899C17.7757 5.96833 17.8679 5.99499 17.9467 6.03233M21.0944 6.69899H21.6929C21.9089 6.70166 21.9832 6.77899 22.1812 6.78699H22.7054C22.8967 6.77899 22.9979 6.72566 23.1914 6.69899C23.5177 6.69366 23.4074 6.66433 23.3422 6.43233C23.2837 6.25899 23.2747 6.17633 23.1914 6.07766C23.1599 5.86433 23.0879 5.78966 23.0789 5.54433C23.0452 5.35766 22.9822 5.23233 23.0429 5.01099C23.1284 5.16299 23.1622 5.22433 23.3804 5.23499C23.6054 5.23499 23.6932 5.22699 23.8304 5.32299C23.9339 5.45366 24.0734 5.41099 24.2804 5.41099C24.4514 5.44833 24.4807 5.55233 24.6157 5.63233C24.7754 5.73899 24.8789 5.76566 25.1017 5.76566C25.2817 5.80566 25.4392 5.83499 25.5517 5.89899C25.6484 6.03499 25.7992 6.06966 26.0017 6.07766C26.1142 6.07766 26.2042 6.06433 26.3009 6.03233C26.4742 6.04299 26.6497 6.03233 26.8634 6.03233C27.0029 6.22433 27.0344 6.29633 27.2752 6.29899C27.4417 6.43766 27.5812 6.45899 27.7252 6.52033H28.2877C28.4902 6.53899 28.5532 6.63766 28.7377 6.69899C28.8959 6.78378 29.0582 6.85768 29.2237 6.92033C29.3847 6.95489 29.5483 6.97007 29.7119 6.96566C29.8492 7.05099 30.0179 7.05633 30.1237 7.14166C30.2789 7.18166 30.4904 7.22966 30.6097 7.27499C30.8077 7.30699 30.8842 7.38166 31.0597 7.40833C31.2104 7.46166 31.0102 7.50433 30.9089 7.54166C30.6884 7.53366 30.6727 7.43499 30.4589 7.40833C30.3464 7.33099 30.1754 7.34166 30.0089 7.27499H29.9729C30.1214 7.38166 30.2654 7.44833 30.1979 7.63233C30.0067 7.63233 29.8514 7.60299 29.6737 7.58699C29.4847 7.54433 29.3992 7.49899 29.1877 7.49899C29.3992 7.43766 29.4532 7.50433 29.5994 7.58699C29.6534 7.80033 29.5364 7.72033 29.3362 7.72033C29.1652 7.64833 29.0617 7.56033 28.8502 7.54166H28.4002C28.6229 7.55233 28.6702 7.65099 28.8119 7.76566C28.8232 7.83499 28.8097 7.82966 28.6994 7.85366C28.5824 7.73366 28.4317 7.69366 28.2494 7.63233C28.0717 7.62433 27.8849 7.60566 27.7252 7.54166C27.6149 7.53366 27.6329 7.37899 27.8759 7.63233C28.0222 7.73366 28.0739 7.81899 28.0627 7.89899C27.8692 7.84033 27.7747 7.74966 27.6509 7.67499C27.4826 7.60581 27.3046 7.57592 27.1267 7.58699C26.9332 7.52566 27.1469 7.49099 27.2752 7.72033C27.5542 7.95499 27.2392 7.85366 27.1267 7.80833C26.9579 7.75233 26.7824 7.66966 26.6384 7.63233C26.5259 7.59233 26.4269 7.55499 26.3009 7.54166C26.4967 7.56299 26.5619 7.64566 26.6384 7.80833C26.8364 7.96833 26.6294 7.89099 26.4517 7.85366C26.3392 7.73633 26.1929 7.67499 26.1142 7.54166C25.9274 7.43233 25.9207 7.30166 26.0399 7.58699C26.0692 7.67766 26.0624 7.87499 26.0759 7.89899C25.9387 7.72033 25.9679 7.67499 25.8149 7.67499C25.7092 7.58966 25.5562 7.52299 25.4774 7.40833C25.3334 7.39233 25.3244 7.33099 25.1782 7.27499C25.2974 7.44299 25.4572 7.60833 25.5517 7.76566C25.7227 7.87766 25.7699 7.97899 25.8892 8.07499C25.9364 8.17366 26.0692 8.25366 25.9274 8.12033C25.7654 7.93366 25.6462 7.88833 25.4032 7.76566C25.2637 7.63233 25.2142 7.57899 25.0657 7.45366C24.8632 7.37633 24.9419 7.33366 25.0657 7.58699C25.2074 7.74166 25.3154 7.91233 25.4392 8.03233C25.5362 8.16972 25.6499 8.28925 25.7767 8.38699C25.8104 8.44566 25.9117 8.45633 25.7767 8.47499C25.6642 8.35233 25.4977 8.27499 25.3649 8.16299C25.1782 8.10166 25.0904 7.98699 24.9532 7.85366C24.8632 7.69633 24.7192 7.57633 24.6157 7.45366C24.3997 7.35233 24.6584 7.54966 24.7282 7.67499C24.7754 7.83766 24.8362 7.96833 24.8767 8.12033C24.9397 8.26699 24.6877 8.08566 24.6157 8.03233C24.4676 7.91866 24.3014 7.84241 24.1274 7.80833C23.9783 7.77295 23.8282 7.7436 23.6774 7.72033C23.5087 7.66699 23.7697 7.84833 23.8664 8.03233C24.0554 8.24299 23.6797 8.06966 23.5672 8.03233C23.3814 7.99492 23.193 7.97974 23.0047 7.98699C22.7639 8.00299 22.9372 8.04033 23.0047 8.16299C23.0789 8.23233 23.1307 8.37633 23.1172 8.42966C22.9597 8.40299 22.8247 8.34966 22.6289 8.34166C22.4714 8.40299 22.2847 8.38699 22.1047 8.38699C22.0979 8.49899 22.1384 8.40299 22.2172 8.52033C22.3477 8.58166 22.4332 8.65633 22.4062 8.74166H21.3194C21.2002 8.77899 21.3442 8.76033 21.4319 8.92033C21.3824 9.06433 21.3194 9.00833 21.1687 9.00833C21.0674 8.96033 20.8627 8.93899 20.7569 8.87499C20.6512 8.87499 20.6602 8.84299 20.5702 8.82966C20.8852 9.09633 20.7277 9.02966 20.9077 9.22966C20.9369 9.24299 21.0089 9.27499 20.9437 9.27499L21.0944 6.69899Z" stroke="#772600" stroke-width="0.0857321"/>
<path d="M20.6623 9.56302V9.58435C20.6623 9.52302 20.6623 9.55769 20.7006 9.67502C20.7141 9.77102 20.6826 9.76035 20.6443 9.82969C20.6376 9.92835 20.6263 10.0004 20.6263 10.1177C20.6128 10.2137 20.5678 10.3044 20.5318 10.3844C20.4958 10.467 20.3406 10.515 20.3451 10.6297C20.2551 10.659 20.2528 10.5897 20.2506 10.4724C20.1966 10.4004 20.1786 10.3017 20.1381 10.2057C20.1156 10.115 20.0616 10.0457 20.0256 9.93902C19.9716 9.84035 19.9243 9.81102 19.8771 9.69635C19.8568 9.64302 19.8613 9.57369 19.8208 9.54169C19.7601 9.44835 19.7196 9.43502 19.6138 9.42969C19.5328 9.45102 19.5013 9.49369 19.4271 9.51769C19.3686 9.54169 19.2561 9.53369 19.1841 9.56302C19.1661 9.59769 19.2201 9.61635 19.2403 9.69635C19.1908 9.74435 19.1728 9.82702 19.1458 9.89635C19.1008 9.96302 19.0716 9.99502 19.0513 10.0964C19.0828 10.1577 19.0558 10.2404 19.0153 10.2964C19.0018 10.3977 18.9591 10.4537 18.9388 10.539C18.8803 10.5897 18.8578 10.635 18.8083 10.7177C18.7656 10.7897 18.7273 10.7844 18.6216 10.7844C18.5383 10.7577 18.5271 10.7044 18.4528 10.6724C18.4461 10.6457 18.4393 10.6377 18.4146 10.6297" stroke="#782600" stroke-width="0.0759342"/>
<path fill-rule="evenodd" clip-rule="evenodd" d="M18.6333 10.4583C18.6333 10.4583 18.5999 10.875 18.3333 11.15C18.0666 11.425 17.5166 11.7417 17.5166 11.7417C17.5166 11.7417 18.2583 11.3917 18.3333 11.4667C18.4166 11.55 17.8583 12.1583 17.8583 12.1583C17.8583 12.1583 18.5833 11.5167 18.6749 11.5167C18.7666 11.5167 18.9749 12.1417 19.0583 12.125C19.1333 12.1083 18.8916 11.3333 18.9249 11.2083C18.9583 11.0917 18.9249 10.4333 18.9249 10.4333L18.6416 10.4583H18.6333ZM20.3416 10.4083C20.3416 10.4083 20.3083 10.85 20.0416 11.1417C19.7749 11.4333 19.2249 11.775 19.2249 11.775C19.2249 11.775 19.9666 11.4 20.0416 11.4833C20.1249 11.5667 19.5666 12.2167 19.5666 12.2167C19.5666 12.2167 20.2916 11.5333 20.3833 11.5333C20.4749 11.5333 20.6833 12.2 20.7666 12.1833C20.8416 12.1667 20.5999 11.3333 20.6333 11.2083C20.6666 11.075 20.6333 10.375 20.6333 10.375L20.3416 10.4083ZM17.9499 6.40833C17.9499 6.48333 17.8666 6.55 17.7749 6.55C17.6833 6.55 17.5916 6.48333 17.5916 6.4C17.5916 6.31667 17.6749 6.25 17.7749 6.25C17.8749 6.25 17.9499 6.31667 17.9499 6.4V6.40833Z" fill="#812E00"/>
</g>
</g>
<defs>
<clipPath id="clip0_769_16313">
<path d="M0 20C0 8.95431 8.95431 0 20 0C31.0457 0 40 8.95431 40 20C40 31.0457 31.0457 40 20 40C8.95431 40 0 31.0457 0 20Z" fill="white"/>
</clipPath>
<clipPath id="clip1_769_16313">
<rect width="53.3333" height="40" fill="white" transform="translate(-7)"/>
</clipPath>
</defs>
</svg>
