<svg width="40" height="40" viewBox="0 0 40 40" fill="none" xmlns="http://www.w3.org/2000/svg">
<g clip-path="url(#clip0_769_16455)">
<path d="M0 20C0 8.95431 8.95431 0 20 0C31.0457 0 40 8.95431 40 20C40 31.0457 31.0457 40 20 40C8.95431 40 0 31.0457 0 20Z" fill="#E94E0F"/>
<g clip-path="url(#clip1_769_16455)">
<path d="M-7 26.6666H46.3333V39.9999H-7V26.6666Z" fill="black"/>
<path d="M-7 13.3333H46.3333V26.6666H-7V13.3333Z" fill="white"/>
<path d="M-7 -6.10352e-05H46.3333V13.3333H-7V-6.10352e-05Z" fill="#CE1126"/>
<path d="M19.7197 20.1599L24.2864 24.3999L23.9597 16.6999C23.9131 15.5333 22.8997 15.7999 22.1597 16.2199C21.4197 16.6999 20.5597 16.6999 19.6664 16.3866C18.7664 16.6999 17.9131 16.6999 17.1731 16.2199C16.4397 15.7999 15.4197 15.5333 15.3731 16.6999L15.0464 24.3999L19.7197 20.1599Z" fill="white" stroke="#C09300" stroke-width="0.0866667" stroke-linejoin="round"/>
<path d="M15.8997 16.4333L15.5797 23.9199L15.0464 24.3999L15.3731 16.6999C15.5305 16.5791 15.7091 16.4887 15.8997 16.4333ZM16.5397 16.9666L16.2731 23.2333L15.7397 23.7799L16.0597 16.5466C16.1664 16.6533 16.4797 16.9133 16.5397 16.9666ZM17.1197 17.4466L16.9131 22.6733L16.4797 23.0933L16.7464 17.1333C16.8531 17.2333 17.0664 17.3866 17.1197 17.4466ZM17.7531 17.7133L17.5464 22.1666L17.1264 22.5066L17.3331 17.5533C17.4397 17.5999 17.6464 17.7133 17.7531 17.7133ZM18.3397 17.7133L18.1864 21.4266L17.7531 21.8466L17.9197 17.7599C18.0197 17.7599 18.2931 17.7599 18.3397 17.7133Z" fill="#C09300"/>
<path d="M19.8797 20.9999L20.5197 23.9199L20.3063 24.1333L20.0863 23.9666L19.7263 21.3666L19.8797 23.9666L19.6663 24.2333L19.4597 23.9666L19.613 21.3666L19.2463 23.9666L19.0263 24.1333L18.813 23.9199L19.453 21.0066H19.8797V20.9999Z" fill="#C09300" stroke="#C09300" stroke-width="0.0733333"/>
<path d="M18.2331 19.7199L16.9597 24.2332L18.7131 24.4999L19.453 21.1066L18.2331 19.7199Z" fill="white" stroke="#C09300" stroke-width="0.08" stroke-linejoin="round"/>
<path d="M17.813 21.2666L17.9663 21.6333L18.793 20.8466" stroke="#C09300" stroke-width="0.0866667" stroke-linejoin="round"/>
<path d="M18.873 23.9199L18.6863 23.0399L18.5263 22.1466L18.133 22.6733L17.9663 22.0666L17.4197 22.6266L17.693 23.6399L18.0797 23.0133L18.2863 23.6533L18.6863 23.0399M18.3863 20.3333L18.5597 21.9533L19.0863 21.2599L18.3863 20.3333ZM18.873 21.5266L19.1597 22.5266L18.873 21.5266ZM19.273 22.1599L18.693 23.0399L19.273 22.1599Z" stroke="#C09300" stroke-width="0.0866667" stroke-linejoin="round"/>
<path d="M17.333 24.1333L17.6863 23.6333L17.913 24.3999L18.233 23.8666L18.4397 24.5066" stroke="#C09300" stroke-width="0.0866667" stroke-linejoin="round"/>
<path d="M23.3909 16.3964L23.7109 23.883L24.2443 24.363L23.9176 16.663C23.7601 16.5422 23.5815 16.4518 23.3909 16.3964ZM22.7509 16.9297L23.0176 23.1964L23.5509 23.743L23.2309 16.5097C23.1243 16.6164 22.8109 16.8764 22.7509 16.9297ZM22.1709 17.4097L22.3776 22.6364L22.8109 23.0564L22.5443 17.0964C22.4376 17.1964 22.2243 17.3497 22.1709 17.4097ZM21.5376 17.6764L21.7443 22.1297L22.1643 22.4697L21.9576 17.5164C21.8509 17.563 21.6443 17.6764 21.5376 17.6764ZM20.9509 17.6764L21.1043 21.3897L21.5376 21.8097L21.3709 17.723C21.2709 17.723 20.9976 17.723 20.9509 17.6764Z" fill="#C09300"/>
<path d="M19.6664 26.2533C20.9997 26.2533 22.2664 26.1466 23.0131 25.94C23.3264 25.88 23.3264 25.72 23.3264 25.5066C23.6464 25.4 23.4864 25.0266 23.7064 25.0266C23.4797 25.0933 23.4397 24.66 23.1731 24.7133C23.1731 24.34 22.7931 24.2933 22.4797 24.4C21.8464 24.6066 20.7264 24.66 19.6664 24.66C18.5997 24.6066 17.4931 24.6066 16.8531 24.3933C16.5397 24.2933 16.1664 24.34 16.1664 24.7133C15.8997 24.66 15.8531 25.0866 15.6331 25.0266C15.8531 25.0266 15.6864 25.4066 16.0064 25.5066C16.0064 25.72 16.0064 25.88 16.3264 25.94C17.0597 26.1466 18.3397 26.2533 19.6664 26.2533Z" fill="white" stroke="#C09300" stroke-width="0.16" stroke-linecap="round" stroke-linejoin="round"/>
<path d="M17.8597 24.2333C18.2864 24.2933 18.7664 24.34 19.1397 24.2933C19.3531 24.2933 19.5064 24.66 19.0797 24.7133C18.7131 24.76 18.1264 24.7133 17.8131 24.66C17.4007 24.5878 16.9915 24.4988 16.5864 24.3933C16.2131 24.2333 16.4797 23.9266 16.6931 23.9666C17.0736 24.0886 17.4639 24.1778 17.8597 24.2333ZM21.4731 24.2333C21.0464 24.2933 20.5664 24.34 20.2064 24.2933C19.9797 24.2933 19.8264 24.66 20.2531 24.7133C20.6264 24.76 21.2064 24.7133 21.5197 24.66C21.7864 24.6066 22.3731 24.5066 22.7464 24.3933C23.1197 24.2333 22.8531 23.9266 22.6397 23.9666C22.2591 24.0886 21.8688 24.1778 21.4731 24.2333Z" fill="white" stroke="#C09300" stroke-width="0.0866667" stroke-linecap="round" stroke-linejoin="round"/>
<path d="M16.533 24.0266C16.213 23.9666 16.0663 24.34 16.1663 24.5533C16.213 24.4466 16.433 24.4466 16.4796 24.34C16.5396 24.18 16.433 24.18 16.5396 24.0266H16.533ZM17.813 25.0066C17.813 24.7933 18.0196 24.82 18.0196 24.6066C18.0196 24.5066 17.9663 24.34 17.8596 24.34C17.8041 24.3432 17.7517 24.3667 17.7123 24.406C17.673 24.4453 17.6495 24.4978 17.6463 24.5533C17.5996 24.76 17.813 24.7933 17.813 25.0066ZM19.3263 24.4C19.6396 24.4 19.6063 24.82 19.4596 25.0333C19.4596 24.88 19.193 24.82 19.193 24.7133C19.193 24.5533 19.433 24.5533 19.3263 24.4ZM22.793 24.0266C23.1196 23.9666 23.273 24.34 23.1663 24.5533C23.1196 24.4466 22.8996 24.4466 22.853 24.34C22.793 24.18 22.8996 24.18 22.793 24.0266ZM21.533 25C21.533 24.7866 21.3196 24.8133 21.3196 24.6C21.3196 24.5 21.373 24.3333 21.4796 24.3333C21.5352 24.3365 21.5876 24.36 21.6269 24.3993C21.6663 24.4387 21.6898 24.4911 21.693 24.5466C21.7396 24.7533 21.5263 24.7866 21.5263 25H21.533ZM19.9996 24.4C19.6863 24.4 19.7196 24.82 19.8663 25.0333C19.8663 24.88 20.133 24.82 20.133 24.7133C20.133 24.5533 19.893 24.5533 19.9996 24.4Z" fill="white" stroke="#C09300" stroke-width="0.0866667" stroke-linecap="round" stroke-linejoin="round"/>
<path d="M16.6465 24.1333C16.7532 24.1333 16.9131 24.18 16.9598 24.24L16.6465 24.1333ZM17.1732 24.2933C17.2265 24.2933 17.4398 24.34 17.5398 24.4L17.1732 24.2933ZM19.0798 24.5066C18.9798 24.5066 18.7665 24.5066 18.7132 24.5533L19.0798 24.5V24.5066ZM18.4998 24.5066C18.4398 24.4466 18.2331 24.4466 18.1265 24.5066H18.4998ZM22.6865 24.1333C22.5734 24.1347 22.4636 24.1721 22.3732 24.24L22.6865 24.1333ZM22.1665 24.2933C22.0998 24.2933 21.8998 24.34 21.7931 24.4L22.1665 24.2933ZM20.2531 24.5066C20.3531 24.5066 20.5665 24.5066 20.6265 24.5533L20.2531 24.5V24.5066ZM20.8332 24.5066C20.8932 24.4466 21.0998 24.4466 21.2065 24.5066H20.8332Z" fill="white" stroke="#C09300" stroke-width="0.06" stroke-linecap="round" stroke-linejoin="round"/>
<path d="M16.5535 24.9733C16.5201 24.9666 16.5001 24.9333 16.5135 24.9066C16.5201 24.86 16.5535 24.84 16.5801 24.8533C16.6068 24.8533 16.6401 24.8933 16.6401 24.9066L16.6135 24.9533L16.6001 24.96C16.6001 24.9733 16.5735 24.9733 16.5535 24.9733ZM20.2201 25.2333C20.2068 25.2333 20.1801 25.2 20.1801 25.1866C20.1801 25.16 20.2201 25.12 20.2468 25.12L20.3001 25.1466C20.3201 25.1666 20.3201 25.2066 20.2935 25.2266C20.2801 25.24 20.2401 25.24 20.2201 25.2266V25.2333ZM20.2401 25.4C20.2135 25.3866 20.2068 25.3733 20.2001 25.3466C20.2001 25.3133 20.2001 25.3066 20.2335 25.2866L20.2601 25.2733L20.2868 25.2866C20.3135 25.3 20.3335 25.3133 20.3335 25.34C20.3335 25.36 20.3135 25.38 20.2868 25.3933C20.2668 25.4066 20.2601 25.4066 20.2401 25.3933V25.4Z" fill="#C09300"/>
<path d="M16.8533 24.6666C16.8267 24.6666 16.7933 24.6933 16.7733 24.7066C16.7333 24.7133 16.68 24.74 16.64 24.7066C16.6 24.7 16.5467 24.7066 16.54 24.76C16.5467 24.8066 16.6067 24.8266 16.6467 24.8C16.6733 24.7666 16.7467 24.74 16.76 24.8C16.7267 24.8533 16.7333 24.9133 16.7067 24.96C16.7067 24.9933 16.6867 25.02 16.6733 25.0466C16.64 25.0466 16.6067 25.0466 16.58 25.0666C16.5593 25.0666 16.5389 25.0714 16.5204 25.0807C16.5019 25.09 16.4857 25.1034 16.4733 25.12C16.4467 25.16 16.42 25.2 16.4133 25.2533C16.42 25.2933 16.48 25.3066 16.52 25.3133L16.6533 25.3533L16.8667 25.4133C16.9733 25.4466 17.08 25.46 17.1867 25.4866L17.22 25.4933C17.2667 25.5066 17.2867 25.46 17.2867 25.4266L17.3533 25.1866C17.3667 25.1533 17.3867 25.0866 17.3267 25.1C17.2933 25.12 17.26 25.1533 17.22 25.1533C17.16 25.1533 17.1933 25.22 17.22 25.24C17.22 25.28 17.2067 25.3266 17.1867 25.36C17.1467 25.38 17.1067 25.36 17.0667 25.3466C17.0333 25.3466 16.9533 25.3266 16.9867 25.28L17.02 25.16C17.04 25.12 17.04 25.0733 17.0533 25.0266C17.0267 24.98 16.9867 25.0466 16.9533 25.0533C16.9267 25.0666 16.8467 25.0733 16.8867 25.12C16.9267 25.1466 16.9 25.1933 16.8867 25.2333C16.8867 25.28 16.8333 25.3 16.7933 25.28C16.7533 25.28 16.6933 25.2466 16.7267 25.2066L16.76 25.0866L16.8067 24.9533C16.8067 24.9066 16.8267 24.8733 16.8467 24.8333C16.8467 24.7866 16.88 24.7466 16.88 24.7C16.88 24.68 16.8667 24.6733 16.8533 24.6733V24.6666ZM16.6067 25.1533C16.6097 25.1515 16.6132 25.1506 16.6167 25.1506C16.6202 25.1506 16.6236 25.1515 16.6267 25.1533C16.64 25.1666 16.64 25.18 16.6267 25.1933L16.6067 25.2066C16.5733 25.2066 16.5667 25.2 16.5667 25.1866C16.5667 25.18 16.5667 25.1733 16.5867 25.1666C16.5948 25.1608 16.6038 25.1563 16.6133 25.1533H16.6067ZM16.54 25.4866C16.5067 25.46 16.5133 25.44 16.56 25.4C16.5867 25.3866 16.5933 25.3866 16.62 25.4066C16.66 25.44 16.66 25.46 16.62 25.4933C16.6067 25.5066 16.6 25.5066 16.5867 25.5066C16.5667 25.5066 16.56 25.5066 16.54 25.4933V25.4866ZM16.74 25.5533C16.7251 25.5487 16.7126 25.5384 16.7051 25.5247C16.6977 25.511 16.6958 25.495 16.7 25.48C16.7133 25.4533 16.72 25.4466 16.76 25.4466C16.8067 25.4466 16.8133 25.4533 16.82 25.4933C16.82 25.52 16.82 25.5266 16.8 25.54C16.7926 25.5458 16.784 25.5501 16.7748 25.5524C16.7656 25.5547 16.756 25.555 16.7467 25.5533H16.74ZM22.6867 25.5533C22.6733 25.5466 22.6667 25.54 22.6667 25.52C22.6667 25.4933 22.68 25.4733 22.72 25.46C22.76 25.44 22.7867 25.44 22.8 25.4733C22.82 25.5133 22.82 25.5266 22.7933 25.5533C22.78 25.5733 22.7733 25.5733 22.74 25.5733C22.7067 25.5733 22.7 25.5733 22.6867 25.56V25.5533ZM17.02 25.6333C16.9933 25.6333 16.98 25.6066 16.98 25.58C16.98 25.56 16.98 25.5533 16.9933 25.54L17.0333 25.5266L17.0733 25.5333C17.1067 25.56 17.1133 25.5866 17.0933 25.6133C17.0733 25.64 17.0533 25.64 17.0133 25.6333H17.02ZM18.4733 25.7L18.46 25.68C18.46 25.64 18.46 25.6066 18.4733 25.5666C18.48 25.5333 18.4733 25.5 18.4867 25.4666L18.5133 25.28C18.5133 25.2466 18.5133 25.2133 18.5267 25.1866C18.5333 25.1333 18.5267 25.0866 18.54 25.04C18.54 25.02 18.56 24.9733 18.58 25C18.6067 25.04 18.64 25.0666 18.6733 25.1C18.7 25.12 18.6733 25.1466 18.6533 25.1533C18.6267 25.16 18.62 25.1933 18.62 25.22L18.6067 25.3C18.6067 25.3466 18.6067 25.3866 18.5933 25.4333L18.5867 25.5533L18.5733 25.6333C18.5733 25.66 18.5733 25.6933 18.5467 25.7066C18.5267 25.72 18.4933 25.72 18.48 25.7H18.4733ZM20.4533 25.0466L20.3667 25.1266C20.3267 25.16 20.4 25.1733 20.4067 25.2C20.42 25.24 20.42 25.28 20.42 25.32C20.4333 25.36 20.44 25.3933 20.4333 25.4333C20.4333 25.48 20.38 25.4666 20.3533 25.4933C20.32 25.5066 20.3067 25.54 20.2867 25.56C20.2708 25.5934 20.2617 25.6297 20.26 25.6666C20.26 25.7 20.24 25.7333 20.26 25.76L20.2667 25.7733H20.3L20.4 25.7666C20.48 25.7533 20.5667 25.7533 20.6467 25.7466L20.7933 25.7333C20.8333 25.74 20.8533 25.7 20.8533 25.6666C20.8267 25.62 20.8467 25.5733 20.8267 25.5333C20.8133 25.48 20.82 25.4333 20.8133 25.3866C20.8133 25.3466 20.7667 25.3333 20.7467 25.36C20.72 25.3866 20.68 25.3933 20.6667 25.42C20.6467 25.46 20.7067 25.46 20.72 25.4866L20.7267 25.5866C20.7333 25.6266 20.6933 25.6266 20.66 25.6333C20.6267 25.6466 20.58 25.6533 20.56 25.6133C20.5467 25.58 20.5467 25.5466 20.5467 25.5133C20.5467 25.4466 20.5267 25.3933 20.5267 25.3333C20.5267 25.2666 20.5067 25.1933 20.5067 25.12C20.5067 25.0866 20.5 25.04 20.4533 25.0466ZM20.4133 25.5933H20.4333V25.6466L20.4133 25.6533C20.4046 25.6561 20.3957 25.6583 20.3867 25.66C20.3822 25.6601 20.3778 25.6601 20.3733 25.66C20.36 25.6466 20.36 25.6266 20.38 25.6066L20.4133 25.5933ZM18.4133 24.98C18.3933 24.98 18.36 25.0266 18.3333 25.02C18.2733 25.0266 18.28 25.0866 18.3267 25.1066V25.16C18.3333 25.2133 18.3 25.26 18.3067 25.3133C18.3067 25.3666 18.2867 25.4266 18.2867 25.4866C18.2667 25.5466 18.2667 25.6066 18.26 25.6666C18.2533 25.72 18.2133 25.7 18.18 25.6866V25.62C18.1867 25.56 18.1467 25.5466 18.1 25.54C18.0533 25.54 18.0333 25.5066 18.0467 25.4666C18.0667 25.44 18.1133 25.4466 18.1467 25.4466C18.2133 25.46 18.2067 25.3733 18.1733 25.34C18.1467 25.3 18.0933 25.2733 18.08 25.2333C18.08 25.18 18.0467 25.12 18 25.0933C17.9267 25.0866 17.8667 25.1466 17.8467 25.2133C17.8133 25.2133 17.78 25.2266 17.7533 25.24C17.7067 25.2533 17.64 25.3333 17.7067 25.3666C17.74 25.3733 17.8533 25.4 17.8 25.4466C17.7733 25.5 17.72 25.5 17.6733 25.4866C17.6267 25.4866 17.5733 25.46 17.5733 25.4066C17.5667 25.3533 17.5667 25.3 17.5467 25.2533C17.5333 25.2 17.4733 25.2133 17.4667 25.2666C17.42 25.3 17.4267 25.36 17.46 25.4C17.48 25.4466 17.46 25.5066 17.44 25.5466C17.4267 25.6133 17.36 25.6133 17.3133 25.6266C17.2933 25.64 17.2067 25.6266 17.24 25.6733C17.29 25.6963 17.3459 25.7033 17.4 25.6933C17.4533 25.6933 17.5 25.6466 17.5333 25.6C17.5667 25.5666 17.6267 25.5866 17.68 25.5866C17.7267 25.5866 17.78 25.62 17.8333 25.5933C17.8467 25.56 17.9133 25.4933 17.9333 25.56C17.9333 25.62 17.98 25.6466 18.0333 25.64C18.0933 25.64 18.0667 25.68 18.0667 25.72C18.0667 25.78 18.1133 25.8133 18.1667 25.84H18.22C18.2667 25.82 18.32 25.8 18.34 25.7466C18.36 25.7 18.36 25.6466 18.3733 25.6C18.3867 25.5266 18.4 25.4466 18.4 25.3733C18.42 25.3066 18.4133 25.2333 18.4267 25.16L18.4467 25.0066C18.4467 24.9733 18.4333 24.9733 18.4133 24.98ZM17.9667 25.2533C17.9733 25.2533 17.98 25.2666 17.98 25.2866C17.98 25.3133 17.9933 25.3333 18.0133 25.34V25.36L17.96 25.3733C17.9267 25.3733 17.9 25.36 17.88 25.34L17.8667 25.3266L17.8867 25.3133L17.92 25.28C17.94 25.26 17.9533 25.2533 17.9667 25.2533ZM22.3667 24.7266C22.3283 24.7294 22.2903 24.7361 22.2533 24.7466C22.1867 24.7466 22.1533 24.8133 22.22 24.8533C22.26 24.9533 22.32 24.8266 22.3867 24.84C22.48 24.8533 22.4867 24.96 22.5067 25.04C22.5067 25.1133 22.5333 25.1866 22.5533 25.26C22.62 25.3333 22.5067 25.38 22.46 25.3266C22.42 25.28 22.3267 25.2266 22.28 25.2866C22.22 25.3133 22.2133 25.3933 22.1667 25.42C22.0867 25.44 22.08 25.34 22.0333 25.3C21.9933 25.24 21.92 25.2333 21.86 25.22C21.8333 25.16 21.8467 25.06 21.7933 25.02C21.74 25.04 21.6467 25.1333 21.7267 25.18C21.7933 25.2466 21.6933 25.2733 21.66 25.3133C21.6067 25.3733 21.5933 25.4466 21.5933 25.5133C21.5067 25.56 21.4933 25.46 21.48 25.4C21.48 25.3266 21.4133 25.3466 21.3667 25.3733C21.3 25.4 21.2733 25.46 21.2333 25.5066V25.64C21.2467 25.7 21.3133 25.6733 21.3533 25.6666C21.42 25.64 21.4467 25.7133 21.3933 25.7533C21.3533 25.7933 21.2467 25.7733 21.26 25.8466H21.3667C21.4333 25.8266 21.5133 25.7733 21.52 25.6933C21.5333 25.6266 21.6333 25.6333 21.6867 25.62C21.7533 25.6 21.84 25.5933 21.86 25.6866C21.9067 25.7333 22.0067 25.7866 22.06 25.72C22.0854 25.7039 22.1057 25.681 22.1187 25.6538C22.1317 25.6267 22.1367 25.5965 22.1333 25.5666C22.1267 25.5133 22.22 25.5133 22.2467 25.5466C22.28 25.6 22.3867 25.5866 22.44 25.5466C22.4933 25.5133 22.5067 25.44 22.5867 25.44L22.9467 25.34C23.04 25.32 22.9333 25.26 22.9067 25.22C22.84 25.1866 22.7733 25.3333 22.6933 25.26C22.6267 25.2133 22.6333 25.1266 22.6133 25.0533C22.5933 24.96 22.6 24.8533 22.5333 24.7866C22.4933 24.74 22.4267 24.7266 22.3667 24.7266ZM21.9133 25.36C21.92 25.36 21.9333 25.36 21.9467 25.3733C21.9733 25.3866 21.9933 25.4133 21.9933 25.44C21.9933 25.4533 21.9933 25.4533 21.9733 25.46L21.94 25.4733C21.9267 25.4733 21.8933 25.4533 21.8933 25.44V25.4133C21.88 25.3866 21.88 25.3866 21.8933 25.3733L21.9133 25.36ZM22.3467 25.3866C22.3733 25.3866 22.3867 25.3866 22.4 25.4066C22.4067 25.4333 22.4 25.4466 22.3733 25.46L22.34 25.4733L22.3133 25.4533C22.3 25.4466 22.2933 25.44 22.2933 25.4266C22.2933 25.4066 22.32 25.3866 22.3467 25.38V25.3866ZM21.7467 25.3866C21.76 25.3866 21.7667 25.3866 21.7733 25.4C21.7867 25.4133 21.7933 25.42 21.7933 25.44V25.48C21.7933 25.5 21.7933 25.4933 21.7533 25.4933C21.7133 25.4933 21.7067 25.4933 21.7067 25.4533C21.7067 25.4266 21.7067 25.42 21.7267 25.4066C21.7333 25.3933 21.7467 25.3933 21.7533 25.3933L21.7467 25.3866ZM21.3867 25.4866C21.393 25.4885 21.3987 25.492 21.4033 25.4966C21.408 25.5013 21.4114 25.507 21.4133 25.5133C21.4133 25.5333 21.4133 25.5466 21.4 25.5533C21.38 25.56 21.3467 25.5666 21.3333 25.5533C21.3331 25.5511 21.3331 25.5488 21.3333 25.5466C21.32 25.54 21.32 25.5333 21.3333 25.5266V25.52L21.3467 25.5C21.3508 25.4935 21.357 25.4886 21.3643 25.4862C21.3716 25.4837 21.3795 25.4839 21.3867 25.4866ZM22 25.5666L22.0333 25.5733V25.6133H21.9533L21.9467 25.6C21.9467 25.5866 21.9467 25.58 21.96 25.5733L22 25.5666ZM20.86 25.8866C20.8533 25.8866 20.84 25.88 20.8533 25.8733C20.86 25.8533 20.8867 25.8466 20.9067 25.8333C20.943 25.8194 20.9751 25.7965 21 25.7666C21 25.74 21.0267 25.7266 21.0267 25.7L21.02 25.6066C21.011 25.5786 20.992 25.5549 20.9667 25.54C20.9467 25.5333 20.92 25.5266 20.9133 25.5C20.9133 25.48 20.9333 25.46 20.94 25.44L20.98 25.36C21 25.34 21.0267 25.36 21.0333 25.3733L21.0667 25.44C21.0867 25.46 21.1 25.48 21.1067 25.5066C21.12 25.5333 21.1333 25.5533 21.1333 25.5733L21.1467 25.66C21.1467 25.6933 21.1467 25.7333 21.1333 25.7666L21.0933 25.82C21.0733 25.84 21.0533 25.86 21.0267 25.8666C21.0067 25.8733 20.9933 25.8933 20.9667 25.8933H20.8667L20.86 25.8866ZM20.4 25.9133C20.3867 25.9 20.38 25.8933 20.38 25.8733C20.38 25.8533 20.38 25.8533 20.4 25.8333C20.4267 25.8066 20.44 25.8066 20.4933 25.8333C20.54 25.86 20.56 25.86 20.56 25.84C20.5667 25.8266 20.5933 25.8066 20.6267 25.8066C20.639 25.8071 20.6508 25.8118 20.66 25.82C20.6733 25.8333 20.68 25.84 20.68 25.8666C20.68 25.9 20.68 25.9 20.66 25.92C20.64 25.9333 20.64 25.9333 20.6133 25.9333C20.6015 25.9326 20.5901 25.9285 20.5806 25.9214C20.5711 25.9143 20.5639 25.9045 20.56 25.8933C20.56 25.88 20.56 25.8733 20.5467 25.8866L20.5333 25.8933C20.52 25.8933 20.4933 25.9133 20.48 25.9266L20.4467 25.9333C20.42 25.9333 20.42 25.9333 20.4 25.9133ZM19.08 25.32C19.0333 25.32 18.9867 25.36 18.98 25.4066C18.9933 25.4533 19.0333 25.5066 19.0067 25.5533C19.0267 25.62 18.9533 25.6466 18.9067 25.6133C18.88 25.5466 18.8667 25.48 18.82 25.4133C18.7667 25.4 18.7467 25.4866 18.7067 25.52C18.7267 25.5666 18.78 25.6133 18.7867 25.6733C18.8 25.74 18.76 25.8066 18.7133 25.8333C18.6667 25.88 18.6 25.8666 18.5467 25.8733C18.48 25.9133 18.5933 25.9266 18.6267 25.9266C18.6933 25.9333 18.7667 25.9266 18.8267 25.8733C18.8733 25.8533 18.8667 25.76 18.9267 25.7533L19.2467 25.7733C19.3 25.7866 19.3867 25.7666 19.4267 25.8066C19.4267 25.8733 19.4933 25.9266 19.5533 25.9533C19.5867 25.9666 19.62 25.92 19.6533 25.9133C19.72 25.8933 19.7 25.8133 19.74 25.78H20.0733C20.0867 25.78 20.0933 25.7466 20.1133 25.7333L20.1 25.6066C20.08 25.5533 20.1 25.4866 20.0667 25.44C20.0067 25.4266 19.96 25.4733 19.9067 25.48C19.84 25.5066 19.7933 25.5666 19.7867 25.6333C19.7533 25.6933 19.6933 25.62 19.72 25.5666L19.7133 25.5C19.68 25.4666 19.62 25.48 19.5733 25.4733L19.3733 25.46C19.3067 25.46 19.2467 25.4666 19.1933 25.4533C19.1267 25.4533 19.1267 25.3866 19.1267 25.3333C19.1133 25.3231 19.0967 25.3184 19.08 25.32ZM19.2133 25.5666L19.28 25.5733H19.3667C19.4333 25.5866 19.5 25.5866 19.5667 25.5866C19.58 25.5866 19.5933 25.6 19.6067 25.6133V25.7466C19.6067 25.7666 19.6067 25.7933 19.5933 25.8C19.5898 25.8053 19.5853 25.8098 19.58 25.8133C19.5702 25.8116 19.561 25.8077 19.5529 25.8019C19.5448 25.7961 19.5381 25.7886 19.5333 25.78V25.6866C19.5201 25.6754 19.5039 25.6685 19.4867 25.6666L19.3133 25.66L19.18 25.6533C19.16 25.6466 19.1333 25.6533 19.12 25.6266C19.1067 25.6133 19.1267 25.5866 19.1467 25.58C19.1676 25.5706 19.1904 25.566 19.2133 25.5666ZM19.9667 25.5866C19.9733 25.5866 19.98 25.5866 19.98 25.6066L19.9933 25.64C19.9933 25.6466 19.9933 25.6533 19.98 25.6533C19.9467 25.6666 19.9133 25.6666 19.9 25.6533C19.9 25.6466 19.9 25.62 19.9133 25.6133L19.9667 25.5866Z" fill="#C09300"/>
<path d="M19.6663 21.8133C21.8397 20.1466 21.653 17.6932 21.653 17.6932L21.4863 17.7066C21.0263 17.7066 19.9397 17.4399 19.6863 17.1133C19.4197 17.4133 18.2997 17.7133 17.8463 17.7133L17.6797 17.6932C17.6797 17.6932 17.4863 20.1399 19.6663 21.8133Z" fill="white" stroke="#C09300" stroke-width="0.0733333"/>
<path d="M21.4797 17.8666H21.4264C21.013 17.8666 20.053 17.6599 19.6797 17.3399C19.293 17.6333 18.313 17.8733 17.9064 17.8733C17.8884 17.8726 17.8706 17.8703 17.853 17.8666C17.8567 18.2879 17.9149 18.707 18.0264 19.1133C18.2938 20.0922 18.8687 20.9593 19.6664 21.5866C20.4645 20.9569 21.0394 20.0876 21.3064 19.1066C21.4172 18.7024 21.4755 18.2857 21.4797 17.8666Z" fill="white" stroke="#C09300" stroke-width="0.06"/>
<path d="M18.9597 17.6666C18.6016 17.7832 18.2293 17.8505 17.853 17.8666L17.8597 18.1399C17.8825 18.4669 17.9383 18.7908 18.0264 19.1066C18.2056 19.7622 18.5239 20.3716 18.9597 20.8932V17.6666ZM20.333 17.6666V20.9466C20.7898 20.4129 21.1223 19.7845 21.3064 19.1066C21.3943 18.7908 21.4502 18.4669 21.473 18.1399L21.4797 17.8732H21.4264C21.173 17.8732 20.733 17.7932 20.333 17.6599V17.6666Z" fill="#C09300"/>
<path d="M20.4865 16.8666C20.5332 16.8732 20.4265 16.6332 20.4265 16.6332C20.5465 16.7532 20.9865 16.7866 20.9865 16.7866C20.7198 16.6666 20.4532 15.7799 20.4865 15.0666C20.5132 14.3599 20.3865 14.0799 20.2865 13.9733C20.1532 13.8399 19.7198 13.7199 19.4398 13.7066C19.2732 13.6999 19.3065 13.8266 19.3065 13.8266C19.0065 13.7532 18.7065 13.7199 18.5732 13.8132C18.4532 13.8932 18.4265 14.3133 18.5198 14.2399C18.7398 14.0599 18.9332 14.2266 19.0665 14.4199C19.1865 14.5866 19.1798 15.0666 19.0065 15.6332C18.853 16.0616 18.6276 16.4607 18.3398 16.8132C18.6065 16.8132 18.9798 16.5799 18.9798 16.5799L18.8932 16.9466C19.1732 16.8132 19.3932 16.6066 19.3932 16.6066L19.6598 16.8866C19.7465 16.7666 19.9265 16.6066 19.9265 16.6066C19.9265 16.6066 20.1465 16.8399 20.4865 16.8733V16.8666Z" fill="white" stroke="#C09300" stroke-width="0.08"/>
<path d="M20.12 15.2466C20.12 15.2466 20.1733 16.2666 20.4266 16.6333M19.4066 15.1733C19.4066 15.1733 19.26 16.2666 18.98 16.5733L19.4066 15.1733ZM19.6466 15.1399C19.6466 15.1399 19.58 16.2533 19.3933 16.6066L19.6466 15.1399ZM19.8533 15.1866C19.8533 15.1866 19.8533 16.3999 19.92 16.6066L19.8533 15.1866Z" stroke="#C09300" stroke-width="0.0866667"/>
<path d="M19.1331 14.6399C19.1271 14.5626 19.1044 14.4875 19.0664 14.4199C18.9331 14.2199 18.7398 14.0599 18.5198 14.2399C18.5198 14.2399 18.5931 14.0066 18.7598 13.9999C18.8798 13.9932 19.1664 14.0932 19.4198 14.5199C19.4198 14.5199 19.2331 14.4799 19.1864 14.5199C19.1064 14.5866 19.1398 14.6399 19.1398 14.6399H19.1331Z" fill="#C09300" stroke="#C09300" stroke-width="0.02"/>
<path d="M18.4932 13.9533C18.5132 13.8866 18.5398 13.8332 18.5798 13.8132C18.7132 13.7199 19.0065 13.7466 19.3065 13.8266C19.3065 13.8266 19.2798 13.6999 19.4398 13.7066C19.7198 13.7199 20.1465 13.8399 20.2798 13.9733C20.3225 14.0201 20.3564 14.0743 20.3798 14.1332C20.3132 14.0399 20.1265 14.0466 20.0798 14.0533C20.0132 14.0599 19.9665 14.0532 19.8732 14.0799C19.8265 14.0932 19.7598 14.1066 19.7198 14.1332C19.6932 14.1599 19.6665 14.2399 19.6265 14.2399C19.5598 14.2399 19.5598 14.2266 19.5398 14.2066C19.5198 14.1733 19.5065 14.1333 19.4798 14.1399C19.4132 14.1466 19.2932 14.0933 19.1465 13.9733C18.9932 13.8533 18.9332 13.8266 18.7465 13.8399C18.5465 13.8533 18.4932 13.9666 18.4932 13.9666V13.9533Z" fill="#C09300" stroke="#C09300" stroke-width="0.02"/>
<path d="M19.5866 14.1266C19.6308 14.1266 19.6666 14.0908 19.6666 14.0466C19.6666 14.0024 19.6308 13.9666 19.5866 13.9666C19.5424 13.9666 19.5066 14.0024 19.5066 14.0466C19.5066 14.0908 19.5424 14.1266 19.5866 14.1266Z" fill="white"/>
</g>
</g>
<defs>
<clipPath id="clip0_769_16455">
<path d="M0 20C0 8.95431 8.95431 0 20 0C31.0457 0 40 8.95431 40 20C40 31.0457 31.0457 40 20 40C8.95431 40 0 31.0457 0 20Z" fill="white"/>
</clipPath>
<clipPath id="clip1_769_16455">
<rect width="53.3333" height="40" fill="white" transform="translate(-7 -6.10352e-05)"/>
</clipPath>
</defs>
</svg>
