<svg width="40" height="40" viewBox="0 0 40 40" fill="none" xmlns="http://www.w3.org/2000/svg">
<g clip-path="url(#clip0_769_17800)">
<path d="M0 20C0 8.95431 8.95431 0 20 0C31.0457 0 40 8.95431 40 20C40 31.0457 31.0457 40 20 40C8.95431 40 0 31.0457 0 20Z" fill="#E94E0F"/>
<g clip-path="url(#clip1_769_17800)">
<path d="M-7 0H46.3333V40H-7V0Z" fill="#E32118"/>
<path d="M-7 0H46.3333V26.6667H-7V0Z" fill="white"/>
<path d="M-7 0H46.3333V13.3333H-7V0Z" fill="#3E9A00"/>
<path d="M-7 0V40L8 20L-7 0Z" fill="#0073CE"/>
<path d="M16.4666 15.9834H22.8499V22.6667C22.8499 24.9167 19.9166 23.1834 19.6666 24.3834C19.2332 23.15 16.4832 24.9334 16.4832 22.5334L16.4666 15.9834Z" fill="white" stroke="black" stroke-width="0.0833333"/>
<path d="M20.1166 23.3167C20.1166 23.3167 20.0332 23.4 19.8832 23.3334C19.7332 23.2667 19.7166 19.05 19.7166 19.05C20.0499 18.6834 20.3166 18.5667 20.3166 18.5667L20.5166 18.7334C19.7666 19.1167 19.8332 19.6667 19.8999 20.6167C19.9166 20.9667 19.9166 21.4167 19.9999 21.85C20.1166 22.4 20.3499 22.8667 20.3666 23.2167C20.3832 23.4334 20.1166 23.3167 20.1166 23.3167Z" fill="#73452B" stroke="black" stroke-width="0.0166667"/>
<path d="M19.5999 18.4667H19.8999C19.6499 20.8834 19.8665 22.3167 19.8665 23.0167C19.8665 23.25 19.9999 23.3334 19.9832 23.3334C19.6832 23.6667 19.5332 23.3167 19.5332 23.3167L19.5999 18.4667Z" fill="#73452B" stroke="black" stroke-width="0.0166667"/>
<path d="M19.1334 23.3167C18.85 23.45 18.8167 23.1834 18.8334 23.15C19.45 21.9 19.7167 19.15 19.15 18.85L19.1834 18.5834C19.4 18.65 19.6 18.9334 19.6 18.9334C19.6834 22.0167 19.6 23.2834 19.55 23.3334C19.25 23.65 19.1334 23.2834 19.1167 23.25" fill="#A36629"/>
<path d="M19.1334 23.3167C18.85 23.45 18.8167 23.1834 18.8334 23.15C19.45 21.9 19.7167 19.15 19.15 18.85L19.1834 18.5834C19.4 18.65 19.6 18.9334 19.6 18.9334C19.6834 22.0167 19.6 23.2834 19.55 23.3334C19.25 23.65 19.1334 23.2834 19.1167 23.25" stroke="black" stroke-width="0.0166667"/>
<path d="M19.9333 22.1834C20.0833 22.6 20.15 22.9667 20.1167 23.3167M19.1167 23.2667C19.0667 23 19.55 22.3167 19.5167 21.6L19.1167 23.2667Z" stroke="black" stroke-width="0.0166667"/>
<path d="M20.5834 17.3334C20.6834 17.2167 20.6834 17.2167 20.8668 17.2167C20.9001 16.9667 21.3168 16.9667 21.3501 17.2834C21.6834 17.2167 21.7501 17.4167 21.6168 17.6167C21.9334 17.5334 22.2168 17.6167 22.1334 17.9834C22.7001 18.1334 22.4834 18.5334 22.2334 18.6167C22.2001 18.8667 21.9668 18.95 21.6501 18.85C21.2501 19.1334 21.0168 19.0334 20.8334 18.75C20.3834 18.8167 20.3501 18.7167 20.1501 18.4667C19.8001 18.6167 19.7334 18.6167 19.4334 18.4334C19.4168 18.6667 19.3334 18.6 19.1834 18.5834C19.2001 18.8834 19.0834 19.0167 18.8168 18.9167C19.0168 19.3334 18.5001 19.5167 18.2501 19.1667C18.0168 19.1834 18.0001 19.1167 17.8834 19.0334C17.7834 19.3667 17.4168 19.3167 17.3501 19.1334C16.8834 19.0667 16.9334 18.8167 17.3168 18.8C17.3501 18.5334 17.5834 18.5834 17.7334 18.6167C17.7501 18.45 17.8501 18.4834 17.9334 18.5167C17.8834 18.4 17.9168 18.3334 18.0668 18.3C17.8501 18.0167 17.9834 17.9167 18.2001 17.8167C18.0834 17.55 18.2834 17.5667 18.4334 17.55C18.4168 17.2667 18.5001 17.2167 18.8001 17.1834C18.7668 17.0834 18.8168 17 18.9834 17C18.8834 16.7167 19.0168 16.65 19.3168 16.7C19.3668 16.2834 20.2501 16.4834 20.1834 17.05C20.4334 17.0834 20.5168 17.1334 20.5834 17.3334Z" fill="#009A3B" stroke="black" stroke-width="0.0166667"/>
<path d="M18.7666 18.5167C18.8166 18.4334 18.9333 18.4167 19.0166 18.4667C18.9999 18.3167 19.0999 18.25 19.1666 18.2834M18.7999 17.1834C18.8666 17.2167 18.9499 17.1834 18.9666 17.3667C19.0999 17.1334 19.2666 17.2667 19.2666 17.5334L18.7999 17.1834ZM20.1833 17.05C20.1166 17.15 19.8666 17.15 19.8999 17.4167C19.8166 17.3 19.6499 17.2667 19.5833 17.3834L20.1833 17.05ZM20.5833 17.3334C20.5833 17.4 20.5666 17.6 20.4999 17.7L20.5833 17.3334ZM21.6166 17.6167C21.6333 17.6334 21.3833 17.6167 21.2666 17.7L21.6166 17.6167ZM22.2333 18.6167C22.1666 18.5834 22.0333 18.5 21.9333 18.6334C21.9333 18.5667 21.9333 18.3834 21.7499 18.3834L22.2333 18.6167ZM21.6499 18.85C21.6499 18.6834 21.6166 18.6334 21.5833 18.5834L21.6499 18.85ZM21.0999 18.6167C20.9666 18.5167 20.8333 18.6667 20.8333 18.75L21.0999 18.6167ZM20.1333 18.4667C20.1333 18.4 20.0833 18.2667 20.1999 18.2167L20.1333 18.4667ZM18.2333 19.1667C18.2666 19 18.3833 19 18.3666 18.9167C18.3499 18.7834 18.1999 18.6667 18.0166 18.85L18.2333 19.1667ZM18.3666 18.9167C18.4666 18.8834 18.5666 18.9 18.5999 18.95L18.3666 18.9167ZM18.0833 18.3C18.1499 18.2334 18.3166 18.25 18.4166 18.3H18.0833ZM18.4166 17.9C18.4999 17.9 18.6499 17.8667 18.6999 18.0167C18.8833 17.7334 19.0166 17.7667 19.0499 17.8334L18.4166 17.9ZM19.3833 17.8C19.5166 17.75 19.7499 17.8834 19.8833 18.1167C19.9499 17.9334 20.0499 17.9667 20.1499 17.95L19.3833 17.8ZM20.7833 18.1167C20.9999 18.0167 21.1333 18.2167 21.1999 18.3C21.2999 18.1667 21.3833 18.1667 21.4833 18.1667L20.7833 18.1167Z" stroke="black" stroke-width="0.0166667"/>
<path d="M19.4499 15.0417L19.0833 15.0584L18.8999 15.3917L18.6999 15.075L18.3333 15.0917L18.4999 14.7584L18.2999 14.45L18.6833 14.4334L18.8499 14.1L19.0499 14.4167L19.4166 14.4L19.2499 14.7334L19.4499 15.0417ZM17.8833 15.1667L17.5166 15.25L17.4166 15.6084L17.1499 15.3417L16.7999 15.425L16.8999 15.075L16.6499 14.8084L16.9999 14.7167L17.0999 14.3584L17.3666 14.625L17.7333 14.5417L17.6166 14.9L17.8833 15.1667ZM16.3666 15.475L16.0333 15.6417L16.0166 16.0084L15.6999 15.8084L15.3666 15.975L15.3999 15.6L15.0833 15.4L15.4166 15.2334L15.4499 14.8584L15.7499 15.0667L16.0833 14.9L16.0666 15.2667L16.3666 15.475ZM19.9333 15.0417L20.2999 15.0584L20.4666 15.3917L20.6666 15.075L21.0333 15.0917L20.8666 14.7584L21.0666 14.45L20.6999 14.4334L20.5166 14.1L20.3166 14.4167L19.9499 14.4L20.1166 14.7334L19.9333 15.0417ZM21.4999 15.1667L21.8499 15.25L21.9499 15.6084L22.2166 15.3417L22.5666 15.425L22.4666 15.075L22.7333 14.8084L22.3666 14.7167L22.2666 14.3584L21.9999 14.625L21.6499 14.5417L21.7499 14.9L21.4999 15.1667ZM22.9999 15.475L23.3333 15.6417L23.3499 16.0084L23.6666 15.8084L23.9999 15.975L23.9833 15.6L24.2833 15.4L23.9499 15.2334L23.9333 14.8584L23.6166 15.0667L23.2833 14.9L23.3166 15.2667L22.9999 15.475Z" fill="#FFD700" stroke="black" stroke-width="0.0583333"/>
<path d="M23.4501 22.5334L23.8667 23.1334L24.2501 22.5667L23.9834 22.0834L23.4501 22.5334ZM20.8001 24.2834L20.8334 24.8834C20.8334 24.8834 21.0001 24.8834 21.1501 24.8334C21.2834 24.7834 21.4001 24.6834 21.4001 24.6834L21.3834 24.3667L20.8001 24.2834ZM18.5667 24.2834L18.5334 24.8667C18.5334 24.8667 18.3834 24.8667 18.2334 24.8334C18.1001 24.8 17.9834 24.7167 17.9834 24.7167L17.8167 24.3167L18.5667 24.2834ZM15.8834 22.5334L15.4501 23.1334L14.9834 22.3667L15.3334 22L15.8834 22.5334Z" fill="white" stroke="black" stroke-width="0.0583333"/>
<path d="M17.9666 25.4834C17.9666 26.05 21.3999 26.05 21.3999 25.4834V24.6834C21.3999 25.1 17.9666 25.0167 17.9666 24.6834V25.4834Z" fill="white" stroke="black" stroke-width="0.0583333"/>
<path d="M14.8999 23.6334C15.1999 25.1667 17.9666 25.2 17.9666 25.2V24.6834C17.8999 24.4834 18.0166 24.4167 18.4666 24.35C18.6499 24.3334 18.5666 24.0667 18.5666 24.0667C18.5666 24.0667 17.3666 24.2834 16.5166 23.95C15.3666 23.4834 15.1999 22.5834 15.1999 22.5834C15.1999 22.5834 15.1166 23.2834 14.8999 23.6334ZM24.4499 23.6334C24.1666 25.1667 21.3999 25.2 21.3999 25.2V24.6834C21.4499 24.4834 21.3332 24.4167 20.8832 24.35C20.6999 24.3334 20.7999 24.0667 20.7999 24.0667C20.7999 24.0667 21.9999 24.2834 22.8499 23.95C23.9832 23.4834 24.1166 22.5834 24.1166 22.5834C24.1166 22.5834 24.2332 23.2834 24.4499 23.6334Z" fill="white" stroke="black" stroke-width="0.0583333"/>
<path d="M15.1167 23.05C14.35 22.6334 14.95 22.2 15.0167 20.9667C15.1334 21.7167 15.9834 22.0334 15.8834 22.5167C15.5334 22.5334 15.3667 22 15.2 22.5834L15.1167 23.05ZM24.2334 23.05C25 22.6167 24.3667 22.2 24.3 20.9667C24.1834 21.7167 23.35 22.0334 23.45 22.5167C23.7834 22.5334 23.95 22 24.1167 22.5834L24.2334 23.0334V23.05Z" fill="white" stroke="black" stroke-width="0.0583333"/>
<path d="M15.5832 23.6167L15.6665 23.6834L15.4832 23.8834C15.3999 23.9667 15.3915 24.0167 15.4415 24.0667C15.4999 24.125 15.5499 24.1 15.6082 24.0334L15.8165 23.8167L15.8832 23.8834L15.6832 24.1167C15.5749 24.2417 15.4749 24.2167 15.3832 24.1334C15.3166 24.0667 15.2666 23.9667 15.3832 23.8417L15.5832 23.6167ZM15.9165 23.9L15.9999 23.95L15.9832 24.35L16.1665 24.0667L16.2499 24.1167L15.9832 24.55L15.8832 24.5L15.8999 24.1L15.7166 24.3834L15.6332 24.3334L15.9165 23.9ZM16.0665 24.6L16.2999 24.1334L16.3832 24.1834L16.1665 24.6334L16.0665 24.6ZM16.4332 24.2L16.2499 24.6834L16.4332 24.75C16.5999 24.8084 16.6832 24.7334 16.7332 24.5917C16.7915 24.4417 16.7666 24.3417 16.5999 24.2667L16.4332 24.2ZM16.4999 24.3167C16.6665 24.375 16.6832 24.4417 16.6332 24.5667C16.5832 24.675 16.5499 24.7167 16.3832 24.6334L16.4999 24.3167ZM16.9832 24.3834L16.6832 24.8334L16.7999 24.8667L16.8665 24.75L17.0665 24.8L17.0832 24.9167L17.1999 24.9334L17.0832 24.4L16.9832 24.3834ZM17.0166 24.5L17.0499 24.7L16.9165 24.6834L17.0166 24.5ZM17.2666 24.425L17.2499 24.9417H17.4415C17.6249 24.95 17.6749 24.8584 17.6832 24.6917C17.6832 24.5417 17.6249 24.4417 17.4415 24.4417L17.2666 24.425ZM17.3665 24.5084C17.5499 24.5167 17.5749 24.575 17.5749 24.7C17.5665 24.825 17.5415 24.875 17.3582 24.85V24.5167L17.3665 24.5084ZM19.0166 25.15V25.6834H19.1332V25.4834C19.1332 25.4834 19.2332 25.4834 19.3165 25.4667C19.3749 25.45 19.4249 25.4084 19.4249 25.3C19.4249 25.2 19.3666 25.15 19.2666 25.15H19.0166ZM19.1332 25.2334H19.2499C19.3415 25.2334 19.3332 25.3834 19.2499 25.3834H19.1332V25.2334ZM19.6165 25.15L19.3999 25.6834H19.5166L19.5665 25.55H19.7832L19.8332 25.6834H19.9499L19.7332 25.15H19.6165ZM19.6665 25.2667L19.7499 25.4667H19.5999L19.6665 25.2667ZM19.9499 25.5834L20.2332 25.2334H19.9832V25.15H20.3832V25.2334L20.0832 25.5834H20.3832V25.6834H19.9499V25.5834ZM21.6332 24.55L21.7332 24.5334L21.7832 24.8334C21.7999 24.9417 21.7499 25.0084 21.6749 25.0417C21.5915 25.075 21.4749 25.0417 21.4665 24.9L21.5499 24.8834C21.5665 24.9667 21.5999 24.975 21.6332 24.9667C21.6749 24.95 21.6916 24.9 21.6832 24.85L21.6332 24.55ZM21.7999 24.5167L21.8916 24.5L21.9415 24.75C21.9582 24.8584 21.9915 24.9 22.0665 24.8917C22.1499 24.875 22.1582 24.825 22.1416 24.725L22.0832 24.4667L22.1832 24.45L22.2499 24.725C22.2832 24.8917 22.1999 24.95 22.0832 24.975C21.9915 24.9917 21.8832 24.975 21.8499 24.8084L21.7999 24.5167ZM22.3165 24.75L22.3999 24.7167C22.4415 24.7917 22.4999 24.7834 22.5499 24.7667C22.6165 24.7334 22.6332 24.675 22.5915 24.65C22.5415 24.625 22.4249 24.6667 22.3665 24.65C22.2915 24.6167 22.2582 24.5667 22.2666 24.5084C22.2666 24.425 22.3332 24.3917 22.4082 24.3667C22.4915 24.3417 22.5749 24.35 22.6332 24.45L22.5332 24.4834C22.4999 24.425 22.4499 24.4334 22.4165 24.45C22.3832 24.4667 22.3332 24.4917 22.3665 24.5334C22.3832 24.575 22.5082 24.55 22.5749 24.55C22.6415 24.55 22.6915 24.6 22.6999 24.6584C22.7165 24.75 22.6832 24.8 22.5749 24.8417C22.4499 24.8917 22.3332 24.8417 22.3165 24.75ZM22.7666 24.3334L22.6332 24.4L22.5999 24.3167L22.9665 24.1667L22.9999 24.2334L22.8665 24.3L23.0166 24.6667L22.9332 24.7167L22.7666 24.3334ZM22.9832 24.15L23.0665 24.1L23.2999 24.5334L23.2165 24.5834L22.9832 24.15ZM23.5499 24.1834L23.6499 24.15C23.6627 24.1816 23.6673 24.2159 23.6632 24.2497C23.6591 24.2835 23.6465 24.3157 23.6264 24.3432C23.6064 24.3708 23.5797 24.3927 23.5488 24.407C23.5179 24.4214 23.4838 24.4275 23.4499 24.425C23.1999 24.425 23.1665 24.1417 23.2082 24.05C23.2749 23.8917 23.4582 23.9 23.5415 23.9834L23.4582 24.05C23.4082 23.9834 23.2915 24.025 23.2915 24.0834C23.2805 24.1321 23.2859 24.1831 23.3071 24.2283C23.3282 24.2736 23.3638 24.3105 23.4082 24.3334C23.4915 24.3667 23.6082 24.2667 23.5499 24.1834ZM23.4999 23.8334L23.5832 23.7667L23.8832 24.1667L23.7999 24.2334L23.4999 23.8334ZM23.8165 23.5834L23.7332 23.65L23.9165 24.15L23.9999 24.0667L23.9499 23.9667L24.0999 23.8334L24.1999 23.8834L24.2832 23.8167L23.8165 23.5834ZM23.8499 23.7L24.0166 23.7834L23.9165 23.8834L23.8499 23.7Z" fill="black"/>
</g>
</g>
<defs>
<clipPath id="clip0_769_17800">
<path d="M0 20C0 8.95431 8.95431 0 20 0C31.0457 0 40 8.95431 40 20C40 31.0457 31.0457 40 20 40C8.95431 40 0 31.0457 0 20Z" fill="white"/>
</clipPath>
<clipPath id="clip1_769_17800">
<rect width="53.3333" height="40" fill="white" transform="translate(-7)"/>
</clipPath>
</defs>
</svg>
