<svg width="40" height="40" viewBox="0 0 40 40" fill="none" xmlns="http://www.w3.org/2000/svg">
<g clip-path="url(#clip0_769_16503)">
<path d="M0 20C0 8.95431 8.95431 0 20 0C31.0457 0 40 8.95431 40 20C40 31.0457 31.0457 40 20 40C8.95431 40 0 31.0457 0 20Z" fill="#E94E0F"/>
<g clip-path="url(#clip1_769_16503)">
<path fill-rule="evenodd" clip-rule="evenodd" d="M0 -6.10352e-05H53.3333V39.9999H0V-6.10352e-05Z" fill="#BE0027"/>
<path fill-rule="evenodd" clip-rule="evenodd" d="M0 39.9999L53.3333 39.9749V19.9999L0 39.9999Z" fill="#B4D7F4"/>
<path fill-rule="evenodd" clip-rule="evenodd" d="M0 -6.10352e-05L53.3333 0.024939V19.9999L0 -6.10352e-05Z" fill="#239E46"/>
<path fill-rule="evenodd" clip-rule="evenodd" d="M15.5165 30.0333C14.6249 30.2833 14.1165 30.9749 14.1249 31.6249L18.5249 31.6083C18.5582 30.9083 17.9832 30.2583 17.1082 29.9999C21.4082 29.9166 25.1415 28.2999 25.8249 27.2666C25.1582 26.9749 24.3749 27.4416 23.8249 27.3333C25.1332 26.7249 29.0749 24.1749 28.4332 21.4416C27.9332 22.9583 26.4332 24.2166 25.7832 24.5583C27.2582 22.3249 29.2665 19.9916 27.5249 18.1916C27.6082 19.2333 26.8582 20.3833 26.5249 20.4749C27.3832 18.1083 28.1915 15.1416 26.3499 13.1916C26.5915 13.8999 26.4915 15.8916 26.1582 15.9833C26.0582 14.3749 25.7832 10.9999 24.0915 11.0416C24.6249 11.5249 24.8582 12.8249 24.8749 14.1416C24.5311 13.2303 23.9177 12.4455 23.1165 11.8916C22.2804 10.4453 21.0903 9.23519 19.6582 8.37494C19.8082 9.43327 19.9332 10.2666 21.4082 11.3666C20.6415 11.3166 19.8749 9.85827 19.0499 9.81661C18.3915 9.78327 17.8832 10.4083 16.8082 10.0499C16.9249 10.3999 17.4249 10.5583 17.5332 10.8166C17.2999 10.9833 16.7582 10.7916 16.3082 10.5666C16.9332 11.3999 17.8915 11.8999 18.7082 11.7333C19.6832 11.5499 20.7249 11.6499 21.7249 12.2166C21.1079 12.3457 20.4728 12.3626 19.8499 12.2666C20.4249 12.8499 20.8082 13.2416 21.8165 13.2333C22.7082 13.2333 23.1832 12.7499 23.4082 13.0499C23.9749 13.7166 24.3499 14.3833 24.8249 15.1666C23.7832 15.2749 24.0999 13.9916 22.9415 13.3333C22.2832 14.6666 23.6915 16.2666 24.6332 16.9333C24.6065 17.8441 24.81 18.747 25.2249 19.5583C25.5165 20.0999 25.8915 20.6583 25.7499 21.8833C25.1749 21.4666 24.6249 20.0666 24.8332 18.9583C24.1165 19.1499 23.8332 20.4083 24.1665 21.0416C24.4165 21.5166 24.5832 22.4416 24.2999 22.8499C24.0165 23.2333 23.9915 23.1833 23.9915 24.0166C23.9999 24.4999 23.7249 25.0833 23.2832 25.4916C23.4125 25.0652 23.4439 24.6151 23.3749 24.1749C23.0249 24.7749 22.1332 25.3916 21.8582 26.0416C21.5832 26.6833 21.5165 27.8083 20.1915 28.0666C18.4749 28.3999 17.8832 28.6999 16.7915 29.1499C16.6665 28.3166 17.0332 26.5666 17.7332 26.6749C18.4082 26.7916 20.4832 25.9583 19.7332 24.2166C19.5915 24.7666 19.1082 25.2999 18.5749 25.3249C19.1499 24.5916 20.1582 23.8249 19.6665 22.5916C19.3689 23.2128 18.8969 23.734 18.3082 24.0916C19.0082 22.7583 18.3915 22.3416 17.5582 23.4583C17.2415 23.8833 17.0499 24.7416 16.8499 25.8333C16.5165 24.9499 16.5415 23.7833 16.1499 22.8333C15.7499 21.8083 16.6915 21.5416 17.1332 21.6249C18.2165 21.9166 20.0415 21.9166 19.9082 20.1166C19.4332 20.7249 18.6165 20.9083 17.7249 20.6999C18.7249 19.9666 19.5082 18.5916 18.3915 17.8666C18.3416 18.2919 18.1868 18.698 17.9409 19.0486C17.6951 19.3991 17.366 19.6831 16.9832 19.8749C16.8042 19.1987 16.7957 18.4886 16.9582 17.8083C16.5249 18.2749 16.2082 19.2249 15.9499 20.3249C15.9249 19.2416 16.1332 18.4666 16.2832 17.8833C16.5165 17.0416 17.0832 17.5916 17.9499 17.6499C18.7999 17.6999 19.9499 17.2333 19.7332 16.0916C19.4499 16.5499 18.8582 16.7249 18.2582 16.6749C18.9832 16.2333 20.2415 15.4583 19.5499 14.2583C19.2582 14.7083 19.1665 15.0916 18.3249 15.2333C18.5415 14.7333 18.5749 14.0083 19.2415 13.7333C18.0749 13.4916 17.4082 14.2583 17.0582 15.4583C16.9249 14.6249 16.7582 14.3249 16.7249 13.7083C17.3582 13.0166 17.4249 11.6416 16.0582 11.3416C15.9686 11.8256 16.003 12.3245 16.1582 12.7916C15.5165 12.4083 14.6165 12.1999 14.0082 12.7333C14.4249 13.1749 15.0499 13.5666 16.0249 13.0833C15.7915 13.8333 15.1915 13.7083 14.3749 13.4166C14.8749 14.3583 15.5082 14.5249 16.2082 14.4166C16.5749 15.3833 16.5915 16.1166 15.5165 17.5166C15.5665 16.6499 15.5082 15.9999 14.8165 15.2916C14.2165 14.7083 13.7332 15.3166 14.6665 16.6083C14.0999 16.1916 13.4665 15.3583 13.2749 14.5166C13.0915 15.5499 13.2582 16.7749 13.8332 17.4666C13.5582 17.7583 13.2499 17.4333 12.7915 16.7166C12.9582 18.9999 13.9332 19.4416 15.2415 18.9333C15.2749 20.1833 15.2749 21.3416 15.3499 22.8499C14.5915 21.7499 13.6249 20.9333 13.0915 20.7333C12.9249 21.3416 13.5499 22.1499 13.9082 22.5916C13.3665 22.4749 12.1999 21.5916 12.1999 21.5916C12.0832 22.5999 13.3915 23.5416 14.2415 23.9583C13.2415 23.9166 12.7999 23.5416 12.1582 22.9249C12.1749 25.7416 15.2082 25.2499 15.7832 24.8166L16.0332 29.1916C15.1749 29.0416 15.2415 28.7749 14.5082 28.7166C12.4665 28.6333 10.8499 26.2666 10.3165 24.5249C10.1582 24.8083 10.2832 25.1083 10.1415 25.4666C9.8082 24.6083 9.39154 23.4999 8.81654 22.9833C8.96654 23.4833 8.9832 23.9916 8.9332 24.9249C8.7332 24.3249 8.5582 24.1333 8.54154 23.4249C8.54987 22.8833 9.06654 22.4833 9.04154 21.7166C9.01654 21.1583 8.5082 19.9416 8.4332 19.0083C8.1832 19.9749 8.0332 20.9916 7.64987 21.5916C7.84154 20.5583 7.7832 19.8416 8.09987 19.1499C8.46654 18.4249 8.77487 17.7666 8.5332 17.0333C8.29987 17.3166 8.37487 17.5749 7.7832 18.2666C7.6582 17.5166 8.54987 16.3083 9.41654 15.8249C10.0249 15.5083 10.7915 14.3583 10.2915 13.5749C9.71654 13.9916 9.4582 14.5416 8.64987 15.4916C9.2332 13.2416 10.7332 12.6416 12.5249 12.6333C12.9165 12.6333 13.7165 12.4916 13.9415 11.9666C13.4415 12.1583 12.8415 12.1833 12.3082 12.0833C12.6999 11.5083 13.5082 11.5833 14.2749 11.5833C14.8665 11.5833 15.7999 11.4999 16.1749 10.6499C15.3514 10.9711 14.4481 11.0265 13.5915 10.8083C14.7332 10.2249 16.5082 10.1583 17.4249 9.38327C16.3832 8.60827 13.7832 9.56661 12.1415 10.6916C12.5999 10.2749 13.3249 9.52494 13.7249 8.92494C12.8249 8.49161 10.5582 11.0083 9.77487 12.5083C9.02487 12.9249 8.7332 13.5916 8.44154 14.0499C8.8332 12.7083 8.87487 11.7333 9.2082 10.6333C6.66654 11.4999 7.71654 16.2166 7.16654 17.3499C7.2332 16.0999 7.17487 14.5083 6.66654 13.6833C5.8832 14.2833 5.81654 17.8083 6.54987 20.7416C6.2832 19.9583 5.7832 19.2249 5.62487 18.2666C4.4582 20.3833 6.3082 22.8916 7.84987 24.8666C6.6832 24.2583 5.54154 22.9583 4.7832 21.8666C4.99154 25.6666 8.94987 26.4499 9.56654 27.3833C8.7332 26.9916 7.14154 26.2249 6.4582 27.0333C7.40752 27.2093 8.31856 27.5506 9.14987 28.0416C10.1832 29.3249 12.1249 29.8916 15.5165 30.0333Z" fill="#F3E295"/>
</g>
</g>
<defs>
<clipPath id="clip0_769_16503">
<path d="M0 20C0 8.95431 8.95431 0 20 0C31.0457 0 40 8.95431 40 20C40 31.0457 31.0457 40 20 40C8.95431 40 0 31.0457 0 20Z" fill="white"/>
</clipPath>
<clipPath id="clip1_769_16503">
<rect width="53.3333" height="40" fill="white"/>
</clipPath>
</defs>
</svg>
