<svg width="40" height="40" viewBox="0 0 40 40" fill="none" xmlns="http://www.w3.org/2000/svg">
<g clip-path="url(#clip0_769_17257)">
<path d="M0 20C0 8.95431 8.95431 0 20 0C31.0457 0 40 8.95431 40 20C40 31.0457 31.0457 40 20 40C8.95431 40 0 31.0457 0 20Z" fill="#E94E0F"/>
<g clip-path="url(#clip1_769_17257)">
<path fill-rule="evenodd" clip-rule="evenodd" d="M-20.8516 0.274109H60.4584V39.2841H-20.8516V0.274109Z" fill="#FFC621"/>
<path fill-rule="evenodd" clip-rule="evenodd" d="M-21.0083 26.8291H60.4035V40.1066H-21.0083V26.8291Z" fill="#EF2118"/>
<path fill-rule="evenodd" clip-rule="evenodd" d="M-20.8516 -6.10352e-05H60.4584V14.0999H-20.8516V-6.10352e-05Z" fill="#298C08"/>
<path d="M18.3672 29.1758C23.0326 29.1758 26.8145 25.3938 26.8145 20.7285C26.8145 16.0632 23.0326 12.2812 18.3672 12.2812C13.7019 12.2812 9.91992 16.0632 9.91992 20.7285C9.91992 25.3938 13.7019 29.1758 18.3672 29.1758Z" fill="#006BC6"/>
<path fill-rule="evenodd" clip-rule="evenodd" d="M14.5785 14.7423L14.0693 15.0948L15.9101 17.6798L16.4036 17.3664L14.5706 14.7423H14.5785ZM16.8815 20.8523L16.1216 20.3196L16.435 19.3248L12.6671 19.3796L11.5705 18.5414L16.717 18.4866L17.6726 15.5961L18.1896 16.7711L16.8815 20.8444V20.8523ZM22.874 15.3141L22.3805 14.9381L20.477 17.4761L20.9156 17.8443L22.874 15.3141ZM17.751 19.3483L18.0251 18.4709H19.067L17.8763 14.8833L18.3463 13.5908L19.9521 18.4788L22.9915 18.5179L22.0358 19.3561L17.751 19.3404V19.3483ZM24.848 23.3589L25.0595 22.7793L22.0593 21.7374L21.84 22.2858L24.848 23.3589ZM19.4351 19.7243L20.3516 19.7164L20.6728 20.7034L23.7121 18.4709L25.0908 18.5179L20.9313 21.5494L21.8321 24.4634L20.7355 23.8054L19.4351 19.7243ZM17.8841 27.7143L18.503 27.7299L18.5265 24.5574L17.9468 24.5183L17.8841 27.7221V27.7143ZM19.6075 21.4241L19.9051 22.2936L19.067 22.9203L22.1533 25.0901L22.545 26.4061L18.3463 23.4294L15.8788 25.2076L16.153 23.9543L19.5996 21.4241H19.6075ZM11.5156 22.4424L11.6958 23.0299L14.7273 22.0743L14.5706 21.5103L11.5156 22.4424ZM18.033 22.1291L17.2966 22.6853L16.4506 22.0821L15.3383 25.6854L14.2103 26.4688L15.7378 21.5573L13.2781 19.7556L14.555 19.6303L18.033 22.1291Z" fill="#FFC621"/>
</g>
</g>
<defs>
<clipPath id="clip0_769_17257">
<path d="M0 20C0 8.95431 8.95431 0 20 0C31.0457 0 40 8.95431 40 20C40 31.0457 31.0457 40 20 40C8.95431 40 0 31.0457 0 20Z" fill="white"/>
</clipPath>
<clipPath id="clip1_769_17257">
<rect width="53.3333" height="40" fill="white" transform="translate(-7 -6.10352e-05)"/>
</clipPath>
</defs>
</svg>
