<svg width="40" height="40" viewBox="0 0 40 40" fill="none" xmlns="http://www.w3.org/2000/svg">
<g clip-path="url(#clip0_769_17269)">
<path d="M0 20C0 8.95431 8.95431 0 20 0C31.0457 0 40 8.95431 40 20C40 31.0457 31.0457 40 20 40C8.95431 40 0 31.0457 0 20Z" fill="#E94E0F"/>
<g clip-path="url(#clip1_769_17269)">
<path d="M-7 0.00012207H46.3333V40.0001H-7V0.00012207Z" fill="#003399"/>
<path d="M19.6667 6.36679L19.2501 7.76679L17.7917 7.73346L18.9917 8.55846L18.5084 9.94179L19.6667 9.05012L20.8251 9.94179L20.3417 8.55846L21.5417 7.73346L20.0834 7.76679L19.6667 6.36679Z" fill="#FFCC00"/>
<path d="M20.0834 31.4668L19.6667 30.0668L19.2501 31.4668L17.7917 31.4334L18.9917 32.2668L18.5084 33.6418L19.6667 32.7584L20.8251 33.6418L20.3417 32.2668L21.5417 31.4334L20.0834 31.4668Z" fill="#FFCC00"/>
<path d="M7.81668 20.9085L8.97502 21.7918L8.49168 20.4085L9.69168 19.5835L8.23335 19.6168L7.81668 18.2168L7.39168 19.6168L5.93335 19.5835L7.13335 20.4085L6.65002 21.7918L7.81668 20.9085Z" fill="#FFCC00"/>
<path d="M13.8833 8.04181L13.4666 9.44181L12.0083 9.40848L13.2083 10.2418L12.725 11.6168L13.8833 10.7335L15.05 11.6168L14.5666 10.2418L15.7666 9.40848L14.3083 9.44181L13.8833 8.04181Z" fill="#FFCC00"/>
<path d="M8.8167 14.6335L8.33337 16.0085L9.4917 15.1251L10.65 16.0085L10.1667 14.6335L11.3667 13.8001L9.90837 13.8335L9.4917 12.4335L9.07503 13.8335L7.6167 13.8001L8.8167 14.6335Z" fill="#FFCC00"/>
<path d="M9.9167 25.7168L9.4917 24.3168L9.07503 25.7168L7.6167 25.6835L8.8167 26.5085L8.33337 27.8918L9.4917 27.0085L10.6584 27.8918L10.175 26.5085L11.375 25.6835L9.9167 25.7168Z" fill="#FFCC00"/>
<path d="M14.2001 29.6918L13.7835 28.2918L13.3585 29.6918L11.9001 29.6584L13.1001 30.4918L12.6168 31.8668L13.7835 30.9834L14.9418 31.8668L14.4585 30.4918L15.6585 29.6584L14.2001 29.6918Z" fill="#FFCC00"/>
<path d="M33.4002 19.5835L31.9418 19.6168L31.5168 18.2168L31.1002 19.6168L29.6418 19.5835L30.8418 20.4085L30.3585 21.7918L31.5168 20.9085L32.6835 21.7918L32.2002 20.4085L33.4002 19.5835Z" fill="#FFCC00"/>
<path d="M24.7667 10.2418L24.2833 11.6168L25.45 10.7335L26.6083 11.6168L26.125 10.2418L27.325 9.40848L25.8667 9.44181L25.45 8.04181L25.025 9.44181L23.5667 9.40848L24.7667 10.2418Z" fill="#FFCC00"/>
<path d="M29.1666 14.6335L28.6832 16.0085L29.8416 15.1251L30.9999 16.0085L30.5166 14.6335L31.7166 13.8001L30.2582 13.8335L29.8416 12.4335L29.4249 13.8335L27.9666 13.8001L29.1666 14.6335Z" fill="#FFCC00"/>
<path d="M30.2585 25.7168L29.8418 24.3168L29.4168 25.7168L27.9585 25.6835L29.1585 26.5085L28.6752 27.8918L29.8418 27.0085L31.0002 27.8918L30.5168 26.5085L31.7168 25.6835L30.2585 25.7168Z" fill="#FFCC00"/>
<path d="M25.975 29.6918L25.55 28.2918L25.1334 29.6918L23.675 29.6584L24.875 30.4918L24.3917 31.8668L25.55 30.9834L26.7167 31.8668L26.2334 30.4918L27.4334 29.6584L25.975 29.6918Z" fill="#FFCC00"/>
</g>
</g>
<defs>
<clipPath id="clip0_769_17269">
<path d="M0 20C0 8.95431 8.95431 0 20 0C31.0457 0 40 8.95431 40 20C40 31.0457 31.0457 40 20 40C8.95431 40 0 31.0457 0 20Z" fill="white"/>
</clipPath>
<clipPath id="clip1_769_17269">
<rect width="53.3333" height="40" fill="white" transform="translate(-7 0.00012207)"/>
</clipPath>
</defs>
</svg>
