<svg width="40" height="40" viewBox="0 0 40 40" fill="none" xmlns="http://www.w3.org/2000/svg">
<g clip-path="url(#clip0_769_17409)">
<path d="M0 20C0 8.95431 8.95431 0 20 0C31.0457 0 40 8.95431 40 20C40 31.0457 31.0457 40 20 40C8.95431 40 0 31.0457 0 20Z" fill="#E94E0F"/>
<g clip-path="url(#clip1_769_17409)">
<path d="M-7 0.00012207H46.3333V40.0001H-7V0.00012207Z" fill="#012169"/>
<path fill-rule="evenodd" clip-rule="evenodd" d="M-7 0.00012207H26.3333V16.6668H-7V0.00012207Z" fill="#012169"/>
<path fill-rule="evenodd" clip-rule="evenodd" d="M27.4083 25.7418C27.3611 25.7378 27.3138 25.7378 27.2666 25.7418C27.0166 25.7918 26.6333 26.6834 26.4333 27.2084C26.0916 27.6584 25.9166 28.0085 25.7833 28.2668C25.7249 28.3668 25.6416 28.4834 25.6666 28.6168C25.1666 28.7501 25.1416 29.2334 25.1416 29.4168C25.1416 29.6251 25.1999 29.7251 25.1999 29.7251L25.4999 30.3501V30.3584C25.8166 31.1084 26.2833 32.1001 26.5583 32.1751C26.9249 32.3001 27.8916 31.9001 28.6249 31.2001C30.0303 31.8562 31.5362 32.1987 33.0583 32.2084C34.7583 32.2084 36.2833 31.7501 37.4749 31.2001C38.2083 31.9001 39.1749 32.3001 39.5583 32.1751C39.8083 32.0918 40.2833 31.0918 40.6083 30.3584L40.8999 29.7251C40.8999 29.7251 40.9583 29.6251 40.9583 29.4251C40.9583 29.2418 40.9333 28.7584 40.4333 28.6251C40.4583 28.4918 40.3833 28.3751 40.3249 28.2668C40.1833 28.0001 40.0083 27.6501 39.6833 27.1835C39.4666 26.6668 39.0833 25.7918 38.8499 25.7501C38.4999 25.6834 37.7666 25.8751 37.7666 25.9501V25.9834L36.2916 27.5334C36.2916 27.5751 36.3666 28.7001 36.6499 29.7001C35.492 30.1633 34.2707 30.3946 33.0416 30.3835C31.6249 30.3835 30.4166 30.1001 29.4416 29.6918C29.6259 28.985 29.7459 28.2591 29.7999 27.5251L28.3333 25.9834V25.9501C28.3333 25.8918 27.7666 25.7418 27.4083 25.7418ZM27.7749 27.6584C27.9666 27.6584 28.1583 27.8418 28.3166 28.0251L28.3083 28.1335C28.2484 28.4226 28.1704 28.7066 28.0749 28.9834C27.7118 28.7482 27.3711 28.4717 27.0583 28.1584C27.2166 27.9668 27.4749 27.7085 27.7416 27.6751H27.7749V27.6584ZM38.3249 27.6584H38.3583C38.6333 27.7084 38.8833 27.9668 39.0499 28.1584C38.7349 28.4753 38.3913 28.7545 38.0249 28.9918C37.929 28.7123 37.8511 28.4254 37.7916 28.1335C37.7848 28.0976 37.7792 28.0615 37.7749 28.0251C37.9416 27.8334 38.1333 27.6668 38.3249 27.6668V27.6584ZM26.4583 29.8584C26.6583 30.0251 26.9083 30.2251 27.2166 30.4251C27.135 30.486 27.0448 30.5311 26.9499 30.5585C26.8166 30.5918 26.6916 30.5835 26.5583 30.5585C26.5069 30.4094 26.4787 30.2515 26.4749 30.0918C26.4679 30.0141 26.4624 29.9363 26.4583 29.8584ZM39.6416 29.8584L39.6333 30.0918C39.6281 30.2487 39.5999 30.4036 39.5499 30.5501C39.437 30.5807 39.3197 30.5855 39.2051 30.564C39.0905 30.5425 38.981 30.4953 38.8833 30.4251C39.1916 30.2251 39.4499 30.0251 39.6416 29.8584Z" fill="url(#paint0_linear_769_17409)" stroke="white" stroke-width="0.833333"/>
<path fill-rule="evenodd" clip-rule="evenodd" d="M28.5167 28.3001C28.5167 28.3001 28.0084 27.3751 27.5917 27.4501C27.1667 27.5085 26.7584 28.1001 26.7417 28.1335C26.506 27.901 26.296 27.635 26.1167 27.3418C26.1417 27.3085 26.7667 25.6001 27.1167 25.5251C27.45 25.4501 28.175 25.6501 28.175 25.7168L28.5167 28.3001Z" fill="url(#paint1_linear_769_17409)" stroke="black" stroke-width="0.1"/>
<path fill-rule="evenodd" clip-rule="evenodd" d="M29.6499 27.3085C29.6499 27.3751 29.4666 29.8251 28.7416 30.6751C28.0249 31.5335 26.8249 32.0585 26.3916 31.9335C25.9749 31.8001 25.0166 29.3251 25.0166 29.3251C25.0166 29.3251 26.0333 30.5085 26.7916 30.3085C27.5499 30.1168 28.0083 28.6335 28.1499 27.9001C28.2916 27.1835 28.1749 25.7585 28.1749 25.7585L29.6583 27.3085H29.6499Z" fill="url(#paint2_linear_769_17409)" stroke="black" stroke-width="0.1"/>
<path fill-rule="evenodd" clip-rule="evenodd" d="M37.4082 28.3001C37.4082 28.3001 37.9249 27.3751 38.3415 27.4501C38.7582 27.5085 39.1582 28.1001 39.1915 28.1335C39.4272 27.901 39.6372 27.635 39.8165 27.3418C39.7832 27.3085 39.1582 25.6001 38.8165 25.5251C38.4749 25.4501 37.7499 25.6501 37.7499 25.7168L37.4082 28.3001Z" fill="url(#paint3_linear_769_17409)" stroke="black" stroke-width="0.1"/>
<path fill-rule="evenodd" clip-rule="evenodd" d="M36.2749 27.3085C36.2749 27.3751 36.4583 29.8251 37.1833 30.6751C37.9083 31.5335 39.0999 32.0585 39.5333 31.9335C39.9499 31.8001 40.9166 29.3251 40.9166 29.3251C40.9166 29.3251 39.8916 30.5085 39.1333 30.3085C38.3833 30.1168 37.9249 28.6335 37.7833 27.9001C37.6333 27.1835 37.7499 25.7585 37.7499 25.7585L36.2666 27.3085H36.2749Z" fill="url(#paint4_linear_769_17409)" stroke="black" stroke-width="0.1"/>
<path fill-rule="evenodd" clip-rule="evenodd" d="M26.4333 27.1835C26.1 27.6418 25.9249 28.0001 25.7749 28.2668C25.6333 28.5335 25.7249 28.9085 26.0416 29.4335C26.3999 29.9918 29.2916 32.2168 33.05 32.2168C36.8166 32.2168 39.6999 30.0001 40.0499 29.4335C40.3833 28.9001 40.4666 28.5335 40.325 28.2668C40.1833 28.0001 40 27.6418 39.6666 27.1835C39.6666 27.8751 37.275 30.3918 33.05 30.3918C28.825 30.3918 26.4333 27.8751 26.4333 27.1835Z" fill="url(#paint5_linear_769_17409)" stroke="black" stroke-width="0.125"/>
<path fill-rule="evenodd" clip-rule="evenodd" d="M39.475 31.5668L40.125 30.3084L39.8 30.0418C39.7166 30.3584 39.3416 30.4668 39.275 30.8751C39.2166 31.2668 39.525 31.6584 39.475 31.5668Z" fill="url(#paint6_linear_769_17409)" stroke="black" stroke-width="0.1"/>
<path fill-rule="evenodd" clip-rule="evenodd" d="M40.0667 31.2085C40.0667 31.2085 40.1834 30.6418 39.8167 30.5751C39.45 30.5085 39.25 30.8918 39.3084 30.7418C39.3584 30.5751 39.575 30.4085 39.6167 29.8501C39.6417 29.2918 39.5834 28.9918 39.5834 28.9918C39.5834 28.9918 39.7334 28.2668 40.3167 28.3668C40.9167 28.4751 40.9417 29.0001 40.9417 29.1918C40.9446 29.2914 40.9276 29.3905 40.8917 29.4835L40.0667 31.2085Z" fill="url(#paint7_linear_769_17409)" stroke="black" stroke-width="0.1"/>
<path d="M37.9332 29.3085L38.0582 29.5418L38.1416 29.4918L38.0832 29.3251L38.0916 29.3001L38.2332 29.2001L38.5999 29.9251V29.9668L38.5166 30.0251L38.5582 30.0918L38.9082 29.8418L38.8749 29.7751L38.7916 29.8251H38.7666L38.3999 29.0918L38.5332 28.9918H38.5666L38.6499 29.1251L38.7332 29.0668L38.6082 28.8335L37.9416 29.3085H37.9332ZM37.0582 29.8668L37.0916 29.9335L37.1666 29.9001L37.1916 29.9085L37.5166 30.6501L37.5082 30.6835L37.4416 30.7335L37.4666 30.8001L37.8082 30.5918L37.7832 30.5251L37.7082 30.5585H37.6749L37.5249 30.2001L37.8832 30.0001L38.0332 30.3335V30.3751L37.9499 30.4251L37.9832 30.5001L38.3332 30.2918L38.2999 30.2251L38.2249 30.2585L38.1999 30.2418L37.8832 29.5085V29.4751L37.9499 29.4251L37.9249 29.3585L37.5832 29.5668L37.6082 29.6335L37.6916 29.5918L37.7166 29.6085L37.8416 29.9085L37.4916 30.1168L37.3582 29.8085L37.3749 29.7751L37.4416 29.7335L37.4082 29.6585L37.0582 29.8668ZM36.8582 30.5001L36.8749 30.5668L36.9749 30.5418L37.0082 30.5501L37.0832 30.8585L37.0166 30.8918C36.8082 30.9585 36.6499 30.8501 36.5749 30.5835C36.5082 30.3168 36.5916 30.1168 36.7832 30.0501C36.8212 30.0384 36.8609 30.0356 36.8999 30.0418L36.9249 30.0585L36.9916 30.2001L37.0916 30.1668L37.0332 29.9168C36.9249 29.9168 36.8249 29.9335 36.7416 29.9668C36.4416 30.0751 36.3082 30.3418 36.3832 30.6501C36.4666 30.9585 36.7082 31.1001 36.9832 31.0085C37.0854 30.9715 37.1813 30.9151 37.2666 30.8418L37.1666 30.5001L37.1832 30.4668L37.2582 30.4335L37.2332 30.3585L36.8582 30.5001ZM36.0499 31.3585L36.4416 31.2168L36.4166 31.1418L36.3332 31.1585L36.3082 31.1501L36.0916 30.3501L36.0999 30.3251L36.1832 30.2835L36.1666 30.2168L35.7749 30.3501L35.7999 30.4251L35.8832 30.4001L35.9166 30.4168L36.1249 31.2085L36.1082 31.2418L36.0249 31.2751L36.0499 31.3501V31.3585ZM33.9249 31.7418L34.6166 31.6751L34.5916 31.3918L34.5082 31.4001L34.4916 31.5668L34.4749 31.5918L34.1832 31.6251L34.1499 31.2168L34.3166 31.2001L34.3416 31.2251L34.3582 31.3335H34.4416L34.4082 30.9668H34.3249V31.0835L34.3082 31.1168L34.1416 31.1251L34.1082 30.7585L34.3666 30.7335L34.3832 30.7501L34.4166 30.8918L34.5082 30.8835L34.4916 30.6335L33.8416 30.7001V30.7751H33.9249L33.9499 30.8001L34.0082 31.6251L33.9999 31.6501L33.9166 31.6668V31.7501L33.9249 31.7418ZM32.8916 30.7168V30.8001H32.9749L32.9916 30.8251L32.9999 31.6501L32.9832 31.6751L32.9082 31.6918V31.7585H33.2749V31.6835H33.1916L33.1749 31.6501V31.2501H33.5416V31.6335L33.5249 31.6585L33.4499 31.6668V31.7501H33.8166V31.6668H33.7332L33.7249 31.6335L33.7082 30.8001L33.7249 30.7751H33.8082V30.6918H33.4332V30.7751L33.5166 30.7835L33.5332 30.8085V31.1418L33.1749 31.1501L33.1582 30.8168L33.1832 30.7918H33.2582V30.7085L32.8916 30.7168ZM32.1082 30.6918V30.9668H32.1916L32.2166 30.8001L32.2332 30.7751H32.3916V31.6251L32.3666 31.6585H32.2832V31.7418H32.6666V31.6668L32.5832 31.6585L32.5582 31.6251L32.5666 30.7918H32.7166L32.7416 30.8085L32.7666 30.9751H32.8499V30.7001L32.1082 30.6918ZM30.9166 31.5751L31.5832 31.6085L31.5999 31.3335H31.5166L31.4916 31.4918L31.4749 31.5085L31.1832 31.5001L31.1999 31.0835L31.3582 31.1001L31.3749 31.1251L31.3916 31.2418H31.4582L31.4749 30.8835H31.3999L31.3832 30.9835L31.3666 31.0085H31.1999L31.2166 30.6251L31.4666 30.6418L31.4832 30.6585L31.4916 30.8001H31.5832V30.5585L30.9582 30.5251V30.6001L31.0416 30.6168L31.0499 30.6418L31.0166 31.4668L30.9999 31.4918H30.9166V31.5668V31.5751ZM29.3666 31.1251L29.7332 31.2585L29.7499 31.1918L29.6666 31.1501V31.1168L29.8749 30.3251L29.8999 30.3085L29.9832 30.3335L29.9999 30.2668L29.6416 30.1251L29.6249 30.2001L29.6999 30.2335L29.7166 30.2668L29.4916 31.0501L29.4749 31.0751L29.3916 31.0501L29.3666 31.1251ZM28.7332 30.8501C28.7978 30.9086 28.8712 30.9538 28.9499 30.9835C29.1499 31.0501 29.3082 30.9668 29.3499 30.8001C29.362 30.7551 29.3645 30.7073 29.3572 30.6608C29.35 30.6144 29.3332 30.5707 29.3082 30.5335L29.1582 30.3668C29.1082 30.2918 29.0916 30.2335 29.1082 30.1585C29.1332 30.0835 29.1999 30.0418 29.2916 30.0751C29.3249 30.0918 29.3582 30.1085 29.3749 30.1335V30.1585L29.3582 30.3251L29.4416 30.3501L29.5082 30.1168C29.4471 30.0556 29.3765 30.0076 29.2999 29.9751C29.1332 29.9085 28.9832 30.0001 28.9332 30.1585C28.9236 30.1978 28.9216 30.2388 28.9273 30.279C28.9331 30.3192 28.9464 30.3576 28.9666 30.3918C28.9999 30.4751 29.0499 30.5168 29.0916 30.5585C29.1666 30.6418 29.1916 30.7251 29.1749 30.8001C29.1499 30.8835 29.0749 30.9251 28.9749 30.8835C28.9384 30.868 28.9045 30.8454 28.8749 30.8168L28.8666 30.7918L28.8999 30.6085L28.8082 30.5751L28.7332 30.8501ZM27.9166 30.4668L28.5332 30.8001L28.6332 30.5501L28.5499 30.5085L28.4749 30.6501L28.4499 30.6585L28.1916 30.5085L28.3416 30.1501L28.4916 30.2335V30.2585L28.4666 30.3668L28.5332 30.4085L28.6666 30.0751L28.5999 30.0418L28.5416 30.1335L28.5166 30.1501L28.3749 30.0668L28.5082 29.7335L28.7332 29.8585L28.7416 29.8835L28.7082 30.0168L28.7916 30.0585L28.8749 29.8418L28.3082 29.5168L28.2749 29.5835L28.3416 29.6335L28.3499 29.6668L28.0499 30.4168H28.0249L27.9499 30.3918L27.9166 30.4668ZM27.8249 29.2168L27.5166 28.9751L27.4749 29.0418L27.5332 29.1001L27.5416 29.1335L27.1582 29.8168L27.1249 29.8251L27.0666 29.7835L27.0249 29.8501L27.3249 30.0835C27.4416 30.1668 27.5332 30.2085 27.6249 30.2001C27.7582 30.1835 27.8749 30.1001 27.9582 29.9501C28.1082 29.6668 28.0666 29.4001 27.8249 29.2168ZM27.6916 29.2168L27.7582 29.2668C27.9249 29.3918 27.9416 29.5751 27.7999 29.8168C27.6582 30.0668 27.5082 30.1168 27.3499 29.9835L27.2832 29.9501L27.6999 29.2251L27.6916 29.2168ZM30.1332 30.3001L30.1249 30.3668L30.1999 30.3918L30.2082 30.4251L30.0666 31.2335L30.0416 31.2501H29.9582V31.3168L30.2999 31.4001L30.3166 31.3335L30.2332 31.3001L30.2249 31.2751L30.2832 30.9335H30.3082C30.4332 30.9668 30.4582 31.0418 30.4582 31.2001C30.4666 31.2751 30.4666 31.3418 30.5249 31.4251C30.5499 31.4585 30.5832 31.4918 30.6416 31.5001C30.6828 31.5092 30.7246 31.5148 30.7666 31.5168L30.7749 31.4501H30.7666C30.6832 31.4251 30.6416 31.3918 30.6416 31.3001C30.6249 31.2168 30.6416 31.1335 30.6082 31.0501C30.5858 30.998 30.5474 30.9567 30.4999 30.9335C30.6416 30.9335 30.7249 30.8585 30.7499 30.7251C30.7832 30.5585 30.7082 30.4335 30.5082 30.3918L30.1416 30.3001H30.1332ZM30.3832 30.4418L30.4332 30.4585C30.5499 30.4918 30.5999 30.5751 30.5749 30.7001C30.5499 30.8418 30.4749 30.8918 30.3416 30.8501L30.2999 30.8418L30.3749 30.4418H30.3832ZM34.8999 30.5251L34.9082 30.6085H34.9916L35.0166 30.6251L35.1332 31.4418L35.1166 31.4668L35.0332 31.4918L35.0499 31.5585L35.4249 31.4918V31.4085L35.3332 31.4251L35.3082 31.4001L35.2582 31.0668H35.2832C35.4166 31.0251 35.4666 31.0835 35.5332 31.2251C35.5582 31.2918 35.5749 31.3585 35.6582 31.4085C35.6916 31.4335 35.7416 31.4418 35.8082 31.4335C35.8535 31.4231 35.898 31.4092 35.9416 31.3918L35.9332 31.3168H35.9166C35.8249 31.3418 35.7749 31.3168 35.7332 31.2418C35.6999 31.1751 35.6749 31.0918 35.6249 31.0335C35.5916 30.9918 35.5416 30.9668 35.4749 30.9668C35.6166 30.9001 35.6832 30.8001 35.6666 30.6585C35.6416 30.4918 35.5249 30.4085 35.3166 30.4501L34.8999 30.5251ZM35.1916 30.5668H35.2499C35.3832 30.5335 35.4582 30.5835 35.4832 30.7168C35.4999 30.8501 35.4416 30.9335 35.2999 30.9668H35.2499L35.1832 30.5668H35.1916Z" fill="black"/>
<path fill-rule="evenodd" clip-rule="evenodd" d="M26.4583 31.5668L25.8083 30.3084L26.1333 30.0418C26.2167 30.3584 26.5917 30.4668 26.6583 30.8751C26.7167 31.2668 26.4083 31.6584 26.4583 31.5668Z" fill="url(#paint8_linear_769_17409)" stroke="black" stroke-width="0.1"/>
<path fill-rule="evenodd" clip-rule="evenodd" d="M25.8584 31.2085C25.8584 31.2085 25.7417 30.6418 26.1084 30.5751C26.4751 30.5085 26.6751 30.8918 26.6251 30.7418C26.5667 30.5751 26.3501 30.4085 26.3167 29.8501C26.2834 29.2918 26.3417 28.9918 26.3417 28.9918C26.3417 28.9918 26.2001 28.2668 25.6084 28.3668C25.0167 28.4751 24.9834 29.0001 24.9834 29.1918C24.9834 29.3751 25.0417 29.4835 25.0417 29.4835L25.8584 31.2085Z" fill="url(#paint9_linear_769_17409)" stroke="black" stroke-width="0.1"/>
<path fill-rule="evenodd" clip-rule="evenodd" d="M33.0417 29.6751C33.0417 29.6751 26.2083 27.4251 26.2583 18.8918L26.3083 7.5918H39.75L39.8 18.8251C39.8417 27.3585 33.0167 29.6668 33.0167 29.6668L33.0417 29.6751Z" fill="#0072C4" stroke="white" stroke-width="0.325"/>
<path fill-rule="evenodd" clip-rule="evenodd" d="M27.1888 10.301C27.201 10.301 27.2804 10.2119 27.3598 10.1365C27.4636 10.0679 27.5613 9.99253 27.6651 9.93084C27.7506 9.88285 27.9093 9.84173 27.9765 9.8006C28.0761 9.74483 28.1636 9.66529 28.233 9.56754C28.2452 9.42359 28.2635 9.31392 28.2635 9.14255C28.3734 9.074 28.4711 9.01917 28.5688 8.97804C28.7093 8.93006 28.7398 8.86836 28.8802 8.84094C28.9718 8.80667 29.1184 8.80667 29.2466 8.80667C29.3871 8.80667 29.4725 8.9232 29.6008 8.94376C29.7534 9.01231 29.8206 9.06029 29.9427 9.17682C30.0038 9.27279 30.0465 9.35504 30.1626 9.42359C30.2542 9.47843 30.3396 9.56068 30.4435 9.5881C30.5656 9.6635 30.6633 9.71149 30.7549 9.82116C30.8404 9.88971 30.877 9.98567 30.9503 10.0542C31.0402 10.1404 31.1362 10.2184 31.2373 10.2873C31.3594 10.3764 31.4815 10.4449 31.6708 10.4244C31.7746 10.4244 31.8845 10.4038 32.0067 10.4244C32.1471 10.4244 32.2815 10.4244 32.4036 10.4655C32.5501 10.4655 32.6662 10.4861 32.8005 10.4998C32.9226 10.5203 33.0509 10.5272 33.1913 10.5272C33.3134 10.5683 33.4478 10.5615 33.5882 10.5615H34.382C34.5225 10.5615 34.669 10.5683 34.7728 10.5957C34.9057 10.5938 35.0382 10.5824 35.1698 10.5615C35.3224 10.5615 35.4384 10.534 35.5911 10.5272H36.0674C36.1895 10.5683 36.3483 10.5957 36.4338 10.6643C36.5498 10.6986 36.6047 10.7603 36.7147 10.7945C36.8062 10.8425 36.9345 10.9248 37.0017 11.0276C37.0908 11.1371 37.1668 11.2592 37.2276 11.3909C37.3009 11.5143 37.3314 11.6651 37.3925 11.8227C37.4291 11.9735 37.4535 12.1175 37.4535 12.282C37.4841 12.4259 37.4779 12.5836 37.4779 12.7481C37.4474 12.8989 37.4413 13.0634 37.3925 13.2074C37.3925 13.3719 37.3619 13.5158 37.3375 13.6392C37.3131 13.7763 37.2825 13.8654 37.2764 14.0368V14.5029C37.2764 14.6537 37.2398 14.7634 37.2276 14.9279C37.1521 15.0903 37.0848 15.2574 37.0261 15.4283C36.9373 15.499 36.8608 15.5873 36.8001 15.6888C36.7391 15.7299 36.7085 15.7984 36.7208 15.8259C36.8307 15.867 36.8001 15.9561 36.8001 16.1206C36.8185 16.2508 36.8307 16.4085 36.8612 16.5524C36.8673 16.7101 36.8978 16.8061 36.9406 16.9157C36.9894 16.9843 37.0017 16.95 36.8856 16.95C36.8062 17.0186 36.7208 16.9843 36.6902 16.8472C36.6264 16.7381 36.5867 16.6136 36.5742 16.4839C36.562 16.3331 36.5376 16.1823 36.4948 16.0863C36.4765 15.9013 36.4338 15.9013 36.2689 15.8875C36.1895 15.8121 36.0857 15.7916 35.9269 15.7916C35.7743 15.7916 35.7621 15.771 35.7621 15.9561V16.4222C35.7315 16.5593 35.6766 16.6621 35.646 16.7855C35.5606 16.8541 35.5239 16.9706 35.4201 17.046C35.3713 17.1968 35.3041 17.2242 35.1698 17.2516L34.9988 17.0186C35.0782 16.8678 35.1453 16.8472 35.1942 16.6827C35.2552 16.5524 35.2919 16.4702 35.3346 16.3537C35.2736 16.2508 35.2247 16.2029 35.1698 16.0589C35.1112 15.944 35.0641 15.8221 35.0293 15.6956C34.9316 15.6545 34.7851 15.6476 34.7179 15.5928C34.5774 15.5585 34.5408 15.7299 34.3759 15.7299H33.9851C33.808 15.7299 33.7653 15.8327 33.6187 15.8259C33.576 15.8396 33.4661 15.819 33.3073 15.8259C33.1852 15.8738 33.0447 15.8601 32.9104 15.8601C32.77 15.8601 32.6539 15.819 32.544 15.7916C32.4158 15.7504 32.2876 15.7093 32.1532 15.6956C31.9884 15.6956 31.9212 15.7093 31.8113 15.7916C31.7258 15.8533 31.5975 15.9835 31.506 16.0589C31.4632 16.1686 31.4449 16.3537 31.3838 16.4839C31.3594 16.621 31.3105 16.6964 31.28 16.8198C31.2324 16.9462 31.2036 17.0805 31.1945 17.2173C31.1823 17.4367 31.1396 17.4093 31.0236 17.3476C30.9747 17.2516 30.9014 17.1557 30.8526 17.046C30.877 16.8815 30.9136 16.7992 30.9136 16.621C30.8831 16.4839 30.822 16.4976 30.7427 16.5867C30.7427 16.7581 30.7427 16.8952 30.6816 16.9843C30.671 17.0379 30.6509 17.0885 30.6226 17.1332C30.5943 17.178 30.5583 17.2159 30.5167 17.2448C30.474 17.3682 30.3824 17.4298 30.2908 17.4778C30.2786 17.4778 30.2908 17.4367 30.2908 17.3407C30.2236 17.1968 30.2908 17.0665 30.2908 16.8815C30.2908 16.717 30.2786 16.6073 30.3213 16.4565C30.3213 16.292 30.2603 16.1412 30.2358 16.0246C30.1809 15.9013 30.1503 15.8396 30.0099 15.7916C29.9061 15.7436 29.7656 15.6888 29.6985 15.5859C29.6338 15.4848 29.5448 15.4064 29.442 15.3597C29.3199 15.3118 29.2527 15.2569 29.1611 15.1952C29.0756 15.0855 29.0024 15.0444 28.9657 14.9005C28.9047 14.7977 28.8985 14.6057 28.8558 14.4686C28.8438 14.3323 28.815 14.1985 28.7703 14.0711C28.7565 13.9351 28.7278 13.8016 28.6848 13.6735C28.6665 13.5364 28.636 13.3993 28.5993 13.2416C28.5993 13.084 28.5993 12.9263 28.5688 12.7824V12.3163C28.5505 12.1792 28.5444 11.9872 28.5138 11.8844C28.5138 11.7062 28.4955 11.6102 28.4528 11.4868C28.3917 11.3703 28.3917 11.3223 28.2879 11.2881C28.2146 11.3909 28.0986 11.4389 27.9521 11.4594C27.8483 11.432 27.7017 11.4114 27.5857 11.3566C27.4697 11.3292 27.3964 11.2744 27.3048 11.2195C27.2521 11.1293 27.195 11.0423 27.1338 10.959C27.1155 10.7877 27.085 10.6986 27.0728 10.5272C27.0728 10.4038 27.0789 10.4724 27.1949 10.301H27.1888Z" fill="#BCBCBC"/>
<path fill-rule="evenodd" clip-rule="evenodd" d="M28.8558 11.4937L28.8802 11.4663C28.8314 11.5211 28.8497 11.4937 28.9596 11.4457C29.0207 11.4046 29.1367 11.3292 29.1794 11.2812C29.2283 11.2538 29.3138 11.2127 29.3626 11.1647C29.4115 11.0961 29.4664 11.0413 29.5397 10.9796C29.613 10.9042 29.6863 10.8768 29.7779 10.8151C29.8878 10.8014 29.9305 10.7465 30.0343 10.7877C30.132 10.8151 30.1748 10.8151 30.2542 10.7191C30.3335 10.6643 30.4251 10.6026 30.4557 10.5135V10.3695C30.4557 10.5203 30.4251 10.5752 30.3335 10.6232C30.2725 10.7123 30.187 10.8014 30.1503 10.8836C30.0893 10.9865 30.0771 11.0413 30.016 11.0893C29.9611 11.1647 29.8756 11.2058 29.8572 11.3292C29.8817 11.384 29.8572 11.4114 29.9183 11.4183C29.9733 11.4731 30.0343 11.4526 30.1137 11.4183C30.18 11.3376 30.2337 11.2449 30.2725 11.1441C30.3396 11.0344 30.3763 10.9865 30.4129 10.9042C30.4862 10.8494 30.5289 10.8082 30.5534 10.7191C30.6327 10.6643 30.6999 10.6094 30.7549 10.5546C30.8159 10.5135 30.8465 10.4792 30.932 10.4586C30.9382 10.5507 30.9167 10.6425 30.8709 10.7191C30.8526 10.8494 30.8587 10.9111 30.8953 10.9933C30.9503 11.0413 30.9381 11.0756 30.9747 11.1647C31.0052 11.0824 31.0236 10.9316 31.0358 10.8357V10.8151C31.0358 10.9111 31.0358 11.0481 31.0113 11.1167C31.0113 11.2538 31.0419 11.3155 31.0724 11.4183C31.1029 11.4731 31.1335 11.5074 31.1701 11.5348C31.1701 11.3977 31.2067 11.3155 31.2128 11.1921C31.2373 11.2812 31.2312 11.4114 31.2495 11.5143C31.2556 11.6239 31.2922 11.7062 31.3289 11.7953C31.3777 11.8227 31.3899 11.9187 31.4083 11.8433C31.4571 11.6788 31.4571 11.5006 31.4876 11.3292C31.4937 11.2401 31.4998 11.1098 31.5304 11.0481L31.4876 11.3223C31.4937 11.2401 31.4998 11.1167 31.5304 11.0481V11.0207C31.5526 11.1451 31.5669 11.2711 31.5731 11.3977C31.5731 11.5006 31.567 11.6034 31.5914 11.6993C31.6525 11.6651 31.6952 11.5828 31.7319 11.4937C31.7748 11.3997 31.8281 11.3122 31.8907 11.2332L31.7319 11.4868C31.7752 11.3952 31.8285 11.31 31.8907 11.2332V11.2127C31.879 11.3196 31.8728 11.4271 31.8723 11.5348C31.8723 11.6445 31.8723 11.7679 31.8907 11.8433C31.9151 11.9667 31.9456 11.9872 31.9517 12.1175C31.9517 12.186 31.9395 12.2546 31.97 12.2888C32.0555 12.3094 32.0555 12.2546 32.0677 12.1243C32.0677 11.9735 32.1044 11.8707 32.1105 11.7268C32.1105 11.5485 32.1288 11.7473 32.1471 11.8159C32.1837 11.9138 32.2044 12.0182 32.2082 12.1243C32.2082 12.1929 32.2021 12.2546 32.2265 12.2888C32.3059 12.2477 32.3364 12.1517 32.3853 12.0969C32.428 11.9872 32.4708 11.9393 32.5074 11.8639C32.6112 11.8433 32.6051 11.7953 32.6051 11.6582C32.6051 11.5417 32.599 11.4252 32.6295 11.3292C32.6612 11.2282 32.6877 11.1252 32.7089 11.0207C32.7455 11.0002 32.7822 11.0619 32.8066 11.1167C32.8493 11.1921 32.8432 11.3018 32.8432 11.4183C32.8677 11.5211 32.9043 11.6034 32.947 11.6993C32.9841 11.7839 33.0314 11.8623 33.0875 11.9324C33.1058 12.0078 33.1058 12.138 33.1058 12.2409C33.1852 12.138 33.1974 11.9941 33.2035 11.8433C33.1913 11.7405 33.1913 11.6102 33.1669 11.5143C33.1669 11.4114 33.1424 11.3086 33.1241 11.2332C33.0631 11.199 33.0447 11.1647 33.1058 11.0687C33.1669 11.007 33.2402 11.0344 33.344 11.0481C33.3989 11.1098 33.4172 11.1441 33.4233 11.2812C33.4233 11.4046 33.4233 11.5006 33.4661 11.5828C33.5027 11.6514 33.5394 11.6993 33.5638 11.8159C33.5943 11.8501 33.6187 11.8981 33.6615 11.8433C33.6859 11.7747 33.7042 11.6376 33.7226 11.5622C33.7409 11.4731 33.7775 11.4252 33.8203 11.3977C33.8203 11.528 33.8203 11.6034 33.863 11.6993C33.8996 11.8022 33.9241 11.8433 33.9607 11.9598C34.0034 11.9941 34.0095 12.0626 34.0645 12.0969C34.0767 11.9872 34.0828 11.8639 34.0828 11.7268V11.3977C34.0889 11.2881 34.1134 11.2264 34.1439 11.1373C34.205 11.2332 34.205 11.2675 34.205 11.3977C34.266 11.3703 34.2782 11.3155 34.3027 11.2332C34.3454 11.1852 34.3637 11.1647 34.382 11.2812C34.3942 11.4046 34.4187 11.5143 34.4431 11.6308C34.4797 11.6856 34.5286 11.8159 34.5774 11.8639C34.612 11.9325 34.653 11.9968 34.6996 12.0558C34.7301 12.1243 34.7362 12.1723 34.8217 12.1929C34.8217 12.0352 34.8217 11.8776 34.7973 11.7268C34.7973 11.5897 34.7728 11.5417 34.7606 11.4183C34.724 11.3429 34.7057 11.2195 34.7179 11.1852C34.7976 11.2616 34.8604 11.3578 34.9011 11.4663C34.9438 11.5828 34.9866 11.6582 35.0232 11.7747C35.0813 11.8462 35.1324 11.9243 35.1759 12.0078C35.2491 12.0763 35.2858 12.1517 35.359 12.2134C35.3957 12.2546 35.4812 12.282 35.4995 12.2614C35.4934 12.1243 35.4751 12.0078 35.4384 11.8913C35.4382 11.7935 35.4173 11.6972 35.3774 11.6102C35.298 11.5348 35.2369 11.48 35.1942 11.3772C35.1698 11.3429 35.1636 11.3223 35.1575 11.2606C35.2628 11.3544 35.3572 11.4627 35.4384 11.5828C35.4779 11.652 35.5326 11.7087 35.5972 11.7473C35.6338 11.8022 35.7499 11.8639 35.8353 11.8844C35.8849 11.958 35.9565 12.0091 36.0369 12.0284L35.8353 11.8913C35.8859 11.9623 35.9573 12.0109 36.0369 12.0284V12.0558C36.0222 11.9213 35.9804 11.7924 35.9147 11.6788C35.8766 11.5744 35.8131 11.4842 35.7315 11.4183C35.6819 11.3332 35.6149 11.2627 35.5361 11.2127C35.4812 11.1441 35.4018 11.0207 35.3529 10.9796C35.4445 10.9111 35.5422 11.0207 35.6338 11.0687C35.7132 11.1647 35.7865 11.2881 35.8353 11.3498C35.8822 11.4623 35.944 11.5663 36.0185 11.6582C36.104 11.7131 36.159 11.7679 36.2323 11.8433C36.3544 11.8776 36.3055 11.8296 36.275 11.7268C36.2323 11.5897 36.275 11.5897 36.3544 11.6788C36.4093 11.7268 36.4765 11.7953 36.5559 11.8433C36.5864 11.8913 36.6414 11.9255 36.6902 11.8913C36.7147 11.857 36.7147 11.857 36.7147 11.8227C36.6719 11.6719 36.6353 11.5622 36.5315 11.5143C36.4887 11.4457 36.4093 11.3772 36.3483 11.3086C36.3116 11.2401 36.2689 11.1989 36.2323 11.1167L36.3544 11.3018C36.3116 11.2332 36.2689 11.1989 36.2323 11.1167H36.2139C36.3361 11.1167 36.3788 11.1578 36.4704 11.2127C36.5443 11.2466 36.6079 11.3037 36.6536 11.3772C36.6902 11.432 36.7513 11.4937 36.794 11.5622L36.9894 11.7268C37.0566 11.8227 37.0688 11.8844 37.0688 12.0284C37.1116 12.0969 37.1177 12.234 37.1299 12.3094C37.1177 12.4396 37.0749 12.3368 37.0688 12.2614C37.0566 12.1586 37.02 12.1655 36.9467 12.1929C36.9467 12.33 36.965 12.3711 37.0078 12.4739C36.9994 12.5569 36.9744 12.6366 36.9345 12.707C36.8856 12.7413 36.8734 12.6384 36.8307 12.5904C36.8307 12.4534 36.794 12.4328 36.7085 12.3574V12.4534C36.7574 12.5493 36.8063 12.6384 36.8124 12.7755C36.844 12.8743 36.8585 12.979 36.8551 13.084C36.8551 13.2005 36.8551 13.3102 36.8307 13.413C36.8307 13.5364 36.8124 13.5912 36.8124 13.7146V14.3727C36.7978 14.4723 36.7916 14.5733 36.794 14.6743L36.8124 14.3727C36.794 14.4549 36.794 14.5577 36.794 14.6743V14.6948C36.7574 14.5783 36.7147 14.4755 36.6902 14.3521C36.6315 14.2831 36.5858 14.2015 36.5559 14.1122C36.5376 14.0094 36.5315 13.8928 36.5131 13.8106C36.4826 13.7283 36.4521 13.6392 36.391 13.694C36.3666 13.8654 36.3971 13.9682 36.4521 14.1327C36.4826 14.2424 36.4826 14.3384 36.5131 14.4412C36.562 14.5646 36.5986 14.5783 36.5131 14.7154C36.4704 14.7976 36.4521 14.8182 36.4338 14.9073C36.3605 14.9485 36.3422 14.9759 36.3361 15.0718C36.3116 14.9827 36.2506 14.8731 36.2139 14.7702C36.1773 14.6537 36.1346 14.5372 36.1162 14.4412C36.0674 14.359 36.0063 14.2356 35.9575 14.1807C35.9025 14.1122 35.8353 13.9751 35.7987 13.9065C35.7193 13.8037 35.701 13.742 35.6338 13.694C35.6216 13.6461 35.5972 13.5844 35.5545 13.6255C35.5545 13.7352 35.5545 13.8517 35.5789 13.9477C35.5972 14.0848 35.6338 14.1602 35.6399 14.2973V14.5577C35.5911 14.4206 35.5361 14.311 35.4995 14.1807C35.4506 14.1122 35.4079 13.9751 35.359 13.9271C35.3224 13.8311 35.298 13.7557 35.2552 13.694C35.2491 13.6255 35.2186 13.6255 35.1942 13.5775C35.1942 13.7078 35.2369 13.7557 35.2552 13.8517C35.298 13.9477 35.3102 14.0916 35.298 14.1396C35.2491 13.9751 35.2003 13.7969 35.1392 13.6461C35.0782 13.5501 35.0171 13.4267 34.9805 13.3376C34.9194 13.2622 34.8583 13.2554 34.7973 13.2005C34.7426 13.1752 34.6944 13.1352 34.6568 13.084C34.6751 13.2074 34.7179 13.2896 34.7362 13.3856C34.7545 13.5021 34.7973 13.5981 34.8156 13.694C34.7973 13.8517 34.7667 13.6461 34.7362 13.5775C34.7179 13.4404 34.6751 13.3719 34.6385 13.2965C34.5835 13.2485 34.5347 13.1731 34.4797 13.132C34.4187 13.1045 34.4431 13.132 34.4431 13.2211C34.4431 13.365 34.4431 13.461 34.4797 13.5501C34.5225 13.6186 34.5225 13.7078 34.5225 13.8311C34.5164 13.9477 34.4981 14.0368 34.4981 14.1602V14.3452C34.4553 14.2493 34.4126 14.1876 34.3759 14.0642C34.3149 13.9545 34.2904 13.8791 34.2416 13.7626C34.1988 13.742 34.1195 13.7215 34.0828 13.7626C34.0889 13.8791 34.1378 13.9271 34.1439 14.0642C34.0645 14.1533 34.0767 14.1807 34.0218 14.0436C33.979 13.934 33.9241 13.9408 33.863 13.8791C33.7592 13.8654 33.7958 13.79 33.7653 13.6872C33.7653 13.5981 33.7653 13.509 33.7409 13.4336C33.631 13.4336 33.5699 13.4336 33.5027 13.5021C33.4722 13.5707 33.4844 13.7078 33.5027 13.8106V14.1327C33.4783 14.215 33.4417 14.2219 33.4233 14.3247C33.3867 14.4206 33.3745 14.5303 33.344 14.5989C33.2707 14.6743 33.3012 14.6811 33.2646 14.5577V13.8037C33.2646 13.6803 33.2829 13.6186 33.2829 13.5021C33.2402 13.4062 33.234 13.3856 33.0997 13.3856C33.0753 13.4473 33.0875 13.557 33.0997 13.6186C33.0997 13.7352 33.1119 13.8449 33.1241 13.9271C33.1241 14.0505 33.1363 14.1259 33.1424 14.2287C33.1424 14.3521 33.118 14.4481 33.0631 14.5029C32.9959 14.5303 33.057 14.5852 32.9837 14.6057C32.9037 14.5631 32.8297 14.5077 32.7639 14.4412C32.6906 14.4138 32.6173 14.3932 32.5074 14.3932C32.3731 14.3932 32.3731 14.3727 32.3242 14.2561C32.2877 14.1334 32.2611 14.0072 32.2448 13.8791C32.2021 13.7694 32.196 13.694 32.1654 13.5707C32.1379 13.505 32.0959 13.4484 32.0433 13.4062C32.0189 13.5295 31.9945 13.6255 31.9884 13.7626C31.9639 13.8174 31.9578 13.9545 31.9456 14.0162C31.909 13.9477 31.8907 13.8106 31.8662 13.7146C31.8296 13.5775 31.7991 13.4816 31.6708 13.5295C31.5365 13.5295 31.5304 13.5295 31.5304 13.694L31.6891 13.9682V14.2973C31.6891 14.4344 31.6952 14.4755 31.6098 14.5029C31.5792 14.3658 31.506 14.2287 31.4266 14.1122C31.4205 14.0162 31.396 14.0436 31.3105 14.0436C31.2556 14.0436 31.2006 14.0299 31.1701 14.0642V14.2698C31.1213 14.2835 31.109 14.2698 31.0724 14.2287C31.0358 14.2973 31.0602 14.3932 31.0724 14.4823C31.048 14.592 31.0113 14.688 30.9747 14.7428C30.9625 14.7085 30.9442 14.7222 30.9747 14.7222C30.8343 14.6606 30.7304 14.6263 30.6083 14.5852C30.5473 14.5852 30.4923 14.6606 30.4557 14.7222C30.3519 14.7565 30.3091 14.7908 30.1931 14.7908C30.0832 14.7908 30.0343 14.8114 29.9366 14.8114C29.8633 14.8319 29.7718 14.8388 29.6741 14.8388C29.6252 14.8182 29.5275 14.8182 29.497 14.7908C29.5397 14.7222 29.5825 14.688 29.6191 14.5852C29.6765 14.5335 29.7296 14.4762 29.7779 14.4138C29.8267 14.3727 29.8878 14.2836 29.9366 14.2287C29.9672 14.1122 30.0099 14.0916 30.0771 14.0436C30.1992 14.0436 30.2175 14.0916 30.3335 14.1122C30.4496 14.1602 30.5167 14.1807 30.5778 14.0848C30.6694 14.0436 30.7488 13.9682 30.8526 13.9477L31.0541 13.8106C31.1396 13.7489 31.1762 13.6872 31.2495 13.6186C31.2739 13.5227 31.335 13.4473 31.3105 13.3445C31.2006 13.3102 31.1335 13.317 31.0663 13.3856C30.9869 13.4678 30.9686 13.5021 30.8709 13.5707C30.7915 13.5981 30.7488 13.6392 30.6511 13.6666C30.5717 13.7009 30.4679 13.6872 30.3763 13.6872C30.2847 13.6872 30.1687 13.6803 30.1137 13.7146C30.2053 13.6461 30.3091 13.5775 30.3946 13.5501C30.474 13.4884 30.5045 13.461 30.6144 13.4541C30.6633 13.3856 30.7121 13.3856 30.7366 13.2691C30.7671 13.132 30.6572 13.1731 30.5717 13.2211C30.4923 13.2416 30.4007 13.3033 30.3335 13.3376C30.2507 13.3679 30.1642 13.3841 30.0771 13.3856C30.0526 13.3445 30.0954 13.3102 30.1137 13.2485C30.2053 13.2074 30.2236 13.1937 30.2358 13.084C30.1259 13.0977 30.0893 13.1388 29.9916 13.1525C29.8939 13.1799 29.7901 13.1937 29.6741 13.2005H29.3993C29.3016 13.2005 29.2466 13.1731 29.1367 13.1731C29.0573 13.1251 29.0573 13.1045 29.0573 12.9675C29.1184 12.8852 29.1794 12.8989 29.3016 12.8989L29.5153 12.7755C29.5886 12.7618 29.6374 12.7275 29.6191 12.6864H29.3382C29.2283 12.6316 29.3382 12.611 29.3993 12.5699C29.4909 12.5699 29.5947 12.5699 29.6557 12.611C29.7779 12.611 29.8206 12.563 29.9122 12.4739C29.9916 12.4054 30.0343 12.3574 30.1137 12.3094C30.1748 12.234 30.2358 12.1929 30.2725 12.1243C30.358 12.0352 30.4129 11.9872 30.4557 11.9118C30.5045 11.8776 30.5412 11.8433 30.5167 11.7953C30.3885 11.809 30.3335 11.8639 30.2542 11.9324C30.2083 11.9876 30.1547 12.0339 30.0954 12.0695C30.0183 12.1309 29.9272 12.1666 29.8328 12.1723C29.7351 12.1723 29.6496 12.1517 29.558 12.1449C29.4481 12.1312 29.5458 12.1038 29.5764 12.0489C29.6191 12.0215 29.6496 11.9461 29.613 11.8913C29.5336 11.857 29.4298 11.8639 29.3382 11.8639H29.0573C28.9535 11.8639 28.9108 11.8364 28.8375 11.7953C28.8192 11.7268 28.8375 11.7473 28.9169 11.7473C29.0058 11.7433 29.094 11.7272 29.1794 11.6993C29.271 11.6719 29.2832 11.6308 29.3016 11.5143C29.2039 11.5143 29.1001 11.5143 29.039 11.4937H28.8558ZM27.1338 10.959C27.1155 10.7877 27.0789 10.6986 27.0728 10.5272C27.0728 10.4038 27.0789 10.4724 27.1888 10.301C27.201 10.301 27.2804 10.2119 27.3598 10.1365C27.4636 10.0679 27.5613 9.99253 27.6651 9.93084C27.7445 9.88285 27.9093 9.84173 27.9765 9.8006C28.0761 9.74483 28.1636 9.66529 28.233 9.56754C28.2391 9.42359 28.2574 9.31392 28.2574 9.14255C28.3734 9.074 28.4711 9.01917 28.5688 8.97804C28.7093 8.93006 28.7398 8.86836 28.8802 8.84094C28.9718 8.80667 29.1184 8.80667 29.2466 8.80667C29.3871 8.80667 29.4725 8.9232 29.6008 8.94376C29.7534 9.01231 29.8206 9.06029 29.9366 9.17682C30.0038 9.27279 30.0465 9.35504 30.1626 9.42359C30.2542 9.47843 30.3396 9.56068 30.4435 9.5881C30.4435 9.71149 30.4679 9.69092 30.3946 9.69092C30.3824 9.81431 30.358 9.8006 30.2542 9.80745C30.1793 9.76244 30.1161 9.69629 30.071 9.61552C30.1137 9.49899 30.0893 9.71834 30.071 9.75947C30.0221 9.80745 29.9916 9.85544 29.9366 9.80745C29.9 9.69092 29.8756 9.61552 29.8756 9.47843C29.8572 9.33448 29.8206 9.4373 29.7962 9.49899C29.7656 9.62238 29.7779 9.6635 29.8145 9.75947C29.7107 9.75947 29.6313 9.74576 29.558 9.73205C29.4848 9.71149 29.3993 9.73891 29.3138 9.78003C29.21 9.85544 29.2466 9.85544 29.2955 9.94455C29.3871 9.97882 29.4542 10.0337 29.5397 10.0816C29.6252 10.0679 29.7229 10.0405 29.8145 10.0131C29.9122 9.97882 29.9977 9.99938 30.0954 10.0131C30.1442 10.0474 30.2053 10.0474 30.2358 10.0816C30.2358 10.157 30.2358 10.2324 30.2114 10.2736C30.1748 10.3078 30.132 10.3901 30.071 10.4107C29.9854 10.4671 29.8928 10.5087 29.7962 10.534C29.6741 10.534 29.6252 10.5683 29.5336 10.6232C29.5214 10.7465 29.4909 10.774 29.3932 10.8151C29.3074 10.8609 29.2134 10.8844 29.1184 10.8836C29.0573 10.8836 29.0024 10.8905 28.9779 10.8562C29.0457 10.7768 29.0995 10.6838 29.1367 10.582C29.155 10.5272 29.1917 10.4998 29.155 10.4586C29.039 10.4655 29.0085 10.4655 28.9962 10.5957C28.984 10.726 28.9413 10.7465 28.8558 10.7877C28.8802 10.6711 28.8863 10.582 28.9169 10.4861C28.832 10.501 28.7463 10.5079 28.6604 10.5066C28.5993 10.5478 28.5749 10.5683 28.5993 10.6437C28.52 10.678 28.4161 10.6574 28.3184 10.6437C28.233 10.6437 28.2818 10.6026 28.2207 10.5546C28.178 10.4655 28.1353 10.4449 28.0376 10.4381C27.9948 10.5066 27.9154 10.5272 27.8605 10.5752C27.775 10.6094 27.72 10.582 27.6406 10.534C27.5429 10.534 27.5552 10.5683 27.5796 10.6506C27.6223 10.678 27.5796 10.7123 27.6406 10.7191C27.7017 10.774 27.7506 10.7877 27.8605 10.7877C27.946 10.7603 28.0437 10.7671 28.1414 10.7671C28.2391 10.7671 28.2207 10.7945 28.2207 10.9042C28.1597 10.959 28.062 10.9522 27.9582 10.9522C27.8766 10.9403 27.7966 10.9172 27.72 10.8836C27.6284 10.8768 27.5552 10.8562 27.4819 10.8836C27.4513 10.9248 27.3598 10.9385 27.4636 10.9522C27.5063 11.0002 27.7383 10.9727 27.7506 11.055C27.8116 11.1235 27.7933 11.2127 27.7017 11.2127C27.6806 11.1981 27.6563 11.1904 27.6315 11.1904C27.6067 11.1904 27.5824 11.1981 27.5613 11.2127C27.5002 11.2264 27.4147 11.2127 27.2987 11.2264C27.4513 11.2401 27.1888 11.0413 27.1338 10.959Z" fill="#FEFEFE"/>
<path fill-rule="evenodd" clip-rule="evenodd" d="M27.7627 10.1845L27.6405 10.2736C27.555 10.3284 27.4573 10.4107 27.4024 10.4586C27.3596 10.4998 27.3596 10.5272 27.3047 10.5272C27.3963 10.5135 27.439 10.4861 27.5245 10.4381C27.6283 10.4244 27.726 10.3969 27.781 10.3421C27.8359 10.3215 27.781 10.2324 27.7627 10.1776V10.1845ZM28.6786 9.08085C28.6908 9.08085 28.7152 9.1494 28.758 9.19738C28.7885 9.28649 28.8191 9.34818 28.8191 9.45786C28.8435 9.34133 28.8801 9.25222 28.8984 9.12883C28.8679 9.06029 28.8679 9.03972 28.7763 9.03287C28.7763 9.10141 28.7885 9.05343 28.6786 9.08085Z" fill="#BCBCBC"/>
<path fill-rule="evenodd" clip-rule="evenodd" d="M28.1237 9.9074C28.0785 9.9074 28.196 9.85462 28.2412 9.84407C28.2773 9.75962 28.2954 9.70683 28.3587 9.65405C28.4581 9.65405 28.5123 9.69628 28.5575 9.77017C28.6479 9.80184 28.675 9.84406 28.7744 9.86518C28.8196 9.9074 28.8648 9.9074 28.7744 9.93907C28.7202 9.97074 28.6388 9.9813 28.5394 9.9813C28.4578 9.98845 28.3781 10.0135 28.3044 10.0552C28.1689 10.0552 28.187 10.0552 28.1237 9.9074Z" fill="#C4C4C2" stroke="black" stroke-width="0.0879057"/>
<path fill-rule="evenodd" clip-rule="evenodd" d="M29.0391 9.10141V9.12883C29.0391 9.06028 29.0391 9.09456 29.0574 9.2248C29.0901 9.31134 29.1047 9.40513 29.1001 9.49898C29.1568 9.44425 29.199 9.37313 29.2223 9.29334C29.2223 9.10827 29.1917 9.11512 29.0391 9.10141ZM29.7718 11.7953H29.7962C29.7352 11.7953 29.7718 11.7953 29.8756 11.7267C29.9428 11.6719 29.9978 11.5897 30.0955 11.5622C30.171 11.4899 30.258 11.4341 30.3519 11.3977C30.4008 11.3703 30.4435 11.3292 30.4924 11.3772C30.4802 11.4868 30.4618 11.5348 30.3702 11.5828C30.3275 11.6513 30.2603 11.6925 30.1932 11.7199C30.1321 11.761 30.0588 11.761 30.0344 11.8433C29.9245 11.8981 29.9123 11.8844 29.7779 11.7953H29.7718ZM30.1565 12.4739C30.1871 12.4396 30.3153 12.2957 30.3763 12.2408C30.4302 12.1522 30.4962 12.0736 30.5718 12.0078C30.6328 11.905 30.7061 11.8364 30.7549 11.7473L30.9137 11.5143C30.9137 11.6171 30.9015 11.7542 30.932 11.8159C30.9379 11.9144 30.9166 12.0125 30.871 12.0969C30.8282 12.1792 30.7916 12.234 30.6878 12.2888C30.6023 12.3437 30.5473 12.3574 30.4741 12.4259C30.4154 12.4693 30.3542 12.5082 30.2909 12.5425C30.2359 12.5699 30.2603 12.563 30.1565 12.4739ZM29.5337 13.0086H29.5581C29.497 13.0086 29.5276 13.0154 29.6375 12.94C29.723 12.8441 29.7901 12.8029 29.8939 12.7549C29.9787 12.7508 30.0617 12.7275 30.1382 12.6864C30.1809 12.6727 30.2176 12.6384 30.2542 12.6864C30.3153 12.7824 30.3336 12.8098 30.2359 12.8715C30.1763 12.925 30.1078 12.9646 30.0344 12.988C29.9855 13.036 29.8878 13.036 29.7901 13.0566C29.7169 13.0566 29.668 13.0703 29.6375 13.0086L29.7962 13.0566C29.7169 13.0566 29.6741 13.0703 29.5337 13.0086ZM30.3886 13.0086V12.988C30.3886 13.0566 30.3886 13.0223 30.4313 12.892C30.5107 12.7618 30.5351 12.6864 30.6328 12.659C30.6756 12.5904 30.7549 12.5767 30.8526 12.5425C30.8893 12.611 30.8587 12.6933 30.8526 12.7755C30.8282 12.8646 30.7549 12.9263 30.7122 12.988C30.6511 13.036 30.6267 13.084 30.529 13.1045C30.4557 13.1045 30.4985 13.1045 30.3947 13.0086H30.3886Z" fill="#BCBCBC"/>
<path fill-rule="evenodd" clip-rule="evenodd" d="M28.4405 9.97197C28.4405 10.0337 28.3978 10.0885 28.3428 10.0885C28.2818 10.0885 28.239 10.0337 28.239 9.97197C28.239 9.91028 28.2879 9.85544 28.3428 9.85544C28.3978 9.85544 28.4405 9.90342 28.4405 9.97197Z" fill="black"/>
<path fill-rule="evenodd" clip-rule="evenodd" d="M28.7373 16.3457H28.8187C28.5656 16.3457 28.7192 16.3246 29.135 16.7152C29.3157 16.5463 29.3157 16.5251 29.4513 16.8207C29.5416 16.9791 29.5597 16.7996 29.6953 16.6307C29.7585 16.9685 29.7947 17.3169 30.0116 17.0002C30.2646 17.0002 30.5177 16.9791 30.6532 17.0952C30.8159 17.4435 30.7617 17.0318 30.8882 17.1902C31.2497 17.2324 31.2407 16.8313 31.6202 16.7257C31.8552 17.0741 31.9637 16.8102 32.2529 16.6413C32.4788 16.7046 32.6866 17.0952 32.7318 16.7152C32.9126 16.3774 32.9216 16.3985 33.0481 16.7152C33.2289 16.9052 33.3012 16.6307 33.4458 16.5357C33.7169 16.7152 34.0151 16.7468 34.4037 16.6307C34.476 16.9368 34.6387 16.7996 34.8104 16.7152C35.1629 16.8946 35.2804 16.9474 35.6871 16.7152C35.8859 16.4407 35.7774 16.7257 35.922 16.9052C36.2203 16.7996 36.1389 16.7785 36.4823 16.8102C36.8348 16.8102 36.8619 16.8102 36.9613 16.5357C37.1421 16.7363 37.1963 16.8841 37.4403 16.6307C37.8199 16.6307 37.7024 16.6835 37.9193 16.5251C38.091 16.9474 38.1271 16.6518 38.326 16.8102C38.2142 17.122 38.0172 17.3818 37.7656 17.5491C37.612 17.8658 37.5126 18.1825 37.2053 18.3091C36.9794 18.573 36.7354 18.7314 36.4823 18.9636C36.1389 19.0692 35.7594 19.0481 35.3707 19.0481H32.0088C31.7739 19.1959 31.3762 19.2592 31.0509 19.3331C30.6894 19.3331 30.2646 19.3331 30.0116 19.2381C29.8399 19.0375 29.5416 18.8158 29.379 18.5836C29.1982 18.4253 29.1982 18.1191 29.0536 17.9291C28.9271 17.6652 28.8729 17.243 28.7373 17.0002V16.3457Z" fill="#005120" stroke="#002B0D" stroke-width="0.097673"/>
<path fill-rule="evenodd" clip-rule="evenodd" d="M36.4824 17.1902V17.2746C36.4824 17.0213 36.4914 17.1585 36.3197 17.6546C36.2926 17.7708 36.2112 17.8024 36.0847 17.8446L36.4824 17.1902ZM35.7684 17.5596H35.8497C35.5515 17.8763 35.3527 18.0347 35.2894 18.4041L35.8497 17.5596C35.5515 17.8763 35.3527 18.0347 35.2894 18.4041L35.7684 17.5596ZM34.6478 17.0952C34.6478 17.0952 34.6387 17.4224 34.5664 17.5596L34.6478 17.0952ZM34.3315 17.7496V17.8341V17.7496ZM33.6898 17.1902H33.7711H33.6808C33.7169 17.1902 33.744 17.1902 33.6808 17.1902H33.6898ZM29.2163 17.1902C29.2525 17.1902 29.4151 17.4857 29.614 17.6546C29.5688 17.9291 29.4874 18.2458 29.614 18.4991L29.2163 17.1902ZM29.858 17.7496C29.8941 17.7496 30.0477 18.0452 30.2556 18.2141L29.858 17.7496C29.8941 17.7496 30.0477 18.0452 30.2556 18.2141V18.3091C30.2556 18.0135 30.2375 17.718 30.3369 17.5596C30.4273 17.7391 30.5358 18.0135 30.5719 17.7496C31.0238 17.7285 31.2407 17.5807 31.5299 17.4646C31.5299 17.6019 31.5118 17.5385 31.6203 17.6546L29.858 17.7496ZM37.0427 17.2746H37.124C36.9704 17.4224 36.8529 17.7285 36.7264 17.9291L37.0427 17.2746ZM33.7711 17.0002H34.4038H33.7711Z" fill="#005120"/>
<path d="M29.858 17.7496C29.8941 17.7496 30.0477 18.0452 30.2556 18.2141L29.858 17.7496ZM29.858 17.7496C29.8941 17.7496 30.0477 18.0452 30.2556 18.2141V18.3091C30.2556 18.0135 30.2375 17.718 30.3369 17.5596C30.4273 17.7391 30.5358 18.0135 30.5719 17.7496C31.0238 17.7285 31.2407 17.5807 31.5299 17.4646C31.5299 17.6019 31.5118 17.5385 31.6203 17.6546L29.858 17.7496ZM33.7711 17.0002H34.4038M36.4824 17.1902V17.2746C36.4824 17.0213 36.4914 17.1585 36.3197 17.6546C36.2926 17.7708 36.2112 17.8024 36.0847 17.8446L36.4824 17.1902ZM35.7684 17.5596H35.8497C35.5515 17.8763 35.3527 18.0347 35.2894 18.4041L35.8497 17.5596C35.5515 17.8763 35.3527 18.0347 35.2894 18.4041L35.7684 17.5596ZM34.6478 17.0952C34.6478 17.0952 34.6387 17.4224 34.5664 17.5596L34.6478 17.0952ZM34.3315 17.7496V17.8341V17.7496ZM33.6898 17.1902H33.7711H33.6808C33.7169 17.1902 33.744 17.1902 33.6808 17.1902H33.6898ZM29.2163 17.1902C29.2525 17.1902 29.4151 17.4857 29.614 17.6546C29.5688 17.9291 29.4874 18.2458 29.614 18.4991L29.2163 17.1902ZM37.0427 17.2746H37.124C36.9704 17.4224 36.8529 17.7285 36.7264 17.9291L37.0427 17.2746Z" stroke="#002B0D" stroke-width="0.097673"/>
<path fill-rule="evenodd" clip-rule="evenodd" d="M28.4916 17.8585C27.5333 17.8585 27.2083 18.9835 26.25 18.9835H26.2V19.0501C26.2 19.8335 26.25 20.5585 26.35 21.2335C27.2333 21.1668 27.5583 20.1168 28.4916 20.1168C29.45 20.1168 29.7666 21.2335 30.725 21.2335C31.6916 21.2335 32.0083 20.1168 32.9666 20.1168C33.925 20.1168 34.25 21.2335 35.2083 21.2335C36.1666 21.2335 36.4833 20.1168 37.4416 20.1168C38.3583 20.1168 38.6916 21.1585 39.575 21.2335C39.6857 20.49 39.7387 19.7372 39.7333 18.9835H39.6749C38.7166 18.9835 38.4 17.8668 37.4416 17.8668C36.4833 17.8668 36.1583 18.9918 35.2083 18.9918C34.25 18.9918 33.925 17.8668 32.9583 17.8668C32.0083 17.8668 31.6833 18.9918 30.725 18.9918C29.775 18.9918 29.45 17.8668 28.4916 17.8668V17.8585ZM28.4916 22.2501C27.7416 22.2501 27.3916 22.9335 26.8083 23.2335C27.0004 23.8261 27.2403 24.398 27.525 24.9418C27.8 24.7085 28.0833 24.5085 28.4916 24.5085C29.45 24.5085 29.7666 25.6335 30.725 25.6335C31.6916 25.6335 32.0083 24.5085 32.9666 24.5085C33.925 24.5085 34.25 25.6335 35.2 25.6335C36.15 25.6335 36.4833 24.5085 37.4416 24.5085C37.7885 24.5227 38.1207 24.6697 38.3833 24.9251C38.6671 24.3837 38.907 23.8148 39.1 23.2251C38.5416 22.9168 38.1833 22.2501 37.4333 22.2501C36.4833 22.2501 36.1583 23.3751 35.2 23.3751C34.2416 23.3751 33.9166 22.2501 32.9666 22.2501C32.0166 22.2501 31.6833 23.3751 30.725 23.3751C29.775 23.3751 29.45 22.2501 28.4916 22.2501ZM32.9666 26.6418C32.0083 26.6418 31.6833 27.7668 30.725 27.7668C29.8166 27.7668 29.4833 26.7668 28.6416 26.6501C29.5429 27.7722 30.6556 28.7065 31.9166 29.4001C32.2166 29.1335 32.525 29.7001 32.9583 29.7001C33.4 29.7001 33.7083 29.1251 34 29.3835C35.2273 28.7148 36.3302 27.79 37.25 26.6585C36.4333 26.8001 36.0833 27.7668 35.2 27.7668C34.2416 27.7668 33.925 26.6418 32.9666 26.6418Z" fill="white"/>
<path d="M27.0217 22.3564C27.3323 22.233 27.6479 22.1278 27.9674 22.041L29.4355 23.6918L28.2286 23.9757L27.0217 22.3564Z" stroke="#512007" stroke-width="0.0486587"/>
<path d="M30.4292 23.0929L30.6736 23.1345M29.9175 25.0507C29.9404 24.6674 30.5896 22.468 30.5896 22.468L29.9175 25.0507ZM30.139 25.0757L30.6507 22.4847L30.139 25.0757ZM30.3146 25.084L30.7424 22.4847L30.3146 25.084ZM29.9404 24.7341C30.055 24.6674 30.3834 24.5675 30.3834 24.5675L29.9404 24.7341ZM30.1008 24.3509C30.2077 24.3509 30.4292 24.2509 30.4292 24.2509L30.1008 24.3509ZM30.1619 24.0593C30.2707 24.0144 30.3833 23.9809 30.4979 23.9593L30.1619 24.0593ZM30.2077 23.6927L30.5667 23.626L30.2077 23.6927ZM30.3681 23.3761C30.3681 23.4011 30.6125 23.4011 30.6125 23.4011L30.3681 23.3761Z" stroke="#512007" stroke-width="0.0478615"/>
<path d="M33.5067 23.3092L33.2184 23.3804M34.1101 26.6546C34.0831 25.9998 33.3175 22.2415 33.3175 22.2415L34.1101 26.6546ZM33.8489 26.5265L33.2455 22.2558L33.8489 26.5265ZM33.5787 26.1991C33.5607 25.957 33.1374 22.27 33.1374 22.27L33.5787 26.1991ZM34.0831 26.1136C33.948 25.9998 33.5607 25.8289 33.5607 25.8289L34.0831 26.1136ZM33.8939 25.4588C33.7679 25.4588 33.5067 25.288 33.5067 25.288L33.8939 25.4588ZM33.8219 24.9605C33.6935 24.8839 33.5608 24.8266 33.4256 24.7897L33.8219 24.9605ZM33.7679 24.3342L33.3445 24.2203L33.7679 24.3342ZM33.5787 23.7932C33.5787 23.8359 33.2905 23.8359 33.2905 23.8359L33.5787 23.7932Z" stroke="#512007" stroke-width="0.0452934"/>
<path d="M35.733 22.836L35.4448 22.8886M36.3364 25.3071C36.3094 24.8234 35.5438 22.0474 35.5438 22.0474L36.3364 25.3071ZM36.0752 25.2124L35.4718 22.0579L36.0752 25.2124ZM35.805 24.9706C35.787 24.7918 35.3637 22.0684 35.3637 22.0684L35.805 24.9706ZM36.3094 24.9075C36.1743 24.8234 35.787 24.6972 35.787 24.6972L36.3094 24.9075ZM36.1203 24.4238C35.9942 24.4238 35.733 24.2976 35.733 24.2976L36.1203 24.4238ZM36.0482 24.0558C35.9198 23.9991 35.7871 23.9569 35.6519 23.9296L36.0482 24.0558ZM35.9942 23.5931L35.5709 23.509L35.9942 23.5931ZM35.805 23.1935C35.805 23.2251 35.5168 23.2251 35.5168 23.2251L35.805 23.1935Z" stroke="#512007" stroke-width="0.0486587"/>
<path fill-rule="evenodd" clip-rule="evenodd" d="M32.678 25.595L32.759 17.919C32.759 17.919 32.9932 17.8875 32.9932 17.919C32.9932 17.9506 32.9662 25.5635 32.9392 25.595C32.9122 25.6266 32.651 25.6476 32.678 25.595ZM35.2449 18.2555L35.1909 24.7013L35.0107 24.9536L35.0648 18.2555H35.2449Z" fill="#DD8B59" stroke="#512007" stroke-width="0.0486587"/>
<path fill-rule="evenodd" clip-rule="evenodd" d="M29.7687 24.3332C29.7687 24.3332 30.0389 27.4877 33.0471 27.3931C36.0554 27.2985 36.893 24.2176 36.893 24.2176L35.587 24.1545C35.56 24.1545 34.5422 25.6266 33.2273 25.595C31.9123 25.5635 31.498 25.1955 31.2097 24.8905C30.9215 24.5751 30.6693 24.1229 30.6693 24.1229L29.1382 23.4184L29.2283 24.0914L29.7687 24.3332ZM37.9018 24.0178L37.8117 23.5972V23.2397L37.9558 22.8611C37.9558 22.8611 35.6771 23.2502 35.6771 23.2817L35.6681 23.9967L37.9018 24.0073V24.0178Z" fill="#DD8B59" stroke="#512007" stroke-width="0.0486587"/>
<path d="M29.6697 24.3017C29.7507 24.3017 30.3542 24.4594 30.3542 24.4594L30.9847 25.4373M37.4695 23.2397L37.4155 23.8706H37.7848L37.7578 23.2397H37.4695ZM37.0823 23.2712L37.0552 23.9442L37.2894 23.9126L37.3164 23.2712H37.0823ZM36.686 23.9442V23.4184L36.9201 23.3238L36.9472 23.8495L36.686 23.9442ZM36.2356 23.9126L36.2897 23.45L36.5599 23.4815L36.5779 23.9757L36.2356 23.9126ZM35.7402 23.9126L35.7673 23.513L36.0375 23.4815V23.9442L35.7402 23.9126Z" stroke="#512007" stroke-width="0.0486587"/>
<path d="M30.1111 24.4278C30.1381 24.4594 30.6605 26.5098 33.1734 26.5098C35.6863 26.5098 36.2897 24.186 36.2897 24.186" stroke="#512007" stroke-width="0.0486587"/>
<path d="M36.6861 24.2491C36.6861 24.2491 35.4792 27.2984 33.1734 27.0881C30.8767 26.8778 30.5074 25.8684 30.3273 25.3426C30.1471 24.8169 30.0391 24.3963 30.0391 24.3963" stroke="#512007" stroke-width="0.0486587"/>
<path fill-rule="evenodd" clip-rule="evenodd" d="M30.6875 24.1229C30.7145 23.9442 30.7145 18.4027 30.7145 18.4027L30.5614 18.3817L30.5344 24.0283L30.6875 24.1334V24.1229ZM26.9497 22.3249L28.9312 23.45L28.8862 23.6077C28.8862 23.6077 26.9767 22.5562 26.9767 22.5246C26.9767 22.4931 26.9947 22.3669 26.9497 22.3143V22.3249Z" fill="#DD8B59" stroke="#512007" stroke-width="0.0486587"/>
<path fill-rule="evenodd" clip-rule="evenodd" d="M27.8594 21.9884C27.8594 22.0725 28.1476 23.9442 28.1476 23.9442C28.1476 23.9442 28.3277 23.9757 28.3277 23.9442L28.0215 22.0199L27.8594 21.9884ZM29.6968 22.041C29.7958 22.041 31.5882 21.7045 31.5882 21.7045L31.5522 22.041L29.7958 22.2513L29.6968 22.041Z" fill="#DD8B59" stroke="#512007" stroke-width="0.0486587"/>
<path fill-rule="evenodd" clip-rule="evenodd" d="M29.949 19.5068C30.012 19.5068 30.5794 19.8433 30.8226 19.7592C31.0658 19.6751 30.9037 19.4437 30.9487 19.4437C31.0028 19.4437 31.1829 19.6014 31.291 19.4753C31.3991 19.3596 31.4711 18.9916 31.4261 19.0231C31.372 19.0547 29.985 19.633 29.958 19.5068H29.949Z" fill="#FECF3E" stroke="#512007" stroke-width="0.0486587"/>
<path fill-rule="evenodd" clip-rule="evenodd" d="M29.7236 20.2744C29.8227 20.306 31.8672 19.633 31.8672 19.633C31.8672 19.633 31.8672 19.8433 31.8402 19.8433L29.7236 20.4847V20.2744Z" fill="#DD8B59" stroke="#512007" stroke-width="0.0486587"/>
<path fill-rule="evenodd" clip-rule="evenodd" d="M34.4522 19.3281C34.4522 19.3281 34.5873 19.6961 34.7224 19.633C34.8575 19.5699 34.9836 19.4437 34.9836 19.4437C34.9836 19.4437 35.0917 19.7592 35.2719 19.6961C35.452 19.633 35.5601 19.2965 35.5601 19.2965C35.5601 19.2965 35.7402 19.3596 35.8213 19.3281C35.9023 19.2965 36.0014 18.8023 36.0014 18.8023L34.4612 19.3281H34.4522ZM34.2991 22.2933C34.2721 22.3564 34.4342 22.5036 34.5693 22.5036C34.7044 22.5036 34.7495 22.2933 34.7765 22.3564C34.8035 22.409 34.8035 22.6929 35.1368 22.5982C35.47 22.5036 35.479 22.2302 35.479 22.2302C35.479 22.2302 35.3799 22.3249 35.6141 22.3564C35.8483 22.3879 36.0825 21.9568 36.0644 21.9568C36.0284 21.9568 34.3532 22.3248 34.2991 22.2933Z" fill="#FECF3E" stroke="#512007" stroke-width="0.0486587"/>
<path fill-rule="evenodd" clip-rule="evenodd" d="M29.8048 19.3806C29.7883 19.4754 29.7946 19.5736 29.8228 19.6645L31.5341 18.9916C31.5341 18.9916 31.6062 18.8338 31.5341 18.8338C31.4621 18.8338 29.7778 19.4437 29.7958 19.3911L29.8048 19.3806ZM32.0565 18.96C32.1015 18.96 33.8038 18.3186 33.8038 18.3186C33.8038 18.3186 33.8308 18.592 33.8038 18.592L32.2096 19.1388L32.0475 18.96H32.0565Z" fill="#DD8B59" stroke="#512007" stroke-width="0.0486587"/>
<path fill-rule="evenodd" clip-rule="evenodd" d="M34.2993 20.3059C34.2993 20.3059 34.0381 20.6424 34.1191 21.0946C34.2002 21.5572 34.2993 21.9568 34.3263 21.9568C34.3533 21.9568 34.6415 21.3469 34.9567 21.3154C35.272 21.2838 35.8484 21.6519 35.8484 21.6519C35.8484 21.6519 35.7674 20.9158 35.7944 20.5793C35.8214 20.2428 36.2627 19.6645 36.2627 19.6645L34.2993 20.2954V20.3059Z" fill="#FECF3E" stroke="#512007" stroke-width="0.0486587"/>
<path fill-rule="evenodd" clip-rule="evenodd" d="M31.9213 19.7487C31.9213 19.7487 31.8673 20.0326 31.8943 20.0326L34.119 19.3596V19.1598L31.9213 19.7381V19.7487Z" fill="#DD8B59" stroke="#512007" stroke-width="0.0486587"/>
<path fill-rule="evenodd" clip-rule="evenodd" d="M29.0933 23.45C29.0933 23.45 28.5709 23.3658 28.5979 23.513C28.625 23.6708 28.8591 23.818 28.8862 23.9126C28.9132 24.0073 28.8051 24.3332 28.9672 24.3122C29.1203 24.2806 29.2734 24.1545 29.2734 24.0598L29.2464 23.5341L29.0933 23.45Z" fill="#B6B6B4" stroke="#512007" stroke-width="0.0486587"/>
<path fill-rule="evenodd" clip-rule="evenodd" d="M32.0024 21.9253V22.1356L33.8849 21.8306L33.8308 21.6729L32.0024 21.9253Z" fill="#DD8B59" stroke="#512007" stroke-width="0.0486587"/>
<path fill-rule="evenodd" clip-rule="evenodd" d="M29.7688 22.2933C29.8048 22.2933 29.7688 22.5667 29.985 22.5036C30.1921 22.4405 30.2462 22.2933 30.2462 22.2933C30.2462 22.2933 30.3002 22.6298 30.5884 22.5982C30.8766 22.5667 31.0388 22.1987 31.0388 22.1987C31.0388 22.1987 31.0568 22.472 31.2369 22.3774C31.417 22.2828 31.4711 22.0725 31.4711 22.0725L29.8228 22.3459L29.7778 22.2933H29.7688ZM29.7688 20.4847C29.7688 20.4847 29.5346 20.5793 29.6157 21.1261C29.6968 21.6729 29.8859 21.9884 29.9039 21.9884C29.9309 21.9884 30.1381 21.4626 30.4533 21.3785C30.7686 21.2733 31.318 21.6519 31.318 21.6519C31.318 21.6519 31.2639 21.1577 31.345 20.7055C31.4028 20.4111 31.5202 20.137 31.6872 19.9064C31.6872 19.9064 29.8499 20.4847 29.7778 20.4847H29.7688Z" fill="#FECF3E" stroke="#512007" stroke-width="0.0486587"/>
<path fill-rule="evenodd" clip-rule="evenodd" d="M34.173 22.0725L34.2 22.2618C34.2 22.2618 36.0915 21.9884 36.0915 21.9463C36.0915 21.9253 36.0915 21.736 36.0554 21.736C36.0284 21.736 34.2 22.104 34.164 22.0725H34.173ZM34.146 20.1167L34.173 20.327L36.3977 19.633C36.3977 19.633 36.4517 19.4437 36.4247 19.4437C36.3977 19.4437 34.2 20.2113 34.146 20.1167Z" fill="#DD8B59" stroke="#512007" stroke-width="0.0486587"/>
<path d="M36.0284 21.7675C36.0554 21.6834 36.1365 19.8433 36.1365 19.8433M34.3802 19.1388C34.3802 19.1388 34.3532 19.328 34.3802 19.328C34.4072 19.328 36.0284 18.8654 36.0284 18.8338C36.0284 18.8023 36.1905 18.6235 36.0554 18.6551C35.9293 18.6866 34.4342 19.2334 34.3802 19.1388V19.1388ZM37.8658 22.6823L36.2446 19.6961L37.8658 22.6823Z" stroke="#512007" stroke-width="0.0486587"/>
<path fill-rule="evenodd" clip-rule="evenodd" d="M32.1105 19.0547C32.2005 19.0757 32.3897 19.3911 32.4978 19.328C32.6058 19.265 32.759 19.0757 32.759 19.0757C32.759 19.0757 32.7319 19.4437 32.9391 19.3911C33.1553 19.328 33.1823 19.0757 33.1823 19.0757C33.1823 19.0757 33.3354 19.1808 33.4705 19.0757C33.5966 18.9916 33.7227 18.5289 33.6776 18.5289C33.6326 18.5289 32.1555 19.0757 32.1015 19.0547H32.1105ZM32.0564 19.9379C32.0564 20.001 31.7862 20.4847 31.8763 20.9474C31.9664 21.41 32.1015 21.8306 32.1285 21.8306C32.1555 21.8306 32.5518 21.3469 32.8941 21.2523C33.2273 21.1577 33.7317 21.5572 33.7047 21.5572C33.6776 21.5572 33.5696 21.0946 33.5696 20.7581C33.5696 20.4216 33.9659 19.3911 33.9659 19.3911L32.0564 19.9379ZM32.0564 22.1461C32.0564 22.1671 32.1285 22.3774 32.3176 22.3774C32.4978 22.3774 32.5248 22.1671 32.5248 22.1671C32.5248 22.1671 32.4978 22.5351 32.786 22.5036C33.0742 22.472 33.1733 22.1356 33.1733 22.1356C33.1733 22.1356 33.2003 22.3248 33.4435 22.2302C33.6776 22.1356 33.9839 21.8306 33.9659 21.8306C33.9388 21.8306 32.0744 22.2302 32.0474 22.1461H32.0564Z" fill="#FECF3E" stroke="#512007" stroke-width="0.0486587"/>
<path fill-rule="evenodd" clip-rule="evenodd" d="M32.7482 20.3852C32.7853 20.3868 32.8202 20.4057 32.8454 20.4377C32.8705 20.4697 32.8839 20.5122 32.8824 20.5558C32.881 20.5994 32.8649 20.6406 32.8376 20.6703C32.8104 20.7 32.7743 20.7157 32.7373 20.7141C32.7003 20.7125 32.6653 20.6936 32.6402 20.6616C32.615 20.6296 32.6017 20.5871 32.6031 20.5435C32.6046 20.4999 32.6207 20.4587 32.6479 20.429C32.6751 20.3993 32.7112 20.3836 32.7482 20.3852Z" fill="#BE0F17" stroke="#512007" stroke-width="0.0478892"/>
<path d="M34.2723 22.125C34.2723 22.125 34.5875 23.3553 34.9027 23.5446C35.1379 23.6919 35.3664 23.8534 35.5872 24.0283M32.9392 18.0031C32.9392 17.9821 33.7499 18.4027 33.7499 18.4343C33.7499 18.4658 36.632 22.9347 36.659 22.9347L32.9392 18.0031ZM35.218 18.4343L35.9565 18.8023L36.1907 19.4753L35.218 18.4343ZM30.6605 18.3817C30.6335 18.3817 31.4711 19.1177 31.4711 19.1177L31.5792 19.7171L30.6605 18.3817ZM27.8144 22.8401C28.1747 22.6613 30.7146 20.0641 30.7146 20.0641L27.8144 22.8401ZM27.1299 22.3459L29.985 19.5383L27.1299 22.3459ZM31.8945 19.9589L34.5965 25.1954L31.8945 19.9589Z" stroke="#512007" stroke-width="0.0486587"/>
<path d="M34.2361 22.1566C34.2361 22.1566 34.4613 23.6077 34.7765 23.8811C35.0917 24.1545 35.407 24.4594 35.407 24.4594" stroke="#512007" stroke-width="0.0486587"/>
<path d="M32.0674 22.1445C32.0674 22.1445 32.3736 24.1634 33.0041 24.626C33.3903 24.9063 33.7746 25.1903 34.157 25.4777" stroke="#512007" stroke-width="0.0486587"/>
<path d="M29.8876 22.2706C29.9956 22.4494 30.2839 23.3642 30.464 23.6376C30.5991 23.89 31.9321 25.4462 31.9321 25.4462M32.0402 22.1129C32.0402 22.1129 32.7157 23.7112 33.3011 24.1949C33.8686 24.6891 34.6521 25.1412 34.6521 25.1412L32.0402 22.1129ZM29.8425 22.2496C30.0227 22.6176 29.9956 23.3221 30.2028 23.564C30.3932 23.8153 30.5678 24.0824 30.7252 24.3631L29.8425 22.2496Z" stroke="#512007" stroke-width="0.0486587"/>
<path fill-rule="evenodd" clip-rule="evenodd" d="M31.4908 25.5198C31.4908 25.5502 31.4857 25.5803 31.4757 25.6083C31.4657 25.6364 31.4511 25.6619 31.4327 25.6834C31.4143 25.7049 31.3925 25.7219 31.3685 25.7335C31.3444 25.7451 31.3187 25.7511 31.2926 25.7511C31.2666 25.7511 31.2408 25.7451 31.2168 25.7335C31.1928 25.7219 31.1709 25.7049 31.1525 25.6834C31.1341 25.6619 31.1195 25.6364 31.1096 25.6083C31.0996 25.5803 31.0945 25.5502 31.0945 25.5198C31.0945 25.4584 31.1154 25.3996 31.1525 25.3562C31.1897 25.3128 31.2401 25.2885 31.2926 25.2885C31.3452 25.2885 31.3956 25.3128 31.4327 25.3562C31.4699 25.3996 31.4908 25.4584 31.4908 25.5198ZM32.4545 26.014C32.4545 26.067 32.4365 26.1178 32.4044 26.1553C32.3723 26.1927 32.3288 26.2138 32.2834 26.2138C32.238 26.2138 32.1945 26.1927 32.1624 26.1553C32.1303 26.1178 32.1122 26.067 32.1122 26.014C32.1122 25.961 32.1303 25.9102 32.1624 25.8727C32.1945 25.8353 32.238 25.8142 32.2834 25.8142C32.3288 25.8142 32.3723 25.8353 32.4044 25.8727C32.4365 25.9102 32.4545 25.961 32.4545 26.014ZM33.6884 26.1402C33.6884 26.1932 33.6704 26.244 33.6383 26.2815C33.6062 26.3189 33.5627 26.34 33.5173 26.34C33.4719 26.34 33.4284 26.3189 33.3963 26.2815C33.3642 26.244 33.3462 26.1932 33.3462 26.1402C33.3462 26.0872 33.3642 26.0364 33.3963 25.9989C33.4284 25.9615 33.4719 25.9404 33.5173 25.9404C33.5627 25.9404 33.6062 25.9615 33.6383 25.9989C33.6704 26.0364 33.6884 26.0872 33.6884 26.1402ZM34.7602 25.667C34.7602 25.7722 34.6972 25.8458 34.6161 25.8458C34.5351 25.8458 34.472 25.7616 34.472 25.667C34.472 25.5724 34.5351 25.4777 34.6161 25.4777C34.6972 25.4777 34.7602 25.5619 34.7602 25.667ZM35.6249 25.0677C35.6249 25.1623 35.5438 25.2359 35.4538 25.2359C35.3637 25.2359 35.2826 25.1623 35.2826 25.0677C35.2826 24.973 35.3637 24.8994 35.4538 24.8994C35.5438 24.8994 35.6249 24.973 35.6249 25.0677Z" fill="black" stroke="#512007" stroke-width="0.0486587"/>
<path fill-rule="evenodd" clip-rule="evenodd" d="M30.5452 18.5063C30.4642 18.5693 29.1582 18.9374 29.3383 18.9058C29.5185 18.8743 30.5723 19.2213 30.5452 19.1161C30.5182 19.011 30.5452 18.5693 30.5452 18.5063ZM32.7699 18.0541C32.7159 18.0541 31.9593 18.3906 31.9863 18.3906C32.0133 18.3906 32.851 18.664 32.8239 18.6009C32.7969 18.5378 32.7969 18.1382 32.7699 18.0541ZM35.0486 18.359C34.9946 18.3906 34.1029 18.6324 34.265 18.664C34.4271 18.6955 35.0216 18.9374 35.0216 18.8743C35.0216 18.8217 35.0216 18.3906 35.0486 18.3485V18.359Z" fill="#FF0000" stroke="#512007" stroke-width="0.0486587"/>
<path d="M34.7062 23.0383L34.9945 23.0908M34.1028 25.5093C34.1298 25.0256 34.8954 22.2496 34.8954 22.2496L34.1028 25.5093ZM34.364 25.4147L34.9674 22.2601L34.364 25.4147ZM34.6342 25.1728C34.6522 24.9941 35.0755 22.2707 35.0755 22.2707L34.6342 25.1728ZM34.1298 25.1097C34.2649 25.0256 34.6522 24.8994 34.6522 24.8994L34.1298 25.1097ZM34.3189 24.626C34.445 24.626 34.7062 24.4999 34.7062 24.4999L34.3189 24.626ZM34.391 24.258C34.5194 24.2014 34.6521 24.1591 34.7873 24.1318L34.391 24.258ZM34.445 23.7953L34.8684 23.7112L34.445 23.7953ZM34.6342 23.3958C34.6342 23.4273 34.9224 23.4273 34.9224 23.4273L34.6342 23.3958Z" stroke="#512007" stroke-width="0.0486587"/>
<path d="M32.4726 23.2769L32.7608 23.3319M31.8691 25.862C31.8962 25.3559 32.6617 22.4518 32.6617 22.4518L31.8691 25.862ZM32.1303 25.895L32.7338 22.4738L32.1303 25.895ZM32.3375 25.906L32.8419 22.4738L32.3375 25.906ZM31.8962 25.4439C32.0313 25.3559 32.4186 25.2239 32.4186 25.2239L31.8962 25.4439ZM32.0853 24.9379C32.2114 24.9379 32.4726 24.8059 32.4726 24.8059L32.0853 24.9379ZM32.1574 24.5529C32.2857 24.4936 32.4184 24.4494 32.5537 24.4209L32.1574 24.5529ZM32.2114 24.0689L32.6347 23.9809L32.2114 24.0689ZM32.4005 23.6509C32.4005 23.6839 32.6888 23.6839 32.6888 23.6839L32.4005 23.6509Z" stroke="#512007" stroke-width="0.0497689"/>
<path d="M31.2584 23.1313L30.9701 23.1847M31.8618 25.6403C31.8348 25.1492 31.0692 22.3305 31.0692 22.3305L31.8618 25.6403ZM31.6006 25.5442L30.9972 22.3412L31.6006 25.5442ZM31.3304 25.2987C31.3124 25.1172 30.8891 22.3519 30.8891 22.3519L31.3304 25.2987ZM31.8348 25.2346C31.6997 25.1492 31.3124 25.0211 31.3124 25.0211L31.8348 25.2346ZM31.6457 24.7435C31.5196 24.7435 31.2584 24.6153 31.2584 24.6153L31.6457 24.7435ZM31.5736 24.3698C31.4452 24.3123 31.3125 24.2694 31.1773 24.2417L31.5736 24.3698ZM31.5196 23.9L31.0962 23.8146L31.5196 23.9ZM31.3304 23.4943C31.3304 23.5263 31.0422 23.5263 31.0422 23.5263L31.3304 23.4943Z" stroke="#512007" stroke-width="0.0490315"/>
<path fill-rule="evenodd" clip-rule="evenodd" d="M35.4791 24.1545L37.965 24.2175L37.992 24.0072L35.425 23.9757L35.4791 24.1545ZM35.5872 23.3869C35.8754 23.3869 38.046 22.9032 38.046 22.9032C38.046 22.9032 38.1271 22.5877 38.046 22.5877C37.965 22.5877 35.5872 23.1766 35.5872 23.1766V23.3869Z" fill="#DD8B59" stroke="#512007" stroke-width="0.0486587"/>
<path d="M-7 0.00012207H19.6667V20.0001H-7V0.00012207Z" fill="#012169"/>
<path d="M-3.875 0.00012207L6.29167 7.54179L16.4167 0.00012207H19.6667V2.58346L9.66667 10.0418L19.6667 17.4585V20.0001H16.3333L6.33333 12.5418L-3.625 20.0001H-7V17.5001L2.95833 10.0835L-7 2.66679V0.00012207H-3.875Z" fill="white"/>
<path d="M10.6667 11.7085L19.6667 18.3335V20.0001L8.375 11.7085H10.6667ZM3 12.5418L3.25 14.0001L-4.75 20.0001H-7L3 12.5418ZM19.6667 0.00012207V0.125122L9.29167 7.95846L9.375 6.12512L17.5833 0.00012207H19.6667ZM-7 0.00012207L2.95833 7.33346H0.458333L-7 1.75012V0.00012207Z" fill="#C8102E"/>
<path d="M3.04167 0.00012207V20.0001H9.70833V0.00012207H3.04167ZM-7 6.66679V13.3335H19.6667V6.66679H-7Z" fill="white"/>
<path d="M-7 8.04179V12.0418H19.6667V8.04179H-7ZM4.375 0.00012207V20.0001H8.375V0.00012207H4.375Z" fill="#C8102E"/>
</g>
</g>
<defs>
<linearGradient id="paint0_linear_769_17409" x1="11.2164" y1="47.4446" x2="13.2106" y2="46.4323" gradientUnits="userSpaceOnUse">
<stop stop-color="#A43907"/>
<stop offset="1" stop-color="white"/>
</linearGradient>
<linearGradient id="paint1_linear_769_17409" x1="28.6298" y1="27.9554" x2="26.0672" y2="26.7053" gradientUnits="userSpaceOnUse">
<stop stop-color="#A43907"/>
<stop offset="1" stop-color="white"/>
</linearGradient>
<linearGradient id="paint2_linear_769_17409" x1="29.8671" y1="28.9762" x2="24.5197" y2="28.35" gradientUnits="userSpaceOnUse">
<stop stop-color="#A43907"/>
<stop offset="1" stop-color="white"/>
</linearGradient>
<linearGradient id="paint3_linear_769_17409" x1="39.8339" y1="26.5303" x2="37.3828" y2="26.6465" gradientUnits="userSpaceOnUse">
<stop stop-color="#A43907"/>
<stop offset="1" stop-color="white"/>
</linearGradient>
<linearGradient id="paint4_linear_769_17409" x1="41.1461" y1="27.9822" x2="35.9016" y2="28.2639" gradientUnits="userSpaceOnUse">
<stop stop-color="#A43907"/>
<stop offset="1" stop-color="white"/>
</linearGradient>
<linearGradient id="paint5_linear_769_17409" x1="40.3978" y1="29.6911" x2="25.7088" y2="29.6911" gradientUnits="userSpaceOnUse">
<stop stop-color="#A43907"/>
<stop offset="1" stop-color="white"/>
</linearGradient>
<linearGradient id="paint6_linear_769_17409" x1="25.9901" y1="30.8532" x2="47.3997" y2="30.9214" gradientUnits="userSpaceOnUse">
<stop stop-color="#A43907"/>
<stop offset="1" stop-color="white"/>
</linearGradient>
<linearGradient id="paint7_linear_769_17409" x1="41.1562" y1="29.3992" x2="39.4081" y2="29.4447" gradientUnits="userSpaceOnUse">
<stop stop-color="#A43907"/>
<stop offset="1" stop-color="white"/>
</linearGradient>
<linearGradient id="paint8_linear_769_17409" x1="25.6482" y1="31.4714" x2="27.3272" y2="31.5701" gradientUnits="userSpaceOnUse">
<stop stop-color="#A43907"/>
<stop offset="1" stop-color="white"/>
</linearGradient>
<linearGradient id="paint9_linear_769_17409" x1="26.8876" y1="31.0459" x2="23.7776" y2="30.3556" gradientUnits="userSpaceOnUse">
<stop stop-color="#A43907"/>
<stop offset="1" stop-color="white"/>
</linearGradient>
<clipPath id="clip0_769_17409">
<path d="M0 20C0 8.95431 8.95431 0 20 0C31.0457 0 40 8.95431 40 20C40 31.0457 31.0457 40 20 40C8.95431 40 0 31.0457 0 20Z" fill="white"/>
</clipPath>
<clipPath id="clip1_769_17409">
<rect width="53.3333" height="40" fill="white" transform="translate(-7 0.00012207)"/>
</clipPath>
</defs>
</svg>
