<svg width="48" height="48" viewBox="0 0 48 48" fill="none" xmlns="http://www.w3.org/2000/svg">
<path d="M40 40L44 44V0H12V8H16V4H40V34.3431L36 38.3431L32 34.3431L28 38.3431L24.0445 34.3877L20 38.3058L16 34.4308V24H12V44L16 40L20 43.875L24 40L28 44L32 40L36 44L40 40Z" fill="#7783A0"/>
<g style="mix-blend-mode:multiply">
<path fill-rule="evenodd" clip-rule="evenodd" d="M4 28C6.20914 28 8 26.2091 8 24C8 21.7909 6.20914 20 4 20C1.79086 20 0 21.7909 0 24C0 26.2091 1.79086 28 4 28Z" fill="#7783A0"/>
</g>
<g style="mix-blend-mode:multiply">
<path fill-rule="evenodd" clip-rule="evenodd" d="M12 20C14.2091 20 16 18.2091 16 16C16 13.7909 14.2091 12 12 12C9.79086 12 8 13.7909 8 16C8 18.2091 9.79086 20 12 20Z" fill="#7783A0"/>
</g>
<path d="M20 24H32V28H20V24Z" fill="#7783A0"/>
<path d="M20 16H36V20H20V16Z" fill="#7783A0"/>
<path d="M20 8H36V12H20V8Z" fill="#7783A0"/>
</svg>
