<svg width="48" height="48" viewBox="0 0 48 48" fill="none" xmlns="http://www.w3.org/2000/svg">
<g style="mix-blend-mode:multiply">
<path fill-rule="evenodd" clip-rule="evenodd" d="M24 12C26.2091 12 28 10.2091 28 8C28 5.79086 26.2091 4 24 4C21.7909 4 20 5.79086 20 8C20 10.2091 21.7909 12 24 12ZM24 16C28.4183 16 32 12.4183 32 8C32 3.58172 28.4183 0 24 0C19.5817 0 16 3.58172 16 8C16 12.4183 19.5817 16 24 16Z" fill="#7783A0"/>
</g>
<g style="mix-blend-mode:multiply">
<path fill-rule="evenodd" clip-rule="evenodd" d="M24 44C26.2091 44 28 42.2091 28 40C28 37.7909 26.2091 36 24 36C21.7909 36 20 37.7909 20 40C20 42.2091 21.7909 44 24 44ZM24 48C28.4183 48 32 44.4183 32 40C32 35.5817 28.4183 32 24 32C19.5817 32 16 35.5817 16 40C16 44.4183 19.5817 48 24 48Z" fill="#7783A0"/>
</g>
<g style="mix-blend-mode:multiply">
<path fill-rule="evenodd" clip-rule="evenodd" d="M24 28C26.2091 28 28 26.2091 28 24C28 21.7909 26.2091 20 24 20C21.7909 20 20 21.7909 20 24C20 26.2091 21.7909 28 24 28Z" fill="#7783A0"/>
</g>
<g style="mix-blend-mode:multiply">
<path fill-rule="evenodd" clip-rule="evenodd" d="M40 28C42.2091 28 44 26.2091 44 24C44 21.7909 42.2091 20 40 20C37.7909 20 36 21.7909 36 24C36 26.2091 37.7909 28 40 28ZM40 32C44.4183 32 48 28.4183 48 24C48 19.5817 44.4183 16 40 16C35.5817 16 32 19.5817 32 24C32 28.4183 35.5817 32 40 32Z" fill="#7783A0"/>
</g>
<g style="mix-blend-mode:multiply">
<path fill-rule="evenodd" clip-rule="evenodd" d="M8 28C10.2091 28 12 26.2091 12 24C12 21.7909 10.2091 20 8 20C5.79086 20 4 21.7909 4 24C4 26.2091 5.79086 28 8 28ZM8 32C12.4183 32 16 28.4183 16 24C16 19.5817 12.4183 16 8 16C3.58172 16 0 19.5817 0 24C0 28.4183 3.58172 32 8 32Z" fill="#7783A0"/>
</g>
<rect width="4" height="4.125" transform="matrix(0.707107 0.707106 -0.707107 0.707106 16.042 13.125)" fill="#7783A0"/>
<rect width="4" height="4.125" transform="matrix(0.707107 0.707106 -0.707107 0.707106 16.042 29.125)" fill="#7783A0"/>
<rect x="32.042" y="13.125" width="4" height="4.125" transform="rotate(45 32.042 13.125)" fill="#7783A0"/>
<rect x="32.042" y="29.125" width="4" height="4.125" transform="rotate(45 32.042 29.125)" fill="#7783A0"/>
</svg>
