<svg width="48" height="48" viewBox="0 0 48 48" fill="none" xmlns="http://www.w3.org/2000/svg">
<mask id="path-1-inside-1_9238_19543" fill="white">
<path fill-rule="evenodd" clip-rule="evenodd" d="M18.6112 13.1634C17.0939 11.6067 14.6478 11.6122 13.1371 13.18C11.621 14.7534 11.621 17.3044 13.1371 18.8778L20 26L26.8629 18.8778C28.379 17.3044 28.379 14.7534 26.8629 13.18C25.3522 11.6122 22.9061 11.6067 21.3888 13.1634C21.3834 13.1689 21.378 13.1745 21.3726 13.18L20 14.6045L18.6274 13.18C18.622 13.1745 18.6166 13.1689 18.6112 13.1634Z"/>
</mask>
<path d="M18.6112 13.1634L-4.30367 35.4996L-4.30361 35.4996L18.6112 13.1634ZM13.1371 13.18L36.1801 35.3841L36.1801 35.3841L13.1371 13.18ZM13.1371 18.8778L36.1801 -3.32629V-3.32629L13.1371 18.8778ZM20 26L-3.04297 48.2041L20 72.1176L43.043 48.2041L20 26ZM26.8629 18.8778L3.81995 -3.32629L3.81995 -3.32629L26.8629 18.8778ZM26.8629 13.18L3.81995 35.3841L3.81995 35.3841L26.8629 13.18ZM21.3888 13.1634L44.3029 35.5004L44.3037 35.4996L21.3888 13.1634ZM21.3726 13.18L-1.66992 -9.02452L-1.67039 -9.02404L21.3726 13.18ZM20 14.6045L-3.04296 36.8086L20 60.7221L43.043 36.8086L20 14.6045ZM18.6274 13.18L-4.41583 35.3838L-4.41555 35.3841L18.6274 13.18ZM41.5262 -9.17286C27.4015 -23.6635 4.14315 -23.6039 -9.90588 -9.02405L36.1801 35.3841C25.1525 46.8283 6.78624 46.8768 -4.30367 35.4996L41.5262 -9.17286ZM-9.90588 -9.02405C-23.3647 4.94325 -23.3647 27.1146 -9.90588 41.0819L36.1801 -3.32629C46.6067 7.49423 46.6066 24.5636 36.1801 35.3841L-9.90588 -9.02405ZM49.9059 41.0819C63.3647 27.1146 63.3647 4.94325 49.9059 -9.02405L3.81995 35.3841C-6.60665 24.5636 -6.60665 7.49422 3.81995 -3.32629L49.9059 41.0819ZM49.9059 -9.02405C35.8569 -23.6038 12.5985 -23.6635 -1.52616 -9.17286L44.3037 35.4996C33.2138 46.8768 14.8475 46.8283 3.81995 35.3841L49.9059 -9.02405ZM-1.52535 -9.17369C-1.57554 -9.12221 -1.62376 -9.07243 -1.66992 -9.02452L44.4151 35.3846C44.3797 35.4214 44.3422 35.46 44.3029 35.5004L-1.52535 -9.17369ZM-1.67039 -9.02404L-3.04297 -7.5996L43.043 36.8086L44.4156 35.3841L-1.67039 -9.02404ZM43.043 -7.59961L41.6704 -9.02405L-4.41555 35.3841L-3.04296 36.8086L43.043 -7.59961ZM41.6707 -9.02375C41.6227 -9.07355 41.5745 -9.12328 41.5261 -9.17293L-4.30361 35.4996C-4.3412 35.4611 -4.37861 35.4225 -4.41583 35.3838L41.6707 -9.02375ZM-9.90588 41.0819L-3.04297 48.2041L43.043 3.79591L36.1801 -3.32629L-9.90588 41.0819ZM43.043 48.2041L49.9059 41.0819L3.81995 -3.32629L-3.04297 3.79591L43.043 48.2041Z" fill="#E4003A" mask="url(#path-1-inside-1_9238_19543)"/>
<path fill-rule="evenodd" clip-rule="evenodd" d="M40 4H24V8H40V40H24V44H44V40V8V4H40Z" fill="#F8AD07"/>
<g style="mix-blend-mode:multiply">
<path fill-rule="evenodd" clip-rule="evenodd" d="M8 4H4V44H8H24V40H8V8H24V4H8Z" fill="#870B58"/>
</g>
<rect x="28" y="24" width="4" height="12" fill="#7783A0"/>
<rect x="36" y="28" width="4" height="12" transform="rotate(90 36 28)" fill="#7783A0"/>
</svg>
