<svg width="48" height="48" viewBox="0 0 48 48" fill="none" xmlns="http://www.w3.org/2000/svg">
<path fill-rule="evenodd" clip-rule="evenodd" d="M16 12C15.6417 12 15.2943 11.9529 14.9638 11.8645L7.86449 18.9638C7.95288 19.2943 8 19.6417 8 20C8 22.2091 6.20914 24 4 24C1.79086 24 0 22.2091 0 20C0 17.7909 1.79086 16 4 16C4.35829 16 4.70557 16.0471 5.036 16.1355L12.1355 9.036C12.0471 8.70557 12 8.35829 12 8C12 5.79086 13.7909 4 16 4C18.2091 4 20 5.79086 20 8C20 8.70682 19.8167 9.37082 19.495 9.94705L27.9012 24.0012C27.934 24.0004 27.967 24 28 24C28.3724 24 28.7329 24.0509 29.0749 24.1461L36.1382 17.046C36.0481 16.7126 36 16.3619 36 16C36 13.7909 37.7909 12 40 12C42.2091 12 44 13.7909 44 16C44 18.2091 42.2091 20 40 20C39.6453 20 39.3013 19.9538 38.9739 19.8672L31.8748 27.0032C31.9565 27.3219 32 27.6559 32 28C32 30.2091 30.2091 32 28 32C25.7909 32 24 30.2091 24 28C24 27.3065 24.1765 26.6542 24.487 26.0856L16.0617 11.9995C16.0412 11.9998 16.0206 12 16 12Z" fill="#7783A0"/>
<rect x="33.0059" y="35.8344" width="4" height="17.1905" transform="rotate(-45 33.0059 35.8344)" fill="#7783A0"/>
<path fill-rule="evenodd" clip-rule="evenodd" d="M28 20C23.5817 20 20 23.5817 20 28C20 32.4183 23.5817 36 28 36V40C21.3726 40 16 34.6274 16 28C16 21.3726 21.3726 16 28 16V20Z" fill="#7783A0"/>
<path fill-rule="evenodd" clip-rule="evenodd" d="M28 36C32.4183 36 36 32.4183 36 28C36 23.5817 32.4183 20 28 20L28 16C34.6274 16 40 21.3726 40 28C40 34.6274 34.6274 40 28 40L28 36Z" fill="#7783A0"/>
</svg>
