<svg width="48" height="48" viewBox="0 0 48 48" fill="none" xmlns="http://www.w3.org/2000/svg">
<path fill-rule="evenodd" clip-rule="evenodd" d="M40 12H8V16H40V12ZM4 8V20H44V8H4Z" fill="#E4003A"/>
<path d="M32 4H36V12H32V4Z" fill="#870B58"/>
<path d="M12 4H16V12H12V4Z" fill="#870B58"/>
<g style="mix-blend-mode:multiply">
<path d="M12 24H16V28H12V24Z" fill="#870B58"/>
</g>
<g style="mix-blend-mode:multiply">
<path d="M20 24H24V28H20V24Z" fill="#870B58"/>
</g>
<g style="mix-blend-mode:multiply">
<path d="M12 32H16V36H12V32Z" fill="#870B58"/>
</g>
<path d="M22 4H26V12H22V4Z" fill="#870B58"/>
<path fill-rule="evenodd" clip-rule="evenodd" d="M24 44C26.2091 44 28 42.2091 28 40C28 37.7909 26.2091 36 24 36C21.7909 36 20 37.7909 20 40C20 42.2091 21.7909 44 24 44Z" fill="#F8AD07"/>
<path fill-rule="evenodd" clip-rule="evenodd" d="M32 36C34.2091 36 36 34.2091 36 32C36 29.7909 34.2091 28 32 28C29.7909 28 28 29.7909 28 32C28 34.2091 29.7909 36 32 36Z" fill="#F8AD07"/>
<path fill-rule="evenodd" clip-rule="evenodd" d="M36 48C38.2091 48 40 46.2091 40 44C40 41.7909 38.2091 40 36 40C33.7909 40 32 41.7909 32 44C32 46.2091 33.7909 48 36 48Z" fill="#F8AD07"/>
<path d="M4 20H8V44H4V20Z" fill="#7783A0"/>
<path d="M40 20H44V40H40V20Z" fill="#7783A0"/>
<path d="M4 40H16V44H4V40Z" fill="#7783A0"/>
</svg>
