<svg width="48" height="48" viewBox="0 0 48 48" fill="none" xmlns="http://www.w3.org/2000/svg">
<g clip-path="url(#clip0_9238_19598)">
<path fill-rule="evenodd" clip-rule="evenodd" d="M12 24H28V36H24V28H16V36H12V24Z" fill="#F8AD07"/>
<path fill-rule="evenodd" clip-rule="evenodd" d="M20 16C21.1046 16 22 15.1046 22 14C22 12.8954 21.1046 12 20 12C18.8954 12 18 12.8954 18 14C18 15.1046 18.8954 16 20 16ZM20 20C23.3137 20 26 17.3137 26 14C26 10.6863 23.3137 8 20 8C16.6863 8 14 10.6863 14 14C14 17.3137 16.6863 20 20 20Z" fill="#F8AD07"/>
<g style="mix-blend-mode:multiply">
<path d="M31.5153 32.0644C31.075 32.4839 30.6108 32.8785 30.125 33.2461L44.8789 48L48.0061 44.8728L33.2522 30.1189C32.8846 30.6047 32.49 31.0689 32.0705 31.5092L31.5153 32.0644Z" fill="#7783A0"/>
</g>
<path d="M20 4.32432V0C8.9543 0 0 8.9543 0 20C0 31.0457 8.9543 40 20 40V35.6757C11.3426 35.6757 4.32432 28.6574 4.32432 20C4.32432 11.3426 11.3426 4.32432 20 4.32432Z" fill="#E4003A"/>
<path d="M20 4.32432V0C31.0457 0 40 8.9543 40 20C40 31.0457 31.0457 40 20 40V35.6757C28.6574 35.6757 35.6757 28.6574 35.6757 20C35.6757 11.3426 28.6574 4.32432 20 4.32432Z" fill="#870B58"/>
</g>
<defs>
<clipPath id="clip0_9238_19598">
<rect width="48" height="48" fill="white"/>
</clipPath>
</defs>
</svg>
