<svg width="48" height="48" viewBox="0 0 48 48" fill="none" xmlns="http://www.w3.org/2000/svg">
<path d="M20 12.0098C19.8341 12.0033 19.6675 12 19.5 12C13.7636 12 8.92967 15.8641 7.45915 21.1314C3.2227 21.8623 0 25.5548 0 30C0 34.9706 4.02944 39 9 39H31C36.5229 39 41 34.5228 41 29C41 28.6625 40.9833 28.3289 40.9506 28H36.917C36.9716 28.3252 37 28.6593 37 29C37 32.3137 34.3137 35 31 35H9C6.23858 35 4 32.7614 4 30C4 27.2386 6.23858 25 9 25C11.7614 25 14 27.2386 14 30H18C18 25.9303 15.2988 22.4915 11.5914 21.3787C12.8357 18.2286 15.9076 16 19.5 16C19.6678 16 19.8346 16.0049 20 16.0145V12.0098Z" fill="#7783A0"/>
<rect x="36" y="6.125" width="4" height="4" transform="rotate(-180 36 6.125)" fill="#F8AD07"/>
<rect x="36" y="26.125" width="4" height="4" transform="rotate(-180 36 26.125)" fill="#F8AD07"/>
<rect x="26" y="16" width="4" height="4" transform="rotate(-180 26 16)" fill="#F8AD07"/>
<rect x="46" y="16" width="4" height="4" transform="rotate(-180 46 16)" fill="#F8AD07"/>
<rect width="3.99999" height="3.99999" transform="matrix(-0.707104 -0.707109 0.707105 -0.707109 41.071 9.88232)" fill="#F8AD07"/>
<rect width="4" height="4" transform="matrix(-0.707107 -0.707106 0.707107 -0.707106 26.929 24.0244)" fill="#F8AD07"/>
<rect width="3.99999" height="3.99999" transform="matrix(-0.707106 -0.707108 0.707106 -0.707108 27.0173 9.79395)" fill="#F8AD07"/>
<rect x="41.1594" y="23.936" width="4" height="4" transform="rotate(-135 41.1594 23.936)" fill="#F8AD07"/>
<path fill-rule="evenodd" clip-rule="evenodd" d="M34 20.125C37.3137 20.125 40 17.4387 40 14.125C40 10.8113 37.3137 8.125 34 8.125C30.6863 8.125 28 10.8113 28 14.125C28 17.4387 30.6863 20.125 34 20.125ZM34 24.125C39.5228 24.125 44 19.6478 44 14.125C44 8.60215 39.5228 4.125 34 4.125C28.4772 4.125 24 8.60215 24 14.125C24 19.6478 28.4772 24.125 34 24.125Z" fill="#E4003A"/>
</svg>
