<svg width="48" height="48" viewBox="0 0 48 48" fill="none" xmlns="http://www.w3.org/2000/svg">
<path fill-rule="evenodd" clip-rule="evenodd" d="M20 24H4V44H44V40C44 35.5817 40.4183 32 36 32H28C28 27.5817 24.4183 24 20 24ZM20 28H8V40H40C40 37.7909 38.2091 36 36 36H18C16.8954 36 16 35.1046 16 34C16 32.8954 16.8954 32 18 32H24C24 29.7909 22.2091 28 20 28Z" fill="#F8AD07"/>
<path d="M4 20H8V48H4V20Z" fill="#870B58"/>
<rect y="40" width="4" height="4" fill="#7783A0"/>
<rect y="24" width="4" height="4" fill="#7783A0"/>
<path fill-rule="evenodd" clip-rule="evenodd" d="M27.1215 8.523C26.405 7.82296 25.2306 7.82583 24.5175 8.53071C23.8275 9.21262 23.8275 10.2986 24.5175 10.9805L32 18.376L39.4825 10.9805C40.1725 10.2986 40.1725 9.21262 39.4825 8.53071C38.7694 7.82583 37.595 7.82296 36.8785 8.523L36.8784 8.5231L36.8707 8.53071L32 13.3447L27.1293 8.53071L27.1215 8.523ZM34.0589 5.68578C34.0669 5.6778 34.075 5.66986 34.0831 5.66194C36.3592 3.4381 40.0283 3.44605 42.2944 5.68578C44.5685 7.93348 44.5685 11.5777 42.2944 13.8254L32 24L21.7056 13.8254C19.4315 11.5777 19.4315 7.93348 21.7056 5.68578C23.9717 3.44605 27.6408 3.4381 29.9169 5.66194C29.925 5.66986 29.9331 5.6778 29.9411 5.68578L32 7.72069L34.0589 5.68578Z" fill="#E4003A"/>
</svg>
