<svg width="48" height="48" viewBox="0 0 48 48" fill="none" xmlns="http://www.w3.org/2000/svg">
<g clip-path="url(#clip0_10021_10573)">
<path fill-rule="evenodd" clip-rule="evenodd" d="M12 30C15.3137 30 18 27.3137 18 24C18 20.6863 15.3137 18 12 18C8.68629 18 6 20.6863 6 24C6 27.3137 8.68629 30 12 30ZM12 34C17.5228 34 22 29.5228 22 24C22 18.4772 17.5228 14 12 14C6.47715 14 2 18.4772 2 24C2 29.5228 6.47715 34 12 34Z" fill="#E4003A"/>
<path fill-rule="evenodd" clip-rule="evenodd" d="M28 16H44V24H40V20H32V24H28V16Z" fill="#E4003A"/>
<path d="M16 36H0V48H4V40H16V36Z" fill="#7783A0"/>
<path fill-rule="evenodd" clip-rule="evenodd" d="M36 10C37.1046 10 38 9.10457 38 8C38 6.89543 37.1046 6 36 6C34.8954 6 34 6.89543 34 8C34 9.10457 34.8954 10 36 10ZM36 14C39.3137 14 42 11.3137 42 8C42 4.68629 39.3137 2 36 2C32.6863 2 30 4.68629 30 8C30 11.3137 32.6863 14 36 14Z" fill="#F8AD07"/>
<circle cx="24" cy="36" r="4" fill="#F8AD07"/>
<path d="M20.0115 40L23.8752 41.0353L21.9888 48.0753L20.3714 46.3843L18.1251 47.04L20.0115 40Z" fill="#870B58"/>
<path d="M27.9888 40L24.1251 41.0353L26.0114 48.0753L27.6289 46.3843L29.8751 47.04L27.9888 40Z" fill="#E4003A"/>
</g>
<defs>
<clipPath id="clip0_10021_10573">
<rect width="48" height="48" fill="white"/>
</clipPath>
</defs>
</svg>
