<svg width="48" height="48" viewBox="0 0 48 48" fill="none" xmlns="http://www.w3.org/2000/svg">
<path fill-rule="evenodd" clip-rule="evenodd" d="M24 20L42 16V40L24 44L6 40V16L24 20ZM26 23.6531L38 20.9865V36.7913L26 39.458V23.6531ZM22 23.6531L10 20.9865V36.7913L22 39.458V23.6531Z" fill="#7783A0"/>
<path fill-rule="evenodd" clip-rule="evenodd" d="M24 12C26.2091 12 28 10.2091 28 8C28 5.79086 26.2091 4 24 4C21.7909 4 20 5.79086 20 8C20 10.2091 21.7909 12 24 12ZM24 16C28.4183 16 32 12.4183 32 8C32 3.58172 28.4183 0 24 0C19.5817 0 16 3.58172 16 8C16 12.4183 19.5817 16 24 16Z" fill="#7783A0"/>
<path d="M35 24.5962V34.5777L29 35.9041V25.9226L35 24.5962Z" fill="#7783A0"/>
<path d="M13 28.0001V24.5962L19 25.9226V29.3265L13 28.0001Z" fill="#7783A0"/>
<path d="M13 34.5289V31.125L19 32.4514V35.8553L13 34.5289Z" fill="#7783A0"/>
</svg>
