<svg width="48" height="48" viewBox="0 0 48 48" fill="none" xmlns="http://www.w3.org/2000/svg">
<path fill-rule="evenodd" clip-rule="evenodd" d="M24 32C32.8366 32 40 24.8366 40 16C40 7.16344 32.8366 0 24 0C15.1634 0 8 7.16344 8 16C8 24.8366 15.1634 32 24 32ZM24.125 28C30.7524 28 36.125 22.6274 36.125 16C36.125 9.37258 30.7524 4 24.125 4C17.4976 4 12.125 9.37258 12.125 16C12.125 22.6274 17.4976 28 24.125 28Z" fill="#F8AD07"/>
<path d="M26 33.5L30.7089 32.2383L34.5912 46.7271L31.7865 45.6414L29.8823 47.9889L26 33.5Z" fill="#E4003A"/>
<path d="M21.9663 33.5L17.2574 32.2383L13.3751 46.7271L16.1798 45.6414L18.084 47.9889L21.9663 33.5Z" fill="#870B58"/>
<path fill-rule="evenodd" clip-rule="evenodd" d="M24 10C20.6863 10 18 12.6863 18 16H14C14 10.4772 18.4772 6 24 6V10Z" fill="#7783A0"/>
</svg>
