<svg width="48" height="48" viewBox="0 0 48 48" fill="none" xmlns="http://www.w3.org/2000/svg">
<path fill-rule="evenodd" clip-rule="evenodd" d="M28 21.7172L4.04268 16.0067C4.02565 16.0027 4.0116 16.0008 4 16.0002V38.2828L27.9573 43.9933C27.9743 43.9973 27.9884 43.9992 28 43.9998V21.7172ZM4.97014 12.1157C2.44556 11.514 0 13.3345 0 15.8157V38.4637C0 40.2137 1.24919 41.7391 3.02986 42.1636L27.0299 47.8843C29.5544 48.486 32 46.6655 32 44.1843V21.5364C32 19.7863 30.7508 18.2609 28.9701 17.8364L4.97014 12.1157Z" fill="#7783A0"/>
<path fill-rule="evenodd" clip-rule="evenodd" d="M32 12L3.99593 12C4.31589 12.0003 4.64235 12.0376 4.97014 12.1157L21.2658 16H32V12ZM36 20V36H32V40H36C38.2091 40 40 38.2091 40 36V20H36Z" fill="#7783A0"/>
<path fill-rule="evenodd" clip-rule="evenodd" d="M40 16C42.2091 16 44 14.2091 44 12C44 9.79086 42.2091 8 40 8C37.7909 8 36 9.79086 36 12C36 14.2091 37.7909 16 40 16Z" fill="#7783A0"/>
<path fill-rule="evenodd" clip-rule="evenodd" d="M32 8C34.2091 8 36 6.20914 36 4C36 1.79086 34.2091 0 32 0C29.7909 0 28 1.79086 28 4C28 6.20914 29.7909 8 32 8Z" fill="#7783A0"/>
<circle cx="20" cy="32" r="4" fill="#7783A0"/>
</svg>
