<svg width="40" height="40" viewBox="0 0 40 40" fill="none" xmlns="http://www.w3.org/2000/svg">
<g clip-path="url(#clip0_769_17479)">
<path d="M0 20C0 8.95431 8.95431 0 20 0C31.0457 0 40 8.95431 40 20C40 31.0457 31.0457 40 20 40C8.95431 40 0 31.0457 0 20Z" fill="#E94E0F"/>
<g clip-path="url(#clip1_769_17479)">
<path fill-rule="evenodd" clip-rule="evenodd" d="M-20.3816 0.00012207H59.8317V40.1068H-20.3816V0.00012207Z" fill="#6797D6"/>
<path fill-rule="evenodd" clip-rule="evenodd" d="M19.7094 9.63514L17.1714 11.3741L18.1428 8.56197L15.5969 6.82297H18.7381L19.7094 4.0108L20.6808 6.8308H23.8141L21.2761 8.56197L22.2474 11.3741L19.7094 9.63514ZM19.7094 30.5501L17.1714 28.8111L18.1428 31.6311L15.5969 33.3623H18.7381L19.7094 36.1745L20.6808 33.3545L23.8141 33.3623L21.2761 31.6233L22.2474 28.8111L19.7094 30.5501ZM7.48943 21.5731L5.57027 23.9701L5.67993 20.9935L2.74243 20.077L5.75043 19.1605L5.85227 16.1838L7.5991 18.5965L10.6071 17.6721L8.6801 20.077L10.4348 22.4818L7.48943 21.5731ZM31.9138 21.5653L33.8408 23.9701L33.7311 20.9935L36.6686 20.077L33.6606 19.1605L33.5588 16.1838L31.8119 18.5965L28.8039 17.6721L30.7309 20.077L28.9763 22.4818" fill="white"/>
</g>
</g>
<defs>
<clipPath id="clip0_769_17479">
<path d="M0 20C0 8.95431 8.95431 0 20 0C31.0457 0 40 8.95431 40 20C40 31.0457 31.0457 40 20 40C8.95431 40 0 31.0457 0 20Z" fill="white"/>
</clipPath>
<clipPath id="clip1_769_17479">
<rect width="53.3333" height="40" fill="white" transform="translate(-7 0.00012207)"/>
</clipPath>
</defs>
</svg>
