<svg width="40" height="40" viewBox="0 0 40 40" fill="none" xmlns="http://www.w3.org/2000/svg">
<g clip-path="url(#clip0_769_17295)">
<path d="M0 20C0 8.95431 8.95431 0 20 0C31.0457 0 40 8.95431 40 20C40 31.0457 31.0457 40 20 40C8.95431 40 0 31.0457 0 20Z" fill="#E94E0F"/>
<g clip-path="url(#clip1_769_17295)">
<path d="M-7 0.00012207V40.0001H46.3333V0.00012207H-7Z" fill="#68BFE5"/>
<path d="M28.0752 16.1002V27.4668C28.0752 31.1835 34.7919 33.3835 34.7919 33.3835C34.7919 33.3835 41.5002 31.1835 41.5002 27.4668V16.1002H28.0752Z" fill="white"/>
<path d="M33.8585 20.1002V25.2168H28.0752V27.0752H33.8585V33.0335L34.7919 33.3918L35.7169 33.0335V27.0835H41.5002V25.2168H35.7169V20.1002H33.8585Z" fill="#D21034"/>
<path d="M28.0752 16.1002H41.5002V20.5002H28.0669L28.0752 16.1002Z" fill="#D21034"/>
<path d="M29.15 19.3835C29.5661 19.3835 29.9035 19.1106 29.9035 18.774C29.9035 18.4374 29.5661 18.1646 29.15 18.1646C28.7338 18.1646 28.3965 18.4374 28.3965 18.774C28.3965 19.1106 28.7338 19.3835 29.15 19.3835Z" fill="white" stroke="black" stroke-width="0.044324" stroke-miterlimit="3"/>
<path d="M29.1499 18.7962C29.5201 18.7962 29.8203 18.6449 29.8203 18.4582C29.8203 18.2716 29.5201 18.1202 29.1499 18.1202C28.7796 18.1202 28.4795 18.2716 28.4795 18.4582C28.4795 18.6449 28.7796 18.7962 29.1499 18.7962Z" fill="white" stroke="black" stroke-width="0.044324" stroke-miterlimit="3"/>
<path d="M29.1499 19.4777C29.5201 19.4777 29.8203 19.3264 29.8203 19.1397C29.8203 18.953 29.5201 18.8017 29.1499 18.8017C28.7796 18.8017 28.4795 18.953 28.4795 19.1397C28.4795 19.3264 28.7796 19.4777 29.1499 19.4777Z" fill="white" stroke="black" stroke-width="0.044324" stroke-miterlimit="3"/>
<path d="M29.1499 19.112C29.5201 19.112 29.8203 18.9607 29.8203 18.774C29.8203 18.5873 29.5201 18.436 29.1499 18.436C28.7796 18.436 28.4795 18.5873 28.4795 18.774C28.4795 18.9607 28.7796 19.112 29.1499 19.112Z" fill="white" stroke="black" stroke-width="0.044324" stroke-miterlimit="3"/>
<path d="M41.1672 19.6168L41.0588 19.3168C41.0588 19.3168 40.7588 19.1918 40.7338 19.0335C40.6838 18.6085 40.5338 18.4502 40.3005 18.3835C40.1749 18.3479 40.0403 18.3628 39.9255 18.4252C39.8588 18.5252 39.5088 18.5252 39.3255 18.5335C39.1338 18.5335 39.1255 18.4502 39.1255 18.4502C38.9838 18.4502 38.9172 18.3418 38.9172 18.3418C38.8255 18.1502 38.7505 18.0752 38.7005 18.0502C38.9505 18.0502 39.1338 17.9418 39.4172 17.6502C39.7172 17.3335 39.9338 17.4502 39.9338 17.4502C39.7838 17.7502 39.9838 17.7252 39.9838 17.7252C40.3838 17.5168 40.0338 17.0002 39.9172 17.0252C39.7922 17.0502 39.7588 16.9668 39.7588 16.9668C39.7588 17.0585 39.6255 17.1002 39.6255 17.1002C39.7255 16.5085 39.3755 16.3502 39.3755 16.3502C39.3255 16.4002 39.2922 16.5085 39.2922 16.5085C39.1922 16.8668 38.8672 16.8085 38.5005 16.6335C38.1338 16.4668 37.1672 16.8168 36.8588 16.9418C36.5505 17.0668 35.9922 17.2502 35.4922 16.9752C34.9922 16.6918 34.8672 16.7418 34.6672 16.8002C34.4755 16.8502 34.1255 16.9335 34.0005 16.8668C33.9123 16.8224 33.8158 16.7968 33.7172 16.7918C33.7505 16.7752 33.7005 16.6918 33.7005 16.6918C33.5422 16.4835 33.7172 16.3585 33.7172 16.3585C33.7172 16.3585 33.4338 16.4418 33.5505 16.9252L33.6005 16.9918C33.6005 16.9918 33.6338 17.1502 33.7172 17.1918V17.2252C33.7172 17.2252 33.7922 17.1918 33.8088 17.2918C33.8338 17.3918 33.9422 17.2918 33.9838 17.2085C33.9838 17.2085 33.9088 17.6585 34.4588 17.7668C34.4588 17.7668 34.4005 17.6918 34.4172 17.6502C34.4422 17.6002 34.3505 17.5668 34.3588 17.5002C34.3672 17.4252 34.2255 17.4002 34.3338 17.3418C34.4505 17.2918 34.5005 17.1835 34.7505 17.3335C34.9922 17.4752 35.1838 17.4418 35.1838 17.4418C35.1838 17.4418 35.0338 17.1418 35.1172 17.1418C35.2005 17.1418 35.5672 17.5918 35.7422 17.5752C35.9255 17.5502 36.2755 17.3418 36.4505 17.4168C36.4505 17.4168 36.4672 17.3335 37.1338 17.2168C37.8005 17.1002 38.6338 16.7668 38.9422 17.0585C38.9422 17.0585 38.9755 17.2918 39.1088 17.3502C39.1088 17.3502 39.0838 17.8335 38.2588 17.5668L37.9588 17.4835C37.9588 17.4835 37.9088 17.3418 36.3338 17.7502C36.3338 17.7502 36.2422 17.7835 36.1755 17.8252C36.1172 17.8668 36.0338 17.8002 35.7172 17.9085C35.4088 18.0335 34.2422 18.4085 33.5255 18.2752C33.3672 18.2252 33.2255 18.2502 33.2172 18.2252C33.2172 18.2002 33.3005 18.2335 33.3005 18.2335C33.2505 18.1752 33.2255 18.1668 33.2255 18.1668C32.6255 18.1002 32.7255 17.8335 32.7255 17.8335L32.7588 17.9168C32.8588 17.7835 32.7255 17.4835 32.7255 17.4835H32.7172C32.7175 17.4752 32.7175 17.4668 32.7172 17.4585L32.7588 17.4252C33.0505 17.1752 33.3838 17.1335 33.3838 17.1335C33.1838 16.8835 32.7672 17.0168 32.7672 17.0168C32.7755 16.7252 32.6505 16.3752 32.6505 16.3752C32.3938 16.4173 32.1636 16.5578 32.0088 16.7668C31.9922 16.4585 31.6005 16.2835 31.6005 16.2835C31.7505 16.4585 31.6588 16.8835 31.6588 16.8835H31.6755H31.6338L31.6255 16.9752H31.6088C31.6088 16.9752 31.4672 17.0252 31.3005 17.4085C31.3005 17.4085 31.2838 17.4918 31.2172 17.5752V17.5418C31.2172 17.5418 31.0255 17.7918 30.6005 17.5418C30.6005 17.5418 30.0172 17.2002 29.8005 17.2085C29.6005 17.2252 29.4672 17.3168 29.4755 17.3752C29.4755 17.3752 29.0005 17.3418 28.8422 17.6085C28.8422 17.6085 28.4838 17.7418 28.7922 18.0252C28.7922 18.0252 28.8338 18.1585 28.9172 18.2252C28.9172 18.2252 28.9088 17.9585 28.9755 18.0335L29.0172 18.0835C29.0255 18.1168 29.0588 18.2168 29.1172 18.2752L29.1672 18.2585C29.1672 18.1918 29.1838 18.1085 29.2005 18.0752H29.2172L29.3005 18.2085L29.3838 18.1585C29.4338 18.1585 29.4922 18.2002 29.4922 18.2002L29.6005 18.1085C29.7088 18.1252 29.7422 17.9085 29.7422 17.9085C29.7858 17.9193 29.8312 17.9212 29.8756 17.9141C29.92 17.9069 29.9625 17.8909 30.0005 17.8668C30.0505 18.0335 30.4338 18.2252 30.4338 18.2252H30.4505L30.4005 18.2585C30.5755 18.3835 30.9005 18.3502 30.9005 18.3502C30.7672 18.4002 30.7838 18.6585 30.7838 18.6585C30.7005 18.6918 30.7005 18.7668 30.7005 18.7668C30.9672 18.8752 31.1422 18.7835 31.1422 18.7835C31.1588 18.8668 31.1422 18.8835 31.1422 18.8835C31.0338 19.1085 30.9838 19.3335 30.9838 19.3335H30.9922V19.3502C30.9922 19.3502 30.5172 19.5168 30.3172 19.7418C30.3172 19.7418 30.2922 19.6752 30.2338 19.6752C30.1755 19.6752 30.0005 19.5252 29.9172 19.5002C29.8338 19.4752 29.7088 19.5252 29.6672 19.4835C29.6422 19.4502 29.6588 19.1835 29.6005 19.1502L29.5422 18.9835C29.5088 19.0668 29.3422 19.0502 29.3422 19.0502L29.2755 19.1002L29.2088 19.0918C29.1922 19.0918 29.1755 19.1335 29.1672 19.1752L29.1422 19.2002V19.1502C29.1172 19.1752 29.0505 19.1418 29.0255 19.1418C29.0088 19.1418 28.9922 19.1752 28.9838 19.2168L28.8255 19.2252C28.8005 19.2418 28.8255 19.4418 28.8255 19.4418C28.6338 19.5418 28.7255 19.7002 28.7255 19.7002C28.8255 20.2002 29.6838 19.9752 29.7505 20.0418C29.8172 20.1085 29.9672 20.1252 30.0422 20.1252C30.1255 20.1252 30.2172 20.3085 30.3255 20.3252C30.4338 20.3418 30.3255 20.1752 30.8338 20.0585C31.3422 19.9335 31.5172 19.7252 31.5172 19.7252C31.6755 19.6918 31.7172 19.5002 31.7255 19.4252L31.7422 19.5418C31.7672 19.7168 31.6422 19.7918 31.6422 19.7918L32.0838 19.6502C32.2588 19.6085 32.2338 19.4502 32.2338 19.4502C32.4005 19.9335 32.7088 19.9668 32.7088 19.9668C32.7672 19.7835 32.7588 19.7252 32.7588 19.7252H32.9005C32.9005 19.6168 32.8172 19.5418 32.7588 19.5085L32.9755 19.6335L33.0588 19.6252C33.0588 19.7002 33.1672 19.7668 33.1672 19.7668L33.1838 19.6668C33.2838 19.8002 33.4672 19.7502 33.4672 19.7502C33.4629 19.7277 33.4573 19.7054 33.4505 19.6835C33.8422 19.9252 34.4672 19.6168 34.4672 19.6168C34.6338 19.6502 34.6588 19.5502 34.6588 19.5502C34.8422 19.5752 34.8922 19.4418 34.8922 19.4418C35.3338 19.4085 35.6505 19.0918 35.6505 19.0918C35.8755 19.0752 35.8838 18.9168 35.8838 18.9168C35.8838 18.9168 36.1005 18.9585 36.3172 18.6918C36.8172 17.9835 37.5505 18.3585 37.5505 18.3585L37.1255 18.3835C36.0005 18.3752 36.4672 19.1335 36.4672 19.1335H36.5338C36.6422 19.1502 37.0088 19.4418 36.8672 19.6502V19.6668C36.6338 19.9752 36.2172 19.6835 36.0922 19.4168C35.9755 19.1502 35.7255 19.2085 35.7255 19.2085C35.7255 19.2085 35.1005 19.3168 35.3588 19.8168C35.3672 19.9418 35.4422 20.0835 35.6755 20.2168C35.8005 20.4002 36.2172 20.4168 36.5172 20.3502C36.6672 20.3335 37.4172 20.0002 37.4172 20.0002C37.4755 19.8335 37.6672 19.8752 37.8338 19.6335C38.0005 19.4002 37.5922 19.3168 37.5005 19.1835C37.4172 19.0585 37.5255 19.0835 37.5255 19.0835C37.8922 19.2752 37.9255 18.6502 37.9255 18.6502C37.9364 18.7524 37.9758 18.8496 38.0391 18.9306C38.1024 19.0116 38.1872 19.0733 38.2838 19.1085C38.4755 18.9168 38.3338 18.5085 38.3338 18.5085C38.8088 19.3585 39.0922 19.2168 39.0922 19.2168C38.8422 19.0668 38.9672 18.8502 38.9672 18.8502C39.1922 19.7502 40.1338 18.9668 40.1338 18.9668C40.0838 19.1002 40.1338 19.1752 40.2172 19.2585C40.3005 19.3418 40.4005 19.3752 40.3505 19.5335C40.3088 19.6835 39.8672 19.6502 39.8672 19.6502C39.8672 19.6502 39.4505 19.6335 39.4838 19.9835C39.5088 20.0668 39.7838 20.1002 39.9005 20.0752C39.9005 20.0752 39.8505 20.0918 40.0088 20.1085H40.1922C40.3672 20.1085 40.5672 20.0752 40.5672 20.0752C40.8088 20.0252 40.7672 19.9418 40.7672 19.9418C41.1422 19.8752 41.1838 19.6252 41.1838 19.6252L41.1672 19.6168Z" fill="#FFD100" stroke="black" stroke-width="0.0666667" stroke-miterlimit="3"/>
<path d="M28.8006 18.0585C28.8006 18.0585 28.8256 18.0168 28.8589 18.0085C28.8922 18.0085 28.9256 18.0252 28.9589 18.0752L28.9839 18.0585C28.9839 18.0585 28.8839 17.9085 28.9172 17.8085C28.9422 17.7585 28.9839 17.7252 29.0506 17.7168V17.6918C28.9672 17.7085 28.9172 17.7418 28.9006 17.8002C28.8915 17.8184 28.8858 17.8382 28.8839 17.8585C28.8839 17.9085 28.9006 17.9585 28.9256 18.0002C28.9063 17.9862 28.8824 17.9802 28.8589 17.9835C28.8444 17.9852 28.8306 17.9908 28.8189 17.9996C28.8072 18.0083 28.798 18.02 28.7922 18.0335L28.8006 18.0585ZM40.5506 20.0585C40.3006 20.1002 39.9256 20.1168 39.8922 20.0418C39.8922 20.0252 39.8922 19.9752 40.0922 19.8418L40.0756 19.8002C39.9006 19.9168 39.8256 19.9918 39.8506 20.0502C39.9089 20.2002 40.4506 20.1168 40.5589 20.1002L40.5506 20.0585ZM35.6839 20.2002C35.6256 20.1168 35.6589 19.9918 35.7672 19.8418L35.7256 19.8168C35.6089 19.9835 35.5839 20.1168 35.6422 20.2335L35.6839 20.2002Z" fill="black"/>
<path d="M35.3422 19.8168C35.3422 19.9752 35.4589 20.1168 35.6672 20.2418L35.6922 20.2002C35.4922 20.0835 35.3922 19.9502 35.3922 19.8168C35.3755 19.6085 35.6005 19.4418 35.6089 19.4418L35.5839 19.4085C35.5672 19.4085 35.3339 19.5835 35.3422 19.8252V19.8168ZM39.6755 19.8752C39.6089 19.9835 39.6339 20.1085 39.6339 20.1085H39.6755C39.6755 20.1002 39.6589 19.9918 39.7172 19.9002C39.7369 19.8732 39.7618 19.8505 39.7904 19.8333C39.819 19.8161 39.8508 19.8049 39.8839 19.8002V19.7585C39.7922 19.7752 39.7172 19.8168 39.6839 19.8752H39.6755ZM29.7505 17.9252H29.7339V17.9418C29.7339 17.9418 29.7172 18.0752 29.6505 18.1085C29.6345 18.115 29.6166 18.115 29.6005 18.1085L29.4922 18.0502C29.4755 18.0335 29.4589 18.0252 29.4255 18.0335C29.4121 18.0175 29.4023 17.9988 29.3965 17.9787C29.3908 17.9586 29.3893 17.9375 29.3922 17.9168C29.4005 17.8585 29.4422 17.8002 29.5255 17.7502L29.5089 17.7252C29.4255 17.7835 29.3755 17.8502 29.3672 17.9168C29.3672 18.0002 29.4089 18.0502 29.4089 18.0502V18.0585H29.4255C29.4505 18.0502 29.4505 18.0585 29.4755 18.0752L29.5922 18.1418H29.6755C29.7339 18.1002 29.7589 17.9835 29.7589 17.9585C30.0255 18.0168 30.2422 17.6835 30.2589 17.6752L30.2339 17.6585C30.2339 17.6585 30.0089 17.9918 29.7505 17.9252Z" fill="black"/>
<path d="M29.0921 17.8752C29.0834 17.9329 29.0952 17.9919 29.1254 18.0418C29.1504 18.0835 29.1838 18.1085 29.2088 18.1168C29.2504 18.1168 29.2754 18.0918 29.3088 18.0668C29.3254 18.0502 29.3421 18.0335 29.3588 18.0335L29.3838 18.0502L29.4004 18.0335L29.3588 18.0085C29.3338 18.0085 29.3088 18.0252 29.2921 18.0502C29.2754 18.0752 29.2421 18.0918 29.2088 18.0918C29.1921 18.0918 29.1671 18.0668 29.1421 18.0252C29.1286 18.0045 29.1194 17.9812 29.1151 17.9569C29.1108 17.9326 29.1115 17.9076 29.1171 17.8835C29.1504 17.7668 29.2921 17.6752 29.2921 17.6752L29.2838 17.6502C29.2754 17.6502 29.1254 17.7502 29.0921 17.8752ZM28.7254 19.6002C28.7338 19.5502 28.7754 19.5168 28.8338 19.4835C28.8171 19.4835 28.8838 19.5335 28.9421 19.5335L28.9838 19.5085C29.0004 19.5252 29.1004 19.6168 29.1004 19.7335C29.1004 19.7585 29.1004 19.7835 29.0838 19.8085L29.1088 19.8168C29.1838 19.6418 28.9921 19.4835 28.9921 19.4835H28.9754L28.9421 19.5085C28.8921 19.5085 28.8338 19.4585 28.8338 19.4585C28.7504 19.4918 28.7171 19.5418 28.7004 19.5918L28.7254 19.6002ZM29.5838 19.1502C29.5254 19.1585 29.3754 19.1835 29.3254 19.2668C29.3088 19.3002 29.3004 19.3335 29.3171 19.3668L29.3338 19.4168C29.3838 19.5502 29.4338 19.6835 29.4921 19.7168L29.5004 19.6918C29.4504 19.6668 29.4004 19.5252 29.3588 19.4085L29.3421 19.3585C29.3348 19.3458 29.3309 19.3315 29.3309 19.3168C29.3309 19.3022 29.3348 19.2878 29.3421 19.2752C29.3838 19.2168 29.5254 19.1918 29.5921 19.1835C29.6254 19.1835 29.6338 19.3085 29.6421 19.3835H29.6671C29.6588 19.2668 29.6421 19.1502 29.5838 19.1502Z" fill="black"/>
<path d="M29.1587 19.2835C29.1254 19.3085 29.1337 19.3502 29.1337 19.3585C29.1337 19.3668 29.1504 19.6918 29.3004 19.7585L29.3087 19.7335C29.1754 19.6752 29.1587 19.3585 29.1587 19.3502C29.1587 19.3502 29.1587 19.3168 29.1754 19.3002C29.2004 19.2835 29.2421 19.2752 29.3087 19.3002L29.3171 19.2752C29.2421 19.2502 29.1921 19.2585 29.1587 19.2752V19.2835Z" fill="black"/>
<path d="M29.0338 19.3085C28.9671 19.3585 28.9754 19.4919 28.9754 19.5002H29.0004C29.0004 19.5002 29.0004 19.3669 29.0504 19.3335C29.0754 19.3169 29.1004 19.3169 29.1338 19.3335L29.1421 19.3002C29.1004 19.2835 29.0588 19.2835 29.0338 19.3002V19.3085Z" fill="black"/>
<path d="M32.7011 17.5163C32.7011 17.5163 32.7732 17.6825 32.7732 17.81C32.7732 17.8321 32.7621 17.8487 32.7565 17.8654L32.7288 17.7933L32.7122 17.8487C32.7122 17.8487 32.679 17.9263 32.7288 18.0094C32.7953 18.1202 32.9615 18.1867 33.2275 18.2144V18.22C33.2197 18.2198 33.2121 18.2217 33.2053 18.2255L33.1942 18.2366V18.2587C33.2053 18.2864 33.233 18.2864 33.294 18.2864L33.3327 18.292L33.366 18.3031L33.3604 18.2975C33.4159 18.2975 33.4879 18.3141 33.5599 18.3419L33.5045 18.3529L33.5654 18.3806C33.571 18.3806 34.0475 18.5746 34.2414 18.7297C34.186 18.7796 33.9477 18.9513 33.5377 18.8516L33.4713 18.835L33.5156 18.8904C33.5156 18.8904 33.7871 19.2006 33.8425 19.389C33.7483 19.389 33.3882 19.389 33.2607 19.2782L33.233 19.3059C33.233 19.3059 33.3992 19.5608 33.4436 19.7547C33.3882 19.7658 33.2773 19.7713 33.2053 19.6771L33.1721 19.6383L33.1555 19.7491C33.1222 19.7214 33.0779 19.6882 33.0779 19.6439V19.6217L32.9782 19.6383L32.7676 19.5109C32.7569 19.503 32.7458 19.4956 32.7344 19.4887L32.7122 19.5275L32.7455 19.5441C32.7898 19.5774 32.8673 19.6383 32.8729 19.727H32.7399V19.7547C32.7399 19.7713 32.7399 19.8322 32.69 19.9597C32.6291 19.9486 32.3964 19.8655 32.2579 19.4721L32.2136 19.4832V19.4943C32.2136 19.5331 32.2025 19.6217 32.0806 19.6549L31.7205 19.7658C31.752 19.7204 31.7676 19.6658 31.7648 19.6106V19.5663C31.758 19.5186 31.7543 19.4705 31.7537 19.4222C31.7537 19.3391 31.7703 19.2893 31.8313 19.256L31.8091 19.2117C31.8036 19.2117 31.2772 19.4278 31.0168 19.3391C31.0279 19.2837 31.0722 19.1064 31.1609 18.9181L31.1498 18.9291C31.1664 18.9181 31.183 18.8959 31.1664 18.8073V18.7796L31.1387 18.7906C31.1387 18.7906 30.9725 18.8682 30.7287 18.7796C30.7287 18.7574 30.7453 18.7241 30.7952 18.702L30.8118 18.6964V18.6521C30.8118 18.5856 30.8174 18.4305 30.9115 18.3973L30.9005 18.3529C30.9005 18.3529 30.6179 18.3751 30.4461 18.2809C30.5203 18.2276 30.6055 18.1916 30.6955 18.1756H30.7121V18.1535C30.7114 18.1096 30.7019 18.0663 30.6844 18.026C30.7509 18.0482 30.8284 18.0648 30.8561 18.0427L30.8672 18.0371L30.8561 17.8654H30.8118L30.8174 18.0094L30.6511 17.9706L30.5847 17.9485L30.629 18.0039C30.6558 18.0429 30.6694 18.0895 30.6678 18.1369C30.5672 18.1586 30.4727 18.2021 30.3907 18.2643L30.363 18.2864L30.3907 18.3031C30.5237 18.3917 30.7287 18.4028 30.834 18.3973C30.7868 18.4719 30.7618 18.5583 30.762 18.6466V18.6687C30.7399 18.6816 30.721 18.6992 30.7066 18.7203C30.6923 18.7414 30.6828 18.7654 30.6788 18.7906V18.8073L30.6899 18.8128C30.8273 18.876 30.9833 18.8859 31.1276 18.8405V18.8904C31.0168 19.1231 30.9614 19.3502 30.9614 19.3502V19.3724H30.978C31.1941 19.461 31.5709 19.3447 31.7426 19.2837C31.7205 19.3225 31.7038 19.3668 31.7038 19.4222C31.7045 19.4854 31.7101 19.5484 31.7205 19.6106C31.7205 19.7381 31.6374 19.7879 31.6318 19.7879L31.6484 19.8322L32.0917 19.6993C32.1914 19.6716 32.2302 19.6106 32.2468 19.5608C32.4186 19.9708 32.69 20.004 32.7067 20.0095H32.7233L32.7288 19.9929C32.7581 19.9222 32.7768 19.8475 32.7842 19.7713C32.8286 19.7696 32.8729 19.7677 32.9172 19.7658V19.7381C32.9172 19.6993 32.9117 19.666 32.895 19.6383L32.9726 19.6827L33.0446 19.6716C33.0613 19.7436 33.1499 19.8045 33.161 19.8101L33.1887 19.8267L33.2053 19.7325C33.3161 19.8267 33.4657 19.799 33.4768 19.799L33.4934 19.7935V19.7713C33.4713 19.6217 33.3715 19.4444 33.3106 19.3502C33.5045 19.4389 33.8591 19.4333 33.8757 19.4333H33.8979V19.4056C33.8249 19.2223 33.7198 19.0535 33.5876 18.907C34.0419 18.9901 34.2857 18.7518 34.2968 18.7408L34.3134 18.7241L34.2913 18.7131C34.0922 18.5708 33.8763 18.4535 33.6486 18.364L33.6984 18.3529L33.643 18.3252C33.5435 18.2744 33.4334 18.2478 33.3217 18.2477C33.2663 18.1812 33.2386 18.1756 33.233 18.1701C32.9228 18.1369 32.8119 18.0537 32.7676 17.9873V17.9706L32.7787 17.954C32.8064 17.9152 32.8175 17.8654 32.8175 17.81C32.8175 17.6659 32.7455 17.5052 32.7455 17.4997L32.7011 17.5163Z" fill="black"/>
<path d="M31.2883 17.4277C31.2883 17.4277 31.255 17.5939 31.111 17.677C31.0002 17.7324 30.8616 17.7324 30.6899 17.6604L30.6677 17.6548V17.677C30.6801 17.7483 30.7199 17.8119 30.7785 17.8543C30.8506 17.9097 30.9614 17.9319 31.1054 17.9208C31.0556 17.9762 30.906 18.1646 30.906 18.3529V18.3806C30.9281 18.3917 31.1608 18.4582 31.2716 18.3197C31.2716 18.3751 31.2938 18.569 31.3658 18.641C31.4102 18.6854 31.4212 18.7408 31.4212 18.7906C31.4212 18.835 31.4102 18.8682 31.4102 18.8682L31.3991 18.9014L31.4268 18.8793C31.4379 18.8737 31.6539 18.7131 31.7204 18.5081C31.7204 18.5081 31.7592 18.4527 31.8257 18.436V18.4638C31.8257 18.5469 31.8589 18.6909 32.0916 18.7796L32.1083 18.7851V18.7685C32.1076 18.7556 32.1076 18.7426 32.1083 18.7297C32.1083 18.6687 32.1083 18.5635 32.1692 18.5081C32.1937 18.4853 32.2102 18.4551 32.2162 18.4222C32.2222 18.3892 32.2174 18.3552 32.2024 18.3252C32.2523 18.3363 32.3631 18.3751 32.4074 18.4582C32.4739 18.5801 32.7011 18.4804 32.7122 18.4804L32.7066 18.4527C32.7066 18.4527 32.6069 18.4748 32.546 18.436C32.5332 18.426 32.5226 18.4135 32.515 18.3992C32.5074 18.3849 32.5028 18.3691 32.5016 18.3529L32.4906 18.22C32.4906 18.1646 32.4795 18.1258 32.4518 18.0981C32.4795 18.0981 32.5404 18.0981 32.5626 18.1535C32.6069 18.2421 32.7454 18.2477 32.751 18.2477L32.8008 18.2532L32.762 18.2255C32.762 18.2255 32.6401 18.1479 32.6623 18.0427L32.6789 17.9651C32.7122 17.8266 32.7676 17.5994 32.7177 17.4554L32.6955 17.4665C32.7066 17.4997 32.7122 17.544 32.7122 17.5884C32.7122 17.7102 32.6734 17.8654 32.6568 17.9596L32.6346 18.0371C32.6337 18.0463 32.6337 18.0556 32.6346 18.0648C32.6346 18.1369 32.6734 18.1867 32.7066 18.2144C32.6678 18.2089 32.6124 18.1867 32.5958 18.1424C32.557 18.0648 32.4684 18.0648 32.4296 18.0704L32.3964 18.0759L32.4185 18.0981C32.4573 18.1202 32.4628 18.1535 32.4628 18.2255L32.4739 18.3529C32.4795 18.3973 32.5016 18.4305 32.5293 18.4527C32.5626 18.4748 32.5958 18.4748 32.6235 18.4804C32.557 18.497 32.4628 18.5081 32.4296 18.4471C32.3687 18.3252 32.1914 18.2975 32.1858 18.292H32.1581L32.1692 18.3142C32.1692 18.3142 32.1914 18.3474 32.1914 18.3917C32.1914 18.4194 32.1803 18.4582 32.1526 18.4859C32.0916 18.5469 32.0806 18.6632 32.0806 18.7242V18.7463C31.8811 18.6632 31.8479 18.5413 31.8479 18.4693V18.4139L31.8589 18.3973H31.8368C31.8076 18.4022 31.78 18.4138 31.756 18.4311C31.7319 18.4484 31.7122 18.4709 31.6983 18.497C31.6432 18.6324 31.5534 18.7509 31.4379 18.8405C31.441 18.8222 31.4429 18.8037 31.4434 18.7851C31.4434 18.7352 31.4323 18.6743 31.388 18.6244C31.3049 18.5469 31.2938 18.292 31.2938 18.292V18.2477L31.2716 18.2865C31.183 18.4416 30.9281 18.364 30.9226 18.364C30.9115 18.1701 31.1442 17.9152 31.1442 17.9097L31.1664 17.8875H31.1331C30.9835 17.9097 30.8672 17.8875 30.7896 17.8321C30.7456 17.797 30.7144 17.7483 30.701 17.6936C30.8672 17.7546 31.0112 17.7601 31.122 17.6992C31.17 17.6701 31.2114 17.6315 31.2438 17.5857C31.2762 17.54 31.2989 17.4881 31.3104 17.4332C31.4766 17.0675 31.6152 17.0066 31.6152 17.0066L31.6096 16.9844C31.5985 16.9844 31.4545 17.0398 31.2883 17.4277Z" fill="black"/>
<path d="M31.6594 16.8792H31.6484L31.5154 17.062H31.5542C31.9676 17.0946 32.3553 17.2756 32.6456 17.5717L32.6623 17.5884L32.7897 17.4498L32.7786 17.4332C32.4185 16.8681 31.665 16.8792 31.6539 16.8792H31.6594ZM31.6705 16.929C31.7592 16.929 32.4019 16.9457 32.7343 17.4443L32.6623 17.5219C32.37 17.2441 31.994 17.0707 31.5929 17.0288C31.6187 16.9955 31.6446 16.9622 31.6705 16.929Z" fill="black"/>
<path d="M31.5542 17.2559C31.4946 17.3339 31.4547 17.4251 31.4379 17.5219L31.4434 17.544C31.4049 17.5844 31.3752 17.6324 31.3561 17.6848C31.3371 17.7372 31.3291 17.7931 31.3326 17.8488C31.3326 17.9208 31.3437 17.9928 31.3659 18.0593L31.3825 18.0981C31.449 18.2865 31.5099 18.4527 31.8146 18.3529C32.1027 18.2643 32.1138 18.2421 32.1858 18.1202L32.208 18.0925C32.2468 18.0261 32.2911 18.015 32.3354 17.9984C32.3908 17.9817 32.4462 17.9651 32.5017 17.8654L32.546 17.7934C32.6014 17.7213 32.6679 17.6271 32.6734 17.5163H32.6512C32.6348 17.6125 32.5926 17.7025 32.5294 17.7767L32.474 17.8543C32.4619 17.8849 32.4424 17.9121 32.4173 17.9334C32.3921 17.9546 32.3621 17.9693 32.3299 17.9762C32.3003 17.9818 32.2721 17.9936 32.2473 18.0108C32.2225 18.028 32.2016 18.0502 32.1858 18.0759L32.1637 18.1092C32.0972 18.2255 32.0861 18.2421 31.8035 18.3308C31.5265 18.4194 31.4711 18.2809 31.4046 18.087L31.388 18.0482C31.3104 17.8377 31.3714 17.6271 31.4767 17.5496L31.5099 17.5219L31.46 17.5274V17.5219C31.46 17.4831 31.4988 17.3778 31.5709 17.2725C31.6373 17.1839 31.7925 17.1008 31.7925 17.0953L31.7814 17.0731C31.7703 17.0786 31.6207 17.1673 31.5542 17.2559Z" fill="black"/>
<path d="M31.4213 18.026C31.4712 18.0593 31.5376 18.0537 31.6263 18.026C31.6263 18.0537 31.6263 18.1202 31.6817 18.1645C31.7482 18.22 31.8479 18.231 31.9864 18.1978V18.1701C31.8535 18.2033 31.7537 18.1923 31.6983 18.1424C31.6807 18.1253 31.6671 18.1045 31.6585 18.0815C31.6498 18.0585 31.6464 18.0339 31.6485 18.0094V17.9873L31.6318 17.9983C31.5487 18.0316 31.4822 18.0371 31.4324 17.9983C31.3493 17.9429 31.3548 17.7933 31.3548 17.7933H31.3326C31.3326 17.7933 31.3216 17.9595 31.4213 18.026Z" fill="black"/>
<path d="M31.5765 17.821C31.5432 17.8321 31.5322 17.8598 31.5322 17.882V17.8986C31.5432 17.9651 31.6153 18.0094 31.6762 18.026C31.7427 18.0427 31.8203 18.0482 31.848 18.0094C31.859 17.9928 31.8701 17.9651 31.848 17.9152C31.8241 17.8685 31.7833 17.8326 31.7338 17.8151C31.6843 17.7976 31.63 17.7997 31.582 17.821H31.5765ZM31.6873 18.0039C31.6319 17.9873 31.5654 17.9485 31.5599 17.8931C31.5599 17.8931 31.5543 17.8543 31.5876 17.8432C31.6304 17.8258 31.6782 17.8253 31.7213 17.8418C31.7645 17.8582 31.7999 17.8904 31.8203 17.9318C31.8369 17.954 31.8369 17.9762 31.8258 17.9873C31.8092 18.015 31.7482 18.0205 31.6873 18.0039ZM31.6651 18.1535C31.6485 18.292 31.6651 18.2975 31.6707 18.2975H31.6818L31.6928 18.292L31.7704 18.1812L31.6707 18.1368V18.1535H31.6651ZM31.6928 18.1756L31.7316 18.1923L31.6873 18.2532V18.1756H31.6928ZM31.4601 18.0427L31.4546 18.1701L31.5654 18.0371L31.4546 18.026V18.0427H31.4601ZM31.4823 18.0537H31.5155L31.4823 18.0981V18.0537Z" fill="black"/>
<path d="M31.3825 17.9984C31.3825 17.9984 31.4656 18.159 31.4822 18.22C31.4878 18.2532 31.5376 18.2975 31.5931 18.3142C31.6485 18.3363 31.7039 18.3363 31.7426 18.3086L31.8147 18.2477C31.8368 18.22 31.8479 18.2144 31.8701 18.22V18.1923C31.8368 18.1923 31.8202 18.2034 31.7981 18.2255L31.726 18.2809C31.6817 18.3142 31.6318 18.3031 31.6041 18.292C31.5487 18.2754 31.5099 18.2366 31.5044 18.2089C31.4878 18.1535 31.4102 17.9928 31.4047 17.9873L31.3825 17.9984ZM31.4933 17.5219C31.4309 17.5547 31.3833 17.6102 31.3604 17.677L31.3825 17.6825C31.3825 17.6825 31.4213 17.5828 31.4989 17.544C31.5197 17.5345 31.5424 17.5296 31.5654 17.5296C31.5883 17.5296 31.611 17.5345 31.6318 17.544L31.6374 17.5219C31.582 17.4997 31.5377 17.4997 31.4878 17.5219H31.4933ZM32.0917 17.81C32.1028 17.81 32.269 17.9429 32.1748 18.0981L32.1914 18.1147C32.3022 17.9319 32.1083 17.7878 32.1083 17.7823L32.0917 17.81ZM31.582 17.8321C31.582 17.8321 31.5543 17.9263 31.6928 17.9596C31.6928 17.9596 31.5654 17.9596 31.5543 17.9263C31.5487 17.8931 31.5543 17.8211 31.582 17.8321ZM31.9975 17.9429C31.9975 17.954 31.9864 17.9596 31.9809 17.9596C31.9773 17.9598 31.9737 17.9588 31.9707 17.9568C31.9677 17.9548 31.9655 17.9519 31.9643 17.9485C31.9643 17.9374 31.9698 17.9319 31.9809 17.9319C31.9864 17.9319 31.9975 17.9374 31.9975 17.9485V17.9429ZM32.0086 18.0094C32.0086 18.015 32.0086 18.0205 31.9975 18.0205C31.9939 18.0207 31.9903 18.0197 31.9874 18.0178C31.9844 18.0158 31.9821 18.0128 31.9809 18.0094C31.9809 18.005 31.9826 18.0008 31.9858 17.9977C31.9889 17.9946 31.9931 17.9928 31.9975 17.9928C32.003 17.9928 32.0086 17.9984 32.0086 18.0094Z" fill="black"/>
<path d="M31.9087 17.9928C31.9179 17.9928 31.9253 17.9854 31.9253 17.9762C31.9253 17.967 31.9179 17.9596 31.9087 17.9596C31.8995 17.9596 31.8921 17.967 31.8921 17.9762C31.8921 17.9854 31.8995 17.9928 31.9087 17.9928Z" fill="black"/>
<path d="M31.9532 18.0648C31.9532 18.0693 31.9515 18.0735 31.9484 18.0766C31.9452 18.0797 31.941 18.0815 31.9366 18.0815C31.9322 18.0815 31.928 18.0797 31.9249 18.0766C31.9217 18.0735 31.92 18.0693 31.92 18.0648C31.92 18.0593 31.9255 18.0538 31.9366 18.0538L31.9532 18.0648ZM31.5599 17.6604C31.5599 17.6648 31.5581 17.669 31.555 17.6721C31.5519 17.6753 31.5476 17.677 31.5432 17.677C31.5388 17.677 31.5346 17.6753 31.5315 17.6721C31.5284 17.669 31.5266 17.6648 31.5266 17.6604C31.5281 17.6581 31.5302 17.6562 31.5326 17.6549C31.535 17.6536 31.5377 17.653 31.5405 17.653C31.5432 17.653 31.5459 17.6536 31.5483 17.6549C31.5507 17.6562 31.5528 17.6581 31.5543 17.6604H31.5599Z" fill="black"/>
<path d="M31.5542 17.738C31.5634 17.738 31.5708 17.7305 31.5708 17.7213C31.5708 17.7122 31.5634 17.7047 31.5542 17.7047C31.545 17.7047 31.5376 17.7122 31.5376 17.7213C31.5376 17.7305 31.545 17.738 31.5542 17.738Z" fill="black"/>
<path d="M31.4712 17.7102C31.4804 17.7102 31.4878 17.7028 31.4878 17.6936C31.4878 17.6844 31.4804 17.677 31.4712 17.677C31.462 17.677 31.4546 17.6844 31.4546 17.6936C31.4546 17.7028 31.462 17.7102 31.4712 17.7102Z" fill="black"/>
<path d="M31.5099 17.7823C31.5101 17.7859 31.5091 17.7894 31.5071 17.7924C31.5051 17.7954 31.5022 17.7977 31.4988 17.7989C31.4944 17.7989 31.4902 17.7971 31.487 17.794C31.4839 17.7909 31.4822 17.7867 31.4822 17.7823C31.4822 17.7779 31.4839 17.7736 31.487 17.7705C31.4902 17.7674 31.4944 17.7657 31.4988 17.7657C31.5022 17.7668 31.5051 17.7691 31.5071 17.7721C31.5091 17.7751 31.5101 17.7787 31.5099 17.7823ZM31.7758 17.2504C31.7758 17.2504 31.9697 17.3723 31.7814 17.5994C31.7814 17.5994 31.8756 17.5274 31.8811 17.4111C31.8922 17.2947 31.8146 17.2005 31.7703 17.2504H31.7758ZM32.5238 17.5773C32.4573 17.6105 32.3687 17.5496 32.3243 17.4942C32.28 17.4388 32.1858 17.4221 32.1249 17.5274C32.0695 17.6271 31.9864 17.6659 31.9864 17.6659C31.9864 17.6659 32.0695 17.6216 32.1526 17.5274C32.2357 17.4388 32.2856 17.5108 32.3687 17.5551C32.4462 17.5994 32.4628 17.6105 32.5183 17.5828V17.5773H32.5238Z" fill="black"/>
<path d="M32.5072 17.5939C32.4896 17.6076 32.4676 17.6145 32.4453 17.6135C32.4229 17.6125 32.4017 17.6036 32.3853 17.5883C32.3299 17.544 32.2911 17.4886 32.2302 17.5219C32.1637 17.5551 32.0474 17.6438 32.0474 17.6438C32.0474 17.6438 32.2413 17.5108 32.2801 17.544C32.3133 17.5717 32.402 17.6437 32.4518 17.6216L32.5072 17.5939Z" fill="black"/>
<path d="M32.3577 17.6715C32.2968 17.6271 32.2359 17.7269 32.186 17.7158C32.1306 17.7047 32.0918 17.6161 32.0918 17.6161C32.0918 17.6161 32.1361 17.7047 32.2026 17.6881C32.2746 17.6659 32.319 17.6216 32.3633 17.6548C32.4021 17.6881 32.3577 17.6715 32.3577 17.6715Z" fill="black"/>
<path d="M32.2633 17.6881C32.2475 17.6913 32.2312 17.6911 32.2154 17.6873C32.1997 17.6836 32.185 17.6764 32.1724 17.6664C32.1597 17.6564 32.1494 17.6437 32.1421 17.6293C32.1349 17.6148 32.1309 17.599 32.1304 17.5828C32.1304 17.5828 32.1692 17.6826 32.2744 17.6659L32.2633 17.6881Z" fill="black"/>
<path d="M32.2579 17.6105C32.2635 17.6382 32.2635 17.6548 32.2302 17.6548C32.197 17.6548 32.1748 17.6438 32.1748 17.6105C32.1748 17.5828 32.2524 17.5884 32.2579 17.6105ZM31.8258 17.4443C31.8244 17.4536 31.8198 17.4621 31.8126 17.4682C31.8055 17.4743 31.7964 17.4776 31.787 17.4775C31.7648 17.4775 31.7593 17.4665 31.7593 17.4443C31.7593 17.4221 31.7593 17.4055 31.787 17.4055C31.8147 17.4055 31.8258 17.4221 31.8258 17.4443Z" fill="black"/>
<path d="M31.6872 17.3058C31.6872 17.3058 31.8977 17.3058 31.798 17.5662C31.798 17.5662 31.8756 17.4388 31.8257 17.3446C31.7703 17.2559 31.6983 17.2781 31.6983 17.2781C31.6983 17.2781 31.6761 17.2947 31.6872 17.3058Z" fill="black"/>
<path d="M31.6872 17.4111C31.6872 17.4665 31.7204 17.5163 31.7869 17.5717L31.8035 17.5496C31.7426 17.4997 31.7093 17.4554 31.7093 17.4111C31.7093 17.3667 31.7426 17.339 31.7426 17.339L31.726 17.3224C31.726 17.3224 31.6872 17.3557 31.6816 17.4111H31.6872Z" fill="black"/>
<path d="M31.7317 17.4554C31.7372 17.4831 31.7649 17.5108 31.7982 17.5219L31.8092 17.4997C31.7815 17.4886 31.7594 17.4665 31.7538 17.4443C31.7428 17.4 31.776 17.3501 31.776 17.3501L31.7538 17.3335C31.7538 17.3335 31.7151 17.4 31.7317 17.4554ZM32.0142 17.5994C32.0142 17.5994 32.053 17.6825 31.9976 17.7712L31.9422 17.8598C31.9422 17.8598 32.0087 17.7324 31.981 17.6825C31.9588 17.6271 32.0142 17.5994 32.0142 17.5994ZM32.8232 18.4748C33.0337 18.5136 33.5157 18.8904 33.5157 18.8904L33.5434 18.8571C33.5268 18.8405 33.0503 18.4693 32.8287 18.4305L32.8176 18.4748H32.8232ZM33.0115 19.0012C33.0226 19.1951 33.2332 19.3115 33.2332 19.317L33.2609 19.2782C33.2609 19.2782 33.0669 19.1674 33.0559 19.0012H33.0115ZM32.4963 19.0455C32.4963 19.2561 32.6957 19.5109 32.7068 19.522L32.7401 19.4943C32.7401 19.4943 32.5406 19.2394 32.5406 19.0455H32.4963ZM31.8259 19.0677C31.8591 19.1397 31.8591 19.1729 31.848 19.1896C31.837 19.2117 31.8148 19.2117 31.8148 19.2117L31.8203 19.256C31.837 19.256 31.8702 19.245 31.8868 19.2117C31.909 19.1729 31.9034 19.1175 31.8647 19.0455L31.8259 19.0677Z" fill="black"/>
<path d="M28.8005 18.0251C28.8005 18.0251 28.8089 18.1668 28.9172 18.2501C28.9172 18.2501 28.9089 18.1001 28.9422 18.0335C28.9422 18.0335 28.8839 17.9668 28.8005 18.0251ZM29.0172 18.1085C29.0172 18.1085 29.0422 18.2418 29.1172 18.3001L29.1672 18.2918C29.1672 18.2918 29.1839 18.1251 29.2089 18.1085C29.2339 18.0918 29.1005 18.1668 29.0172 18.1085Z" fill="white" stroke="black" stroke-width="0.0166667" stroke-miterlimit="3"/>
<path d="M29.2089 18.1085L29.2922 18.2418L29.3922 18.1835L29.3755 18.0335C29.3755 18.0335 29.3172 18.0168 29.2089 18.1085ZM29.6005 18.1335L29.4922 18.2251C29.4922 18.2251 29.4339 18.1835 29.3922 18.1835L29.4089 18.0418C29.4089 18.0418 29.4922 17.9835 29.6005 18.1335ZM28.8255 19.4668C28.8255 19.4668 28.8089 19.2668 28.8255 19.2585C28.8255 19.2585 28.9089 19.2835 28.9422 19.2585C28.9422 19.2585 28.9839 19.4085 28.9755 19.4751C28.9589 19.5418 28.8839 19.5168 28.8255 19.4751V19.4668ZM29.3255 19.2668C29.3255 19.2668 29.3172 19.1001 29.3422 19.0751C29.3422 19.0751 29.5089 19.1001 29.5422 19.0085L29.6005 19.1751C29.6005 19.1751 29.4255 19.1501 29.3172 19.2585L29.3255 19.2668Z" fill="white" stroke="black" stroke-width="0.0166667" stroke-miterlimit="3"/>
<path d="M29.1507 19.3002C29.1507 19.3002 29.1757 19.1252 29.209 19.1168C29.209 19.1168 29.2923 19.1418 29.3173 19.1085V19.3252C29.3173 19.3252 29.3173 19.2335 29.1507 19.3002ZM28.959 19.3252C28.959 19.3252 29.0007 19.1668 29.0257 19.1668C29.0507 19.1668 29.109 19.2085 29.1423 19.1835V19.3002C29.1423 19.3002 29.009 19.2668 28.984 19.4585L28.959 19.3252Z" fill="white" stroke="black" stroke-width="0.0166667" stroke-miterlimit="3"/>
<path d="M31.4754 22.5335C31.4754 22.5335 31.9088 22.9418 31.8004 23.3002C31.8004 23.3002 32.0754 22.6918 31.7754 22.5085C31.4754 22.3418 31.4671 22.4668 31.4754 22.5335Z" fill="#00A651" stroke="black" stroke-width="0.0416667" stroke-miterlimit="4.8"/>
<path d="M30.9172 22.9252C30.9172 22.9252 30.8089 23.0919 30.9339 23.2002C30.9339 23.2002 30.7922 23.4002 30.9005 23.5669C30.9005 23.5669 30.8172 23.7419 30.8339 23.9335C30.8339 23.9335 30.7672 24.2252 30.9172 24.3585C30.9172 24.3585 31.0839 24.4419 31.1672 24.3669C31.1672 24.3669 31.3089 24.1502 31.2172 23.9252C31.2172 23.9252 31.3172 23.7335 31.2005 23.4919C31.2005 23.4919 31.2339 23.3585 31.1422 23.2002C31.1422 23.2002 31.2005 23.1002 31.1505 23.0169C31.1505 23.0169 30.9422 22.7919 30.9172 22.9335V22.9252Z" fill="#964B36" stroke="black" stroke-width="0.0416667" stroke-miterlimit="4.8"/>
<path d="M31.0421 22.4169C31.0421 22.4169 30.5254 21.4169 30.1587 21.3752C29.7921 21.3335 29.7754 20.9752 29.7754 20.9752C29.7754 20.9752 29.8171 21.1419 30.1087 21.1419C30.4004 21.1419 30.9587 21.5585 31.0254 21.8669C31.0837 22.1752 31.1504 22.1335 31.1504 22.1335L31.0421 22.4169Z" fill="#00A651" stroke="black" stroke-width="0.0416667" stroke-miterlimit="4.8"/>
<path d="M31.0423 22.3419C31.0423 22.3419 31.234 21.0835 32.059 21.0585C32.884 21.0419 32.609 21.1252 32.809 20.9919C32.809 20.9919 32.259 21.2752 31.9173 21.3252C31.5673 21.3585 31.284 22.0335 31.3006 22.1585C31.3006 22.2835 31.109 22.5252 31.0173 22.4419C30.9173 22.3585 31.0423 22.3419 31.0423 22.3419Z" fill="#00A651" stroke="black" stroke-width="0.0416667" stroke-miterlimit="4.8"/>
<path d="M31.2338 22.8168C31.2338 22.8168 31.4254 22.3168 31.7421 22.4835C31.7421 22.4835 31.4921 22.0002 31.0421 22.4168C31.0421 22.4168 31.2421 22.6918 31.2338 22.8168ZM30.6088 22.3168C30.6088 22.3168 30.8754 23.4335 30.4588 23.7752C30.4588 23.7752 30.4754 23.2002 30.2171 22.8585C29.9671 22.5085 30.4671 22.1335 30.6088 22.3168Z" fill="#00A651" stroke="black" stroke-width="0.0416667" stroke-miterlimit="4.8"/>
<path d="M30.6423 22.5085C30.6423 22.5085 31.1339 22.9835 31.1589 23.1418C31.1923 23.2918 31.3089 22.6668 31.0756 22.4918C30.8423 22.3168 30.6006 22.2835 30.6006 22.2835L30.6423 22.5168V22.5085Z" fill="#00A651" stroke="black" stroke-width="0.0416667" stroke-miterlimit="4.8"/>
<path d="M29.7339 23.7502C29.7339 23.7502 29.7756 23.9418 29.9006 23.9835C29.9006 23.9835 29.9006 24.1252 30.0172 24.1668C30.0172 24.1668 29.9589 24.2918 30.0506 24.3668C30.0506 24.3668 30.0339 24.6168 30.1172 24.6585C30.1172 24.6585 30.3422 24.6502 30.4172 24.5835C30.4172 24.5835 30.4589 24.4252 30.3339 24.2669C30.3339 24.2669 30.3589 24.1168 30.2339 24.0335C30.2339 24.0335 30.2756 23.8252 30.1172 23.7502C30.1172 23.7502 30.0922 23.5835 30.0006 23.5002C30.0006 23.5002 29.8172 23.7585 29.7339 23.7502Z" fill="#964B36" stroke="black" stroke-width="0.0416667" stroke-miterlimit="4.8"/>
<path d="M29.9756 23.5002C29.9756 23.5002 29.3339 23.2668 28.9756 23.6002C28.9756 23.6002 29.5256 23.6835 29.5923 23.7918C29.6589 23.9002 30.0006 23.6085 29.9756 23.5002Z" fill="#00A651" stroke="black" stroke-width="0.0416667" stroke-miterlimit="4.8"/>
<path d="M29.7755 23.9002L29.6589 23.8168C29.6005 23.7668 29.0589 23.6252 28.9839 24.1502C28.9839 24.1502 28.7839 23.6252 29.0672 23.5668C29.3589 23.4835 29.5839 23.6502 29.7755 23.9002ZM29.3589 22.8335C29.3589 22.8335 29.5505 23.2668 29.6255 23.2835C29.7005 23.3085 29.7505 23.2335 29.7505 23.2335C29.7505 23.2335 29.4922 22.8502 29.3505 22.8335H29.3589ZM29.2089 22.1752C29.2089 22.1752 29.0422 21.6252 28.8422 21.7752C28.6422 21.9168 28.6922 22.3168 28.6922 22.3168C28.6922 22.3168 28.3005 21.9002 28.5255 21.5835C28.7589 21.2585 29.2089 21.6168 29.2089 22.1752Z" fill="#00A651" stroke="black" stroke-width="0.0416667" stroke-miterlimit="4.8"/>
<path d="M29.6589 23.3169C29.6589 23.3169 29.6589 23.4252 29.7339 23.4502C29.8006 23.4835 29.9423 23.5335 29.9423 23.4752C29.9423 23.4169 29.8339 23.1669 29.7923 23.2002C29.7506 23.2335 29.6756 23.2335 29.6589 23.3169Z" fill="#964B36" stroke="black" stroke-width="0.0416667" stroke-miterlimit="4.8"/>
<path d="M29.5339 22.6669C29.5339 22.6669 29.5089 22.1919 29.8256 22.0085C29.8256 22.0085 29.8839 22.0252 29.9172 21.9252C29.9172 21.9252 29.6672 22.5335 29.7422 22.8419L29.7339 22.8752" fill="#00A651"/>
<path d="M29.5339 22.6669C29.5339 22.6669 29.5089 22.1919 29.8256 22.0085C29.8256 22.0085 29.8839 22.0252 29.9172 21.9252C29.9172 21.9252 29.6672 22.5335 29.7422 22.8419L29.7339 22.8752" stroke="black" stroke-width="0.0416667" stroke-miterlimit="4.8"/>
<path d="M29.5923 22.0835C29.5923 22.0835 30.159 20.9169 30.8423 21.3252C30.8423 21.3252 30.1256 21.4669 29.8673 21.9835L29.609 22.3669L29.5923 22.0835Z" fill="#00A651" stroke="black" stroke-width="0.0416667" stroke-miterlimit="4.8"/>
<path d="M29.2921 22.5085C29.2921 22.5085 29.1254 21.7252 29.0171 21.6252C28.9171 21.5169 28.7421 21.4085 28.5254 21.5835C28.5254 21.5835 28.8921 21.2585 29.2754 21.5335C29.6671 21.8002 29.5837 22.2335 29.5837 22.2335L29.5421 22.7752L29.2837 22.5335" fill="#00A651"/>
<path d="M29.2921 22.5085C29.2921 22.5085 29.1254 21.7252 29.0171 21.6252C28.9171 21.5169 28.7421 21.4085 28.5254 21.5835C28.5254 21.5835 28.8921 21.2585 29.2754 21.5335C29.6671 21.8002 29.5837 22.2335 29.5837 22.2335L29.5421 22.7752L29.2837 22.5335" stroke="black" stroke-width="0.0416667" stroke-miterlimit="4.8"/>
<path d="M29.9005 23.4419C29.9005 23.4419 29.2088 22.1335 28.7588 23.0669C28.7588 23.0669 28.6755 23.3085 28.7671 23.4002C28.7671 23.4002 28.5171 23.2085 28.6338 22.7502C28.7505 22.2919 29.5088 22.5002 29.7338 22.8752C29.9505 23.2502 30.0088 23.4419 29.9838 23.4585C29.9505 23.4835 29.9005 23.4419 29.9005 23.4419ZM31.8421 23.8169C31.8421 23.8169 32.3421 22.7835 32.6338 23.2502C32.6338 23.2502 32.7171 23.4835 32.5921 23.5835C32.5921 23.5835 32.3921 23.3335 32.2171 23.6335C32.0338 23.9252 32.1088 23.9002 32.1088 23.9002C32.1088 23.9002 31.9255 23.9502 31.8421 23.8169Z" fill="#00A651" stroke="black" stroke-width="0.0416667" stroke-miterlimit="4.8"/>
<path d="M32.584 23.5835C32.584 23.5835 32.859 23.7252 32.7673 24.0169C32.7673 24.0169 33.134 23.3168 32.634 23.2502C32.634 23.2502 32.7257 23.4752 32.5923 23.5835H32.584ZM32.6257 22.8668C32.6257 22.8668 33.284 23.0585 33.3007 23.3419C33.3007 23.3419 33.4173 22.7918 33.0423 22.6252C33.0423 22.6252 32.5923 22.7085 32.6257 22.8752V22.8668Z" fill="#00A651" stroke="black" stroke-width="0.0416667" stroke-miterlimit="4.8"/>
<path d="M32.9171 22.0002C33.2004 21.4502 33.5504 22.1752 33.5504 22.1752C33.5504 22.1752 33.6754 21.6002 33.3254 21.5002C32.9671 21.3919 32.7421 22.7252 32.7421 22.7252L32.3254 22.8085C32.3254 22.8085 32.4338 21.6585 33.0588 21.5585H33.1421" fill="#00A651"/>
<path d="M32.9171 22.0002C33.2004 21.4502 33.5504 22.1752 33.5504 22.1752C33.5504 22.1752 33.6754 21.6002 33.3254 21.5002C32.9671 21.3919 32.7421 22.7252 32.7421 22.7252L32.3254 22.8085C32.3254 22.8085 32.4338 21.6585 33.0588 21.5585H33.1421" stroke="black" stroke-width="0.0416667" stroke-miterlimit="4.8"/>
<path d="M32.4171 22.3335C32.4171 22.3335 32.0171 21.5169 31.7504 21.4335C31.4838 21.3502 31.8921 21.2252 32.0588 21.3835C32.2254 21.5419 32.5421 21.7419 32.5088 22.1585L32.4171 22.3335ZM32.0004 23.4502C32.0004 23.4502 32.1171 22.9002 32.4338 22.7335C32.7504 22.5669 33.0421 22.6252 33.0421 22.6252C33.0421 22.6252 32.6671 22.7085 32.6004 22.9002C32.5421 23.0835 32.4338 23.1002 32.4338 23.1002L32.0088 23.4502H32.0004Z" fill="#00A651" stroke="black" stroke-width="0.0416667" stroke-miterlimit="4.8"/>
<path d="M31.8339 23.8169C31.8339 23.8169 31.6672 24.1502 31.7006 24.2002C31.7006 24.2002 31.5172 24.4752 31.5922 24.6169C31.5922 24.6169 31.7756 24.7585 31.8589 24.7002C31.8589 24.7002 32.0756 24.3919 32.0172 24.2252C32.0172 24.2252 32.1672 24.0252 32.1089 23.9002C32.1089 23.9002 31.8922 23.9085 31.8422 23.8169H31.8339Z" fill="#964B36" stroke="black" stroke-width="0.0416667" stroke-miterlimit="4.8"/>
<path d="M30.9171 23.2169C30.9338 23.2252 31.0421 23.2752 31.1088 23.2502L31.1588 23.2085L31.1171 23.1919C31.0921 23.2419 30.9754 23.2002 30.9421 23.1835L30.9254 23.2169H30.9171ZM30.9088 23.5502L30.8921 23.5919C30.9004 23.5919 31.1171 23.6335 31.2171 23.5419L31.1838 23.5085C31.1004 23.5835 30.9088 23.5419 30.9004 23.5419L30.9088 23.5502ZM30.8504 23.9169L30.8254 23.9502C30.8254 23.9502 31.0754 24.1252 31.2338 23.9335L31.1921 23.9085C31.0671 24.0669 30.8588 23.9252 30.8504 23.9085V23.9169ZM29.8921 23.9669L29.9004 23.9919C29.9088 23.9919 30.1171 23.9085 30.1338 23.7502H30.1088C30.1004 23.8835 29.9004 23.9669 29.8921 23.9669ZM30.0088 24.1585V24.1835C30.0254 24.1835 30.2171 24.1669 30.2504 24.0335H30.2254C30.1921 24.1419 30.0171 24.1585 30.0088 24.1585ZM30.0504 24.3585V24.3835C30.0588 24.3835 30.2754 24.3919 30.3504 24.2752L30.3254 24.2585C30.2588 24.3669 30.0504 24.3585 30.0504 24.3585ZM31.6921 24.2169C31.6921 24.2169 31.7838 24.3169 31.8921 24.3085C31.9191 24.308 31.9456 24.3018 31.97 24.2903C31.9945 24.2788 32.0162 24.2623 32.0338 24.2419L32.0004 24.2085C31.9671 24.2502 31.9338 24.2669 31.8921 24.2669C31.8088 24.2669 31.7254 24.1835 31.7254 24.1835L31.6921 24.2169Z" fill="black"/>
<path d="M38.1668 24.9835C38.157 24.9901 38.1485 24.9986 38.1418 25.0085L38.1752 24.9835H38.1668ZM38.9418 24.7918C38.9335 24.7752 38.9252 24.7835 38.9168 24.7752L38.8835 24.7085H38.8585L38.8002 24.5918C38.8034 24.5838 38.8034 24.5749 38.8002 24.5668C38.8005 24.5557 38.8005 24.5446 38.8002 24.5335C38.8002 24.5335 38.7835 24.5335 38.7752 24.5168V24.3835L38.7668 24.3418C38.7498 24.3144 38.7411 24.2825 38.7418 24.2502V24.1668C38.7502 24.1335 38.7335 24.1168 38.7335 24.0835L38.7418 24.0085V23.5585L38.7335 23.4752L38.7252 23.4418V23.3085V23.5252L38.7085 23.1668L38.4252 23.0335C38.4252 23.0335 38.4002 23.5502 38.4085 23.6168C38.4085 23.6918 38.4418 24.1752 38.4252 24.2335L38.3835 24.5918C38.3835 24.5918 38.2502 24.6918 38.2002 24.7918C38.1418 24.9002 38.1585 24.9335 38.1418 24.9335L38.2668 24.9168L38.1752 24.9835C38.1848 24.9796 38.1952 24.9783 38.2055 24.9798C38.2157 24.9812 38.2254 24.9854 38.2335 24.9918L38.2502 25.0085L38.2668 24.9918C38.2918 24.9918 38.3085 25.0252 38.3252 25.0168L38.3585 25.0002L38.3752 24.9668C38.3835 24.9585 38.4002 24.9668 38.4085 24.9668H38.4668C38.4918 24.9668 38.5168 24.9252 38.5418 24.9085C38.5585 24.8918 38.5752 24.8835 38.6002 24.8835C38.6252 24.8835 38.6502 24.9085 38.6835 24.9085C38.7002 24.9085 38.7085 24.9085 38.7252 24.8918L38.7585 24.8418L38.8252 24.8335L38.8585 24.8418H38.9085L38.9335 24.8585L38.9502 24.8252L38.9418 24.7918Z" fill="#964B36" stroke="black" stroke-width="0.025" stroke-miterlimit="4.8"/>
<path d="M38.3751 24.9752H38.4251V24.9918C38.4277 24.9933 38.4305 24.9941 38.4335 24.9941C38.4364 24.9941 38.4393 24.9933 38.4418 24.9918L38.4668 25.0085H38.4918L38.5251 25.0168C38.5418 25.0252 38.5585 25.0168 38.5751 25.0085C38.5918 24.9918 38.6001 25.0085 38.6251 25.0252C38.6335 25.0335 38.6335 25.0335 38.6418 25.0252L38.6501 25.0168L38.6751 25.0085L38.7001 25.0002L38.7335 24.9835L38.7668 25.0002C38.7723 24.9995 38.7779 24.9995 38.7835 25.0002L38.8418 24.9585C38.8668 24.9418 38.8835 24.9585 38.9001 24.9585H38.9251C38.9335 24.9502 38.9418 24.9585 38.9585 24.9585C38.9585 24.9502 38.9585 24.9418 38.9751 24.9335L39.0335 24.9668C39.0418 24.9752 39.0918 24.9835 39.0835 24.9502C39.0835 24.9168 39.0501 24.9418 39.0418 24.9168V24.8668C39.0378 24.853 39.0289 24.8412 39.0168 24.8335C39.0001 24.8335 39.0001 24.8418 38.9835 24.8335L38.9668 24.7835L38.9418 24.8002C38.9251 24.8002 38.9251 24.7918 38.9168 24.7752C38.8918 24.7502 38.8835 24.7918 38.8585 24.7835C38.8418 24.7835 38.8251 24.7418 38.8168 24.7252C38.8085 24.7168 38.7918 24.6835 38.7751 24.6918C38.7585 24.7002 38.7751 24.7335 38.7751 24.7502H38.7335C38.7168 24.7502 38.7168 24.7502 38.7085 24.7668C38.6918 24.8002 38.6835 24.8252 38.6501 24.8168C38.6418 24.8168 38.6251 24.8085 38.6168 24.8168L38.5751 24.8335C38.5641 24.8358 38.5528 24.8358 38.5418 24.8335L38.5085 24.8002C38.5085 24.798 38.5076 24.7959 38.506 24.7943C38.5045 24.7927 38.5023 24.7918 38.5001 24.7918C38.4979 24.7918 38.4958 24.7927 38.4942 24.7943C38.4927 24.7959 38.4918 24.798 38.4918 24.8002C38.4891 24.7946 38.4863 24.789 38.4835 24.7835C38.4668 24.7835 38.4668 24.7835 38.4585 24.8085L38.4501 24.8502L38.4251 24.8835L38.3918 24.8918C38.3751 24.8918 38.3585 24.9168 38.3585 24.8918C38.3418 24.8585 38.3835 24.8002 38.3418 24.8085C38.3335 24.8085 38.3251 24.8085 38.3168 24.8252V24.8835C38.3085 24.9085 38.2585 24.9502 38.2668 24.9668C38.2668 24.9918 38.3001 24.9668 38.3001 24.9668L38.3168 25.0002C38.3335 25.0252 38.3751 24.9668 38.3751 25.0002V24.9752ZM38.2001 24.7752V24.7585L38.1668 24.7502C38.1501 24.7502 38.1335 24.7752 38.1251 24.7835C38.1085 24.8168 38.1085 24.8668 38.0751 24.8668H38.0335V24.9502C38.0335 24.9502 38.0168 24.9502 38.0168 24.9668C38.0085 25.0002 38.0335 24.9835 38.0501 24.9835H38.1335L38.1751 24.9752C38.1918 24.9752 38.2085 24.9752 38.2168 24.9585C38.2235 24.948 38.229 24.9368 38.2335 24.9252V24.8918C38.2335 24.8752 38.2585 24.8835 38.2585 24.8585C38.2668 24.8002 38.2085 24.8418 38.2168 24.7835" fill="#964B36"/>
<path d="M38.2001 24.7752V24.7585L38.1668 24.7502C38.1501 24.7502 38.1335 24.7752 38.1251 24.7835C38.1085 24.8168 38.1085 24.8668 38.0751 24.8668H38.0335V24.9502C38.0335 24.9502 38.0168 24.9502 38.0168 24.9668C38.0085 25.0002 38.0335 24.9835 38.0501 24.9835H38.1335L38.1751 24.9752C38.1918 24.9752 38.2085 24.9752 38.2168 24.9585C38.2235 24.948 38.229 24.9368 38.2335 24.9252V24.8918C38.2335 24.8752 38.2585 24.8835 38.2585 24.8585C38.2668 24.8002 38.2085 24.8418 38.2168 24.7835M38.3751 24.9752H38.4251V24.9918C38.4277 24.9933 38.4305 24.9941 38.4335 24.9941C38.4364 24.9941 38.4393 24.9933 38.4418 24.9918L38.4668 25.0085H38.4918L38.5251 25.0168C38.5418 25.0252 38.5585 25.0168 38.5751 25.0085C38.5918 24.9918 38.6001 25.0085 38.6251 25.0252C38.6335 25.0335 38.6335 25.0335 38.6418 25.0252L38.6501 25.0168L38.6751 25.0085L38.7001 25.0002L38.7335 24.9835L38.7668 25.0002C38.7723 24.9995 38.7779 24.9995 38.7835 25.0002L38.8418 24.9585C38.8668 24.9418 38.8835 24.9585 38.9001 24.9585H38.9251C38.9335 24.9502 38.9418 24.9585 38.9585 24.9585C38.9585 24.9502 38.9585 24.9418 38.9751 24.9335L39.0335 24.9668C39.0418 24.9752 39.0918 24.9835 39.0835 24.9502C39.0835 24.9168 39.0501 24.9418 39.0418 24.9168V24.8668C39.0378 24.853 39.0289 24.8412 39.0168 24.8335C39.0001 24.8335 39.0001 24.8418 38.9835 24.8335L38.9668 24.7835L38.9418 24.8002C38.9251 24.8002 38.9251 24.7918 38.9168 24.7752C38.8918 24.7502 38.8835 24.7918 38.8585 24.7835C38.8418 24.7835 38.8251 24.7418 38.8168 24.7252C38.8085 24.7168 38.7918 24.6835 38.7751 24.6918C38.7585 24.7002 38.7751 24.7335 38.7751 24.7502H38.7335C38.7168 24.7502 38.7168 24.7502 38.7085 24.7668C38.6918 24.8002 38.6835 24.8252 38.6501 24.8168C38.6418 24.8168 38.6251 24.8085 38.6168 24.8168L38.5751 24.8335C38.5641 24.8358 38.5528 24.8358 38.5418 24.8335L38.5085 24.8002C38.5085 24.798 38.5076 24.7959 38.506 24.7943C38.5045 24.7927 38.5023 24.7918 38.5001 24.7918C38.4979 24.7918 38.4958 24.7927 38.4942 24.7943C38.4927 24.7959 38.4918 24.798 38.4918 24.8002C38.4891 24.7946 38.4863 24.789 38.4835 24.7835C38.4668 24.7835 38.4668 24.7835 38.4585 24.8085L38.4501 24.8502L38.4251 24.8835L38.3918 24.8918C38.3751 24.8918 38.3585 24.9168 38.3585 24.8918C38.3418 24.8585 38.3835 24.8002 38.3418 24.8085C38.3335 24.8085 38.3251 24.8085 38.3168 24.8252V24.8835C38.3085 24.9085 38.2585 24.9502 38.2668 24.9668C38.2668 24.9918 38.3001 24.9668 38.3001 24.9668L38.3168 25.0002C38.3335 25.0252 38.3751 24.9668 38.3751 25.0002V24.9752Z" stroke="black" stroke-width="0.025" stroke-miterlimit="4.8"/>
<path d="M38.9003 23.1585C38.9003 23.2335 38.8503 23.2918 38.7837 23.2918C38.7253 23.2918 38.667 23.2335 38.667 23.1585C38.667 23.0835 38.7253 23.0252 38.7837 23.0252C38.8503 23.0252 38.9003 23.0835 38.9003 23.1585ZM38.5253 22.9918C38.5253 23.0668 38.4753 23.1252 38.4087 23.1252C38.342 23.1252 38.292 23.0668 38.292 22.9918C38.292 22.9085 38.3503 22.8585 38.4087 22.8585C38.467 22.8585 38.5253 22.9168 38.5253 22.9918Z" fill="black" stroke="black" stroke-width="0.0416667" stroke-miterlimit="4.8"/>
<path d="M38.7253 23.0418C38.7253 23.1251 38.6753 23.1751 38.6086 23.1751C38.5419 23.1751 38.4919 23.1168 38.4919 23.0418C38.4919 22.9668 38.5419 22.9085 38.6086 22.9085C38.6753 22.9085 38.7253 22.9668 38.7253 23.0418Z" fill="black" stroke="black" stroke-width="0.0416667" stroke-miterlimit="4.8"/>
<path d="M38.5336 23.1668C38.5336 23.2418 38.4836 23.3001 38.417 23.3001C38.3503 23.3001 38.3003 23.2418 38.3003 23.1668C38.3003 23.0918 38.3503 23.0335 38.417 23.0335C38.4836 23.0335 38.5336 23.0918 38.5336 23.1668Z" fill="black" stroke="black" stroke-width="0.0416667" stroke-miterlimit="4.8"/>
<path d="M38.7087 23.2751C38.7087 23.3418 38.6587 23.4085 38.592 23.4085C38.5337 23.4085 38.4753 23.3501 38.4753 23.2751C38.4753 23.1918 38.5337 23.1335 38.592 23.1335C38.6587 23.1335 38.7087 23.1918 38.7087 23.2668V23.2751Z" fill="black" stroke="black" stroke-width="0.0416667" stroke-miterlimit="4.8"/>
<path d="M38.7668 21.7918C38.7668 21.7918 39.9252 20.1752 41.1668 21.8502C41.1668 21.8502 41.1752 22.0168 41.0585 22.2002L41.0335 22.0585L40.9502 22.0835L40.9335 22.0002L40.8002 21.9918L40.8418 21.8085L40.7002 21.9252L40.7168 21.8002L40.5502 21.9668L40.5752 21.6085L40.3918 21.9168L40.4168 21.7085L40.3502 21.8002L40.3168 21.6752L40.2585 21.8002L40.1752 21.7418V21.8252L40.0252 21.7002L39.9752 21.8668L39.9002 21.6835L39.8835 21.8085L39.8085 21.6668L39.8002 21.8252L39.5585 21.7168L39.6085 21.8668L39.5002 21.7835L39.5168 21.8668L39.3585 21.8335L39.3752 21.9252L39.2085 21.8918L39.2335 21.9752L39.0085 21.9502L39.0918 22.0335L39.0668 22.0835C39.0668 22.0835 40.3168 21.6668 40.4002 23.2335L40.1752 23.3418L40.2418 23.2168L40.1752 23.1752L39.9835 23.0335L40.0418 22.8335L39.9752 22.8585L39.9668 22.7418L39.9335 22.7585L39.8585 22.6502L39.8418 22.6918L39.7918 22.5502L39.7335 22.6502L39.7085 22.4168L39.6252 22.5668L39.6085 22.4835L39.5835 22.5335L39.4752 22.4085L39.4418 22.4918L39.4002 22.4252L39.3752 22.5085L39.2585 22.3918V22.4752L39.1752 22.4168L39.1502 22.4585L38.9752 22.3668L38.9668 22.4502L38.8668 22.3668L38.8418 22.4502C38.8418 22.4502 39.9752 23.1002 39.6252 24.1502L39.5585 24.2835L39.5418 23.9335L39.4335 24.1168L39.5085 23.7085L39.4335 23.7918L39.4252 23.6252L39.3335 23.7918L39.3002 23.6085L39.2585 23.6585L39.1918 23.3918L39.1418 23.5002L39.0585 23.2002L38.9918 23.3252L38.9502 23.0668L38.9085 23.2252L38.7835 22.9918L38.7668 23.0835L38.6918 22.9002L38.6502 22.9585C38.6502 22.9585 38.4418 22.9502 38.3752 22.9002C38.3168 22.8418 38.1418 23.2085 38.1418 23.2085L38.1585 22.9918L38.0835 23.1418V22.9918L37.9502 23.4335L37.9168 23.1168L37.8502 23.3918L37.8168 23.3085L37.7918 23.4168L37.7502 23.3752L37.7168 23.5002L37.6502 23.4502V23.6168L37.5835 23.5335L37.5335 23.7835L37.5002 23.6835V23.7918L37.4502 23.7335L37.4002 23.9835L37.3168 23.8752V24.0585L37.3418 24.1918L37.2585 24.1502L37.2918 24.3668C37.2918 24.3668 36.9668 23.7668 37.3585 23.1835C37.7418 22.6002 38.2668 22.4335 38.2668 22.4335L38.2085 22.3835V22.3335L37.8918 22.4918V22.4002L37.8085 22.4668L37.7918 22.3668L37.7418 22.4585L37.7335 22.4168L37.6502 22.5335L37.6168 22.3668L37.5668 22.5668L37.5168 22.4252L37.4085 22.7168V22.5002L37.3252 22.7335L37.2918 22.4835L37.2335 22.7668V22.5168L37.1335 22.7668L37.0752 22.5168L37.0335 22.7668L36.9668 22.5752L36.9085 22.8585L36.8085 22.6085L36.7585 22.9835L36.7002 22.8335L36.6835 23.1085L36.6168 22.9418L36.6835 23.2918L36.6002 23.1585L36.6252 23.3752L36.4918 23.1335V23.4168L36.4252 23.3252L36.3918 23.4335C36.3918 23.4335 36.3668 22.3502 37.1085 22.1335C37.8502 21.9252 38.3252 22.2002 38.3252 22.2002L38.0418 21.9668L38.0752 21.8918H37.9752L38.0168 21.8085L37.7918 21.8168L37.8585 21.7335L37.6918 21.7585V21.7085L37.5835 21.7918L37.6252 21.6918L37.4835 21.7918L37.4752 21.6502L37.3918 21.7668L37.3585 21.6418L37.0252 21.9752L37.1085 21.6335L37.0502 21.7085L37.0418 21.6252L36.9502 21.7752L36.9252 21.6752L36.8835 21.8002L36.8502 21.6502L36.7835 21.8002L36.7002 21.6668L36.6752 21.8418L36.6252 21.7502L36.5585 21.8835L36.4752 21.8002V21.8835L36.3085 21.8085L36.3418 21.9335L36.2168 21.8335L36.1835 22.0002L36.1168 21.9168L36.0585 22.1252L36.0085 21.9252L35.9585 22.0835C35.9585 22.0835 36.6085 20.4002 38.2585 21.5002C38.2585 21.5002 38.4418 21.6752 38.4835 21.8002C38.5252 21.9252 38.4918 21.8168 38.4918 21.8168L38.4585 20.6585L38.5252 21.1585L38.5668 20.9918L38.5585 21.2418L38.7252 20.8835C38.7252 20.8835 38.5252 21.4835 38.6002 21.7085C38.6002 21.7085 38.6752 21.0085 38.9252 20.9252L38.6918 21.4252L38.7668 21.4168L38.7168 21.5168H38.7752L38.7002 21.6835L38.6585 21.7668L38.7002 21.8502L38.7668 21.7918Z" fill="#00A651" stroke="black" stroke-width="0.0416667" stroke-miterlimit="4.8"/>
<path d="M38.592 22.4668L38.6254 22.5002C38.6254 22.5002 38.7337 22.3835 38.9087 22.5335L38.9337 22.5002C38.7254 22.3252 38.6004 22.4668 38.6004 22.4668H38.592ZM38.542 21.9002V21.9418L38.617 21.9085L38.5587 22.0085L38.6837 21.9668L38.5337 22.1585L38.567 22.1835L38.8087 21.8752L38.6587 21.9252L38.7254 21.8168L38.592 21.8668L38.617 21.7085H38.5754L38.542 21.9002Z" fill="black"/>
<path d="M38.3253 21.9168L38.3753 22.0252L38.292 21.9918L38.5337 22.4252L38.567 22.3835L38.517 22.5085L38.5587 22.5252L38.6587 22.2585L38.6253 22.2335L38.542 22.3418L38.392 22.0835L38.4587 22.1085L38.392 21.9668L38.4837 22.0168V21.8585H38.442V21.9418L38.292 21.8502L38.3253 21.9168ZM38.167 22.4502L38.1837 22.4918C38.2503 22.4668 38.3087 22.4585 38.3503 22.4752C38.392 22.5002 38.4087 22.5502 38.4087 22.5585L38.4503 22.5418C38.4503 22.5418 38.4337 22.4668 38.367 22.4418C38.317 22.4168 38.2503 22.4168 38.167 22.4502ZM38.3587 22.9002L38.317 22.6668H38.367L38.4003 22.8918L38.3587 22.9002ZM38.6753 22.8668L38.617 22.6835L38.6587 22.6752L38.717 22.8418L38.6753 22.8668ZM38.792 22.9918L38.7503 22.8168L38.792 22.8085L38.842 22.9835L38.792 22.9918Z" fill="black"/>
<path d="M29.8835 28.3502C29.8835 28.3502 29.6835 28.2668 29.5919 28.3335C29.5085 28.3918 29.5169 28.4918 29.4419 28.4835C29.4419 28.4835 29.7419 28.5502 29.8002 28.4752L29.8835 28.3752V28.3502ZM29.9169 28.4335C29.9169 28.4335 29.7835 28.6002 29.8335 28.7085C29.8752 28.8085 29.9752 28.8168 29.9502 28.8918C29.9502 28.8918 30.0752 28.6168 30.0169 28.5335C29.9585 28.4502 29.9335 28.4418 29.9335 28.4418L29.9169 28.4335ZM29.7002 27.9585C29.7002 27.9585 29.4919 28.0252 29.4669 28.1252C29.4502 28.2418 29.5169 28.3002 29.4585 28.3502C29.4585 28.3502 29.7252 28.2002 29.7169 28.1002V27.9752L29.7002 27.9585ZM29.8169 28.0335C29.8169 28.0335 29.9169 27.8418 29.8585 27.7502C29.7919 27.6502 29.6919 27.6668 29.7085 27.5835C29.7085 27.5835 29.6252 27.8752 29.7085 27.9502L29.8002 28.0335H29.8169ZM29.6169 27.9585C29.6169 27.9585 29.6169 27.7418 29.5335 27.6918C29.4335 27.6335 29.3502 27.6835 29.3252 27.6085C29.3252 27.6085 29.3835 27.9085 29.4752 27.9418L29.6002 27.9668L29.6169 27.9585ZM29.9669 28.3168C29.9669 28.3168 30.1919 28.2335 30.2169 28.4835C30.2335 28.7335 30.2002 28.6502 30.2002 28.6502C30.2002 28.6502 30.0835 28.3835 29.9502 28.3418L29.9669 28.3168Z" fill="#00A651" stroke="black" stroke-width="0.0416667" stroke-miterlimit="4.8"/>
<path d="M29.917 28.4418L29.9337 28.6252H29.967L29.942 28.4418L30.0254 28.0335H29.992L29.9087 28.4418H29.917Z" fill="black"/>
<path d="M29.7086 28.3835L29.7003 28.4085C29.8086 28.4502 29.9503 28.3252 29.9586 28.3252L29.9419 28.3002C29.9419 28.3002 29.8003 28.4085 29.7086 28.3835ZM29.9919 28.1418L29.4919 27.8918L29.5086 27.8502L30.0086 28.1002L29.9919 28.1418Z" fill="black"/>
<path d="M29.6251 28.0835L29.5918 28.0502L29.6918 27.9502L29.7251 27.9835L29.6251 28.0835ZM29.8001 28.0335L29.6918 27.8002L29.7335 27.7835L29.8418 28.0168L29.8001 28.0335ZM29.9501 28.3168V28.3668C30.0918 28.3585 30.1168 28.4502 30.1168 28.4502L30.1668 28.4335C30.1668 28.4085 30.1085 28.3085 29.9501 28.3168Z" fill="black"/>
<path d="M32.267 28.4168C32.4336 28.3335 32.467 28.0002 32.467 28.0002C32.4253 28.1168 32.117 28.2418 32.117 28.2418C32.342 28.1002 32.617 27.4585 32.617 27.4585C32.5503 27.6835 31.9503 27.8752 31.567 28.0918C31.1836 28.3085 31.3836 28.9252 31.3836 28.9252C31.2753 28.8502 31.067 28.5252 31.0253 28.2335C30.9836 27.9418 30.8753 27.8252 30.6086 27.7918C30.3503 27.7585 30.192 28.0585 30.192 28.0585L29.8003 28.2585L30.2003 28.2752C30.2003 28.2752 30.4836 28.3668 30.4836 28.5918C30.4836 28.8085 30.2336 29.7002 30.6503 30.2002C30.9253 30.5418 31.9836 30.7418 31.9836 30.7418" fill="white"/>
<path d="M32.267 28.4168C32.4336 28.3335 32.467 28.0002 32.467 28.0002C32.4253 28.1168 32.117 28.2418 32.117 28.2418C32.342 28.1002 32.617 27.4585 32.617 27.4585C32.5503 27.6835 31.9503 27.8752 31.567 28.0918C31.1836 28.3085 31.3836 28.9252 31.3836 28.9252C31.2753 28.8502 31.067 28.5252 31.0253 28.2335C30.9836 27.9418 30.8753 27.8252 30.6086 27.7918C30.3503 27.7585 30.192 28.0585 30.192 28.0585L29.8003 28.2585L30.2003 28.2752C30.2003 28.2752 30.4836 28.3668 30.4836 28.5918C30.4836 28.8085 30.2336 29.7002 30.6503 30.2002C30.9253 30.5418 31.9836 30.7418 31.9836 30.7418" stroke="black" stroke-width="0.0583333" stroke-miterlimit="4.8"/>
<path d="M31.4919 29.1085C31.4919 29.1085 31.5753 28.7085 31.8336 28.7252C32.0919 28.7418 32.1669 28.4252 32.3253 28.3835C32.4836 28.3335 33.2836 28.1168 33.3669 27.7335C33.3669 27.7335 33.2919 28.3668 32.5586 28.6835C32.5586 28.6835 33.1503 28.4918 33.2253 28.3585C33.2253 28.3585 32.9586 28.9252 32.3169 29.0168C32.3169 29.0168 32.9169 28.9668 33.0003 28.8085C33.0003 28.8085 32.7336 29.1585 32.2919 29.2085C32.2919 29.2085 32.7086 29.3752 32.8086 29.2335C32.8086 29.2335 32.5836 29.5002 32.3086 29.5168L32.3919 29.5335C32.3919 29.5335 32.1253 29.8502 31.8336 29.6418C31.5419 29.4335 31.5336 29.6918 31.5336 29.6918" fill="white"/>
<path d="M31.4919 29.1085C31.4919 29.1085 31.5753 28.7085 31.8336 28.7252C32.0919 28.7418 32.1669 28.4252 32.3253 28.3835C32.4836 28.3335 33.2836 28.1168 33.3669 27.7335C33.3669 27.7335 33.2919 28.3668 32.5586 28.6835C32.5586 28.6835 33.1503 28.4918 33.2253 28.3585C33.2253 28.3585 32.9586 28.9252 32.3169 29.0168C32.3169 29.0168 32.9169 28.9668 33.0003 28.8085C33.0003 28.8085 32.7336 29.1585 32.2919 29.2085C32.2919 29.2085 32.7086 29.3752 32.8086 29.2335C32.8086 29.2335 32.5836 29.5002 32.3086 29.5168L32.3919 29.5335C32.3919 29.5335 32.1253 29.8502 31.8336 29.6418C31.5419 29.4335 31.5336 29.6918 31.5336 29.6918" stroke="black" stroke-width="0.0583333" stroke-miterlimit="4.8"/>
<path d="M32.0836 29.7085C32.0836 29.7085 32.4252 30.2752 32.4586 30.5752C32.4586 30.5752 33.1086 31.2835 33.3502 31.3252C33.3502 31.3252 33.2336 31.3752 33.0169 31.2002C33.0169 31.2002 33.2002 31.3835 33.2336 31.3918C33.2669 31.3918 33.0919 31.3752 33.0669 31.3252C33.0983 31.3732 33.1378 31.4155 33.1836 31.4502L33.1419 31.4335C33.1419 31.4335 33.0586 31.4252 33.0086 31.3918C32.9669 31.3585 33.0002 31.4752 33.0002 31.4752C33.0002 31.4752 32.9002 31.4502 32.8669 31.4168C32.8336 31.3835 32.8752 31.4918 32.8752 31.4918L32.7919 31.4668L32.7252 31.5085C32.7252 31.5085 32.7252 31.5502 32.6836 31.5085C32.6419 31.4835 32.5669 31.5085 32.5669 31.5085C32.5669 31.5085 32.5169 31.5585 32.4836 31.5252C32.4586 31.4918 32.3586 31.6585 32.3586 31.6585L31.9419 30.6335" fill="white"/>
<path d="M32.0836 29.7085C32.0836 29.7085 32.4252 30.2752 32.4586 30.5752C32.4586 30.5752 33.1086 31.2835 33.3502 31.3252C33.3502 31.3252 33.2336 31.3752 33.0169 31.2002C33.0169 31.2002 33.2002 31.3835 33.2336 31.3918C33.2669 31.3918 33.0919 31.3752 33.0669 31.3252C33.0983 31.3732 33.1378 31.4155 33.1836 31.4502L33.1419 31.4335C33.1419 31.4335 33.0586 31.4252 33.0086 31.3918C32.9669 31.3585 33.0002 31.4752 33.0002 31.4752C33.0002 31.4752 32.9002 31.4502 32.8669 31.4168C32.8336 31.3835 32.8752 31.4918 32.8752 31.4918L32.7919 31.4668L32.7252 31.5085C32.7252 31.5085 32.7252 31.5502 32.6836 31.5085C32.6419 31.4835 32.5669 31.5085 32.5669 31.5085C32.5669 31.5085 32.5169 31.5585 32.4836 31.5252C32.4586 31.4918 32.3586 31.6585 32.3586 31.6585L31.9419 30.6335" stroke="black" stroke-width="0.0583333" stroke-miterlimit="4.8"/>
<path d="M32.4918 31.5585L31.9585 30.5418L32.0085 30.5085L32.5418 31.5335L32.4918 31.5585ZM32.9585 31.4918L32.0418 30.4668L32.0918 30.4252L33.0085 31.4502L32.9585 31.4918ZM33.1668 31.4085L32.1252 30.4168L32.1668 30.3752L33.2085 31.3502L33.1668 31.4085Z" fill="black"/>
<path d="M30.5458 28.1153C30.5458 28.1153 30.4793 27.9934 30.4183 28.0433C30.3629 28.0876 30.3297 28.0987 30.3186 28.0931C30.3186 28.0931 30.374 28.0931 30.4128 28.0654C30.446 28.0322 30.5015 28.0488 30.5458 28.1208V28.1153ZM30.1801 28.0599L30.2189 28.1375L30.1746 28.2649L30.2078 28.276L30.2466 28.1375L30.2078 28.0488L30.1801 28.0599Z" fill="black"/>
<path d="M30.5347 28.0987C30.5347 28.0987 30.4793 28.1541 30.4128 28.143L30.3408 28.1264H30.4405C30.4793 28.1264 30.5292 28.1097 30.5347 28.0987Z" fill="black"/>
<path d="M30.518 28.1097C30.518 28.1097 30.4516 28.0433 30.4072 28.0654C30.4072 28.0654 30.4848 28.0377 30.5291 28.1042L30.518 28.1097Z" fill="black"/>
<path d="M30.5069 28.0987C30.5069 28.0987 30.4349 28.1485 30.3573 28.0987L30.3518 28.0876H30.3629C30.3629 28.0876 30.4571 28.1264 30.5069 28.0987Z" fill="black"/>
<path d="M30.446 28.1098C30.4582 28.1098 30.4682 28.0998 30.4682 28.0876C30.4682 28.0754 30.4582 28.0654 30.446 28.0654C30.4337 28.0654 30.4238 28.0754 30.4238 28.0876C30.4238 28.0998 30.4337 28.1098 30.446 28.1098Z" fill="black"/>
<path d="M30.5001 29.9668C30.5001 29.9668 30.4418 30.0668 30.4751 30.1335C30.5001 30.1918 30.6418 30.2168 30.6501 30.3002C30.6668 30.3835 30.7168 30.3835 30.7751 30.3835L30.8501 30.3585C30.8501 30.3585 30.5918 30.2252 30.5168 30.0002L30.5001 29.9668Z" fill="black"/>
<path d="M38.7835 27.9002C38.7835 27.9002 39.2501 27.2835 39.6668 27.4419C40.0835 27.6085 40.3418 27.6919 40.3418 27.6919C40.3418 27.6919 40.3501 28.1002 40.1335 28.1002C39.9168 28.1002 39.7001 27.6835 39.5001 27.8085C39.3489 27.8935 39.2203 28.0135 39.1251 28.1585C39.1168 28.2169 38.6001 28.2252 38.7835 27.9002Z" fill="#964B36" stroke="black" stroke-width="0.025" stroke-miterlimit="4.8"/>
<path d="M37.017 30.8669C37.017 30.8669 36.8837 31.0002 36.942 31.0335C37.0003 31.0669 37.117 31.0335 37.117 30.9835C37.117 30.9335 37.0337 30.8502 37.017 30.8669Z" fill="#964B36" stroke="black" stroke-width="0.0416667" stroke-miterlimit="4.8"/>
<path d="M36.917 31.0002C36.917 31.0002 36.667 30.8585 36.4837 31.1835C36.292 31.5002 36.142 32.0252 36.0337 32.1002C35.9253 32.1669 37.1003 31.5835 37.117 31.3335C37.117 31.3335 37.192 31.0168 37.067 31.0252C36.942 31.0252 36.9337 31.0418 36.9087 30.9918L36.917 31.0002Z" fill="#964B36" stroke="black" stroke-width="0.0416667" stroke-miterlimit="4.8"/>
<path d="M36.942 31.0335C36.942 31.0335 36.692 31.0919 36.642 31.4419C36.592 31.7919 36.2503 31.9669 36.2253 31.9835L36.942 31.0335ZM40.342 27.6835C40.342 27.6835 39.9753 27.8169 40.0337 28.0752L40.342 27.6835Z" fill="#964B36"/>
<path d="M40.342 27.6835C40.342 27.6835 39.9753 27.8169 40.0337 28.0752M36.942 31.0335C36.942 31.0335 36.692 31.0919 36.642 31.4419C36.592 31.7919 36.2503 31.9669 36.2253 31.9835L36.942 31.0335Z" stroke="black" stroke-width="0.025" stroke-miterlimit="4.8"/>
<path d="M37.4751 28.4418C37.4751 28.4418 37.4918 27.5585 38.2168 27.5918C38.3501 27.6085 38.2834 27.7668 38.2834 27.7668C38.2834 27.7668 38.4501 27.6585 38.5168 27.8335C38.5168 27.8335 38.7418 27.7335 38.7668 27.9585C38.7668 27.9585 39.0168 27.9252 38.9834 28.1252C38.9834 28.1252 39.1501 28.0835 39.1501 28.2252C39.1501 28.2252 39.3418 28.1502 39.3168 28.3502C39.3168 28.3502 39.5334 28.2085 39.5084 28.4668C39.5084 28.4668 39.7251 28.3085 39.8001 28.5668C39.8834 28.8335 39.5834 29.3835 39.2918 29.5252" fill="#FFF200"/>
<path d="M37.4751 28.4418C37.4751 28.4418 37.4918 27.5585 38.2168 27.5918C38.3501 27.6085 38.2834 27.7668 38.2834 27.7668C38.2834 27.7668 38.4501 27.6585 38.5168 27.8335C38.5168 27.8335 38.7418 27.7335 38.7668 27.9585C38.7668 27.9585 39.0168 27.9252 38.9834 28.1252C38.9834 28.1252 39.1501 28.0835 39.1501 28.2252C39.1501 28.2252 39.3418 28.1502 39.3168 28.3502C39.3168 28.3502 39.5334 28.2085 39.5084 28.4668C39.5084 28.4668 39.7251 28.3085 39.8001 28.5668C39.8834 28.8335 39.5834 29.3835 39.2918 29.5252" stroke="black" stroke-width="0.025" stroke-miterlimit="4.8"/>
<path d="M39.4918 28.5002C39.4918 28.5002 39.5835 29.1835 39.2002 29.4418L39.2085 29.4585C39.6168 29.2085 39.5168 28.5001 39.5168 28.4918H39.4918V28.5002ZM39.0168 29.2501L39.0335 29.2668C39.2835 29.0252 39.3418 28.3835 39.3418 28.3502H39.3168C39.3168 28.3502 39.2585 29.0168 39.0168 29.2501ZM38.7918 29.0918H38.8168C38.8677 28.7845 38.9842 28.4917 39.1585 28.2335L39.1418 28.2252C39.1418 28.2252 38.8252 28.6835 38.7918 29.0918ZM38.6085 28.9752H38.6335C38.6752 28.5002 39.0002 28.1418 39.0002 28.1335L38.9835 28.1168C38.9835 28.1168 38.6502 28.4918 38.6085 28.9752ZM38.3585 28.8085H38.3835C38.4085 28.2502 38.7835 27.9752 38.7835 27.9752L38.7668 27.9501C38.7668 27.9501 38.3835 28.2335 38.3502 28.8168L38.3585 28.8085ZM38.1252 28.6752H38.1502C38.1335 28.1585 38.5252 27.8418 38.5335 27.8418L38.5168 27.8251C38.5168 27.8251 38.1002 28.1418 38.1252 28.6752ZM37.7085 28.4835H37.7335C37.7529 28.3254 37.8163 28.176 37.9165 28.0523C38.0167 27.9285 38.1496 27.8354 38.3002 27.7835V27.7585C38.143 27.8109 38.004 27.9069 37.8993 28.0352C37.7945 28.1636 37.7284 28.319 37.7085 28.4835Z" fill="black"/>
<path d="M37.0503 29.5168C37.0503 29.5168 36.9253 28.6918 37.417 28.4335C37.417 28.4335 37.5087 28.4168 37.5587 28.5335C37.5587 28.5335 37.817 28.4252 37.8253 28.6418C37.8253 28.6418 37.9587 28.5418 37.992 28.6835C37.992 28.6835 38.267 28.6252 38.217 28.8335C38.217 28.8335 38.4503 28.7668 38.4253 28.9668C38.4253 28.9668 38.6587 28.8835 38.6253 29.0502C38.6253 29.0502 38.8753 29.0002 38.8087 29.2002C38.8087 29.2002 39.117 29.1668 39.0253 29.3752C39.0253 29.3752 39.2503 29.3168 39.192 29.4918C39.192 29.4918 39.492 29.5502 39.3587 29.7418C39.1402 30.0023 38.8592 30.203 38.542 30.3252" fill="#00A651"/>
<path d="M37.0503 29.5168C37.0503 29.5168 36.9253 28.6918 37.417 28.4335C37.417 28.4335 37.5087 28.4168 37.5587 28.5335C37.5587 28.5335 37.817 28.4252 37.8253 28.6418C37.8253 28.6418 37.9587 28.5418 37.992 28.6835C37.992 28.6835 38.267 28.6252 38.217 28.8335C38.217 28.8335 38.4503 28.7668 38.4253 28.9668C38.4253 28.9668 38.6587 28.8835 38.6253 29.0502C38.6253 29.0502 38.8753 29.0002 38.8087 29.2002C38.8087 29.2002 39.117 29.1668 39.0253 29.3752C39.0253 29.3752 39.2503 29.3168 39.192 29.4918C39.192 29.4918 39.492 29.5502 39.3587 29.7418C39.1402 30.0023 38.8592 30.203 38.542 30.3252" stroke="black" stroke-width="0.025" stroke-miterlimit="4.8"/>
<path d="M36.7836 30.3418C36.7836 30.3418 36.5836 29.6585 36.9669 29.4835C36.9669 29.4835 37.0419 29.4668 37.0503 29.5335C37.0503 29.5335 37.1336 29.4251 37.2003 29.5251C37.2003 29.5251 37.3919 29.4335 37.4419 29.5751C37.4419 29.5751 37.5669 29.4668 37.6336 29.6251C37.6336 29.6251 37.7586 29.5751 37.7586 29.7085C37.7586 29.7085 37.9253 29.6251 37.9253 29.7918C37.9253 29.7918 38.0919 29.7251 38.0503 29.8918C38.0503 29.8918 38.3003 29.9335 38.2253 30.0501C38.2253 30.0501 38.4503 30.1085 38.3669 30.2001C38.3669 30.2001 38.6003 30.1751 38.4753 30.3335C38.4753 30.3335 38.6586 30.2751 38.5586 30.4751C38.4503 30.6751 38.1253 30.8918 37.8919 30.9251" fill="#00A651"/>
<path d="M36.7836 30.3418C36.7836 30.3418 36.5836 29.6585 36.9669 29.4835C36.9669 29.4835 37.0419 29.4668 37.0503 29.5335C37.0503 29.5335 37.1336 29.4251 37.2003 29.5251C37.2003 29.5251 37.3919 29.4335 37.4419 29.5751C37.4419 29.5751 37.5669 29.4668 37.6336 29.6251C37.6336 29.6251 37.7586 29.5751 37.7586 29.7085C37.7586 29.7085 37.9253 29.6251 37.9253 29.7918C37.9253 29.7918 38.0919 29.7251 38.0503 29.8918C38.0503 29.8918 38.3003 29.9335 38.2253 30.0501C38.2253 30.0501 38.4503 30.1085 38.3669 30.2001C38.3669 30.2001 38.6003 30.1751 38.4753 30.3335C38.4753 30.3335 38.6586 30.2751 38.5586 30.4751C38.4503 30.6751 38.1253 30.8918 37.8919 30.9251" stroke="black" stroke-width="0.025" stroke-miterlimit="4.8"/>
<path d="M37.0251 30.8835C37.0251 30.8835 36.6001 30.4668 36.8001 30.3502C36.8001 30.3502 36.8834 30.3752 36.9251 30.4668C36.9251 30.4668 37.0251 30.3168 37.0918 30.4668C37.0918 30.4668 37.2418 30.4168 37.2418 30.5252L37.3584 30.6085C37.3584 30.6085 37.5001 30.6002 37.4751 30.6918C37.4751 30.6918 37.6334 30.6668 37.6251 30.7502C37.6251 30.7502 37.7584 30.7585 37.7501 30.8502C37.7501 30.8502 37.9834 30.8918 37.8751 31.0085C37.8751 31.0085 37.4751 31.0918 37.1834 30.9752C37.1834 30.9752 37.0418 30.9252 37.0251 30.8835Z" fill="#00A651" stroke="black" stroke-width="0.025" stroke-miterlimit="4.8"/>
<path d="M38.4919 30.2001V30.2251C38.7704 30.0261 39.0128 29.7809 39.2085 29.5001L39.1835 29.4835C39.1835 29.4918 38.7335 30.1085 38.4919 30.2001ZM38.3419 30.0918L38.3585 30.1168C38.5752 29.9918 39.0169 29.4085 39.0252 29.3835L39.0169 29.3668C39.0085 29.3751 38.5585 29.9668 38.3502 30.0918H38.3419ZM38.2169 30.0418L38.2335 30.0585C38.4644 29.7989 38.6605 29.5104 38.8169 29.2001L38.8002 29.1918C38.8002 29.1918 38.4502 29.8501 38.2169 30.0418ZM38.1085 29.8918H38.1335C38.1752 29.5751 38.6335 29.0668 38.6335 29.0585L38.6085 29.0501C38.5919 29.0668 38.1502 29.5668 38.1085 29.8918ZM37.2002 29.5001H37.2252C37.1919 29.0418 37.5669 28.5418 37.5752 28.5418L37.5502 28.5251C37.5502 28.5251 37.1585 29.0418 37.2002 29.5001ZM37.4419 29.5418H37.4669C37.4002 29.1751 37.8335 28.6585 37.8335 28.6501L37.8169 28.6335C37.8002 28.6585 37.3752 29.1668 37.4419 29.5418ZM37.8085 29.6751H37.8335C37.8169 29.2585 38.2169 28.8418 38.2252 28.8418L38.2085 28.8168C38.2085 28.8251 37.7919 29.2501 37.8085 29.6751ZM36.9335 30.4251H36.9585C36.8085 30.0335 37.0585 29.5418 37.0669 29.5418L37.0419 29.5251C37.0419 29.5251 36.7835 30.0335 36.9335 30.4335V30.4251ZM37.1002 30.4585L37.1252 30.4501C36.9919 30.0585 37.2085 29.5335 37.2085 29.5335L37.1919 29.5168C37.1919 29.5168 36.9669 30.0585 37.1002 30.4585ZM37.7919 30.8501V30.8668C38.2085 30.7251 38.4835 30.3418 38.4835 30.3418L38.4585 30.3251C38.4585 30.3251 38.1919 30.7001 37.7919 30.8501ZM37.7085 30.7585V30.7835C38.0419 30.6335 38.3502 30.2168 38.3502 30.2168L38.3335 30.2001C38.3335 30.2001 38.0252 30.6168 37.7085 30.7585ZM37.6252 30.7251L37.6419 30.7501C37.8919 30.5585 38.2252 30.0835 38.2252 30.0835L38.2085 30.0668C38.2085 30.0668 37.8752 30.5418 37.6252 30.7251ZM37.2085 30.4835H37.2419C37.2279 30.1674 37.2999 29.8535 37.4502 29.5751L37.4252 29.5668C37.4252 29.5668 37.1585 30.0668 37.2169 30.4835H37.2085ZM37.3919 30.6001L37.4085 30.6168C37.6752 30.3751 37.7669 29.7335 37.7669 29.7001H37.7419C37.7419 29.7001 37.6585 30.3668 37.3919 30.6001ZM37.5752 30.6668L37.5919 30.6918C37.8342 30.4884 38.0014 30.2097 38.0669 29.9001H38.0419C38.0419 29.9001 37.9419 30.4001 37.5752 30.6751V30.6668ZM37.6169 29.5501V29.6251L37.3335 30.5418L37.3585 30.5501L37.6419 29.6335C37.6002 29.1835 37.9919 28.6918 38.0002 28.6918L37.9752 28.6751C37.9752 28.6751 37.6169 29.1168 37.6169 29.5501Z" fill="black"/>
<path d="M37.917 29.7752C37.917 29.7918 37.8254 30.4168 37.4837 30.6502L37.5004 30.6752C37.8504 30.4335 37.9337 29.8168 37.9337 29.7835C38.0837 29.6085 38.4337 28.9752 38.4337 28.9752L38.417 28.9585C38.417 28.9585 38.067 29.5918 37.917 29.7752ZM36.917 30.4668C36.917 30.4752 36.967 30.8002 37.0337 30.9002L37.0587 30.8918C36.992 30.7835 36.9337 30.4668 36.9337 30.4585L36.9087 30.4668H36.917ZM37.0754 30.4668L37.067 30.9085H37.092V30.4668H37.0754Z" fill="black"/>
<path d="M37.0835 30.9168L37.1085 30.9251C37.2168 30.6918 37.2502 30.5251 37.2502 30.5251H37.2252C37.2252 30.5251 37.1918 30.6835 37.0835 30.9168ZM37.1085 30.9251L37.1252 30.9501C37.249 30.8761 37.3388 30.7564 37.3752 30.6168H37.3502C37.3502 30.6168 37.3002 30.8168 37.1085 30.9251ZM37.1502 30.9418V30.9668C37.3502 30.9501 37.4835 30.7085 37.4835 30.6918H37.4668C37.4668 30.6918 37.3335 30.9251 37.1502 30.9418Z" fill="black"/>
<path d="M37.167 30.9585V30.9835C37.492 30.9585 37.6337 30.7668 37.6337 30.7585L37.617 30.7502C37.617 30.7502 37.4753 30.9335 37.167 30.9585Z" fill="black"/>
<path d="M37.1919 30.9585V30.9835C37.2002 30.9835 37.6086 31.0752 37.7502 30.8668L37.7252 30.8502C37.6002 31.0502 37.1919 30.9668 37.1919 30.9585Z" fill="black"/>
<path d="M28.0752 16.1002V27.4668C28.0752 31.1835 34.7919 33.3835 34.7919 33.3835C34.7919 33.3835 41.5002 31.1835 41.5002 27.4668V16.1002H28.0752Z" stroke="black" stroke-width="0.233333" stroke-miterlimit="4.8"/>
<path d="M-7 0.00012207H19.6667V20.0001H-7V0.00012207Z" fill="#012169"/>
<path d="M-3.875 0.00012207L6.29167 7.54179L16.4167 0.00012207H19.6667V2.58346L9.66667 10.0418L19.6667 17.4585V20.0001H16.3333L6.33333 12.5418L-3.625 20.0001H-7V17.5001L2.95833 10.0835L-7 2.66679V0.00012207H-3.875Z" fill="white"/>
<path d="M10.6667 11.7085L19.6667 18.3335V20.0001L8.375 11.7085H10.6667ZM3 12.5418L3.25 14.0001L-4.75 20.0001H-7L3 12.5418ZM19.6667 0.00012207V0.125122L9.29167 7.95846L9.375 6.12512L17.5833 0.00012207H19.6667ZM-7 0.00012207L2.95833 7.33346H0.458333L-7 1.75012V0.00012207Z" fill="#C8102E"/>
<path d="M3.04167 0.00012207V20.0001H9.70833V0.00012207H3.04167ZM-7 6.66679V13.3335H19.6667V6.66679H-7Z" fill="white"/>
<path d="M-7 8.04179V12.0418H19.6667V8.04179H-7ZM4.375 0.00012207V20.0001H8.375V0.00012207H4.375Z" fill="#C8102E"/>
</g>
</g>
<defs>
<clipPath id="clip0_769_17295">
<path d="M0 20C0 8.95431 8.95431 0 20 0C31.0457 0 40 8.95431 40 20C40 31.0457 31.0457 40 20 40C8.95431 40 0 31.0457 0 20Z" fill="white"/>
</clipPath>
<clipPath id="clip1_769_17295">
<rect width="53.3333" height="40" fill="white" transform="translate(-7 0.00012207)"/>
</clipPath>
</defs>
</svg>
