<svg width="40" height="40" viewBox="0 0 40 40" fill="none" xmlns="http://www.w3.org/2000/svg">
<g clip-path="url(#clip0_769_17287)">
<path d="M0 20C0 8.95431 8.95431 0 20 0C31.0457 0 40 8.95431 40 20C40 31.0457 31.0457 40 20 40C8.95431 40 0 31.0457 0 20Z" fill="#E94E0F"/>
<g clip-path="url(#clip1_769_17287)">
<path d="M-7 0.00012207H46.3333V40.0001H-7V0.00012207Z" fill="white"/>
<path d="M-7 14.5418H46.3333V25.4584H-7V14.5418Z" fill="#003580"/>
<path d="M7.62503 0.00012207H18.5334V40.0001H7.6167L7.62503 0.00012207Z" fill="#003580"/>
</g>
</g>
<defs>
<clipPath id="clip0_769_17287">
<path d="M0 20C0 8.95431 8.95431 0 20 0C31.0457 0 40 8.95431 40 20C40 31.0457 31.0457 40 20 40C8.95431 40 0 31.0457 0 20Z" fill="white"/>
</clipPath>
<clipPath id="clip1_769_17287">
<rect width="53.3333" height="40" fill="white" transform="translate(-7 0.00012207)"/>
</clipPath>
</defs>
</svg>
