<svg width="40" height="40" viewBox="0 0 40 40" fill="none" xmlns="http://www.w3.org/2000/svg">
<g clip-path="url(#clip0_769_23694)">
<path d="M0 20C0 8.95431 8.95431 0 20 0C31.0457 0 40 8.95431 40 20C40 31.0457 31.0457 40 20 40C8.95431 40 0 31.0457 0 20Z" fill="#E94E0F"/>
<g clip-path="url(#clip1_769_23694)">
<path d="M-7 0.000488281H46.3333V40.0005H-7V0.000488281Z" fill="#002395"/>
<path d="M-7 0.000488281H17.4V16.4005H-7V0.000488281Z" fill="white"/>
<path d="M-7 0.000488281H1V16.0005H-7V0.000488281Z" fill="#002395"/>
<path d="M9 0.000488281H17V16.0005H9V0.000488281Z" fill="#ED2939"/>
<path d="M28.5 18.3005L29.7833 20.3505H33.45V27.5005L30.7 23.2005L27 29.1005H28.8L30.7 25.7005L34.6 32.7005L38.5 25.7005L40.4 29.1005H42.2L38.5 23.2005L35.75 27.5005V23.5505H37.4L38.625 21.6005H35.75V20.3505H39.4167L40.7 18.3005H28.5ZM32.8 27.0505H28.8V28.4505H32.8V27.0505ZM40.4 27.0505H36.4V28.4505H40.4V27.0505Z" fill="white"/>
<path d="M34.6001 34.1005L35.8301 37.9005L32.6001 35.5505H36.6001L33.3701 37.9005L34.6001 34.1005Z" fill="white"/>
<path d="M30.1001 30.7005L31.3301 34.5005L28.1001 32.1505H32.1001L28.8701 34.5005L30.1001 30.7005Z" fill="white"/>
<path d="M39.1001 30.7005L40.3301 34.5005L37.1001 32.1505H41.1001L37.8701 34.5005L39.1001 30.7005Z" fill="white"/>
<path d="M26.3 20.6005L27.53 24.4005L24.3 22.0505H28.3L25.07 24.4005L26.3 20.6005Z" fill="white"/>
</g>
</g>
<defs>
<clipPath id="clip0_769_23694">
<path d="M0 20C0 8.95431 8.95431 0 20 0C31.0457 0 40 8.95431 40 20C40 31.0457 31.0457 40 20 40C8.95431 40 0 31.0457 0 20Z" fill="white"/>
</clipPath>
<clipPath id="clip1_769_23694">
<rect width="53.3333" height="40" fill="white" transform="translate(-7 0.000488281)"/>
</clipPath>
</defs>
</svg>
