<svg width="40" height="40" viewBox="0 0 40 40" fill="none" xmlns="http://www.w3.org/2000/svg">
<g clip-path="url(#clip0_769_21200)">
<path d="M0 20C0 8.95431 8.95431 0 20 0C31.0457 0 40 8.95431 40 20C40 31.0457 31.0457 40 20 40C8.95431 40 0 31.0457 0 20Z" fill="#E94E0F"/>
<g clip-path="url(#clip1_769_21200)">
<path d="M-7 -0.000244141H46.3333V39.9998H-7V-0.000244141Z" fill="white"/>
<path d="M-0.333252 -0.000244141H39.6667V39.9998H-0.333252V-0.000244141Z" fill="white"/>
<path fill-rule="evenodd" clip-rule="evenodd" d="M16.1084 28.3998C16.1084 28.3998 17.0084 27.6664 17.8918 27.6664C18.7751 27.6664 19.0084 28.2748 19.6251 28.3248C20.2334 28.3748 20.7418 27.7164 21.5001 27.6914C22.2584 27.6664 23.2084 28.2248 23.2084 28.2248L19.8918 29.2248L16.1084 28.3914V28.3998ZM14.2001 27.3164L25.4834 27.3748C25.4834 27.3748 24.5084 26.3164 23.3584 26.2914C22.2084 26.2748 22.5251 26.7914 21.6501 26.8581C20.7668 26.9331 20.5501 26.3248 19.7418 26.3414C18.9418 26.3664 18.4751 26.8581 17.8668 26.8831C17.2501 26.9081 16.4751 26.2748 16.0084 26.2998C15.5418 26.3248 13.8834 27.0248 13.8834 27.0248L14.2001 27.3248V27.3164ZM12.7584 25.9831L26.6751 26.0248C26.9001 25.7081 25.9918 24.9498 25.1668 24.8831C24.4834 24.9081 24.0001 25.5914 23.4334 25.6164C22.8668 25.6414 22.2334 24.9081 21.6001 24.9331C20.9668 24.9581 20.3084 25.6164 19.6751 25.6164C19.0334 25.6164 18.5751 24.9081 17.7668 24.9081C16.9584 24.9081 16.6001 25.6831 15.9834 25.6414C15.3751 25.5914 14.8334 24.8581 14.2501 24.8581C13.6668 24.8581 12.6918 25.7331 12.5001 25.6914C12.3001 25.6331 12.7418 26.0498 12.7584 25.9748V25.9831Z" fill="#083D9C" stroke="#083D9C" stroke-width="0.166667"/>
<path fill-rule="evenodd" clip-rule="evenodd" d="M18.1085 18.2414L21.3085 19.0914V14.5248C19.8418 14.6081 18.6252 11.7414 21.2085 11.5498C18.6668 11.1831 18.3752 11.8414 18.0835 12.5498L18.1085 18.2414Z" fill="#FF0000" stroke="black" stroke-width="0.208333" stroke-linejoin="round"/>
<path fill-rule="evenodd" clip-rule="evenodd" d="M16.0835 21.5581L23.3085 21.5831L16.0835 21.5581Z" fill="#083D9C"/>
<path d="M16.0835 21.5581L23.3085 21.5831" stroke="#083D9C" stroke-width="0.416667" stroke-linecap="round"/>
<path d="M22.5 19.7498L22.475 20.4581M16.425 19.8331L17.2834 20.9748L16.425 19.8331ZM16.425 20.9748L17.35 19.8498L16.425 20.9748ZM16.9167 19.7498L16.8917 20.4581L16.9167 19.7498ZM17.7917 19.8248L18.65 20.9748L17.7917 19.8248ZM17.7917 20.9748L18.7167 19.8498L17.7917 20.9748ZM18.2834 19.7498L18.2584 20.4581L18.2834 19.7498ZM19.1834 19.8248L20.0417 20.9748L19.1834 19.8248ZM19.1834 20.9748L20.1084 19.8498L19.1834 20.9748ZM19.675 19.7498L19.65 20.4581L19.675 19.7498ZM20.625 19.8248L21.475 20.9748L20.625 19.8248ZM20.625 20.9748L21.55 19.8498L20.625 20.9748ZM21.1084 19.7498L21.0917 20.4581L21.1084 19.7498ZM22.0084 19.8248L22.8667 20.9748L22.0084 19.8248ZM22.0167 20.9748L22.9417 19.8498L22.0167 20.9748Z" stroke="black" stroke-width="0.333333" stroke-linecap="round"/>
<path fill-rule="evenodd" clip-rule="evenodd" d="M11.2251 21.6331L14.3001 21.6581V19.7331L10.7834 19.5581L11.2251 21.6331ZM11.0751 18.9664L14.3501 19.2914L14.3251 17.9248L11.1251 16.6498L11.0751 18.9748V18.9664ZM11.7418 16.2414L14.2501 17.4581L14.6084 17.0831C14.6084 17.0831 14.3751 16.9248 14.3918 16.7748C14.3918 16.6331 14.6251 16.6081 14.6251 16.4414C14.6251 16.2998 14.3751 16.2748 14.3668 16.1331C14.3501 15.9664 14.5668 15.7998 14.5668 15.7998L12.3001 13.8248L11.7334 16.2414H11.7418ZM28.2418 21.6581H24.9918L24.9668 19.7748L28.5334 19.5081L28.2418 21.6581ZM25.0168 19.3331L28.8751 18.8664L28.0418 16.6414L24.9918 17.9414L25.0168 19.3331ZM27.8251 16.0331L25.0418 17.4998C25.0001 17.3331 24.9668 17.1831 24.7751 17.0581C24.7751 17.0581 24.9418 16.9581 24.9418 16.7914C24.9418 16.6248 24.7251 16.5914 24.7251 16.4998C24.7251 16.4081 24.9251 16.3164 24.9418 16.0914C24.9168 15.9414 24.7251 15.7248 24.7584 15.6831L26.9251 14.0331L27.8251 16.0331ZM21.7918 19.2914L23.1834 19.2331L23.2084 18.6748L21.7918 19.2914ZM17.5418 19.2498L16.0834 19.2081V18.6248L17.5501 19.2498H17.5418ZM17.5418 19.0831L16.0834 18.3331V17.3498C16.0834 17.3498 15.9168 17.3748 15.9334 17.1831C15.9418 16.7748 17.0084 17.9248 17.5501 18.2998L17.5418 19.0831ZM21.7918 18.9914V18.3498C21.7918 18.3498 23.1084 17.1664 23.3834 16.9414C23.3834 17.1914 23.2334 17.3748 23.2334 17.3748V18.3081L21.7918 18.9914ZM13.2501 13.6498L14.7334 15.2914C14.7668 15.1414 15.1084 15.1164 15.4501 15.1414C15.7834 15.1664 16.0584 15.1164 16.0584 15.3581C16.0584 15.5998 15.8918 15.5664 15.8918 15.7414C15.8918 15.9164 16.1418 15.8998 16.1418 16.1164C16.1418 16.3331 15.9584 16.2914 15.9584 16.4581C15.9584 16.5998 16.1584 16.6081 16.1584 16.6081L17.5418 17.9498V16.5164L14.6918 12.0414L13.2501 13.6498ZM15.5334 11.9498L17.4751 15.9081C17.4751 15.9081 17.4918 12.2581 17.8168 12.0664L17.2751 11.0664L15.5334 11.9498ZM23.9501 12.1081L21.7834 15.9581V14.3331C21.7834 14.3331 21.9668 14.0664 21.6834 14.0831C21.4001 14.1081 21.0584 14.0664 21.0584 14.0664L21.9251 11.0164L23.9501 12.0998V12.1081ZM26.1668 13.7498C26.1418 13.7914 24.7084 15.2498 24.7084 15.2498C24.6418 15.0831 24.2084 15.1664 23.7918 15.1664C23.3834 15.1664 23.3251 15.2998 23.3501 15.4081C23.3918 15.6831 23.5334 15.4748 23.5334 15.7414C23.5334 15.9998 23.3334 15.9081 23.3084 16.0914C23.3334 16.3164 23.6251 16.2581 23.4501 16.4248L21.7918 18.0248V16.5081L24.8834 11.7081L26.1668 13.7498Z" fill="#EF7D08"/>
<path fill-rule="evenodd" clip-rule="evenodd" d="M18.8167 22.3664C18.125 23.5164 16.2667 23.1748 15.825 22.3664C15.7 22.3331 15.775 17.4081 15.775 17.4081C15.775 17.4081 15.5667 17.3164 15.5583 17.1581C15.55 17.0081 15.8417 16.9914 15.8417 16.7998C15.8417 16.6081 15.5417 16.6831 15.5333 16.4831C15.5333 16.2998 15.8583 16.3164 15.8417 16.1498C15.825 15.9498 15.4833 15.9831 15.4667 15.7998C15.4667 15.6581 15.7167 15.5331 15.7833 15.4664C15.7056 15.4682 15.6278 15.4682 15.55 15.4664L15.0167 15.4748C14.6333 15.4748 15.0167 15.5581 15.0167 15.7748C15.0167 15.9164 14.825 16.0164 14.8083 16.1331C14.8 16.2664 15.075 16.3498 15.0833 16.5081C15.0833 16.6414 14.8083 16.6498 14.8167 16.7831C14.8333 16.9914 15.0667 17.0414 15.0583 17.1748C15.0583 17.2998 14.7583 17.3498 14.75 17.4498C14.7667 17.6498 14.8 22.5164 14.8 22.5164C15.275 24.9998 18.0333 25.6248 18.8167 22.3664ZM20.6417 22.3664C21.3333 23.5164 23.1917 23.1748 23.625 22.3664C23.7583 22.3331 23.6833 17.4081 23.6833 17.4081C23.6833 17.4081 23.8917 17.3164 23.9 17.1581C23.9083 17.0081 23.6333 16.9914 23.6333 16.7998C23.6333 16.6081 23.9167 16.6831 23.9167 16.4831C23.9167 16.2998 23.625 16.3164 23.6417 16.1331C23.6583 15.9414 23.8917 15.9664 23.9 15.7831C23.9083 15.6248 23.7583 15.5331 23.6833 15.4664H23.9083L24.4417 15.4748C24.8167 15.4748 24.4417 15.5581 24.4417 15.7748C24.4417 15.9164 24.6333 16.0164 24.65 16.1331C24.65 16.2664 24.3833 16.3498 24.375 16.5081C24.375 16.6414 24.65 16.6498 24.6417 16.7831C24.625 16.9914 24.3917 17.0414 24.3917 17.1748C24.4 17.2998 24.7 17.3498 24.7 17.4498L24.6583 22.5164C24.1833 24.9998 21.4167 25.6248 20.6417 22.3664Z" fill="#FF0000" stroke="black" stroke-width="0.208333" stroke-linejoin="round"/>
<path fill-rule="evenodd" clip-rule="evenodd" d="M18.1417 24.6331H21.25C21.275 24.6081 20.55 23.5497 19.7 23.6331C18.7417 23.6581 18.0917 24.6331 18.1417 24.6331ZM28.05 24.5497H23.8C23.8 24.5497 24.35 24.2331 24.5 23.9331C24.775 24.0831 24.7 24.2331 25.25 24.2581C25.8 24.2831 26.325 23.6331 26.85 23.6581C27.375 23.6831 28.05 24.5747 28.05 24.5581V24.5497ZM11.3 24.5497H15.55C15.55 24.5497 15 24.2331 14.85 23.9331C14.575 24.0831 14.65 24.2331 14.1 24.2581C13.55 24.2831 13.0167 23.6331 12.5 23.6581C11.975 23.6831 11.3 24.5747 11.3 24.5581V24.5497ZM11.6167 23.2164L14.6417 23.2414C14.6417 23.2414 14.45 22.8247 14.425 22.3164C13.6417 22.0497 13.0084 22.8997 12.4417 22.9247C11.8834 22.9497 11.3 22.3164 11.3 22.3164L11.6167 23.2164ZM27.7834 23.2164L24.75 23.2414C24.75 23.2414 24.9417 22.8247 24.9667 22.3164C25.75 22.0497 26.3834 22.8997 26.95 22.9247C27.5084 22.9497 28.0917 22.3164 28.0917 22.3164L27.775 23.2164H27.7834ZM18.9167 23.2497L20.45 23.2081C20.45 23.2081 20.475 22.7414 19.675 22.7414C18.875 22.7414 18.9417 23.2747 18.9167 23.2497ZM17.9834 22.5914C18.276 22.4634 18.5169 22.2402 18.6667 21.9581L17.6167 21.9831C17.6167 21.9831 17.1334 22.2747 16.8917 22.5914H17.9834ZM21.3834 22.5914C21.0907 22.4634 20.8499 22.2402 20.7 21.9581L21.75 21.9831C21.75 21.9831 22.2334 22.2747 22.475 22.5914H21.3834Z" fill="#083D9C" stroke="#083D9C" stroke-width="0.166667"/>
<path fill-rule="evenodd" clip-rule="evenodd" d="M-10.3333 29.9998H49.6667V39.9998H-10.3333V29.9998ZM-10.3333 -0.000244141H49.6667V9.99976H-10.3333V-0.000244141Z" fill="#DE2010"/>
</g>
</g>
<defs>
<clipPath id="clip0_769_21200">
<path d="M0 20C0 8.95431 8.95431 0 20 0C31.0457 0 40 8.95431 40 20C40 31.0457 31.0457 40 20 40C8.95431 40 0 31.0457 0 20Z" fill="white"/>
</clipPath>
<clipPath id="clip1_769_21200">
<rect width="53.3333" height="40" fill="white" transform="translate(-7 -0.000244141)"/>
</clipPath>
</defs>
</svg>
