<svg width="340" height="204" viewBox="0 0 340 204" fill="none" xmlns="http://www.w3.org/2000/svg">
<rect width="340" height="204" fill="#F8F9FB"/>
<path d="M97.693 42.4328L184.356 159.755L69.819 198.77L66.8445 52.9408L97.693 42.4328Z" fill="#FDEAC1"/>
<path d="M79.0781 0H77.5012V34.5416H79.0781V0Z" fill="#870B58"/>
<path d="M97.6928 42.4322C94.449 34.5395 85.5621 30.4573 77.3525 33.2538C69.1428 36.0503 64.5957 44.7085 66.8443 52.9402L97.6928 42.4322Z" fill="#870B58"/>
<rect y="188" width="340" height="16" fill="#F9D2C3"/>
<rect x="162" y="48" width="56" height="132" fill="#E4003A"/>
<rect x="167.283" y="52" width="45.434" height="62" fill="#870B58"/>
<rect x="167.283" y="118" width="45.434" height="29" fill="#870B58"/>
<circle cx="210" cy="184" r="4" fill="#7F8594"/>
<circle cx="170" cy="184" r="4" fill="#7F8594"/>
<path d="M189.8 76.4192C190.038 75.8403 190.327 75.2972 190.659 74.7933L191.491 75.3518C192.109 74.4141 192.895 73.6309 193.789 73.0267L193.23 72.1927C194.249 71.504 195.394 71.023 196.596 70.7793L196.799 71.7628C197.86 71.5478 198.969 71.5395 200.067 71.763L200.259 70.7797C200.852 70.9005 201.442 71.0814 202.02 71.3252C202.599 71.5691 203.141 71.8654 203.643 72.2067L203.089 73.0372C204.02 73.669 204.796 74.4722 205.392 75.3858L206.224 74.8386C206.901 75.8746 207.371 77.0366 207.606 78.2543L206.628 78.4399C206.834 79.5081 206.839 80.6247 206.618 81.7298L207.595 81.9339C207.476 82.5278 207.299 83.118 207.061 83.6969C206.823 84.2758 206.535 84.8189 206.202 85.3228L205.371 84.7643C204.752 85.702 203.967 86.4852 203.073 87.0894L203.632 87.9234C202.613 88.6121 201.468 89.0931 200.265 89.3368L200.062 88.3533C199.002 88.5683 197.893 88.5766 196.794 88.3531L196.603 89.3363C196.009 89.2156 195.42 89.0347 194.842 88.7909C194.263 88.547 193.721 88.2507 193.218 87.9094L193.772 87.0789C192.842 86.4471 192.066 85.6439 191.469 84.7303L190.637 85.2775C189.961 84.2415 189.491 83.0795 189.255 81.8618L190.234 81.6762C190.027 80.608 190.022 79.4914 190.244 78.3863L189.266 78.1822C189.385 77.5883 189.562 76.9981 189.8 76.4192Z" fill="#E3E6EF" stroke="#F8AD07" stroke-width="2" stroke-dasharray="3 3"/>
<ellipse rx="7.63239" ry="7.70119" transform="matrix(-0.921447 -0.388504 -0.38016 0.924921 198.392 80.074)" stroke="#F8AD07" stroke-width="2"/>
<path d="M172.623 77.5598C172.898 77.093 173.211 76.6629 173.557 76.2715L174.304 76.94C174.937 76.2243 175.692 75.6581 176.516 75.2552L176.078 74.3527C177.036 73.8845 178.077 73.6096 179.139 73.5449L179.204 74.546C180.124 74.49 181.06 74.6141 181.959 74.9323L182.286 73.9864C182.782 74.1618 183.266 74.3885 183.733 74.6678C184.201 74.9472 184.63 75.2674 185.021 75.6215L184.354 76.3647C185.063 77.0076 185.62 77.7766 186.012 78.6174L186.914 78.1946C187.367 79.165 187.627 80.2183 187.68 81.2907L186.684 81.3352C186.729 82.2583 186.598 83.1979 186.279 84.1012L187.219 84.4409C187.044 84.9349 186.82 85.4187 186.546 85.8854C186.271 86.3521 185.958 86.7823 185.611 87.1737L184.865 86.5052C184.232 87.2209 183.477 87.787 182.652 88.19L183.091 89.0925C182.133 89.5607 181.092 89.8356 180.03 89.9003L179.965 88.8992C179.045 88.9552 178.109 88.8311 177.21 88.5128L176.882 89.4587C176.387 89.2834 175.902 89.0567 175.435 88.7774C174.968 88.498 174.538 88.1778 174.148 87.8237L174.814 87.0805C174.106 86.4376 173.549 85.6686 173.157 84.8277L172.254 85.2506C171.801 84.2801 171.541 83.2269 171.489 82.1545L172.485 82.1099C172.44 81.1869 172.571 80.2473 172.89 79.344L171.95 79.0043C172.125 78.5103 172.349 78.0265 172.623 77.5598Z" fill="#E3E6EF" stroke="#E94E0F" stroke-width="2" stroke-dasharray="3 3"/>
<ellipse rx="6.48088" ry="6.56051" transform="matrix(-0.930164 -0.367145 -0.363776 0.931486 179.552 81.7373)" stroke="#E94E0F" stroke-width="2"/>
<path d="M185.533 89.8373C185.761 89.3619 186.072 88.9542 186.442 88.6241L186.773 89.0017C187.439 88.4066 188.32 88.1027 189.213 88.1604L189.24 87.6589C189.735 87.6909 190.231 87.8194 190.704 88.0529C191.176 88.2863 191.582 88.604 191.912 88.9794L191.541 89.3113C192.137 89.9889 192.445 90.881 192.396 91.7811L192.893 91.8128C192.866 92.312 192.742 92.8129 192.515 93.2882C192.287 93.7635 191.976 94.1713 191.606 94.5014L191.275 94.1238C190.609 94.7189 189.728 95.0228 188.835 94.9651L188.807 95.4666C188.313 95.4346 187.817 95.306 187.344 95.0726C186.872 94.8392 186.466 94.5215 186.136 94.1461L186.507 93.8142C185.911 93.1366 185.603 92.2445 185.652 91.3444L185.155 91.3127C185.182 90.8135 185.306 90.3126 185.533 89.8373Z" fill="#E3E6EF" stroke="#E4003A" stroke-dasharray="2 2"/>
<ellipse rx="3.09635" ry="3.09363" transform="matrix(-0.896471 -0.443102 -0.431677 0.902028 189.008 91.5686)" stroke="#E4003A"/>
<rect x="174" y="123.723" width="32" height="2.03678" fill="#7F8594"/>
<rect x="175.153" y="121.783" width="2.79493" height="12.6941" fill="#C8CDD9"/>
<path d="M187.755 135.093C187.258 135.585 187.258 136.381 187.755 136.874C188.252 137.366 189.055 137.366 189.552 136.874C190.049 136.381 190.049 135.585 189.552 135.093C189.055 134.6 188.252 134.6 187.755 135.093ZM189.383 135.868C189.235 135.952 189.193 136.119 189.277 136.266C189.288 136.277 189.298 136.308 189.309 136.318C189.15 136.308 189.002 136.413 188.981 136.58C188.981 136.601 188.981 136.622 188.981 136.643C188.854 136.538 188.675 136.549 188.558 136.664C188.548 136.675 188.527 136.696 188.527 136.717C188.495 136.559 188.336 136.465 188.178 136.497C188.167 136.486 188.157 136.497 188.125 136.507C188.188 136.36 188.125 136.193 187.977 136.13C187.956 136.109 187.935 136.109 187.924 136.098C188.072 136.015 188.115 135.847 188.03 135.7C188.019 135.69 188.009 135.658 187.998 135.648C188.157 135.658 188.305 135.554 188.326 135.386C188.326 135.365 188.326 135.344 188.326 135.323C188.453 135.428 188.632 135.417 188.749 135.302C188.759 135.292 188.78 135.271 188.78 135.25C188.812 135.407 188.971 135.501 189.129 135.47C189.15 135.47 189.161 135.459 189.193 135.449C189.129 135.595 189.193 135.763 189.341 135.826C189.351 135.857 189.372 135.857 189.383 135.868Z" fill="#303642"/>
<path d="M190.366 122.97L189.806 125.181C189.467 125.349 189.076 125.38 188.717 125.275C188.347 125.202 188.019 125.003 187.797 124.699L188.336 122.467C187.396 122.792 186.677 123.547 186.423 124.49C186.085 125.873 187.755 126.753 187.755 127.214L187.755 134.338C187.755 134.38 187.723 134.433 187.692 134.464C187.406 134.642 187.195 134.894 187.047 135.187C186.73 135.858 186.846 136.643 187.353 137.188C188.03 137.922 189.161 137.953 189.89 137.272C189.911 137.251 189.932 137.23 189.953 137.209C190.461 136.664 190.577 135.878 190.26 135.208C190.123 134.904 189.901 134.663 189.615 134.485C189.573 134.464 189.541 134.412 189.552 134.359L189.552 127.214C189.562 127.098 189.647 126.994 189.753 126.952C190.154 126.805 190.926 126.396 191.116 125.642C191.317 124.668 191.032 123.672 190.366 122.97ZM189.446 136.769C189.013 137.199 188.294 137.199 187.861 136.769C187.427 136.339 187.427 135.627 187.861 135.197C188.294 134.768 189.013 134.768 189.446 135.197C189.88 135.627 189.88 136.339 189.446 136.769Z" fill="#F8AD07"/>
<path d="M185.128 119.644L185.647 121.703L185.128 123.248V128.655L183.829 128.655V123.377L183.309 121.703L183.829 119.644L185.128 119.644Z" fill="#C8CDD9"/>
<path d="M182.53 137.177C182.53 137.872 183.114 138.451 183.816 138.451L185.14 138.451C185.842 138.451 186.426 137.872 186.426 137.177L186.426 131.281C186.426 131.204 186.413 131.114 186.387 131.036L182.569 131.036C182.543 131.114 182.517 131.191 182.53 131.281L182.53 137.177Z" fill="#F8AD07"/>
<path d="M186.335 129.286L186.166 128.578C186.088 128.243 185.803 128.011 185.452 128.024L183.504 128.024C183.166 128.024 182.855 128.256 182.79 128.578L182.621 129.286C182.595 129.389 182.595 129.517 182.621 129.62L186.335 129.62C186.361 129.517 186.348 129.401 186.335 129.286Z" fill="#7783A0"/>
<path d="M186.205 130.753L185.777 130.328L183.179 130.328L182.751 130.753C182.673 130.83 182.577 130.933 182.551 131.036L186.387 131.036C186.348 130.92 186.283 130.83 186.205 130.753Z" fill="#F8AD07"/>
<path d="M183.179 130.328L185.777 130.328L186.14 129.968C186.231 129.878 186.309 129.749 186.335 129.62L182.621 129.62C182.647 129.749 182.725 129.878 182.816 129.968L183.179 130.328Z" fill="#F8AD07"/>
<path d="M191.669 128.362L193.429 128.362L193.417 139.382L191.669 139.37V128.362Z" fill="#F8AD07"/>
<path d="M193.417 140.832H191.657L191.657 142.405C191.657 142.601 191.806 142.749 192.004 142.749L193.045 142.749C193.244 142.749 193.392 142.601 193.392 142.405L193.417 140.832Z" fill="#F17F9C"/>
<path d="M193.415 141.081V139.135H191.662V141.081H193.415Z" fill="#C8CDD9"/>
<path d="M191.992 128.583L192.19 128.362L192.488 128.607C192.512 128.632 192.562 128.632 192.587 128.607L192.884 128.362L193.082 128.583C193.12 128.62 193.169 128.62 193.206 128.583L193.405 128.362L192.946 126.457C192.934 126.371 192.141 126.371 192.116 126.47L191.657 128.374L191.855 128.595C191.905 128.62 191.955 128.62 191.992 128.583Z" fill="#FDEAC1"/>
<path d="M192.959 126.47L192.624 125.106C192.612 125.069 192.574 125.032 192.512 125.045C192.475 125.057 192.45 125.081 192.45 125.106L192.116 126.47L192.959 126.47Z" fill="#242831"/>
<path d="M193.421 139.552V139.378H191.668V139.552H193.421Z" fill="#929BB3"/>
<path d="M193.412 139.851V139.677H191.659V139.851H193.412Z" fill="#929BB3"/>
<path d="M193.421 140.535V140.361H191.668V140.535H193.421Z" fill="#929BB3"/>
<path d="M193.412 140.833V140.66H191.659V140.833H193.412Z" fill="#929BB3"/>
<rect x="201.769" y="121.783" width="2.79493" height="12.6941" fill="#C8CDD9"/>
<rect x="174.288" y="133.906" width="31.1351" height="13.0936" fill="#7F8594"/>
<rect x="195.411" y="126.129" width="2.70359" height="7.84508" fill="#F8AD07"/>
<rect x="195.073" y="126.129" width="0.33795" height="7.84508" fill="#E3E6EF"/>
<path d="M242.886 69.6843L239.503 69.284L239.146 71.7205C239.106 72.0658 239.136 72.4152 239.233 72.7482C239.33 73.0813 239.492 73.3913 239.71 73.6601C239.928 73.9288 240.197 74.1509 240.502 74.3133C240.807 74.4757 241.141 74.5752 241.485 74.6058L242.211 74.7212L242.886 69.6843Z" fill="#E94E0F"/>
<path d="M249.268 77.709C248.885 76.0623 248.852 74.352 249.169 72.6886L246.047 72.3211L245.365 77.343L249.28 77.8129L249.268 77.709Z" fill="#E94E0F"/>
<path d="M253.947 116.315C254.881 117.117 255.638 118.108 256.169 119.222C256.699 120.337 256.991 121.551 257.025 122.785C257.059 124.019 256.835 125.246 256.368 126.387C255.901 127.527 255.2 128.556 254.311 129.405L246.028 152.183L243.528 185.683L240.968 186.51L237.528 152.183C237.373 150.487 236.94 147.271 237.5 145.272L239.528 127.183L250.68 113.5L253.947 116.315Z" fill="#303642"/>
<path d="M256.883 117.239C257.973 117.806 258.933 118.596 259.702 119.558C260.471 120.521 261.031 121.634 261.346 122.826C261.661 124.019 261.724 125.264 261.531 126.482C261.339 127.699 260.894 128.862 260.227 129.895L255.865 153.492L261 186.5L258.536 187.285L247.357 155.013C246.825 153.397 245.68 150.369 245.817 148.274L245.427 130.306L253.107 115.217L256.883 117.239Z" fill="#303642"/>
<path d="M236 188.903L238.501 187.931L240.897 186.316L241.188 188.551L238.756 189.722L236.198 190.132L236 188.903Z" fill="#303642"/>
<path d="M254.646 190.803L256.825 189.238L258.742 187.075L259.582 189.168L257.52 190.908L255.144 191.944L254.646 190.803Z" fill="#303642"/>
<path d="M241.118 188.598L240.827 186.363L243.491 186L243.979 189.02L242.06 189.324L241.118 188.598Z" fill="#303642"/>
<path d="M259.526 189.23L258.686 187.138L261.174 186.122L262.401 188.924L260.619 189.698L259.526 189.23Z" fill="#303642"/>
<path d="M211.058 78.7626L210.477 77.8549C210.294 77.5705 210.184 77.2451 210.157 76.9073C210.13 76.5694 210.187 76.2296 210.322 75.9179C210.401 75.7878 210.436 75.636 210.421 75.4851C210.406 75.3343 210.342 75.1926 210.24 75.0815L208.398 72.8463C208.324 72.7565 208.4 72.573 208.597 72.6825L210.861 73.4242C211.228 73.5295 211.566 73.7137 211.854 73.9638C212.141 74.2138 212.37 74.5239 212.524 74.8722L213.705 77.5015L211.058 78.7626Z" fill="#F8BFCD"/>
<path d="M259.869 110.838L262.333 94.8655C262.546 93.48 262.44 92.0653 262.024 90.7298C261.608 89.3942 260.893 88.1732 259.934 87.1603C258.975 86.1474 257.797 85.3694 256.49 84.886C255.183 84.4025 253.783 84.2264 252.395 84.3711L240.484 85.5547C239.192 85.6754 237.939 86.0722 236.809 86.7187C235.68 87.3651 234.7 88.2462 233.935 89.3029C233.171 90.3595 232.639 91.5673 232.376 92.8453C232.113 94.1232 232.125 95.4418 232.411 96.7125L239.639 127.414L261.493 125.213L259.869 110.838Z" fill="#EE7A4B"/>
<path d="M227.321 98.9426C228.1 99.8588 229.113 100.546 230.253 100.933C231.394 101.319 232.62 101.39 233.802 101.139L243.262 99.1463L242.68 88.0958L230.707 92.762L213.629 77.4288L210.926 78.842L227.321 98.9426Z" fill="#EE7A4B"/>
<path d="M227.342 124.279L226.699 125.138C226.511 125.409 226.254 125.624 225.955 125.761C225.656 125.897 225.326 125.951 225 125.914C224.853 125.93 224.712 125.977 224.585 126.052C224.457 126.126 224.347 126.227 224.261 126.347L222.749 128.885C222.623 129.033 222.436 129.032 222.437 128.843L222.367 126.472C222.352 126.087 222.419 125.704 222.562 125.346C222.704 124.989 222.92 124.666 223.196 124.398L225.247 122.31L227.342 124.279Z" fill="#F8BFCD"/>
<path d="M239.436 77.2344L240.299 70.5965L248.137 71.5142L247.152 79.2295C247.097 79.5953 246.903 79.9259 246.61 80.1515C246.318 80.3771 245.95 80.48 245.584 80.4387L241.564 79.918C241.244 79.8954 240.931 79.8063 240.647 79.6564C240.363 79.5064 240.113 79.2989 239.913 79.0468C239.713 78.7947 239.568 78.5035 239.486 78.1916C239.403 77.8796 239.386 77.5537 239.436 77.2344Z" fill="#F8BFCD"/>
<path d="M245.475 84.9099L249.053 84.5716L243.002 94.5988L242.604 85.2447L245.475 84.9099Z" fill="white"/>
<path d="M249.011 84.7552L244.528 86.8569L242.596 85.3663L242.644 77.334L246.399 77.833L249.011 84.7552Z" fill="#F8BFCD"/>
<path d="M249.191 71.986C249.24 71.5879 249.21 71.1842 249.103 70.7983C248.996 70.4124 248.814 70.0521 248.567 69.7382C248.319 69.4242 248.013 69.163 247.664 68.9695C247.315 68.7761 246.931 68.6543 246.535 68.6113L239.005 67.7313C238.941 68.2146 238.973 68.7055 239.1 69.1752C239.227 69.645 239.446 70.0842 239.745 70.4671C240.043 70.85 240.415 71.1688 240.838 71.4049C241.261 71.641 241.728 71.7897 242.21 71.8421L249.169 72.6885L249.191 71.986Z" fill="#E94E0F"/>
<path d="M247.329 74.7453C247.171 74.7297 247.012 74.7615 246.871 74.8367C246.731 74.9119 246.616 75.0271 246.54 75.1677C246.465 75.3083 246.433 75.4681 246.447 75.6268C246.462 75.7856 246.523 75.9362 246.623 76.0596C246.723 76.1831 246.858 76.2738 247.009 76.3204C247.161 76.367 247.323 76.3673 247.475 76.3213C247.628 76.2754 247.763 76.1852 247.864 76.0622C247.966 75.9392 248.029 75.7888 248.046 75.6302C248.045 75.4222 247.973 75.2212 247.843 75.0602C247.712 74.8993 247.531 74.7882 247.329 74.7453Z" fill="#F8BFCD"/>
<path d="M258.873 89.9001L250.506 111.361L226.787 124.551L224.618 122.656L244.262 108.661L250.724 88.2907L258.873 89.9001Z" fill="#EE7A4B"/>
<path d="M228.217 127.012C228.736 126.881 229.252 127.202 229.372 127.729C229.492 128.256 229.17 128.789 228.652 128.92C228.134 129.051 227.617 128.731 227.497 128.203C227.377 127.676 227.699 127.144 228.217 127.012ZM228.068 128.403C228.181 128.339 228.307 128.378 228.368 128.493C228.371 128.504 228.387 128.524 228.389 128.535C228.446 128.426 228.573 128.37 228.691 128.423C228.704 128.432 228.718 128.44 228.731 128.449C228.714 128.323 228.793 128.208 228.914 128.177C228.925 128.174 228.947 128.169 228.961 128.177C228.872 128.093 228.874 127.95 228.958 127.857C228.956 127.846 228.967 127.843 228.986 127.827C228.866 127.81 228.782 127.7 228.801 127.577C228.796 127.554 228.804 127.54 228.802 127.529C228.688 127.593 228.562 127.554 228.501 127.439C228.499 127.428 228.483 127.408 228.48 127.397C228.423 127.506 228.296 127.562 228.179 127.509C228.165 127.5 228.152 127.492 228.138 127.483C228.155 127.61 228.076 127.724 227.955 127.755C227.944 127.758 227.922 127.764 227.908 127.755C227.998 127.839 227.995 127.982 227.911 128.075C227.903 128.089 227.892 128.092 227.872 128.108C227.993 128.125 228.076 128.235 228.057 128.358C228.074 128.378 228.065 128.392 228.068 128.403Z" fill="#870B58"/>
<path d="M219.344 123.788L221.002 124.306C221.246 124.149 221.391 123.981 221.467 123.701C221.567 123.426 221.57 123.129 221.462 122.859L219.799 122.319C220.386 121.826 221.164 121.653 221.877 121.864C222.909 122.196 222.81 123.657 223.109 123.843L227.728 126.709C227.755 126.726 227.802 126.726 227.835 126.717C228.065 126.6 228.313 126.561 228.562 126.581C229.124 126.641 229.587 127.034 229.737 127.589C229.941 128.333 229.508 129.095 228.774 129.304C228.752 129.31 228.73 129.315 228.708 129.321C228.152 129.438 227.596 129.199 227.288 128.719C227.146 128.506 227.079 128.262 227.078 128.001C227.081 127.964 227.06 127.922 227.022 127.908L222.389 125.034C222.31 124.994 222.208 125.008 222.138 125.061C221.882 125.269 221.308 125.616 220.743 125.438C220.03 125.179 219.532 124.512 219.344 123.788ZM228.626 128.808C229.079 128.693 229.367 128.217 229.262 127.757C229.157 127.297 228.695 127.01 228.243 127.125C227.791 127.239 227.503 127.715 227.607 128.175C227.712 128.635 228.174 128.922 228.626 128.808Z" fill="#F8AD07"/>
<path d="M147.052 29.6773L156.007 41.6406L157.487 40.3319L148.578 28.323L147.052 29.6773Z" fill="#F8AD07"/>
<path d="M148.047 42.2047L147.285 43.8887L157.681 47.7809L158.461 46.0676L148.047 42.2047Z" fill="#E94E0F"/>
<path d="M162.382 41.0937L162.227 32.3978L160.356 32.9768L160.383 41.7302L162.382 41.0937Z" fill="#F8AD07"/>
<path d="M108.731 187.192L108.194 190.46L109.838 190.73L110.316 189.713C110.348 189.629 110.946 189.83 111.317 189.699C111.426 189.661 111.524 189.598 111.604 189.515C111.684 189.432 111.742 189.332 111.775 189.222C111.808 189.112 111.814 188.996 111.794 188.884C111.773 188.771 111.725 188.665 111.655 188.574C111.323 188.115 110.967 187.674 110.588 187.253C110.033 186.697 109.143 186.523 108.731 187.187V187.192Z" fill="#870B58"/>
<path d="M113.632 189.553L111.413 187.923L110.572 187.023C110.449 186.89 110.293 186.791 110.119 186.737C109.909 186.67 109.683 186.67 109.473 186.739C109.263 186.808 109.081 186.941 108.953 187.12L108.726 187.201L110.312 189.722L112.869 191.236L112.971 191.216C113.145 191.18 113.307 191.102 113.443 190.989C113.579 190.875 113.685 190.73 113.75 190.566C113.815 190.401 113.838 190.224 113.817 190.048C113.795 189.873 113.73 189.706 113.628 189.562L113.632 189.553Z" fill="#870B58"/>
<path d="M113.632 189.553C113.528 189.515 113.417 189.504 113.308 189.522C113.198 189.539 113.095 189.583 113.008 189.651C112.921 189.718 112.853 189.806 112.809 189.907C112.766 190.008 112.749 190.119 112.76 190.228L112.873 191.221L115.879 191.713L115.97 191.169L113.632 189.553Z" fill="#870B58"/>
<path d="M114.013 155.388V155.427L108.738 187.192L111.118 187.598L120.042 156.417V156.379C120.135 155.973 120.144 155.553 120.067 155.145C119.991 154.736 119.831 154.347 119.598 154.002C119.364 153.657 119.062 153.364 118.71 153.139C118.358 152.914 117.964 152.764 117.551 152.696C117.139 152.631 116.718 152.649 116.314 152.75C115.909 152.851 115.53 153.034 115.199 153.286C114.867 153.537 114.591 153.854 114.388 154.215C114.184 154.577 114.056 154.976 114.013 155.388Z" fill="#F3A687"/>
<path d="M114.013 155.426L109.902 180.184L113.091 180.708L120.042 156.417V156.378C120.138 155.972 120.149 155.551 120.074 155.141C119.999 154.731 119.84 154.341 119.607 153.994C119.374 153.647 119.072 153.352 118.72 153.126C118.367 152.9 117.972 152.748 117.558 152.68C117.144 152.612 116.72 152.63 116.313 152.731C115.907 152.832 115.525 153.016 115.192 153.269C114.859 153.523 114.583 153.842 114.379 154.207C114.175 154.571 114.049 154.973 114.008 155.388L114.013 155.426Z" fill="#E94E0F"/>
<path d="M115.145 123.8C114.527 123.837 113.922 123.999 113.37 124.277C112.817 124.556 112.327 124.943 111.931 125.417C111.535 125.891 111.241 126.44 111.068 127.031C110.894 127.622 110.844 128.242 110.921 128.853L114.149 155.823C114.389 157.328 115.924 158.469 117.451 158.337C118.183 158.286 118.868 157.959 119.365 157.423C119.863 156.887 120.136 156.183 120.128 155.453L119.97 128.295C119.97 127.679 119.843 127.069 119.597 126.504C119.351 125.938 118.99 125.429 118.538 125.008C118.086 124.587 117.551 124.262 116.968 124.054C116.384 123.847 115.764 123.76 115.145 123.8Z" fill="#E94E0F"/>
<path d="M134.398 186.526L134.341 189.837L136.008 189.866L136.332 188.79C136.353 188.702 136.973 188.817 137.322 188.632C137.423 188.579 137.511 188.502 137.577 188.409C137.643 188.316 137.686 188.208 137.702 188.096C137.719 187.983 137.708 187.868 137.672 187.76C137.635 187.651 137.574 187.553 137.492 187.473C137.095 187.069 136.678 186.684 136.242 186.321C135.612 185.853 134.708 185.808 134.398 186.526Z" fill="#870B58"/>
<path d="M139.592 188.153L137.159 186.861L136.194 186.082C136.054 185.967 135.886 185.89 135.707 185.857C135.49 185.822 135.266 185.856 135.069 185.954C134.872 186.052 134.711 186.21 134.609 186.404L134.4 186.519L136.335 188.783L139.087 189.909L139.184 189.875C139.351 189.814 139.501 189.714 139.619 189.582C139.737 189.449 139.82 189.29 139.86 189.118C139.901 188.946 139.898 188.766 139.851 188.596C139.804 188.426 139.715 188.269 139.592 188.142V188.153Z" fill="#870B58"/>
<path d="M139.401 188.133C139.292 188.115 139.179 188.126 139.075 188.164C138.97 188.202 138.877 188.266 138.805 188.349C138.732 188.433 138.682 188.534 138.66 188.642C138.637 188.75 138.643 188.862 138.677 188.968L138.976 189.92L142.022 189.841L142.009 189.289L139.401 188.133Z" fill="#870B58"/>
<path d="M134.989 154.283V154.321L134.398 186.54L136.731 186.58L140.967 154.427V154.389C140.999 153.983 140.947 153.574 140.814 153.189C140.681 152.803 140.471 152.449 140.195 152.148C139.919 151.846 139.584 151.604 139.21 151.437C138.836 151.269 138.432 151.179 138.022 151.173C137.614 151.168 137.21 151.246 136.833 151.402C136.457 151.558 136.116 151.788 135.832 152.079C135.548 152.37 135.327 152.716 135.182 153.095C135.037 153.474 134.972 153.878 134.989 154.283Z" fill="#F3A687"/>
<path d="M134.992 154.321L134.539 179.423L137.678 179.479L140.967 154.427V154.389C141.001 153.982 140.95 153.573 140.819 153.187C140.687 152.8 140.477 152.445 140.202 152.142C139.927 151.84 139.592 151.596 139.218 151.428C138.844 151.259 138.44 151.168 138.029 151.161C137.619 151.153 137.211 151.23 136.832 151.385C136.452 151.541 136.109 151.772 135.823 152.065C135.537 152.357 135.314 152.705 135.169 153.087C135.024 153.468 134.959 153.875 134.978 154.283L134.992 154.321Z" fill="#E94E0F"/>
<path d="M124.303 125.208C123.743 125.47 123.242 125.844 122.833 126.305C122.423 126.767 122.114 127.307 121.923 127.892C121.732 128.478 121.663 129.096 121.722 129.708C121.781 130.321 121.965 130.915 122.264 131.454L135.286 155.327C136.067 156.637 137.92 157.127 139.291 156.452C139.952 156.137 140.467 155.582 140.73 154.901C140.992 154.221 140.983 153.466 140.704 152.792L130.455 127.614C130.226 127.042 129.882 126.522 129.443 126.088C129.004 125.653 128.48 125.312 127.903 125.087C127.327 124.861 126.71 124.756 126.09 124.777C125.471 124.797 124.863 124.944 124.303 125.208Z" fill="#E94E0F"/>
<path d="M124.992 135.06L112.71 130.634C111.256 130.07 110.546 128.493 111.093 127.025L114.308 119.985C114.83 118.609 116.16 117.654 117.655 117.589L120.011 117.482C124.199 117.23 127.618 118.982 130.314 121.985L131.548 123.31C132.514 124.348 132.712 125.873 132.05 127.167L128.863 133.58C128.141 134.975 126.444 135.624 124.992 135.06Z" fill="#E94E0F"/>
<path d="M188.426 122.652L189.44 122.844C189.749 122.9 190.066 122.884 190.367 122.797C190.668 122.709 190.944 122.553 191.173 122.34C191.281 122.257 191.408 122.201 191.543 122.179C191.678 122.157 191.817 122.168 191.947 122.212L194.539 123.076C194.57 123.08 194.602 123.075 194.631 123.063C194.66 123.05 194.685 123.03 194.704 123.004C194.722 122.978 194.733 122.948 194.736 122.916C194.738 122.885 194.732 122.853 194.718 122.824L193.303 121.059C193.072 120.787 192.789 120.565 192.47 120.404C192.152 120.243 191.805 120.148 191.45 120.123L189.425 119.965L188.862 120.12C188.661 120.178 188.477 120.281 188.324 120.422C188.171 120.563 188.052 120.738 187.978 120.932C187.904 121.127 187.876 121.336 187.896 121.544C187.916 121.752 187.984 121.953 188.095 122.13L188.426 122.652Z" fill="#F3A687"/>
<path d="M171.267 121.51C170.696 122.248 169.884 122.762 168.97 122.964C168.057 123.166 167.1 123.044 166.263 122.618L148.687 112.115C148.155 111.843 147.685 111.465 147.305 111.003C146.926 110.542 146.646 110.007 146.483 109.434C146.32 108.86 146.277 108.26 146.358 107.67C146.439 107.081 146.641 106.516 146.952 106.01C147.542 105.048 148.489 104.358 149.588 104.091C150.687 103.823 151.85 103.998 152.826 104.579L170.459 117.263C172.061 118.659 172.478 120.102 171.273 121.503L171.267 121.51Z" fill="#F8AD07"/>
<path d="M189.413 119.951L188.415 122.645L168.396 123.145L168.378 123.145C167.948 123.155 167.526 123.025 167.175 122.773C166.825 122.521 166.565 122.163 166.437 121.751C165.707 119.424 166.802 117.429 169.175 116.893L169.416 116.837C169.694 116.775 169.982 116.772 170.262 116.826L189.413 119.951Z" fill="#F8AD07"/>
<path d="M153.181 105.082L142.242 94.2224L131.339 102.75L122.139 114.607C121.332 115.649 120.935 116.952 121.025 118.271C121.114 119.59 121.683 120.834 122.624 121.769L127.034 126.145C128.029 127.133 129.366 127.701 130.766 127.73C132.165 127.76 133.518 127.247 134.542 126.301L144.453 119.289C146.057 118.152 147.357 116.641 148.243 114.887L153.181 105.082Z" fill="#F8AD07"/>
<path d="M134.67 126.173C134.67 126.173 137.141 123.013 135.591 121.471L127.573 113.511C125.931 111.876 122.356 114.392 122.356 114.392L110.347 120.795L116.936 127.336L123.032 127.337L123.069 133.428L128.809 139.125L134.67 126.173Z" fill="#F8AD07"/>
<path d="M117.442 108.892C117.049 108.041 116.963 107.082 117.199 106.178C117.436 105.275 117.98 104.484 118.739 103.941L136.085 93.2768C136.569 92.9318 137.12 92.6911 137.704 92.57C138.287 92.4488 138.89 92.4498 139.475 92.5729C140.059 92.696 140.612 92.9385 141.1 93.2852C141.587 93.6318 141.998 94.0751 142.306 94.5871C142.895 95.5611 143.077 96.7252 142.813 97.8272C142.549 98.9291 141.86 99.88 140.896 100.474L121.584 110.161C119.614 110.927 118.142 110.622 117.448 108.899L117.442 108.892Z" fill="#F8AD07"/>
<path d="M122.463 128.482L119.682 127.722L117.248 108.281C117.21 107.981 117.197 107.679 117.209 107.377C117.22 107.172 117.272 106.971 117.362 106.786C117.452 106.602 117.579 106.437 117.734 106.303L120.167 104.173C120.358 104.006 120.588 103.889 120.836 103.832C121.084 103.775 121.342 103.779 121.589 103.846C121.835 103.912 122.061 104.038 122.248 104.213C122.435 104.387 122.576 104.604 122.659 104.845L123.487 109.144C123.559 109.352 123.586 109.572 123.567 109.791L122.464 128.481L122.463 128.482Z" fill="#F8AD07"/>
<path d="M149.871 101.798L154.921 95.816L152.144 93.0579L146.184 98.1383L149.871 101.798Z" fill="#F3A687"/>
<path d="M158.627 95.8155L154.142 91.3603C153.737 90.959 153.19 90.7335 152.621 90.7335C152.052 90.7335 151.508 90.959 151.107 91.3603L150.506 91.9671L150.554 91.9079L148.868 93.6108C148.489 93.9941 148.278 94.5125 148.28 95.053C148.283 95.5935 148.5 96.1123 148.883 96.4964L151.251 98.8498C151.833 99.4268 152.619 99.7506 153.437 99.75C154.255 99.7494 155.037 99.4245 155.611 98.8468L158.627 95.8155Z" fill="#F3A687"/>
<path d="M158.601 87.9153C158.08 87.3964 157.462 86.9845 156.783 86.7032C156.104 86.4219 155.378 86.2768 154.644 86.276C153.911 86.2753 153.185 86.419 152.509 86.6989C151.833 86.9789 151.22 87.3895 150.705 87.9074L150.456 88.1576L144.317 96.2932L145.475 104.802L150.31 102.253L153.563 99.7618C152.993 99.7869 152.427 99.6528 151.928 99.3746L150.841 100.667L148.629 98.4201L153.369 91.0759L158.396 96.0624L158.643 95.8139C159.161 95.2966 159.571 94.6816 159.85 94.0041C160.128 93.3266 160.27 92.5999 160.266 91.866C160.262 91.132 160.113 90.4051 159.827 89.7272C159.541 89.0492 159.124 88.4334 158.601 87.9153ZM158.393 96.037L158.385 96.0474L158.393 96.037Z" fill="#870B58"/>
<path d="M129.887 133.134L128.556 133.316L127.621 132.881L124.223 132.502L124.314 131.686L127.631 132.056L128.72 131.847L129.978 132.318L129.887 133.134Z" fill="#C8CDD9"/>
<path d="M119.049 130.272C118.612 130.223 118.207 130.55 118.158 130.991L118.065 131.823C118.016 132.264 118.339 132.672 118.776 132.721L122.481 133.134C122.53 133.139 122.587 133.137 122.638 133.127L122.906 130.727C122.859 130.705 122.812 130.683 122.755 130.685L119.049 130.272Z" fill="#F8AD07"/>
<path d="M123.742 133.217L124.199 133.16C124.414 133.135 124.58 132.972 124.597 132.75L124.733 131.526C124.757 131.314 124.633 131.102 124.435 131.038L124.002 130.882C123.939 130.859 123.858 130.85 123.792 130.859L123.531 133.193C123.594 133.217 123.668 133.217 123.742 133.217Z" fill="#7783A0"/>
<path d="M122.829 133.032L123.126 132.793L123.308 131.16L123.071 130.861C123.028 130.807 122.97 130.739 122.907 130.716L122.638 133.127C122.713 133.11 122.775 133.076 122.829 133.032Z" fill="#F8AD07"/>
<path d="M123.308 131.16L123.126 132.793L123.327 133.046C123.377 133.11 123.452 133.168 123.532 133.193L123.792 130.859C123.709 130.866 123.623 130.906 123.56 130.957L123.308 131.16Z" fill="#F8AD07"/>
<path d="M119.682 127.721L119.593 128.742C119.567 129.054 119.615 129.369 119.732 129.66C119.849 129.952 120.032 130.213 120.267 130.422C120.361 130.521 120.429 130.642 120.465 130.773C120.502 130.904 120.506 131.042 120.476 131.175L119.872 133.827C119.87 133.859 119.878 133.89 119.893 133.918C119.909 133.946 119.931 133.97 119.959 133.986C119.987 134.002 120.018 134.01 120.05 134.009C120.082 134.009 120.113 133.999 120.14 133.982L121.761 132.424C122.008 132.171 122.202 131.87 122.332 131.541C122.461 131.211 122.522 130.858 122.513 130.503L122.471 128.477L122.166 127.986C122.039 127.783 121.868 127.611 121.665 127.482C121.461 127.354 121.232 127.274 120.994 127.247C120.756 127.22 120.515 127.248 120.29 127.327C120.064 127.407 119.86 127.537 119.693 127.707L119.682 127.721Z" fill="#F3A687"/>
</svg>
