<svg width="340" height="204" viewBox="0 0 340 204" fill="none" xmlns="http://www.w3.org/2000/svg">
<rect width="340" height="204" fill="#F8F9FB"/>
<path d="M234.124 52.1548L240.885 197.858L104.5 195L202.644 43.7282L234.124 52.1548Z" fill="#FDEAC1"/>
<path d="M222.078 0H220.501V34.5416H222.078V0Z" fill="#870B58"/>
<path d="M234.125 52.1548C235.819 43.7914 230.705 35.4559 222.327 33.2133C213.949 30.9707 205.354 35.6366 202.644 43.7282L234.125 52.1548Z" fill="#870B58"/>
<rect y="188" width="340" height="16" fill="#F8BFCD"/>
<rect x="271" y="165.723" width="32" height="2.03678" fill="#7F8594"/>
<rect x="272.153" y="163.783" width="2.79493" height="12.6941" fill="#C8CDD9"/>
<path d="M284.755 177.093C284.258 177.585 284.258 178.381 284.755 178.874C285.252 179.366 286.055 179.366 286.552 178.874C287.049 178.381 287.049 177.585 286.552 177.093C286.055 176.6 285.252 176.6 284.755 177.093ZM286.383 177.868C286.235 177.952 286.192 178.119 286.277 178.266C286.288 178.277 286.298 178.308 286.309 178.318C286.15 178.308 286.002 178.413 285.981 178.58C285.981 178.601 285.981 178.622 285.981 178.643C285.854 178.538 285.674 178.549 285.558 178.664C285.548 178.675 285.526 178.696 285.526 178.717C285.495 178.559 285.336 178.465 285.178 178.497C285.167 178.486 285.157 178.497 285.125 178.507C285.188 178.36 285.125 178.193 284.977 178.13C284.956 178.109 284.935 178.109 284.924 178.098C285.072 178.015 285.114 177.847 285.03 177.7C285.019 177.69 285.009 177.658 284.998 177.648C285.157 177.658 285.305 177.554 285.326 177.386C285.326 177.365 285.326 177.344 285.326 177.323C285.452 177.428 285.632 177.417 285.748 177.302C285.759 177.292 285.78 177.271 285.78 177.25C285.812 177.407 285.97 177.501 286.129 177.47C286.15 177.47 286.161 177.459 286.192 177.449C286.129 177.595 286.192 177.763 286.34 177.826C286.351 177.857 286.372 177.857 286.383 177.868Z" fill="#303642"/>
<path d="M287.366 164.97L286.806 167.181C286.467 167.349 286.076 167.38 285.717 167.275C285.347 167.202 285.019 167.003 284.797 166.699L285.336 164.467C284.396 164.792 283.677 165.547 283.423 166.489C283.085 167.873 284.755 168.753 284.755 169.214L284.755 176.338C284.755 176.38 284.723 176.433 284.692 176.464C284.406 176.642 284.195 176.894 284.047 177.187C283.73 177.857 283.846 178.643 284.353 179.188C285.03 179.921 286.161 179.953 286.89 179.272C286.911 179.251 286.932 179.23 286.953 179.209C287.461 178.664 287.577 177.878 287.26 177.208C287.123 176.904 286.901 176.663 286.615 176.485C286.573 176.464 286.541 176.412 286.552 176.359L286.552 169.214C286.562 169.098 286.647 168.994 286.753 168.952C287.154 168.805 287.926 168.396 288.116 167.642C288.317 166.668 288.032 165.672 287.366 164.97ZM286.446 178.769C286.013 179.199 285.294 179.199 284.861 178.769C284.427 178.339 284.427 177.627 284.861 177.197C285.294 176.768 286.013 176.768 286.446 177.197C286.88 177.627 286.88 178.339 286.446 178.769Z" fill="#F8AD07"/>
<path d="M282.128 161.644L282.647 163.703L282.128 165.248V170.655L280.829 170.655V165.377L280.309 163.703L280.829 161.644L282.128 161.644Z" fill="#C8CDD9"/>
<path d="M279.53 179.177C279.53 179.872 280.114 180.451 280.816 180.451L282.14 180.451C282.842 180.451 283.426 179.872 283.426 179.177L283.426 173.281C283.426 173.204 283.413 173.113 283.387 173.036L279.569 173.036C279.543 173.113 279.517 173.191 279.53 173.281L279.53 179.177Z" fill="#F8AD07"/>
<path d="M283.335 171.286L283.166 170.578C283.088 170.243 282.803 170.011 282.452 170.024L280.504 170.024C280.166 170.024 279.855 170.256 279.79 170.578L279.621 171.286C279.595 171.389 279.595 171.517 279.621 171.62L283.335 171.62C283.361 171.517 283.348 171.401 283.335 171.286Z" fill="#7783A0"/>
<path d="M283.205 172.753L282.777 172.328L280.179 172.328L279.751 172.753C279.673 172.83 279.577 172.933 279.551 173.036L283.387 173.036C283.348 172.92 283.283 172.83 283.205 172.753Z" fill="#F8AD07"/>
<path d="M280.179 172.328L282.776 172.328L283.14 171.968C283.231 171.878 283.309 171.749 283.335 171.62L279.621 171.62C279.647 171.749 279.725 171.878 279.816 171.968L280.179 172.328Z" fill="#F8AD07"/>
<path d="M288.67 170.362L290.43 170.362L290.417 181.382L288.67 181.37V170.362Z" fill="#F8AD07"/>
<path d="M290.417 182.832H288.657L288.657 184.405C288.657 184.601 288.806 184.749 289.004 184.749L290.045 184.749C290.244 184.749 290.392 184.601 290.392 184.405L290.417 182.832Z" fill="#F17F9C"/>
<path d="M290.415 183.081V181.135H288.662V183.081H290.415Z" fill="#C8CDD9"/>
<path d="M288.992 170.583L289.19 170.362L289.488 170.607C289.512 170.632 289.562 170.632 289.587 170.607L289.884 170.362L290.082 170.583C290.12 170.62 290.169 170.62 290.206 170.583L290.405 170.362L289.946 168.457C289.934 168.371 289.141 168.371 289.116 168.47L288.657 170.374L288.855 170.595C288.905 170.62 288.955 170.62 288.992 170.583Z" fill="#FDEAC1"/>
<path d="M289.959 168.47L289.624 167.106C289.612 167.069 289.574 167.032 289.512 167.045C289.475 167.057 289.45 167.081 289.45 167.106L289.116 168.47L289.959 168.47Z" fill="#242831"/>
<path d="M290.421 181.552V181.378H288.668V181.552H290.421Z" fill="#929BB3"/>
<path d="M290.412 181.851V181.677H288.659V181.851H290.412Z" fill="#929BB3"/>
<path d="M290.421 182.535V182.361H288.668V182.535H290.421Z" fill="#929BB3"/>
<path d="M290.412 182.833V182.66H288.659V182.833H290.412Z" fill="#929BB3"/>
<rect x="298.769" y="163.783" width="2.79493" height="12.6941" fill="#C8CDD9"/>
<rect x="271.288" y="175.906" width="31.1351" height="13.0936" fill="#7F8594"/>
<rect x="292.411" y="168.129" width="2.70359" height="7.84508" fill="#F8AD07"/>
<rect x="292.073" y="168.129" width="0.33795" height="7.84508" fill="#E3E6EF"/>
<path d="M102.971 39.3579V25H88.694V39.3579H102.971Z" fill="#E1C2D5"/>
<path d="M102.971 56.571V42.2131H88.694V56.571H102.971Z" fill="#E1C2D5"/>
<path d="M102.971 73.787V59.4291H88.694V73.787H102.971Z" fill="#E1C2D5"/>
<path d="M102.971 91V76.6421H88.694V91H102.971Z" fill="#E1C2D5"/>
<path d="M86.1252 39.3579V25H71.8485V39.3579H86.1252Z" fill="#E1C2D5"/>
<path d="M86.1223 56.5709V42.213H71.8456V56.5709H86.1223Z" fill="#E1C2D5"/>
<path d="M86.1252 73.784V59.4261H71.8485V73.784H86.1252Z" fill="#E1C2D5"/>
<path d="M86.1223 91V76.6421H71.8456V91H86.1223Z" fill="#E1C2D5"/>
<path d="M69.2795 39.3579V25H55.0028V39.3579H69.2795Z" fill="#E1C2D5"/>
<path d="M69.2769 56.5709V42.213H55.0001V56.5709H69.2769Z" fill="#E1C2D5"/>
<path d="M69.2769 73.7869V59.4291H55.0001V73.7869H69.2769Z" fill="#E1C2D5"/>
<path d="M69.2769 90.9999V76.6421H55.0001V90.9999H69.2769Z" fill="#E1C2D5"/>
<circle cx="109.127" cy="139.127" r="22.6269" transform="rotate(-180 109.127 139.127)" stroke="#303642" stroke-width="3"/>
<path d="M152.373 139.582L122.328 172.358L165.119 172.358L182.418 139.582L152.373 139.582ZM152.373 139.582L170.582 181.918M160.567 181.918L170.582 181.918M174.679 181.918L170.582 181.918" stroke="#F8AD07" stroke-width="3" stroke-linecap="round" stroke-linejoin="round"/>
<path d="M108.672 139.127L127.336 189.5L116 189.5" stroke="#F8AD07" stroke-width="3" stroke-linecap="round" stroke-linejoin="round"/>
<circle cx="175.127" cy="126.127" r="22.6269" transform="rotate(-180 175.127 126.127)" stroke="#303642" stroke-width="3"/>
<path d="M219.466 134.486C219.7 133.932 220.334 133.68 220.885 133.923C221.435 134.166 221.691 134.811 221.457 135.366C221.223 135.92 220.589 136.172 220.039 135.929C219.488 135.686 219.232 135.041 219.466 134.486ZM220.602 135.548C220.622 135.403 220.742 135.316 220.886 135.337C220.897 135.343 220.926 135.341 220.938 135.346C220.879 135.222 220.915 135.07 221.042 135C221.058 134.994 221.075 134.987 221.092 134.981C220.968 134.912 220.919 134.764 220.974 134.634C220.979 134.623 220.989 134.599 221.005 134.592C220.87 134.617 220.744 134.519 220.719 134.382C220.707 134.377 220.712 134.365 220.71 134.336C220.614 134.433 220.46 134.436 220.363 134.337C220.339 134.326 220.333 134.309 220.321 134.304C220.301 134.449 220.181 134.536 220.038 134.515C220.026 134.51 219.997 134.511 219.986 134.506C220.045 134.63 220.008 134.782 219.882 134.852C219.865 134.858 219.848 134.865 219.832 134.872C219.955 134.94 220.004 135.088 219.95 135.218C219.945 135.23 219.935 135.253 219.918 135.26C220.053 135.236 220.179 135.333 220.204 135.47C220.211 135.487 220.206 135.499 220.208 135.528C220.304 135.431 220.458 135.429 220.555 135.527C220.584 135.526 220.591 135.543 220.602 135.548Z" fill="#303642"/>
<path d="M210.644 140.415L212.226 139.266C212.252 138.941 212.152 138.617 211.954 138.362C211.778 138.088 211.515 137.888 211.202 137.806L209.597 138.944C209.555 138.086 209.927 137.271 210.597 136.769C211.591 136.06 212.824 137.123 213.191 136.977L218.865 134.724C218.899 134.711 218.93 134.669 218.945 134.634C218.996 134.348 219.129 134.099 219.316 133.888C219.749 133.421 220.411 133.266 221.007 133.501C221.807 133.812 222.192 134.71 221.882 135.511C221.872 135.535 221.862 135.558 221.852 135.582C221.58 136.162 220.992 136.503 220.356 136.461C220.071 136.447 219.808 136.345 219.575 136.172C219.545 136.144 219.493 136.136 219.455 136.161L213.764 138.42C213.676 138.465 213.619 138.566 213.619 138.664C213.631 139.033 213.551 139.781 213.011 140.173C212.299 140.642 211.415 140.727 210.644 140.415ZM221.34 135.314C221.544 134.83 221.315 134.253 220.835 134.041C220.355 133.829 219.787 134.054 219.583 134.538C219.379 135.021 219.608 135.599 220.089 135.811C220.569 136.023 221.136 135.798 221.34 135.314Z" fill="#F8AD07"/>
<path d="M200.765 127.514L206.78 135.548L207.773 134.67L201.79 126.605L200.765 127.514Z" fill="#F8AD07"/>
<path d="M201.434 135.927L200.922 137.058L207.904 139.672L208.428 138.521L201.434 135.927Z" fill="#F8AD07"/>
<path d="M211.061 135.181L210.957 129.341L209.701 129.73L209.718 135.609L211.061 135.181Z" fill="#F8AD07"/>
<path d="M214.465 76.3525L211.15 77.1368L211.65 79.548C211.731 79.8858 211.879 80.2039 212.084 80.4836C212.289 80.7632 212.548 80.9988 212.845 81.1766C213.142 81.3543 213.471 81.4705 213.813 81.5185C214.155 81.5665 214.503 81.5452 214.837 81.4559L215.558 81.3155L214.465 76.3525Z" fill="#303642"/>
<path d="M223.212 81.702C222.288 80.2865 221.67 78.6914 221.397 77.02L218.338 77.7457L219.42 82.697L223.258 81.7957L223.212 81.702Z" fill="#303642"/>
<path d="M248.499 122.295C249.282 123.246 249.857 124.352 250.187 125.542C250.517 126.731 250.596 127.977 250.417 129.198C250.238 130.42 249.806 131.59 249.149 132.633C248.492 133.676 247.625 134.568 246.603 135.252L233.401 155.268L225.434 187.047L222.77 187.422L225.027 153.325C225.166 151.628 225.294 148.385 226.19 146.513L232.82 129.845L245.766 118.959L248.499 122.295Z" fill="#303642"/>
<path d="M247.589 120.669C248.559 121.422 249.362 122.373 249.945 123.458C250.528 124.543 250.878 125.739 250.973 126.968C251.069 128.198 250.907 129.434 250.498 130.597C250.09 131.76 249.443 132.824 248.601 133.72L240.063 156.147L239.133 188.921L236.609 189.869L231.421 156.112C231.188 154.426 230.607 151.242 231.119 149.206L233.968 131.461L244.239 118L247.589 120.669Z" fill="#303642"/>
<path d="M217.943 189.95L220.443 188.979L222.84 187.363L223.13 189.599L220.699 190.769L218.14 191.179L217.943 189.95Z" fill="#870B58"/>
<path d="M232.021 190.903L234.522 189.931L236.918 188.316L237.208 190.552L234.777 191.722L232.219 192.132L232.021 190.903Z" fill="#870B58"/>
<path d="M223.061 189.646L222.77 187.41L225.434 187.047L225.922 190.067L224.003 190.372L223.061 189.646Z" fill="#870B58"/>
<path d="M237.139 190.599L236.848 188.363L239.511 188L240 191.02L238.081 191.324L237.139 190.599Z" fill="#870B58"/>
<path d="M182.977 106.305L182.02 105.809C181.719 105.654 181.461 105.427 181.269 105.148C181.077 104.869 180.956 104.546 180.918 104.208C180.921 104.056 180.875 103.907 180.787 103.784C180.699 103.661 180.573 103.57 180.428 103.525L177.716 102.509C177.607 102.468 177.582 102.271 177.806 102.268L180.138 101.779C180.509 101.687 180.894 101.677 181.268 101.75C181.642 101.823 181.995 101.978 182.303 102.202L184.639 103.89L182.977 106.305Z" fill="#F8BFCD"/>
<path d="M244.533 109.185L241.369 93.3366C241.093 91.9623 240.509 90.6697 239.66 89.5577C238.811 88.4458 237.721 87.5441 236.473 86.9216C235.224 86.2991 233.851 85.9724 232.457 85.9664C231.064 85.9604 229.688 86.2754 228.434 86.8871L217.652 92.0842C216.479 92.6408 215.438 93.4434 214.599 94.4381C213.76 95.4327 213.141 96.5965 212.785 97.8513C212.43 99.1061 212.345 100.423 212.536 101.714C212.727 103.004 213.191 104.239 213.895 105.334L231.214 131.694L250.988 122.131L244.533 109.185Z" fill="#740048"/>
<path d="M207.147 115.659C208.279 116.064 209.5 116.154 210.681 115.918C211.863 115.683 212.96 115.132 213.858 114.324L221.057 107.871L215.032 98.5894L206.991 108.614L184.537 103.865L182.902 106.439L207.147 115.659Z" fill="#740048"/>
<path d="M218.151 133.379L217.888 134.419C217.819 134.741 217.665 135.039 217.441 135.28C217.218 135.522 216.934 135.698 216.619 135.79C216.49 135.861 216.377 135.959 216.289 136.076C216.2 136.194 216.137 136.33 216.104 136.474L215.685 139.398C215.626 139.584 215.453 139.654 215.381 139.48L214.404 137.318C214.242 136.969 214.156 136.589 214.15 136.205C214.144 135.82 214.219 135.438 214.37 135.085L215.459 132.369L218.151 133.379Z" fill="#F8BFCD"/>
<path d="M213.813 84.6284L212.348 78.097L220.025 76.271L221.746 83.8559C221.82 84.2185 221.751 84.5957 221.553 84.9079C221.356 85.2202 221.045 85.4431 220.688 85.5297L216.733 86.4193C216.424 86.508 216.1 86.5314 215.782 86.488C215.464 86.4446 215.158 86.3353 214.884 86.1671C214.609 85.9989 214.373 85.7753 214.188 85.5105C214.004 85.2456 213.877 84.9453 213.813 84.6284Z" fill="#F8BFCD"/>
<path d="M222.119 89.7667L225.364 88.2217L223.119 99.716L219.536 91.066L222.119 89.7667Z" fill="white"/>
<path d="M225.387 88.409L221.898 91.9205L219.571 91.183L216.861 83.6216L220.56 82.8022L225.387 88.409Z" fill="#F8BFCD"/>
<path d="M221.176 76.3527C221.086 75.9618 220.92 75.5927 220.687 75.267C220.454 74.9413 220.159 74.6654 219.819 74.4552C219.48 74.2451 219.102 74.1049 218.708 74.0428C218.314 73.9808 217.911 73.998 217.524 74.0936L210.15 75.8494C210.255 76.3254 210.454 76.7755 210.734 77.1732C211.014 77.5709 211.371 77.9083 211.783 78.1656C212.194 78.4229 212.653 78.5949 213.131 78.6715C213.61 78.7481 214.099 78.7278 214.57 78.6118L221.397 77.0199L221.176 76.3527Z" fill="#303642"/>
<path d="M220.374 79.5832C220.22 79.6227 220.082 79.7072 219.976 79.8259C219.87 79.9447 219.801 80.0923 219.778 80.2503C219.756 80.4083 219.78 80.5695 219.848 80.7135C219.917 80.8576 220.026 80.978 220.162 81.0597C220.298 81.1413 220.456 81.1805 220.614 81.1722C220.773 81.164 220.925 81.1087 221.052 81.0133C221.179 80.918 221.276 80.7868 221.329 80.6365C221.382 80.4861 221.39 80.3232 221.351 80.1684C221.279 79.9734 221.143 79.8091 220.965 79.7027C220.787 79.5962 220.579 79.5541 220.374 79.5832Z" fill="#F8BFCD"/>
<path d="M236.415 89.8591L235.916 112.888L218.16 133.413L215.473 132.377L229.126 112.493L228.209 91.1422L236.415 89.8591Z" fill="#740048"/>
</svg>
