<svg width="40" height="40" viewBox="0 0 40 40" fill="none" xmlns="http://www.w3.org/2000/svg">
<g clip-path="url(#clip0_769_16520)">
<path d="M0 20C0 8.95431 8.95431 0 20 0C31.0457 0 40 8.95431 40 20C40 31.0457 31.0457 40 20 40C8.95431 40 0 31.0457 0 20Z" fill="#E94E0F"/>
<g clip-path="url(#clip1_769_16520)">
<path fill-rule="evenodd" clip-rule="evenodd" d="M-7 -0.00759888H46.3335V39.9957H-7V-0.00759888Z" fill="white"/>
<path d="M46.3335 34.1753L0.644468 -0.00759888H-7V5.69288L38.8668 39.9957H46.3335V34.1753Z" fill="#0099CC"/>
<path d="M19.3645 29.3594C14.0312 29.3594 14.2001 24.3328 14.2001 24.3328V16.6018H24.5379V24.3328C24.5379 24.3328 24.7157 29.3594 19.3645 29.3594Z" fill="#005BBF"/>
<path d="M19.3645 29.3594C14.0312 29.3594 14.2001 24.3328 14.2001 24.3328V16.6018H24.5379V24.3328C24.5379 24.3328 24.7157 29.3594 19.3645 29.3594V29.3594Z" stroke="black" stroke-width="0.0889271"/>
<path d="M19.32 11.7443C19.32 11.7443 18.2177 11.2105 17.1777 11.9934C17.1777 11.9934 15.3022 11.7265 15.16 13.5236C15.16 13.5948 15.1422 13.7282 15.1777 13.7727C15.2133 13.8083 15.2489 13.8794 15.2489 13.9328C15.2489 13.9862 15.2755 14.0129 15.2933 14.0307C15.2933 14.0574 15.3289 14.093 15.3377 14.1819C15.3377 14.2798 15.32 14.3243 15.4177 14.4221C15.5066 14.5111 15.5066 14.7869 15.5066 14.867C15.5066 14.947 15.56 15.1605 15.5955 15.205C15.64 15.2495 15.7111 15.3652 15.7111 15.463C15.7111 15.552 15.7466 15.8189 15.7289 15.8812C15.7111 15.9523 15.8355 16.0324 15.9422 16.068C16.0489 16.1036 17.3644 16.5306 19.2844 16.495C21.2044 16.4683 21.8978 16.3616 22.6978 16.0769C22.7399 16.063 22.776 16.0351 22.8002 15.9979C22.8245 15.9608 22.8354 15.9164 22.8311 15.8723C22.8133 15.8189 22.8311 15.641 22.8578 15.5965C22.8933 15.552 23.1244 15.1872 23.0711 15.125C23.0267 15.0538 23.0267 14.9114 23.0711 14.8581C23.1155 14.7958 23.2578 14.5289 23.2844 14.4132C23.3111 14.3065 23.32 14.173 23.3733 14.1374C23.4178 14.1019 23.4355 13.9684 23.4444 13.9417C23.4674 13.886 23.5041 13.837 23.5511 13.7994C23.5511 13.7994 23.64 13.3457 23.5867 13.1232C23.5244 12.9008 23.1867 11.94 21.8266 12.1446C21.8266 12.1446 20.8133 11.3706 19.32 11.7443Z" fill="#D81126"/>
<path d="M19.32 11.7443C19.32 11.7443 18.2177 11.2105 17.1777 11.9934C17.1777 11.9934 15.3022 11.7265 15.16 13.5236C15.16 13.5948 15.1422 13.7282 15.1777 13.7727C15.2133 13.8083 15.2489 13.8794 15.2489 13.9328C15.2489 13.9862 15.2755 14.0129 15.2933 14.0307C15.2933 14.0574 15.3289 14.093 15.3377 14.1819C15.3377 14.2798 15.32 14.3243 15.4177 14.4221C15.5066 14.5111 15.5066 14.7869 15.5066 14.867C15.5066 14.947 15.56 15.1605 15.5955 15.205C15.64 15.2495 15.7111 15.3652 15.7111 15.463C15.7111 15.552 15.7466 15.8189 15.7289 15.8812C15.7111 15.9523 15.8355 16.0324 15.9422 16.068C16.0489 16.1036 17.3644 16.5306 19.2844 16.495C21.2044 16.4683 21.8978 16.3616 22.6978 16.0769C22.7399 16.063 22.776 16.0351 22.8002 15.9979C22.8245 15.9608 22.8354 15.9164 22.8311 15.8723C22.8133 15.8189 22.8311 15.641 22.8578 15.5965C22.8933 15.552 23.1244 15.1872 23.0711 15.125C23.0267 15.0538 23.0267 14.9114 23.0711 14.8581C23.1155 14.7958 23.2578 14.5289 23.2844 14.4132C23.3111 14.3065 23.32 14.173 23.3733 14.1374C23.4178 14.1019 23.4355 13.9684 23.4444 13.9417C23.4674 13.886 23.5041 13.837 23.5511 13.7994C23.5511 13.7994 23.64 13.3457 23.5867 13.1232C23.5244 12.9008 23.1867 11.94 21.8266 12.1446C21.8266 12.1446 20.8133 11.3706 19.32 11.7443V11.7443Z" stroke="black" stroke-width="0.133391"/>
<path d="M23.0088 15.0894C18.831 13.7638 15.5955 15.0271 15.5955 15.0271C15.5955 15.0271 15.631 15.1694 15.6666 15.2139C15.7021 15.2584 15.7555 15.3652 15.7555 15.4452V15.6943C15.7555 15.7566 15.7199 16.0235 15.951 16.0146C15.951 16.0146 18.8666 14.8759 22.6533 16.0769C22.6533 16.0769 22.7599 15.9879 22.7599 15.8545C22.758 15.7301 22.7886 15.6074 22.8488 15.4986C22.8933 15.4274 23.0088 15.1961 23.0088 15.0894Z" fill="#BCAC0B"/>
<path d="M19.1334 22.0731H17.3112C17.3112 22.0731 17.1334 23.7012 18.5379 24.1994V24.3417H18.8312V24.5375C18.8312 24.5375 18.3157 25.0001 18.769 25.5339V25.694H18.8401V25.9609H18.929V26.379C18.929 26.379 18.8579 27.8914 17.3645 28.6209V28.7099H21.3379V28.6209C19.8534 27.9003 19.7823 26.379 19.7823 26.379V25.9609H19.8712V25.694H19.9423V25.5339C20.3868 25.0001 19.8712 24.5375 19.8712 24.5375V24.3417H20.1734V24.1994C21.569 23.7012 21.3912 22.0731 21.3912 22.0731H19.1334Z" fill="#C8B100" fill-opacity="0.9"/>
<path d="M19.1334 22.0731H17.3112C17.3112 22.0731 17.1334 23.7012 18.5379 24.1994V24.3417H18.8312V24.5375C18.8312 24.5375 18.3157 25.0001 18.769 25.5339V25.694H18.8401V25.9609H18.929V26.379C18.929 26.379 18.8579 27.8914 17.3645 28.6209V28.7099H21.3379V28.6209C19.8534 27.9003 19.7823 26.379 19.7823 26.379V25.9609H19.8712V25.694H19.9423V25.5339C20.3868 25.0001 19.8712 24.5375 19.8712 24.5375V24.3417H20.1734V24.1994C21.569 23.7012 21.3912 22.0731 21.3912 22.0731H19.1334Z" stroke="black" stroke-width="0.0889271"/>
<path d="M17.4355 28.5943H21.2578M18.4756 24.1727H20.2267H18.4756ZM18.5378 24.3061H20.1733H18.5378ZM18.84 24.5286H19.8622H18.84ZM18.7689 25.5517H19.9333H18.7689ZM18.8311 25.6762H19.8622H18.8311ZM18.8311 25.9253H19.8533H18.8311ZM18.2089 27.9893H20.4756H18.2089ZM17.5689 28.5142H21.1244H17.5689Z" stroke="black" stroke-width="0.0266781"/>
<path d="M19.3645 21.9842C19.6722 21.9842 19.9672 21.8618 20.1848 21.6441C20.4023 21.4264 20.5245 21.1311 20.5245 20.8232C20.5245 20.5152 20.4023 20.2199 20.1848 20.0022C19.9672 19.7845 19.6722 19.6622 19.3645 19.6622C19.0581 19.6622 18.7641 19.784 18.5474 20.0009C18.3307 20.2178 18.209 20.512 18.209 20.8187C18.209 21.1255 18.3307 21.4196 18.5474 21.6365C18.7641 21.8534 19.0581 21.9753 19.3645 21.9753" fill="#CCCCCC"/>
<path d="M19.3645 21.9842C19.6722 21.9842 19.9672 21.8618 20.1848 21.6441C20.4023 21.4264 20.5245 21.1311 20.5245 20.8232C20.5245 20.5152 20.4023 20.2199 20.1848 20.0022C19.9672 19.7845 19.6722 19.6622 19.3645 19.6622C19.0581 19.6622 18.7641 19.784 18.5474 20.0009C18.3307 20.2178 18.209 20.512 18.209 20.8187C18.209 21.1255 18.3307 21.4196 18.5474 21.6365C18.7641 21.8534 19.0581 21.9753 19.3645 21.9753V21.9842Z" stroke="black" stroke-width="0.0889271"/>
<path d="M16.6712 18.5768H15.9512V17.8473H15.3112V18.5768H14.5823V19.2174H15.3112V19.9291H15.9512V19.2174H16.6623V18.5768" fill="#CCCCCC"/>
<path d="M16.6712 18.5768H15.9512V17.8473H15.3112V18.5768H14.5823V19.2174H15.3112V19.9291H15.9512V19.2174H16.6623V18.5768" stroke="black" stroke-width="0.0889271"/>
<path d="M24.1822 18.5768H23.4622V17.8473H22.8222V18.5768H22.0933V19.2174H22.8222V19.9291H23.4622V19.2174H24.1822V18.5768Z" fill="#CCCCCC"/>
<path d="M24.1822 18.5768H23.4622V17.8473H22.8222V18.5768H22.0933V19.2174H22.8222V19.9291H23.4622V19.2174H24.1822V18.5768Z" stroke="black" stroke-width="0.0889271"/>
<path d="M20.3779 17.6605H19.649V16.9488H19.009V17.6605H18.2979V18.301H19.009V19.0305H19.649V18.301H20.3779V17.6605Z" fill="#CCCCCC"/>
<path d="M20.3779 17.6605H19.649V16.9488H19.009V17.6605H18.2979V18.301H19.009V19.0305H19.649V18.301H20.3779V17.6605Z" stroke="black" stroke-width="0.0889271"/>
<path d="M16.6712 21.7084H15.9512V20.9789H15.3112V21.7084H14.5823V22.3489H15.3112V23.0606H15.9512V22.3489H16.6623V21.7084" fill="#CCCCCC"/>
<path d="M16.6712 21.7084H15.9512V20.9789H15.3112V21.7084H14.5823V22.3489H15.3112V23.0606H15.9512V22.3489H16.6623V21.7084" stroke="black" stroke-width="0.0889271"/>
<path d="M24.1822 21.7084H23.4622V20.9789H22.8222V21.7084H22.0933V22.3489H22.8222V23.0606H23.4622V22.3489H24.1822V21.7084Z" fill="#CCCCCC"/>
<path d="M24.1822 21.7084H23.4622V20.9789H22.8222V21.7084H22.0933V22.3489H22.8222V23.0606H23.4622V22.3489H24.1822V21.7084Z" stroke="black" stroke-width="0.0889271"/>
<path d="M16.6712 24.8666H15.9512V24.146H15.3112V24.8666H14.5823V25.5072H15.3112V26.2278H15.9512V25.5161H16.6623V24.8666" fill="#CCCCCC"/>
<path d="M16.6712 24.8666H15.9512V24.146H15.3112V24.8666H14.5823V25.5072H15.3112V26.2278H15.9512V25.5161H16.6623V24.8666" stroke="black" stroke-width="0.0889271"/>
<path d="M24.1822 24.8666H23.4622V24.146H22.8222V24.8666H22.0933V25.5072H22.8222V26.2278H23.4622V25.5161H24.1822V24.8666Z" fill="#CCCCCC"/>
<path d="M24.1822 24.8666H23.4622V24.146H22.8222V24.8666H22.0933V25.5072H22.8222V26.2278H23.4622V25.5161H24.1822V24.8666Z" stroke="black" stroke-width="0.0889271"/>
<path d="M19.3555 10.1963C19.5406 10.1963 19.718 10.1227 19.8489 9.99176C19.9798 9.86079 20.0533 9.68316 20.0533 9.49794C20.0533 9.31271 19.9798 9.13508 19.8489 9.00411C19.718 8.87314 19.5406 8.79956 19.3555 8.79956C19.1704 8.79956 18.993 8.87314 18.8621 9.00411C18.7312 9.13508 18.6577 9.31271 18.6577 9.49794C18.6577 9.68316 18.7312 9.86079 18.8621 9.99176C18.993 10.1227 19.1704 10.1963 19.3555 10.1963Z" fill="#005BBF"/>
<path d="M19.3555 10.1963C19.5406 10.1963 19.718 10.1227 19.8489 9.99176C19.9798 9.86079 20.0533 9.68316 20.0533 9.49794C20.0533 9.31271 19.9798 9.13508 19.8489 9.00411C19.718 8.87314 19.5406 8.79956 19.3555 8.79956C19.1704 8.79956 18.993 8.87314 18.8621 9.00411C18.7312 9.13508 18.6577 9.31271 18.6577 9.49794C18.6577 9.68316 18.7312 9.86079 18.8621 9.99176C18.993 10.1227 19.1704 10.1963 19.3555 10.1963Z" stroke="black" stroke-width="0.0889271"/>
<path d="M20.0045 9.37783H19.4356V8.45259H19.6578V8.27466H19.4356V8.05225H19.2578V8.26576H19.0356V8.45259H19.2489V9.37783H18.7156V9.50238H20.0045V9.37783Z" fill="#FFCC00"/>
<path d="M20.0045 9.37783H19.4356V8.45259H19.6578V8.27466H19.4356V8.05225H19.2578V8.26576H19.0356V8.45259H19.2489V9.37783H18.7156V9.50238H20.0045V9.37783Z" fill="#BCAC0B" stroke="black" stroke-width="0.0444635"/>
<path d="M16.5733 11.0237C16.5733 11.0237 17.0888 10.9703 17.3821 11.0859C17.3821 11.0859 17.0444 11.4774 17.1155 11.9845C17.151 12.2514 17.2044 12.3848 17.2844 12.5183C17.3555 12.6339 17.4355 12.9008 17.391 13.1055H17.4888C17.4888 13.1055 17.5866 12.6784 17.4266 12.4471C17.3297 12.317 17.2702 12.1629 17.2545 12.0013C17.2388 11.8398 17.2676 11.6771 17.3377 11.5308C17.5066 11.1927 17.7466 11.0593 17.7466 11.0593C18.0133 11.166 18.5999 11.0593 18.7599 10.9436C18.9288 10.8279 19.0088 10.6589 18.7066 10.65C18.3955 10.6322 17.8799 10.6411 17.5244 10.908C17.5244 10.908 17.3377 10.6945 16.4044 10.7924C15.471 10.8991 14.8044 11.2995 14.591 12.1357C14.4844 12.5628 14.8844 13.4613 15.2488 13.6748C15.2488 13.6748 15.2399 13.5325 15.2755 13.4257C15.2755 13.4257 14.6532 12.7229 14.831 12.0735C15.0266 11.4329 15.7732 11.0059 16.5733 11.0237Z" fill="#FFCC00"/>
<path d="M16.5733 11.0237C16.5733 11.0237 17.0888 10.9703 17.3821 11.0859C17.3821 11.0859 17.0444 11.4774 17.1155 11.9845C17.151 12.2514 17.2044 12.3848 17.2844 12.5183C17.3555 12.6339 17.4355 12.9008 17.391 13.1055H17.4888C17.4888 13.1055 17.5866 12.6784 17.4266 12.4471C17.3297 12.317 17.2702 12.1629 17.2545 12.0013C17.2388 11.8398 17.2676 11.6771 17.3377 11.5308C17.5066 11.1927 17.7466 11.0593 17.7466 11.0593C18.0133 11.166 18.5999 11.0593 18.7599 10.9436C18.9288 10.8279 19.0088 10.6589 18.7066 10.65C18.3955 10.6322 17.8799 10.6411 17.5244 10.908C17.5244 10.908 17.3377 10.6945 16.4044 10.7924C15.471 10.8991 14.8044 11.2995 14.591 12.1357C14.4844 12.5628 14.8844 13.4613 15.2488 13.6748C15.2488 13.6748 15.2399 13.5325 15.2755 13.4257C15.2755 13.4257 14.6532 12.7229 14.831 12.0735C15.0266 11.4329 15.7732 11.0059 16.5733 11.0237Z" fill="#BCAC0B" stroke="black" stroke-width="0.062249"/>
<path d="M18.3246 10.8991C18.4846 10.8813 18.6179 10.8546 18.609 10.8368C18.609 10.8101 18.4757 10.8101 18.3157 10.819C18.1557 10.8279 18.0312 10.8635 18.0312 10.8813C18.0312 10.908 18.1646 10.908 18.3246 10.8991Z" fill="white"/>
<path d="M17.7377 11.0504C17.7377 11.0504 17.5599 11.2283 17.7377 11.0504C17.9155 10.8724 18.3066 10.7657 18.5288 10.8102C18.7422 10.8635 18.4844 10.8902 18.4133 10.8991C18.3422 10.8991 18.1999 10.9258 17.9866 10.8991" stroke="black" stroke-width="0.062249"/>
<path d="M22.129 11.0859C22.129 11.0859 21.6223 11.0237 21.3201 11.1393C21.4748 11.3402 21.5674 11.5821 21.5863 11.8351C21.6053 12.088 21.5498 12.341 21.4268 12.5628C21.3468 12.6962 21.2668 12.9542 21.3112 13.1588H21.2223C21.2223 13.1588 21.1157 12.7407 21.2846 12.5005C21.3784 12.3705 21.4353 12.2175 21.4494 12.0578C21.4635 11.8981 21.4342 11.7375 21.3646 11.593C21.2795 11.3982 21.1407 11.2316 20.9646 11.1126C20.689 11.2283 20.1023 11.1126 19.9423 10.997C19.7823 10.8813 19.6934 10.7212 20.0045 10.7034C20.3068 10.6856 20.8312 10.6945 21.1868 10.9703C21.1868 10.9703 21.3646 10.7479 22.3068 10.8546C23.2312 10.9525 23.9068 11.3528 24.1112 12.1891C24.2179 12.6161 23.8268 13.5147 23.4623 13.7282C23.4623 13.7282 23.4623 13.5859 23.4357 13.4791C23.4357 13.4791 24.0579 12.7852 23.8712 12.1357C23.6846 11.4863 22.9379 11.0682 22.129 11.0859Z" fill="#FFCC00"/>
<path d="M22.129 11.0859C22.129 11.0859 21.6223 11.0237 21.3201 11.1393C21.4748 11.3402 21.5674 11.5821 21.5863 11.8351C21.6053 12.088 21.5498 12.341 21.4268 12.5628C21.3468 12.6962 21.2668 12.9542 21.3112 13.1588H21.2223C21.2223 13.1588 21.1157 12.7407 21.2846 12.5005C21.3784 12.3705 21.4353 12.2175 21.4494 12.0578C21.4635 11.8981 21.4342 11.7375 21.3646 11.593C21.2795 11.3982 21.1407 11.2316 20.9646 11.1126C20.689 11.2283 20.1023 11.1126 19.9423 10.997C19.7823 10.8813 19.6934 10.7212 20.0045 10.7034C20.3068 10.6856 20.8312 10.6945 21.1868 10.9703C21.1868 10.9703 21.3646 10.7479 22.3068 10.8546C23.2312 10.9525 23.9068 11.3528 24.1112 12.1891C24.2179 12.6161 23.8268 13.5147 23.4623 13.7282C23.4623 13.7282 23.4623 13.5859 23.4357 13.4791C23.4357 13.4791 24.0579 12.7852 23.8712 12.1357C23.6846 11.4863 22.9379 11.0682 22.129 11.0859Z" fill="#BCAC0B" stroke="black" stroke-width="0.062249"/>
<path d="M20.3777 10.9525C20.2177 10.9436 20.0933 10.9169 20.0933 10.8902C20.0933 10.8724 20.2266 10.8636 20.3866 10.8724C20.5466 10.8902 20.6799 10.9169 20.6799 10.9347C20.6799 10.9614 20.5466 10.9703 20.3777 10.9525Z" fill="white"/>
<path d="M20.9645 11.1038C20.9645 11.1038 21.1511 11.2817 20.9645 11.1038C20.7867 10.9347 20.3956 10.8191 20.1822 10.8725C19.96 10.9169 20.2178 10.9436 20.2889 10.9525C20.3689 10.9525 20.5111 10.9881 20.7245 10.9525" stroke="black" stroke-width="0.062249"/>
<path d="M18.8756 10.5077V12.4916C18.8579 12.6873 19.1156 12.9631 19.3023 13.0432C19.3023 13.0432 19.7467 12.9008 19.7734 12.4916V10.4009H19.6223V12.2158C19.6223 12.3937 19.4979 12.7318 19.329 12.7852C19.329 12.7852 19.009 12.7318 18.9912 12.2158V10.4543L18.8756 10.5077Z" fill="#FFCC00"/>
<path d="M18.8756 10.5077V12.4916C18.8579 12.6873 19.1156 12.9631 19.3023 13.0432C19.3023 13.0432 19.7467 12.9008 19.7734 12.4916V10.4009H19.6223V12.2158C19.6223 12.3937 19.4979 12.7318 19.329 12.7852C19.329 12.7852 19.009 12.7318 18.9912 12.2158V10.4543L18.8756 10.5077Z" fill="#BCAC0B" stroke="black" stroke-width="0.062249"/>
<path d="M14.4933 13.2211C14.5281 13.2279 14.5639 13.2269 14.5983 13.2182C14.6326 13.2095 14.6646 13.1933 14.6919 13.1708C14.7192 13.1482 14.7413 13.1199 14.7564 13.0879C14.7715 13.0558 14.7793 13.0208 14.7793 12.9854C14.7793 12.9499 14.7715 12.9149 14.7564 12.8828C14.7413 12.8508 14.7192 12.8225 14.6919 12.7999C14.6646 12.7774 14.6326 12.7612 14.5983 12.7525C14.5639 12.7438 14.5281 12.7428 14.4933 12.7496C14.4387 12.7603 14.3895 12.7896 14.3541 12.8326C14.3187 12.8756 14.2993 12.9296 14.2993 12.9854C14.2993 13.0411 14.3187 13.0951 14.3541 13.1381C14.3895 13.1811 14.4387 13.2104 14.4933 13.2211Z" fill="white"/>
<path d="M14.4933 13.2211C14.5281 13.2279 14.5639 13.2269 14.5983 13.2182C14.6326 13.2095 14.6646 13.1933 14.6919 13.1708C14.7192 13.1482 14.7413 13.1199 14.7564 13.0879C14.7715 13.0558 14.7793 13.0208 14.7793 12.9854C14.7793 12.9499 14.7715 12.9149 14.7564 12.8828C14.7413 12.8508 14.7192 12.8225 14.6919 12.7999C14.6646 12.7774 14.6326 12.7612 14.5983 12.7525C14.5639 12.7438 14.5281 12.7428 14.4933 12.7496C14.4387 12.7603 14.3895 12.7896 14.3541 12.8326C14.3187 12.8756 14.2993 12.9296 14.2993 12.9854C14.2993 13.0411 14.3187 13.0951 14.3541 13.1381C14.3895 13.1811 14.4387 13.2104 14.4933 13.2211Z" stroke="black" stroke-width="0.0889271"/>
<path d="M14.3422 12.6784C14.377 12.6852 14.4128 12.6842 14.4471 12.6755C14.4815 12.6668 14.5134 12.6506 14.5408 12.6281C14.5681 12.6055 14.5901 12.5772 14.6052 12.5452C14.6204 12.5131 14.6282 12.4781 14.6282 12.4427C14.6282 12.4072 14.6204 12.3722 14.6052 12.3402C14.5901 12.3081 14.5681 12.2798 14.5408 12.2573C14.5134 12.2347 14.4815 12.2185 14.4471 12.2098C14.4128 12.2011 14.377 12.2001 14.3422 12.2069C14.2876 12.2176 14.2383 12.2469 14.2029 12.2899C14.1675 12.333 14.1482 12.3869 14.1482 12.4427C14.1482 12.4984 14.1675 12.5524 14.2029 12.5954C14.2383 12.6384 14.2876 12.6677 14.3422 12.6784Z" fill="white"/>
<path d="M14.3422 12.6784C14.377 12.6852 14.4128 12.6842 14.4471 12.6755C14.4815 12.6668 14.5134 12.6506 14.5408 12.6281C14.5681 12.6055 14.5901 12.5772 14.6052 12.5452C14.6204 12.5131 14.6282 12.4781 14.6282 12.4427C14.6282 12.4072 14.6204 12.3722 14.6052 12.3402C14.5901 12.3081 14.5681 12.2798 14.5408 12.2573C14.5134 12.2347 14.4815 12.2185 14.4471 12.2098C14.4128 12.2011 14.377 12.2001 14.3422 12.2069C14.2876 12.2176 14.2383 12.2469 14.2029 12.2899C14.1675 12.333 14.1482 12.3869 14.1482 12.4427C14.1482 12.4984 14.1675 12.5524 14.2029 12.5954C14.2383 12.6384 14.2876 12.6677 14.3422 12.6784Z" stroke="black" stroke-width="0.0889271"/>
<path d="M14.4223 12.0201C14.4571 12.0269 14.4929 12.0259 14.5272 12.0172C14.5615 12.0085 14.5935 11.9923 14.6209 11.9697C14.6482 11.9472 14.6702 11.9189 14.6853 11.8868C14.7004 11.8548 14.7083 11.8198 14.7083 11.7843C14.7083 11.7489 14.7004 11.7139 14.6853 11.6818C14.6702 11.6498 14.6482 11.6215 14.6209 11.5989C14.5935 11.5764 14.5615 11.5602 14.5272 11.5515C14.4929 11.5428 14.4571 11.5418 14.4223 11.5486C14.3677 11.5593 14.3184 11.5886 14.283 11.6316C14.2476 11.6746 14.2283 11.7286 14.2283 11.7843C14.2283 11.8401 14.2476 11.894 14.283 11.9371C14.3184 11.9801 14.3677 12.0094 14.4223 12.0201Z" fill="white"/>
<path d="M14.4223 12.0201C14.4571 12.0269 14.4929 12.0259 14.5272 12.0172C14.5615 12.0085 14.5935 11.9923 14.6209 11.9697C14.6482 11.9472 14.6702 11.9189 14.6853 11.8868C14.7004 11.8548 14.7083 11.8198 14.7083 11.7843C14.7083 11.7489 14.7004 11.7139 14.6853 11.6818C14.6702 11.6498 14.6482 11.6215 14.6209 11.5989C14.5935 11.5764 14.5615 11.5602 14.5272 11.5515C14.4929 11.5428 14.4571 11.5418 14.4223 11.5486C14.3677 11.5593 14.3184 11.5886 14.283 11.6316C14.2476 11.6746 14.2283 11.7286 14.2283 11.7843C14.2283 11.8401 14.2476 11.894 14.283 11.9371C14.3184 11.9801 14.3677 12.0094 14.4223 12.0201Z" stroke="black" stroke-width="0.0889271"/>
<path d="M14.7868 11.4685C14.8216 11.4753 14.8574 11.4743 14.8917 11.4656C14.926 11.4569 14.958 11.4407 14.9854 11.4182C15.0127 11.3956 15.0347 11.3673 15.0498 11.3353C15.0649 11.3032 15.0728 11.2682 15.0728 11.2328C15.0728 11.1973 15.0649 11.1623 15.0498 11.1303C15.0347 11.0982 15.0127 11.0699 14.9854 11.0474C14.958 11.0248 14.926 11.0086 14.8917 10.9999C14.8574 10.9912 14.8216 10.9902 14.7868 10.997C14.7322 11.0077 14.6829 11.037 14.6475 11.08C14.6121 11.123 14.5928 11.177 14.5928 11.2328C14.5928 11.2885 14.6121 11.3425 14.6475 11.3855C14.6829 11.4285 14.7322 11.4578 14.7868 11.4685Z" fill="white"/>
<path d="M14.7868 11.4685C14.8216 11.4753 14.8574 11.4743 14.8917 11.4656C14.926 11.4569 14.958 11.4407 14.9854 11.4182C15.0127 11.3956 15.0347 11.3673 15.0498 11.3353C15.0649 11.3032 15.0728 11.2682 15.0728 11.2328C15.0728 11.1973 15.0649 11.1623 15.0498 11.1303C15.0347 11.0982 15.0127 11.0699 14.9854 11.0474C14.958 11.0248 14.926 11.0086 14.8917 10.9999C14.8574 10.9912 14.8216 10.9902 14.7868 10.997C14.7322 11.0077 14.6829 11.037 14.6475 11.08C14.6121 11.123 14.5928 11.177 14.5928 11.2328C14.5928 11.2885 14.6121 11.3425 14.6475 11.3855C14.6829 11.4285 14.7322 11.4578 14.7868 11.4685Z" stroke="black" stroke-width="0.0889271"/>
<path d="M15.2223 11.0682C15.2571 11.0749 15.2929 11.074 15.3273 11.0652C15.3616 11.0565 15.3936 11.0403 15.4209 11.0178C15.4482 10.9953 15.4703 10.967 15.4854 10.9349C15.5005 10.9028 15.5083 10.8678 15.5083 10.8324C15.5083 10.797 15.5005 10.7619 15.4854 10.7299C15.4703 10.6978 15.4482 10.6695 15.4209 10.647C15.3936 10.6245 15.3616 10.6083 15.3273 10.5996C15.2929 10.5908 15.2571 10.5899 15.2223 10.5966C15.1677 10.6073 15.1185 10.6367 15.0831 10.6797C15.0477 10.7227 15.0283 10.7767 15.0283 10.8324C15.0283 10.8881 15.0477 10.9421 15.0831 10.9851C15.1185 11.0281 15.1677 11.0575 15.2223 11.0682Z" fill="white"/>
<path d="M15.2223 11.0682C15.2571 11.0749 15.2929 11.074 15.3273 11.0652C15.3616 11.0565 15.3936 11.0403 15.4209 11.0178C15.4482 10.9953 15.4703 10.967 15.4854 10.9349C15.5005 10.9028 15.5083 10.8678 15.5083 10.8324C15.5083 10.797 15.5005 10.7619 15.4854 10.7299C15.4703 10.6978 15.4482 10.6695 15.4209 10.647C15.3936 10.6245 15.3616 10.6083 15.3273 10.5996C15.2929 10.5908 15.2571 10.5899 15.2223 10.5966C15.1677 10.6073 15.1185 10.6367 15.0831 10.6797C15.0477 10.7227 15.0283 10.7767 15.0283 10.8324C15.0283 10.8881 15.0477 10.9421 15.0831 10.9851C15.1185 11.0281 15.1677 11.0575 15.2223 11.0682V11.0682Z" stroke="black" stroke-width="0.0889271"/>
<path d="M15.7912 10.8457C15.826 10.8525 15.8618 10.8515 15.8961 10.8428C15.9304 10.8341 15.9624 10.8179 15.9898 10.7954C16.0171 10.7729 16.0391 10.7445 16.0542 10.7125C16.0693 10.6804 16.0772 10.6454 16.0772 10.61C16.0772 10.5745 16.0693 10.5395 16.0542 10.5075C16.0391 10.4754 16.0171 10.4471 15.9898 10.4246C15.9624 10.402 15.9304 10.3858 15.8961 10.3771C15.8618 10.3684 15.826 10.3674 15.7912 10.3742C15.7366 10.3849 15.6873 10.4143 15.6519 10.4573C15.6165 10.5003 15.5972 10.5543 15.5972 10.61C15.5972 10.6657 15.6165 10.7197 15.6519 10.7627C15.6873 10.8057 15.7366 10.8351 15.7912 10.8457Z" fill="white"/>
<path d="M15.7912 10.8457C15.826 10.8525 15.8618 10.8515 15.8961 10.8428C15.9304 10.8341 15.9624 10.8179 15.9898 10.7954C16.0171 10.7729 16.0391 10.7445 16.0542 10.7125C16.0693 10.6804 16.0772 10.6454 16.0772 10.61C16.0772 10.5745 16.0693 10.5395 16.0542 10.5075C16.0391 10.4754 16.0171 10.4471 15.9898 10.4246C15.9624 10.402 15.9304 10.3858 15.8961 10.3771C15.8618 10.3684 15.826 10.3674 15.7912 10.3742C15.7366 10.3849 15.6873 10.4143 15.6519 10.4573C15.6165 10.5003 15.5972 10.5543 15.5972 10.61C15.5972 10.6657 15.6165 10.7197 15.6519 10.7627C15.6873 10.8057 15.7366 10.8351 15.7912 10.8457V10.8457Z" stroke="black" stroke-width="0.0889271"/>
<path d="M16.3779 10.7479C16.4415 10.7479 16.5026 10.7226 16.5476 10.6775C16.5926 10.6325 16.6179 10.5714 16.6179 10.5077C16.6179 10.444 16.5926 10.3829 16.5476 10.3378C16.5026 10.2928 16.4415 10.2675 16.3779 10.2675C16.3232 10.2782 16.274 10.3075 16.2386 10.3505C16.2032 10.3935 16.1838 10.4475 16.1838 10.5032C16.1838 10.559 16.2032 10.613 16.2386 10.656C16.274 10.699 16.3232 10.7283 16.3779 10.739" fill="white"/>
<path d="M16.3779 10.7479C16.4415 10.7479 16.5026 10.7226 16.5476 10.6775C16.5926 10.6325 16.6179 10.5714 16.6179 10.5077C16.6179 10.444 16.5926 10.3829 16.5476 10.3378C16.5026 10.2928 16.4415 10.2675 16.3779 10.2675C16.3232 10.2782 16.274 10.3075 16.2386 10.3505C16.2032 10.3935 16.1838 10.4475 16.1838 10.5032C16.1838 10.559 16.2032 10.613 16.2386 10.656C16.274 10.699 16.3232 10.7283 16.3779 10.739V10.7479Z" stroke="black" stroke-width="0.0889271"/>
<path d="M16.9378 10.7123C17.0014 10.7123 17.0625 10.687 17.1075 10.6419C17.1525 10.5969 17.1778 10.5358 17.1778 10.4721C17.1778 10.4084 17.1525 10.3473 17.1075 10.3022C17.0625 10.2572 17.0014 10.2319 16.9378 10.2319C16.8741 10.2319 16.8131 10.2572 16.768 10.3022C16.723 10.3473 16.6978 10.4084 16.6978 10.4721C16.6978 10.5358 16.723 10.5969 16.768 10.6419C16.8131 10.687 16.8741 10.7123 16.9378 10.7123Z" fill="white"/>
<path d="M16.9378 10.7123C17.0014 10.7123 17.0625 10.687 17.1075 10.6419C17.1525 10.5969 17.1778 10.5358 17.1778 10.4721C17.1778 10.4084 17.1525 10.3473 17.1075 10.3022C17.0625 10.2572 17.0014 10.2319 16.9378 10.2319C16.8741 10.2319 16.8131 10.2572 16.768 10.3022C16.723 10.3473 16.6978 10.4084 16.6978 10.4721C16.6978 10.5358 16.723 10.5969 16.768 10.6419C16.8131 10.687 16.8741 10.7123 16.9378 10.7123Z" stroke="black" stroke-width="0.0889271"/>
<path d="M17.4446 10.7479C17.4794 10.7547 17.5152 10.7537 17.5495 10.745C17.5838 10.7363 17.6158 10.7201 17.6432 10.6975C17.6705 10.675 17.6925 10.6467 17.7076 10.6146C17.7227 10.5826 17.7306 10.5476 17.7306 10.5121C17.7306 10.4767 17.7227 10.4417 17.7076 10.4096C17.6925 10.3776 17.6705 10.3492 17.6432 10.3267C17.6158 10.3042 17.5838 10.288 17.5495 10.2793C17.5152 10.2706 17.4794 10.2696 17.4446 10.2764C17.3809 10.2764 17.3199 10.3017 17.2749 10.3467C17.2299 10.3918 17.2046 10.4529 17.2046 10.5166C17.2046 10.5803 17.2299 10.6414 17.2749 10.6864C17.3199 10.7315 17.3809 10.7568 17.4446 10.7568" fill="white"/>
<path d="M17.4446 10.7479C17.4794 10.7547 17.5152 10.7537 17.5495 10.745C17.5838 10.7363 17.6158 10.7201 17.6432 10.6975C17.6705 10.675 17.6925 10.6467 17.7076 10.6146C17.7227 10.5826 17.7306 10.5476 17.7306 10.5121C17.7306 10.4767 17.7227 10.4417 17.7076 10.4096C17.6925 10.3776 17.6705 10.3492 17.6432 10.3267C17.6158 10.3042 17.5838 10.288 17.5495 10.2793C17.5152 10.2706 17.4794 10.2696 17.4446 10.2764C17.3809 10.2764 17.3199 10.3017 17.2749 10.3467C17.2299 10.3918 17.2046 10.4529 17.2046 10.5166C17.2046 10.5803 17.2299 10.6414 17.2749 10.6864C17.3199 10.7315 17.3809 10.7568 17.4446 10.7568V10.7479Z" stroke="black" stroke-width="0.0889271"/>
<path d="M18.8666 10.57C18.9014 10.5767 18.9372 10.5758 18.9716 10.567C19.0059 10.5583 19.0379 10.5421 19.0652 10.5196C19.0925 10.4971 19.1145 10.4688 19.1297 10.4367C19.1448 10.4046 19.1526 10.3696 19.1526 10.3342C19.1526 10.2988 19.1448 10.2637 19.1297 10.2317C19.1145 10.1996 19.0925 10.1713 19.0652 10.1488C19.0379 10.1263 19.0059 10.1101 18.9716 10.1014C18.9372 10.0926 18.9014 10.0917 18.8666 10.0984C18.812 10.1091 18.7628 10.1385 18.7274 10.1815C18.692 10.2245 18.6726 10.2785 18.6726 10.3342C18.6726 10.3899 18.692 10.4439 18.7274 10.4869C18.7628 10.5299 18.812 10.5593 18.8666 10.57Z" fill="white"/>
<path d="M18.8666 10.57C18.9014 10.5767 18.9372 10.5758 18.9716 10.567C19.0059 10.5583 19.0379 10.5421 19.0652 10.5196C19.0925 10.4971 19.1145 10.4688 19.1297 10.4367C19.1448 10.4046 19.1526 10.3696 19.1526 10.3342C19.1526 10.2988 19.1448 10.2637 19.1297 10.2317C19.1145 10.1996 19.0925 10.1713 19.0652 10.1488C19.0379 10.1263 19.0059 10.1101 18.9716 10.1014C18.9372 10.0926 18.9014 10.0917 18.8666 10.0984C18.812 10.1091 18.7628 10.1385 18.7274 10.1815C18.692 10.2245 18.6726 10.2785 18.6726 10.3342C18.6726 10.3899 18.692 10.4439 18.7274 10.4869C18.7628 10.5299 18.812 10.5593 18.8666 10.57Z" stroke="black" stroke-width="0.0889271"/>
<path d="M19.3288 10.6945C19.3636 10.7013 19.3994 10.7003 19.4337 10.6916C19.468 10.6829 19.5 10.6667 19.5274 10.6441C19.5547 10.6216 19.5767 10.5933 19.5918 10.5612C19.6069 10.5292 19.6148 10.4942 19.6148 10.4587C19.6148 10.4233 19.6069 10.3883 19.5918 10.3562C19.5767 10.3242 19.5547 10.2959 19.5274 10.2733C19.5 10.2508 19.468 10.2346 19.4337 10.2259C19.3994 10.2172 19.3636 10.2162 19.3288 10.223C19.2742 10.2337 19.2249 10.263 19.1895 10.306C19.1541 10.349 19.1348 10.403 19.1348 10.4587C19.1348 10.5145 19.1541 10.5685 19.1895 10.6115C19.2249 10.6545 19.2742 10.6838 19.3288 10.6945Z" fill="white"/>
<path d="M19.3288 10.6945C19.3636 10.7013 19.3994 10.7003 19.4337 10.6916C19.468 10.6829 19.5 10.6667 19.5274 10.6441C19.5547 10.6216 19.5767 10.5933 19.5918 10.5612C19.6069 10.5292 19.6148 10.4942 19.6148 10.4587C19.6148 10.4233 19.6069 10.3883 19.5918 10.3562C19.5767 10.3242 19.5547 10.2959 19.5274 10.2733C19.5 10.2508 19.468 10.2346 19.4337 10.2259C19.3994 10.2172 19.3636 10.2162 19.3288 10.223C19.2742 10.2337 19.2249 10.263 19.1895 10.306C19.1541 10.349 19.1348 10.403 19.1348 10.4587C19.1348 10.5145 19.1541 10.5685 19.1895 10.6115C19.2249 10.6545 19.2742 10.6838 19.3288 10.6945Z" stroke="black" stroke-width="0.0889271"/>
<path d="M19.3289 12.456C19.3925 12.456 19.4536 12.4307 19.4986 12.3856C19.5436 12.3406 19.5689 12.2795 19.5689 12.2158C19.5689 12.1521 19.5436 12.091 19.4986 12.0459C19.4536 12.0009 19.3925 11.9756 19.3289 11.9756C19.2652 11.9756 19.2042 12.0009 19.1592 12.0459C19.1142 12.091 19.0889 12.1521 19.0889 12.2158C19.0889 12.2795 19.1142 12.3406 19.1592 12.3856C19.2042 12.4307 19.2652 12.456 19.3289 12.456Z" fill="white"/>
<path d="M19.3289 12.456C19.3925 12.456 19.4536 12.4307 19.4986 12.3856C19.5436 12.3406 19.5689 12.2795 19.5689 12.2158C19.5689 12.1521 19.5436 12.091 19.4986 12.0459C19.4536 12.0009 19.3925 11.9756 19.3289 11.9756C19.2652 11.9756 19.2042 12.0009 19.1592 12.0459C19.1142 12.091 19.0889 12.1521 19.0889 12.2158C19.0889 12.2795 19.1142 12.3406 19.1592 12.3856C19.2042 12.4307 19.2652 12.456 19.3289 12.456V12.456Z" stroke="black" stroke-width="0.0889271"/>
<path d="M24.2267 13.3724C24.2615 13.3791 24.2973 13.3782 24.3317 13.3694C24.366 13.3607 24.398 13.3445 24.4253 13.322C24.4526 13.2995 24.4747 13.2712 24.4898 13.2391C24.5049 13.207 24.5127 13.172 24.5127 13.1366C24.5127 13.1012 24.5049 13.0661 24.4898 13.0341C24.4747 13.002 24.4526 12.9737 24.4253 12.9512C24.398 12.9287 24.366 12.9125 24.3317 12.9038C24.2973 12.895 24.2615 12.8941 24.2267 12.9008C24.1721 12.9115 24.1229 12.9409 24.0875 12.9839C24.0521 13.0269 24.0327 13.0809 24.0327 13.1366C24.0327 13.1923 24.0521 13.2463 24.0875 13.2893C24.1229 13.3323 24.1721 13.3617 24.2267 13.3724Z" fill="white"/>
<path d="M24.2267 13.3724C24.2615 13.3791 24.2973 13.3782 24.3317 13.3694C24.366 13.3607 24.398 13.3445 24.4253 13.322C24.4526 13.2995 24.4747 13.2712 24.4898 13.2391C24.5049 13.207 24.5127 13.172 24.5127 13.1366C24.5127 13.1012 24.5049 13.0661 24.4898 13.0341C24.4747 13.002 24.4526 12.9737 24.4253 12.9512C24.398 12.9287 24.366 12.9125 24.3317 12.9038C24.2973 12.895 24.2615 12.8941 24.2267 12.9008C24.1721 12.9115 24.1229 12.9409 24.0875 12.9839C24.0521 13.0269 24.0327 13.0809 24.0327 13.1366C24.0327 13.1923 24.0521 13.2463 24.0875 13.2893C24.1229 13.3323 24.1721 13.3617 24.2267 13.3724V13.3724Z" stroke="black" stroke-width="0.0889271"/>
<path d="M24.3513 12.7941C24.4149 12.7941 24.476 12.7688 24.521 12.7237C24.566 12.6787 24.5913 12.6176 24.5913 12.5539C24.5913 12.4902 24.566 12.4291 24.521 12.384C24.476 12.339 24.4149 12.3137 24.3513 12.3137C24.2966 12.3243 24.2474 12.3537 24.212 12.3967C24.1766 12.4397 24.1572 12.4937 24.1572 12.5494C24.1572 12.6051 24.1766 12.6591 24.212 12.7021C24.2474 12.7451 24.2966 12.7745 24.3513 12.7852" fill="white"/>
<path d="M24.3513 12.7941C24.4149 12.7941 24.476 12.7688 24.521 12.7237C24.566 12.6787 24.5913 12.6176 24.5913 12.5539C24.5913 12.4902 24.566 12.4291 24.521 12.384C24.476 12.339 24.4149 12.3137 24.3513 12.3137C24.2966 12.3243 24.2474 12.3537 24.212 12.3967C24.1766 12.4397 24.1572 12.4937 24.1572 12.5494C24.1572 12.6051 24.1766 12.6591 24.212 12.7021C24.2474 12.7451 24.2966 12.7745 24.3513 12.7852V12.7941Z" stroke="black" stroke-width="0.0889271"/>
<path d="M24.2534 12.1713C24.2881 12.1781 24.3239 12.1771 24.3583 12.1684C24.3926 12.1597 24.4246 12.1435 24.4519 12.121C24.4793 12.0985 24.5013 12.0701 24.5164 12.0381C24.5315 12.006 24.5393 11.971 24.5393 11.9356C24.5393 11.9001 24.5315 11.8651 24.5164 11.8331C24.5013 11.801 24.4793 11.7727 24.4519 11.7502C24.4246 11.7276 24.3926 11.7114 24.3583 11.7027C24.3239 11.694 24.2881 11.693 24.2534 11.6998C24.1987 11.7105 24.1495 11.7399 24.1141 11.7829C24.0787 11.8259 24.0593 11.8799 24.0593 11.9356C24.0593 11.9913 24.0787 12.0453 24.1141 12.0883C24.1495 12.1313 24.1987 12.1607 24.2534 12.1713Z" fill="white"/>
<path d="M24.2534 12.1713C24.2881 12.1781 24.3239 12.1771 24.3583 12.1684C24.3926 12.1597 24.4246 12.1435 24.4519 12.121C24.4793 12.0985 24.5013 12.0701 24.5164 12.0381C24.5315 12.006 24.5393 11.971 24.5393 11.9356C24.5393 11.9001 24.5315 11.8651 24.5164 11.8331C24.5013 11.801 24.4793 11.7727 24.4519 11.7502C24.4246 11.7276 24.3926 11.7114 24.3583 11.7027C24.3239 11.694 24.2881 11.693 24.2534 11.6998C24.1987 11.7105 24.1495 11.7399 24.1141 11.7829C24.0787 11.8259 24.0593 11.8799 24.0593 11.9356C24.0593 11.9913 24.0787 12.0453 24.1141 12.0883C24.1495 12.1313 24.1987 12.1607 24.2534 12.1713V12.1713Z" stroke="black" stroke-width="0.0889271"/>
<path d="M23.9956 11.5931C24.0593 11.5931 24.1203 11.5677 24.1653 11.5227C24.2103 11.4776 24.2356 11.4166 24.2356 11.3528C24.2356 11.2891 24.2103 11.228 24.1653 11.183C24.1203 11.1379 24.0593 11.1126 23.9956 11.1126C23.932 11.1126 23.8709 11.1379 23.8259 11.183C23.7809 11.228 23.7556 11.2891 23.7556 11.3528C23.7556 11.4166 23.7809 11.4776 23.8259 11.5227C23.8709 11.5677 23.932 11.5931 23.9956 11.5931Z" fill="white"/>
<path d="M23.9956 11.5931C24.0593 11.5931 24.1203 11.5677 24.1653 11.5227C24.2103 11.4776 24.2356 11.4166 24.2356 11.3528C24.2356 11.2891 24.2103 11.228 24.1653 11.183C24.1203 11.1379 24.0593 11.1126 23.9956 11.1126C23.932 11.1126 23.8709 11.1379 23.8259 11.183C23.7809 11.228 23.7556 11.2891 23.7556 11.3528C23.7556 11.4166 23.7809 11.4776 23.8259 11.5227C23.8709 11.5677 23.932 11.5931 23.9956 11.5931V11.5931Z" stroke="black" stroke-width="0.0889271"/>
<path d="M23.56 11.1927C23.6236 11.1927 23.6847 11.1674 23.7297 11.1224C23.7747 11.0773 23.8 11.0162 23.8 10.9525C23.8 10.8888 23.7747 10.8277 23.7297 10.7827C23.6847 10.7376 23.6236 10.7123 23.56 10.7123C23.5053 10.723 23.4561 10.7523 23.4207 10.7953C23.3853 10.8384 23.366 10.8923 23.366 10.9481C23.366 11.0038 23.3853 11.0578 23.4207 11.1008C23.4561 11.1438 23.5053 11.1732 23.56 11.1838" fill="white"/>
<path d="M23.56 11.1927C23.6236 11.1927 23.6847 11.1674 23.7297 11.1224C23.7747 11.0773 23.8 11.0162 23.8 10.9525C23.8 10.8888 23.7747 10.8277 23.7297 10.7827C23.6847 10.7376 23.6236 10.7123 23.56 10.7123C23.5053 10.723 23.4561 10.7523 23.4207 10.7953C23.3853 10.8384 23.366 10.8923 23.366 10.9481C23.366 11.0038 23.3853 11.0578 23.4207 11.1008C23.4561 11.1438 23.5053 11.1732 23.56 11.1838V11.1927Z" stroke="black" stroke-width="0.0889271"/>
<path d="M23.0356 10.9258C23.0703 10.9326 23.1062 10.9316 23.1405 10.9229C23.1748 10.9142 23.2068 10.898 23.2341 10.8755C23.2615 10.8529 23.2835 10.8246 23.2986 10.7926C23.3137 10.7605 23.3216 10.7255 23.3216 10.6901C23.3216 10.6546 23.3137 10.6196 23.2986 10.5876C23.2835 10.5555 23.2615 10.5272 23.2341 10.5047C23.2068 10.4821 23.1748 10.4659 23.1405 10.4572C23.1062 10.4485 23.0703 10.4475 23.0356 10.4543C22.9809 10.465 22.9317 10.4943 22.8963 10.5373C22.8609 10.5804 22.8416 10.6343 22.8416 10.6901C22.8416 10.7458 22.8609 10.7998 22.8963 10.8428C22.9317 10.8858 22.9809 10.9151 23.0356 10.9258Z" fill="white"/>
<path d="M23.0356 10.9258C23.0703 10.9326 23.1062 10.9316 23.1405 10.9229C23.1748 10.9142 23.2068 10.898 23.2341 10.8755C23.2615 10.8529 23.2835 10.8246 23.2986 10.7926C23.3137 10.7605 23.3216 10.7255 23.3216 10.6901C23.3216 10.6546 23.3137 10.6196 23.2986 10.5876C23.2835 10.5555 23.2615 10.5272 23.2341 10.5047C23.2068 10.4821 23.1748 10.4659 23.1405 10.4572C23.1062 10.4485 23.0703 10.4475 23.0356 10.4543C22.9809 10.465 22.9317 10.4943 22.8963 10.5373C22.8609 10.5804 22.8416 10.6343 22.8416 10.6901C22.8416 10.7458 22.8609 10.7998 22.8963 10.8428C22.9317 10.8858 22.9809 10.9151 23.0356 10.9258Z" stroke="black" stroke-width="0.0889271"/>
<path d="M22.4311 10.7924C22.4658 10.7992 22.5017 10.7982 22.536 10.7895C22.5703 10.7808 22.6023 10.7646 22.6297 10.742C22.657 10.7195 22.679 10.6912 22.6941 10.6591C22.7092 10.6271 22.7171 10.5921 22.7171 10.5566C22.7171 10.5212 22.7092 10.4862 22.6941 10.4541C22.679 10.4221 22.657 10.3937 22.6297 10.3712C22.6023 10.3487 22.5703 10.3325 22.536 10.3238C22.5017 10.3151 22.4658 10.3141 22.4311 10.3209C22.3764 10.3315 22.3272 10.3609 22.2918 10.4039C22.2564 10.4469 22.2371 10.5009 22.2371 10.5566C22.2371 10.6123 22.2564 10.6663 22.2918 10.7093C22.3272 10.7523 22.3764 10.7817 22.4311 10.7924Z" fill="white"/>
<path d="M22.4311 10.7924C22.4658 10.7992 22.5017 10.7982 22.536 10.7895C22.5703 10.7808 22.6023 10.7646 22.6297 10.742C22.657 10.7195 22.679 10.6912 22.6941 10.6591C22.7092 10.6271 22.7171 10.5921 22.7171 10.5566C22.7171 10.5212 22.7092 10.4862 22.6941 10.4541C22.679 10.4221 22.657 10.3937 22.6297 10.3712C22.6023 10.3487 22.5703 10.3325 22.536 10.3238C22.5017 10.3151 22.4658 10.3141 22.4311 10.3209C22.3764 10.3315 22.3272 10.3609 22.2918 10.4039C22.2564 10.4469 22.2371 10.5009 22.2371 10.5566C22.2371 10.6123 22.2564 10.6663 22.2918 10.7093C22.3272 10.7523 22.3764 10.7817 22.4311 10.7924Z" stroke="black" stroke-width="0.0889271"/>
<path d="M21.8889 10.7479C21.9236 10.7547 21.9594 10.7537 21.9938 10.745C22.0281 10.7363 22.0601 10.7201 22.0874 10.6975C22.1147 10.675 22.1368 10.6467 22.1519 10.6146C22.167 10.5826 22.1748 10.5476 22.1748 10.5121C22.1748 10.4767 22.167 10.4417 22.1519 10.4096C22.1368 10.3776 22.1147 10.3492 22.0874 10.3267C22.0601 10.3042 22.0281 10.288 21.9938 10.2793C21.9594 10.2706 21.9236 10.2696 21.8889 10.2764C21.8342 10.287 21.785 10.3164 21.7496 10.3594C21.7142 10.4024 21.6948 10.4564 21.6948 10.5121C21.6948 10.5678 21.7142 10.6218 21.7496 10.6648C21.785 10.7078 21.8342 10.7372 21.8889 10.7479Z" fill="white"/>
<path d="M21.8889 10.7479C21.9236 10.7547 21.9594 10.7537 21.9938 10.745C22.0281 10.7363 22.0601 10.7201 22.0874 10.6975C22.1147 10.675 22.1368 10.6467 22.1519 10.6146C22.167 10.5826 22.1748 10.5476 22.1748 10.5121C22.1748 10.4767 22.167 10.4417 22.1519 10.4096C22.1368 10.3776 22.1147 10.3492 22.0874 10.3267C22.0601 10.3042 22.0281 10.288 21.9938 10.2793C21.9594 10.2706 21.9236 10.2696 21.8889 10.2764C21.8342 10.287 21.785 10.3164 21.7496 10.3594C21.7142 10.4024 21.6948 10.4564 21.6948 10.5121C21.6948 10.5678 21.7142 10.6218 21.7496 10.6648C21.785 10.7078 21.8342 10.7372 21.8889 10.7479V10.7479Z" stroke="black" stroke-width="0.0889271"/>
<path d="M21.3911 10.6856C21.4548 10.6856 21.5158 10.6603 21.5608 10.6153C21.6058 10.5702 21.6311 10.5091 21.6311 10.4454C21.6311 10.3817 21.6058 10.3206 21.5608 10.2756C21.5158 10.2305 21.4548 10.2052 21.3911 10.2052C21.3275 10.2052 21.2664 10.2305 21.2214 10.2756C21.1764 10.3206 21.1511 10.3817 21.1511 10.4454C21.1511 10.5091 21.1764 10.5702 21.2214 10.6153C21.2664 10.6603 21.3275 10.6856 21.3911 10.6856Z" fill="white"/>
<path d="M21.3911 10.6856C21.4548 10.6856 21.5158 10.6603 21.5608 10.6153C21.6058 10.5702 21.6311 10.5091 21.6311 10.4454C21.6311 10.3817 21.6058 10.3206 21.5608 10.2756C21.5158 10.2305 21.4548 10.2052 21.3911 10.2052C21.3275 10.2052 21.2664 10.2305 21.2214 10.2756C21.1764 10.3206 21.1511 10.3817 21.1511 10.4454C21.1511 10.5091 21.1764 10.5702 21.2214 10.6153C21.2664 10.6603 21.3275 10.6856 21.3911 10.6856V10.6856Z" stroke="black" stroke-width="0.0889271"/>
<path d="M21.7112 12.6162C21.746 12.623 21.7818 12.622 21.8161 12.6133C21.8504 12.6045 21.8824 12.5883 21.9098 12.5658C21.9371 12.5433 21.9591 12.515 21.9742 12.4829C21.9893 12.4509 21.9972 12.4158 21.9972 12.3804C21.9972 12.345 21.9893 12.31 21.9742 12.2779C21.9591 12.2458 21.9371 12.2175 21.9098 12.195C21.8824 12.1725 21.8504 12.1563 21.8161 12.1476C21.7818 12.1388 21.746 12.1379 21.7112 12.1446C21.6475 12.1446 21.5865 12.17 21.5415 12.215C21.4965 12.26 21.4712 12.3211 21.4712 12.3849C21.4712 12.4486 21.4965 12.5097 21.5415 12.5547C21.5865 12.5997 21.6475 12.6251 21.7112 12.6251" fill="white"/>
<path d="M21.7112 12.6162C21.746 12.623 21.7818 12.622 21.8161 12.6133C21.8504 12.6045 21.8824 12.5883 21.9098 12.5658C21.9371 12.5433 21.9591 12.515 21.9742 12.4829C21.9893 12.4509 21.9972 12.4158 21.9972 12.3804C21.9972 12.345 21.9893 12.31 21.9742 12.2779C21.9591 12.2458 21.9371 12.2175 21.9098 12.195C21.8824 12.1725 21.8504 12.1563 21.8161 12.1476C21.7818 12.1388 21.746 12.1379 21.7112 12.1446C21.6475 12.1446 21.5865 12.17 21.5415 12.215C21.4965 12.26 21.4712 12.3211 21.4712 12.3849C21.4712 12.4486 21.4965 12.5097 21.5415 12.5547C21.5865 12.5997 21.6475 12.6251 21.7112 12.6251V12.6162Z" stroke="black" stroke-width="0.0889271"/>
<path d="M21.8356 12.1713C21.8993 12.1713 21.9603 12.146 22.0053 12.101C22.0503 12.0559 22.0756 11.9948 22.0756 11.9311C22.0756 11.8674 22.0503 11.8063 22.0053 11.7613C21.9603 11.7162 21.8993 11.6909 21.8356 11.6909C21.781 11.7016 21.7318 11.7309 21.6964 11.774C21.661 11.817 21.6416 11.871 21.6416 11.9267C21.6416 11.9824 21.661 12.0364 21.6964 12.0794C21.7318 12.1224 21.781 12.1518 21.8356 12.1624" fill="white"/>
<path d="M21.8356 12.1713C21.8993 12.1713 21.9603 12.146 22.0053 12.101C22.0503 12.0559 22.0756 11.9948 22.0756 11.9311C22.0756 11.8674 22.0503 11.8063 22.0053 11.7613C21.9603 11.7162 21.8993 11.6909 21.8356 11.6909C21.781 11.7016 21.7318 11.7309 21.6964 11.774C21.661 11.817 21.6416 11.871 21.6416 11.9267C21.6416 11.9824 21.661 12.0364 21.6964 12.0794C21.7318 12.1224 21.781 12.1518 21.8356 12.1624V12.1713Z" stroke="black" stroke-width="0.0889271"/>
<path d="M19.8445 10.65C19.9081 10.65 19.9692 10.6247 20.0142 10.5797C20.0592 10.5346 20.0845 10.4735 20.0845 10.4098C20.0845 10.3461 20.0592 10.285 20.0142 10.24C19.9692 10.1949 19.9081 10.1696 19.8445 10.1696C19.7808 10.1696 19.7198 10.1949 19.6748 10.24C19.6298 10.285 19.6045 10.3461 19.6045 10.4098C19.6045 10.4735 19.6298 10.5346 19.6748 10.5797C19.7198 10.6247 19.7808 10.65 19.8445 10.65Z" fill="white"/>
<path d="M19.8445 10.65C19.9081 10.65 19.9692 10.6247 20.0142 10.5797C20.0592 10.5346 20.0845 10.4735 20.0845 10.4098C20.0845 10.3461 20.0592 10.285 20.0142 10.24C19.9692 10.1949 19.9081 10.1696 19.8445 10.1696C19.7808 10.1696 19.7198 10.1949 19.6748 10.24C19.6298 10.285 19.6045 10.3461 19.6045 10.4098C19.6045 10.4735 19.6298 10.5346 19.6748 10.5797C19.7198 10.6247 19.7808 10.65 19.8445 10.65V10.65Z" stroke="black" stroke-width="0.0889271"/>
<path d="M18.6889 10.5789C18.7237 10.5857 18.7595 10.5847 18.7938 10.576C18.8281 10.5673 18.8601 10.5511 18.8875 10.5285C18.9148 10.506 18.9368 10.4777 18.9519 10.4456C18.967 10.4136 18.9749 10.3786 18.9749 10.3431C18.9749 10.3077 18.967 10.2727 18.9519 10.2406C18.9368 10.2086 18.9148 10.1802 18.8875 10.1577C18.8601 10.1352 18.8281 10.119 18.7938 10.1103C18.7595 10.1016 18.7237 10.1006 18.6889 10.1074C18.6343 10.118 18.585 10.1474 18.5496 10.1904C18.5142 10.2334 18.4949 10.2874 18.4949 10.3431C18.4949 10.3988 18.5142 10.4528 18.5496 10.4958C18.585 10.5388 18.6343 10.5682 18.6889 10.5789Z" fill="white"/>
<path d="M18.6889 10.5789C18.7237 10.5857 18.7595 10.5847 18.7938 10.576C18.8281 10.5673 18.8601 10.5511 18.8875 10.5285C18.9148 10.506 18.9368 10.4777 18.9519 10.4456C18.967 10.4136 18.9749 10.3786 18.9749 10.3431C18.9749 10.3077 18.967 10.2727 18.9519 10.2406C18.9368 10.2086 18.9148 10.1802 18.8875 10.1577C18.8601 10.1352 18.8281 10.119 18.7938 10.1103C18.7595 10.1016 18.7237 10.1006 18.6889 10.1074C18.6343 10.118 18.585 10.1474 18.5496 10.1904C18.5142 10.2334 18.4949 10.2874 18.4949 10.3431C18.4949 10.3988 18.5142 10.4528 18.5496 10.4958C18.585 10.5388 18.6343 10.5682 18.6889 10.5789V10.5789Z" stroke="black" stroke-width="0.0889271"/>
<path d="M18.4045 10.57C18.4392 10.5767 18.4751 10.5758 18.5094 10.567C18.5437 10.5583 18.5757 10.5421 18.603 10.5196C18.6304 10.4971 18.6524 10.4688 18.6675 10.4367C18.6826 10.4046 18.6905 10.3696 18.6905 10.3342C18.6905 10.2988 18.6826 10.2637 18.6675 10.2317C18.6524 10.1996 18.6304 10.1713 18.603 10.1488C18.5757 10.1263 18.5437 10.1101 18.5094 10.1014C18.4751 10.0926 18.4392 10.0917 18.4045 10.0984C18.3498 10.1091 18.3006 10.1385 18.2652 10.1815C18.2298 10.2245 18.2104 10.2785 18.2104 10.3342C18.2104 10.3899 18.2298 10.4439 18.2652 10.4869C18.3006 10.5299 18.3498 10.5593 18.4045 10.57Z" fill="white"/>
<path d="M18.4045 10.57C18.4392 10.5767 18.4751 10.5758 18.5094 10.567C18.5437 10.5583 18.5757 10.5421 18.603 10.5196C18.6304 10.4971 18.6524 10.4688 18.6675 10.4367C18.6826 10.4046 18.6905 10.3696 18.6905 10.3342C18.6905 10.2988 18.6826 10.2637 18.6675 10.2317C18.6524 10.1996 18.6304 10.1713 18.603 10.1488C18.5757 10.1263 18.5437 10.1101 18.5094 10.1014C18.4751 10.0926 18.4392 10.0917 18.4045 10.0984C18.3498 10.1091 18.3006 10.1385 18.2652 10.1815C18.2298 10.2245 18.2104 10.2785 18.2104 10.3342C18.2104 10.3899 18.2298 10.4439 18.2652 10.4869C18.3006 10.5299 18.3498 10.5593 18.4045 10.57Z" stroke="black" stroke-width="0.0889271"/>
<path d="M16.8932 12.625C16.928 12.6318 16.9638 12.6308 16.9982 12.6221C17.0325 12.6134 17.0645 12.5972 17.0918 12.5747C17.1191 12.5522 17.1412 12.5238 17.1563 12.4918C17.1714 12.4597 17.1792 12.4247 17.1792 12.3893C17.1792 12.3538 17.1714 12.3188 17.1563 12.2868C17.1412 12.2547 17.1191 12.2264 17.0918 12.2039C17.0645 12.1813 17.0325 12.1651 16.9982 12.1564C16.9638 12.1477 16.928 12.1467 16.8932 12.1535C16.8386 12.1642 16.7894 12.1936 16.754 12.2366C16.7186 12.2796 16.6992 12.3336 16.6992 12.3893C16.6992 12.445 16.7186 12.499 16.754 12.542C16.7894 12.585 16.8386 12.6144 16.8932 12.625Z" fill="white"/>
<path d="M16.8932 12.625C16.928 12.6318 16.9638 12.6308 16.9982 12.6221C17.0325 12.6134 17.0645 12.5972 17.0918 12.5747C17.1191 12.5522 17.1412 12.5238 17.1563 12.4918C17.1714 12.4597 17.1792 12.4247 17.1792 12.3893C17.1792 12.3538 17.1714 12.3188 17.1563 12.2868C17.1412 12.2547 17.1191 12.2264 17.0918 12.2039C17.0645 12.1813 17.0325 12.1651 16.9982 12.1564C16.9638 12.1477 16.928 12.1467 16.8932 12.1535C16.8386 12.1642 16.7894 12.1936 16.754 12.2366C16.7186 12.2796 16.6992 12.3336 16.6992 12.3893C16.6992 12.445 16.7186 12.499 16.754 12.542C16.7894 12.585 16.8386 12.6144 16.8932 12.625V12.625Z" stroke="black" stroke-width="0.0889271"/>
<path d="M16.8223 12.0646C16.8859 12.0646 16.947 12.0393 16.992 11.9942C17.037 11.9492 17.0623 11.8881 17.0623 11.8244C17.0623 11.7607 17.037 11.6996 16.992 11.6545C16.947 11.6095 16.8859 11.5842 16.8223 11.5842C16.7586 11.5842 16.6976 11.6095 16.6526 11.6545C16.6076 11.6996 16.5823 11.7607 16.5823 11.8244C16.5823 11.8881 16.6076 11.9492 16.6526 11.9942C16.6976 12.0393 16.7586 12.0646 16.8223 12.0646Z" fill="white"/>
<path d="M16.8223 12.0646C16.8859 12.0646 16.947 12.0393 16.992 11.9942C17.037 11.9492 17.0623 11.8881 17.0623 11.8244C17.0623 11.7607 17.037 11.6996 16.992 11.6545C16.947 11.6095 16.8859 11.5842 16.8223 11.5842C16.7586 11.5842 16.6976 11.6095 16.6526 11.6545C16.6076 11.6996 16.5823 11.7607 16.5823 11.8244C16.5823 11.8881 16.6076 11.9492 16.6526 11.9942C16.6976 12.0393 16.7586 12.0646 16.8223 12.0646V12.0646Z" stroke="black" stroke-width="0.0889271"/>
<path d="M16.9999 11.513C17.0347 11.5198 17.0705 11.5188 17.1049 11.5101C17.1392 11.5014 17.1712 11.4852 17.1985 11.4626C17.2258 11.4401 17.2478 11.4118 17.263 11.3797C17.2781 11.3477 17.2859 11.3127 17.2859 11.2772C17.2859 11.2418 17.2781 11.2068 17.263 11.1747C17.2478 11.1427 17.2258 11.1144 17.1985 11.0918C17.1712 11.0693 17.1392 11.0531 17.1049 11.0444C17.0705 11.0357 17.0347 11.0347 16.9999 11.0415C16.9453 11.0521 16.8961 11.0815 16.8607 11.1245C16.8253 11.1675 16.8059 11.2215 16.8059 11.2772C16.8059 11.3329 16.8253 11.3869 16.8607 11.4299C16.8961 11.473 16.9453 11.5023 16.9999 11.513Z" fill="white"/>
<path d="M16.9999 11.513C17.0347 11.5198 17.0705 11.5188 17.1049 11.5101C17.1392 11.5014 17.1712 11.4852 17.1985 11.4626C17.2258 11.4401 17.2478 11.4118 17.263 11.3797C17.2781 11.3477 17.2859 11.3127 17.2859 11.2772C17.2859 11.2418 17.2781 11.2068 17.263 11.1747C17.2478 11.1427 17.2258 11.1144 17.1985 11.0918C17.1712 11.0693 17.1392 11.0531 17.1049 11.0444C17.0705 11.0357 17.0347 11.0347 16.9999 11.0415C16.9453 11.0521 16.8961 11.0815 16.8607 11.1245C16.8253 11.1675 16.8059 11.2215 16.8059 11.2772C16.8059 11.3329 16.8253 11.3869 16.8607 11.4299C16.8961 11.473 16.9453 11.5023 16.9999 11.513Z" stroke="black" stroke-width="0.0889271"/>
<path d="M18.04 10.6233C18.0747 10.6301 18.1106 10.6291 18.1449 10.6204C18.1792 10.6117 18.2112 10.5955 18.2385 10.573C18.2659 10.5504 18.2879 10.5221 18.303 10.4901C18.3181 10.458 18.3259 10.423 18.3259 10.3876C18.3259 10.3521 18.3181 10.3171 18.303 10.2851C18.2879 10.253 18.2659 10.2247 18.2385 10.2022C18.2112 10.1796 18.1792 10.1634 18.1449 10.1547C18.1106 10.146 18.0747 10.145 18.04 10.1518C17.9853 10.1625 17.9361 10.1918 17.9007 10.2349C17.8653 10.2779 17.8459 10.3319 17.8459 10.3876C17.8459 10.4433 17.8653 10.4973 17.9007 10.5403C17.9361 10.5833 17.9853 10.6127 18.04 10.6233Z" fill="white"/>
<path d="M18.04 10.6233C18.0747 10.6301 18.1106 10.6291 18.1449 10.6204C18.1792 10.6117 18.2112 10.5955 18.2385 10.573C18.2659 10.5504 18.2879 10.5221 18.303 10.4901C18.3181 10.458 18.3259 10.423 18.3259 10.3876C18.3259 10.3521 18.3181 10.3171 18.303 10.2851C18.2879 10.253 18.2659 10.2247 18.2385 10.2022C18.2112 10.1796 18.1792 10.1634 18.1449 10.1547C18.1106 10.146 18.0747 10.145 18.04 10.1518C17.9853 10.1625 17.9361 10.1918 17.9007 10.2349C17.8653 10.2779 17.8459 10.3319 17.8459 10.3876C17.8459 10.4433 17.8653 10.4973 17.9007 10.5403C17.9361 10.5833 17.9853 10.6127 18.04 10.6233Z" stroke="black" stroke-width="0.0889271"/>
<path d="M17.6401 10.7835C17.6748 10.7902 17.7107 10.7893 17.745 10.7805C17.7793 10.7718 17.8113 10.7556 17.8386 10.7331C17.866 10.7106 17.888 10.6823 17.9031 10.6502C17.9182 10.6182 17.926 10.5831 17.926 10.5477C17.926 10.5123 17.9182 10.4772 17.9031 10.4452C17.888 10.4131 17.866 10.3848 17.8386 10.3623C17.8113 10.3398 17.7793 10.3236 17.745 10.3149C17.7107 10.3061 17.6748 10.3052 17.6401 10.3119C17.5854 10.3226 17.5362 10.352 17.5008 10.395C17.4654 10.438 17.446 10.492 17.446 10.5477C17.446 10.6034 17.4654 10.6574 17.5008 10.7004C17.5362 10.7434 17.5854 10.7728 17.6401 10.7835Z" fill="white"/>
<path d="M17.6401 10.7835C17.6748 10.7902 17.7107 10.7893 17.745 10.7805C17.7793 10.7718 17.8113 10.7556 17.8386 10.7331C17.866 10.7106 17.888 10.6823 17.9031 10.6502C17.9182 10.6182 17.926 10.5831 17.926 10.5477C17.926 10.5123 17.9182 10.4772 17.9031 10.4452C17.888 10.4131 17.866 10.3848 17.8386 10.3623C17.8113 10.3398 17.7793 10.3236 17.745 10.3149C17.7107 10.3061 17.6748 10.3052 17.6401 10.3119C17.5854 10.3226 17.5362 10.352 17.5008 10.395C17.4654 10.438 17.446 10.492 17.446 10.5477C17.446 10.6034 17.4654 10.6574 17.5008 10.7004C17.5362 10.7434 17.5854 10.7728 17.6401 10.7835Z" stroke="black" stroke-width="0.0889271"/>
<path d="M17.2668 11.1037C17.3015 11.1105 17.3374 11.1095 17.3717 11.1008C17.406 11.0921 17.438 11.0759 17.4653 11.0534C17.4927 11.0309 17.5147 11.0025 17.5298 10.9705C17.5449 10.9384 17.5528 10.9034 17.5528 10.868C17.5528 10.8325 17.5449 10.7975 17.5298 10.7655C17.5147 10.7334 17.4927 10.7051 17.4653 10.6826C17.438 10.66 17.406 10.6438 17.3717 10.6351C17.3374 10.6264 17.3015 10.6254 17.2668 10.6322C17.2121 10.6429 17.1629 10.6723 17.1275 10.7153C17.0921 10.7583 17.0728 10.8123 17.0728 10.868C17.0728 10.9237 17.0921 10.9777 17.1275 11.0207C17.1629 11.0637 17.2121 11.0931 17.2668 11.1037Z" fill="white"/>
<path d="M17.2668 11.1037C17.3015 11.1105 17.3374 11.1095 17.3717 11.1008C17.406 11.0921 17.438 11.0759 17.4653 11.0534C17.4927 11.0309 17.5147 11.0025 17.5298 10.9705C17.5449 10.9384 17.5528 10.9034 17.5528 10.868C17.5528 10.8325 17.5449 10.7975 17.5298 10.7655C17.5147 10.7334 17.4927 10.7051 17.4653 10.6826C17.438 10.66 17.406 10.6438 17.3717 10.6351C17.3374 10.6264 17.3015 10.6254 17.2668 10.6322C17.2121 10.6429 17.1629 10.6723 17.1275 10.7153C17.0921 10.7583 17.0728 10.8123 17.0728 10.868C17.0728 10.9237 17.0921 10.9777 17.1275 11.0207C17.1629 11.0637 17.2121 11.0931 17.2668 11.1037V11.1037Z" stroke="black" stroke-width="0.0889271"/>
<path d="M19.3288 10.9614C19.3636 10.9682 19.3994 10.9672 19.4337 10.9585C19.468 10.9498 19.5 10.9336 19.5274 10.9111C19.5547 10.8885 19.5767 10.8602 19.5918 10.8282C19.6069 10.7961 19.6148 10.7611 19.6148 10.7256C19.6148 10.6902 19.6069 10.6552 19.5918 10.6231C19.5767 10.5911 19.5547 10.5628 19.5274 10.5402C19.5 10.5177 19.468 10.5015 19.4337 10.4928C19.3994 10.4841 19.3636 10.4831 19.3288 10.4899C19.2742 10.5006 19.2249 10.5299 19.1895 10.5729C19.1541 10.6159 19.1348 10.6699 19.1348 10.7256C19.1348 10.7814 19.1541 10.8354 19.1895 10.8784C19.2249 10.9214 19.2742 10.9507 19.3288 10.9614Z" fill="white"/>
<path d="M19.3288 10.9614C19.3636 10.9682 19.3994 10.9672 19.4337 10.9585C19.468 10.9498 19.5 10.9336 19.5274 10.9111C19.5547 10.8885 19.5767 10.8602 19.5918 10.8282C19.6069 10.7961 19.6148 10.7611 19.6148 10.7256C19.6148 10.6902 19.6069 10.6552 19.5918 10.6231C19.5767 10.5911 19.5547 10.5628 19.5274 10.5402C19.5 10.5177 19.468 10.5015 19.4337 10.4928C19.3994 10.4841 19.3636 10.4831 19.3288 10.4899C19.2742 10.5006 19.2249 10.5299 19.1895 10.5729C19.1541 10.6159 19.1348 10.6699 19.1348 10.7256C19.1348 10.7814 19.1541 10.8354 19.1895 10.8784C19.2249 10.9214 19.2742 10.9507 19.3288 10.9614Z" stroke="black" stroke-width="0.0889271"/>
<path d="M19.3289 11.4151C19.3925 11.4151 19.4536 11.3898 19.4986 11.3448C19.5436 11.2997 19.5689 11.2386 19.5689 11.1749C19.5689 11.1112 19.5436 11.0501 19.4986 11.0051C19.4536 10.96 19.3925 10.9347 19.3289 10.9347C19.2652 10.9347 19.2042 10.96 19.1592 11.0051C19.1142 11.0501 19.0889 11.1112 19.0889 11.1749C19.0889 11.2386 19.1142 11.2997 19.1592 11.3448C19.2042 11.3898 19.2652 11.4151 19.3289 11.4151Z" fill="white"/>
<path d="M19.3289 11.4151C19.3925 11.4151 19.4536 11.3898 19.4986 11.3448C19.5436 11.2997 19.5689 11.2386 19.5689 11.1749C19.5689 11.1112 19.5436 11.0501 19.4986 11.0051C19.4536 10.96 19.3925 10.9347 19.3289 10.9347C19.2652 10.9347 19.2042 10.96 19.1592 11.0051C19.1142 11.0501 19.0889 11.1112 19.0889 11.1749C19.0889 11.2386 19.1142 11.2997 19.1592 11.3448C19.2042 11.3898 19.2652 11.4151 19.3289 11.4151V11.4151Z" stroke="black" stroke-width="0.0889271"/>
<path d="M19.3289 11.8955C19.3925 11.8955 19.4536 11.8702 19.4986 11.8252C19.5436 11.7801 19.5689 11.719 19.5689 11.6553C19.5689 11.5916 19.5436 11.5305 19.4986 11.4855C19.4536 11.4404 19.3925 11.4151 19.3289 11.4151C19.2652 11.4151 19.2042 11.4404 19.1592 11.4855C19.1142 11.5305 19.0889 11.5916 19.0889 11.6553C19.0889 11.719 19.1142 11.7801 19.1592 11.8252C19.2042 11.8702 19.2652 11.8955 19.3289 11.8955Z" fill="white"/>
<path d="M19.3289 11.8955C19.3925 11.8955 19.4536 11.8702 19.4986 11.8252C19.5436 11.7801 19.5689 11.719 19.5689 11.6553C19.5689 11.5916 19.5436 11.5305 19.4986 11.4855C19.4536 11.4404 19.3925 11.4151 19.3289 11.4151C19.2652 11.4151 19.2042 11.4404 19.1592 11.4855C19.1142 11.5305 19.0889 11.5916 19.0889 11.6553C19.0889 11.719 19.1142 11.7801 19.1592 11.8252C19.2042 11.8702 19.2652 11.8955 19.3289 11.8955V11.8955Z" stroke="black" stroke-width="0.0889271"/>
<path d="M20.1467 10.5877C20.2104 10.5877 20.2714 10.5624 20.3164 10.5174C20.3615 10.4723 20.3867 10.4112 20.3867 10.3475C20.3867 10.2838 20.3615 10.2227 20.3164 10.1777C20.2714 10.1326 20.2104 10.1073 20.1467 10.1073C20.0831 10.1073 20.022 10.1326 19.977 10.1777C19.932 10.2227 19.9067 10.2838 19.9067 10.3475C19.9067 10.4112 19.932 10.4723 19.977 10.5174C20.022 10.5624 20.0831 10.5877 20.1467 10.5877Z" fill="white"/>
<path d="M20.1467 10.5877C20.2104 10.5877 20.2714 10.5624 20.3164 10.5174C20.3615 10.4723 20.3867 10.4112 20.3867 10.3475C20.3867 10.2838 20.3615 10.2227 20.3164 10.1777C20.2714 10.1326 20.2104 10.1073 20.1467 10.1073C20.0831 10.1073 20.022 10.1326 19.977 10.1777C19.932 10.2227 19.9067 10.2838 19.9067 10.3475C19.9067 10.4112 19.932 10.4723 19.977 10.5174C20.022 10.5624 20.0831 10.5877 20.1467 10.5877V10.5877Z" stroke="black" stroke-width="0.0889271"/>
<path d="M20.4667 10.5166C20.5015 10.5234 20.5373 10.5224 20.5717 10.5137C20.606 10.505 20.638 10.4888 20.6653 10.4662C20.6926 10.4437 20.7146 10.4154 20.7298 10.3833C20.7449 10.3513 20.7527 10.3163 20.7527 10.2808C20.7527 10.2454 20.7449 10.2104 20.7298 10.1783C20.7146 10.1463 20.6926 10.118 20.6653 10.0954C20.638 10.0729 20.606 10.0567 20.5717 10.048C20.5373 10.0393 20.5015 10.0383 20.4667 10.0451C20.4121 10.0557 20.3629 10.0851 20.3275 10.1281C20.2921 10.1711 20.2727 10.2251 20.2727 10.2808C20.2727 10.3365 20.2921 10.3905 20.3275 10.4335C20.3629 10.4766 20.4121 10.5059 20.4667 10.5166Z" fill="white"/>
<path d="M20.4667 10.5166C20.5015 10.5234 20.5373 10.5224 20.5717 10.5137C20.606 10.505 20.638 10.4888 20.6653 10.4662C20.6926 10.4437 20.7146 10.4154 20.7298 10.3833C20.7449 10.3513 20.7527 10.3163 20.7527 10.2808C20.7527 10.2454 20.7449 10.2104 20.7298 10.1783C20.7146 10.1463 20.6926 10.118 20.6653 10.0954C20.638 10.0729 20.606 10.0567 20.5717 10.048C20.5373 10.0393 20.5015 10.0383 20.4667 10.0451C20.4121 10.0557 20.3629 10.0851 20.3275 10.1281C20.2921 10.1711 20.2727 10.2251 20.2727 10.2808C20.2727 10.3365 20.2921 10.3905 20.3275 10.4335C20.3629 10.4766 20.4121 10.5059 20.4667 10.5166V10.5166Z" stroke="black" stroke-width="0.0889271"/>
<path d="M20.8401 10.57C20.8749 10.5767 20.9107 10.5758 20.945 10.567C20.9793 10.5583 21.0113 10.5421 21.0387 10.5196C21.066 10.4971 21.088 10.4688 21.1031 10.4367C21.1182 10.4046 21.1261 10.3696 21.1261 10.3342C21.1261 10.2988 21.1182 10.2637 21.1031 10.2317C21.088 10.1996 21.066 10.1713 21.0387 10.1488C21.0113 10.1263 20.9793 10.1101 20.945 10.1014C20.9107 10.0926 20.8749 10.0917 20.8401 10.0984C20.7764 10.0984 20.7154 10.1238 20.6704 10.1688C20.6254 10.2138 20.6001 10.2749 20.6001 10.3386C20.6001 10.4024 20.6254 10.4635 20.6704 10.5085C20.7154 10.5535 20.7764 10.5789 20.8401 10.5789" fill="white"/>
<path d="M20.8401 10.57C20.8749 10.5767 20.9107 10.5758 20.945 10.567C20.9793 10.5583 21.0113 10.5421 21.0387 10.5196C21.066 10.4971 21.088 10.4688 21.1031 10.4367C21.1182 10.4046 21.1261 10.3696 21.1261 10.3342C21.1261 10.2988 21.1182 10.2637 21.1031 10.2317C21.088 10.1996 21.066 10.1713 21.0387 10.1488C21.0113 10.1263 20.9793 10.1101 20.945 10.1014C20.9107 10.0926 20.8749 10.0917 20.8401 10.0984C20.7764 10.0984 20.7154 10.1238 20.6704 10.1688C20.6254 10.2138 20.6001 10.2749 20.6001 10.3386C20.6001 10.4024 20.6254 10.4635 20.6704 10.5085C20.7154 10.5535 20.7764 10.5789 20.8401 10.5789V10.57Z" stroke="black" stroke-width="0.0889271"/>
<path d="M21.7556 11.5841C21.7903 11.5909 21.8261 11.5899 21.8605 11.5812C21.8948 11.5725 21.9268 11.5563 21.9541 11.5338C21.9814 11.5113 22.0035 11.483 22.0186 11.4509C22.0337 11.4188 22.0415 11.3838 22.0415 11.3484C22.0415 11.3129 22.0337 11.2779 22.0186 11.2459C22.0035 11.2138 21.9814 11.1855 21.9541 11.163C21.9268 11.1404 21.8948 11.1242 21.8605 11.1155C21.8261 11.1068 21.7903 11.1058 21.7556 11.1126C21.7009 11.1233 21.6517 11.1527 21.6163 11.1957C21.5809 11.2387 21.5615 11.2927 21.5615 11.3484C21.5615 11.4041 21.5809 11.4581 21.6163 11.5011C21.6517 11.5441 21.7009 11.5735 21.7556 11.5841Z" fill="white"/>
<path d="M21.7556 11.5841C21.7903 11.5909 21.8261 11.5899 21.8605 11.5812C21.8948 11.5725 21.9268 11.5563 21.9541 11.5338C21.9814 11.5113 22.0035 11.483 22.0186 11.4509C22.0337 11.4188 22.0415 11.3838 22.0415 11.3484C22.0415 11.3129 22.0337 11.2779 22.0186 11.2459C22.0035 11.2138 21.9814 11.1855 21.9541 11.163C21.9268 11.1404 21.8948 11.1242 21.8605 11.1155C21.8261 11.1068 21.7903 11.1058 21.7556 11.1126C21.7009 11.1233 21.6517 11.1527 21.6163 11.1957C21.5809 11.2387 21.5615 11.2927 21.5615 11.3484C21.5615 11.4041 21.5809 11.4581 21.6163 11.5011C21.6517 11.5441 21.7009 11.5735 21.7556 11.5841V11.5841Z" stroke="black" stroke-width="0.0889271"/>
<path d="M21.2044 10.7924C21.268 10.7924 21.3291 10.7671 21.3741 10.722C21.4191 10.677 21.4444 10.6159 21.4444 10.5522C21.4444 10.4884 21.4191 10.4274 21.3741 10.3823C21.3291 10.3373 21.268 10.312 21.2044 10.312C21.1407 10.312 21.0797 10.3373 21.0346 10.3823C20.9896 10.4274 20.9644 10.4884 20.9644 10.5522C20.9644 10.6159 20.9896 10.677 21.0346 10.722C21.0797 10.7671 21.1407 10.7924 21.2044 10.7924Z" fill="white"/>
<path d="M21.2044 10.7924C21.268 10.7924 21.3291 10.7671 21.3741 10.722C21.4191 10.677 21.4444 10.6159 21.4444 10.5522C21.4444 10.4884 21.4191 10.4274 21.3741 10.3823C21.3291 10.3373 21.268 10.312 21.2044 10.312C21.1407 10.312 21.0797 10.3373 21.0346 10.3823C20.9896 10.4274 20.9644 10.4884 20.9644 10.5522C20.9644 10.6159 20.9896 10.677 21.0346 10.722C21.0797 10.7671 21.1407 10.7924 21.2044 10.7924V10.7924Z" stroke="black" stroke-width="0.0889271"/>
<path d="M21.5422 11.1127C21.5769 11.1194 21.6128 11.1184 21.6471 11.1097C21.6814 11.101 21.7134 11.0848 21.7407 11.0623C21.7681 11.0398 21.7901 11.0115 21.8052 10.9794C21.8203 10.9473 21.8281 10.9123 21.8281 10.8769C21.8281 10.8414 21.8203 10.8064 21.8052 10.7744C21.7901 10.7423 21.7681 10.714 21.7407 10.6915C21.7134 10.669 21.6814 10.6528 21.6471 10.644C21.6128 10.6353 21.5769 10.6343 21.5422 10.6411C21.4875 10.6518 21.4383 10.6812 21.4029 10.7242C21.3675 10.7672 21.3481 10.8212 21.3481 10.8769C21.3481 10.9326 21.3675 10.9866 21.4029 11.0296C21.4383 11.0726 21.4875 11.102 21.5422 11.1127Z" fill="white"/>
<path d="M21.5422 11.1127C21.5769 11.1194 21.6128 11.1184 21.6471 11.1097C21.6814 11.101 21.7134 11.0848 21.7407 11.0623C21.7681 11.0398 21.7901 11.0115 21.8052 10.9794C21.8203 10.9473 21.8281 10.9123 21.8281 10.8769C21.8281 10.8414 21.8203 10.8064 21.8052 10.7744C21.7901 10.7423 21.7681 10.714 21.7407 10.6915C21.7134 10.669 21.6814 10.6528 21.6471 10.644C21.6128 10.6353 21.5769 10.6343 21.5422 10.6411C21.4875 10.6518 21.4383 10.6812 21.4029 10.7242C21.3675 10.7672 21.3481 10.8212 21.3481 10.8769C21.3481 10.9326 21.3675 10.9866 21.4029 11.0296C21.4383 11.0726 21.4875 11.102 21.5422 11.1127Z" stroke="black" stroke-width="0.0889271"/>
<path d="M19.3112 14.6624L18.689 14.9826L19.249 15.3385L19.9156 15.0004L19.3112 14.6624Z" fill="white"/>
<path d="M19.3112 14.6624L18.689 14.9826L19.249 15.3385L19.9156 15.0004L19.3112 14.6624" stroke="black" stroke-width="0.0444635"/>
<path d="M17.9422 14.7335L17.0089 14.8759C17.0089 14.8759 16.9911 15.383 17.0355 15.4986L18.0044 15.3741C18.0044 15.3741 18.0489 14.9026 17.9422 14.7335Z" fill="white"/>
<path d="M17.9422 14.7335L17.0089 14.8759C17.0089 14.8759 16.9911 15.383 17.0355 15.4986L18.0044 15.3741C18.0044 15.3741 18.0489 14.9026 17.9422 14.7335Z" stroke="black" stroke-width="0.0444635"/>
<path d="M17.8444 14.9114C17.8444 14.9114 17.2755 14.9648 17.1333 15.0182V15.3563C17.1333 15.3563 17.5155 15.294 17.8533 15.2673L17.8444 14.9114Z" fill="#058E6E" fill-opacity="0.9"/>
<path d="M17.8444 14.9114C17.8444 14.9114 17.2755 14.9648 17.1333 15.0182V15.3563C17.1333 15.3563 17.5155 15.294 17.8533 15.2673L17.8444 14.9114Z" stroke="black" stroke-width="0.0444635"/>
<path d="M20.6179 14.7513L21.5601 14.9026C21.5601 14.9026 21.569 15.4097 21.5245 15.5253L20.5645 15.4008C20.5645 15.4008 20.5201 14.9292 20.6179 14.7602" fill="white"/>
<path d="M20.6179 14.7513L21.5601 14.9026C21.5601 14.9026 21.569 15.4097 21.5245 15.5253L20.5645 15.4008C20.5645 15.4008 20.5201 14.9292 20.6179 14.7602V14.7513Z" stroke="black" stroke-width="0.0444635"/>
<path d="M20.7334 14.9381C20.7334 14.9381 21.2934 14.9915 21.4356 15.0449L21.4267 15.383C21.4267 15.383 21.0534 15.3207 20.7156 15.294L20.7245 14.9381" fill="#058E6E" fill-opacity="0.9"/>
<path d="M20.7334 14.9381C20.7334 14.9381 21.2934 14.9915 21.4356 15.0449L21.4267 15.383C21.4267 15.383 21.0534 15.3207 20.7156 15.294L20.7245 14.9381" stroke="black" stroke-width="0.0444635"/>
<path d="M15.7466 15.1338L16.3866 15.3207L15.9421 15.8011M15.5955 15.1783C15.5955 15.1783 18.8844 13.9595 23.0799 15.2851L15.5955 15.1783ZM15.7288 15.8812C15.7288 15.8812 18.9199 14.689 22.8399 15.9345L15.7288 15.8812Z" stroke="black" stroke-width="0.0444635"/>
<path d="M15.7556 15.7121L16.129 15.4007L15.7112 15.3207C15.7112 15.3207 15.7645 15.383 15.7556 15.4452V15.7121Z" fill="#FF0000"/>
<path d="M15.7556 15.7121L16.129 15.4007L15.7112 15.3207C15.7112 15.3207 15.7645 15.383 15.7556 15.4452V15.7121Z" stroke="black" stroke-width="0.0444635"/>
<path d="M23.0089 15.2584L22.3245 15.383L22.7867 15.9168" stroke="black" stroke-width="0.0444635"/>
<path d="M22.8044 15.7299L22.5466 15.463L22.92 15.4274C22.92 15.4274 22.8133 15.4897 22.8133 15.552C22.8133 15.6054 22.8311 15.6854 22.8133 15.7299" fill="#FF0000"/>
<path d="M22.8044 15.7299L22.5466 15.463L22.92 15.4274C22.92 15.4274 22.8133 15.4897 22.8133 15.552C22.8133 15.6054 22.8311 15.6854 22.8133 15.7299H22.8044Z" stroke="black" stroke-width="0.0444635"/>
<path d="M16.5823 15.1783C16.6356 15.1783 16.6889 15.1428 16.6889 15.0894C16.6889 15.0538 16.6356 15.0093 16.5823 15.0093C16.52 15.0093 16.4756 15.0538 16.4756 15.0983C16.4756 15.1428 16.52 15.1872 16.5823 15.1872V15.1783ZM18.4134 14.9737C18.4756 14.9737 18.52 14.9381 18.52 14.8848C18.52 14.8403 18.4756 14.8047 18.4134 14.8047C18.3511 14.8047 18.3067 14.8403 18.3067 14.8937C18.3067 14.9381 18.3511 14.9737 18.4134 14.9737ZM18.4134 15.2673C18.4756 15.2673 18.52 15.2317 18.52 15.1872C18.52 15.1428 18.4756 15.0983 18.4134 15.0983C18.3511 15.0983 18.3067 15.1428 18.3067 15.1872C18.3067 15.2317 18.3511 15.2762 18.4134 15.2762V15.2673ZM20.2178 14.9915C20.2712 14.9915 20.3245 14.947 20.3245 14.9025C20.3245 14.8581 20.2712 14.8136 20.2178 14.8136C20.1556 14.8136 20.1112 14.8581 20.1112 14.9025C20.1112 14.947 20.1556 14.9915 20.2178 14.9915ZM22.0045 15.3207C22.0667 15.3207 22.1112 15.2762 22.1112 15.2317C22.1112 15.1872 22.0667 15.1428 22.0045 15.1428C21.9423 15.1428 21.8978 15.1872 21.8978 15.2317C21.8978 15.2762 21.9423 15.3207 22.0045 15.3207ZM21.9778 15.552C22.0312 15.552 22.0845 15.5164 22.0845 15.463C22.0845 15.4274 22.0312 15.383 21.9778 15.383C21.9156 15.383 21.8712 15.4274 21.8712 15.4719C21.8712 15.5164 21.9156 15.5609 21.9778 15.5609V15.552ZM20.2178 15.2851C20.2712 15.2851 20.3245 15.2495 20.3245 15.1961C20.3245 15.1517 20.2712 15.1161 20.2178 15.1161C20.1556 15.1161 20.1112 15.1517 20.1112 15.205C20.1112 15.2495 20.1556 15.294 20.2178 15.294V15.2851ZM16.6623 15.552C16.7245 15.552 16.7778 15.5164 16.7778 15.463C16.7778 15.4274 16.7245 15.383 16.6711 15.383C16.6089 15.383 16.5645 15.4274 16.5645 15.4719C16.5645 15.5164 16.6089 15.5609 16.6711 15.5609L16.6623 15.552Z" stroke="black" stroke-width="0.0444635"/>
<path d="M15.5422 14.2175C15.5422 14.2175 15.5511 14.8581 15.9689 14.7691C16.3866 14.6801 16.3422 14.1552 16.3689 14.1285C16.4044 14.1019 16.4489 14.1019 16.4489 14.1019C16.4489 14.1019 16.5022 14.609 16.8933 14.5467C17.2844 14.4844 17.2666 13.8617 17.2222 13.7549L17.3111 13.7282C17.3111 13.7282 17.4622 14.4577 17.9066 14.351C18.3511 14.2442 18.3066 13.7816 18.3066 13.7816H18.3422C18.3422 13.7816 18.44 14.2798 18.8044 14.2442C19.16 14.2175 19.2311 14.1019 19.1866 13.6037L19.4266 13.5592C19.4266 13.5592 19.3378 14.2709 19.7733 14.2709C20.2 14.2442 20.2178 13.9061 20.2444 13.8439H20.3155C20.3155 13.8439 20.3333 14.351 20.6978 14.351C21.0533 14.351 21.1244 13.9239 21.1244 13.7549L21.48 13.7727C21.48 13.7727 21.1066 14.4399 21.6489 14.5289C22.1822 14.6179 22.2 14.1019 22.2 14.1019H22.3067C22.3067 14.1019 22.2889 14.7691 22.5822 14.7869C22.8844 14.7958 23.0622 14.6979 23.0889 14.1997L23.2578 14.262C23.2578 14.262 23.1155 15.0627 22.5555 14.9203C22.2622 14.8403 22.1644 14.5022 22.1822 14.4132C22.1822 14.4132 21.9778 14.7869 21.5689 14.6623C21.1689 14.5467 21.2133 14.262 21.2133 14.173C21.2133 14.173 20.9733 14.6179 20.6355 14.52C20.3333 14.431 20.2178 14.3243 20.2178 14.1108C20.2178 14.1108 20.0666 14.4577 19.7733 14.4399C19.4711 14.431 19.3289 14.2442 19.3111 14.0841C19.3111 14.0841 19.2489 14.4043 18.8489 14.431C18.5822 14.4399 18.4311 14.3065 18.3689 14.1285C18.3689 14.1285 18.2889 14.4488 17.9066 14.5022C17.6666 14.5289 17.4266 14.3954 17.3733 14.173C17.3733 14.173 17.3111 14.609 16.9289 14.6623C16.5377 14.7246 16.4489 14.4577 16.4489 14.4577C16.4489 14.4577 16.3689 14.7958 16.0577 14.8759C15.7466 14.947 15.5422 14.8136 15.4622 14.5022C15.3911 14.1908 15.4177 14.0574 15.4177 14.0574L15.5422 14.2175Z" fill="#FFCC00"/>
<path d="M15.5422 14.2175C15.5422 14.2175 15.5511 14.8581 15.9689 14.7691C16.3866 14.6801 16.3422 14.1552 16.3689 14.1285C16.4044 14.1019 16.4489 14.1019 16.4489 14.1019C16.4489 14.1019 16.5022 14.609 16.8933 14.5467C17.2844 14.4844 17.2666 13.8617 17.2222 13.7549L17.3111 13.7282C17.3111 13.7282 17.4622 14.4577 17.9066 14.351C18.3511 14.2442 18.3066 13.7816 18.3066 13.7816H18.3422C18.3422 13.7816 18.44 14.2798 18.8044 14.2442C19.16 14.2175 19.2311 14.1019 19.1866 13.6037L19.4266 13.5592C19.4266 13.5592 19.3378 14.2709 19.7733 14.2709C20.2 14.2442 20.2178 13.9061 20.2444 13.8439H20.3155C20.3155 13.8439 20.3333 14.351 20.6978 14.351C21.0533 14.351 21.1244 13.9239 21.1244 13.7549L21.48 13.7727C21.48 13.7727 21.1066 14.4399 21.6489 14.5289C22.1822 14.6179 22.2 14.1019 22.2 14.1019H22.3067C22.3067 14.1019 22.2889 14.7691 22.5822 14.7869C22.8844 14.7958 23.0622 14.6979 23.0889 14.1997L23.2578 14.262C23.2578 14.262 23.1155 15.0627 22.5555 14.9203C22.2622 14.8403 22.1644 14.5022 22.1822 14.4132C22.1822 14.4132 21.9778 14.7869 21.5689 14.6623C21.1689 14.5467 21.2133 14.262 21.2133 14.173C21.2133 14.173 20.9733 14.6179 20.6355 14.52C20.3333 14.431 20.2178 14.3243 20.2178 14.1108C20.2178 14.1108 20.0666 14.4577 19.7733 14.4399C19.4711 14.431 19.3289 14.2442 19.3111 14.0841C19.3111 14.0841 19.2489 14.4043 18.8489 14.431C18.5822 14.4399 18.4311 14.3065 18.3689 14.1285C18.3689 14.1285 18.2889 14.4488 17.9066 14.5022C17.6666 14.5289 17.4266 14.3954 17.3733 14.173C17.3733 14.173 17.3111 14.609 16.9289 14.6623C16.5377 14.7246 16.4489 14.4577 16.4489 14.4577C16.4489 14.4577 16.3689 14.7958 16.0577 14.8759C15.7466 14.947 15.5422 14.8136 15.4622 14.5022C15.3911 14.1908 15.4177 14.0574 15.4177 14.0574L15.5422 14.2175Z" fill="#BCAC0B" stroke="black" stroke-width="0.062249"/>
<path d="M16.4045 14.2442C16.4268 14.2497 16.45 14.2501 16.4725 14.2453C16.4949 14.2405 16.5159 14.2307 16.534 14.2165C16.5521 14.2024 16.5667 14.1843 16.5767 14.1637C16.5868 14.143 16.592 14.1204 16.592 14.0974C16.592 14.0744 16.5868 14.0518 16.5767 14.0311C16.5667 14.0105 16.5521 13.9924 16.534 13.9783C16.5159 13.9641 16.4949 13.9543 16.4725 13.9495C16.45 13.9447 16.4268 13.9451 16.4045 13.9506C16.3718 13.9587 16.3427 13.9776 16.3219 14.0042C16.3011 14.0308 16.2898 14.0636 16.2898 14.0974C16.2898 14.1312 16.3011 14.164 16.3219 14.1906C16.3427 14.2172 16.3718 14.2361 16.4045 14.2442Z" fill="#FFCC00"/>
<path d="M16.4045 14.2442C16.4268 14.2497 16.45 14.2501 16.4725 14.2453C16.4949 14.2405 16.5159 14.2307 16.534 14.2165C16.5521 14.2024 16.5667 14.1843 16.5767 14.1637C16.5868 14.143 16.592 14.1204 16.592 14.0974C16.592 14.0744 16.5868 14.0518 16.5767 14.0311C16.5667 14.0105 16.5521 13.9924 16.534 13.9783C16.5159 13.9641 16.4949 13.9543 16.4725 13.9495C16.45 13.9447 16.4268 13.9451 16.4045 13.9506C16.3718 13.9587 16.3427 13.9776 16.3219 14.0042C16.3011 14.0308 16.2898 14.0636 16.2898 14.0974C16.2898 14.1312 16.3011 14.164 16.3219 14.1906C16.3427 14.2172 16.3718 14.2361 16.4045 14.2442Z" fill="#BCAC0B" stroke="black" stroke-width="0.062249"/>
<path d="M18.3423 13.9328C18.3645 13.9384 18.3878 13.9387 18.4102 13.9339C18.4326 13.9291 18.4537 13.9193 18.4718 13.9052C18.4898 13.891 18.5044 13.8729 18.5145 13.8523C18.5245 13.8317 18.5298 13.809 18.5298 13.786C18.5298 13.7631 18.5245 13.7404 18.5145 13.7198C18.5044 13.6991 18.4898 13.6811 18.4718 13.6669C18.4537 13.6528 18.4326 13.6429 18.4102 13.6381C18.3878 13.6333 18.3645 13.6337 18.3423 13.6392C18.3095 13.6474 18.2804 13.6662 18.2596 13.6929C18.2388 13.7195 18.2275 13.7523 18.2275 13.786C18.2275 13.8198 18.2388 13.8526 18.2596 13.8792C18.2804 13.9058 18.3095 13.9247 18.3423 13.9328Z" fill="#FFCC00"/>
<path d="M18.3423 13.9328C18.3645 13.9384 18.3878 13.9387 18.4102 13.9339C18.4326 13.9291 18.4537 13.9193 18.4718 13.9052C18.4898 13.891 18.5044 13.8729 18.5145 13.8523C18.5245 13.8317 18.5298 13.809 18.5298 13.786C18.5298 13.7631 18.5245 13.7404 18.5145 13.7198C18.5044 13.6991 18.4898 13.6811 18.4718 13.6669C18.4537 13.6528 18.4326 13.6429 18.4102 13.6381C18.3878 13.6333 18.3645 13.6337 18.3423 13.6392C18.3095 13.6474 18.2804 13.6662 18.2596 13.6929C18.2388 13.7195 18.2275 13.7523 18.2275 13.786C18.2275 13.8198 18.2388 13.8526 18.2596 13.8792C18.2804 13.9058 18.3095 13.9247 18.3423 13.9328Z" fill="#BCAC0B" stroke="black" stroke-width="0.062249"/>
<path d="M20.3157 13.9951C20.3379 14.0006 20.3612 14.001 20.3836 13.9962C20.406 13.9914 20.4271 13.9816 20.4451 13.9674C20.4632 13.9533 20.4778 13.9352 20.4879 13.9146C20.4979 13.8939 20.5032 13.8713 20.5032 13.8483C20.5032 13.8254 20.4979 13.8027 20.4879 13.7821C20.4778 13.7614 20.4632 13.7433 20.4451 13.7292C20.4271 13.7151 20.406 13.7052 20.3836 13.7004C20.3612 13.6956 20.3379 13.696 20.3157 13.7015C20.2829 13.7097 20.2538 13.7285 20.233 13.7551C20.2122 13.7817 20.2009 13.8145 20.2009 13.8483C20.2009 13.8821 20.2122 13.9149 20.233 13.9415C20.2538 13.9681 20.2829 13.987 20.3157 13.9951Z" fill="#FFCC00"/>
<path d="M20.3157 13.9951C20.3379 14.0006 20.3612 14.001 20.3836 13.9962C20.406 13.9914 20.4271 13.9816 20.4451 13.9674C20.4632 13.9533 20.4778 13.9352 20.4879 13.9146C20.4979 13.8939 20.5032 13.8713 20.5032 13.8483C20.5032 13.8254 20.4979 13.8027 20.4879 13.7821C20.4778 13.7614 20.4632 13.7433 20.4451 13.7292C20.4271 13.7151 20.406 13.7052 20.3836 13.7004C20.3612 13.6956 20.3379 13.696 20.3157 13.7015C20.2829 13.7097 20.2538 13.7285 20.233 13.7551C20.2122 13.7817 20.2009 13.8145 20.2009 13.8483C20.2009 13.8821 20.2122 13.9149 20.233 13.9415C20.2538 13.9681 20.2829 13.987 20.3157 13.9951Z" fill="#BCAC0B" stroke="black" stroke-width="0.062249"/>
<path d="M22.2622 14.3065C22.2845 14.312 22.3077 14.3124 22.3301 14.3076C22.3526 14.3028 22.3736 14.293 22.3917 14.2788C22.4097 14.2647 22.4244 14.2466 22.4344 14.226C22.4445 14.2053 22.4497 14.1827 22.4497 14.1597C22.4497 14.1367 22.4445 14.1141 22.4344 14.0934C22.4244 14.0728 22.4097 14.0547 22.3917 14.0406C22.3736 14.0264 22.3526 14.0166 22.3301 14.0118C22.3077 14.007 22.2845 14.0074 22.2622 14.0129C22.2294 14.021 22.2003 14.0399 22.1796 14.0665C22.1588 14.0931 22.1475 14.1259 22.1475 14.1597C22.1475 14.1935 22.1588 14.2263 22.1796 14.2529C22.2003 14.2795 22.2294 14.2984 22.2622 14.3065Z" fill="#FFCC00"/>
<path d="M22.2622 14.3065C22.2845 14.312 22.3077 14.3124 22.3301 14.3076C22.3526 14.3028 22.3736 14.293 22.3917 14.2788C22.4097 14.2647 22.4244 14.2466 22.4344 14.226C22.4445 14.2053 22.4497 14.1827 22.4497 14.1597C22.4497 14.1367 22.4445 14.1141 22.4344 14.0934C22.4244 14.0728 22.4097 14.0547 22.3917 14.0406C22.3736 14.0264 22.3526 14.0166 22.3301 14.0118C22.3077 14.007 22.2845 14.0074 22.2622 14.0129C22.2294 14.021 22.2003 14.0399 22.1796 14.0665C22.1588 14.0931 22.1475 14.1259 22.1475 14.1597C22.1475 14.1935 22.1588 14.2263 22.1796 14.2529C22.2003 14.2795 22.2294 14.2984 22.2622 14.3065Z" fill="#BCAC0B" stroke="black" stroke-width="0.062249"/>
<path d="M19.24 13.7727H19.1066C19.0711 13.9061 18.7866 13.9862 18.7866 13.9862C18.7511 13.8795 18.8311 13.7282 18.8311 13.7282C18.5022 13.6393 18.5022 13.5325 18.5022 13.5325C18.5466 13.4168 18.8578 13.399 18.8578 13.399C18.7689 13.3012 18.7866 13.1322 18.7866 13.1322C18.9911 13.1499 19.16 13.3546 19.16 13.3546C19.16 13.3546 18.9555 13.2478 18.9822 12.8919C18.9822 12.8919 19.0889 12.8919 19.16 12.9631C19.16 12.9631 19.16 12.5717 19.32 12.5272H19.3378C19.4978 12.5717 19.4978 12.9631 19.4978 12.9631C19.5689 12.8831 19.6755 12.8919 19.6755 12.8919C19.7022 13.2478 19.4978 13.3546 19.4978 13.3546C19.4978 13.3546 19.6666 13.1499 19.8711 13.141C19.8711 13.141 19.88 13.3012 19.8089 13.4079C19.8089 13.4079 20.1111 13.4168 20.1644 13.5325C20.1644 13.5325 20.1644 13.6482 19.8266 13.7282C19.8266 13.7282 19.8978 13.8795 19.8711 13.9951C19.8711 13.9951 19.5778 13.9061 19.5511 13.7727H19.24Z" fill="#FFCC00"/>
<path d="M19.24 13.7727H19.1066C19.0711 13.9061 18.7866 13.9862 18.7866 13.9862C18.7511 13.8795 18.8311 13.7282 18.8311 13.7282C18.5022 13.6393 18.5022 13.5325 18.5022 13.5325C18.5466 13.4168 18.8578 13.399 18.8578 13.399C18.7689 13.3012 18.7866 13.1322 18.7866 13.1322C18.9911 13.1499 19.16 13.3546 19.16 13.3546C19.16 13.3546 18.9555 13.2478 18.9822 12.8919C18.9822 12.8919 19.0889 12.8919 19.16 12.9631C19.16 12.9631 19.16 12.5717 19.32 12.5272H19.3378C19.4978 12.5717 19.4978 12.9631 19.4978 12.9631C19.5689 12.8831 19.6755 12.8919 19.6755 12.8919C19.7022 13.2478 19.4978 13.3546 19.4978 13.3546C19.4978 13.3546 19.6666 13.1499 19.8711 13.141C19.8711 13.141 19.88 13.3012 19.8089 13.4079C19.8089 13.4079 20.1111 13.4168 20.1644 13.5325C20.1644 13.5325 20.1644 13.6482 19.8266 13.7282C19.8266 13.7282 19.8978 13.8795 19.8711 13.9951C19.8711 13.9951 19.5778 13.9061 19.5511 13.7727H19.24Z" fill="#BCAC0B" stroke="black" stroke-width="0.062249"/>
<path d="M19.3111 13.8439C19.3818 13.8439 19.4497 13.8158 19.4997 13.7657C19.5497 13.7157 19.5778 13.6478 19.5778 13.577C19.5778 13.5062 19.5497 13.4383 19.4997 13.3883C19.4497 13.3382 19.3818 13.3101 19.3111 13.3101C19.2404 13.3101 19.1725 13.3382 19.1225 13.3883C19.0725 13.4383 19.0444 13.5062 19.0444 13.577C19.0444 13.6478 19.0725 13.7157 19.1225 13.7657C19.1725 13.8158 19.2404 13.8439 19.3111 13.8439Z" fill="white"/>
<path d="M19.3111 13.8439C19.3818 13.8439 19.4497 13.8158 19.4997 13.7657C19.5497 13.7157 19.5778 13.6478 19.5778 13.577C19.5778 13.5062 19.5497 13.4383 19.4997 13.3883C19.4497 13.3382 19.3818 13.3101 19.3111 13.3101C19.2404 13.3101 19.1725 13.3382 19.1225 13.3883C19.0725 13.4383 19.0444 13.5062 19.0444 13.577C19.0444 13.6478 19.0725 13.7157 19.1225 13.7657C19.1725 13.8158 19.2404 13.8439 19.3111 13.8439V13.8439Z" stroke="black" stroke-width="0.0355708"/>
<path d="M19.311 13.7282C19.3511 13.7282 19.3895 13.7123 19.4179 13.6839C19.4462 13.6555 19.4621 13.6171 19.4621 13.577C19.4621 13.5368 19.4462 13.4984 19.4179 13.47C19.3895 13.4417 19.3511 13.4257 19.311 13.4257C19.2709 13.4257 19.2325 13.4417 19.2042 13.47C19.1758 13.4984 19.1599 13.5368 19.1599 13.577C19.1599 13.6171 19.1758 13.6555 19.2042 13.6839C19.2325 13.7123 19.2709 13.7282 19.311 13.7282Z" fill="white"/>
<path d="M19.311 13.7282C19.3511 13.7282 19.3895 13.7123 19.4179 13.6839C19.4462 13.6555 19.4621 13.6171 19.4621 13.577C19.4621 13.5368 19.4462 13.4984 19.4179 13.47C19.3895 13.4417 19.3511 13.4257 19.311 13.4257C19.2709 13.4257 19.2325 13.4417 19.2042 13.47C19.1758 13.4984 19.1599 13.5368 19.1599 13.577C19.1599 13.6171 19.1758 13.6555 19.2042 13.6839C19.2325 13.7123 19.2709 13.7282 19.311 13.7282V13.7282Z" stroke="black" stroke-width="0.0266781"/>
<path d="M21.3646 13.9506L21.4979 13.9773C21.4979 14.1108 21.7646 14.2531 21.7646 14.2531C21.8179 14.1641 21.7735 13.9951 21.7735 13.9951C22.1201 13.9862 22.1379 13.8706 22.1379 13.8706C22.1201 13.746 21.8268 13.6659 21.8268 13.6659C21.9157 13.5859 21.9424 13.4257 21.9424 13.4257C21.7379 13.3902 21.5335 13.5503 21.5335 13.5503C21.5335 13.5503 21.7557 13.4969 21.8001 13.1411C21.8001 13.1411 21.7024 13.1144 21.6224 13.1677C21.6224 13.1677 21.7024 12.7941 21.5512 12.7229L21.5335 12.714C21.3646 12.714 21.2846 13.0966 21.2846 13.0966C21.2312 13.0076 21.1246 12.9987 21.1246 12.9987C21.0268 13.3368 21.2046 13.4791 21.2046 13.4791C21.2046 13.4791 21.0801 13.2478 20.8846 13.1944C20.8846 13.1944 20.8401 13.3546 20.8846 13.4613C20.8846 13.4613 20.5912 13.4168 20.5201 13.5147C20.5201 13.5147 20.4935 13.6304 20.7957 13.7816C20.7957 13.7816 20.6979 13.915 20.7068 14.0307C20.7068 14.0307 21.0001 14.004 21.0624 13.8795L21.1957 13.9062L21.3735 13.9417" fill="#FFCC00"/>
<path d="M21.3646 13.9506L21.4979 13.9773C21.4979 14.1108 21.7646 14.2531 21.7646 14.2531C21.8179 14.1641 21.7735 13.9951 21.7735 13.9951C22.1201 13.9862 22.1379 13.8706 22.1379 13.8706C22.1201 13.746 21.8268 13.6659 21.8268 13.6659C21.9157 13.5859 21.9424 13.4257 21.9424 13.4257C21.7379 13.3902 21.5335 13.5503 21.5335 13.5503C21.5335 13.5503 21.7557 13.4969 21.8001 13.1411C21.8001 13.1411 21.7024 13.1144 21.6224 13.1677C21.6224 13.1677 21.7024 12.7941 21.5512 12.7229L21.5335 12.714C21.3646 12.714 21.2846 13.0966 21.2846 13.0966C21.2312 13.0076 21.1246 12.9987 21.1246 12.9987C21.0268 13.3368 21.2046 13.4791 21.2046 13.4791C21.2046 13.4791 21.0801 13.2478 20.8846 13.1944C20.8846 13.1944 20.8401 13.3546 20.8846 13.4613C20.8846 13.4613 20.5912 13.4168 20.5201 13.5147C20.5201 13.5147 20.4935 13.6304 20.7957 13.7816C20.7957 13.7816 20.6979 13.915 20.7068 14.0307C20.7068 14.0307 21.0001 14.004 21.0624 13.8795L21.1957 13.9062L21.3735 13.9417" fill="#BCAC0B"/>
<path d="M21.3646 13.9506L21.4979 13.9773C21.4979 14.1108 21.7646 14.2531 21.7646 14.2531C21.8179 14.1641 21.7735 13.9951 21.7735 13.9951C22.1201 13.9862 22.1379 13.8706 22.1379 13.8706C22.1201 13.746 21.8268 13.6659 21.8268 13.6659C21.9157 13.5859 21.9424 13.4257 21.9424 13.4257C21.7379 13.3902 21.5335 13.5503 21.5335 13.5503C21.5335 13.5503 21.7557 13.4969 21.8001 13.1411C21.8001 13.1411 21.7024 13.1144 21.6224 13.1677C21.6224 13.1677 21.7024 12.7941 21.5512 12.7229L21.5335 12.714C21.3646 12.714 21.2846 13.0966 21.2846 13.0966C21.2312 13.0076 21.1246 12.9987 21.1246 12.9987C21.0268 13.3368 21.2046 13.4791 21.2046 13.4791C21.2046 13.4791 21.0801 13.2478 20.8846 13.1944C20.8846 13.1944 20.8401 13.3546 20.8846 13.4613C20.8846 13.4613 20.5912 13.4168 20.5201 13.5147C20.5201 13.5147 20.4935 13.6304 20.7957 13.7816C20.7957 13.7816 20.6979 13.915 20.7068 14.0307C20.7068 14.0307 21.0001 14.004 21.0624 13.8795L21.1957 13.9062L21.3735 13.9417" stroke="black" stroke-width="0.062249"/>
<path d="M21.2668 14.004C21.2318 13.9958 21.1987 13.9808 21.1695 13.9599C21.1402 13.9389 21.1154 13.9124 21.0964 13.8818C21.0775 13.8512 21.0647 13.8172 21.0588 13.7817C21.053 13.7462 21.0542 13.7099 21.0623 13.6748C21.0705 13.6398 21.0855 13.6067 21.1064 13.5774C21.1274 13.5482 21.1539 13.5233 21.1844 13.5043C21.215 13.4853 21.249 13.4726 21.2844 13.4667C21.3199 13.4608 21.3562 13.462 21.3912 13.4702C21.462 13.4855 21.5237 13.5284 21.5629 13.5893C21.602 13.6502 21.6154 13.7241 21.6001 13.7949C21.5848 13.8657 21.542 13.9275 21.4812 13.9667C21.4203 14.0059 21.3464 14.0193 21.2757 14.004" fill="white"/>
<path d="M21.2668 14.004C21.2318 13.9958 21.1987 13.9808 21.1695 13.9599C21.1402 13.9389 21.1154 13.9124 21.0964 13.8818C21.0775 13.8512 21.0647 13.8172 21.0588 13.7817C21.053 13.7462 21.0542 13.7099 21.0623 13.6748C21.0705 13.6398 21.0855 13.6067 21.1064 13.5774C21.1274 13.5482 21.1539 13.5233 21.1844 13.5043C21.215 13.4853 21.249 13.4726 21.2844 13.4667C21.3199 13.4608 21.3562 13.462 21.3912 13.4702C21.462 13.4855 21.5237 13.5284 21.5629 13.5893C21.602 13.6502 21.6154 13.7241 21.6001 13.7949C21.5848 13.8657 21.542 13.9275 21.4812 13.9667C21.4203 14.0059 21.3464 14.0193 21.2757 14.004H21.2668Z" stroke="black" stroke-width="0.0355708"/>
<path d="M21.3023 13.8883C21.2809 13.8865 21.2602 13.8802 21.2414 13.8698C21.2227 13.8594 21.2064 13.845 21.1936 13.8278C21.1808 13.8106 21.1719 13.7909 21.1673 13.7699C21.1627 13.7489 21.1627 13.7272 21.1671 13.7063C21.1716 13.6853 21.1804 13.6655 21.1931 13.6482C21.2058 13.6309 21.222 13.6165 21.2407 13.6059C21.2593 13.5954 21.28 13.5889 21.3014 13.587C21.3227 13.5851 21.3442 13.5877 21.3645 13.5948C21.3993 13.6068 21.4284 13.6312 21.4465 13.6633C21.4646 13.6954 21.4704 13.733 21.4628 13.769C21.4551 13.8051 21.4346 13.8371 21.405 13.859C21.3755 13.881 21.3389 13.8914 21.3023 13.8883Z" fill="white"/>
<path d="M21.3023 13.8883C21.2809 13.8865 21.2602 13.8802 21.2414 13.8698C21.2227 13.8594 21.2064 13.845 21.1936 13.8278C21.1808 13.8106 21.1719 13.7909 21.1673 13.7699C21.1627 13.7489 21.1627 13.7272 21.1671 13.7063C21.1716 13.6853 21.1804 13.6655 21.1931 13.6482C21.2058 13.6309 21.222 13.6165 21.2407 13.6059C21.2593 13.5954 21.28 13.5889 21.3014 13.587C21.3227 13.5851 21.3442 13.5877 21.3645 13.5948C21.3993 13.6068 21.4284 13.6312 21.4465 13.6633C21.4646 13.6954 21.4704 13.733 21.4628 13.769C21.4551 13.8051 21.4346 13.8371 21.405 13.859C21.3755 13.881 21.3389 13.8914 21.3023 13.8883V13.8883Z" stroke="black" stroke-width="0.0266781"/>
<path d="M17.2045 13.9151L17.0712 13.9328C17.0534 14.0752 16.7778 14.1997 16.7778 14.1997C16.7334 14.093 16.7778 13.9328 16.7778 13.9328C16.4489 13.8973 16.4312 13.7816 16.4312 13.7816C16.4667 13.6659 16.7689 13.6037 16.7689 13.6037C16.68 13.5147 16.6712 13.3546 16.6712 13.3546C16.8667 13.3368 17.0623 13.5147 17.0623 13.5147C17.0623 13.5147 16.8489 13.4435 16.8223 13.0877C16.8223 13.0877 16.9378 13.061 17.0089 13.1233C17.0089 13.1233 16.9645 12.7407 17.1156 12.6784H17.1334C17.3023 12.6962 17.3467 13.0788 17.3467 13.0788C17.4089 12.9987 17.5245 12.9898 17.5245 12.9898C17.5867 13.3457 17.4 13.4702 17.4 13.4702C17.4 13.4702 17.5423 13.2478 17.7378 13.2033C17.7378 13.2033 17.7734 13.3724 17.7112 13.4791C17.7112 13.4791 18.0134 13.4524 18.0756 13.5681C18.0756 13.5681 18.0934 13.6748 17.7734 13.7994C17.7734 13.7994 17.8623 13.9417 17.8534 14.0485C17.8534 14.0485 17.56 14.004 17.4978 13.8706L17.3734 13.8973L17.1956 13.9151" fill="#FFCC00"/>
<path d="M17.2045 13.9151L17.0712 13.9328C17.0534 14.0752 16.7778 14.1997 16.7778 14.1997C16.7334 14.093 16.7778 13.9328 16.7778 13.9328C16.4489 13.8973 16.4312 13.7816 16.4312 13.7816C16.4667 13.6659 16.7689 13.6037 16.7689 13.6037C16.68 13.5147 16.6712 13.3546 16.6712 13.3546C16.8667 13.3368 17.0623 13.5147 17.0623 13.5147C17.0623 13.5147 16.8489 13.4435 16.8223 13.0877C16.8223 13.0877 16.9378 13.061 17.0089 13.1233C17.0089 13.1233 16.9645 12.7407 17.1156 12.6784H17.1334C17.3023 12.6962 17.3467 13.0788 17.3467 13.0788C17.4089 12.9987 17.5245 12.9898 17.5245 12.9898C17.5867 13.3457 17.4 13.4702 17.4 13.4702C17.4 13.4702 17.5423 13.2478 17.7378 13.2033C17.7378 13.2033 17.7734 13.3724 17.7112 13.4791C17.7112 13.4791 18.0134 13.4524 18.0756 13.5681C18.0756 13.5681 18.0934 13.6748 17.7734 13.7994C17.7734 13.7994 17.8623 13.9417 17.8534 14.0485C17.8534 14.0485 17.56 14.004 17.4978 13.8706L17.3734 13.8973L17.1956 13.9151" fill="#BCAC0B"/>
<path d="M17.2045 13.9151L17.0712 13.9328C17.0534 14.0752 16.7778 14.1997 16.7778 14.1997C16.7334 14.093 16.7778 13.9328 16.7778 13.9328C16.4489 13.8973 16.4312 13.7816 16.4312 13.7816C16.4667 13.6659 16.7689 13.6037 16.7689 13.6037C16.68 13.5147 16.6712 13.3546 16.6712 13.3546C16.8667 13.3368 17.0623 13.5147 17.0623 13.5147C17.0623 13.5147 16.8489 13.4435 16.8223 13.0877C16.8223 13.0877 16.9378 13.061 17.0089 13.1233C17.0089 13.1233 16.9645 12.7407 17.1156 12.6784H17.1334C17.3023 12.6962 17.3467 13.0788 17.3467 13.0788C17.4089 12.9987 17.5245 12.9898 17.5245 12.9898C17.5867 13.3457 17.4 13.4702 17.4 13.4702C17.4 13.4702 17.5423 13.2478 17.7378 13.2033C17.7378 13.2033 17.7734 13.3724 17.7112 13.4791C17.7112 13.4791 18.0134 13.4524 18.0756 13.5681C18.0756 13.5681 18.0934 13.6748 17.7734 13.7994C17.7734 13.7994 17.8623 13.9417 17.8534 14.0485C17.8534 14.0485 17.56 14.004 17.4978 13.8706L17.3734 13.8973L17.1956 13.9151" stroke="black" stroke-width="0.062249"/>
<path d="M17.2846 13.9862C17.3196 13.9816 17.3533 13.97 17.3839 13.9523C17.4145 13.9346 17.4413 13.911 17.4627 13.8829C17.4842 13.8548 17.4999 13.8228 17.509 13.7886C17.5181 13.7544 17.5203 13.7188 17.5157 13.6837C17.511 13.6487 17.4995 13.6149 17.4818 13.5843C17.4641 13.5537 17.4405 13.5269 17.4124 13.5054C17.3844 13.484 17.3523 13.4682 17.3182 13.4591C17.2841 13.45 17.2485 13.4478 17.2135 13.4524C17.1427 13.4619 17.0786 13.499 17.0353 13.5558C16.992 13.6125 16.9729 13.6841 16.9823 13.7549C16.9918 13.8257 17.0289 13.8898 17.0856 13.9332C17.1423 13.9766 17.2138 13.9957 17.2846 13.9862Z" fill="white"/>
<path d="M17.2846 13.9862C17.3196 13.9816 17.3533 13.97 17.3839 13.9523C17.4145 13.9346 17.4413 13.911 17.4627 13.8829C17.4842 13.8548 17.4999 13.8228 17.509 13.7886C17.5181 13.7544 17.5203 13.7188 17.5157 13.6837C17.511 13.6487 17.4995 13.6149 17.4818 13.5843C17.4641 13.5537 17.4405 13.5269 17.4124 13.5054C17.3844 13.484 17.3523 13.4682 17.3182 13.4591C17.2841 13.45 17.2485 13.4478 17.2135 13.4524C17.1427 13.4619 17.0786 13.499 17.0353 13.5558C16.992 13.6125 16.9729 13.6841 16.9823 13.7549C16.9918 13.8257 17.0289 13.8898 17.0856 13.9332C17.1423 13.9766 17.2138 13.9957 17.2846 13.9862V13.9862Z" stroke="black" stroke-width="0.0355708"/>
<path d="M17.2668 13.8617C17.2892 13.8637 17.3118 13.8607 17.333 13.8529C17.3541 13.8451 17.3732 13.8326 17.3889 13.8164C17.4046 13.8002 17.4165 13.7807 17.4237 13.7593C17.4309 13.738 17.4332 13.7152 17.4305 13.6929C17.4278 13.6705 17.4201 13.649 17.408 13.6299C17.3959 13.6109 17.3798 13.5948 17.3606 13.5828C17.3415 13.5709 17.32 13.5633 17.2976 13.5608C17.2752 13.5582 17.2525 13.5607 17.2312 13.5681C17.1985 13.5794 17.1707 13.6015 17.1524 13.6308C17.1341 13.6602 17.1263 13.6949 17.1305 13.7293C17.1347 13.7636 17.1504 13.7955 17.1752 13.8196C17.2 13.8437 17.2324 13.8585 17.2668 13.8617Z" fill="white"/>
<path d="M17.2668 13.8617C17.2892 13.8637 17.3118 13.8607 17.333 13.8529C17.3541 13.8451 17.3732 13.8326 17.3889 13.8164C17.4046 13.8002 17.4165 13.7807 17.4237 13.7593C17.4309 13.738 17.4332 13.7152 17.4305 13.6929C17.4278 13.6705 17.4201 13.649 17.408 13.6299C17.3959 13.6109 17.3798 13.5948 17.3606 13.5828C17.3415 13.5709 17.32 13.5633 17.2976 13.5608C17.2752 13.5582 17.2525 13.5607 17.2312 13.5681C17.1985 13.5794 17.1707 13.6015 17.1524 13.6308C17.1341 13.6602 17.1263 13.6949 17.1305 13.7293C17.1347 13.7636 17.1504 13.7955 17.1752 13.8196C17.2 13.8437 17.2324 13.8585 17.2668 13.8617V13.8617Z" stroke="black" stroke-width="0.0266781"/>
<path d="M23.24 14.4933C23.24 14.4933 23.1689 14.3154 23.0178 14.3777C22.8666 14.4399 22.8844 14.4666 22.7511 14.4666C22.7511 14.4666 22.6978 14.2976 22.7689 14.2264C22.7689 14.2264 22.5555 14.1463 22.5022 13.9595C22.5022 13.9595 22.6178 13.8261 22.8933 13.8794C22.8933 13.8794 22.8844 13.746 22.92 13.6837C22.92 13.6837 23.2133 13.7727 23.2133 13.9417C23.2133 13.9417 23.1244 13.6214 23.2844 13.3901C23.2844 13.3901 23.4178 13.4435 23.4089 13.5948C23.4089 13.5948 23.4711 13.2923 23.8711 13.3723C23.8711 13.3723 23.6578 13.5681 23.6489 13.657C23.6311 13.746 23.4533 13.8972 23.4444 13.9506C23.4444 13.9951 23.4266 14.0841 23.3733 14.1374C23.32 14.1908 23.3111 14.2798 23.3111 14.3154C23.3111 14.3332 23.3111 14.4577 23.24 14.4933Z" fill="#FFCC00"/>
<path d="M23.24 14.4933C23.24 14.4933 23.1689 14.3154 23.0178 14.3777C22.8666 14.4399 22.8844 14.4666 22.7511 14.4666C22.7511 14.4666 22.6978 14.2976 22.7689 14.2264C22.7689 14.2264 22.5555 14.1463 22.5022 13.9595C22.5022 13.9595 22.6178 13.8261 22.8933 13.8794C22.8933 13.8794 22.8844 13.746 22.92 13.6837C22.92 13.6837 23.2133 13.7727 23.2133 13.9417C23.2133 13.9417 23.1244 13.6214 23.2844 13.3901C23.2844 13.3901 23.4178 13.4435 23.4089 13.5948C23.4089 13.5948 23.4711 13.2923 23.8711 13.3723C23.8711 13.3723 23.6578 13.5681 23.6489 13.657C23.6311 13.746 23.4533 13.8972 23.4444 13.9506C23.4444 13.9951 23.4266 14.0841 23.3733 14.1374C23.32 14.1908 23.3111 14.2798 23.3111 14.3154C23.3111 14.3332 23.3111 14.4577 23.24 14.4933Z" fill="#BCAC0B" stroke="black" stroke-width="0.062249"/>
<path d="M23.0178 14.1375C23.0263 14.0924 23.0463 14.0504 23.0757 14.0153C23.1052 13.9803 23.1432 13.9534 23.1861 13.9373C23.229 13.9213 23.2753 13.9165 23.3205 13.9235C23.3657 13.9305 23.4084 13.949 23.4444 13.9773C23.4444 14.0218 23.4178 14.093 23.3733 14.1375C23.32 14.1908 23.3111 14.2798 23.3111 14.3154C23.3128 14.3652 23.3004 14.4145 23.2755 14.4577H23.2311C23.1957 14.4514 23.162 14.438 23.132 14.4183C23.1019 14.3986 23.0762 14.373 23.0563 14.3431C23.0363 14.3132 23.0227 14.2795 23.016 14.2442C23.0094 14.2089 23.01 14.1726 23.0178 14.1375Z" fill="white"/>
<path d="M23.0178 14.1375C23.0263 14.0924 23.0463 14.0504 23.0757 14.0153C23.1052 13.9803 23.1432 13.9534 23.1861 13.9373C23.229 13.9213 23.2753 13.9165 23.3205 13.9235C23.3657 13.9305 23.4084 13.949 23.4444 13.9773C23.4444 14.0218 23.4178 14.093 23.3733 14.1375C23.32 14.1908 23.3111 14.2798 23.3111 14.3154C23.3128 14.3652 23.3004 14.4145 23.2755 14.4577H23.2311C23.1957 14.4514 23.162 14.438 23.132 14.4183C23.1019 14.3986 23.0762 14.373 23.0563 14.3431C23.0363 14.3132 23.0227 14.2795 23.016 14.2442C23.0094 14.2089 23.01 14.1726 23.0178 14.1375V14.1375Z" stroke="black" stroke-width="0.0355708"/>
<path d="M23.1333 14.1642C23.1392 14.136 23.1531 14.1101 23.1732 14.0896C23.1933 14.069 23.2188 14.0546 23.2468 14.0481C23.2748 14.0415 23.3041 14.0431 23.3312 14.0526C23.3584 14.0622 23.3822 14.0793 23.4 14.1019L23.3733 14.1375C23.32 14.1908 23.3111 14.2798 23.3111 14.3154V14.3332H23.2577C23.1689 14.3243 23.1244 14.2442 23.1422 14.1553" fill="white"/>
<path d="M23.1333 14.1642C23.1392 14.136 23.1531 14.1101 23.1732 14.0896C23.1933 14.069 23.2188 14.0546 23.2468 14.0481C23.2748 14.0415 23.3041 14.0431 23.3312 14.0526C23.3584 14.0622 23.3822 14.0793 23.4 14.1019L23.3733 14.1375C23.32 14.1908 23.3111 14.2798 23.3111 14.3154V14.3332H23.2577C23.1689 14.3243 23.1244 14.2442 23.1422 14.1553L23.1333 14.1642Z" stroke="black" stroke-width="0.0266781"/>
<path d="M15.4178 14.4221C15.4178 14.4221 15.4889 14.2442 15.64 14.3154C15.7822 14.3954 15.7644 14.4132 15.9067 14.4132C15.9067 14.4132 15.96 14.2531 15.9067 14.1819C15.9067 14.1819 16.12 14.1197 16.1733 13.9328C16.1733 13.9328 16.0667 13.7905 15.7911 13.8261C15.7911 13.8261 15.8089 13.6926 15.7733 13.6303C15.7733 13.6303 15.48 13.7015 15.4711 13.8617C15.4711 13.8617 15.5778 13.5503 15.4355 13.3101C15.4355 13.3101 15.2933 13.3634 15.2933 13.5058C15.2933 13.5058 15.2489 13.2033 14.8489 13.2656C14.8489 13.2656 15.0533 13.4702 15.0533 13.5592C15.0533 13.6481 15.2311 13.8083 15.2311 13.8617C15.2311 13.9061 15.2489 14.004 15.3022 14.0574C15.3555 14.1108 15.3555 14.1997 15.3467 14.2353C15.3467 14.2531 15.3467 14.3777 15.4178 14.4132" fill="#FFCC00"/>
<path d="M15.4178 14.4221C15.4178 14.4221 15.4889 14.2442 15.64 14.3154C15.7822 14.3954 15.7644 14.4132 15.9067 14.4132C15.9067 14.4132 15.96 14.2531 15.9067 14.1819C15.9067 14.1819 16.12 14.1197 16.1733 13.9328C16.1733 13.9328 16.0667 13.7905 15.7911 13.8261C15.7911 13.8261 15.8089 13.6926 15.7733 13.6303C15.7733 13.6303 15.48 13.7015 15.4711 13.8617C15.4711 13.8617 15.5778 13.5503 15.4355 13.3101C15.4355 13.3101 15.2933 13.3634 15.2933 13.5058C15.2933 13.5058 15.2489 13.2033 14.8489 13.2656C14.8489 13.2656 15.0533 13.4702 15.0533 13.5592C15.0533 13.6481 15.2311 13.8083 15.2311 13.8617C15.2311 13.9061 15.2489 14.004 15.3022 14.0574C15.3555 14.1108 15.3555 14.1997 15.3467 14.2353C15.3467 14.2531 15.3467 14.3777 15.4178 14.4132V14.4221Z" fill="#BCAC0B" stroke="black" stroke-width="0.062249"/>
<path d="M15.6489 14.0752C15.6414 14.0316 15.6231 13.9905 15.5958 13.9557C15.5685 13.9209 15.533 13.8934 15.4924 13.8758C15.4519 13.8581 15.4076 13.8508 15.3635 13.8546C15.3194 13.8583 15.277 13.873 15.24 13.8973C15.24 13.9417 15.2578 14.0129 15.3022 14.0574C15.3555 14.1108 15.3555 14.1997 15.3467 14.2353C15.3467 14.2531 15.3467 14.3243 15.3822 14.3866H15.4178C15.4538 14.3823 15.4886 14.3707 15.52 14.3525C15.5513 14.3343 15.5787 14.3098 15.6003 14.2807C15.622 14.2515 15.6374 14.2183 15.6458 14.183C15.6541 14.1476 15.6552 14.1109 15.6489 14.0752Z" fill="white"/>
<path d="M15.6489 14.0752C15.6414 14.0316 15.6231 13.9905 15.5958 13.9557C15.5685 13.9209 15.533 13.8934 15.4924 13.8758C15.4519 13.8581 15.4076 13.8508 15.3635 13.8546C15.3194 13.8583 15.277 13.873 15.24 13.8973C15.24 13.9417 15.2578 14.0129 15.3022 14.0574C15.3555 14.1108 15.3555 14.1997 15.3467 14.2353C15.3467 14.2531 15.3467 14.3243 15.3822 14.3866H15.4178C15.4538 14.3823 15.4886 14.3707 15.52 14.3525C15.5513 14.3343 15.5787 14.3098 15.6003 14.2807C15.622 14.2515 15.6374 14.2183 15.6458 14.183C15.6541 14.1476 15.6552 14.1109 15.6489 14.0752Z" stroke="black" stroke-width="0.0355708"/>
<path d="M15.5333 14.093C15.5301 14.0634 15.5182 14.0355 15.4992 14.0126C15.4802 13.9897 15.4549 13.973 15.4265 13.9644C15.398 13.9559 15.3677 13.9559 15.3392 13.9646C15.3108 13.9732 15.2855 13.99 15.2666 14.0129L15.3022 14.0574C15.3555 14.1108 15.3555 14.1997 15.3466 14.2353V14.2531H15.4088C15.4888 14.2531 15.5422 14.173 15.5333 14.093Z" fill="white"/>
<path d="M15.5333 14.093C15.5301 14.0634 15.5182 14.0355 15.4992 14.0126C15.4802 13.9897 15.4549 13.973 15.4265 13.9644C15.398 13.9559 15.3677 13.9559 15.3392 13.9646C15.3108 13.9732 15.2855 13.99 15.2666 14.0129L15.3022 14.0574C15.3555 14.1108 15.3555 14.1997 15.3466 14.2353V14.2531H15.4088C15.4888 14.2531 15.5422 14.173 15.5333 14.093V14.093Z" stroke="black" stroke-width="0.0266781"/>
<path d="M15.8623 16.0502C15.8623 16.0502 18.8668 14.8759 22.6534 16.0769" stroke="black" stroke-width="0.133391"/>
<path d="M23.0799 15.1161C18.8933 13.7816 15.551 15.0449 15.551 15.0449" stroke="black" stroke-width="0.0444635"/>
<path d="M19.3112 14.8225L18.9734 14.9915L19.2756 15.1783L19.6312 15.0004L19.3112 14.8225Z" fill="#FF0000"/>
<path d="M19.3112 14.8225L18.9734 14.9915L19.2756 15.1783L19.6312 15.0004L19.3112 14.8225" stroke="black" stroke-width="0.0444635"/>
</g>
</g>
<defs>
<clipPath id="clip0_769_16520">
<path d="M0 20C0 8.95431 8.95431 0 20 0C31.0457 0 40 8.95431 40 20C40 31.0457 31.0457 40 20 40C8.95431 40 0 31.0457 0 20Z" fill="white"/>
</clipPath>
<clipPath id="clip1_769_16520">
<rect width="53.3333" height="40" fill="white" transform="translate(-7 -6.10352e-05)"/>
</clipPath>
</defs>
</svg>
