<svg width="40" height="40" viewBox="0 0 40 40" fill="none" xmlns="http://www.w3.org/2000/svg">
<g clip-path="url(#clip0_769_17771)">
<path d="M0 20C0 8.95431 8.95431 0 20 0C31.0457 0 40 8.95431 40 20C40 31.0457 31.0457 40 20 40C8.95431 40 0 31.0457 0 20Z" fill="#E94E0F"/>
<g clip-path="url(#clip1_769_17771)">
<path fill-rule="evenodd" clip-rule="evenodd" d="M-7 -6.66666H46.3333V11.1083H-7V-6.66666Z" fill="#FF0000"/>
<path fill-rule="evenodd" clip-rule="evenodd" d="M-7 11.1084H46.3333V14.0834H-7V11.1084Z" fill="white"/>
<path fill-rule="evenodd" clip-rule="evenodd" d="M-7 14.075H46.3333V25.9167H-7V14.075Z" fill="#000099"/>
<path fill-rule="evenodd" clip-rule="evenodd" d="M-7 25.925H46.3333V28.8917H-7V25.925Z" fill="white"/>
<path fill-rule="evenodd" clip-rule="evenodd" d="M-7 28.8917H46.3333V46.6667H-7V28.8917Z" fill="#009900"/>
</g>
</g>
<defs>
<clipPath id="clip0_769_17771">
<path d="M0 20C0 8.95431 8.95431 0 20 0C31.0457 0 40 8.95431 40 20C40 31.0457 31.0457 40 20 40C8.95431 40 0 31.0457 0 20Z" fill="white"/>
</clipPath>
<clipPath id="clip1_769_17771">
<rect width="53.3333" height="40" fill="white" transform="translate(-7)"/>
</clipPath>
</defs>
</svg>
