<svg width="40" height="40" viewBox="0 0 40 40" fill="none" xmlns="http://www.w3.org/2000/svg">
<g clip-path="url(#clip0_769_17694)">
<path d="M0 20C0 8.95431 8.95431 0 20 0C31.0457 0 40 8.95431 40 20C40 31.0457 31.0457 40 20 40C8.95431 40 0 31.0457 0 20Z" fill="#E94E0F"/>
<g clip-path="url(#clip1_769_17694)">
<path d="M-7 6.10352e-05H46.3333V40.0001H-7V6.10352e-05Z" fill="white"/>
<path d="M15.6667 6.10352e-05H23.6667V40.0001H15.6667V6.10352e-05Z" fill="#FF0000"/>
<path d="M-7 16.0001H46.3333V24.0001H-7V16.0001Z" fill="#FF0000"/>
<g style="mix-blend-mode:multiply">
<path fill-rule="evenodd" clip-rule="evenodd" d="M5.23325 31.0917C5.31659 29.6917 5.56659 28.5001 5.56659 28.5001C5.56659 28.5001 4.74992 28.5834 4.33325 28.5834C3.92492 28.5834 3.09992 28.5001 3.09992 28.5001C3.09992 28.5001 3.34992 29.6917 3.43325 31.1001C2.02492 31.0167 0.833252 30.7667 0.833252 30.7667C0.833252 30.7667 0.916585 31.3834 0.916585 32.0001C0.916585 32.6167 0.833252 33.2334 0.833252 33.2334C0.833252 33.2334 2.02492 32.9834 3.43325 32.9001C3.34992 34.3084 3.09992 35.5001 3.09992 35.5001C3.09992 35.5001 3.71659 35.4167 4.33325 35.4167C4.94992 35.4167 5.56659 35.5001 5.56659 35.5001C5.56659 35.5001 5.31659 34.3084 5.23325 32.9001C6.64159 32.9834 7.83325 33.2334 7.83325 33.2334C7.83325 33.2334 7.74992 32.4167 7.74992 32.0001C7.74992 31.5917 7.83325 30.7667 7.83325 30.7667C7.83325 30.7667 6.64158 31.0167 5.24158 31.1001L5.23325 31.0917ZM35.8999 7.09173C35.9833 5.69173 36.2333 4.50006 36.2333 4.50006C36.2333 4.50006 35.4166 4.58339 34.9999 4.58339C34.5916 4.58339 33.7666 4.50006 33.7666 4.50006C33.7666 4.50006 34.0166 5.69173 34.0999 7.09173C32.6916 7.00839 31.4999 6.76673 31.4999 6.76673C31.4999 6.76673 31.5833 7.38339 31.5833 8.00006C31.5833 8.61673 31.4999 9.23339 31.4999 9.23339C31.4999 9.23339 32.6916 8.98339 34.0999 8.90006C34.0166 10.3084 33.7666 11.5001 33.7666 11.5001C33.7666 11.5001 34.3833 11.4167 34.9999 11.4167C35.6166 11.4167 36.2333 11.5001 36.2333 11.5001C36.2333 11.5001 35.9833 10.3084 35.8999 8.90839C37.3083 8.99173 38.4999 9.24173 38.4999 9.24173C38.4999 9.24173 38.4166 8.40839 38.4166 8.00006C38.4166 7.59173 38.4999 6.76673 38.4999 6.76673C38.4999 6.76673 37.3083 7.01673 35.8999 7.10006V7.09173ZM5.23325 7.09173C5.31659 5.69173 5.56659 4.50006 5.56659 4.50006C5.56659 4.50006 4.74992 4.58339 4.33325 4.58339C3.92492 4.58339 3.09992 4.50006 3.09992 4.50006C3.09992 4.50006 3.34992 5.69173 3.43325 7.10006C2.02492 7.01673 0.833252 6.76673 0.833252 6.76673C0.833252 6.76673 0.916585 7.38339 0.916585 8.00006C0.916585 8.61673 0.833252 9.23339 0.833252 9.23339C0.833252 9.23339 2.02492 8.98339 3.43325 8.90006C3.34992 10.3084 3.09992 11.5001 3.09992 11.5001C3.09992 11.5001 3.71659 11.4167 4.33325 11.4167C4.94992 11.4167 5.56659 11.5001 5.56659 11.5001C5.56659 11.5001 5.31659 10.3084 5.23325 8.90006C6.64159 8.98339 7.83325 9.23339 7.83325 9.23339C7.83325 9.23339 7.74992 8.41673 7.74992 8.00006C7.74992 7.59173 7.83325 6.76673 7.83325 6.76673C7.83325 6.76673 6.64158 7.01673 5.24158 7.10006L5.23325 7.09173ZM35.8999 31.0917C35.9833 29.6917 36.2333 28.5001 36.2333 28.5001C36.2333 28.5001 35.4166 28.5834 34.9999 28.5834C34.5916 28.5834 33.7666 28.5001 33.7666 28.5001C33.7666 28.5001 34.0166 29.6917 34.0999 31.1001C32.6916 31.0167 31.4999 30.7667 31.4999 30.7667C31.4999 30.7667 31.5833 31.3834 31.5833 32.0001C31.5833 32.6167 31.4999 33.2334 31.4999 33.2334C31.4999 33.2334 32.6916 32.9834 34.0999 32.9001C34.0166 34.3084 33.7666 35.5001 33.7666 35.5001C33.7666 35.5001 34.3833 35.4167 34.9999 35.4167C35.6166 35.4167 36.2333 35.5001 36.2333 35.5001C36.2333 35.5001 35.9833 34.3084 35.8999 32.9001C37.3083 32.9834 38.4999 33.2334 38.4999 33.2334C38.4999 33.2334 38.4166 32.4167 38.4166 32.0001C38.4166 31.5917 38.4999 30.7667 38.4999 30.7667C38.4999 30.7667 37.3083 31.0167 35.8999 31.1001V31.0917Z" fill="#FF0000"/>
</g>
</g>
</g>
<defs>
<clipPath id="clip0_769_17694">
<path d="M0 20C0 8.95431 8.95431 0 20 0C31.0457 0 40 8.95431 40 20C40 31.0457 31.0457 40 20 40C8.95431 40 0 31.0457 0 20Z" fill="white"/>
</clipPath>
<clipPath id="clip1_769_17694">
<rect width="53.3333" height="40" fill="white" transform="translate(-7 6.10352e-05)"/>
</clipPath>
</defs>
</svg>
