<svg width="40" height="40" viewBox="0 0 40 40" fill="none" xmlns="http://www.w3.org/2000/svg">
<g clip-path="url(#clip0_769_17724)">
<path d="M0 20C0 8.95431 8.95431 0 20 0C31.0457 0 40 8.95431 40 20C40 31.0457 31.0457 40 20 40C8.95431 40 0 31.0457 0 20Z" fill="#E94E0F"/>
<g clip-path="url(#clip1_769_17724)">
<path d="M-7 6.10352e-05H46.3333V40.0001H-7V6.10352e-05Z" fill="#006B3F"/>
<path d="M-7 6.10352e-05H46.3333V26.6667H-7V6.10352e-05Z" fill="#FCD116"/>
<path d="M-7 6.10352e-05H46.3333V13.3334H-7V6.10352e-05Z" fill="#CE1126"/>
<path d="M19.6665 13.3334L23.9999 26.6667L12.6582 18.4251H26.6665L15.3332 26.6667L19.6665 13.3334Z" fill="black"/>
</g>
</g>
<defs>
<clipPath id="clip0_769_17724">
<path d="M0 20C0 8.95431 8.95431 0 20 0C31.0457 0 40 8.95431 40 20C40 31.0457 31.0457 40 20 40C8.95431 40 0 31.0457 0 20Z" fill="white"/>
</clipPath>
<clipPath id="clip1_769_17724">
<rect width="53.3333" height="40" fill="white" transform="translate(-7 6.10352e-05)"/>
</clipPath>
</defs>
</svg>
