<svg width="40" height="40" viewBox="0 0 40 40" fill="none" xmlns="http://www.w3.org/2000/svg">
<g clip-path="url(#clip0_769_17735)">
<path d="M0 20C0 8.95431 8.95431 0 20 0C31.0457 0 40 8.95431 40 20C40 31.0457 31.0457 40 20 40C8.95431 40 0 31.0457 0 20Z" fill="#E94E0F"/>
<g clip-path="url(#clip1_769_17735)">
<path d="M-6 0H47V39.75H-6V0Z" fill="#DA000C"/>
<path d="M-6 0H47V26.6325H-6V0Z" fill="white"/>
<path d="M11.2747 18.0614H21.2122V24.8934H11.2747V18.0614Z" fill="black"/>
<path d="M16.434 23.8997H10.3804L9.03052 24.7858V25.7133H16.434V23.8997ZM13.8999 19.9661C14.7694 19.9661 15.4816 20.6948 15.4816 21.5975V23.8831H16.6161V15.1878H10.3555V23.8831H12.3099V21.5975C12.3182 20.728 13.0138 19.9661 13.8999 19.9661Z" fill="#DA000C" stroke="black" stroke-width="0.155273" stroke-miterlimit="7.5" stroke-linecap="square"/>
<path d="M12.5005 9.31641H15.3906V14.5998H12.5005V9.31641Z" fill="black"/>
<path d="M15.3737 13.7717H12.8562V12.869H11.0094V13.7717H9.76725V12.869H9.00537V14.4839H15.3737V13.7717ZM9.75068 14.4839H15.1832V15.1795H9.75068V14.4839ZM11.9287 7.38683V12.8856H12.8562V11.3784C12.8562 10.8235 13.2454 10.3515 13.8002 10.3184H13.8582C14.4379 10.3184 14.9182 10.7904 14.9182 11.3701V12.8773H15.8043V7.38683H11.9287ZM11.5726 6.64152V7.38683H16.119V6.64152H11.5726ZM10.9929 5.2337V6.6498H16.4254V5.2337H15.6055V5.96245H14.5787V5.2337H13.0218V5.96245H12.0115V5.2337H10.9929ZM9.00537 24.7775H16.4585H9.00537ZM21.2782 24.3468H16.2432L14.7194 25.0756V26.1604H21.2699" fill="#DA000C"/>
<path d="M21.2782 24.3468H16.2432L14.7194 25.0756V26.1604H21.2699M15.3737 13.7717H12.8562V12.869H11.0094V13.7717H9.76725V12.869H9.00537V14.4839H15.3737V13.7717ZM9.75068 14.4839H15.1832V15.1795H9.75068V14.4839ZM11.9287 7.38683V12.8856H12.8562V11.3784C12.8562 10.8235 13.2454 10.3515 13.8002 10.3184H13.8582C14.4379 10.3184 14.9182 10.7904 14.9182 11.3701V12.8773H15.8043V7.38683H11.9287ZM11.5726 6.64152V7.38683H16.119V6.64152H11.5726ZM10.9929 5.2337V6.6498H16.4254V5.2337H15.6055V5.96245H14.5787V5.2337H13.0218V5.96245H12.0115V5.2337H10.9929ZM9.00537 24.7775H16.4585H9.00537Z" stroke="black" stroke-width="0.155273" stroke-miterlimit="7.5" stroke-linecap="square"/>
<path d="M14.7197 25.0756H21.4275H14.7197Z" fill="#DA000C"/>
<path d="M14.7197 25.0756H21.4275" stroke="black" stroke-width="0.155273" stroke-miterlimit="7.5"/>
<path d="M29.7253 18.0614H19.7878V24.8934H29.7253V18.0614Z" fill="black"/>
<path d="M24.566 23.8997H30.6196L31.9694 24.7858V25.7133H24.566V23.8997ZM27.1 19.9661C26.2305 19.9661 25.5183 20.6948 25.5183 21.5975V23.8831H24.3838V15.1878H30.6444V23.8831H28.69V21.5975C28.6818 20.728 27.9861 19.9661 27.1 19.9661Z" fill="#DA000C" stroke="black" stroke-width="0.155273" stroke-miterlimit="7.5" stroke-linecap="square"/>
<path d="M28.4998 9.31641H25.6096V14.5998H28.4998V9.31641Z" fill="black"/>
<path d="M25.6262 13.7717H28.1437V12.869H29.9904V13.7717H31.2326V12.869H31.9945V14.4839H25.6262V13.7717ZM31.2492 14.4839H25.8167V15.1795H31.2492V14.4839ZM29.0712 7.38683V12.8856H28.1437V11.3784C28.1437 10.8235 27.7545 10.3515 27.1996 10.3184H27.1417C26.562 10.3184 26.0817 10.7904 26.0817 11.3701V12.8773H25.1956V7.38683H29.0712ZM29.4273 6.64152V7.38683H24.8809V6.64152H29.4273ZM30.007 5.2337V6.6498H24.5745V5.2337H25.3943V5.96245H26.4212V5.2337H27.9781V5.96245H28.9884V5.2337H30.007ZM31.9945 24.7775H24.5414H31.9945ZM19.7217 24.3468H24.7567L26.2804 25.0756V26.1604H19.73" fill="#DA000C"/>
<path d="M19.7217 24.3468H24.7567L26.2804 25.0756V26.1604H19.73M25.6262 13.7717H28.1437V12.869H29.9904V13.7717H31.2326V12.869H31.9945V14.4839H25.6262V13.7717ZM31.2492 14.4839H25.8167V15.1795H31.2492V14.4839V14.4839ZM29.0712 7.38683V12.8856H28.1437V11.3784C28.1437 10.8235 27.7545 10.3515 27.1996 10.3184H27.1417C26.562 10.3184 26.0817 10.7904 26.0817 11.3701V12.8773H25.1956V7.38683H29.0712ZM29.4273 6.64152V7.38683H24.8809V6.64152H29.4273ZM30.007 5.2337V6.6498H24.5745V5.2337H25.3943V5.96245H26.4212V5.2337H27.9781V5.96245H28.9884V5.2337H30.007ZM31.9945 24.7775H24.5414H31.9945Z" stroke="black" stroke-width="0.155273" stroke-miterlimit="7.5" stroke-linecap="square"/>
<path d="M26.2806 25.0756H19.5728H26.2806Z" fill="#DA000C"/>
<path d="M26.2806 25.0756H19.5728" stroke="black" stroke-width="0.155273" stroke-miterlimit="7.5"/>
<path d="M23.1831 23.2869C22.7607 23.4442 22.4046 23.6595 22.0154 23.8749C21.5351 24.1481 21.0713 24.4628 20.6324 24.8024C20.4751 24.91 20.3177 25.0177 20.2101 25.175C20.0527 25.2992 19.8954 25.4897 19.9285 25.7216C19.9285 25.8127 20.0527 25.5974 20.1438 25.5808C20.2929 25.498 20.4585 25.4814 20.6242 25.5228C20.8229 25.3075 21.0879 25.1667 21.3032 24.9928C21.9326 24.5374 22.6117 24.1399 23.3238 23.8169L23.1831 23.2869Z" fill="#F8D80E" stroke="black" stroke-width="0.124219" stroke-miterlimit="7.5" stroke-linecap="round"/>
<path d="M21.1792 24.4379V25.0425V24.4379ZM21.5519 24.1729V24.7775V24.1729ZM21.9245 23.9411V24.529V23.9411ZM22.3137 23.7092V24.3303V23.7092Z" fill="#F8D80E"/>
<path d="M22.3137 23.7092V24.3303M21.1792 24.4379V25.0425V24.4379ZM21.5519 24.1729V24.7775V24.1729ZM21.9245 23.9411V24.529V23.9411Z" stroke="black" stroke-width="0.155273" stroke-miterlimit="7.5" stroke-linecap="round"/>
<path d="M17.8419 23.32L17.6597 23.8334C18.5209 24.1647 19.3408 24.5788 20.1109 25.0756C20.3759 25.2578 20.6575 25.4317 20.8562 25.6802C20.9059 25.8044 20.7817 25.912 20.6575 25.8623C20.5498 25.8292 20.4256 25.7878 20.3179 25.8623C20.144 25.9369 19.995 26.2019 20.2434 26.2847C20.6161 26.5331 21.1875 26.4255 21.3614 26.0031C21.4525 25.7878 21.469 25.5063 21.2869 25.3241C20.9722 24.968 20.5415 24.703 20.1358 24.438C19.3987 23.9991 18.6369 23.6264 17.8419 23.32Z" fill="#F8D80E" stroke="black" stroke-width="0.124219" stroke-miterlimit="7.5" stroke-linecap="round"/>
<path d="M20.1856 24.529L20.1359 25.059L20.1856 24.529ZM20.6245 24.794L20.5003 25.3075L20.6245 24.794ZM21.0882 25.1584L20.8067 25.5642L21.0882 25.1584ZM21.229 26.119L20.8232 25.9037L21.229 26.119ZM21.3532 25.6801L20.8895 25.7298L21.3532 25.6801ZM20.7653 26.3509L20.7321 25.9451L20.7653 26.3509ZM20.5748 25.9037L20.2021 26.1853L20.5748 25.9037ZM18.7446 23.7423V24.2226V23.7423ZM19.7218 24.2723V24.8189V24.2723ZM19.2249 24.0073V24.5207V24.0073Z" fill="#F8D80E"/>
<path d="M19.2249 24.0073V24.5207M20.1856 24.529L20.1359 25.059L20.1856 24.529ZM20.6245 24.794L20.5003 25.3075L20.6245 24.794ZM21.0882 25.1584L20.8067 25.5642L21.0882 25.1584ZM21.229 26.119L20.8232 25.9037L21.229 26.119ZM21.3532 25.6801L20.8895 25.7298L21.3532 25.6801ZM20.7653 26.3509L20.7321 25.9451L20.7653 26.3509ZM20.5748 25.9037L20.2021 26.1853L20.5748 25.9037ZM18.7446 23.7423V24.2226V23.7423ZM19.7218 24.2723V24.8189V24.2723Z" stroke="black" stroke-width="0.155273" stroke-miterlimit="7.5" stroke-linecap="round"/>
<path d="M17.3616 35.3444V36.5866H18.14V35.9655H19.2083V36.5866H20.0447V35.3444H17.3616ZM17.3616 37.0504V38.2926H20.0281V37.0504H19.1917V37.6715H18.1234V37.0504H17.3616Z" fill="#F8D80E" stroke="black" stroke-width="0.155273" stroke-miterlimit="7.5"/>
<path d="M20.0361 30.0774H20.8146V39.0874H20.0361V30.0774Z" fill="#F8D80E" stroke="black" stroke-width="0.155273" stroke-miterlimit="7.5"/>
<path d="M20.0362 30.856H20.8146V38.6238H20.0362V30.856ZM20.4337 27.8582L22.0817 28.8188L20.4337 29.7794L18.7775 28.8188L20.4337 27.8582ZM18.2143 28.4793H17.792V29.1583H18.2143L20.4337 30.4502L22.6365 29.1583H23.0671V28.4793H22.6365L20.4337 27.1874L18.2143 28.4793Z" fill="#F8D80E" stroke="black" stroke-width="0.155273" stroke-miterlimit="7.5"/>
<path d="M20.3923 25.5145C20.0197 25.589 19.7547 25.9286 19.7712 26.3095V28.0486C19.8044 28.4295 20.1025 28.7359 20.4834 28.7608C20.7981 28.7856 21.0962 28.6117 21.2287 28.3301L20.9637 28.1728C20.8892 28.3633 20.6987 28.4709 20.5 28.4544C20.2516 28.4544 20.0528 28.2059 20.0776 27.974V26.235C20.1025 25.9948 20.3095 25.8209 20.5414 25.8292C20.6325 25.7961 20.7733 25.9369 20.8395 25.8292C20.9306 25.6884 20.7733 25.5973 20.6822 25.5145H20.3923ZM21.295 26.119C21.2205 26.2267 21.1211 26.3095 20.9969 26.3675V27.5351L21.3116 27.709V26.1273L21.295 26.119Z" fill="#F8D80E" stroke="black" stroke-width="0.155273" stroke-miterlimit="7.5"/>
<path d="M18.1399 5.96255H22.6863V14.2272H18.1399V5.96255Z" fill="black"/>
<path d="M17.8333 5.9625V12.8691H19.2742V10.8153C19.2742 10.3516 19.5889 9.68078 20.4998 9.68078C21.4108 9.68078 21.742 10.3516 21.742 10.8153V12.8773H23.1747V5.9625H17.8333ZM20.2845 6.74094H20.7151V9.10109H20.2762L20.2845 6.74094ZM18.9926 7.20469H19.4564V8.92719H18.9926V7.20469ZM21.5515 7.20469H21.9987V8.92719H21.535L21.5515 7.20469ZM17.3364 4.96875V5.94594H23.6715V4.96875H17.3364ZM16.7401 3.81766V4.96875H24.2678V3.81766H23.3237V4.43875H22.2389V3.81766H21.0298V4.43875H19.9698V3.81766H18.7442V4.43875H17.7008V3.81766H16.7401ZM15.3489 15.1878V15.9H25.6756V15.1878H15.3489Z" fill="#DA000C" stroke="black" stroke-width="0.155273" stroke-miterlimit="7.5"/>
<path d="M14.9102 12.869V15.1961H26.0898V12.869H25.0381V13.7717H23.6055V12.869H21.7091V13.7717H19.2578V12.869H17.3614V13.7717H15.9619V12.869H14.9102Z" fill="#DA000C" stroke="black" stroke-width="0.155273" stroke-miterlimit="7.5"/>
<path d="M16.2603 15.9001V24.3469H18.2478V21.1835C18.2478 19.7094 19.2415 19.0138 20.5003 19.0138C21.7093 19.0138 22.7528 19.7094 22.7528 21.1835V24.3469H24.7403V15.9001H16.2603Z" fill="#DA000C" stroke="black" stroke-width="0.155273" stroke-miterlimit="7.5" stroke-linejoin="round"/>
</g>
</g>
<defs>
<clipPath id="clip0_769_17735">
<path d="M0 20C0 8.95431 8.95431 0 20 0C31.0457 0 40 8.95431 40 20C40 31.0457 31.0457 40 20 40C8.95431 40 0 31.0457 0 20Z" fill="white"/>
</clipPath>
<clipPath id="clip1_769_17735">
<rect width="53" height="39.75" fill="white" transform="translate(-6)"/>
</clipPath>
</defs>
</svg>
