<svg width="40" height="40" viewBox="0 0 40 40" fill="none" xmlns="http://www.w3.org/2000/svg">
<g clip-path="url(#clip0_769_17764)">
<path d="M0 20C0 8.95431 8.95431 0 20 0C31.0457 0 40 8.95431 40 20C40 31.0457 31.0457 40 20 40C8.95431 40 0 31.0457 0 20Z" fill="#E94E0F"/>
<g clip-path="url(#clip1_769_17764)">
<path d="M-7 0H46.3333V40H-7V0Z" fill="white"/>
<path d="M-7 20H46.3333V40H-7V20ZM-0.333334 20C-0.333334 23.5362 1.07142 26.9276 3.57191 29.4281C6.07239 31.9286 9.46378 33.3333 13 33.3333C16.5362 33.3333 19.9276 31.9286 22.4281 29.4281C24.9286 26.9276 26.3333 23.5362 26.3333 20C26.3333 16.4638 24.9286 13.0724 22.4281 10.5719C19.9276 8.07141 16.5362 6.66666 13 6.66666C9.46378 6.66666 6.07239 8.07141 3.57191 10.5719C1.07142 13.0724 -0.333333 16.4638 -0.333334 20Z" fill="#D00C33"/>
</g>
</g>
<defs>
<clipPath id="clip0_769_17764">
<path d="M0 20C0 8.95431 8.95431 0 20 0C31.0457 0 40 8.95431 40 20C40 31.0457 31.0457 40 20 40C8.95431 40 0 31.0457 0 20Z" fill="white"/>
</clipPath>
<clipPath id="clip1_769_17764">
<rect width="53.3333" height="40" fill="white" transform="translate(-7)"/>
</clipPath>
</defs>
</svg>
