<svg width="40" height="40" viewBox="0 0 40 40" fill="none" xmlns="http://www.w3.org/2000/svg">
<g clip-path="url(#clip0_769_17676)">
<path d="M0 20C0 8.95431 8.95431 0 20 0C31.0457 0 40 8.95431 40 20C40 31.0457 31.0457 40 20 40C8.95431 40 0 31.0457 0 20Z" fill="#E94E0F"/>
<g clip-path="url(#clip1_769_17676)">
<path d="M-7 6.10352e-05H47V40.0001H-7V6.10352e-05Z" fill="#CE1126"/>
<path d="M-1.33008 5.60007H41.3299V34.4001H-1.33008V5.60007Z" fill="#007A5E"/>
<path d="M-1.33008 5.6084H41.3299L-1.33008 34.4084H41.3299L-1.33008 5.6084Z" fill="#FCD116"/>
<path d="M19.9916 24.8084C22.6757 24.8084 24.8516 22.6594 24.8516 20.0084C24.8516 17.3574 22.6757 15.2084 19.9916 15.2084C17.3075 15.2084 15.1316 17.3574 15.1316 20.0084C15.1316 22.6594 17.3075 24.8084 19.9916 24.8084Z" fill="#CE1126"/>
<path d="M1.63159 20.0584C2.27284 21.2417 3.26003 22.2001 4.45815 22.8251C4.40753 21.5251 4.0869 20.2417 3.50472 19.0751L1.63159 20.0584Z" fill="#CE1126"/>
<path d="M0.60209 16.2251C1.47959 18.0334 -1.68447 22.3667 3.5974 23.3834C2.88021 22.3667 2.55959 21.1251 2.67771 19.8917C3.85053 20.4251 4.8124 21.3334 5.4199 22.4584C6.80365 17.5001 1.87615 17.8084 0.60209 16.2251Z" fill="#FCD116"/>
<path d="M21.0041 18.6417L20 15.6001L18.996 18.6417H15.7644L18.38 20.5167L17.3844 23.5584L20 21.6834L22.6157 23.5584L21.62 20.5167L24.2357 18.6417H21.0041Z" fill="#FCD116"/>
<path d="M9.00594 0.200073L8.41531 2.00007H6.5L8.0525 3.10841L7.46187 4.90007L9.00594 3.79174L10.55 4.90007L9.95938 3.10841L11.5119 2.00007H9.59656L9.00594 0.200073Z" fill="#FCD116"/>
<path d="M19.0466 3.10841L18.456 4.90007L20.0001 3.79174L21.5441 4.90007L20.9535 3.10841L22.506 2.00007H20.5907L20.0001 0.200073L19.4095 2.00007H17.4941L19.0466 3.10841Z" fill="#FCD116"/>
<path d="M30.0405 3.10841L29.4499 4.90007L30.994 3.79174L32.538 4.90007L31.9474 3.10841L33.4999 2.00007H31.5846L30.994 0.200073L30.4033 2.00007H28.488L30.0405 3.10841Z" fill="#FCD116"/>
<path d="M9.59656 36.5501L9.00594 34.7501L8.41531 36.5501H6.5L8.0525 37.6584L7.46187 39.4501L9.00594 38.3417L10.55 39.4501L9.95938 37.6584L11.5119 36.5501H9.59656Z" fill="#FCD116"/>
<path d="M20.5907 36.5501L20.0001 34.7501L19.4095 36.5501H17.4941L19.0466 37.6584L18.456 39.4501L20.0001 38.3417L21.5441 39.4501L20.9535 37.6584L22.506 36.5501H20.5907Z" fill="#FCD116"/>
<path d="M31.5846 36.5501L30.994 34.7501L30.4033 36.5501H28.488L30.0405 37.6584L29.4499 39.4501L30.994 38.3417L32.538 39.4501L31.9474 37.6584L33.4999 36.5501H31.5846Z" fill="#FCD116"/>
</g>
</g>
<defs>
<clipPath id="clip0_769_17676">
<path d="M0 20C0 8.95431 8.95431 0 20 0C31.0457 0 40 8.95431 40 20C40 31.0457 31.0457 40 20 40C8.95431 40 0 31.0457 0 20Z" fill="white"/>
</clipPath>
<clipPath id="clip1_769_17676">
<rect width="54" height="40" fill="white" transform="translate(-7 6.10352e-05)"/>
</clipPath>
</defs>
</svg>
