<svg width="40" height="40" viewBox="0 0 40 40" fill="none" xmlns="http://www.w3.org/2000/svg">
<g clip-path="url(#clip0_769_18206)">
<path d="M0 20C0 8.95431 8.95431 0 20 0C31.0457 0 40 8.95431 40 20C40 31.0457 31.0457 40 20 40C8.95431 40 0 31.0457 0 20Z" fill="#E94E0F"/>
<g clip-path="url(#clip1_769_18206)">
<path fill-rule="evenodd" clip-rule="evenodd" d="M-7.99805 0H45.3353V40H-7.99805V0Z" fill="#BE0027"/>
<path fill-rule="evenodd" clip-rule="evenodd" d="M-5.86475 2.27499H43.2603V37.975H-5.86475V2.27499Z" fill="#3B5AA3"/>
<path fill-rule="evenodd" clip-rule="evenodd" d="M18.2019 34.4333C18.311 34.4854 18.4301 34.5131 18.551 34.5146C18.6719 34.516 18.7916 34.4911 18.9019 34.4417C30.3852 28.3333 30.3852 11.5833 18.9102 5.55833C18.7959 5.5063 18.6714 5.48078 18.5458 5.48366C18.4203 5.48655 18.297 5.51777 18.1852 5.575C6.99357 11.6917 6.96024 28.25 18.1936 34.4333H18.2019Z" fill="#CBE0E5"/>
<path fill-rule="evenodd" clip-rule="evenodd" d="M18.2018 34.7417C18.3685 34.8833 18.7352 34.8667 18.9018 34.7417C27.3602 28.4083 27.4018 24.4667 27.0352 24.4667H10.2852C10.0352 24.4667 10.4352 28.4833 18.2018 34.7417Z" fill="#ADD2D9"/>
<path fill-rule="evenodd" clip-rule="evenodd" d="M11.6104 27.6C12.3765 27.3599 13.2041 27.4103 13.9354 27.7417C14.5687 28.075 14.9354 28.075 15.6187 28.075C16.3354 28.0917 16.8937 28.6167 17.6687 28.6417C19.0937 28.675 19.6937 29.3833 18.5854 29.3917C18.0687 29.3917 16.9437 29.0333 16.402 29.1083C15.2687 29.225 14.552 29.475 13.4854 30.6667L14.7187 31.5C15.7854 31.075 15.9604 30.5833 16.5521 30.5667C17.2187 30.5417 17.4437 30.1333 18.2187 30.1333C19.144 30.2106 20.0756 30.1203 20.9687 29.8667C22.2021 29.5833 21.6187 28.7167 20.8687 28.4083C20.2604 28.15 19.1354 28.4 18.4354 28.1417C17.9021 27.9333 18.3354 27.6 18.6271 27.5333C18.9104 27.475 19.2187 27.575 19.5771 27.6333C20.2187 27.6833 21.0271 27.625 21.5854 27.5333C22.7521 27.3583 22.7021 27.0167 23.2521 27.0083C23.6687 26.9833 23.977 26.8667 24.2521 26.6667C24.5854 26.4417 24.927 26 25.327 26.0167L26.3854 26.0583L24.8854 29.425L20.6604 33.7333L18.4687 34.5667L13.652 31.425L11.2271 27.7L11.6187 27.6H11.6104Z" fill="#FDF9A1"/>
<path fill-rule="evenodd" clip-rule="evenodd" d="M17.1519 24.3333L26.8186 24.2833L26.9852 23.425C26.9852 23.425 26.6436 23.375 26.3602 23.3583C26.0186 23.3333 25.4186 23.725 25.0269 23.7167C24.7352 23.7167 24.4186 23.2167 24.1352 23.2167C23.6352 23.2167 23.6019 23.6583 23.1352 23.675C22.7602 23.6583 22.6019 23.375 22.1102 23.4083C21.6102 23.4333 21.6436 23.7167 21.0019 23.7C20.1519 23.675 19.8102 22.9417 19.1269 22.9333C17.9936 22.9167 17.9602 24.0167 17.1436 24.325L17.1519 24.3333Z" fill="#179A3B"/>
<path fill-rule="evenodd" clip-rule="evenodd" d="M17.152 24.5333L27.102 24.4833V24.2167L16.9187 24.2667L17.1437 24.5333H17.152Z" fill="#FDF9A1"/>
<path fill-rule="evenodd" clip-rule="evenodd" d="M21.2354 27.525C21.3937 28.1083 21.552 28.3083 22.1687 28.4667C22.777 28.6083 23.7104 28.0167 23.1354 27.4417C22.5854 26.9083 22.002 26.775 21.5104 26.2917C20.4687 25.2667 18.902 22.75 18.902 20.975C18.902 19.45 18.752 16.325 18.752 13.3667C18.752 13.175 18.1687 13.9 18.1687 14.1C18.202 16.7083 18.202 18.6833 18.302 21.3167C18.4687 23.2417 19.3854 24.5417 20.1937 25.7083C20.552 26.275 21.077 26.875 21.2354 27.525Z" fill="#A79270"/>
<path d="M14.961 19.6136C14.9389 19.5457 14.9096 19.485 14.8734 19.4312C14.8378 19.3768 14.7951 19.3305 14.7454 19.2922C14.6964 19.2539 14.6406 19.2247 14.5781 19.2045C14.5157 19.1844 14.4472 19.1743 14.3726 19.1743C14.2503 19.1743 14.1392 19.2059 14.0391 19.269C13.939 19.3321 13.8594 19.4252 13.8003 19.5481C13.7412 19.671 13.7116 19.8218 13.7116 20.0005C13.7116 20.1792 13.7415 20.33 13.8013 20.4529C13.8611 20.5758 13.942 20.6689 14.0441 20.732C14.1462 20.7951 14.2611 20.8267 14.3887 20.8267C14.5069 20.8267 14.6111 20.8015 14.7011 20.7511C14.7917 20.7001 14.8623 20.6282 14.9127 20.5355C14.9637 20.4422 14.9892 20.3323 14.9892 20.206L15.0658 20.2222H14.4451V20.0005H15.2311V20.2222C15.2311 20.3921 15.1948 20.5399 15.1222 20.6655C15.0504 20.7911 14.9509 20.8885 14.824 20.9577C14.6977 21.0262 14.5526 21.0605 14.3887 21.0605C14.206 21.0605 14.0455 21.0175 13.9071 20.9315C13.7694 20.8455 13.6619 20.7233 13.5847 20.5647C13.5081 20.4062 13.4698 20.2181 13.4698 20.0005C13.4698 19.8373 13.4916 19.6905 13.5353 19.5602C13.5796 19.4292 13.6421 19.3177 13.7227 19.2257C13.8033 19.1336 13.8987 19.0631 14.0089 19.0141C14.119 18.965 14.2403 18.9405 14.3726 18.9405C14.4814 18.9405 14.5828 18.957 14.6769 18.9899C14.7716 19.0221 14.8559 19.0682 14.9298 19.1279C15.0043 19.187 15.0665 19.2579 15.1162 19.3405C15.1659 19.4225 15.2002 19.5135 15.219 19.6136H14.961Z" fill="#BD0728"/>
<path d="M14.961 19.6136L14.8767 19.6411L14.8967 19.7023H14.961V19.6136ZM14.8734 19.4312L14.7992 19.4798L14.7999 19.4808L14.8734 19.4312ZM14.7454 19.2922L14.6908 19.3621L14.6913 19.3624L14.7454 19.2922ZM14.5781 19.2045L14.6054 19.1201H14.6054L14.5781 19.2045ZM13.8003 19.5481L13.8802 19.5865L13.8003 19.5481ZM13.8013 20.4529L13.7216 20.4917L13.8013 20.4529ZM14.0441 20.732L13.9975 20.8074L14.0441 20.732ZM14.7011 20.7511L14.7444 20.8285L14.7446 20.8284L14.7011 20.7511ZM14.9127 20.5355L14.8349 20.493L14.8348 20.4932L14.9127 20.5355ZM14.9892 20.206L15.0075 20.1193L14.9006 20.0968V20.206H14.9892ZM15.0658 20.2222V20.3108L15.0841 20.1354L15.0658 20.2222ZM14.4451 20.2222H14.3565V20.3108H14.4451V20.2222ZM14.4451 20.0005V19.9118H14.3565V20.0005H14.4451ZM15.2311 20.0005H15.3197V19.9118H15.2311V20.0005ZM15.1222 20.6655L15.0455 20.6212L15.0453 20.6215L15.1222 20.6655ZM14.824 20.9577L14.8663 21.0356L14.8664 21.0356L14.824 20.9577ZM13.9071 20.9315L13.8601 21.0067L13.8603 21.0068L13.9071 20.9315ZM13.5847 20.5647L13.5048 20.6033L13.505 20.6036L13.5847 20.5647ZM13.5353 19.5602L13.4513 19.5318L13.4512 19.532L13.5353 19.5602ZM13.7227 19.2257L13.7894 19.2841L13.7227 19.2257ZM14.0089 19.0141L14.0449 19.0951L14.0089 19.0141ZM14.6769 18.9899L14.6476 19.0736L14.6483 19.0738L14.6769 18.9899ZM14.9298 19.1279L14.874 19.1969L14.8747 19.1974L14.9298 19.1279ZM15.1162 19.3405L15.0402 19.3862L15.0404 19.3865L15.1162 19.3405ZM15.219 19.6136V19.7023H15.3258L15.3061 19.5972L15.219 19.6136ZM15.0453 19.5861C15.0208 19.5112 14.9882 19.4428 14.9469 19.3816L14.7999 19.4808C14.8311 19.5271 14.8569 19.5803 14.8767 19.6411L15.0453 19.5861ZM14.9476 19.3827C14.9067 19.3203 14.8574 19.2665 14.7995 19.2219L14.6913 19.3624C14.7329 19.3944 14.7688 19.4334 14.7992 19.4798L14.9476 19.3827ZM14.8 19.2223C14.7423 19.1773 14.6772 19.1433 14.6054 19.1201L14.5509 19.2889C14.604 19.306 14.6504 19.3305 14.6908 19.3621L14.8 19.2223ZM14.6054 19.1201C14.533 19.0968 14.4552 19.0856 14.3726 19.0856V19.263C14.4392 19.263 14.4984 19.2719 14.5509 19.2889L14.6054 19.1201ZM14.3726 19.0856C14.2342 19.0856 14.1065 19.1216 13.9918 19.194L14.0864 19.344C14.1718 19.2901 14.2665 19.263 14.3726 19.263V19.0856ZM13.9918 19.194C13.8756 19.2673 13.7856 19.3741 13.7204 19.5097L13.8802 19.5865C13.9332 19.4763 14.0024 19.397 14.0864 19.344L13.9918 19.194ZM13.7204 19.5097C13.654 19.6477 13.623 19.8125 13.623 20.0005H13.8003C13.8003 19.8312 13.8284 19.6943 13.8802 19.5865L13.7204 19.5097ZM13.623 20.0005C13.623 20.1886 13.6544 20.3536 13.7216 20.4917L13.881 20.4141C13.8287 20.3064 13.8003 20.1697 13.8003 20.0005H13.623ZM13.7216 20.4917C13.7876 20.6276 13.8792 20.7343 13.9975 20.8074L14.0908 20.6566C14.0048 20.6035 13.9345 20.5241 13.881 20.4141L13.7216 20.4917ZM13.9975 20.8074C14.1145 20.8798 14.2457 20.9154 14.3887 20.9154V20.738C14.2765 20.738 14.178 20.7105 14.0908 20.6566L13.9975 20.8074ZM14.3887 20.9154C14.5199 20.9154 14.6393 20.8873 14.7444 20.8285L14.6578 20.6738C14.5828 20.7157 14.494 20.738 14.3887 20.738V20.9154ZM14.7446 20.8284C14.85 20.7691 14.9323 20.685 14.9906 20.5779L14.8348 20.4932C14.7922 20.5714 14.7335 20.6311 14.6576 20.6739L14.7446 20.8284ZM14.9905 20.5781C15.0499 20.4694 15.0779 20.3444 15.0779 20.206H14.9006C14.9006 20.3202 14.8776 20.4149 14.8349 20.493L14.9905 20.5781ZM14.971 20.2928L15.0475 20.3089L15.0841 20.1354L15.0075 20.1193L14.971 20.2928ZM15.0658 20.1335H14.4451V20.3108H15.0658V20.1335ZM14.5338 20.2222V20.0005H14.3565V20.2222H14.5338ZM14.4451 20.0892H15.2311V19.9118H14.4451V20.0892ZM15.1424 20.0005V20.2222H15.3197V20.0005H15.1424ZM15.1424 20.2222C15.1424 20.3792 15.109 20.5112 15.0455 20.6212L15.199 20.7098C15.2806 20.5686 15.3197 20.405 15.3197 20.2222H15.1424ZM15.0453 20.6215C14.9815 20.7328 14.8941 20.8185 14.7816 20.8798L14.8664 21.0356C15.0078 20.9585 15.1192 20.8494 15.1992 20.7095L15.0453 20.6215ZM14.7817 20.8798C14.6701 20.9403 14.54 20.9718 14.3887 20.9718V21.1491C14.5653 21.1491 14.7253 21.1121 14.8663 21.0356L14.7817 20.8798ZM14.3887 20.9718C14.2205 20.9718 14.0766 20.9324 13.9539 20.8562L13.8603 21.0068C14.0144 21.1026 14.1915 21.1491 14.3887 21.1491V20.9718ZM13.9541 20.8563C13.8317 20.7799 13.735 20.6708 13.6644 20.5259L13.505 20.6036C13.5888 20.7757 13.7071 20.9112 13.8601 21.0067L13.9541 20.8563ZM13.6645 20.5262C13.595 20.3822 13.5585 20.2079 13.5585 20.0005H13.3811C13.3811 20.2284 13.4212 20.4303 13.5048 20.6033L13.6645 20.5262ZM13.5585 20.0005C13.5585 19.8451 13.5793 19.7081 13.6194 19.5884L13.4512 19.532C13.404 19.6729 13.3811 19.8294 13.3811 20.0005H13.5585ZM13.6193 19.5886C13.6604 19.4672 13.7174 19.3663 13.7894 19.2841L13.656 19.1673C13.5668 19.2691 13.4989 19.3912 13.4513 19.5318L13.6193 19.5886ZM13.7894 19.2841C13.8617 19.2016 13.9467 19.1388 14.0449 19.0951L13.9728 18.9331C13.8507 18.9874 13.745 19.0657 13.656 19.1673L13.7894 19.2841ZM14.0449 19.0951C14.1427 19.0516 14.2515 19.0292 14.3726 19.0292V18.8519C14.2291 18.8519 14.0954 18.8785 13.9728 18.9331L14.0449 19.0951ZM14.3726 19.0292C14.4724 19.0292 14.5638 19.0443 14.6476 19.0736L14.7062 18.9062C14.6019 18.8697 14.4905 18.8519 14.3726 18.8519V19.0292ZM14.6483 19.0738C14.7337 19.1029 14.8087 19.144 14.874 19.1969L14.9856 19.059C14.9031 18.9923 14.8095 18.9414 14.7055 18.906L14.6483 19.0738ZM14.8747 19.1974C14.9408 19.2498 14.9959 19.3126 15.0402 19.3862L15.1922 19.2948C15.1371 19.2032 15.0679 19.1243 14.9849 19.0585L14.8747 19.1974ZM15.0404 19.3865C15.0842 19.4588 15.1149 19.5397 15.1318 19.63L15.3061 19.5972C15.2855 19.4873 15.2476 19.3862 15.192 19.2946L15.0404 19.3865ZM15.219 19.5249H14.961V19.7023H15.219V19.5249Z" fill="white"/>
<path d="M17.4537 18.9798H17.7035V20.3461C17.7035 20.4872 17.6703 20.6131 17.6038 20.7239C17.538 20.8341 17.4449 20.9211 17.3247 20.9849C17.2045 21.048 17.0634 21.0796 16.9015 21.0796C16.7396 21.0796 16.5986 21.048 16.4783 20.9849C16.3581 20.9211 16.2647 20.8341 16.1982 20.7239C16.1324 20.6131 16.0995 20.4872 16.0995 20.3461V18.9798H16.3494V20.3259C16.3494 20.4267 16.3715 20.5164 16.4159 20.595C16.4602 20.6729 16.5233 20.7343 16.6053 20.7794C16.6879 20.8237 16.7867 20.8459 16.9015 20.8459C17.0164 20.8459 17.1151 20.8237 17.1977 20.7794C17.2804 20.7343 17.3435 20.6729 17.3872 20.595C17.4315 20.5164 17.4537 20.4267 17.4537 20.3259V18.9798Z" fill="#BD0728"/>
<path d="M17.4537 18.9798V18.8912H17.365V18.9798H17.4537ZM17.7035 18.9798H17.7922V18.8912H17.7035V18.9798ZM17.6038 20.7239L17.5278 20.6783L17.5277 20.6785L17.6038 20.7239ZM17.3247 20.9849L17.3659 21.0634L17.3663 21.0632L17.3247 20.9849ZM16.4783 20.9849L16.4368 21.0632L16.4371 21.0634L16.4783 20.9849ZM16.1982 20.7239L16.122 20.7692L16.1223 20.7698L16.1982 20.7239ZM16.0995 18.9798V18.8912H16.0108V18.9798H16.0995ZM16.3494 18.9798H16.438V18.8912H16.3494V18.9798ZM16.4159 20.595L16.3386 20.6385L16.3388 20.6388L16.4159 20.595ZM16.6053 20.7794L16.5626 20.8571L16.5634 20.8575L16.6053 20.7794ZM17.1977 20.7794L17.2397 20.8575L17.2402 20.8572L17.1977 20.7794ZM17.3872 20.595L17.3099 20.5514L17.3098 20.5516L17.3872 20.595ZM17.4537 19.0685H17.7035V18.8912H17.4537V19.0685ZM17.6149 18.9798V20.3461H17.7922V18.9798H17.6149ZM17.6149 20.3461C17.6149 20.4726 17.5853 20.5825 17.5278 20.6783L17.6798 20.7696C17.7553 20.6437 17.7922 20.5017 17.7922 20.3461H17.6149ZM17.5277 20.6785C17.4707 20.7739 17.39 20.8499 17.2831 20.9066L17.3663 21.0632C17.4999 20.9923 17.6053 20.8943 17.6799 20.7694L17.5277 20.6785ZM17.2835 20.9064C17.1782 20.9617 17.0518 20.9909 16.9015 20.9909V21.1683C17.075 21.1683 17.2307 21.1344 17.3659 21.0634L17.2835 20.9064ZM16.9015 20.9909C16.7513 20.9909 16.6249 20.9617 16.5196 20.9064L16.4371 21.0634C16.5723 21.1344 16.728 21.1683 16.9015 21.1683V20.9909ZM16.5199 20.9066C16.413 20.8498 16.3319 20.7737 16.2741 20.6781L16.1223 20.7698C16.1976 20.8945 16.3032 20.9923 16.4368 21.0632L16.5199 20.9066ZM16.2745 20.6787C16.2175 20.5828 16.1882 20.4728 16.1882 20.3461H16.0108C16.0108 20.5015 16.0473 20.6434 16.122 20.7692L16.2745 20.6787ZM16.1882 20.3461V18.9798H16.0108V20.3461H16.1882ZM16.0995 19.0685H16.3494V18.8912H16.0995V19.0685ZM16.2607 18.9798V20.3259H16.438V18.9798H16.2607ZM16.2607 20.3259C16.2607 20.4401 16.286 20.5451 16.3386 20.6385L16.4931 20.5514C16.4571 20.4876 16.438 20.4133 16.438 20.3259H16.2607ZM16.3388 20.6388C16.3916 20.7316 16.4669 20.8045 16.5626 20.8571L16.648 20.7016C16.5797 20.6642 16.5288 20.6142 16.4929 20.5511L16.3388 20.6388ZM16.5634 20.8575C16.6615 20.9101 16.7753 20.9345 16.9015 20.9345V20.7572C16.798 20.7572 16.7144 20.7372 16.6472 20.7012L16.5634 20.8575ZM16.9015 20.9345C17.0278 20.9345 17.1416 20.9101 17.2397 20.8575L17.1558 20.7012C17.0887 20.7372 17.005 20.7572 16.9015 20.7572V20.9345ZM17.2402 20.8572C17.3366 20.8047 17.4123 20.7316 17.4645 20.6383L17.3098 20.5516C17.2748 20.6142 17.2241 20.664 17.1553 20.7015L17.2402 20.8572ZM17.4644 20.6385C17.5171 20.5451 17.5423 20.4401 17.5423 20.3259H17.365C17.365 20.4133 17.3459 20.4876 17.3099 20.5514L17.4644 20.6385ZM17.5423 20.3259V18.9798H17.365V20.3259H17.5423Z" fill="white"/>
<path d="M19.2764 21.0433H19.0144L19.7721 18.9798H20.0301L20.7878 21.0433H20.5258L19.9092 19.3063H19.893L19.2764 21.0433ZM19.3731 20.2373H20.4291V20.4589H19.3731V20.2373Z" fill="#BD0728"/>
<path d="M19.2764 21.0433V21.132H19.339L19.36 21.073L19.2764 21.0433ZM19.0144 21.0433L18.9312 21.0128L18.8874 21.132H19.0144V21.0433ZM19.7721 18.9798V18.8912H19.7102L19.6889 18.9493L19.7721 18.9798ZM20.0301 18.9798L20.1133 18.9493L20.092 18.8912H20.0301V18.9798ZM20.7878 21.0433V21.132H20.9148L20.871 21.0128L20.7878 21.0433ZM20.5258 21.0433L20.4422 21.073L20.4632 21.132H20.5258V21.0433ZM19.9092 19.3063L19.9927 19.2766L19.9718 19.2176H19.9092V19.3063ZM19.893 19.3063V19.2176H19.8304L19.8095 19.2766L19.893 19.3063ZM19.3731 20.2373V20.1486H19.2845V20.2373H19.3731ZM20.4291 20.2373H20.5177V20.1486H20.4291V20.2373ZM20.4291 20.4589V20.5476H20.5177V20.4589H20.4291ZM19.3731 20.4589H19.2845V20.5476H19.3731V20.4589ZM19.2764 20.9547H19.0144V21.132H19.2764V20.9547ZM19.0977 21.0739L19.8554 19.0104L19.6889 18.9493L18.9312 21.0128L19.0977 21.0739ZM19.7721 19.0685H20.0301V18.8912H19.7721V19.0685ZM19.9468 19.0104L20.7045 21.0739L20.871 21.0128L20.1133 18.9493L19.9468 19.0104ZM20.7878 20.9547H20.5258V21.132H20.7878V20.9547ZM20.6094 21.0137L19.9927 19.2766L19.8256 19.3359L20.4422 21.073L20.6094 21.0137ZM19.9092 19.2176H19.893V19.3949H19.9092V19.2176ZM19.8095 19.2766L19.1929 21.0137L19.36 21.073L19.9766 19.3359L19.8095 19.2766ZM19.3731 20.3259H20.4291V20.1486H19.3731V20.3259ZM20.3404 20.2373V20.4589H20.5177V20.2373H20.3404ZM20.4291 20.3703H19.3731V20.5476H20.4291V20.3703ZM19.4618 20.4589V20.2373H19.2845V20.4589H19.4618Z" fill="white"/>
<path d="M21.7965 18.9687H22.0948L22.796 20.6816H22.8202L23.5215 18.9687H23.8197V21.0323H23.586V19.4645H23.5658L22.921 21.0323H22.6953L22.0504 19.4645H22.0303V21.0323H21.7965V18.9687Z" fill="#BD0728"/>
<path d="M21.7965 18.9687V18.8801H21.7078V18.9687H21.7965ZM22.0948 18.9687L22.1768 18.9351L22.1543 18.8801H22.0948V18.9687ZM22.796 20.6816L22.714 20.7152L22.7365 20.7703H22.796V20.6816ZM22.8202 20.6816V20.7703H22.8797L22.9023 20.7152L22.8202 20.6816ZM23.5215 18.9687V18.8801H23.462L23.4394 18.9351L23.5215 18.9687ZM23.8197 18.9687H23.9084V18.8801H23.8197V18.9687ZM23.8197 21.0323V21.1209H23.9084V21.0323H23.8197ZM23.586 21.0323H23.4973V21.1209H23.586V21.0323ZM23.586 19.4645H23.6746V19.3758H23.586V19.4645ZM23.5658 19.4645V19.3758H23.5064L23.4838 19.4307L23.5658 19.4645ZM22.921 21.0323V21.1209H22.9804L23.003 21.066L22.921 21.0323ZM22.6953 21.0323L22.6133 21.066L22.6359 21.1209H22.6953V21.0323ZM22.0504 19.4645L22.1324 19.4307L22.1098 19.3758H22.0504V19.4645ZM22.0303 19.4645V19.3758H21.9416V19.4645H22.0303ZM22.0303 21.0323V21.1209H22.1189V21.0323H22.0303ZM21.7965 21.0323H21.7078V21.1209H21.7965V21.0323ZM21.7965 19.0574H22.0948V18.8801H21.7965V19.0574ZM22.0127 19.0023L22.714 20.7152L22.8781 20.648L22.1768 18.9351L22.0127 19.0023ZM22.796 20.7703H22.8202V20.593H22.796V20.7703ZM22.9023 20.7152L23.6035 19.0023L23.4394 18.9351L22.7382 20.648L22.9023 20.7152ZM23.5215 19.0574H23.8197V18.8801H23.5215V19.0574ZM23.7311 18.9687V21.0323H23.9084V18.9687H23.7311ZM23.8197 20.9436H23.586V21.1209H23.8197V20.9436ZM23.6746 21.0323V19.4645H23.4973V21.0323H23.6746ZM23.586 19.3758H23.5658V19.5531H23.586V19.3758ZM23.4838 19.4307L22.839 20.9985L23.003 21.066L23.6478 19.4982L23.4838 19.4307ZM22.921 20.9436H22.6953V21.1209H22.921V20.9436ZM22.7773 20.9985L22.1324 19.4307L21.9684 19.4982L22.6133 21.066L22.7773 20.9985ZM22.0504 19.3758H22.0303V19.5531H22.0504V19.3758ZM21.9416 19.4645V21.0323H22.1189V19.4645H21.9416ZM22.0303 20.9436H21.7965V21.1209H22.0303V20.9436ZM21.8852 21.0323V18.9687H21.7078V21.0323H21.8852Z" fill="white"/>
<path fill-rule="evenodd" clip-rule="evenodd" d="M13.6354 13.4083C13.5104 13.6583 13.9354 13.3333 14.0354 13.3C14.5937 13.1 14.8104 12.4 15.7687 12.825C16.5187 13.15 17.527 12.9583 17.002 13.2917C16.352 13.6833 15.0437 14.1167 15.0187 16.0583C15.127 16.2417 15.1354 16.2167 15.227 16.0083C15.427 15.5583 16.3687 14.3333 16.8354 14.4333C17.027 14.4833 17.577 13.875 17.5854 14.05C17.6437 14.5333 16.8354 15.5167 16.852 16.825C16.852 17.1333 17.227 17.2333 17.402 17.0167C17.5854 16.825 17.6854 16.6333 18.002 16.3833C18.552 15.9333 18.402 14 18.4687 14.0917C18.8604 14.5917 18.9187 16.0333 19.502 16.6167C19.9937 17.1083 20.3854 16.8667 20.277 16.2C20.0687 14.8333 19.427 15.225 19.1187 13.8167C19.052 13.5417 19.0354 13.3 19.402 13.4083C19.8437 13.5417 20.1104 13.7417 20.4354 14.2417C20.7687 14.725 21.3854 15.1833 21.7437 15.4583C22.3687 15.9417 22.5937 15.525 22.2937 14.9083C21.9127 14.208 21.2911 13.6692 20.5437 13.3917C20.027 13.2083 19.8437 13.1917 19.3937 13.1083C19.2687 13.0833 19.1437 12.825 19.3604 12.6833C19.8423 12.3358 20.404 12.1152 20.9937 12.0417C21.552 12.025 21.9937 12.475 22.3854 12.5917C23.1687 12.7917 23.1687 12.3 22.8187 11.925C22.5354 11.6167 21.9354 11.0917 21.377 11.1667C20.252 11.3083 20.327 11.275 19.627 11.7333C19.377 11.8833 19.0937 12.05 19.202 11.8667C19.452 11.4083 19.2187 11.4917 19.6104 11.025C19.9104 10.6917 20.1354 10.4417 20.4437 10.3583C20.727 10.2833 21.1104 9.98334 21.2187 9.825C21.502 9.44167 21.2604 9.21667 20.827 9.35C20.4437 9.45 20.2437 9.7 19.9937 9.76667C19.377 9.96667 18.8854 11.35 18.8104 11.55C18.7187 11.7833 18.6104 11.6667 18.627 11.4667C18.7104 10.4917 18.7937 8.84167 18.4604 8.16667C17.927 7.16667 17.977 7.63334 17.777 8.10834C17.477 8.85834 17.5854 9.56667 17.777 10.3C17.8604 10.6667 18.1604 11.0833 18.2187 11.375C18.2604 11.6 18.0854 11.3083 17.9854 11.1667C17.6604 10.6667 17.4187 10.3333 16.8854 10.0583C16.3527 9.83917 15.7673 9.78122 15.202 9.89167C15.052 9.94167 15.3687 10.1583 15.4937 10.2583C15.852 10.5417 16.527 10.6333 16.9937 10.9167C17.377 11.1583 17.677 11.3083 17.8104 11.6417C17.8604 11.8917 17.9437 12.2583 17.777 12.25C17.352 12.225 16.6937 11.85 15.327 12C14.627 12.1 14.027 12.6917 13.6354 13.4083Z" fill="#239E46"/>
<path fill-rule="evenodd" clip-rule="evenodd" d="M16.6104 25.8833H17.002V26.5417H16.6104V25.8833Z" fill="black"/>
<path fill-rule="evenodd" clip-rule="evenodd" d="M14.6436 21.4917C16.2103 23.6583 18.727 24.925 18.777 25.9083H13.877C15.002 24.5583 15.6936 23.6417 14.6436 21.4917Z" fill="#FDF9FF"/>
<path fill-rule="evenodd" clip-rule="evenodd" d="M13.2186 25.9583C15.3519 26.4333 17.8936 26.7 19.5186 25.8917C19.5353 26.3667 18.9936 27.0583 18.5436 27.0583H14.4603C14.9353 26.9833 15.2103 26.8417 15.9769 26.8083L13.8103 26.825C13.5603 26.8333 13.1436 26.1917 13.2186 25.9583Z" fill="#A68861"/>
<path fill-rule="evenodd" clip-rule="evenodd" d="M18.052 35.4167C18.2687 35.5417 18.6103 35.5333 18.802 35.4333C31.1187 28.875 31.127 10.9 18.8187 4.43333C18.6954 4.37628 18.5608 4.34813 18.4251 4.35102C18.2893 4.3539 18.156 4.38776 18.0353 4.45C6.03532 11.0167 6.00199 28.7833 18.052 35.425V35.4167ZM18.1103 33.9417C18.2138 33.9926 18.3274 34.0197 18.4427 34.0212C18.558 34.0226 18.6722 33.9983 18.777 33.95C29.077 27.8833 29.202 11.8583 18.7853 6.11667C18.5853 5.96667 18.2937 6.01667 18.0937 6.11667C8.22699 11.9583 7.67699 27.325 18.1103 33.9417Z" fill="#BE0027"/>
<path d="M14.961 19.6136C14.9389 19.5457 14.9096 19.485 14.8734 19.4312C14.8378 19.3768 14.7951 19.3305 14.7454 19.2922C14.6964 19.2539 14.6406 19.2247 14.5781 19.2045C14.5157 19.1844 14.4472 19.1743 14.3726 19.1743C14.2503 19.1743 14.1392 19.2059 14.0391 19.269C13.939 19.3321 13.8594 19.4252 13.8003 19.5481C13.7412 19.671 13.7116 19.8218 13.7116 20.0005C13.7116 20.1792 13.7415 20.33 13.8013 20.4529C13.8611 20.5758 13.942 20.6689 14.0441 20.732C14.1462 20.7951 14.2611 20.8267 14.3887 20.8267C14.5069 20.8267 14.6111 20.8015 14.7011 20.7511C14.7917 20.7001 14.8623 20.6282 14.9127 20.5355C14.9637 20.4422 14.9892 20.3323 14.9892 20.206L15.0658 20.2222H14.4451V20.0005H15.2311V20.2222C15.2311 20.3921 15.1948 20.5399 15.1222 20.6655C15.0504 20.7911 14.9509 20.8885 14.824 20.9577C14.6977 21.0262 14.5526 21.0605 14.3887 21.0605C14.206 21.0605 14.0455 21.0175 13.9071 20.9315C13.7694 20.8455 13.6619 20.7233 13.5847 20.5647C13.5081 20.4062 13.4698 20.2181 13.4698 20.0005C13.4698 19.8373 13.4916 19.6905 13.5353 19.5602C13.5796 19.4292 13.6421 19.3177 13.7227 19.2257C13.8033 19.1336 13.8987 19.0631 14.0089 19.0141C14.119 18.965 14.2403 18.9405 14.3726 18.9405C14.4814 18.9405 14.5828 18.957 14.6769 18.9899C14.7716 19.0221 14.8559 19.0682 14.9298 19.1279C15.0043 19.187 15.0665 19.2579 15.1162 19.3405C15.1659 19.4225 15.2002 19.5135 15.219 19.6136H14.961Z" fill="#BD0728"/>
<path d="M17.4537 18.9798H17.7035V20.3461C17.7035 20.4872 17.6703 20.6131 17.6038 20.7239C17.538 20.8341 17.4449 20.9211 17.3247 20.9849C17.2045 21.048 17.0634 21.0796 16.9015 21.0796C16.7396 21.0796 16.5986 21.048 16.4783 20.9849C16.3581 20.9211 16.2647 20.8341 16.1982 20.7239C16.1324 20.6131 16.0995 20.4872 16.0995 20.3461V18.9798H16.3494V20.3259C16.3494 20.4267 16.3715 20.5164 16.4159 20.595C16.4602 20.6729 16.5233 20.7343 16.6053 20.7794C16.6879 20.8237 16.7867 20.8459 16.9015 20.8459C17.0164 20.8459 17.1151 20.8237 17.1977 20.7794C17.2804 20.7343 17.3435 20.6729 17.3872 20.595C17.4315 20.5164 17.4537 20.4267 17.4537 20.3259V18.9798Z" fill="#BD0728"/>
<path d="M19.2764 21.0433H19.0144L19.7721 18.9798H20.0301L20.7878 21.0433H20.5258L19.9092 19.3063H19.893L19.2764 21.0433ZM19.3731 20.2373H20.4291V20.4589H19.3731V20.2373Z" fill="#BD0728"/>
<path d="M21.7965 18.9687H22.0948L22.796 20.6816H22.8202L23.5215 18.9687H23.8197V21.0323H23.586V19.4645H23.5658L22.921 21.0323H22.6953L22.0504 19.4645H22.0303V21.0323H21.7965V18.9687Z" fill="#BD0728"/>
</g>
</g>
<defs>
<clipPath id="clip0_769_18206">
<path d="M0 20C0 8.95431 8.95431 0 20 0C31.0457 0 40 8.95431 40 20C40 31.0457 31.0457 40 20 40C8.95431 40 0 31.0457 0 20Z" fill="white"/>
</clipPath>
<clipPath id="clip1_769_18206">
<rect width="53.3333" height="40" fill="white" transform="translate(-7.99805)"/>
</clipPath>
</defs>
</svg>
