<svg width="40" height="40" viewBox="0 0 40 40" fill="none" xmlns="http://www.w3.org/2000/svg">
<g clip-path="url(#clip0_769_18060)">
<path d="M0 20C0 8.95431 8.95431 0 20 0C31.0457 0 40 8.95431 40 20C40 31.0457 31.0457 40 20 40C8.95431 40 0 31.0457 0 20Z" fill="#E94E0F"/>
<g clip-path="url(#clip1_769_18060)">
<path d="M-7.33203 0H46.0013V40H-7.33203V0Z" fill="#4997D0"/>
<path d="M10.4429 0H28.2262V40H10.4429V0Z" fill="white"/>
<path d="M17.5453 23.8945L17.5064 23.8001M17.7842 24.3057C17.9342 24.2834 18.0176 24.239 18.1176 24.2057L17.7842 24.3057ZM18.2453 23.9834C18.3185 24.0558 18.3753 24.1429 18.412 24.239L18.2453 23.9834ZM17.962 23.9557C18.0303 24.0235 18.0866 24.1024 18.1287 24.189L17.962 23.9557ZM15.3787 16.6001C15.3231 16.689 15.2064 16.7501 15.112 16.789L15.3787 16.6001ZM15.0953 16.7778C15.0953 16.7001 15.0787 16.6112 15.0953 16.5334V16.7778ZM14.9842 16.8112L15.0231 16.9223L14.9842 16.8112ZM15.1342 16.9778L15.0231 16.9945L15.1342 16.9778ZM14.8009 16.9445C14.8009 17.089 14.8231 17.2556 14.8342 17.3834L14.8009 16.9445ZM14.7342 17.3278C14.7562 17.3688 14.7864 17.4048 14.8231 17.4334L14.7342 17.3278ZM14.5675 17.789C14.5953 17.8445 14.6231 17.9112 14.6398 18.0112L14.5675 17.789ZM14.8453 17.7556L14.7342 17.839L14.8453 17.7556ZM14.8287 18.0834C14.7731 18.1334 14.7064 18.1667 14.6342 18.2001L14.8287 18.0834ZM14.4231 20.4445C14.4795 20.5452 14.555 20.6339 14.6453 20.7056L14.4231 20.4445ZM14.6787 20.8001C14.62 20.7928 14.5633 20.774 14.512 20.7445L14.6787 20.8001ZM14.7564 21.2168L14.8509 21.2723L14.7564 21.2168ZM14.8287 21.4612C14.8953 21.5056 14.9675 21.589 15.0342 21.6779L14.8287 21.4612ZM14.9564 21.8334C15.0342 21.8501 15.0953 21.8723 15.1342 21.889L14.9564 21.8334ZM15.0787 22.0279H15.1898H15.0787ZM15.262 21.7334L15.2342 21.9668L15.262 21.7334ZM15.2898 22.0557L15.312 21.9668L15.2898 22.0557ZM15.5731 22.3001L15.5675 22.4779L15.5731 22.3001ZM17.7453 24.0334L17.6787 24.1168L17.7453 24.0334Z" stroke="#24420E" stroke-width="0.0222223"/>
<path d="M19.673 24.7223C19.6285 24.6501 19.5618 24.6057 19.4896 24.5723C19.0618 24.3501 18.6341 24.2446 18.1563 24.1668C18.0396 24.1501 17.9285 24.0446 17.8118 23.989C17.5341 23.8612 17.2285 23.8112 16.9618 23.6723C16.9206 23.6507 16.883 23.6226 16.8507 23.589C16.7396 23.4668 16.5452 23.4279 16.4285 23.3112C15.9618 22.8779 15.4729 22.4779 15.2174 21.8945C14.9063 21.189 14.5229 20.4612 14.5729 19.6556C14.6063 19.1556 14.534 18.639 14.6563 18.1556C14.8452 17.439 15.0785 16.7334 15.5118 16.139L15.4396 16.1834C15.0279 16.7947 14.7375 17.4793 14.584 18.2001C14.4563 18.6834 14.5285 19.2001 14.5007 19.7001C14.4452 20.5057 14.834 21.2334 15.1396 21.939C15.3952 22.5168 15.8896 22.9223 16.3507 23.3612C16.4729 23.4723 16.6618 23.5112 16.7729 23.639C16.8063 23.6713 16.8437 23.6993 16.8841 23.7223C17.1563 23.8557 17.4618 23.9057 17.7396 24.039C17.8507 24.0946 17.9618 24.1946 18.0729 24.2112C18.5405 24.2708 18.9949 24.4079 19.4174 24.6168C19.4903 24.6477 19.5536 24.6976 19.6007 24.7612L19.673 24.7168" fill="#406325"/>
<path d="M19.673 24.7223C19.6285 24.6501 19.5618 24.6057 19.4896 24.5723C19.0618 24.3501 18.6341 24.2446 18.1563 24.1668C18.0396 24.1501 17.9285 24.0446 17.8118 23.989C17.5341 23.8612 17.2285 23.8112 16.9618 23.6723C16.9206 23.6507 16.883 23.6226 16.8507 23.589C16.7396 23.4668 16.5452 23.4279 16.4285 23.3112C15.9618 22.8779 15.4729 22.4779 15.2174 21.8945C14.9063 21.189 14.5229 20.4612 14.5729 19.6556C14.6063 19.1556 14.534 18.639 14.6563 18.1556C14.8452 17.439 15.0785 16.7334 15.5118 16.139L15.4396 16.1834C15.0279 16.7947 14.7375 17.4793 14.584 18.2001C14.4563 18.6834 14.5285 19.2001 14.5007 19.7001C14.4452 20.5057 14.834 21.2334 15.1396 21.939C15.3952 22.5168 15.8896 22.9223 16.3507 23.3612C16.4729 23.4723 16.6618 23.5112 16.7729 23.639C16.8063 23.6713 16.8437 23.6993 16.8841 23.7223C17.1563 23.8557 17.4618 23.9057 17.7396 24.039C17.8507 24.0946 17.9618 24.1946 18.0729 24.2112C18.5405 24.2708 18.9949 24.4079 19.4174 24.6168C19.4903 24.6477 19.5536 24.6976 19.6007 24.7612L19.673 24.7168" stroke="#24420E" stroke-width="0.0111112"/>
<path d="M15.2394 21.7556C15.1249 21.3284 15.1211 20.8791 15.2283 20.4501C15.6005 21.1723 15.4783 21.7667 15.2394 21.7556ZM17.7894 24.2779C17.395 24.3001 16.6449 24.7945 16.5727 24.9112C17.4116 24.9167 17.9061 24.5056 17.7894 24.2779ZM18.2061 24.039C17.8264 23.6219 17.5588 23.1154 17.4283 22.5667C18.2616 23.1667 18.4783 23.9167 18.2061 24.039Z" fill="#67923D" stroke="#24420E" stroke-width="0.0111112"/>
<path d="M17.9228 24.0445C17.5229 23.7054 17.2168 23.2692 17.0339 22.7779C17.8839 23.2334 18.1617 23.9001 17.9228 24.0445ZM17.0561 23.6667C17.1117 23.2334 16.745 22.3223 16.6394 22.2223C16.4728 23.139 16.8061 23.7556 17.0617 23.6667H17.0561ZM15.5394 22.3167C15.4497 21.9318 15.4593 21.5303 15.5672 21.1501C15.8728 21.8001 15.7505 22.3279 15.5394 22.3167ZM14.7783 18.0556C15.0824 17.662 15.4848 17.3555 15.945 17.1667C15.5728 17.9778 14.945 18.2723 14.7783 18.0556Z" fill="#67923D" stroke="#24420E" stroke-width="0.0111112"/>
<path d="M14.8171 17.7389C15.0373 17.2908 15.3705 16.9079 15.7838 16.6278C15.5782 17.5 15.0227 17.9167 14.8171 17.7389ZM16.3671 23.2501C16.0893 22.9056 15.9227 21.9223 15.9616 21.7834C16.5838 22.4779 16.6282 23.1834 16.3616 23.2501H16.3671ZM14.7727 21.2223C14.3838 21.2834 13.5838 20.9667 13.4949 20.8723C14.306 20.6945 14.8504 20.9834 14.7727 21.2223ZM14.6504 20.6834C14.6949 20.3778 15.1282 19.8056 15.2227 19.7612C15.1671 20.4278 14.8115 20.7945 14.6504 20.6834ZM17.5004 23.9445C16.9594 24.0654 16.4595 24.3259 16.0504 24.7001C17.0504 24.7056 17.6449 24.2167 17.5004 23.9445Z" fill="#67923D" stroke="#24420E" stroke-width="0.0111112"/>
<path d="M15.2449 21.7501C15.4782 21.7612 15.6004 21.1723 15.2282 20.4501C15.2983 20.8802 15.3039 21.3183 15.2449 21.7501ZM15.8671 22.8612C15.5245 22.555 15.1096 22.3409 14.6615 22.239C15.156 22.9112 15.7671 23.0779 15.8671 22.8612ZM14.5115 19.9168C14.3535 19.4105 14.0707 18.952 13.6893 18.5834C13.7726 19.539 14.2782 20.0668 14.5115 19.9168ZM14.9782 21.8223C14.7004 21.6168 13.9226 21.5223 13.8115 21.5612C14.3782 22.0168 14.9338 22.0279 14.9782 21.8223ZM14.456 20.439C14.2153 20.1072 13.8915 19.8447 13.5171 19.6779C13.8226 20.3668 14.3282 20.6223 14.456 20.439ZM14.606 17.8001C14.6615 17.3778 14.3004 16.5001 14.2004 16.4001C14.0393 17.289 14.3615 17.8834 14.606 17.8001ZM14.856 16.9667C14.9627 16.5218 14.9531 16.0569 14.8282 15.6167C14.4727 16.3667 14.6171 16.9834 14.856 16.9723V16.9667Z" fill="#406325" stroke="#24420E" stroke-width="0.0111112"/>
<path d="M15.1338 16.5445C15.287 16.207 15.3538 15.8366 15.3282 15.4667C14.9282 16.0056 14.9393 16.5167 15.1338 16.5445ZM15.4671 16.2056C15.7135 15.9313 15.8856 15.5986 15.9671 15.239C15.4282 15.6278 15.2893 16.1167 15.4671 16.2056ZM14.5782 18.6056C14.5782 18.6556 14.5226 18.1501 14.0171 17.589C14.0393 18.4112 14.3615 18.7223 14.5726 18.6056H14.5782ZM16.3838 23.3723C15.9418 23.1419 15.4487 23.0272 14.9504 23.039C15.6504 23.6168 16.3338 23.6279 16.3838 23.3723ZM17.0504 23.6612C16.8004 23.7501 16.4727 23.139 16.6338 22.2223C16.7059 22.7206 16.8461 23.2066 17.0504 23.6668V23.6612ZM17.7949 24.2834C17.906 24.5057 17.4171 24.9168 16.5838 24.9112C17.2504 24.6334 17.7616 24.3612 17.7893 24.2834H17.7949ZM18.2004 24.0334C18.4782 23.9057 18.2616 23.1723 17.4227 22.5668C17.9004 23.3001 18.2282 23.9334 18.2004 24.0334Z" fill="#406325" stroke="#24420E" stroke-width="0.0111112"/>
<path d="M17.9228 24.039C18.1561 23.889 17.8839 23.2334 17.0339 22.7779C17.5617 23.4001 17.9339 23.9445 17.9228 24.039ZM15.545 22.3168C15.7505 22.3279 15.8783 21.8001 15.5728 21.1501C15.6117 21.7612 15.595 22.2612 15.545 22.3168ZM14.7783 18.0501C14.945 18.2723 15.5561 17.9778 15.9394 17.1667C15.5977 17.518 15.2066 17.8174 14.7783 18.0556V18.0501Z" fill="#406325" stroke="#24420E" stroke-width="0.0111112"/>
<path d="M14.8282 17.739C15.0282 17.9167 15.5782 17.5001 15.7838 16.6279C15.3393 17.2556 14.9171 17.7279 14.8282 17.739ZM16.3671 23.2446C16.6282 23.1834 16.5893 22.4779 15.9616 21.7834C16.2393 22.5334 16.406 23.1612 16.3671 23.2446ZM14.7615 21.2223C14.8393 20.9834 14.3004 20.7001 13.4949 20.8723C14.1782 20.9945 14.7171 21.1501 14.7615 21.2223ZM14.6504 20.6834C14.8171 20.7945 15.1671 20.4279 15.2282 19.7612C15.0823 20.0943 14.8896 20.4048 14.656 20.6834H14.6504ZM17.5004 23.9446C17.6449 24.2223 17.056 24.7057 16.056 24.6946C16.8449 24.3723 17.4616 24.0446 17.5004 23.9446Z" fill="#406325" stroke="#24420E" stroke-width="0.0111112"/>
<path d="M14.8561 21.4612C14.6232 21.0912 14.2976 20.7886 13.9116 20.5834C14.1894 21.339 14.7005 21.6445 14.8561 21.4612Z" fill="#406325" stroke="#24420E" stroke-width="0.0111112"/>
<path d="M14.4673 18.5556C14.6896 18.2945 15.4396 18.0445 15.5562 18.0556C15.1118 18.639 14.5562 18.7556 14.4673 18.5556ZM15.8562 22.8612C15.7618 23.0834 15.1562 22.9168 14.6562 22.2445C15.0263 22.5071 15.4323 22.7148 15.8618 22.8612H15.8562ZM14.5062 19.9168C14.2729 20.0668 13.7784 19.539 13.6896 18.5834C14.0562 19.3223 14.4118 19.889 14.5062 19.9168ZM14.9729 21.8223C14.934 22.0279 14.3785 22.0223 13.8173 21.5612C14.188 21.7031 14.5772 21.7911 14.9729 21.8223ZM14.4507 20.4334C14.3173 20.6168 13.8229 20.3668 13.5173 19.6779C13.9729 20.1223 14.3785 20.439 14.4507 20.4334ZM14.6007 17.7945C14.3562 17.8834 14.0396 17.2945 14.1951 16.4056C14.3451 17.1556 14.5285 17.7501 14.6007 17.7945ZM14.8507 16.9667C14.6118 16.9834 14.4673 16.3667 14.8229 15.6167C14.7785 16.3278 14.7951 16.9056 14.8507 16.9667ZM15.1285 16.5445C14.9396 16.5112 14.9229 16.0056 15.3285 15.4667C15.2083 15.814 15.1409 16.1773 15.1285 16.5445ZM15.4618 16.2056C15.2896 16.1112 15.4229 15.6278 15.9618 15.239C15.7481 15.5346 15.5796 15.8604 15.4618 16.2056Z" fill="#67923D" stroke="#24420E" stroke-width="0.0111112"/>
<path d="M14.5729 18.6056C14.3563 18.7223 14.0396 18.4112 14.0174 17.589C14.2951 18.239 14.4951 18.5779 14.5729 18.6056ZM16.3785 23.3723C16.3285 23.6279 15.6507 23.6168 14.9507 23.0445C15.684 23.2834 16.3007 23.4168 16.3785 23.3723ZM15.9229 22.8445C15.7132 22.5253 15.5871 22.1585 15.5563 21.7779C16.0563 22.2612 16.1229 22.7834 15.934 22.8445H15.9229ZM14.9896 21.4556C14.8215 21.0521 14.764 20.611 14.8229 20.1779C15.284 20.839 15.2285 21.439 14.9896 21.4556ZM14.8396 21.4612C14.6896 21.6445 14.1785 21.3445 13.9062 20.5834C14.172 20.9208 14.4866 21.2166 14.8396 21.4612Z" fill="#67923D" stroke="#24420E" stroke-width="0.0111112"/>
<path d="M14.4675 18.5557C14.5564 18.7557 15.1009 18.639 15.5509 18.0612C14.8842 18.439 14.6231 18.6057 14.4675 18.5557ZM14.9842 21.4446C15.2231 21.4279 15.2786 20.8335 14.8175 20.1779C14.9404 20.5904 14.9967 21.0199 14.9842 21.4501V21.4446ZM15.9286 22.8446C16.1175 22.789 16.0509 22.2612 15.5564 21.7779C15.8009 22.3168 15.9564 22.7779 15.9286 22.8446Z" fill="#406325" stroke="#24420E" stroke-width="0.0111112"/>
<path d="M14.5675 19.5446C14.644 19.0571 14.5601 18.558 14.3286 18.1223C14.0675 18.9779 14.3175 19.6001 14.5675 19.5446Z" fill="#406325" stroke="#24420E" stroke-width="0.0111112"/>
<path d="M14.5563 19.6556C14.223 19.7279 14.073 18.989 14.3285 18.1501C14.3841 18.9001 14.4841 19.6001 14.5508 19.6501L14.5563 19.6556Z" fill="#67923D" stroke="#24420E" stroke-width="0.0111112"/>
<path d="M14.4839 19.6501C14.5327 19.158 14.7046 18.686 14.9839 18.2779C15.095 19.1556 14.7339 19.739 14.4839 19.6501Z" fill="#67923D" stroke="#24420E" stroke-width="0.0111112"/>
<path d="M14.4895 19.6445C14.7339 19.7334 15.0951 19.1556 14.984 18.2779C14.7895 19.0168 14.5673 19.6001 14.4895 19.6445Z" fill="#406325" stroke="#24420E" stroke-width="0.0111112"/>
<path d="M14.5618 20.1834C14.6387 19.7003 14.8419 19.2461 15.1507 18.8667C15.1951 19.7667 14.8007 20.3056 14.5618 20.1834Z" fill="#67923D" stroke="#24420E" stroke-width="0.0111112"/>
<path d="M14.5674 20.189C14.8007 20.3112 15.1952 19.7834 15.1507 18.8834C14.9063 19.5945 14.6507 20.1556 14.5674 20.189Z" fill="#406325" stroke="#24420E" stroke-width="0.0111112"/>
<path d="M14.712 17.3556C14.7457 17.3556 14.7731 17.3283 14.7731 17.2945C14.7731 17.2608 14.7457 17.2334 14.712 17.2334C14.6782 17.2334 14.6509 17.2608 14.6509 17.2945C14.6509 17.3283 14.6782 17.3556 14.712 17.3556Z" fill="#BA1F3E" stroke="#511124" stroke-width="0.0111112"/>
<path d="M15.1788 17.0112C15.2125 17.0112 15.2399 16.9838 15.2399 16.9501C15.2399 16.9163 15.2125 16.889 15.1788 16.889C15.145 16.889 15.1177 16.9163 15.1177 16.9501C15.1177 16.9838 15.145 17.0112 15.1788 17.0112Z" fill="#BA1F3E" stroke="#511124" stroke-width="0.0111112"/>
<path d="M14.9786 16.8223C15.0123 16.8223 15.0397 16.7949 15.0397 16.7612C15.0397 16.7274 15.0123 16.7001 14.9786 16.7001C14.9448 16.7001 14.9175 16.7274 14.9175 16.7612C14.9175 16.7949 14.9448 16.8223 14.9786 16.8223Z" fill="#BA1F3E" stroke="#511124" stroke-width="0.0111112"/>
<path d="M14.4731 20.8001C14.513 20.8001 14.5453 20.7678 14.5453 20.7279C14.5453 20.688 14.513 20.6556 14.4731 20.6556C14.4332 20.6556 14.4009 20.688 14.4009 20.7279C14.4009 20.7678 14.4332 20.8001 14.4731 20.8001Z" fill="#BA1F3E" stroke="#511124" stroke-width="0.0111112"/>
<path d="M14.612 19.9112C14.6519 19.9112 14.6842 19.8789 14.6842 19.839C14.6842 19.7991 14.6519 19.7668 14.612 19.7668C14.5721 19.7668 14.5398 19.7991 14.5398 19.839C14.5398 19.8789 14.5721 19.9112 14.612 19.9112Z" fill="#BA1F3E" stroke="#511124" stroke-width="0.0111112"/>
<path d="M15.3454 21.989C15.3853 21.989 15.4176 21.9567 15.4176 21.9168C15.4176 21.8769 15.3853 21.8445 15.3454 21.8445C15.3055 21.8445 15.2732 21.8769 15.2732 21.9168C15.2732 21.9567 15.3055 21.989 15.3454 21.989Z" fill="#BA1F3E" stroke="#511124" stroke-width="0.0111112"/>
<path d="M15.0231 22.0945C15.063 22.0945 15.0954 22.0622 15.0954 22.0223C15.0954 21.9824 15.063 21.9501 15.0231 21.9501C14.9833 21.9501 14.9509 21.9824 14.9509 22.0223C14.9509 22.0622 14.9833 22.0945 15.0231 22.0945Z" fill="#BA1F3E" stroke="#511124" stroke-width="0.0111112"/>
<path d="M17.4843 23.8279C17.5242 23.8279 17.5566 23.7956 17.5566 23.7557C17.5566 23.7158 17.5242 23.6834 17.4843 23.6834C17.4444 23.6834 17.4121 23.7158 17.4121 23.7557C17.4121 23.7956 17.4444 23.8279 17.4843 23.8279Z" fill="#BA1F3E" stroke="#511124" stroke-width="0.0111112"/>
<path d="M17.6455 24.2223C17.6854 24.2223 17.7177 24.19 17.7177 24.1501C17.7177 24.1102 17.6854 24.0779 17.6455 24.0779C17.6056 24.0779 17.5732 24.1102 17.5732 24.1501C17.5732 24.19 17.6056 24.2223 17.6455 24.2223Z" fill="#BA1F3E" stroke="#511124" stroke-width="0.0111112"/>
<path d="M23.7627 17.2501L23.6461 17.2057M23.8405 17.7223C23.8794 17.7557 23.9072 17.7668 23.9683 17.8279L23.8405 17.7223ZM23.6016 16.7723C23.6016 16.7001 23.5683 16.5723 23.5516 16.4945L23.6016 16.7723ZM23.7461 16.6612C23.7461 16.7723 23.7294 16.8723 23.685 16.9668L23.7461 16.6612ZM23.4516 16.939C23.5516 17.0279 23.6461 17.1057 23.7461 17.1557L23.4516 16.939ZM23.9572 17.2223C23.9627 17.3334 23.9516 17.4445 23.9183 17.5557L23.9572 17.2223ZM23.9405 17.639L24.0127 17.5112L23.9405 17.639ZM23.9072 18.189C23.985 18.2057 24.0627 18.3001 24.1016 18.3834L23.9072 18.189ZM24.1294 18.3112L24.2183 18.189L24.1294 18.3112ZM24.3127 19.9001C24.2739 19.9668 24.2293 20.03 24.1794 20.089L24.3127 19.9001ZM23.9572 20.089C24.0016 20.1668 24.0461 20.2557 24.1016 20.3112L23.9572 20.089ZM24.2405 20.639C24.1754 20.7313 24.0899 20.8074 23.9905 20.8612L24.2405 20.639ZM24.0016 21.1112C23.9405 21.1557 23.8627 21.2779 23.7961 21.3723L24.0016 21.1112ZM24.2627 20.2501L24.1461 20.3001L24.2627 20.2501ZM24.0683 19.8834L24.1405 19.9446L24.0683 19.8834ZM23.6238 22.0223H23.5016H23.6238ZM23.3905 21.9223L23.4294 22.0112L23.3905 21.9223ZM22.9961 22.2946C22.985 22.4001 22.9961 22.5001 23.0072 22.6057L22.9961 22.2946ZM23.2461 22.1057L23.3016 22.2279L23.2461 22.1057ZM23.5183 22.2168L23.3794 22.2446L23.5183 22.2168ZM21.6627 23.6446L21.6072 23.7446L21.6627 23.6446ZM22.2738 23.5224C22.1905 23.5335 22.1183 23.5224 22.0461 23.5112L22.2738 23.5224ZM21.7405 23.8446C21.6861 23.8229 21.6304 23.8043 21.5738 23.789L21.7405 23.8446ZM20.7627 23.939C20.7072 23.9779 20.6516 24.0724 20.5905 24.1612L20.7627 23.939ZM20.5572 23.9112C20.4238 23.9835 20.3849 24.1168 20.3127 24.2335L20.5572 23.9112ZM20.4683 24.3946C20.3682 24.3629 20.2699 24.3258 20.1738 24.2835L20.4683 24.3946ZM21.1016 24.239C20.9738 24.1724 20.8405 24.1835 20.7072 24.1612L21.1016 24.239ZM21.3072 24.139C21.1016 24.1001 20.9183 24.1057 20.7349 24.1335L21.3072 24.139ZM21.1683 23.989L21.0905 23.9557L21.1683 23.989ZM20.7794 24.2612L20.6516 24.189L20.7794 24.2612ZM23.8738 21.4557C23.8016 21.5001 23.7294 21.5835 23.6627 21.6723L23.8738 21.4557Z" stroke="#24420E" stroke-width="0.0222223"/>
<path d="M19.0239 24.7168C19.0703 24.6511 19.1337 24.5993 19.2073 24.5668C19.635 24.3446 20.0628 24.2446 20.5406 24.1668C20.6573 24.1446 20.7684 24.039 20.885 23.989C21.1628 23.8557 21.4684 23.8057 21.7351 23.6724C21.7767 23.6491 21.8143 23.619 21.8462 23.5835C21.9573 23.4613 22.1517 23.4224 22.2684 23.3057C22.7351 22.8724 23.2239 22.4724 23.4795 21.889C23.7906 21.1835 24.174 20.4557 24.124 19.6557C24.0906 19.1446 24.1628 18.6335 24.0406 18.1557C23.8863 17.4334 23.5959 16.7472 23.1851 16.1334L23.2573 16.1779C23.6687 16.7893 23.9591 17.4738 24.1128 18.1946C24.2406 18.6779 24.1684 19.1946 24.1962 19.7001C24.2517 20.5001 23.8628 21.2279 23.5573 21.939C23.3017 22.5168 22.8073 22.9168 22.3462 23.3557C22.2239 23.4668 22.0351 23.5057 21.9239 23.6335C21.8905 23.6658 21.8532 23.6938 21.8128 23.7168C21.5406 23.8557 21.235 23.9057 20.9573 24.0335C20.8462 24.089 20.735 24.189 20.6239 24.2113C20.1567 24.2691 19.7023 24.4043 19.2795 24.6113C19.2059 24.6438 19.1426 24.6956 19.0961 24.7613L19.0239 24.7113" fill="#406325"/>
<path d="M19.0239 24.7168C19.0703 24.6511 19.1337 24.5993 19.2073 24.5668C19.635 24.3446 20.0628 24.2446 20.5406 24.1668C20.6573 24.1446 20.7684 24.039 20.885 23.989C21.1628 23.8557 21.4684 23.8057 21.7351 23.6724C21.7767 23.6491 21.8143 23.619 21.8462 23.5835C21.9573 23.4613 22.1517 23.4224 22.2684 23.3057C22.7351 22.8724 23.2239 22.4724 23.4795 21.889C23.7906 21.1835 24.174 20.4557 24.124 19.6557C24.0906 19.1446 24.1628 18.6335 24.0406 18.1557C23.8863 17.4334 23.5959 16.7472 23.1851 16.1334L23.2573 16.1779C23.6687 16.7893 23.9591 17.4738 24.1128 18.1946C24.2406 18.6779 24.1684 19.1946 24.1962 19.7001C24.2517 20.5001 23.8628 21.2279 23.5573 21.939C23.3017 22.5168 22.8073 22.9168 22.3462 23.3557C22.2239 23.4668 22.0351 23.5057 21.9239 23.6335C21.8905 23.6658 21.8532 23.6938 21.8128 23.7168C21.5406 23.8557 21.235 23.9057 20.9573 24.0335C20.8462 24.089 20.735 24.189 20.6239 24.2113C20.1567 24.2691 19.7023 24.4043 19.2795 24.6113C19.2059 24.6438 19.1426 24.6956 19.0961 24.7613L19.0239 24.7113" stroke="#24420E" stroke-width="0.0111112"/>
<path d="M23.4238 21.9224C23.5793 21.5113 23.4238 20.5446 23.346 20.4224C22.9738 21.2779 23.1571 21.9557 23.4238 21.9224Z" fill="#406325" stroke="#24420E" stroke-width="0.0111112"/>
<path d="M23.0294 22.3113C23.1572 22.0002 23.0627 21.239 23.0072 21.1446C22.696 21.7946 22.8238 22.3279 23.0294 22.3113ZM23.9627 18.1946C23.6838 17.836 23.3161 17.5564 22.896 17.3835C23.2405 18.1224 23.8127 18.3946 23.9627 18.1946Z" fill="#406325" stroke="#24420E" stroke-width="0.0111112"/>
<path d="M23.8793 17.7501C23.6956 17.3764 23.418 17.0567 23.0737 16.8224C23.2404 17.5446 23.7071 17.8946 23.8793 17.7501ZM24.1404 18.5835C23.946 18.3557 23.296 18.139 23.196 18.1501C23.5848 18.6501 24.0626 18.7557 24.1404 18.5779V18.5835ZM23.9848 21.1557C24.3823 21.1529 24.7718 21.0436 25.1126 20.839C24.396 20.6835 23.9182 20.9446 23.9848 21.1557ZM23.9793 20.839C23.9793 20.5279 23.6237 19.9057 23.5348 19.839C23.5015 20.5057 23.8015 20.9224 23.9793 20.839Z" fill="#406325" stroke="#24420E" stroke-width="0.0111112"/>
<path d="M24.0016 20.0779C23.9237 19.5968 23.7206 19.1446 23.4127 18.7668C23.3683 19.6668 23.7627 20.2002 24.0016 20.0779ZM21.0571 24.2613C21.4072 24.5701 21.8327 24.7809 22.2905 24.8724C21.8016 24.1891 21.1738 24.0335 21.0627 24.2613H21.0571Z" fill="#406325" stroke="#24420E" stroke-width="0.0111112"/>
<path d="M23.4242 21.9113C23.152 21.9446 22.9742 21.2779 23.3464 20.4224C23.3186 21.2113 23.3575 21.8501 23.4242 21.9113ZM20.4575 24.339C20.9094 24.4414 21.3268 24.6596 21.6686 24.9724C20.8353 24.9779 20.3353 24.5668 20.4575 24.339ZM20.4575 23.8946C20.5686 23.4502 21.2908 22.7168 21.4297 22.6668C21.2297 23.6168 20.6686 24.0835 20.4575 23.9002V23.8946ZM21.6408 23.6613C21.5853 23.2279 21.9519 22.3168 22.0575 22.2168C22.2242 23.1335 21.8908 23.7502 21.6408 23.6613ZM22.8297 22.8557C23.1724 22.5495 23.5872 22.3354 24.0353 22.2335C23.5408 22.9057 22.9297 23.0724 22.8297 22.8557ZM24.2631 19.8946C24.3186 19.5446 24.802 18.9001 24.9075 18.8446C24.8409 19.6001 24.4464 20.0112 24.2631 19.9001V19.8946Z" fill="#67923D" stroke="#24420E" stroke-width="0.0111112"/>
<path d="M23.613 22.0113C24.032 21.7971 24.4982 21.692 24.9685 21.7057C24.313 22.2446 23.663 22.2502 23.613 22.0113ZM24.1852 20.6501C24.4369 20.3016 24.7761 20.0257 25.1685 19.8501C24.8463 20.5724 24.3185 20.839 24.1852 20.6501ZM24.1019 18.1168C24.1019 17.6946 24.5463 16.8557 24.6574 16.7723C24.7185 17.6668 24.3408 18.2279 24.1019 18.1168ZM23.713 16.6723C23.6203 16.3078 23.6203 15.9258 23.713 15.5612C24.0185 16.1723 23.9185 16.6835 23.713 16.6723ZM23.4852 16.5557C23.1917 16.2013 22.9912 15.7793 22.9019 15.3279C23.5574 15.8446 23.7019 16.4612 23.4796 16.5557H23.4852Z" fill="#67923D" stroke="#24420E" stroke-width="0.0111112"/>
<path d="M24.1298 18.4724C24.1131 18.5224 24.2965 18.0446 24.9187 17.6223C24.6965 18.4168 24.3076 18.639 24.1298 18.4724ZM22.2354 23.4724C22.6242 23.1835 23.7076 23.0446 23.8576 23.0946C23.0687 23.7502 22.2909 23.7613 22.2354 23.4668V23.4724ZM23.0298 22.3113C22.8242 22.3224 22.6965 21.7946 23.002 21.1446C22.9631 21.7557 22.9798 22.2557 23.0298 22.3113ZM23.9687 18.2001C23.8187 18.3946 23.2465 18.1279 22.902 17.3835C23.2138 17.707 23.5736 17.9805 23.9687 18.1946V18.2001ZM23.8742 17.7501C23.702 17.8946 23.2465 17.5501 23.0742 16.8223C23.4465 17.3446 23.7965 17.739 23.8742 17.7501ZM24.1409 18.5835C24.0631 18.7612 23.5909 18.6557 23.202 18.1557C23.7798 18.4835 24.0076 18.6279 24.1465 18.5835H24.1409ZM23.9965 21.1501C23.9242 20.9446 24.402 20.689 25.1187 20.8446C24.7313 20.8888 24.3528 20.9918 23.9965 21.1501ZM23.9742 20.839C23.7965 20.9224 23.502 20.5112 23.5298 19.8446C23.629 20.1976 23.7787 20.5344 23.9742 20.8446V20.839Z" fill="#67923D" stroke="#24420E" stroke-width="0.0111112"/>
<path d="M23.9964 20.089C23.7631 20.2112 23.3686 19.6779 23.4131 18.7835C23.6575 19.4946 23.9131 20.0557 23.9964 20.089ZM21.0686 24.2557C21.1797 24.0335 21.7964 24.1835 22.2908 24.8668C21.9172 24.6016 21.505 24.3954 21.0686 24.2557Z" fill="#67923D" stroke="#24420E" stroke-width="0.0111112"/>
<path d="M21.6409 23.6557C21.8964 23.7446 22.2242 23.1335 22.0631 22.2168C21.9075 22.9946 21.7186 23.6113 21.6409 23.6613V23.6557Z" fill="#406325" stroke="#24420E" stroke-width="0.0111112"/>
<path d="M22.2129 23.3668C22.4232 22.8964 22.5112 22.3804 22.4685 21.8668C21.9129 22.6224 21.9463 23.3279 22.2129 23.3668ZM20.4518 24.3335C20.3407 24.5613 20.824 24.9724 21.6629 24.9613C21.2294 24.8154 20.8209 24.6037 20.4518 24.3335ZM20.4629 23.889C20.674 24.0724 21.2296 23.6113 21.4296 22.6613C20.9796 23.3501 20.5574 23.8724 20.4629 23.8835V23.889ZM22.8352 22.8501C22.9352 23.0724 23.5407 22.9057 24.0407 22.2335C23.6708 22.4962 23.2647 22.7039 22.8352 22.8501ZM24.2685 19.889C24.4518 20.0057 24.8407 19.5946 24.9074 18.8446C24.7473 19.2224 24.532 19.5744 24.2685 19.889ZM23.6129 22.0112C23.6629 22.2557 24.3018 22.2446 24.9629 21.7057C24.2685 21.9279 23.6852 22.0501 23.6129 22.0112ZM24.1852 20.6446C24.3241 20.8335 24.8463 20.5668 25.1685 19.8446C24.8834 20.1598 24.5518 20.4295 24.1852 20.6446ZM24.1129 18.1112C24.3518 18.2223 24.7241 17.6668 24.6685 16.7779C24.4352 17.5001 24.1963 18.0723 24.1129 18.1112ZM23.7241 16.6723C23.9241 16.6779 24.0296 16.1723 23.7241 15.5612C23.7741 16.1446 23.7685 16.6223 23.7241 16.6723ZM23.4907 16.5501C23.7129 16.4557 23.5685 15.8446 22.9129 15.3279C23.1654 15.7042 23.3601 16.1162 23.4907 16.5501ZM24.1352 18.4779C24.3129 18.6446 24.7018 18.4223 24.9241 17.6223C24.4907 18.1835 24.2185 18.4668 24.1352 18.4779ZM22.2463 23.4724C22.3018 23.7613 23.074 23.7501 23.8574 23.1001C23.0296 23.3668 22.3352 23.5224 22.2463 23.4724Z" fill="#406325" stroke="#24420E" stroke-width="0.0111112"/>
<path d="M22.6186 23.0446C22.7784 22.6952 22.8472 22.3111 22.8186 21.9279C22.402 22.4835 22.4186 23.0113 22.6186 23.039V23.0446ZM23.7075 21.4501C23.8756 21.0466 23.9331 20.6055 23.8742 20.1724C23.4131 20.8335 23.4687 21.4335 23.7075 21.4501Z" fill="#406325" stroke="#24420E" stroke-width="0.0111112"/>
<path d="M22.2128 23.3613C21.9462 23.3279 21.9184 22.6224 22.4628 21.8724C22.2628 22.639 22.1628 23.2835 22.2128 23.3613ZM24.1684 19.5668C24.1129 19.139 24.3906 18.4501 24.5351 18.3168C24.674 19.1168 24.3851 19.6501 24.1629 19.5668H24.1684ZM22.6128 23.039C22.4128 23.0113 22.3962 22.4835 22.8073 21.9279C22.6868 22.2864 22.6213 22.661 22.6128 23.039ZM23.9129 17.2501C23.7906 16.9168 23.9129 16.139 23.9795 16.039C24.274 16.7168 24.124 17.2668 23.9129 17.2501ZM20.6851 23.9224C20.8239 23.4779 21.5851 22.7557 21.7295 22.7057C21.4906 23.6724 20.8962 24.1224 20.6851 23.9279V23.9224ZM23.7129 21.6113C23.9457 21.2413 24.2713 20.9387 24.6573 20.7335C24.3795 21.489 23.8629 21.7946 23.7129 21.6113ZM23.7073 21.4446C23.4684 21.4224 23.4129 20.8335 23.874 20.1724C23.7511 20.5849 23.6948 21.0143 23.7073 21.4446Z" fill="#67923D" stroke="#24420E" stroke-width="0.0111112"/>
<path d="M24.1685 19.6668C24.4573 19.7723 24.6685 19.1223 24.5351 18.339C24.47 18.7972 24.3467 19.2452 24.1685 19.6723V19.6668Z" fill="#406325" stroke="#24420E" stroke-width="0.0111112"/>
<path d="M24.213 19.6446C24.2408 19.2279 23.8241 18.3668 23.713 18.2723C23.6019 19.1501 23.963 19.7335 24.213 19.6446ZM23.9241 17.2446C24.1352 17.2668 24.2796 16.7223 23.9852 16.039C24.0233 16.4419 24.0008 16.8483 23.9185 17.2446H23.9241ZM20.6963 23.9168C20.9074 24.1168 21.4963 23.6724 21.7352 22.7057C21.2463 23.389 20.7907 23.9057 20.6963 23.9168ZM23.7296 21.6113C23.8852 21.7946 24.3963 21.4946 24.6741 20.7335C24.4049 21.0716 24.0866 21.3675 23.7296 21.6113Z" fill="#406325" stroke="#24420E" stroke-width="0.0111112"/>
<path d="M24.2073 19.639C23.9573 19.7335 23.6017 19.1557 23.7128 18.2779C23.9073 19.0112 24.1295 19.5946 24.2073 19.639Z" fill="#67923D" stroke="#24420E" stroke-width="0.0111112"/>
<path d="M24.0347 17.5556C24.0685 17.5556 24.0959 17.5283 24.0959 17.4945C24.0959 17.4608 24.0685 17.4334 24.0347 17.4334C24.001 17.4334 23.9736 17.4608 23.9736 17.4945C23.9736 17.5283 24.001 17.5556 24.0347 17.5556Z" fill="#BA1F3E" stroke="#511124" stroke-width="0.0111112"/>
<path d="M24.2459 18.2168C24.2797 18.2168 24.307 18.1894 24.307 18.1556C24.307 18.1219 24.2797 18.0945 24.2459 18.0945C24.2122 18.0945 24.1848 18.1219 24.1848 18.1556C24.1848 18.1894 24.2122 18.2168 24.2459 18.2168Z" fill="#BA1F3E" stroke="#511124" stroke-width="0.0111112"/>
<path d="M24.3237 20.3112C24.3636 20.3112 24.3959 20.2789 24.3959 20.239C24.3959 20.1991 24.3636 20.1667 24.3237 20.1667C24.2838 20.1667 24.2515 20.1991 24.2515 20.239C24.2515 20.2789 24.2838 20.3112 24.3237 20.3112Z" fill="#BA1F3E" stroke="#511124" stroke-width="0.0111112"/>
<path d="M24.0349 19.9223C24.0748 19.9223 24.1071 19.89 24.1071 19.8501C24.1071 19.8102 24.0748 19.7779 24.0349 19.7779C23.995 19.7779 23.9626 19.8102 23.9626 19.8501C23.9626 19.89 23.995 19.9223 24.0349 19.9223Z" fill="#BA1F3E" stroke="#511124" stroke-width="0.0111112"/>
<path d="M23.2182 22.139C23.2581 22.139 23.2904 22.1066 23.2904 22.0668C23.2904 22.0269 23.2581 21.9945 23.2182 21.9945C23.1783 21.9945 23.146 22.0269 23.146 22.0668C23.146 22.1066 23.1783 22.139 23.2182 22.139Z" fill="#BA1F3E" stroke="#511124" stroke-width="0.0111112"/>
<path d="M23.5681 22.289C23.608 22.289 23.6403 22.2567 23.6403 22.2168C23.6403 22.1769 23.608 22.1445 23.5681 22.1445C23.5282 22.1445 23.4958 22.1769 23.4958 22.2168C23.4958 22.2567 23.5282 22.289 23.5681 22.289Z" fill="#BA1F3E" stroke="#511124" stroke-width="0.0111112"/>
<path d="M21.2126 24.089C21.2525 24.089 21.2848 24.0567 21.2848 24.0168C21.2848 23.9769 21.2525 23.9445 21.2126 23.9445C21.1727 23.9445 21.1404 23.9769 21.1404 24.0168C21.1404 24.0567 21.1727 24.089 21.2126 24.089Z" fill="#BA1F3E" stroke="#511124" stroke-width="0.0111112"/>
<path d="M20.8237 24.3668C20.8636 24.3668 20.8959 24.3344 20.8959 24.2946C20.8959 24.2547 20.8636 24.2223 20.8237 24.2223C20.7838 24.2223 20.7515 24.2547 20.7515 24.2946C20.7515 24.3344 20.7838 24.3668 20.8237 24.3668Z" fill="#BA1F3E" stroke="#511124" stroke-width="0.0111112"/>
<path d="M23.6126 17.2445C23.6464 17.2445 23.6737 17.2172 23.6737 17.1834C23.6737 17.1497 23.6464 17.1223 23.6126 17.1223C23.5789 17.1223 23.5515 17.1497 23.5515 17.1834C23.5515 17.2172 23.5789 17.2445 23.6126 17.2445Z" fill="#BA1F3E" stroke="#511124" stroke-width="0.0111112"/>
<path d="M16.7956 22.0168C16.7845 22.0724 16.8401 22.1446 16.9067 22.1279C16.9345 22.1279 16.9456 22.1001 16.9178 22.1001C16.8956 22.1057 16.8678 22.1001 16.8512 22.0835C16.8359 22.0698 16.8256 22.0516 16.8215 22.0316C16.8175 22.0116 16.8201 21.9908 16.8289 21.9724L16.7956 22.0168Z" fill="#8C959D" stroke="#485654" stroke-width="0.00555558"/>
<path d="M16.9568 22.1279C16.9012 22.1946 16.8179 22.2224 16.7679 22.1779C16.7346 22.1446 16.7235 22.1112 16.7401 22.0668L16.6846 22.139C16.7043 22.18 16.7351 22.2146 16.7735 22.239C16.8401 22.2668 16.9401 22.2224 16.9957 22.1501C17.0401 22.0946 17.0846 22.0168 17.0512 21.9501C17.0259 21.907 16.9867 21.8738 16.9401 21.8557L16.8846 21.9112C16.9123 21.9001 16.9512 21.9112 16.979 21.9335C17.0512 21.989 17.0068 22.0723 16.9568 22.1279Z" fill="#8C959D"/>
<path d="M16.9567 22.1279C16.94 22.1501 16.9193 22.1689 16.8956 22.1835C16.8678 22.1946 16.8401 22.2057 16.8123 22.2001C16.7981 22.198 16.7847 22.1923 16.7734 22.1835C16.7624 22.1739 16.753 22.1627 16.7456 22.1501C16.737 22.1387 16.7313 22.1254 16.729 22.1112C16.729 22.0946 16.729 22.0835 16.7401 22.0668L16.7456 22.0724L16.6845 22.139C16.7012 22.1612 16.7178 22.189 16.7401 22.2057L16.779 22.2335C16.7932 22.2383 16.8084 22.2402 16.8234 22.239C16.8551 22.2384 16.8859 22.2288 16.9123 22.2112C16.9392 22.1967 16.9636 22.178 16.9845 22.1557L17.0401 22.0779C17.0512 22.0501 17.0567 22.0224 17.0567 21.989C17.0565 21.9735 17.0527 21.9583 17.0456 21.9446C17.0379 21.9323 17.0285 21.9211 17.0178 21.9112C16.996 21.8876 16.9695 21.8686 16.9401 21.8557H16.9456L16.8901 21.9168H16.8845C16.8956 21.9057 16.9123 21.9057 16.929 21.9057C16.9496 21.909 16.9689 21.918 16.9846 21.9318C17.0003 21.9455 17.0118 21.9635 17.0178 21.9835C17.0234 22.0112 17.0178 22.039 17.0067 22.0612C16.9934 22.0858 16.9766 22.1083 16.9567 22.1279ZM16.9567 22.1279C16.979 22.1112 16.9901 22.089 17.0012 22.0612C17.0123 22.039 17.0178 22.0057 17.0123 21.9835C17.0025 21.9597 16.9849 21.9401 16.9623 21.9279C16.9401 21.9112 16.9067 21.9057 16.8901 21.9168H16.8845L16.9401 21.8501C16.9855 21.8675 17.0243 21.8985 17.0512 21.939C17.0623 21.9557 17.0678 21.9724 17.0678 21.9946C17.0678 22.0224 17.0623 22.0501 17.0456 22.0835C17.0307 22.1118 17.012 22.1379 16.9901 22.1612C16.9734 22.189 16.9456 22.2057 16.9178 22.2224C16.8901 22.239 16.8623 22.2501 16.8234 22.2501C16.8084 22.251 16.7933 22.2491 16.779 22.2446C16.7626 22.238 16.7476 22.2286 16.7345 22.2168C16.7116 22.1943 16.6928 22.168 16.679 22.139L16.7345 22.0668H16.7456L16.7401 22.1112C16.7401 22.1224 16.7401 22.139 16.7512 22.1501L16.779 22.1779L16.8123 22.1946C16.8401 22.2001 16.8678 22.1946 16.8956 22.1779C16.9188 22.165 16.9395 22.1481 16.9567 22.1279Z" fill="#485654"/>
<path d="M21.2902 17.1834L19.0624 19.3779L16.779 21.5557L16.5235 21.8557C16.4124 21.9835 16.279 22.1501 16.1235 22.3001C16.1013 22.3335 16.0624 22.3223 16.029 22.3446C15.9256 22.4107 15.8321 22.4911 15.7513 22.5835L15.0679 23.3335C15.029 23.3835 15.0124 23.4112 15.0457 23.4446L15.4124 23.9335C15.479 24.0001 15.5568 24.0335 15.5902 23.9779C15.7624 23.6723 16.2013 23.2112 16.3679 22.8501C16.4624 22.6279 16.5846 22.2335 16.6735 22.139C16.7846 22.0168 17.0679 21.7057 17.329 21.4334L17.3846 21.3779L17.4346 21.3223C18.7402 19.989 20.2513 18.3723 21.3513 17.2334L21.2957 17.1779L21.2902 17.1834Z" fill="#6C301E" stroke="#351710" stroke-width="0.0111112" stroke-linejoin="round"/>
<path d="M16.6623 21.5612C16.5957 21.5612 16.5512 21.5223 16.5012 21.4835C16.5679 21.5057 16.6346 21.5279 16.6957 21.5057L16.6623 21.5612Z" fill="#8C959D" stroke="#485654" stroke-width="0.00555558"/>
<path d="M23.6125 15.5612L21.8458 17.0168C21.8292 17.039 21.8125 17.0334 21.7958 17.0168L21.6347 16.8834V16.8501L21.7125 16.7723C21.7236 16.7612 21.7125 16.7557 21.7069 16.739L21.6736 16.7057C21.6569 16.7001 21.6458 16.7057 21.6347 16.7168L21.5569 16.8001C21.518 16.8001 21.4847 16.8334 21.4792 16.8779C20.4125 17.9168 19.4903 18.8446 18.4291 19.8668L17.1736 21.0668C17.1291 21.1223 16.9347 21.2279 16.8069 21.3112C16.7681 21.3316 16.734 21.36 16.7069 21.3946L16.6069 21.7001L16.468 21.9335C16.5958 22.0668 16.5902 22.0557 16.6791 22.139L17.3014 21.4779L17.3458 21.4223C17.3223 21.3907 17.2963 21.3609 17.268 21.3335C17.2462 21.3144 17.224 21.2959 17.2014 21.2779L17.168 21.2446C17.1569 21.2335 17.1791 21.2168 17.1902 21.2057C18.6625 19.789 20.2458 18.2223 21.5403 16.9501C21.5582 16.9569 21.5779 16.9569 21.5958 16.9501L21.7514 17.1279C21.7847 17.1612 21.818 17.1612 21.8458 17.1501L23.6181 15.5612H23.6125Z" fill="#B2B6BA" stroke="#485654" stroke-width="0.0111112"/>
<path d="M16.6125 21.689H16.6403C16.6516 21.6895 16.663 21.6876 16.6736 21.6835C16.6996 21.594 16.7274 21.5051 16.7569 21.4168C16.7462 21.406 16.7328 21.3983 16.718 21.3946C16.7347 21.3946 16.7458 21.4057 16.7569 21.4168L16.718 21.5501L16.6792 21.6835C16.669 21.6896 16.6576 21.6935 16.6458 21.6946C16.6327 21.6943 16.6196 21.6924 16.6069 21.689H16.6125Z" fill="#485654"/>
<path d="M17.0123 21.5946C17.0307 21.5946 17.0457 21.5796 17.0457 21.5612C17.0457 21.5428 17.0307 21.5279 17.0123 21.5279C16.9939 21.5279 16.979 21.5428 16.979 21.5612C16.979 21.5796 16.9939 21.5946 17.0123 21.5946Z" stroke="#485654" stroke-width="0.0111112"/>
<path d="M16.8014 21.8057C16.8198 21.8057 16.8347 21.7908 16.8347 21.7723C16.8347 21.7539 16.8198 21.739 16.8014 21.739C16.783 21.739 16.7681 21.7539 16.7681 21.7723C16.7681 21.7908 16.783 21.8057 16.8014 21.8057Z" stroke="#485654" stroke-width="0.0111112"/>
<path d="M17.1679 21.2446L17.1123 21.2001C17.0968 21.186 17.082 21.1712 17.0679 21.1557C17.1042 21.1817 17.1378 21.2115 17.1679 21.2446Z" fill="#485654"/>
<path d="M20.5679 17.7223L20.7623 17.9168L20.7956 17.8834L20.6012 17.6945L20.5679 17.7279V17.7223Z" fill="#8C959D" stroke="#485654" stroke-width="0.00555558"/>
<path d="M16.7789 23.6334C16.2415 23.505 15.6796 23.5223 15.1511 23.6834C16.0567 24.1279 16.79 23.939 16.7734 23.6279L16.7789 23.6334ZM21.7234 23.8168C22.2592 23.6887 22.8198 23.7079 23.3456 23.8723C22.44 24.3112 21.7012 24.1223 21.7178 23.8168H21.7234Z" fill="#67923D" stroke="#24420E" stroke-width="0.0111112"/>
<path d="M16.7678 23.639C16.7845 23.9446 16.0567 24.1335 15.1511 23.689C16.0011 23.7446 16.6956 23.7112 16.7622 23.6335L16.7678 23.639ZM21.7289 23.8224C21.7123 24.1279 22.44 24.3168 23.3401 23.8724C22.4956 23.9279 21.8012 23.8946 21.7289 23.8168V23.8224Z" fill="#406325" stroke="#24420E" stroke-width="0.0111112"/>
<path d="M20.9182 23.3334C19.7994 21.7826 18.3568 20.4936 16.6904 19.5556C16.8904 19.5445 17.3293 19.7723 17.5071 19.8889C18.8349 20.7445 19.9682 21.8723 21.1516 23.2112C21.0923 23.2707 21.0292 23.3264 20.9627 23.3778L20.9182 23.3334Z" fill="#B2B6BA" stroke="#485654" stroke-width="0.0111112"/>
<path d="M21.0348 23.3223L20.9459 23.389C19.6682 21.7445 17.8848 20.1723 16.6848 19.55C18.357 20.3223 19.7626 21.8723 21.0182 23.3112H21.0293L21.0348 23.3223Z" fill="#8C959D"/>
<path d="M21.0348 23.3223L20.9459 23.389C20.6488 23.0109 20.3355 22.6457 20.0071 22.2945C19.6813 21.9427 19.3422 21.6035 18.9904 21.2778C18.6381 20.9501 18.2711 20.6387 17.8904 20.3445C17.6988 20.1973 17.5024 20.0564 17.3015 19.9223C17.1015 19.7945 16.8959 19.6667 16.6848 19.5556V19.5445C17.1242 19.7501 17.5428 19.9975 17.9348 20.2834C18.3238 20.5677 18.6949 20.8757 19.0459 21.2056C19.3971 21.5358 19.7362 21.8787 20.0626 22.2334C20.3959 22.589 20.7071 22.9556 21.0293 23.3112L21.0348 23.3223ZM21.0348 23.3223C20.716 22.9583 20.3919 22.599 20.0626 22.2445C19.7362 21.8898 19.3971 21.547 19.0459 21.2167C18.6948 20.8869 18.3237 20.5789 17.9348 20.2945C17.5446 20.0105 17.1279 19.7649 16.6904 19.5612V19.5501C17.1089 19.7886 17.5116 20.0539 17.8959 20.3445C18.2785 20.6386 18.6474 20.95 19.0015 21.2778C19.3533 21.6035 19.6925 21.9427 20.0182 22.2945C20.3449 22.6476 20.6563 23.0146 20.9515 23.3945L21.0348 23.3167V23.3223Z" fill="#485654"/>
<path d="M21.4181 23.0556C21.3138 23.0824 21.2144 23.1255 21.1236 23.1834C21.1125 23.2612 21.0125 23.3501 20.9236 23.3667L20.8958 23.3223C20.8958 23.3208 20.8953 23.3194 20.8942 23.3184C20.8932 23.3173 20.8918 23.3167 20.8903 23.3167C20.8888 23.3167 20.8874 23.3173 20.8864 23.3184C20.8853 23.3194 20.8847 23.3208 20.8847 23.3223C20.8734 23.3273 20.8622 23.3329 20.8514 23.339C20.8181 23.339 20.7792 23.3501 20.7625 23.3945C20.7403 23.4501 20.7847 23.5223 20.8292 23.5667C20.8847 23.6056 20.9069 23.6223 20.9625 23.6223C21.0236 23.6056 21.0569 23.5501 21.0736 23.5334C21.2792 23.7834 21.4347 23.9223 21.6958 24.1223C21.8125 24.1223 21.8736 24.0501 21.8347 23.9667C21.8236 23.939 21.7903 23.9223 21.7625 23.9334V23.9056C21.8958 23.7834 21.957 23.6278 21.8125 23.3556C21.6903 23.1334 21.5514 23.0612 21.4236 23.0612L21.4181 23.0556ZM21.7681 23.3112L21.8236 23.4223C21.907 23.589 21.8347 23.789 21.6903 23.8556H21.6792C21.7014 23.8167 21.6347 23.7334 21.6014 23.7612C21.6181 23.7223 21.5625 23.6501 21.5181 23.6667C21.5403 23.6278 21.4903 23.5612 21.4403 23.5834C21.4625 23.5445 21.4236 23.4834 21.3681 23.4945C21.3847 23.4445 21.3458 23.3945 21.2958 23.4056C21.2958 23.3612 21.2847 23.339 21.2681 23.3223C21.3236 23.2778 21.3958 23.2056 21.457 23.1723C21.607 23.1056 21.7014 23.2278 21.7625 23.3112H21.7681Z" fill="#FAB81C" stroke="#6C301E" stroke-width="0.0111112"/>
<path d="M21.8293 23.489C21.8015 23.4723 21.7848 23.4445 21.796 23.4278C21.8071 23.4056 21.8349 23.4001 21.8626 23.4167C21.8904 23.4278 21.9071 23.4556 21.896 23.4723C21.8904 23.4945 21.8571 23.5001 21.8293 23.489Z" fill="#FAB81C" stroke="#6C301E" stroke-width="0.00555558"/>
<path d="M21.8124 23.4334C21.7847 23.4167 21.768 23.3889 21.7791 23.3667C21.7902 23.3501 21.818 23.3445 21.8458 23.3612C21.8736 23.3723 21.8902 23.4001 21.8791 23.4167C21.8736 23.4389 21.8402 23.4445 21.8124 23.4334Z" fill="#FAB81C" stroke="#6C301E" stroke-width="0.00555558"/>
<path d="M21.7792 23.3667C21.7515 23.3556 21.7348 23.3278 21.7459 23.3112C21.757 23.289 21.7848 23.2834 21.8126 23.2945C21.8404 23.3112 21.857 23.339 21.8459 23.3556C21.8404 23.3778 21.807 23.3834 21.7792 23.3667Z" fill="#FAB81C" stroke="#6C301E" stroke-width="0.00555558"/>
<path d="M21.7348 23.3112C21.707 23.2945 21.6904 23.2667 21.7015 23.2501C21.7126 23.2334 21.7404 23.2278 21.7681 23.239C21.7959 23.2556 21.8126 23.2834 21.807 23.3001C21.7959 23.3167 21.7626 23.3278 21.7348 23.3112Z" fill="#FAB81C" stroke="#6C301E" stroke-width="0.00555558"/>
<path d="M21.6791 23.2556C21.6458 23.2445 21.6347 23.2112 21.6458 23.2001V23.189C21.6569 23.1945 21.6847 23.2001 21.6791 23.1834C21.6791 23.1723 21.6735 23.1667 21.6791 23.1723L21.7124 23.1834C21.7402 23.2001 21.7569 23.2278 21.7458 23.2445C21.7347 23.2667 21.7069 23.2723 21.6791 23.2556Z" fill="#FAB81C" stroke="#6C301E" stroke-width="0.00555558"/>
<path d="M21.0737 23.5334C21.1071 23.4334 21.1848 23.3445 21.2682 23.3223L21.0737 23.5334ZM21.0848 23.5445C21.1571 23.5612 21.2682 23.4779 21.296 23.4056L21.0848 23.5445ZM21.1515 23.6279C21.2404 23.6501 21.3348 23.5612 21.3737 23.4945L21.1515 23.6279ZM21.2348 23.7167C21.346 23.7167 21.4071 23.6445 21.4404 23.5834L21.2348 23.7167ZM21.3182 23.8056C21.4071 23.8056 21.496 23.7279 21.5182 23.6667L21.3182 23.8056ZM21.396 23.8779C21.4372 23.8802 21.4782 23.8711 21.5145 23.8515C21.5508 23.8319 21.5809 23.8025 21.6015 23.7667L21.396 23.8779ZM21.4904 23.9556C21.5793 23.9612 21.6571 23.9056 21.6793 23.8556L21.4904 23.9556ZM21.5904 24.039C21.6793 24.039 21.7404 23.9834 21.7626 23.9279L21.5904 24.039Z" fill="#FAB81C"/>
<path d="M21.0737 23.5334C21.0896 23.4867 21.1141 23.4433 21.146 23.4056L21.2015 23.3501L21.2682 23.3223C21.2442 23.3296 21.2217 23.3408 21.2015 23.3556L21.146 23.4112C21.1164 23.4484 21.0921 23.4895 21.0737 23.5334ZM21.0848 23.5501C21.1071 23.5501 21.1293 23.5501 21.1515 23.539C21.1713 23.5301 21.1899 23.5189 21.2071 23.5056L21.2626 23.4612L21.296 23.4056C21.2906 23.427 21.279 23.4464 21.2626 23.4612C21.2464 23.4803 21.2278 23.4971 21.2071 23.5112C21.1897 23.5227 21.1711 23.532 21.1515 23.539C21.1309 23.5492 21.1077 23.553 21.0848 23.5501ZM21.1515 23.6279H21.2182L21.2737 23.5945C21.3116 23.5679 21.3437 23.5339 21.3682 23.4945C21.3577 23.5146 21.3446 23.5333 21.3293 23.5501C21.3147 23.5687 21.2979 23.5855 21.2793 23.6001C21.2623 23.6121 21.2436 23.6215 21.2237 23.6279H21.1515ZM21.2348 23.7167C21.2556 23.7158 21.2762 23.712 21.296 23.7056C21.3157 23.6992 21.3345 23.6898 21.3515 23.6779C21.372 23.6656 21.3907 23.6507 21.4071 23.6334L21.4404 23.5779C21.4228 23.62 21.394 23.6565 21.3571 23.6834C21.3214 23.7083 21.2782 23.72 21.2348 23.7167ZM21.3182 23.8001C21.3604 23.7964 21.4009 23.781 21.4348 23.7556C21.4687 23.7324 21.4972 23.7021 21.5182 23.6667C21.5126 23.6834 21.5015 23.7056 21.4848 23.7223L21.4404 23.7612C21.4232 23.7729 21.4045 23.7822 21.3848 23.789C21.3626 23.8001 21.3404 23.8001 21.3182 23.8001ZM21.4015 23.8779C21.4203 23.8755 21.4388 23.8718 21.4571 23.8667C21.4764 23.8615 21.495 23.8541 21.5126 23.8445C21.5502 23.8267 21.5813 23.7975 21.6015 23.7612L21.5682 23.8167C21.5515 23.8279 21.5348 23.8445 21.5126 23.8501C21.4782 23.8678 21.4402 23.8773 21.4015 23.8779ZM21.4904 23.9556H21.546C21.5657 23.949 21.5844 23.9397 21.6015 23.9279L21.646 23.9001C21.6626 23.8834 21.6737 23.8723 21.6793 23.8556C21.6729 23.8721 21.6635 23.8872 21.6515 23.9001C21.6366 23.9136 21.6198 23.9249 21.6015 23.9334C21.5673 23.9511 21.5288 23.9588 21.4904 23.9556ZM21.5904 24.039C21.6091 24.0395 21.6277 24.0376 21.646 24.0334C21.6804 24.0239 21.7113 24.0046 21.7348 23.9779C21.7458 23.9642 21.7552 23.9493 21.7626 23.9334C21.7501 23.9677 21.7267 23.997 21.696 24.0167C21.6786 24.0255 21.6598 24.0311 21.6404 24.0334C21.622 24.0365 21.6032 24.0365 21.5848 24.0334L21.5904 24.039Z" fill="#6C301E"/>
<path d="M15.4012 16.6667C15.8414 16.4334 16.2145 16.091 16.4845 15.6723C15.6178 15.9056 15.2234 16.4723 15.4012 16.6723V16.6667ZM23.5012 16.9278C23.3118 16.4911 23.0134 16.1105 22.6346 15.8223C22.7901 16.6667 23.3012 17.0889 23.5012 16.9334V16.9278Z" fill="#406325" stroke="#24420E" stroke-width="0.0111112"/>
<path d="M15.4012 16.6667C15.2179 16.4723 15.6124 15.9112 16.479 15.6778C15.8679 16.1445 15.4123 16.5778 15.4012 16.6667ZM23.5013 16.9278C23.2957 17.0945 22.7957 16.6723 22.6402 15.8334C23.0402 16.4445 23.4179 16.9167 23.5013 16.9278Z" fill="#67923D" stroke="#24420E" stroke-width="0.0111112"/>
<path d="M17.7901 21.0056C17.7901 21.0056 17.4456 21.0445 17.3512 20.5723C17.2512 20.0668 17.6457 20.0168 17.6457 20.0168C17.6457 20.0168 18.0957 19.9668 18.379 19.9612L18.5012 20.9612L17.7901 21.0056Z" fill="url(#paint0_radial_769_18060)" stroke="#999270" stroke-width="0.0111112"/>
<path d="M17.8346 20.8556C17.8346 20.8556 17.6124 20.8945 17.5679 20.5445C17.5346 20.2945 17.6901 20.2612 17.6901 20.2612L18.2013 20.3501V20.8056L17.8346 20.8556Z" fill="url(#paint1_radial_769_18060)" stroke="#999270" stroke-width="0.0111112"/>
<path d="M17.6899 20.2612C17.6899 20.2612 18.0177 20.239 18.1899 20.2168L18.2622 20.5334L17.8677 20.5556C17.8677 20.5556 17.8399 20.2723 17.6899 20.2612Z" fill="url(#paint2_radial_769_18060)" stroke="#999270" stroke-width="0.0111112"/>
<path d="M17.6233 20.0223C17.6233 20.0223 18.04 19.9168 18.0955 20.3834C18.1066 20.5001 18.04 20.7779 17.8344 20.8557L18.6066 20.7723L18.5344 19.939L18.2788 19.9612C18.2788 19.9612 17.7233 19.9779 17.6233 20.0168V20.0223Z" fill="url(#paint3_radial_769_18060)" stroke="#999270" stroke-width="0.0111112"/>
<path d="M17.7901 21.0056C17.7901 21.0056 20.6735 20.8112 20.9679 20.8223C21.8457 20.3445 20.9679 18.4612 20.229 17.4056C20.3124 17.1667 18.5679 16.6334 17.7846 16.6834C17.679 16.6834 17.5846 16.6945 17.4957 16.7001C17.0679 16.7445 17.0624 17.2945 17.2346 17.6445C17.4012 17.9779 18.9179 20.7001 17.8568 20.9945L17.7901 21.0056Z" fill="#F9F0AA" stroke="#999270" stroke-width="0.0111112"/>
<path d="M20.879 18.5167C20.6917 18.13 20.4744 17.7585 20.229 17.4056C20.3124 17.1667 18.5679 16.6334 17.7846 16.6834C17.679 16.6834 17.5846 16.6945 17.4957 16.7001C17.0679 16.7445 17.0624 17.2945 17.2346 17.6445C17.2901 17.7445 17.4735 18.089 17.6735 18.5167" fill="url(#paint4_linear_769_18060)"/>
<path d="M20.879 18.5167C20.6917 18.13 20.4744 17.7585 20.229 17.4056C20.3124 17.1667 18.5679 16.6334 17.7846 16.6834C17.679 16.6834 17.5846 16.6945 17.4957 16.7001C17.0679 16.7445 17.0624 17.2945 17.2346 17.6445C17.2901 17.7445 17.4735 18.089 17.6735 18.5167" stroke="#999270" stroke-width="0.0111112"/>
<path d="M17.9456 19.1668C18.2567 19.9779 18.4289 20.8334 17.8567 20.989L17.79 21.0056C17.79 21.0056 20.6789 20.8112 20.9678 20.8223C21.4456 20.5612 21.4012 19.889 21.1456 19.1556" fill="url(#paint5_linear_769_18060)"/>
<path d="M17.9456 19.1668C18.2567 19.9779 18.4289 20.8334 17.8567 20.989L17.79 21.0056C17.79 21.0056 20.6789 20.8112 20.9678 20.8223C21.4456 20.5612 21.4012 19.889 21.1456 19.1556" stroke="#999270" stroke-width="0.0111112"/>
<path d="M17.5235 16.8612C17.3179 16.8612 17.2624 17.0612 17.2679 17.1834C17.2735 17.5167 17.5235 17.5279 17.5235 17.5279L17.8568 17.5112L18.0124 16.8334L17.5235 16.8612Z" fill="url(#paint6_radial_769_18060)" stroke="#999270" stroke-width="0.0111112"/>
<path d="M17.5234 16.8612L18.0123 16.8334L18.0679 17.339L17.6345 17.3612C17.6345 17.3612 17.7734 16.9556 17.5234 16.8612Z" fill="url(#paint7_linear_769_18060)" stroke="#999270" stroke-width="0.0111112"/>
<path d="M20.229 17.4056C20.6012 17.3501 20.5957 16.8501 20.3401 16.6445C19.479 16.6167 18.3457 16.639 17.529 16.7001C17.6234 16.7001 17.879 16.7223 17.9123 17.0612C17.9181 17.1347 17.9059 17.2084 17.8769 17.2762C17.8479 17.3439 17.8028 17.4036 17.7457 17.4501C17.6345 17.5279 17.5234 17.5279 17.5234 17.5279H17.7234L17.8901 17.5056C19.0568 17.3556 20.2235 17.4056 20.2235 17.4056H20.229Z" fill="url(#paint8_linear_769_18060)" stroke="#999270" stroke-width="0.0111112"/>
<path d="M18.14 18.189C18.1289 18.1723 18.1233 18.1501 18.0955 18.1445C18.0844 18.1445 18.0622 18.1445 18.0678 18.1223H18.1122L18.2011 18.1112C18.2233 18.1167 18.2178 18.1445 18.2011 18.139C18.1733 18.139 18.19 18.1667 18.1955 18.1834L18.2678 18.3501C18.2733 18.3723 18.29 18.389 18.3067 18.389L18.3678 18.3834C18.3844 18.3723 18.3789 18.3501 18.3789 18.3278C18.3733 18.3112 18.4067 18.3167 18.4067 18.3278L18.4289 18.4056C18.4289 18.4167 18.4178 18.4112 18.4067 18.4112L18.24 18.4223C18.2233 18.4223 18.1955 18.439 18.1844 18.4223C18.1844 18.4001 18.2178 18.4112 18.2178 18.3945L18.2011 18.339L18.14 18.189ZM18.4067 18.1723C18.4011 18.1556 18.39 18.1334 18.3678 18.1278C18.3567 18.1278 18.3344 18.1278 18.3344 18.1056H18.3733L18.4678 18.0945C18.4844 18.0945 18.49 18.1223 18.4678 18.1167C18.4511 18.1167 18.4511 18.139 18.4567 18.1556L18.54 18.3445C18.54 18.3556 18.5511 18.3723 18.5678 18.3778C18.5844 18.3778 18.6067 18.3779 18.6067 18.3945C18.6067 18.4056 18.5844 18.4001 18.5733 18.4001C18.5434 18.4001 18.5135 18.4039 18.4844 18.4112C18.4733 18.4112 18.4567 18.4112 18.4567 18.3945C18.4567 18.3779 18.4844 18.3945 18.49 18.3723C18.49 18.3556 18.4789 18.339 18.4678 18.3167L18.4067 18.1723ZM18.6567 18.2112C18.6567 18.2223 18.6789 18.2112 18.6844 18.2112C18.7011 18.2112 18.7178 18.2056 18.7178 18.189C18.7164 18.1757 18.7122 18.163 18.7054 18.1515C18.6987 18.14 18.6897 18.13 18.6789 18.1223C18.6622 18.1056 18.6344 18.1112 18.6178 18.1112L18.6233 18.139L18.6567 18.2112ZM18.69 18.3001C18.7011 18.3167 18.7067 18.339 18.7233 18.3556C18.7344 18.3667 18.7567 18.3612 18.7678 18.3556C18.7844 18.3556 18.7956 18.339 18.79 18.3278C18.7844 18.289 18.7622 18.2556 18.7233 18.2445C18.705 18.2406 18.6861 18.2406 18.6678 18.2445L18.6789 18.2723L18.69 18.3001ZM18.5789 18.1667C18.5678 18.1501 18.5622 18.1278 18.54 18.1112C18.5289 18.1112 18.5067 18.1167 18.5011 18.1001C18.5011 18.0834 18.5344 18.0945 18.5456 18.089C18.5956 18.089 18.64 18.0723 18.69 18.089C18.7289 18.1001 18.7678 18.1334 18.7733 18.1778C18.7733 18.2001 18.7567 18.2167 18.74 18.2223L18.7678 18.2278C18.8011 18.239 18.8289 18.2612 18.8456 18.289C18.8567 18.3112 18.8622 18.3445 18.8456 18.3667C18.8233 18.389 18.79 18.389 18.7678 18.389C18.7233 18.389 18.6844 18.389 18.64 18.4001C18.6289 18.4001 18.6178 18.3723 18.64 18.3723C18.6567 18.3723 18.6567 18.3501 18.6511 18.339L18.5789 18.1723V18.1667ZM18.99 18.0612C19.0067 18.0612 19.0122 18.0778 19.0178 18.089L19.0344 18.139C19.0178 18.1501 19.0067 18.1278 19.0011 18.1167C18.9956 18.1056 18.9789 18.089 18.9622 18.0945C18.94 18.0929 18.9177 18.0929 18.8956 18.0945C18.8844 18.1056 18.8956 18.1167 18.9011 18.1278L18.9344 18.2001C18.9456 18.2001 18.9678 18.2001 18.9789 18.189C18.9789 18.1778 18.9622 18.1501 18.99 18.1556C19.0067 18.1667 19.0011 18.189 19.0122 18.2056L19.04 18.2667C19.0233 18.2834 19.0122 18.2612 19.0067 18.2445C18.9956 18.2278 18.9678 18.2278 18.9511 18.2278C18.94 18.2278 18.9511 18.239 18.9511 18.2445L18.9844 18.3278C18.9956 18.3445 19.0233 18.3445 19.04 18.3445C19.0622 18.3445 19.0844 18.3445 19.0956 18.3223C19.1067 18.3112 19.0789 18.2834 19.0956 18.2778C19.1178 18.2778 19.1178 18.3001 19.1233 18.3112C19.1233 18.3279 19.1344 18.3445 19.14 18.3556C19.14 18.3667 19.1233 18.3667 19.1178 18.3667L18.9511 18.3778C18.9289 18.3778 18.9011 18.389 18.8956 18.3667C18.8956 18.3501 18.9289 18.3612 18.9289 18.3334L18.9067 18.2778L18.8456 18.1334C18.8344 18.1167 18.8233 18.1001 18.8011 18.0945C18.79 18.0945 18.7678 18.0945 18.7789 18.0723H18.8344L18.99 18.0612ZM19.1178 18.1334C19.1122 18.1167 19.1011 18.0945 19.0789 18.0834C19.0678 18.0834 19.04 18.0834 19.04 18.0612C19.0567 18.0501 19.0789 18.0612 19.0956 18.0612C19.14 18.0612 19.1844 18.0445 19.2289 18.0612C19.2733 18.0723 19.3122 18.1112 19.3178 18.1612C19.3178 18.1834 19.3011 18.2001 19.2789 18.2056C19.2622 18.2056 19.29 18.2112 19.2956 18.2167C19.3344 18.2334 19.3511 18.2667 19.3733 18.3001C19.3789 18.3112 19.4011 18.339 19.4067 18.3112C19.4067 18.2834 19.4456 18.3112 19.4344 18.3278C19.4344 18.3501 19.4178 18.3612 19.3956 18.3612C19.3733 18.3612 19.3456 18.3501 19.3344 18.3278C19.3122 18.2945 19.2956 18.2556 19.2622 18.2334C19.2511 18.2223 19.2344 18.2167 19.2178 18.2278V18.2501L19.2511 18.3167C19.2622 18.3334 19.2844 18.3334 19.3067 18.3334C19.3233 18.339 19.3178 18.3667 19.2956 18.3612H19.2011C19.1844 18.3723 19.1511 18.3612 19.1622 18.3445C19.1789 18.3445 19.2011 18.3334 19.19 18.3167L19.1344 18.1723L19.1178 18.1334ZM19.1956 18.189C19.2067 18.2056 19.2289 18.189 19.2456 18.189C19.2622 18.189 19.2622 18.1612 19.2567 18.1501C19.2511 18.1223 19.2344 18.0945 19.2067 18.0834C19.1956 18.0834 19.1622 18.0723 19.1567 18.089L19.1956 18.1778V18.1834V18.189ZM19.5956 18.2778C19.6067 18.2945 19.6122 18.3112 19.6289 18.3167C19.64 18.3167 19.6622 18.3167 19.6678 18.3334C19.6678 18.3501 19.6456 18.339 19.6344 18.3445C19.6049 18.3411 19.5751 18.3411 19.5456 18.3445C19.5289 18.3501 19.5122 18.3445 19.5122 18.3278C19.5233 18.3167 19.5511 18.3278 19.5511 18.3056L19.5233 18.2445L19.4622 18.0834C19.4567 18.0667 19.4344 18.0667 19.4233 18.0667C19.4067 18.0667 19.3844 18.0667 19.3844 18.089C19.3844 18.1056 19.3956 18.1278 19.3844 18.1334C19.3678 18.1334 19.3622 18.1167 19.3567 18.1056L19.34 18.0501C19.34 18.039 19.3567 18.0445 19.3622 18.0445L19.5956 18.0334C19.6122 18.0334 19.6233 18.0445 19.6233 18.0612C19.6233 18.0778 19.64 18.0945 19.6456 18.1167C19.64 18.1334 19.6178 18.1167 19.6178 18.1001C19.6067 18.0834 19.5844 18.0667 19.5622 18.0612C19.5511 18.0612 19.5289 18.0612 19.5178 18.0723L19.5289 18.1112L19.5956 18.2778ZM19.8067 18.2278C19.7956 18.2278 19.8011 18.2445 19.8011 18.2501V18.2945C19.8067 18.3112 19.8289 18.3112 19.8456 18.3167C19.8567 18.3167 19.8511 18.3445 19.8344 18.339H19.7678C19.7511 18.3445 19.7289 18.3334 19.74 18.3167C19.7511 18.3167 19.7622 18.3112 19.7678 18.3001V18.0223C19.7789 18.0056 19.8011 18.0223 19.8011 18.0278L20.0011 18.2834C20.0122 18.2945 20.0289 18.3056 20.0456 18.3056C20.0622 18.3056 20.0678 18.3334 20.0456 18.3278H19.9622C19.9511 18.3278 19.9344 18.339 19.9233 18.3278C19.9122 18.3223 19.9233 18.3056 19.9344 18.3056C19.9511 18.3056 19.9344 18.2834 19.9289 18.2723L19.8956 18.2278H19.8067ZM19.8678 18.2001C19.8789 18.2001 19.8678 18.1945 19.8678 18.189L19.7956 18.0945V18.2056H19.8678V18.2001ZM20.04 18.1001C20.0344 18.0778 20.0233 18.0445 19.9956 18.0445C19.9789 18.0445 19.9567 18.0334 19.9678 18.0167H20.0622C20.1011 18.0167 20.14 18.0167 20.1733 18.0278C20.216 18.0407 20.2541 18.0652 20.2836 18.0985C20.313 18.1319 20.3326 18.1729 20.34 18.2167C20.34 18.2501 20.3344 18.289 20.3067 18.3056C20.2622 18.3334 20.2122 18.3278 20.1678 18.3223L20.09 18.3278C20.0733 18.3278 20.0678 18.3001 20.09 18.3056C20.1122 18.3056 20.1122 18.2778 20.1011 18.2667L20.04 18.1001ZM20.1511 18.239C20.1567 18.2556 20.1622 18.2778 20.1789 18.2945H20.2344C20.2622 18.2945 20.2733 18.2667 20.2733 18.2445C20.2725 18.2034 20.261 18.1632 20.24 18.1278C20.23 18.1084 20.2159 18.0913 20.1986 18.0779C20.1813 18.0644 20.1613 18.055 20.14 18.0501H20.0844C20.0789 18.0501 20.0844 18.0612 20.0844 18.0723L20.1511 18.239ZM18.9789 18.9279C18.9789 18.9445 19.0011 18.9612 19.0233 18.9612C19.0344 18.9612 19.0622 18.9612 19.0622 18.9834C19.0511 18.9945 19.0344 18.9834 19.0178 18.9834C18.9897 18.9847 18.9618 18.9884 18.9344 18.9945H18.8844C18.8733 18.9945 18.8733 18.9723 18.89 18.9723C18.9067 18.9723 18.9233 18.9667 18.9289 18.9501C18.9289 18.9334 18.9178 18.9167 18.9122 18.9056L18.8456 18.7501C18.8456 18.7334 18.8233 18.7334 18.8067 18.7334C18.7956 18.7334 18.7733 18.739 18.7678 18.7223C18.7678 18.7056 18.7956 18.7112 18.8067 18.7001L18.8622 18.6834C18.8733 18.6834 18.8789 18.689 18.8844 18.7001L18.9789 18.9223V18.9279ZM19.0178 18.6779H19.1289C19.1511 18.6779 19.14 18.6501 19.1511 18.6501C19.1733 18.6501 19.1733 18.6779 19.1733 18.689C19.1744 18.6936 19.1743 18.6983 19.173 18.7029C19.1717 18.7074 19.1692 18.7115 19.1659 18.7149C19.1626 18.7182 19.1585 18.7206 19.1539 18.7219C19.1494 18.7232 19.1446 18.7234 19.14 18.7223H19.0567L19.0844 18.789L19.1178 18.7779C19.1479 18.7771 19.1775 18.7851 19.2032 18.8009C19.2288 18.8167 19.2493 18.8395 19.2622 18.8667C19.2733 18.889 19.2789 18.9223 19.2622 18.9501C19.24 18.9779 19.2067 18.9834 19.1733 18.9834C19.1456 18.9834 19.1178 18.9779 19.0956 18.9501C19.09 18.939 19.09 18.9112 19.1067 18.9167C19.1289 18.9167 19.1456 18.9279 19.1456 18.9501C19.1511 18.9612 19.1733 18.9556 19.1844 18.9556C19.2011 18.9556 19.2178 18.9445 19.2178 18.9223C19.2178 18.9001 19.2067 18.8667 19.19 18.8501C19.1789 18.8279 19.1511 18.8112 19.1233 18.8112L19.0733 18.8167C19.0567 18.8167 19.0567 18.8001 19.0511 18.789C19.0367 18.7543 19.0237 18.7191 19.0122 18.6834C19.0122 18.6834 19.0178 18.6723 19.0233 18.6779H19.0178ZM19.4011 18.7334C19.39 18.7112 19.3789 18.6834 19.3511 18.6779C19.34 18.6779 19.3122 18.6667 19.3289 18.6556H19.4178C19.4561 18.6433 19.4975 18.6453 19.5344 18.6612C19.5771 18.674 19.6153 18.6985 19.6447 18.7319C19.6741 18.7653 19.6937 18.8062 19.7011 18.8501C19.7011 18.8834 19.6956 18.9167 19.6622 18.9334C19.6233 18.9612 19.5733 18.9556 19.5289 18.9556L19.4567 18.9667C19.44 18.9667 19.4344 18.939 19.4567 18.939C19.4789 18.939 19.4733 18.9167 19.4678 18.9001L19.4011 18.7334ZM19.5122 18.8667C19.5233 18.889 19.5289 18.9112 19.5456 18.9223C19.5622 18.9334 19.5789 18.9279 19.6011 18.9223C19.6233 18.9223 19.6344 18.8945 19.6344 18.8723C19.6327 18.8305 19.6192 18.7901 19.5956 18.7556C19.5853 18.737 19.5709 18.7208 19.5537 18.7083C19.5364 18.6958 19.5165 18.6873 19.4956 18.6834C19.4772 18.6803 19.4584 18.6803 19.44 18.6834V18.7001L19.5122 18.8667ZM19.8678 18.6334C19.8844 18.6334 19.89 18.6501 19.8956 18.6612C19.8956 18.6779 19.9067 18.689 19.9122 18.7056C19.9011 18.7223 19.8844 18.7056 19.8789 18.689C19.8733 18.6779 19.8622 18.6612 19.8456 18.6612C19.8215 18.6596 19.7974 18.6596 19.7733 18.6612C19.7622 18.6723 19.7733 18.689 19.7733 18.6945L19.8067 18.7723C19.8233 18.7723 19.84 18.7723 19.8511 18.7612C19.8622 18.7501 19.84 18.7223 19.8622 18.7279C19.8844 18.7279 19.8789 18.7556 19.8844 18.7723L19.9122 18.8334C19.9067 18.8556 19.8844 18.8334 19.8789 18.8167C19.8733 18.8001 19.8511 18.8001 19.8344 18.8001C19.8233 18.8001 19.8122 18.8001 19.8233 18.8112L19.8567 18.8945C19.8678 18.9167 19.8956 18.9112 19.9122 18.9112C19.9344 18.9112 19.9567 18.9112 19.9678 18.8945C19.9789 18.8834 19.9567 18.8612 19.9678 18.8501C19.99 18.8501 19.9956 18.8667 19.9956 18.8779L20.0122 18.9334C20.0122 18.939 19.9956 18.9334 19.99 18.9334L19.8178 18.9445C19.8011 18.9445 19.7789 18.9556 19.7678 18.9445C19.7567 18.9167 19.7956 18.9279 19.8011 18.9112L19.7844 18.8612L19.7233 18.7001C19.7122 18.6834 19.7011 18.6667 19.6789 18.6612C19.6678 18.6612 19.6456 18.6612 19.6567 18.639H19.7122L19.8678 18.6334ZM18.3567 19.4279C18.3622 19.4556 18.39 19.4667 18.4122 19.4723C18.4567 19.4834 18.5067 19.5001 18.5344 19.5334C18.5511 19.5556 18.5622 19.5834 18.5622 19.6112C18.5622 19.639 18.5344 19.6612 18.5067 19.6667C18.4755 19.676 18.4421 19.674 18.4122 19.6612C18.4011 19.6556 18.4067 19.6834 18.39 19.6723C18.3733 19.6667 18.3789 19.6445 18.3678 19.6279C18.3633 19.609 18.3577 19.5905 18.3511 19.5723C18.3511 19.5556 18.3733 19.5723 18.3789 19.5834C18.3955 19.6167 18.4289 19.639 18.4678 19.6445C18.49 19.6445 18.5122 19.6334 18.5122 19.6112C18.5122 19.5834 18.49 19.5556 18.4678 19.5445C18.4289 19.5279 18.39 19.5223 18.3567 19.5001C18.3408 19.491 18.3274 19.4781 18.3177 19.4626C18.3081 19.4471 18.3023 19.4294 18.3011 19.4112C18.3011 19.389 18.3233 19.3667 18.3456 19.3612C18.3744 19.3518 18.4055 19.3518 18.4344 19.3612C18.4455 19.3612 18.4511 19.3445 18.4678 19.3556C18.4678 19.3667 18.4678 19.3779 18.4789 19.389L18.4956 19.439C18.4844 19.4501 18.4678 19.439 18.4678 19.4279C18.4511 19.4056 18.4344 19.3834 18.4122 19.3834C18.39 19.3834 18.3678 19.3834 18.3567 19.4001V19.4279ZM18.7233 19.3334C18.7456 19.3334 18.7456 19.3501 18.7511 19.3612C18.7511 19.3779 18.7622 19.3945 18.7678 19.4056C18.7567 19.4223 18.74 19.4056 18.7344 19.3945C18.7289 19.3834 18.7178 19.3667 18.6956 19.3667H18.6289C18.6178 19.3779 18.6289 19.389 18.6289 19.4001L18.6567 19.4779C18.6733 19.4779 18.69 19.4779 18.7011 19.4667C18.7122 19.4556 18.69 19.4334 18.7067 19.4279C18.7289 19.4279 18.7289 19.4501 18.7344 19.4667C18.7344 19.489 18.7511 19.5112 18.7622 19.539C18.7511 19.5556 18.7289 19.539 18.7289 19.5223C18.7233 19.5056 18.7011 19.5001 18.6844 19.5056C18.6733 19.5056 18.6622 19.5056 18.6678 19.5167L18.7011 19.6001C18.7067 19.6167 18.7233 19.6167 18.74 19.6167C18.7622 19.6167 18.79 19.6167 18.8067 19.6001C18.8178 19.589 18.8067 19.5667 18.8067 19.5556C18.8233 19.5445 18.84 19.5556 18.84 19.5723L18.8511 19.6279C18.8511 19.639 18.8344 19.639 18.8289 19.639L18.6622 19.6501C18.64 19.6501 18.6178 19.6667 18.6067 19.6501C18.6067 19.6279 18.6344 19.6334 18.64 19.6167C18.64 19.6001 18.64 19.589 18.6289 19.5723L18.5733 19.4056C18.5733 19.389 18.5567 19.3723 18.5344 19.3723C18.5233 19.3723 18.5011 19.3612 18.5122 19.3501H18.5678L18.7233 19.3334ZM18.9567 19.5667C18.9622 19.5834 18.9733 19.6001 18.99 19.6056C19.0067 19.6056 19.0289 19.6001 19.0344 19.6167C19.0344 19.639 19.0067 19.6279 18.9956 19.6279C18.9658 19.6259 18.9359 19.6278 18.9067 19.6334C18.8956 19.6334 18.8789 19.6445 18.8733 19.6279C18.8733 19.6056 18.9011 19.6167 18.9067 19.6056L18.9011 19.5612L18.8456 19.3945C18.8344 19.3779 18.8289 19.3556 18.8067 19.3556C18.7956 19.3556 18.7733 19.3556 18.7789 19.3334C18.7844 19.3223 18.8067 19.3334 18.8178 19.3334C18.8567 19.3334 18.8956 19.3167 18.94 19.3223C18.9603 19.3237 18.9799 19.3306 18.9966 19.3424C19.0132 19.3541 19.0263 19.3703 19.0344 19.389C19.0456 19.4112 19.0456 19.4445 19.0344 19.4612C19.0067 19.4834 18.9733 19.489 18.94 19.4945C18.9289 19.4945 18.94 19.5056 18.94 19.5112L18.9567 19.5667ZM18.9289 19.4667H18.9622C18.9789 19.4612 18.99 19.4445 18.9844 19.4279C18.9821 19.4033 18.9724 19.3801 18.9567 19.3612C18.94 19.3445 18.9122 19.3445 18.8956 19.3501C18.8844 19.3556 18.8956 19.3667 18.8956 19.3779L18.9233 19.4667H18.9289ZM19.2678 19.5501C19.2678 19.5612 19.2789 19.5834 19.2956 19.5834C19.3067 19.5834 19.3344 19.5834 19.3344 19.6001C19.3344 19.6167 19.3067 19.6112 19.2956 19.6112C19.2658 19.6096 19.236 19.6115 19.2067 19.6167C19.1956 19.6167 19.1789 19.6167 19.1789 19.6001C19.19 19.589 19.2178 19.6001 19.2178 19.5779L19.2011 19.5112L19.1456 19.3501C19.1456 19.3334 19.1233 19.3334 19.1067 19.339C19.0956 19.339 19.0733 19.339 19.0678 19.3556V19.4001C19.0567 19.4112 19.0456 19.4001 19.0456 19.3834C19.0397 19.3643 19.0322 19.3457 19.0233 19.3279C19.0233 19.3112 19.04 19.3112 19.0511 19.3112L19.2789 19.3001C19.2956 19.3001 19.3067 19.3112 19.3067 19.3279L19.3289 19.3834C19.3233 19.3945 19.3011 19.3834 19.3011 19.3723C19.29 19.3556 19.2733 19.3334 19.2456 19.3279C19.2344 19.3279 19.2178 19.3279 19.2011 19.339L19.2122 19.3723L19.2678 19.5501ZM19.3844 19.3667C19.3789 19.3501 19.3733 19.3279 19.3511 19.3223C19.34 19.3223 19.3178 19.3223 19.3178 19.3001C19.3233 19.289 19.34 19.3001 19.3511 19.3001L19.4511 19.289C19.4678 19.2834 19.4789 19.3112 19.4622 19.3112C19.4456 19.3112 19.4289 19.3223 19.4344 19.339L19.4622 19.4279L19.5011 19.5501C19.5011 19.5612 19.5178 19.5723 19.5289 19.5723C19.5456 19.5723 19.5678 19.5723 19.5622 19.5945H19.5233L19.4344 19.6056C19.4233 19.6056 19.4067 19.5945 19.4122 19.5834C19.4233 19.5779 19.4456 19.5834 19.4456 19.5612L19.4289 19.4945L19.3844 19.3667ZM19.7067 19.2779C19.7233 19.2779 19.7233 19.2945 19.7289 19.3056L19.74 19.3501C19.7344 19.3667 19.7122 19.3501 19.7122 19.339C19.7067 19.3223 19.6956 19.3056 19.6733 19.3056C19.6511 19.3043 19.6289 19.3043 19.6067 19.3056C19.5956 19.3167 19.6067 19.3334 19.6067 19.339L19.6344 19.4167C19.6456 19.4167 19.6622 19.4167 19.6789 19.4056C19.69 19.3945 19.6678 19.3723 19.6844 19.3667C19.7067 19.3667 19.7067 19.3945 19.7067 19.4056L19.7344 19.4779C19.7289 19.4945 19.7067 19.4779 19.7067 19.4667C19.7011 19.4501 19.6789 19.4445 19.6622 19.4445C19.6567 19.4445 19.6344 19.4445 19.6456 19.4556L19.6733 19.539C19.6789 19.5556 19.6956 19.5612 19.7122 19.5556C19.7344 19.5556 19.7622 19.5556 19.7789 19.5445C19.79 19.5334 19.7789 19.5112 19.7844 19.4945C19.8011 19.4834 19.8122 19.5001 19.8122 19.5167C19.8167 19.5356 19.8223 19.5541 19.8289 19.5723C19.8289 19.5834 19.8122 19.5834 19.8011 19.5834L19.6344 19.589C19.6178 19.589 19.5956 19.6001 19.5789 19.589C19.5733 19.5667 19.6067 19.5723 19.6122 19.5612C19.6144 19.5538 19.6151 19.546 19.6141 19.5384C19.6132 19.5307 19.6106 19.5234 19.6067 19.5167L19.5511 19.3501C19.5511 19.3334 19.5344 19.3112 19.5122 19.3112C19.5011 19.3112 19.4789 19.3001 19.49 19.289H19.5456L19.7067 19.2779ZM19.8178 19.3334C19.8122 19.3112 19.7956 19.2945 19.7733 19.2945C19.7567 19.3001 19.7456 19.2612 19.7733 19.2723H19.8567L19.8956 19.3223L20.0122 19.4834V19.4667L20.0344 19.2667C20.0456 19.2556 20.0733 19.2667 20.09 19.2556C20.1067 19.2556 20.1456 19.2556 20.1344 19.2779C20.1122 19.2779 20.09 19.289 20.1011 19.3112L20.1678 19.5112C20.1678 19.5334 20.19 19.5445 20.2122 19.539C20.2289 19.539 20.2289 19.5723 20.2122 19.5667H20.1122C20.0956 19.5723 20.0678 19.5723 20.0789 19.5501C20.0956 19.5501 20.1233 19.539 20.1067 19.5167L20.0511 19.339C20.0567 19.3445 20.0511 19.3556 20.0511 19.3612L20.04 19.5279L20.0344 19.5723C20.0178 19.5779 20.0122 19.5667 20.0067 19.5556L19.8456 19.3501L19.8567 19.3667C19.8733 19.4223 19.8844 19.4779 19.9067 19.5279C19.9067 19.5501 19.9344 19.5556 19.9511 19.5556C19.9733 19.5667 19.9567 19.5834 19.94 19.5779H19.8567C19.84 19.5779 19.84 19.5556 19.8567 19.5556C19.8844 19.5556 19.8789 19.5279 19.8678 19.5112L19.8122 19.3279L19.8178 19.3334ZM20.3011 19.3779C20.3011 19.389 20.3233 19.3779 20.3289 19.3779C20.3456 19.3779 20.3678 19.3779 20.3678 19.3556C20.3678 19.3279 20.3567 19.3001 20.34 19.289C20.3178 19.2723 20.2956 19.2779 20.2733 19.2779L20.2789 19.3056L20.3011 19.3779ZM20.3289 19.4667L20.3511 19.5223C20.3678 19.5334 20.3844 19.5279 20.4011 19.5279C20.4122 19.5279 20.4289 19.5167 20.4233 19.5001C20.4233 19.4667 20.4067 19.4279 20.3733 19.4167C20.355 19.4128 20.3361 19.4128 20.3178 19.4167V19.4334L20.3289 19.4667ZM20.2233 19.3334C20.2178 19.3112 20.2122 19.289 20.19 19.2779C20.1789 19.2779 20.1567 19.2779 20.1567 19.2612C20.1567 19.2445 20.1844 19.2612 20.1956 19.2556C20.2511 19.2556 20.2956 19.239 20.3456 19.2556C20.3844 19.2667 20.4178 19.3056 20.4178 19.3445C20.4178 19.3667 20.4011 19.3834 20.3789 19.3945C20.3789 19.3834 20.4011 19.3945 20.4067 19.3945C20.4344 19.4056 20.4622 19.4279 20.4733 19.4556C20.4844 19.4834 20.49 19.5112 20.4733 19.5334C20.4511 19.5556 20.4178 19.5556 20.39 19.5556L20.2622 19.5612C20.2456 19.5612 20.24 19.5334 20.2622 19.539C20.2789 19.539 20.2844 19.5167 20.2733 19.5001L20.2233 19.3334ZM20.5011 19.3223C20.5011 19.3056 20.49 19.2779 20.4678 19.2667C20.4567 19.2667 20.4344 19.2667 20.4344 19.2501C20.4456 19.2334 20.4678 19.2501 20.49 19.2445H20.6011C20.6456 19.2445 20.6845 19.2779 20.6956 19.3223C20.7067 19.3445 20.6956 19.3779 20.6789 19.389L20.6511 19.4001C20.6845 19.4112 20.7122 19.439 20.7289 19.4667L20.7567 19.5112C20.7733 19.5223 20.7733 19.5056 20.7733 19.4945C20.7956 19.4834 20.8067 19.5112 20.7956 19.5279C20.79 19.5501 20.7567 19.5556 20.74 19.5501C20.7178 19.5501 20.7067 19.5334 20.6956 19.5167L20.64 19.4223C20.6334 19.4161 20.6253 19.4118 20.6165 19.4099C20.6077 19.4079 20.5986 19.4084 20.59 19.4112V19.439L20.6178 19.5001C20.6233 19.5223 20.6456 19.5223 20.6622 19.5279C20.6845 19.5279 20.6845 19.5556 20.6622 19.5501H20.5622C20.5511 19.5501 20.5289 19.5612 20.5233 19.5501C20.5122 19.5223 20.5456 19.5334 20.5567 19.5167L20.5456 19.4723L20.5011 19.3223ZM20.5733 19.3779C20.5789 19.389 20.6067 19.3779 20.6178 19.3779C20.6345 19.3779 20.6456 19.3612 20.64 19.3501C20.64 19.3223 20.6289 19.2945 20.6122 19.2779C20.5956 19.2667 20.5733 19.2667 20.5567 19.2723C20.5456 19.2723 20.5511 19.289 20.5567 19.3001L20.5733 19.3723V19.3779ZM20.9622 19.2334C20.9733 19.2334 20.9789 19.2501 20.9789 19.2612C20.9789 19.2779 20.99 19.289 20.9956 19.3056C20.9845 19.3223 20.9678 19.3056 20.9678 19.2945C20.9567 19.2834 20.9511 19.2612 20.9289 19.2612C20.9049 19.2595 20.8807 19.2595 20.8567 19.2612C20.8456 19.2667 20.8567 19.2834 20.8567 19.2945L20.8789 19.3667H20.9233C20.94 19.3556 20.9178 19.3279 20.9345 19.3223C20.9567 19.3223 20.9567 19.3445 20.9567 19.3612C20.9567 19.3834 20.9733 19.4112 20.9789 19.4334C20.9733 19.4501 20.9511 19.4334 20.9511 19.4223C20.9511 19.4056 20.9289 19.3945 20.9122 19.4001C20.9067 19.4001 20.8845 19.389 20.89 19.4001L20.9178 19.4945C20.9178 19.5112 20.94 19.5112 20.9567 19.5112C20.9789 19.5112 21.0067 19.5112 21.0233 19.5001C21.04 19.489 21.0233 19.4667 21.0289 19.4556C21.0456 19.4445 21.0622 19.4556 21.0567 19.4723L21.0678 19.5279C21.0678 19.539 21.0511 19.539 21.0456 19.539H20.8733C20.8567 19.539 20.84 19.5501 20.8289 19.539C20.8122 19.5167 20.8456 19.5223 20.8511 19.5112C20.8622 19.5001 20.8511 19.4834 20.8511 19.4723L20.8011 19.3001C20.8011 19.2834 20.7845 19.2612 20.7678 19.2612C20.7511 19.2612 20.7345 19.2556 20.74 19.239H20.7956L20.9622 19.2334ZM19.1344 19.9612C19.1289 19.939 19.1233 19.9167 19.1011 19.9056C19.0844 19.9056 19.0622 19.9056 19.0733 19.889C19.09 19.8779 19.1067 19.889 19.1289 19.8834C19.1733 19.8834 19.2178 19.8723 19.2622 19.8834C19.2953 19.8903 19.3261 19.9057 19.3514 19.9281C19.3767 19.9505 19.3958 19.9792 19.4067 20.0112C19.4178 20.0556 19.4233 20.1001 19.3956 20.139C19.3678 20.1723 19.3178 20.1834 19.2733 20.1834C19.2344 20.1834 19.2011 20.1834 19.1678 20.1945C19.1567 20.2001 19.1344 20.189 19.1456 20.1723C19.1622 20.1723 19.1844 20.1612 19.1789 20.1445L19.1567 20.0612L19.1344 19.9612ZM19.2233 20.1001C19.2289 20.1167 19.2344 20.139 19.2456 20.1501C19.2622 20.1612 19.2844 20.1556 19.3011 20.1501C19.3233 20.1501 19.3456 20.1279 19.3511 20.1001C19.3555 20.0581 19.3478 20.0157 19.3289 19.9779C19.3217 19.9606 19.3103 19.9455 19.2957 19.9339C19.2812 19.9222 19.2639 19.9144 19.2456 19.9112C19.2254 19.9074 19.2046 19.9074 19.1844 19.9112C19.1789 19.9112 19.1844 19.9223 19.1844 19.9334L19.2233 20.1001ZM19.6178 19.8501C19.6344 19.8501 19.6344 19.8667 19.64 19.8779L19.6511 19.9279C19.6456 19.939 19.6233 19.9279 19.6233 19.9167C19.6178 19.9001 19.6067 19.8834 19.59 19.8834C19.566 19.8817 19.5418 19.8817 19.5178 19.8834C19.5067 19.889 19.5178 19.9056 19.5178 19.9167C19.5178 19.9445 19.5289 19.9723 19.5344 19.9945C19.5511 19.9945 19.5678 19.9945 19.5789 19.9834C19.59 19.9723 19.5733 19.9501 19.59 19.9445C19.6122 19.9445 19.6067 19.9723 19.6122 19.9834C19.6122 20.0056 19.6289 20.0279 19.6289 20.0556C19.6289 20.0723 19.6011 20.0556 19.6011 20.0445C19.6011 20.0223 19.5789 20.0167 19.5622 20.0223C19.5567 20.0223 19.5344 20.0167 19.5456 20.0279C19.5456 20.0556 19.5567 20.0834 19.5678 20.1167C19.5678 20.1334 19.59 20.1334 19.6067 20.1334C19.6289 20.1334 19.6567 20.1334 19.6733 20.1167C19.6844 20.1056 19.6733 20.0834 19.6844 20.0723C19.7011 20.0612 19.7067 20.0779 19.7067 20.0945C19.7067 20.1112 19.7067 20.1279 19.7178 20.1501L19.69 20.1556L19.5233 20.1667C19.5067 20.1667 19.49 20.1779 19.4733 20.1667C19.4622 20.1556 19.4789 20.1445 19.4956 20.1445C19.5122 20.139 19.5067 20.1167 19.5067 20.1056L19.4622 19.9279C19.4567 19.9112 19.4456 19.889 19.4289 19.889C19.4122 19.889 19.3956 19.8834 19.4011 19.8667L19.4567 19.8612L19.6178 19.8501ZM19.9789 20.0779C19.9789 20.0945 19.9956 20.1112 20.0122 20.1112C20.0233 20.1167 20.0456 20.1112 20.0511 20.1279C20.0567 20.1445 20.0289 20.139 20.0178 20.139L19.9233 20.1445C19.9067 20.1445 19.89 20.1501 19.8789 20.1445C19.8622 20.1445 19.8678 20.1223 19.8844 20.1223C19.9011 20.1223 19.9178 20.1167 19.9233 20.1001L19.9178 20.0556L19.8789 19.9001C19.8789 19.8834 19.8567 19.8834 19.8456 19.8834C19.8344 19.8834 19.8122 19.8945 19.8067 19.8779C19.8067 19.8556 19.8344 19.8612 19.8456 19.8556L19.9067 19.8334C19.9178 19.8334 19.9233 19.839 19.9233 19.8501L19.9789 20.0779ZM20.1844 19.8945C20.1844 19.8723 20.1678 19.8501 20.1456 19.8501C20.1289 19.8501 20.1067 19.8501 20.1011 19.8667C20.0991 19.8772 20.1002 19.8879 20.1041 19.8978C20.108 19.9076 20.1147 19.9161 20.1233 19.9223L20.1733 19.9501L20.1844 19.9167C20.1855 19.9094 20.1855 19.9019 20.1844 19.8945ZM20.2289 20.0612C20.2289 20.0279 20.2011 20.0112 20.1733 20.0056C20.1622 20.0056 20.1511 19.989 20.1456 19.9945C20.1369 20.0007 20.1303 20.0092 20.1263 20.0191C20.1224 20.0289 20.1214 20.0397 20.1233 20.0501C20.1344 20.0834 20.1511 20.1056 20.1789 20.1056C20.2011 20.1112 20.2233 20.1056 20.2344 20.0834C20.2368 20.0743 20.2368 20.0647 20.2344 20.0556L20.2289 20.0612ZM20.2844 20.0445C20.2874 20.0585 20.2857 20.0731 20.2797 20.0862C20.2737 20.0992 20.2637 20.1099 20.2511 20.1167C20.2345 20.1265 20.216 20.1326 20.1968 20.1345C20.1776 20.1364 20.1582 20.1341 20.14 20.1279C20.1233 20.1231 20.1083 20.1138 20.0965 20.1011C20.0848 20.0884 20.0767 20.0726 20.0733 20.0556C20.0733 20.0334 20.0789 20.0001 20.1067 19.9834C20.1067 19.9834 20.1289 19.9779 20.1122 19.9723C20.0844 19.9612 20.0567 19.939 20.0567 19.9056C20.0456 19.8779 20.0567 19.8501 20.0844 19.8334C20.109 19.8207 20.1375 19.8177 20.1642 19.8249C20.1909 19.8321 20.214 19.849 20.2289 19.8723C20.24 19.8945 20.24 19.9223 20.2289 19.939L20.1956 19.9667C20.2233 19.9667 20.2511 19.989 20.2622 20.0112C20.2733 20.0167 20.2789 20.0334 20.2789 20.0445H20.2844ZM20.4622 20.0723C20.4733 20.0723 20.49 20.0723 20.49 20.0501C20.4956 20.0445 20.49 20.0167 20.5067 20.0223C20.5233 20.0223 20.5178 20.039 20.5233 20.0556C20.5233 20.0779 20.5233 20.1001 20.5011 20.1167C20.49 20.1279 20.4733 20.1223 20.4567 20.1223H20.3622C20.3511 20.1223 20.3344 20.1334 20.3233 20.1223C20.3122 20.1112 20.3233 20.0945 20.3233 20.0834C20.3344 20.0445 20.3567 20.0167 20.3789 19.9945C20.4011 19.9779 20.4233 19.9612 20.4289 19.9334C20.4305 19.91 20.4247 19.8866 20.4122 19.8667C20.4083 19.8605 20.4031 19.8551 20.397 19.8508C20.391 19.8466 20.3841 19.8436 20.3769 19.842C20.3696 19.8405 20.3621 19.8404 20.3548 19.8418C20.3476 19.8431 20.3406 19.846 20.3344 19.8501C20.3178 19.8556 20.3122 19.8779 20.3178 19.889C20.3289 19.9001 20.3511 19.889 20.3567 19.9112C20.3678 19.9223 20.3567 19.9445 20.34 19.9445C20.3178 19.9445 20.2956 19.9279 20.2844 19.9056C20.2801 19.8908 20.2811 19.875 20.2872 19.8608C20.2933 19.8466 20.3041 19.835 20.3178 19.8279C20.3456 19.8112 20.3789 19.8112 20.4122 19.8167C20.44 19.8279 20.4678 19.8501 20.4789 19.8834C20.4844 19.9056 20.4844 19.9334 20.4733 19.9556C20.4511 19.9945 20.4122 20.0112 20.3789 20.0501C20.3733 20.0556 20.3678 20.0667 20.3733 20.0834C20.3733 20.0667 20.3956 20.0723 20.4011 20.0723H20.4567H20.4622ZM20.6844 20.0501C20.6844 20.0667 20.6956 20.0834 20.7122 20.089C20.7233 20.089 20.7456 20.089 20.7511 20.1001C20.7567 20.1167 20.7345 20.1167 20.7233 20.1167H20.5733C20.5622 20.1112 20.5733 20.089 20.5845 20.0945C20.6011 20.0945 20.6178 20.089 20.6233 20.0723V20.0279L20.5845 19.8723C20.5845 19.8556 20.5678 19.8556 20.5567 19.8556C20.54 19.8556 20.5233 19.8667 20.5178 19.8556C20.5067 19.8279 20.5344 19.8334 20.5456 19.8279L20.6122 19.8056C20.6233 19.8056 20.6289 19.8112 20.6344 19.8223L20.6789 20.0501H20.6844Z" fill="#B07E09"/>
<path d="M19.1011 15.5223L18.89 15.7779C18.8233 16.0667 18.99 16.289 19.3178 16.4779C19.5789 16.6445 20.0678 16.6834 20.2233 16.5501L19.4622 15.8279L19.1011 15.5278V15.5223Z" fill="url(#paint9_radial_769_18060)" stroke="#4C0505" stroke-width="0.0111112"/>
<path d="M20.6456 23.0168C20.6088 22.9703 20.5717 22.924 20.5344 22.8779C20.052 23.5336 19.4319 24.0759 18.7178 24.4668C19.5567 24.2279 20.1067 23.6223 20.6456 23.0168ZM19.7789 25.0001C20.0917 24.3886 20.429 23.79 20.79 23.2057C20.7514 23.1554 20.7125 23.1054 20.6733 23.0557C20.2678 23.7334 19.7844 24.539 19.7844 25.0001H19.7789ZM22.1122 18.639C22.0595 18.3901 21.9794 18.1479 21.8733 17.9167C21.2779 16.9124 20.4416 16.0723 19.44 15.4723V15.4556H19.4567L19.4456 15.4501H19.4733L19.4622 15.4334H19.4844L19.4678 15.4112H19.49L19.4733 15.3945H19.5011L19.4844 15.3723H19.5067L19.4844 15.3556L19.5178 15.3501L19.49 15.3334L19.5178 15.3278L19.4956 15.3112L19.5289 15.3001L19.5011 15.2834L19.5344 15.2667L19.5011 15.2445L19.54 15.2334L19.5011 15.2167L19.5344 15.1945H19.49L19.5178 15.1556H19.4789L19.4956 15.1278H19.4622L19.4789 15.1001L19.44 15.1056L19.4567 15.0723L19.4233 15.0945L19.4344 15.0556L19.3956 15.0778L19.4011 15.0389L19.3733 15.0667V15.0278L19.3456 15.0556V15.0167L19.3178 15.0501V15.0112L19.2956 15.0445L19.2844 15.0056L19.2678 15.0389L19.2567 15.0001L19.24 15.0445L19.2289 15.0001L19.2122 15.0445L19.2011 15.0056L19.19 15.0389L19.1844 15.0112L19.1678 15.0501L19.1567 15.0112L19.1456 15.0556L19.1289 15.0167L19.1178 15.0612L19.1011 15.0223V15.0667L19.0789 15.0334V15.0778L19.0511 15.0445V15.0834L19.0289 15.0667L19.04 15.1056L19.0122 15.089L19.0233 15.1278L19.0011 15.1112L19.0067 15.1445H18.9844L18.9956 15.1667H18.9789L18.99 15.189C18.9699 15.2517 18.9623 15.3177 18.9678 15.3834C18.9678 15.3945 19.0011 15.4056 19.0067 15.4167C19.0233 15.439 19.0178 15.4501 19.0178 15.4501C18.9289 15.5945 18.8511 15.7056 18.8456 15.8723C18.9122 15.7834 18.99 15.6723 19.09 15.6723C19.04 15.7556 19.0178 16.0112 19.0733 16.0556L19.1178 15.9778C19.1178 16.0334 19.1233 16.0778 19.14 16.1056L19.1956 16.0112C19.1956 16.0945 19.2067 16.1612 19.2289 16.1945C19.2526 16.1595 19.2828 16.1293 19.3178 16.1056C19.3067 16.1556 19.29 16.2001 19.2956 16.2556L19.4067 16.1167C19.3844 16.2056 19.4067 16.2723 19.4289 16.3667C19.4511 16.2556 19.4622 16.239 19.5122 16.1945C19.5178 16.3001 19.5011 16.3945 19.5233 16.4556C19.5678 16.3612 19.6011 16.3723 19.6344 16.3112C19.6233 16.4001 19.6067 16.4945 19.6344 16.5723C19.6506 16.5128 19.6882 16.4613 19.74 16.4278C19.74 16.5501 19.7678 16.5278 19.6956 16.6334C19.7289 16.6445 19.8344 16.6112 19.8956 16.5834C19.8678 16.6501 19.8733 16.7001 19.8456 16.7501C19.9011 16.7167 19.9567 16.6667 20.0067 16.6167C19.9844 16.6945 19.9233 16.7723 19.9511 16.8445C19.9678 16.7723 20.0233 16.7167 20.0789 16.7056C20.0678 16.7445 20.0622 16.8278 20.0067 16.8667C20.14 16.8778 20.1956 16.789 20.2622 16.7167C20.2567 16.7945 20.2622 16.8501 20.3511 16.9556C20.3344 16.8223 20.3622 16.8501 20.4233 16.7723C20.4567 16.889 20.49 17.0167 20.6122 17.1056C20.5567 16.9778 20.5567 16.9112 20.5789 16.8334C20.5956 16.9167 20.6733 17.0167 20.69 17.0945C20.7067 17.0056 20.7178 16.9223 20.7456 16.8667C20.7862 16.9662 20.8124 17.071 20.8233 17.1778C20.8511 17.1223 20.8733 17.0667 20.8845 17.0056C21.9845 18.1501 22.2289 19.6056 21.0289 21.1445C21.4567 20.8556 21.5678 20.3945 21.8067 20.0001C21.5733 20.5168 21.4733 21.0945 21.0567 21.5223C21.4567 21.1779 21.54 20.8612 21.7789 20.5279C21.5289 21.2223 21.1678 21.9834 20.6789 22.6834C20.7683 22.7793 20.8572 22.8756 20.9456 22.9723L21.1678 22.589C21.69 21.7334 22.54 20.5056 22.1122 18.639Z" fill="#448127" stroke="#34541F" stroke-width="0.0111112"/>
<path d="M18.9568 15.2945C18.9012 15.3056 18.879 15.3278 18.8401 15.3723C18.8901 15.3834 18.929 15.389 18.979 15.389C18.9901 15.389 18.9956 15.3723 18.9956 15.3556L18.9845 15.3001C18.9845 15.289 18.9512 15.2945 18.9401 15.3001L18.9568 15.2945Z" fill="#EAC102" stroke="#A08307" stroke-width="0.0111112"/>
<path d="M18.8345 15.3723C18.8527 15.3658 18.8712 15.3602 18.89 15.3556C18.912 15.3505 18.9343 15.3468 18.9567 15.3445C18.9385 15.3511 18.9199 15.3566 18.9011 15.3612C18.8792 15.3662 18.8569 15.3699 18.8345 15.3723Z" fill="#A08307"/>
<path d="M19.2068 15.3445C19.2313 15.3445 19.2512 15.3246 19.2512 15.3001C19.2512 15.2755 19.2313 15.2556 19.2068 15.2556C19.1823 15.2556 19.1624 15.2755 19.1624 15.3001C19.1624 15.3246 19.1823 15.3445 19.2068 15.3445Z" fill="black" stroke="black" stroke-width="0.00555558"/>
<path d="M19.2178 15.3112C19.227 15.3112 19.2345 15.3037 19.2345 15.2945C19.2345 15.2853 19.227 15.2778 19.2178 15.2778C19.2086 15.2778 19.2012 15.2853 19.2012 15.2945C19.2012 15.3037 19.2086 15.3112 19.2178 15.3112Z" fill="url(#paint10_radial_769_18060)"/>
<path d="M19.79 24.9834C19.8155 24.9012 19.8433 24.8197 19.8733 24.739C19.9046 24.6567 19.938 24.5752 19.9733 24.4945C20.04 24.3334 20.1233 24.1779 20.2011 24.0279C20.2845 23.874 20.3716 23.7221 20.4622 23.5723C20.5062 23.4979 20.5506 23.4239 20.5956 23.3501L20.7344 23.1278L20.6011 23.3501C20.5562 23.4257 20.5118 23.5017 20.4678 23.5779L20.2122 24.0334C20.129 24.1862 20.0512 24.3418 19.9789 24.5001C19.9437 24.5789 19.9103 24.6586 19.8789 24.739C19.847 24.8196 19.8173 24.9011 19.79 24.9834ZM18.74 24.4556C18.8341 24.4164 18.9268 24.3738 19.0178 24.3279C19.1048 24.281 19.19 24.231 19.2733 24.1779C19.4452 24.0701 19.6086 23.9493 19.7622 23.8167C19.9135 23.6871 20.0564 23.5479 20.19 23.4001C20.2585 23.3258 20.3252 23.2498 20.39 23.1723L20.5789 22.9334C20.5192 23.0141 20.4581 23.0937 20.3956 23.1723C20.3308 23.2517 20.2641 23.3295 20.1956 23.4056C20.0624 23.5556 19.9195 23.6967 19.7678 23.8279C19.6143 23.9589 19.4508 24.0778 19.2789 24.1834C19.1937 24.2348 19.1066 24.283 19.0178 24.3279C18.9267 24.3737 18.8341 24.4164 18.74 24.4556ZM20.8122 22.8278C20.8954 22.7061 20.9751 22.582 21.0511 22.4556L21.2733 22.0778C21.3434 21.949 21.4119 21.8194 21.4789 21.689L21.6844 21.3001L21.59 21.4945L21.49 21.6945C21.4235 21.8252 21.355 21.9548 21.2844 22.0834C21.2135 22.2111 21.1394 22.3371 21.0622 22.4612C20.9842 22.5869 20.9007 22.7092 20.8122 22.8278ZM21.1456 21.4334C21.2387 21.3208 21.324 21.202 21.4011 21.0778C21.48 20.953 21.5505 20.8231 21.6122 20.6889C21.7349 20.4221 21.828 20.1427 21.89 19.8556L21.9122 19.7445C21.9307 19.6341 21.9437 19.5229 21.9511 19.4112C21.9622 19.2651 21.9622 19.1184 21.9511 18.9723C21.9384 18.8262 21.9142 18.6813 21.8789 18.5389C21.845 18.3951 21.8005 18.2539 21.7456 18.1167C21.8021 18.252 21.8485 18.3913 21.8845 18.5334C21.9201 18.6775 21.9443 18.8243 21.9567 18.9723C21.9678 19.1167 21.9678 19.2667 21.9567 19.4167C21.951 19.5283 21.9399 19.6396 21.9233 19.7501C21.9163 19.7853 21.9089 19.8205 21.9011 19.8556C21.8391 20.1427 21.746 20.4221 21.6233 20.6889C21.5581 20.8234 21.4838 20.9533 21.4011 21.0778C21.3223 21.2022 21.235 21.321 21.14 21.4334H21.1456Z" fill="#34541F"/>
<path d="M21.0513 21.1112C21.1531 21.0137 21.2444 20.9056 21.3235 20.7889C21.4027 20.672 21.4733 20.5495 21.5346 20.4223C21.5953 20.2949 21.6509 20.1652 21.7013 20.0334C21.7235 19.9667 21.7568 19.9001 21.7735 19.8334L21.7957 19.7834L21.8124 19.7334L21.8457 19.6334C21.8735 19.4945 21.8846 19.35 21.8902 19.2056C21.8911 19.0623 21.88 18.9192 21.8568 18.7778C21.8346 18.6389 21.8013 18.5 21.7624 18.3612C21.7208 18.2237 21.6726 18.0884 21.6179 17.9556C21.6745 18.0883 21.7245 18.2236 21.7679 18.3612C21.8087 18.4978 21.8403 18.637 21.8624 18.7778C21.8855 18.9192 21.8966 19.0623 21.8957 19.2056C21.8961 19.3491 21.8831 19.4923 21.8568 19.6334L21.8235 19.7389L21.8068 19.7889L21.7846 19.8389L21.7124 20.0389C21.6602 20.1708 21.6027 20.3005 21.5402 20.4278C21.4789 20.5551 21.4084 20.6776 21.3291 20.7945C21.2482 20.9115 21.1551 21.0195 21.0513 21.1167V21.1112Z" fill="#34541F"/>
<path d="M20.7234 22.7334C20.7956 22.6445 20.8567 22.5501 20.9234 22.4556L21.0234 22.3167L21.1178 22.1779C21.1779 22.0804 21.2335 21.9803 21.2845 21.8779L21.4289 21.5723C21.5289 21.3667 21.6234 21.1612 21.7067 20.9445C21.789 20.7335 21.8541 20.5161 21.9012 20.2945C21.9456 20.0723 21.9789 19.8501 22.0067 19.6223C22.0289 19.3945 22.0289 19.1667 22.0067 18.9389C21.9831 18.7116 21.9327 18.4878 21.8567 18.2723C21.7797 18.0591 21.6849 17.8529 21.5734 17.6556C21.6869 17.8527 21.7835 18.059 21.8623 18.2723C21.9383 18.4878 21.9886 18.7116 22.0123 18.9389C22.0401 19.1612 22.0345 19.3945 22.0123 19.6223C21.9901 19.8445 21.9567 20.0723 21.9123 20.2945C21.8654 20.518 21.8004 20.7372 21.7178 20.9501C21.6341 21.1613 21.5414 21.3689 21.4401 21.5723L21.2901 21.8779C21.2391 21.9804 21.1835 22.0805 21.1234 22.1779C21.0956 22.2334 21.0623 22.2723 21.0289 22.3223L20.9289 22.4612L20.7289 22.739L20.7234 22.7334Z" fill="#34541F"/>
<path d="M20.8789 22.9056L21.2678 22.2612C21.3937 22.0449 21.5123 21.8244 21.6234 21.6001C21.7348 21.3766 21.8278 21.1443 21.9012 20.9056C21.94 20.7834 21.9678 20.6667 21.9956 20.5445C22.0085 20.4819 22.0197 20.4189 22.0289 20.3556C22.0754 20.0466 22.1014 19.7348 22.1067 19.4223C22.1067 19.1723 22.0845 18.9223 22.04 18.6778C21.9944 18.431 21.9198 18.1905 21.8178 17.9612C21.7153 17.7328 21.5847 17.5182 21.4289 17.3223C21.5847 17.5182 21.7153 17.7328 21.8178 17.9612C21.9216 18.1903 21.9981 18.4308 22.0456 18.6778C22.0906 18.9234 22.1129 19.1726 22.1123 19.4223C22.1123 19.6723 22.0956 19.9223 22.0623 20.1723C22.0557 20.2353 22.0483 20.2983 22.04 20.3612C22.0307 20.4226 22.0196 20.4837 22.0067 20.5445C21.9807 20.6662 21.9492 20.7867 21.9123 20.9056C21.8392 21.1462 21.7462 21.3804 21.6345 21.6056C21.5234 21.8278 21.3956 22.0501 21.2734 22.2612C21.147 22.4761 21.0173 22.6891 20.8845 22.9001L20.8789 22.9056ZM19.3345 15.6H19.4123C19.4907 15.6153 19.5671 15.6395 19.64 15.6723C19.7345 15.7167 19.8289 15.7723 19.9123 15.8389C19.9972 15.901 20.0771 15.9698 20.1511 16.0445C20.1857 16.0823 20.219 16.1213 20.2511 16.1612L20.3511 16.2889C20.3188 16.2474 20.2854 16.2067 20.2511 16.1667C20.2154 16.1284 20.1783 16.0914 20.14 16.0556C20.0676 15.9795 19.9896 15.9089 19.9067 15.8445C19.8222 15.7793 19.7309 15.7235 19.6345 15.6778C19.5391 15.6365 19.4379 15.6102 19.3345 15.6Z" fill="#34541F"/>
<path d="M20.2458 16.2C20.2458 16.2 20.4125 16.3 20.5069 16.4445C20.5069 16.4445 20.2458 16.3945 20.0625 16.1889" fill="#448127"/>
<path d="M20.246 16.2C20.298 16.2296 20.3465 16.265 20.3905 16.3056C20.4366 16.3447 20.4777 16.3895 20.5127 16.4389L20.5182 16.4556H20.5071C20.4634 16.4444 20.4206 16.4295 20.3794 16.4112C20.3391 16.3955 20.3001 16.377 20.2627 16.3556C20.1849 16.3112 20.1182 16.2556 20.0571 16.1889C20.119 16.2515 20.1902 16.3039 20.2682 16.3445C20.3041 16.3653 20.3412 16.3838 20.3794 16.4C20.4208 16.4165 20.4635 16.4296 20.5071 16.4389V16.45C20.4904 16.4246 20.4718 16.4005 20.4516 16.3778L20.3849 16.3112C20.3635 16.2917 20.3413 16.2731 20.3182 16.2556C20.295 16.236 20.2709 16.2175 20.246 16.2Z" fill="#34541F"/>
<path d="M19.8682 16.15C19.8682 16.15 20.2682 16.4056 20.3237 16.4278C20.3237 16.4278 20.2348 16.2334 20.0459 16.15" fill="#448127"/>
<path d="M19.8682 16.15L20.0959 16.2889C20.1529 16.323 20.2103 16.3563 20.2682 16.3889L20.3237 16.4223V16.4278C20.3076 16.3985 20.289 16.3707 20.2682 16.3445L20.2071 16.2667C20.1831 16.2423 20.1571 16.22 20.1293 16.2L20.0459 16.15C20.0773 16.1634 20.1071 16.1802 20.1348 16.2C20.2167 16.2573 20.2834 16.3335 20.3293 16.4223L20.3404 16.4389L20.3237 16.4334L20.2071 16.3667L20.0959 16.2945C20.0193 16.2476 19.9433 16.1994 19.8682 16.15Z" fill="#34541F"/>
<path d="M20.0292 16.0223C20.0292 16.0223 20.2348 16.1112 20.2848 16.2612C20.2848 16.2612 19.907 16.1056 19.8403 16.0223" fill="#448127"/>
<path d="M20.0292 16.0223C20.0853 16.0439 20.1377 16.0738 20.1848 16.1112C20.2076 16.131 20.2281 16.1534 20.2459 16.1778L20.2903 16.2612V16.2723H20.2792C20.2419 16.2543 20.2049 16.2357 20.1681 16.2167C20.1288 16.1991 20.0899 16.1806 20.0514 16.1612C20.0137 16.142 19.9767 16.1216 19.9403 16.1L19.8848 16.0667L19.8403 16.0223L19.8903 16.0612L19.9459 16.0945L20.057 16.15C20.1319 16.1891 20.2079 16.2262 20.2848 16.2612H20.2792C20.2684 16.2349 20.2534 16.2105 20.2348 16.1889C20.2185 16.1649 20.1999 16.1426 20.1792 16.1223C20.1321 16.0821 20.0797 16.0485 20.0237 16.0223H20.0292Z" fill="#34541F"/>
<path d="M19.7126 16.1834C19.7126 16.1834 20.0793 16.4445 20.1904 16.4445C20.1904 16.4445 20.0793 16.2612 19.8904 16.1834" fill="#448127"/>
<path d="M19.7126 16.1834C19.7876 16.233 19.8636 16.2811 19.9404 16.3278C19.9998 16.3625 20.061 16.3941 20.1238 16.4223L20.1904 16.4389L20.1849 16.4501C20.1485 16.3934 20.1056 16.3412 20.0571 16.2945L19.9793 16.2334C19.9513 16.2124 19.9216 16.1938 19.8904 16.1778C19.9515 16.2056 20.0126 16.2445 20.0571 16.2889C20.1108 16.3337 20.1576 16.3861 20.196 16.4445V16.4501H20.1904C20.1655 16.4489 20.1411 16.4433 20.1182 16.4334C20.0974 16.425 20.077 16.4158 20.0571 16.4056C20.0174 16.3848 19.9785 16.3626 19.9404 16.3389C19.901 16.3138 19.8621 16.2879 19.8238 16.2612C19.7862 16.236 19.7491 16.2101 19.7126 16.1834Z" fill="#34541F"/>
<path d="M19.7126 16.2611C19.7126 16.2611 19.9015 16.4278 20.0126 16.4278C20.0126 16.4278 19.9015 16.2445 19.7126 16.1611" fill="#448127"/>
<path d="M19.7126 16.2611C19.7573 16.2967 19.8036 16.3301 19.8515 16.3611L19.9293 16.4C19.9559 16.4115 19.9839 16.419 20.0126 16.4223L20.0071 16.4278C19.9904 16.4006 19.9718 16.3746 19.9515 16.35C19.9082 16.297 19.8577 16.2503 19.8015 16.2111C19.7734 16.192 19.7436 16.1753 19.7126 16.1611C19.7738 16.1889 19.8349 16.2223 19.8793 16.2723C19.9325 16.3154 19.9793 16.3659 20.0182 16.4223V16.4334H20.0126C19.9793 16.4334 19.9571 16.4223 19.9238 16.4111C19.8968 16.3982 19.8708 16.3833 19.846 16.3667L19.7793 16.3167C19.7563 16.2992 19.734 16.2806 19.7126 16.2611Z" fill="#34541F"/>
<path d="M19.6125 15.9C19.6125 15.9 20.0126 16.1834 20.057 16.3389C20.057 16.3389 19.7014 16.1723 19.6348 16.0889" fill="#448127"/>
<path d="M19.6125 15.9C19.656 15.9303 19.6986 15.9618 19.7403 15.9945C19.782 16.0267 19.8227 16.06 19.8626 16.0945C19.9016 16.1295 19.9387 16.1665 19.9737 16.2056L20.0292 16.2612L20.0681 16.3389V16.35L20.057 16.3445C20.0197 16.3265 19.9827 16.308 19.9459 16.2889C19.9084 16.2712 19.8714 16.2527 19.8348 16.2334C19.7989 16.2123 19.7637 16.1901 19.7292 16.1667C19.7102 16.1545 19.6917 16.1415 19.6737 16.1278C19.6591 16.1165 19.6461 16.1035 19.6348 16.0889L19.6792 16.1278C19.7333 16.1619 19.7889 16.1934 19.8459 16.2223C19.919 16.2612 19.9931 16.2982 20.0681 16.3334L20.057 16.3389C20.0475 16.3149 20.0344 16.2924 20.0181 16.2723C20.0026 16.2509 19.9859 16.2305 19.9681 16.2112L19.857 16.1C19.8191 16.0638 19.7802 16.0286 19.7403 15.9945C19.6984 15.9622 19.6558 15.9307 19.6125 15.9Z" fill="#34541F"/>
<path d="M17.3902 23.9057C17.0408 24.0885 16.651 24.1802 16.2568 24.1724C16.8124 23.7168 17.3513 23.7057 17.3902 23.9057ZM21.268 24.1557C21.5569 24.4168 22.4346 24.6001 22.5735 24.5668C21.9846 23.9724 21.3457 23.9112 21.268 24.1557Z" fill="#406325" stroke="#24420E" stroke-width="0.0111112"/>
<path d="M17.3902 23.9057C17.3513 23.7001 16.8068 23.7112 16.2568 24.1724C16.6189 24.0266 17.0011 23.9367 17.3902 23.9057ZM21.2735 24.1501C21.3513 23.9057 21.9846 23.9668 22.5735 24.5668C22.163 24.3649 21.7249 24.2246 21.2735 24.1501Z" fill="#67923D" stroke="#24420E" stroke-width="0.0111112"/>
</g>
</g>
<defs>
<radialGradient id="paint0_radial_769_18060" cx="0" cy="0" r="1" gradientUnits="userSpaceOnUse" gradientTransform="translate(17.5234 20.4612) scale(0.916672)">
<stop offset="0.2" stop-color="#F9F0AA"/>
<stop offset="1" stop-color="#B07E09"/>
</radialGradient>
<radialGradient id="paint1_radial_769_18060" cx="0" cy="0" r="1" gradientUnits="userSpaceOnUse" gradientTransform="translate(17.7568 20.7223) scale(0.605558)">
<stop offset="0.2" stop-color="#F9F0AA"/>
<stop offset="1" stop-color="#B07E09"/>
</radialGradient>
<radialGradient id="paint2_radial_769_18060" cx="0" cy="0" r="1" gradientUnits="userSpaceOnUse" gradientTransform="translate(17.8955 20.4779) scale(0.544448)">
<stop offset="0.2" stop-color="#F9F0AA"/>
<stop offset="1" stop-color="#B07E09"/>
</radialGradient>
<radialGradient id="paint3_radial_769_18060" cx="0" cy="0" r="1" gradientUnits="userSpaceOnUse" gradientTransform="translate(18.1344 20.3945) scale(0.966671 0.966672)">
<stop offset="0.2" stop-color="#F9F0AA"/>
<stop offset="1" stop-color="#B07E09"/>
</radialGradient>
<linearGradient id="paint4_linear_769_18060" x1="18.9957" y1="17.7334" x2="18.9124" y2="16.2223" gradientUnits="userSpaceOnUse">
<stop offset="0.2" stop-color="#B07E09" stop-opacity="0"/>
<stop offset="1" stop-color="#B07E09"/>
</linearGradient>
<linearGradient id="paint5_linear_769_18060" x1="19.5067" y1="19.8168" x2="19.64" y2="21.4779" gradientUnits="userSpaceOnUse">
<stop offset="0.2" stop-color="#B07E09" stop-opacity="0"/>
<stop offset="1" stop-color="#B07E09"/>
</linearGradient>
<radialGradient id="paint6_radial_769_18060" cx="0" cy="0" r="1" gradientUnits="userSpaceOnUse" gradientTransform="translate(17.4457 17.3556) scale(0.722227 0.722226)">
<stop offset="0.2" stop-color="#F9F0AA"/>
<stop offset="1" stop-color="#B07E09"/>
</radialGradient>
<linearGradient id="paint7_linear_769_18060" x1="17.7512" y1="17.1945" x2="17.9679" y2="16.7001" gradientUnits="userSpaceOnUse">
<stop offset="0.2" stop-color="#F9F0AA"/>
<stop offset="1" stop-color="#B07E09"/>
</linearGradient>
<linearGradient id="paint8_linear_769_18060" x1="18.9623" y1="16.5167" x2="19.1068" y2="18.3556" gradientUnits="userSpaceOnUse">
<stop offset="0.2" stop-color="#F9F0AA"/>
<stop offset="1" stop-color="#B07E09"/>
</linearGradient>
<radialGradient id="paint9_radial_769_18060" cx="0" cy="0" r="1" gradientUnits="userSpaceOnUse" gradientTransform="translate(19.2178 15.2945) scale(0.0166667)">
<stop offset="0.3" stop-color="#A50A0A"/>
<stop offset="1" stop-color="#4C0505"/>
</radialGradient>
<radialGradient id="paint10_radial_769_18060" cx="0" cy="0" r="1" gradientUnits="userSpaceOnUse" gradientTransform="translate(19.217 15.2908) scale(0.0162847 0.0170579)">
<stop stop-color="white"/>
<stop offset="1" stop-color="white" stop-opacity="0"/>
</radialGradient>
<clipPath id="clip0_769_18060">
<path d="M0 20C0 8.95431 8.95431 0 20 0C31.0457 0 40 8.95431 40 20C40 31.0457 31.0457 40 20 40C8.95431 40 0 31.0457 0 20Z" fill="white"/>
</clipPath>
<clipPath id="clip1_769_18060">
<rect width="53.3333" height="40" fill="white" transform="translate(-7.33203)"/>
</clipPath>
</defs>
</svg>
