<svg width="40" height="40" viewBox="0 0 40 40" fill="none" xmlns="http://www.w3.org/2000/svg">
<g clip-path="url(#clip0_769_17712)">
<path d="M0 20C0 8.95431 8.95431 0 20 0C31.0457 0 40 8.95431 40 20C40 31.0457 31.0457 40 20 40C8.95431 40 0 31.0457 0 20Z" fill="#E94E0F"/>
<g clip-path="url(#clip1_769_17712)">
<path d="M-6 40.0001H47V6.10352e-05H-6V40.0001Z" fill="white"/>
<path d="M15.2 40.0001H25.8V6.10352e-05H15.2V40.0001Z" fill="#E8112D"/>
<path d="M-6 25.3334H47V14.6667H-6V25.3334Z" fill="#E8112D"/>
<path d="M3.10938 16.1084L5.03891 18.0584H22.4295V21.9417H5.03891L3.10938 23.8917V16.1084Z" fill="#F9DD16"/>
<path d="M16.6326 37.5001L18.5704 35.5584V18.0584H22.4294V35.5584L24.3673 37.5001H16.6326Z" fill="#F9DD16"/>
<path d="M24.3673 2.50005L22.4294 4.44171V21.9417H18.5704V4.44171L16.6326 2.50005H24.3673Z" fill="#F9DD16"/>
<path d="M37.8907 23.8917L35.9612 21.9417H18.5706V18.0584H35.9612L37.8907 16.1084V23.8917Z" fill="#F9DD16"/>
</g>
</g>
<defs>
<clipPath id="clip0_769_17712">
<path d="M0 20C0 8.95431 8.95431 0 20 0C31.0457 0 40 8.95431 40 20C40 31.0457 31.0457 40 20 40C8.95431 40 0 31.0457 0 20Z" fill="white"/>
</clipPath>
<clipPath id="clip1_769_17712">
<rect width="53" height="40" fill="white" transform="matrix(1 0 0 -1 -6 40.0001)"/>
</clipPath>
</defs>
</svg>
