<svg width="40" height="40" viewBox="0 0 40 40" fill="none" xmlns="http://www.w3.org/2000/svg">
<g clip-path="url(#clip0_769_18232)">
<path d="M0 20C0 8.95431 8.95431 0 20 0C31.0457 0 40 8.95431 40 20C40 31.0457 31.0457 40 20 40C8.95431 40 0 31.0457 0 20Z" fill="#E94E0F"/>
<path d="M-8 0H10.5625V40H-8V0Z" fill="#CE1126"/>
<path d="M10.5625 0H46V20H10.5625V0Z" fill="#FCD116"/>
<path d="M10.5625 20H46V40H10.5625V20Z" fill="#009E49"/>
<path d="M3.69438 20.7L7.60938 17.8917H2.77469L1.28125 13.35L-0.212187 17.8917H-5.04688L-1.13187 20.7L-2.62531 25.2417L1.28125 22.4333L5.18781 25.2417L3.69438 20.7Z" fill="black"/>
</g>
<defs>
<clipPath id="clip0_769_18232">
<path d="M0 20C0 8.95431 8.95431 0 20 0C31.0457 0 40 8.95431 40 20C40 31.0457 31.0457 40 20 40C8.95431 40 0 31.0457 0 20Z" fill="white"/>
</clipPath>
</defs>
</svg>
