<svg width="40" height="40" viewBox="0 0 40 40" fill="none" xmlns="http://www.w3.org/2000/svg">
<g clip-path="url(#clip0_769_18243)">
<path d="M0 20C0 8.95431 8.95431 0 20 0C31.0457 0 40 8.95431 40 20C40 31.0457 31.0457 40 20 40C8.95431 40 0 31.0457 0 20Z" fill="#E94E0F"/>
<g clip-path="url(#clip1_769_18243)">
<path fill-rule="evenodd" clip-rule="evenodd" d="M-6.80005 0.00012207H46.3333V40.0001H-6.80005V0.00012207Z" fill="#399408"/>
<path fill-rule="evenodd" clip-rule="evenodd" d="M-6.98333 0.00012207C-7.05833 0.00012207 44.65 20.1251 44.65 20.1251L-7 39.9835L-6.98333 0.00012207Z" fill="white"/>
<path fill-rule="evenodd" clip-rule="evenodd" d="M-6.9751 1.68346C-6.69176 1.68346 39.6082 19.8418 39.3499 20.0168L-6.84176 38.6001L-6.9751 1.69179V1.68346Z" fill="#FFDE08"/>
<path fill-rule="evenodd" clip-rule="evenodd" d="M-6.84176 0.0667877C-6.69176 0.0667877 17.3999 20.1418 17.3999 20.1418L-6.8501 39.7501V0.0667877H-6.84176Z" fill="black"/>
<path fill-rule="evenodd" clip-rule="evenodd" d="M-6.97507 2.82512C-6.84173 1.57512 14.7666 20.1918 14.7666 20.1918L-6.9834 37.6418V2.82512H-6.97507Z" fill="#DE2110"/>
</g>
</g>
<defs>
<clipPath id="clip0_769_18243">
<path d="M0 20C0 8.95431 8.95431 0 20 0C31.0457 0 40 8.95431 40 20C40 31.0457 31.0457 40 20 40C8.95431 40 0 31.0457 0 20Z" fill="white"/>
</clipPath>
<clipPath id="clip1_769_18243">
<rect width="53.3333" height="40" fill="white" transform="translate(-7 0.00012207)"/>
</clipPath>
</defs>
</svg>
