<svg width="40" height="40" viewBox="0 0 40 40" fill="none" xmlns="http://www.w3.org/2000/svg">
<g clip-path="url(#clip0_769_18363)">
<path d="M0 20C0 8.95431 8.95431 0 20 0C31.0457 0 40 8.95431 40 20C40 31.0457 31.0457 40 20 40C8.95431 40 0 31.0457 0 20Z" fill="#E94E0F"/>
<g clip-path="url(#clip1_769_18363)">
<path d="M-7 0.00012207H46.2642V40.0001H-7V0.00012207Z" fill="#D21034"/>
<path d="M-7 0.00012207H46.2642V20.0001H-7V0.00012207Z" fill="#00209F"/>
<path d="M13.3318 14.9751H25.9321V25.0168H13.3318V14.9751Z" fill="white"/>
<path d="M22.1703 22.2335L19.5904 22.3168L17.0353 22.3418C17.0353 22.3418 15.7204 22.8251 15.1794 22.9335C14.6468 23.0418 14.7134 23.2168 14.3055 23.3168C13.9726 23.3918 13.931 23.4085 13.7396 23.4251C13.6148 23.4251 13.4733 23.5251 13.3235 23.6251V25.0168H25.9321V23.6918C25.799 23.6168 25.6658 23.5668 25.5326 23.5251C25.3496 23.4585 25.2247 23.3918 24.8918 23.3168C24.4757 23.2251 24.5423 23.0418 24.0096 22.9335C23.4687 22.8251 22.1703 22.2335 22.1703 22.2335Z" fill="#016A16" stroke="#016A16" stroke-width="0.0621762"/>
<path d="M18.8999 19.1334H19.083L19.4325 20.5584L19.3493 21.0084L18.8999 19.1418V19.1334Z" fill="#F1B517" stroke="black" stroke-width="0.0663212" stroke-miterlimit="6.4"/>
<path d="M18.6997 18.1751L18.8329 19.2835H18.966L18.6997 18.1918V18.1751Z" fill="white" stroke="black" stroke-width="0.0663212" stroke-miterlimit="6.4"/>
<path d="M19.0581 20.6168L18.4839 19.0834L18.7003 19.0668L19.3661 20.9334L19.0581 20.6168Z" fill="#F1B517" stroke="black" stroke-width="0.0663212" stroke-miterlimit="6.4"/>
<path d="M18.2173 18.2001L18.4586 19.2668H18.6417L18.2173 18.2001Z" fill="white" stroke="black" stroke-width="0.0663212" stroke-miterlimit="6.4"/>
<path d="M18.5502 20.0835L18.2173 19.3501L18.3504 19.3251L18.9746 20.5251L18.5502 20.0835Z" fill="#F1B517" stroke="black" stroke-width="0.0663212" stroke-miterlimit="6.4"/>
<path d="M17.7678 18.5084L18.1507 19.5251H18.3338L17.7761 18.5084H17.7678Z" fill="white" stroke="black" stroke-width="0.0663212" stroke-miterlimit="6.4"/>
<path d="M18.6085 20.1835L17.0772 18.5168C16.5945 18.8918 16.6943 19.5835 16.6943 19.5835L18.4254 20.9418L18.6002 20.1835H18.6085Z" fill="#0A328C" stroke="black" stroke-width="0.0663212" stroke-miterlimit="6.4"/>
<path d="M19.4821 21.0918L18.3502 19.9418C17.8675 19.9668 18.242 20.6751 18.267 20.7668L19.4654 21.7918V21.0834L19.4821 21.0918Z" fill="#D20014" stroke="black" stroke-width="0.0663212" stroke-miterlimit="6.4"/>
<path d="M19.3826 20.9084L17.0523 18.4001L16.9607 18.4668L19.4408 21.2168L19.3826 20.9084ZM16.9191 18.2418L16.8692 18.1751V18.0584L16.3865 17.7501L16.6029 18.2418L16.7776 18.2668L16.8192 18.3168L16.9191 18.2418Z" fill="#F1B517" stroke="black" stroke-width="0.0663212" stroke-miterlimit="6.4"/>
<path d="M16.6609 18.4168C16.7608 18.2918 16.8773 18.1918 17.0188 18.1251L17.1519 18.3251L16.8606 18.5668L16.6609 18.4335V18.4168Z" fill="#F1B517" stroke="black" stroke-width="0.0663212" stroke-miterlimit="6.4"/>
<path d="M16.4111 18.8418L16.4944 18.9751C16.5443 18.9585 17.027 18.5085 17.027 18.5085H17.3849L17.4764 18.3918C17.2101 18.1251 16.9854 18.4335 16.9854 18.4335L16.4111 18.8335V18.8418Z" fill="#0A328C" stroke="#0A328C" stroke-width="0.0663212" stroke-miterlimit="6.4"/>
<path d="M16.7025 19.0668C16.7025 18.9334 16.9438 18.6418 16.9688 18.6251C17.1436 18.6751 17.3017 18.7834 17.4848 18.3834C17.3267 18.5668 17.0187 18.3834 17.0187 18.3834L16.8856 18.4918V18.5418L16.4861 18.9168L16.6858 19.0668H16.7025Z" fill="#D20014" stroke="#D20014" stroke-width="0.0663212" stroke-miterlimit="6.4"/>
<path d="M17.9428 20.6251L16.0286 19.1085C15.6957 19.4418 15.9786 20.4668 15.9786 20.4668L17.8429 21.4835L17.9344 20.6335L17.9428 20.6251Z" fill="#0A328C" stroke="black" stroke-width="0.0663212" stroke-miterlimit="6.4"/>
<path d="M19.5239 21.8668L17.9426 20.5834C17.4099 20.6668 17.8344 21.4501 17.8594 21.5418L19.5239 22.4501V21.8501V21.8668Z" fill="#D20014" stroke="black" stroke-width="0.0663212" stroke-miterlimit="6.4"/>
<path d="M19.4575 21.6001L16.0452 19.0418L15.9786 19.1251L19.549 21.9168L19.4575 21.6001ZM15.8871 18.9085L15.8371 18.8585L15.8122 18.7501L15.2795 18.5251L15.5875 18.9668H15.7622L15.8122 19.0168L15.8871 18.9085Z" fill="#F1B517" stroke="black" stroke-width="0.0663212" stroke-miterlimit="6.4"/>
<path d="M15.679 19.1168C15.7539 18.9835 15.8621 18.8585 15.9869 18.7668L16.145 18.9418L15.9037 19.2251L15.679 19.1168Z" fill="#F1B517" stroke="black" stroke-width="0.0663212" stroke-miterlimit="6.4"/>
<path d="M15.5042 19.5501V19.7001C15.5541 19.6751 15.9952 19.2085 15.9952 19.2085L16.3281 19.1418L16.4113 19.0335C16.17 18.7501 15.9203 19.1251 15.9203 19.1251L15.4958 19.5501H15.5042Z" fill="#0A328C" stroke="#0A328C" stroke-width="0.0663212" stroke-miterlimit="6.4"/>
<path d="M15.7705 19.8001C15.7455 19.6668 15.9286 19.2918 15.9535 19.2668C16.1699 19.3335 16.353 19.4251 16.4196 19.0001C16.2864 19.2168 15.9535 19.0501 15.9535 19.0501L15.8454 19.1835V19.2501L15.5125 19.6918L15.7705 19.8001Z" fill="#D20014" stroke="#D20014" stroke-width="0.0663212" stroke-miterlimit="6.4"/>
<path d="M17.7929 21.5585C16.969 21.0918 16.145 20.6251 15.3294 20.1585C15.1546 20.4668 15.3128 20.8918 15.396 20.9585C15.396 21.1585 15.3128 21.2668 15.4875 21.6918C15.5375 21.9585 15.6623 22.2085 15.8454 22.3585C16.0618 23.2085 16.9357 23.2751 17.2686 22.5751L17.8012 21.5585H17.7929Z" fill="#0A328C" stroke="black" stroke-width="0.0663212" stroke-miterlimit="6.4"/>
<path d="M19.4075 22.4668L17.743 21.4918C17.2104 21.5584 17.743 22.5584 17.7846 22.6501L19.4075 23.2251V22.4668Z" fill="#D20014" stroke="black" stroke-width="0.0663212" stroke-miterlimit="6.4"/>
<path d="M19.1246 22.1084L15.3545 20.1084L15.2879 20.1918L19.2827 22.4168L19.1246 22.1084ZM15.1714 20.0001L15.1048 19.9584L15.0632 19.8501L14.5139 19.7168L14.8718 20.1001L15.0299 20.0751L15.1131 20.1168L15.1714 20.0001Z" fill="#F1B517" stroke="black" stroke-width="0.0663212" stroke-miterlimit="6.4"/>
<path d="M14.9963 20.2418C15.0463 20.1084 15.1045 19.9918 15.2377 19.8418L15.4208 19.9918L15.2377 20.3084L14.9963 20.2418Z" fill="#F1B517" stroke="black" stroke-width="0.0663212" stroke-miterlimit="6.4"/>
<path d="M14.855 20.6918L14.9382 20.8501L15.3377 20.2335L15.6706 20.1168L15.7372 19.9835C15.4708 19.7418 15.2711 20.1668 15.2711 20.1668L14.855 20.6918Z" fill="#0A328C" stroke="#0A328C" stroke-width="0.0663212" stroke-miterlimit="6.4"/>
<path d="M15.2131 20.9085C15.1881 20.7751 15.2797 20.3501 15.3046 20.3335C15.5044 20.4001 15.6792 20.4168 15.7291 19.9835C15.5959 20.1835 15.288 20.1168 15.288 20.1168L15.1965 20.2501L15.2131 20.3001L14.9468 20.8335L15.2131 20.9085Z" fill="#D20014" stroke="#D20014" stroke-width="0.0663212" stroke-miterlimit="6.4"/>
<path d="M20.3478 19.1334H20.1647L19.8152 20.5584L19.8984 21.0084L20.3478 19.1418V19.1334Z" fill="#F1B517" stroke="black" stroke-width="0.0663212" stroke-miterlimit="6.4"/>
<path d="M20.5476 18.1751L20.4144 19.2835H20.2812L20.5476 18.1918V18.1751Z" fill="white" stroke="black" stroke-width="0.0663212" stroke-miterlimit="6.4"/>
<path d="M20.1898 20.6168L20.764 19.0834L20.5476 19.0668L19.8818 20.9334L20.1898 20.6168Z" fill="#F1B517" stroke="black" stroke-width="0.0663212" stroke-miterlimit="6.4"/>
<path d="M21.0302 18.2001L20.7888 19.2668H20.6057L21.0302 18.2001Z" fill="white" stroke="black" stroke-width="0.0663212" stroke-miterlimit="6.4"/>
<path d="M20.6974 20.0835L21.0303 19.3501L20.8971 19.3251L20.2729 20.5251L20.6974 20.0835Z" fill="#F1B517" stroke="black" stroke-width="0.0663212" stroke-miterlimit="6.4"/>
<path d="M21.4798 18.5084L21.0969 19.5251H20.9138L21.4714 18.5084H21.4798Z" fill="white" stroke="black" stroke-width="0.0663212" stroke-miterlimit="6.4"/>
<path d="M20.6475 20.1835L22.1788 18.5168C22.6615 18.8918 22.5616 19.5835 22.5616 19.5835L20.8306 20.9418L20.6558 20.1835H20.6475Z" fill="#0A328C" stroke="black" stroke-width="0.0663212" stroke-miterlimit="6.4"/>
<path d="M19.7651 21.0918L20.897 19.9418C21.3797 19.9668 21.0052 20.6751 20.9802 20.7668L19.7818 21.7918V21.0834L19.7651 21.0918Z" fill="#D20014" stroke="black" stroke-width="0.0663212" stroke-miterlimit="6.4"/>
<path d="M19.8734 20.9084L22.2038 18.4001L22.2953 18.4668L19.8152 21.2168L19.8734 20.9084ZM22.3369 18.2418L22.3868 18.1751V18.0584L22.8696 17.7501L22.6532 18.2418L22.4784 18.2668L22.4368 18.3168L22.3369 18.2418Z" fill="#F1B517" stroke="black" stroke-width="0.0663212" stroke-miterlimit="6.4"/>
<path d="M22.5865 18.4168C22.4866 18.2918 22.3701 18.1918 22.2286 18.1251L22.0955 18.3251L22.3867 18.5668L22.5865 18.4335V18.4168Z" fill="#F1B517" stroke="black" stroke-width="0.0663212" stroke-miterlimit="6.4"/>
<path d="M22.8448 18.8418L22.7616 18.9751C22.7117 18.9585 22.229 18.5085 22.229 18.5085H21.8711L21.7795 18.3918C22.0459 18.1251 22.2706 18.4335 22.2706 18.4335L22.8448 18.8335V18.8418Z" fill="#0A328C" stroke="#0A328C" stroke-width="0.0663212" stroke-miterlimit="6.4"/>
<path d="M22.545 19.0668C22.545 18.9334 22.3037 18.6418 22.2787 18.6251C22.1039 18.6751 21.9458 18.7834 21.7627 18.3834C21.9208 18.5668 22.2288 18.3834 22.2288 18.3834L22.3619 18.4918V18.5418L22.7614 18.9168L22.5617 19.0668H22.545Z" fill="#D20014" stroke="#D20014" stroke-width="0.0663212" stroke-miterlimit="6.4"/>
<path d="M21.3132 20.6251L23.2274 19.1085C23.5603 19.4418 23.2773 20.4668 23.2773 20.4668L21.4131 21.4835L21.3216 20.6335L21.3132 20.6251Z" fill="#0A328C" stroke="black" stroke-width="0.0663212" stroke-miterlimit="6.4"/>
<path d="M19.7239 21.8668L21.3052 20.5834C21.8378 20.6668 21.4134 21.4501 21.3884 21.5418L19.7239 22.4501V21.8501V21.8668Z" fill="#D20014" stroke="black" stroke-width="0.0663212" stroke-miterlimit="6.4"/>
<path d="M19.7905 21.6001L23.2028 19.0418L23.2693 19.1251L19.699 21.9168L19.7905 21.6001ZM23.3609 18.9085L23.4108 18.8585L23.4358 18.7501L23.9684 18.5251L23.6605 18.9668H23.4857L23.4358 19.0168L23.3609 18.9085Z" fill="#F1B517" stroke="black" stroke-width="0.0663212" stroke-miterlimit="6.4"/>
<path d="M23.5769 19.1168C23.502 18.9835 23.3938 18.8585 23.269 18.7668L23.1108 18.9418L23.3522 19.2251L23.5769 19.1168Z" fill="#F1B517" stroke="black" stroke-width="0.0663212" stroke-miterlimit="6.4"/>
<path d="M23.7436 19.5501V19.7001C23.6936 19.6751 23.2526 19.2085 23.2526 19.2085L22.9197 19.1418L22.8364 19.0335C23.0778 18.7501 23.3275 19.1251 23.3275 19.1251L23.7519 19.5501H23.7436Z" fill="#0A328C" stroke="#0A328C" stroke-width="0.0663212" stroke-miterlimit="6.4"/>
<path d="M23.4773 19.8001C23.5023 19.6668 23.3192 19.2918 23.2942 19.2668C23.0778 19.3335 22.8947 19.4251 22.8281 19.0001C22.9613 19.2168 23.2942 19.0501 23.2942 19.0501L23.4024 19.1835V19.2501L23.7353 19.6918L23.4773 19.8001Z" fill="#D20014" stroke="#D20014" stroke-width="0.0663212" stroke-miterlimit="6.4"/>
<path d="M21.4546 21.5585C22.2785 21.0918 23.1025 20.6251 23.9181 20.1585C24.0929 20.4668 23.9347 20.8918 23.8515 20.9585C23.8515 21.1585 23.9347 21.2668 23.76 21.6918C23.71 21.9585 23.5852 22.2085 23.4021 22.3585C23.1857 23.2085 22.3118 23.2751 21.9789 22.5751L21.4463 21.5585H21.4546Z" fill="#0A328C" stroke="black" stroke-width="0.0663212" stroke-miterlimit="6.4"/>
<path d="M19.8486 22.4668L21.5131 21.4918C22.0458 21.5584 21.5131 22.5584 21.4715 22.6501L19.8486 23.2251V22.4668Z" fill="#D20014" stroke="black" stroke-width="0.0663212" stroke-miterlimit="6.4"/>
<path d="M20.123 22.1084L23.8931 20.1084L23.9597 20.1918L19.9648 22.4168L20.123 22.1084ZM24.0762 20.0001L24.1428 19.9584L24.1844 19.8501L24.7337 19.7168L24.3758 20.1001L24.2093 20.0834L24.1261 20.1251L24.0762 20.0001Z" fill="#F1B517" stroke="black" stroke-width="0.0663212" stroke-miterlimit="6.4"/>
<path d="M24.2511 20.2418C24.2012 20.1084 24.1429 19.9918 24.0098 19.8418L23.8267 19.9918L24.0098 20.3084L24.2511 20.2418Z" fill="#F1B517" stroke="black" stroke-width="0.0663212" stroke-miterlimit="6.4"/>
<path d="M24.4007 20.6918L24.3175 20.8501L23.918 20.2335L23.5851 20.1168L23.5186 19.9835C23.7849 19.7418 23.9846 20.1668 23.9846 20.1668L24.4007 20.6918Z" fill="#0A328C" stroke="#0A328C" stroke-width="0.0663212" stroke-miterlimit="6.4"/>
<path d="M24.0429 20.9085C24.0678 20.7751 23.9763 20.3501 23.9513 20.3335C23.7516 20.4001 23.5768 20.4168 23.5269 19.9835C23.66 20.1835 23.968 20.1168 23.968 20.1168L24.0595 20.2501L24.0429 20.3001L24.3092 20.8335L24.0429 20.9085Z" fill="#D20014" stroke="#D20014" stroke-width="0.0663212" stroke-miterlimit="6.4"/>
<path d="M19.4741 16.7501L19.4075 17.9501H19.7904L19.7404 16.7501L20.1399 16.7085L20.0983 16.2251L19.0996 16.2668V16.6918L19.4741 16.7501Z" fill="#016A16" stroke="#016A16" stroke-width="0.0663212" stroke-miterlimit="6.4"/>
<path d="M19.6071 16.2501C18.5668 15.2085 17.7595 15.7168 17.5681 15.8668C17.7013 15.8918 17.8095 15.8168 17.876 15.8001L17.7429 15.9585C17.7429 15.9585 18.0758 15.8251 18.1174 15.8251C18.0675 15.8668 18.0092 15.9585 18.0092 15.9585C18.0342 15.9585 18.2256 15.8085 18.2506 15.8085C18.2006 15.8585 18.184 16.0085 18.184 16.0085L18.3421 15.9418C18.3837 15.9668 18.3255 16.0251 18.3588 16.0251C18.6251 16.0001 18.9829 16.2501 19.0246 16.3335" fill="#016A16"/>
<path d="M19.6071 16.2501C18.5668 15.2085 17.7595 15.7168 17.5681 15.8668C17.7013 15.8918 17.8095 15.8168 17.876 15.8001L17.7429 15.9585C17.7429 15.9585 18.0758 15.8251 18.1174 15.8251C18.0675 15.8668 18.0092 15.9585 18.0092 15.9585C18.0342 15.9585 18.2256 15.8085 18.2506 15.8085C18.2006 15.8585 18.184 16.0085 18.184 16.0085L18.3421 15.9418C18.3837 15.9668 18.3255 16.0251 18.3588 16.0251C18.6251 16.0001 18.9829 16.2501 19.0246 16.3335" stroke="black" stroke-width="0.0663212" stroke-miterlimit="6.4"/>
<path d="M19.349 16.4418C19.2408 16.2001 17.2684 15.7751 16.8689 16.4835C17.027 16.5251 17.1768 16.3501 17.1768 16.3501V16.5085L17.4265 16.2918L17.335 16.5085L17.5347 16.3335V16.5085L17.801 16.2418L17.7594 16.3918L17.9841 16.3001L17.9591 16.4335" fill="#016A16"/>
<path d="M19.349 16.4418C19.2408 16.2001 17.2684 15.7751 16.8689 16.4835C17.027 16.5251 17.1768 16.3501 17.1768 16.3501V16.5085L17.4265 16.2918L17.335 16.5085L17.5347 16.3335V16.5085L17.801 16.2418L17.7594 16.3918L17.9841 16.3001L17.9591 16.4335" stroke="black" stroke-width="0.0663212" stroke-miterlimit="6.4"/>
<path d="M19.2577 16.4835C18.75 16.1502 17.976 16.3752 17.976 16.3752C17.4684 16.6418 17.202 16.6002 17.1521 17.1252C17.1937 17.1085 17.3269 16.9418 17.3269 16.9418L17.4351 17.1418L17.46 16.8585L17.5433 17.0835L17.6764 16.7085L17.7014 16.9585L17.8845 16.7085L17.9677 16.7918L18.0509 16.5918L18.1342 16.7252C18.1342 16.7252 18.2673 16.6418 18.3339 16.6835L18.4671 16.5252L18.5087 16.6418L18.6418 16.5085L18.6834 16.6002L18.8 16.4918V16.5752H19.1994" fill="#016A16"/>
<path d="M19.2577 16.4835C18.75 16.1502 17.976 16.3752 17.976 16.3752C17.4684 16.6418 17.202 16.6002 17.1521 17.1252C17.1937 17.1085 17.3269 16.9418 17.3269 16.9418L17.4351 17.1418L17.46 16.8585L17.5433 17.0835L17.6764 16.7085L17.7014 16.9585L17.8845 16.7085L17.9677 16.7918L18.0509 16.5918L18.1342 16.7252C18.1342 16.7252 18.2673 16.6418 18.3339 16.6835L18.4671 16.5252L18.5087 16.6418L18.6418 16.5085L18.6834 16.6002L18.8 16.4918V16.5752H19.1994" stroke="black" stroke-width="0.0663212" stroke-miterlimit="6.4"/>
<path d="M19.1493 16.5334C18.7914 16.5334 17.776 16.9168 17.5264 17.3084C17.5846 17.2751 17.6429 17.2501 17.7011 17.2251L17.7428 17.3834L17.8093 17.2251L17.826 17.3584C17.8676 17.2501 17.9092 17.2501 17.9841 17.3418L18.0091 17.1918L18.0507 17.3251L18.1173 17.1751C18.1173 17.1751 18.1589 17.3334 18.1838 17.3334C18.1838 17.3334 18.292 17.0418 18.342 17.0251L18.3586 17.2084L18.4252 17.0251L18.4918 17.1584V16.9751L18.575 17.1084C18.575 17.1084 18.6 16.9751 18.6582 16.9501L18.7664 17.0418L19.2158 16.7084" fill="#016A16"/>
<path d="M19.1493 16.5334C18.7914 16.5334 17.776 16.9168 17.5264 17.3084C17.5846 17.2751 17.6429 17.2501 17.7011 17.2251L17.7428 17.3834L17.8093 17.2251L17.826 17.3584C17.8676 17.2501 17.9092 17.2501 17.9841 17.3418L18.0091 17.1918L18.0507 17.3251L18.1173 17.1751C18.1173 17.1751 18.1589 17.3334 18.1838 17.3334C18.1838 17.3334 18.292 17.0418 18.342 17.0251L18.3586 17.2084L18.4252 17.0251L18.4918 17.1584V16.9751L18.575 17.1084C18.575 17.1084 18.6 16.9751 18.6582 16.9501L18.7664 17.0418L19.2158 16.7084" stroke="black" stroke-width="0.0663212" stroke-miterlimit="6.4"/>
<path d="M19.2157 16.6251C18.7497 16.8001 18.3252 17.4501 18.3668 17.7168C18.5666 17.4501 18.525 17.4918 18.6165 17.8001C18.6165 17.8001 18.6415 17.5335 18.6831 17.5085L18.7497 17.6918L18.7663 17.4418H18.8329L18.8163 17.2918L18.9078 17.3585C18.8828 17.2668 18.8662 17.2418 18.9577 17.1585C18.9577 17.1585 18.8246 17.1751 18.9328 16.9585L19.0243 17.0418C19.0243 17.0418 18.9994 16.9501 19.0243 16.9085L19.3739 16.8001" fill="#016A16"/>
<path d="M19.2157 16.6251C18.7497 16.8001 18.3252 17.4501 18.3668 17.7168C18.5666 17.4501 18.525 17.4918 18.6165 17.8001C18.6165 17.8001 18.6415 17.5335 18.6831 17.5085L18.7497 17.6918L18.7663 17.4418H18.8329L18.8163 17.2918L18.9078 17.3585C18.8828 17.2668 18.8662 17.2418 18.9577 17.1585C18.9577 17.1585 18.8246 17.1751 18.9328 16.9585L19.0243 17.0418C19.0243 17.0418 18.9994 16.9501 19.0243 16.9085L19.3739 16.8001" stroke="black" stroke-width="0.0663212" stroke-miterlimit="6.4"/>
<path d="M19.2577 16.6668L19.0829 17.0168L19.1745 17.0418L18.9581 17.1918L19.1328 17.1751C19.1328 17.1751 18.8665 17.2668 18.8416 17.5335L19.1079 17.4001C19.1079 17.4001 18.8832 17.6418 18.8416 17.7835L19.0163 17.6501C19.0163 17.6501 18.8582 17.8085 18.8832 18.0501L18.9997 17.9168C18.9747 18.2251 18.9747 18.2501 19.1079 18.4751C19.1079 18.4751 19.0829 18.1251 19.1079 18.0751L19.4158 18.3918L19.2577 17.9501C19.2577 17.9501 19.4408 18.2168 19.549 18.2001L19.3076 17.8418L19.549 18.0251L19.2826 17.6251L19.524 17.7085C19.524 17.7085 19.3492 17.4835 19.3659 17.3335L19.5406 17.5168C19.5406 17.5168 19.4741 17.3168 19.4907 17.2501L19.5823 17.2668L19.4075 17.0835L19.524 17.0585L19.5074 16.9251L19.5906 16.9085V16.7585L19.2577 16.6668ZM19.4491 16.7751C19.1578 17.1751 19.2993 17.7751 19.1328 18.0918L19.4491 16.7751Z" fill="#016A16"/>
<path d="M19.4491 16.7751C19.1578 17.1751 19.2993 17.7751 19.1328 18.0918M19.2577 16.6668L19.0829 17.0168L19.1745 17.0418L18.9581 17.1918L19.1328 17.1751C19.1328 17.1751 18.8665 17.2668 18.8416 17.5335L19.1079 17.4001C19.1079 17.4001 18.8832 17.6418 18.8416 17.7835L19.0163 17.6501C19.0163 17.6501 18.8582 17.8085 18.8832 18.0501L18.9997 17.9168C18.9747 18.2251 18.9747 18.2501 19.1079 18.4751C19.1079 18.4751 19.0829 18.1251 19.1079 18.0751L19.4158 18.3918L19.2577 17.9501C19.2577 17.9501 19.4408 18.2168 19.549 18.2001L19.3076 17.8418L19.549 18.0251L19.2826 17.6251L19.524 17.7085C19.524 17.7085 19.3492 17.4835 19.3659 17.3335L19.5406 17.5168C19.5406 17.5168 19.4741 17.3168 19.4907 17.2501L19.5823 17.2668L19.4075 17.0835L19.524 17.0585L19.5074 16.9251L19.5906 16.9085V16.7585L19.2577 16.6668Z" stroke="black" stroke-width="0.0663212" stroke-miterlimit="6.4"/>
<path d="M19.6489 16.2501C20.6892 15.2085 21.4965 15.7168 21.6879 15.8668C21.5548 15.8918 21.4466 15.8168 21.38 15.8001L21.5132 15.9585C21.5132 15.9585 21.1803 15.8251 21.1387 15.8251C21.1886 15.8668 21.2469 15.9585 21.2469 15.9585C21.2219 15.9585 21.0305 15.8085 21.0055 15.8085C21.0554 15.8585 21.0721 16.0085 21.0721 16.0085L20.914 15.9418C20.8723 15.9668 20.9306 16.0251 20.8973 16.0251C20.631 16.0001 20.2731 16.2501 20.2315 16.3335" fill="#016A16"/>
<path d="M19.6489 16.2501C20.6892 15.2085 21.4965 15.7168 21.6879 15.8668C21.5548 15.8918 21.4466 15.8168 21.38 15.8001L21.5132 15.9585C21.5132 15.9585 21.1803 15.8251 21.1387 15.8251C21.1886 15.8668 21.2469 15.9585 21.2469 15.9585C21.2219 15.9585 21.0305 15.8085 21.0055 15.8085C21.0554 15.8585 21.0721 16.0085 21.0721 16.0085L20.914 15.9418C20.8723 15.9668 20.9306 16.0251 20.8973 16.0251C20.631 16.0001 20.2731 16.2501 20.2315 16.3335" stroke="black" stroke-width="0.0663212" stroke-miterlimit="6.4"/>
<path d="M19.8987 16.4418C20.0069 16.2001 21.9793 15.7751 22.3788 16.4835C22.2207 16.5251 22.0709 16.3501 22.0709 16.3501V16.5085L21.8212 16.2918L21.9127 16.5085L21.713 16.3335V16.5085L21.4467 16.2418L21.4883 16.3918L21.2636 16.3001L21.2885 16.4335" fill="#016A16"/>
<path d="M19.8987 16.4418C20.0069 16.2001 21.9793 15.7751 22.3788 16.4835C22.2207 16.5251 22.0709 16.3501 22.0709 16.3501V16.5085L21.8212 16.2918L21.9127 16.5085L21.713 16.3335V16.5085L21.4467 16.2418L21.4883 16.3918L21.2636 16.3001L21.2885 16.4335" stroke="black" stroke-width="0.0663212" stroke-miterlimit="6.4"/>
<path d="M19.9897 16.4835C20.4974 16.1502 21.2714 16.3752 21.2714 16.3752C21.7791 16.6418 22.0454 16.6002 22.0953 17.1252C22.0537 17.1085 21.9206 16.9418 21.9206 16.9418L21.8124 17.1418L21.7874 16.8585L21.7042 17.0835L21.571 16.7085L21.5461 16.9585L21.363 16.7085L21.2797 16.7918L21.1965 16.5918L21.1133 16.7252C21.1133 16.7252 20.9801 16.6418 20.9135 16.6835L20.7804 16.5252L20.7388 16.6418L20.6056 16.5085L20.564 16.6002L20.4475 16.4918V16.5752H20.048" fill="#016A16"/>
<path d="M19.9897 16.4835C20.4974 16.1502 21.2714 16.3752 21.2714 16.3752C21.7791 16.6418 22.0454 16.6002 22.0953 17.1252C22.0537 17.1085 21.9206 16.9418 21.9206 16.9418L21.8124 17.1418L21.7874 16.8585L21.7042 17.0835L21.571 16.7085L21.5461 16.9585L21.363 16.7085L21.2797 16.7918L21.1965 16.5918L21.1133 16.7252C21.1133 16.7252 20.9801 16.6418 20.9135 16.6835L20.7804 16.5252L20.7388 16.6418L20.6056 16.5085L20.564 16.6002L20.4475 16.4918V16.5752H20.048" stroke="black" stroke-width="0.0663212" stroke-miterlimit="6.4"/>
<path d="M20.0981 16.5334C20.4559 16.5334 21.4713 16.9168 21.721 17.3084C21.6627 17.2751 21.6045 17.2501 21.5462 17.2251L21.5046 17.3834L21.438 17.2251L21.4214 17.3584C21.3797 17.2501 21.3381 17.2501 21.2632 17.3418L21.2383 17.1918L21.1966 17.3251L21.1301 17.1751C21.1301 17.1751 21.0885 17.3334 21.0635 17.3334C21.0635 17.3334 20.9553 17.0418 20.9054 17.0251L20.8887 17.2084L20.8221 17.0251L20.7556 17.1584V16.9751L20.6723 17.1084C20.6723 17.1084 20.6474 16.9751 20.5891 16.9501L20.4809 17.0418L20.0315 16.7084" fill="#016A16"/>
<path d="M20.0981 16.5334C20.4559 16.5334 21.4713 16.9168 21.721 17.3084C21.6627 17.2751 21.6045 17.2501 21.5462 17.2251L21.5046 17.3834L21.438 17.2251L21.4214 17.3584C21.3797 17.2501 21.3381 17.2501 21.2632 17.3418L21.2383 17.1918L21.1966 17.3251L21.1301 17.1751C21.1301 17.1751 21.0885 17.3334 21.0635 17.3334C21.0635 17.3334 20.9553 17.0418 20.9054 17.0251L20.8887 17.2084L20.8221 17.0251L20.7556 17.1584V16.9751L20.6723 17.1084C20.6723 17.1084 20.6474 16.9751 20.5891 16.9501L20.4809 17.0418L20.0315 16.7084" stroke="black" stroke-width="0.0663212" stroke-miterlimit="6.4"/>
<path d="M20.0317 16.6251C20.4977 16.8001 20.9222 17.4501 20.8806 17.7168C20.6808 17.4501 20.7224 17.4918 20.6309 17.8001C20.6309 17.8001 20.6059 17.5335 20.5643 17.5085L20.4977 17.6918L20.4811 17.4418H20.4145L20.4311 17.2918L20.3396 17.3585C20.3646 17.2668 20.3812 17.2418 20.2897 17.1585C20.2897 17.1585 20.4228 17.1751 20.3146 16.9585L20.2231 17.0418C20.2231 17.0418 20.2481 16.9501 20.2231 16.9085L19.8735 16.8001" fill="#016A16"/>
<path d="M20.0317 16.6251C20.4977 16.8001 20.9222 17.4501 20.8806 17.7168C20.6808 17.4501 20.7224 17.4918 20.6309 17.8001C20.6309 17.8001 20.6059 17.5335 20.5643 17.5085L20.4977 17.6918L20.4811 17.4418H20.4145L20.4311 17.2918L20.3396 17.3585C20.3646 17.2668 20.3812 17.2418 20.2897 17.1585C20.2897 17.1585 20.4228 17.1751 20.3146 16.9585L20.2231 17.0418C20.2231 17.0418 20.2481 16.9501 20.2231 16.9085L19.8735 16.8001" stroke="black" stroke-width="0.0663212" stroke-miterlimit="6.4"/>
<path d="M19.9901 16.6668L20.1649 17.0168L20.0734 17.0418L20.2897 17.1918L20.115 17.1751C20.115 17.1751 20.3813 17.2668 20.4063 17.5335L20.1399 17.4001C20.1399 17.4001 20.3646 17.6418 20.4063 17.7835L20.2315 17.6501C20.2315 17.6501 20.3896 17.8085 20.3646 18.0501L20.2481 17.9168C20.2731 18.2251 20.2731 18.2501 20.1399 18.4751C20.1399 18.4751 20.1649 18.1251 20.1399 18.0751L19.832 18.3918L19.9901 17.9501C19.9901 17.9501 19.807 18.2168 19.6988 18.2001L19.9402 17.8418L19.6988 18.0251L19.9652 17.6251L19.7238 17.7085C19.7238 17.7085 19.8986 17.4835 19.8819 17.3335L19.7072 17.5168C19.7072 17.5168 19.7737 17.3168 19.7571 17.2501L19.6655 17.2668L19.8403 17.0835L19.7238 17.0585L19.7405 16.9251L19.6572 16.9085V16.7585L19.9901 16.6668ZM19.807 16.7751C20.0983 17.1751 19.9568 17.7751 20.1233 18.0918L19.807 16.7751Z" fill="#016A16"/>
<path d="M19.807 16.7751C20.0983 17.1751 19.9568 17.7751 20.1233 18.0918M19.9901 16.6668L20.1649 17.0168L20.0734 17.0418L20.2897 17.1918L20.115 17.1751C20.115 17.1751 20.3813 17.2668 20.4063 17.5335L20.1399 17.4001C20.1399 17.4001 20.3646 17.6418 20.4063 17.7835L20.2315 17.6501C20.2315 17.6501 20.3896 17.8085 20.3646 18.0501L20.2481 17.9168C20.2731 18.2251 20.2731 18.2501 20.1399 18.4751C20.1399 18.4751 20.1649 18.1251 20.1399 18.0751L19.832 18.3918L19.9901 17.9501C19.9901 17.9501 19.807 18.2168 19.6988 18.2001L19.9402 17.8418L19.6988 18.0251L19.9652 17.6251L19.7238 17.7085C19.7238 17.7085 19.8986 17.4835 19.8819 17.3335L19.7072 17.5168C19.7072 17.5168 19.7737 17.3168 19.7571 17.2501L19.6655 17.2668L19.8403 17.0835L19.7238 17.0585L19.7405 16.9251L19.6572 16.9085V16.7585L19.9901 16.6668Z" stroke="black" stroke-width="0.0663212" stroke-miterlimit="6.4"/>
<path d="M19.7653 22.2001C19.7653 22.2001 19.9151 20.8668 19.9151 20.3085C19.9151 19.8585 19.8069 18.8668 19.8069 18.8668H19.3658C19.3658 18.8668 19.2993 19.8501 19.3159 20.3085C19.3159 20.8668 19.4657 22.2001 19.4657 22.2001H19.7653Z" fill="#F1B517" stroke="black" stroke-width="0.0663212" stroke-miterlimit="6.4"/>
<path d="M19.324 18.9335H19.8566L19.79 18.5751H19.4072L19.324 18.9251V18.9335Z" fill="#F1B517" stroke="black" stroke-width="0.0663212" stroke-miterlimit="6.4"/>
<path d="M19.3657 18.6418H19.8318L19.7403 18.2835H19.449L19.3574 18.6418H19.3657Z" fill="#F1B517" stroke="black" stroke-width="0.0663212" stroke-miterlimit="6.4"/>
<path d="M19.3906 18.3585H19.7901L19.7069 18.0001H19.4572L19.3906 18.3585Z" fill="#F1B517" stroke="black" stroke-width="0.0663212" stroke-miterlimit="6.4"/>
<path d="M19.7238 17.9585H19.4575L19.4159 18.0918H19.7488L19.7238 17.9585ZM19.7821 21.9168H19.4325H19.7821ZM19.807 21.6501H19.4076H19.807ZM19.857 21.3835H19.3493H19.857ZM19.8819 21.1085H19.3493H19.8819ZM19.8819 20.8168H19.3327H19.8819ZM19.8986 20.5501H19.316H19.8986ZM19.8986 20.3168H19.2827H19.8986ZM19.8986 20.0251H19.2827H19.8986ZM19.8819 19.7501H19.2827H19.8819ZM19.857 19.4501H19.3077H19.857ZM19.832 19.1835H19.341H19.832Z" fill="#F1B517"/>
<path d="M19.832 19.1835H19.341M19.7238 17.9585H19.4575L19.4159 18.0918H19.7488L19.7238 17.9585ZM19.7821 21.9168H19.4325H19.7821ZM19.807 21.6501H19.4076H19.807ZM19.857 21.3835H19.3493H19.857ZM19.8819 21.1085H19.3493H19.8819ZM19.8819 20.8168H19.3327H19.8819ZM19.8986 20.5501H19.316H19.8986ZM19.8986 20.3168H19.2827H19.8986ZM19.8986 20.0251H19.2827H19.8986ZM19.8819 19.7501H19.2827H19.8819ZM19.857 19.4501H19.3077H19.857Z" stroke="black" stroke-width="0.0663212" stroke-miterlimit="6.4"/>
<path d="M19.6322 15.8668C19.524 15.8252 19.3243 15.6918 19.3825 15.6168L19.4741 15.4585C19.6072 15.1668 19.4741 15.2752 19.4741 15.1918C19.4491 15.0835 19.9817 15.1668 19.9817 15.3668C19.9817 15.4335 19.9401 15.3918 19.9568 15.7168L19.8486 15.9168C19.7737 15.9252 19.6904 15.9168 19.6239 15.8918L19.6322 15.8668Z" fill="#0A328C" stroke="#0A328C" stroke-width="0.0663212" stroke-miterlimit="6.4"/>
<path d="M19.6817 16.6668L19.5486 16.5501L19.5902 15.6001L19.7234 15.6418L19.6817 16.6584V16.6668Z" fill="#F1B517" stroke="black" stroke-width="0.0663212" stroke-miterlimit="6.4"/>
<path d="M19.8568 15.9085C19.94 15.8585 19.9899 15.7085 19.94 15.6251C19.8068 15.4501 19.7153 15.5168 19.4906 15.4418C19.449 15.4918 19.3574 15.5751 19.3741 15.6585C19.682 15.7918 19.5572 15.6835 19.6654 15.7001C19.7153 15.7001 19.7486 15.7668 19.8651 15.9001L19.8568 15.9085Z" fill="#D20014" stroke="#D20014" stroke-width="0.0663212" stroke-miterlimit="6.4"/>
<path d="M18.1007 21.3751C18.0757 21.3084 17.9675 21.2584 17.8343 21.2584C17.7012 21.2584 17.6096 21.3084 17.568 21.3751C17.5597 21.3584 17.5597 21.3418 17.568 21.3251C17.568 21.2334 17.6845 21.1668 17.8343 21.1668C17.9925 21.1668 18.1173 21.2334 18.1173 21.3251C18.1256 21.3418 18.1256 21.3584 18.1173 21.3751H18.1007Z" fill="#016A16" stroke="white" stroke-width="0.0663212" stroke-miterlimit="6.4" stroke-linecap="round"/>
<path d="M18.0843 21.5751C18.0843 21.7335 17.9678 21.8835 17.8346 21.8835C17.7015 21.8835 17.5933 21.7501 17.5933 21.5668V21.4085H18.0843V21.5668V21.5751Z" fill="#016A16" stroke="white" stroke-width="0.0663212" stroke-miterlimit="6.4" stroke-linecap="round"/>
<path d="M17.8346 21.4668C17.9679 21.4668 18.076 21.4146 18.076 21.3501C18.076 21.2857 17.9679 21.2335 17.8346 21.2335C17.7013 21.2335 17.5933 21.2857 17.5933 21.3501C17.5933 21.4146 17.7013 21.4668 17.8346 21.4668Z" fill="white"/>
<path d="M17.7845 21.4668L17.7429 21.0418H17.926L17.9011 21.4834H17.7845V21.4668Z" fill="#016A16" stroke="#F1B517" stroke-width="0.0663212" stroke-miterlimit="6.4"/>
<path d="M18.1007 21.3501C18.0757 21.4168 17.9675 21.4668 17.8343 21.4668C17.7012 21.4668 17.6096 21.4168 17.568 21.3501C17.5597 21.3668 17.5597 21.3835 17.568 21.4001C17.568 21.4918 17.6845 21.5585 17.8343 21.5585C17.9925 21.5585 18.1173 21.4918 18.1173 21.4001C18.1256 21.3835 18.1256 21.3668 18.1173 21.3501H18.1007Z" fill="#016A16" stroke="white" stroke-width="0.0663212" stroke-miterlimit="6.4" stroke-linecap="round"/>
<path d="M19.0998 23.0418L18.1677 22.7501L17.7516 22.0418L16.3035 21.9751L16.3534 22.5085L17.5935 22.7335L17.7017 22.9501L19.1248 23.3501L19.0998 23.0418Z" fill="#F1B517" stroke="black" stroke-width="0.0663212" stroke-miterlimit="6.4"/>
<path d="M18.1261 23.2418L16.6364 21.0418L16.5698 21.1084L18.0346 23.2918L18.1261 23.2418Z" fill="#503200" stroke="black" stroke-width="0.0663212" stroke-miterlimit="6.4"/>
<path d="M16.7862 21.1335L16.6281 20.8668C16.5865 20.8168 16.5449 20.8001 16.4783 20.8418C16.4117 20.8668 16.4283 20.9335 16.4533 20.9918L16.5865 21.2418L16.7862 21.1335Z" fill="white" stroke="black" stroke-width="0.0663212" stroke-miterlimit="6.4"/>
<path d="M18.3008 21.8835L15.3047 21.5751L15.2214 22.0168L18.2009 22.3251L18.3008 21.8835Z" fill="#F1B517" stroke="black" stroke-width="0.0663212" stroke-miterlimit="6.4"/>
<path d="M15.2385 21.4668L15.1719 22.0668H15.305L15.3883 21.5168L15.2551 21.4668H15.2385ZM15.7461 21.5585L15.7212 22.1085H15.8044L15.871 21.6418L15.7628 21.5585H15.7461ZM17.7852 21.8001L17.7019 22.3085H17.8517L17.9183 21.8001H17.7852ZM18.2179 21.8168L18.1264 22.4001L18.2845 22.4251L18.3344 22.1168C18.3344 22.1835 18.401 22.2251 18.4676 22.2251C18.5508 22.2251 18.6008 22.1585 18.6008 22.0918C18.6008 22.0085 18.5508 21.9585 18.4676 21.9585C18.4093 21.9501 18.3594 21.9835 18.3344 22.0418L18.3761 21.8251L18.2179 21.8168ZM17.1526 21.9085L16.7282 22.3751L16.7781 22.4251L17.3108 22.0668L17.136 21.9085H17.1526ZM16.1706 23.0668L16.5867 22.6001L16.5451 22.5501L16.0125 22.9085L16.1706 23.0668ZM17.2525 22.9501L16.7615 22.5668L16.7115 22.6085L17.111 23.1168L17.2525 22.9501ZM16.0125 22.0501L16.5285 22.4251L16.5784 22.3835L16.1789 21.8751L16.0125 22.0501ZM16.5701 21.7501L16.62 22.3668H16.6866L16.8447 21.7668L16.5701 21.7501ZM16.7282 23.2168L16.6866 22.6168H16.6034L16.5118 23.2335H16.7282V23.2168ZM17.4106 22.4168L16.7698 22.4668V22.5335L17.4106 22.6168V22.4001V22.4168ZM15.8876 22.6168L16.5118 22.5251V22.4751L15.871 22.4085V22.6251L15.8876 22.6168Z" fill="#F1B517" stroke="black" stroke-width="0.0663212" stroke-miterlimit="6.4"/>
<path d="M16.6611 22.6418C16.7576 22.6418 16.8359 22.5709 16.8359 22.4835C16.8359 22.396 16.7576 22.3251 16.6611 22.3251C16.5646 22.3251 16.4863 22.396 16.4863 22.4835C16.4863 22.5709 16.5646 22.6418 16.6611 22.6418Z" fill="#F1B517" stroke="black" stroke-width="0.0663212" stroke-miterlimit="6.4"/>
<path fill-rule="evenodd" clip-rule="evenodd" d="M17.552 22.4834C17.552 22.9501 17.1525 23.3501 16.6615 23.3501C16.1788 23.3584 15.7793 22.9668 15.771 22.4834C15.771 22.0001 16.1705 21.6168 16.6615 21.6168C17.1525 21.6084 17.552 21.9918 17.552 22.4834ZM17.3856 22.4834C17.3772 22.8751 17.0527 23.1834 16.6698 23.1751C16.2787 23.1834 15.9541 22.8751 15.9541 22.4834C15.9541 22.4751 15.9541 22.4751 15.9541 22.4668C15.9707 22.0834 16.287 21.7751 16.6698 21.7834C17.0527 21.7834 17.3772 22.0918 17.3856 22.4834Z" fill="#F1B517" stroke="black" stroke-width="0.0663212" stroke-miterlimit="6.4" stroke-linecap="round"/>
<path d="M16.1039 22.0418L15.9707 21.9334L16.1039 22.0418ZM17.1026 21.9334L17.2357 21.8001L17.1026 21.9334ZM17.3689 23.0251L17.2191 22.9084L17.3689 23.0251ZM16.1039 23.1584L16.237 23.0251L16.1039 23.1584ZM19.1249 21.6168L19.2748 22.4168L19.1582 22.4668L19.0251 21.6251H19.1333V21.6168H19.1249Z" fill="#F1B517" stroke="black" stroke-width="0.0663212" stroke-miterlimit="6.4"/>
<path d="M19.0499 21.5168C18.9833 21.4751 18.8917 21.5335 18.7336 21.3418C18.4839 21.5668 18.7336 21.6085 18.7586 21.8335C18.8251 21.8585 18.8751 21.6501 19.0665 21.6335L19.3744 21.6085L19.3079 21.5168H19.0415H19.0499Z" fill="white" stroke="black" stroke-width="0.0663212" stroke-miterlimit="6.4"/>
<path d="M19.1496 21.6668L19.1246 21.4418C19.083 21.3501 18.9915 21.4251 18.9915 21.4668L19.0164 21.6918L19.1496 21.6668Z" fill="white" stroke="black" stroke-width="0.0663212" stroke-miterlimit="6.4"/>
<path fill-rule="evenodd" clip-rule="evenodd" d="M18.4089 22.3168V22.5334C18.3257 22.5584 18.3423 22.6168 18.3423 22.6918V23.3168C18.3257 23.3668 18.2508 23.3668 18.2092 23.4001C18.1676 23.4418 18.1842 23.5084 18.3423 23.5334L18.4755 23.5501C18.6752 23.5084 18.7169 23.4418 18.6087 23.4168C18.567 23.3918 18.4921 23.3668 18.4755 23.3334V23.1751H18.6087C18.6336 23.1751 18.7002 23.0918 18.7002 23.0251V22.6918C18.7002 22.5084 18.567 22.4751 18.5171 22.4918V22.3168H18.4089ZM18.617 22.6834C18.617 22.6334 18.5338 22.5751 18.5088 22.5751C18.4838 22.5751 18.4172 22.6418 18.4172 22.6918V22.8251C18.4172 22.8751 18.4589 23.0418 18.5338 23.0501C18.5587 23.0501 18.617 23.0001 18.617 22.9418V22.6834Z" fill="#F1B517" stroke="black" stroke-width="0.0663212" stroke-miterlimit="6.4"/>
<path d="M17.5434 22.9751C17.4519 22.9501 17.4519 23.1335 17.4519 23.1335H17.5851C17.6516 23.1585 17.6933 23.2418 17.6683 23.2918C17.6267 23.3168 17.377 23.2251 17.3604 23.2918C17.402 23.5418 17.7432 23.6418 17.868 23.5335C17.9845 23.4168 18.0178 23.1335 17.6267 23.0418L17.5434 22.9751ZM17.6183 23.0501L17.5767 23.1335L17.6183 23.0501Z" fill="white"/>
<path d="M17.6183 23.0501L17.5767 23.1335M17.5434 22.9751C17.4519 22.9501 17.4519 23.1335 17.4519 23.1335H17.5851C17.6516 23.1585 17.6933 23.2418 17.6683 23.2918C17.6267 23.3168 17.377 23.2251 17.3604 23.2918C17.402 23.5418 17.7432 23.6418 17.868 23.5335C17.9845 23.4168 18.0178 23.1335 17.6267 23.0418L17.5434 22.9751Z" stroke="black" stroke-width="0.0663212" stroke-miterlimit="6.4"/>
<path d="M14.9718 23.0668L14.8386 22.5335L14.9718 23.0668ZM15.1216 23.0418L14.9219 22.6251L15.1216 23.0418ZM15.4545 22.9335L15.0134 22.6918L15.4545 22.9335ZM15.6543 22.8835L14.8303 22.5251L15.6543 22.8835Z" fill="#F1B517"/>
<path d="M15.6543 22.8835L14.8303 22.5251M14.9718 23.0668L14.8386 22.5335L14.9718 23.0668ZM15.1216 23.0418L14.9219 22.6251L15.1216 23.0418ZM15.4545 22.9335L15.0134 22.6918L15.4545 22.9335Z" stroke="black" stroke-width="0.0663212" stroke-miterlimit="6.4"/>
<path d="M14.3309 22.1335L13.9814 22.1501C13.9564 22.1668 14.048 22.2668 14.0313 22.3001C13.9481 22.4501 13.4487 22.4335 13.4071 22.4085C13.3405 22.3418 13.8732 22.3001 13.8898 22.2751C13.8898 22.2251 13.8066 22.1168 13.8233 22.0501C13.8233 21.9585 14.048 21.9168 14.048 21.9168L14.3309 22.1335Z" fill="#D20014" stroke="#D20014" stroke-width="0.0663212" stroke-miterlimit="6.4"/>
<path d="M14.7301 22.4001L14.0642 21.8418C14.0642 21.8418 14.0226 21.8168 13.9977 21.8418C13.9727 21.8668 13.9977 21.8918 13.9977 21.8918L14.7134 22.4751L14.7301 22.4084V22.4001Z" fill="#503200" stroke="black" stroke-width="0.0663212" stroke-miterlimit="6.4"/>
<path d="M15.3961 22.9585L14.8385 22.4751L14.7969 22.3418L14.6887 22.4251C14.6471 22.4501 14.6055 22.5335 14.6055 22.5335H14.7553L15.238 22.9835L15.3878 22.9585H15.3961Z" fill="#F1B517" stroke="black" stroke-width="0.0663212" stroke-miterlimit="6.4"/>
<path d="M17.3018 23.7075C17.3521 23.7075 17.3929 23.6667 17.3929 23.6163C17.3929 23.5659 17.3521 23.5251 17.3018 23.5251C17.2515 23.5251 17.2107 23.5659 17.2107 23.6163C17.2107 23.6667 17.2515 23.7075 17.3018 23.7075Z" fill="#F1B517" stroke="black" stroke-width="0.0663212" stroke-miterlimit="6.4"/>
<path d="M17.052 23.5159C17.1023 23.5159 17.1431 23.4751 17.1431 23.4247C17.1431 23.3743 17.1023 23.3335 17.052 23.3335C17.0017 23.3335 16.9609 23.3743 16.9609 23.4247C16.9609 23.4751 17.0017 23.5159 17.052 23.5159Z" fill="#F1B517" stroke="black" stroke-width="0.0663212" stroke-miterlimit="6.4"/>
<path d="M16.7193 23.6409C16.7696 23.6409 16.8104 23.6001 16.8104 23.5497C16.8104 23.4993 16.7696 23.4585 16.7193 23.4585C16.669 23.4585 16.6282 23.4993 16.6282 23.5497C16.6282 23.6001 16.669 23.6409 16.7193 23.6409Z" fill="#F1B517" stroke="black" stroke-width="0.0663212" stroke-miterlimit="6.4"/>
<path d="M16.1946 23.7409C16.2449 23.7409 16.2857 23.7001 16.2857 23.6497C16.2857 23.5993 16.2449 23.5585 16.1946 23.5585C16.1443 23.5585 16.1035 23.5993 16.1035 23.6497C16.1035 23.7001 16.1443 23.7409 16.1946 23.7409Z" fill="#F1B517" stroke="black" stroke-width="0.0663212" stroke-miterlimit="6.4"/>
<path d="M15.97 23.7742C16.0203 23.7742 16.0611 23.7334 16.0611 23.683C16.0611 23.6326 16.0203 23.5918 15.97 23.5918C15.9197 23.5918 15.8789 23.6326 15.8789 23.683C15.8789 23.7334 15.9197 23.7742 15.97 23.7742Z" fill="#F1B517" stroke="black" stroke-width="0.0663212" stroke-miterlimit="6.4"/>
<path d="M15.7451 23.7742C15.7955 23.7742 15.8362 23.7334 15.8362 23.683C15.8362 23.6326 15.7955 23.5918 15.7451 23.5918C15.6948 23.5918 15.6541 23.6326 15.6541 23.683C15.6541 23.7334 15.6948 23.7742 15.7451 23.7742Z" fill="#F1B517" stroke="black" stroke-width="0.0663212" stroke-miterlimit="6.4"/>
<path d="M15.5288 23.7742C15.5791 23.7742 15.6199 23.7334 15.6199 23.683C15.6199 23.6326 15.5791 23.5918 15.5288 23.5918C15.4785 23.5918 15.4377 23.6326 15.4377 23.683C15.4377 23.7334 15.4785 23.7742 15.5288 23.7742Z" fill="#F1B517" stroke="black" stroke-width="0.0663212" stroke-miterlimit="6.4"/>
<path d="M15.6372 23.5992C15.6875 23.5992 15.7283 23.5584 15.7283 23.508C15.7283 23.4576 15.6875 23.4168 15.6372 23.4168C15.5869 23.4168 15.5461 23.4576 15.5461 23.508C15.5461 23.5584 15.5869 23.5992 15.6372 23.5992Z" fill="#F1B517" stroke="black" stroke-width="0.0663212" stroke-miterlimit="6.4"/>
<path d="M15.8538 23.6075C15.9041 23.6075 15.9449 23.5667 15.9449 23.5163C15.9449 23.466 15.9041 23.4251 15.8538 23.4251C15.8035 23.4251 15.7627 23.466 15.7627 23.5163C15.7627 23.5667 15.8035 23.6075 15.8538 23.6075Z" fill="#F1B517" stroke="black" stroke-width="0.0663212" stroke-miterlimit="6.4"/>
<path d="M16.0535 23.5825C16.1038 23.5825 16.1446 23.5417 16.1446 23.4913C16.1446 23.4409 16.1038 23.4001 16.0535 23.4001C16.0032 23.4001 15.9624 23.4409 15.9624 23.4913C15.9624 23.5417 16.0032 23.5825 16.0535 23.5825Z" fill="#F1B517" stroke="black" stroke-width="0.0663212" stroke-miterlimit="6.4"/>
<path d="M15.9534 23.4242C16.0037 23.4242 16.0445 23.3834 16.0445 23.333C16.0445 23.2826 16.0037 23.2418 15.9534 23.2418C15.9031 23.2418 15.8623 23.2826 15.8623 23.333C15.8623 23.3834 15.9031 23.4242 15.9534 23.4242Z" fill="#F1B517" stroke="black" stroke-width="0.0663212" stroke-miterlimit="6.4"/>
<path d="M15.7451 23.4076C15.7955 23.4076 15.8362 23.3667 15.8362 23.3164C15.8362 23.266 15.7955 23.2252 15.7451 23.2252C15.6948 23.2252 15.6541 23.266 15.6541 23.3164C15.6541 23.3667 15.6948 23.4076 15.7451 23.4076Z" fill="#F1B517" stroke="black" stroke-width="0.0663212" stroke-miterlimit="6.4"/>
<path fill-rule="evenodd" clip-rule="evenodd" d="M17.8345 23.7335C17.8345 23.6918 17.7263 23.7085 17.7263 23.6501C17.7263 23.6001 17.8844 23.6501 17.9011 23.6918C17.9926 23.6085 18.0343 23.6668 18.0842 23.6918C18.1674 23.5835 18.259 23.5835 18.3505 23.6668C18.4004 23.6168 18.5336 23.6251 18.5752 23.6918C18.6668 23.6085 18.75 23.6251 18.7999 23.6918C18.8249 23.6501 18.8665 23.6501 18.8915 23.6918C18.9331 23.6001 19.0496 23.6251 19.1079 23.6918C19.1495 23.6418 19.1994 23.6751 19.2577 23.7085C19.2993 23.6835 19.3659 23.6835 19.3659 23.7085C19.3659 23.7585 19.2826 23.7501 19.2826 23.7918C19.2826 23.8168 19.3326 23.7918 19.3326 23.8418C19.3326 23.8835 19.2493 23.8918 19.241 23.8418C19.1994 23.8918 19.0912 23.8668 19.0829 23.8168C19.0413 23.8585 18.9747 23.8668 18.9331 23.8251L18.9248 23.8168C18.8832 23.8418 18.8332 23.8418 18.8166 23.8168C18.75 23.8835 18.6335 23.8668 18.5919 23.7918H18.5502C18.5003 23.8501 18.4171 23.8501 18.3588 23.8001C18.3505 23.8001 18.3505 23.7918 18.3505 23.7918C18.234 23.8751 18.1674 23.8418 18.1008 23.7918C18.0343 23.8835 17.9177 23.8835 17.9011 23.7918C17.8512 23.8335 17.743 23.8418 17.743 23.7918C17.743 23.7585 17.8345 23.7751 17.8345 23.7335ZM18.0509 23.7501C18.0509 23.7751 18.0259 23.7918 18.001 23.7918C17.976 23.7918 17.951 23.7751 17.951 23.7501C17.951 23.7251 17.9677 23.7251 18.001 23.7251C18.0343 23.7251 18.0509 23.7335 18.0509 23.7501ZM18.3006 23.7168C18.3006 23.7418 18.259 23.7585 18.2173 23.7585C18.1757 23.7585 18.1508 23.7418 18.1508 23.7168C18.1508 23.7001 18.1757 23.6751 18.2173 23.6751C18.259 23.6751 18.2839 23.7001 18.2839 23.7168H18.3006ZM18.7666 23.7501C18.7666 23.7751 18.7417 23.7918 18.7001 23.7918C18.6584 23.7918 18.6501 23.7751 18.6501 23.7501C18.6501 23.7335 18.6751 23.7085 18.7001 23.7085C18.725 23.7085 18.7666 23.7168 18.7666 23.7501ZM18.517 23.7501C18.517 23.7751 18.492 23.7918 18.4504 23.7918C18.4088 23.7918 18.4004 23.7751 18.4004 23.7418C18.4004 23.7168 18.4254 23.6918 18.4504 23.6918C18.4753 23.6918 18.517 23.7168 18.517 23.7418V23.7501ZM19.0496 23.7501C19.0496 23.7668 19.033 23.7918 19.008 23.7918C18.9664 23.7918 18.9414 23.7668 18.9414 23.7418C18.9414 23.7168 18.9664 23.7001 19.008 23.7001C19.033 23.7001 19.0579 23.7168 19.0579 23.7418L19.0496 23.7501ZM18.8832 23.7501C18.8832 23.7751 18.8832 23.7918 18.8582 23.7918C18.8332 23.7918 18.8166 23.7751 18.8166 23.7501C18.8166 23.7251 18.8332 23.7251 18.8582 23.7251L18.8832 23.7501ZM19.2077 23.7585C19.2077 23.7835 19.2077 23.8085 19.1661 23.8085C19.1495 23.8085 19.1245 23.7835 19.1245 23.7585C19.1245 23.7335 19.1495 23.7168 19.1661 23.7168C19.1911 23.7168 19.2077 23.7335 19.2077 23.7585Z" fill="#F1B517" stroke="black" stroke-width="0.0663212" stroke-miterlimit="6.4"/>
<path d="M20.1483 23.0418L21.0804 22.7501L21.4965 22.0418L22.9446 21.9751L22.8947 22.5084L21.6546 22.7334L21.5464 22.9501L20.1233 23.3501L20.1483 23.0418Z" fill="#F1B517" stroke="black" stroke-width="0.0663212" stroke-miterlimit="6.4"/>
<path d="M21.1218 23.2418L22.6116 21.0418L22.6781 21.1084L21.2134 23.2918L21.1218 23.2418Z" fill="#503200" stroke="black" stroke-width="0.0663212" stroke-miterlimit="6.4"/>
<path d="M22.47 21.1335L22.6281 20.8668C22.6697 20.8168 22.7113 20.8001 22.7779 20.8418C22.8445 20.8668 22.8278 20.9335 22.8029 20.9918L22.6697 21.2418L22.47 21.1335Z" fill="white" stroke="black" stroke-width="0.0663212" stroke-miterlimit="6.4"/>
<path d="M20.9473 21.8835L23.9434 21.5751L24.0266 22.0168L21.0471 22.3251L20.9473 21.8835Z" fill="#F1B517" stroke="black" stroke-width="0.0663212" stroke-miterlimit="6.4"/>
<path d="M24.0098 21.4668L24.0763 22.0668H23.9432L23.86 21.5168L23.9931 21.4668H24.0098ZM23.5104 21.5585L23.5354 22.1085H23.4522L23.3856 21.6418L23.4938 21.5585H23.5104ZM21.4714 21.8001L21.5546 22.3085H21.4048L21.3382 21.8001H21.4714ZM21.0303 21.8168L21.1218 22.4001L20.9637 22.4251L20.9138 22.1168C20.9138 22.1835 20.8472 22.2251 20.7806 22.2251C20.6974 22.2251 20.6475 22.1585 20.6475 22.0918C20.6475 22.0085 20.6974 21.9585 20.7806 21.9585C20.8389 21.9501 20.8888 21.9835 20.9138 22.0418L20.8722 21.8251L21.0303 21.8168ZM22.0956 21.9085L22.52 22.3751L22.4701 22.4251L21.9375 22.0668L22.1122 21.9085H22.0956ZM23.0776 23.0668L22.6615 22.6001L22.7031 22.5501L23.2358 22.9085L23.0776 23.0668ZM22.004 22.9501L22.4951 22.5668L22.545 22.6085L22.1455 23.1168L22.004 22.9501ZM23.2441 22.0501L22.7281 22.4251L22.6782 22.3835L23.0776 21.8751L23.2441 22.0501ZM22.6782 21.7501L22.6282 22.3668H22.5616L22.4035 21.7668L22.6782 21.7501ZM22.52 23.2168L22.5616 22.6168H22.6449L22.7364 23.2335H22.52V23.2168ZM21.8459 22.4168L22.4867 22.4668V22.5335L21.8459 22.6168V22.4001V22.4168ZM23.3606 22.6168L22.7364 22.5251V22.4751L23.3773 22.4085V22.6251L23.3606 22.6168Z" fill="#F1B517" stroke="black" stroke-width="0.0663212" stroke-miterlimit="6.4"/>
<path d="M22.5869 22.6418C22.6834 22.6418 22.7617 22.5709 22.7617 22.4834C22.7617 22.396 22.6834 22.3251 22.5869 22.3251C22.4904 22.3251 22.4121 22.396 22.4121 22.4834C22.4121 22.5709 22.4904 22.6418 22.5869 22.6418Z" fill="#F1B517" stroke="black" stroke-width="0.0663212" stroke-miterlimit="6.4"/>
<path fill-rule="evenodd" clip-rule="evenodd" d="M21.696 22.4834C21.696 22.9501 22.0955 23.3501 22.5866 23.3501C23.0693 23.3584 23.4687 22.9668 23.4771 22.4834C23.4771 22.0001 23.0776 21.6168 22.5866 21.6168C22.1039 21.6084 21.7044 21.9918 21.696 22.4834ZM21.8708 22.4834C21.8791 22.8751 22.2037 23.1834 22.5866 23.1751C22.9777 23.1834 23.3023 22.8751 23.3023 22.4834C23.3023 22.4751 23.3023 22.4751 23.3023 22.4668C23.2857 22.0834 22.9694 21.7751 22.5866 21.7834C22.1954 21.7834 21.8791 22.0918 21.8708 22.4834Z" fill="#F1B517" stroke="black" stroke-width="0.0663212" stroke-miterlimit="6.4" stroke-linecap="round"/>
<path d="M23.144 22.0418L23.2772 21.9334L23.144 22.0418ZM22.1453 21.9334L22.0122 21.8001L22.1453 21.9334ZM21.879 23.0251L22.0288 22.9084L21.879 23.0251ZM23.144 23.1584L23.0109 23.0251L23.144 23.1584ZM20.1229 21.6168L19.9731 22.4168L20.0897 22.4668L20.2228 21.6251H20.1146L20.1229 21.6168Z" fill="#F1B517" stroke="black" stroke-width="0.0663212" stroke-miterlimit="6.4"/>
<path d="M20.2064 21.5168C20.273 21.4751 20.3645 21.5334 20.5227 21.3418C20.7723 21.5668 20.5227 21.6084 20.4977 21.8334C20.4311 21.8584 20.3812 21.6501 20.1898 21.6334L19.8818 21.6084L19.9484 21.5168H20.2147H20.2064Z" fill="white" stroke="black" stroke-width="0.0663212" stroke-miterlimit="6.4"/>
<path d="M20.0984 21.6668L20.1234 21.4418C20.165 21.3501 20.2565 21.4251 20.2565 21.4668L20.2315 21.6918L20.0984 21.6668Z" fill="white" stroke="black" stroke-width="0.0663212" stroke-miterlimit="6.4"/>
<path fill-rule="evenodd" clip-rule="evenodd" d="M20.8474 22.3168V22.5334C20.9307 22.5584 20.914 22.6168 20.914 22.6918V23.3168C20.9307 23.3668 21.0056 23.3668 21.0472 23.4001C21.0888 23.4418 21.0721 23.5084 20.914 23.5334L20.7809 23.5501C20.5811 23.5084 20.5395 23.4418 20.6477 23.4168C20.6893 23.3918 20.7642 23.3668 20.7809 23.3334V23.1751H20.6477C20.6227 23.1751 20.5562 23.0918 20.5562 23.0251V22.6918C20.5562 22.5084 20.6893 22.4751 20.7392 22.4918V22.3168H20.8474ZM20.6311 22.6834C20.6311 22.6334 20.7143 22.5751 20.7392 22.5751C20.7642 22.5751 20.8308 22.6418 20.8308 22.6918V22.8251C20.8308 22.8751 20.7892 23.0418 20.7143 23.0501C20.6893 23.0501 20.6311 23.0001 20.6311 22.9418V22.6834Z" fill="#F1B517" stroke="black" stroke-width="0.0663212" stroke-miterlimit="6.4"/>
<path d="M21.7125 22.9751C21.804 22.9501 21.804 23.1335 21.804 23.1335H21.6709C21.6043 23.1585 21.5627 23.2418 21.5877 23.2918C21.6293 23.3168 21.879 23.2251 21.8956 23.2918C21.854 23.5418 21.5128 23.6418 21.3879 23.5335C21.2714 23.4168 21.2381 23.1335 21.6293 23.0418L21.7125 22.9751ZM21.6293 23.0501L21.6709 23.1335L21.6293 23.0501Z" fill="white"/>
<path d="M21.6293 23.0501L21.6709 23.1335M21.7125 22.9751C21.804 22.9501 21.804 23.1335 21.804 23.1335H21.6709C21.6043 23.1585 21.5627 23.2418 21.5877 23.2918C21.6293 23.3168 21.879 23.2251 21.8956 23.2918C21.854 23.5418 21.5128 23.6418 21.3879 23.5335C21.2714 23.4168 21.2381 23.1335 21.6293 23.0418L21.7125 22.9751Z" stroke="black" stroke-width="0.0663212" stroke-miterlimit="6.4"/>
<path d="M24.2762 23.0668L24.4093 22.5335L24.2762 23.0668ZM24.1347 23.0418L24.3344 22.6251L24.1347 23.0418ZM23.8018 22.9335L24.2429 22.6918L23.8018 22.9335ZM23.6021 22.8835L24.426 22.5251L23.6021 22.8835Z" fill="#F1B517"/>
<path d="M23.6021 22.8835L24.426 22.5251M24.2762 23.0668L24.4093 22.5335L24.2762 23.0668ZM24.1347 23.0418L24.3344 22.6251L24.1347 23.0418ZM23.8018 22.9335L24.2429 22.6918L23.8018 22.9335Z" stroke="black" stroke-width="0.0663212" stroke-miterlimit="6.4"/>
<path d="M24.9172 22.1334L25.2668 22.1501C25.2918 22.1668 25.2002 22.2668 25.2168 22.3001C25.3001 22.4501 25.7994 22.4334 25.841 22.4084C25.9076 22.3418 25.375 22.3001 25.3583 22.2751C25.3583 22.2251 25.4416 22.1168 25.4249 22.0501C25.4249 21.9584 25.2002 21.9168 25.2002 21.9168L24.9172 22.1334Z" fill="#D20014" stroke="#D20014" stroke-width="0.0663212" stroke-miterlimit="6.4"/>
<path d="M24.5176 22.4001L25.1834 21.8418C25.1834 21.8418 25.225 21.8168 25.25 21.8418C25.2749 21.8668 25.25 21.8918 25.25 21.8918L24.5342 22.4751L24.5176 22.4084V22.4001Z" fill="#503200" stroke="black" stroke-width="0.0663212" stroke-miterlimit="6.4"/>
<path d="M23.8518 22.9585L24.4094 22.4751L24.451 22.3418L24.5592 22.4251C24.6008 22.4501 24.6424 22.5335 24.6424 22.5335H24.4926L24.0099 22.9835L23.8601 22.9585H23.8518Z" fill="#F1B517" stroke="black" stroke-width="0.0663212" stroke-miterlimit="6.4"/>
<path d="M21.9451 23.7075C21.9954 23.7075 22.0362 23.6667 22.0362 23.6163C22.0362 23.5659 21.9954 23.5251 21.9451 23.5251C21.8948 23.5251 21.854 23.5659 21.854 23.6163C21.854 23.6667 21.8948 23.7075 21.9451 23.7075Z" fill="#F1B517" stroke="black" stroke-width="0.0663212" stroke-miterlimit="6.4"/>
<path d="M22.2034 23.5159C22.2537 23.5159 22.2945 23.4751 22.2945 23.4247C22.2945 23.3743 22.2537 23.3335 22.2034 23.3335C22.1531 23.3335 22.1123 23.3743 22.1123 23.4247C22.1123 23.4751 22.1531 23.5159 22.2034 23.5159Z" fill="#F1B517" stroke="black" stroke-width="0.0663212" stroke-miterlimit="6.4"/>
<path d="M22.5359 23.6409C22.5862 23.6409 22.627 23.6001 22.627 23.5497C22.627 23.4993 22.5862 23.4585 22.5359 23.4585C22.4856 23.4585 22.4448 23.4993 22.4448 23.5497C22.4448 23.6001 22.4856 23.6409 22.5359 23.6409Z" fill="#F1B517" stroke="black" stroke-width="0.0663212" stroke-miterlimit="6.4"/>
<path d="M23.0523 23.7409C23.1026 23.7409 23.1434 23.7 23.1434 23.6497C23.1434 23.5993 23.1026 23.5585 23.0523 23.5585C23.002 23.5585 22.9612 23.5993 22.9612 23.6497C22.9612 23.7 23.002 23.7409 23.0523 23.7409Z" fill="#F1B517" stroke="black" stroke-width="0.0663212" stroke-miterlimit="6.4"/>
<path d="M23.2769 23.7742C23.3272 23.7742 23.368 23.7334 23.368 23.683C23.368 23.6326 23.3272 23.5918 23.2769 23.5918C23.2266 23.5918 23.1858 23.6326 23.1858 23.683C23.1858 23.7334 23.2266 23.7742 23.2769 23.7742Z" fill="#F1B517" stroke="black" stroke-width="0.0663212" stroke-miterlimit="6.4"/>
<path d="M23.51 23.7742C23.5603 23.7742 23.6011 23.7334 23.6011 23.683C23.6011 23.6326 23.5603 23.5918 23.51 23.5918C23.4597 23.5918 23.4189 23.6326 23.4189 23.683C23.4189 23.7334 23.4597 23.7742 23.51 23.7742Z" fill="#F1B517" stroke="black" stroke-width="0.0663212" stroke-miterlimit="6.4"/>
<path d="M23.718 23.7742C23.7684 23.7742 23.8091 23.7334 23.8091 23.683C23.8091 23.6326 23.7684 23.5918 23.718 23.5918C23.6677 23.5918 23.627 23.6326 23.627 23.683C23.627 23.7334 23.6677 23.7742 23.718 23.7742Z" fill="#F1B517" stroke="black" stroke-width="0.0663212" stroke-miterlimit="6.4"/>
<path d="M23.6096 23.5992C23.66 23.5992 23.7007 23.5584 23.7007 23.508C23.7007 23.4576 23.66 23.4168 23.6096 23.4168C23.5593 23.4168 23.5186 23.4576 23.5186 23.508C23.5186 23.5584 23.5593 23.5992 23.6096 23.5992Z" fill="#F1B517" stroke="black" stroke-width="0.0663212" stroke-miterlimit="6.4"/>
<path d="M23.4016 23.6075C23.4519 23.6075 23.4927 23.5667 23.4927 23.5163C23.4927 23.4659 23.4519 23.4251 23.4016 23.4251C23.3513 23.4251 23.3105 23.4659 23.3105 23.5163C23.3105 23.5667 23.3513 23.6075 23.4016 23.6075Z" fill="#F1B517" stroke="black" stroke-width="0.0663212" stroke-miterlimit="6.4"/>
<path d="M23.2019 23.5826C23.2522 23.5826 23.293 23.5417 23.293 23.4914C23.293 23.441 23.2522 23.4001 23.2019 23.4001C23.1516 23.4001 23.1108 23.441 23.1108 23.4914C23.1108 23.5417 23.1516 23.5826 23.2019 23.5826Z" fill="#F1B517" stroke="black" stroke-width="0.0663212" stroke-miterlimit="6.4"/>
<path d="M23.2937 23.4242C23.344 23.4242 23.3848 23.3834 23.3848 23.333C23.3848 23.2826 23.344 23.2418 23.2937 23.2418C23.2434 23.2418 23.2026 23.2826 23.2026 23.333C23.2026 23.3834 23.2434 23.4242 23.2937 23.4242Z" fill="#F1B517" stroke="black" stroke-width="0.0663212" stroke-miterlimit="6.4"/>
<path d="M23.51 23.4076C23.5603 23.4076 23.6011 23.3667 23.6011 23.3164C23.6011 23.266 23.5603 23.2251 23.51 23.2251C23.4597 23.2251 23.4189 23.266 23.4189 23.3164C23.4189 23.3667 23.4597 23.4076 23.51 23.4076Z" fill="#F1B517" stroke="black" stroke-width="0.0663212" stroke-miterlimit="6.4"/>
<path fill-rule="evenodd" clip-rule="evenodd" d="M21.4132 23.7335C21.4132 23.6918 21.5214 23.7085 21.5214 23.6501C21.5214 23.6001 21.3632 23.6501 21.3466 23.6918C21.2551 23.6085 21.2134 23.6668 21.1635 23.6918C21.0803 23.5835 20.9887 23.5835 20.8972 23.6668C20.8473 23.6168 20.7141 23.6251 20.6725 23.6918C20.5809 23.6085 20.4977 23.6251 20.4478 23.6918C20.4228 23.6501 20.3812 23.6501 20.3562 23.6918C20.3146 23.6001 20.1981 23.6251 20.1398 23.6918C20.0982 23.6418 20.0483 23.6751 19.99 23.7085C19.9484 23.6835 19.8818 23.6835 19.8818 23.7085C19.8818 23.7585 19.9651 23.7501 19.9651 23.7918C19.9651 23.8168 19.9151 23.7918 19.9151 23.8418C19.9151 23.8835 19.9984 23.8918 20.0067 23.8418C20.0483 23.8918 20.1565 23.8668 20.1648 23.8168C20.2064 23.8585 20.273 23.8668 20.3146 23.8251L20.3229 23.8168C20.3645 23.8418 20.4145 23.8418 20.4311 23.8168C20.4977 23.8835 20.6142 23.8668 20.6558 23.7918H20.6974C20.7474 23.8501 20.8306 23.8501 20.8889 23.8001C20.8972 23.8001 20.8972 23.7918 20.8972 23.7918C21.0137 23.8751 21.0803 23.8418 21.1469 23.7918C21.2134 23.8835 21.33 23.8835 21.3466 23.7918C21.3965 23.8335 21.5047 23.8418 21.5047 23.7918C21.5131 23.7585 21.4132 23.7751 21.4132 23.7335ZM21.2051 23.7501C21.2051 23.7751 21.2301 23.7918 21.2551 23.7918C21.28 23.7918 21.305 23.7751 21.305 23.7501C21.305 23.7251 21.2883 23.7251 21.2551 23.7251C21.2218 23.7251 21.2051 23.7335 21.2051 23.7501ZM20.9471 23.7168C20.9471 23.7418 20.9887 23.7585 21.0303 23.7585C21.072 23.7585 21.0969 23.7418 21.0969 23.7168C21.0969 23.7001 21.072 23.6751 21.0303 23.6751C20.9887 23.6751 20.9638 23.7001 20.9638 23.7168H20.9471ZM20.4811 23.7501C20.4811 23.7751 20.506 23.7918 20.5476 23.7918C20.5893 23.7918 20.5976 23.7751 20.5976 23.7501C20.5976 23.7335 20.5726 23.7085 20.5476 23.7085C20.5227 23.7085 20.4811 23.7168 20.4811 23.7501ZM20.7391 23.7501C20.7391 23.7751 20.764 23.7918 20.8056 23.7918C20.8473 23.7918 20.8556 23.7751 20.8556 23.7418C20.8556 23.7168 20.8306 23.6918 20.8056 23.6918C20.7807 23.6918 20.7391 23.7168 20.7391 23.7418V23.7501ZM20.2064 23.7501C20.2064 23.7668 20.2231 23.7918 20.248 23.7918C20.2896 23.7918 20.3146 23.7668 20.3146 23.7418C20.3146 23.7168 20.2896 23.7001 20.248 23.7001C20.2231 23.7001 20.1981 23.7168 20.1981 23.7418L20.2064 23.7501ZM20.3645 23.7501C20.3645 23.7751 20.3645 23.7918 20.3895 23.7918C20.4145 23.7918 20.4311 23.7751 20.4311 23.7501C20.4311 23.7251 20.4145 23.7251 20.3895 23.7251L20.3645 23.7501ZM20.0483 23.7585C20.0483 23.7835 20.0483 23.8085 20.0899 23.8085C20.1065 23.8085 20.1315 23.7835 20.1315 23.7585C20.1315 23.7335 20.1065 23.7168 20.0899 23.7168C20.0566 23.7168 20.0483 23.7335 20.0483 23.7585Z" fill="#F1B517" stroke="black" stroke-width="0.0663212" stroke-miterlimit="6.4"/>
<path d="M19.607 22.0918C19.2741 22.0918 19.0078 22.2251 19.0078 22.3751C19.0078 22.4001 19.0078 22.4251 19.0328 22.4584C19.0994 22.5418 19.3407 22.5918 19.6154 22.5918C19.8817 22.5918 20.0981 22.5501 20.173 22.4751C20.1979 22.4501 20.2146 22.4251 20.2146 22.3834C20.2146 22.2334 19.9483 22.1168 19.5987 22.1168L19.607 22.0918Z" fill="#0A328C" stroke="#0A328C" stroke-width="0.0663212" stroke-miterlimit="6.4"/>
<path d="M20.2146 22.4001V23.3335C20.2146 23.4501 19.9483 23.5335 19.6154 23.5335C19.2825 23.5335 18.9995 23.4501 18.9995 23.3335V22.4001C18.9995 22.5085 19.2658 22.6001 19.5987 22.6001C19.9483 22.6001 20.2146 22.5085 20.2146 22.4001Z" fill="#F1B517" stroke="black" stroke-width="0.0663212" stroke-miterlimit="6.4"/>
<path d="M19.0078 22.4001V22.5335L19.2991 23.4668L19.5405 22.7501L19.8068 23.4835L19.9816 22.7918L20.2229 23.2585V23.0085L20.0065 22.5585C19.9815 22.5668 19.9566 22.5751 19.9233 22.5835L19.7901 23.0918L19.5904 22.6085C19.5571 22.6085 19.5321 22.6085 19.4988 22.6085L19.2991 23.0835L19.0827 22.5001C19.0328 22.4668 19.0078 22.4251 19.0078 22.4001Z" fill="#D20014" stroke="#D20014" stroke-width="0.0663212" stroke-miterlimit="6.4"/>
<path d="M20.2146 23.1585V23.3335C20.2146 23.4501 19.9483 23.5335 19.6154 23.5335C19.2825 23.5335 18.9995 23.4501 18.9995 23.3335V23.1585C18.9995 23.2751 19.2658 23.3585 19.5987 23.3585C19.9483 23.3585 20.2146 23.2835 20.2146 23.1585Z" fill="#0A328C" stroke="#0A328C" stroke-width="0.0663212" stroke-miterlimit="6.4"/>
<path d="M19.8567 23.3335L19.7069 23.3585V23.5335L19.865 23.5168V23.3418L19.8567 23.3335ZM19.2159 23.3168V23.4918L19.3657 23.5168V23.3418C19.3157 23.3418 19.2658 23.3335 19.2159 23.3168ZM19.0078 23.1585V23.3335C19.0078 23.3751 19.0328 23.4001 19.0744 23.4251V23.2501C19.0328 23.2251 19.0078 23.2001 19.0078 23.1585ZM20.2146 23.1835C20.2146 23.2085 20.1646 23.2501 20.1064 23.2751V23.4501C20.173 23.4251 20.2146 23.3835 20.2146 23.3335V23.2001V23.1835Z" fill="#F1B517" stroke="black" stroke-width="0.0663212" stroke-miterlimit="6.4"/>
<path d="M20.2146 22.4001V23.3335C20.2146 23.4501 19.9483 23.5335 19.6154 23.5335C19.2825 23.5335 18.9995 23.4501 18.9995 23.3335V22.4001" stroke="black" stroke-width="0.0663212" stroke-miterlimit="6.4"/>
<path d="M20.0813 22.3335C20.0813 22.4001 19.865 22.4668 19.6153 22.4668C19.349 22.4668 19.1326 22.4001 19.1326 22.3335C19.1326 22.2668 19.349 22.2168 19.5986 22.2168C19.865 22.2168 20.0813 22.2668 20.0813 22.3501V22.3335Z" fill="white" stroke="white" stroke-width="0.0663212" stroke-miterlimit="6.4"/>
<path d="M19.4573 22.4251L19.4822 22.5834H19.6154L19.632 22.4251H19.4573ZM20.0066 22.3834L19.8734 22.4084L19.89 22.5668L20.0232 22.5418V22.3918L20.0066 22.3834ZM19.2825 22.1168L19.191 22.1584L19.2076 22.2918L19.2908 22.2668V22.1334L19.2825 22.1168ZM19.6071 22.0834H19.5655L19.5904 22.2418H19.6737L19.6986 22.0834C19.6653 22.0751 19.6404 22.0751 19.6071 22.0834ZM19.9649 22.1334L19.9483 22.2668L20.0399 22.3084V22.1751C20.0232 22.1584 19.9899 22.1418 19.9649 22.1334ZM19.0994 22.5084L19.1244 22.3334L18.9912 22.2668V22.4668L19.0994 22.5084ZM20.2146 22.4668V22.2918L20.1064 22.3334L20.2146 22.4668ZM21.4547 21.3334C21.5629 21.3334 21.721 21.4668 21.7376 21.6668C21.7376 21.8001 21.5129 21.8001 21.5129 21.8001C21.5129 21.8668 21.3798 21.9168 21.2716 21.9334C21.1634 21.9334 21.2966 21.7334 21.2966 21.7334C21.23 21.5584 21.3215 21.3751 21.3215 21.3751L21.4547 21.3334Z" fill="#F1B517" stroke="black" stroke-width="0.0663212" stroke-miterlimit="6.4"/>
<path d="M21.2966 21.7335H21.4048C21.4048 21.7335 21.4048 21.7751 21.4298 21.7751C21.4548 21.7751 21.4714 21.7252 21.4714 21.7252H21.6295" fill="#F1B517"/>
<path d="M21.2966 21.7335H21.4048C21.4048 21.7335 21.4048 21.7751 21.4298 21.7751C21.4548 21.7751 21.4714 21.7252 21.4714 21.7252H21.6295" stroke="black" stroke-width="0.0663212" stroke-miterlimit="6.4"/>
<path d="M21.5131 21.4501C21.6047 21.3835 21.5298 21.2501 21.4632 21.2501H21.33C21.2468 21.2501 21.147 21.3335 21.1553 21.3835C21.1553 21.4501 21.2052 21.4751 21.2635 21.4668C21.2884 21.4668 21.3467 21.3835 21.3717 21.3835C21.4049 21.3835 21.4965 21.4668 21.5131 21.4501Z" fill="#D20014" stroke="#F1B517" stroke-width="0.0663212" stroke-miterlimit="6.4"/>
<path fill-rule="evenodd" clip-rule="evenodd" d="M14.8632 23.3084C14.78 23.3251 14.7716 23.4168 14.7966 23.5084C14.4471 23.6001 14.1308 23.7334 13.8146 23.8251C13.7979 23.7584 13.9727 23.5834 13.9727 23.5834C14.0143 23.6001 14.0559 23.7001 14.0559 23.7001C14.0559 23.4834 14.2723 23.3501 14.2723 23.3501C14.1391 23.3251 13.7813 23.4834 13.7396 23.5334C13.7396 23.5334 13.8728 23.5084 13.8978 23.5334C13.8978 23.5334 13.6065 23.8418 13.5898 23.9334C13.6398 24.0251 14.1225 24.1084 14.1225 24.1084C14.1225 24.1334 13.9893 24.2418 13.9893 24.2418C14.1891 24.2668 14.4804 24.1334 14.5636 24.0584C14.5636 24.0584 14.3389 24.0334 14.1641 23.8834C14.1641 23.8834 14.1891 23.9751 14.1641 24.0168C14.1641 24.0168 13.8978 23.9334 13.8562 23.8834C13.8562 23.8834 14.522 23.7251 14.8382 23.6168C14.8549 23.6834 14.9214 23.7918 14.9964 23.7668C15.038 23.7501 15.0213 23.6584 14.9964 23.5834C15.0213 23.6001 15.0463 23.6084 15.0796 23.6084C15.1295 23.6084 15.1711 23.5668 15.1711 23.5168C15.1711 23.4668 15.1295 23.4251 15.0796 23.4251C15.038 23.4251 15.0047 23.4501 14.988 23.4918C14.9714 23.4251 14.9381 23.3084 14.8798 23.3168L14.8632 23.3084ZM15.1295 23.5168C15.1295 23.5418 15.1045 23.5584 15.0796 23.5584C15.0629 23.5668 15.038 23.5584 15.0296 23.5334C15.0296 23.5251 15.0296 23.5251 15.0296 23.5168C15.0296 23.4918 15.0546 23.4668 15.0796 23.4668C15.1045 23.4668 15.1212 23.4918 15.1212 23.5168H15.1295Z" fill="#F1B517" stroke="black" stroke-width="0.0663212" stroke-miterlimit="6.4"/>
<path d="M25.3581 23.7168C25.3831 23.6668 25.3581 23.4251 25.3581 23.4251C25.2915 23.4251 25.2249 23.5168 25.2249 23.5168C25.2915 23.3001 25.1167 22.9835 25.1167 22.9835C25.2333 23.0001 25.6327 23.3835 25.6494 23.4668C25.6494 23.4668 25.4746 23.4001 25.4497 23.4168C25.4913 23.6168 25.6244 23.7085 25.6744 23.8168C25.6744 23.8168 25.4497 23.8585 25.458 24.0585H25.3082C25.2582 23.9918 25.3248 23.8835 25.3248 23.8835L24.3011 23.4585C24.2346 23.4335 24.0848 23.3501 24.118 23.2751C24.1347 23.2085 24.3844 23.3168 24.4343 23.3418L25.3664 23.7251L25.3581 23.7168Z" fill="#F1B517" stroke="black" stroke-width="0.0663212" stroke-miterlimit="6.4"/>
<path d="M24.3759 23.5335L24.5091 23.3168C24.5507 23.2501 24.4592 23.1835 24.3926 23.2668L24.2594 23.4668C24.2095 23.5835 24.326 23.6168 24.3926 23.5335H24.3759Z" fill="#F1B517" stroke="black" stroke-width="0.0663212" stroke-miterlimit="6.4"/>
<path d="M17.1517 24.0501L17.1434 23.8001L16.8521 23.8251L16.8354 24.0835L17.1517 24.0501Z" fill="white" stroke="black" stroke-width="0.0621762"/>
<path d="M15.0047 24.3918L14.6135 24.1668C16.2281 24.3168 16.561 23.7501 16.9522 23.7251C17.2019 23.7001 17.2268 23.9918 16.7608 23.8501L16.8856 24.1501C16.8856 24.1501 15.7371 24.8001 14.6052 24.5334L15.0047 24.3918ZM22.0622 24.0501L22.0705 23.8001L22.4284 23.8168L22.4451 24.0751L22.0622 24.0501Z" fill="white" stroke="black" stroke-width="0.0621762"/>
<path d="M24.2845 24.3335L24.659 24.1251C22.7948 24.1835 23.2192 23.8252 22.2954 23.7252C22.0457 23.6918 21.8793 24.0085 22.4785 23.8502L22.362 24.1501H22.6533C23.2858 24.5668 24.1347 24.6085 24.7006 24.4751L24.2845 24.3335Z" fill="white" stroke="black" stroke-width="0.0621762"/>
<path d="M16.761 23.8585V24.2751C16.761 24.2751 17.7847 24.6585 19.6239 24.6585C21.4715 24.6585 22.4869 24.2751 22.4869 24.2751V23.8585C22.4869 23.8585 21.7129 24.2168 19.6239 24.2168C17.5433 24.2168 16.761 23.8585 16.761 23.8585Z" fill="white" stroke="black" stroke-width="0.0621762"/>
<path d="M16.9106 24.2751L17.0022 23.9668L17.0438 23.9835L16.9606 24.2501L17.127 24.2918L17.1104 24.3335L16.9106 24.2751ZM17.2103 24.1418V24.0835L17.2269 24.0251L17.2768 24.0418L17.2602 24.0918L17.2352 24.1501L17.2103 24.1418ZM17.6514 24.1168L17.693 24.1335L17.6597 24.3085L17.6264 24.3918C17.6181 24.4085 17.6014 24.4168 17.5848 24.4251H17.5015C17.4766 24.4168 17.4516 24.4085 17.4266 24.3918C17.41 24.3835 17.4017 24.3585 17.3934 24.3418L17.4017 24.2585L17.4433 24.0751L17.4849 24.0835L17.4433 24.2668C17.435 24.2918 17.435 24.3085 17.4433 24.3335C17.4433 24.3501 17.4516 24.3585 17.4599 24.3668L17.5015 24.3835H17.5848L17.6181 24.3001L17.6514 24.1168ZM17.7013 24.4501L17.7512 24.1418H17.8012L17.926 24.4251L17.9676 24.1751H18.0092L17.9593 24.5001L17.9177 24.4918L17.7845 24.2168L17.7429 24.4668L17.7013 24.4501ZM18.0342 24.5085L18.0841 24.1918H18.1257L18.0841 24.5085H18.0425H18.0342ZM18.1673 24.3668C18.1673 24.3168 18.1923 24.2751 18.2256 24.2501C18.2589 24.2251 18.3005 24.2168 18.3421 24.2168C18.3754 24.2168 18.4004 24.2251 18.4253 24.2418L18.467 24.3085C18.4836 24.3335 18.4836 24.3668 18.4753 24.3918C18.4753 24.4251 18.467 24.4501 18.4503 24.4751C18.4337 24.5001 18.4087 24.5251 18.3837 24.5335C18.3588 24.5418 18.3255 24.5501 18.3005 24.5418C18.2672 24.5418 18.2423 24.5335 18.2173 24.5168C18.2006 24.5001 18.184 24.4751 18.1757 24.4501C18.1673 24.4251 18.1673 24.3918 18.1673 24.3668ZM18.209 24.3668C18.209 24.4085 18.209 24.4501 18.2339 24.4668C18.2506 24.4918 18.2755 24.5085 18.3088 24.5085C18.3421 24.5085 18.3671 24.5085 18.3921 24.4835C18.417 24.4668 18.4253 24.4335 18.4337 24.4001C18.442 24.3751 18.442 24.3418 18.4337 24.3168C18.4253 24.3001 18.4087 24.2835 18.3921 24.2751C18.3754 24.2585 18.3588 24.2501 18.3338 24.2501C18.3088 24.2501 18.2755 24.2501 18.2506 24.2751C18.2339 24.2918 18.2173 24.3251 18.209 24.3751V24.3668ZM18.5169 24.5585L18.5419 24.2418H18.5918L18.7416 24.5085L18.7582 24.2585H18.7999L18.7749 24.5835H18.7333L18.5752 24.3168L18.5585 24.5668H18.5169V24.5585ZM18.983 24.5918L18.9913 24.2751L19.216 24.2835V24.3251L19.0412 24.3168L19.0329 24.4085L19.191 24.4168V24.4585L19.0246 24.4501V24.6001H18.983V24.5918ZM19.2326 24.6001L19.3575 24.2835H19.4074L19.5322 24.6168H19.4823L19.449 24.5085H19.3075L19.2742 24.6085H19.2243L19.2326 24.6001ZM19.3159 24.4751H19.4324L19.3991 24.3918C19.3908 24.3668 19.3908 24.3418 19.3824 24.3168L19.3658 24.3835L19.3159 24.4751ZM19.5739 24.6085V24.2918H19.6238V24.6085H19.5739ZM19.7819 24.6085V24.3335H19.6737V24.3001H19.9317V24.3335H19.8235V24.6168H19.7819V24.6085ZM20.1148 24.6085L20.0899 24.2751H20.1398L20.1481 24.5585H20.3146V24.5918L20.1065 24.6001L20.1148 24.6085ZM20.3312 24.5918L20.4311 24.2585H20.481L20.6475 24.5668H20.5892L20.5476 24.4835H20.4061L20.3811 24.5918H20.3312ZM20.4144 24.4501H20.5309L20.4893 24.3668L20.456 24.2918C20.456 24.3168 20.456 24.3335 20.4477 24.3585L20.4144 24.4501ZM20.8056 24.5501L20.7723 24.2335L20.9887 24.2085L20.997 24.2501L20.8222 24.2668V24.3668L20.9887 24.3501V24.3918L20.8306 24.4085L20.8472 24.5501H20.8056ZM21.0553 24.3751C21.0386 24.3335 21.0469 24.2835 21.0719 24.2418C21.0969 24.2085 21.1385 24.1918 21.1801 24.1835L21.2633 24.1918C21.2966 24.2001 21.3133 24.2168 21.3299 24.2418L21.3632 24.3251L21.3549 24.4085C21.3466 24.4335 21.3299 24.4585 21.3049 24.4751C21.28 24.4918 21.255 24.5001 21.23 24.5085C21.2051 24.5168 21.1718 24.5085 21.1468 24.5001C21.1219 24.4918 21.0969 24.4751 21.0802 24.4501C21.0636 24.4251 21.0469 24.4001 21.0469 24.3668L21.0553 24.3751ZM21.0969 24.3668C21.0969 24.4001 21.1135 24.4335 21.1385 24.4501C21.1635 24.4751 21.1884 24.4751 21.2217 24.4751C21.255 24.4751 21.28 24.4585 21.3049 24.4335C21.3216 24.4085 21.3216 24.3751 21.3216 24.3335C21.3216 24.3085 21.3133 24.2835 21.2966 24.2668C21.2883 24.2501 21.2633 24.2335 21.2467 24.2251C21.23 24.2168 21.2051 24.2168 21.1884 24.2251C21.1551 24.2251 21.1302 24.2335 21.1052 24.2585C21.0969 24.2835 21.0886 24.3168 21.0969 24.3668ZM21.4381 24.4751L21.3882 24.1585L21.5297 24.1335H21.5962C21.6129 24.1335 21.6295 24.1335 21.6378 24.1501L21.6628 24.2001C21.6628 24.2251 21.6628 24.2418 21.6462 24.2585C21.6378 24.2751 21.6129 24.2918 21.5879 24.3001C21.5962 24.3001 21.6046 24.3085 21.6129 24.3085L21.6545 24.3501L21.7377 24.4251H21.6795L21.6212 24.3751C21.6046 24.3585 21.5962 24.3501 21.5796 24.3335C21.5713 24.3251 21.5629 24.3251 21.5546 24.3168C21.5463 24.3168 21.538 24.3168 21.5297 24.3168H21.5047L21.4548 24.3251L21.488 24.4668L21.4381 24.4751ZM21.4548 24.2918L21.538 24.2751C21.5546 24.2751 21.5713 24.2668 21.5879 24.2585C21.6046 24.2501 21.6129 24.2251 21.6129 24.2085C21.6129 24.1918 21.6046 24.1835 21.5962 24.1751H21.538L21.4298 24.1835L21.4548 24.2918ZM21.9791 24.2585H22.0207C22.0207 24.2918 22.0124 24.3251 21.9957 24.3418C21.9707 24.3668 21.9458 24.3835 21.9125 24.3918C21.8875 24.4001 21.8542 24.4001 21.8293 24.3918C21.8043 24.3835 21.7793 24.3668 21.7627 24.3418C21.746 24.3168 21.7294 24.2918 21.7211 24.2585C21.7128 24.2335 21.7128 24.2001 21.7211 24.1751C21.7211 24.1418 21.746 24.1168 21.7627 24.1001L21.8376 24.0668H21.9208C21.9541 24.0835 21.9707 24.1001 21.9874 24.1335L21.9458 24.1501C21.9375 24.1335 21.9208 24.1168 21.9042 24.1085C21.8875 24.1001 21.8626 24.1001 21.8459 24.1085C21.8209 24.1085 21.8043 24.1168 21.7877 24.1335C21.771 24.1501 21.7627 24.1668 21.7627 24.1918V24.2501C21.771 24.2751 21.7793 24.3001 21.796 24.3168C21.8043 24.3335 21.8209 24.3501 21.8459 24.3501H21.9042C21.9208 24.3501 21.9375 24.3418 21.9541 24.3251C21.9707 24.3085 21.9791 24.2835 21.9791 24.2585ZM22.0956 24.3418L22.0124 24.0335L22.2371 23.9751L22.2537 24.0085L22.0623 24.0585L22.0873 24.1501L22.262 24.1085L22.2787 24.1418L22.0956 24.1918L22.1289 24.2918L22.3286 24.2418V24.2751L22.0956 24.3418Z" fill="black"/>
</g>
</g>
<defs>
<clipPath id="clip0_769_18363">
<path d="M0 20C0 8.95431 8.95431 0 20 0C31.0457 0 40 8.95431 40 20C40 31.0457 31.0457 40 20 40C8.95431 40 0 31.0457 0 20Z" fill="white"/>
</clipPath>
<clipPath id="clip1_769_18363">
<rect width="53.2642" height="40" fill="white" transform="translate(-7 0.00012207)"/>
</clipPath>
</defs>
</svg>
