<svg width="40" height="40" viewBox="0 0 40 40" fill="none" xmlns="http://www.w3.org/2000/svg">
<g clip-path="url(#clip0_769_18281)">
<path d="M0 20C0 8.95431 8.95431 0 20 0C31.0457 0 40 8.95431 40 20C40 31.0457 31.0457 40 20 40C8.95431 40 0 31.0457 0 20Z" fill="#E94E0F"/>
<g clip-path="url(#clip1_769_18281)">
<path d="M-7 0.00012207H46.3333V40.0001H-7V0.00012207Z" fill="#00008B"/>
<path d="M-3.875 0.00012207L6.29167 7.54179L16.4167 0.00012207H19.6667V2.58346L9.66667 10.0418L19.6667 17.4585V20.0001H16.3333L6.33333 12.5418L-3.625 20.0001H-7V17.5001L2.95833 10.0835L-7 2.66679V0.00012207H-3.875Z" fill="white"/>
<path d="M10.6667 11.7085L19.6667 18.3335V20.0001L8.375 11.7085H10.6667ZM3 12.5418L3.25 14.0001L-4.75 20.0001H-7L3 12.5418ZM19.6667 0.00012207V0.125122L9.29167 7.95846L9.375 6.12512L17.5833 0.00012207H19.6667ZM-7 0.00012207L2.95833 7.33346H0.458333L-7 1.75012V0.00012207Z" fill="#FF0000"/>
<path d="M3.04167 0.00012207V20.0001H9.70833V0.00012207H3.04167ZM-7 6.66679V13.3335H19.6667V6.66679H-7Z" fill="white"/>
<path d="M-7 8.04179V12.0418H19.6667V8.04179H-7ZM4.375 0.00012207V20.0001H8.375V0.00012207H4.375Z" fill="#FF0000"/>
<path d="M36.9171 33.0585L35.2088 33.2751L35.3921 34.9835L34.1588 33.7835L32.9338 34.9918L33.1004 33.2835L31.3921 33.0835L32.8338 32.1501L31.9254 30.6918L33.5588 31.2335L34.1338 29.6085L34.7254 31.2251L36.3504 30.6668L35.4588 32.1335L36.9088 33.0585H36.9171Z" fill="white"/>
<path d="M36.6088 23.2918L36.8338 22.2085L36.0171 21.4585L37.1171 21.3335L37.5754 20.3251L38.0338 21.3335L39.1338 21.4585L38.3171 22.2085L38.5421 23.2918L37.5754 22.7418L36.6088 23.2918Z" fill="white"/>
<path d="M27.9337 18.2918L26.242 18.4751L26.392 20.1668L25.192 18.9585L23.9587 20.1335L24.1587 18.4418L22.4753 18.2168L23.917 17.3168L23.042 15.8585L24.6503 16.4251L25.2503 14.8335L25.8087 16.4418L27.4253 15.9168L26.517 17.3585L27.942 18.2918H27.9337Z" fill="white"/>
<path d="M44.917 15.5584L43.1753 15.7834L43.367 17.5251L42.1087 16.3001L40.8587 17.5334L41.0337 15.7834L39.292 15.5834L40.767 14.6251L39.842 13.1334L41.5087 13.6918L42.092 12.0418L42.692 13.6918L44.3503 13.1168L43.4337 14.6168L44.917 15.5584Z" fill="white"/>
<path d="M36.9085 8.60012L35.1835 8.79179L35.3418 10.5251L34.1168 9.29179L32.8585 10.4918L33.0585 8.76679L31.3335 8.53345L32.8085 7.61679L31.9168 6.12512L33.5585 6.70012L34.1668 5.07512L34.7335 6.71679L36.3835 6.17512L35.4585 7.64179L36.9085 8.60012Z" fill="white"/>
<path d="M12.5003 32.1418L8.68363 32.5918L9.06696 36.4168L6.33363 33.7168L3.58363 36.4001L3.99196 32.5751L0.175293 32.0918L3.41696 30.0251L1.41696 26.7418L5.05029 27.9918L6.36696 24.3751L7.65863 28.0001L11.3003 26.7751L9.27529 30.0418L12.5086 32.1335L12.5003 32.1418Z" fill="white"/>
</g>
</g>
<defs>
<clipPath id="clip0_769_18281">
<path d="M0 20C0 8.95431 8.95431 0 20 0C31.0457 0 40 8.95431 40 20C40 31.0457 31.0457 40 20 40C8.95431 40 0 31.0457 0 20Z" fill="white"/>
</clipPath>
<clipPath id="clip1_769_18281">
<rect width="53.3333" height="40" fill="white" transform="translate(-7 0.00012207)"/>
</clipPath>
</defs>
</svg>
