<svg width="40" height="40" viewBox="0 0 40 40" fill="none" xmlns="http://www.w3.org/2000/svg">
<g clip-path="url(#clip0_769_18254)">
<path d="M0 20C0 8.95431 8.95431 0 20 0C31.0457 0 40 8.95431 40 20C40 31.0457 31.0457 40 20 40C8.95431 40 0 31.0457 0 20Z" fill="#E94E0F"/>
<g clip-path="url(#clip1_769_18254)">
<path fill-rule="evenodd" clip-rule="evenodd" d="M48.3684 40.1068H-8.92456V0.00012207H48.3684V40.1068Z" fill="#BA0000"/>
<path fill-rule="evenodd" clip-rule="evenodd" d="M18.9074 19.4111C18.9074 19.4111 14.8654 17.6721 15.4451 13.1601C16.0012 10.9903 16.9961 9.50979 18.7899 8.70295C19.6359 8.44445 20.4976 8.32695 21.3749 8.25645C21.1399 8.47579 20.9519 8.69512 20.8501 8.96145C20.6621 9.46279 20.8031 9.93279 21.0616 10.4106C21.3827 10.959 21.5786 11.523 21.6412 12.2593C21.7001 12.7611 21.6253 13.2695 21.4245 13.733C21.2236 14.1966 20.9039 14.5989 20.4976 14.8991C19.9806 15.2986 19.3696 15.4396 18.8682 15.894C18.4766 16.27 18.2416 16.6538 18.1632 17.3118C18.1476 18.573 18.4844 18.7531 18.9074 19.4111Z" fill="white"/>
<path fill-rule="evenodd" clip-rule="evenodd" d="M18.1318 12.886V12.8625V12.886Z" fill="#BA0000"/>
<path d="M18.1318 12.886V12.8625" stroke="black" stroke-width="0.1645"/>
<path d="M18.3901 18.9411C16.8235 17.5546 16.9566 14.0531 18.1551 12.886" stroke="#BA0000" stroke-width="0.1645"/>
<path fill-rule="evenodd" clip-rule="evenodd" d="M19.1188 12.1026L19.3773 12.5335L18.9073 12.3376L18.5392 12.7293L18.6018 12.2201L18.1318 12.0243L18.641 11.9068L18.7037 11.4055L18.9622 11.8363L19.4792 11.7188" fill="#BA0000"/>
<path fill-rule="evenodd" clip-rule="evenodd" d="M19.252 19.1135C19.252 19.1135 19.722 14.7346 24.2105 13.967C26.4508 13.873 28.1585 14.3821 29.4588 15.8705C29.9523 16.599 30.3126 17.3901 30.6338 18.2048C30.3596 18.0481 30.1011 17.9306 29.8035 17.915C29.2786 17.8758 28.8635 18.15 28.4875 18.5338C28.0484 19.0199 27.5009 19.3956 26.8895 19.6305C26.4275 19.8347 25.9198 19.9133 25.4177 19.8583C24.9157 19.8033 24.437 19.6166 24.0303 19.3171C23.4976 18.9333 23.1843 18.3928 22.6046 18.0481C22.1335 17.7681 21.5751 17.6732 21.038 17.7818C19.8238 18.1421 19.7611 18.5181 19.252 19.1135Z" fill="white"/>
<path fill-rule="evenodd" clip-rule="evenodd" d="M25.26 16.4658H25.2835H25.26Z" fill="#BA0000"/>
<path d="M25.26 16.4658H25.2835" stroke="black" stroke-width="0.1645"/>
<path d="M19.5417 18.4868C20.4191 16.5754 23.8031 15.6824 25.2679 16.4814" stroke="#BA0000" stroke-width="0.1645"/>
<path fill-rule="evenodd" clip-rule="evenodd" d="M26.3018 17.1786L25.965 17.5468L26.012 17.0376L25.542 16.8026L26.0355 16.7243L26.0825 16.1995L26.3488 16.6695L26.8502 16.5755L26.5133 16.9436L26.7718 17.4136" fill="#BA0000"/>
<path fill-rule="evenodd" clip-rule="evenodd" d="M19.5496 19.4268C19.5496 19.4268 23.8579 18.4868 26.0042 22.5053C26.8111 24.5968 26.8659 26.375 25.8711 28.0748C25.3384 28.7798 24.6961 29.3673 24.0302 29.9391C24.0929 29.6258 24.1164 29.3438 24.0381 29.0618C23.9127 28.5448 23.5211 28.2393 23.0354 28.0043C22.4328 27.7408 21.9012 27.3381 21.4844 26.8293C21.1464 26.456 20.9128 26.0003 20.8069 25.508C20.701 25.0157 20.7266 24.5042 20.8812 24.025C21.0692 23.3983 21.4844 22.9283 21.6254 22.2703C21.7426 21.7361 21.656 21.1773 21.3826 20.7036C20.6541 19.6696 20.2781 19.7245 19.5496 19.4268Z" fill="white"/>
<path fill-rule="evenodd" clip-rule="evenodd" d="M23.9675 24.2913L23.9832 24.307L23.9675 24.2913Z" fill="#BA0000"/>
<path d="M23.9675 24.2913L23.9832 24.307" stroke="black" stroke-width="0.1645"/>
<path d="M20.2468 19.5051C22.3305 19.7323 24.2497 22.6541 23.9598 24.307" stroke="#BA0000" stroke-width="0.1645"/>
<path fill-rule="evenodd" clip-rule="evenodd" d="M23.6228 25.5055L23.1606 25.3018L23.6698 25.1843L23.7325 24.6595L23.9753 25.106L24.4845 24.9885L24.132 25.3801L24.367 25.8266L23.9126 25.623L23.5601 26.0225" fill="#BA0000"/>
<path fill-rule="evenodd" clip-rule="evenodd" d="M19.4556 19.8733C19.4556 19.8733 21.5628 23.743 18.3198 26.9233C16.5338 28.2863 14.8418 28.8425 12.9305 28.3646C12.108 28.0513 11.3638 27.6048 10.6196 27.1191C10.933 27.0956 11.2228 27.0408 11.4735 26.8841C11.9278 26.6178 12.108 26.1556 12.202 25.6308C12.2835 24.9763 12.5198 24.3506 12.8913 23.8056C13.1541 23.3756 13.5257 23.0224 13.9685 22.7818C14.4114 22.5411 14.9098 22.4214 15.4136 22.4348C16.0716 22.4426 16.6356 22.7168 17.3093 22.6698C17.8498 22.5993 18.2728 22.4505 18.7506 21.9805C19.534 21.0013 19.3773 20.6488 19.4556 19.8655V19.8733Z" fill="white"/>
<path fill-rule="evenodd" clip-rule="evenodd" d="M16.0247 25.482L16.0168 25.4976L16.0247 25.482Z" fill="#BA0000"/>
<path d="M16.0247 25.482L16.0168 25.4976" stroke="black" stroke-width="0.1645"/>
<path d="M19.5654 20.5548C19.9492 22.6228 17.6775 25.294 16.009 25.4663" stroke="#BA0000" stroke-width="0.1645"/>
<path fill-rule="evenodd" clip-rule="evenodd" d="M14.7636 25.4898L14.8341 24.9885L15.0926 25.435L15.6096 25.3566L15.2492 25.717L15.5077 26.1635L15.0299 25.9363L14.6696 26.2966L14.7322 25.7953L14.2544 25.5681" fill="#BA0000"/>
<path fill-rule="evenodd" clip-rule="evenodd" d="M18.9777 19.7871C18.9777 19.7871 16.0324 23.0615 11.9434 21.0718C10.0634 19.8419 8.98241 18.4241 8.80225 16.4658C8.82575 15.5806 8.99025 14.7346 9.20175 13.8808C9.33491 14.1628 9.48375 14.4134 9.71091 14.6014C10.1104 14.9383 10.6117 14.954 11.1444 14.8678C11.7838 14.7278 12.4474 14.7439 13.0792 14.9148C13.5739 15.0189 14.0323 15.252 14.4079 15.5904C14.7834 15.9289 15.0628 16.3606 15.2177 16.8418C15.4292 17.4606 15.3587 18.0873 15.6329 18.7061C15.8679 19.1918 16.1499 19.5364 16.7531 19.8341C17.9437 20.2493 18.2179 19.9829 18.9777 19.7949V19.7871Z" fill="white"/>
<path fill-rule="evenodd" clip-rule="evenodd" d="M12.5467 18.4241L12.531 18.4163L12.5467 18.4241Z" fill="#BA0000"/>
<path d="M12.5467 18.4241L12.531 18.4163" stroke="black" stroke-width="0.1645"/>
<path d="M18.3668 20.124C16.5494 21.1658 13.2751 19.9125 12.5544 18.4006" stroke="#BA0000" stroke-width="0.1645"/>
<path fill-rule="evenodd" clip-rule="evenodd" d="M12.1237 17.2335L12.6172 17.1316L12.2804 17.5233L12.5232 17.9855L12.0689 17.7661L11.732 18.1578L11.7869 17.6251L11.3247 17.4058L11.8182 17.304L11.873 16.7713" fill="#BA0000"/>
</g>
</g>
<defs>
<clipPath id="clip0_769_18254">
<path d="M0 20C0 8.95431 8.95431 0 20 0C31.0457 0 40 8.95431 40 20C40 31.0457 31.0457 40 20 40C8.95431 40 0 31.0457 0 20Z" fill="white"/>
</clipPath>
<clipPath id="clip1_769_18254">
<rect width="53.3333" height="40" fill="white" transform="translate(-7 0.00012207)"/>
</clipPath>
</defs>
</svg>
