<svg width="48" height="48" viewBox="0 0 48 48" fill="none" xmlns="http://www.w3.org/2000/svg">
<path fill-rule="evenodd" clip-rule="evenodd" d="M24 20C26.2091 20 28 18.2091 28 16C28 13.7909 26.2091 12 24 12C21.7909 12 20 13.7909 20 16C20 18.2091 21.7909 20 24 20Z" fill="#7783A0"/>
<path fill-rule="evenodd" clip-rule="evenodd" d="M32 12C34.2091 12 36 10.2091 36 8C36 5.79086 34.2091 4 32 4C29.7909 4 28 5.79086 28 8C28 10.2091 29.7909 12 32 12Z" fill="#7783A0"/>
<path fill-rule="evenodd" clip-rule="evenodd" d="M36 24C38.2091 24 40 22.2091 40 20C40 17.7909 38.2091 16 36 16C33.7909 16 32 17.7909 32 20C32 22.2091 33.7909 24 36 24Z" fill="#7783A0"/>
<path fill-rule="evenodd" clip-rule="evenodd" d="M20 24H4V44H44V40C44 35.5817 40.4183 32 36 32H28C28 27.5817 24.4183 24 20 24ZM20 28H8V40H40C40 37.7909 38.2091 36 36 36H18C16.8954 36 16 35.1046 16 34C16 32.8954 16.8954 32 18 32H24C24 29.7909 22.2091 28 20 28Z" fill="#7783A0"/>
<path d="M4 20H8V48H4V20Z" fill="#7783A0"/>
<rect y="40" width="4" height="4" fill="#7783A0"/>
<rect y="24" width="4" height="4" fill="#7783A0"/>
</svg>
