<svg width="48" height="48" viewBox="0 0 48 48" fill="none" xmlns="http://www.w3.org/2000/svg">
<g clip-path="url(#clip0_9345_16605)">
<path fill-rule="evenodd" clip-rule="evenodd" d="M20 12C15.5817 12 12 15.5817 12 20H8C8 13.3726 13.3726 8 20 8V12Z" fill="#F8AD07"/>
<g style="mix-blend-mode:multiply">
<path d="M31.5153 32.0647C31.075 32.4841 30.6108 32.8787 30.125 33.2463L44.8789 48.0002L48.0061 44.8731L33.2522 30.1191C32.8846 30.6049 32.49 31.0691 32.0705 31.5095L31.5153 32.0647Z" fill="#7783A0"/>
</g>
<g style="mix-blend-mode:multiply">
<path d="M20 4.32432V0C8.9543 0 0 8.9543 0 20C0 31.0457 8.9543 40 20 40V35.6757C11.3426 35.6757 4.32432 28.6574 4.32432 20C4.32432 11.3426 11.3426 4.32432 20 4.32432Z" fill="#E4003A"/>
</g>
<path d="M20 4.32432V0C31.0457 0 40 8.9543 40 20C40 31.0457 31.0457 40 20 40V35.6757C28.6574 35.6757 35.6757 28.6574 35.6757 20C35.6757 11.3426 28.6574 4.32432 20 4.32432Z" fill="#870B58"/>
</g>
<defs>
<clipPath id="clip0_9345_16605">
<rect width="48" height="48" fill="white"/>
</clipPath>
</defs>
</svg>
