<svg width="48" height="48" viewBox="0 0 48 48" fill="none" xmlns="http://www.w3.org/2000/svg">
<rect x="14" y="8" width="8" height="8" fill="#7783A0"/>
<rect x="14" y="28" width="16" height="4" fill="#7783A0"/>
<rect x="14" y="20" width="10" height="4" fill="#7783A0"/>
<rect x="14" y="36" width="20" height="4" fill="#7783A0"/>
<path d="M6 48H42V25.75H38V44H10V4H22V0H6V48Z" fill="#7783A0"/>
<path d="M36.5 6V12.1722L39.4496 15.1218L36.6212 17.9503L32.5 13.829V6H36.5Z" fill="#7783A0"/>
<path fill-rule="evenodd" clip-rule="evenodd" d="M24 12C24 5.37258 29.3726 0 36 0C42.6274 0 48 5.37258 48 12C48 18.6274 42.6274 24 36 24C29.3726 24 24 18.6274 24 12ZM36 4C31.5817 4 28 7.58172 28 12C28 16.4183 31.5817 20 36 20C40.4183 20 44 16.4183 44 12C44 7.58172 40.4183 4 36 4Z" fill="#7783A0"/>
</svg>
