<svg width="48" height="48" viewBox="0 0 48 48" fill="none" xmlns="http://www.w3.org/2000/svg">
<path fill-rule="evenodd" clip-rule="evenodd" d="M16 19.9821H0V0H24V28L16 19.9821ZM20 18.3279L17.6595 15.9821H4V4H20V18.3279Z" fill="#7783A0"/>
<path fill-rule="evenodd" clip-rule="evenodd" d="M38 28C41.3137 28 44 25.3137 44 22C44 18.6863 41.3137 16 38 16C34.6863 16 32 18.6863 32 22C32 25.3137 34.6863 28 38 28ZM38 32C43.5228 32 48 27.5228 48 22C48 16.4772 43.5228 12 38 12C32.4772 12 28 16.4772 28 22C28 27.5228 32.4772 32 38 32Z" fill="#7783A0"/>
<path d="M24 36V48H28V40H48V36H24Z" fill="#7783A0"/>
<rect x="8" y="8" width="8" height="4" fill="#7783A0"/>
</svg>
