<svg width="48" height="48" viewBox="0 0 48 48" fill="none" xmlns="http://www.w3.org/2000/svg">
<path fill-rule="evenodd" clip-rule="evenodd" d="M40 12H8V16H40V12ZM4 8V20H44V8H4Z" fill="#7783A0"/>
<path d="M32 4H36V12H32V4Z" fill="#7783A0"/>
<path d="M12 4H16V12H12V4Z" fill="#7783A0"/>
<path d="M12 24H16V28H12V24Z" fill="#7783A0"/>
<path d="M22 24H26V28H22V24Z" fill="#7783A0"/>
<path d="M22 32H26V36H22V32Z" fill="#7783A0"/>
<path d="M32 24H36V28H32V24Z" fill="#7783A0"/>
<path d="M32 32H36V36H32V32Z" fill="#7783A0"/>
<path d="M12 32H16V36H12V32Z" fill="#7783A0"/>
<path d="M22 4H26V12H22V4Z" fill="#7783A0"/>
<path d="M4 20H8V44H4V20Z" fill="#7783A0"/>
<path d="M40 20H44V40H40V20Z" fill="#7783A0"/>
<path d="M4 40H44V44H4V40Z" fill="#7783A0"/>
</svg>
