<svg width="48" height="48" viewBox="0 0 48 48" fill="none" xmlns="http://www.w3.org/2000/svg">
<path fill-rule="evenodd" clip-rule="evenodd" d="M22 45L22 28L26 28L26 45L22 45Z" fill="#E4003A"/>
<path fill-rule="evenodd" clip-rule="evenodd" d="M16 41.375L16 28L20 28L20 41.375L16 41.375Z" fill="#870B58"/>
<path fill-rule="evenodd" clip-rule="evenodd" d="M28 39.625L28 28L32 28L32 39.625L28 39.625Z" fill="#870B58"/>
<path fill-rule="evenodd" clip-rule="evenodd" d="M23.5 9C18.8056 9 15 12.8056 15 17.5H11C11 10.5964 16.5964 5 23.5 5C30.4036 5 36 10.5964 36 17.5V19H32V17.5C32 12.8056 28.1944 9 23.5 9Z" fill="#7783A0"/>
<path fill-rule="evenodd" clip-rule="evenodd" d="M13 18C10.2386 18 8 20.2386 8 23C8 25.7614 10.2386 28 13 28H24V32H13C8.02944 32 4 27.9706 4 23C4 18.0294 8.02944 14 13 14C17.9706 14 22 18.0294 22 23H18C18 20.2386 15.7614 18 13 18Z" fill="#7783A0"/>
<path d="M35.9191 16.07C38.7965 16.5123 41 18.9988 41 22C41 25.3137 38.3137 28 35 28H20V32H35C40.5229 32 45 27.5228 45 22C45 16.4772 40.5229 12 35 12H34.7281C35.343 13.253 35.7544 14.624 35.9191 16.07Z" fill="#7783A0"/>
</svg>
