<svg width="48" height="48" viewBox="0 0 48 48" fill="none" xmlns="http://www.w3.org/2000/svg">
<g clip-path="url(#clip0_10978_11287)">
<path d="M28 38.9758C26.1233 39.6391 24.1038 40 22 40C12.0589 40 4 31.9411 4 22C4 12.0589 12.0589 4 22 4C26.9639 4 31.4584 6.00929 34.7147 9.25892L37.5376 6.42496C33.5579 2.45473 28.0656 0 22 0C9.84974 0 0 9.84974 0 22C0 34.1503 9.84974 44 22 44C24.08 44 26.0927 43.7113 28 43.1719V38.9758Z" fill="#7783A0"/>
<path fill-rule="evenodd" clip-rule="evenodd" d="M40 12C37.7909 12 36 13.7909 36 16V33.0703C33.6088 34.4535 32 37.0389 32 40C32 44.4183 35.5817 48 40 48C44.4183 48 48 44.4183 48 40C48 37.0389 46.3912 34.4535 44 33.0703V16C44 13.7909 42.2091 12 40 12ZM44 40C44 42.2091 42.2091 44 40 44C37.7909 44 36 42.2091 36 40C36 37.7909 37.7909 36 40 36C42.2091 36 44 37.7909 44 40Z" fill="#7783A0"/>
<path fill-rule="evenodd" clip-rule="evenodd" d="M22 26C18.6863 26 16 28.6863 16 32H12C12 26.4772 16.4772 22 22 22C27.5228 22 32 26.4772 32 32H28C28 28.6863 25.3137 26 22 26Z" fill="#7783A0"/>
<rect x="11" y="14.2676" width="8" height="4" transform="rotate(-30 11 14.2676)" fill="#7783A0"/>
<rect x="26.125" y="10.2676" width="8" height="4" transform="rotate(30 26.125 10.2676)" fill="#7783A0"/>
</g>
<defs>
<clipPath id="clip0_10978_11287">
<rect width="48" height="48" fill="white"/>
</clipPath>
</defs>
</svg>
