<svg width="48" height="48" viewBox="0 0 48 48" fill="none" xmlns="http://www.w3.org/2000/svg">
<g clip-path="url(#clip0_9345_16589)">
<path fill-rule="evenodd" clip-rule="evenodd" d="M20.8284 0.205341C25.5413 -0.414234 30.3323 0.375638 34.5957 2.47507C38.859 4.57451 42.4032 7.88921 44.78 12C47.1568 16.1108 48.2594 20.8331 47.9485 25.5697C47.6376 30.3063 45.9271 34.8444 43.0333 38.6103C40.1396 42.3761 36.1924 45.2005 31.6911 46.7263C27.1898 48.2521 22.3365 48.4108 17.7449 47.1822L18.8268 43.1505C22.6198 44.1654 26.6291 44.0344 30.3476 42.7739C34.066 41.5135 37.3267 39.1803 39.7172 36.0694C42.1077 32.9584 43.5207 29.2095 43.7776 25.2967C44.0344 21.3839 43.1235 17.4829 41.1601 14.087C39.1966 10.6911 36.2689 7.95285 32.747 6.21854C29.2251 4.48422 25.2672 3.83172 21.374 4.34354C17.4807 4.85537 13.8269 6.50853 10.8745 9.09397C7.92212 11.6794 5.80383 15.081 4.78748 18.8686L0.75 17.7884C1.98031 13.2033 4.54457 9.08561 8.11849 5.95586C11.6924 2.82611 16.1155 0.824917 20.8284 0.205341Z" fill="#F8AD07"/>
<path fill-rule="evenodd" clip-rule="evenodd" d="M24.125 48C19.8902 48 15.73 46.8872 12.0625 44.7734C8.39504 42.6597 5.34955 39.6195 3.23214 35.9583C1.11473 32.2972 5.72615e-06 28.1442 5.91094e-06 23.9167C6.09573e-06 19.6892 1.11473 15.5361 3.23215 11.875L6.86568 13.9692C5.11652 16.9936 4.19566 20.4244 4.19566 23.9167C4.19566 27.409 5.11652 30.8397 6.86568 33.8641C8.61485 36.8885 11.1307 39.4 14.1603 41.1462C17.19 42.8923 20.6267 43.8116 24.125 43.8116L24.125 48Z" fill="#870B58"/>
<path fill-rule="evenodd" clip-rule="evenodd" d="M22 30L22 12L26 12L26 30L22 30Z" fill="#E4003A"/>
<path fill-rule="evenodd" clip-rule="evenodd" d="M22 36L22 32L26 32L26 36L22 36Z" fill="#E4003A"/>
</g>
<defs>
<clipPath id="clip0_9345_16589">
<rect width="48" height="48" fill="white"/>
</clipPath>
</defs>
</svg>
