<svg width="48" height="48" viewBox="0 0 48 48" fill="none" xmlns="http://www.w3.org/2000/svg">
<path fill-rule="evenodd" clip-rule="evenodd" d="M16 14V2L20 2V14H16Z" fill="#E4003A"/>
<path fill-rule="evenodd" clip-rule="evenodd" d="M28 14V2L32 2V14H28Z" fill="#E4003A"/>
<path fill-rule="evenodd" clip-rule="evenodd" d="M22 12V0L26 0V12H22Z" fill="#870B58"/>
<path fill-rule="evenodd" clip-rule="evenodd" d="M24 44C30.6274 44 36 38.6274 36 32C36 25.3726 30.6274 20 24 20C17.3726 20 12 25.3726 12 32C12 38.6274 17.3726 44 24 44ZM24 48C32.8366 48 40 40.8366 40 32C40 23.1634 32.8366 16 24 16C15.1634 16 8 23.1634 8 32C8 40.8366 15.1634 48 24 48Z" fill="#F8AD07"/>
<path fill-rule="evenodd" clip-rule="evenodd" d="M24 29.2818L21.2819 32L24 34.7182L26.7182 32L24 29.2818ZM15.625 32L24 40.375L32.375 32L24 23.625L15.625 32Z" fill="#7783A0"/>
</svg>
