<svg width="48" height="48" viewBox="0 0 48 48" fill="none" xmlns="http://www.w3.org/2000/svg">
<path d="M24 16H40V20H24V16Z" fill="#E4003A"/>
<path d="M24 8H32V12H24V8Z" fill="#E4003A"/>
<path d="M28 24H40V28H28V24Z" fill="#E4003A"/>
<path d="M36 0H40V12H36V0Z" fill="#7783A0"/>
<path d="M40 8H48V12H40V8Z" fill="#7783A0"/>
<path d="M20 4H40V8H44V32H28V36H48V8L40 0H16V20H20V4Z" fill="#7783A0"/>
<path fill-rule="evenodd" clip-rule="evenodd" d="M16 40C17.6606 40 19.1636 39.3254 20.25 38.2353L23.0784 41.0637C21.2682 42.8777 18.7652 44 16 44C12.0958 44 8.71411 41.7626 7.06729 38.5H4V34.5H6.01228C6.00413 34.3344 6 34.1677 6 34C6 33.8323 6.00413 33.6656 6.01228 33.5H4V29.5H7.06729C8.71411 26.2374 12.0958 24 16 24C18.7577 24 21.2547 25.1163 23.0637 26.9216L20.2353 29.75C19.1501 28.6685 17.6531 28 16 28C14.4783 28 13.089 28.5665 12.0313 29.5H16V33.5H10.0205C10.0069 33.6649 10 33.8316 10 34C10 34.1684 10.0069 34.3351 10.0205 34.5H16V38.5H12.0313C13.089 39.4335 14.4783 40 16 40Z" fill="#F8AD07"/>
</svg>
