<svg width="48" height="48" viewBox="0 0 48 48" fill="none" xmlns="http://www.w3.org/2000/svg">
<path d="M2.82843 47.9392L0 45.1107L7.18036 37.9304L0.0142725 30.7643L2.8427 27.9359L10.0088 35.1019L17.2357 27.875L20.0642 30.7034L12.8372 37.9304L20.0784 45.1716L17.25 48L10.0088 40.7588L2.82843 47.9392Z" fill="#7783A0"/>
<path fill-rule="evenodd" clip-rule="evenodd" d="M44 8H16V12H44V8ZM12 4V16H48V4H12Z" fill="#7783A0"/>
<path d="M20 0H24V8H20V0Z" fill="#7783A0"/>
<path d="M28 0H32V8H28V0Z" fill="#7783A0"/>
<path d="M36 0H40V8H36V0Z" fill="#7783A0"/>
<path d="M20 20H24V24H20V20Z" fill="#7783A0"/>
<path d="M28 20H32V24H28V20Z" fill="#7783A0"/>
<path d="M28 28H32V32H28V28Z" fill="#7783A0"/>
<path d="M36 20H40V24H36V20Z" fill="#7783A0"/>
<path d="M36 28H40V32H36V28Z" fill="#7783A0"/>
<path d="M12 16H16V24H12V16Z" fill="#7783A0"/>
<path fill-rule="evenodd" clip-rule="evenodd" d="M48 16H44V36H24V40H44H48V36V16Z" fill="#7783A0"/>
</svg>
