<svg width="48" height="48" viewBox="0 0 48 48" fill="none" xmlns="http://www.w3.org/2000/svg">
<path fill-rule="evenodd" clip-rule="evenodd" d="M26 15L26 48H22L22 15L26 15Z" fill="#7783A0"/>
<path fill-rule="evenodd" clip-rule="evenodd" d="M41.3379 22.9088L35.3085 42.1978L31.1367 40.8944L37.1662 21.6055L41.3379 22.9088Z" fill="#7783A0"/>
<path fill-rule="evenodd" clip-rule="evenodd" d="M12.7988 27.5L18.5037 44.7805L14.705 46.0333L9 28.7528L12.7988 27.5Z" fill="#7783A0"/>
<path d="M30 6C30 9.31371 27.3137 12 24 12C20.6863 12 18 9.31371 18 6C18 2.68629 20.6863 0 24 0C27.3137 0 30 2.68629 30 6Z" fill="#F8AD07"/>
<path d="M36.25 13.4811L43.3892 9.875L46.9963 17.0122L39.8571 20.6184L36.25 13.4811Z" fill="#E4003A"/>
<path d="M6.93693 16L16 23.9232L4 28L6.93693 16Z" fill="#870B58"/>
</svg>
