<svg width="48" height="48" viewBox="0 0 48 48" fill="none" xmlns="http://www.w3.org/2000/svg">
<path fill-rule="evenodd" clip-rule="evenodd" d="M28 16C30.2091 16 32 14.2091 32 12C32 9.79086 30.2091 8 28 8C25.7909 8 24 9.79086 24 12C24 14.2091 25.7909 16 28 16Z" fill="#F8AD07"/>
<path fill-rule="evenodd" clip-rule="evenodd" d="M36 8C38.2091 8 40 6.20914 40 4C40 1.79086 38.2091 0 36 0C33.7909 0 32 1.79086 32 4C32 6.20914 33.7909 8 36 8Z" fill="#F8AD07"/>
<path fill-rule="evenodd" clip-rule="evenodd" d="M40 20C42.2091 20 44 18.2091 44 16C44 13.7909 42.2091 12 40 12C37.7909 12 36 13.7909 36 16C36 18.2091 37.7909 20 40 20Z" fill="#F8AD07"/>
<path fill-rule="evenodd" clip-rule="evenodd" d="M30.0812 25.274L6.89898 31.4857L10.0048 43.0768L33.187 36.8651L30.0812 25.274ZM2 28.6572L7.17638 47.9757L38.086 39.6935L32.9096 20.375L2 28.6572Z" fill="#870B58"/>
<ellipse cx="20.0435" cy="34.1754" rx="4" ry="4" transform="rotate(-15 20.0435 34.1754)" fill="#E4003A"/>
</svg>
