<svg width="48" height="48" viewBox="0 0 48 48" fill="none" xmlns="http://www.w3.org/2000/svg">
<path fill-rule="evenodd" clip-rule="evenodd" d="M24 20H44V32H40V24H28V28H24V20Z" fill="#7783A0"/>
<path fill-rule="evenodd" clip-rule="evenodd" d="M34 12C35.1046 12 36 11.1046 36 10C36 8.89543 35.1046 8 34 8C32.8954 8 32 8.89543 32 10C32 11.1046 32.8954 12 34 12ZM34 16C37.3137 16 40 13.3137 40 10C40 6.68629 37.3137 4 34 4C30.6863 4 28 6.68629 28 10C28 13.3137 30.6863 16 34 16Z" fill="#7783A0"/>
<path fill-rule="evenodd" clip-rule="evenodd" d="M10 24C13.3137 24 16 21.3137 16 18C16 14.6863 13.3137 12 10 12C6.68629 12 4 14.6863 4 18C4 21.3137 6.68629 24 10 24ZM10 28C15.5228 28 20 23.5228 20 18C20 12.4772 15.5228 8 10 8C4.47715 8 0 12.4772 0 18C0 23.5228 4.47715 28 10 28Z" fill="#7783A0"/>
<path d="M0 32V36H20V48H24V32H0Z" fill="#7783A0"/>
</svg>
