<svg width="48" height="48" viewBox="0 0 48 48" fill="none" xmlns="http://www.w3.org/2000/svg">
<path fill-rule="evenodd" clip-rule="evenodd" d="M24 4C19.5817 4 16 7.58172 16 12V20H12V12C12 5.37258 17.3726 0 24 0C30.6274 0 36 5.37258 36 12V20H32V12C32 7.58172 28.4183 4 24 4Z" fill="#7783A0"/>
<path d="M22 28H26V36H22V28Z" fill="#7783A0"/>
<path fill-rule="evenodd" clip-rule="evenodd" d="M36 20H12V40H36V20ZM8 16V44H40V16H8Z" fill="#7783A0"/>
<path d="M28 28C28 30.2091 26.2091 32 24 32C21.7909 32 20 30.2091 20 28C20 25.7909 21.7909 24 24 24C26.2091 24 28 25.7909 28 28Z" fill="#7783A0"/>
</svg>
