<svg width="48" height="48" viewBox="0 0 48 48" fill="none" xmlns="http://www.w3.org/2000/svg">
<path fill-rule="evenodd" clip-rule="evenodd" d="M21.2225 10.3267C18.1877 7.21334 13.2956 7.22447 10.2742 10.3601C7.24194 13.5069 7.24194 18.6088 10.2742 21.7556L24 36L37.7258 21.7556C40.7581 18.6088 40.7581 13.5069 37.7258 10.3601C34.7044 7.22447 29.8123 7.21334 26.7775 10.3267C26.7667 10.3378 26.7559 10.3489 26.7452 10.3601L24 13.209L21.2548 10.3601C21.2441 10.3489 21.2333 10.3378 21.2225 10.3267ZM24 30.2353L34.8455 18.9801C36.3848 17.3825 36.3848 14.7331 34.8455 13.1356C33.3864 11.6215 31.0845 11.6215 29.6255 13.1356L24 18.9737L18.3745 13.1356C16.9155 11.6215 14.6136 11.6215 13.1545 13.1356C11.6152 14.7331 11.6152 17.3825 13.1545 18.9801L24 30.2353Z" fill="#7783A0"/>
<rect x="8" y="40" width="16" height="4" fill="#7783A0"/>
<rect x="24" y="40" width="16" height="4" fill="#7783A0"/>
</svg>
