<svg width="48" height="48" viewBox="0 0 48 48" fill="none" xmlns="http://www.w3.org/2000/svg">
<path fill-rule="evenodd" clip-rule="evenodd" d="M19.7961 31.0496L8.48242 42.3633L5.654 39.5349L16.9677 28.2211L19.7961 31.0496Z" fill="#E4003A"/>
<path fill-rule="evenodd" clip-rule="evenodd" d="M14.14 19.735L19.7969 14.0781L22.6253 16.9066L16.9684 22.5634L14.14 19.735Z" fill="#F8AD07"/>
<path fill-rule="evenodd" clip-rule="evenodd" d="M19.7963 25.3912L25.4531 19.7344L28.2816 22.5628L22.6247 28.2197L19.7963 25.3912Z" fill="#F8AD07"/>
<path fill-rule="evenodd" clip-rule="evenodd" d="M25.4535 31.0475L31.1104 25.3906L33.9388 28.2191L28.2819 33.8759L25.4535 31.0475Z" fill="#F8AD07"/>
<path fill-rule="evenodd" clip-rule="evenodd" d="M16.9684 22.5628L19.7969 19.7344L22.6253 22.5628L19.7969 25.3912L16.9684 22.5628Z" fill="#F8AD07"/>
<path fill-rule="evenodd" clip-rule="evenodd" d="M22.6248 28.2189L24.0391 26.8047L26.8675 29.6331L25.4533 31.0473L22.6248 28.2189Z" fill="#F8AD07"/>
<path fill-rule="evenodd" clip-rule="evenodd" d="M19.7963 19.735L25.4531 14.0781L28.2815 16.9066L22.6247 22.5634L19.7963 19.735Z" fill="#870B58"/>
<path fill-rule="evenodd" clip-rule="evenodd" d="M24.0393 26.8054L31.1104 19.7344L33.9388 22.5628L26.8677 29.6339L24.0393 26.8054Z" fill="#870B58"/>
<path fill-rule="evenodd" clip-rule="evenodd" d="M22.6247 11.2497L25.4531 14.0781L22.6247 16.9066L19.7963 14.0781L22.6247 11.2497Z" fill="#870B58"/>
<path fill-rule="evenodd" clip-rule="evenodd" d="M28.2819 16.9059L31.1104 19.7344L28.2819 22.5628L25.4535 19.7344L28.2819 16.9059Z" fill="#870B58"/>
<path fill-rule="evenodd" clip-rule="evenodd" d="M33.9391 22.5622L36.7676 25.3906L33.9391 28.2191L31.1107 25.3906L33.9391 22.5622Z" fill="#870B58"/>
<path fill-rule="evenodd" clip-rule="evenodd" d="M14.1401 19.7368L28.2822 33.8789L25.4538 36.7073L11.3117 22.5652L14.1401 19.7368Z" fill="#E4003A"/>
<path d="M12 12V4H44V16H40V8H16V12H12Z" fill="#7783A0"/>
<path d="M44 16H40V32H36V36H44V16Z" fill="#F8AD07"/>
</svg>
