<svg width="48" height="48" viewBox="0 0 48 48" fill="none" xmlns="http://www.w3.org/2000/svg">
<path fill-rule="evenodd" clip-rule="evenodd" d="M22 48C34.1503 48 44 38.1503 44 26C44 13.8497 34.1503 4 22 4C9.84974 4 0 13.8497 0 26C0 38.1503 9.84974 48 22 48ZM22 44C31.9411 44 40 35.9411 40 26C40 16.0589 31.9411 8 22 8C12.0589 8 4 16.0589 4 26C4 35.9411 12.0589 44 22 44Z" fill="#F8AD07"/>
<rect width="4" height="35.6736" transform="matrix(0.706289 0.707923 -0.712345 0.701829 45.1367 12.0928)" fill="#870B58"/>
<rect width="4" height="20.3842" transform="matrix(-0.710176 0.704024 0.708471 0.70574 10.9658 22.75)" fill="#E4003A"/>
</svg>
