<svg width="48" height="48" viewBox="0 0 48 48" fill="none" xmlns="http://www.w3.org/2000/svg">
<path d="M22 4H26V8H40V12H26V40H32V44H16V40H22V12H8V8H22V4Z" fill="#7783A0"/>
<path fill-rule="evenodd" clip-rule="evenodd" d="M4 24C4 28.4183 7.58172 32 12 32C16.4183 32 20 28.4183 20 24H16C16 26.2091 14.2091 28 12 28C9.79086 28 8 26.2091 8 24H4Z" fill="#7783A0"/>
<path fill-rule="evenodd" clip-rule="evenodd" d="M28 24C28 28.4183 31.5817 32 36 32C40.4183 32 44 28.4183 44 24H40C40 26.2091 38.2091 28 36 28C33.7909 28 32 26.2091 32 24H28Z" fill="#7783A0"/>
<rect x="28" y="20" width="16" height="4" fill="#7783A0"/>
<rect x="4" y="20" width="16" height="4" fill="#7783A0"/>
<rect x="10" y="8" width="4" height="12" fill="#7783A0"/>
<rect x="34" y="8" width="4" height="12" fill="#7783A0"/>
</svg>
