<svg width="48" height="48" viewBox="0 0 48 48" fill="none" xmlns="http://www.w3.org/2000/svg">
<g clip-path="url(#clip0_20101_392)">
<path d="M31.5153 32.0627C31.075 32.4822 30.6108 32.8768 30.125 33.2444L44.8789 47.9983L48.0061 44.8711L33.2522 30.1172C32.8846 30.603 32.49 31.0671 32.0705 31.5075L31.5153 32.0627Z" fill="#7783A0"/>
<path d="M20 4.32432V0C8.9543 0 0 8.9543 0 20C0 31.0457 8.9543 40 20 40V35.6757C11.3426 35.6757 4.32432 28.6574 4.32432 20C4.32432 11.3426 11.3426 4.32432 20 4.32432Z" fill="#E4003A"/>
<path d="M20 4.32432V0C31.0457 0 40 8.9543 40 20C40 31.0457 31.0457 40 20 40V35.6757C28.6574 35.6757 35.6757 28.6574 35.6757 20C35.6757 11.3426 28.6574 4.32432 20 4.32432Z" fill="#870B58"/>
<path d="M24 30H28C28 25.5817 24.4183 22 20 22C15.5817 22 12 25.5817 12 30H16C16 27.7909 17.7909 26 20 26C22.2091 26 24 27.7909 24 30Z" fill="#F8AD07"/>
<path d="M17.9853 12.5862L15.1569 9.75781L13.7427 11.172L12.3285 9.75781L9.50006 12.5862L10.9142 14.0004L9.5 15.4147L12.3284 18.2431L13.7427 16.8289L15.1569 18.2431L17.9853 15.4147L16.5711 14.0004L17.9853 12.5862Z" fill="#F8AD07"/>
<path d="M30.4853 12.5862L27.6569 9.75781L26.2427 11.172L24.8285 9.75781L22.0001 12.5862L23.4142 14.0004L22 15.4147L24.8284 18.2431L26.2427 16.8289L27.6569 18.2431L30.4853 15.4147L29.0711 14.0004L30.4853 12.5862Z" fill="#F8AD07"/>
</g>
<defs>
<clipPath id="clip0_20101_392">
<rect width="48" height="48" fill="white"/>
</clipPath>
</defs>
</svg>
