<svg width="48" height="48" viewBox="0 0 48 48" fill="none" xmlns="http://www.w3.org/2000/svg">
<path fill-rule="evenodd" clip-rule="evenodd" d="M13.998 24H33.998V48H29.998V28H17.998V48H13.998V24Z" fill="#7783A0"/>
<g style="mix-blend-mode:multiply">
<path fill-rule="evenodd" clip-rule="evenodd" d="M24.002 15.9998C26.2111 15.9998 28.002 14.2089 28.002 11.9998C28.002 9.79062 26.2111 7.99976 24.002 7.99976C21.7928 7.99976 20.002 9.79062 20.002 11.9998C20.002 14.2089 21.7928 15.9998 24.002 15.9998ZM24.002 19.9998C28.4202 19.9998 32.002 16.418 32.002 11.9998C32.002 7.58148 28.4202 3.99976 24.002 3.99976C19.5837 3.99976 16.002 7.58148 16.002 11.9998C16.002 16.418 19.5837 19.9998 24.002 19.9998Z" fill="#7783A0"/>
</g>
<g style="mix-blend-mode:multiply">
<path fill-rule="evenodd" clip-rule="evenodd" d="M6 20C7.10457 20 8 19.1046 8 18C8 16.8954 7.10457 16 6 16C4.89543 16 4 16.8954 4 18C4 19.1046 4.89543 20 6 20ZM6 24C9.31371 24 12 21.3137 12 18C12 14.6863 9.31371 12 6 12C2.68629 12 0 14.6863 0 18C0 21.3137 2.68629 24 6 24Z" fill="#7783A0"/>
</g>
<g style="mix-blend-mode:multiply">
<path fill-rule="evenodd" clip-rule="evenodd" d="M42 20C43.1046 20 44 19.1046 44 18C44 16.8954 43.1046 16 42 16C40.8954 16 40 16.8954 40 18C40 19.1046 40.8954 20 42 20ZM42 24C45.3137 24 48 21.3137 48 18C48 14.6863 45.3137 12 42 12C38.6863 12 36 14.6863 36 18C36 21.3137 38.6863 24 42 24Z" fill="#7783A0"/>
</g>
<rect y="27.9998" width="12" height="4" fill="#7783A0"/>
<rect x="36" y="27.9998" width="12" height="4" fill="#7783A0"/>
<rect y="32.0002" width="4" height="12" fill="#7783A0"/>
<rect x="43.998" y="32.0002" width="4" height="12" fill="#7783A0"/>
</svg>
