<svg width="48" height="48" viewBox="0 0 48 48" fill="none" xmlns="http://www.w3.org/2000/svg">
<path fill-rule="evenodd" clip-rule="evenodd" d="M10 2C7.79086 2 6 3.79086 6 6V42C6 44.2091 7.79086 46 10 46H40C41.1046 46 42 45.1046 42 44C42 42.8954 41.1046 42 40 42H10V38H38C40.2091 38 42 36.2091 42 34V6C42 3.79086 40.2091 2 38 2H10ZM38 6H10V34H38V6Z" fill="#870B58"/>
<path d="M34 38H38V42H34V38Z" fill="#7783A0"/>
<path fill-rule="evenodd" clip-rule="evenodd" d="M24 18C25.1046 18 26 17.1046 26 16C26 14.8954 25.1046 14 24 14C22.8954 14 22 14.8954 22 16C22 17.1046 22.8954 18 24 18ZM24 22C27.3137 22 30 19.3137 30 16C30 12.6863 27.3137 10 24 10C20.6863 10 18 12.6863 18 16C18 19.3137 20.6863 22 24 22Z" fill="#E4003A"/>
<path d="M34 26V34H30V30H18V34H14V26H34Z" fill="#F8AD07"/>
</svg>
