<svg width="48" height="48" viewBox="0 0 48 48" fill="none" xmlns="http://www.w3.org/2000/svg">
<path fill-rule="evenodd" clip-rule="evenodd" d="M24 34C27.3137 34 30 31.3137 30 28C30 24.6863 27.3137 22 24 22C20.6863 22 18 24.6863 18 28C18 31.3137 20.6863 34 24 34ZM24 38C29.5228 38 34 33.5228 34 28C34 22.4772 29.5228 18 24 18C18.4772 18 14 22.4772 14 28C14 33.5228 18.4772 38 24 38Z" fill="#F8AD07"/>
<path d="M12 40H36V48H32V44H16V48H12V40Z" fill="#7783A0"/>
<rect x="22" y="8" width="4" height="8" fill="#870B58"/>
<path fill-rule="evenodd" clip-rule="evenodd" d="M24 8C25.1046 8 26 7.10457 26 6C26 4.89543 25.1046 4 24 4C22.8954 4 22 4.89543 22 6C22 7.10457 22.8954 8 24 8ZM24 12C27.3137 12 30 9.31371 30 6C30 2.68629 27.3137 0 24 0C20.6863 0 18 2.68629 18 6C18 9.31371 20.6863 12 24 12Z" fill="#E4003A"/>
<rect x="39.1572" y="13.9854" width="4" height="8" transform="rotate(45 39.1572 13.9854)" fill="#870B58"/>
<rect width="4" height="8" transform="matrix(-0.707107 0.707106 0.707107 0.707106 8.81348 13.9854)" fill="#870B58"/>
<path fill-rule="evenodd" clip-rule="evenodd" d="M42 16C43.1046 16 44 15.1046 44 14C44 12.8954 43.1046 12 42 12C40.8954 12 40 12.8954 40 14C40 15.1046 40.8954 16 42 16ZM42 20C45.3137 20 48 17.3137 48 14C48 10.6863 45.3137 8 42 8C38.6863 8 36 10.6863 36 14C36 17.3137 38.6863 20 42 20Z" fill="#E4003A"/>
<path fill-rule="evenodd" clip-rule="evenodd" d="M6 16C7.10457 16 8 15.1046 8 14C8 12.8954 7.10457 12 6 12C4.89543 12 4 12.8954 4 14C4 15.1046 4.89543 16 6 16ZM6 20C9.31371 20 12 17.3137 12 14C12 10.6863 9.31371 8 6 8C2.68629 8 0 10.6863 0 14C0 17.3137 2.68629 20 6 20Z" fill="#E4003A"/>
</svg>
