<svg width="48" height="48" viewBox="0 0 48 48" fill="none" xmlns="http://www.w3.org/2000/svg">
<g clip-path="url(#clip0_10978_11229)">
<path d="M44 0H32V4L44 4V16H48V4C48 1.79086 46.2091 0 44 0Z" fill="#7783A0"/>
<path d="M48 44V32H44V44H32V48H44C46.2091 48 48 46.2091 48 44Z" fill="#7783A0"/>
<path d="M4 0C1.79086 0 0 1.79086 0 4V16H4L4 4H16V0H4Z" fill="#7783A0"/>
<path d="M4 44L4 32H4.76837e-07L0 44C0 46.2091 1.79086 48 4 48H16V44H4Z" fill="#7783A0"/>
<path fill-rule="evenodd" clip-rule="evenodd" d="M24 20C26.2091 20 28 18.2091 28 16C28 13.7909 26.2091 12 24 12C21.7909 12 20 13.7909 20 16C20 18.2091 21.7909 20 24 20ZM24 24C28.4183 24 32 20.4183 32 16C32 11.5817 28.4183 8 24 8C19.5817 8 16 11.5817 16 16C16 20.4183 19.5817 24 24 24Z" fill="#F8AD07"/>
<path d="M14 28H34V40H30V32H18V40H14V28Z" fill="#E4003A"/>
</g>
<defs>
<clipPath id="clip0_10978_11229">
<rect width="48" height="48" fill="white"/>
</clipPath>
</defs>
</svg>
