<svg width="48" height="48" viewBox="0 0 48 48" fill="none" xmlns="http://www.w3.org/2000/svg">
<path d="M10 24C10 16.268 16.268 10 24 10V14C18.4772 14 14 18.4772 14 24H10Z" fill="#7783A0"/>
<path d="M24 38C31.732 38 38 31.732 38 24H34C34 29.5228 29.5228 34 24 34V38Z" fill="#7783A0"/>
<path fill-rule="evenodd" clip-rule="evenodd" d="M28 14H44V22H40V18H32V22H28V14Z" fill="#E4003A"/>
<path fill-rule="evenodd" clip-rule="evenodd" d="M36 8C37.1046 8 38 7.10457 38 6C38 4.89543 37.1046 4 36 4C34.8954 4 34 4.89543 34 6C34 7.10457 34.8954 8 36 8ZM36 12C39.3137 12 42 9.31371 42 6C42 2.68629 39.3137 0 36 0C32.6863 0 30 2.68629 30 6C30 9.31371 32.6863 12 36 12Z" fill="#F8AD07"/>
<path fill-rule="evenodd" clip-rule="evenodd" d="M4 40H20V48H16V44H8V48H4V40Z" fill="#870B58"/>
<path fill-rule="evenodd" clip-rule="evenodd" d="M12 34C13.1046 34 14 33.1046 14 32C14 30.8954 13.1046 30 12 30C10.8954 30 10 30.8954 10 32C10 33.1046 10.8954 34 12 34ZM12 38C15.3137 38 18 35.3137 18 32C18 28.6863 15.3137 26 12 26C8.68629 26 6 28.6863 6 32C6 35.3137 8.68629 38 12 38Z" fill="#F8AD07"/>
</svg>
