<svg width="48" height="48" viewBox="0 0 48 48" fill="none" xmlns="http://www.w3.org/2000/svg">
<path fill-rule="evenodd" clip-rule="evenodd" d="M26.5 17C21.8056 17 18 20.8056 18 25.5H14C14 18.5964 19.5964 13 26.5 13C33.4036 13 39 18.5964 39 25.5V27H35V25.5C35 20.8056 31.1944 17 26.5 17Z" fill="#7783A0"/>
<path fill-rule="evenodd" clip-rule="evenodd" d="M16 26C13.2386 26 11 28.2386 11 31C11 33.7614 13.2386 36 16 36H27V40H16C11.0294 40 7 35.9706 7 31C7 26.0294 11.0294 22 16 22C20.9706 22 25 26.0294 25 31H21C21 28.2386 18.7614 26 16 26Z" fill="#7783A0"/>
<path d="M38.9191 24.07C41.7965 24.5123 44 26.9988 44 30C44 33.3137 41.3137 36 38 36H23V40H38C43.5229 40 48 35.5228 48 30C48 24.4772 43.5229 20 38 20H37.7281C38.343 21.253 38.7544 22.624 38.9191 24.07Z" fill="#7783A0"/>
<path d="M5.7267 15.8482C8.41187 12.5436 13.2676 12.0415 16.5722 14.7266L19.0946 11.6223C14.0755 7.54398 6.70062 8.30666 2.62232 13.3258L5.7267 15.8482Z" fill="#7783A0"/>
<path d="M6.84817 26.6937C3.54356 24.0086 3.04152 19.1529 5.7267 15.8482L2.62232 13.3258C-1.45598 18.3449 -0.693408 25.7198 4.3257 29.7981L6.84817 26.6937Z" fill="#7783A0"/>
</svg>
