<svg width="48" height="48" viewBox="0 0 48 48" fill="none" xmlns="http://www.w3.org/2000/svg">
<path fill-rule="evenodd" clip-rule="evenodd" d="M42 8H6V12H42V8ZM2 4V16H46V4H2Z" fill="#7783A0"/>
<path d="M10 0H14V8H10V0Z" fill="#7783A0"/>
<path d="M18 0H22V8H18V0Z" fill="#7783A0"/>
<path d="M26 0H30V8H26V0Z" fill="#7783A0"/>
<path d="M34 0H38V8H34V0Z" fill="#7783A0"/>
<path d="M18 20H22V24H18V20Z" fill="#7783A0"/>
<path d="M10 20H14V24H10V20Z" fill="#7783A0"/>
<path d="M26 20H30V24H26V20Z" fill="#7783A0"/>
<path d="M26 28H30V32H26V28Z" fill="#7783A0"/>
<path d="M26 36H30V40H26V36Z" fill="#7783A0"/>
<path d="M34 20H38V24H34V20Z" fill="#7783A0"/>
<path d="M34 28H38V32H34V28Z" fill="#7783A0"/>
<path d="M6 16H2V48H46V16H42V44H6V16Z" fill="#7783A0"/>
<path d="M12.8285 28L10 30.8284L13.1844 34.0128L10 37.1769L12.8284 40.0053L16.0128 36.8412L19.1714 39.9998L21.9998 37.1714L18.8503 34.0218L22.0637 30.8289L19.2353 28.0004L16.0219 31.1934L12.8285 28Z" fill="#7783A0"/>
</svg>
