<svg width="48" height="48" viewBox="0 0 48 48" fill="none" xmlns="http://www.w3.org/2000/svg">
<path fill-rule="evenodd" clip-rule="evenodd" d="M24 20C26.2091 20 28 18.2091 28 16C28 13.7909 26.2091 12 24 12C21.7909 12 20 13.7909 20 16C20 18.2091 21.7909 20 24 20ZM24 24C28.4183 24 32 20.4183 32 16C32 11.5817 28.4183 8 24 8C19.5817 8 16 11.5817 16 16C16 20.4183 19.5817 24 24 24Z" fill="#7783A0"/>
<path d="M16 28H32V32H16V28Z" fill="#7783A0"/>
<path fill-rule="evenodd" clip-rule="evenodd" d="M8 36V8C8 3.58172 11.5817 0 16 0H40C44.4183 0 48 3.58172 48 8V12H40V40C40 44.4131 36.4267 47.9916 32.0155 48L7.11159 48C3.18397 48 -3.43363e-07 44.4183 0 40V36H8ZM16 4H36V40C36 42.204 34.2175 43.9916 32.0155 44V36H12V8C12 5.79086 13.7909 4 16 4ZM44 8H40V4C42.2091 4 44 5.79086 44 8ZM4 40L28.0155 40V44L7.11159 44C5.82276 44 4 42.6648 4 40Z" fill="#7783A0"/>
</svg>
