<svg width="48" height="48" viewBox="0 0 48 48" fill="none" xmlns="http://www.w3.org/2000/svg">
<path fill-rule="evenodd" clip-rule="evenodd" d="M13.1133 2.20313C13.1139 2.20284 13.1146 2.20257 13.1153 2.20229C14.3551 1.67915 15.6235 1.24915 16.9102 0.912359C21.4357 -0.272209 26.1885 -0.303781 30.7294 0.820555C32.0211 1.1404 33.2957 1.55377 34.5431 2.06076L33.0354 5.77007C33.0323 5.7688 33.0292 5.76754 33.0261 5.76627C27.1337 3.3742 20.5326 3.41892 14.6731 5.89081C14.6721 5.89123 14.6711 5.89166 14.6701 5.89208L13.1133 2.20313Z" fill="#7783A0"/>
<path fill-rule="evenodd" clip-rule="evenodd" d="M16.2865 18.8075C15.3266 19.6129 14.494 20.5678 13.8234 21.641C13.5251 22.1184 13.2619 22.6144 13.0348 23.125H10.625V27.125H12.0319C12.0087 27.4433 11.9981 27.7631 12.0003 28.0838C12.0027 28.4324 12.0203 28.7798 12.0528 29.125H10.625V33.125H13.1494C13.3729 33.598 13.6278 34.0576 13.9132 34.5005C14.5987 35.5642 15.4446 36.5074 16.4157 37.2993C17.1919 37.9325 18.0482 38.469 18.9666 38.8933C20.0231 39.3815 21.1395 39.7109 22.28 39.8761C22.3795 39.8905 22.4793 39.9037 22.5792 39.9156C23.5738 40.0342 24.5843 40.0284 25.5871 39.8946C26.8414 39.7272 28.055 39.3634 29.185 38.822C30.0884 38.3892 30.9385 37.8428 31.7135 37.1925L29.1372 34.1222L29.135 34.124C28.6195 34.5563 28.0541 34.9196 27.4532 35.2075C26.7006 35.568 25.8924 35.8103 25.057 35.9218C24.3892 36.0109 23.7162 36.0148 23.0537 35.9358C22.225 35.837 21.4128 35.6085 20.6477 35.255C20.0361 34.9724 19.4658 34.615 18.9488 34.1934C18.5559 33.8729 18.1937 33.5152 17.8676 33.125H28V29.125H16.0876C16.0374 28.7721 16.0107 28.4149 16.0082 28.0558C16.006 27.7438 16.0221 27.4331 16.056 27.125H28V23.125H17.667C18.0201 22.6663 18.4212 22.2483 18.8628 21.8778C19.3739 21.4489 19.9392 21.0837 20.5468 20.7926C21.3068 20.4284 22.1158 20.1886 22.943 20.0782C23.6043 19.99 24.2773 19.9845 24.9463 20.0642C25.7832 20.164 26.5947 20.395 27.3523 20.745C27.9574 21.0247 28.5282 21.3803 29.05 21.8057L29.0512 21.8066L31.5843 18.7007L31.5821 18.6989C30.7988 18.0603 29.9419 17.5265 29.0334 17.1067C27.8959 16.5811 26.6774 16.2343 25.4208 16.0844C24.4163 15.9646 23.4058 15.9729 22.4129 16.1054C22.3132 16.1187 22.2137 16.1333 22.1143 16.1491C20.9763 16.3302 19.8646 16.6751 18.815 17.178C17.9026 17.6151 17.0539 18.1636 16.2865 18.8075Z" fill="#7783A0"/>
<path d="M24 8C35.0457 8 44 16.9543 44 28H40C40 19.1634 32.8366 12 24 12C15.1634 12 8 19.1634 8 28H4C4 16.9543 12.9543 8 24 8Z" fill="#7783A0"/>
<path d="M4 28C4 39.0457 12.9543 48 24 48C35.0457 48 44 39.0457 44 28L40 28C40 36.8366 32.8366 44 24 44C15.1634 44 8 36.8366 8 28L4 28Z" fill="#7783A0"/>
</svg>
