<svg width="48" height="48" viewBox="0 0 48 48" fill="none" xmlns="http://www.w3.org/2000/svg">
<path fill-rule="evenodd" clip-rule="evenodd" d="M35.5602 24L23.9998 24C21.7906 24 19.9998 22.2091 19.9998 20L19.9998 8L19.3858 8L14.3591 21.4045C13.7736 22.9657 12.2811 24 10.6138 24L7.99977 24L7.99977 20L10.6138 20L15.6405 6.5955C16.2259 5.03429 17.7184 4 19.3858 4L19.9998 4C22.2089 4 23.9998 5.79086 23.9998 8L23.9998 20L35.5602 20C38.0843 20 39.9775 22.3093 39.4825 24.7845L36.2825 40.7845C35.9085 42.6542 34.2669 44 32.3602 44L11.9998 44C9.79063 44 7.99977 42.2091 7.99977 40L3.99977 40L3.99977 36L7.99977 36C10.2089 36 11.9998 37.7909 11.9998 40L32.3602 40L35.5602 24Z" fill="#F8AD07"/>
<path d="M4 20H8V44H4V20Z" fill="#870B58"/>
<rect y="40" width="4" height="4" fill="#7783A0"/>
<rect y="20" width="4" height="4" fill="#7783A0"/>
</svg>
