<svg width="48" height="48" viewBox="0 0 48 48" fill="none" xmlns="http://www.w3.org/2000/svg">
<path fill-rule="evenodd" clip-rule="evenodd" d="M25.6569 33.6569C26.1556 33.1582 26.5816 32.6004 26.9282 32L13.0718 32C13.4184 32.6004 13.8444 33.1582 14.3431 33.6569C15.8434 35.1571 17.8783 36 20 36C22.1217 36 24.1566 35.1571 25.6569 33.6569ZM8.68629 32C8.23625 30.7272 8 29.3758 8 28L32 28C32 29.3758 31.7638 30.7272 31.3137 32C30.7227 33.6716 29.7629 35.2077 28.4853 36.4853C26.2348 38.7357 23.1826 40 20 40C16.8174 40 13.7652 38.7357 11.5147 36.4853C10.2371 35.2077 9.27732 33.6716 8.68629 32Z" fill="#7783A0"/>
<circle cx="14" cy="22" r="2" fill="#7783A0"/>
<circle cx="26" cy="22" r="2" fill="#7783A0"/>
<path d="M28 9.66417C25.5501 8.59379 22.8444 8 20 8C8.9543 8 0 16.9543 0 28C0 39.0457 8.9543 48 20 48C31.0457 48 40 39.0457 40 28C40 25.1556 39.4062 22.4498 38.3358 20H33.8595C35.2208 22.3534 36 25.0857 36 28C36 36.8366 28.8366 44 20 44C11.1634 44 4 36.8366 4 28C4 19.1634 11.1634 12 20 12C22.9143 12 25.6466 12.7792 28 14.1405V9.66417Z" fill="#7783A0"/>
<path d="M40 4H36V8L32 8V12H36V16H40V12H44V8L40 8V4Z" fill="#7783A0"/>
</svg>
