<svg width="48" height="48" viewBox="0 0 48 48" fill="none" xmlns="http://www.w3.org/2000/svg">
<path d="M36 12C37.1046 12 38 11.1046 38 10C38 8.89543 37.1046 8 36 8C34.8954 8 34 8.89543 34 10C34 11.1046 34.8954 12 36 12Z" fill="#7783A0"/>
<path d="M34 14L34 24H38L38 14H34Z" fill="#7783A0"/>
<path fill-rule="evenodd" clip-rule="evenodd" d="M10 24C12.2091 24 14 22.2091 14 20C14 17.7909 12.2091 16 10 16C7.79086 16 6 17.7909 6 20C6 22.2091 7.79086 24 10 24ZM10 28C14.4183 28 18 24.4183 18 20C18 15.5817 14.4183 12 10 12C5.58172 12 2 15.5817 2 20C2 24.4183 5.58172 28 10 28Z" fill="#7783A0"/>
<path d="M0 32H20V48H16V36H4V48H0V32Z" fill="#7783A0"/>
<path fill-rule="evenodd" clip-rule="evenodd" d="M44 4H28V28H44V4ZM24 0V32H48V0H24Z" fill="#7783A0"/>
</svg>
