<svg width="48" height="48" viewBox="0 0 48 48" fill="none" xmlns="http://www.w3.org/2000/svg">
<rect x="12" y="12" width="24" height="4" fill="#7783A0"/>
<rect x="20" y="20" width="16" height="4" fill="#7783A0"/>
<rect x="20" y="28" width="16" height="4" fill="#7783A0"/>
<path fill-rule="evenodd" clip-rule="evenodd" d="M20 40H32L44 48V4H4V20H8V8H40V40.5259L33.2111 36H20V40Z" fill="#7783A0"/>
<path d="M8 36C10.2091 36 12 34.2091 12 32C12 29.7909 10.2091 28 8 28C5.79086 28 4 29.7909 4 32H0C0 27.5817 3.58172 24 8 24C12.4183 24 16 27.5817 16 32C16 35.7277 13.4505 38.8599 10 39.748V42H6V36H8Z" fill="#7783A0"/>
<rect x="6" y="44" width="4" height="4" fill="#7783A0"/>
</svg>
