<svg width="48" height="48" viewBox="0 0 48 48" fill="none" xmlns="http://www.w3.org/2000/svg">
<path d="M12 24H44V20H12C7.58172 20 4 23.5817 4 28V36C4 40.4183 7.58172 44 12 44H44V40H12C9.79086 40 8 38.2091 8 36V28C8 25.7909 9.79086 24 12 24Z" fill="#E4003A"/>
<path d="M10.5 35.5C10.5 34.3954 11.3954 33.5 12.5 33.5H41.5V37.5H12.5C11.3954 37.5 10.5 36.6046 10.5 35.5Z" fill="#870B58"/>
<path d="M10.5 28.5C10.5 27.3954 11.3954 26.5 12.5 26.5H41.5V30.5H12.5C11.3954 30.5 10.5 29.6046 10.5 28.5Z" fill="#870B58"/>
<path fill-rule="evenodd" clip-rule="evenodd" d="M21.6586 8C20.8349 5.66962 18.6124 4 16 4C13.3876 4 11.1651 5.66962 10.3414 8H8V12H10.3414C11.1651 14.3304 13.3876 16 16 16C18.6124 16 20.8349 14.3304 21.6586 12H26.3414C27.1651 14.3304 29.3876 16 32 16C34.6124 16 36.8349 14.3304 37.6586 12H40V8H37.6586C36.8349 5.66962 34.6124 4 32 4C29.3876 4 27.1651 5.66962 26.3414 8H21.6586ZM16 12C17.1046 12 18 11.1046 18 10C18 8.89543 17.1046 8 16 8C14.8954 8 14 8.89543 14 10C14 11.1046 14.8954 12 16 12ZM30 10C30 11.1046 30.8954 12 32 12C33.1046 12 34 11.1046 34 10C34 8.89543 33.1046 8 32 8C30.8954 8 30 8.89543 30 10Z" fill="#F8AD07"/>
</svg>
