<svg width="48" height="48" viewBox="0 0 48 48" fill="none" xmlns="http://www.w3.org/2000/svg">
<path fill-rule="evenodd" clip-rule="evenodd" d="M24 18C21.7909 18 20 19.7909 20 22V40C20 41.1046 19.1046 42 18 42C16.8954 42 16 41.1046 16 40V22C16 17.5817 19.5817 14 24 14C28.4183 14 32 17.5817 32 22V30C32 31.1046 31.1046 32 30 32C28.8954 32 28 31.1046 28 30V22C28 19.7909 26.2091 18 24 18Z" fill="#7783A0"/>
<path d="M30 35C31.1046 35 32 35.8954 32 37V44C32 45.1046 31.1046 46 30 46C28.8954 46 28 45.1046 28 44V37C28 35.8954 28.8954 35 30 35Z" fill="#870B58"/>
<path fill-rule="evenodd" clip-rule="evenodd" d="M24 12C18.493 12 14 16.5066 14 22.1012C14 23.2058 13.1046 24.1012 12 24.1012C10.8954 24.1012 10 23.2058 10 22.1012C10 14.3292 16.2522 8 24 8C25.1046 8 26 8.89543 26 10C26 11.1046 25.1046 12 24 12Z" fill="#7783A0"/>
<path d="M27.5909 10.3767C28.0897 9.39111 29.2929 8.99647 30.2785 9.49522C34.8597 11.8136 38.0004 16.5909 38.0004 22.102V32.02C38.0004 33.1246 37.105 34.02 36.0004 34.02C34.8959 34.02 34.0004 33.1246 34.0004 32.02V22.102C34.0004 18.1439 31.7485 14.7221 28.4724 13.0642C27.4868 12.5655 27.0922 11.3622 27.5909 10.3767Z" fill="#E4003A"/>
<path d="M12 27.25C13.1046 27.25 14 28.1454 14 29.25V41.8125C14 42.9171 13.1046 43.8125 12 43.8125C10.8954 43.8125 10 42.9171 10 41.8125V29.25C10 28.1454 10.8954 27.25 12 27.25Z" fill="#F8AD07"/>
<path fill-rule="evenodd" clip-rule="evenodd" d="M10.8106 9.58952C11.6932 10.2537 11.8703 11.5076 11.2062 12.3902C9.19264 15.066 8 18.3909 8 22.0001V37.9376C8 39.0422 7.10457 39.9376 6 39.9376C4.89543 39.9376 4 39.0422 4 37.9376V22.0001C4 17.4937 5.49279 13.3303 8.00999 9.98508C8.67413 9.10247 9.92802 8.92538 10.8106 9.58952Z" fill="#7783A0"/>
<path d="M24.0004 6C21.3538 6 18.8627 6.64106 16.6684 7.77463C15.687 8.28159 14.4805 7.89702 13.9735 6.91567C13.4665 5.93431 13.8511 4.72779 14.8325 4.22082C17.581 2.80095 20.7001 2 24.0004 2C32.6075 2 39.9399 7.43606 42.7613 15.0555C43.1448 16.0914 42.616 17.242 41.5802 17.6256C40.5444 18.0091 39.3937 17.4803 39.0102 16.4445C36.7511 10.3434 30.8805 6 24.0004 6Z" fill="#7783A0"/>
<circle cx="36" cy="37.5" r="2" fill="#7783A0"/>
<path d="M42 20C43.1046 20 44 20.8954 44 22V40.25C44 41.3546 43.1046 42.25 42 42.25C40.8954 42.25 40 41.3546 40 40.25V22C40 20.8954 40.8954 20 42 20Z" fill="#7783A0"/>
</svg>
