<svg width="48" height="48" viewBox="0 0 48 48" fill="none" xmlns="http://www.w3.org/2000/svg">
<g clip-path="url(#clip0_9345_16426)">
<path fill-rule="evenodd" clip-rule="evenodd" d="M37.2495 13.5471C41.7957 15.2017 44.4128 19.8103 43.7223 24.4164L25.3044 17.7128C27.7362 13.7405 32.7034 11.8924 37.2495 13.5471ZM38.6176 9.78828C31.3519 7.14379 23.3181 10.89 20.6736 18.1557L19.9896 20.0351L31.2656 24.1392L20.401 53.9896L24.1597 55.3577L35.0244 25.5073L46.301 29.6116L46.985 27.7323C49.6295 20.4666 45.8833 12.4328 38.6176 9.78828Z" fill="#870B58"/>
<path fill-rule="evenodd" clip-rule="evenodd" d="M10.3201 40L3.4641 28.125L0 30.125L7.99983 43.9811V44H11.9998V48H15.9998V44H31.9998V48H35.9998V44H39.9998V40H35.9998H31.9998H15.9998H11.9998H10.3201Z" fill="#7783A0"/>
<path fill-rule="evenodd" clip-rule="evenodd" d="M8 12C10.2091 12 12 10.2091 12 8C12 5.79086 10.2091 4 8 4C5.79086 4 4 5.79086 4 8C4 10.2091 5.79086 12 8 12ZM8 16C12.4183 16 16 12.4183 16 8C16 3.58172 12.4183 0 8 0C3.58172 0 0 3.58172 0 8C0 12.4183 3.58172 16 8 16Z" fill="#F8AD07"/>
</g>
<defs>
<clipPath id="clip0_9345_16426">
<rect width="48" height="48" fill="white"/>
</clipPath>
</defs>
</svg>
