<svg width="48" height="48" viewBox="0 0 48 48" fill="none" xmlns="http://www.w3.org/2000/svg">
<path d="M20 4H44V32H28V36H48V0H16V20H20V4Z" fill="#7783A0"/>
<path fill-rule="evenodd" clip-rule="evenodd" d="M20 32C22.2091 32 24 30.2091 24 28C24 25.7909 22.2091 24 20 24C17.7909 24 16 25.7909 16 28C16 30.2091 17.7909 32 20 32Z" fill="#7783A0"/>
<path fill-rule="evenodd" clip-rule="evenodd" d="M8 36C10.2091 36 12 34.2091 12 32C12 29.7909 10.2091 28 8 28C5.79086 28 4 29.7909 4 32C4 34.2091 5.79086 36 8 36Z" fill="#7783A0"/>
<path fill-rule="evenodd" clip-rule="evenodd" d="M16 44C18.2091 44 20 42.2091 20 40C20 37.7909 18.2091 36 16 36C13.7909 36 12 37.7909 12 40C12 42.2091 13.7909 44 16 44Z" fill="#7783A0"/>
<path d="M24 16H40V20H24V16Z" fill="#7783A0"/>
<path d="M24 8H40V12H24V8Z" fill="#7783A0"/>
<path d="M28 24H40V28H28V24Z" fill="#7783A0"/>
</svg>
