<svg width="40" height="40" viewBox="0 0 40 40" fill="none" xmlns="http://www.w3.org/2000/svg">
<g clip-path="url(#clip0_769_18606)">
<path d="M0 20C0 8.95431 8.95431 0 20 0C31.0457 0 40 8.95431 40 20C40 31.0457 31.0457 40 20 40C8.95431 40 0 31.0457 0 20Z" fill="#E94E0F"/>
<g clip-path="url(#clip1_769_18606)">
<path d="M-7 0H46.3333V13.3333H-7V0Z" fill="#FF9933"/>
<path d="M-7 13.3333H46.3333V26.6667H-7V13.3333Z" fill="white"/>
<path d="M-7 26.6667H46.3333V40H-7V26.6667Z" fill="#128807"/>
<path d="M19.6666 25.3333C22.6121 25.3333 24.9999 22.9455 24.9999 20C24.9999 17.0545 22.6121 14.6666 19.6666 14.6666C16.7211 14.6666 14.3333 17.0545 14.3333 20C14.3333 22.9455 16.7211 25.3333 19.6666 25.3333Z" fill="#000088"/>
<path d="M19.6667 24.6666C22.244 24.6666 24.3333 22.5773 24.3333 20C24.3333 17.4227 22.244 15.3333 19.6667 15.3333C17.0893 15.3333 15 17.4227 15 20C15 22.5773 17.0893 24.6666 19.6667 24.6666Z" fill="white"/>
<path d="M19.6665 20.9333C20.182 20.9333 20.5998 20.5154 20.5998 20C20.5998 19.4845 20.182 19.0666 19.6665 19.0666C19.151 19.0666 18.7332 19.4845 18.7332 20C18.7332 20.5154 19.151 20.9333 19.6665 20.9333Z" fill="#000088"/>
<path d="M24.2612 20.8487C24.3926 20.866 24.5132 20.7735 24.5305 20.6421C24.5478 20.5107 24.4553 20.3901 24.3239 20.3728C24.1925 20.3555 24.0719 20.448 24.0546 20.5794C24.0373 20.7108 24.1298 20.8314 24.2612 20.8487Z" fill="#000088"/>
<path d="M19.6659 24.6666L19.8259 21.8666L19.6659 20.5332L19.5059 21.8666L19.6659 24.6666Z" fill="#000088"/>
</g>
</g>
<defs>
<clipPath id="clip0_769_18606">
<path d="M0 20C0 8.95431 8.95431 0 20 0C31.0457 0 40 8.95431 40 20C40 31.0457 31.0457 40 20 40C8.95431 40 0 31.0457 0 20Z" fill="white"/>
</clipPath>
<clipPath id="clip1_769_18606">
<rect width="53.3333" height="40" fill="white" transform="translate(-7)"/>
</clipPath>
</defs>
</svg>
