<svg width="40" height="40" viewBox="0 0 40 40" fill="none" xmlns="http://www.w3.org/2000/svg">
<g clip-path="url(#clip0_769_18766)">
<path d="M0 20C0 8.95431 8.95431 0 20 0C31.0457 0 40 8.95431 40 20C40 31.0457 31.0457 40 20 40C8.95431 40 0 31.0457 0 20Z" fill="#E94E0F"/>
<g clip-path="url(#clip1_769_18766)">
<path fill-rule="evenodd" clip-rule="evenodd" d="M-15.3333 0H54.6667V40H-15.3333V0Z" fill="white"/>
<path fill-rule="evenodd" clip-rule="evenodd" d="M-15.3333 26.8594H54.6667V40H-15.3333V26.8594Z" fill="#DA0000"/>
<path fill-rule="evenodd" clip-rule="evenodd" d="M-2.02051 27.4219H1.80762V27.6797H-2.02051V27.4219ZM-1.4502 28.7344H-1.18457V28.9922H-1.4502V28.7344ZM1.82324 28.7344V28.9922H1.05762V28.7266L1.82324 28.7344ZM2.22949 27.4219H2.49512V28.9844H2.22949V27.4219Z" fill="white"/>
<path fill-rule="evenodd" clip-rule="evenodd" d="M3.76074 28.7266V28.9922H2.30762V28.7266H3.76074ZM1.05762 28.1094H1.30762V28.9922H1.0498L1.05762 28.1094Z" fill="white"/>
<path fill-rule="evenodd" clip-rule="evenodd" d="M3.54199 27.4219H3.80762V28.9844H3.54199V27.4219ZM2.88574 27.4219H3.14355V28.9844H2.88574V27.4219ZM-0.614258 28.0469V28.3125H-2.02051V28.0469H-0.614258ZM2.45605 28.0469V28.3125H1.0498V28.0469H2.45605Z" fill="white"/>
<path fill-rule="evenodd" clip-rule="evenodd" d="M1.05762 28.1172H1.30762V28.9844H1.0498L1.05762 28.1172Z" fill="white"/>
<path fill-rule="evenodd" clip-rule="evenodd" d="M1.05762 28.1172H1.30762V28.9844H1.0498L1.05762 28.1172Z" fill="white"/>
<path fill-rule="evenodd" clip-rule="evenodd" d="M1.05762 28.1172H1.30762V28.9844H1.0498L1.05762 28.1172ZM-2.0127 28.1172H-1.75488V28.9844H-2.0127V28.1172ZM0.237305 28.1172H0.50293V28.9844H0.237305V28.1172ZM-0.879883 28.1172H-0.614258V28.9844H-0.879883V28.1172Z" fill="white"/>
<path fill-rule="evenodd" clip-rule="evenodd" d="M0.416992 28.7266V28.9922H-0.762695V28.7266H0.416992ZM0.495117 28.0469V28.3125H-0.254883V28.0469H0.495117Z" fill="white"/>
<path fill-rule="evenodd" clip-rule="evenodd" d="M4.22168 27.4219H8.0498V27.6797H4.22168V27.4219ZM4.79199 28.7344H5.05762V28.9922H4.79199V28.7344ZM8.06543 28.7344V28.9922H7.2998V28.7266L8.06543 28.7344ZM8.47949 27.4219H8.74512V28.9844H8.47949V27.4219Z" fill="white"/>
<path fill-rule="evenodd" clip-rule="evenodd" d="M10.0029 28.7266V28.9922H8.5498V28.7266H10.0029ZM7.2998 28.1094H7.56543V28.9922H7.2998V28.1094Z" fill="white"/>
<path fill-rule="evenodd" clip-rule="evenodd" d="M9.78418 27.4219H10.0498V28.9844H9.78418V27.4219ZM9.12793 27.4219H9.39355V28.9844H9.12012L9.12793 27.4219ZM5.62793 28.0469V28.3125H4.22168V28.0469H5.62793ZM8.69824 28.0469V28.3125H7.29199V28.0469H8.69824Z" fill="white"/>
<path fill-rule="evenodd" clip-rule="evenodd" d="M7.2998 28.1172H7.56543V28.9844H7.2998V28.1172Z" fill="white"/>
<path fill-rule="evenodd" clip-rule="evenodd" d="M7.2998 28.1172H7.56543V28.9844H7.2998V28.1172Z" fill="white"/>
<path fill-rule="evenodd" clip-rule="evenodd" d="M7.2998 28.1172H7.56543V28.9844H7.2998V28.1172ZM4.22949 28.1172H4.49512V28.9844H4.22949V28.1172ZM6.47949 28.1172H6.74512V28.9844H6.47949V28.1172ZM5.3623 28.1172H5.62793V28.9844H5.3623V28.1172Z" fill="white"/>
<path fill-rule="evenodd" clip-rule="evenodd" d="M6.66699 28.7266V28.9922H5.47949V28.7266H6.66699ZM6.74512 28.0469V28.3125H5.99512V28.0469H6.74512Z" fill="white"/>
<path fill-rule="evenodd" clip-rule="evenodd" d="M10.5029 27.4219H14.3389V27.6797H10.5107L10.5029 27.4219ZM11.0811 28.7344H11.3389V28.9922H11.0811V28.7344ZM14.3467 28.7344V28.9922H13.5811V28.7266L14.3467 28.7344ZM14.7607 27.4219H15.0264V28.9844H14.7607V27.4219Z" fill="white"/>
<path fill-rule="evenodd" clip-rule="evenodd" d="M16.292 28.7266V28.9922H14.8389V28.7266H16.292ZM13.5811 28.1094H13.8467V28.9922H13.5811V28.1094Z" fill="white"/>
<path fill-rule="evenodd" clip-rule="evenodd" d="M16.0732 27.4219H16.3389V28.9844H16.0732V27.4219ZM15.4092 27.4219H15.6748V28.9844H15.4092V27.4219ZM11.9092 28.0469V28.3125H10.5107V28.0469H11.9092ZM14.9795 28.0469V28.3125H13.5811V28.0469H14.9795Z" fill="white"/>
<path fill-rule="evenodd" clip-rule="evenodd" d="M13.5811 28.1172H13.8467V28.9844H13.5811V28.1172Z" fill="white"/>
<path fill-rule="evenodd" clip-rule="evenodd" d="M13.5811 28.1172H13.8467V28.9844H13.5811V28.1172Z" fill="white"/>
<path fill-rule="evenodd" clip-rule="evenodd" d="M13.5811 28.1172H13.8467V28.9844H13.5811V28.1172ZM10.5107 28.1172H10.7764V28.9844H10.5107V28.1172ZM12.7607 28.1172H13.0264V28.9844H12.7607V28.1172ZM11.6514 28.1172H11.9092V28.9844H11.6514V28.1172Z" fill="white"/>
<path fill-rule="evenodd" clip-rule="evenodd" d="M12.9482 28.7266V28.9922H11.7686V28.7266H12.9482ZM13.0264 28.0469V28.3125H12.2764V28.0469H13.0264Z" fill="white"/>
<path fill-rule="evenodd" clip-rule="evenodd" d="M16.8154 27.4219H20.6436V27.6797H16.8154V27.4219ZM17.3857 28.7344H17.6514V28.9922H17.3857V28.7344ZM20.6592 28.7344V28.9922H19.8936V28.7266L20.6592 28.7344ZM21.0732 27.4219H21.3311V28.9844H21.0732V27.4219Z" fill="white"/>
<path fill-rule="evenodd" clip-rule="evenodd" d="M22.5967 28.7266V28.9922H21.1436V28.7266H22.5967ZM19.8936 28.1094H20.1592V28.9922H19.8936V28.1094Z" fill="white"/>
<path fill-rule="evenodd" clip-rule="evenodd" d="M22.3779 27.4219H22.6436V28.9844H22.3779V27.4219ZM21.7217 27.4219H21.9873V28.9844H21.7217V27.4219ZM18.2217 28.0469V28.3125H16.8154V28.0469H18.2217ZM21.292 28.0469V28.3125H19.8857V28.0469H21.292Z" fill="white"/>
<path fill-rule="evenodd" clip-rule="evenodd" d="M19.8936 28.1172H20.1592V28.9844H19.8936V28.1172Z" fill="white"/>
<path fill-rule="evenodd" clip-rule="evenodd" d="M19.8936 28.1172H20.1592V28.9844H19.8936V28.1172Z" fill="white"/>
<path fill-rule="evenodd" clip-rule="evenodd" d="M19.8936 28.1172H20.1592V28.9844H19.8936V28.1172ZM16.8232 28.1172H17.0811V28.9844H16.8232V28.1172ZM19.0732 28.1172H19.3389V28.9844H19.0732V28.1172ZM17.9561 28.1172H18.2217V28.9844H17.9482L17.9561 28.1172Z" fill="white"/>
<path fill-rule="evenodd" clip-rule="evenodd" d="M19.2607 28.7266V28.9922H18.0732V28.7266H19.2607ZM19.3389 28.0469V28.3125H18.5732V28.0469H19.3389Z" fill="white"/>
<path fill-rule="evenodd" clip-rule="evenodd" d="M-15.3333 0H54.6667V13.1406H-15.3333V0Z" fill="#239F40"/>
<path fill-rule="evenodd" clip-rule="evenodd" d="M23.1592 27.4219H26.9873V27.6797H23.1592V27.4219ZM23.7295 28.7344H23.9951V28.9922H23.7295V28.7344ZM27.0029 28.7344V28.9922H26.2295V28.7266L27.0029 28.7344ZM27.417 27.4219H27.6748V28.9844H27.417V27.4219Z" fill="white"/>
<path fill-rule="evenodd" clip-rule="evenodd" d="M28.9404 28.7266V28.9922H27.4873V28.7266H28.9404ZM26.2373 28.1094H26.5029V28.9922H26.2295L26.2373 28.1094Z" fill="white"/>
<path fill-rule="evenodd" clip-rule="evenodd" d="M28.7295 27.4219H28.9873V28.9844H28.7295V27.4219ZM28.0654 27.4219H28.3311V28.9844H28.0654V27.4219ZM24.5654 28.0469V28.3125H23.1592V28.0469H24.5654ZM27.6357 28.0469V28.3125H26.2295V28.0469H27.6357Z" fill="white"/>
<path fill-rule="evenodd" clip-rule="evenodd" d="M26.2295 28.1172H26.5029V28.9844H26.2295V28.1172Z" fill="white"/>
<path fill-rule="evenodd" clip-rule="evenodd" d="M26.2295 28.1172H26.5029V28.9844H26.2295V28.1172Z" fill="white"/>
<path fill-rule="evenodd" clip-rule="evenodd" d="M26.2295 28.1172H26.5029V28.9844H26.2295V28.1172ZM23.167 28.1172H23.4326V28.9844H23.167V28.1172ZM25.417 28.1172H25.6826V28.9844H25.417V28.1172ZM24.2998 28.1172H24.5654V28.9844H24.2998V28.1172Z" fill="white"/>
<path fill-rule="evenodd" clip-rule="evenodd" d="M25.6045 28.7266V28.9922H24.417V28.7266H25.6045ZM25.6826 28.0469V28.3125H24.9326V28.0469H25.6826Z" fill="white"/>
<path fill-rule="evenodd" clip-rule="evenodd" d="M29.4639 27.4219H33.292V27.6797H29.4639V27.4219ZM30.0342 28.7344H30.2998V28.9922H30.0342V28.7344ZM33.3154 28.7344V28.9922H32.542V28.7266L33.3154 28.7344ZM33.7217 27.4219H33.9873V28.9844H33.7217V27.4219Z" fill="white"/>
<path fill-rule="evenodd" clip-rule="evenodd" d="M35.2451 28.7266V28.9922H33.792V28.7266H35.2451ZM32.542 28.1094H32.8076V28.9922H32.542V28.1094Z" fill="white"/>
<path fill-rule="evenodd" clip-rule="evenodd" d="M35.0342 27.4219H35.292V28.9844H35.0342V27.4219ZM34.3701 27.4219H34.6357V28.9844H34.3701V27.4219ZM30.8701 28.0469V28.3125H29.4717V28.0469H30.8701ZM33.9404 28.0469V28.3125H32.542V28.0469H33.9404Z" fill="white"/>
<path fill-rule="evenodd" clip-rule="evenodd" d="M32.542 28.1172H32.8076V28.9844H32.542V28.1172Z" fill="white"/>
<path fill-rule="evenodd" clip-rule="evenodd" d="M32.542 28.1172H32.8076V28.9844H32.542V28.1172Z" fill="white"/>
<path fill-rule="evenodd" clip-rule="evenodd" d="M32.542 28.1172H32.8076V28.9844H32.542V28.1172ZM29.4717 28.1172H29.7373V28.9844H29.4717V28.1172ZM31.7217 28.1172H31.9873V28.9844H31.7217V28.1172ZM30.6045 28.1172H30.8701V28.9844H30.6123L30.6045 28.1172Z" fill="white"/>
<path fill-rule="evenodd" clip-rule="evenodd" d="M31.9092 28.7266V28.9922H30.7295V28.7266H31.9092ZM31.9873 28.0469V28.3125H31.2295V28.0469H31.9873Z" fill="white"/>
<path fill-rule="evenodd" clip-rule="evenodd" d="M35.7764 27.4219H39.6045V27.6797H35.7764V27.4219ZM36.3467 28.7344H36.6123V28.9922H36.3467V28.7344ZM39.6201 28.7344V28.9922H38.8545V28.7266L39.6201 28.7344ZM40.0264 27.4219H40.292V28.9844H40.0264V27.4219Z" fill="white"/>
<path fill-rule="evenodd" clip-rule="evenodd" d="M41.5576 28.7266V28.9922H40.1045V28.7266H41.5576ZM38.8467 28.1094H39.1123V28.9922H38.8467V28.1094Z" fill="white"/>
<path fill-rule="evenodd" clip-rule="evenodd" d="M41.3389 27.4219H41.6045V28.9844H41.3389V27.4219ZM40.6826 27.4219H40.9404V28.9844H40.6826V27.4219ZM37.1826 28.0469V28.3125H35.7764V28.0469H37.1826ZM40.2529 28.0469V28.3125H38.8467V28.0469H40.2529Z" fill="white"/>
<path fill-rule="evenodd" clip-rule="evenodd" d="M38.8545 28.1172H39.1123V28.9844H38.8545V28.1172Z" fill="white"/>
<path fill-rule="evenodd" clip-rule="evenodd" d="M38.8545 28.1172H39.1123V28.9844H38.8545V28.1172Z" fill="white"/>
<path fill-rule="evenodd" clip-rule="evenodd" d="M38.8545 28.1172H39.1123V28.9844H38.8545V28.1172ZM35.7764 28.1172H36.042V28.9844H35.7764V28.1172ZM38.0342 28.1172H38.292V28.9844H38.0342V28.1172ZM36.917 28.1172H37.1826V28.9844H36.917V28.1172Z" fill="white"/>
<path fill-rule="evenodd" clip-rule="evenodd" d="M38.2139 28.7266V28.9922H37.0342V28.7266H38.2139ZM38.292 28.0469V28.3125H37.542V28.0469H38.292Z" fill="white"/>
<path fill-rule="evenodd" clip-rule="evenodd" d="M-2.02051 11.2031H1.80762V11.4688H-2.02051V11.2031ZM-1.4502 12.5312H-1.18457V12.7813H-1.4502V12.5312ZM1.82324 12.5156V12.7813H1.05762V12.5156H1.82324ZM2.22949 11.2031H2.49512V12.7813H2.22949V11.2031Z" fill="white"/>
<path fill-rule="evenodd" clip-rule="evenodd" d="M3.76074 12.5156V12.7813H2.30762V12.5156H3.76074ZM1.05762 11.8984H1.30762V12.7813H1.0498L1.05762 11.8984Z" fill="white"/>
<path fill-rule="evenodd" clip-rule="evenodd" d="M3.54199 11.2031H3.80762V12.7813H3.54199V11.2031ZM2.88574 11.2031H3.14355V12.7813H2.88574V11.2031ZM-0.614258 11.8281V12.0938H-2.02051V11.8359L-0.614258 11.8281ZM2.45605 11.8281V12.0938H1.0498V11.8359L2.45605 11.8281Z" fill="white"/>
<path fill-rule="evenodd" clip-rule="evenodd" d="M1.05762 11.8984H1.30762V12.7813H1.0498L1.05762 11.8984Z" fill="white"/>
<path fill-rule="evenodd" clip-rule="evenodd" d="M1.05762 11.8984H1.30762V12.7813H1.0498L1.05762 11.8984Z" fill="white"/>
<path fill-rule="evenodd" clip-rule="evenodd" d="M1.05762 11.8984H1.30762V12.7813H1.0498L1.05762 11.8984ZM-2.0127 11.8984H-1.75488V12.7813H-2.0127V11.8984ZM0.237305 11.8984H0.50293V12.7813H0.237305V11.8984ZM-0.879883 11.8984H-0.614258V12.7813H-0.879883V11.8984Z" fill="white"/>
<path fill-rule="evenodd" clip-rule="evenodd" d="M0.416992 12.5156V12.7813H-0.762695V12.5156H0.416992ZM0.495117 11.8359V12.0938H-0.254883V11.8359H0.495117Z" fill="white"/>
<path fill-rule="evenodd" clip-rule="evenodd" d="M4.22168 11.2031H8.0498V11.4688H4.22168V11.2031ZM4.79199 12.5312H5.05762V12.7813H4.79199V12.5312ZM8.06543 12.5156V12.7813H7.2998V12.5156H8.06543ZM8.47949 11.2031H8.74512V12.7813H8.47949V11.2031Z" fill="white"/>
<path fill-rule="evenodd" clip-rule="evenodd" d="M10.0029 12.5156V12.7813H8.5498V12.5156H10.0029ZM7.2998 11.8984H7.56543V12.7813H7.2998V11.8984Z" fill="white"/>
<path fill-rule="evenodd" clip-rule="evenodd" d="M9.78418 11.2031H10.0498V12.7813H9.78418V11.2031ZM9.12793 11.2031H9.39355V12.7813H9.12012L9.12793 11.2031ZM5.62793 11.8281V12.0938H4.22168V11.8359L5.62793 11.8281ZM8.69824 11.8281V12.0938H7.29199V11.8359L8.69824 11.8281Z" fill="white"/>
<path fill-rule="evenodd" clip-rule="evenodd" d="M7.2998 11.8984H7.56543V12.7813H7.2998V11.8984Z" fill="white"/>
<path fill-rule="evenodd" clip-rule="evenodd" d="M7.2998 11.8984H7.56543V12.7813H7.2998V11.8984Z" fill="white"/>
<path fill-rule="evenodd" clip-rule="evenodd" d="M7.2998 11.8984H7.56543V12.7813H7.2998V11.8984ZM4.22949 11.8984H4.49512V12.7813H4.22949V11.8984ZM6.47949 11.8984H6.74512V12.7813H6.47949V11.8984ZM5.3623 11.8984H5.62793V12.7813H5.3623V11.8984Z" fill="white"/>
<path fill-rule="evenodd" clip-rule="evenodd" d="M6.66699 12.5156V12.7813H5.47949V12.5156H6.66699ZM6.74512 11.8359V12.0938H5.99512V11.8359H6.74512Z" fill="white"/>
<path fill-rule="evenodd" clip-rule="evenodd" d="M10.5029 11.2031H14.3389V11.4688H10.5107L10.5029 11.2031ZM11.0811 12.5312H11.3389V12.7813H11.0811V12.5312ZM14.3467 12.5156V12.7813H13.5811V12.5156H14.3467ZM14.7607 11.2031H15.0264V12.7813H14.7607V11.2031Z" fill="white"/>
<path fill-rule="evenodd" clip-rule="evenodd" d="M16.292 12.5156V12.7813H14.8389V12.5156H16.292ZM13.5811 11.8984H13.8467V12.7813H13.5811V11.8984Z" fill="white"/>
<path fill-rule="evenodd" clip-rule="evenodd" d="M16.0732 11.2031H16.3389V12.7813H16.0732V11.2031ZM15.4092 11.2031H15.6748V12.7813H15.4092V11.2031ZM11.9092 11.8281V12.0938H10.5107V11.8359L11.9092 11.8281ZM14.9795 11.8281V12.0938H13.5811V11.8359L14.9795 11.8281Z" fill="white"/>
<path fill-rule="evenodd" clip-rule="evenodd" d="M13.5811 11.8984H13.8467V12.7813H13.5811V11.8984Z" fill="white"/>
<path fill-rule="evenodd" clip-rule="evenodd" d="M13.5811 11.8984H13.8467V12.7813H13.5811V11.8984Z" fill="white"/>
<path fill-rule="evenodd" clip-rule="evenodd" d="M13.5811 11.8984H13.8467V12.7813H13.5811V11.8984ZM10.5107 11.8984H10.7764V12.7813H10.5107V11.8984ZM12.7607 11.8984H13.0264V12.7813H12.7607V11.8984ZM11.6514 11.8984H11.9092V12.7813H11.6514V11.8984Z" fill="white"/>
<path fill-rule="evenodd" clip-rule="evenodd" d="M12.9482 12.5156V12.7813H11.7686V12.5156H12.9482ZM13.0264 11.8359V12.0938H12.2764V11.8359H13.0264Z" fill="white"/>
<path fill-rule="evenodd" clip-rule="evenodd" d="M16.8154 11.2031H20.6436V11.4688H16.8154V11.2031ZM17.3857 12.5312H17.6514V12.7813H17.3857V12.5312ZM20.6592 12.5156V12.7813H19.8936V12.5156H20.6592ZM21.0732 11.2031H21.3311V12.7813H21.0732V11.2031Z" fill="white"/>
<path fill-rule="evenodd" clip-rule="evenodd" d="M22.5967 12.5156V12.7813H21.1436V12.5156H22.5967ZM19.8936 11.8984H20.1592V12.7813H19.8936V11.8984Z" fill="white"/>
<path fill-rule="evenodd" clip-rule="evenodd" d="M22.3779 11.2031H22.6436V12.7813H22.3779V11.2031ZM21.7217 11.2031H21.9873V12.7813H21.7217V11.2031ZM18.2217 11.8281V12.0938H16.8154V11.8359L18.2217 11.8281ZM21.292 11.8281V12.0938H19.8857V11.8359L21.292 11.8281Z" fill="white"/>
<path fill-rule="evenodd" clip-rule="evenodd" d="M19.8936 11.8984H20.1592V12.7813H19.8936V11.8984Z" fill="white"/>
<path fill-rule="evenodd" clip-rule="evenodd" d="M19.8936 11.8984H20.1592V12.7813H19.8936V11.8984Z" fill="white"/>
<path fill-rule="evenodd" clip-rule="evenodd" d="M19.8936 11.8984H20.1592V12.7813H19.8936V11.8984ZM16.8232 11.8984H17.0811V12.7813H16.8232V11.8984ZM19.0732 11.8984H19.3389V12.7813H19.0732V11.8984ZM17.9561 11.8984H18.2217V12.7813H17.9482L17.9561 11.8984Z" fill="white"/>
<path fill-rule="evenodd" clip-rule="evenodd" d="M19.2607 12.5156V12.7813H18.0732V12.5156H19.2607ZM19.3389 11.8359V12.0938H18.5732V11.8359H19.3389Z" fill="white"/>
<path fill-rule="evenodd" clip-rule="evenodd" d="M23.1592 11.2031H26.9873V11.4688H23.1592V11.2031ZM23.7295 12.5312H23.9951V12.7813H23.7295V12.5312ZM27.0029 12.5156V12.7813H26.2295V12.5156H27.0029ZM27.417 11.2031H27.6748V12.7813H27.417V11.2031Z" fill="white"/>
<path fill-rule="evenodd" clip-rule="evenodd" d="M28.9404 12.5156V12.7813H27.4873V12.5156H28.9404ZM26.2373 11.8984H26.5029V12.7813H26.2295L26.2373 11.8984Z" fill="white"/>
<path fill-rule="evenodd" clip-rule="evenodd" d="M28.7295 11.2031H28.9873V12.7813H28.7295V11.2031ZM28.0654 11.2031H28.3311V12.7813H28.0654V11.2031ZM24.5654 11.8281V12.0938H23.1592V11.8359L24.5654 11.8281ZM27.6357 11.8281V12.0938H26.2295V11.8359L27.6357 11.8281Z" fill="white"/>
<path fill-rule="evenodd" clip-rule="evenodd" d="M26.2295 11.8984H26.5029V12.7813H26.2295V11.8984Z" fill="white"/>
<path fill-rule="evenodd" clip-rule="evenodd" d="M26.2295 11.8984H26.5029V12.7813H26.2295V11.8984Z" fill="white"/>
<path fill-rule="evenodd" clip-rule="evenodd" d="M26.2295 11.8984H26.5029V12.7813H26.2295V11.8984ZM23.167 11.8984H23.4326V12.7813H23.167V11.8984ZM25.417 11.8984H25.6826V12.7813H25.417V11.8984ZM24.2998 11.8984H24.5654V12.7813H24.2998V11.8984Z" fill="white"/>
<path fill-rule="evenodd" clip-rule="evenodd" d="M25.6045 12.5156V12.7813H24.417V12.5156H25.6045ZM25.6826 11.8359V12.0938H24.9326V11.8359H25.6826Z" fill="white"/>
<path fill-rule="evenodd" clip-rule="evenodd" d="M29.4639 11.2031H33.292V11.4688H29.4639V11.2031ZM30.0342 12.5312H30.2998V12.7813H30.0342V12.5312ZM33.3154 12.5156V12.7813H32.542V12.5156H33.3154ZM33.7217 11.2031H33.9873V12.7813H33.7217V11.2031Z" fill="white"/>
<path fill-rule="evenodd" clip-rule="evenodd" d="M35.2451 12.5156V12.7813H33.792V12.5156H35.2451ZM32.542 11.8984H32.8076V12.7813H32.542V11.8984Z" fill="white"/>
<path fill-rule="evenodd" clip-rule="evenodd" d="M35.0342 11.2031H35.292V12.7813H35.0342V11.2031ZM34.3701 11.2031H34.6357V12.7813H34.3701V11.2031ZM30.8701 11.8281V12.0938H29.4717V11.8359L30.8701 11.8281ZM33.9404 11.8281V12.0938H32.542V11.8359L33.9404 11.8281Z" fill="white"/>
<path fill-rule="evenodd" clip-rule="evenodd" d="M32.542 11.8984H32.8076V12.7813H32.542V11.8984Z" fill="white"/>
<path fill-rule="evenodd" clip-rule="evenodd" d="M32.542 11.8984H32.8076V12.7813H32.542V11.8984Z" fill="white"/>
<path fill-rule="evenodd" clip-rule="evenodd" d="M32.542 11.8984H32.8076V12.7813H32.542V11.8984ZM29.4717 11.8984H29.7373V12.7813H29.4717V11.8984ZM31.7217 11.8984H31.9873V12.7813H31.7217V11.8984ZM30.6045 11.8984H30.8701V12.7813H30.6123L30.6045 11.8984Z" fill="white"/>
<path fill-rule="evenodd" clip-rule="evenodd" d="M31.9092 12.5156V12.7813H30.7295V12.5156H31.9092ZM31.9873 11.8359V12.0938H31.2295V11.8359H31.9873Z" fill="white"/>
<path fill-rule="evenodd" clip-rule="evenodd" d="M35.7764 11.2031H39.6045V11.4688H35.7764V11.2031ZM36.3467 12.5312H36.6123V12.7813H36.3467V12.5312ZM39.6201 12.5156V12.7813H38.8545V12.5156H39.6201ZM40.0264 11.2031H40.292V12.7813H40.0264V11.2031Z" fill="white"/>
<path fill-rule="evenodd" clip-rule="evenodd" d="M41.5576 12.5156V12.7813H40.1045V12.5156H41.5576ZM38.8467 11.8984H39.1123V12.7813H38.8467V11.8984Z" fill="white"/>
<path fill-rule="evenodd" clip-rule="evenodd" d="M41.3389 11.2031H41.6045V12.7813H41.3389V11.2031ZM40.6826 11.2031H40.9404V12.7813H40.6826V11.2031ZM37.1826 11.8281V12.0938H35.7764V11.8359L37.1826 11.8281ZM40.2529 11.8281V12.0938H38.8467V11.8359L40.2529 11.8281Z" fill="white"/>
<path fill-rule="evenodd" clip-rule="evenodd" d="M38.8545 11.8984H39.1123V12.7813H38.8545V11.8984Z" fill="white"/>
<path fill-rule="evenodd" clip-rule="evenodd" d="M38.8545 11.8984H39.1123V12.7813H38.8545V11.8984Z" fill="white"/>
<path fill-rule="evenodd" clip-rule="evenodd" d="M38.8545 11.8984H39.1123V12.7813H38.8545V11.8984ZM35.7764 11.8984H36.042V12.7813H35.7764V11.8984ZM38.0342 11.8984H38.292V12.7813H38.0342V11.8984ZM36.917 11.8984H37.1826V12.7813H36.917V11.8984Z" fill="white"/>
<path fill-rule="evenodd" clip-rule="evenodd" d="M38.2139 12.5156V12.7813H37.0342V12.5156H38.2139ZM38.292 11.8359V12.0938H37.542V11.8359H38.292Z" fill="white"/>
<path fill-rule="evenodd" clip-rule="evenodd" d="M-5.70825 26.5234H-5.2395V27.3438H-5.70825V26.5234ZM6.83081 26.5234H7.29956V27.3438H6.83081V26.5234ZM-15.3333 26.5234H-14.8645V27.3438H-15.3333V26.5234ZM-8.96606 26.5234H-8.49731V27.3438H-8.96606V26.5234ZM-2.64575 26.5234H-2.177V27.3438H-2.64575V26.5234ZM0.479248 26.5234H0.947998V27.3438H0.479248V26.5234ZM3.67456 26.5234H4.14331V27.3438H3.67456V26.5234ZM9.95581 26.5234H10.4246V27.3438H9.95581V26.5234ZM25.8152 26.5234H26.2917V27.3438H25.823L25.8152 26.5234ZM13.1511 26.5234H13.6199V27.3438H13.1511V26.5234ZM16.2761 26.5234H16.7449V27.3438H16.2761V26.5234ZM19.4402 26.5234H19.9089V27.3438H19.4402V26.5234ZM22.5964 26.5234H23.0652V27.3438H22.5964V26.5234ZM47.8464 26.5234H48.3152V27.3438H47.8464V26.5234ZM28.8855 26.5234H29.3542V27.3438H28.8855V26.5234ZM32.073 26.5234H32.5417V27.3438H32.073V26.5234ZM35.2996 26.5234H35.7683V27.3438H35.2996V26.5234ZM38.3308 26.5234H38.7996V27.3438H38.3308V26.5234ZM41.5574 26.5234H42.0261V27.3438H41.5574V26.5234ZM44.7136 26.5234H45.1824V27.3438H44.7136V26.5234ZM54.0652 26.5234H54.5339V27.3438H54.0652V26.5234ZM51.0339 26.5234H51.5027V27.3438H51.0339V26.5234ZM-12.1614 26.5234H-11.6926V27.3438H-12.1614V26.5234Z" fill="#D90000"/>
<path fill-rule="evenodd" clip-rule="evenodd" d="M-5.70825 12.7031H-5.2395V13.5234H-5.70825V12.7031ZM6.83081 12.7031H7.29956V13.5234H6.83081V12.7031ZM-15.3333 12.7031H-14.8645V13.5234H-15.3333V12.7031ZM-8.96606 12.7031H-8.49731V13.5234H-8.96606V12.7031ZM-2.64575 12.7031H-2.177V13.5234H-2.64575V12.7031ZM0.479248 12.7031H0.947998V13.5234H0.479248V12.7031ZM3.67456 12.7031H4.14331V13.5234H3.67456V12.7031ZM9.95581 12.7031H10.4246V13.5234H9.95581V12.7031ZM25.8152 12.7031H26.2917V13.5234H25.823L25.8152 12.7031ZM13.1511 12.7031H13.6199V13.5234H13.1511V12.7031ZM16.2761 12.7031H16.7449V13.5234H16.2761V12.7031ZM19.4402 12.7031H19.9089V13.5234H19.4402V12.7031ZM22.5964 12.7031H23.0652V13.5234H22.5964V12.7031ZM47.8464 12.7031H48.3152V13.5234H47.8464V12.7031ZM28.8855 12.7031H29.3542V13.5234H28.8855V12.7031ZM32.073 12.7031H32.5417V13.5234H32.073V12.7031ZM35.2996 12.7031H35.7683V13.5234H35.2996V12.7031ZM38.3308 12.7031H38.7996V13.5234H38.3308V12.7031ZM41.5574 12.7031H42.0261V13.5234H41.5574V12.7031ZM44.7136 12.7031H45.1824V13.5234H44.7136V12.7031ZM54.0652 12.7031H54.5339V13.5234H54.0652V12.7031ZM51.0339 12.7031H51.5027V13.5234H51.0339V12.7031ZM-12.1614 12.7031H-11.6926V13.5234H-12.1614V12.7031Z" fill="#239E3F"/>
<path fill-rule="evenodd" clip-rule="evenodd" d="M21.526 15.4297C22.1822 16.2422 24.2213 20.7109 20.2994 23.6484C18.4479 25.0391 19.5963 25.1016 19.651 25.3359C22.6197 23.7656 23.5807 21.625 23.5572 19.7109C23.5416 17.8047 22.526 16.1172 21.526 15.4297Z" fill="#DA0000"/>
<path fill-rule="evenodd" clip-rule="evenodd" d="M21.9167 15.2188C22.6416 15.6598 23.2594 16.2564 23.7254 16.9655C24.1915 17.6745 24.4941 18.4783 24.6115 19.3186C24.7289 20.159 24.658 21.0149 24.4041 21.8245C24.1502 22.6341 23.7196 23.3772 23.1433 24C25.2683 23.5313 27.9871 17.25 21.9167 15.2188ZM17.4167 15.2188C16.6925 15.6605 16.0754 16.2576 15.6101 16.967C15.1448 17.6764 14.8429 18.4802 14.7263 19.3205C14.6097 20.1608 14.6812 21.0166 14.9357 21.8258C15.1902 22.6351 15.6214 23.3777 16.198 24C14.0652 23.5313 11.3542 17.25 17.4167 15.2188Z" fill="#DA0000"/>
<path fill-rule="evenodd" clip-rule="evenodd" d="M17.8073 15.4297C17.1511 16.2422 15.112 20.7109 19.0339 23.6484C20.8776 25.0391 19.737 25.1016 19.6823 25.3359C16.7136 23.7656 15.7526 21.625 15.7761 19.7109C15.7917 17.8047 16.8073 16.1172 17.8073 15.4297Z" fill="#DA0000"/>
<path fill-rule="evenodd" clip-rule="evenodd" d="M23.4324 24.9297C22.2683 24.9453 20.8074 24.7734 19.7214 24.2031C19.9011 24.5547 20.0496 24.7734 20.2292 25.1172C21.2605 25.2187 22.6902 25.3359 23.4324 24.9297ZM16.0105 24.9297C17.1746 24.9453 18.6355 24.7734 19.7214 24.2031C19.5417 24.5547 19.3933 24.7734 19.2136 25.1172C18.1824 25.2187 16.7527 25.3359 16.0105 24.9297ZM18.1433 14.0938C18.3777 14.7187 18.9949 14.8125 19.6511 14.4453C20.1355 14.7266 20.8777 14.75 21.1355 14.125C21.3308 15.6719 19.7058 15.2969 19.6511 15C19.0417 15.5859 17.9167 15.25 18.1433 14.0938Z" fill="#DA0000"/>
<path fill-rule="evenodd" clip-rule="evenodd" d="M19.698 25.9062L20.3074 25.2031L20.3933 15.8203L19.6667 15.1797L18.9402 15.7891L19.0886 25.2422L19.698 25.9062Z" fill="#DA0000"/>
</g>
</g>
<defs>
<clipPath id="clip0_769_18766">
<path d="M0 20C0 8.95431 8.95431 0 20 0C31.0457 0 40 8.95431 40 20C40 31.0457 31.0457 40 20 40C8.95431 40 0 31.0457 0 20Z" fill="white"/>
</clipPath>
<clipPath id="clip1_769_18766">
<rect width="53.3333" height="40" fill="white" transform="translate(-7)"/>
</clipPath>
</defs>
</svg>
