<svg width="40" height="40" viewBox="0 0 40 40" fill="none" xmlns="http://www.w3.org/2000/svg">
<g clip-path="url(#clip0_769_18754)">
<path d="M0 20C0 8.95431 8.95431 0 20 0C31.0457 0 40 8.95431 40 20C40 31.0457 31.0457 40 20 40C8.95431 40 0 31.0457 0 20Z" fill="#E94E0F"/>
<g clip-path="url(#clip1_769_18754)">
<path d="M-7 13.3333H46.3333V26.6667H-7V13.3333Z" fill="white"/>
<path d="M-7 0H46.3333V13.3333H-7V0Z" fill="#CE1126"/>
<path d="M-7 26.6667H46.3333V40H-7V26.6667Z" fill="black"/>
<path d="M25.5764 17.5513C25.5003 17.5148 25.4312 17.4654 25.372 17.4053C25.3282 17.3323 25.3574 17.3323 25.5472 17.3761C25.883 17.4783 26.1019 17.4345 26.3209 17.2593L26.5107 17.0987L26.7297 17.2009C26.8611 17.2739 26.9924 17.3177 27.0216 17.3031C27.1238 17.2739 27.3282 17.0111 27.3136 16.9235C27.3136 16.8213 27.4012 16.8505 27.4596 16.9673C27.5472 17.2009 27.4158 17.4783 27.1676 17.5367C27.0654 17.5659 26.9632 17.5513 26.7881 17.4929C26.5837 17.4199 26.5399 17.4199 26.4377 17.4929C26.3154 17.5853 26.1687 17.6401 26.0157 17.6505C25.8628 17.6608 25.7101 17.6264 25.5764 17.5513ZM26.4231 16.7775C26.3242 16.599 26.2739 16.3977 26.2771 16.1936C26.2917 16.106 26.3209 16.0768 26.3939 16.106C26.5399 16.1498 26.5691 16.252 26.5399 16.544C26.5399 16.8067 26.4961 16.8797 26.4231 16.7775ZM16.5545 16.5002C16.5399 16.69 16.9049 17.1717 17.0655 17.2593C16.9487 17.3031 16.8173 17.2885 16.7151 17.3323C16.1312 17.9162 14.029 19.96 13.6494 20.4564C14.7881 20.4856 16.0436 20.4418 17.1093 20.398C17.1093 19.6243 17.8392 19.5805 18.3355 19.3031C18.5837 19.6972 19.2114 19.6681 19.299 20.2666V22.8359H9.59103C9.55431 23.0307 9.47709 23.2157 9.36437 23.3788C9.25165 23.5418 9.10595 23.6794 8.93668 23.7827C8.76742 23.8859 8.57838 23.9524 8.38178 23.9779C8.18518 24.0034 7.98541 23.9874 7.79541 23.9308C8.08738 23.6388 8.58373 23.5221 8.75891 23.0987C8.9049 22.1644 8.46694 21.5951 8.17497 21.0549C8.54221 20.9372 8.88748 20.7596 9.19687 20.5294C8.8611 21.5513 10.102 21.4491 11.0071 21.4199C11.0363 21.0695 11.0217 20.6607 10.7589 20.6024C11.0947 20.471 11.1531 20.4272 11.7224 19.96V21.3615L18.4523 21.3469C18.4523 20.9089 18.5691 20.1936 18.2187 20.1936C17.8976 20.1936 18.2187 21.0987 17.956 21.0987H12.7443V20.2228C12.9633 19.9892 12.9341 20.0038 14.4377 18.5002C14.5837 18.3542 15.6494 17.3907 16.5691 16.5002H16.5545ZM29.5618 16.4564C29.9267 16.6608 30.2187 16.9235 30.6567 17.0403C30.6129 17.2301 30.4377 17.3031 30.3939 17.4929V21.4345C30.8902 21.5367 31.007 21.2447 31.2406 21.0987C31.299 21.7264 31.7078 22.3396 31.6786 22.8505H29.5618V16.471V16.4564ZM26.7297 18.5732C26.7297 18.5732 27.5034 17.9162 27.5034 17.887V21.3177H28.0581L28.0435 17.4783C28.2625 17.2447 28.7151 16.9235 28.8173 16.69V22.8213H23.9414C23.8684 21.5513 23.8538 20.2374 25.3428 20.5148V20.0038C25.299 19.9162 25.2114 20.0184 25.1968 19.9016C25.4304 19.6681 25.5034 19.6097 26.1457 19.0549L26.1603 21.3177H26.7297V18.5732ZM24.8903 21.2885C24.9924 21.4345 25.3574 21.4345 25.3282 21.1717C25.2844 20.9527 24.8173 21.0257 24.8903 21.2885Z" fill="#007A3D"/>
<path d="M10.759 23.8578C10.9203 23.8578 11.051 23.7271 11.051 23.5658C11.051 23.4046 10.9203 23.2739 10.759 23.2739C10.5978 23.2739 10.467 23.4046 10.467 23.5658C10.467 23.7271 10.5978 23.8578 10.759 23.8578Z" fill="#007A3D"/>
<path d="M19.9561 16.471C20.321 16.6607 20.613 16.9381 21.0655 17.0549C21.0071 17.2301 20.8466 17.3031 20.8028 17.4928V21.4344C21.2991 21.5366 21.4013 21.2593 21.6349 21.0987C21.7079 21.7264 22.102 22.3541 22.0874 22.8505H19.9561V16.471Z" fill="#007A3D"/>
</g>
</g>
<defs>
<clipPath id="clip0_769_18754">
<path d="M0 20C0 8.95431 8.95431 0 20 0C31.0457 0 40 8.95431 40 20C40 31.0457 31.0457 40 20 40C8.95431 40 0 31.0457 0 20Z" fill="white"/>
</clipPath>
<clipPath id="clip1_769_18754">
<rect width="53.3333" height="40" fill="white" transform="translate(-7)"/>
</clipPath>
</defs>
</svg>
