<svg width="40" height="40" viewBox="0 0 40 40" fill="none" xmlns="http://www.w3.org/2000/svg">
<g clip-path="url(#clip0_769_18551)">
<path d="M0 20C0 8.95431 8.95431 0 20 0C31.0457 0 40 8.95431 40 20C40 31.0457 31.0457 40 20 40C8.95431 40 0 31.0457 0 20Z" fill="#E94E0F"/>
<g clip-path="url(#clip1_769_18551)">
<path fill-rule="evenodd" clip-rule="evenodd" d="M-7 -0.000244141H46.3333V39.9998H-7V-0.000244141Z" fill="white"/>
<path fill-rule="evenodd" clip-rule="evenodd" d="M-7 -0.000244141H10.775V39.9998H-7V-0.000244141Z" fill="#009A49"/>
<path fill-rule="evenodd" clip-rule="evenodd" d="M28.5583 -0.000244141H46.3333V39.9998H28.5583V-0.000244141Z" fill="#FF7900"/>
</g>
</g>
<defs>
<clipPath id="clip0_769_18551">
<path d="M0 20C0 8.95431 8.95431 0 20 0C31.0457 0 40 8.95431 40 20C40 31.0457 31.0457 40 20 40C8.95431 40 0 31.0457 0 20Z" fill="white"/>
</clipPath>
<clipPath id="clip1_769_18551">
<rect width="53.3333" height="40" fill="white" transform="translate(-7 -0.000244141)"/>
</clipPath>
</defs>
</svg>
