<svg width="40" height="40" viewBox="0 0 40 40" fill="none" xmlns="http://www.w3.org/2000/svg">
<g clip-path="url(#clip0_769_18571)">
<path d="M0 20C0 8.95431 8.95431 0 20 0C31.0457 0 40 8.95431 40 20C40 31.0457 31.0457 40 20 40C8.95431 40 0 31.0457 0 20Z" fill="#E94E0F"/>
<g clip-path="url(#clip1_769_18571)">
<path fill-rule="evenodd" clip-rule="evenodd" d="M48.3697 40.1064H-8.92334V-0.000244141H48.3697V40.1064Z" fill="#BA0000"/>
<path fill-rule="evenodd" clip-rule="evenodd" d="M21.0783 29.4531C21.0939 29.4061 21.1253 28.9204 21.1096 28.9204C21.0939 28.9204 20.3733 28.0666 20.3889 28.0666C20.4046 28.0666 21.3133 28.2703 21.3133 28.2389C21.3133 28.2076 21.6814 27.3381 21.6814 27.3224L22.1201 28.3799L23.0209 28.7716L22.3943 29.2964L22.5274 30.3148C22.5274 30.3383 21.9008 29.7194 21.9008 29.7194L21.2036 29.7978C21.2036 29.7978 21.1096 29.4844 21.0783 29.4531Z" fill="#FFEF00" stroke="black" stroke-width="0.172333"/>
<path fill-rule="evenodd" clip-rule="evenodd" d="M16.1982 16.2069C15.595 16.5203 13.2999 19.1444 12.9865 19.5518C12.6666 20.2398 12.2202 20.8616 11.6705 21.3848C11.0987 21.8156 10.7854 22.4031 10.8637 22.9514C10.8637 23.6564 11.2475 24.1264 11.553 24.6043C11.7332 24.8314 11.9839 24.9724 12.2424 24.9959C12.7829 25.0586 12.8299 25.2309 13.104 25.3249C14.1537 26.7663 15.736 27.8316 16.864 28.6698C17.3831 28.9159 17.8591 29.2438 18.274 29.6411C18.603 30.2834 18.5404 30.8944 18.4934 31.2078L17.6552 34.3881C17.5064 35.2498 18.2662 35.0618 18.3054 34.8894C18.6422 34.4429 19.1514 34.7563 19.872 32.2026L20.8747 30.8631C20.8747 30.8631 21.2585 30.7064 21.2585 30.6673C21.846 29.9623 21.3995 29.5706 21.0627 29.4374L20.342 29.1711C20.342 29.1711 19.496 28.3251 19.4569 28.3251C19.0574 27.1579 17.0834 24.6748 16.629 24.3301C16.3157 23.9933 16.159 23.8601 15.8614 23.6721C15.3992 23.4528 15.2504 23.3744 14.9684 23.2648C14.7334 23.1708 14.8979 22.9123 15.0467 22.7948C16.6134 21.9409 17.8432 21.0009 19.3394 20.0453L19.5744 19.8886L19.0339 16.8179L16.5429 15.9406C16.4097 16.0268 16.3079 16.1208 16.1982 16.2069Z" fill="white" stroke="black" stroke-width="0.203667"/>
<path fill-rule="evenodd" clip-rule="evenodd" d="M18.2817 32.3593C18.2817 32.3279 19.8484 32.0459 19.8484 32.0459L19.6525 32.6256L18.1094 33.0956L18.2817 32.3671V32.3593Z" fill="#FFEC00"/>
<path d="M14.2319 26.5156C14.3918 26.149 14.6241 25.8185 14.9148 25.5439C15.2056 25.2693 15.5488 25.0563 15.9239 24.9176" stroke="black" stroke-width="0.172333"/>
<path d="M17.9451 33.3384C18.0044 33.2792 18.0701 33.2266 18.1409 33.1818C18.2271 33.1504 18.5326 33.0251 18.6501 33.0016C18.7744 32.9706 18.8972 32.934 19.0182 32.8919L19.3786 32.7979C19.4961 32.7509 19.6057 32.7196 19.7232 32.6883M18.2271 32.3749C18.3289 32.3514 18.7754 32.2183 18.9007 32.1948C19.0417 32.1634 19.1749 32.1321 19.3081 32.0851C19.4647 32.0538 19.5587 32.0224 19.7154 31.9989C19.8434 31.9537 19.9742 31.9171 20.1071 31.8893L18.2271 32.3749Z" stroke="black" stroke-width="0.188"/>
<path d="M16.4488 24.1264C16.4566 24.1734 16.4331 24.3144 16.4331 24.4241C16.4331 24.5494 16.2686 24.9333 16.0728 25.0508M18.5716 26.7428H18.5559C18.6186 26.7428 18.5794 26.7428 18.4854 26.8524C18.4541 26.9386 18.1721 27.1423 17.9528 27.1423C17.8305 27.1555 17.7076 27.1634 17.5846 27.1658L17.4828 27.1423L18.5716 26.7428ZM18.5559 31.3331H18.6656C18.7831 31.3331 18.9006 31.3566 18.9946 31.3566C19.1121 31.3566 19.2218 31.3879 19.3314 31.3879C19.4489 31.4036 19.5821 31.3958 19.6996 31.4193C19.8249 31.4193 19.9346 31.4428 20.0678 31.4428C20.1774 31.4506 20.2401 31.4663 20.3576 31.4663L20.0678 31.4428C20.1774 31.4506 20.2401 31.4663 20.3576 31.4663L18.5559 31.3331ZM17.7961 34.0513C17.8501 33.9924 17.9105 33.9399 17.9763 33.8946C18.0546 33.8711 18.3366 33.7379 18.4463 33.7223C18.5578 33.6883 18.6675 33.6491 18.7753 33.6048L19.1121 33.5264C19.2139 33.4716 19.3158 33.4403 19.4254 33.4089L17.7961 34.0513ZM19.8798 30.1816C19.8171 30.3618 19.9033 30.4088 19.9346 30.4871C20.0554 30.6161 20.2102 30.7084 20.3811 30.7534C20.4751 30.7769 20.5378 30.8004 20.6474 30.8474C20.7179 30.8474 20.7493 30.8709 20.8041 30.8866L19.8798 30.1816ZM11.0594 23.4606H11.0829C11.0124 23.4606 11.0594 23.4684 11.1691 23.3823C11.2474 23.2961 11.3023 23.2569 11.3728 23.1708L11.0594 23.4606ZM12.5008 25.0508C12.5164 25.0508 13.8011 24.4084 13.9343 24.2674L14.2241 24.0403C14.3024 24.0011 14.3573 23.9541 14.4278 23.9071C14.4826 23.8288 14.5609 23.7739 14.6079 23.6956C14.6863 23.6251 14.6471 23.5546 14.7176 23.4684L14.8194 23.1708L12.5008 25.0508Z" stroke="black" stroke-width="0.172333"/>
<path d="M11.553 21.4866C11.7096 21.5493 11.647 21.5023 11.7801 21.5649C11.8741 21.6041 11.9368 21.6041 12.0151 21.6433C12.117 21.6668 12.3833 21.7216 12.5086 21.8469C12.6026 21.9253 12.6653 22.0036 12.775 22.0584C12.8872 22.1352 13.0081 22.1983 13.1353 22.2464C13.2606 22.2934 13.4016 22.3483 13.527 22.3483H14.138H13.8246H14.138M14.1536 24.1108L14.6785 24.2753C15.0701 24.4163 15.8848 24.9333 15.971 25.0038C16.0493 25.0664 16.206 25.1291 16.253 25.1996C16.347 25.2779 16.4096 25.3641 16.4801 25.4503C16.5585 25.5443 16.6368 25.6304 16.676 25.7166C17.1037 26.3105 17.4563 26.9552 17.7256 27.6358C17.7805 27.6906 17.804 27.7689 17.8588 27.8551C17.9058 27.9648 17.9606 28.0118 18.0155 28.0979C18.0938 28.1528 18.1878 28.2546 18.2818 28.3016C18.3836 28.3878 18.4776 28.4191 18.556 28.4818C18.6578 28.5288 19.8328 29.2651 19.8876 29.3043C19.9973 29.3904 20.3185 29.7273 20.0913 29.9779C19.9973 30.0563 19.9033 30.1738 19.825 30.2129C19.7388 30.3069 19.6213 30.3461 19.5195 30.3853C18.9946 30.5419 18.7205 30.4871 18.6186 30.4871H18.509L14.1536 24.1108Z" stroke="black" stroke-width="0.172333"/>
<path fill-rule="evenodd" clip-rule="evenodd" d="M11.5217 22.9749C11.8507 22.9514 12.4069 23.0533 12.4225 23.0533L13.1589 23.0376C13.5505 23.0063 13.6289 22.8574 13.6915 22.7478C13.8404 22.5284 13.9344 22.4501 14.0519 22.2778C14.2242 22.1524 14.4749 22.4579 14.4827 22.4579C15.1094 23.0533 14.608 23.7739 14.5767 23.7974C14.2634 24.0873 14.1929 24.1029 14.0049 23.9228C13.8169 23.6956 13.762 23.5938 13.6054 23.5154C13.2999 23.3744 12.681 23.4841 12.6654 23.4841L12.3442 23.6094C12.1875 23.6643 12.0935 23.7974 11.835 23.8444C11.5609 23.8601 11.4747 23.8366 11.3415 23.6173C11.1614 23.3431 11.2475 23.0063 11.5217 22.9749Z" fill="#FFE606" stroke="black" stroke-width="0.172333"/>
<path fill-rule="evenodd" clip-rule="evenodd" d="M28.9745 9.45459C28.9275 9.45459 28.481 9.67392 28.4888 9.68959C28.4966 9.69742 28.1128 10.7471 28.105 10.7393C28.0971 10.7236 27.8308 9.82276 27.7995 9.83842C27.776 9.85409 26.836 9.96376 26.8281 9.97159L27.5331 9.07076L27.4313 8.09159L28.199 8.38926L29.0215 7.76259C29.0371 7.75476 28.81 8.60859 28.81 8.60859L29.2173 9.17259C29.2173 9.17259 28.9823 9.40759 28.9745 9.45459Z" fill="#FFEF00" stroke="black" stroke-width="0.172333"/>
<path fill-rule="evenodd" clip-rule="evenodd" d="M19.825 20.2019C20.3812 20.5701 23.7965 21.2908 24.3135 21.3613C25.0694 21.3033 25.8295 21.3883 26.5539 21.6119C27.204 21.8939 27.8699 21.8783 28.3164 21.5336C28.9274 21.2046 29.1467 20.6406 29.413 20.1236C29.4694 20.0007 29.4985 19.8671 29.4985 19.7319C29.4985 19.5967 29.4694 19.4631 29.413 19.3403C29.2094 18.8389 29.3347 18.7136 29.2877 18.4316C30.024 16.8023 30.1807 14.9066 30.353 13.5044C30.3374 12.6819 30.4235 12.0553 30.5097 11.8046C30.8139 11.3596 31.2534 11.0244 31.763 10.8489L34.9512 10.0186C35.7815 9.72092 35.241 9.15692 35.0687 9.20392C34.5204 9.12559 34.536 8.53025 31.9589 9.14909L30.2982 8.93759C30.2982 8.93759 29.9849 8.67909 29.9457 8.70259C29.0449 8.53809 28.9195 9.11775 28.9665 9.47025L29.0919 10.2379C29.0919 10.2379 28.7707 11.3816 28.7864 11.4129C27.9639 12.3373 26.7497 15.2983 26.6714 15.8701C26.6322 16.4028 26.4364 16.3009 26.4834 16.8258C26.4834 17.2331 26.4364 16.9824 26.5695 17.8128C26.6087 18.0634 26.2954 18.0478 26.123 17.9694C24.619 17.0294 23.1934 16.4106 21.6189 15.5803L21.376 15.4549L18.9634 17.4289L19.4177 20.0296C19.5587 20.1079 19.684 20.1471 19.8172 20.2019H19.825Z" fill="white" stroke="black" stroke-width="0.203667"/>
<path fill-rule="evenodd" clip-rule="evenodd" d="M32.8831 10.4651C32.525 10.0725 32.1776 9.67022 31.8413 9.25876L32.4366 9.14126L33.596 10.2614L32.8831 10.4651Z" fill="#FFEC00"/>
<path d="M29.7733 16.8571C29.3751 16.8981 28.9728 16.8581 28.5905 16.7397C28.2082 16.6212 27.8538 16.4267 27.5486 16.1678" stroke="black" stroke-width="0.172333"/>
<path d="M33.8936 10.2849C33.8701 10.2849 33.737 10.2301 33.6586 10.1909C33.596 10.1204 33.3296 9.92459 33.2591 9.83059C33.1718 9.73774 33.0803 9.64888 32.985 9.56426C32.891 9.46243 32.8205 9.40759 32.7265 9.29009C32.6319 9.21852 32.5429 9.13997 32.4601 9.05509M32.9223 10.5043C32.844 10.4338 32.515 10.1126 32.4366 10.0029C32.3414 9.89973 32.2421 9.80043 32.139 9.70526C32.0371 9.58776 31.9588 9.51726 31.857 9.39193C31.7566 9.30449 31.6624 9.21027 31.575 9.10993L32.9223 10.5043Z" stroke="black" stroke-width="0.188"/>
<path d="M26.6007 16.0973C26.632 16.0659 26.773 16.0189 26.867 15.9641C26.9767 15.9093 27.3919 15.8623 27.5877 15.9719M27.8384 12.9639L27.8462 12.9874C27.8149 12.9248 27.8305 12.9639 27.9794 12.9874C28.0734 12.9718 28.3867 13.1206 28.4885 13.3086C28.5512 13.3948 28.6452 13.5279 28.6922 13.6219C28.7079 13.6454 28.7079 13.7003 28.7235 13.7238L27.8384 12.9639ZM31.8569 10.7314L31.8412 10.7158L31.7942 10.6374L31.6532 10.3319C31.5984 10.2379 31.5749 10.1204 31.52 10.0264C31.473 9.91676 31.4025 9.80709 31.3634 9.69742C31.3007 9.57992 31.2694 9.47809 31.2067 9.35276C31.1519 9.25876 31.144 9.19609 31.0814 9.09426L31.2067 9.35276C31.1519 9.25876 31.144 9.19609 31.0814 9.09426L31.8569 10.7314ZM34.5907 10.0578C34.5146 10.0408 34.4409 10.0145 34.3714 9.97942C34.3087 9.92459 34.058 9.74442 33.9797 9.66609C33.8973 9.58371 33.811 9.50529 33.7212 9.43109C33.6429 9.32926 33.5724 9.27442 33.4862 9.17259C33.3971 9.10889 33.3133 9.03816 33.2355 8.96109L34.5907 10.0578ZM30.1884 10.1361C30.3842 10.1048 30.3842 10.0108 30.4312 9.94026C30.4704 9.86192 30.5017 9.66609 30.4469 9.42326L30.3999 9.14909C30.3685 9.07859 30.3685 9.03942 30.3607 8.99242L30.1884 10.1361ZM28.6609 21.1184L28.653 21.1028C28.6844 21.1654 28.6687 21.1263 28.5277 21.0636L28.2535 20.9853L28.6609 21.1184ZM29.3424 19.0818C29.3345 19.0661 28.1439 18.2671 27.9559 18.2201C27.8462 18.1653 27.7444 18.1418 27.619 18.0791L27.3997 17.9694C27.2979 17.9538 27.2117 17.9146 27.1255 17.9146C27.0315 17.8833 26.9767 17.9459 26.8749 17.9303L26.5615 17.9851L29.3424 19.0818Z" stroke="black" stroke-width="0.172333"/>
<path d="M26.6869 21.6198L26.6791 21.6041C26.7104 21.6589 26.6947 21.6276 26.6556 21.5179C26.6477 21.4161 26.6164 21.2829 26.6007 21.1889C26.5772 21.0871 26.5302 20.9774 26.5459 20.9148C26.5067 20.8129 26.5302 20.7346 26.5459 20.6328C26.5694 20.5074 26.5851 20.4213 26.5851 20.3038C26.6007 20.1471 26.5851 20.0531 26.5929 19.9121C26.5537 19.7946 26.5459 19.7006 26.4911 19.5831L26.3344 19.2698L26.1777 18.9956L26.3344 19.2619L26.1777 18.9956M27.7131 18.1104L27.5956 17.5621C27.5493 17.0723 27.5493 16.5792 27.5956 16.0894C27.6112 15.9876 27.5956 15.8231 27.6347 15.7369C27.6582 15.6273 27.6974 15.5254 27.7366 15.4236C27.7836 15.3061 27.8227 15.2043 27.8697 15.1181C27.9246 14.8048 28.8097 13.5436 28.8724 13.4809C28.9218 13.4084 28.9741 13.3379 29.0291 13.2694C29.0526 13.1911 29.1074 13.1284 29.1544 13.0344C29.2327 12.9483 29.2484 12.8778 29.2954 12.7838C29.3032 12.6976 29.3424 12.5566 29.3424 12.4548C29.3659 12.3216 29.3424 12.2198 29.3659 12.1336C29.3502 12.0161 29.4207 10.6296 29.4286 10.5669C29.4521 10.4259 29.5852 9.97942 29.9142 10.0578C30.0317 10.0969 30.1727 10.1204 30.2589 10.1753C30.3686 10.2066 30.4626 10.2928 30.5487 10.3554C30.9404 10.7393 31.0266 10.9978 31.0814 11.0918L31.1362 11.1858L27.7131 18.1104Z" stroke="black" stroke-width="0.172333"/>
<path fill-rule="evenodd" clip-rule="evenodd" d="M28.0109 20.9618C27.8308 20.6798 27.6428 20.1471 27.6349 20.1393L27.2668 19.4969C27.0474 19.1836 26.8751 19.1836 26.7498 19.1836C26.4834 19.1601 26.3659 19.1053 26.1701 19.0974C25.9664 19.0034 26.1153 18.6353 26.1074 18.6274C26.3189 17.7971 27.2041 17.8754 27.2354 17.8911C27.6349 18.0243 27.6819 18.0791 27.6193 18.3298C27.5174 18.6039 27.4626 18.7058 27.4626 18.8781C27.4861 19.2071 27.8934 19.7006 27.8934 19.7084L28.1598 19.9278C28.2851 20.0374 28.4496 20.0531 28.6141 20.2646C28.7629 20.4918 28.7864 20.5779 28.6611 20.7973C28.5044 21.0949 28.1754 21.1811 28.0109 20.9618Z" fill="#FFE606" stroke="black" stroke-width="0.172333"/>
<path fill-rule="evenodd" clip-rule="evenodd" d="M7.30723 13.2146C7.3464 13.2459 7.76156 13.5044 7.77723 13.4888C7.7929 13.4731 8.8739 13.2224 8.85823 13.2381C8.84256 13.2538 8.24723 13.9666 8.27856 13.9823C8.3099 13.9979 8.90523 14.7186 8.9209 14.7264L7.78506 14.6324L7.0174 15.2434L6.84506 14.4444L5.88156 14.0998C5.8659 14.0919 6.70406 13.8178 6.70406 13.8178L6.95473 13.1676C6.95473 13.1676 7.2759 13.2224 7.3229 13.2146H7.30723Z" fill="#FFEF00" stroke="black" stroke-width="0.172333"/>
<path fill-rule="evenodd" clip-rule="evenodd" d="M21.3132 14.9849C21.3132 14.3034 20.0442 11.0526 19.8249 10.5904C19.3621 9.98919 19.0167 9.30625 18.8065 8.57726C18.689 7.87226 18.313 7.32392 17.7882 7.13592C17.1694 6.81476 16.574 6.94009 16.0022 6.99492C15.7202 7.04976 15.4774 7.20642 15.3442 7.42576C15.0309 7.87226 14.8664 7.83309 14.647 8.02892C12.8845 8.30309 11.216 9.21176 9.94703 9.83059C9.4894 10.1766 8.97888 10.4464 8.43519 10.6296C7.89641 10.6217 7.37451 10.4404 6.94686 10.1126L4.51069 7.89576C3.80569 7.37092 3.63336 8.13076 3.76653 8.24826C4.00153 8.74959 3.49236 9.05509 5.42719 10.8803L6.15569 12.3843C6.15569 12.3843 6.11653 12.7916 6.15569 12.8073C6.50036 13.6533 7.06436 13.4418 7.33069 13.2068L7.90253 12.6819C7.90253 12.6819 9.03836 12.3216 9.05403 12.2903C10.276 12.4704 13.425 11.8751 13.942 11.6244C14.412 11.3659 14.4355 11.5853 14.8429 11.2563C15.1797 11.0291 14.9995 11.2093 15.6262 10.6374C15.8142 10.4808 15.963 10.7393 16.0022 10.9273C16.0335 12.7054 16.2999 14.2329 16.4644 16.0033L16.4957 16.2774L19.4724 17.2174L21.3994 15.4158L21.321 14.9771L21.3132 14.9849Z" fill="white" stroke="black" stroke-width="0.203667"/>
<path fill-rule="evenodd" clip-rule="evenodd" d="M6.01474 9.38409C6.03824 9.40759 5.57608 10.9194 5.57608 10.9194L5.15308 10.4886L5.45074 8.89842L6.01474 9.38409Z" fill="#FFEC00"/>
<path d="M13.0728 8.49109C13.6368 9.11776 13.8169 10.1518 13.7151 10.7314" stroke="black" stroke-width="0.172333"/>
<path d="M5.30973 8.63992C5.31756 8.66342 5.34889 8.79659 5.35673 8.88276C5.34106 8.97676 5.31756 9.30576 5.27839 9.42326C5.24928 9.54747 5.22575 9.67293 5.20789 9.79926L5.12956 10.1596C5.11788 10.2811 5.09693 10.4016 5.06689 10.5199M6.03823 9.32926C6.01473 9.43109 5.92073 9.89326 5.88156 10.0108C5.84461 10.1478 5.81325 10.2863 5.78756 10.4259L5.67789 10.8333C5.66223 10.9664 5.63873 11.0918 5.59956 11.2249L6.03823 9.32926Z" stroke="black" stroke-width="0.188"/>
<path d="M14.1693 11.5618C14.1223 11.5461 14.0127 11.4521 13.9187 11.4051C13.809 11.3424 13.5348 11.0213 13.527 10.7941M10.8715 12.2433L10.8793 12.2198C10.848 12.2824 10.8793 12.2433 10.8167 12.1101C10.7462 12.0318 10.707 11.6949 10.801 11.4991C10.8484 11.3846 10.9006 11.2722 10.9577 11.1623C10.9655 11.1388 11.0047 11.1074 11.0203 11.0839L10.8715 12.2433ZM6.80601 10.1048L6.79817 10.1204L6.75117 10.1988C6.70417 10.3084 6.62584 10.4024 6.57884 10.4886C6.53184 10.5904 6.44567 10.6688 6.39867 10.7706L6.21067 11.0839C6.14017 11.1936 6.06967 11.2798 6.00701 11.3973L5.85034 11.6479L6.00701 11.3973L5.85034 11.6479L6.80601 10.1048ZM4.73801 8.17775C4.75367 8.19342 4.79284 8.32659 4.80067 8.41275C4.78501 8.49109 4.76934 8.80442 4.73801 8.90625L4.68317 9.25092C4.65184 9.37625 4.64401 9.46242 4.60484 9.58775C4.60067 9.6983 4.58757 9.80832 4.56567 9.91675L4.73801 8.17775ZM7.21334 11.8281C7.08017 11.6793 7.00184 11.7341 6.91567 11.7263C6.74386 11.7735 6.58901 11.8686 6.46917 12.0004C6.40651 12.0709 6.35167 12.1258 6.26551 12.1963C6.22634 12.2589 6.19501 12.2746 6.15584 12.3138L7.21334 11.8281ZM17.24 7.08109L17.2322 7.10459C17.2635 7.04192 17.24 7.07325 17.2713 7.22209C17.3105 7.32392 17.3105 7.39442 17.3497 7.48842L17.24 7.08109ZM15.1642 7.62942C15.1642 7.64509 15.1407 9.07859 15.2033 9.26659C15.219 9.38409 15.2503 9.47809 15.266 9.62692C15.266 9.70525 15.2895 9.78359 15.2973 9.86192C15.3443 9.95592 15.3522 10.0499 15.407 10.1204C15.4305 10.2223 15.5088 10.2301 15.5558 10.3163C15.6107 10.3868 15.7125 10.5043 15.7752 10.5513L15.1642 7.62942Z" stroke="black" stroke-width="0.172333"/>
<path d="M17.7257 16.0503L17.7492 16.0111C17.71 16.0894 17.7178 16.0659 17.757 15.9406C17.757 15.7996 17.7962 15.6194 17.7962 15.4863C17.8197 15.3453 17.8432 15.1964 17.8432 15.0554C17.8353 14.8988 17.8353 14.7421 17.8118 14.5854C17.8118 14.4444 17.7883 14.2956 17.7883 14.1468C17.7883 14.0058 17.7727 13.8883 17.7413 13.7551C17.7412 13.6291 17.7307 13.5034 17.71 13.3791C17.7178 13.2851 17.6943 13.1911 17.6708 13.1128L17.5768 12.7133L17.4985 12.3921C17.4828 12.2668 17.4202 12.1101 17.3888 12.0083C17.3485 11.9237 17.3195 11.8341 17.3027 11.7419C17.2635 11.6558 17.2087 11.5539 17.2008 11.4599L17.0755 11.1701L16.9658 10.8881C16.9267 10.7784 16.8797 10.6844 16.8483 10.5748C16.8092 10.5356 16.8013 10.4964 16.7857 10.4651M15.2425 9.52509L14.8508 9.91676C14.4663 10.2264 14.0516 10.4967 13.6132 10.7236C13.5192 10.7706 13.4017 10.8803 13.2998 10.8881C13.198 10.9351 13.0883 10.9508 12.9865 10.9743C12.2451 11.1086 11.4897 11.1481 10.7383 11.0918C10.6494 11.09 10.5605 11.0848 10.472 11.0761C10.3937 11.0918 10.3153 11.0839 10.2135 11.0918C10.0882 11.0839 10.0255 11.1074 9.92367 11.1153C9.84533 11.1623 9.71217 11.2014 9.61817 11.2641C9.50067 11.3111 9.42233 11.3816 9.33617 11.4208C9.25783 11.4913 8.0515 12.1884 7.98883 12.2198C7.8635 12.2746 7.417 12.4156 7.2995 12.0944C7.26817 11.9691 7.22117 11.8359 7.21333 11.7419C7.17417 11.6323 7.19767 11.5069 7.19767 11.3973C7.30733 10.8568 7.47967 10.6453 7.52667 10.5513L7.5815 10.4573L15.2425 9.52509ZM18.7283 8.45976L18.7205 8.48326C18.744 8.42842 18.7362 8.45192 18.6578 8.54592C18.5795 8.60859 18.4855 8.70259 18.415 8.78092C18.3367 8.84359 18.274 8.93759 18.2113 8.96892C18.1487 9.04726 18.0703 9.07859 17.9763 9.12559C17.8721 9.16449 17.7723 9.21438 17.6787 9.27442C17.5455 9.33709 17.4672 9.40759 17.3497 9.47809C17.2713 9.57209 17.193 9.63476 17.1303 9.74442C17.0677 9.84626 17.005 9.93242 16.9502 10.0499L16.8092 10.3241L16.9502 10.0499L16.8092 10.3241L18.7283 8.45976Z" stroke="black" stroke-width="0.172333"/>
<path fill-rule="evenodd" clip-rule="evenodd" d="M17.4671 7.71559C17.3304 7.98409 17.1677 8.23858 16.9815 8.47542L16.6525 9.13342C16.5115 9.49376 16.5976 9.64259 16.6603 9.74442C16.7935 9.97942 16.817 10.1048 16.911 10.2771C16.9501 10.4964 16.5585 10.5748 16.5585 10.5826C15.7438 10.8646 15.3286 10.0813 15.3286 10.0421C15.219 9.63476 15.2346 9.57209 15.4853 9.48592C15.7673 9.41542 15.877 9.40759 16.018 9.31359C16.2921 9.10992 16.4801 8.50676 16.488 8.49892L16.5193 8.15426C16.5428 7.99759 16.4723 7.84092 16.5506 7.59026C16.6603 7.33959 16.723 7.27692 16.9736 7.25342C17.3026 7.22992 17.5611 7.45709 17.4671 7.71559Z" fill="#FFE606" stroke="black" stroke-width="0.172333"/>
<path fill-rule="evenodd" clip-rule="evenodd" d="M16.4018 15.6429C16.2765 15.5254 18.7048 16.5203 19.0416 16.5281C19.496 16.3636 21.3838 14.7734 21.3838 14.7734C21.3994 14.9301 21.4699 15.3296 21.6501 15.4158C20.9216 16.0033 20.2636 16.5751 19.5351 17.1626C19.5821 18.1026 19.4176 19.0974 19.8876 20.1393C19.8876 20.1393 19.3236 20.1549 19.3236 20.1393C18.8223 19.6379 18.6421 17.2253 18.6421 17.2253L16.2451 16.1599C16.3626 16.0816 16.4488 15.8544 16.4018 15.6351V15.6429Z" fill="#FFEF00" stroke="black" stroke-width="0.172333"/>
<path d="M20.2246 16.7161C20.388 16.8474 20.5579 16.9702 20.7338 17.0843C22.7861 18.5099 24.8306 18.7371 24.9246 18.7684C25.0029 18.7684 25.1204 18.7919 25.2379 18.8076C25.3319 18.8076 25.4416 18.8389 25.5356 18.8468C25.6453 18.8624 25.8803 18.9094 25.9899 18.9408C26.0369 18.9251 25.9508 18.9173 25.9899 18.9094M18.7128 18.1183C18.7519 18.0869 18.2741 18.3376 18.1488 18.4003C15.9476 19.5753 14.8118 21.2986 14.7413 21.3613L14.5689 21.6276L14.3888 21.8626C14.3008 21.9898 14.2067 22.1127 14.1068 22.2308C14.0911 22.2778 14.1381 22.2073 14.1224 22.2464L18.7128 18.1183Z" stroke="black" stroke-width="0.172333"/>
</g>
</g>
<defs>
<clipPath id="clip0_769_18571">
<path d="M0 20C0 8.95431 8.95431 0 20 0C31.0457 0 40 8.95431 40 20C40 31.0457 31.0457 40 20 40C8.95431 40 0 31.0457 0 20Z" fill="white"/>
</clipPath>
<clipPath id="clip1_769_18571">
<rect width="53.3333" height="40" fill="white" transform="translate(-7 -0.000244141)"/>
</clipPath>
</defs>
</svg>
