<svg width="40" height="40" viewBox="0 0 40 40" fill="none" xmlns="http://www.w3.org/2000/svg">
<g clip-path="url(#clip0_769_18560)">
<path d="M0 20C0 8.95431 8.95431 0 20 0V0C31.0457 0 40 8.95431 40 20V20C40 31.0457 31.0457 40 20 40V40C8.95431 40 0 31.0457 0 20V20Z" fill="#E94E0F"/>
<g clip-path="url(#clip1_769_18560)">
<path fill-rule="evenodd" clip-rule="evenodd" d="M49 40.1064H-9V-0.000244141H49V40.1064Z" fill="white"/>
<path fill-rule="evenodd" clip-rule="evenodd" d="M49 9.02376H-9V-6.24024H49V9.02376ZM49 46.4796H-9V31.2156H49V46.4796ZM10.6981 14.9379L19.429 29.9466L28.3503 15.0084L10.6981 14.9458V14.9379Z" fill="#0000CC"/>
<path fill-rule="evenodd" clip-rule="evenodd" d="M17.7875 24.8941L19.4448 27.6749L21.1419 24.9098L17.7795 24.8941H17.7875Z" fill="white"/>
<path fill-rule="evenodd" clip-rule="evenodd" d="M10.6665 25.1134L19.4054 10.1047L28.3187 25.0507L10.6665 25.1134V25.1134Z" fill="#0000CC"/>
<path fill-rule="evenodd" clip-rule="evenodd" d="M17.7874 15.0084L19.4448 12.2276L21.1418 15.0006L17.7795 15.0084H17.7874ZM14.3141 21.2359L12.5933 24.0559L15.8446 24.0481L14.3141 21.2281V21.2359ZM12.625 16.0268L15.8921 16.0503L14.322 18.8938L12.625 16.0268V16.0268ZM24.6151 21.2751L26.2725 24.0559L22.9657 24.0168L24.6151 21.2751ZM26.2408 16.0268L22.9736 16.0503L24.5438 18.8938L26.2408 16.0268V16.0268ZM17.1768 16.0268L14.9247 20.0531L17.2085 23.9933L21.3955 24.0873L23.9331 20.0531L21.5859 15.9798L17.1768 16.0189V16.0268Z" fill="white"/>
</g>
</g>
<defs>
<clipPath id="clip0_769_18560">
<path d="M0 20C0 8.95431 8.95431 0 20 0V0C31.0457 0 40 8.95431 40 20V20C40 31.0457 31.0457 40 20 40V40C8.95431 40 0 31.0457 0 20V20Z" fill="white"/>
</clipPath>
<clipPath id="clip1_769_18560">
<rect width="53.3333" height="40" fill="white" transform="translate(-7 -0.000244141)"/>
</clipPath>
</defs>
</svg>
