<svg width="40" height="40" viewBox="0 0 40 40" fill="none" xmlns="http://www.w3.org/2000/svg">
<g clip-path="url(#clip0_769_18977)">
<path d="M0 20C0 8.95431 8.95431 0 20 0C31.0457 0 40 8.95431 40 20C40 31.0457 31.0457 40 20 40C8.95431 40 0 31.0457 0 20Z" fill="#E94E0F"/>
<g clip-path="url(#clip1_769_18977)">
<path d="M-7 0H46.3333V40H-7V0Z" fill="white"/>
<path fill-rule="evenodd" clip-rule="evenodd" d="M-13.6667 0V2.66667L15.5333 20L-13.5334 37.3333V40H-9.26675L19.7999 22.6667L48.7332 40H52.9999V37.3333L24.0666 20L53.1332 2.66667V0H48.7332L19.6666 17.3333L-9.26675 0H-13.5334H-13.6667Z" fill="#DF112D"/>
<path d="M23.1583 6.02687C23.9999 9.50181 23.5384 13.7912 19.6562 16.1802C15.8012 13.7912 15.3125 9.50181 16.1813 6.02687C17.1043 5.21243 21.2308 4.69662 23.1583 6.02687Z" fill="#E8112D" stroke="black" stroke-width="0.027148"/>
<path d="M19.6835 5.32102C20.9052 5.29387 22.1268 5.5925 23.1856 6.18975C23.364 5.00527 23.8198 3.87971 24.5159 2.90485C23.8372 2.90485 23.5385 3.25777 23.5385 3.61069C23.3756 3.14918 22.7241 3.17633 22.5069 3.42066C23.2399 3.90932 22.6698 4.77806 22.0182 4.61517C21.7196 4.53373 21.5567 4.31654 21.4753 3.99077C21.5613 3.9739 21.638 3.9256 21.6904 3.85527C21.7428 3.78494 21.7672 3.69762 21.7587 3.61034C21.7502 3.52305 21.7095 3.44204 21.6446 3.3831C21.5797 3.32416 21.4951 3.29151 21.4074 3.29151C21.3197 3.29151 21.2352 3.32416 21.1702 3.3831C21.1053 3.44204 21.0646 3.52305 21.0561 3.61034C21.0477 3.69762 21.072 3.78494 21.1244 3.85527C21.1768 3.9256 21.2535 3.9739 21.3395 3.99077C21.1495 4.26225 20.8237 4.42513 20.498 4.34369C20.145 4.26225 19.9821 3.93647 19.9821 3.66499C19.9821 2.93199 20.688 2.8234 20.9052 2.95914C20.9052 2.47048 20.1179 2.06326 19.8735 2.47048C20.145 1.95467 20.0907 1.30312 19.6564 0.895895C19.4578 1.09569 19.3293 1.35447 19.2901 1.63345C19.2509 1.91243 19.3033 2.19658 19.4392 2.44333C19.1949 2.03611 18.4347 2.44333 18.4347 2.93199C18.6247 2.79625 19.3306 2.90485 19.3306 3.63784C19.3306 3.90932 19.1677 4.2351 18.8419 4.31654C18.6784 4.35441 18.5072 4.34082 18.3517 4.27765C18.1962 4.21447 18.064 4.10479 17.9732 3.96362C18.0275 3.96362 18.0818 3.90932 18.1361 3.85503C18.1905 3.7972 18.2238 3.72272 18.2307 3.64361C18.2375 3.56451 18.2175 3.4854 18.1738 3.41908C18.1302 3.35276 18.0654 3.30311 17.99 3.27814C17.9147 3.25317 17.8331 3.25435 17.7585 3.28148C17.6838 3.30862 17.6205 3.36012 17.5788 3.42768C17.5371 3.49523 17.5194 3.57488 17.5285 3.65375C17.5376 3.73263 17.5731 3.80612 17.6292 3.86235C17.6852 3.91858 17.7586 3.95426 17.8375 3.96362C17.7832 4.2894 17.5931 4.50658 17.2945 4.58802C17.1422 4.62687 16.9809 4.60933 16.8405 4.53864C16.7001 4.46795 16.59 4.34887 16.5305 4.20337C16.4709 4.05787 16.466 3.89576 16.5166 3.74692C16.5672 3.59809 16.6699 3.47257 16.8058 3.39351C16.5886 3.12203 15.9371 3.12203 15.7742 3.58355C15.7742 3.23062 15.4756 2.8777 14.7969 2.8777C15.5026 3.85001 15.9678 4.97575 16.1543 6.16261C17.2373 5.57936 18.4539 5.28924 19.6835 5.32102Z" fill="#F9DD16" stroke="black" stroke-width="0.027148"/>
<path d="M22.6157 8.74166C22.5071 8.74166 22.5071 8.87739 22.4799 8.87739C22.6971 8.87739 22.8057 8.79595 22.86 8.68736V8.85025C23.0229 8.79595 23.0772 8.66021 23.0229 8.57877L23.2129 8.63306C23.1043 8.55162 23.1858 8.36158 22.9957 8.25299C23.05 8.25299 23.1586 8.30729 23.2129 8.38873C23.1858 8.19869 23.1586 8.0901 22.9957 7.98151H23.1315C23.096 7.95792 23.0673 7.92546 23.0483 7.88736C23.0292 7.84927 23.0205 7.80685 23.0229 7.76433C23.0229 7.65573 22.9686 7.65573 22.86 7.68288L22.3713 7.71003C22.0998 7.71003 21.8284 7.71003 21.6112 7.54714C21.9641 7.71003 22.4256 7.38425 22.4256 7.13992C22.4256 6.86844 22.0455 6.59696 21.3397 6.75985C20.6339 6.92274 19.7651 6.86844 19.7651 6.62411C19.7651 6.37978 20.3895 6.35263 20.7153 6.40693C21.0411 6.46122 21.2583 6.48837 21.8555 6.27119C21.7198 6.32548 21.2311 6.35263 20.851 6.24404C20.471 6.13545 19.5479 6.13545 19.5479 6.62411C19.5479 7.13992 20.5253 7.08563 21.394 6.94989C21.8827 6.89559 22.1541 6.94989 22.1541 7.08563C22.1541 7.24852 21.6926 7.30281 21.3397 7.27566C20.967 7.22543 20.588 7.25317 20.2266 7.35711C19.8737 7.4657 19.6294 7.35711 19.2493 7.43855C19.0593 7.43855 18.5978 7.43855 18.3806 7.05848C18.2448 7.16707 17.8376 7.35711 17.7562 7.57429C17.6747 7.73718 17.7562 7.92721 17.8648 8.11725C18.0276 8.33443 17.7833 8.30729 17.5933 8.30729C17.3761 8.30729 17.0503 8.30729 16.8874 8.0901C16.7245 7.92721 16.5345 7.79147 16.3716 7.90007C16.2902 7.98151 16.3716 8.06295 16.4259 8.03581L16.6431 8.0901C16.5995 8.07027 16.5514 8.06233 16.5037 8.0671C16.456 8.07186 16.4104 8.08917 16.3716 8.11725C16.2902 8.17155 16.3716 8.28014 16.4531 8.25299C16.5074 8.22584 16.6431 8.19869 16.7245 8.25299C16.6431 8.25299 16.5345 8.25299 16.5074 8.30729C16.4802 8.36158 16.5074 8.41588 16.5888 8.41588C16.7517 8.41588 16.7788 8.52447 16.9417 8.49732C16.9038 8.4994 16.8669 8.5103 16.8339 8.52915C16.8009 8.548 16.7727 8.57429 16.7517 8.60592C16.9146 8.52447 17.0503 8.71451 17.2404 8.66021C17.1861 8.68736 17.0503 8.7688 17.0503 8.8231C17.1589 8.68736 17.9191 8.93169 17.9191 8.63306L17.8919 8.85025C17.9733 8.79595 18.272 8.7688 18.3806 8.57877C18.3806 8.63306 18.3806 8.71451 18.3263 8.74166C18.4077 8.74166 18.5435 8.68736 18.6792 8.49732C18.7335 8.41588 18.7335 8.36158 18.7335 8.30729C18.8692 8.30729 18.9507 8.28014 19.0593 8.19869C19.1679 8.11725 19.2764 8.28014 19.4665 8.1444C19.6294 8.03581 19.7923 8.1444 19.9009 8.0901C19.9823 8.03581 20.118 8.0901 20.2266 8.03581C20.3352 7.98151 20.4981 8.06296 20.661 7.92722C20.9325 8.03581 21.2854 8.19869 22.0727 8.06296C22.5071 7.98151 22.6699 8.1444 22.6699 8.33443C22.6699 8.49732 22.5614 8.49732 22.5071 8.49732C22.2356 8.52447 22.1541 8.41588 22.0455 8.44303C21.9913 8.47018 21.937 8.57877 22.0455 8.63306C21.9641 8.66021 21.9641 8.74165 22.0184 8.7688C22.0727 8.79595 22.1541 8.7688 22.2356 8.74166C22.127 8.7688 22.0455 8.85025 22.0998 8.93169C22.127 8.98599 22.2084 9.01314 22.2899 8.93169C22.3713 8.8231 22.5071 8.74166 22.6157 8.74166ZM17.5661 6.56982C17.3489 6.48837 17.2946 6.48837 17.3218 6.67841C17.3218 6.75985 17.4032 6.86844 17.4575 6.92274C17.4575 6.84129 17.4847 6.65126 17.5661 6.59696V6.56982Z" fill="#F9DD16" stroke="black" stroke-width="0.027148"/>
<path d="M18.2991 6.59696C18.5163 6.48837 18.5977 6.48837 18.5434 6.67841C18.5434 6.75985 18.462 6.86844 18.4077 6.92274C18.4077 6.8413 18.4077 6.65126 18.2991 6.59696Z" fill="#F9DD16" stroke="black" stroke-width="0.027148"/>
<path d="M17.9462 6.46122C18.3806 6.46122 18.4348 6.67841 18.4077 6.92274C18.4077 7.19422 18.272 7.08563 18.1905 7.4657C18.1634 7.57429 18.0548 7.60144 17.919 7.60144C17.8376 7.60144 17.729 7.60144 17.6747 7.43855C17.5933 7.08563 17.4575 7.16707 17.4575 6.89559C17.4575 6.67841 17.5118 6.46122 17.9462 6.46122Z" fill="#F9DD16" stroke="black" stroke-width="0.027148"/>
<path d="M16.8331 7.4657C16.7245 7.4114 16.6431 7.4657 16.5888 7.4657C16.7517 7.49285 16.7517 7.68288 17.0775 7.73718C16.996 7.73718 16.9689 7.79147 16.8874 7.73718C17.0232 7.84577 17.1589 7.98151 17.4847 7.98151C17.6747 7.98151 17.539 8.06296 17.4304 8.00866C17.539 8.1444 17.7833 8.03581 17.9462 8.28014C17.9462 8.0901 17.6747 7.81862 17.8105 7.62859C17.3489 7.60144 17.3218 7.35711 17.0775 7.16707C16.8603 7.00418 16.8331 6.8413 16.7517 6.54267C16.7245 6.40693 16.5616 6.32548 16.4802 6.35263C16.3988 6.35263 16.3445 6.43407 16.4259 6.48837C16.4802 6.54267 16.5888 6.54267 16.5888 6.67841C16.5073 6.56982 16.3716 6.54267 16.3173 6.59696C16.2902 6.65126 16.3173 6.7327 16.3716 6.7327C16.5073 6.7327 16.4259 6.89559 16.5616 7.00418C16.4259 6.86844 16.3173 6.84129 16.2359 6.92274C16.2087 6.97703 16.2359 7.05848 16.3445 7.05848C16.4802 7.05848 16.6159 7.38425 16.8331 7.4657ZM20.3624 8.71451C20.3081 8.71451 20.3352 8.85025 20.2266 8.85025C20.4438 8.85025 20.5795 8.79595 20.661 8.71451L20.6067 8.85025C20.7153 8.7688 21.0139 8.74165 21.1497 8.7688C21.2854 8.79595 21.3125 8.74165 21.3668 8.66021C21.4211 8.55162 21.3668 8.49732 21.2854 8.44303C21.204 8.36158 21.1768 8.25299 21.204 8.0901C20.8239 7.54714 20.118 7.81862 20.118 8.03581C20.3624 8.33444 20.3895 8.30729 20.6067 8.33444C20.7967 8.38873 20.9325 8.38873 20.7967 8.49732C20.7424 8.55162 20.5253 8.49732 20.3895 8.52447C20.0366 8.52447 19.8465 8.28014 19.7651 8.41588C19.6837 8.52447 19.7651 8.57877 19.928 8.57877C19.8194 8.57877 19.6565 8.57877 19.6837 8.68736C19.738 8.87739 19.9008 8.66021 19.9823 8.71451C19.928 8.71451 19.8194 8.74166 19.8194 8.79595C19.8194 8.85025 19.9551 8.93169 20.0909 8.79595C20.1697 8.73921 20.2653 8.71054 20.3624 8.71451Z" fill="#F9DD16" stroke="black" stroke-width="0.027148"/>
<path d="M18.0004 6.8413V6.92274C18.0275 7.11278 18.0818 7.19422 17.9189 7.19422C17.7832 7.19422 17.8375 7.11278 17.8646 6.92274V6.8413M20.6609 7.92722C20.5523 7.87292 20.4166 7.84578 20.2808 7.87292L20.6609 7.92722ZM18.7605 7.87292C18.6519 8.09011 18.7062 8.1987 18.7334 8.30729L18.7605 7.87292ZM17.6475 6.787C17.7018 6.8413 17.7561 6.73271 17.8646 6.8413C17.8375 6.81415 17.7832 6.92274 17.7018 6.8413L17.6475 6.787ZM18.2447 6.81415C18.1633 6.81415 18.109 6.73271 18.0004 6.8413C18.0275 6.81415 18.0818 6.92274 18.1633 6.8413L18.2447 6.81415Z" stroke="black" stroke-width="0.027148"/>
<path d="M17.946 7.52C18.0546 7.52 18.1089 7.52 18.1089 7.35711C18.1089 7.30281 18.1904 7.27567 18.1361 7.16707C18.1904 7.27567 17.946 7.27567 17.946 7.22137C17.946 7.27567 17.6746 7.27567 17.7289 7.16707C17.7017 7.27567 17.7832 7.30281 17.756 7.35711C17.756 7.52 17.8103 7.52 17.946 7.52Z" fill="#FF0016" stroke="black" stroke-width="0.027148"/>
<path d="M17.8105 7.19422L17.5391 7.11278L17.8105 7.19422ZM17.8105 7.19422H17.5391H17.8105ZM17.8105 7.22137L17.5662 7.30282L17.8105 7.22137ZM18.0277 7.19422L18.2992 7.11278L18.0277 7.19422ZM18.0277 7.19422H18.3535H18.0277ZM18.0277 7.22137L18.2992 7.30282L18.0277 7.22137Z" fill="black"/>
<path d="M18.0277 7.22137L18.2992 7.30282M17.8105 7.19422L17.5391 7.11278L17.8105 7.19422ZM17.8105 7.19422H17.5391H17.8105ZM17.8105 7.22137L17.5662 7.30282L17.8105 7.22137ZM18.0277 7.19422L18.2992 7.11278L18.0277 7.19422ZM18.0277 7.19422H18.3535H18.0277Z" stroke="black" stroke-width="0.027148"/>
<path d="M16.4802 6.35263C16.3987 6.24404 16.2087 6.35263 16.2087 6.46123C16.263 6.37978 16.3716 6.48837 16.453 6.46123C16.4802 6.46123 16.5345 6.40693 16.4802 6.35263ZM16.3987 6.59697C16.3173 6.48837 16.1001 6.59697 16.1001 6.70556C16.1544 6.62411 16.263 6.73271 16.3444 6.70556C16.3716 6.70556 16.4259 6.62411 16.3987 6.59697ZM16.3444 6.92274C16.2358 6.81415 16.0458 6.92274 16.0729 7.05848C16.1272 6.97704 16.2358 7.05848 16.2901 7.05848C16.3444 7.03133 16.3716 6.94989 16.3173 6.92274H16.3444ZM16.4259 7.92722C16.3173 7.81863 16.1544 7.95437 16.1544 8.09011C16.2087 7.98151 16.3444 8.09011 16.4259 8.03581C16.4259 8.03581 16.4802 7.95437 16.4259 7.90007V7.92722ZM16.4259 8.11725C16.2901 8.09011 16.1544 8.28014 16.2358 8.38873C16.2358 8.25299 16.3987 8.30729 16.453 8.25299L16.4259 8.11725ZM16.5887 8.30729C16.453 8.25299 16.3173 8.41588 16.3987 8.52447C16.3987 8.44303 16.5616 8.47018 16.5887 8.41588V8.28014V8.30729ZM19.7651 8.60592C19.6293 8.57877 19.4936 8.74166 19.575 8.8774C19.575 8.74166 19.7379 8.79595 19.7922 8.74166L19.7651 8.60592ZM19.928 8.76881C19.7922 8.74166 19.6836 8.93169 19.7651 9.04029C19.7651 8.90455 19.928 8.93169 19.9551 8.8774C19.9822 8.85025 19.9822 8.76881 19.9551 8.76881H19.928ZM19.8194 8.38873C19.7108 8.33444 19.5479 8.49733 19.575 8.60592C19.6293 8.49733 19.7651 8.57877 19.8194 8.52447V8.41588V8.38873ZM22.0726 8.66021C21.9641 8.63307 21.8555 8.8231 21.9098 8.93169C21.9098 8.8231 22.0726 8.85025 22.1269 8.79595C22.1269 8.74166 22.1269 8.66021 22.0726 8.66021ZM22.0726 8.47018C21.9641 8.38873 21.8012 8.55162 21.8555 8.66021C21.9098 8.57877 22.0455 8.63307 22.0998 8.57877V8.44303L22.0726 8.47018ZM22.1812 8.8231C22.0455 8.8231 21.9369 9.01314 22.0183 9.09458C22.0183 8.98599 22.1812 9.01314 22.2084 8.95884C22.2355 8.90455 22.2084 8.85025 22.1812 8.8231ZM17.9461 7.41141C18.0276 7.41141 18.0547 7.43855 18.0547 7.60144C18.0547 7.87292 18.0547 8.03581 17.9461 8.03581C17.8647 8.03581 17.8647 7.90007 17.8647 7.68289C17.8647 7.57429 17.8647 7.49285 17.8376 7.52C17.8376 7.43855 17.8647 7.41141 17.9461 7.41141Z" fill="#0051BA"/>
<path d="M22.208 11.5922C22.1266 11.5922 22.1266 11.7008 22.0995 11.7008C22.2895 11.7008 22.3709 11.6465 22.4252 11.5379V11.6737C22.5881 11.6465 22.6424 11.5108 22.5881 11.4293L22.751 11.4836C22.6696 11.4293 22.751 11.2393 22.561 11.1579C22.6153 11.1579 22.6967 11.185 22.751 11.2664C22.751 11.1036 22.6967 10.995 22.561 10.9135H22.6696C22.6368 10.8887 22.6118 10.8551 22.5974 10.8167C22.583 10.7783 22.5798 10.7365 22.5881 10.6963C22.5881 10.6149 22.5338 10.6149 22.4252 10.642H21.9909C21.7465 10.642 21.5022 10.642 21.3122 10.5063C21.6379 10.6692 22.0452 10.3706 22.0452 10.1534C22.0452 9.8819 21.6922 9.66471 21.0678 9.80045C20.4434 9.96334 19.6561 9.90904 19.6561 9.69186C19.6561 9.47468 20.1991 9.42038 20.4977 9.47468C20.7963 9.52897 20.9864 9.55612 21.5293 9.36608C21.4208 9.42038 20.9864 9.44753 20.6335 9.33894C20.2805 9.23034 19.4661 9.23034 19.4661 9.69186C19.4661 10.1534 20.3348 10.0991 21.095 9.96334C21.5565 9.93619 21.8008 9.96334 21.8008 10.0991C21.8008 10.2348 21.3936 10.2891 21.0678 10.262C20.731 10.219 20.3889 10.2468 20.0634 10.3434C19.7376 10.452 19.5204 10.3434 19.1946 10.4249C19.0046 10.4249 18.5974 10.4249 18.3802 10.0719C18.2716 10.1805 17.9187 10.3434 17.8372 10.5334C17.7829 10.6963 17.8372 10.8592 17.9458 11.0221C18.0815 11.2121 17.8644 11.185 17.6743 11.185C17.5114 11.185 17.2128 11.185 17.0499 10.995C16.9142 10.8592 16.7513 10.7235 16.5884 10.8321C16.5341 10.9135 16.5884 10.9678 16.6427 10.9407L16.8327 10.995C16.7932 10.9775 16.7498 10.9708 16.7069 10.9756C16.664 10.9803 16.6231 10.9964 16.5884 11.0221C16.5341 11.0764 16.5884 11.185 16.6699 11.1579C16.7241 11.1307 16.8327 11.1036 16.9142 11.1579L16.7241 11.185C16.697 11.2121 16.7241 11.2936 16.8056 11.2936C16.9413 11.2936 16.9685 11.4022 17.1042 11.375C17.0728 11.376 17.042 11.3838 17.0138 11.3979C16.9857 11.4119 16.961 11.4319 16.9413 11.4565C17.0771 11.4022 17.2128 11.5651 17.3757 11.5108C17.3214 11.5379 17.2128 11.6194 17.2128 11.6737C17.2943 11.5379 18.0001 11.7551 18.0001 11.4836L17.973 11.6737C18.0273 11.6465 18.2987 11.6194 18.4073 11.4293C18.4073 11.4836 18.4073 11.5651 18.353 11.5922C18.4345 11.5922 18.5431 11.5379 18.6788 11.375C18.7331 11.2936 18.7331 11.2393 18.7331 11.185C18.8417 11.185 18.9231 11.185 19.0046 11.1036C19.1132 11.0221 19.2218 11.185 19.3847 11.0493C19.5204 10.9407 19.6561 11.0493 19.7647 10.995C19.8462 10.9407 19.9819 10.995 20.0634 10.9407C20.1448 10.8864 20.3348 10.9678 20.4706 10.8592C20.7149 10.9407 21.0135 11.1036 21.7194 10.9678C22.1266 10.9135 22.2623 11.0493 22.2623 11.2393C22.2623 11.375 22.1809 11.375 22.1266 11.375C21.8551 11.375 21.8008 11.2936 21.6922 11.3207C21.6651 11.3207 21.6108 11.4293 21.6922 11.4836C21.6379 11.5108 21.6379 11.5922 21.6922 11.6194C21.7465 11.6465 21.8008 11.6194 21.8823 11.5922C21.7737 11.5922 21.6922 11.6737 21.7465 11.7551C21.7737 11.8094 21.8551 11.8366 21.9366 11.7551C21.9909 11.6737 22.1266 11.5922 22.208 11.5922ZM17.6743 9.63756C17.4843 9.55612 17.4028 9.55612 17.4571 9.71901C17.4571 9.80045 17.5386 9.90904 17.5657 9.96334C17.5657 9.8819 17.5929 9.69186 17.6743 9.66471V9.63756Z" fill="#F9DD16" stroke="black" stroke-width="0.027148"/>
<path d="M18.3531 9.66471C18.516 9.55612 18.6246 9.55612 18.5431 9.71901C18.5431 9.80045 18.4888 9.90904 18.4345 9.96334C18.4345 9.8819 18.4345 9.69186 18.3259 9.66471H18.3531Z" fill="#F9DD16" stroke="black" stroke-width="0.027148"/>
<path d="M18.0272 9.52897C18.4073 9.52897 18.4616 9.71901 18.4344 9.96334C18.4344 10.2077 18.2987 10.0991 18.2444 10.452C18.2172 10.5334 18.1086 10.5606 17.9729 10.5606C17.9186 10.5606 17.81 10.5606 17.7829 10.4249C17.7014 10.0991 17.5657 10.1534 17.5657 9.93619C17.5657 9.71901 17.62 9.52897 18.0272 9.52897Z" fill="#F9DD16" stroke="black" stroke-width="0.027148"/>
<path d="M16.9957 10.452C16.9143 10.3977 16.8328 10.452 16.8057 10.452C16.9414 10.452 16.9414 10.642 17.2401 10.6963H17.05C17.1858 10.7778 17.3215 10.9135 17.593 10.9135C17.783 10.9135 17.6473 10.9678 17.5387 10.9135C17.6473 11.0493 17.8645 10.9407 18.0273 11.185C18.0273 10.995 17.7559 10.7506 17.8916 10.5877C17.4844 10.5606 17.4572 10.3163 17.2401 10.1805C17.05 10.0176 17.0229 9.8819 16.9414 9.61042C16.9143 9.47468 16.7785 9.42038 16.6699 9.44753C16.6156 9.44753 16.5614 9.50182 16.6699 9.55612C16.6699 9.61042 16.8057 9.61042 16.8057 9.71901C16.7242 9.63756 16.5885 9.61042 16.5342 9.66471C16.5342 9.71901 16.5342 9.7733 16.5885 9.7733C16.7242 9.7733 16.6428 9.93619 16.7785 10.0448C16.6428 9.90904 16.5614 9.8819 16.4799 9.96334C16.4528 9.99049 16.4799 10.0719 16.5614 10.0719C16.6971 10.0719 16.8328 10.3434 17.0229 10.452H16.9957ZM20.1992 11.5379C20.1449 11.5379 20.172 11.6737 20.0634 11.6737C20.2535 11.6737 20.3892 11.6465 20.4707 11.5651L20.4164 11.6737C20.4978 11.6194 20.7693 11.5922 20.905 11.6194C21.0408 11.6465 21.0408 11.5922 21.0951 11.5108C21.1494 11.4293 21.0951 11.375 21.0136 11.3207C20.9593 11.2393 20.9322 11.1579 20.9593 10.995C20.6064 10.5063 19.982 10.7506 19.982 10.9407C20.1992 11.2121 20.2263 11.2121 20.4164 11.2121C20.5793 11.2664 20.6878 11.2664 20.5793 11.375C20.525 11.4293 20.3349 11.375 20.2263 11.375C19.9006 11.375 19.7377 11.185 19.6562 11.2936C19.5748 11.4022 19.6562 11.4293 19.792 11.4293C19.7105 11.4293 19.5476 11.4293 19.5748 11.5379C19.6291 11.7008 19.7648 11.5379 19.8463 11.5379C19.792 11.5379 19.7105 11.5922 19.7105 11.6465C19.7105 11.6737 19.8191 11.7551 19.9549 11.6465C20.0243 11.5918 20.1107 11.563 20.1992 11.5651V11.5379Z" fill="#F9DD16" stroke="black" stroke-width="0.027148"/>
<path d="M18.0547 9.85474V9.96333C18.0819 10.1262 18.1362 10.2077 18.0004 10.2077C17.8647 10.2077 17.919 10.1262 17.9461 9.93618V9.88188M20.4709 10.8592C20.3627 10.8018 20.2384 10.7827 20.118 10.8049L20.4709 10.8592ZM18.7606 10.8049C18.652 10.995 18.7063 11.0764 18.7334 11.185L18.7606 10.8049ZM17.7561 9.82759C17.7833 9.88188 17.8375 9.77329 17.9461 9.88188C17.919 9.85474 17.8647 9.96333 17.7833 9.88188L17.7561 9.82759ZM18.2719 9.85474C18.2176 9.85474 18.1633 9.77329 18.0547 9.85474C18.0819 9.85474 18.1362 9.96333 18.2176 9.85474H18.2719Z" stroke="black" stroke-width="0.027148"/>
<path d="M18.0276 10.4791C18.109 10.4791 18.1633 10.4791 18.1633 10.3434C18.1633 10.2891 18.2448 10.262 18.1633 10.1805C18.2448 10.262 18.0276 10.262 18.0276 10.2077C18.0276 10.262 17.7561 10.262 17.8104 10.1805C17.8104 10.262 17.8647 10.2891 17.8375 10.3434C17.8375 10.4791 17.8918 10.4791 18.0276 10.4791Z" fill="#FF0016" stroke="black" stroke-width="0.027148"/>
<path d="M17.8918 10.2077L17.6475 10.1262L17.8918 10.2077ZM17.8918 10.2077H17.6475H17.8918ZM17.8918 10.2077L17.6746 10.2891L17.8918 10.2077ZM18.0818 10.2077L18.3533 10.1262L18.0818 10.2077ZM18.0818 10.2077H18.3805H18.0818ZM18.109 10.2077L18.3262 10.2891L18.109 10.2077Z" fill="black"/>
<path d="M18.109 10.2077L18.3262 10.2891M17.8918 10.2077L17.6475 10.1262L17.8918 10.2077ZM17.8918 10.2077H17.6475H17.8918ZM17.8918 10.2077L17.6746 10.2891L17.8918 10.2077ZM18.0818 10.2077L18.3533 10.1262L18.0818 10.2077ZM18.0818 10.2077H18.3805H18.0818Z" stroke="black" stroke-width="0.027148"/>
<path d="M16.6972 9.44752C16.6157 9.33892 16.4257 9.44752 16.4257 9.52896C16.5071 9.47466 16.5886 9.55611 16.67 9.52896C16.67 9.52896 16.7515 9.47466 16.67 9.44752H16.6972ZM16.6157 9.6647C16.5614 9.55611 16.3442 9.6647 16.3442 9.74614C16.3985 9.69185 16.5071 9.77329 16.5614 9.74614C16.5886 9.74614 16.6429 9.69185 16.6157 9.6647ZM16.5614 9.93618C16.48 9.85474 16.2899 9.93618 16.3171 10.0719C16.3714 9.99048 16.48 10.0719 16.5343 10.0719C16.5614 10.0719 16.5886 9.96333 16.5343 9.96333L16.5614 9.93618ZM16.6429 10.8592C16.5614 10.7506 16.3985 10.8592 16.3985 10.995C16.4528 10.9135 16.5614 10.995 16.67 10.9407V10.8592H16.6429ZM16.6429 11.0221C16.5343 11.0221 16.3985 11.185 16.48 11.2936C16.48 11.1578 16.6157 11.185 16.67 11.1578V11.0221H16.6429ZM16.8057 11.185C16.67 11.1578 16.5343 11.2936 16.6157 11.4022C16.6157 11.3207 16.7786 11.3479 16.8057 11.2936V11.185ZM19.6563 11.4565C19.5205 11.4565 19.3848 11.5922 19.4934 11.7279C19.4934 11.5922 19.6291 11.6465 19.6834 11.5922L19.6563 11.4565ZM19.792 11.6194C19.6834 11.5922 19.5748 11.7551 19.6563 11.8637C19.6563 11.7279 19.792 11.7551 19.8192 11.7008V11.6194H19.792ZM19.7106 11.2664C19.602 11.2121 19.4391 11.375 19.4934 11.4565C19.5205 11.375 19.6563 11.4565 19.7106 11.4022V11.2936V11.2664ZM21.7195 11.5379C21.6381 11.4836 21.5295 11.6737 21.5838 11.7551C21.5838 11.6737 21.7195 11.6737 21.7738 11.6465C21.7738 11.5922 21.7738 11.5108 21.7195 11.5108V11.5379ZM21.7195 11.3479C21.6381 11.2664 21.4752 11.4293 21.5295 11.5108C21.5838 11.4293 21.6924 11.5108 21.7467 11.4293V11.3207L21.7195 11.3479ZM21.8281 11.6737C21.6924 11.6737 21.6109 11.8365 21.6924 11.918C21.6924 11.8094 21.8281 11.8365 21.8553 11.7822L21.8281 11.6737ZM18.0274 10.3977C18.0817 10.3977 18.1089 10.3977 18.1089 10.5606C18.1089 10.8049 18.1089 10.9407 18.0274 10.9407C17.946 10.9407 17.946 10.8321 17.946 10.642C17.946 10.5334 17.946 10.452 17.9188 10.4791C17.9188 10.4248 17.9188 10.3977 18.0274 10.3977Z" fill="#0051BA"/>
<path d="M21.5484 14.0219C21.4756 14.0219 21.4756 14.1237 21.4574 14.1237C21.603 14.1237 21.6757 14.0627 21.7121 13.9812V14.1034C21.8212 14.0627 21.8576 13.9609 21.8212 13.8998L21.9485 13.9405C21.8758 13.8794 21.9304 13.7369 21.803 13.6554C21.8394 13.6554 21.9122 13.6962 21.9485 13.7572C21.9304 13.6147 21.9122 13.5333 21.803 13.4518H21.894C21.8702 13.4341 21.851 13.4098 21.8382 13.3812C21.8255 13.3526 21.8196 13.3208 21.8212 13.2889C21.8212 13.2075 21.7848 13.2075 21.7121 13.2279L21.3847 13.2482C21.2028 13.2482 21.0209 13.2482 20.8754 13.1261C21.1118 13.2482 21.4211 13.0039 21.4211 12.8206C21.4211 12.617 21.1664 12.4134 20.6935 12.5356C20.2206 12.6578 19.6385 12.617 19.6385 12.4338C19.6385 12.2505 20.0569 12.2302 20.2751 12.2709C20.4934 12.3116 20.6389 12.332 21.0391 12.1691C20.9481 12.2098 20.6207 12.2302 20.3661 12.1487C20.1114 12.0673 19.493 12.0673 19.493 12.4338C19.493 12.8206 20.1478 12.7799 20.7299 12.6781C21.0573 12.6374 21.2392 12.6781 21.2392 12.7799C21.2392 12.9021 20.93 12.9428 20.6935 12.9224C20.4438 12.8848 20.1899 12.9056 19.9477 12.9835C19.7113 13.065 19.5476 12.9835 19.2929 13.0446C19.1656 13.0446 18.8564 13.0446 18.7109 12.7596C18.6199 12.841 18.3471 12.9835 18.2925 13.1464C18.238 13.2686 18.2925 13.4111 18.3653 13.5536C18.4744 13.7165 18.3107 13.6962 18.1834 13.6962C18.0379 13.6962 17.8196 13.6962 17.7105 13.5333C17.6013 13.4111 17.474 13.3093 17.3649 13.3907C17.3103 13.4518 17.3649 13.5129 17.4013 13.4926L17.5468 13.5333C17.5175 13.5184 17.4853 13.5124 17.4534 13.516C17.4214 13.5196 17.3909 13.5326 17.3649 13.5536C17.3103 13.5944 17.3649 13.6758 17.4194 13.6554C17.4558 13.6351 17.5468 13.6147 17.6013 13.6554C17.5468 13.6554 17.474 13.6554 17.4558 13.6962C17.4376 13.7369 17.4558 13.7776 17.5104 13.7776C17.6195 13.7776 17.6377 13.859 17.7469 13.8387C17.7214 13.8402 17.6967 13.8484 17.6746 13.8626C17.6525 13.8767 17.6336 13.8964 17.6195 13.9201C17.7287 13.859 17.8196 14.0016 17.9469 13.9609C17.9106 13.9812 17.8196 14.0423 17.8196 14.083C17.8924 13.9812 18.4017 14.1645 18.4017 13.9405L18.3835 14.1034C18.438 14.0627 18.6381 14.0423 18.7109 13.8998C18.7109 13.9405 18.7109 14.0016 18.6745 14.0219C18.7291 14.0219 18.82 13.9812 18.911 13.8387C18.9473 13.7776 18.9473 13.7369 18.9473 13.6962C19.0383 13.6962 19.0929 13.6758 19.1656 13.6147C19.2384 13.5536 19.3111 13.6758 19.4384 13.574C19.5476 13.4926 19.6567 13.574 19.7295 13.5333C19.784 13.4926 19.875 13.5333 19.9477 13.4926C20.0205 13.4518 20.1296 13.5129 20.2388 13.4111C20.4207 13.4926 20.6571 13.6147 21.1846 13.5129C21.4756 13.4518 21.5848 13.574 21.5848 13.7165C21.5848 13.8387 21.512 13.8387 21.4756 13.8387C21.2937 13.859 21.2392 13.7776 21.1664 13.798C21.13 13.8183 21.0937 13.8998 21.1664 13.9405C21.1119 13.9609 21.1118 14.0219 21.1482 14.0423C21.1846 14.0627 21.2392 14.0423 21.2937 14.0219C21.221 14.0423 21.1664 14.1034 21.2028 14.1645C21.221 14.2052 21.2756 14.2255 21.3301 14.1645C21.3847 14.083 21.4756 14.0219 21.5484 14.0219ZM18.1652 12.3931C18.0197 12.332 17.9833 12.332 18.0015 12.4745C18.0015 12.5356 18.0561 12.617 18.0924 12.6578C18.0924 12.5967 18.1106 12.4541 18.1652 12.4134V12.3931Z" fill="#F9DD16" stroke="black" stroke-width="0.0192445"/>
<path d="M18.6562 12.4134C18.8018 12.332 18.8563 12.332 18.82 12.4745C18.82 12.5356 18.7654 12.617 18.729 12.6578C18.729 12.5967 18.729 12.4541 18.6562 12.4134Z" fill="#F9DD16" stroke="black" stroke-width="0.0192445"/>
<path d="M18.4197 12.3116C18.7107 12.3116 18.7471 12.4745 18.7289 12.6577C18.7289 12.8614 18.638 12.7799 18.5834 13.065C18.5652 13.1464 18.4924 13.1668 18.4015 13.1668C18.3469 13.1668 18.2742 13.1668 18.2378 13.0446C18.1832 12.7799 18.0923 12.841 18.0923 12.6374C18.0923 12.4745 18.1287 12.3116 18.4197 12.3116Z" fill="#F9DD16" stroke="black" stroke-width="0.0192445"/>
<path d="M17.6741 13.065C17.6013 13.0242 17.5467 13.065 17.5104 13.065C17.6195 13.0853 17.6195 13.2279 17.8378 13.2686C17.7832 13.2686 17.765 13.3093 17.7104 13.2686C17.8014 13.35 17.8923 13.4518 18.1106 13.4518C18.2379 13.4518 18.147 13.5129 18.0742 13.4722C18.147 13.574 18.3107 13.4926 18.4198 13.6758C18.4198 13.5333 18.2379 13.3297 18.3289 13.1871C18.0197 13.1668 18.0015 12.9835 17.8378 12.841C17.6922 12.7188 17.6741 12.5967 17.6195 12.3727C17.6013 12.2709 17.4922 12.2098 17.4376 12.2302C17.383 12.2302 17.3467 12.2913 17.4012 12.332C17.4376 12.3727 17.5104 12.3727 17.5104 12.4745C17.4558 12.3931 17.3648 12.3727 17.3285 12.4134C17.3103 12.4541 17.3285 12.5152 17.3648 12.5152C17.4558 12.5152 17.4012 12.6374 17.4922 12.7188C17.4012 12.617 17.3285 12.5967 17.2739 12.6578C17.2557 12.6985 17.2739 12.7596 17.3467 12.7596C17.4376 12.7596 17.5285 13.0039 17.6741 13.065ZM20.0386 14.0016C20.0023 14.0016 20.0205 14.1034 19.9477 14.1034C20.0932 14.1034 20.1842 14.0627 20.2387 14.0016L20.2024 14.1034C20.2751 14.0423 20.4752 14.0219 20.5661 14.0423C20.6571 14.0627 20.6753 14.0219 20.7116 13.9609C20.748 13.8794 20.7116 13.8387 20.6571 13.798C20.6025 13.7369 20.5843 13.6554 20.6025 13.5333C20.3479 13.1261 19.8749 13.3297 19.8749 13.4926C20.0386 13.7165 20.0568 13.6962 20.2024 13.7165C20.3297 13.7572 20.4206 13.7572 20.3297 13.8387C20.2933 13.8794 20.1478 13.8387 20.0568 13.859C19.8204 13.859 19.6931 13.6758 19.6385 13.7776C19.5839 13.859 19.6385 13.8998 19.7476 13.8998C19.6749 13.8998 19.5657 13.8998 19.5839 13.9812C19.6203 14.1237 19.7294 13.9609 19.784 14.0016C19.7476 14.0016 19.6749 14.0219 19.6749 14.0627C19.6749 14.1034 19.7658 14.1645 19.8568 14.0627C19.9096 14.0201 19.9736 13.9986 20.0386 14.0016Z" fill="#F9DD16" stroke="black" stroke-width="0.0192445"/>
<path d="M18.4562 12.5967V12.6578C18.4744 12.8003 18.5108 12.8614 18.4016 12.8614C18.3107 12.8614 18.347 12.8003 18.3652 12.6578V12.5967M20.2387 13.4111C20.166 13.3704 20.075 13.35 19.9841 13.3704L20.2387 13.4111ZM18.9655 13.3704C18.8927 13.5333 18.9291 13.6147 18.9473 13.6962L18.9655 13.3704ZM18.2197 12.556C18.2561 12.5967 18.2925 12.5152 18.3652 12.5967C18.347 12.5763 18.3107 12.6578 18.2561 12.5967L18.2197 12.556ZM18.6199 12.5763C18.5653 12.5763 18.5289 12.5152 18.4562 12.5967C18.4744 12.5763 18.5108 12.6578 18.5653 12.5967L18.6199 12.5763Z" stroke="black" stroke-width="0.0192445"/>
<path d="M18.4199 13.1057C18.4926 13.1057 18.529 13.1057 18.529 12.9835C18.529 12.9428 18.5836 12.9225 18.5472 12.841C18.5836 12.9225 18.4199 12.9225 18.4199 12.8817C18.4199 12.9225 18.238 12.9225 18.2743 12.841C18.2562 12.9225 18.3107 12.9428 18.2925 12.9835C18.2925 13.1057 18.3289 13.1057 18.4199 13.1057Z" fill="#FF0016" stroke="black" stroke-width="0.0192445"/>
<path d="M18.3289 12.8614L18.147 12.8003L18.3289 12.8614ZM18.3289 12.8614H18.147H18.3289ZM18.3289 12.8817L18.1652 12.9428L18.3289 12.8817ZM18.4744 12.8614L18.6563 12.8003L18.4744 12.8614ZM18.4744 12.8614H18.6926H18.4744ZM18.4744 12.8817L18.6563 12.9428L18.4744 12.8817Z" fill="black"/>
<path d="M18.4744 12.8817L18.6563 12.9428M18.3289 12.8614L18.147 12.8003L18.3289 12.8614ZM18.3289 12.8614H18.147H18.3289ZM18.3289 12.8817L18.1652 12.9428L18.3289 12.8817ZM18.4744 12.8614L18.6563 12.8003L18.4744 12.8614ZM18.4744 12.8614H18.6926H18.4744Z" stroke="black" stroke-width="0.0192445"/>
<path d="M17.4377 12.2302C17.3831 12.1487 17.2558 12.2302 17.2558 12.3116C17.2922 12.2505 17.3649 12.332 17.4195 12.3116C17.4377 12.3116 17.4741 12.2709 17.4377 12.2302ZM17.3831 12.4134C17.3285 12.332 17.183 12.4134 17.183 12.4949C17.2194 12.4338 17.2922 12.5152 17.3467 12.4949C17.3649 12.4949 17.4013 12.4338 17.3831 12.4134ZM17.3467 12.6578C17.274 12.5763 17.1467 12.6578 17.1648 12.7596C17.2012 12.6985 17.274 12.7596 17.3104 12.7596C17.3467 12.7392 17.3649 12.6781 17.3285 12.6578H17.3467ZM17.4013 13.4111C17.3285 13.3297 17.2194 13.4315 17.2194 13.5333C17.2558 13.4518 17.3467 13.5333 17.4013 13.4926C17.4013 13.4926 17.4377 13.4315 17.4013 13.3908V13.4111ZM17.4013 13.5537C17.3104 13.5333 17.2194 13.6758 17.274 13.7573C17.274 13.6555 17.3831 13.6962 17.4195 13.6555L17.4013 13.5537ZM17.5104 13.6962C17.4195 13.6555 17.3285 13.7776 17.3831 13.8591C17.3831 13.798 17.4922 13.8183 17.5104 13.7776V13.6758V13.6962ZM19.6386 13.9202C19.5476 13.8998 19.4567 14.022 19.5112 14.1238C19.5112 14.022 19.6204 14.0627 19.6568 14.022L19.6386 13.9202ZM19.7477 14.0423C19.6568 14.022 19.584 14.1645 19.6386 14.2459C19.6386 14.1441 19.7477 14.1645 19.7659 14.1238C19.7841 14.1034 19.7841 14.0423 19.7659 14.0423H19.7477ZM19.6749 13.7573C19.6022 13.7165 19.4931 13.8387 19.5112 13.9202C19.5476 13.8387 19.6386 13.8998 19.6749 13.8591V13.7776V13.7573ZM21.1846 13.9609C21.1119 13.9405 21.0391 14.083 21.0755 14.1645C21.0755 14.083 21.1846 14.1034 21.221 14.0627C21.221 14.022 21.221 13.9609 21.1846 13.9609ZM21.1846 13.8183C21.1119 13.7573 21.0028 13.8794 21.0391 13.9609C21.0755 13.8998 21.1665 13.9405 21.2028 13.8998V13.798L21.1846 13.8183ZM21.2574 14.083C21.1665 14.083 21.0937 14.2256 21.1483 14.2866C21.1483 14.2052 21.2574 14.2256 21.2756 14.1848C21.2938 14.1441 21.2756 14.1034 21.2574 14.083ZM18.4199 13.0243C18.4745 13.0243 18.4927 13.0446 18.4927 13.1668C18.4927 13.3704 18.4927 13.4926 18.4199 13.4926C18.3653 13.4926 18.3653 13.3908 18.3653 13.2279C18.3653 13.1464 18.3653 13.0853 18.3471 13.1057C18.3471 13.0446 18.3653 13.0243 18.4199 13.0243Z" fill="#0051BA"/>
</g>
</g>
<defs>
<clipPath id="clip0_769_18977">
<path d="M0 20C0 8.95431 8.95431 0 20 0C31.0457 0 40 8.95431 40 20C40 31.0457 31.0457 40 20 40C8.95431 40 0 31.0457 0 20Z" fill="white"/>
</clipPath>
<clipPath id="clip1_769_18977">
<rect width="53.3333" height="40" fill="white" transform="translate(-7)"/>
</clipPath>
</defs>
</svg>
