<svg width="40" height="40" viewBox="0 0 40 40" fill="none" xmlns="http://www.w3.org/2000/svg">
<g clip-path="url(#clip0_769_19028)">
<path d="M0 20C0 8.95431 8.95431 0 20 0C31.0457 0 40 8.95431 40 20C40 31.0457 31.0457 40 20 40C8.95431 40 0 31.0457 0 20Z" fill="#E94E0F"/>
<g clip-path="url(#clip1_769_19028)">
<path fill-rule="evenodd" clip-rule="evenodd" d="M-6.99512 0.000488281H73.0049V13.3364H-6.99512V0.000488281Z" fill="black"/>
<path fill-rule="evenodd" clip-rule="evenodd" d="M-6.99512 13.3364H73.0049V26.6645H-6.99512V13.3364Z" fill="white"/>
<path fill-rule="evenodd" clip-rule="evenodd" d="M-6.99512 26.6646H73.0049V40.0005H-6.99512V26.6646Z" fill="#009900"/>
<path fill-rule="evenodd" clip-rule="evenodd" d="M-6.99512 40.0005L33.0049 20.0005L-6.99512 0.000488281V40.0005Z" fill="#FF0000"/>
<path fill-rule="evenodd" clip-rule="evenodd" d="M4.12207 22.5786L4.56738 20.6333H2.5752L4.37207 19.7739L3.12988 18.2192L4.92676 19.0786L5.36426 17.1411L5.80957 19.0864L7.59863 18.2192L6.34863 19.7739L8.14551 20.6333H6.16113L6.60645 22.5786L5.36426 21.0161L4.12207 22.5786Z" fill="white"/>
</g>
</g>
<defs>
<clipPath id="clip0_769_19028">
<path d="M0 20C0 8.95431 8.95431 0 20 0C31.0457 0 40 8.95431 40 20C40 31.0457 31.0457 40 20 40C8.95431 40 0 31.0457 0 20Z" fill="white"/>
</clipPath>
<clipPath id="clip1_769_19028">
<rect width="53.3333" height="40" fill="white" transform="translate(-7 0.000488281)"/>
</clipPath>
</defs>
</svg>
