<svg width="40" height="40" viewBox="0 0 40 40" fill="none" xmlns="http://www.w3.org/2000/svg">
<g clip-path="url(#clip0_769_19528)">
<path d="M0 20C0 8.95431 8.95431 0 20 0C31.0457 0 40 8.95431 40 20C40 31.0457 31.0457 40 20 40C8.95431 40 0 31.0457 0 20Z" fill="#E94E0F"/>
<g clip-path="url(#clip1_769_19528)">
<path fill-rule="evenodd" clip-rule="evenodd" d="M0 0.000244141H53.3333V40.0002H0V0.000244141Z" fill="#00ABC2"/>
<path fill-rule="evenodd" clip-rule="evenodd" d="M5.01641 38.9169C5.29141 39.1836 5.19974 39.6252 5.95807 39.5669C7.10807 39.5669 7.14141 38.8669 7.14141 38.3752C7.14141 37.8836 5.41641 37.2002 5.33307 36.4752C5.24974 35.7502 5.73307 35.5586 6.13307 35.5586C6.52474 35.5586 6.79974 35.7836 6.79974 35.9836C6.79974 36.1836 6.61641 36.2502 6.33307 36.2502C6.04974 36.2502 6.45807 36.1086 6.21641 36.0002C5.97474 35.8919 5.81641 36.1669 5.81641 36.3336C5.81641 36.5169 6.41641 36.5669 6.81641 36.4419C6.89974 36.8336 6.93307 36.8586 6.37474 37.5252C6.77474 37.2669 6.80807 37.2086 7.24974 37.3586C6.80807 36.9752 7.14141 36.2086 7.14974 36.0169C7.15807 35.8252 7.06641 35.5919 6.89974 35.4752C6.57474 35.1836 5.88307 35.1669 5.46641 35.3586C4.85807 35.6252 4.82474 36.4252 4.98307 36.6919L6.66641 38.3919C6.78307 38.5919 6.83307 39.1586 6.11641 39.1836C5.36641 39.2419 5.09974 38.2169 4.96641 37.8752C4.79141 38.2502 4.59141 39.2752 3.83307 39.2169C3.11641 39.1919 2.98307 38.6336 3.09974 38.4252L4.82474 36.6752C4.99141 36.4086 4.95807 35.6086 4.34974 35.3419C3.93307 35.1502 3.24141 35.1752 2.92474 35.4586C2.74141 35.5752 2.64141 35.8002 2.65807 36.0002C2.67474 36.2002 2.99974 36.9586 2.56641 37.3336C2.99974 37.1919 3.04141 37.2502 3.44141 37.5002C2.88307 36.8419 2.92474 36.8169 2.99974 36.4169C3.39974 36.5502 3.99974 36.5002 3.99974 36.3252C3.99974 36.1502 3.83307 35.8586 3.59141 35.9752C3.35807 36.0919 3.75807 36.2336 3.47474 36.2336C3.19974 36.2336 2.99974 36.1752 2.99974 35.9836C2.99974 35.7919 3.27474 35.5419 3.67474 35.5419C4.07474 35.5419 4.54974 35.7419 4.46641 36.4669C4.38307 37.1919 2.63307 37.9752 2.63307 38.4669C2.63307 38.9669 2.74974 39.5586 3.89974 39.5586C4.64974 39.6169 4.74141 39.1752 5.01641 38.9086V38.9169Z" fill="#FFEC2D"/>
<path fill-rule="evenodd" clip-rule="evenodd" d="M4.92477 28.6086C5.19977 28.3419 5.42477 27.5586 6.17477 27.6086C7.32477 27.6086 7.7581 28.2502 7.7581 28.7419C7.7581 29.2336 5.42477 33.2419 5.34144 33.9669C5.25811 34.6919 5.74144 34.8919 6.1331 34.8919C6.5331 34.8919 6.8081 34.6669 6.8081 34.4586C6.8081 34.2502 6.60811 34.2086 6.33311 34.2086C6.05811 34.2086 6.44977 34.3502 6.21644 34.4586C5.9831 34.5669 5.81644 34.2919 5.81644 34.1169C5.81644 33.9419 6.41644 33.8836 6.81644 34.0169C6.89144 33.6252 6.92477 33.6002 6.37477 32.9336C6.77477 33.1836 6.8081 33.2502 7.24977 33.1002C6.8081 33.4836 7.13311 34.2419 7.14977 34.4336C7.16644 34.6252 7.06644 34.8669 6.89144 34.9836C6.57477 35.2752 5.87477 35.2836 5.45811 35.1002C4.85811 34.8252 4.82477 34.0336 4.98311 33.7669L7.24977 28.8836C7.37477 28.6836 7.0581 28.0169 6.34144 27.9919C5.59144 27.9336 5.33311 28.7252 5.19977 29.0669L6.22477 28.9836C6.22477 28.9836 6.26644 29.1502 6.22477 29.2502C5.88087 29.2754 5.53866 29.3199 5.19977 29.3836L5.15811 29.9002H5.65811L5.62477 30.1336C5.62477 30.1336 5.19977 30.1002 5.15811 30.1336C5.11644 30.1586 5.07477 30.6502 5.07477 30.6502C5.07477 30.6502 4.99144 30.6836 4.90811 30.6836C4.82477 30.6836 4.74144 30.6502 4.74144 30.6502C4.74144 30.6502 4.70811 30.1586 4.66644 30.1336C4.62477 30.1002 4.19977 30.1336 4.19977 30.1336L4.15811 29.9002H4.66644L4.62477 29.3836C4.62477 29.3836 4.12477 29.2836 3.59977 29.2502C3.56644 29.1502 3.59977 28.9919 3.59977 28.9919L4.62477 29.0669C4.49144 28.7252 4.23311 27.9336 3.48311 27.9836C2.76644 28.0169 2.44977 28.6836 2.56644 28.8836L4.83311 33.7669C4.99144 34.0252 4.95811 34.8252 4.35811 35.1002C3.94144 35.2836 3.24144 35.2669 2.92477 34.9836C2.74977 34.8669 2.64977 34.6336 2.66644 34.4419C2.68311 34.2502 2.99977 33.4752 2.56644 33.1086C3.00811 33.2502 3.04977 33.1919 3.44144 32.9336C2.89144 33.6002 2.92477 33.6252 3.00811 34.0169C3.39977 33.8836 3.99977 33.9336 3.99977 34.1169C3.99977 34.2836 3.83311 34.5752 3.59977 34.4586C3.36644 34.3419 3.76644 34.2086 3.48311 34.2086C3.20811 34.2086 3.00811 34.2586 3.00811 34.4586C3.00811 34.6586 3.28311 34.8919 3.67477 34.8919C4.06644 34.8919 4.54977 34.6919 4.47477 33.9752C4.39144 33.2502 2.05811 29.2252 2.05811 28.7419C2.05811 28.2419 2.49144 27.6169 3.64144 27.6169C4.39144 27.5586 4.66644 28.3419 4.93311 28.6086H4.92477Z" fill="#FFEC2D"/>
<path fill-rule="evenodd" clip-rule="evenodd" d="M4.92477 26.6169C5.19977 26.8836 5.42477 27.6669 6.17477 27.6169C7.32477 27.6169 7.7581 26.9752 7.7581 26.4836C7.7581 25.9919 5.42477 21.9836 5.34144 21.2586C5.25811 20.5336 5.74144 20.3336 6.1331 20.3336C6.5331 20.3336 6.8081 20.5586 6.8081 20.7669C6.8081 20.9752 6.60811 21.0169 6.33311 21.0169C6.05811 21.0169 6.44977 20.8836 6.21644 20.7669C5.9831 20.6502 5.81644 20.9336 5.81644 21.1086C5.81644 21.2836 6.41644 21.3419 6.81644 21.2086C6.89144 21.6002 6.92477 21.6252 6.37477 22.2919C6.77477 22.0419 6.8081 21.9752 7.24977 22.1252C6.8081 21.7419 7.13311 20.9836 7.14977 20.7919C7.16644 20.6002 7.06644 20.3586 6.89144 20.2419C6.57477 19.9586 5.87477 19.9419 5.45811 20.1252C4.85811 20.4002 4.82477 21.1919 4.98311 21.4586L7.24977 26.3336C7.37477 26.5336 7.0581 27.2002 6.34144 27.2252C5.59144 27.2836 5.33311 26.4919 5.19977 26.1502L6.22477 26.2336C6.22477 26.2336 6.26644 26.0669 6.22477 25.9669C5.88087 25.9418 5.53866 25.8972 5.19977 25.8336L5.15811 25.3169H5.65811L5.62477 25.0836C5.62477 25.0836 5.19977 25.1169 5.15811 25.0836C5.11644 25.0586 5.07477 24.5669 5.07477 24.5669C5.07477 24.5669 4.99144 24.5336 4.90811 24.5336C4.82477 24.5336 4.74144 24.5669 4.74144 24.5669C4.74144 24.5669 4.70811 25.0586 4.66644 25.0836C4.62477 25.1169 4.19977 25.0836 4.19977 25.0836L4.15811 25.3169H4.66644L4.62477 25.8336C4.62477 25.8336 4.12477 25.9336 3.59977 25.9669C3.56644 26.0669 3.59977 26.2252 3.59977 26.2252L4.62477 26.1502C4.49144 26.4919 4.23311 27.2836 3.48311 27.2336C2.76644 27.2002 2.44977 26.5336 2.56644 26.3336L4.83311 21.4586C4.99144 21.1919 4.95811 20.4002 4.35811 20.1252C3.94144 19.9419 3.24144 19.9586 2.92477 20.2419C2.74977 20.3586 2.64977 20.5919 2.66644 20.7836C2.68311 20.9752 2.99977 21.7419 2.56644 22.1169C3.00811 21.9752 3.04977 22.0336 3.44144 22.2919C2.89144 21.6252 2.92477 21.6002 3.00811 21.2086C3.39977 21.3419 3.99977 21.2919 3.99977 21.1086C3.99977 20.9419 3.83311 20.6502 3.59977 20.7669C3.36644 20.8836 3.76644 21.0169 3.48311 21.0169C3.20811 21.0169 3.00811 20.9669 3.00811 20.7669C3.00811 20.5669 3.28311 20.3336 3.67477 20.3336C4.06644 20.3336 4.54977 20.5336 4.47477 21.2502C4.39144 21.9752 2.05811 26.0002 2.05811 26.4836C2.05811 26.9836 2.49144 27.6086 3.64144 27.6086C4.39144 27.6669 4.66644 26.8836 4.93311 26.6169H4.92477Z" fill="#FFEC2D"/>
<path fill-rule="evenodd" clip-rule="evenodd" d="M4.92477 13.3836C5.19977 13.1169 5.42477 12.3336 6.17477 12.3836C7.32477 12.3836 7.7581 13.0252 7.7581 13.5169C7.7581 14.0086 5.42477 18.0169 5.34144 18.7502C5.25811 19.4669 5.74144 19.6669 6.1331 19.6669C6.5331 19.6669 6.8081 19.4419 6.8081 19.2419C6.8081 19.0419 6.60811 18.9752 6.33311 18.9752C6.05811 18.9752 6.44977 19.1252 6.21644 19.2419C5.9831 19.3586 5.81644 19.0669 5.81644 18.8919C5.81644 18.7252 6.41644 18.6586 6.81644 18.7919C6.89144 18.4002 6.92477 18.3752 6.37477 17.7086C6.77477 17.9669 6.8081 18.0252 7.24977 17.8752C6.8081 18.2586 7.13311 19.0252 7.14977 19.2086C7.16644 19.3919 7.06644 19.6419 6.89144 19.7586C6.57477 20.0502 5.87477 20.0586 5.45811 19.8752C4.85811 19.6002 4.82477 18.8086 4.98311 18.5419L7.24977 13.6669C7.37477 13.4669 7.0581 12.8002 6.34144 12.7752C5.59144 12.7169 5.33311 13.5086 5.19977 13.8502L6.22477 13.7669C6.22477 13.7669 6.26644 13.9336 6.22477 14.0336C5.69144 14.0669 5.19977 14.1669 5.19977 14.1669L5.15811 14.6836H5.65811L5.62477 14.9169C5.62477 14.9169 5.19977 14.8919 5.15811 14.9169C5.11644 14.9419 5.07477 15.4419 5.07477 15.4419C5.07477 15.4419 4.99144 15.4669 4.90811 15.4669C4.82477 15.4669 4.74144 15.4419 4.74144 15.4419C4.74144 15.4419 4.70811 14.9419 4.66644 14.9169C4.62477 14.8919 4.19977 14.9169 4.19977 14.9169L4.15811 14.6836H4.66644L4.62477 14.1669C4.62477 14.1669 4.12477 14.0669 3.59977 14.0336C3.56644 13.9336 3.59977 13.7752 3.59977 13.7752L4.62477 13.8502C4.49144 13.5086 4.23311 12.7169 3.48311 12.7669C2.76644 12.8002 2.44977 13.4669 2.56644 13.6669L4.83311 18.5419C4.99144 18.8086 4.95811 19.6002 4.35811 19.8752C3.94144 20.0586 3.24144 20.0419 2.92477 19.7586C2.74977 19.6419 2.64977 19.4086 2.66644 19.2169C2.68311 19.0252 2.99977 18.2586 2.56644 17.8836C3.00811 18.0252 3.04977 17.9669 3.44144 17.7086C2.89144 18.3752 2.92477 18.4002 3.00811 18.7919C3.39977 18.6586 3.99977 18.7169 3.99977 18.8919C3.99977 19.0586 3.83311 19.3502 3.59977 19.2336C3.36644 19.1252 3.76644 18.9836 3.48311 18.9836C3.20811 18.9836 3.00811 19.0336 3.00811 19.2336C3.00811 19.4336 3.28311 19.6669 3.67477 19.6669C4.06644 19.6669 4.54977 19.4669 4.47477 18.7502C4.39144 18.0252 2.05811 14.0086 2.05811 13.5169C2.05811 13.0252 2.49144 12.3919 3.64144 12.3919C4.39144 12.3336 4.66644 13.1169 4.93311 13.3919L4.92477 13.3836Z" fill="#FFEC2D"/>
<path fill-rule="evenodd" clip-rule="evenodd" d="M4.92477 11.3919C5.19977 11.6586 5.42477 12.4502 6.17477 12.3919C7.32477 12.3919 7.7581 11.7502 7.7581 11.2586C7.7581 10.7669 5.42477 6.75856 5.34144 6.03356C5.25811 5.30856 5.74144 5.10856 6.1331 5.10856C6.5331 5.10856 6.8081 5.3419 6.8081 5.5419C6.8081 5.7419 6.60811 5.80023 6.33311 5.80023C6.05811 5.80023 6.44977 5.65856 6.21644 5.5419C5.9831 5.42523 5.81644 5.70856 5.81644 5.88356C5.81644 6.05856 6.41644 6.1169 6.81644 5.98356C6.89144 6.37523 6.92477 6.40023 6.37477 7.0669C6.77477 6.8169 6.8081 6.75023 7.24977 6.90023C6.8081 6.52523 7.13311 5.75856 7.14977 5.5669C7.16644 5.37523 7.06644 5.13356 6.89144 5.0169C6.57477 4.73356 5.87477 4.7169 5.45811 4.90856C4.85811 5.17523 4.82477 5.97523 4.98311 6.23356L7.24977 11.1169C7.37477 11.3169 7.0581 11.9836 6.34144 12.0169C5.59144 12.0669 5.33311 11.2836 5.19977 10.9336L6.22477 11.0169C6.22477 11.0169 6.26644 10.8502 6.22477 10.7502C5.88105 10.7276 5.53886 10.6859 5.19977 10.6252L5.15811 10.1002H5.65811L5.62477 9.8669C5.62477 9.8669 5.19977 9.90023 5.15811 9.8669C5.11644 9.8419 5.07477 9.35023 5.07477 9.35023C5.07477 9.35023 4.99144 9.3169 4.90811 9.3169C4.82477 9.3169 4.74144 9.35023 4.74144 9.35023C4.74144 9.35023 4.70811 9.8419 4.66644 9.8669C4.62477 9.90023 4.19977 9.8669 4.19977 9.8669L4.15811 10.1002H4.66644L4.62477 10.6252C4.62477 10.6252 4.12477 10.7169 3.59977 10.7502C3.56644 10.8586 3.59977 11.0169 3.59977 11.0169L4.62477 10.9336C4.49144 11.2836 4.23311 12.0669 3.48311 12.0169C2.76644 11.9836 2.44977 11.3169 2.56644 11.1169L4.83311 6.23356C4.99144 5.97523 4.95811 5.17523 4.35811 4.90023C3.94144 4.7169 3.24144 4.73356 2.92477 5.0169C2.74977 5.13356 2.64977 5.3669 2.66644 5.55856C2.68311 5.75023 2.99977 6.52523 2.56644 6.8919C3.00811 6.75023 3.04977 6.80856 3.44144 7.0669C2.89144 6.40023 2.92477 6.37523 3.00811 5.98356C3.40811 6.1169 3.99977 6.0669 3.99977 5.88356C3.99977 5.7169 3.83311 5.42523 3.59977 5.5419C3.36644 5.65856 3.76644 5.80023 3.48311 5.80023C3.20811 5.80023 3.00811 5.7419 3.00811 5.5419C3.00811 5.3419 3.28311 5.10856 3.67477 5.10856C4.06644 5.10856 4.55811 5.30856 4.47477 6.02523C4.39144 6.75023 2.05811 10.7752 2.05811 11.2586C2.05811 11.7586 2.49144 12.3919 3.64144 12.3919C4.39144 12.4502 4.66644 11.6586 4.93311 11.3919H4.92477Z" fill="#FFEC2D"/>
<path fill-rule="evenodd" clip-rule="evenodd" d="M5.01641 1.08356C5.29141 0.816894 5.19974 0.375228 5.95807 0.433561C7.10807 0.433561 7.14141 1.13356 7.14141 1.62523C7.14141 2.11689 5.41641 2.80023 5.33307 3.52523C5.24974 4.25023 5.73307 4.44189 6.13307 4.44189C6.52474 4.44189 6.79974 4.21689 6.79974 4.01689C6.79974 3.81689 6.61641 3.75023 6.33307 3.75023C6.04974 3.75023 6.45807 3.89189 6.21641 4.00023C5.97474 4.10856 5.81641 3.83356 5.81641 3.66689C5.81641 3.48356 6.41641 3.42523 6.81641 3.55856C6.89974 3.16689 6.93307 3.14189 6.37474 2.47523C6.77474 2.73356 6.80807 2.79189 7.24974 2.64189C6.80807 3.02523 7.14141 3.79189 7.14974 3.98356C7.15807 4.17523 7.06641 4.40856 6.89974 4.52523C6.56641 4.83356 5.87474 4.83356 5.45807 4.65023C4.84974 4.38356 4.81641 3.58356 4.97474 3.31689L6.66641 1.60856C6.78307 1.40856 6.83307 0.841894 6.11641 0.816894C5.36641 0.758561 5.09974 1.78356 4.96641 2.12523C4.79141 1.75023 4.59141 0.716894 3.83307 0.775228C3.11641 0.800228 2.98307 1.35856 3.09974 1.56689L4.82474 3.31689C4.99141 3.58356 4.95807 4.38356 4.34974 4.65023C3.93307 4.84189 3.24141 4.82523 2.92474 4.53356C2.74141 4.41689 2.64141 4.19189 2.65807 3.99189C2.67474 3.79189 2.99974 3.03356 2.56641 2.65856C2.99974 2.80023 3.04141 2.74189 3.43307 2.49189C2.88307 3.15023 2.92474 3.17523 2.99974 3.57523C3.39974 3.44189 3.99974 3.49189 3.99974 3.66689C3.99974 3.84189 3.83307 4.13356 3.59141 4.01689C3.35807 3.90023 3.75807 3.75856 3.47474 3.75856C3.19974 3.75856 2.99974 3.81689 2.99974 4.00856C2.99974 4.20023 3.27474 4.45023 3.67474 4.45023C4.07474 4.45023 4.54974 4.25023 4.46641 3.52523C4.38307 2.80023 2.63307 2.01689 2.63307 1.52523C2.63307 1.02523 2.74974 0.433561 3.89974 0.433561C4.64974 0.375228 4.74141 0.816894 5.01641 1.08356Z" fill="#FFEC2D"/>
<path d="M36.7931 17.1594C36.7931 13.1978 33.4044 9.9863 29.2242 9.9863C25.044 9.9863 21.6553 13.1978 21.6553 17.1594C21.6553 21.1211 25.044 24.3326 29.2242 24.3326C33.4044 24.3326 36.7931 21.1211 36.7931 17.1594Z" fill="#FFEC2D"/>
<path fill-rule="evenodd" clip-rule="evenodd" d="M28.8683 5.7082C28.7971 5.7082 28.4592 8.09184 28.3346 8.62549C28.2101 9.8262 29.9356 9.78173 29.651 8.58102L28.8683 5.69931V5.7082ZM29.4731 28.8153C29.5353 28.8153 30.0512 26.4583 30.2202 25.9335C30.4248 24.7506 28.6993 24.6884 28.8861 25.898L29.4731 28.8153ZM17.4126 17.1105C17.4126 17.1728 19.8941 17.6709 20.4455 17.831C21.6907 18.0355 21.7796 16.4079 20.4989 16.5858L17.4126 17.1194V17.1105ZM41.578 17.3951C41.578 17.3329 39.0699 16.9237 38.5096 16.7814C37.2555 16.6302 37.2466 18.2579 38.5096 18.0355L41.578 17.3951ZM19.9563 9.55048C19.9119 9.59496 21.5484 11.4449 21.8775 11.8985C22.7313 12.788 23.8609 11.5428 22.7313 10.938L19.9563 9.55938V9.55048ZM38.7319 24.7595C38.7764 24.715 36.9798 23.0074 36.6062 22.5893C35.6723 21.7711 34.6673 23.0963 35.8413 23.6122L38.7319 24.7684V24.7595ZM23.7008 6.97118C23.6474 6.99786 24.4123 9.29255 24.5368 9.8351C24.9637 10.9647 26.5113 10.2264 25.7109 9.25698L23.7097 6.97118H23.7008ZM34.6495 27.6412C34.7118 27.6145 34.1158 25.2754 34.0358 24.7328C33.6889 23.5766 32.0969 24.1992 32.8173 25.2309L34.6584 27.6323L34.6495 27.6412ZM37.3444 8.57213C37.2911 8.52766 35.3166 10.0486 34.8363 10.351C33.8846 11.1514 35.1742 12.2365 35.8324 11.1781L37.3444 8.57213ZM21.0681 25.8001C21.1126 25.8446 23.2027 24.466 23.7008 24.1903C24.7058 23.461 23.5051 22.2869 22.7669 23.3009L21.077 25.8001H21.0681ZM17.9551 12.9836C17.9285 13.037 20.0897 14.2911 20.5611 14.6202C21.6729 15.1983 22.3222 13.6863 21.0503 13.4461L17.9551 12.9836ZM40.5196 21.7355C40.5463 21.6821 38.474 20.2857 38.0293 19.93C36.962 19.2718 36.206 20.7393 37.46 21.0595L40.5196 21.7355ZM33.3509 6.35748C33.2887 6.33969 32.0524 8.43871 31.7233 8.89232C31.7239 9.03717 31.7699 9.1782 31.8547 9.29562C31.9395 9.41304 32.0589 9.50097 32.1963 9.54707C32.3336 9.59318 32.4819 9.59514 32.6204 9.55268C32.7589 9.51022 32.8806 9.42548 32.9685 9.31034L33.3509 6.35748ZM24.9993 28.0859C25.0616 28.1126 26.4491 26.0936 26.8048 25.6578C27.4541 24.6261 25.8798 23.9679 25.5863 25.1597L24.9993 28.0859ZM18.1063 21.9223C18.133 21.9756 20.5967 21.3886 21.1748 21.2997C22.3844 20.9617 21.7085 19.4675 20.6412 20.1612L18.1063 21.9223ZM40.5285 12.788C40.5107 12.7346 38.0115 13.1526 37.4334 13.206C36.1882 13.4639 36.7663 15.0026 37.8781 14.38L40.5285 12.788Z" fill="#FFEC2D"/>
<path fill-rule="evenodd" clip-rule="evenodd" d="M31.3232 5.8594C31.2609 5.85051 30.4249 8.11852 30.1758 8.6166C29.8112 9.77284 31.51 10.0575 31.4833 8.83006L31.3321 5.85051L31.3232 5.8594ZM27.0095 28.6196C27.0718 28.6374 28.0768 26.4227 28.3614 25.9335C28.8061 24.8129 27.134 24.4215 27.0718 25.64L27.0006 28.6196H27.0095ZM26.1468 6.08176C26.0845 6.09955 26.3158 8.50097 26.3158 9.05241C26.4848 10.2353 28.148 9.8262 27.5965 8.72333L26.1468 6.08176ZM32.1948 28.4862C32.2571 28.4773 32.1948 26.067 32.2393 25.5155C32.1592 24.3148 30.4604 24.6172 30.9407 25.7557L32.1859 28.4862H32.1948ZM21.8598 8.07405C21.8064 8.10963 22.9893 10.2353 23.2117 10.7423C23.8521 11.7829 25.2307 10.8046 24.2612 9.9774L21.8598 8.07405ZM36.5174 26.565C36.5707 26.5294 35.539 24.3237 35.3611 23.8078C34.8008 22.7316 33.3599 23.6211 34.2583 24.5016L36.5174 26.565ZM18.729 11.0625C18.6935 11.1159 20.6057 12.699 21.006 13.1082C21.9932 13.8553 22.9093 12.4678 21.6997 12.032L18.729 11.0625ZM39.5592 23.4876C39.5948 23.4343 37.807 21.7266 37.4335 21.2997C36.5085 20.4903 35.4945 21.8155 36.6686 22.3314L39.5592 23.4876ZM17.3593 14.7891C17.3416 14.8514 19.6985 15.7497 20.2144 16.0076C21.4062 16.4079 21.7886 14.8158 20.4901 14.7803L17.3593 14.7891ZM41.1423 19.93C41.169 19.8766 38.8832 18.8271 38.3852 18.5336C37.2289 18.0533 36.7219 19.6187 38.0116 19.7432L41.1423 19.93ZM17.2793 19.3696C17.2882 19.423 19.8319 19.3874 20.41 19.4319C21.673 19.3696 21.3706 17.7598 20.161 18.1956L17.2793 19.3696ZM41.3113 15.3673C41.3113 15.305 38.7676 15.1716 38.1984 15.0915C36.9265 15.0738 37.1133 16.7014 38.3496 16.3367L41.3113 15.3584V15.3673ZM19.4584 24.1191C19.4939 24.1725 21.7709 23.0874 22.3045 22.8828C23.4074 22.3047 22.3934 20.9795 21.5129 21.8778L19.4584 24.1191ZM39.2301 10.5733C39.1945 10.5199 36.8554 11.4538 36.295 11.6228C35.1477 12.1298 36.0638 13.5173 37.0066 12.6812L39.2301 10.5733ZM23.1583 27.2677C23.2117 27.2943 24.8393 25.4444 25.2485 25.053C26.0223 24.1013 24.5369 23.2742 24.1011 24.4304L23.1583 27.2677ZM35.5835 7.36252C35.539 7.32694 33.778 9.0613 33.3422 9.42596C32.5061 10.3243 33.9292 11.2493 34.445 10.1286L35.5746 7.36252H35.5835Z" fill="#FFEC2D"/>
<path fill-rule="evenodd" clip-rule="evenodd" d="M17.6512 21.9305C17.7871 22.3892 17.8065 24.9579 20.5434 27.4349C23.2609 29.8935 27.9194 30.4439 27.9194 30.4439C27.9194 30.4439 27.9388 30.7925 27.6089 30.8109C27.2789 30.8475 25.6872 30.5356 24.8914 30.2971C24.1149 30.0769 23.4162 29.6733 23.3385 29.6916C23.2415 29.7283 23.0862 29.9852 22.8533 29.9485C22.6203 29.9118 21.4945 28.8109 20.9898 28.5174C19.9804 27.6927 19.0867 26.7493 18.3306 25.7102C17.7871 24.8845 17.6512 24.3341 17.4765 24.3341C17.3018 24.3341 16.6613 24.7377 16.6613 24.7377C16.6613 24.7377 16.0789 23.9121 15.5743 22.591C15.0502 21.27 15.1084 20.4994 15.2249 20.4444C15.3608 20.3893 15.3608 21.4168 15.749 22.3525C16.1372 23.3066 16.6807 23.6002 16.6807 23.6002C16.6807 23.6002 16.3313 23.1048 16.0595 21.8755C15.7878 20.6462 15.6713 19.4536 15.8654 19.0866C16.0595 18.7197 16.2342 18.6096 16.2536 18.6279C16.2925 18.6646 15.9237 19.1967 16.176 20.6095C16.4283 22.0223 17.1077 23.2149 17.263 23.1598C17.4183 23.1048 17.1659 22.8112 17.0689 21.9856C16.9718 21.1599 17.1659 20.6462 17.3795 20.5728C17.4765 20.4994 17.6318 21.4902 17.6512 21.9305ZM15.749 24.279C15.2249 23.8204 14.4096 22.2241 14.2349 22.2975C14.0408 22.3892 15.5549 24.6827 15.5937 24.8662C15.6325 25.0863 15.9625 25.7102 15.7101 25.6184C15.4578 25.5267 13.6526 23.7286 13.8661 24.0772C14.0797 24.4258 15.4384 26.0037 15.3608 26.0955C15.2831 26.1872 14.2349 25.2148 14.1961 25.3432C14.1767 25.4533 15.2249 26.4074 15.2055 26.5175C15.1861 26.6276 14.5261 25.912 14.5261 26.0588C14.5261 26.2056 15.2055 26.9211 15.2055 27.0312C15.2055 27.1413 14.6232 26.5175 14.8173 26.8477C14.992 27.2147 15.4966 27.5266 15.4772 27.6367C15.4578 27.7468 15.0502 27.4899 15.0502 27.5449C15.0502 27.6 15.8072 27.8569 15.9819 28.0587C16.176 28.2605 17.4183 29.6182 18.35 30.2971C19.2817 30.976 21.9604 32.1686 22.1545 32.1686C22.3292 32.1686 22.6009 31.8016 22.5427 31.6549C22.4845 31.5081 19.864 30.6641 19.1458 30.0402C18.4082 29.4164 16.6224 27.9119 16.4672 27.8385C16.3313 27.7468 15.9237 27.7835 15.9237 27.6917C15.9237 27.6 16.4478 27.7468 16.4089 27.6917C16.3895 27.6367 15.6907 27.3431 15.7101 27.2881C15.749 27.233 16.1954 27.3982 16.1954 27.3431C16.1954 27.2881 15.3802 26.8661 15.419 26.7743C15.4384 26.6826 16.0207 27.0312 16.0207 26.9578C16.0207 26.9211 15.2443 26.4074 15.2637 26.3156C15.2831 26.2239 15.8654 26.7193 15.846 26.6092C15.8266 26.4991 15.3802 25.8753 15.3802 25.8019C15.3802 25.7102 16.0789 26.4257 16.1566 26.279C16.1954 26.1505 15.9043 24.9579 15.9237 24.9396C15.9431 24.9212 16.4477 25.1964 16.5254 25.0313C16.6224 24.8478 16.176 24.6093 15.749 24.279ZM24.6973 33.3061C24.3285 33.3612 24.1538 33.2328 24.3673 32.9392C24.6585 32.9392 25.4349 32.7007 25.7066 32.5906C25.9784 32.4805 26.2695 32.3337 26.5025 32.1319C26.7354 31.8934 26.8907 32.2603 26.7548 32.4622C26.6577 32.5906 26.2113 32.8291 25.8813 32.9575C25.3961 33.1043 24.969 33.3245 24.6973 33.3061ZM27.1236 32.3704C26.8713 32.1135 27.0848 31.9301 27.4536 31.7282C27.9971 31.453 27.8418 31.0677 28.5406 30.7558C28.8511 30.5723 33.1991 28.921 34.6161 28.0403C36.0331 27.1596 40.0123 24.3157 41.0798 22.3525C42.128 20.4077 41.6233 20.2609 41.7786 20.1875C41.9145 20.0958 42.0698 20.4627 42.0504 20.9031C42.0115 21.3251 41.6622 22.6094 41.7786 22.7378C41.8951 22.8663 43.3703 21.7287 43.9914 20.3526C44.6126 18.9765 45.0784 17.5454 45.3696 17.5454C45.6802 17.5454 44.8649 19.8939 44.3408 20.8113C43.8362 21.7287 43.2344 22.1874 43.3703 22.3892C43.5256 22.5727 45.0396 21.3801 45.5637 20.4994C46.0684 19.6004 46.5536 18.8114 46.6507 18.9765C46.4962 20.0513 46.048 21.0695 45.3502 21.9305C44.5349 22.8112 43.5644 23.4534 43.7197 23.5818C43.8556 23.7286 44.962 23.8754 46.1072 23.1415C47.2718 22.3892 47.3883 21.3067 47.5242 21.3617C47.6795 21.4168 47.3883 22.903 46.2819 23.8204C45.1755 24.7377 43.7197 24.8295 43.7585 25.0313C43.8362 25.2148 46.9224 24.1873 46.8642 24.4258C46.806 24.646 42.8656 26.1138 42.8268 26.2606C42.8268 26.3707 43.5062 26.4074 44.5738 26.1689C45.6219 25.9487 46.6313 25.1597 46.7672 25.3432C46.806 25.6001 46.0101 26.2239 44.8067 26.5175C43.5838 26.811 42.9821 27.1963 42.9433 27.2881C42.9239 27.3798 45.1173 27.0312 45.1173 27.1413C45.1173 27.2514 42.2445 27.7835 42.2251 27.9303C42.1863 28.0587 44.9426 27.3982 44.9037 27.5633C44.8261 27.6917 41.1575 28.7192 41.1963 28.7743C41.2157 28.8476 44.2632 28.1504 44.205 28.2605C44.1273 28.3889 39.0805 29.7283 39.0417 29.8201C39.0029 29.8935 43.5062 28.866 43.4674 28.9577C43.4285 29.0495 41.1381 29.5816 41.1381 29.6366C41.1381 29.6916 42.9821 29.3614 42.9433 29.4531C42.9239 29.5265 38.2847 30.6457 38.1877 30.8109C38.0906 30.9943 40.5946 30.3522 40.5558 30.6824C40.5169 31.0127 35.179 32.7007 35.1596 32.3888C35.1208 32.0768 38.4012 31.2879 38.3818 31.1962C38.3429 31.1044 36.4989 31.3796 36.4601 31.2145C36.4407 31.031 37.683 30.6641 37.5859 30.5907C37.4889 30.4989 36.5572 30.8475 36.6348 30.6457C36.7319 30.4439 38.4982 29.6733 38.4594 29.6182C38.44 29.5632 37.8189 29.8017 37.8771 29.6182C37.9547 29.4164 41.701 28.3889 41.6428 28.2605C41.5845 28.1504 39.9152 28.5174 39.7599 28.5541C39.7017 28.444 42.0892 27.6 42.0504 27.4532C41.9727 27.3248 40.7693 27.9486 40.6916 27.7835C40.6528 27.6 42.8074 26.811 42.6715 26.6826C42.5356 26.5542 41.5651 27.0129 41.4292 26.8844C41.2934 26.756 43.4673 25.3432 43.1374 25.3065C42.8074 25.2882 42.3998 25.7469 42.3609 25.4533C42.3998 25.0863 44.0497 24.4809 43.6809 24.1873C43.0985 24.0222 41.1381 24.3157 40.3228 24.7744C39.5076 25.2331 36.7901 27.7835 36.1301 28.1871C35.4702 28.5724 33.2185 29.4715 32.7915 29.6549C32.1315 29.8751 32.0151 30.2054 31.3357 30.5356C30.1128 30.8475 30.1322 31.1962 29.5499 31.398C29.3364 31.453 27.143 32.4438 27.1236 32.3704ZM24.0567 33.6548C23.6879 33.8382 23.3579 34.2786 23.5715 34.4621C23.6879 34.6822 24.0567 33.9667 24.3479 34.0034L25.9007 34.0768C26.7354 34.1318 27.143 33.9116 27.6089 33.9483C28.0747 33.985 29.1035 33.7098 29.5887 33.7098C30.074 33.7098 30.1711 33.7648 30.2099 33.563C30.2681 33.3795 28.6959 33.508 27.9971 33.4896C27.2983 33.4529 26.4248 33.6181 25.9007 33.6181C25.4155 33.5997 24.5808 33.4529 24.0567 33.6548Z" fill="#FFEC2D"/>
<path d="M26.386 33.4346C26.386 33.2826 26.2383 33.1594 26.0561 33.1594C25.8738 33.1594 25.7261 33.2826 25.7261 33.4346C25.7261 33.5866 25.8738 33.7098 26.0561 33.7098C26.2383 33.7098 26.386 33.5866 26.386 33.4346Z" fill="#FFEC2D"/>
<path fill-rule="evenodd" clip-rule="evenodd" d="M34.1309 32.9025C34.4609 32.8475 35.3538 33.141 35.9749 33.2695C37.1008 33.6915 39.1971 33.4896 39.1971 33.6915C39.1971 33.8933 39.0612 34.1318 38.576 34.1685C38.0907 34.2052 36.8678 33.985 36.9067 33.985C36.9455 33.985 37.8772 34.407 37.6054 34.5171C37.3337 34.6272 36.5379 34.2786 36.402 34.3703C36.2661 34.4621 37.1396 34.6272 36.9843 34.6822C36.8678 34.7373 36.2661 34.6089 36.072 34.6272C35.8779 34.6639 36.2273 34.8657 35.9944 34.9391C35.7614 35.0309 35.3732 34.829 35.2179 34.8841C35.0432 34.9391 35.5673 35.251 35.3344 35.2877C35.1015 35.3244 34.558 35.1409 34.2474 35.1043C33.9368 35.1043 34.5386 35.3978 34.3445 35.4345C34.1503 35.4529 33.6068 35.196 33.471 35.196C33.3351 35.196 33.471 35.5629 33.2769 35.5629C33.0828 35.5629 32.8498 35.251 32.7334 35.251C32.6169 35.251 32.7334 35.618 32.5393 35.618C32.3452 35.618 32.2675 35.2327 32.1122 35.251C31.9181 35.2877 32.1122 35.7464 31.8405 35.7097C31.5881 35.6914 31.5493 35.2327 31.3358 35.251C31.1417 35.2877 31.3746 35.7097 31.1805 35.7097C30.9864 35.7097 30.9476 35.2877 30.7535 35.251C30.5594 35.2327 30.637 35.6547 30.5206 35.6547C30.4041 35.6547 30.2876 35.251 30.21 35.251C30.1518 35.251 30.21 35.6547 29.9771 35.618C29.7441 35.5813 29.7441 35.1776 29.6859 35.196C29.6083 35.2327 29.6083 35.5262 29.453 35.5262C29.2977 35.5262 29.2783 35.2327 29.22 35.2694C29.1424 35.2877 28.9095 35.6547 28.7542 35.5996C28.5795 35.5446 28.793 35.251 28.7154 35.251C28.6377 35.251 28.4436 35.4529 28.3272 35.4345C28.2107 35.4162 28.3272 35.1776 28.2883 35.1776C28.2495 35.1776 27.9584 35.3244 27.8225 35.3244C27.6866 35.3244 27.3178 35.5079 27.2208 35.3428C27.1237 35.1593 27.4731 35.1593 27.5507 34.9942C27.609 34.829 27.3566 34.3336 27.6284 34.1685C27.8807 33.985 28.7154 34.407 29.9577 34.1135C32.2093 33.5447 33.9562 32.8842 34.1309 32.9025Z" fill="#FFEC2D"/>
</g>
</g>
<defs>
<clipPath id="clip0_769_19528">
<path d="M0 20C0 8.95431 8.95431 0 20 0C31.0457 0 40 8.95431 40 20C40 31.0457 31.0457 40 20 40C8.95431 40 0 31.0457 0 20Z" fill="white"/>
</clipPath>
<clipPath id="clip1_769_19528">
<rect width="53.3333" height="40" fill="white" transform="translate(0 0.000244141)"/>
</clipPath>
</defs>
</svg>
