<svg width="40" height="40" viewBox="0 0 40 40" fill="none" xmlns="http://www.w3.org/2000/svg">
<g clip-path="url(#clip0_769_19048)">
<path d="M0 20C0 8.95431 8.95431 0 20 0C31.0457 0 40 8.95431 40 20C40 31.0457 31.0457 40 20 40C8.95431 40 0 31.0457 0 20Z" fill="#E94E0F"/>
<g clip-path="url(#clip1_769_19048)">
<path d="M-7 0.000488281H46.3333V40.0005H-7V0.000488281Z" fill="white"/>
<path d="M-7 0.000488281H46.3333V12.0005H-7V0.000488281Z" fill="black"/>
<path d="M-7 28.0005H46.3333V40.0005H-7V28.0005Z" fill="#006600"/>
<path d="M12.5166 31.8755L12.9666 32.1255L24.6416 11.8755C25.3166 11.7255 25.6916 11.0755 26.0666 10.4255C26.3166 9.97549 27.3166 8.25049 27.7416 6.00049C26.5583 7.05049 25.5499 8.29215 24.7666 9.67549C24.3916 10.3255 24.0166 10.9755 24.1916 11.6505L12.5166 31.8755Z" fill="black" stroke="black" stroke-width="0.25" stroke-miterlimit="30"/>
<path d="M12.5166 31.8755L12.9666 32.1255L24.6416 11.8755C25.3166 11.7255 25.6916 11.0755 26.0666 10.4255C26.3166 9.97549 27.3166 8.25049 27.7416 6.00049C26.5583 7.05049 25.5499 8.29215 24.7666 9.67549C24.3916 10.3255 24.0166 10.9755 24.1916 11.6505L12.5166 31.8755Z" fill="white"/>
<path d="M26.8168 31.8755L26.3668 32.1255L14.6918 11.8755C14.0168 11.7255 13.6418 11.0755 13.2668 10.4255C13.0168 9.97549 12.0168 8.25049 11.5918 6.00049C12.7751 7.05049 13.7835 8.29215 14.5668 9.67549C14.9418 10.3255 15.3168 10.9755 15.1418 11.6505L26.8168 31.8755Z" fill="black" stroke="black" stroke-width="0.25" stroke-miterlimit="30"/>
<path d="M26.8168 31.8755L26.3668 32.1255L14.6918 11.8755C14.0168 11.7255 13.6418 11.0755 13.2668 10.4255C13.0168 9.97549 12.0168 8.25049 11.5918 6.00049C12.7751 7.05049 13.7835 8.29215 14.5668 9.67549C14.9418 10.3255 15.3168 10.9755 15.1418 11.6505L26.8168 31.8755Z" fill="white"/>
<path d="M24.4167 14.0005C23.6667 12.0005 21.1667 8.00049 19.6667 8.00049C18.1667 8.00049 15.6667 12.0005 14.9167 14.0005H-7.0166V26.0005H14.9167C15.6667 28.0005 18.1667 32.0005 19.6667 32.0005C21.1667 32.0005 23.6667 28.0005 24.4167 26.0005H46.3751V14.0005H24.4167Z" fill="#BB0000"/>
<path d="M24.4167 26.0005C25.1667 24.0005 25.6667 22.0005 25.6667 20.0005C25.6667 18.0005 25.1667 16.0005 24.4167 14.0005C23.6667 16.0005 23.1667 18.0005 23.1667 20.0005C23.1667 22.0005 23.6667 24.0005 24.4167 26.0005Z" fill="black"/>
<path d="M14.9167 26.0005C14.1667 24.0005 13.6667 22.0005 13.6667 20.0005C13.6667 18.0005 14.1667 16.0005 14.9167 14.0005C15.6667 16.0005 16.1667 18.0005 16.1667 20.0005C16.1667 22.0005 15.6667 24.0005 14.9167 26.0005Z" fill="black"/>
<path d="M19.6667 21.5005C20.219 21.5005 20.6667 20.8289 20.6667 20.0005C20.6667 19.1721 20.219 18.5005 19.6667 18.5005C19.1145 18.5005 18.6667 19.1721 18.6667 20.0005C18.6667 20.8289 19.1145 21.5005 19.6667 21.5005Z" fill="white"/>
<path d="M19.9167 21.4505C19.9167 21.4505 20.9167 23.4505 20.9167 26.7005C20.9167 29.9505 19.9167 31.9505 19.9167 31.9505V21.4505Z" fill="white"/>
<path d="M19.4167 18.5505C19.4167 18.5505 18.4167 16.5505 18.4167 13.3005C18.4167 10.0505 19.4167 8.05048 19.4167 8.05048V18.5505Z" fill="white"/>
<path d="M18.4167 26.7005C18.4167 29.9505 19.4167 31.9505 19.4167 31.9505V21.4505C19.4167 21.4505 18.4167 23.4505 18.4167 26.7005Z" fill="white"/>
<path d="M19.9167 8.05048V18.5505C19.9167 18.5505 20.9167 16.5505 20.9167 13.3005C20.9167 10.0505 19.9167 8.05048 19.9167 8.05048Z" fill="white"/>
</g>
</g>
<defs>
<clipPath id="clip0_769_19048">
<path d="M0 20C0 8.95431 8.95431 0 20 0C31.0457 0 40 8.95431 40 20C40 31.0457 31.0457 40 20 40C8.95431 40 0 31.0457 0 20Z" fill="white"/>
</clipPath>
<clipPath id="clip1_769_19048">
<rect width="53.3333" height="40" fill="white" transform="translate(-7 0.000488281)"/>
</clipPath>
</defs>
</svg>
