<svg width="40" height="40" viewBox="0 0 40 40" fill="none" xmlns="http://www.w3.org/2000/svg">
<g clip-path="url(#clip0_769_19152)">
<path d="M0 20C0 8.95431 8.95431 0 20 0C31.0457 0 40 8.95431 40 20C40 31.0457 31.0457 40 20 40C8.95431 40 0 31.0457 0 20Z" fill="#E94E0F"/>
<g clip-path="url(#clip1_769_19152)">
<path fill-rule="evenodd" clip-rule="evenodd" d="M-13.0859 0.000488281H52.2109V23.9458H-13.0859V0.000488281Z" fill="#E73E2D"/>
<path fill-rule="evenodd" clip-rule="evenodd" d="M15.7109 22.0396C14.1953 20.8521 11.3672 21.2583 10.8984 18.0317C13.0625 19.7114 12.6719 17.938 15.8984 19.5396L15.7109 22.0396Z" fill="#FEC74A" stroke="#D8AA3F" stroke-width="0.132812"/>
<path fill-rule="evenodd" clip-rule="evenodd" d="M16.1172 20.5786C15.0313 18.9849 12.211 18.5005 12.7579 15.2896C14.3126 17.5474 14.4766 15.7349 17.0704 18.2505L16.1172 20.5786Z" fill="#FEC74A" stroke="#D8AA3F" stroke-width="0.132812"/>
<path fill-rule="evenodd" clip-rule="evenodd" d="M16.6094 19.5317C16.2188 17.6489 13.7969 16.1255 15.5313 13.3599C16.0938 16.0474 16.9375 14.438 18.375 17.7505L16.6094 19.5317Z" fill="#FEC74A" stroke="#D8AA3F" stroke-width="0.132812"/>
<path fill-rule="evenodd" clip-rule="evenodd" d="M17.7421 18.563C17.953 16.6489 16.1171 14.4536 18.6093 12.3599C18.328 15.0864 19.6249 13.8208 19.9765 17.4067L17.7421 18.563Z" fill="#FEC74A" stroke="#D8AA3F" stroke-width="0.132812"/>
<path fill-rule="evenodd" clip-rule="evenodd" d="M18.7578 17.7896C19.7266 16.1255 18.9531 13.3755 22.0859 12.4849C20.7109 14.8521 22.4141 14.2271 21.2656 17.6411L18.7578 17.7896Z" fill="#FEC74A" stroke="#D8AA3F" stroke-width="0.132812"/>
<path fill-rule="evenodd" clip-rule="evenodd" d="M20.2188 17.9927C21.6719 16.7271 21.8125 13.8677 25.0625 14.0161C23.0078 15.8286 24.8281 15.7739 22.6406 18.6567L20.2188 17.9927Z" fill="#FEC74A" stroke="#D8AA3F" stroke-width="0.132812"/>
<path fill-rule="evenodd" clip-rule="evenodd" d="M21.5156 18.7427C23.2734 17.9536 24.2422 15.2661 27.3047 16.3599C24.8047 17.4927 26.5625 17.9771 23.6328 20.0864L21.5156 18.7427Z" fill="#FEC74A" stroke="#D8AA3F" stroke-width="0.132812"/>
<path fill-rule="evenodd" clip-rule="evenodd" d="M22.6016 19.9224C24.5078 19.6567 26.1953 17.3442 28.8281 19.2661C26.1172 19.6489 27.6563 20.602 24.2578 21.8052L22.6016 19.9145V19.9224Z" fill="#FEC74A" stroke="#D8AA3F" stroke-width="0.132812"/>
<path fill-rule="evenodd" clip-rule="evenodd" d="M29.3984 20.2817L20.6406 20.4771L21.0078 22.8364L29.3984 20.2817Z" fill="#FEC74A" stroke="#D8AA3F" stroke-width="0.132812"/>
<path fill-rule="evenodd" clip-rule="evenodd" d="M28.1094 17.063L20 20.1802L21.3516 22.7817L28.1094 17.063Z" fill="#FEC74A" stroke="#D8AA3F" stroke-width="0.132812"/>
<path fill-rule="evenodd" clip-rule="evenodd" d="M21.6719 21.9302L25.8672 14.3052L19.4297 20.2974L21.6719 21.9302Z" fill="#FEC74A" stroke="#D8AA3F" stroke-width="0.132812"/>
<path fill-rule="evenodd" clip-rule="evenodd" d="M21.5859 21.2974L22.9297 12.7505L18.7266 20.3442L21.5859 21.2974Z" fill="#FEC74A" stroke="#D8AA3F" stroke-width="0.132812"/>
<path fill-rule="evenodd" clip-rule="evenodd" d="M21.0781 20.6021L19.6719 11.9927L18.1094 20.6411L21.0781 20.6021Z" fill="#FEC74A" stroke="#D8AA3F" stroke-width="0.132812"/>
<path fill-rule="evenodd" clip-rule="evenodd" d="M20.3516 19.8677L16.2656 12.6802L17.8281 21.4146L20.3516 19.8677Z" fill="#FEC74A" stroke="#D8AA3F" stroke-width="0.132812"/>
<path fill-rule="evenodd" clip-rule="evenodd" d="M19.7188 19.813L13.3828 14.4614L17.8828 22.1177L19.7188 19.813Z" fill="#FEC74A" stroke="#D8AA3F" stroke-width="0.132812"/>
<path fill-rule="evenodd" clip-rule="evenodd" d="M11.1562 17.1021L17.9531 22.7192L19 19.7817L11.1562 17.1021Z" fill="#FEC74A" stroke="#D8AA3F" stroke-width="0.132812"/>
<path fill-rule="evenodd" clip-rule="evenodd" d="M17.8828 20.3833L9.89062 20.2661L17.8516 22.9224L17.8828 20.3833Z" fill="#FEC74A" stroke="#D8AA3F" stroke-width="0.132812"/>
<path fill-rule="evenodd" clip-rule="evenodd" d="M24.3672 21.813C24.3933 22.4587 24.2886 23.103 24.0595 23.7073C23.8304 24.3115 23.4815 24.8632 23.0339 25.3293C22.5862 25.7954 22.049 26.1662 21.4545 26.4195C20.86 26.6728 20.2204 26.8034 19.5742 26.8034C18.928 26.8034 18.2884 26.6728 17.6939 26.4195C17.0994 26.1662 16.5622 25.7954 16.1146 25.3293C15.6669 24.8632 15.3181 24.3115 15.089 23.7073C14.8598 23.103 14.7552 22.4587 14.7813 21.813C14.8312 20.5753 15.3581 19.4049 16.2514 18.5469C17.1448 17.6888 18.3355 17.2097 19.5742 17.2097C20.8129 17.2097 22.0036 17.6888 22.897 18.5469C23.7904 19.4049 24.3172 20.5753 24.3672 21.813Z" fill="#FEC74A" stroke="#D8AA3F" stroke-width="0.132812"/>
<path fill-rule="evenodd" clip-rule="evenodd" d="M-13.1484 23.7036H52.4688V40.0005H-13.1562L-13.1484 23.7036Z" fill="#005989"/>
<path fill-rule="evenodd" clip-rule="evenodd" d="M-13.1875 35.4692C-11.9688 36.0317 -10.2188 37.4458 -8.34375 37.4458C-5.21875 37.4224 -5.14062 35.3052 -1.96875 35.4067C1.21094 35.4849 0.632812 37.7192 4.92188 37.7114C8.46875 37.6958 9.60938 35.0005 12.6719 35.3208C14.9375 35.2036 15.8594 37.8755 19.3359 37.9146C22.9453 37.9927 24.2656 35.0005 26.5234 35.2505C28.9453 35.2505 29.7266 37.6567 33.1094 37.6724C37.4219 37.6958 38.1797 35.1724 40.8672 35.3286C42.7891 35.2896 44.3047 37.1802 47.1172 37.2271C49.3516 37.2661 51.2344 35.5708 52.5078 34.9614L52.5625 32.0864C51.2344 32.5786 49.25 34.2036 47.2734 34.2192C44.4141 34.3286 42.6562 32.3442 40.6719 32.3677C38.2969 32.3911 37.3516 34.813 33.3281 34.813C29.6406 34.813 28.7969 32.3677 26.4219 32.3677C24.1016 32.3833 23.3906 35.0239 19.3672 34.9771C16.0859 34.938 14.8125 32.4536 12.4922 32.4771C10.0312 32.4771 7.49219 34.8911 4.75781 34.7739C1.00781 34.6177 0.1875 32.4771 -2.27344 32.4771C-4.10938 32.4771 -6.10156 34.4771 -8.3125 34.5083C-10.5156 34.5474 -12.9922 32.5161 -13.2188 32.4771L-13.1875 35.4692ZM-13.1875 29.7661C-11.9688 30.3364 -10.2188 31.7505 -8.34375 31.7505C-5.21875 31.7271 -5.14062 29.6099 -1.96875 29.7036C1.21094 29.7817 0.632812 32.0239 4.92188 32.0083C8.46875 32.0083 9.60938 29.3052 12.6719 29.6255C14.9375 29.5083 15.8594 32.1802 19.3359 32.2114C22.9453 32.2896 24.2656 29.3052 26.5234 29.5552C28.9453 29.5552 29.7266 31.9614 33.1094 31.9771C37.4219 32.0005 38.1797 29.4771 40.8672 29.6333C42.7891 29.5942 44.3047 31.4849 47.1172 31.5317C49.3516 31.5708 51.2344 29.8755 52.5078 29.2661L52.5625 26.3911C51.2344 26.8833 49.25 28.5005 47.2734 28.5239C44.4141 28.6255 42.6562 26.6489 40.6719 26.6724C38.2969 26.6958 37.3516 29.1177 33.3281 29.1177C29.6406 29.1177 28.7969 26.6724 26.4219 26.6724C24.1016 26.688 23.3906 29.3286 19.3672 29.2817C16.0859 29.2427 14.8125 26.7583 12.4922 26.7817C10.0312 26.7817 7.49219 29.188 4.75781 29.0708C1.00781 28.9146 0.1875 26.7739 -2.27344 26.7739C-4.10938 26.7739 -6.10156 28.7817 -8.3125 28.813C-10.5156 28.8442 -12.9922 26.8208 -13.2188 26.7817L-13.1875 29.7739V29.7661Z" fill="white"/>
<path fill-rule="evenodd" clip-rule="evenodd" d="M-13.1875 24.1411C-11.9688 24.7036 -10.2187 26.1099 -8.35156 26.1099C-5.22656 26.0942 -5.14844 23.9692 -1.97656 24.0708C1.19531 24.1489 0.617188 26.3833 4.90625 26.3755C8.44531 26.3677 9.59375 23.6646 12.6406 23.9927C14.9062 23.8755 15.8281 26.5474 19.3047 26.5786C22.9062 26.6567 24.2266 23.6646 26.4922 23.9146C28.8984 23.9146 29.6953 26.3208 33.0703 26.3364C37.3672 26.3599 38.125 23.8364 40.8203 23.9927C42.7344 23.9536 44.25 25.8442 47.0547 25.8911C49.2969 25.9302 51.1719 24.2349 52.4453 23.6255L52.5 20.7505C51.1719 21.2505 49.1953 22.8677 47.2109 22.8833C44.3672 22.9927 42.6016 21.0161 40.6172 21.0317C38.25 21.0552 37.3047 23.4771 33.2734 23.4771C29.6016 23.4771 28.7578 21.0317 26.3828 21.0317C24.0625 21.0552 23.3516 23.688 19.3438 23.6411C16.0625 23.6021 14.7891 21.1255 12.4688 21.1411C10.0078 21.1411 7.46875 23.5552 4.75 23.438C0.992188 23.2817 0.179688 21.1411 -2.28125 21.1411C-4.11719 21.1411 -6.10156 23.1411 -8.3125 23.1724C-10.5156 23.2114 -12.9844 21.188 -13.2188 21.1411L-13.1875 24.1333V24.1411Z" fill="white"/>
<path fill-rule="evenodd" clip-rule="evenodd" d="M10.4375 5.93799C15.2031 5.60986 14.3438 5.20361 16.2578 4.89111C18.6797 5.22705 18.9531 6.68799 20.3047 7.58643C20.3047 7.58643 19.7969 9.30518 18.1406 9.06299C17.9141 8.37549 18.9375 8.15674 15.9922 6.35986C14.2734 6.2583 11.2031 6.66455 10.4453 5.93799H10.4375ZM25.2266 8.58643L21.7891 8.72705V9.57861C24.1094 9.65674 24.5234 9.34424 25.2266 8.58643Z" fill="#FFC84B" stroke="#D8AA3F" stroke-width="0.140625"/>
<path fill-rule="evenodd" clip-rule="evenodd" d="M13.4062 8.43799C14.0078 8.1333 14.3047 8.2583 14.8281 8.24268C15.1797 8.89112 15.5156 8.9458 16.2969 9.02393C16.6426 9.53624 17.106 9.95824 17.6484 10.2546C18.1907 10.5509 18.7962 10.7129 19.4141 10.7271C21.75 10.6646 22.4922 9.03174 24.0625 8.85205H25.7187C25.4453 8.3833 25.2266 8.10987 24.625 8.07862C23.3906 8.01612 21.7969 8.04737 20.4062 8.35987L18.4453 8.85205C17.8672 8.5708 16.4687 7.10205 15.5703 7.1333C15.0469 7.27393 15.0469 7.45362 14.7891 7.65674C14.2812 7.87549 13.7734 7.76612 13.4062 8.43799Z" fill="#FFC84B" stroke="#D8AA3F" stroke-width="0.132812" stroke-linejoin="round"/>
<path fill-rule="evenodd" clip-rule="evenodd" d="M15.7734 7.73486C15.7799 7.77085 15.7783 7.80781 15.7689 7.84314C15.7595 7.87847 15.7425 7.91131 15.7191 7.93934C15.6956 7.96738 15.6663 7.98993 15.6331 8.0054C15.6 8.02087 15.5639 8.02889 15.5273 8.02889C15.4908 8.02889 15.4547 8.02087 15.4215 8.0054C15.3884 7.98993 15.3591 7.96738 15.3356 7.93934C15.3122 7.91131 15.2951 7.87847 15.2857 7.84314C15.2763 7.80781 15.2748 7.77085 15.2813 7.73486C15.2916 7.67711 15.3219 7.62483 15.3669 7.58718C15.4119 7.54952 15.4687 7.52888 15.5273 7.52888C15.586 7.52888 15.6428 7.54952 15.6878 7.58718C15.7328 7.62483 15.7631 7.67711 15.7734 7.73486Z" fill="#FFC84B" stroke="#D8AA3F" stroke-width="0.132812"/>
<path fill-rule="evenodd" clip-rule="evenodd" d="M17.3749 8.42236C20.8827 4.1958 23.9452 4.71143 27.9452 4.42236C28.078 4.91455 28.0234 5.64893 26.1249 6.29736C23.5155 6.68799 18.8515 9.43799 18.828 9.43799C17.9609 9.39111 17.3515 8.48486 17.3749 8.42236Z" fill="#FFC84B" stroke="#D8AA3F" stroke-width="0.140625"/>
<path d="M24.3047 6.09424L26.1875 6.25049M24.5859 5.66455L27.1719 5.78174L24.5859 5.66455Z" stroke="#D9A43E" stroke-width="0.140625" stroke-linecap="round"/>
</g>
</g>
<defs>
<clipPath id="clip0_769_19152">
<path d="M0 20C0 8.95431 8.95431 0 20 0C31.0457 0 40 8.95431 40 20C40 31.0457 31.0457 40 20 40C8.95431 40 0 31.0457 0 20Z" fill="white"/>
</clipPath>
<clipPath id="clip1_769_19152">
<rect width="53.3333" height="40" fill="white" transform="translate(-7 0.000488281)"/>
</clipPath>
</defs>
</svg>
