<svg width="40" height="40" viewBox="0 0 40 40" fill="none" xmlns="http://www.w3.org/2000/svg">
<g clip-path="url(#clip0_769_24957)">
<path d="M0 20C0 8.95431 8.95431 0 20 0C31.0457 0 40 8.95431 40 20C40 31.0457 31.0457 40 20 40C8.95431 40 0 31.0457 0 20Z" fill="#E94E0F"/>
<g clip-path="url(#clip1_769_24957)">
<path d="M-7 -0.000976562H46.3333V39.999H-7V-0.000976562Z" fill="#244AA5"/>
<path d="M14.0834 18.7324C14.0834 18.7324 14.1834 18.6657 14.2168 18.6574C14.2584 18.6574 14.3834 18.6074 14.3834 18.6074C14.3834 18.6074 14.4668 18.5657 14.5084 18.5657C14.5584 18.5657 14.6418 18.6157 14.6751 18.6574C14.7001 18.699 14.8418 18.774 14.8418 18.774C14.8418 18.774 14.9418 18.8074 14.9668 18.774C14.9834 18.7407 15.0251 18.7157 15.0751 18.7157C15.1168 18.7157 15.1251 18.674 15.1251 18.6407C15.1251 18.6074 15.1418 18.5657 15.1751 18.524C15.2168 18.4824 15.2834 18.4574 15.2834 18.4574C15.2834 18.4574 15.3834 18.4157 15.3918 18.3574C15.4084 18.299 15.5001 18.2574 15.5584 18.249C15.6168 18.249 15.5584 18.2157 15.7084 18.2324C15.8501 18.249 15.8751 18.199 15.8751 18.1574C15.8834 18.1157 15.8751 18.074 15.9668 18.074C16.0584 18.0907 16.1001 18.0907 16.1001 18.0407C16.1001 17.9907 16.1834 17.9574 16.0418 17.924C15.8918 17.8824 15.9084 17.9157 15.8918 17.8407C15.8918 17.7824 15.8918 17.7907 15.8001 17.7824C15.7001 17.774 15.7501 17.724 15.7418 17.674C15.7334 17.624 15.7084 17.5907 15.6918 17.5657C15.6668 17.5324 15.6168 17.5324 15.6168 17.4824C15.6168 17.4324 15.6084 17.399 15.5584 17.399C15.5001 17.399 15.4751 17.399 15.4751 17.3574C15.4751 17.3074 15.4918 17.274 15.5418 17.274C15.6001 17.274 15.6251 17.224 15.6251 17.174C15.6084 17.124 15.6084 17.0157 15.6084 17.0157L15.6834 16.9324C15.6834 16.9324 15.9001 16.7574 15.9168 16.724C15.9334 16.6907 16.0084 16.6657 16.0418 16.7324C16.0751 16.799 16.0918 16.8157 16.1251 16.849C16.1501 16.8824 16.2334 16.8574 16.2501 16.824C16.2668 16.7907 16.2751 16.6657 16.3251 16.599C16.3751 16.5407 16.4084 16.5074 16.4168 16.449C16.4251 16.3907 16.4584 16.349 16.5168 16.349C16.5668 16.349 16.6001 16.274 16.6001 16.2324C16.6001 16.1907 16.6334 16.149 16.7001 16.1324C16.7668 16.124 16.8084 16.0824 16.8334 16.149C16.8584 16.2157 16.8834 16.2074 16.9251 16.2324C16.9751 16.2574 17.0418 16.2824 17.0751 16.2574C17.1168 16.224 17.1334 16.174 17.1834 16.199C17.2334 16.2324 17.2668 16.199 17.2834 16.1407L17.3084 15.9824C17.3084 15.9824 17.3168 15.9407 17.4001 15.9407C17.4834 15.9407 17.4251 15.8907 17.4668 15.8574C17.5168 15.824 17.5168 15.7907 17.5751 15.8074C17.6334 15.8324 17.7251 15.7824 17.6834 15.724C17.6334 15.674 17.5334 15.5907 17.5918 15.524C17.6501 15.4574 17.6751 15.3574 17.6168 15.3407C17.5584 15.3324 17.4668 15.349 17.4584 15.2907C17.4501 15.224 17.4251 15.174 17.5001 15.1657C17.5668 15.1574 17.6834 15.1574 17.7251 15.124C17.7584 15.0907 17.8751 15.0657 17.8751 14.974C17.8751 14.874 17.9084 14.8657 17.9251 14.8074C17.9334 14.7574 17.9334 14.6407 17.8834 14.5907C17.8334 14.5324 17.7668 14.4574 17.7584 14.424C17.7418 14.3907 17.7001 14.3407 17.6251 14.3157C17.5584 14.299 17.4918 14.2824 17.4918 14.2324C17.4918 14.174 17.5418 14.2407 17.5418 14.099C17.5418 13.9574 17.4501 13.9324 17.4501 13.9324L17.3084 13.849C17.3084 13.849 17.0584 13.7824 16.9918 13.7824C16.9251 13.7824 16.8418 13.7157 16.9168 13.6657C17.0001 13.624 17.0168 13.5407 16.9918 13.4824C16.9584 13.424 16.9418 13.374 16.8334 13.349C16.7251 13.324 16.7001 13.299 16.7501 13.2324C16.7918 13.174 16.8084 13.124 16.8668 13.174C16.9168 13.2157 17.0168 13.2324 17.0918 13.199C17.1751 13.1657 17.2001 13.1324 17.2418 13.174C17.2751 13.2074 17.3251 13.2407 17.3834 13.1907C17.4418 13.1324 17.5501 13.124 17.6001 13.149C17.6418 13.1824 17.7668 13.174 17.8001 13.149C17.8334 13.1324 17.9168 13.0657 17.9168 13.0407C17.9168 13.0157 17.9668 12.9407 18.0084 12.9157C18.0584 12.8824 18.1168 12.799 18.1668 12.799C18.2168 12.799 18.2334 12.7407 18.2334 12.7157C18.2334 12.674 18.2751 12.599 18.2834 12.574C18.2834 12.549 18.3834 12.5074 18.4501 12.574C18.5251 12.6157 18.6168 12.6407 18.6168 12.6407C18.6168 12.6407 18.7001 12.6574 18.7584 12.6407C18.7847 12.6245 18.815 12.6159 18.8459 12.6159C18.8768 12.6159 18.9071 12.6245 18.9334 12.6407C19.0084 12.6907 19.1001 12.6907 19.1001 12.6907L19.1251 12.5824C19.1251 12.549 19.1418 12.4824 19.1001 12.4574C19.0668 12.4324 19.0168 12.399 19.0918 12.3407C19.1751 12.2907 19.1751 12.299 19.2501 12.299L19.4334 12.3074C19.4918 12.3074 19.5834 12.3657 19.5834 12.4157C19.5834 12.4657 19.6251 12.499 19.6668 12.5324C19.7168 12.5574 19.7751 12.5824 19.7501 12.6324C19.7418 12.674 19.7418 12.7157 19.8001 12.699C19.8584 12.6907 19.8751 12.724 19.8751 12.774C19.8751 12.8157 19.8918 12.8407 19.9584 12.8574C20.0084 12.874 20.0418 12.9157 20.0418 12.9574C20.0418 12.999 20.0251 13.0324 20.0418 13.074L20.1251 13.1907C20.1251 13.1907 20.2334 13.3157 20.0918 13.249C19.9584 13.1907 19.9251 13.1657 19.8834 13.1657L19.8001 13.2074L19.6918 13.224C19.6418 13.224 19.5918 13.324 19.6751 13.3407C19.7501 13.3574 19.7751 13.374 19.7751 13.4407C19.7751 13.5074 19.7501 13.4824 19.7084 13.524C19.6751 13.574 19.6418 13.5407 19.5751 13.5407C19.5084 13.5407 19.4918 13.599 19.4918 13.649C19.4918 13.699 19.5168 13.699 19.5418 13.7324C19.5751 13.7824 19.6251 13.7907 19.6751 13.749C19.7168 13.7074 19.7584 13.674 19.7834 13.7574C19.8168 13.8407 19.8584 13.8407 19.9084 13.8407C19.9668 13.8407 19.9918 13.8407 20.0418 13.8074C20.0834 13.7824 20.1418 13.8074 20.1501 13.8824C20.1668 13.949 20.2084 13.9657 20.2584 13.9907C20.3084 14.0157 20.3418 14.0324 20.3418 14.074C20.3584 14.124 20.3834 14.1407 20.4334 14.1157C20.4834 14.0824 20.5584 14.0657 20.5918 14.1074L20.6668 14.2074V14.299L20.8584 14.3657L20.8751 14.449C20.8751 14.474 20.9084 14.499 20.9584 14.4824H21.0918C21.0918 14.4824 21.1584 14.4574 21.1584 14.399C21.1584 14.349 21.1834 14.3324 21.2418 14.3324C21.2834 14.3324 21.3918 14.374 21.4168 14.3157C21.4501 14.2657 21.5334 14.249 21.6001 14.274L21.8501 14.374C21.8501 14.374 21.8251 14.374 21.8834 14.4657C21.9418 14.5574 22.0501 14.5574 22.0501 14.5574C22.0501 14.5574 22.0501 14.6407 22.0751 14.674C22.0918 14.7074 22.1834 14.724 22.2251 14.6907C22.2751 14.6574 22.3418 14.6074 22.4001 14.6074C22.4584 14.6074 22.5001 14.6074 22.5001 14.574C22.5001 14.5407 22.4418 14.5157 22.4418 14.4574C22.4418 14.399 22.5001 14.4074 22.5084 14.349C22.5168 14.299 22.5751 14.349 22.6168 14.3824C22.6584 14.4157 22.7001 14.449 22.7001 14.4824C22.7001 14.524 22.7834 14.649 22.8251 14.6657C22.8751 14.6824 23.0001 14.6907 23.0418 14.649C23.0751 14.599 23.1751 14.5824 23.1668 14.6907C23.1584 14.799 23.1334 14.8074 23.2001 14.8407C23.2668 14.874 23.2834 15.0074 23.2251 15.0407C23.1668 15.074 23.1418 15.0824 23.1418 15.1407C23.1418 15.199 23.1251 15.274 23.1751 15.3074C23.2251 15.349 23.2584 15.374 23.2584 15.4074C23.2584 15.449 23.3084 15.6074 23.3084 15.6074C23.3084 15.6074 23.3418 15.7657 23.3251 15.799C23.3251 15.8407 23.3001 15.899 23.3834 15.8907C23.4668 15.8824 23.4918 15.8824 23.4918 15.949C23.4918 16.0157 23.5251 16.049 23.4751 16.074C23.4251 16.1074 23.3918 16.1907 23.4418 16.2074C23.4918 16.224 23.5251 16.2574 23.5418 16.2907C23.5501 16.324 23.6251 16.3907 23.6751 16.349C23.7251 16.3157 23.7334 16.299 23.7751 16.2907C23.8084 16.2824 23.8418 16.2574 23.8001 16.2074C23.7668 16.1657 23.7501 16.124 23.7918 16.0907C23.8334 16.0657 23.8501 15.9824 23.8501 15.9824C23.8501 15.9824 23.9084 15.899 23.9751 15.9824C24.0418 16.0657 24.0584 16.0324 24.1001 16.0324C24.1418 16.0324 24.1668 16.074 24.1668 16.1157C24.1668 16.1657 24.2668 16.1574 24.2668 16.224L24.2834 16.474C24.2834 16.474 24.2834 16.5657 24.3418 16.599C24.4001 16.6407 24.3918 16.649 24.3584 16.6824C24.3334 16.7324 24.3418 16.8074 24.3418 16.849C24.3418 16.8907 24.3584 16.8907 24.3168 16.9324C24.2668 16.9657 24.2418 17.0157 24.2751 17.0657C24.3001 17.1157 24.2918 17.149 24.3668 17.2157C24.4501 17.274 24.4418 17.299 24.4418 17.349C24.4418 17.3907 24.5168 17.4574 24.5168 17.499C24.5168 17.5407 24.5751 17.599 24.6251 17.6074C24.6751 17.6157 24.7251 17.6907 24.7251 17.7407L24.7334 17.899C24.7334 17.899 24.7334 17.924 24.7834 17.924C24.8418 17.924 24.8834 17.9907 24.9001 17.924C24.9168 17.8407 24.9834 17.8407 25.0168 17.8157C25.0501 17.7907 25.1334 17.7657 25.1751 17.7907C25.2168 17.8157 25.2584 17.8157 25.3001 17.8157L25.5168 17.824C25.5168 17.824 25.5668 17.824 25.6001 17.8907C25.6251 17.9574 25.7084 18.0407 25.6668 18.074C25.6168 18.1157 25.6168 18.1824 25.6668 18.1824C25.7168 18.1824 25.7918 18.1824 25.7918 18.224C25.7918 18.274 25.7918 18.3074 25.8501 18.2824C25.8918 18.2574 25.9251 18.249 25.9418 18.2824C25.9668 18.3157 26.0001 18.3157 26.0501 18.3407C26.1001 18.374 26.1168 18.349 26.1501 18.3157C26.1751 18.2824 26.2918 18.249 26.2918 18.249C26.2918 18.249 26.4418 18.2074 26.5001 18.224L26.6418 18.2824C26.6418 18.2824 26.6751 18.3657 26.6584 18.424C26.6418 18.474 26.6168 18.4657 26.6418 18.549C26.6584 18.6324 26.6168 18.6324 26.5834 18.6324C26.5418 18.6157 26.5001 18.6157 26.5001 18.6907C26.5001 18.7574 26.4668 18.774 26.4668 18.8407C26.4668 18.9074 26.4668 18.8907 26.4251 18.924C26.3918 18.949 26.3751 18.9907 26.4334 19.0074C26.4918 19.0074 26.4751 19.074 26.4751 19.1074L26.4668 19.224C26.4668 19.224 26.4668 19.2657 26.4084 19.2657C26.3501 19.2657 26.2834 19.2657 26.2751 19.3074C26.2584 19.349 26.1918 19.4157 26.2501 19.4657C26.3168 19.5074 26.3001 19.5324 26.2584 19.549C26.2251 19.574 26.1918 19.6574 26.2751 19.6824C26.3501 19.7157 26.3418 19.7407 26.2918 19.774C26.2418 19.8074 26.1501 19.8407 26.1501 19.8907C26.1501 19.9407 26.1251 19.9407 26.0668 19.949C26.0084 19.9574 25.9834 20.0324 26.0501 20.1157C26.1168 20.2074 26.1334 20.199 26.1834 20.199C26.2334 20.199 26.2334 20.1157 26.2334 20.1157L26.4418 20.1324C26.4918 20.1324 26.5584 20.1324 26.6001 20.1074C26.6418 20.074 26.7418 20.0324 26.7418 20.1074C26.7418 20.1907 26.7668 20.1907 26.8084 20.2157C26.8584 20.2574 26.8668 20.224 26.9084 20.2824C26.9501 20.3324 26.9584 20.2824 26.9918 20.224C27.0168 20.1657 27.0751 20.1074 27.1251 20.174C27.1668 20.249 27.1668 20.224 27.2251 20.224C27.2834 20.224 27.3084 20.2574 27.3084 20.299C27.3084 20.3407 27.3584 20.3407 27.4334 20.3324C27.5001 20.3324 27.5084 20.374 27.5334 20.4157C27.5584 20.4574 27.5751 20.449 27.6168 20.449C27.6501 20.449 27.6918 20.449 27.7168 20.4157C27.7501 20.3824 27.7834 20.3324 27.8251 20.3907C27.8668 20.4407 27.9418 20.4324 27.9584 20.374C27.9834 20.3074 28.0668 20.2574 28.1168 20.324C28.1668 20.399 28.2001 20.399 28.2501 20.4074C28.3001 20.4074 28.3668 20.4074 28.3918 20.4574C28.4251 20.5074 28.5168 20.574 28.4501 20.624C28.3834 20.6824 28.3084 20.749 28.3668 20.774C28.419 20.7867 28.4658 20.816 28.5001 20.8574C28.5418 20.8907 28.6668 20.9157 28.7251 20.924C28.7834 20.924 28.8251 20.9407 28.8918 20.8824C28.9668 20.8324 29.0334 20.8324 29.0251 20.9074C29.0168 20.974 29.0501 21.0574 29.0501 21.0574C29.0501 21.0574 29.1001 21.174 29.1001 21.2157C29.1001 21.2574 29.0918 21.2657 29.1834 21.324C29.2668 21.374 29.2501 21.4074 29.3251 21.3574C29.3918 21.3074 29.4084 21.274 29.4084 21.2324V21.0907C29.4084 21.0907 29.5084 21.074 29.5418 21.049C29.5834 21.0157 29.7334 20.9407 29.7751 20.974C29.8168 21.0074 29.8584 20.999 29.9001 20.9824C29.9418 20.9657 30.0168 20.9657 30.0584 20.9657C30.0918 20.9657 30.1584 20.974 30.2418 20.9157C30.3168 20.849 30.3168 20.8657 30.3668 20.9157C30.4084 20.9574 30.4084 21.0074 30.3834 21.049C30.3501 21.0824 30.3834 21.1574 30.4501 21.1574C30.5168 21.1574 30.5334 21.199 30.5334 21.2407L30.5584 21.3824C30.5584 21.4157 30.5584 21.4407 30.6751 21.4657C30.7751 21.4907 30.7584 21.549 30.7751 21.599C30.8001 21.6407 30.8001 21.6824 30.7418 21.6824C30.6834 21.6824 30.6584 21.7074 30.6584 21.749C30.6418 21.7907 30.5584 21.8074 30.5584 21.8074L30.4751 21.7907C30.4751 21.7907 30.4084 21.7907 30.3834 21.824C30.3501 21.8657 30.3001 21.9324 30.3334 21.9907C30.3751 22.0574 30.3751 22.0907 30.3334 22.124C30.3001 22.149 30.2751 22.2824 30.2418 22.2574C30.2001 22.224 30.1584 22.2574 30.1168 22.2824C30.0751 22.299 30.0834 22.424 30.1584 22.4657C30.2418 22.5157 30.2584 22.574 30.2584 22.574L30.3418 22.7074C30.3418 22.7074 30.3168 22.7324 30.3001 22.7824C30.2751 22.824 30.2168 22.9157 30.2751 22.9324C30.3334 22.949 30.3084 23.049 30.2501 23.049C30.1918 23.049 30.1251 23.0157 30.1168 23.0907C30.1084 23.1657 30.0751 23.1407 30.0168 23.1324C29.9584 23.1324 29.8168 23.0907 29.7751 23.1574C29.7334 23.2324 29.7251 23.2574 29.6584 23.249C29.5918 23.249 29.6168 23.3574 29.6418 23.399L29.7251 23.5074C29.7251 23.5074 29.7834 23.549 29.7834 23.6407C29.7834 23.724 29.7418 23.724 29.7001 23.6574C29.6668 23.599 29.5918 23.6074 29.5834 23.674C29.5751 23.749 29.5584 23.8574 29.5001 23.8574C29.4251 23.8574 29.4001 23.874 29.3668 23.9074C29.3418 23.9407 29.2918 24.0074 29.2918 24.0407C29.2918 24.074 29.2834 24.1157 29.2334 24.124C29.1834 24.1324 29.1751 24.224 29.1751 24.224C29.1751 24.224 29.0584 24.249 29.0501 24.2907C29.0418 24.3324 29.0584 24.4074 28.9668 24.4157C28.9294 24.4201 28.8935 24.4329 28.8618 24.4531C28.83 24.4733 28.8032 24.5004 28.7834 24.5324C28.7501 24.574 28.7418 24.6157 28.7834 24.6574C28.8251 24.699 28.8501 24.8407 28.9001 24.8657C28.9418 24.8907 28.9834 24.9074 28.9751 24.974C28.9668 25.049 28.9084 25.099 28.9834 25.099C29.0668 25.099 29.1084 25.1157 29.0834 25.1824C29.0501 25.2407 29.0501 25.249 29.0001 25.274C28.9334 25.3074 28.9084 25.3074 28.9084 25.374C28.9084 25.4407 28.9251 25.449 28.8751 25.474C28.8251 25.499 28.8251 25.5324 28.8251 25.5907C28.8251 25.649 28.8084 25.624 28.7501 25.6824C28.6918 25.749 28.6168 25.749 28.5668 25.7324C28.5168 25.7157 28.5084 25.7157 28.5001 25.6574C28.4918 25.6074 28.4084 25.6074 28.3584 25.6157C28.3084 25.6157 28.2418 25.674 28.2418 25.674C28.2418 25.674 28.1584 25.7324 28.1918 25.774C28.2334 25.8157 28.2084 25.8907 28.1418 25.8824C28.0751 25.874 27.9251 25.949 27.8751 25.874C27.8251 25.7907 27.6918 25.7407 27.6668 25.849C27.6501 25.949 27.7251 25.9407 27.7168 26.049C27.7168 26.1574 27.6918 26.1574 27.6501 26.1907C27.6168 26.224 27.6168 26.2574 27.6001 26.299C27.6001 26.3407 27.5834 26.4407 27.6501 26.474C27.7168 26.5157 27.7501 26.6074 27.7501 26.6657C27.7501 26.7157 27.7501 26.774 27.8168 26.774C27.8834 26.774 27.9418 26.7574 27.9501 26.699C27.9584 26.6407 28.0918 26.599 28.1084 26.724C28.1084 26.849 28.1084 26.9157 28.1668 26.9657C28.2084 27.0157 28.2501 27.0907 28.2918 27.1157C28.3251 27.1407 28.3918 27.3657 28.3918 27.3657C28.3001 27.3907 28.2751 27.5157 28.2168 27.5324C28.1834 27.549 28.1418 27.5324 28.1084 27.5574C28.0918 27.5824 28.0918 27.6157 28.0584 27.624C27.9834 27.6574 28.0001 27.549 27.9084 27.5907C27.8334 27.624 27.8251 27.7157 27.7168 27.674C27.6584 27.6574 27.6251 27.424 27.6084 27.374L27.5168 27.224C27.4501 27.124 27.3251 27.224 27.2834 27.1907C27.2168 27.149 27.2418 27.074 27.1418 27.0657C26.9418 27.049 27.0834 27.1907 27.0001 27.2157C26.8334 27.274 26.8334 27.0657 26.7168 27.1657C26.6751 27.199 26.8001 27.224 26.7668 27.2824C26.7418 27.3324 26.6251 27.4157 26.6251 27.474C26.6418 27.5574 26.7251 27.5824 26.7501 27.6407C26.8334 27.8324 26.7084 27.9574 26.5251 27.8074C26.4251 27.7324 26.4001 27.5824 26.2501 27.599C26.2084 27.599 26.2001 27.6324 26.1668 27.6407C26.1251 27.6407 26.1001 27.6074 26.0584 27.6157C26.0001 27.6407 26.0584 27.6824 26.0418 27.7157C26.0418 27.7157 25.9584 27.774 25.9584 27.799C25.9084 27.849 25.9251 27.899 25.8584 27.949C25.8084 27.9907 25.7668 27.9657 25.7084 28.0324C25.6501 28.0907 25.6418 28.1907 25.5668 28.249C25.5251 28.2824 25.5001 28.1574 25.4501 28.2407L25.4334 28.274C25.4168 28.299 25.4168 28.3074 25.4334 28.3324C25.5334 28.5324 25.3168 28.599 25.2501 28.7407C25.2251 28.799 25.3001 28.849 25.2751 28.899L25.1501 29.0407C25.1501 29.0574 25.1334 29.1074 25.1168 29.124C25.1001 29.1407 25.0334 29.124 25.0334 29.1574C25.0334 29.1907 25.1001 29.2157 25.1168 29.2324C25.1334 29.2574 25.1001 29.2907 25.1168 29.299C25.2168 29.4074 25.1584 29.374 25.2084 29.4657C25.2168 29.4824 25.2501 29.4574 25.2668 29.4907C25.2751 29.524 25.2334 29.524 25.2501 29.5574C25.2501 29.574 25.3334 29.674 25.3334 29.674C25.3334 29.7074 25.1834 29.774 25.1501 29.774C25.0584 29.774 25.2334 29.5907 25.0834 29.5907C25.0168 29.5907 25.0084 29.7324 25.0001 29.7574H24.9168C24.8168 29.7574 24.7501 29.874 24.7168 29.8824C24.6918 29.8907 24.6334 29.8657 24.5918 29.8824C24.5584 29.8824 24.5084 29.924 24.4751 29.924C24.4501 29.924 24.4418 29.9074 24.4168 29.8907C24.3751 29.8657 24.2918 29.8574 24.2501 29.8407C24.2168 29.8407 24.1668 29.874 24.1501 29.8657C24.1251 29.849 24.1751 29.7824 24.1001 29.749L24.0418 29.6074C24.0668 29.524 24.0918 29.4407 24.0834 29.349C24.0668 29.2574 23.9168 29.1824 23.8834 29.099C23.8584 29.049 23.8334 28.899 23.7751 28.8657C23.7116 28.817 23.6602 28.7543 23.6251 28.6824C23.6251 28.6657 23.6501 28.6324 23.6251 28.599C23.6001 28.574 23.5584 28.5574 23.5418 28.5157C23.5334 28.4824 23.5418 28.3657 23.5001 28.3407C23.4584 28.3157 23.1668 28.274 23.0834 28.2657C23.0501 28.2657 23.0251 28.2657 23.0001 28.2407L22.9501 28.1824L22.8668 28.199C22.8418 28.199 22.8001 28.1824 22.7834 28.199C22.6918 28.2574 22.6668 28.3407 22.5751 28.4157C22.4834 28.4824 22.3834 28.4824 22.2918 28.5574C22.2334 28.6074 22.1918 28.7324 22.1334 28.7907C22.1084 28.8157 22.0751 28.7907 22.0668 28.799C22.0168 28.8574 21.9501 28.899 21.9001 28.949C21.8918 28.9657 21.9001 28.9824 21.8834 28.9907L21.7751 29.024H21.6751C21.6334 29.0407 21.6334 29.0907 21.4668 29.124L21.4251 29.149L21.3751 29.1907H21.3001C21.2584 29.1907 21.2334 29.2324 21.2001 29.2324C21.1168 29.249 20.9668 29.1907 20.9001 29.224C20.8584 29.2324 20.7501 29.3657 20.7084 29.374C20.6834 29.3824 20.6584 29.374 20.6251 29.3657L20.5751 29.549L20.3751 29.724C20.3501 29.749 20.3418 29.7824 20.3084 29.8074C20.2918 29.8324 20.2584 29.849 20.2251 29.849C20.1918 29.849 20.1334 29.8157 20.0918 29.8157C20.0251 29.799 19.8168 29.7907 19.7584 29.8074C19.6834 29.8157 19.7084 30.0074 19.5418 30.024L19.2668 30.0574C19.2584 30.0574 19.2001 30.024 19.1418 30.0324C19.1168 30.0407 19.0501 30.1157 19.0501 30.1324V30.174L19.0668 30.2074C19.0334 30.249 18.9501 30.3157 18.9251 30.374L18.8918 30.4074C18.8751 30.424 18.7584 30.4657 18.7501 30.4824C18.7251 30.549 18.8334 30.6157 18.8168 30.6407C18.7918 30.724 18.6751 30.8074 18.6334 30.8907C18.6251 30.924 18.6751 31.0324 18.6751 31.0657C18.6584 31.174 18.6251 31.3074 18.6334 31.4074L18.6501 31.549L18.7084 31.5907L18.8584 31.8907C18.8834 32.074 18.6084 32.0074 18.7751 32.1907C18.7918 32.224 18.8084 32.249 18.8418 32.274L19.0751 32.4657C19.0751 32.499 18.9084 32.524 18.8834 32.549C18.8001 32.6324 18.7418 32.7657 18.6668 32.849C18.6168 32.8907 18.5834 32.8407 18.5168 32.9574C18.5001 32.999 18.5168 33.0907 18.4918 33.124C18.4501 33.1574 18.4251 33.1074 18.3834 33.124C18.3668 33.124 18.3584 33.1824 18.3418 33.1907C18.3001 33.2324 17.9084 33.4407 17.8751 33.4157C17.8584 33.4074 17.8334 33.3407 17.8334 33.324C17.8334 33.299 17.8001 33.249 17.7834 33.2407C17.6834 33.1574 17.5334 33.1324 17.4334 33.2407C17.4084 33.2657 17.4084 33.3074 17.3751 33.324L17.2084 33.4574L17.1668 33.499C17.1251 33.499 17.0334 33.3907 17.0001 33.3574C16.9668 33.3074 16.8334 33.1907 16.8251 33.1324C16.8251 32.9324 16.6668 32.724 16.6084 32.5324H16.7001C16.8084 32.4574 16.7834 32.2824 16.9751 32.349C17.0001 32.3157 17.0001 32.2824 17.0418 32.2657C17.0584 32.249 17.0918 32.2407 17.1001 32.224C17.1668 32.124 17.2418 31.7407 17.1751 31.6407C17.1168 31.5574 17.0501 31.5574 17.0084 31.4157C16.9918 31.374 17.0084 31.3324 17.0084 31.2824L16.9251 31.024C16.9084 30.999 16.8668 30.9824 16.8668 30.9657L16.8501 30.7074C16.7918 30.524 16.5668 30.4157 16.5584 30.3907L16.4751 30.249C16.4418 30.1907 16.4418 30.1657 16.4251 30.1157C16.4168 30.0907 16.3751 30.0657 16.3751 30.0407C16.3751 29.9907 16.5084 29.899 16.5001 29.8157C16.5001 29.7907 16.4168 29.7074 16.4334 29.6657C16.4501 29.6157 16.5334 29.5157 16.5334 29.4574C16.5334 29.3907 16.4001 29.2407 16.3834 29.174C16.3751 29.1324 16.4334 29.1074 16.4168 29.0824C16.4001 29.049 16.2668 28.924 16.2501 28.8907C16.2251 28.8657 16.2918 28.8324 16.2501 28.7824C16.2001 28.7407 16.2418 28.749 16.2251 28.7157C16.2084 28.674 16.1668 28.6324 16.1418 28.5907C16.1251 28.549 16.0084 28.1324 16.0168 28.1074C15.9918 28.0824 15.9584 28.0574 15.9418 28.024L15.9084 27.924C15.9084 27.924 15.7751 27.8824 15.7501 27.8407C15.7334 27.8157 15.7251 27.7074 15.6918 27.6574C15.6751 27.6324 15.6501 27.6407 15.6334 27.624C15.6168 27.6074 15.6168 27.5824 15.6084 27.5657C15.5668 27.5157 15.4918 27.5657 15.4418 27.3657C15.3584 27.3157 15.3001 27.2824 15.2418 27.2157L15.2084 27.1824C15.1584 27.1657 15.0834 27.1574 15.0418 27.124C15.0168 27.124 14.8918 27.124 14.8751 27.1074L14.8418 27.0407C14.7751 27.0324 14.6584 27.0407 14.6001 26.9907C14.5584 26.949 14.5501 26.7574 14.4668 26.7824C14.4559 26.7791 14.4443 26.7791 14.4334 26.7824C14.3751 26.699 14.1918 26.699 14.1168 26.649C14.1001 26.6407 14.0334 26.649 14.0334 26.6324L14.0418 26.524L13.9501 26.4074C13.8751 26.3907 13.9001 26.3824 13.8668 26.3574C13.7418 26.3574 13.7251 26.374 13.6501 26.4407C13.6334 26.4574 13.5918 26.4657 13.5668 26.474C13.5251 26.499 13.5168 26.574 13.4584 26.5407L13.4084 26.499C13.3751 26.4657 13.3584 26.4824 13.3418 26.4324C13.2418 26.374 12.9668 26.5574 12.9084 26.4324C12.8584 26.4074 12.8251 26.4324 12.7834 26.399C12.7668 26.3824 12.8418 26.149 12.6418 26.0657L12.7751 25.974C12.7918 25.949 12.7751 25.9074 12.7751 25.8907C12.7751 25.849 12.8001 25.774 12.7918 25.749C12.7918 25.724 12.7584 25.699 12.7501 25.6657C12.7334 25.6407 12.7501 25.599 12.7334 25.5657L12.6668 25.5324C12.6168 25.4907 12.5668 25.4657 12.5251 25.4157L12.4918 25.374C12.4584 25.349 12.3418 25.3074 12.3418 25.2574C12.3418 25.2407 12.3751 25.2324 12.3751 25.2157C12.3834 25.1907 12.3751 25.1657 12.4001 25.149C12.4501 25.0657 12.5751 25.1074 12.5584 24.9657C12.5501 24.899 12.5001 24.849 12.4918 24.7824C12.4668 24.7657 12.4668 24.7407 12.4501 24.724C12.3251 24.7157 12.3418 24.5907 12.3001 24.5574C12.1751 24.474 12.0751 24.524 12.2168 24.3574C12.2334 24.299 12.0918 24.2074 12.0668 24.1824C12.0168 24.1324 12.0418 24.024 12.0168 23.974C12.0168 23.949 11.9251 23.899 11.9001 23.8657L11.8584 23.7824V23.774C11.8834 23.749 11.8751 23.7074 11.8584 23.6907C11.8501 23.6657 11.8084 23.674 11.8001 23.6574C11.6834 23.5574 11.5501 23.5074 11.3918 23.449C11.3501 23.4324 11.3668 23.399 11.3251 23.3824L11.0751 23.2824C11.0584 23.2824 11.0418 23.1907 11.0251 23.1574L10.9501 23.074C10.9501 22.9907 10.9001 22.9907 10.8334 22.9407V22.8907L10.8834 22.7157C10.8918 22.6824 10.9334 22.649 10.9251 22.6157L10.8918 22.424C10.8251 22.2574 10.7501 22.274 10.7918 22.049C10.7918 21.999 10.7834 21.974 10.8168 21.9324L10.8334 21.9074L10.9334 21.8324C10.9668 21.7824 10.9918 21.674 11.0334 21.6407L11.1834 21.5407C11.2001 21.524 11.2168 21.4657 11.2084 21.4407C11.1751 21.424 11.1418 21.4324 11.1084 21.424C11.0918 21.424 11.0501 21.3907 11.0168 21.3907C11.0084 21.374 10.9918 21.3657 10.9918 21.349L10.9751 21.3324C10.9334 21.3324 10.8918 21.3074 10.8584 21.2907C10.8168 21.274 10.7584 21.274 10.7168 21.249C10.6334 21.2074 10.5501 21.0824 10.4751 21.0657C10.3751 21.0407 10.3084 21.074 10.2084 21.0824C10.1501 21.0824 10.1501 21.049 10.1001 21.0324C10.0334 21.0074 10.0834 21.0657 9.93343 21.0157C9.90843 20.999 9.93343 20.949 9.93343 20.9324H9.8501C9.73343 20.899 9.7751 20.7824 9.74176 20.7074C9.73343 20.6907 9.6751 20.6907 9.65843 20.6907C9.64176 20.6907 9.64176 20.674 9.64176 20.674L9.65843 20.6657C9.6751 20.6324 9.6001 20.549 9.6001 20.5324C9.60843 20.5074 9.76676 20.4824 9.78343 20.4824C9.79176 20.4574 9.7751 20.4407 9.76676 20.424C9.76676 20.3824 9.79176 20.324 9.80843 20.2824V20.2657C9.75843 20.2407 9.7501 20.2074 9.70843 20.1824C9.70843 20.1574 9.73343 20.149 9.74176 20.124C9.81676 19.9157 9.93343 20.0824 10.0334 19.8907C10.0418 19.874 10.0751 19.8324 10.0834 19.799H10.1001C10.1168 19.799 10.1501 19.8157 10.1668 19.799C10.1834 19.7824 10.2084 19.7824 10.2334 19.774H10.2751C10.4584 19.7407 10.4168 19.674 10.5251 19.599C10.5584 19.574 10.6418 19.5657 10.6751 19.549C10.7168 19.574 10.7751 19.6324 10.8501 19.6657C10.9084 19.6824 11.1001 19.724 11.1334 19.749C11.1751 19.7657 11.1834 19.8157 11.2168 19.8324C11.3251 19.899 11.2584 19.799 11.3668 19.8157C11.4751 19.8407 11.5584 19.9324 11.6584 19.974L11.7418 19.9657C11.7668 19.9574 11.9334 19.924 11.9501 19.9324L12.0168 19.9574C12.0418 19.9657 12.0584 19.9157 12.0834 19.9157C12.1501 19.9324 12.1501 19.9574 12.2501 19.949C12.2501 19.949 12.3001 19.674 12.3501 19.6657C12.3751 19.6574 12.4501 19.724 12.4668 19.7324C12.5001 19.7407 12.4668 19.674 12.4668 19.674C12.4501 19.649 12.4001 19.4824 12.4084 19.4657C12.4084 19.4657 12.4501 19.4824 12.4751 19.474C12.5251 19.4574 12.6001 19.4407 12.6418 19.399L12.7251 19.274C12.7334 19.2574 12.7084 19.2074 12.7251 19.1907L12.8001 19.1407C12.8334 19.1074 12.8334 19.0574 12.8834 19.0324C13.0501 19.0157 13.1084 18.8824 13.2668 18.8657H13.3168L13.3501 18.9157C13.3501 18.924 13.4584 18.9907 13.4751 18.9824C13.4918 18.9824 13.5001 18.9574 13.5168 18.949C13.5418 18.9574 13.6334 18.9074 13.6418 18.874C13.6418 18.874 13.6251 18.849 13.6334 18.824C13.675 18.787 13.7196 18.7536 13.7668 18.724H13.8834C13.9001 18.7407 13.9001 18.774 13.9251 18.774H14.0251C14.0418 18.774 14.0501 18.7324 14.0834 18.7324Z" fill="#D0A650"/>
<path d="M22.3249 6.11569L23.6666 10.249L20.1499 7.69069H24.4999L20.9832 10.249L22.3166 6.11569H22.3249Z" fill="white"/>
<path d="M27.5583 7.04066L28.8916 11.174L25.3833 8.61566H29.725L26.2083 11.174L27.5583 7.04066Z" fill="white"/>
<path d="M32.55 8.85733L33.8833 12.9907L30.375 10.4323H34.7167L31.2 12.999L32.55 8.86566V8.85733Z" fill="white"/>
<path d="M17.0083 6.11566L15.6666 10.249L19.1833 7.69066H14.8333L18.3499 10.249L17.0166 6.11566H17.0083Z" fill="white"/>
<path d="M11.7751 7.04066L10.4417 11.174L13.9501 8.61566H9.6084L13.1251 11.174L11.7751 7.04066Z" fill="white"/>
<path d="M6.8084 8.85733L8.1584 12.9907L4.64173 10.4323H8.9834L5.46673 12.9907L6.8084 8.85733Z" fill="white"/>
</g>
</g>
<defs>
<clipPath id="clip0_769_24957">
<path d="M0 20C0 8.95431 8.95431 0 20 0C31.0457 0 40 8.95431 40 20C40 31.0457 31.0457 40 20 40C8.95431 40 0 31.0457 0 20Z" fill="white"/>
</clipPath>
<clipPath id="clip1_769_24957">
<rect width="53.3333" height="40" fill="white" transform="translate(-7 -0.000976562)"/>
</clipPath>
</defs>
</svg>
