<svg width="40" height="40" viewBox="0 0 40 40" fill="none" xmlns="http://www.w3.org/2000/svg">
<g clip-path="url(#clip0_769_19068)">
<path d="M0 20C0 8.95431 8.95431 0 20 0C31.0457 0 40 8.95431 40 20C40 31.0457 31.0457 40 20 40C8.95431 40 0 31.0457 0 20Z" fill="#E94E0F"/>
<g clip-path="url(#clip1_769_19068)">
<path fill-rule="evenodd" clip-rule="evenodd" d="M-10.3667 0.000488281H49.6958V40.0005H-10.3667V0.000488281Z" fill="#FF0000"/>
<path fill-rule="evenodd" clip-rule="evenodd" d="M7.87549 20.3989C8.93799 19.1021 11.1489 20.3677 12.9536 19.438C10.813 19.5552 9.64893 18.4067 7.96143 18.5708C9.71143 17.4927 11.2036 18.9224 13.1567 18.3521C10.5708 18.1333 10.6802 16.9692 8.3208 16.8052C10.4146 15.9146 11.4458 17.7271 13.5005 17.313C11.0786 16.7583 10.7661 15.3364 8.96924 15.0317C11.5942 14.6411 11.4224 16.188 13.9927 16.3755C11.3833 15.2583 12.063 14.2817 9.8833 13.4302C12.3286 13.3755 12.1646 15.0708 14.6489 15.5083C12.5239 14.1646 12.7817 12.938 11.0396 11.9771C13.1099 12.0161 13.3052 14.1333 15.4224 14.7896C13.5396 13.2974 14.0317 12.0317 12.4067 10.6958C14.4692 11.1802 14.1646 13.0083 16.313 14.1802C14.7192 12.4146 15.3286 11.1489 13.9458 9.70361C15.9302 10.3364 15.1724 12.0786 17.2271 13.7349C16.0552 11.7896 16.7817 10.5474 15.6177 8.91455C17.4614 9.85986 16.5708 11.6411 18.2739 13.4067C17.4692 11.4146 18.2739 10.1802 17.4536 8.41455C19.0317 9.58643 18.0942 11.4849 19.3677 13.2974C18.8989 10.7974 19.9771 10.3911 19.6411 8.20361C20.8364 9.67236 19.5005 11.1411 20.4224 13.3052C20.3052 10.8442 21.6177 10.2739 21.3911 8.30518C22.5708 10.0708 20.7271 11.6099 21.5005 13.5005C21.6958 11.1724 23.227 10.563 23.2505 8.75049C24.188 10.4146 22.1567 11.6177 22.4849 13.8286C23.1489 11.3911 24.7817 11.0942 24.9849 9.45361C25.5396 11.3755 23.313 12.2661 23.4458 14.4067C24.1099 12.2427 26.1489 11.9849 26.5708 10.3911C26.8286 12.4224 24.8208 12.7896 24.2505 15.0396C25.3052 13.2036 27.1567 13.0552 27.9849 11.6021C27.9224 13.6177 25.6567 13.8833 24.9614 15.7661C26.2661 14.1646 27.9067 14.438 29.2114 13.0239C29.0708 14.8442 26.7661 14.7427 25.5396 16.6255C26.9536 15.3208 29.0864 15.7114 30.1724 14.5864C30.1177 16.1958 27.2896 16.0708 25.9536 17.5161C27.5942 16.6099 29.688 17.1411 30.8911 16.3052C30.6724 17.7114 27.688 17.3833 26.2583 18.4927C28.2271 17.9458 29.7505 18.7817 31.3364 18.1802C30.563 19.5474 27.8521 18.6802 26.4146 19.5708C28.1333 19.2817 29.9458 20.3208 31.5005 19.9849C30.9927 21.1724 28.0161 19.9067 26.4224 20.6489C28.3286 20.6333 29.5708 21.8599 31.3442 21.7739C30.3833 22.8521 27.7739 21.3755 26.2505 21.6255C28.1099 22.0161 29.5317 23.5474 30.938 23.6255C29.7739 24.5083 27.6177 22.4927 25.8599 22.7427C27.6724 23.2271 29.188 25.2817 30.2192 25.3286C29.1021 26.0942 26.8989 23.5708 25.3911 23.6646C27.2271 24.4927 28.063 26.5942 29.2739 26.8911C27.7817 27.3677 26.313 24.6099 24.7114 24.5083C26.5708 25.6802 26.6724 27.4771 28.1021 28.2739C26.5942 28.6411 25.5239 25.5239 23.938 25.2583C25.4614 26.3755 25.6958 28.7739 26.7036 29.5239C25.1724 29.6021 24.6177 26.3442 23.0474 25.8755C24.3911 27.0005 24.0708 29.438 25.1177 30.4849C23.5239 30.1489 23.7271 27.313 22.063 26.3521C23.2583 27.8677 22.6489 30.0161 23.4302 31.2271C21.8755 30.6021 22.5474 28.0552 21.0708 26.6177C21.8755 28.2271 21.0083 30.1021 21.6489 31.6567C20.227 30.9614 21.1802 27.9536 20.0942 26.7583C20.5942 28.6177 19.6724 30.1567 20.0474 31.8208C18.5942 30.1411 20.2661 28.4458 19.0083 26.7349C19.3364 28.6958 17.9614 30.0708 18.1802 31.7114C17.0317 30.3677 18.8052 28.2192 17.9067 26.5239C18.0942 28.4536 16.3208 30.1489 16.4458 31.3677C15.5083 29.8052 17.4849 27.9614 16.9536 26.188C16.8442 28.0317 15.0474 29.0317 14.7114 30.7114C14.1099 28.8599 16.2427 27.5239 16.0552 25.7036C15.4458 27.4302 13.7114 28.1255 13.1021 29.8052C12.6021 27.9536 15.1333 26.9771 15.1958 25.0396C14.4146 26.8521 12.3442 27.2583 11.6567 28.6489C11.3989 26.813 14.2974 25.9927 14.4067 24.2505C13.4692 25.9224 11.2036 25.9927 10.4224 27.3208C10.3052 25.4927 13.3599 25.2661 13.8364 23.3521C12.9067 24.7739 10.4224 24.5942 9.3833 25.7505C9.54736 24.0552 12.8521 23.9536 13.3833 22.4224C12.1489 23.6099 9.86768 23.1255 8.57861 24.063C9.29736 22.3911 12.3989 22.7427 13.0942 21.5396C11.7271 22.2505 9.29736 21.5552 8.09424 22.2739C9.18799 20.6958 11.5942 21.6411 12.9614 20.5552C10.7427 20.8755 9.40674 19.9927 7.86768 20.3989H7.87549Z" fill="#FFFF00"/>
<path fill-rule="evenodd" clip-rule="evenodd" d="M27.4458 20.0083C27.4458 22.0648 26.6289 24.037 25.1747 25.4911C23.7206 26.9453 21.7484 27.7622 19.6919 27.7622C17.6354 27.7622 15.6632 26.9453 14.2091 25.4911C12.7549 24.037 11.938 22.0648 11.938 20.0083C11.938 17.9529 12.7545 15.9816 14.2079 14.5282C15.6613 13.0748 17.6326 12.2583 19.688 12.2583C21.7434 12.2583 23.7147 13.0748 25.1681 14.5282C26.6215 15.9816 27.438 17.9529 27.438 20.0083H27.4458Z" fill="#FFFF00"/>
<path fill-rule="evenodd" clip-rule="evenodd" d="M26.4458 20.0239C26.4458 21.8121 25.7355 23.527 24.4711 24.7914C23.2067 26.0558 21.4918 26.7661 19.7036 26.7661C17.9155 26.7661 16.2006 26.0558 14.9362 24.7914C13.6718 23.527 12.9614 21.8121 12.9614 20.0239C12.9614 18.2358 13.6718 16.5209 14.9362 15.2565C16.2006 13.9921 17.9155 13.2817 19.7036 13.2817C21.4918 13.2817 23.2067 13.9921 24.4711 15.2565C25.7355 16.5209 26.4458 18.2358 26.4458 20.0239Z" fill="#FF0000"/>
<path fill-rule="evenodd" clip-rule="evenodd" d="M25.5083 20.0396C25.5083 21.5749 24.8984 23.0474 23.8127 24.133C22.7271 25.2187 21.2546 25.8286 19.7192 25.8286C18.1839 25.8286 16.7114 25.2187 15.6258 24.133C14.5401 23.0474 13.9302 21.5749 13.9302 20.0396C13.9302 18.5042 14.5401 17.0317 15.6258 15.9461C16.7114 14.8604 18.1839 14.2505 19.7192 14.2505C21.2546 14.2505 22.7271 14.8604 23.8127 15.9461C24.8984 17.0317 25.5083 18.5042 25.5083 20.0396Z" fill="#FFFF00"/>
<path fill-rule="evenodd" clip-rule="evenodd" d="M14.7896 16.2505C16.3911 16.2114 18.3833 16.3599 19.7036 17.4067C21.1141 16.5264 22.7748 16.1339 24.4302 16.2896L25.2895 17.8599C23.9542 17.738 22.6098 17.9585 21.3833 18.5005C22.2599 19.147 22.9646 19.9985 23.4359 20.9805C23.9071 21.9625 24.1305 23.045 24.0864 24.1333C23.8755 24.3989 23.5395 24.688 23.3286 24.9536C23.6411 22.7271 22.4692 20.2427 20.7583 18.938C22.1489 20.938 22.9692 22.7349 22.7427 25.2192L21.9614 25.7192C22.3208 23.5317 21.8052 20.9536 20.188 19.4692C21.1255 20.8364 22.0474 23.2974 21.4692 25.7974C21.2192 25.8755 20.8286 26.0864 20.5786 26.1567C20.8849 25.131 20.9681 24.0517 20.8225 22.9912C20.677 21.9306 20.3061 20.9136 19.7349 20.0083C18.6567 21.5552 18.3052 23.9146 18.9146 26.1021C18.6177 26.0239 18.3911 25.9302 18.0864 25.8599C17.6411 23.5161 18.2583 20.8599 19.3286 19.4771C18.2349 20.1099 17.2114 22.813 17.5005 25.5708L16.7739 25.2349C16.4224 23.1802 17.3521 20.5005 18.688 18.9536C17.1724 19.9067 15.938 22.2583 16.1489 24.7817C15.9146 24.5786 15.7036 24.4771 15.4692 24.2661C15.2036 22.063 16.4849 19.8442 17.9771 18.5161C16.7192 17.9458 15.6333 17.8364 14.0708 17.8599C14.313 17.3521 14.5396 16.7583 14.7896 16.2427V16.2505Z" fill="#FF0000"/>
</g>
</g>
<defs>
<clipPath id="clip0_769_19068">
<path d="M0 20C0 8.95431 8.95431 0 20 0C31.0457 0 40 8.95431 40 20C40 31.0457 31.0457 40 20 40C8.95431 40 0 31.0457 0 20Z" fill="white"/>
</clipPath>
<clipPath id="clip1_769_19068">
<rect width="53.3333" height="40" fill="white" transform="translate(-7 0.000488281)"/>
</clipPath>
</defs>
</svg>
