<svg width="40" height="40" viewBox="0 0 40 40" fill="none" xmlns="http://www.w3.org/2000/svg">
<g clip-path="url(#clip0_769_19550)">
<path d="M0 20C0 8.95431 8.95431 0 20 0C31.0457 0 40 8.95431 40 20C40 31.0457 31.0457 40 20 40C8.95431 40 0 31.0457 0 20Z" fill="#E94E0F"/>
<g clip-path="url(#clip1_769_19550)">
<path fill-rule="evenodd" clip-rule="evenodd" d="M-10.3333 0.000244141H49.6667V40.0002H-10.3333V0.000244141Z" fill="#CE1126"/>
<path fill-rule="evenodd" clip-rule="evenodd" d="M-10.3333 9.94191H49.6667V30.0586H-10.3333V9.94191Z" fill="#002868"/>
<path fill-rule="evenodd" clip-rule="evenodd" d="M28.2834 20.0002C28.2834 22.2855 27.3756 24.4772 25.7596 26.0931C24.1437 27.7091 21.952 28.6169 19.6667 28.6169C17.3814 28.6169 15.1898 27.7091 13.5738 26.0931C11.9579 24.4772 11.05 22.2855 11.05 20.0002C11.05 17.715 11.9579 15.5233 13.5738 13.9073C15.1898 12.2914 17.3814 11.3836 19.6667 11.3836C21.952 11.3836 24.1437 12.2914 25.7596 13.9073C27.3756 15.5233 28.2834 17.715 28.2834 20.0002Z" fill="white"/>
</g>
</g>
<defs>
<clipPath id="clip0_769_19550">
<path d="M0 20C0 8.95431 8.95431 0 20 0C31.0457 0 40 8.95431 40 20C40 31.0457 31.0457 40 20 40C8.95431 40 0 31.0457 0 20Z" fill="white"/>
</clipPath>
<clipPath id="clip1_769_19550">
<rect width="53.3333" height="40" fill="white" transform="translate(-7 0.000244141)"/>
</clipPath>
</defs>
</svg>
