<svg width="40" height="40" viewBox="0 0 40 40" fill="none" xmlns="http://www.w3.org/2000/svg">
<g clip-path="url(#clip0_769_19559)">
<path d="M0 20C0 8.95431 8.95431 0 20 0C31.0457 0 40 8.95431 40 20C40 31.0457 31.0457 40 20 40C8.95431 40 0 31.0457 0 20Z" fill="#E94E0F"/>
<g clip-path="url(#clip1_769_19559)">
<path fill-rule="evenodd" clip-rule="evenodd" d="M-10.333 30.0002H49.667V40.0002H-10.333V30.0002ZM-10.333 0.000244141H49.667V10.0002H-10.333V0.000244141Z" fill="#EE161F"/>
<path fill-rule="evenodd" clip-rule="evenodd" d="M-10.333 10.0002H49.667V30.0002H-10.333V10.0002Z" fill="white"/>
<path d="M19.3622 10.1565C18.7528 11.3674 18.3465 11.3674 17.3309 12.1877C16.9247 12.5862 16.3153 12.7893 17.1278 13.2034C16.3075 13.6018 15.9012 13.8049 15.495 14.6174L15.6981 14.8206C15.6981 14.8206 16.4794 14.4456 16.5106 14.6174C16.6512 14.7815 15.495 15.3987 15.3465 15.5002L14.4872 16.0471C13.4637 16.8518 12.8465 16.6487 12.245 17.8674L14.2762 17.6643C14.6825 19.0862 13.2606 19.2893 12.245 19.8987L10.6122 20.9143C11.0262 22.3362 12.245 21.5237 13.2606 21.1174L13.4637 21.3206V21.7268L11.4325 22.7424C11.4325 22.7424 9.02623 24.1174 8.98717 24.1643C8.97154 24.2424 8.98717 24.5706 8.98717 24.5706C9.79967 24.7737 11.0184 24.9768 11.8387 24.5706C12.8544 24.1643 13.0575 23.7581 14.2762 23.7581C13.1032 24.6733 11.6944 25.2369 10.2137 25.3831V26.1956C11.4325 26.1956 12.245 26.1956 13.2606 25.9924L15.9012 25.1799C16.5106 25.1799 17.1278 25.7893 16.9169 26.3987C16.3153 28.6331 13.87 28.2268 13.0575 30.0549L16.3075 28.8284C17.12 28.4221 17.9325 28.0237 18.9481 28.2268C20.1669 28.6331 20.1669 29.4456 21.7919 29.8518L21.3856 28.8362C21.7919 29.0393 22.1981 29.0393 22.6122 29.2424C23.6278 29.6487 23.8309 30.0549 25.0497 29.8518C24.034 28.6331 23.8309 28.8362 23.0184 28.0237C22.2059 26.8049 21.7919 24.9768 23.0184 24.7737L24.4403 25.1799C25.8622 25.3831 25.8622 24.9768 27.8934 25.7893C29.12 26.1956 29.5262 26.8049 30.9403 26.3987C30.3387 24.9768 28.1044 23.9612 26.6747 23.5549C28.3075 22.5393 27.8934 23.9612 30.1356 23.3518V22.9456C28.5184 21.719 27.9012 20.7034 25.6669 20.7034L29.1278 20.2971V19.8909C29.1278 19.8909 25.7137 19.0002 25.6356 18.9612C25.659 18.8596 25.745 18.7034 25.9715 18.6096C26.62 19.0315 28.5731 18.9846 28.6903 18.9768C28.6278 18.4768 27.6981 18.0627 26.8934 17.6565C26.8934 17.6565 23.4012 15.5081 23.3856 15.3206C23.4559 14.7737 24.8153 15.4065 26.2762 15.8284C25.87 15.0159 25.0575 14.6096 24.245 14.4065L25.4637 14.2034C24.6512 12.3752 22.62 12.5784 21.4012 11.7659C20.5809 11.1565 20.5809 10.7502 19.3622 10.1487V10.1565Z" fill="#00A850"/>
<path fill-rule="evenodd" clip-rule="evenodd" d="M17.1667 23.6721C17.3152 23.1956 17.5105 22.7659 16.6042 22.3518C15.698 21.9377 17.0574 24.0002 17.1667 23.6799V23.6721ZM18.2371 22.7112C18.0574 22.7346 17.9558 23.3987 18.323 23.5862C18.7292 23.6487 18.4011 22.719 18.2371 22.7112ZM19.2917 22.6331C19.1042 22.6956 19.0964 23.6331 19.7605 23.4612C20.4324 23.2971 19.7605 22.5627 19.2917 22.6409V22.6331ZM20.5261 20.2346C20.6667 20.0002 20.5183 19.0627 19.948 19.4534C19.3699 19.8518 20.3386 20.2971 20.5261 20.2346ZM19.2761 19.4534C19.4558 19.3831 19.4714 18.8049 18.9636 18.9612C18.4714 19.1096 19.1433 19.5706 19.2761 19.4534ZM18.1511 19.6799C18.1511 19.6799 17.7996 19.1956 17.5261 19.2971C17.1902 19.6252 18.1746 19.6877 18.1511 19.6799ZM14.2761 21.2268C14.4246 21.2424 15.5261 21.0471 15.9089 20.6174C16.2917 20.1877 13.948 20.7971 13.948 20.8049C13.948 20.8127 14.1667 21.1877 14.2761 21.2268ZM25.2996 18.4924C25.3542 18.3909 24.7136 17.9377 24.3308 18.1174C24.2292 18.4534 25.2996 18.5627 25.2996 18.4924ZM23.1277 17.3987C23.2527 17.2268 22.8542 16.5159 22.0574 16.9143C21.2605 17.3049 22.8933 17.6799 23.1277 17.4065V17.3987ZM20.6199 16.9846C20.6199 16.9846 20.8152 16.344 21.2917 16.469C21.8386 16.8831 20.6433 17.0081 20.6199 16.9846ZM20.1511 16.5002C20.073 16.3206 19.5808 16.4221 19.0105 16.8049C18.4324 17.1721 20.323 16.9143 20.1511 16.4924V16.5002ZM21.6121 14.7737C21.6121 14.7737 22.1199 14.5393 22.2761 14.7737C22.4871 15.1096 21.6042 14.7737 21.6121 14.7737ZM21.1824 14.5471C21.0808 14.344 20.5183 14.3206 20.5339 14.6252C20.4402 14.8596 21.2683 14.8127 21.1824 14.5471ZM19.8386 14.5471C19.7839 14.4299 18.9792 14.5471 18.7449 15.0315C19.1355 15.219 20.0183 14.8518 19.8386 14.5471ZM18.1199 15.0393C18.1199 15.0393 17.073 15.6877 17.0027 16.1565C17.0339 16.5627 18.3152 15.4221 18.3152 15.4221C18.3152 15.4221 18.4246 14.969 18.1277 15.0393H18.1199ZM16.9558 14.4534C16.9871 14.3206 17.4792 14.0159 17.5183 14.0393C17.5574 14.1721 17.1199 14.5315 16.9558 14.4534ZM17.2917 16.9221C17.3152 16.7268 16.0417 16.7424 16.5183 17.3284C16.9246 17.8206 17.3777 17.0081 17.2917 16.9221ZM16.1199 17.7581C16.0574 17.6331 15.9636 17.2893 15.7917 17.2581C15.6433 17.2581 14.8777 17.4143 14.8152 17.5393C14.7839 17.6409 15.1355 18.2737 15.2527 18.2893C15.3933 18.344 16.1042 17.8206 16.1277 17.7581H16.1199ZM23.0261 22.0706C23.0652 21.9299 24.3777 21.4846 24.823 21.9143C25.3542 22.6409 22.9949 22.3049 23.0261 22.0706ZM26.6199 22.9221C26.9089 22.4377 25.7371 21.8596 25.2449 22.4143C25.4167 23.0784 26.3855 23.3206 26.6199 22.9221Z" fill="white" stroke="white" stroke-width="0.25" stroke-linecap="round" stroke-linejoin="round"/>
</g>
</g>
<defs>
<clipPath id="clip0_769_19559">
<path d="M0 20C0 8.95431 8.95431 0 20 0C31.0457 0 40 8.95431 40 20C40 31.0457 31.0457 40 20 40C8.95431 40 0 31.0457 0 20Z" fill="white"/>
</clipPath>
<clipPath id="clip1_769_19559">
<rect width="53.3333" height="40" fill="white" transform="translate(-7 0.000244141)"/>
</clipPath>
</defs>
</svg>
