<svg width="40" height="40" viewBox="0 0 40 40" fill="none" xmlns="http://www.w3.org/2000/svg">
<g clip-path="url(#clip0_769_19669)">
<path d="M0 20C0 8.95431 8.95431 0 20 0C31.0457 0 40 8.95431 40 20C40 31.0457 31.0457 40 20 40C8.95431 40 0 31.0457 0 20Z" fill="#E94E0F"/>
<g clip-path="url(#clip1_769_19669)">
<path d="M-7 0H46.3333V40H-7V0Z" fill="white"/>
<path d="M-7 28H46.3333V40H-7V28Z" fill="#009543"/>
<path d="M-7 0H46.3333V12H-7V0Z" fill="#00209F"/>
<path d="M19.6334 12.75C19.4084 12.75 19.1834 13 19.1834 13L19.2084 15.7L18.35 16.5917H19.0417V18.1333L14.9584 23.6333L14.3584 23.4167L13.3 25.6667C13.3 25.6667 15.9084 27.3 19.6917 27.25C23.8417 27.2083 26.1 25.5917 26.1 25.5917L25.0167 23.375L24.475 23.6083L20.3417 18.1417V16.55H21.025L20.0917 15.6667V12.9833C20.0917 12.9833 19.8667 12.7333 19.6334 12.7417V12.75Z" fill="black" stroke="black" stroke-width="0.133333"/>
<path d="M21.0582 19.2H18.2332C18.2332 19.2 17.2166 17.0417 17.3749 15.5333C17.5416 14 18.4249 13.275 19.5916 13.2583C20.9749 13.25 21.6916 13.9333 21.9082 15.475C22.1249 17 21.0582 19.2 21.0582 19.2V19.2Z" stroke="black" stroke-width="0.666667"/>
<path d="M14.7083 24.3417C14.6583 24.4 14.3167 25.0833 14.3167 25.0833L14.9 24.9583L14.7083 24.3417ZM15.0417 25.2167L14.425 25.4167L15.1667 25.7083L15.0417 25.2167ZM15.3166 24.3583L15.625 25.2667L16.375 25.05L16.1833 24.6167L15.3166 24.3583ZM15.8 25.5917L15.9 25.9583L16.9 26.2083L16.5 25.3583L15.8 25.5917ZM16.9 24.8167L17.2583 25.6667L18.0083 25.375L17.7583 25L16.9 24.8167ZM17.4 25.975L17.5167 26.2917L18.6833 26.4583L18.1916 25.6917L17.3917 25.975H17.4ZM18.5167 25.0583L18.95 25.8167L20.0333 25.4167L19.9167 25.125L18.5167 25.0667V25.0583ZM19.15 26.0917L19.375 26.4917L20.725 26.45L20.225 25.7L19.1417 26.0917H19.15ZM20.575 25.0917L20.9416 25.725L21.8083 25.3083L21.575 24.975L20.575 25.0917ZM21.9916 25.575L21.1333 26L21.3583 26.375L22.5083 26.1917L21.9916 25.575ZM22.2667 24.9083L22.7083 25.4667L23.4333 24.8917L23.1833 24.6417L22.2667 24.9083ZM23.5917 25.2L22.9 25.725L23.0833 26.05L24.0333 25.8L23.5917 25.2ZM24.5417 24.1167L24.7083 24.3583L24.2333 25.0667L23.7416 24.4333L24.5417 24.1167ZM24.8666 24.725L25.1583 25.3083L24.575 25.5083L24.525 25.2333L24.8583 24.7333L24.8666 24.725Z" fill="white"/>
</g>
</g>
<defs>
<clipPath id="clip0_769_19669">
<path d="M0 20C0 8.95431 8.95431 0 20 0C31.0457 0 40 8.95431 40 20C40 31.0457 31.0457 40 20 40C8.95431 40 0 31.0457 0 20Z" fill="white"/>
</clipPath>
<clipPath id="clip1_769_19669">
<rect width="53.3333" height="40" fill="white" transform="translate(-7)"/>
</clipPath>
</defs>
</svg>
