<svg width="40" height="40" viewBox="0 0 40 40" fill="none" xmlns="http://www.w3.org/2000/svg">
<g clip-path="url(#clip0_769_19705)">
<path d="M0 20C0 8.95431 8.95431 0 20 0C31.0457 0 40 8.95431 40 20C40 31.0457 31.0457 40 20 40C8.95431 40 0 31.0457 0 20Z" fill="#E94E0F"/>
<g clip-path="url(#clip1_769_19705)">
<path d="M-20.3333 0H59.6667V40H-20.3333V0Z" fill="#239E46"/>
<path d="M-20.3333 0H59.6667V30H-20.3333V0Z" fill="black"/>
<path d="M-20.3333 0H59.6667V10H-20.3333V0Z" fill="#E70013"/>
<path d="M23.2028 16.464C22.5532 16.0005 21.7885 15.7248 20.9926 15.6673C20.1967 15.6098 19.4003 15.7726 18.6909 16.1379C17.9814 16.5032 17.3863 17.0569 16.9708 17.7382C16.5553 18.4194 16.3355 19.202 16.3355 20C16.3355 20.798 16.5553 21.5806 16.9708 22.2618C17.3863 22.9431 17.9814 23.4968 18.6909 23.8621C19.4003 24.2274 20.1967 24.3902 20.9926 24.3327C21.7885 24.2752 22.5532 23.9995 23.2028 23.536C22.5035 24.2351 21.6126 24.7112 20.6427 24.904C19.6728 25.0968 18.6676 24.9978 17.754 24.6193C16.8404 24.2408 16.0596 23.5999 15.5103 22.7777C14.9609 21.9555 14.6677 20.9889 14.6677 20C14.6677 19.0112 14.9609 18.0445 15.5103 17.2223C16.0596 16.4001 16.8404 15.7592 17.754 15.3807C18.6676 15.0023 19.6728 14.9032 20.6427 15.096C21.6126 15.2888 22.5035 15.7649 23.2028 16.464ZM22.0988 20L28.8268 17.816L24.6668 23.536V16.464L28.8268 22.184L22.0988 20Z" fill="white"/>
</g>
</g>
<defs>
<clipPath id="clip0_769_19705">
<path d="M0 20C0 8.95431 8.95431 0 20 0C31.0457 0 40 8.95431 40 20C40 31.0457 31.0457 40 20 40C8.95431 40 0 31.0457 0 20Z" fill="white"/>
</clipPath>
<clipPath id="clip1_769_19705">
<rect width="53.3333" height="40" fill="white" transform="translate(-7)"/>
</clipPath>
</defs>
</svg>
