<svg width="40" height="40" viewBox="0 0 40 40" fill="none" xmlns="http://www.w3.org/2000/svg">
<g clip-path="url(#clip0_769_19580)">
<path d="M0 20C0 8.95431 8.95431 0 20 0C31.0457 0 40 8.95431 40 20C40 31.0457 31.0457 40 20 40C8.95431 40 0 31.0457 0 20Z" fill="#E94E0F"/>
<g clip-path="url(#clip1_769_19580)">
<path d="M0 0.000244141H53.3333V20.0002H0V0.000244141Z" fill="#002B7F"/>
<path d="M0 20.0002H53.3333V40.0002H0V20.0002Z" fill="#CE1126"/>
<path d="M14.4252 8.15018L14.3002 12.3168H10.0752C9.55858 11.3002 9.12524 10.4502 9.12524 9.28351C9.12524 8.30851 9.89191 7.53351 10.9919 7.53351C12.1586 7.54184 13.4502 7.93351 14.4252 8.15018Z" fill="#FFD83D"/>
<path d="M9.63379 8.3502V10.7502V8.3502ZM9.96712 8.1002V11.3002V8.1002ZM10.3171 7.93354V11.7502V7.93354ZM10.6505 7.8502V10.8419V7.8502ZM10.9838 7.84187V10.8585V7.84187ZM11.3255 7.7252V10.8585V7.7252ZM11.6671 7.7252V10.8585V7.7252ZM12.0088 7.75854V10.8919V7.75854ZM12.3505 7.79187V10.9169V7.79187ZM12.6838 7.98354V11.1169V7.98354ZM13.0171 8.01687V11.5419V8.01687ZM13.3671 8.01687V11.1502V8.01687ZM13.7005 8.01687V11.1502V8.01687Z" fill="#FFD83D"/>
<path d="M13.7005 8.01687V11.1502M9.63379 8.3502V10.7502V8.3502ZM9.96712 8.1002V11.3002V8.1002ZM10.3171 7.93354V11.7502V7.93354ZM10.6505 7.8502V10.8419V7.8502ZM10.9838 7.84187V10.8585V7.84187ZM11.3255 7.7252V10.8585V7.7252ZM11.6671 7.7252V10.8585V7.7252ZM12.0088 7.75854V10.8919V7.75854ZM12.3505 7.79187V10.9169V7.79187ZM12.6838 7.98354V11.1169V7.98354ZM13.0171 8.01687V11.5419V8.01687ZM13.3671 8.01687V11.1502V8.01687Z" stroke="black" stroke-width="0.1" stroke-miterlimit="3.2" stroke-linecap="round" stroke-linejoin="round"/>
<path d="M11.7589 7.86699C12.4756 7.98366 14.0506 8.71699 13.8756 9.71699C13.6256 11.1337 12.7922 10.567 11.7006 10.367L10.8756 10.642C10.5756 10.942 10.1422 11.2253 9.85055 10.8587H9.35889V12.7753H14.7839V8.13366L11.7589 7.86699Z" fill="black" stroke="black" stroke-width="0.1" stroke-miterlimit="3.2" stroke-linecap="round" stroke-linejoin="round"/>
<path d="M14.1834 7.85859C14.3629 7.85859 14.5084 7.71308 14.5084 7.53359C14.5084 7.3541 14.3629 7.20859 14.1834 7.20859C14.0039 7.20859 13.8584 7.3541 13.8584 7.53359C13.8584 7.71308 14.0039 7.85859 14.1834 7.85859Z" fill="#FFD83D" stroke="black" stroke-width="0.133333" stroke-miterlimit="3.2" stroke-linecap="round" stroke-linejoin="round"/>
<path d="M13.45 7.67521C13.6295 7.67521 13.775 7.5297 13.775 7.35021C13.775 7.17071 13.6295 7.02521 13.45 7.02521C13.2705 7.02521 13.125 7.17071 13.125 7.35021C13.125 7.5297 13.2705 7.67521 13.45 7.67521Z" fill="#FFD83D" stroke="black" stroke-width="0.133333" stroke-miterlimit="3.2" stroke-linecap="round" stroke-linejoin="round"/>
<path d="M12.6919 7.49195C12.8714 7.49195 13.0169 7.34644 13.0169 7.16695C13.0169 6.98746 12.8714 6.84195 12.6919 6.84195C12.5125 6.84195 12.3669 6.98746 12.3669 7.16695C12.3669 7.34644 12.5125 7.49195 12.6919 7.49195Z" fill="#FFD83D" stroke="black" stroke-width="0.133333" stroke-miterlimit="3.2" stroke-linecap="round" stroke-linejoin="round"/>
<path d="M11.9415 7.36693C12.1209 7.36693 12.2665 7.22143 12.2665 7.04193C12.2665 6.86244 12.1209 6.71693 11.9415 6.71693C11.762 6.71693 11.6165 6.86244 11.6165 7.04193C11.6165 7.22143 11.762 7.36693 11.9415 7.36693Z" fill="#FFD83D" stroke="black" stroke-width="0.133333" stroke-miterlimit="3.2" stroke-linecap="round" stroke-linejoin="round"/>
<path d="M11.1834 7.29194C11.3629 7.29194 11.5084 7.14643 11.5084 6.96694C11.5084 6.78744 11.3629 6.64194 11.1834 6.64194C11.0039 6.64194 10.8584 6.78744 10.8584 6.96694C10.8584 7.14643 11.0039 7.29194 11.1834 7.29194Z" fill="#FFD83D" stroke="black" stroke-width="0.133333" stroke-miterlimit="3.2" stroke-linecap="round" stroke-linejoin="round"/>
<path d="M10.45 7.33353C10.6295 7.33353 10.775 7.18803 10.775 7.00853C10.775 6.82904 10.6295 6.68353 10.45 6.68353C10.2705 6.68353 10.125 6.82904 10.125 7.00853C10.125 7.18803 10.2705 7.33353 10.45 7.33353Z" fill="#FFD83D" stroke="black" stroke-width="0.133333" stroke-miterlimit="3.2" stroke-linecap="round" stroke-linejoin="round"/>
<path d="M9.74956 7.57526C9.92905 7.57526 10.0746 7.42976 10.0746 7.25026C10.0746 7.07077 9.92905 6.92526 9.74956 6.92526C9.57007 6.92526 9.42456 7.07077 9.42456 7.25026C9.42456 7.42976 9.57007 7.57526 9.74956 7.57526Z" fill="#FFD83D" stroke="black" stroke-width="0.133333" stroke-miterlimit="3.2" stroke-linecap="round" stroke-linejoin="round"/>
<path d="M9.1502 8.00869C9.32969 8.00869 9.47519 7.86318 9.47519 7.68369C9.47519 7.5042 9.32969 7.35869 9.1502 7.35869C8.9707 7.35869 8.8252 7.5042 8.8252 7.68369C8.8252 7.86318 8.9707 8.00869 9.1502 8.00869Z" fill="#FFD83D" stroke="black" stroke-width="0.133333" stroke-miterlimit="3.2" stroke-linecap="round" stroke-linejoin="round"/>
<path d="M8.7332 8.61693C8.9127 8.61693 9.0582 8.47143 9.0582 8.29193C9.0582 8.11244 8.9127 7.96693 8.7332 7.96693C8.55371 7.96693 8.4082 8.11244 8.4082 8.29193C8.4082 8.47143 8.55371 8.61693 8.7332 8.61693Z" fill="#FFD83D" stroke="black" stroke-width="0.133333" stroke-miterlimit="3.2" stroke-linecap="round" stroke-linejoin="round"/>
<path d="M8.5252 9.34188C8.70469 9.34188 8.85019 9.19637 8.85019 9.01688C8.85019 8.83739 8.70469 8.69188 8.5252 8.69188C8.3457 8.69188 8.2002 8.83739 8.2002 9.01688C8.2002 9.19637 8.3457 9.34188 8.5252 9.34188Z" fill="#FFD83D" stroke="black" stroke-width="0.133333" stroke-miterlimit="3.2" stroke-linecap="round" stroke-linejoin="round"/>
<path d="M8.5335 10.0753C8.71299 10.0753 8.8585 9.92976 8.8585 9.75026C8.8585 9.57077 8.71299 9.42526 8.5335 9.42526C8.354 9.42526 8.2085 9.57077 8.2085 9.75026C8.2085 9.92976 8.354 10.0753 8.5335 10.0753Z" fill="#FFD83D" stroke="black" stroke-width="0.133333" stroke-miterlimit="3.2" stroke-linecap="round" stroke-linejoin="round"/>
<path d="M8.6834 10.8085C8.86289 10.8085 9.0084 10.663 9.0084 10.4835C9.0084 10.304 8.86289 10.1585 8.6834 10.1585C8.50391 10.1585 8.3584 10.304 8.3584 10.4835C8.3584 10.663 8.50391 10.8085 8.6834 10.8085Z" fill="#FFD83D" stroke="black" stroke-width="0.133333" stroke-miterlimit="3.2" stroke-linecap="round" stroke-linejoin="round"/>
<path d="M14.3332 7.96691L14.2999 8.40024C13.4832 8.26691 12.3165 7.81691 11.2332 7.81691C10.2332 7.81691 9.4582 8.21691 9.4582 9.23357C9.4582 10.2252 9.87487 11.1336 10.4415 12.0502L9.8582 12.3169C9.34154 11.3169 8.9082 10.4502 8.9082 9.29191C8.9082 8.31691 9.67487 7.35857 10.9915 7.35857C12.1582 7.35024 13.3499 7.75024 14.3332 7.96691Z" fill="#FFD83D" stroke="black" stroke-width="0.133333" stroke-miterlimit="3.2" stroke-linecap="round" stroke-linejoin="round"/>
<path d="M15.1743 8.15018L15.2993 12.3168H19.5243C20.041 11.3002 20.4743 10.4502 20.4743 9.28351C20.4743 8.30851 19.7077 7.53351 18.6076 7.53351C17.441 7.54184 16.1493 7.93351 15.1743 8.15018Z" fill="#FFD83D"/>
<path d="M19.9661 8.3502V10.7502V8.3502ZM19.6327 8.1002V11.3002V8.1002ZM19.2827 7.93354V11.7502V7.93354ZM18.9494 7.8502V10.8419V7.8502ZM18.6161 7.84187V10.8585V7.84187ZM18.2744 7.7252V10.8585V7.7252ZM17.9327 7.7252V10.8585V7.7252ZM17.5911 7.75854V10.8919V7.75854ZM17.2494 7.79187V10.9169V7.79187ZM16.9161 7.98354V11.1169V7.98354ZM16.5827 8.01687V11.5419V8.01687ZM16.2327 8.01687V11.1502V8.01687ZM15.8994 8.01687V11.1502V8.01687Z" fill="#FFD83D"/>
<path d="M15.8994 8.01687V11.1502M19.9661 8.3502V10.7502V8.3502ZM19.6327 8.1002V11.3002V8.1002ZM19.2827 7.93354V11.7502V7.93354ZM18.9494 7.8502V10.8419V7.8502ZM18.6161 7.84187V10.8585V7.84187ZM18.2744 7.7252V10.8585V7.7252ZM17.9327 7.7252V10.8585V7.7252ZM17.5911 7.75854V10.8919V7.75854ZM17.2494 7.79187V10.9169V7.79187ZM16.9161 7.98354V11.1169V7.98354ZM16.5827 8.01687V11.5419V8.01687ZM16.2327 8.01687V11.1502V8.01687Z" stroke="black" stroke-width="0.1" stroke-miterlimit="3.2" stroke-linecap="round" stroke-linejoin="round"/>
<path d="M17.8407 7.86699C17.124 7.98366 15.549 8.71699 15.724 9.71699C15.974 11.1337 16.8073 10.567 17.899 10.367L18.724 10.642C19.024 10.942 19.4573 11.2253 19.749 10.8587H20.2407V12.7753H14.8157V8.13366L17.8407 7.86699Z" fill="black" stroke="black" stroke-width="0.1" stroke-miterlimit="3.2" stroke-linecap="round" stroke-linejoin="round"/>
<path d="M15.4163 7.85859C15.5958 7.85859 15.7413 7.71308 15.7413 7.53359C15.7413 7.3541 15.5958 7.20859 15.4163 7.20859C15.2368 7.20859 15.0913 7.3541 15.0913 7.53359C15.0913 7.71308 15.2368 7.85859 15.4163 7.85859Z" fill="#FFD83D" stroke="black" stroke-width="0.133333" stroke-miterlimit="3.2" stroke-linecap="round" stroke-linejoin="round"/>
<path d="M16.15 7.67521C16.3294 7.67521 16.475 7.5297 16.475 7.35021C16.475 7.17071 16.3294 7.02521 16.15 7.02521C15.9705 7.02521 15.825 7.17071 15.825 7.35021C15.825 7.5297 15.9705 7.67521 16.15 7.67521Z" fill="#FFD83D" stroke="black" stroke-width="0.133333" stroke-miterlimit="3.2" stroke-linecap="round" stroke-linejoin="round"/>
<path d="M16.9085 7.49195C17.088 7.49195 17.2335 7.34644 17.2335 7.16695C17.2335 6.98746 17.088 6.84195 16.9085 6.84195C16.729 6.84195 16.5835 6.98746 16.5835 7.16695C16.5835 7.34644 16.729 7.49195 16.9085 7.49195Z" fill="#FFD83D" stroke="black" stroke-width="0.133333" stroke-miterlimit="3.2" stroke-linecap="round" stroke-linejoin="round"/>
<path d="M17.6585 7.36693C17.838 7.36693 17.9835 7.22143 17.9835 7.04193C17.9835 6.86244 17.838 6.71693 17.6585 6.71693C17.479 6.71693 17.3335 6.86244 17.3335 7.04193C17.3335 7.22143 17.479 7.36693 17.6585 7.36693Z" fill="#FFD83D" stroke="black" stroke-width="0.133333" stroke-miterlimit="3.2" stroke-linecap="round" stroke-linejoin="round"/>
<path d="M18.4166 7.29194C18.596 7.29194 18.7416 7.14643 18.7416 6.96694C18.7416 6.78744 18.596 6.64194 18.4166 6.64194C18.2371 6.64194 18.0916 6.78744 18.0916 6.96694C18.0916 7.14643 18.2371 7.29194 18.4166 7.29194Z" fill="#FFD83D" stroke="black" stroke-width="0.133333" stroke-miterlimit="3.2" stroke-linecap="round" stroke-linejoin="round"/>
<path d="M19.1495 7.33353C19.329 7.33353 19.4745 7.18803 19.4745 7.00853C19.4745 6.82904 19.329 6.68353 19.1495 6.68353C18.97 6.68353 18.8245 6.82904 18.8245 7.00853C18.8245 7.18803 18.97 7.33353 19.1495 7.33353Z" fill="#FFD83D" stroke="black" stroke-width="0.133333" stroke-miterlimit="3.2" stroke-linecap="round" stroke-linejoin="round"/>
<path d="M19.8497 7.57526C20.0292 7.57526 20.1747 7.42976 20.1747 7.25026C20.1747 7.07077 20.0292 6.92526 19.8497 6.92526C19.6702 6.92526 19.5247 7.07077 19.5247 7.25026C19.5247 7.42976 19.6702 7.57526 19.8497 7.57526Z" fill="#FFD83D" stroke="black" stroke-width="0.133333" stroke-miterlimit="3.2" stroke-linecap="round" stroke-linejoin="round"/>
<path d="M20.4498 8.00869C20.6292 8.00869 20.7748 7.86318 20.7748 7.68369C20.7748 7.5042 20.6292 7.35869 20.4498 7.35869C20.2703 7.35869 20.1248 7.5042 20.1248 7.68369C20.1248 7.86318 20.2703 8.00869 20.4498 8.00869Z" fill="#FFD83D" stroke="black" stroke-width="0.133333" stroke-miterlimit="3.2" stroke-linecap="round" stroke-linejoin="round"/>
<path d="M20.8663 8.61693C21.0458 8.61693 21.1913 8.47143 21.1913 8.29193C21.1913 8.11244 21.0458 7.96693 20.8663 7.96693C20.6868 7.96693 20.5413 8.11244 20.5413 8.29193C20.5413 8.47143 20.6868 8.61693 20.8663 8.61693Z" fill="#FFD83D" stroke="black" stroke-width="0.133333" stroke-miterlimit="3.2" stroke-linecap="round" stroke-linejoin="round"/>
<path d="M21.0748 9.34188C21.2542 9.34188 21.3998 9.19637 21.3998 9.01688C21.3998 8.83739 21.2542 8.69188 21.0748 8.69188C20.8953 8.69188 20.7498 8.83739 20.7498 9.01688C20.7498 9.19637 20.8953 9.34188 21.0748 9.34188Z" fill="#FFD83D" stroke="black" stroke-width="0.133333" stroke-miterlimit="3.2" stroke-linecap="round" stroke-linejoin="round"/>
<path d="M21.0665 10.0753C21.2459 10.0753 21.3915 9.92976 21.3915 9.75026C21.3915 9.57077 21.2459 9.42526 21.0665 9.42526C20.887 9.42526 20.7415 9.57077 20.7415 9.75026C20.7415 9.92976 20.887 10.0753 21.0665 10.0753Z" fill="#FFD83D" stroke="black" stroke-width="0.133333" stroke-miterlimit="3.2" stroke-linecap="round" stroke-linejoin="round"/>
<path d="M20.9166 10.8085C21.096 10.8085 21.2416 10.663 21.2416 10.4835C21.2416 10.304 21.096 10.1585 20.9166 10.1585C20.7371 10.1585 20.5916 10.304 20.5916 10.4835C20.5916 10.663 20.7371 10.8085 20.9166 10.8085Z" fill="#FFD83D" stroke="black" stroke-width="0.133333" stroke-miterlimit="3.2" stroke-linecap="round" stroke-linejoin="round"/>
<path d="M15.2664 7.96691L15.2997 8.40024C16.1164 8.26691 17.283 7.81691 18.3664 7.81691C19.3664 7.81691 20.1414 8.21691 20.1414 9.23357C20.1414 10.2252 19.7247 11.1336 19.158 12.0502L19.7414 12.3169C20.258 11.3169 20.6914 10.4502 20.6914 9.29191C20.6914 8.31691 19.9247 7.35857 18.608 7.35857C17.4414 7.35024 16.2497 7.75024 15.2664 7.96691Z" fill="#FFD83D" stroke="black" stroke-width="0.133333" stroke-miterlimit="3.2" stroke-linecap="round" stroke-linejoin="round"/>
<path d="M14.8004 3.54192L14.4504 4.19192L14.8004 4.83358L15.1421 4.19192L14.8004 3.54192ZM14.8004 5.16692L14.4504 5.80858L14.8004 6.45858L15.1338 5.80858L14.8004 5.16692ZM13.5754 5.00025L14.1171 5.34192L14.6588 5.00025L14.1254 4.65025L13.5754 5.00025ZM14.9421 5.00025L15.4838 5.34192L16.0338 5.00025L15.4838 4.65025L14.9421 5.00025Z" fill="#FFD83D" stroke="black" stroke-width="0.133333" stroke-miterlimit="3.2" stroke-linecap="round" stroke-linejoin="round"/>
<path d="M14.7996 5.26687C14.9423 5.26687 15.0579 5.15121 15.0579 5.00853C15.0579 4.86586 14.9423 4.7502 14.7996 4.7502C14.6569 4.7502 14.5413 4.86586 14.5413 5.00853C14.5413 5.15121 14.6569 5.26687 14.7996 5.26687Z" fill="#FFD83D" stroke="black" stroke-width="0.133333" stroke-miterlimit="3.2" stroke-linecap="round" stroke-linejoin="round"/>
<path d="M14.8001 7.36692C15.1867 7.36692 15.5001 7.05352 15.5001 6.66692C15.5001 6.28032 15.1867 5.96692 14.8001 5.96692C14.4135 5.96692 14.1001 6.28032 14.1001 6.66692C14.1001 7.05352 14.4135 7.36692 14.8001 7.36692Z" fill="#FFD83D" stroke="black" stroke-width="0.133333" stroke-miterlimit="3.2" stroke-linecap="round" stroke-linejoin="round"/>
<path d="M14.1165 6.842C14.3415 6.80034 14.5665 6.78367 14.7998 6.78367C15.0248 6.78367 15.2498 6.80034 15.4665 6.842M14.6165 5.992V6.43367C14.4498 6.442 14.2831 6.45867 14.1248 6.48367L14.6165 5.992ZM15.4748 6.48367C15.3081 6.45867 15.1415 6.442 14.9748 6.43367V5.992L15.4748 6.48367Z" stroke="black" stroke-width="0.1" stroke-miterlimit="3.2" stroke-linecap="round" stroke-linejoin="round"/>
<path d="M14.1168 7.85023C14.0501 8.98357 13.9168 10.1502 13.4668 10.9919L14.1835 10.7002C14.4335 9.75023 14.4918 8.5169 14.5668 7.92524L14.1168 7.85023ZM15.4835 7.85023L15.0251 7.92524C15.1085 8.50857 15.1585 9.7419 15.4085 10.7002L16.1251 10.9919C15.6835 10.1502 15.5501 8.98357 15.4835 7.85023Z" fill="#FFD83D" stroke="black" stroke-width="0.133333" stroke-miterlimit="3.2" stroke-linecap="round" stroke-linejoin="round"/>
<path d="M14.8 10.3168C13.9333 10.3168 13.3 10.7168 13.2667 11.7585C13.05 11.3835 12.1667 10.2252 11.3333 10.3752C10.8417 10.4668 10.4 11.1585 10.4833 11.9335C10.0667 10.7585 8.875 10.5668 8 11.2668C8.78333 11.9002 9.125 13.7835 9.78333 14.6002H19.8333C20.4833 13.7835 20.8333 11.9002 21.6167 11.2668C20.7417 10.5668 19.5417 10.7585 19.1333 11.9335C19.2 11.1502 18.7667 10.4668 18.2667 10.3752C17.4417 10.2252 16.55 11.3835 16.3417 11.7585C16.2917 10.7168 15.6583 10.3168 14.8 10.3168Z" fill="#FFD83D" stroke="black" stroke-width="0.133333" stroke-miterlimit="3.2" stroke-linecap="round" stroke-linejoin="round"/>
<path d="M19.808 14.6C19.808 14.975 17.5663 15.3833 14.7996 15.3833C12.033 15.3833 9.78296 14.9833 9.78296 14.6C9.78296 14.2333 12.033 14.0333 14.7996 14.0333C17.558 14.0333 19.808 14.2333 19.808 14.6Z" fill="black" stroke="black" stroke-width="0.1" stroke-miterlimit="3.2" stroke-linecap="round" stroke-linejoin="round"/>
<path d="M14.8002 7.85853C14.9291 7.85853 15.0336 7.75406 15.0336 7.62519C15.0336 7.49633 14.9291 7.39186 14.8002 7.39186C14.6714 7.39186 14.5669 7.49633 14.5669 7.62519C14.5669 7.75406 14.6714 7.85853 14.8002 7.85853Z" fill="#FFD83D" stroke="black" stroke-width="0.1" stroke-miterlimit="3.2" stroke-linecap="round" stroke-linejoin="round"/>
<path d="M14.7996 8.38351C14.9376 8.38351 15.0496 8.27159 15.0496 8.13351C15.0496 7.99544 14.9376 7.88351 14.7996 7.88351C14.6615 7.88351 14.5496 7.99544 14.5496 8.13351C14.5496 8.27159 14.6615 8.38351 14.7996 8.38351Z" fill="#FFD83D" stroke="black" stroke-width="0.1" stroke-miterlimit="3.2" stroke-linecap="round" stroke-linejoin="round"/>
<path d="M14.7999 8.95857C14.9518 8.95857 15.0749 8.83545 15.0749 8.68357C15.0749 8.53169 14.9518 8.40857 14.7999 8.40857C14.648 8.40857 14.5249 8.53169 14.5249 8.68357C14.5249 8.83545 14.648 8.95857 14.7999 8.95857Z" fill="#FFD83D" stroke="black" stroke-width="0.1" stroke-miterlimit="3.2" stroke-linecap="round" stroke-linejoin="round"/>
<path d="M14.8001 9.60022C14.975 9.60022 15.1167 9.45845 15.1167 9.28356C15.1167 9.10867 14.975 8.96689 14.8001 8.96689C14.6252 8.96689 14.4834 9.10867 14.4834 9.28356C14.4834 9.45845 14.6252 9.60022 14.8001 9.60022Z" fill="#FFD83D" stroke="black" stroke-width="0.1" stroke-miterlimit="3.2" stroke-linecap="round" stroke-linejoin="round"/>
<path d="M14.8002 10.3003C14.9889 10.3003 15.1418 10.1473 15.1418 9.95864C15.1418 9.76994 14.9889 9.61697 14.8002 9.61697C14.6115 9.61697 14.4585 9.76994 14.4585 9.95864C14.4585 10.1473 14.6115 10.3003 14.8002 10.3003Z" fill="#FFD83D" stroke="black" stroke-width="0.1" stroke-miterlimit="3.2" stroke-linecap="round" stroke-linejoin="round"/>
<path d="M14.667 10.6169C14.6253 10.6169 14.592 10.6503 14.6003 10.7086L14.642 10.9919C14.6586 11.0919 14.7086 11.0586 14.7253 10.9919C14.742 10.9086 14.7336 10.8586 14.742 10.7169C14.742 10.6503 14.7003 10.6169 14.667 10.6169ZM14.9336 10.6169C14.892 10.6169 14.8586 10.6503 14.8586 10.7253C14.8586 10.8669 14.8586 10.9169 14.8753 10.9919C14.892 11.0753 14.942 11.1003 14.9586 10.9919L14.992 10.7086C15.0086 10.6419 14.967 10.6169 14.9336 10.6169ZM14.417 10.6503C14.3836 10.6503 14.3503 10.6836 14.3503 10.7169C14.3503 10.7836 14.367 10.8669 14.3753 10.9669C14.392 11.0669 14.4586 11.0336 14.467 10.9669C14.467 10.9169 14.4836 10.8169 14.467 10.7086C14.467 10.6669 14.4503 10.6503 14.4253 10.6419C14.4253 10.6503 14.4253 10.6503 14.417 10.6503ZM15.1586 10.6503C15.142 10.6503 15.117 10.6669 15.1086 10.7169C15.1086 10.8003 15.1086 10.8836 15.1253 10.9669C15.1253 11.0336 15.2086 11.0669 15.2086 10.9669C15.2086 10.8669 15.2336 10.7836 15.2336 10.7169C15.2336 10.6753 15.2003 10.6503 15.167 10.6419C15.167 10.6503 15.167 10.6503 15.1586 10.6503ZM14.1336 10.7669C14.1003 10.7753 14.067 10.8169 14.0836 10.8503C14.1003 10.9336 14.1253 11.0336 14.1253 11.1169C14.1253 11.1919 14.1836 11.1669 14.192 11.1169C14.2003 11.0253 14.2003 10.9419 14.2003 10.8503C14.192 10.7836 14.1586 10.7586 14.1336 10.7669ZM15.442 10.7669C15.4253 10.7753 15.4003 10.8003 15.4003 10.8503L15.417 11.1169C15.417 11.1669 15.4836 11.1919 15.4836 11.1169C15.4836 11.0336 15.5003 10.9336 15.517 10.8503C15.5336 10.8086 15.5003 10.7669 15.467 10.7669C15.4586 10.7669 15.4503 10.7669 15.442 10.7669ZM11.5086 10.7836C11.467 10.7836 11.442 10.8336 11.467 10.8836C11.5086 10.9753 11.5503 11.0336 11.592 11.1253C11.6253 11.2086 11.6836 11.1586 11.667 11.1003L11.5753 10.8503C11.5503 10.8003 11.5253 10.7836 11.5086 10.7836ZM18.092 10.7836C18.067 10.7836 18.042 10.8003 18.0253 10.8503C17.967 10.9753 17.942 11.0336 17.9253 11.1003C17.9086 11.1669 17.967 11.2169 18.0086 11.1253L18.1253 10.8836C18.1503 10.8253 18.1253 10.7836 18.092 10.7836ZM11.7753 10.7836C11.742 10.8003 11.7253 10.8336 11.742 10.8669C11.7836 10.9503 11.8253 11.0336 11.8586 11.1169C11.8836 11.1919 11.9503 11.1669 11.9253 11.1003L11.8586 10.8503C11.8336 10.7919 11.792 10.7753 11.7753 10.7836ZM17.8086 10.7836C17.7836 10.7919 17.7586 10.8169 17.742 10.8669C17.692 11.0003 17.692 11.0419 17.667 11.1169C17.642 11.1836 17.7086 11.2003 17.7336 11.1336L17.8503 10.8836C17.867 10.8419 17.8503 10.8086 17.8253 10.8003C17.817 10.7753 17.817 10.7753 17.8086 10.7836ZM12.1086 10.8503C12.067 10.8586 12.042 10.9086 12.067 10.9753C12.092 11.0586 12.1336 11.1253 12.1753 11.2253C12.217 11.3253 12.2753 11.3003 12.2586 11.2419C12.242 11.1836 12.2253 11.0919 12.1753 10.9419C12.1586 10.8669 12.1336 10.8419 12.1086 10.8503ZM17.492 10.8503C17.467 10.8503 17.4336 10.8669 17.4086 10.9336C17.367 11.0836 17.342 11.1753 17.3336 11.2336C17.317 11.3003 17.3836 11.3169 17.417 11.2169C17.4586 11.1253 17.5003 11.0503 17.5253 10.9669C17.5503 10.9086 17.5253 10.8503 17.492 10.8503ZM11.2836 10.8919C11.242 10.8919 11.217 10.9586 11.2336 11.0086C11.267 11.0753 11.292 11.1003 11.3253 11.1836C11.367 11.2669 11.4086 11.2003 11.392 11.1503C11.3753 11.1003 11.3503 11.0336 11.342 10.9669C11.3253 10.9086 11.3003 10.8919 11.2836 10.8919ZM18.317 10.8919C18.292 10.8919 18.267 10.9086 18.2503 10.9586L18.2003 11.1419C18.1836 11.1919 18.2253 11.2586 18.267 11.1753C18.3003 11.0919 18.317 11.0753 18.3586 11.0003C18.3836 10.9586 18.3503 10.9003 18.317 10.8919ZM13.8503 11.0836C13.8003 11.0836 13.767 11.1336 13.7836 11.1836C13.8003 11.2669 13.8336 11.3336 13.8586 11.4336C13.8836 11.5169 13.942 11.4836 13.942 11.4169C13.9336 11.3253 13.9253 11.2419 13.9086 11.1503C13.892 11.1003 13.8753 11.0836 13.8503 11.0836ZM15.7503 11.0836C15.7336 11.0836 15.7003 11.1003 15.7003 11.1503C15.6836 11.2419 15.667 11.3253 15.6586 11.4169C15.6586 11.4753 15.717 11.5169 15.742 11.4336L15.8253 11.1836C15.8253 11.1336 15.7836 11.0836 15.7503 11.0836ZM14.8003 11.1586C14.7503 11.1586 14.742 11.2253 14.742 11.2753C14.742 11.4253 14.692 11.5753 14.6086 11.7003C14.542 11.7836 14.4586 11.7586 14.3753 11.7169C14.3003 11.6753 14.2253 11.6253 14.1586 11.5669C14.067 11.5003 14.0003 11.5419 14.1086 11.6919C14.417 12.1336 14.7503 12.5086 14.7503 13.2253C14.7503 13.3086 14.767 13.3419 14.8086 13.3419C14.8503 13.3419 14.8586 13.3169 14.8586 13.2253C14.8586 12.5086 15.192 12.1419 15.5003 11.6919C15.6086 11.5419 15.542 11.5086 15.4503 11.5753C15.3836 11.6336 15.3086 11.6836 15.2336 11.7253C15.1503 11.7753 15.0586 11.7919 15.0003 11.7086C14.917 11.5836 14.867 11.4336 14.867 11.2836C14.8503 11.2253 14.8503 11.1586 14.8003 11.1586ZM12.4503 11.0503C12.442 11.0503 12.442 11.0503 12.4336 11.0503C12.417 11.0586 12.4086 11.0753 12.417 11.1169L12.492 11.3753C12.5086 11.4419 12.5836 11.4253 12.5753 11.3419L12.5336 11.1336C12.517 11.0836 12.4753 11.0503 12.4503 11.0503ZM17.1503 11.0503C17.117 11.0503 17.0836 11.0836 17.067 11.1336C17.042 11.2253 17.042 11.2503 17.0253 11.3336C17.0086 11.4169 17.0836 11.4336 17.1003 11.3753L17.1836 11.1086C17.1836 11.0836 17.1836 11.0586 17.1503 11.0503C17.1586 11.0503 17.1503 11.0503 17.1503 11.0503ZM11.0503 11.0836C11.0086 11.0836 10.9836 11.1336 11.0253 11.2003C11.067 11.2836 11.142 11.3753 11.1753 11.4336C11.2086 11.4836 11.267 11.4503 11.2253 11.3836C11.1836 11.3169 11.1753 11.2336 11.117 11.1336C11.1086 11.1003 11.0753 11.0753 11.0503 11.0836ZM18.5503 11.0836C18.5336 11.0836 18.5003 11.1003 18.4836 11.1336C18.4336 11.2336 18.417 11.3169 18.3836 11.3836C18.342 11.4503 18.4003 11.4919 18.4336 11.4336C18.467 11.3753 18.542 11.2836 18.5836 11.2003C18.617 11.1336 18.5836 11.0836 18.5503 11.0836ZM8.93365 11.3003C8.89198 11.3003 8.88365 11.3836 8.91698 11.4336C8.96698 11.5003 9.02531 11.5586 9.09198 11.6169C9.14198 11.6669 9.15865 11.6003 9.13365 11.5503L9.01698 11.3669C8.98365 11.3169 8.95031 11.3003 8.93365 11.3003ZM20.6586 11.3003C20.642 11.3003 20.6086 11.3169 20.5836 11.3669L20.4586 11.5503C20.4336 11.6003 20.442 11.6669 20.5086 11.6169C20.5753 11.5669 20.6336 11.5003 20.6836 11.4336C20.717 11.3836 20.7086 11.3003 20.6586 11.3003ZM9.27532 11.3669C9.23365 11.3669 9.20865 11.3919 9.24198 11.4503L9.36698 11.7003C9.40032 11.7669 9.50032 11.7836 9.45865 11.6836L9.37532 11.4336C9.35032 11.3919 9.30865 11.3753 9.27532 11.3669ZM20.3253 11.3669C20.2836 11.3669 20.242 11.3919 20.217 11.4419L20.1336 11.6919C20.092 11.7919 20.192 11.7753 20.2253 11.7086C20.2586 11.6419 20.3086 11.5419 20.342 11.4586C20.3836 11.3919 20.3586 11.3669 20.3253 11.3669ZM8.61698 11.3919C8.56698 11.3919 8.56698 11.4419 8.60865 11.4753C8.66698 11.5253 8.74198 11.5669 8.80865 11.6253C8.89198 11.6919 8.92532 11.6253 8.87532 11.5753C8.83365 11.5253 8.79198 11.4669 8.68365 11.4086C8.65865 11.3919 8.64198 11.3919 8.61698 11.3919ZM20.9753 11.3919C20.9586 11.3919 20.9336 11.3919 20.9086 11.4086C20.8003 11.4669 20.7586 11.5253 20.7086 11.5753C20.667 11.6336 20.7003 11.6919 20.7836 11.6253C20.8503 11.5669 20.9336 11.5169 20.9836 11.4753C21.0336 11.4419 21.0253 11.3919 20.9753 11.3919ZM13.667 11.4419C13.6336 11.4419 13.617 11.4753 13.617 11.5253L13.6836 11.7669C13.7003 11.8419 13.7836 11.8419 13.767 11.7669C13.7503 11.7003 13.7503 11.6169 13.717 11.5086C13.717 11.4586 13.7003 11.4419 13.667 11.4419C13.6753 11.4336 13.667 11.4336 13.667 11.4419ZM15.917 11.4419C15.9003 11.4419 15.8753 11.4586 15.867 11.5086C15.842 11.6086 15.8336 11.6919 15.817 11.7669C15.8003 11.8336 15.892 11.8336 15.9003 11.7586L15.967 11.5169C15.9836 11.4669 15.9503 11.4336 15.9253 11.4336C15.9253 11.4419 15.9253 11.4419 15.917 11.4419ZM11.6503 11.3086C11.6336 11.3086 11.617 11.3586 11.6336 11.4253C11.7003 11.6169 11.742 11.8169 11.742 12.0253C11.7253 12.1086 11.6753 12.1086 11.617 12.0919C11.5503 12.0586 11.492 12.0253 11.4336 11.9753C11.3836 11.9419 11.317 11.9836 11.4003 12.0503C11.8003 12.3836 12.0836 12.7669 12.2003 13.2253C12.217 13.3169 12.2753 13.3336 12.2586 13.2253C12.167 12.6419 12.142 12.1669 12.2836 11.8753C12.3336 11.7586 12.2836 11.6586 12.2003 11.8336C12.142 11.9503 12.0503 12.0003 11.9836 11.9003C11.8753 11.7336 11.792 11.5669 11.717 11.3836C11.7003 11.3336 11.6836 11.3169 11.667 11.3086C11.667 11.3086 11.6586 11.3086 11.6503 11.3086ZM17.9253 11.3086C17.9086 11.3086 17.8836 11.3336 17.8753 11.3753C17.8253 11.5086 17.6836 11.7919 17.6086 11.8919C17.5336 12.0003 17.4503 11.9419 17.392 11.8253C17.3086 11.6419 17.2586 11.7503 17.3086 11.8669C17.4503 12.1586 17.4253 12.6419 17.342 13.2169C17.3253 13.3253 17.3836 13.3086 17.4086 13.2169C17.5336 12.7503 17.8086 12.3336 18.192 12.0419C18.2753 11.9753 18.2086 11.9336 18.1586 11.9753C18.1003 12.0169 18.0336 12.0503 17.9753 12.0753C17.9086 12.1003 17.867 12.0919 17.8503 12.0086C17.8336 11.9253 17.867 11.7503 17.967 11.4086C17.9836 11.3586 17.967 11.3086 17.9503 11.3003C17.9336 11.3086 17.9336 11.3086 17.9253 11.3086ZM9.62532 11.4669C9.59198 11.4669 9.55865 11.4919 9.57532 11.5503C9.60032 11.6419 9.65865 11.7336 9.67531 11.7919C9.69198 11.8503 9.75865 11.8253 9.74198 11.7419L9.70865 11.5336C9.71698 11.4919 9.66698 11.4669 9.62532 11.4669ZM19.967 11.4669C19.9253 11.4669 19.8836 11.4919 19.8836 11.5336L19.8586 11.7419C19.842 11.8253 19.9086 11.8503 19.9253 11.7919C19.942 11.7419 19.992 11.6419 20.017 11.5503C20.0336 11.4919 20.0086 11.4669 19.967 11.4669ZM10.8836 11.3503C10.842 11.3419 10.8336 11.4503 10.867 11.5003L11.0503 11.7086C11.1003 11.7753 11.1336 11.7169 11.1003 11.6586L10.9253 11.4086C10.917 11.3753 10.892 11.3503 10.8836 11.3503ZM18.717 11.3503C18.7003 11.3503 18.6836 11.3669 18.667 11.4003L18.492 11.6503C18.4586 11.7003 18.492 11.7669 18.5503 11.7003L18.7336 11.4919C18.7586 11.4503 18.7586 11.3503 18.717 11.3503ZM9.91698 11.6169C9.89198 11.6169 9.86698 11.6336 9.88365 11.6836C9.90031 11.7669 9.91698 11.8169 9.93365 11.8919C9.95031 11.9586 10.0003 11.9503 10.0003 11.8836L9.98365 11.6669C9.97532 11.6419 9.95032 11.6169 9.91698 11.6169ZM19.6836 11.6169C19.6503 11.6169 19.6253 11.6419 19.617 11.6669L19.6003 11.8836C19.6003 11.9503 19.6503 11.9669 19.667 11.8919L19.7253 11.6919C19.7336 11.6336 19.7086 11.6169 19.6836 11.6169ZM10.7836 11.7169C10.742 11.7169 10.7086 11.7669 10.7586 11.8253C10.8336 11.9253 10.917 11.9919 10.9503 12.0253C10.9753 12.0669 11.0503 12.0503 11.0003 11.9753L10.8503 11.7419C10.842 11.7169 10.817 11.7086 10.7836 11.7169ZM18.7836 11.7169C18.767 11.7169 18.7503 11.7253 18.742 11.7419L18.5836 11.9753C18.5336 12.0503 18.6086 12.0586 18.642 12.0253C18.667 11.9836 18.7586 11.9169 18.8336 11.8169C18.8836 11.7503 18.842 11.7086 18.8003 11.7086C18.8003 11.7169 18.8003 11.7169 18.7836 11.7169ZM9.40865 11.9836C9.38365 11.9836 9.36698 12.0086 9.40865 12.0669C9.50865 12.1919 9.58365 12.3336 9.62532 12.4919C9.63365 12.5836 9.59198 12.5836 9.55031 12.5836C9.42531 12.5836 9.36698 12.4919 9.25865 12.4669C9.14198 12.4503 9.12532 12.5003 9.20865 12.5586C9.59198 12.8003 9.92532 13.1086 10.192 13.4753C10.2586 13.6003 10.342 13.6419 10.3003 13.5253C10.167 13.2669 10.117 12.9753 10.142 12.6836C10.1753 12.5003 10.2253 12.3753 10.217 12.2669C10.217 12.1669 10.1503 12.1753 10.1336 12.2669L10.067 12.4503C10.042 12.4836 9.95032 12.5003 9.86698 12.3919C9.75032 12.2503 9.62532 12.1253 9.49198 12.0086C9.45865 12.0086 9.43365 11.9919 9.40865 11.9836ZM20.1836 11.9836C20.167 11.9836 20.1336 12.0003 20.1086 12.0253C19.9753 12.1419 19.8503 12.2753 19.742 12.4086C19.6586 12.5253 19.5586 12.5003 19.542 12.4753C19.5086 12.4169 19.492 12.3503 19.4753 12.2836C19.4503 12.1919 19.392 12.1836 19.3836 12.2836C19.3836 12.3919 19.4253 12.5086 19.4586 12.7003C19.492 12.8836 19.4586 13.1836 19.3086 13.5419C19.2586 13.6586 19.3503 13.6086 19.417 13.4919C19.6836 13.1253 20.0086 12.8169 20.392 12.5753C20.4753 12.5169 20.4586 12.4586 20.342 12.4836C20.2253 12.5086 20.167 12.6003 20.0503 12.6003C20.0086 12.6003 19.967 12.6003 19.967 12.5086C19.9753 12.4253 20.0836 12.2169 20.1836 12.0836C20.2253 12.0086 20.217 11.9836 20.1836 11.9836Z" fill="black"/>
<path d="M10.0083 14.1834L10.1416 14.5918L10.0083 14.1834ZM10.275 14.1001L10.3916 14.5168L10.275 14.1001ZM10.5666 14.0501L10.65 14.4751L10.5666 14.0501ZM10.8333 14.0001L10.9166 14.4168L10.8333 14.0001ZM11.175 13.9668L11.2416 14.3918L11.175 13.9668ZM11.5416 13.9668L11.6166 14.3834L11.5416 13.9668ZM11.9 13.8501L11.95 14.2751L11.9 13.8501ZM12.2333 13.8668L12.2833 14.2918L12.2333 13.8668ZM12.5583 13.8251L12.6083 14.2501L12.5583 13.8251ZM12.8833 13.7834L12.9166 14.2168L12.8833 13.7834ZM13.2333 13.7834L13.2583 14.2168L13.2333 13.7834ZM13.55 13.7668L13.5666 14.2001L13.55 13.7668ZM13.9 13.7501L13.9166 14.1751L13.9 13.7501ZM14.3 13.7334L14.3166 14.1668L14.3 13.7334ZM19.5833 14.1834L19.45 14.5918L19.5833 14.1834ZM19.3166 14.1001L19.2 14.5168L19.3166 14.1001ZM19.0333 14.0501L18.95 14.4751L19.0333 14.0501ZM18.7666 14.0001L18.6833 14.4168L18.7666 14.0001ZM18.4166 13.9668L18.35 14.3918L18.4166 13.9668ZM18.05 13.9668L17.975 14.3918L18.05 13.9668ZM17.7 13.8501L17.65 14.2751L17.7 13.8501ZM17.3583 13.8668L17.3083 14.2918L17.3583 13.8668ZM17.0416 13.8251L16.9833 14.2501L17.0416 13.8251ZM16.7166 13.7834L16.6833 14.2168L16.7166 13.7834ZM16.3583 13.7834L16.3333 14.2168L16.3583 13.7834ZM16.05 13.7668L16.0333 14.2001L16.05 13.7668ZM15.6916 13.7501L15.675 14.1751L15.6916 13.7501ZM15.2916 13.7334L15.275 14.1668L15.2916 13.7334ZM14.8 13.7001V14.1834V13.7001Z" fill="#FFD83D"/>
<path d="M14.8 13.7001V14.1834M10.0083 14.1834L10.1416 14.5918L10.0083 14.1834ZM10.275 14.1001L10.3916 14.5168L10.275 14.1001ZM10.5666 14.0501L10.65 14.4751L10.5666 14.0501ZM10.8333 14.0001L10.9166 14.4168L10.8333 14.0001ZM11.175 13.9668L11.2416 14.3918L11.175 13.9668ZM11.5416 13.9668L11.6166 14.3834L11.5416 13.9668ZM11.9 13.8501L11.95 14.2751L11.9 13.8501ZM12.2333 13.8668L12.2833 14.2918L12.2333 13.8668ZM12.5583 13.8251L12.6083 14.2501L12.5583 13.8251ZM12.8833 13.7834L12.9166 14.2168L12.8833 13.7834ZM13.2333 13.7834L13.2583 14.2168L13.2333 13.7834ZM13.55 13.7668L13.5666 14.2001L13.55 13.7668ZM13.9 13.7501L13.9166 14.1751L13.9 13.7501ZM14.3 13.7334L14.3166 14.1668L14.3 13.7334ZM19.5833 14.1834L19.45 14.5918L19.5833 14.1834ZM19.3166 14.1001L19.2 14.5168L19.3166 14.1001ZM19.0333 14.0501L18.95 14.4751L19.0333 14.0501ZM18.7666 14.0001L18.6833 14.4168L18.7666 14.0001ZM18.4166 13.9668L18.35 14.3918L18.4166 13.9668ZM18.05 13.9668L17.975 14.3918L18.05 13.9668ZM17.7 13.8501L17.65 14.2751L17.7 13.8501ZM17.3583 13.8668L17.3083 14.2918L17.3583 13.8668ZM17.0416 13.8251L16.9833 14.2501L17.0416 13.8251ZM16.7166 13.7834L16.6833 14.2168L16.7166 13.7834ZM16.3583 13.7834L16.3333 14.2168L16.3583 13.7834ZM16.05 13.7668L16.0333 14.2001L16.05 13.7668ZM15.6916 13.7501L15.675 14.1751L15.6916 13.7501ZM15.2916 13.7334L15.275 14.1668L15.2916 13.7334Z" stroke="black" stroke-width="0.1" stroke-miterlimit="3.2" stroke-linecap="round" stroke-linejoin="round"/>
</g>
</g>
<defs>
<clipPath id="clip0_769_19580">
<path d="M0 20C0 8.95431 8.95431 0 20 0C31.0457 0 40 8.95431 40 20C40 31.0457 31.0457 40 20 40C8.95431 40 0 31.0457 0 20Z" fill="white"/>
</clipPath>
<clipPath id="clip1_769_19580">
<rect width="53.3333" height="40" fill="white" transform="translate(0 0.000244141)"/>
</clipPath>
</defs>
</svg>
