<svg width="40" height="40" viewBox="0 0 40 40" fill="none" xmlns="http://www.w3.org/2000/svg">
<g clip-path="url(#clip0_769_19680)">
<path d="M0 20C0 8.95431 8.95431 0 20 0C31.0457 0 40 8.95431 40 20C40 31.0457 31.0457 40 20 40C8.95431 40 0 31.0457 0 20Z" fill="#E94E0F"/>
<g clip-path="url(#clip1_769_19680)">
<path d="M46.3341 0H-7V39.8273H46.3341V0Z" fill="#006A44"/>
<path d="M46.3341 26.7276H-7V40.0015H46.3341V26.7276Z" fill="#C1272D"/>
<path fill-rule="evenodd" clip-rule="evenodd" d="M-7 0H46.3349V13.274H-7V0Z" fill="#FDB913"/>
</g>
</g>
<defs>
<clipPath id="clip0_769_19680">
<path d="M0 20C0 8.95431 8.95431 0 20 0C31.0457 0 40 8.95431 40 20C40 31.0457 31.0457 40 20 40C8.95431 40 0 31.0457 0 20Z" fill="white"/>
</clipPath>
<clipPath id="clip1_769_19680">
<rect width="53.3333" height="40" fill="white" transform="translate(-7)"/>
</clipPath>
</defs>
</svg>
