<svg width="40" height="40" viewBox="0 0 40 40" fill="none" xmlns="http://www.w3.org/2000/svg">
<g clip-path="url(#clip0_769_19988)">
<path d="M0 20C0 8.95431 8.95431 0 20 0C31.0457 0 40 8.95431 40 20C40 31.0457 31.0457 40 20 40C8.95431 40 0 31.0457 0 20Z" fill="#E94E0F"/>
<g clip-path="url(#clip1_769_19988)">
<path d="M-7 -0.000610352H46.3333V39.9994H-7V-0.000610352Z" fill="#00785E"/>
<path d="M17.5835 9.05768L20.9585 11.516L19.6668 7.54102L18.3752 11.516L21.7585 9.05768H17.5835Z" fill="#FBD116"/>
<path d="M19.6669 27.6328H11.1253C11.0169 27.5244 10.9086 27.4161 10.8086 27.2994H19.6669C19.7336 27.3244 19.7836 27.3911 19.7836 27.4661C19.7836 27.5328 19.7419 27.6078 19.6669 27.6328ZM19.6669 25.0244C19.7669 24.8244 19.8003 24.6078 19.7669 24.3911C19.7503 24.2828 19.7169 24.1744 19.6669 24.0744C18.9003 24.8078 17.9753 25.3494 16.9586 25.6578C16.3253 25.8494 15.6669 25.9494 15.0003 25.9494H9.74193C9.89193 26.1744 10.0586 26.3994 10.2253 26.6161H15.3086C16.9753 26.6161 18.4919 26.0161 19.6669 25.0244ZM10.5336 22.9661C10.2753 23.0661 10.0003 23.1161 9.72526 23.1328C11.0086 24.5911 12.8503 25.4244 14.7919 25.4244C16.6336 25.4244 18.3919 24.6744 19.6669 23.3411C19.9003 21.7161 20.0253 20.0828 20.0419 18.4411C20.0586 16.5578 19.9336 14.6661 19.6669 12.7994C19.1169 13.2994 18.0836 14.3578 17.6003 15.9911C17.4169 16.6161 17.3253 17.2661 17.3336 17.9161C17.3336 19.2494 17.7336 20.5578 18.4753 21.6661C17.5586 20.4828 17.0586 19.0328 17.0586 17.5411C17.0586 16.5078 17.2919 15.5244 17.7086 14.6494C17.4169 14.3411 17.2086 13.9744 17.0836 13.5661C16.5086 14.5828 16.2086 15.7328 16.2086 16.8994C16.2086 18.3994 16.7003 19.7911 17.5336 20.9078C15.9503 19.2411 13.7169 18.3494 11.4169 18.4578C11.6503 18.6744 11.8419 18.9244 11.9836 19.1994C14.1419 19.1994 16.2086 20.0911 17.7003 21.6494C16.2753 20.4578 14.4753 19.7994 12.6169 19.7994C11.5669 19.7994 10.5253 20.0078 9.55859 20.4078C10.6253 23.2328 13.4336 25.0078 16.4419 24.7578C16.0503 24.8244 15.6503 24.8661 15.2419 24.8661C13.4836 24.8661 11.8003 24.1911 10.5419 22.9661H10.5336ZM19.6669 30.3661H15.2419C16.6503 30.9244 18.1503 31.2078 19.6669 31.2078C19.7336 31.0828 19.7753 30.9328 19.7753 30.7911C19.7753 30.6411 19.7336 30.4994 19.6669 30.3661ZM19.6669 28.3244H11.8669C12.0753 28.5078 12.2919 28.6744 12.5169 28.8411H19.6669C19.7336 28.7744 19.7753 28.6828 19.7753 28.5828C19.7753 28.4828 19.7419 28.3911 19.6669 28.3244ZM19.6669 29.3661H13.2753C13.6586 29.6078 14.0669 29.8328 14.4753 30.0328H19.6669C19.7336 29.9244 19.7669 29.8078 19.7669 29.6828C19.7586 29.5661 19.7253 29.4578 19.6669 29.3661Z" fill="white"/>
<path d="M9.7085 14.566L11.8252 16.5327L11.2668 13.6993L10.0502 16.316L12.5752 14.916L9.7085 14.566ZM12.7835 11.8993L15.6752 11.9493L13.3668 10.1993L14.2085 12.9743L15.1502 10.2327L12.7835 11.8993Z" fill="#FBD116"/>
<path d="M19.667 27.6328H28.2087C28.317 27.5244 28.4253 27.4161 28.5253 27.2994H19.667C19.6003 27.3244 19.5503 27.3911 19.5503 27.4661C19.5503 27.5328 19.592 27.6078 19.667 27.6328ZM19.667 25.0244C19.567 24.8244 19.5337 24.6078 19.567 24.3911C19.5837 24.2828 19.617 24.1744 19.667 24.0744C20.4337 24.8078 21.3587 25.3494 22.3753 25.6578C23.0087 25.8494 23.667 25.9494 24.3337 25.9494H29.592C29.442 26.1744 29.2753 26.3994 29.1087 26.6161H24.0253C22.3587 26.6161 20.842 26.0161 19.667 25.0244ZM28.8003 22.9661C29.0587 23.0661 29.3337 23.1161 29.6087 23.1328C28.3253 24.5911 26.4837 25.4244 24.542 25.4244C22.7003 25.4244 20.942 24.6744 19.667 23.3411C19.4337 21.7161 19.3087 20.0828 19.292 18.4411C19.2753 16.5578 19.4003 14.6661 19.667 12.7994C20.217 13.2994 21.2503 14.3578 21.7337 15.9911C21.917 16.6161 22.0087 17.2661 22.0003 17.9161C22.0003 19.2494 21.6003 20.5578 20.8587 21.6661C21.7753 20.4828 22.2753 19.0328 22.2753 17.5411C22.2753 16.5078 22.042 15.5244 21.6253 14.6494C21.917 14.3411 22.1253 13.9744 22.2503 13.5661C22.8253 14.5828 23.1253 15.7328 23.1253 16.8994C23.1253 18.3994 22.6337 19.7911 21.8003 20.9078C23.3837 19.2411 25.617 18.3494 27.917 18.4578C27.6837 18.6744 27.492 18.9244 27.3503 19.1994C25.192 19.1994 23.1253 20.0911 21.6337 21.6494C23.0587 20.4578 24.8587 19.7994 26.717 19.7994C27.767 19.7994 28.8087 20.0078 29.7753 20.4078C28.7087 23.2328 25.9003 25.0078 22.892 24.7578C23.2837 24.8244 23.6837 24.8661 24.092 24.8661C25.8503 24.8661 27.5337 24.1911 28.792 22.9661H28.8003ZM19.667 30.3661H24.092C22.6837 30.9244 21.1837 31.2078 19.667 31.2078C19.6003 31.0828 19.5587 30.9328 19.5587 30.7911C19.5587 30.6411 19.6003 30.4994 19.667 30.3661ZM19.667 28.3244H27.467C27.2587 28.5078 27.042 28.6744 26.817 28.8411H19.667C19.6003 28.7744 19.5587 28.6828 19.5587 28.5828C19.5587 28.4828 19.592 28.3911 19.667 28.3244ZM19.667 29.3661H26.0587C25.6753 29.6078 25.267 29.8328 24.8587 30.0328H19.667C19.6003 29.9244 19.567 29.8078 19.567 29.6828C19.5753 29.5661 19.6087 29.4578 19.667 29.3661Z" fill="white"/>
<path d="M29.6254 14.566L27.5087 16.5327L28.067 13.6993L29.2837 16.316L26.7587 14.916L29.6254 14.566ZM26.5504 11.8993L23.6587 11.9493L25.967 10.1993L25.1254 12.9743L24.1837 10.2327L26.5504 11.8993Z" fill="#FBD116"/>
</g>
</g>
<defs>
<clipPath id="clip0_769_19988">
<path d="M0 20C0 8.95431 8.95431 0 20 0C31.0457 0 40 8.95431 40 20C40 31.0457 31.0457 40 20 40C8.95431 40 0 31.0457 0 20Z" fill="white"/>
</clipPath>
<clipPath id="clip1_769_19988">
<rect width="53.3333" height="40" fill="white" transform="translate(-7 -0.000610352)"/>
</clipPath>
</defs>
</svg>
