<svg width="40" height="40" viewBox="0 0 40 40" fill="none" xmlns="http://www.w3.org/2000/svg">
<g clip-path="url(#clip0_769_19926)">
<path d="M0 20C0 8.95431 8.95431 0 20 0C31.0457 0 40 8.95431 40 20C40 31.0457 31.0457 40 20 40C8.95431 40 0 31.0457 0 20Z" fill="#E94E0F"/>
<g clip-path="url(#clip1_769_19926)">
<path fill-rule="evenodd" clip-rule="evenodd" d="M10.7749 0.000488281H46.3332V20.0005H10.7749V0.000488281Z" fill="#FC3D32"/>
<path fill-rule="evenodd" clip-rule="evenodd" d="M10.7749 20.0005H46.3332V40.0005H10.7749V20.0005Z" fill="#007E3A"/>
<path fill-rule="evenodd" clip-rule="evenodd" d="M-7 0.000488281H10.775V40.0005H-7V0.000488281Z" fill="white"/>
</g>
</g>
<defs>
<clipPath id="clip0_769_19926">
<path d="M0 20C0 8.95431 8.95431 0 20 0C31.0457 0 40 8.95431 40 20C40 31.0457 31.0457 40 20 40C8.95431 40 0 31.0457 0 20Z" fill="white"/>
</clipPath>
<clipPath id="clip1_769_19926">
<rect width="53.3333" height="40" fill="white" transform="translate(-7 0.000488281)"/>
</clipPath>
</defs>
</svg>
