<svg width="40" height="40" viewBox="0 0 40 40" fill="none" xmlns="http://www.w3.org/2000/svg">
<g clip-path="url(#clip0_769_20242)">
<path d="M0 20C0 8.95431 8.95431 0 20 0C31.0457 0 40 8.95431 40 20C40 31.0457 31.0457 40 20 40C8.95431 40 0 31.0457 0 20Z" fill="#E94E0F"/>
<g clip-path="url(#clip1_769_20242)">
<path fill-rule="evenodd" clip-rule="evenodd" d="M-7 0.000244141H46.3333V40.0002H-7V0.000244141Z" fill="#F41408"/>
<path fill-rule="evenodd" clip-rule="evenodd" d="M-7 26.6669H46.3333V40.0002H-7V26.6669Z" fill="#21873B"/>
<path fill-rule="evenodd" clip-rule="evenodd" d="M-7 0.000244141H46.3333V13.3336H-7V0.000244141Z" fill="black"/>
<path fill-rule="evenodd" clip-rule="evenodd" d="M11.375 11.7502C13.2334 7.65024 18.4167 5.68358 22.9417 7.37524C24.0037 7.73526 24.9805 8.30926 25.8118 9.06176C26.6432 9.81427 27.3113 10.7293 27.775 11.7502H11.375ZM9.20837 12.2836C7.73784 12.1835 6.27764 11.9661 4.84171 11.6336C4.50004 11.5252 4.48337 11.3336 4.52504 11.1919C4.56671 11.0502 4.78337 10.8919 5.04171 10.9419C5.50837 11.0586 7.44171 11.5252 9.20837 12.2836ZM19.5917 5.12524C19.2417 3.37524 19.1584 1.45858 19.1917 1.12524C19.225 0.800244 19.4167 0.750244 19.5834 0.750244C19.75 0.750244 19.975 0.900244 19.975 1.14191C19.975 1.58358 19.9667 3.39191 19.5917 5.14191V5.12524ZM20.5584 5.16691C20.4202 3.83198 20.4118 2.48679 20.5334 1.15024C20.6 0.825244 20.8 0.783578 20.9584 0.800244C21.125 0.808578 21.3334 0.975244 21.3084 1.21691C21.2667 1.65858 21.0917 3.45858 20.5584 5.16691ZM21.425 5.27524C21.4084 3.50024 21.675 1.58358 21.7667 1.27524C21.8584 0.950244 22.0667 0.925244 22.225 0.950244C22.3917 0.975244 22.5834 1.15858 22.5417 1.39191C22.4584 1.83358 22.1084 3.60858 21.425 5.27524ZM22.3417 5.45858C22.4917 3.69191 22.95 1.80858 23.075 1.50024C23.2 1.19191 23.4084 1.18358 23.5584 1.21691C23.725 1.25858 23.8917 1.45024 23.8334 1.68358C23.7 2.10858 23.1917 3.85024 22.35 5.45858H22.3417ZM23.25 5.72524C23.575 3.97524 24.2084 2.13358 24.3584 1.83358C24.5167 1.54191 24.7167 1.54191 24.875 1.59191C25.025 1.64191 25.1834 1.85858 25.1 2.07524C24.5981 3.34674 23.9788 4.56869 23.25 5.72524ZM24.0917 6.04191C24.575 4.31691 25.3834 2.54191 25.5667 2.25024C25.75 1.96691 25.95 1.99191 26.1 2.05858C26.25 2.11691 26.3834 2.34191 26.275 2.55858C26.0667 2.95858 25.2334 4.59191 24.0917 6.04191ZM24.925 6.43358C25.4207 5.15961 26.0345 3.93482 26.7584 2.77524C26.9584 2.50858 27.1667 2.55024 27.3084 2.62524C27.3503 2.65008 27.3869 2.68303 27.4159 2.72217C27.445 2.76131 27.4659 2.80584 27.4776 2.85317C27.4892 2.9005 27.4913 2.94968 27.4837 2.99783C27.4761 3.04597 27.459 3.09212 27.4334 3.13358C27.1834 3.51691 26.1917 5.08358 24.925 6.43358ZM25.7084 6.89191C26.5167 5.27524 27.65 3.64191 27.8834 3.39191C28.1167 3.14191 28.3167 3.20024 28.45 3.28358C28.4898 3.31174 28.5236 3.34754 28.5493 3.38889C28.5751 3.43025 28.5924 3.47632 28.6001 3.52442C28.6079 3.57253 28.606 3.6217 28.5945 3.66905C28.5831 3.71641 28.5623 3.76101 28.5334 3.80024C28.2417 4.16691 27.1 5.64191 25.7 6.88358L25.7084 6.89191ZM26.4417 7.40858C27.4084 5.85858 28.6917 4.32524 28.95 4.10024C29.2 3.86691 29.4 3.93358 29.525 4.03358C29.5615 4.0653 29.5912 4.10406 29.6122 4.14754C29.6333 4.19102 29.6454 4.23831 29.6477 4.28658C29.6501 4.33484 29.6426 4.38308 29.6258 4.42839C29.609 4.47371 29.5833 4.51515 29.55 4.55024C29.2334 4.89191 27.9584 6.27524 26.4417 7.40858ZM27.1334 7.98358C27.9788 6.86903 28.9214 5.83163 29.95 4.88358C30.225 4.67524 30.4084 4.75858 30.525 4.85858C30.5596 4.8938 30.5865 4.93579 30.6041 4.9819C30.6216 5.02801 30.6295 5.07725 30.6271 5.12653C30.6248 5.17582 30.6123 5.22409 30.5904 5.26832C30.5686 5.31256 30.5378 5.35179 30.5 5.38358C30.1584 5.70024 28.75 6.97524 27.1334 7.98358ZM27.7667 8.60858C28.7111 7.56367 29.7488 6.60695 30.8667 5.75024C31.1667 5.55858 31.3417 5.65858 31.45 5.77524C31.55 5.88358 31.575 6.14191 31.3667 6.29191C30.2338 7.16367 29.0295 7.93863 27.7667 8.60858ZM28.3084 9.25858C29.3503 8.28866 30.4739 7.41041 31.6667 6.63358C31.975 6.46691 32.1417 6.58358 32.2334 6.70858C32.3334 6.82524 32.325 7.08358 32.1167 7.21691C31.7167 7.46691 30.0917 8.51691 28.3084 9.25858ZM28.8 9.95024C29.927 9.07096 31.1256 8.28766 32.3834 7.60858C32.7167 7.46691 32.875 7.59191 32.9584 7.71691C33.0417 7.85024 33.0084 8.10024 32.7917 8.21691C31.5078 8.90262 30.17 9.48232 28.7917 9.95024H28.8ZM29.25 10.7502C30.4639 9.96812 31.7405 9.28801 33.0667 8.71691C33.4084 8.60024 33.55 8.74191 33.6167 8.87524C33.6917 9.00858 33.6417 9.25858 33.4 9.35858C32.9584 9.54191 31.15 10.3086 29.25 10.7502ZM29.6 11.5169C30.8838 10.8309 32.2216 10.2512 33.6 9.78358C33.95 9.70024 34.075 9.85024 34.1334 9.99191C34.1834 10.1252 34.1084 10.3752 33.8667 10.4502C33.4084 10.6086 31.5334 11.2252 29.6 11.5169ZM29.8834 12.3336C31.2263 11.7526 32.6142 11.2816 34.0334 10.9252C34.3834 10.8752 34.5 11.0252 34.5417 11.1752C34.5834 11.3169 34.4834 11.5502 34.2334 11.6169C33.7584 11.7252 31.8334 12.2002 29.8834 12.3336ZM18.65 5.16691C18.2547 3.87917 17.984 2.55642 17.8417 1.21691C17.8417 0.891911 18.0334 0.816911 18.1917 0.800244C18.3584 0.791911 18.6084 0.925244 18.625 1.15858C18.6667 1.60024 18.8417 3.40024 18.6584 5.16691H18.65ZM17.7334 5.27524C17.2121 4.02789 16.813 2.73295 16.5417 1.40858C16.5084 1.07524 16.6917 0.991911 16.85 0.966911C17.0167 0.941911 17.2667 1.05024 17.3167 1.28358C17.5774 2.59859 17.7169 3.93475 17.7334 5.27524ZM16.8167 5.45858C16.1767 4.2553 15.6522 2.99411 15.25 1.69191C15.1834 1.36691 15.3584 1.26691 15.5167 1.22524C15.675 1.19191 15.9334 1.27524 16.0084 1.50858C16.1334 1.93358 16.65 3.67524 16.8084 5.45024L16.8167 5.45858ZM15.9417 5.70858C15.1971 4.56191 14.561 3.34832 14.0417 2.08358C13.95 1.76691 14.1084 1.65024 14.2584 1.60024C14.4167 1.55024 14.6834 1.61691 14.775 1.83358C14.9417 2.25024 15.625 3.95024 15.9417 5.70024V5.70858ZM15.1 6.00024C14.2459 4.9187 13.4927 3.76107 12.85 2.54191C12.7334 2.23358 12.8834 2.10024 13.0334 2.04191C13.1834 1.97524 13.45 2.02524 13.5667 2.24191C13.775 2.64191 14.6084 4.28358 15.1 6.00024ZM14.2417 6.41691C13.2834 5.40851 12.4188 4.31512 11.6584 3.15024C11.5167 2.85858 11.65 2.71691 11.7917 2.64191C11.9334 2.56691 12.2084 2.59191 12.3417 2.80024C12.5917 3.18358 13.5917 4.74191 14.2417 6.41691ZM13.4584 6.86691C12.4117 5.93425 11.4496 4.91082 10.5834 3.80858C10.4084 3.52524 10.525 3.37524 10.6667 3.28358C10.7917 3.20024 11.0834 3.20024 11.225 3.40024C11.5084 3.75858 12.65 5.23358 13.4584 6.85858V6.86691ZM12.7334 7.36691C11.6005 6.51881 10.5437 5.57357 9.57504 4.54191C9.37504 4.27524 9.48337 4.12524 9.60837 4.02524C9.69646 3.97066 9.80043 3.94754 9.90335 3.95965C10.0063 3.97175 10.102 4.01838 10.175 4.09191C10.4917 4.42524 11.775 5.81691 12.7334 7.36691ZM12.025 7.95024C10.8151 7.19676 9.67199 6.34085 8.60837 5.39191C8.37504 5.14191 8.46671 4.97524 8.58337 4.86691C8.66765 4.80477 8.77067 4.77336 8.87529 4.7779C8.9799 4.78245 9.0798 4.82269 9.15837 4.89191C9.50837 5.20024 10.9084 6.47524 12.025 7.94191V7.95024ZM11.4084 8.53358C10.1325 7.87611 8.91431 7.11229 7.76671 6.25024C7.51671 6.01691 7.59171 5.85024 7.70004 5.73358C7.80004 5.61691 8.07504 5.55858 8.27504 5.70858C9.39965 6.5604 10.448 7.50842 11.4084 8.54191V8.53358ZM10.825 9.21691C9.48895 8.66367 8.20117 8.00027 6.97504 7.23358C6.70004 7.02524 6.75837 6.84191 6.85004 6.72524C6.94171 6.60024 7.20837 6.51691 7.42504 6.65024C7.82504 6.90858 9.45004 7.94191 10.825 9.21691ZM10.3 9.95024C8.45004 9.36691 6.55837 8.48358 6.26671 8.29191C5.96671 8.10858 6.01671 7.92524 6.09171 7.79191C6.16671 7.65858 6.42504 7.55858 6.65837 7.67524C7.07504 7.90024 8.80837 8.80024 10.3 9.95024ZM9.85837 10.7002C7.95837 10.2586 6.00004 9.53358 5.68337 9.36691C5.37504 9.20024 5.39171 9.01691 5.46671 8.88358C5.53337 8.75024 5.77504 8.62524 6.01671 8.71691C6.45837 8.90858 8.26671 9.66691 9.85837 10.7002ZM9.50837 11.4502C8.05562 11.2269 6.62321 10.8869 5.22504 10.4336C4.89171 10.3002 4.90837 10.1086 4.95837 9.97524C5.01671 9.83358 5.25004 9.69191 5.49171 9.76691C5.95837 9.92524 7.82504 10.5419 9.50837 11.4502Z" fill="#F31509"/>
<path fill-rule="evenodd" clip-rule="evenodd" d="M9.20837 12.2836C7.73784 12.1834 6.27765 11.9661 4.84171 11.6336C4.50004 11.5253 4.48337 11.3336 4.52504 11.1919C4.56671 11.0503 4.78337 10.8919 5.04171 10.9419C5.50837 11.0586 7.44171 11.5253 9.20837 12.2836Z" fill="#F31509"/>
<path fill-rule="evenodd" clip-rule="evenodd" d="M3.7832 11.7919H35.5499V12.8419H3.7832V11.7919Z" fill="black"/>
</g>
</g>
<defs>
<clipPath id="clip0_769_20242">
<path d="M0 20C0 8.95431 8.95431 0 20 0C31.0457 0 40 8.95431 40 20C40 31.0457 31.0457 40 20 40C8.95431 40 0 31.0457 0 20Z" fill="white"/>
</clipPath>
<clipPath id="clip1_769_20242">
<rect width="53.3333" height="40" fill="white" transform="translate(-7 0.000244141)"/>
</clipPath>
</defs>
</svg>
