<svg width="40" height="40" viewBox="0 0 40 40" fill="none" xmlns="http://www.w3.org/2000/svg">
<g clip-path="url(#clip0_769_20632)">
<path d="M0 20C0 8.95431 8.95431 0 20 0C31.0457 0 40 8.95431 40 20C40 31.0457 31.0457 40 20 40C8.95431 40 0 31.0457 0 20Z" fill="#E94E0F"/>
<g clip-path="url(#clip1_769_20632)">
<path d="M0 -0.000610352H53.3333V39.9994H0V-0.000610352Z" fill="#CC0000"/>
<path d="M0.041748 3.3244H53.2917V6.5244H0.041748V3.3244Z" fill="white"/>
<path d="M0.041748 9.88272H53.2917V13.0827H0.041748V9.88272Z" fill="white"/>
<path d="M0.041748 16.4494H53.2917V19.6494H0.041748V16.4494Z" fill="white"/>
<path d="M0 0.0410461H26.6667V23.3744H0V0.0410461Z" fill="#000066"/>
<path d="M17.2917 6.14938L17.7917 9.54105L19.7084 6.70772L18.675 9.97438L21.6334 8.24105L19.2917 10.741L22.7084 10.4744L19.5167 11.7077L22.7084 12.941L19.2917 12.6744L21.6334 15.1744L18.675 13.441L19.7 16.716L17.7834 13.8744L17.2834 17.266L16.7917 13.8744L14.875 16.7077L15.9084 13.441L12.95 15.1744L15.2834 12.6744L11.8667 12.941L15.0667 11.7077L11.875 10.4744L15.2917 10.741L12.95 8.24105L15.9084 9.97438L14.875 6.69938L16.7917 9.54105L17.2917 6.14938ZM14.5167 6.29105C13.6147 5.89119 12.6271 5.72294 11.6435 5.80155C10.66 5.88016 9.71162 6.20316 8.88456 6.74122C8.0575 7.27927 7.3779 8.01536 6.90744 8.88267C6.43699 9.74997 6.19058 10.721 6.19058 11.7077C6.19058 12.6944 6.43699 13.6655 6.90744 14.5328C7.3779 15.4001 8.0575 16.1362 8.88456 16.6742C9.71162 17.2123 10.66 17.5353 11.6435 17.6139C12.6271 17.6925 13.6147 17.5242 14.5167 17.1244C13.5205 17.8392 12.3464 18.2654 11.1237 18.3561C9.90094 18.4468 8.67684 18.1986 7.58603 17.6387C6.49521 17.0788 5.57993 16.229 4.94085 15.1826C4.30176 14.1362 3.96362 12.9338 3.96362 11.7077C3.96362 10.4816 4.30176 9.27924 4.94085 8.23285C5.57993 7.18647 6.49521 6.33659 7.58603 5.7767C8.67684 5.21681 9.90094 4.96859 11.1237 5.05933C12.3464 5.15008 13.5205 5.57627 14.5167 6.29105Z" fill="#FFCC00"/>
<path d="M0.041748 23.0161H53.2917V26.2161H0.041748V23.0161Z" fill="white"/>
<path d="M0.041748 29.5327H53.2917V32.7327H0.041748V29.5327Z" fill="white"/>
<path d="M0 36.7994H53.25V39.9994H0V36.7994Z" fill="white"/>
</g>
</g>
<defs>
<clipPath id="clip0_769_20632">
<path d="M0 20C0 8.95431 8.95431 0 20 0C31.0457 0 40 8.95431 40 20C40 31.0457 31.0457 40 20 40C8.95431 40 0 31.0457 0 20Z" fill="white"/>
</clipPath>
<clipPath id="clip1_769_20632">
<rect width="53.3333" height="40" fill="white" transform="translate(0 -0.000610352)"/>
</clipPath>
</defs>
</svg>
