<svg width="40" height="40" viewBox="0 0 40 40" fill="none" xmlns="http://www.w3.org/2000/svg">
<g clip-path="url(#clip0_769_20233)">
<path d="M0 20C0 8.95431 8.95431 0 20 0C31.0457 0 40 8.95431 40 20C40 31.0457 31.0457 40 20 40C8.95431 40 0 31.0457 0 20Z" fill="#E94E0F"/>
<g clip-path="url(#clip1_769_20233)">
<path d="M-7 0.000244141H46.3333V40.0002H-7V0.000244141Z" fill="#D21034"/>
<path d="M3 10.0002H36.3333V30.0002H3V10.0002Z" fill="#007E3A"/>
<path d="M22.1667 26.6669C25.8486 26.6669 28.8333 23.6822 28.8333 20.0003C28.8333 16.3184 25.8486 13.3336 22.1667 13.3336C18.4848 13.3336 15.5 16.3184 15.5 20.0003C15.5 23.6822 18.4848 26.6669 22.1667 26.6669Z" fill="white"/>
<path d="M24.6667 26.6669C28.3486 26.6669 31.3333 23.6822 31.3333 20.0003C31.3333 16.3184 28.3486 13.3336 24.6667 13.3336C20.9848 13.3336 18 16.3184 18 20.0003C18 23.6822 20.9848 26.6669 24.6667 26.6669Z" fill="#007E3A"/>
</g>
</g>
<defs>
<clipPath id="clip0_769_20233">
<path d="M0 20C0 8.95431 8.95431 0 20 0C31.0457 0 40 8.95431 40 20C40 31.0457 31.0457 40 20 40C8.95431 40 0 31.0457 0 20Z" fill="white"/>
</clipPath>
<clipPath id="clip1_769_20233">
<rect width="53.3333" height="40" fill="white" transform="translate(-7 0.000244141)"/>
</clipPath>
</defs>
</svg>
