<svg width="40" height="40" viewBox="0 0 40 40" fill="none" xmlns="http://www.w3.org/2000/svg">
<g clip-path="url(#clip0_769_19954)">
<path d="M0 20C0 8.95431 8.95431 0 20 0C31.0457 0 40 8.95431 40 20C40 31.0457 31.0457 40 20 40C8.95431 40 0 31.0457 0 20Z" fill="#E94E0F"/>
<g clip-path="url(#clip1_769_19954)">
<path fill-rule="evenodd" clip-rule="evenodd" d="M28.4834 -0.000610352H46.3334V39.9994H28.4751L28.4834 -0.000610352Z" fill="#FF0000"/>
<path fill-rule="evenodd" clip-rule="evenodd" d="M-7 -0.000610352H10.7417V39.9994H-7V-0.000610352Z" fill="#009A00"/>
<path fill-rule="evenodd" clip-rule="evenodd" d="M10.7417 -0.000610352H28.575V39.9994H10.7417V-0.000610352Z" fill="#FFFF00"/>
</g>
</g>
<defs>
<clipPath id="clip0_769_19954">
<path d="M0 20C0 8.95431 8.95431 0 20 0C31.0457 0 40 8.95431 40 20C40 31.0457 31.0457 40 20 40C8.95431 40 0 31.0457 0 20Z" fill="white"/>
</clipPath>
<clipPath id="clip1_769_19954">
<rect width="53.3333" height="40" fill="white" transform="translate(-7 -0.000610352)"/>
</clipPath>
</defs>
</svg>
