<svg width="40" height="40" viewBox="0 0 40 40" fill="none" xmlns="http://www.w3.org/2000/svg">
<g clip-path="url(#clip0_769_20177)">
<path d="M0 20C0 8.95431 8.95431 0 20 0C31.0457 0 40 8.95431 40 20C40 31.0457 31.0457 40 20 40C8.95431 40 0 31.0457 0 20Z" fill="#E94E0F"/>
<g clip-path="url(#clip1_769_20177)">
<path fill-rule="evenodd" clip-rule="evenodd" d="M26.6667 0.000244141H53.3334V40.0002H26.6667V0.000244141Z" fill="#CE0000"/>
<path fill-rule="evenodd" clip-rule="evenodd" d="M0 0.000244141H26.6667V40.0002H0V0.000244141Z" fill="white"/>
<path fill-rule="evenodd" clip-rule="evenodd" d="M12.9279 11.821C12.9279 11.9409 12.808 12.0208 12.6615 12.0208C12.5016 12.0208 12.395 11.9409 12.395 11.8343C12.395 11.7277 12.5016 11.6345 12.6615 11.6345C12.808 11.6345 12.9279 11.7277 12.9279 11.8343V11.821Z" fill="#F1EEEE"/>
<path fill-rule="evenodd" clip-rule="evenodd" d="M4.38867 10.8885V15.8441H9.35765C9.35765 16.6701 10.1836 17.496 11.0095 17.496V22.4517H15.9785V17.496C16.8045 17.496 17.6304 16.6701 17.6304 15.8441H22.5861V10.8885H17.6171C17.6171 10.0625 16.7911 9.23657 15.9652 9.23657V4.28091H11.0095V9.23657C10.1703 9.23657 9.34433 10.0625 9.34433 10.8885H4.38867Z" fill="#CC0000"/>
<path fill-rule="evenodd" clip-rule="evenodd" d="M4.56177 11.0483V15.6843H9.51743C9.51743 16.5102 10.3434 17.3362 11.1693 17.3362V22.2918H15.7919V17.3495C16.6179 17.3495 17.4438 16.5236 17.4438 15.6976H22.4128V11.0617H17.4571C17.4571 10.2357 16.6312 9.40978 15.8053 9.40978V4.4408H11.1693V9.39646C10.3434 9.39646 9.51743 10.2224 9.51743 11.0483H4.56177Z" fill="#FFE600"/>
<path fill-rule="evenodd" clip-rule="evenodd" d="M4.72168 11.2215V15.5111H9.67734C9.67734 16.337 10.5033 17.163 11.3292 17.163V22.1187H15.6321V17.163C16.4581 17.163 17.284 16.337 17.284 15.5111H22.2397V11.2215H17.284C17.284 10.3956 16.4581 9.56964 15.6321 9.56964V4.61398H11.3292V9.55632C10.5033 9.55632 9.67734 10.3823 9.67734 11.2082H4.72168V11.2215Z" fill="#707070"/>
<path fill-rule="evenodd" clip-rule="evenodd" d="M4.89491 11.3814V15.3512H9.85057C9.85057 16.1772 10.6765 17.0031 11.5025 17.0031V21.9455H15.459V16.9898C16.2849 16.9898 17.1109 16.1639 17.1109 15.3379H22.0665V11.3681H17.1109C17.1109 10.5421 16.2849 9.71617 15.459 9.71617V4.77383H11.5025V9.72949C10.6765 9.72949 9.85057 10.5554 9.85057 11.3814H4.88159H4.89491Z" fill="#A0A0A0"/>
<path fill-rule="evenodd" clip-rule="evenodd" d="M11.5424 9.31653C11.8222 9.6096 11.5957 10.3157 11.0095 10.9018C10.4234 11.488 9.73066 11.7011 9.43758 11.4347C9.14451 11.1283 9.3843 10.4222 9.97045 9.83607C10.5566 9.24992 11.2493 9.03677 11.5424 9.31653Z" fill="#D0D0D0"/>
<path fill-rule="evenodd" clip-rule="evenodd" d="M11.1827 9.6629C11.4758 9.95597 11.3958 10.5022 11.0095 10.9018C10.6232 11.3015 10.077 11.3681 9.78391 11.075C9.49083 10.7819 9.57076 10.2357 9.95709 9.8494C10.3434 9.46307 10.8896 9.38314 11.1827 9.6629Z" fill="#808080"/>
<path fill-rule="evenodd" clip-rule="evenodd" d="M9.73047 10.5421L9.83704 10.4356L10.3033 10.662L10.0768 10.1958L10.1967 10.0759L10.663 11.0084L9.73047 10.5421ZM10.4232 9.8494L10.5564 9.71619L11.2491 10.4356L11.1292 10.5421L10.4232 9.8494Z" fill="#D0D0D0"/>
<path fill-rule="evenodd" clip-rule="evenodd" d="M17.5235 11.4214C17.2304 11.7145 16.5243 11.4747 15.9515 10.8885C15.3787 10.3024 15.1256 9.60963 15.4186 9.31655C15.7117 9.02347 16.4178 9.26326 17.0039 9.84942C17.5901 10.4356 17.8032 11.1283 17.5368 11.4214H17.5235Z" fill="#D0D0D0"/>
<path fill-rule="evenodd" clip-rule="evenodd" d="M17.1772 11.075C16.8841 11.3681 16.3379 11.2882 15.9516 10.9018C15.5653 10.5155 15.4853 9.96932 15.7651 9.67624C16.0582 9.38316 16.6177 9.46309 17.004 9.84942C17.3903 10.2358 17.4703 10.7819 17.1772 11.075Z" fill="#808080"/>
<path fill-rule="evenodd" clip-rule="evenodd" d="M16.2978 9.60962L16.4177 9.72951L16.1779 10.1958L16.6442 9.95598L16.7774 10.0892L15.8315 10.5421L16.2978 9.60962ZM17.0038 10.3157L17.1104 10.4222L16.4177 11.1283L16.2978 11.0084L17.0038 10.3157Z" fill="#D0D0D0"/>
<path fill-rule="evenodd" clip-rule="evenodd" d="M15.419 17.4161C15.126 17.123 15.3657 16.417 15.9519 15.8308C16.538 15.2447 17.2308 15.0182 17.5239 15.298C17.8169 15.591 17.5771 16.2971 16.991 16.8832C16.4048 17.4694 15.7121 17.6959 15.419 17.4161Z" fill="#D0D0D0"/>
<path fill-rule="evenodd" clip-rule="evenodd" d="M15.7785 17.0564C15.4855 16.7633 15.5654 16.2171 15.9517 15.8308C16.338 15.4445 16.8842 15.3645 17.1773 15.6576C17.4704 15.9507 17.3905 16.4969 17.0041 16.8832C16.6178 17.2695 16.0716 17.3495 15.7652 17.0564H15.7785Z" fill="#808080"/>
<path fill-rule="evenodd" clip-rule="evenodd" d="M17.2307 16.1772L17.1108 16.3104L16.6445 16.0706L16.8843 16.5368L16.7644 16.6434L16.2982 15.7109L17.2307 16.1772ZM16.5513 16.8832L16.4181 17.0031L15.7253 16.2971L15.8452 16.1772L16.5513 16.8832Z" fill="#D0D0D0"/>
<path fill-rule="evenodd" clip-rule="evenodd" d="M9.43777 15.3113C9.73084 15.0182 10.4369 15.258 11.0097 15.8308C11.5826 16.4036 11.8223 17.123 11.5426 17.4028C11.2495 17.6958 10.5435 17.4694 9.95731 16.8832C9.37116 16.2971 9.15801 15.591 9.42445 15.3113H9.43777Z" fill="#D0D0D0"/>
<path fill-rule="evenodd" clip-rule="evenodd" d="M9.78415 15.6576C10.0772 15.3645 10.6234 15.4445 11.0097 15.8308C11.3961 16.2171 11.476 16.7633 11.1829 17.0564C10.9032 17.3495 10.3437 17.2695 9.95733 16.8832C9.571 16.4969 9.49107 15.9507 9.78415 15.6576Z" fill="#808080"/>
<path fill-rule="evenodd" clip-rule="evenodd" d="M10.6635 17.123L10.5436 16.9898L10.7833 16.5369L10.3171 16.7633L10.1839 16.6434L11.1297 16.1772L10.6635 17.1097V17.123ZM9.9574 16.417L9.85083 16.2971L10.5436 15.6043L10.6635 15.7109L9.9574 16.417Z" fill="#D0D0D0"/>
<path d="M16.9611 13.3693C16.9611 15.2811 15.408 16.8386 13.4904 16.8386C11.5728 16.8386 10.0242 15.2858 10.0242 13.3693C10.0242 11.4528 11.5774 9.90005 13.4949 9.90005C15.4125 9.90005 16.9657 11.4528 16.9657 13.3693H16.9611Z" stroke="#707070" stroke-width="0.0460858"/>
<path d="M16.1188 13.3623C16.1188 14.8189 14.9354 16.0055 13.4744 16.0055C12.0134 16.0055 10.8335 14.8225 10.8335 13.3623C10.8335 11.9021 12.0169 10.719 13.4779 10.719C14.9389 10.719 16.1222 11.9021 16.1222 13.3623H16.1188Z" stroke="#707070" stroke-width="0.0351128"/>
<path fill-rule="evenodd" clip-rule="evenodd" d="M12.3284 16.1772C12.3284 16.2214 12.3109 16.2637 12.2796 16.2949C12.2484 16.3262 12.206 16.3437 12.1619 16.3437C12.1177 16.3437 12.0754 16.3262 12.0441 16.2949C12.0129 16.2637 11.9954 16.2214 11.9954 16.1772C11.9954 16.133 12.0129 16.0907 12.0441 16.0595C12.0754 16.0282 12.1177 16.0107 12.1619 16.0107C12.206 16.0107 12.2484 16.0282 12.2796 16.0595C12.3109 16.0907 12.3284 16.133 12.3284 16.1772ZM14.9661 16.1772C14.9661 16.2214 14.9485 16.2637 14.9173 16.2949C14.8861 16.3262 14.8437 16.3437 14.7996 16.3437C14.7554 16.3437 14.7131 16.3262 14.6818 16.2949C14.6506 16.2637 14.6331 16.2214 14.6331 16.1772C14.6331 16.133 14.6506 16.0907 14.6818 16.0595C14.7131 16.0282 14.7554 16.0107 14.7996 16.0107C14.8437 16.0107 14.8861 16.0282 14.9173 16.0595C14.9485 16.0907 14.9661 16.133 14.9661 16.1772ZM13.3675 16.1772V16.3504H13.1543C12.9279 16.3504 12.9279 16.5236 13.1543 16.5236H13.3675V16.6834C13.3675 16.8699 13.5673 16.8833 13.5806 16.6967V16.5102H13.8071C14.0336 16.5102 14.0336 16.3504 13.8071 16.3504H13.594V16.1772C13.594 16.004 13.3675 16.004 13.3675 16.1772Z" fill="#D0D0D0"/>
<path fill-rule="evenodd" clip-rule="evenodd" d="M12.6613 13.726V13.8326C12.6613 13.8326 12.608 13.8992 12.2749 13.9258C11.9419 13.9525 11.8886 13.9258 11.8886 13.9258C11.9019 14.0191 11.9685 14.179 11.9419 14.3655C11.9552 14.5919 11.8886 14.7918 11.8886 14.7918C11.8886 14.8051 11.8486 14.8184 11.782 14.8051C11.8353 14.7518 11.8353 14.6186 11.8353 14.4054C11.8353 14.2189 11.6355 13.9125 11.6755 13.8326C11.7154 13.7527 12.6613 13.726 12.6613 13.726ZM13.9668 13.3797L14.8327 13.3663C14.8327 13.3663 14.9659 13.6328 14.9526 13.766C14.9526 13.8992 14.8993 14.0324 14.846 13.9658C14.7794 13.8992 14.8727 13.9125 14.886 13.766C14.886 13.6061 14.7794 13.4596 14.7794 13.4596C14.7794 13.4596 14.5396 13.5528 14.1932 13.5395C13.8469 13.5129 14.0067 13.3797 13.9668 13.3797Z" fill="#D0D0D0" stroke="#707070" stroke-width="0.0133217"/>
<path fill-rule="evenodd" clip-rule="evenodd" d="M14.0733 13.6328C14.3931 13.6194 14.6062 13.6594 14.6062 13.6594C14.6062 13.6594 14.7394 13.9258 14.7394 14.0591C14.7261 14.1923 14.6861 14.3255 14.6195 14.2589C14.5662 14.2056 14.6462 14.2189 14.6595 14.0591C14.6595 13.9125 14.5529 13.7527 14.5529 13.7527C14.5529 13.7527 14.3264 13.8459 13.9801 13.8326C13.6337 13.8059 13.7403 13.7926 13.7003 13.7793C13.6604 13.7793 13.647 13.8859 13.1275 13.8992C12.5946 13.8992 12.3282 13.7793 12.3282 13.7793C12.3282 13.7793 12.2749 13.8592 11.9552 13.8859H11.5555C11.5689 13.9658 11.6355 14.1257 11.6221 14.3255C11.6221 14.5386 11.5555 14.7518 11.5555 14.7518H11.4623C11.5156 14.7118 11.5023 14.5653 11.5156 14.3654C11.5156 14.1656 11.3024 13.8725 11.3424 13.7793C11.3957 13.6994 11.6355 13.7793 11.6754 13.7393C11.7154 13.686 11.4623 13.3796 11.5156 13.0999C11.5555 12.8201 11.8353 12.9001 12.1683 12.9001C12.5014 12.9134 13.2341 13.0066 13.4206 12.9001C13.6071 12.8068 13.5271 12.4471 13.687 12.2207C13.7401 12.1559 13.8073 12.1042 13.8835 12.0695C13.9598 12.0349 14.0429 12.0182 14.1266 12.0208C14.2465 12.0208 14.3931 12.4205 14.3931 12.5137L14.3531 12.567H14.2998V12.607C14.1666 12.6203 14.1533 12.5004 14.0733 12.4205C14.0467 12.5537 14.1799 13.0066 14.1799 13.2997C14.1799 13.5395 14.0867 13.6461 14.0733 13.6328Z" fill="#D0D0D0" stroke="#707070" stroke-width="0.0133217"/>
<path fill-rule="evenodd" clip-rule="evenodd" d="M13.021 13.2065C13.021 13.2997 12.608 13.5262 12.568 13.6061C12.5414 13.6994 12.6746 13.7393 12.6346 13.7926C12.5947 13.8459 12.5547 13.8193 12.5414 13.8326L12.3815 13.4995C12.3815 13.4995 12.7812 13.313 12.7679 13.2331C12.7545 13.1532 12.4748 13.0999 12.4215 12.9134C12.3682 12.7269 12.3949 12.3406 12.3549 12.2606C12.3149 12.1807 11.822 12.1008 11.822 11.9942C11.822 11.861 12.3282 11.5413 12.3815 11.488C12.4348 11.4347 12.4881 11.5413 12.4348 11.5812C12.3815 11.6345 11.9952 11.9409 11.9952 11.9809C11.9952 12.0342 12.3149 12.0875 12.4215 12.0875C12.5414 12.0875 12.5947 12.0342 12.5947 11.9809C12.5947 11.9409 12.4748 11.9409 12.4748 11.8477C12.4748 11.7544 12.5414 11.6878 12.648 11.6878C12.7013 11.6878 12.8078 11.7544 12.8078 11.8343C12.8078 11.9143 12.7146 11.9276 12.7013 11.9809C12.6879 12.0475 12.8078 12.0875 12.9144 12.0875C13.021 12.0875 13.394 12.3672 13.4473 12.4205C13.5139 12.4605 13.5672 12.4605 13.5139 12.5137C13.4606 12.567 13.4872 12.6203 13.4339 12.567C13.408 12.5414 13.3896 12.5091 13.3807 12.4738C13.3807 12.4338 12.981 12.234 12.9144 12.274C12.8611 12.3272 12.9144 12.9134 12.9144 12.9667C12.9144 13.0599 13.0343 13.0599 13.021 13.2065Z" fill="#D0D0D0" stroke="#707070" stroke-width="0.0133217"/>
<path fill-rule="evenodd" clip-rule="evenodd" d="M12.3284 12.0741H12.9945V12.7535H12.3284V12.0741Z" fill="#A7A7A7"/>
<path d="M14.4475 14.5258L12.2613 11.2442C12.2409 11.2136 12.2138 11.1944 12.2009 11.2013C12.1879 11.2082 12.1939 11.2386 12.2143 11.2693L14.4005 14.5509C14.4209 14.5815 14.4479 14.6007 14.4609 14.5938C14.4739 14.5869 14.4679 14.5565 14.4475 14.5258Z" fill="#808080"/>
<path fill-rule="evenodd" clip-rule="evenodd" d="M12.5007 11.5408C12.5007 11.5668 12.4892 11.5916 12.4687 11.61C12.4482 11.6283 12.4204 11.6387 12.3913 11.6387C12.3623 11.6387 12.3345 11.6283 12.314 11.61C12.2935 11.5916 12.282 11.5668 12.282 11.5408C12.282 11.5149 12.2935 11.49 12.314 11.4716C12.3345 11.4533 12.3623 11.443 12.3913 11.443C12.4204 11.443 12.4482 11.4533 12.4687 11.4716C12.4892 11.49 12.5007 11.5149 12.5007 11.5408Z" fill="#D0D0D0" stroke="#707070" stroke-width="0.01457"/>
<path fill-rule="evenodd" clip-rule="evenodd" d="M14.4066 12.4205C14.4066 12.4604 14.1402 12.5137 13.8604 12.5137C13.5673 12.5137 13.3142 12.4604 13.3142 12.4205C13.3142 12.3805 13.5673 12.4871 13.8471 12.4871C14.1535 12.4871 14.4066 12.3805 14.4066 12.4205Z" fill="#808080"/>
<path fill-rule="evenodd" clip-rule="evenodd" d="M12.3816 12.7535H12.9278V12.9534H12.3949L12.3816 12.7535Z" fill="#A7A7A7"/>
<path fill-rule="evenodd" clip-rule="evenodd" d="M14.1534 12.274C14.1002 12.3805 14.0602 12.4471 14.0469 12.4338C14.0469 12.4338 14.0735 12.3272 14.1268 12.234L14.2334 12.0741C14.2467 12.0874 14.2067 12.1807 14.1534 12.274ZM14.2867 12.5404L14.1801 12.607C14.2077 12.5606 14.2439 12.52 14.2867 12.4871C14.3533 12.4338 14.4066 12.4072 14.4066 12.4205L14.3 12.5271L14.2867 12.5404Z" fill="#808080"/>
<path fill-rule="evenodd" clip-rule="evenodd" d="M14.2334 12.4072L14.3 12.567L14.1934 12.4338L14.1268 12.274L14.2334 12.4072ZM14.1801 12.8335C14.1801 12.8335 14.0203 12.8601 13.8071 12.8601C13.594 12.8601 13.4208 12.8468 13.4208 12.8335L13.8071 12.8068C14.0203 12.8068 14.1801 12.8068 14.1801 12.8335ZM12.9279 12.7802C12.9279 12.7935 12.808 12.8068 12.6615 12.8068C12.5016 12.8068 12.395 12.8068 12.395 12.7802C12.395 12.7802 12.5016 12.7535 12.6615 12.7535C12.808 12.7535 12.9279 12.7669 12.9279 12.7802Z" fill="#808080"/>
<path fill-rule="evenodd" clip-rule="evenodd" d="M11.7288 14.4853C11.7288 14.4853 11.822 14.6985 12.2083 14.6985C12.5813 14.6985 12.7146 14.6319 12.568 14.5253C12.4215 14.4187 12.1151 14.4454 12.1684 14.5386C12.195 14.6452 12.0485 14.6718 12.0218 14.6052C11.9819 14.5386 11.8487 14.3255 12.0884 14.3122C12.3416 14.2988 12.8611 14.2189 12.9943 14.3654C13.1275 14.512 12.8478 14.6319 13.0609 14.6718C13.2608 14.6985 13.3007 14.6319 13.6604 14.6185C14.0201 14.5919 14.1666 14.6852 14.2865 14.6718C14.4197 14.6718 14.3931 14.4454 14.2865 14.4054C14.1933 14.3388 14.0068 14.3255 13.9535 14.2722C13.9135 14.2056 13.7803 14.2722 13.7936 14.1923C13.7936 14.1256 13.9801 14.2322 13.9801 14.2056L14.0068 14.1789H13.9668L13.9801 14.1523L13.9535 14.1656L13.9668 14.139C13.9668 14.139 13.9268 14.1656 13.9268 14.139H13.9002C13.9268 14.1123 13.9135 14.1123 13.9002 14.099H13.8602V14.059C13.8336 14.059 13.8336 14.059 13.8203 14.0857V14.0191C13.8203 14.0058 13.8469 13.9924 13.8869 13.9924C13.9801 13.9924 14.0201 14.099 14.0601 14.099C14.0867 14.099 14.1267 13.9924 14.2466 14.0324L14.4464 14.1123C14.513 14.1523 14.4064 14.1923 14.4464 14.2455C14.4863 14.2988 14.7261 14.472 14.6595 14.6718C14.5929 14.8583 14.3931 14.885 14.3931 14.9649C14.3664 15.0448 14.9659 15.0182 15.1125 15.0448C15.2144 15.0633 15.3051 15.1206 15.3656 15.2047L15.0991 15.218C15.0991 15.218 14.9659 15.1514 14.6329 15.1381C14.2998 15.1381 14.1799 15.0049 14.0467 14.9782L13.5139 15.0049L13.1142 14.9649C13.0343 14.9516 12.5547 15.1781 12.5547 15.2313H12.235C12.235 15.2313 12.2749 15.1115 12.4615 15.0981C12.6346 15.0715 12.8211 14.9916 12.8078 14.9383L12.8611 14.5919C12.8611 14.512 12.941 14.4587 12.9277 14.432C12.9144 14.3788 12.7012 14.3388 12.5014 14.3388C12.3016 14.3388 12.0884 14.3521 12.0485 14.3921C12.0218 14.4454 12.0485 14.5919 12.0884 14.5653C12.1284 14.5653 12.0751 14.4587 12.1151 14.4454C12.2014 14.4188 12.2912 14.4054 12.3815 14.4054C12.4881 14.4054 12.6613 14.4987 12.6613 14.5386C12.6613 14.5519 12.7146 14.6452 12.6346 14.6852C12.5017 14.7292 12.3615 14.7473 12.2217 14.7384C12.0825 14.7312 11.9463 14.6949 11.822 14.6319C11.7687 14.5919 11.7288 14.4987 11.7288 14.4853Z" fill="#D0D0D0" stroke="#808080" stroke-width="0.0133217"/>
<path fill-rule="evenodd" clip-rule="evenodd" d="M14.1534 14.1523C14.1534 14.1575 14.1524 14.1627 14.1504 14.1676C14.1484 14.1724 14.1454 14.1768 14.1417 14.1806C14.138 14.1843 14.1336 14.1872 14.1287 14.1892C14.1239 14.1912 14.1187 14.1923 14.1135 14.1923C14.1082 14.1923 14.103 14.1912 14.0982 14.1892C14.0933 14.1872 14.0889 14.1843 14.0852 14.1806C14.0815 14.1768 14.0785 14.1724 14.0765 14.1676C14.0745 14.1627 14.0735 14.1575 14.0735 14.1523C14.0735 14.1417 14.0777 14.1315 14.0852 14.124C14.0927 14.1165 14.1029 14.1123 14.1135 14.1123C14.1241 14.1123 14.1342 14.1165 14.1417 14.124C14.1492 14.1315 14.1534 14.1417 14.1534 14.1523Z" fill="black"/>
<path d="M16.2181 13.5262L16.4312 13.5662L16.7909 13.3264L16.7643 13.4596L16.5778 13.5795L16.4712 13.6328L16.5378 13.7393L16.6577 13.9258L16.6311 14.0591L16.4046 13.6727L16.1915 13.6328L16.2181 13.5262ZM15.8584 11.9542L16.2581 11.7677L16.1515 11.5279L16.2048 11.5013L16.4712 12.0875L16.4312 12.1141L16.3113 11.861L15.9117 12.0608L15.8584 11.9542ZM15.219 11.1816L15.592 10.8352L15.6719 10.9152V11.5013L15.965 11.2349L16.0316 11.3148L15.6586 11.6612L15.5787 11.5812V10.9951L15.2856 11.2615L15.219 11.1816ZM13.5671 10.5155L13.6337 10.0093H13.7403L13.6737 10.4755L14.0733 10.5155V10.5821L13.5671 10.5155ZM12.7545 10.5954L12.6612 10.0892L12.7678 10.0626L12.8477 10.5155L13.2474 10.4356V10.5022L12.7545 10.5954ZM11.2491 11.3281L11.2092 11.2882L11.4756 11.075L11.6088 11.2082C11.5802 11.2658 11.5444 11.3195 11.5022 11.3681C11.4677 11.4171 11.4274 11.4618 11.3823 11.5013C11.3261 11.5463 11.2632 11.5823 11.1958 11.6079C11.1292 11.6212 11.0626 11.6345 11.0226 11.6079C10.9717 11.6024 10.9244 11.5788 10.8894 11.5413C10.8625 11.5022 10.8485 11.4556 10.8495 11.4081C10.8495 11.3548 10.8628 11.2882 10.9028 11.2349C10.9294 11.1816 10.9827 11.1283 11.036 11.0883C11.0803 11.0507 11.1296 11.0194 11.1825 10.9951L11.3024 10.9684C11.329 10.9684 11.369 10.9684 11.3957 10.9951L11.3424 11.0617C11.3172 11.051 11.2898 11.0464 11.2624 11.0484L11.1825 11.0617C11.1486 11.0796 11.1172 11.102 11.0893 11.1283C11.0493 11.1549 11.0093 11.1816 10.996 11.2215C10.9735 11.2447 10.9555 11.2718 10.9427 11.3015V11.3681C10.9427 11.4081 10.956 11.448 10.9827 11.4747L11.0759 11.5413L11.2092 11.5279C11.3317 11.4762 11.4312 11.3814 11.4889 11.2615L11.4356 11.1816L11.2491 11.3281ZM11.2358 15.0182L10.8095 15.3246L10.4898 14.8717L10.5431 14.8317L10.8095 15.1914L10.9294 15.0982L10.7162 14.7918L10.7562 14.7651L10.9827 15.0715L11.1692 14.9383L11.2358 15.0182ZM10.6097 14.3521C10.6763 14.3388 10.7162 14.2989 10.7429 14.2322V14.0324C10.7219 13.9636 10.68 13.9031 10.623 13.8592C10.583 13.8193 10.5164 13.806 10.4631 13.8193C10.421 13.8285 10.3833 13.852 10.3566 13.8859C10.3432 13.9125 10.3166 13.9525 10.3166 13.9925L10.3299 14.139C10.3566 14.2189 10.3832 14.2722 10.4365 14.3255C10.4765 14.3655 10.5431 14.3788 10.6097 14.3521ZM10.6496 14.4587C10.6106 14.4711 10.5689 14.4728 10.529 14.4634C10.4892 14.454 10.4526 14.434 10.4232 14.4054C10.3521 14.3414 10.3012 14.2581 10.2766 14.1656C10.25 14.0857 10.25 14.0324 10.25 13.9525C10.25 13.8726 10.2766 13.8459 10.3033 13.806C10.3336 13.7585 10.3815 13.725 10.4365 13.7127C10.4812 13.7027 10.5279 13.7074 10.5697 13.726C10.623 13.7527 10.663 13.7793 10.7029 13.8326C10.7847 13.9489 10.8225 14.0906 10.8095 14.2322C10.8047 14.2849 10.7863 14.3353 10.7562 14.3788C10.7296 14.4187 10.6896 14.4454 10.6496 14.4587ZM10.6896 13.4196H10.1567V13.0466L10.1834 12.8868L10.2367 12.7935C10.2475 12.7839 10.2601 12.7765 10.2739 12.7719C10.2876 12.7674 10.3022 12.7656 10.3166 12.7669C10.3566 12.7669 10.3832 12.7802 10.4099 12.8201C10.4232 12.8601 10.4498 12.9134 10.4498 12.9933C10.4674 12.9371 10.4996 12.8865 10.5431 12.8468L10.6896 12.7136V12.8468L10.583 12.94L10.5031 13.02C10.4872 13.0357 10.4738 13.0536 10.4631 13.0733C10.4609 13.091 10.4609 13.1089 10.4631 13.1265V13.1798L10.4498 13.3131H10.6896V13.4196ZM10.3965 13.2997V13.0733C10.401 13.0334 10.401 12.9932 10.3965 12.9534C10.3918 12.9338 10.3827 12.9156 10.3699 12.9001C10.3603 12.8865 10.3461 12.877 10.3299 12.8734C10.3033 12.8734 10.2766 12.8868 10.2633 12.9134L10.2367 13.0466V13.3131H10.4099L10.3965 13.2997ZM11.8219 11.0484V10.4489L11.9285 10.3823L12.4747 10.6487L12.3681 10.7153L12.2083 10.6354L11.9285 10.8086V10.9951L11.8219 11.0484ZM11.9152 10.742L12.155 10.6088L12.0218 10.5288C11.9805 10.5091 11.9404 10.4869 11.9019 10.4622L11.9152 10.5688V10.742ZM14.393 10.5821L14.9525 10.3556L15.0458 10.4222L15.0058 11.035L14.9126 10.9551L14.9259 10.7819L14.6595 10.5821L14.4863 10.6487L14.393 10.5821ZM14.7127 10.5555L14.9392 10.7153V10.5555C14.9454 10.5106 14.9543 10.4661 14.9659 10.4222C14.9375 10.448 14.9062 10.4704 14.8726 10.4889L14.7127 10.5555ZM16.0849 12.4605L16.5911 12.3406L16.671 12.7003L16.6977 12.8601L16.671 12.9534C16.6642 12.9664 16.6548 12.9778 16.6433 12.987C16.6318 12.9961 16.6186 13.0028 16.6044 13.0067C16.5645 13.0067 16.5245 13.0067 16.4979 12.98C16.4538 12.9354 16.4218 12.8804 16.4046 12.8201C16.4068 12.8423 16.4068 12.8646 16.4046 12.8868L16.3513 12.9933L16.2447 13.1532L16.2181 13.02L16.298 12.8868L16.3513 12.8068C16.3694 12.7742 16.3785 12.7375 16.378 12.7003C16.3751 12.6778 16.3706 12.6555 16.3646 12.6336L16.338 12.5138L16.1115 12.567L16.0849 12.4605ZM16.3913 12.5004L16.4446 12.7269C16.4446 12.7669 16.4712 12.8068 16.4845 12.8335C16.4845 12.8601 16.5112 12.8734 16.5245 12.8868L16.5778 12.9001C16.5911 12.9001 16.6177 12.8734 16.6177 12.8468C16.6285 12.803 16.6285 12.7573 16.6177 12.7136L16.5511 12.4605L16.3913 12.5004Z" fill="#D0D0D0"/>
</g>
</g>
<defs>
<clipPath id="clip0_769_20177">
<path d="M0 20C0 8.95431 8.95431 0 20 0C31.0457 0 40 8.95431 40 20C40 31.0457 31.0457 40 20 40C8.95431 40 0 31.0457 0 20Z" fill="white"/>
</clipPath>
<clipPath id="clip1_769_20177">
<rect width="53.3333" height="40" fill="white" transform="translate(0 0.000244141)"/>
</clipPath>
</defs>
</svg>
