<svg width="40" height="40" viewBox="0 0 40 40" fill="none" xmlns="http://www.w3.org/2000/svg">
<g clip-path="url(#clip0_769_19935)">
<path d="M0 20C0 8.95431 8.95431 0 20 0C31.0457 0 40 8.95431 40 20C40 31.0457 31.0457 40 20 40C8.95431 40 0 31.0457 0 20Z" fill="#E94E0F"/>
<g clip-path="url(#clip1_769_19935)">
<path fill-rule="evenodd" clip-rule="evenodd" d="M-7 0.000488281H46.325V40.0005H-7V0.000488281Z" fill="#3B5AA3"/>
<path fill-rule="evenodd" clip-rule="evenodd" d="M-7 38.9172L46.325 0.000488281V7.25049L-7 40.0005V38.9172Z" fill="#E2AE57"/>
<path fill-rule="evenodd" clip-rule="evenodd" d="M-5.13333 40.0005L46.3333 14.9338L46.325 6.97548L-7 40.0005H-5.13333ZM7.61666 1.26715L7.08333 9.83382L4.83333 4.36715L5.7 10.1838L2.20833 5.48382L4.5 10.8422L-0.083334 7.29215L3.48333 11.7588L-1.69167 9.45882L2.84167 12.8922L-2.8 12.1422L2.53333 14.2588L-5.83333 15.0255L2.55 15.5838L-2.75833 17.7672L2.825 17.0172L-1.7 20.3505L3.55 18.0505L-0.0333338 22.5505L4.51667 19.1088L2.26667 24.3505L5.9 19.7922L4.91667 25.4672L7.20833 20.1588L7.725 28.5505L8.53333 20.1838L10.5083 25.5172L9.75833 19.7672L13.375 24.3338L10.9917 19.0005L15.5417 22.6672L11.925 18.0922L17.3333 20.3422L12.55 16.8505L18.375 17.8338L12.7917 15.6922L21.4667 15.1505L12.8 14.3422L18.5083 12.4422L12.5917 13.1922L17.475 9.77549L11.975 11.9838L15.775 7.37548L11.1417 10.9922L13.3667 5.45882L9.775 10.1588L10.55 4.29215L8.40833 9.83382L7.60833 1.26715H7.61666Z" fill="white"/>
</g>
</g>
<defs>
<clipPath id="clip0_769_19935">
<path d="M0 20C0 8.95431 8.95431 0 20 0C31.0457 0 40 8.95431 40 20C40 31.0457 31.0457 40 20 40C8.95431 40 0 31.0457 0 20Z" fill="white"/>
</clipPath>
<clipPath id="clip1_769_19935">
<rect width="53.3333" height="40" fill="white" transform="translate(-7 0.000488281)"/>
</clipPath>
</defs>
</svg>
