<svg width="40" height="40" viewBox="0 0 40 40" fill="none" xmlns="http://www.w3.org/2000/svg">
<g clip-path="url(#clip0_769_20091)">
<path d="M0 20C0 8.95431 8.95431 0 20 0C31.0457 0 40 8.95431 40 20C40 31.0457 31.0457 40 20 40C8.95431 40 0 31.0457 0 20Z" fill="#E94E0F"/>
<g clip-path="url(#clip1_769_20091)">
<path d="M-7 0.000244141H46.3333V40.0002H-7V0.000244141Z" fill="#CD2A3E"/>
<path d="M-7 6.00024H46.3333V34.0002H-7V6.00024Z" fill="#006233"/>
<path d="M32.1667 12.8836C32.1667 16.1988 30.8497 19.3782 28.5055 21.7224C26.1613 24.0666 22.9819 25.3836 19.6667 25.3836C16.3515 25.3836 13.172 24.0666 10.8278 21.7224C8.48363 19.3782 7.16667 16.1988 7.16667 12.8836C6.88889 13.9502 6.74886 15.048 6.75001 16.1502C6.75001 19.576 8.11087 22.8614 10.5332 25.2837C12.9556 27.706 16.241 29.0669 19.6667 29.0669C23.0924 29.0669 26.3778 27.706 28.8001 25.2837C31.2225 22.8614 32.5833 19.576 32.5833 16.1502C32.5849 15.048 32.4449 13.9501 32.1667 12.8836Z" fill="#FFC400"/>
<path d="M19.6667 7.81689L18.5417 11.2752H14.9167L17.8584 13.4086L16.7334 16.8586L19.6751 14.7252L22.6167 16.8586L21.4917 13.4086L24.4334 11.2752H20.8001L19.6667 7.81689Z" fill="#FFC400"/>
</g>
</g>
<defs>
<clipPath id="clip0_769_20091">
<path d="M0 20C0 8.95431 8.95431 0 20 0C31.0457 0 40 8.95431 40 20C40 31.0457 31.0457 40 20 40C8.95431 40 0 31.0457 0 20Z" fill="white"/>
</clipPath>
<clipPath id="clip1_769_20091">
<rect width="53.3333" height="40" fill="white" transform="translate(-7 0.000244141)"/>
</clipPath>
</defs>
</svg>
