<svg width="40" height="40" viewBox="0 0 40 40" fill="none" xmlns="http://www.w3.org/2000/svg">
<g clip-path="url(#clip0_769_19732)">
<path d="M0 20C0 8.95431 8.95431 0 20 0C31.0457 0 40 8.95431 40 20C40 31.0457 31.0457 40 20 40C8.95431 40 0 31.0457 0 20Z" fill="#E94E0F"/>
<g clip-path="url(#clip1_769_19732)">
<path fill-rule="evenodd" clip-rule="evenodd" d="M-7 0.000488281H10.775V40.0005H-7V0.000488281Z" fill="#00319C"/>
<path fill-rule="evenodd" clip-rule="evenodd" d="M10.7749 0.000488281H28.5582V40.0005H10.7749V0.000488281Z" fill="#FFDE00"/>
<path fill-rule="evenodd" clip-rule="evenodd" d="M28.5583 0.000488281H46.3333V40.0005H28.5583V0.000488281Z" fill="#DE2110"/>
<path fill-rule="evenodd" clip-rule="evenodd" d="M23.0332 26.7005L25.0499 29.6172C25.1665 29.7838 25.2749 29.9422 25.1082 30.0505C24.9415 30.1588 24.9915 30.5838 25.1082 30.7505C25.3332 31.0755 25.6082 31.1255 25.7749 31.0172L27.3082 30.0505C27.4749 29.9505 27.5332 29.6755 27.3082 29.3505C27.1832 29.1838 26.8082 28.9755 26.6415 29.0838C26.4665 29.1922 26.3499 29.0255 26.2415 28.8672L24.2165 25.9505" fill="#FF1900"/>
<path d="M23.0332 26.7005L25.0499 29.6172C25.1665 29.7838 25.2749 29.9422 25.1082 30.0505C24.9415 30.1588 24.9915 30.5838 25.1082 30.7505C25.3332 31.0755 25.6082 31.1255 25.7749 31.0172L27.3082 30.0505C27.4749 29.9505 27.5332 29.6755 27.3082 29.3505C27.1832 29.1838 26.8082 28.9755 26.6415 29.0838C26.4665 29.1922 26.3499 29.0255 26.2415 28.8672L24.2165 25.9505" stroke="black" stroke-width="0.0583333"/>
<path fill-rule="evenodd" clip-rule="evenodd" d="M23.8248 24.6446C24.7268 25.6691 25.0405 26.8438 24.5264 27.2571C24.0124 27.6703 22.8549 27.1738 21.953 26.1493C21.051 25.1248 20.7416 23.9466 21.2557 23.5334C21.7698 23.1201 22.9236 23.6124 23.8292 24.6411L23.8248 24.6446Z" fill="#A77B3B" stroke="black" stroke-width="0.140397"/>
<path fill-rule="evenodd" clip-rule="evenodd" d="M14.8334 25.5088L13.0418 28.5672C12.9418 28.7338 12.8418 28.9005 12.6668 28.8172C12.4918 28.7172 12.1168 28.9588 12.0168 29.1338C11.8168 29.4672 11.8918 29.7338 12.0751 29.8338L13.6751 30.6838C13.8418 30.7755 14.1251 30.7005 14.3251 30.3672C14.4168 30.1838 14.4418 29.7588 14.2668 29.6672C14.0918 29.5755 14.1834 29.4005 14.2918 29.2338L16.0751 26.1755" fill="#FF1900"/>
<path d="M14.8334 25.5088L13.0418 28.5672C12.9418 28.7338 12.8418 28.9005 12.6668 28.8172C12.4918 28.7172 12.1168 28.9588 12.0168 29.1338C11.8168 29.4672 11.8918 29.7338 12.0751 29.8338L13.6751 30.6838C13.8418 30.7755 14.1251 30.7005 14.3251 30.3672C14.4168 30.1838 14.4418 29.7588 14.2668 29.6672C14.0918 29.5755 14.1834 29.4005 14.2918 29.2338L16.0751 26.1755" stroke="black" stroke-width="0.0583333"/>
<path fill-rule="evenodd" clip-rule="evenodd" d="M20.6 23.3838H18.9667C18.9167 23.4338 18.45 26.3505 17.95 27.4672C17.3417 28.8255 15.5167 30.0255 15.5167 30.0255C15.5167 30.0255 16.6084 30.3588 16.9334 30.5755C17.0167 30.5505 18.7667 30.1838 18.9667 28.0505C19.1667 30.1838 17.75 31.1588 17.75 31.1588C17.75 31.1588 19.7834 31.7422 19.7834 33.1005C19.7834 31.7422 21.8167 31.1588 21.8167 31.1588C21.8167 31.1588 20.8 30.1838 20.5917 28.0505C21.0084 30.1838 22.55 30.5505 22.6334 30.5755C22.9584 30.3588 24.05 30.0255 24.05 30.0255C24.05 30.0255 22.225 28.8255 21.6167 27.4672C21.1167 26.3505 20.65 23.4338 20.6 23.3838ZM13.6834 13.6588L16.7334 14.6338C17.7417 14.6338 18.7667 13.6588 18.7667 12.6838C18.8 10.5172 17.95 9.76715 17.75 9.76715L18.15 9.38382L17.5417 8.80048C17.5417 8.80048 17.75 7.79215 19.7834 7.82549C21.8167 7.86715 21.8167 8.80048 21.8167 9.76715C21.8167 10.7338 20.8 10.7422 20.8 12.6838C20.8 13.6588 21.8167 14.6338 22.8334 14.6338L25.8834 13.6588V23.3838H13.675V13.6588H13.6834Z" fill="#A77B3B" stroke="black" stroke-width="0.141667"/>
<path d="M18.3569 14.048L18.5598 14.6327L18.764 14.048L18.9669 14.6327L19.3739 14.048L19.5726 14.6639L19.781 14.048L20.0811 14.6639L20.3909 14.048L20.5938 14.6327L20.798 14.048" stroke="black" stroke-width="0.0116354"/>
<path d="M20.5971 11.9125L20.7981 14.0524M19.1731 11.9125L18.7654 14.0524L19.1731 11.9125ZM19.374 11.9125V14.0524V11.9125ZM19.7817 11.9125V14.0524V11.9125ZM20.1894 11.9125L20.3904 14.0524L20.1894 11.9125Z" stroke="black" stroke-width="0.0112261"/>
<path fill-rule="evenodd" clip-rule="evenodd" d="M11.6383 7.83022C9.60563 8.8014 9.60563 10.7493 9.60563 11.7204C9.67454 12.6038 9.60563 31.1606 9.60563 31.1606C9.60563 31.1606 9.7377 30.0632 10.622 29.2182L11.6326 28.247L12.6489 27.2758C13.3954 26.6284 13.6653 25.328 13.6653 24.3568V10.7493C13.6653 10.7493 13.6653 9.77258 11.6326 7.83022H11.6383Z" fill="#A77B3B" stroke="black" stroke-width="0.140326"/>
<path d="M13.6711 11.7204C13.6482 11.7204 12.6548 10.7492 12.6548 10.7492L11.6384 11.7204L10.6221 10.7492L9.60575 11.7204" stroke="black" stroke-width="0.140326"/>
<path d="M13.6711 12.6889C13.6482 12.6889 12.6548 13.6601 12.6548 13.6601L11.6384 12.6889L10.6221 13.6601L9.60575 12.6889" stroke="black" stroke-width="0.140326"/>
<path d="M13.6711 15.6037C13.6482 15.6037 12.6548 14.6326 12.6548 14.6326L11.6384 15.6037L10.6221 14.6326L9.60575 15.6037" stroke="black" stroke-width="0.140326"/>
<path d="M12.6433 10.7467L12.6548 27.2766" stroke="black" stroke-width="0.193279"/>
<path d="M11.6433 11.7184L11.6548 28.208" stroke="black" stroke-width="0.183108"/>
<path d="M10.6267 10.7511L10.6382 29.2233" stroke="black" stroke-width="0.193804"/>
<path fill-rule="evenodd" clip-rule="evenodd" d="M27.9198 7.8302C29.9525 8.80138 29.9525 10.7492 29.9525 11.7204C29.8836 12.6038 29.9525 31.1606 29.9525 31.1606C29.9525 31.1606 29.8204 30.0632 28.9361 29.2182L27.9255 28.247L26.9092 27.2758C26.1627 26.6284 25.8928 25.328 25.8928 24.3568V10.7492C25.8928 10.7492 25.8928 9.77257 27.9255 7.8302H27.9198Z" fill="#A77B3B" stroke="black" stroke-width="0.140326"/>
<path d="M25.8872 11.7204C25.9102 11.7204 26.9036 10.7492 26.9036 10.7492L27.9199 11.7204L28.9363 10.7492L29.9526 11.7204" stroke="black" stroke-width="0.140326"/>
<path d="M25.8872 12.6889C25.9102 12.6889 26.9036 13.6601 26.9036 13.6601L27.9199 12.6889L28.9363 13.6601L29.9526 12.6889" stroke="black" stroke-width="0.140326"/>
<path d="M25.8872 15.6037C25.9102 15.6037 26.9036 14.6325 26.9036 14.6325L27.9199 15.6037L28.9363 14.6325L29.9526 15.6037" stroke="black" stroke-width="0.140326"/>
<path d="M26.915 10.7467L26.9036 27.2766" stroke="black" stroke-width="0.193279"/>
<path d="M27.9233 11.7184L27.9119 28.208" stroke="black" stroke-width="0.183108"/>
<path d="M28.9399 10.7511L28.9285 29.2232" stroke="black" stroke-width="0.193804"/>
<path fill-rule="evenodd" clip-rule="evenodd" d="M17.1063 25.2396C16.5674 26.4754 15.6191 27.2807 14.9989 27.0338C14.3788 26.7869 14.3094 25.5765 14.8483 24.3406C15.3872 23.1048 16.3408 22.3016 16.9609 22.5485C17.5811 22.7954 17.6527 24.0008 17.1116 25.2417L17.1063 25.2396Z" fill="#A77B3B" stroke="black" stroke-width="0.140363"/>
<path fill-rule="evenodd" clip-rule="evenodd" d="M13.675 14.6338H25.8834V20.4672H13.675V14.6338Z" fill="#FF0000"/>
<path fill-rule="evenodd" clip-rule="evenodd" d="M13.6751 20.4672H25.8834V23.3838C25.8834 25.3255 22.8334 25.3255 19.7834 27.2672C16.7251 25.3338 13.6667 25.3338 13.6667 23.3838V20.4672H13.6751Z" fill="#564DFF"/>
<path d="M13.6777 14.634H25.8854V23.3911C25.8854 25.3335 22.8364 25.3335 19.7816 27.2813C16.7325 25.3335 13.6777 25.3335 13.6777 23.3856V14.6395V14.634Z" stroke="#FFFF00" stroke-width="0.112261"/>
<path fill-rule="evenodd" clip-rule="evenodd" d="M17.5409 15.0222C17.5409 15.0222 15.5071 16.4522 15.5071 17.8202C15.5071 19.1883 17.6414 19.6469 17.6414 19.6469C17.6414 19.6469 16.93 19.6469 16.93 21.471C16.93 22.3856 19.0643 21.9296 19.0643 22.3856C19.0643 22.8417 19.0362 23.9444 19.0643 24.6684C19.0643 25.1244 17.6414 24.6684 17.6414 25.1244C17.6414 25.3511 18.7106 26.4925 19.7798 26.4925C20.849 26.4925 21.9142 25.3511 21.9142 25.1244C21.9142 24.6684 20.4913 25.1244 20.4913 24.6684V22.3856C20.4913 21.9296 22.6256 22.3856 22.6256 21.471C22.6256 19.6469 21.9142 19.6469 21.9142 19.6469C21.9142 19.6469 24.0525 19.1909 24.0525 17.8202C24.0525 16.4496 22.0147 15.0222 22.0147 15.0222C22.0147 15.0222 23.1602 16.9082 23.1602 17.8202C23.1602 18.2763 22.6256 19.1909 21.2027 19.1909C21.2027 19.1909 20.841 18.7323 20.4913 19.1909C20.4913 19.1909 20.0813 18.7323 19.7798 19.1909C19.6753 19.3455 19.4904 18.7323 19.0643 19.1909C18.8875 19.312 18.7428 18.7323 18.3529 19.1909C17.6414 19.1909 16.2185 18.7323 16.2185 17.8202C16.2185 16.9082 17.5409 15.0222 17.5409 15.0222Z" fill="#FFFF00" stroke="black" stroke-width="0.0804515"/>
<path fill-rule="evenodd" clip-rule="evenodd" d="M17.5826 23.19C17.4379 23.2828 17.7675 24.7693 17.8639 24.8338C18.0086 24.9239 18.8648 24.9239 19.0055 24.8338C19.106 24.7693 19.0055 23.3729 18.8648 23.2828C18.7201 23.19 17.6831 23.1282 17.5786 23.19H17.5826Z" fill="#FFFF00" stroke="black" stroke-width="0.0804515"/>
<path fill-rule="evenodd" clip-rule="evenodd" d="M21.9841 23.19C22.1288 23.2828 21.7992 24.7693 21.7027 24.8338C21.558 24.9239 20.7019 24.9239 20.5612 24.8338C20.4607 24.7693 20.5612 23.3729 20.7019 23.2828C20.8466 23.19 21.8836 23.1282 21.9881 23.19H21.9841Z" fill="#FFFF00" stroke="black" stroke-width="0.0804515"/>
<path fill-rule="evenodd" clip-rule="evenodd" d="M19.0463 22.6479C19.0463 22.7842 18.9684 22.9149 18.8298 23.0112C18.6911 23.1076 18.5031 23.1618 18.3071 23.1618C18.111 23.1618 17.923 23.1076 17.7844 23.0112C17.6458 22.9149 17.5679 22.7842 17.5679 22.6479C17.5679 22.5116 17.6458 22.3809 17.7844 22.2845C17.923 22.1881 18.111 22.134 18.3071 22.134C18.5031 22.134 18.6911 22.1881 18.8298 22.2845C18.9684 22.3809 19.0463 22.5116 19.0463 22.6479Z" fill="#FFFF00" stroke="black" stroke-width="0.0963025"/>
<path fill-rule="evenodd" clip-rule="evenodd" d="M21.9882 22.648C21.9882 22.7843 21.9103 22.9151 21.7717 23.0114C21.6331 23.1078 21.445 23.162 21.249 23.162C21.0529 23.162 20.8649 23.1078 20.7263 23.0114C20.5876 22.9151 20.5098 22.7843 20.5098 22.648C20.5098 22.5118 20.5876 22.381 20.7263 22.2847C20.8649 22.1883 21.0529 22.1341 21.249 22.1341C21.445 22.1341 21.6331 22.1883 21.7717 22.2847C21.9103 22.381 21.9882 22.5118 21.9882 22.648Z" fill="#FFFF00" stroke="black" stroke-width="0.0963046"/>
<path fill-rule="evenodd" clip-rule="evenodd" d="M21.0667 25.6255C21.0667 25.7505 20.9 25.8505 20.7083 25.8505C20.5083 25.8505 20.35 25.7505 20.35 25.6255C20.35 25.5005 20.5167 25.4005 20.7083 25.4005C20.9 25.4005 21.0667 25.5005 21.0667 25.6255ZM19.2083 25.6255C19.2083 25.7505 19.05 25.8505 18.8583 25.8505C18.6583 25.8505 18.5 25.7505 18.5 25.6255C18.5 25.5005 18.6583 25.4005 18.8583 25.4005C19.05 25.4005 19.2083 25.5005 19.2083 25.6255Z" fill="black"/>
<path fill-rule="evenodd" clip-rule="evenodd" d="M19.7823 18.3341L19.3453 17.7827L18.6283 17.8737L18.7291 17.1885L18.1521 16.7764L18.7291 16.3588L18.6283 15.6736L19.3453 15.77L19.7823 15.2186L20.2193 15.77L20.9307 15.6736L20.8355 16.3588L21.4069 16.7764L20.8355 17.1939L20.9307 17.8737L20.2137 17.7827L19.7823 18.3341Z" fill="#FFFF00" stroke="black" stroke-width="0.0602379"/>
<path fill-rule="evenodd" clip-rule="evenodd" d="M22.8308 20.4666L24.0539 21.0537L25.2769 20.4666L24.0539 19.885L22.8366 20.4666H22.8308Z" fill="#FFFF00" stroke="black" stroke-width="0.0617436"/>
<path fill-rule="evenodd" clip-rule="evenodd" d="M14.0808 20.4666L15.3039 21.0537L16.5269 20.4666L15.3039 19.885L14.0866 20.4666H14.0808Z" fill="#FFFF00" stroke="black" stroke-width="0.0617436"/>
<path fill-rule="evenodd" clip-rule="evenodd" d="M24.7184 23.9457C24.3439 23.7083 23.7131 23.8266 23.3596 24.0206C23.0061 24.2147 22.6525 24.4087 22.605 25.1118C22.1989 24.4361 22.5187 23.8114 23.0565 23.5163C23.3416 23.3823 23.6682 23.3525 23.9748 23.4325C24.2814 23.5124 24.5468 23.6966 24.7212 23.9505L24.7184 23.9457Z" fill="#FFFF00" stroke="black" stroke-width="0.0617676"/>
<path fill-rule="evenodd" clip-rule="evenodd" d="M16.3177 22.8002C16.3177 22.9028 16.275 23.0012 16.1991 23.0737C16.1232 23.1463 16.0202 23.187 15.9129 23.187C15.8055 23.187 15.7025 23.1463 15.6266 23.0737C15.5507 23.0012 15.5081 22.9028 15.5081 22.8002C15.5081 22.6976 15.5507 22.5992 15.6266 22.5267C15.7025 22.4541 15.8055 22.4134 15.9129 22.4134C16.0202 22.4134 16.1232 22.4541 16.1991 22.5267C16.275 22.5992 16.3177 22.6976 16.3177 22.8002Z" fill="#FFFF00" stroke="black" stroke-width="0.0617436"/>
<path fill-rule="evenodd" clip-rule="evenodd" d="M15.9092 24.1585C15.9092 24.2611 15.8666 24.3595 15.7907 24.4321C15.7148 24.5046 15.6118 24.5454 15.5044 24.5454C15.3971 24.5454 15.2941 24.5046 15.2182 24.4321C15.1423 24.3595 15.0996 24.2611 15.0996 24.1585C15.0996 24.0559 15.1423 23.9575 15.2182 23.885C15.2941 23.8125 15.3971 23.7717 15.5044 23.7717C15.6118 23.7717 15.7148 23.8125 15.7907 23.885C15.8666 23.9575 15.9092 24.0559 15.9092 24.1585Z" fill="#FFFF00" stroke="black" stroke-width="0.0617436"/>
<path fill-rule="evenodd" clip-rule="evenodd" d="M15.7093 23.3835C15.7093 23.4861 15.6666 23.5845 15.5907 23.657C15.5148 23.7296 15.4118 23.7703 15.3045 23.7703C15.1971 23.7703 15.0941 23.7296 15.0182 23.657C14.9423 23.5845 14.8997 23.4861 14.8997 23.3835C14.8997 23.2809 14.9423 23.1825 15.0182 23.11C15.0941 23.0374 15.1971 22.9967 15.3045 22.9967C15.4118 22.9967 15.5148 23.0374 15.5907 23.11C15.6666 23.1825 15.7093 23.2809 15.7093 23.3835Z" fill="#FFFF00" stroke="black" stroke-width="0.0617436"/>
<path fill-rule="evenodd" clip-rule="evenodd" d="M16.7259 24.1585C16.7259 24.2611 16.6832 24.3595 16.6073 24.4321C16.5314 24.5046 16.4284 24.5454 16.3211 24.5454C16.2137 24.5454 16.1107 24.5046 16.0348 24.4321C15.9589 24.3595 15.9163 24.2611 15.9163 24.1585C15.9163 24.0559 15.9589 23.9575 16.0348 23.885C16.1107 23.8125 16.2137 23.7717 16.3211 23.7717C16.4284 23.7717 16.5314 23.8125 16.6073 23.885C16.6832 23.9575 16.7259 24.0559 16.7259 24.1585Z" fill="#FFFF00" stroke="black" stroke-width="0.0617436"/>
<path fill-rule="evenodd" clip-rule="evenodd" d="M16.9258 23.3835C16.9258 23.4861 16.8832 23.5845 16.8073 23.657C16.7314 23.7296 16.6284 23.7703 16.521 23.7703C16.4137 23.7703 16.3107 23.7296 16.2348 23.657C16.1589 23.5845 16.1162 23.4861 16.1162 23.3835C16.1162 23.2809 16.1589 23.1825 16.2348 23.11C16.3107 23.0374 16.4137 22.9967 16.521 22.9967C16.6284 22.9967 16.7314 23.0374 16.8073 23.11C16.8832 23.1825 16.9258 23.2809 16.9258 23.3835Z" fill="#FFFF00" stroke="black" stroke-width="0.0617436"/>
<path fill-rule="evenodd" clip-rule="evenodd" d="M16.3177 23.5752C16.3177 23.6778 16.275 23.7762 16.1991 23.8487C16.1232 23.9213 16.0202 23.962 15.9129 23.962C15.8055 23.962 15.7025 23.9213 15.6266 23.8487C15.5507 23.7762 15.5081 23.6778 15.5081 23.5752C15.5081 23.4726 15.5507 23.3742 15.6266 23.3017C15.7025 23.2291 15.8055 23.1884 15.9129 23.1884C16.0202 23.1884 16.1232 23.2291 16.1991 23.3017C16.275 23.3742 16.3177 23.4726 16.3177 23.5752Z" fill="#FFFF00" stroke="black" stroke-width="0.0617436"/>
<path fill-rule="evenodd" clip-rule="evenodd" d="M17.8167 10.0338C16.7833 10.0338 16.65 10.2005 16.1833 10.3588C16.1833 9.90884 17.3333 9.38383 18.35 9.38383C18.35 9.70883 18.0833 10.0338 17.8167 10.0338Z" fill="#DA4500"/>
<path fill-rule="evenodd" clip-rule="evenodd" d="M19.375 9.00051C19.375 9.20884 19.1917 9.38384 18.9667 9.38384C18.7417 9.38384 18.5583 9.20884 18.5583 8.99217C18.5583 8.77551 18.7417 8.60884 18.9667 8.60884C19.1917 8.60884 19.375 8.77551 19.375 8.99217V9.00051Z" fill="#CAC9C7"/>
<path fill-rule="evenodd" clip-rule="evenodd" d="M15.1019 7.63817V8.21978H16.1183V11.1333H16.7327V8.21978H17.749V7.63817H16.7327V6.85902H16.1125V7.63817H15.0962H15.1019Z" fill="#FFFF00" stroke="black" stroke-width="0.0617436"/>
<path fill-rule="evenodd" clip-rule="evenodd" d="M18.3584 9.38383C17.5313 9.33657 16.7027 9.44686 15.9167 9.70883C15.9167 9.10883 16.6167 8.40883 17.8167 8.40883C18.0834 8.40883 18.3584 9.05883 18.3584 9.38383Z" fill="#DA4500"/>
<path fill-rule="evenodd" clip-rule="evenodd" d="M7.77124 19.7078C7.47839 19.0766 7.48519 18.8751 8.00616 19.5974L14.2815 31.4943L14.0894 31.5485L7.77448 19.7103L7.77124 19.7078Z" fill="#008500" stroke="black" stroke-width="0.0214024"/>
<path fill-rule="evenodd" clip-rule="evenodd" d="M12.0331 27.5338C12.0998 26.6505 10.4831 25.7005 10.4164 25.7588C10.3581 25.8255 10.5164 26.3421 10.8248 26.6005C10.2414 26.3005 9.62476 26.1171 9.60809 26.2421C9.55809 26.4255 10.5248 26.8421 10.6081 27.0088C10.6081 27.1255 9.89142 27.1088 9.90809 27.2255C9.92476 27.3421 11.9331 28.3588 12.0331 27.5338ZM10.4164 24.9671C10.4831 24.0838 8.86642 23.1338 8.80809 23.1921C8.74142 23.2505 8.89976 23.7671 9.20809 24.0338C8.62476 23.7338 8.00809 23.5421 7.99142 23.6755C7.94976 23.8505 8.90809 24.2755 8.99142 24.4421C8.99976 24.5588 8.28309 24.5421 8.29142 24.6588C8.30809 24.7755 10.3164 25.7838 10.4164 24.9671ZM9.18309 22.6338C9.24976 21.7505 7.63309 20.8005 7.56642 20.8588C7.50809 20.9171 7.66642 21.4338 7.97476 21.7005C7.39142 21.4005 6.77476 21.2088 6.75809 21.3421C6.71642 21.5171 7.67476 21.9421 7.75809 22.1088C7.75809 22.2255 7.04976 22.2088 7.05809 22.3255C7.07476 22.4421 9.08309 23.4588 9.18309 22.6338ZM7.96642 20.1005C8.02476 19.2255 6.41642 18.2671 6.34976 18.3255C6.28309 18.3921 6.44976 18.9088 6.74976 19.1755C6.16642 18.8671 5.54976 18.6838 5.54142 18.8171C5.49142 18.9921 6.45809 19.4171 6.53309 19.5755C6.54142 19.6921 5.82476 19.6838 5.84142 19.8005C5.84976 19.9171 7.85809 20.9255 7.96642 20.1005Z" fill="#008F00"/>
<path fill-rule="evenodd" clip-rule="evenodd" d="M8.383 19.9921C9.16633 19.5171 9.008 17.7088 8.92467 17.6921C8.833 17.6838 8.49133 18.1088 8.44966 18.5088C8.358 17.8755 8.14966 17.2921 8.033 17.3588C7.858 17.4255 8.06633 18.4171 7.97466 18.5755C7.89133 18.6588 7.47466 18.0921 7.39133 18.1755C7.29133 18.2588 7.62466 20.4005 8.39133 19.9921H8.383ZM9.51633 22.2088C10.4163 22.0088 10.908 20.2588 10.8247 20.2171C10.7413 20.1755 10.2747 20.4671 10.0997 20.8338C10.233 20.2088 10.2413 19.5921 10.0997 19.6171C9.908 19.6255 9.76633 20.6255 9.62466 20.7421C9.51633 20.7921 9.31633 20.1338 9.208 20.1755C9.09133 20.2255 8.658 22.3505 9.51633 22.2088ZM10.8663 24.4755C11.6913 24.0755 11.6997 22.2588 11.6163 22.2421C11.533 22.2171 11.158 22.6171 11.0747 23.0088C11.0413 22.3671 10.8913 21.7755 10.7663 21.8338C10.583 21.8838 10.6997 22.8838 10.5997 23.0338C10.4997 23.1088 10.1413 22.5088 10.0413 22.5838C9.94133 22.6505 10.0747 24.8171 10.8747 24.4755H10.8663ZM12.333 27.4421C13.1913 27.1171 13.3997 25.3171 13.3163 25.2838C13.233 25.2588 12.8163 25.6171 12.6913 26.0005C12.7247 25.3588 12.6413 24.7505 12.508 24.8005C12.3163 24.8338 12.333 25.8421 12.2163 25.9838C12.108 26.0421 11.8163 25.4171 11.7163 25.4838C11.608 25.5338 11.508 27.7088 12.333 27.4421Z" fill="#008F00"/>
<path fill-rule="evenodd" clip-rule="evenodd" d="M14.2237 30.5342C14.0054 30.9079 13.3149 30.9417 12.6731 30.5994C12.0314 30.257 11.6991 29.6775 11.9175 29.3039C12.1358 28.9302 12.8313 28.8991 13.4681 29.2388C14.1048 29.5785 14.4421 30.1606 14.2237 30.5342Z" fill="#FF1900" stroke="black" stroke-width="0.0617671"/>
<path fill-rule="evenodd" clip-rule="evenodd" d="M30.7932 18.0179L30.9012 17.739L31.1922 17.8307L31.3003 17.5518L31.5913 17.6435L31.4848 17.9184L31.7841 18.0127L31.6745 18.2954L31.3752 18.2012L31.1059 18.8963L30.8149 18.8047L31.0842 18.1095L30.7932 18.0179ZM30.1682 20.4739L30.4592 20.5655L27.3321 28.6365L27.0411 28.5449L30.1682 20.4739Z" fill="#FFFF00" stroke="black" stroke-width="0.0214231"/>
<path fill-rule="evenodd" clip-rule="evenodd" d="M26.9447 28.3603L27.535 28.5462L26.6722 30.7731L26.0819 30.5872L26.9447 28.3603ZM30.4158 18.9919L31.3013 19.2708C31.8874 19.4554 30.5582 20.7554 30.5582 20.7554L29.972 20.5708C29.972 20.5708 29.8254 18.806 30.4158 18.9919ZM31.2296 19.0103C31.184 19.1281 31.0186 19.1818 30.8564 19.1307C30.6943 19.0796 30.5978 18.9435 30.6419 18.8296C30.6861 18.7157 30.853 18.6581 31.0151 18.7091C31.1772 18.7602 31.2737 18.8964 31.2281 19.0142L31.2296 19.0103Z" fill="#FFFF00" stroke="black" stroke-width="0.0214231"/>
<path fill-rule="evenodd" clip-rule="evenodd" d="M27.4183 29.5171C27.6656 29.8739 27.3802 30.4757 26.7674 30.8635C26.1547 31.2513 25.4634 31.2676 25.2161 30.9108C24.9688 30.5539 25.259 29.9491 25.867 29.5643C26.475 29.1795 27.171 29.1603 27.4183 29.5171Z" fill="#FF1900" stroke="black" stroke-width="0.061771"/>
</g>
</g>
<defs>
<clipPath id="clip0_769_19732">
<path d="M0 20C0 8.95431 8.95431 0 20 0C31.0457 0 40 8.95431 40 20C40 31.0457 31.0457 40 20 40C8.95431 40 0 31.0457 0 20Z" fill="white"/>
</clipPath>
<clipPath id="clip1_769_19732">
<rect width="53.3333" height="40" fill="white" transform="translate(-7 0.000488281)"/>
</clipPath>
</defs>
</svg>
