<svg width="40" height="40" viewBox="0 0 40 40" fill="none" xmlns="http://www.w3.org/2000/svg">
<g clip-path="url(#clip0_769_19972)">
<path d="M0 20C0 8.95431 8.95431 0 20 0C31.0457 0 40 8.95431 40 20C40 31.0457 31.0457 40 20 40C8.95431 40 0 31.0457 0 20Z" fill="#E94E0F"/>
<g clip-path="url(#clip1_769_19972)">
<path d="M0 -0.000610352H53.3333V39.9994H0V-0.000610352Z" fill="#C4272F"/>
<path d="M17.7749 -0.000610352H35.5582V39.9994H17.7749V-0.000610352Z" fill="#015197"/>
<path d="M8.91667 18.6744C10.5275 18.6744 11.8333 17.3686 11.8333 15.7577C11.8333 14.1469 10.5275 12.8411 8.91667 12.8411C7.30584 12.8411 6 14.1469 6 15.7577C6 17.3686 7.30584 18.6744 8.91667 18.6744Z" fill="#F9CF02"/>
<path d="M8.91673 17.6161C10.6748 17.6161 12.1001 16.1908 12.1001 14.4327C12.1001 12.6746 10.6748 11.2494 8.91673 11.2494C7.15863 11.2494 5.7334 12.6746 5.7334 14.4327C5.7334 16.1908 7.15863 17.6161 8.91673 17.6161Z" fill="#C4272F"/>
<path fill-rule="evenodd" clip-rule="evenodd" d="M7.5918 10.9827C7.5918 11.3341 7.73139 11.6711 7.97988 11.9196C8.22837 12.1681 8.56539 12.3077 8.9168 12.3077C9.26821 12.3077 9.60523 12.1681 9.85371 11.9196C10.1022 11.6711 10.2418 11.3341 10.2418 10.9827C10.2418 10.4577 9.90846 10.3827 9.90846 10.191C9.90846 9.99104 10.1085 9.72437 9.70846 9.39104C9.90846 9.72437 9.57513 9.79104 9.57513 10.1244C9.57513 10.4577 9.70846 10.4577 9.70846 10.716C9.69744 10.7776 9.66511 10.8334 9.61712 10.8736C9.56913 10.9137 9.50854 10.9358 9.44596 10.9358C9.38338 10.9358 9.3228 10.9137 9.27481 10.8736C9.22682 10.8334 9.19448 10.7776 9.18346 10.716C9.18346 10.4577 9.4418 10.191 9.4418 9.79937C9.4418 9.39104 9.38346 9.25771 9.18346 8.93271C8.98346 8.59937 8.65013 8.33271 8.9168 8.06604C8.5168 8.19937 8.7168 8.73271 8.7168 9.06604C8.7168 9.39937 8.45013 9.59104 8.45013 9.98271C8.45013 10.3744 8.65013 10.4577 8.65013 10.716C8.63911 10.7776 8.60678 10.8334 8.55879 10.8736C8.5108 10.9137 8.45021 10.9358 8.38763 10.9358C8.32505 10.9358 8.26446 10.9137 8.21647 10.8736C8.16848 10.8334 8.13615 10.7776 8.12513 10.716C8.12513 10.4577 8.25846 10.4577 8.25846 10.1244C8.25846 9.79104 7.92513 9.72437 8.12513 9.39104C7.72513 9.72437 7.92513 9.99104 7.92513 10.191C7.92513 10.391 7.5918 10.4494 7.5918 10.9827Z" fill="#F9CF02"/>
<path d="M8.91672 17.0744C10.0857 17.0744 11.0334 16.1267 11.0334 14.9577C11.0334 13.7887 10.0857 12.8411 8.91672 12.8411C7.74771 12.8411 6.80005 13.7887 6.80005 14.9577C6.80005 16.1267 7.74771 17.0744 8.91672 17.0744Z" fill="#F9CF02"/>
<path d="M3.08325 19.1994V31.9244H5.73325V19.1994H3.08325ZM12.0999 19.1994V31.9244H14.7499V19.1994H12.0999ZM6.26659 21.3244V22.3827H11.5666V21.3244H6.26659ZM6.26659 28.7411V29.8077H11.5666V28.7494L6.26659 28.7411ZM6.26659 19.1994H11.5666L8.91659 20.7911L6.26659 19.1994ZM6.26659 30.3411H11.5666L8.91659 31.9161L6.26659 30.3411Z" fill="#F9CF02"/>
<path d="M8.91673 28.3744C10.4677 28.3744 11.7251 27.1171 11.7251 25.5661C11.7251 24.0151 10.4677 22.7577 8.91673 22.7577C7.36573 22.7577 6.1084 24.0151 6.1084 25.5661C6.1084 27.1171 7.36573 28.3744 8.91673 28.3744Z" fill="#F9CF02" stroke="#C4272F" stroke-width="0.316667"/>
<path d="M8.91673 22.7494C9.29025 22.7494 9.64846 22.8978 9.91257 23.1619C10.1767 23.426 10.3251 23.7842 10.3251 24.1577C10.3251 24.5312 10.1767 24.8895 9.91257 25.1536C9.64846 25.4177 9.29025 25.5661 8.91673 25.5661C8.72324 25.5511 8.52875 25.5764 8.34547 25.6402C8.16219 25.704 7.99408 25.805 7.85168 25.9368C7.70927 26.0687 7.59566 26.2285 7.51796 26.4064C7.44026 26.5842 7.40015 26.7762 7.40015 26.9702C7.40015 27.1643 7.44026 27.3563 7.51796 27.5341C7.59566 27.7119 7.70927 27.8718 7.85168 28.0036C7.99408 28.1355 8.16219 28.2365 8.34547 28.3003C8.52875 28.3641 8.72324 28.3893 8.91673 28.3744" stroke="#C4272F" stroke-width="0.316667"/>
<path d="M8.91663 24.6911C9.21119 24.6911 9.44997 24.4523 9.44997 24.1577C9.44997 23.8632 9.21119 23.6244 8.91663 23.6244C8.62208 23.6244 8.3833 23.8632 8.3833 24.1577C8.3833 24.4523 8.62208 24.6911 8.91663 24.6911Z" fill="#C4272F"/>
<path d="M8.91663 27.4994C9.21119 27.4994 9.44997 27.2606 9.44997 26.9661C9.44997 26.6715 9.21119 26.4327 8.91663 26.4327C8.62208 26.4327 8.3833 26.6715 8.3833 26.9661C8.3833 27.2606 8.62208 27.4994 8.91663 27.4994Z" fill="#C4272F"/>
</g>
</g>
<defs>
<clipPath id="clip0_769_19972">
<path d="M0 20C0 8.95431 8.95431 0 20 0C31.0457 0 40 8.95431 40 20C40 31.0457 31.0457 40 20 40C8.95431 40 0 31.0457 0 20Z" fill="white"/>
</clipPath>
<clipPath id="clip1_769_19972">
<rect width="53.3333" height="40" fill="white" transform="translate(0 -0.000610352)"/>
</clipPath>
</defs>
</svg>
