<svg width="40" height="40" viewBox="0 0 40 40" fill="none" xmlns="http://www.w3.org/2000/svg">
<g clip-path="url(#clip0_769_20100)">
<path d="M0 20C0 8.95431 8.95431 0 20 0C31.0457 0 40 8.95431 40 20C40 31.0457 31.0457 40 20 40C8.95431 40 0 31.0457 0 20Z" fill="#E94E0F"/>
<g clip-path="url(#clip1_769_20100)">
<path d="M-5.66602 0.000244141H47.6673V40.0002H-5.66602V0.000244141Z" fill="#012169"/>
<path d="M26.409 9.25024H43.534L43.509 21.4419C43.6507 26.3336 40.6007 29.3752 34.984 30.7502C30.9924 29.7502 26.4007 27.7086 26.384 21.5836L26.409 9.25024Z" fill="white"/>
<path d="M26.784 9.61691H43.1507L43.134 21.3002C43.2673 25.9919 40.3507 28.9002 34.984 30.2169C31.1673 29.2669 26.7757 27.3002 26.7673 21.4336L26.784 9.61691Z" fill="#00A2BD" stroke="black" stroke-width="0.15"/>
<path d="M43.0256 22.6836C42.4256 27.1586 38.9756 29.1169 34.984 30.1586C31.4423 29.2086 27.634 27.6919 26.9006 22.7003L43.0256 22.6836Z" fill="#A53D08"/>
<path d="M34.334 11.7919L34.309 10.3253L35.4757 10.3336L35.484 11.7919H38.6673L38.6757 12.9336L35.484 12.9503L35.459 26.4003L34.3257 26.4086L34.309 12.9336L31.1423 12.9503V11.7836L34.334 11.7919Z" fill="black"/>
<path fill-rule="evenodd" clip-rule="evenodd" d="M31.7507 23.2336L34.6674 26.2586C35.6757 25.1502 34.9757 21.0086 33.6507 20.2502C33.4924 20.7419 33.2257 21.3336 32.934 21.5169C32.309 21.9502 30.759 22.4502 31.2757 22.7669C31.3924 22.6086 31.7007 22.4586 31.8507 22.8169C32.0174 23.3919 31.2007 23.4252 31.2007 23.4252C31.2007 23.4252 30.684 23.3586 30.5924 22.8419C30.509 22.3086 31.3674 21.8252 31.4424 21.7919C31.509 21.7669 32.634 21.4586 32.8257 20.4669C33.0674 19.4836 33.309 19.6336 33.3507 19.6169C34.8257 19.7586 35.784 22.3919 35.8424 24.2419C35.8924 26.0919 35.0924 27.3252 34.9424 27.4086C34.8007 27.4836 31.4424 23.4169 31.4424 23.4169L31.759 23.2336H31.7507Z" fill="#FF9A08" stroke="black" stroke-width="0.0666667"/>
<path d="M33.884 20.4169L33.9007 25.8752L33.884 20.4169Z" fill="#FF9A08"/>
<path d="M33.884 20.4169L33.9007 25.8752" stroke="black" stroke-width="0.0666667"/>
<path d="M33.5508 20.5252L33.5758 25.4752L33.5508 20.5252Z" fill="#FF9A08"/>
<path d="M33.5508 20.5252L33.5758 25.4752" stroke="black" stroke-width="0.0666667"/>
<path d="M33.2007 21.2419L33.2174 25.1752L33.2007 21.2419Z" fill="#FF9A08"/>
<path d="M33.2007 21.2419L33.2174 25.1752" stroke="black" stroke-width="0.0666667"/>
<path d="M32.9089 21.5169L32.9256 24.7752L32.9089 21.5169Z" fill="#FF9A08"/>
<path d="M32.9089 21.5169L32.9256 24.7752" stroke="black" stroke-width="0.0666667"/>
<path d="M32.6006 21.6669V24.4169V21.6669Z" fill="#FF9A08"/>
<path d="M32.6006 21.6669V24.4169" stroke="black" stroke-width="0.0666667"/>
<path d="M32.2673 21.8836V24.0586V21.8836Z" fill="#FF9A08"/>
<path d="M32.2673 21.8836V24.0586" stroke="black" stroke-width="0.0666667"/>
<path d="M31.9756 22.0586V23.7253V22.0586Z" fill="#FF9A08"/>
<path d="M31.9756 22.0586V23.7253" stroke="black" stroke-width="0.0666667"/>
<path d="M31.709 23.5769L34.7156 27.0169" stroke="#FFDF00" stroke-width="0.0666667" stroke-linecap="round"/>
<path d="M34.8623 21.4103C34.8623 21.4103 36.2223 24.3903 34.9623 26.8369" stroke="#FFDF00" stroke-width="0.12" stroke-linecap="round"/>
<path d="M31.3557 22.9503C31.3557 22.9503 31.4557 22.6903 31.5824 22.7969" stroke="#FFDF00" stroke-width="0.12" stroke-linecap="round"/>
<path d="M31.1222 22.1903C31.1222 22.1903 30.5756 22.6703 30.8756 22.9836" stroke="#FFDF00" stroke-width="0.12" stroke-linecap="round"/>
<path d="M35.5006 14.6169C35.6922 14.4502 35.8006 14.3419 35.9256 14.3669C36.0506 14.3836 36.2172 14.3669 36.3422 14.3336C36.6702 14.2574 37.0099 14.2461 37.3422 14.3002C37.4256 14.3169 37.5506 14.3586 37.7256 14.5086C37.9006 14.6586 38.1589 14.9252 38.0756 15.6419C37.9922 16.3586 38.0172 16.6669 37.9756 17.0752C37.9089 17.7836 37.7506 18.3669 37.4756 18.3252C37.8506 18.9919 37.8922 19.5752 38.1422 20.0336C38.3922 20.4919 38.5422 21.4336 38.4506 22.4502C38.3506 23.4752 38.0839 25.7586 38.8922 27.3002C38.7589 27.3919 38.4339 27.3002 38.1422 26.9919C37.8506 26.6836 37.7256 26.6919 37.4922 26.8752C36.7589 27.4336 36.0756 28.1086 35.0672 27.4336C34.8339 27.2836 34.7672 27.1002 34.9339 26.6252C35.3506 25.4586 35.5589 23.8419 35.4922 23.0919V14.6169H35.5006Z" fill="#008021" stroke="black" stroke-width="0.025"/>
<path d="M36.1887 13.8969C36.2557 14.0803 36.2533 14.2818 36.182 14.4636C36.0954 14.6636 36.0754 14.8902 36.2221 15.1702C36.4487 14.8369 36.7754 14.9036 36.9687 14.7169C37.1621 14.5236 37.2021 14.3436 37.3421 14.3036C37.2021 14.1769 36.9821 14.0369 37.0287 13.6769C37.0754 13.3102 37.5821 13.0102 37.1221 12.4569C37.0534 12.3696 36.9641 12.3008 36.8621 12.2568C36.7602 12.2128 36.6489 12.1949 36.5383 12.2049C36.4277 12.2148 36.3213 12.2522 36.2288 12.3137C36.1363 12.3751 36.0607 12.4588 36.0087 12.5569C35.9821 12.6236 36.022 12.7569 35.9487 12.8436C35.902 12.9102 35.8421 12.9636 35.7754 13.0102C35.7354 13.0436 35.7087 13.0836 35.7554 13.1436C35.7754 13.1636 35.8087 13.1636 35.8421 13.1769L35.7754 13.2969C35.7487 13.3236 35.7621 13.3502 35.7887 13.3769C35.7487 13.4902 35.8221 13.5102 35.7754 13.5902C35.7287 13.6636 35.6754 13.7569 35.8287 13.8436C35.8754 13.8636 36.0821 13.9102 36.1887 13.8969Z" fill="#FFE1CF" stroke="black" stroke-width="0.0266667"/>
<path d="M34.3153 15.8169C34.0487 15.8836 33.6153 15.7636 33.2887 15.8036C33.142 15.8169 33.0287 15.7436 33.0487 15.6036C33.0687 15.4569 33.0887 15.2369 33.0553 15.0302C33.0605 14.6014 33.1704 14.1803 33.3753 13.8036C33.5421 13.5021 33.6507 13.1719 33.6953 12.8302C33.6953 12.6769 33.7087 12.5102 33.842 12.4236C33.942 12.3569 33.962 12.2969 33.9953 12.2436C34.0753 12.1236 34.1553 12.0969 34.162 12.1702C34.1687 12.2102 34.1553 12.2502 34.1153 12.3036C34.202 12.2369 34.3487 12.1502 34.382 12.1302C34.4153 12.1036 34.582 11.9836 34.5953 12.0969C34.662 12.0636 34.7087 12.0636 34.7287 12.0969C34.742 12.1436 34.7287 12.1569 34.702 12.1836C34.7487 12.1769 34.802 12.2569 34.702 12.3369C34.7554 12.3169 34.8087 12.4036 34.7153 12.4769C34.6287 12.5569 34.5153 12.6102 34.4887 12.6769C34.4553 12.7436 34.222 12.9169 34.1354 12.9502C34.042 12.9902 34.0354 13.0436 34.0354 13.1769C34.0354 14.6569 33.862 14.5369 33.862 14.8969C33.862 14.9902 33.842 15.0769 33.9354 15.0502C34.0354 15.0169 34.1753 14.9769 34.3153 14.9769V15.8102V15.8169Z" fill="#FFE1CF" stroke="black" stroke-width="0.0266667"/>
<path d="M34.3754 19.0036C34.8087 18.7836 35.3087 18.7036 35.5687 18.6369C35.8683 18.539 36.1584 18.414 36.4354 18.2636C36.6421 18.1569 36.8087 18.0102 36.922 17.9769C36.9904 17.9558 37.0539 17.9214 37.1088 17.8757C37.1637 17.8299 37.209 17.7737 37.242 17.7102C37.5703 17.1556 37.7664 16.5328 37.8154 15.8902C37.8154 15.5569 37.7287 15.1769 37.4021 15.4436C37.0621 15.7367 36.8085 16.117 36.6687 16.5436C36.5354 17.0769 36.422 17.1969 36.3954 17.3036C36.362 17.4102 36.2554 17.4102 36.1287 17.4369C35.7077 17.5026 35.3143 17.6877 34.9954 17.9702C34.6162 18.2502 34.2198 18.5063 33.8087 18.7369C33.502 18.9102 33.442 18.9236 33.3754 19.0702C33.3087 19.2036 33.242 19.3102 33.1887 19.3702C33.1287 19.4369 33.1154 19.5036 33.122 19.5836C33.1354 19.6502 33.1087 19.9369 33.1021 20.0302C33.1021 20.1302 33.122 20.1502 33.162 20.1569C33.1954 20.1569 33.2487 20.1436 33.2687 20.0236C33.2487 20.1436 33.4087 20.1036 33.4154 20.0169C33.4154 20.1436 33.582 20.0702 33.5887 19.9502C33.5887 20.0369 33.722 19.9769 33.7287 19.9436C33.762 19.8436 33.782 19.7436 33.822 19.6636C33.8754 19.5502 33.9354 19.4036 34.0487 19.3302C34.1754 19.2369 34.1154 19.1302 34.3754 18.9969V19.0036Z" fill="#FFE1CF" stroke="black" stroke-width="0.0266667"/>
<path d="M37.4887 26.8769C37.5153 26.9836 37.5687 27.1036 37.5887 27.1769C37.6087 27.2436 37.5753 27.2702 37.5553 27.3102C37.4456 27.5428 37.3693 27.7897 37.3287 28.0436C37.322 28.1436 37.2486 28.2436 37.2153 28.3102C37.1753 28.3769 37.1953 28.4302 37.282 28.4969C37.3153 28.5236 37.4487 28.4836 37.462 28.4169C37.5153 28.4636 37.5953 28.4502 37.6353 28.3769C37.682 28.4169 37.7553 28.3902 37.802 28.3169C37.842 28.3436 37.9087 28.2902 37.9353 28.2502C38.002 28.2836 38.0687 28.2436 38.0687 28.1169C38.0687 28.0836 38.0887 28.0369 38.1087 28.0102C38.1287 27.9769 38.1353 27.9169 38.1353 27.8636C38.1353 27.8102 38.162 27.7036 38.2087 27.6302C38.2553 27.5569 38.3353 27.4236 38.302 27.2969C38.2687 27.1836 38.222 27.1902 38.1753 27.0302C38.0687 26.9169 37.9287 26.7636 37.7753 26.7502C37.6287 26.7436 37.542 26.8436 37.4887 26.8769Z" fill="#FFE1CF" stroke="black" stroke-width="0.0266667"/>
<path d="M34.7554 27.7036C34.8888 27.8369 35.1888 27.8369 35.4021 27.6169C35.3288 27.5836 35.1554 27.5036 35.0821 27.4436C34.9754 27.5502 34.8554 27.6702 34.7488 27.7036H34.7554Z" fill="#FFE1CF" stroke="black" stroke-width="0.0266667"/>
<path d="M36.1172 12.4169C36.1672 12.0836 36.4089 12.0836 36.5589 12.1252C36.6255 12.1336 36.7755 12.1502 36.9255 12.1086C37.2089 12.0336 37.4255 12.1336 37.3922 12.4086C37.4755 12.4669 37.5589 12.6002 37.5339 12.7169C37.5255 12.8336 37.5505 12.8836 37.6505 12.8919C37.7589 12.9086 37.9839 13.0419 37.8339 13.2252C37.9755 13.3086 38.0839 13.5336 38.0089 13.6752C37.9339 13.8252 37.7089 13.8502 37.6089 13.7169C37.5005 13.7669 37.3339 13.7752 37.2255 13.6669C37.1505 13.7502 36.9755 13.7419 36.9339 13.6669C36.9005 13.5836 36.8505 13.5502 36.7755 13.5252C36.7005 13.5002 36.6922 13.2919 36.8089 13.2669C36.8005 13.2002 36.8089 13.1336 36.8339 13.1002C36.8589 13.0669 36.8339 13.0002 36.7672 12.9502C36.7005 12.8919 36.6422 12.7002 36.7089 12.5836C36.5922 12.6252 36.3422 12.5086 36.2922 12.4336C36.2339 12.3502 36.1589 12.3502 36.1172 12.4169Z" fill="#870F00" stroke="black" stroke-width="0.025"/>
<path d="M36.189 13.8969C36.3756 13.8769 36.4356 13.7636 36.5756 13.7636" stroke="black" stroke-width="0.0266667"/>
<path d="M35.7891 13.3769L35.8357 13.4036C35.8691 13.4236 35.9157 13.4303 35.9491 13.4369" stroke="black" stroke-width="0.0266667"/>
<path d="M35.8423 13.1769L35.9223 13.2236" stroke="black" stroke-width="0.0266667"/>
<path d="M36.2758 12.4169C36.1691 12.3102 36.4624 12.0969 36.7758 12.4036C36.8424 12.4636 36.9824 12.4636 37.0291 12.4502" stroke="black" stroke-width="0.0266667"/>
<path d="M36.709 12.5836C36.8557 12.5502 37.069 12.5502 37.1357 12.7169C37.2023 12.8769 37.3223 12.7702 37.4223 12.9636C37.5223 13.1569 37.6823 13.3702 37.8357 13.2236" stroke="black" stroke-width="0.0266667"/>
<path d="M37.2223 13.6636C37.1985 13.6239 37.1833 13.5797 37.1775 13.5338C37.1718 13.4879 37.1757 13.4413 37.1889 13.3969C37.1356 13.3303 37.1556 13.1903 37.1889 13.1236" stroke="black" stroke-width="0.0266667"/>
<path d="M36.8091 13.2636C36.8157 13.3236 36.8957 13.4302 37.0091 13.4502" stroke="black" stroke-width="0.0266667"/>
<path d="M37.6089 13.7169C37.5423 13.6303 37.5489 13.5503 37.5689 13.4503" stroke="black" stroke-width="0.0266667"/>
<path d="M36.9089 12.7569C36.9089 12.8436 36.9556 12.9569 37.0423 12.9969C37.0689 13.0502 37.1623 13.1836 37.3556 13.1636" stroke="black" stroke-width="0.0266667"/>
<path d="M37.3956 12.4102C37.2704 12.3026 37.1183 12.2311 36.9556 12.2036" stroke="black" stroke-width="0.0266667"/>
<path d="M36.2222 15.1703C36.0555 15.3903 35.9555 15.6969 36.0222 16.1303C36.1022 16.5636 36.2289 17.1969 35.9155 17.4836" stroke="black" stroke-width="0.0266667"/>
<path d="M37.469 18.3236C37.249 18.2702 36.9356 18.2702 36.7556 18.3969C36.589 18.5236 36.2956 18.5302 36.1023 18.4369" stroke="black" stroke-width="0.0266667"/>
<path d="M37.0022 18.3036C36.8089 18.3369 36.7222 18.4769 36.7222 18.8303C36.7222 19.1836 36.6422 19.7036 36.7089 20.2169" stroke="black" stroke-width="0.0266667"/>
<path d="M36.6556 18.4569C36.5223 18.4902 36.3956 18.4902 36.4223 18.8302" stroke="black" stroke-width="0.0266667"/>
<path d="M36.0024 18.8369C36.0091 18.6369 36.0824 18.4369 36.2158 18.4769" stroke="black" stroke-width="0.0266667"/>
<path d="M37.389 18.8836C37.3957 18.4169 37.2957 18.2902 37.1624 18.2969C37.3424 18.2969 37.469 18.3236 37.549 19.0702C37.6024 19.6302 37.7224 19.8236 37.8557 20.2636C38.2024 21.3969 38.029 23.1436 38.2024 23.7636" stroke="black" stroke-width="0.0266667"/>
<path d="M37.1222 19.0169C37.4889 20.0702 37.6822 21.2436 37.0889 23.1236C37.4889 24.2436 37.8889 25.0502 37.9689 25.5102" stroke="black" stroke-width="0.0266667"/>
<path d="M35.9757 21.5102C36.0423 21.2702 35.7957 21.2436 36.009 20.3969C36.1023 20.0302 36.1157 19.8102 36.0557 19.6969" stroke="black" stroke-width="0.0266667"/>
<path d="M36.0557 20.1969C35.969 20.5702 36.3357 21.2702 36.1557 21.7836" stroke="black" stroke-width="0.0266667"/>
<path d="M35.7024 21.8769C35.7024 22.2103 35.7757 22.6303 35.7624 22.9569C35.7424 23.2836 35.8757 23.4303 36.0291 23.7436C36.5891 24.8569 36.9624 25.6503 36.9157 26.7036C36.9024 26.8969 36.9691 27.3036 36.7691 27.4169" stroke="black" stroke-width="0.0266667"/>
<path d="M35.7156 27.6969C35.7756 27.6969 35.8356 27.6702 35.9089 27.4969C36.0904 26.8741 36.1581 26.2237 36.1089 25.5769" stroke="black" stroke-width="0.0266667"/>
<path d="M36.2291 26.3836C36.2557 26.6036 36.2557 27.0569 36.1157 27.4169" stroke="black" stroke-width="0.0266667"/>
<path d="M36.5957 25.7236C36.6824 26.1902 36.669 26.6169 36.6024 26.9169" stroke="black" stroke-width="0.0266667"/>
<path d="M36.4024 26.9169C36.4157 27.1036 36.5024 27.5836 36.3557 27.6236" stroke="black" stroke-width="0.0266667"/>
<path d="M37.1223 24.6836C37.4823 25.2436 37.7556 26.6169 38.0556 26.9036" stroke="black" stroke-width="0.0266667"/>
<path d="M37.4291 26.6836C37.4224 26.5303 37.4158 26.3169 37.3291 26.2169" stroke="black" stroke-width="0.0266667"/>
<path d="M33.5889 19.9503C33.5955 19.8503 33.5755 19.7503 33.6955 19.5836" stroke="black" stroke-width="0.0266667"/>
<path d="M33.4155 20.0169C33.4355 19.6503 33.4289 19.6169 33.5355 19.5103" stroke="black" stroke-width="0.0266667"/>
<path d="M33.2691 20.0236C33.2691 19.7569 33.2424 19.6702 33.3491 19.5036" stroke="black" stroke-width="0.0266667"/>
<path d="M34.5956 12.0969L34.2156 12.3836" stroke="black" stroke-width="0.0266667"/>
<path d="M34.7024 12.1836C34.6557 12.1903 34.5224 12.3036 34.2891 12.4836" stroke="black" stroke-width="0.0266667"/>
<path d="M34.709 12.3369C34.629 12.3702 34.489 12.5036 34.3623 12.5969" stroke="black" stroke-width="0.0266667"/>
<path d="M34.1158 12.3102L33.9824 12.4436" stroke="black" stroke-width="0.0266667"/>
<path d="M37.4624 28.4169C37.4424 28.3969 37.4424 28.3103 37.4824 28.2169" stroke="black" stroke-width="0.0266667"/>
<path d="M37.6423 28.3769C37.609 28.3503 37.6423 28.2303 37.6623 28.1569" stroke="black" stroke-width="0.0266667"/>
<path d="M37.8025 28.3169C37.7691 28.3036 37.7625 28.2369 37.8025 28.1436" stroke="black" stroke-width="0.0266667"/>
<path d="M37.929 28.2502C37.909 28.2436 37.9024 28.2036 37.9357 28.1036" stroke="black" stroke-width="0.0266667"/>
<path d="M36.0426 12.7236C36.1093 12.8102 36.1826 12.8036 36.1959 12.8569C36.2093 12.9236 36.2159 12.9236 36.2293 12.9436C36.2426 12.9569 36.1959 12.9569 36.1759 12.9436H36.0626C36.0293 12.9436 35.9893 12.8969 36.0093 12.8969C36.0359 12.8902 36.0359 12.8836 36.0293 12.8636C36.0293 12.8436 36.0426 12.8169 36.0559 12.8102L36.0493 12.7836C36.0359 12.7569 36.0226 12.7036 36.0426 12.7169V12.7236Z" fill="black"/>
<path d="M36.0826 12.6369C36.1895 12.6513 36.2894 12.6978 36.3693 12.7702C36.4226 12.8369 36.376 12.8169 36.3493 12.8169C36.3226 12.8169 36.2626 12.8036 36.236 12.7636C36.191 12.7199 36.1361 12.6879 36.076 12.6702C36.0493 12.6636 36.0226 12.6302 36.0826 12.6369Z" fill="black"/>
<path d="M-5.66602 0.000244141H21.0006V20.0002H-5.66602V0.000244141Z" fill="#012169"/>
<path d="M-2.54102 0.000244141L7.62565 7.54191L17.7507 0.000244141H21.0006V2.58358L11.0007 10.0419L21.0006 17.4586V20.0002H17.6673L7.66732 12.5419L-2.29102 20.0002H-5.66602V17.5002L4.29232 10.0836L-5.66602 2.66691V0.000244141H-2.54102Z" fill="white"/>
<path d="M12.0007 11.7086L21.0006 18.3336V20.0002L9.70898 11.7086H12.0007ZM4.33398 12.5419L4.58398 14.0002L-3.41602 20.0002H-5.66602L4.33398 12.5419ZM21.0006 0.000244141V0.125244L10.6257 7.95858L10.709 6.12524L18.9173 0.000244141H21.0006ZM-5.66602 0.000244141L4.29232 7.33358H1.79232L-5.66602 1.75024V0.000244141Z" fill="#C8102E"/>
<path d="M4.37565 0.000244141V20.0002H11.0423V0.000244141H4.37565ZM-5.66602 6.66691V13.3336H21.0006V6.66691H-5.66602Z" fill="white"/>
<path d="M-5.66602 8.04191V12.0419H21.0006V8.04191H-5.66602ZM5.70898 0.000244141V20.0002H9.70898V0.000244141H5.70898Z" fill="#C8102E"/>
</g>
</g>
<defs>
<clipPath id="clip0_769_20100">
<path d="M0 20C0 8.95431 8.95431 0 20 0C31.0457 0 40 8.95431 40 20C40 31.0457 31.0457 40 20 40C8.95431 40 0 31.0457 0 20Z" fill="white"/>
</clipPath>
<clipPath id="clip1_769_20100">
<rect width="53.3333" height="40" fill="white" transform="translate(-5.66602 0.000244141)"/>
</clipPath>
</defs>
</svg>
