<svg width="40" height="40" viewBox="0 0 40 40" fill="none" xmlns="http://www.w3.org/2000/svg">
<g clip-path="url(#clip0_769_20646)">
<path d="M0 20C0 8.95431 8.95431 0 20 0C31.0457 0 40 8.95431 40 20C40 31.0457 31.0457 40 20 40C8.95431 40 0 31.0457 0 20Z" fill="#E94E0F"/>
<g clip-path="url(#clip1_769_20646)">
<path fill-rule="evenodd" clip-rule="evenodd" d="M-7 -0.000610352H53V12.4994H-7V-0.000610352Z" fill="#009A00"/>
<path fill-rule="evenodd" clip-rule="evenodd" d="M-7 12.4994H53V13.7494H-7V12.4994Z" fill="white"/>
<path fill-rule="evenodd" clip-rule="evenodd" d="M-7 13.7494H53V26.2494H-7V13.7494Z" fill="black"/>
<path fill-rule="evenodd" clip-rule="evenodd" d="M-7 26.2494H53V27.4994H-7V26.2494Z" fill="white"/>
<path fill-rule="evenodd" clip-rule="evenodd" d="M-7 27.4994H53V39.9994H-7V27.4994Z" fill="#FFCA00"/>
<path fill-rule="evenodd" clip-rule="evenodd" d="M-7 -0.000610352V39.9994L19.25 19.9994L-7 -0.000610352Z" fill="#FF0000"/>
<path fill-rule="evenodd" clip-rule="evenodd" d="M8.50781 26.015L4.50781 23.0853L0.507812 26.015L2.0625 21.3041L-1.96094 18.4056L3 18.4213L4.50781 13.7025L6.02344 18.4291L10.9844 18.4056L6.96094 21.3041L8.50781 26.015Z" fill="#FFCA00"/>
<path fill-rule="evenodd" clip-rule="evenodd" d="M1.03125 22.726H3.92188C4.15625 22.9838 4.66406 23.0931 5.15625 22.726C6.0625 22.226 7.8125 22.726 7.8125 22.726L8.15625 22.3588L7.32031 19.6088L7.01562 19.2806C7.01562 19.2806 6.36719 18.89 5.14062 19.0228C3.91406 19.1556 3.48437 18.9838 3.48437 18.9838C3.48437 18.9838 2.41406 19.1088 2.10937 19.265L1.76562 19.6088L1.03125 22.726Z" fill="white" stroke="black" stroke-width="0.0859375" stroke-linecap="round" stroke-linejoin="round"/>
<path d="M1.61719 22.015C1.61719 22.015 4.36719 21.6713 5.16406 22.726C4.71875 23.0385 4.32031 23.0619 3.89844 22.7494C3.96094 22.6322 4.88281 21.6713 7.23437 21.9916" stroke="black" stroke-width="0.0859375" stroke-linecap="round" stroke-linejoin="round"/>
<path d="M7.01562 19.3041L7.53125 21.7181M4.5625 19.265L4.53906 22.2963L4.5625 19.265Z" stroke="black" stroke-width="0.09375"/>
<path d="M2.14062 19.265L1.85156 20.515" stroke="black" stroke-width="0.0859375" stroke-linecap="round" stroke-linejoin="round"/>
<path fill-rule="evenodd" clip-rule="evenodd" d="M-0.835938 23.0541L-0.164063 23.851C-0.0859376 23.8978 -0.0078125 23.8978 0.0625 23.851L1.0625 22.6478L1.48437 22.1244C1.55469 22.0463 1.57031 21.9603 1.5625 21.89L2.375 21.1635L2.54687 21.1791C2.46875 21.1635 2.41406 21.1244 2.46875 21.0385L2.65625 20.8978L2.79688 21.0775C2.79688 21.0775 2.59375 21.3431 2.57031 21.3431H2.35156L1.92969 21.726L2.11719 21.8822L2.39062 22.6478L2.73437 22.4056L2.51562 21.6244L2.99219 21.101L2.8125 20.8197L2.9375 20.6635C2.9375 20.6635 4.60156 21.7103 5.25 21.4291C5.26562 21.4291 5.28906 20.6791 5.28906 20.6791C5.28906 20.6791 3.55469 20.4994 3.51563 20.1556C3.47656 19.8119 3.90625 19.765 3.90625 19.765L3.71875 19.515L3.75781 19.3744L4.0625 19.7494L4.74219 19.1713L8.76562 23.7494C8.98438 23.6635 9.03125 23.6088 9.04687 23.39L5.10938 18.8666L5.40625 18.5463C5.46875 18.476 5.48438 18.4525 5.48438 18.3431L5.95312 17.9447C6.07586 17.9868 6.18058 18.0695 6.25 18.1791L7.53125 17.1088C7.5625 17.14 7.66406 17.1713 7.73438 17.14L9.83594 15.1166L7.54688 16.7338L7.46875 16.6791C7.46875 16.6088 7.54688 16.601 7.46875 16.476C7.375 16.3666 7.24219 16.5775 7.22656 16.5775C7.20312 16.5775 6.89062 16.4681 6.82031 16.3275L6.80469 16.6947L6.21875 17.2416L5.77344 17.2181L5.13281 17.8431L5.05469 18.0775L5.15625 18.2885C5.15625 18.2885 4.8125 18.5853 4.8125 18.5697C4.8125 18.5463 4.74219 18.476 4.73437 18.4681L5.03125 18.2025L5.07031 18.0228L4.97656 17.8666C4.94531 17.89 4.57031 18.2885 4.54688 18.2416L3.45312 17.0306L3.51563 16.8041L2.83594 16.0619C2.58594 15.976 2.1875 15.9603 2.10937 16.5072C2.04687 16.6322 1.53125 16.5228 1.53125 16.5228L1.25 16.5853L-0.34375 18.8275L0.539062 19.89L2.35156 17.601L2.40625 16.9525L2.78125 17.3744C2.91406 17.39 3.03125 17.3978 3.14844 17.3353L4.21875 18.5306L4.03906 18.7103L4.19531 18.8822L4.38281 18.7572L4.45313 18.8588C4.36719 18.9056 4.29688 18.976 4.21094 19.0228C4.07031 18.9291 3.92969 18.8119 3.9375 18.6322L3.33594 19.1322L3.3125 19.226L1.52344 20.7103L1.36719 20.7338L1.32812 21.2025L2.49219 20.2338V20.0931L2.60938 20.1947L3.51563 19.4681C3.51563 19.4681 3.57813 19.5463 3.55469 19.5463C3.53125 19.5463 2.75 20.2728 2.75 20.2728L2.73437 20.351L2.59375 20.476L2.51562 20.4135L1.42188 21.3822H1.26562L0.664062 21.9838C0.507812 21.9994 0.375 22.015 0.242187 22.101L-0.835938 23.0541Z" fill="black" stroke="black" stroke-width="0.0859375" stroke-linecap="round" stroke-linejoin="round"/>
</g>
</g>
<defs>
<clipPath id="clip0_769_20646">
<path d="M0 20C0 8.95431 8.95431 0 20 0C31.0457 0 40 8.95431 40 20C40 31.0457 31.0457 40 20 40C8.95431 40 0 31.0457 0 20Z" fill="white"/>
</clipPath>
<clipPath id="clip1_769_20646">
<rect width="53.3333" height="40" fill="white" transform="translate(-7 -0.000610352)"/>
</clipPath>
</defs>
</svg>
