<svg width="40" height="40" viewBox="0 0 40 40" fill="none" xmlns="http://www.w3.org/2000/svg">
<g clip-path="url(#clip0_769_19963)">
<path d="M0 20C0 8.95431 8.95431 0 20 0C31.0457 0 40 8.95431 40 20C40 31.0457 31.0457 40 20 40C8.95431 40 0 31.0457 0 20Z" fill="#E94E0F"/>
<g clip-path="url(#clip1_769_19963)">
<path d="M-7 -0.00872803H46.3333V13.3329H-7V-0.00872803Z" fill="#FECB00"/>
<path d="M-7 26.666H46.3333V39.9994H-7V26.666Z" fill="#EA2839"/>
<path d="M-7 13.3327H46.3333V26.6661H-7V13.3327Z" fill="#34B233"/>
<path d="M25.8171 23.3328L33.6837 16.7745L23.4671 16.0995L19.6671 6.59113L15.8671 16.0995L5.65039 16.7745L13.5171 23.3328L11.0004 33.2578L19.6671 27.7995L28.3337 33.2578L25.8171 23.3328Z" fill="white"/>
</g>
</g>
<defs>
<clipPath id="clip0_769_19963">
<path d="M0 20C0 8.95431 8.95431 0 20 0C31.0457 0 40 8.95431 40 20C40 31.0457 31.0457 40 20 40C8.95431 40 0 31.0457 0 20Z" fill="white"/>
</clipPath>
<clipPath id="clip1_769_19963">
<rect width="53.3333" height="40" fill="white" transform="translate(-7 -0.000610352)"/>
</clipPath>
</defs>
</svg>
