<svg width="40" height="40" viewBox="0 0 40 40" fill="none" xmlns="http://www.w3.org/2000/svg">
<g clip-path="url(#clip0_769_20664)">
<path d="M0 20C0 8.95431 8.95431 0 20 0C31.0457 0 40 8.95431 40 20C40 31.0457 31.0457 40 20 40C8.95431 40 0 31.0457 0 20Z" fill="#E94E0F"/>
<g clip-path="url(#clip1_769_20664)">
<path fill-rule="evenodd" clip-rule="evenodd" d="M-6.99976 -0.000610352H46.3336V39.9994H-6.99976V-0.000610352Z" fill="white"/>
<path fill-rule="evenodd" clip-rule="evenodd" d="M-9.19971 0.0160563L-9.13304 28.8161L35.7086 -0.000610352L-9.19971 0.0160563Z" fill="#3662A2"/>
<path fill-rule="evenodd" clip-rule="evenodd" d="M48.5336 39.966L48.4169 10.0244L3.19189 39.9827L48.5252 39.966H48.5336Z" fill="#38A100"/>
<path fill-rule="evenodd" clip-rule="evenodd" d="M-9.1665 30.9827L-9.13317 39.9994L0.658497 39.9911L48.4502 7.94938L48.3918 0.107717L38.7252 0.0243835L-9.1665 30.9744V30.9827Z" fill="#C70000"/>
<path fill-rule="evenodd" clip-rule="evenodd" d="M11.3004 14.3327L9.48372 13.2327L8.43372 15.0744L7.41706 13.2244L5.58372 14.2994L5.63372 12.1827L3.51706 12.1994L4.61706 10.3827L2.77539 9.34105L4.62539 8.31605L3.55872 6.48271L5.67539 6.53271L5.66706 4.40771L7.47539 5.50771L8.52539 3.66605L9.54206 5.51605L11.3754 4.44105L11.3254 6.55771L13.4421 6.54105L12.3421 8.35771L14.1837 9.39938L12.3337 10.4244L13.4004 12.2577L11.2837 12.2077L11.3004 14.3327Z" fill="#FFE700"/>
<path fill-rule="evenodd" clip-rule="evenodd" d="M12.367 9.36605C12.367 11.4994 10.6253 13.2244 8.48368 13.2244C6.34201 13.2244 4.60034 11.4994 4.60034 9.36605C4.60034 7.23272 6.33368 5.51605 8.48368 5.51605C10.6337 5.51605 12.367 7.24105 12.367 9.36605Z" fill="#3662A2"/>
<path fill-rule="evenodd" clip-rule="evenodd" d="M11.5252 9.36607C11.5252 10.1728 11.2048 10.9464 10.6343 11.5169C10.0639 12.0873 9.29026 12.4077 8.48356 12.4077C7.67686 12.4077 6.9032 12.0873 6.33278 11.5169C5.76235 10.9464 5.44189 10.1728 5.44189 9.36607C5.44189 8.55937 5.76235 7.78571 6.33278 7.21528C6.9032 6.64486 7.67686 6.3244 8.48356 6.3244C9.29026 6.3244 10.0639 6.64486 10.6343 7.21528C11.2048 7.78571 11.5252 8.55937 11.5252 9.36607Z" fill="#FFE700"/>
</g>
</g>
<defs>
<clipPath id="clip0_769_20664">
<path d="M0 20C0 8.95431 8.95431 0 20 0C31.0457 0 40 8.95431 40 20C40 31.0457 31.0457 40 20 40C8.95431 40 0 31.0457 0 20Z" fill="white"/>
</clipPath>
<clipPath id="clip1_769_20664">
<rect width="53.3333" height="40" fill="white" transform="translate(-7 -0.000610352)"/>
</clipPath>
</defs>
</svg>
