<svg width="40" height="40" viewBox="0 0 40 40" fill="none" xmlns="http://www.w3.org/2000/svg">
<g clip-path="url(#clip0_769_20814)">
<path d="M0 20C0 8.95431 8.95431 0 20 0C31.0457 0 40 8.95431 40 20C40 31.0457 31.0457 40 20 40C8.95431 40 0 31.0457 0 20Z" fill="#E94E0F"/>
<g clip-path="url(#clip1_769_20814)">
<path fill-rule="evenodd" clip-rule="evenodd" d="M-6.6626 -0.000488281H73.3374V39.9995H-6.6626V-0.000488281Z" fill="#002170"/>
<path fill-rule="evenodd" clip-rule="evenodd" d="M-6.6626 18.2886H73.3374V21.7183H-6.6626V18.2886Z" fill="#FFB20D"/>
<path fill-rule="evenodd" clip-rule="evenodd" d="M16.9155 34.2183L14.3374 31.6401L13.5171 35.187L12.5796 31.6714L10.0874 34.3276L11.0327 30.812L7.55615 31.8667L10.1343 29.2886L6.5874 28.4604L10.103 27.5229L7.44678 25.0386L10.9624 25.9761L9.8999 22.4995L12.478 25.0776L13.3062 21.5308L14.2437 25.0464L16.728 22.3901L15.7905 25.9058L19.2671 24.8511L16.689 27.4292L20.2358 28.2495L16.7202 29.187L19.3765 31.687L15.8608 30.7339L16.9155 34.2183Z" fill="white"/>
</g>
</g>
<defs>
<clipPath id="clip0_769_20814">
<path d="M0 20C0 8.95431 8.95431 0 20 0C31.0457 0 40 8.95431 40 20C40 31.0457 31.0457 40 20 40C8.95431 40 0 31.0457 0 20Z" fill="white"/>
</clipPath>
<clipPath id="clip1_769_20814">
<rect width="53.3333" height="40" fill="white" transform="translate(0 -0.000488281)"/>
</clipPath>
</defs>
</svg>
