<svg width="40" height="40" viewBox="0 0 40 40" fill="none" xmlns="http://www.w3.org/2000/svg">
<g clip-path="url(#clip0_769_20677)">
<path d="M0 20C0 8.95431 8.95431 0 20 0C31.0457 0 40 8.95431 40 20C40 31.0457 31.0457 40 20 40C8.95431 40 0 31.0457 0 20Z" fill="#E94E0F"/>
<g clip-path="url(#clip1_769_20677)">
<path d="M-7 -0.000610352H46.3333V39.9994H-7V-0.000610352Z" fill="#009543"/>
<path d="M-7 -0.000610352H46.3333V26.6661H-7V-0.000610352Z" fill="#ED4135"/>
<path d="M-7 -0.000610352H46.3333V13.3327H-7V-0.000610352Z" fill="#0035AD"/>
<path d="M12.9999 33.1077C20.2395 33.1077 26.1083 27.2389 26.1083 19.9994C26.1083 12.7599 20.2395 6.89105 12.9999 6.89105C5.7604 6.89105 -0.108398 12.7599 -0.108398 19.9994C-0.108398 27.2389 5.7604 33.1077 12.9999 33.1077Z" fill="#FAE600" stroke="black" stroke-width="0.441667"/>
<path d="M10.7749 21.9577H15.2166H10.7749ZM10.7749 18.6661H15.2166H10.7749ZM12.9999 6.93274V29.3327V6.93274Z" fill="black"/>
<path d="M12.9999 6.93274V29.3327M10.7749 21.9577H15.2166H10.7749ZM10.7749 18.6661H15.2166H10.7749Z" stroke="black" stroke-width="0.533333"/>
<path d="M7.7168 32.0327C13.0668 34.2244 18.0835 32.1744 18.0835 32.1744C18.0835 32.1744 16.1918 30.1244 15.2251 29.3244C14.2751 28.5411 11.4918 28.5744 10.5418 29.3244C9.55727 30.1814 8.61452 31.0852 7.7168 32.0327Z" fill="black"/>
<path d="M12.9999 28.1744C13.8099 28.1744 14.4665 27.2193 14.4665 26.041C14.4665 24.8628 13.8099 23.9077 12.9999 23.9077C12.1899 23.9077 11.5332 24.8628 11.5332 26.041C11.5332 27.2193 12.1899 28.1744 12.9999 28.1744Z" fill="black"/>
<path d="M13.0001 21.4327C13.9804 21.4327 14.7751 20.9291 14.7751 20.3077C14.7751 19.6864 13.9804 19.1827 13.0001 19.1827C12.0198 19.1827 11.2251 19.6864 11.2251 20.3077C11.2251 20.9291 12.0198 21.4327 13.0001 21.4327Z" fill="black"/>
<path d="M13.0001 16.8827C13.9804 16.8827 14.7751 16.088 14.7751 15.1077C14.7751 14.1274 13.9804 13.3327 13.0001 13.3327C12.0198 13.3327 11.2251 14.1274 11.2251 15.1077C11.2251 16.088 12.0198 16.8827 13.0001 16.8827Z" fill="black"/>
<path d="M15.1333 8.49106C15.1333 8.49106 15.2833 8.74106 14.9666 9.32439C13.4166 12.1161 11.8583 12.1744 11.5666 12.4161C11.2333 12.6827 11.0999 12.6661 11.0999 12.6661C11.1249 12.4244 11.1416 11.4494 11.1583 11.3577C11.3999 10.0494 13.3666 10.0661 14.9083 8.73273C15.1499 8.52439 15.1333 8.48273 15.1333 8.48273V8.49106ZM9.93327 14.4911C9.93327 14.4911 10.2916 15.4911 10.3333 16.4911C10.4166 18.0911 11.9499 18.1327 12.9999 18.1327V17.2411C12.2083 17.2411 11.5249 17.1244 10.9583 15.9577C10.6601 15.4398 10.3171 14.9491 9.93327 14.4911ZM9.8916 27.3744C9.8916 27.3744 10.4499 26.6827 11.1083 25.0661C11.4416 24.2244 12.2583 23.7327 12.9999 23.7327V22.4827C11.3083 22.4827 10.4999 23.1077 10.4166 24.0327C10.3105 25.1564 10.1352 26.2724 9.8916 27.3744Z" fill="black"/>
<path d="M16.0667 14.4911C16.0667 14.4911 15.7083 15.4911 15.6667 16.4911C15.5833 18.0911 14.05 18.1327 13 18.1327V17.2494C13.7917 17.2494 14.475 17.1327 15.0417 15.9577C15.3417 15.4411 15.6833 14.9494 16.0667 14.4911ZM16.1083 27.3827C16.1083 27.3827 15.55 26.6827 14.8917 25.0661C14.5583 24.2244 13.7417 23.7327 13 23.7327V22.4994C14.6917 22.4994 15.5 23.1244 15.5833 24.0494C15.6897 25.1702 15.8651 26.2834 16.1083 27.3827Z" fill="black"/>
</g>
</g>
<defs>
<clipPath id="clip0_769_20677">
<path d="M0 20C0 8.95431 8.95431 0 20 0C31.0457 0 40 8.95431 40 20C40 31.0457 31.0457 40 20 40C8.95431 40 0 31.0457 0 20Z" fill="white"/>
</clipPath>
<clipPath id="clip1_769_20677">
<rect width="53.3333" height="40" fill="white" transform="translate(-7 -0.000610352)"/>
</clipPath>
</defs>
</svg>
