<svg width="40" height="40" viewBox="0 0 40 40" fill="none" xmlns="http://www.w3.org/2000/svg">
<g clip-path="url(#clip0_769_20846)">
<path d="M0 20C0 8.95431 8.95431 0 20 0C31.0457 0 40 8.95431 40 20C40 31.0457 31.0457 40 20 40C8.95431 40 0 31.0457 0 20Z" fill="#E94E0F"/>
<g clip-path="url(#clip1_769_20846)">
<path fill-rule="evenodd" clip-rule="evenodd" d="M-6 -0.000244141H47V39.7498H-6V-0.000244141Z" fill="#00247D"/>
<path d="M36.9487 8.96594L37.1258 8.87739H37.0705L37.1812 8.79438L36.6942 8.87739H35.2443L34.7019 7.20614L34.6743 7.00692L34.6577 7.06226L34.6134 6.92944L34.5415 7.41643L34.0655 8.87739H32.5326L32.0457 8.79438L32.1563 8.87739H32.101L32.2781 8.96594L33.7003 10.0008L33.2521 11.3787L33.0252 11.8159L33.1358 11.7329L33.1192 11.7882L33.2576 11.6444L34.6134 10.6593L35.9692 11.6444L36.1076 11.7882L36.091 11.7329L36.2016 11.8159L35.9748 11.3787L35.5265 10.0008L36.9487 8.96594Z" fill="white"/>
<path d="M36.1572 9.19283L36.2734 9.13196H36.2347L36.3122 9.07662L35.9912 9.13196H35.0338L34.6741 8.02517L34.652 7.89789L34.6409 7.93109L34.6132 7.84808L34.5634 8.16905L34.2535 9.13196H33.2353L32.9143 9.07662L32.9918 9.13196H32.953L33.0693 9.19283L34.01 9.87351L33.7167 10.7866L33.5618 11.0744L33.6393 11.019L33.6282 11.0578L33.7167 10.9637L34.6132 10.3107L35.5097 10.9637L35.5983 11.0578L35.5872 11.019L35.6647 11.0744L35.5097 10.7866L35.2164 9.87351L36.1572 9.19283Z" fill="#CC142B"/>
<path d="M43.2734 14.756L43.4294 14.6726L43.3848 14.6733L43.4812 14.6038L43.0498 14.6756L41.7585 14.6727L41.2758 13.187L41.2512 13.0116L41.2354 13.0585L41.1966 12.941L41.1291 13.3752L40.7082 14.675L39.3449 14.6766L38.9099 14.6036L39.0091 14.6735L38.959 14.6749L39.1209 14.7528L40.3843 15.6705L39.987 16.8999L39.7842 17.2861L39.8807 17.2166L39.8649 17.2636L39.9928 17.1394L41.1937 16.2609L42.4009 17.1363L42.525 17.2641L42.5071 17.2163L42.6064 17.2862L42.4069 16.9007L42.0106 15.6711L43.2734 14.756Z" fill="white"/>
<path d="M42.4834 14.9788L42.5829 14.9313L42.5492 14.9304L42.6096 14.8828L42.3426 14.9315L41.5435 14.932L41.2459 14.0071L41.2313 13.903L41.2187 13.9327L41.1969 13.8575L41.1564 14.1259L40.8948 14.9282L40.0511 14.9294L39.782 14.8834L39.8445 14.9305L39.8108 14.9297L39.9125 14.9769L40.6969 15.5484L40.4463 16.3101L40.3229 16.5454L40.384 16.5033L40.3769 16.5322L40.4499 16.4549L41.1954 15.9142L41.9416 16.452L42.0197 16.5305L42.0103 16.5038L42.0721 16.5454L41.9435 16.3065L41.6971 15.5475L42.4834 14.9788Z" fill="#CC142B"/>
<path d="M29.2773 16.6838L29.4606 16.5966L29.4051 16.5988L29.5109 16.5169L29.0302 16.5956L27.5777 16.5986L27.0352 14.9257L27.0075 14.7284L26.987 14.7816L26.9458 14.6476L26.875 15.1382L26.3983 16.5967L24.8612 16.5948L24.3754 16.5177L24.4871 16.597L24.4315 16.5993L24.6113 16.6858L26.031 17.7213L25.5873 19.0969L25.3585 19.537L25.4698 19.4543L25.4548 19.5067L25.5913 19.3645L26.9452 18.3807L28.3016 19.3637L28.439 19.5064L28.4203 19.4531L28.5321 19.5324L28.3037 19.1007L27.8576 17.716L29.2773 16.6838Z" fill="white"/>
<path d="M28.4879 16.9121L28.6078 16.8506L28.5687 16.8505L28.6455 16.8006L28.3229 16.8515L27.3619 16.8524L27.0051 15.7458L26.9874 15.6197L26.9748 15.6495L26.9461 15.5641L26.8968 15.8895L26.5847 16.8499L25.5681 16.8531L25.2473 16.7975L25.3223 16.8541L25.2832 16.854L25.4028 16.9098L26.3428 17.5936L26.0464 18.507L25.8971 18.7963L25.9731 18.7409L25.9613 18.7761L26.0484 18.68L26.9467 18.034L27.8421 18.6794L27.9335 18.7727L27.9234 18.7406L27.9922 18.7924L27.8457 18.5056L27.5496 17.5917L28.4879 16.9121Z" fill="#CC142B"/>
<path d="M37.2032 28.8102L37.402 28.7191H37.344L37.4599 28.6281L36.9217 28.7191H35.3151L34.7106 26.8559L34.6775 26.6406L34.6609 26.6985L34.6112 26.5577L34.5284 27.096L34.0067 28.7191H32.3007L31.7625 28.6281L31.8867 28.7191H31.8204L32.0192 28.8102L33.6009 29.9613L33.104 31.4934L32.8556 31.9737L32.9715 31.8909L32.955 31.9488L33.1123 31.7915L34.6112 30.6984L36.1184 31.7915L36.2675 31.9488L36.2509 31.8909L36.3751 31.9737L36.1267 31.4934L35.6298 29.9613L37.2032 28.8102Z" fill="white"/>
<path d="M36.4166 29.0421L36.5491 28.9675H36.5077L36.5905 28.9096L36.2179 28.9675H35.0999L34.6858 27.6839L34.661 27.5266L34.6444 27.568L34.6113 27.4686L34.5533 27.8496L34.189 28.9675H33.0047L32.6321 28.9096L32.7232 28.9675H32.6735L32.8143 29.0421L33.9074 29.8371L33.5679 30.8971L33.394 31.2366L33.4768 31.1703L33.4602 31.2118L33.5679 31.1041L34.6113 30.3505L35.6547 31.1041L35.7624 31.2118L35.7541 31.1703L35.8369 31.2366L35.663 30.8971L35.3152 29.8371L36.4166 29.0421Z" fill="#CC142B"/>
<path d="M-6 -0.000244141H20.5V19.8748H-6V-0.000244141Z" fill="#012169"/>
<path d="M-2.89453 -0.000244141L7.20859 7.49429L17.2703 -0.000244141H20.5V2.56694L10.5625 9.97866L20.5 17.349V19.8748H17.1875L7.25 12.463L-2.64609 19.8748H-6V17.3904L3.89609 10.0201L-6 2.64976V-0.000244141H-2.89453Z" fill="white"/>
<path d="M11.5563 11.6349L20.5 18.2185V19.8748L9.27891 11.6349H11.5563ZM3.9375 12.463L4.18594 13.9123L-3.76406 19.8748H-6L3.9375 12.463ZM20.5 -0.000244141V0.123975L10.1898 7.90835L10.2727 6.08647L18.4297 -0.000244141H20.5ZM-6 -0.000244141L3.89609 7.28726H1.41172L-6 1.73882V-0.000244141Z" fill="#C8102E"/>
<path d="M3.97891 -0.000244141V19.8748H10.6039V-0.000244141H3.97891ZM-6 6.62476V13.2498H20.5V6.62476H-6Z" fill="white"/>
<path d="M-6 7.99116V11.9662H20.5V7.99116H-6ZM5.30391 -0.000244141V19.8748H9.27891V-0.000244141H5.30391Z" fill="#C8102E"/>
</g>
</g>
<defs>
<clipPath id="clip0_769_20846">
<path d="M0 20C0 8.95431 8.95431 0 20 0C31.0457 0 40 8.95431 40 20C40 31.0457 31.0457 40 20 40C8.95431 40 0 31.0457 0 20Z" fill="white"/>
</clipPath>
<clipPath id="clip1_769_20846">
<rect width="53" height="39.75" fill="white" transform="translate(-6 -0.000244141)"/>
</clipPath>
</defs>
</svg>
