<svg width="40" height="40" viewBox="0 0 40 40" fill="none" xmlns="http://www.w3.org/2000/svg">
<g clip-path="url(#clip0_769_20723)">
<path d="M0 20C0 8.95431 8.95431 0 20 0C31.0457 0 40 8.95431 40 20C40 31.0457 31.0457 40 20 40C8.95431 40 0 31.0457 0 20Z" fill="#E94E0F"/>
<g clip-path="url(#clip1_769_20723)">
<path d="M-7 -0.000488281H46.3333V39.9995H-7V-0.000488281Z" fill="#0067C6"/>
<path d="M-7 13.3329H46.3333V26.6662H-7V13.3329Z" fill="white"/>
<path d="M13.6667 19.9578L14.3334 19.9995V19.8995L14.0834 19.8828L14.1001 19.5662L14.3751 19.3662L14.3834 19.2412L14.0917 19.4495C14.0834 19.3828 14.0417 19.3078 13.9751 19.2828C13.9084 19.2662 13.8417 19.2662 13.7834 19.3078C13.7167 19.3578 13.7001 19.4412 13.7001 19.5162L13.6667 19.9578ZM13.7667 19.8662L13.7917 19.5328C13.8001 19.4828 13.8084 19.4162 13.8584 19.3828C13.869 19.3758 13.881 19.3712 13.8936 19.3695C13.9062 19.3678 13.9191 19.369 13.9311 19.373C13.9432 19.3771 13.9542 19.3838 13.9632 19.3927C13.9723 19.4016 13.9792 19.4125 13.9834 19.4245C14.0167 19.5078 14.0001 19.5995 13.9917 19.6912L13.9834 19.8745L13.7667 19.8662ZM13.7501 18.9328L14.4001 19.0828L14.5501 18.4495C14.5195 18.444 14.489 18.4385 14.4584 18.4328L14.3334 18.9662L14.1334 18.9245L14.2501 18.4412L14.1584 18.4162L14.0417 18.8995L13.8751 18.8578L13.9917 18.3412L13.8917 18.3245L13.7501 18.9328ZM13.9834 18.0578L14.6167 18.2828L14.6501 18.1912L14.4001 18.1078L14.5001 17.8162C14.5167 17.7328 14.5334 17.6495 14.4917 17.5662C14.4723 17.5403 14.4472 17.5193 14.4183 17.5048C14.3893 17.4904 14.3574 17.4828 14.3251 17.4828C14.2417 17.4828 14.1917 17.5412 14.1584 17.6078C14.1084 17.6912 14.0751 17.7912 14.0501 17.8912L13.9834 18.0578ZM14.1084 17.9995L14.2084 17.7162C14.2334 17.6662 14.2584 17.6078 14.3167 17.5912C14.3283 17.5888 14.3403 17.5889 14.3518 17.5914C14.3634 17.594 14.3742 17.599 14.3837 17.6061C14.3931 17.6132 14.401 17.6222 14.4067 17.6326C14.4124 17.6429 14.4158 17.6544 14.4167 17.6662C14.4334 17.7495 14.3917 17.8328 14.3667 17.9162L14.3084 18.0745L14.1084 17.9995ZM14.3334 17.2495L14.6917 17.4662C14.7584 17.4995 14.8417 17.5162 14.9167 17.4828C15.0071 17.4216 15.0768 17.3344 15.1167 17.2328C15.1501 17.1495 15.1834 17.0495 15.1334 16.9662C15.0834 16.8828 14.9917 16.8495 14.9084 16.7995L14.6834 16.6662L14.6334 16.7495L14.9667 16.9495C15.0251 16.9828 15.0667 17.0328 15.0584 17.1078C15.0418 17.1841 15.0076 17.2555 14.9584 17.3162C14.9251 17.3662 14.8584 17.4078 14.7917 17.3995C14.7251 17.3828 14.6667 17.3328 14.6084 17.2995L14.3834 17.1745L14.3334 17.2578V17.2495ZM14.8167 16.4745L15.3417 16.8745L15.5917 16.5578C15.6417 16.4828 15.6751 16.3912 15.6501 16.3078C15.6346 16.2758 15.6111 16.2482 15.582 16.2278C15.5528 16.2074 15.5189 16.1948 15.4834 16.1912C15.4417 16.1912 15.4001 16.2162 15.3834 16.2245C15.4001 16.1495 15.3417 16.0828 15.2834 16.0662C15.2001 16.0412 15.1167 16.0912 15.0667 16.1495L14.9001 16.3578L14.8167 16.4745ZM14.9501 16.4495C15.0084 16.3662 15.0667 16.2828 15.1334 16.2162C15.1667 16.1828 15.2167 16.1328 15.2584 16.1662C15.3001 16.1828 15.3167 16.2412 15.2917 16.2745C15.2584 16.3495 15.2084 16.3995 15.1584 16.4662L15.0917 16.5578L14.9501 16.4495ZM15.1667 16.6162L15.3584 16.3662C15.3917 16.3328 15.4417 16.2828 15.4917 16.2995C15.5417 16.3078 15.5751 16.3578 15.5584 16.4078C15.5334 16.4912 15.4667 16.5578 15.4084 16.6328L15.3251 16.7412L15.1584 16.6162H15.1667ZM15.4167 15.7662L15.8751 16.2495L16.2667 15.8745L16.2001 15.8078L15.8834 16.1078H15.8751L15.4834 15.6912L15.4167 15.7662ZM16.0001 15.2495L16.4084 15.7745L16.4917 15.7162L16.0751 15.1912L16.0001 15.2495ZM16.6001 14.8412C16.535 14.8794 16.4783 14.9304 16.4334 14.9912C16.3956 15.0413 16.3744 15.102 16.3729 15.1648C16.3714 15.2276 16.3897 15.2893 16.4251 15.3412C16.4574 15.3942 16.5034 15.4374 16.5584 15.4662C16.6096 15.4931 16.6675 15.5047 16.7251 15.4995C16.8054 15.4889 16.8823 15.4604 16.9501 15.4162C17.0195 15.3764 17.077 15.3189 17.1167 15.2495C17.1501 15.1828 17.1584 15.1162 17.1417 15.0495L17.0584 15.0828C17.0751 15.2162 16.9917 15.2828 16.8917 15.3328C16.7417 15.4328 16.6001 15.4245 16.5084 15.2912C16.4167 15.1328 16.5084 15.0078 16.6417 14.9245C16.7334 14.8662 16.8251 14.8245 16.9084 14.8828L16.9834 14.8162C16.935 14.7813 16.8763 14.7637 16.8167 14.7662C16.7417 14.7662 16.6751 14.7995 16.6001 14.8495V14.8412ZM17.3917 14.4495L17.3167 15.1995L17.4251 15.1578L17.4417 14.9245L17.7751 14.7912L17.9584 14.9412L18.0584 14.8995L17.4917 14.4078L17.3917 14.4495ZM17.4751 14.5328L17.7001 14.7162L17.4501 14.8162L17.4751 14.5245V14.5328ZM18.8501 14.0328L18.8917 14.6995L19.2501 14.6828C19.3501 14.6662 19.4501 14.6495 19.5084 14.5662C19.5917 14.4828 19.6084 14.3412 19.5667 14.2245C19.551 14.1739 19.5217 14.1285 19.482 14.0932C19.4424 14.058 19.3939 14.0342 19.3417 14.0245C19.2417 14.0078 19.1417 14.0245 19.0417 14.0245L18.8501 14.0412V14.0328ZM18.9501 14.1245L19.2417 14.1162C19.2949 14.1137 19.3475 14.1283 19.3917 14.1578C19.4584 14.2078 19.5001 14.2828 19.4917 14.3662C19.4881 14.4127 19.4701 14.4569 19.4403 14.4927C19.4104 14.5286 19.3702 14.5542 19.3251 14.5662C19.2751 14.5828 19.2167 14.5828 19.1667 14.5912L18.9834 14.5995L18.9501 14.1245ZM19.7834 13.9995L19.7417 14.6662L20.3917 14.6995V14.6078L19.8417 14.5745L19.8501 14.3745L20.3501 14.3995V14.3078L19.8584 14.2828L19.8667 14.0995L20.4001 14.1328V14.0328L19.7751 13.9995H19.7834ZM21.5167 14.2745L21.2751 14.8995L21.3584 14.9328L21.5584 14.4328V14.4162L21.5751 14.4412L21.8084 15.1078L21.9167 15.1495L22.1584 14.5245L22.0751 14.4912L21.8834 14.9912L21.8751 15.0078L21.8584 14.9828L21.6334 14.3162L21.5167 14.2745ZM22.4167 14.6662L22.1084 15.2495L22.0251 15.2078L22.3251 14.6162L22.4167 14.6662ZM22.9167 14.9578C22.8562 14.9173 22.7882 14.889 22.7167 14.8745C22.6551 14.857 22.5895 14.8597 22.5295 14.8822C22.4696 14.9047 22.4184 14.9458 22.3834 14.9995C22.3512 15.0523 22.334 15.1127 22.3334 15.1745C22.3334 15.2328 22.3417 15.2912 22.3834 15.3495C22.4167 15.4078 22.4667 15.4578 22.5501 15.5162C22.6172 15.5618 22.6944 15.5904 22.7751 15.5995C22.841 15.6014 22.9057 15.5808 22.9584 15.5412L22.8917 15.4662C22.7751 15.5495 22.6834 15.4912 22.5917 15.4328C22.4417 15.3328 22.3834 15.1995 22.4751 15.0578C22.5751 14.9078 22.7334 14.9495 22.8667 15.0328C22.9501 15.0912 23.0334 15.1578 23.0167 15.2578L23.1001 15.2912C23.11 15.2344 23.1012 15.1759 23.0751 15.1245C23.0417 15.0578 22.9917 15.0078 22.9167 14.9578ZM23.5501 15.4328L22.8584 15.7162L22.9417 15.7912L23.1584 15.7078L23.4334 15.9412L23.3751 16.1662L23.4584 16.2412L23.6334 15.5078L23.5501 15.4328ZM23.5251 15.5495L23.4584 15.8328L23.2501 15.6662L23.5251 15.5495ZM24.0584 15.8995L23.5417 16.3162L23.6001 16.3995L23.8084 16.2328L24.0084 16.4828L23.9501 16.8162L24.0251 16.9078L24.0917 16.5578C24.1501 16.5995 24.2334 16.6245 24.3001 16.5912C24.3584 16.5578 24.4167 16.5078 24.4167 16.4412C24.4167 16.3495 24.3584 16.2745 24.3084 16.2078L24.0584 15.8995ZM24.0417 16.0328L24.2584 16.2995C24.2917 16.3495 24.3334 16.4162 24.2917 16.4662C24.2667 16.5162 24.2001 16.5162 24.1584 16.4828C24.0751 16.4245 24.0251 16.3412 23.9584 16.2662L23.8751 16.1745L24.0417 16.0328ZM24.8334 16.9578L24.0834 16.9912L24.1417 17.0912L24.3751 17.0828L24.5584 17.3995L24.4251 17.5912L24.4834 17.6912L24.8917 17.0578L24.8334 16.9578ZM24.7751 17.0578L24.6084 17.3078L24.4834 17.0745L24.7751 17.0578ZM25.2667 17.8412C25.2251 17.7328 25.1584 17.6162 25.0417 17.5578C24.9787 17.5287 24.9079 17.5211 24.8402 17.5362C24.7724 17.5512 24.7115 17.5881 24.6667 17.6412C24.5834 17.7245 24.5834 17.8495 24.6084 17.9662C24.6334 18.0912 24.6917 18.2162 24.7751 18.3078L24.7251 18.3245L24.7584 18.4162L25.0751 18.3078L24.9501 17.9662L24.8834 17.9912L24.9667 18.2412L24.8667 18.2828C24.7763 18.1985 24.715 18.0876 24.6917 17.9662C24.6667 17.8745 24.6667 17.7662 24.7334 17.6995C24.8167 17.6162 24.9501 17.5912 25.0417 17.6578C25.1334 17.7245 25.1834 17.8328 25.2084 17.9412C25.2334 18.0162 25.2251 18.0995 25.1751 18.1578C25.1584 18.1578 25.1751 18.1828 25.1834 18.1912L25.2084 18.2328C25.2366 18.2113 25.2596 18.1836 25.2755 18.1518C25.2913 18.12 25.2998 18.085 25.3001 18.0495C25.3017 17.9786 25.2904 17.908 25.2667 17.8412ZM25.4584 18.3662L25.0834 18.4328C25.0258 18.4412 24.9713 18.4642 24.9251 18.4995C24.8889 18.5321 24.8654 18.5763 24.8584 18.6245V18.8245C24.8834 18.9078 24.9084 18.9662 24.9417 19.0162C24.9667 19.0662 25.0001 19.0995 25.0417 19.0995C25.0964 19.1136 25.1538 19.1136 25.2084 19.0995L25.5834 19.0328L25.5667 18.9412L25.2001 19.0078C25.0334 19.0412 24.9834 18.9578 24.9501 18.8078C24.9251 18.6578 24.9501 18.5578 25.1084 18.5328L25.4751 18.4578L25.4584 18.3662ZM25.6584 19.4995L24.9667 19.1995L24.9751 19.3162L25.1917 19.3995L25.2167 19.7662L25.0167 19.8912L25.0251 19.9995L25.6667 19.6078L25.6584 19.4995ZM25.5584 19.5578L25.3084 19.7162L25.2917 19.4495L25.5584 19.5578ZM14.1834 21.2245L14.0834 21.2495L14.1917 21.6578L14.2917 21.6328L14.1834 21.2245ZM25.1501 21.2245L25.2501 21.2495L25.1417 21.6578L25.0417 21.6328L25.1501 21.2245ZM15.2167 22.9328L14.4667 23.0162L14.5334 23.1078L14.7667 23.0828L14.9667 23.3828L14.8501 23.5912L14.9167 23.6745L15.2751 23.0245L15.2167 22.9328ZM15.1584 23.0412L15.0167 23.2912L14.8667 23.0745L15.1584 23.0412ZM15.5001 23.3412L15.0251 23.7828L15.0917 23.8495L15.4917 23.4745L15.2751 24.0578L15.3584 24.1328L15.9251 23.9662L15.5334 24.3245L15.6001 24.3912L16.0751 23.9495L15.9751 23.8495L15.3917 24.0162L15.6084 23.4578L15.5001 23.3412ZM16.1917 24.0412L15.7917 24.5828L16.3084 24.9662L16.3667 24.8912L15.9251 24.5578L16.0501 24.3912L16.4417 24.6995L16.5001 24.6162L16.1084 24.3245L16.2167 24.1828L16.6334 24.4995L16.6917 24.4162L16.1917 24.0412ZM16.8417 24.5245L16.5334 25.1078L16.6167 25.1578L16.7417 24.9245L17.0251 25.0745L17.0917 25.4078L17.2001 25.4662L17.1251 25.1162C17.2001 25.1412 17.2917 25.1245 17.3334 25.0662C17.3751 25.0162 17.4084 24.9578 17.3834 24.8912C17.3667 24.8078 17.2751 24.7578 17.2084 24.7162L16.8417 24.5245ZM16.8834 24.6495L17.1834 24.8162C17.2334 24.8495 17.2917 24.8912 17.2834 24.9495C17.2834 25.0078 17.2251 25.0328 17.1751 25.0245C17.0751 25.0078 16.9917 24.9495 16.9084 24.9078L16.7834 24.8412L16.8834 24.6495ZM17.6001 24.9162L17.3501 25.5328L17.4334 25.5745L17.6834 24.9578L17.6001 24.9162ZM18.2001 25.1245C18.1308 25.0992 18.0571 25.0879 17.9834 25.0912C17.9192 25.0922 17.8571 25.1138 17.8061 25.1528C17.7551 25.1918 17.7179 25.2462 17.7001 25.3078C17.6849 25.3652 17.6849 25.4255 17.7001 25.4828C17.7001 25.5495 17.7334 25.5995 17.7834 25.6495C17.8409 25.7005 17.9093 25.7376 17.9834 25.7578C18.0609 25.7854 18.1445 25.7911 18.2251 25.7745C18.2907 25.7619 18.3497 25.7265 18.3917 25.6745L18.3084 25.6245C18.2251 25.7328 18.1167 25.7078 18.0084 25.6662C17.8417 25.6078 17.7501 25.4995 17.8001 25.3328C17.8584 25.1662 18.0251 25.1662 18.1667 25.2078C18.2667 25.2412 18.3584 25.2912 18.3667 25.3828L18.4667 25.3995C18.4622 25.3369 18.4356 25.2778 18.3917 25.2328C18.3378 25.1814 18.272 25.1442 18.2001 25.1245ZM18.8667 25.2745L18.4334 25.8828L18.5417 25.8995L18.6751 25.7078L19.0417 25.7662L19.1167 25.9828L19.2251 25.9995L18.9751 25.2912L18.8667 25.2745ZM18.9084 25.3828L19.0084 25.6662L18.7417 25.6245L18.9084 25.3828ZM20.4334 25.2828C20.3501 25.2912 20.2917 25.3162 20.2334 25.3578C20.1783 25.3899 20.1349 25.4387 20.1094 25.4972C20.084 25.5556 20.0778 25.6207 20.0917 25.6828C20.1001 25.7412 20.1251 25.7912 20.1751 25.8495C20.2084 25.8912 20.2584 25.9162 20.3251 25.9328C20.3834 25.9495 20.4667 25.9495 20.5584 25.9328C20.6417 25.9162 20.7251 25.8828 20.7751 25.8328C20.8239 25.7895 20.8563 25.7306 20.8667 25.6662H20.7667C20.7417 25.7995 20.6417 25.8328 20.5334 25.8495C20.3584 25.8828 20.2251 25.8245 20.1917 25.6578C20.1584 25.4828 20.3001 25.3995 20.4417 25.3662C20.5501 25.3495 20.6501 25.3412 20.7084 25.4245L20.7917 25.3912C20.7605 25.3413 20.7136 25.3033 20.6584 25.2828C20.5846 25.2638 20.5072 25.2638 20.4334 25.2828ZM20.8751 25.1995L21.0667 25.8412L21.6917 25.6578L21.6584 25.5662L21.1334 25.7245L21.0751 25.5245L21.5501 25.3828L21.5251 25.2995L21.0501 25.4328L21.0001 25.2662L21.5001 25.1162L21.4751 25.0245L20.8751 25.1995ZM21.6001 24.9745L21.8751 25.5828L21.9584 25.5412L21.7251 25.0412L22.3751 25.3328H22.4167L22.5001 25.2912L22.2167 24.6828L22.1334 24.7245L22.3667 25.2245L21.7001 24.9245L21.6001 24.9745ZM22.3334 24.6328L22.3834 24.7162L22.6167 24.5495H22.6334L22.9417 25.0245L23.0251 24.9662L22.7167 24.4995V24.4912L22.9584 24.3245L22.9084 24.2495L22.3334 24.6328ZM23.0001 24.1662L23.4501 24.6662L23.5251 24.5912L23.3501 24.3995L23.5834 24.1828L23.9167 24.2328L24.0167 24.1495L23.6584 24.0995C23.7001 24.0412 23.7167 23.9495 23.6751 23.8828C23.6417 23.8245 23.5917 23.7745 23.5167 23.7828C23.4334 23.7828 23.3501 23.8495 23.2917 23.8995L23.0001 24.1745V24.1662ZM23.1334 24.1745L23.3834 23.9412C23.4334 23.9078 23.5001 23.8662 23.5501 23.8995C23.6084 23.9245 23.6084 23.9912 23.5751 24.0328C23.5251 24.1162 23.4501 24.1745 23.3751 24.2495L23.2834 24.3328L23.1334 24.1662V24.1745ZM23.7751 23.3912L24.0751 24.0828L24.1417 23.9995L24.0584 23.7828L24.2834 23.4995L24.5084 23.5495L24.5834 23.4662L23.8501 23.2995L23.7751 23.3912ZM23.8917 23.4162L24.1834 23.4745L24.0167 23.6828L23.8917 23.4162ZM24.0667 23.0162L24.6251 23.3745L24.9167 22.9245L24.8334 22.8745L24.6084 23.2328L24.6001 23.2495H24.5917L24.1167 22.9328L24.0667 23.0162Z" fill="#C8A400"/>
<path d="M19.6667 15.0928L17.5667 18.7262L16.54 20.5062H22.7934L21.8134 18.8128L19.6667 15.0928Z" fill="white"/>
<path opacity="0.6" d="M19.6663 15.0929L19.5063 15.3595L19.6663 19.0262L19.8263 15.3595L19.6663 15.0929Z" fill="#17C0EB" stroke="#17C0EB" stroke-width="0.00666667"/>
<path d="M19.6663 18.4995H19.6597L19.6663 18.6995L19.673 18.4995H19.6663Z" fill="white"/>
<path d="M19.6665 17.7195C18.9564 17.7187 18.2698 17.9744 17.7332 18.4395L16.7599 20.1328C16.725 20.3152 16.7072 20.5005 16.7065 20.6862H17.0399C17.0738 20.0133 17.365 19.3792 17.8533 18.9149C18.3415 18.4507 18.9895 18.1918 19.6632 18.1918C20.3369 18.1918 20.9849 18.4507 21.4732 18.9149C21.9614 19.3792 22.2526 20.0133 22.2865 20.6862H22.6199C22.6215 20.5007 22.6058 20.3155 22.5732 20.1328L21.5999 18.4395C21.0629 17.9749 20.3766 17.7193 19.6665 17.7195Z" fill="#FF0000"/>
<path d="M19.6667 17.7795C18.9133 17.7779 18.1888 18.0696 17.6467 18.5928L16.8467 19.9862C16.79 20.213 16.7609 20.4458 16.76 20.6795H17.0467C17.094 20.0169 17.3905 19.3969 17.8767 18.9442C18.3628 18.4915 19.0024 18.2399 19.6667 18.2399C20.3309 18.2399 20.9705 18.4915 21.4567 18.9442C21.9428 19.3969 22.2394 20.0169 22.2867 20.6795H22.5733C22.5728 20.4435 22.5437 20.2085 22.4867 19.9795L21.6867 18.5928C21.1446 18.0696 20.4201 17.7779 19.6667 17.7795Z" fill="#FF6600"/>
<path d="M19.6667 17.8328C19.2639 17.8318 18.8655 17.9162 18.4978 18.0805C18.13 18.2449 17.8013 18.4854 17.5334 18.7862L16.9534 19.7862C16.861 20.0771 16.816 20.381 16.8201 20.6862H17.0401C17.074 20.0133 17.3652 19.3792 17.8535 18.9149C18.3417 18.4507 18.9897 18.1918 19.6634 18.1918C20.3371 18.1918 20.9851 18.4507 21.4734 18.9149C21.9616 19.3792 22.2528 20.0133 22.2867 20.6862H22.5201C22.5201 20.3728 22.4667 20.0728 22.3801 19.7928L21.7934 18.7862C21.5265 18.4859 21.199 18.2456 20.8324 18.0813C20.4658 17.917 20.0685 17.8323 19.6667 17.8328Z" fill="#FFFF00"/>
<path d="M19.6667 17.8862C19.2069 17.8859 18.7541 17.9989 18.3483 18.2152C17.9425 18.4315 17.5962 18.7443 17.34 19.1262L17.1534 19.4528C16.9644 19.8365 16.8664 20.2585 16.8667 20.6862H17.0467C17.094 20.0236 17.3906 19.4036 17.8767 18.9509C18.3628 18.4982 19.0024 18.2465 19.6667 18.2465C20.331 18.2465 20.9706 18.4982 21.4567 18.9509C21.9428 19.4036 22.2394 20.0236 22.2867 20.6862H22.4667C22.467 20.2585 22.369 19.8365 22.18 19.4528L21.9934 19.1195C21.7372 18.7377 21.3909 18.4248 20.9851 18.2085C20.5793 17.9923 20.1265 17.8793 19.6667 17.8795V17.8862Z" fill="#00FF00"/>
<path d="M19.6666 17.9329C19.3053 17.9329 18.9476 18.0041 18.614 18.1426C18.2803 18.281 17.9772 18.4839 17.722 18.7397C17.4669 18.9955 17.2647 19.299 17.1271 19.633C16.9895 19.9671 16.9191 20.3249 16.9199 20.6862H17.0466C17.0939 20.0236 17.3905 19.4036 17.8766 18.9509C18.3627 18.4982 19.0023 18.2466 19.6666 18.2466C20.3309 18.2466 20.9704 18.4982 21.4566 18.9509C21.9427 19.4036 22.2393 20.0236 22.2866 20.6862H22.4133C22.4141 20.3249 22.3437 19.9671 22.2061 19.633C22.0685 19.299 21.8663 18.9955 21.6111 18.7397C21.356 18.4839 21.0529 18.281 20.7192 18.1426C20.3856 18.0041 20.0279 17.9329 19.6666 17.9329Z" fill="#00CCFF"/>
<path d="M19.6667 17.9862C18.9524 17.9862 18.2673 18.2699 17.7622 18.775C17.2571 19.2801 16.9734 19.9652 16.9734 20.6795H17.0667C17.0667 19.9899 17.3406 19.3286 17.8282 18.841C18.3158 18.3534 18.9772 18.0795 19.6667 18.0795C20.3563 18.0795 21.0176 18.3534 21.5052 18.841C21.9928 19.3286 22.2667 19.9899 22.2667 20.6795H22.3601C22.3565 19.9675 22.0712 19.2859 21.5665 18.7836C21.0618 18.2814 20.3787 17.9995 19.6667 17.9995V17.9862Z" fill="#0000FF"/>
<path d="M19.6668 18.0462C19.3161 18.0461 18.969 18.1159 18.6456 18.2515C18.3222 18.3871 18.0291 18.5857 17.7833 18.8358C17.5376 19.086 17.3441 19.3825 17.2142 19.7082C17.0843 20.0339 17.0206 20.3823 17.0268 20.7329H17.0801V20.6795C17.0872 19.9935 17.3665 19.3384 17.8566 18.8583C18.3467 18.3782 19.0074 18.1124 19.6934 18.1195C20.3795 18.1266 21.0346 18.4059 21.5147 18.896C21.9948 19.3861 22.2605 20.0468 22.2534 20.7329H22.3068V20.6795C22.3068 20.3328 22.2385 19.9895 22.1058 19.6692C21.9731 19.3489 21.7787 19.0579 21.5335 18.8128C21.2884 18.5676 20.9974 18.3732 20.6771 18.2405C20.3568 18.1078 20.0135 18.0395 19.6668 18.0395V18.0462Z" fill="#800080"/>
<path d="M19.6934 19.2062C19.6468 19.2062 19.6134 19.1728 19.5734 19.1662C19.554 19.1833 19.5394 19.2053 19.5312 19.2299C19.523 19.2545 19.5215 19.2808 19.5268 19.3062C19.5468 19.3128 19.5468 19.3328 19.5868 19.3662C19.6268 19.3995 19.6201 19.4128 19.6134 19.4995C19.6134 19.5262 19.6201 19.5995 19.6534 19.6062C19.6868 19.6128 19.7201 19.5862 19.7268 19.5262C19.7334 19.4795 19.7534 19.4462 19.7734 19.4195C19.7934 19.2928 19.7601 19.2462 19.6934 19.2062Z" fill="#510000"/>
<path d="M19.4799 18.8995C19.4399 18.8995 19.3733 18.9662 19.3466 18.9328C19.3333 18.9128 19.3266 18.8728 19.3466 18.8395C19.3766 18.7732 19.4284 18.7191 19.4933 18.6862C19.6466 18.5928 19.7533 18.6195 19.8266 18.7528C19.8999 18.8728 19.9733 19.0062 19.9799 19.1128C19.9799 19.1462 19.9999 19.2062 19.9666 19.2395C19.8799 19.3328 19.6599 19.1395 19.5333 19.1728C19.4933 19.1795 19.4399 19.2128 19.3999 19.1862C19.3733 19.1662 19.3999 19.1195 19.4199 19.0995C19.4599 19.0662 19.5199 18.9395 19.5133 18.8862C19.5133 18.8595 19.5133 18.8995 19.4799 18.8995Z" fill="#FF0000"/>
<path d="M19.4666 18.8395C19.3866 18.8662 19.3999 18.9062 19.3599 18.9395C19.3732 18.9462 19.4132 18.9595 19.4532 18.9195C19.4666 18.9062 19.4866 18.8995 19.4999 18.8995L19.4532 18.9462C19.4136 18.9788 19.3818 19.0198 19.3599 19.0662C19.3399 19.1195 19.3332 19.1795 19.3399 19.1862C19.3399 19.1862 19.3666 19.2395 19.4399 19.2662C19.5732 19.3195 19.5999 19.4328 19.7399 19.4328C19.8466 19.4328 19.8332 19.3595 19.9199 19.3728C19.9866 19.3862 20.0332 19.3262 19.9599 19.2928C19.841 19.2695 19.7188 19.2695 19.5999 19.2928C19.5732 19.0262 19.5999 19.1195 19.5932 18.9995C19.5866 18.8862 19.5466 18.8795 19.5932 18.7795C19.5599 18.8462 19.5132 18.8328 19.4599 18.8328L19.4666 18.8395Z" fill="url(#paint0_linear_769_20723)"/>
<path d="M19.7332 18.6528L19.7266 18.6928L19.7466 18.7595L19.7599 18.8262C19.7599 18.8462 19.7866 18.8528 19.8066 18.8662C19.8332 18.8862 19.8066 18.9328 19.8266 18.9395C19.8399 18.9395 19.8599 18.8728 19.8599 18.8595V18.8128C19.8495 18.7925 19.8383 18.7725 19.8266 18.7528C19.8225 18.7459 19.818 18.7393 19.8132 18.7328C19.7984 18.7104 19.7805 18.6902 19.7599 18.6728C19.7534 18.6681 19.7468 18.6636 19.7399 18.6595L19.7266 18.6528H19.7332Z" fill="#FF2A2A"/>
<path d="M19.7534 19.1595L19.62 19.1128C19.5334 19.0862 19.4467 19.0328 19.3867 19.0595C19.3667 19.0662 19.3667 19.0862 19.36 19.1195C19.36 19.1528 19.3267 19.2062 19.36 19.1862C19.4 19.1595 19.52 19.2395 19.56 19.2595C19.58 19.2728 19.6267 19.2995 19.6334 19.3262C19.6467 19.3662 19.6334 19.4462 19.6334 19.4862C19.6334 19.5195 19.6467 19.6062 19.68 19.6195C19.72 19.6262 19.7534 19.5928 19.7667 19.5328C19.7867 19.4728 19.7934 19.4395 19.82 19.4062C19.8467 19.3728 19.8734 19.3528 19.9067 19.3462C19.9467 19.3462 20 19.3795 20 19.3328C20 19.3062 19.9734 19.2795 19.9867 19.2395C19.9934 19.2062 19.96 19.2128 19.9267 19.1995L19.7467 19.1595H19.7534Z" fill="url(#paint1_linear_769_20723)"/>
<path d="M19.5599 19.2595C19.5333 19.2462 19.4066 19.1595 19.3599 19.1928C19.3399 19.1928 19.3333 19.1928 19.3333 19.1728L19.3466 19.1128C19.3466 19.0928 19.3599 19.0595 19.3799 19.0462C19.4266 19.0062 19.5333 19.0795 19.5866 19.0995L19.5599 19.2595Z" fill="#910000"/>
<path d="M19.7868 19.4262C19.8468 19.3195 19.8868 19.3329 19.9601 19.3329C19.9868 19.3329 19.9934 19.3129 19.9868 19.2862C19.9668 19.3262 19.8734 19.2862 19.8201 19.3062C19.7201 19.3529 19.7401 19.5529 19.6868 19.5729C19.7401 19.6195 19.7601 19.4595 19.7868 19.4262Z" fill="#FF3A3A"/>
<path d="M16.5397 20.5062L15.873 21.6595H23.4664L22.7997 20.5128H16.5464L16.5397 20.5062Z" fill="white"/>
<path d="M16.313 21.4262C16.2082 21.426 16.1035 21.4327 15.9996 21.4462L15.9663 21.5062C16.1263 21.4862 16.2796 21.4595 16.4463 21.4595C16.6596 21.4595 16.8596 21.5129 17.093 21.5129H17.3996C17.633 21.5129 17.8263 21.4595 18.0463 21.4595C18.2663 21.4595 18.4663 21.5129 18.6996 21.5129H19.0063C19.2396 21.5129 19.433 21.4595 19.653 21.4595C19.873 21.4595 20.073 21.5129 20.3063 21.5129H20.6063C20.8396 21.5129 21.0396 21.4595 21.2596 21.4595C21.4796 21.4595 21.6796 21.5129 21.913 21.5129H22.213C22.4463 21.5129 22.6463 21.4595 22.8663 21.4595C23.0396 21.4595 23.1996 21.4929 23.3663 21.5062L23.333 21.4395C23.2355 21.4294 23.1376 21.425 23.0396 21.4262H22.7396C22.5063 21.4262 22.3063 21.4729 22.0863 21.4795C21.8663 21.4795 21.6663 21.4262 21.433 21.4262H21.133C20.8996 21.4262 20.6996 21.4729 20.4796 21.4795C20.2596 21.4795 20.0596 21.4262 19.8263 21.4262H19.533C19.2996 21.4262 19.0996 21.4729 18.8796 21.4795C18.6596 21.4795 18.4596 21.4262 18.2263 21.4262H17.9263C17.693 21.4262 17.493 21.4729 17.273 21.4795C17.053 21.4795 16.8596 21.4262 16.6263 21.4262H16.3196H16.313Z" fill="url(#paint2_linear_769_20723)"/>
<path d="M16.5464 20.4995V20.5128H22.793L22.7864 20.4995H16.5464ZM16.533 20.5195L16.5264 20.5395H22.7997L22.793 20.5195H16.5264H16.533ZM16.5197 20.5462L16.5064 20.5662H22.8264L22.813 20.5462H16.5197ZM16.4997 20.5795L16.4797 20.6128H22.853L22.833 20.5795H16.4997ZM16.473 20.6262L16.453 20.6595H22.8797L22.8597 20.6262H16.473ZM16.4464 20.6728L16.433 20.6995H22.8997L22.8864 20.6728H16.4464ZM16.4197 20.7195L16.4064 20.7462H22.933L22.913 20.7195H16.4197ZM16.393 20.7662L16.373 20.8062H22.9597L22.9397 20.7662H16.3997H16.393Z" fill="url(#paint3_linear_769_20723)"/>
<path d="M16.8264 20.8195C17.0531 20.8662 17.0731 20.8195 17.0731 20.8195H16.8264ZM22.2598 20.8195C22.2598 20.8195 22.2797 20.8662 22.5064 20.8195H22.2598Z" fill="url(#paint4_linear_769_20723)"/>
<path d="M21.7067 19.7995C21.5934 19.7995 21.56 19.8595 21.56 19.8595C21.38 20.5662 20.7734 21.2795 20.0534 21.2795H19.52V21.9995H23.6134L23.2 21.2662C22.5534 21.1728 22.0267 20.5128 21.86 19.8595C21.86 19.8595 21.82 19.7995 21.7067 19.7995Z" fill="url(#paint5_linear_769_20723)"/>
<path d="M21.7067 19.8328C21.6534 19.8328 21.6267 19.8395 21.6067 19.8528L21.5867 19.8728C21.4867 20.242 21.294 20.5793 21.0267 20.8528C20.76 21.1262 20.4267 21.3128 20.0534 21.3128H19.54V21.9728H23.6L23.22 21.3062C22.9067 21.2595 22.62 21.0928 22.3934 20.8528C22.1261 20.5793 21.9333 20.242 21.8334 19.8728L21.8134 19.8528C21.7806 19.8358 21.7435 19.8288 21.7067 19.8328Z" fill="#97C924"/>
<path d="M21.7066 19.8329H21.7333V20.5529C21.7269 20.7043 21.6809 20.8514 21.6 20.9795C21.5666 21.0862 21.5333 21.0462 21.4466 21.1729C21.3342 21.2116 21.218 21.2384 21.1 21.2529C20.9333 21.2795 20.5666 21.3062 20.3733 21.2595C20.6214 21.1836 20.8462 21.046 21.0266 20.8595C21.0762 20.8065 21.123 20.7509 21.1666 20.6929C21.2409 20.6005 21.3078 20.5024 21.3666 20.3995L21.4333 20.2662C21.4652 20.2031 21.4941 20.1386 21.52 20.0729C21.5457 20.0074 21.568 19.9407 21.5866 19.8729L21.6066 19.8529L21.6466 19.8395L21.7133 19.8329H21.7066Z" fill="#EDE71F"/>
<path d="M21.6667 19.9262C21.6333 20.3262 21.5133 20.8062 21.22 21.1128C21.1133 21.1995 20.9733 21.2862 20.8467 21.2662C21.2933 20.8995 21.5667 20.3328 21.66 19.9262H21.6667Z" fill="#C6CB24"/>
<path d="M21.3 20.6195C21.2334 20.7995 20.98 21.0662 20.7134 21.2862H20.52C20.6867 21.2728 21.0734 20.9528 21.3 20.6195Z" fill="#9ECB34"/>
<path d="M19.8134 19.8662C20.0001 20.5662 20.6001 21.2795 21.3201 21.2795H21.8601V21.9995H17.4734V21.2795H18.0067C18.7267 21.2795 19.3334 20.5662 19.5134 19.8595C19.5134 19.8595 19.5534 19.8062 19.6667 19.8062C19.7801 19.8062 19.8134 19.8595 19.8134 19.8595V19.8662Z" fill="url(#paint6_linear_769_20723)"/>
<path d="M19.6667 19.8329C19.72 19.8329 19.7467 19.8462 19.7667 19.8529L19.7867 19.8729C19.8866 20.242 20.0794 20.5794 20.3467 20.8529C20.6133 21.1262 20.9467 21.3129 21.32 21.3129H21.8333V21.9729H17.5V21.3062H18.0133C18.38 21.3062 18.72 21.1262 18.9867 20.8529C19.2515 20.5786 19.442 20.2413 19.54 19.8729L19.56 19.8529C19.593 19.8365 19.6299 19.8296 19.6667 19.8329Z" fill="#97C924"/>
<path d="M19.6202 19.8329C19.6135 19.8326 19.6068 19.8326 19.6002 19.8329L19.5602 19.8529L19.5402 19.8729C19.5216 19.9407 19.4994 20.0075 19.4735 20.0729C19.45 20.1408 19.4233 20.2075 19.3935 20.2729C19.3726 20.3158 19.3504 20.358 19.3268 20.3996C19.268 20.5025 19.2012 20.6006 19.1268 20.6929C19.083 20.7486 19.0362 20.802 18.9868 20.8529C18.8072 21.0418 18.5823 21.1817 18.3335 21.2596C18.5202 21.3062 18.6002 21.2596 18.7668 21.2329C18.9002 21.2129 19.0468 21.1929 19.1668 21.1529C19.2668 21.0196 19.2335 21.0662 19.2668 20.9596C19.3468 20.8129 19.4668 20.6796 19.4935 20.5129C19.6002 20.3129 19.6202 19.9396 19.6202 19.8329Z" fill="#EDE71F"/>
<path d="M19.62 19.9262C19.5934 20.3262 19.4667 20.8062 19.1734 21.1129C19.0667 21.1995 18.9334 21.2862 18.8 21.2662C19.2534 20.8995 19.5267 20.3329 19.62 19.9262Z" fill="#C6CB24"/>
<path d="M19.2533 20.6195C19.1084 20.8816 18.9082 21.1091 18.6666 21.2862H18.48C18.6466 21.2729 19.0266 20.9529 19.2533 20.6195Z" fill="#9ECB34"/>
<path d="M19.7333 19.8395L19.7666 19.8529L19.7933 19.8729C19.8122 19.9406 19.8345 20.0073 19.86 20.0729C19.8834 20.1408 19.9101 20.2075 19.94 20.2729L20.0066 20.3995C20.0654 20.5025 20.1323 20.6005 20.2066 20.6929C20.2505 20.7486 20.2972 20.802 20.3466 20.8529C20.5251 21.0493 20.7496 21.1982 21 21.2862C20.5133 21.2862 20.3066 21.2462 20.1333 21.0195C20.0073 20.8861 19.9117 20.7269 19.8533 20.5529C19.82 20.4195 19.72 20.1195 19.7266 19.8395H19.7333Z" fill="#EDE71F"/>
<path d="M19.7666 19.9262C19.7933 20.3262 19.9133 20.7262 20.2066 21.0329C20.3133 21.1262 20.4466 21.2062 20.5799 21.1862C20.1611 20.8824 19.871 20.433 19.7666 19.9262Z" fill="#C6CB24"/>
<path d="M18.6532 19.7995C18.5332 19.7995 18.4999 19.8595 18.4999 19.8595C18.3332 20.5128 17.7132 21.3462 17.0666 21.4462L16.7466 21.9995H20.0132V21.2462C19.4266 21.0862 18.9532 20.4662 18.7999 19.8595C18.7999 19.8595 18.7666 19.8062 18.6466 19.8062L18.6532 19.7995Z" fill="url(#paint7_linear_769_20723)"/>
<path d="M18.6533 19.8328C18.5999 19.8328 18.5666 19.8462 18.5466 19.8528L18.5266 19.8728C18.4145 20.2386 18.2309 20.5785 17.9866 20.8728C17.7599 21.1595 17.3399 21.4462 17.0533 21.4728L16.7666 21.9728H19.9666V21.2595C19.7259 21.1801 19.5084 21.0427 19.3333 20.8595C19.065 20.5841 18.8722 20.2443 18.7733 19.8728L18.7533 19.8528C18.7223 19.8373 18.6878 19.8304 18.6533 19.8328Z" fill="#97C924"/>
<path d="M18.56 19.9262C18.52 20.5262 18.1866 21.2928 17.8066 21.4195C17.68 21.4662 17.4666 21.4795 17.3933 21.4862C17.6873 21.3229 17.9436 21.0996 18.1457 20.8309C18.3479 20.5621 18.4913 20.2539 18.5666 19.9262H18.56Z" fill="#93BC30"/>
<path d="M18.6535 19.8328H18.6201V20.5528C18.6201 20.7062 18.6801 20.8328 18.7535 20.9795L18.7668 21.0128C18.8001 21.0862 18.8201 21.1128 18.9201 21.1928C19.2064 21.3972 19.5566 21.4918 19.9068 21.4595C19.8335 21.3995 19.7535 21.3462 19.6801 21.2995L19.9801 21.2662C19.733 21.1854 19.5105 21.0432 19.3335 20.8528C19.3012 20.8206 19.2701 20.7872 19.2401 20.7528L19.2001 20.6995C19.1212 20.6053 19.0499 20.505 18.9868 20.3995C18.9631 20.3558 18.9409 20.3113 18.9201 20.2662C18.8792 20.1818 18.8436 20.095 18.8135 20.0062C18.7987 19.9622 18.7853 19.9177 18.7735 19.8728L18.7535 19.8528C18.7408 19.8465 18.7274 19.842 18.7135 19.8395C18.6917 19.8342 18.6692 19.8319 18.6468 19.8328H18.6535Z" fill="#EDE71F"/>
<path d="M18.6934 19.9262C18.7267 20.3262 18.8467 20.8062 19.14 21.1128C19.2467 21.1995 19.38 21.2862 19.5134 21.2662C19.1067 20.9162 18.8199 20.4476 18.6934 19.9262Z" fill="#CCD11E"/>
<path d="M18.9734 20.4862C19.1893 20.9085 19.5289 21.255 19.9467 21.4795H20.1134C19.8201 21.3195 19.3467 21.0929 18.9801 20.4795L18.9734 20.4862Z" fill="#9ECB34"/>
<path d="M23.4333 21.6462C23.3933 21.6595 23.1399 21.6328 23.0066 21.6462L22.9199 21.6662H22.6999C22.4599 21.6662 22.2533 21.7328 22.0266 21.7328C21.7999 21.7328 21.5933 21.6662 21.3599 21.6662H21.1333C20.8933 21.6662 20.6866 21.7328 20.4599 21.7328C20.2333 21.7328 20.0266 21.6662 19.7933 21.6662H19.5666C19.3266 21.6662 19.1199 21.7328 18.8999 21.7328C18.6666 21.7328 18.4666 21.6662 18.2266 21.6662H17.9999C17.7599 21.6662 17.5599 21.7328 17.3333 21.7328C17.0999 21.7328 16.8999 21.6662 16.6599 21.6662H16.4333C16.2466 21.6662 16.0199 21.7062 15.8399 21.7195L15.4199 22.4462H23.9133L23.4333 21.6462Z" fill="white"/>
<path d="M22.8666 21.5395H22.8266C22.6133 21.5462 22.4533 21.6129 22.08 21.6129C21.7066 21.6129 21.6666 21.5462 21.24 21.5595C20.84 21.5595 20.68 21.6395 20.46 21.6395C20.2466 21.6395 19.9 21.5929 19.6266 21.6195C19.36 21.6462 19.04 21.7062 18.8266 21.7062C18.5666 21.7062 18.3066 21.6595 18.04 21.6862C17.7666 21.7129 17.64 21.7862 17.3 21.7862C17.0066 21.7862 16.7 21.7395 16.4466 21.7395C16.22 21.7395 15.9666 21.8062 15.78 21.8329L15.72 21.9329C15.8733 21.9129 16.2933 21.8462 16.44 21.8462C16.6 21.8462 17.1533 21.8795 17.46 21.8662C17.7733 21.8595 17.8066 21.7862 18.1733 21.7862C18.4266 21.7862 18.6133 21.8129 18.8733 21.8129C19.04 21.8129 19.1866 21.7329 19.4333 21.7329L19.62 21.7262C19.8266 21.6929 20.18 21.7262 20.42 21.7395C20.64 21.7529 20.7866 21.6995 21.02 21.6929L21.3133 21.6862C21.5466 21.6729 21.74 21.7262 21.96 21.7262C22.1733 21.7129 22.3866 21.6595 22.6133 21.6595L22.9133 21.6462C23.0666 21.6462 23.3066 21.6462 23.4666 21.6795L23.4133 21.5862C23.2533 21.5795 23.06 21.5395 22.8666 21.5395Z" fill="url(#paint8_linear_769_20723)"/>
<path d="M16.3533 22.3195C16.1266 22.3195 15.9266 22.3728 15.7133 22.3795C15.633 22.3774 15.5528 22.3707 15.4733 22.3595L15.4399 22.4128H15.8399C16.0733 22.4128 16.2666 22.3595 16.4799 22.3528C16.6999 22.3595 16.8933 22.4195 17.1266 22.4195H17.4266C17.6533 22.4195 17.8533 22.3595 18.0666 22.3528C18.2866 22.3595 18.4866 22.4195 18.7133 22.4195H19.0133C19.2466 22.4195 19.4399 22.3595 19.6599 22.3528C19.8733 22.3595 20.0666 22.4195 20.2999 22.4195H20.5999C20.8266 22.4195 21.0266 22.3595 21.2466 22.3528C21.4599 22.3595 21.6599 22.4195 21.8866 22.4195H22.1866C22.4199 22.4195 22.6133 22.3595 22.8266 22.3528C23.0466 22.3595 23.2399 22.4195 23.4733 22.4195H23.7733L23.8933 22.4128L23.8599 22.3595C23.7933 22.3662 23.7199 22.3795 23.6466 22.3795C23.4266 22.3795 23.2333 22.3128 22.9999 22.3128H22.6999C22.4733 22.3128 22.2733 22.3795 22.0599 22.3795C21.8399 22.3728 21.6466 22.3128 21.4133 22.3128H21.1133C20.8866 22.3128 20.6866 22.3795 20.4733 22.3795C20.2533 22.3728 20.0599 22.3128 19.8266 22.3128H19.5266C19.2933 22.3128 19.0999 22.3795 18.8866 22.3795C18.6666 22.3728 18.4733 22.3128 18.2399 22.3128H17.9399C17.7133 22.3128 17.5133 22.3795 17.2999 22.3795C17.0799 22.3728 16.8866 22.3128 16.6533 22.3128H16.3533V22.3195Z" fill="url(#paint9_linear_769_20723)"/>
<path d="M15.9267 21.6462L15.76 21.9262C15.9533 21.8928 16.2333 21.8128 16.4733 21.8128C16.7133 21.8128 17.0067 21.8728 17.3 21.8795C17.6333 21.8795 17.7667 21.7995 18.0333 21.7728C18.3067 21.7462 18.5667 21.8062 18.8333 21.8128C19.04 21.8128 19.36 21.7395 19.6333 21.7128C19.9 21.6795 20.1467 21.7328 20.4667 21.7328C20.7933 21.7395 20.8467 21.6528 21.24 21.6462C21.6667 21.6395 21.7067 21.7062 22.08 21.7062C22.36 21.7195 22.6067 21.6462 22.86 21.6328C23.1133 21.6128 23.2267 21.6328 23.4133 21.6328L23.2867 21.4195L16.5333 21.5728L15.9267 21.6462Z" fill="#97C924"/>
<path d="M23 21.6395L23.2667 21.6595C23.331 21.6672 23.3955 21.6739 23.46 21.6795L23.4333 21.6462C23.3933 21.6595 23.14 21.6329 23.0067 21.6462L23 21.6395Z" fill="white"/>
<path d="M19.6666 14.9912L17.5249 18.6995L15.3333 22.4995H23.9999L21.8583 18.7828L19.6666 14.9995V14.9912ZM19.6666 15.1912L21.7666 18.8328L23.8249 22.3995H15.5083L17.6083 18.7495L19.6666 15.1912Z" fill="#C8A400"/>
</g>
</g>
<defs>
<linearGradient id="paint0_linear_769_20723" x1="19.5799" y1="19.2728" x2="19.7066" y2="18.8928" gradientUnits="userSpaceOnUse">
<stop stop-color="#510000"/>
<stop offset="0.3" stop-color="#8A0000"/>
<stop offset="1" stop-color="#AA0000"/>
</linearGradient>
<linearGradient id="paint1_linear_769_20723" x1="19.76" y1="19.4262" x2="19.86" y2="19.1595" gradientUnits="userSpaceOnUse">
<stop stop-color="#FF2A2A"/>
<stop offset="1" stop-color="#FF0000"/>
</linearGradient>
<linearGradient id="paint2_linear_769_20723" x1="15.9663" y1="21.1662" x2="28.6263" y2="21.1662" gradientUnits="userSpaceOnUse">
<stop stop-color="#002255"/>
<stop offset="0.5" stop-color="#0044AA"/>
<stop offset="1" stop-color="#002255"/>
</linearGradient>
<linearGradient id="paint3_linear_769_20723" x1="15.9664" y1="21.1662" x2="28.6264" y2="21.1662" gradientUnits="userSpaceOnUse">
<stop stop-color="#002255"/>
<stop offset="0.5" stop-color="#0044AA"/>
<stop offset="1" stop-color="#002255"/>
</linearGradient>
<linearGradient id="paint4_linear_769_20723" x1="15.9664" y1="21.1662" x2="28.6264" y2="21.1662" gradientUnits="userSpaceOnUse">
<stop stop-color="#002255"/>
<stop offset="0.5" stop-color="#0044AA"/>
<stop offset="1" stop-color="#002255"/>
</linearGradient>
<linearGradient id="paint5_linear_769_20723" x1="18.6534" y1="20.7795" x2="18.6534" y2="21.1728" gradientUnits="userSpaceOnUse">
<stop stop-color="#F5F549"/>
<stop offset="1" stop-color="#97C924"/>
</linearGradient>
<linearGradient id="paint6_linear_769_20723" x1="18.6534" y1="20.7795" x2="18.6534" y2="21.1729" gradientUnits="userSpaceOnUse">
<stop stop-color="#F5F549"/>
<stop offset="1" stop-color="#97C924"/>
</linearGradient>
<linearGradient id="paint7_linear_769_20723" x1="18.6532" y1="20.7795" x2="18.6532" y2="21.1728" gradientUnits="userSpaceOnUse">
<stop stop-color="#F5F549"/>
<stop offset="1" stop-color="#97C924"/>
</linearGradient>
<linearGradient id="paint8_linear_769_20723" x1="15.7208" y1="21.5411" x2="23.4762" y2="21.5411" gradientUnits="userSpaceOnUse">
<stop stop-color="#002255"/>
<stop offset="0.5" stop-color="#0044AA"/>
<stop offset="1" stop-color="#002255"/>
</linearGradient>
<linearGradient id="paint9_linear_769_20723" x1="15.4694" y1="22.3155" x2="23.8635" y2="22.3155" gradientUnits="userSpaceOnUse">
<stop stop-color="#002255"/>
<stop offset="0.5" stop-color="#0044AA"/>
<stop offset="1" stop-color="#002255"/>
</linearGradient>
<clipPath id="clip0_769_20723">
<path d="M0 20C0 8.95431 8.95431 0 20 0C31.0457 0 40 8.95431 40 20C40 31.0457 31.0457 40 20 40C8.95431 40 0 31.0457 0 20Z" fill="white"/>
</clipPath>
<clipPath id="clip1_769_20723">
<rect width="53.3333" height="40" fill="white" transform="translate(-7 -0.000488281)"/>
</clipPath>
</defs>
</svg>
