<svg width="40" height="40" viewBox="0 0 40 40" fill="none" xmlns="http://www.w3.org/2000/svg">
<g clip-path="url(#clip0_769_20693)">
<path d="M0 20C0 8.95431 8.95431 0 20 0C31.0457 0 40 8.95431 40 20C40 31.0457 31.0457 40 20 40C8.95431 40 0 31.0457 0 20Z" fill="#E94E0F"/>
<g clip-path="url(#clip1_769_20693)">
<path d="M-7 -0.000610352H46.3333V39.9994H-7V-0.000610352Z" fill="#0DB02B"/>
<path d="M-7 -0.000610352H46.3333V26.6661H-7V-0.000610352Z" fill="white"/>
<path d="M-7 -0.000610352H46.3333V13.3327H-7V-0.000610352Z" fill="#E05206"/>
<path d="M19.6667 25.6661C22.7963 25.6661 25.3333 23.129 25.3333 19.9994C25.3333 16.8698 22.7963 14.3327 19.6667 14.3327C16.5371 14.3327 14 16.8698 14 19.9994C14 23.129 16.5371 25.6661 19.6667 25.6661Z" fill="#E05206"/>
</g>
</g>
<defs>
<clipPath id="clip0_769_20693">
<path d="M0 20C0 8.95431 8.95431 0 20 0C31.0457 0 40 8.95431 40 20C40 31.0457 31.0457 40 20 40C8.95431 40 0 31.0457 0 20Z" fill="white"/>
</clipPath>
<clipPath id="clip1_769_20693">
<rect width="53.3333" height="40" fill="white" transform="translate(-7 -0.000610352)"/>
</clipPath>
</defs>
</svg>
