<svg width="40" height="40" viewBox="0 0 40 40" fill="none" xmlns="http://www.w3.org/2000/svg">
<g clip-path="url(#clip0_769_20823)">
<path d="M0 20C0 8.95431 8.95431 0 20 0C31.0457 0 40 8.95431 40 20C40 31.0457 31.0457 40 20 40C8.95431 40 0 31.0457 0 20Z" fill="#E94E0F"/>
<g clip-path="url(#clip1_769_20823)">
<path fill-rule="evenodd" clip-rule="evenodd" d="M-7 -0.000488281H46.7153V26.6744H-7V-0.000488281Z" fill="white"/>
<path d="M-7 -0.000488281V1.99932L5.81599 8.60084L10.6435 8.74062L-7 -0.000488281Z" fill="#C8102E"/>
<path d="M-1.5166 -0.000488281L14.0303 8.11702V-0.000488281H-1.5166Z" fill="#012169"/>
<path d="M16.1053 -0.000488281V10.3641H-7V16.2775H16.1161V26.6421H23.2122V16.2775H46.3283V10.3641H23.2122V-0.000488281H16.1161H16.1053Z" fill="#C8102E"/>
<path d="M25.2764 -0.000488281V7.64395L40.4792 0.0640217L25.2764 -0.000488281Z" fill="#012169"/>
<path d="M25.7603 8.48258L30.0394 8.45033L46.64 0.0640259L42.2318 0.128536L25.771 8.49333L25.7603 8.48258Z" fill="#C8102E"/>
<path d="M-7 18.0085V23.6854L3.66565 18.0623L-7 18.0193V18.0085Z" fill="#012169"/>
<path d="M34.0606 18.2451L29.6094 18.2128L46.3605 26.5454L46.253 24.6423L34.0499 18.2451H34.0606ZM-2.83911 26.6959L12.8691 18.4386L8.75119 18.4709L-7 26.6744" fill="#C8102E"/>
<path d="M46.5325 2.34337L33.8456 8.6331L46.3605 8.68686V18.0516H35.7056L46.2638 23.7822L46.4143 26.6851L40.7804 26.6206L25.341 19.0407V26.6959H14.0733V19.03L-0.409228 26.6636L-6.95699 26.6851V53.3278H99.6565V0.0425184L46.6508 -0.000488281L46.5325 2.34337ZM-6.93549 3.00998L-7 8.53633L4.22474 8.67611L-6.94624 3.00998H-6.93549Z" fill="#012169"/>
<path fill-rule="evenodd" clip-rule="evenodd" d="M-7 26.6636H49.285V53.3278H-7V26.6636Z" fill="#FEDD00"/>
<path fill-rule="evenodd" clip-rule="evenodd" d="M24.2767 13.4714C24.3068 14.0937 24.2102 14.7156 23.9928 15.2995C23.7754 15.8834 23.4417 16.417 23.0119 16.8681C22.5822 17.3191 22.0653 17.6782 21.4926 17.9236C20.9199 18.169 20.3034 18.2955 19.6803 18.2955C19.0573 18.2955 18.4408 18.169 17.8681 17.9236C17.2954 17.6782 16.7785 17.3191 16.3487 16.8681C15.919 16.417 15.5853 15.8834 15.3679 15.2995C15.1505 14.7156 15.0539 14.0937 15.084 13.4714C15.1411 12.2908 15.6503 11.1775 16.506 10.3622C17.3617 9.54684 18.4984 9.09204 19.6803 9.09204C20.8623 9.09204 21.9989 9.54684 22.8546 10.3622C23.7104 11.1775 24.2195 12.2908 24.2767 13.4714Z" fill="#012169"/>
<path fill-rule="evenodd" clip-rule="evenodd" d="M18.8254 12.2887L19.7071 9.64379L20.5887 12.2887H23.4594L21.137 13.923L22.0294 16.5571L19.7071 14.9121L17.3847 16.5464L18.2771 13.9122L15.9547 12.2779L18.8254 12.2887ZM34.7917 12.7188L35.2325 11.4823L35.6625 12.7295H37.0925L35.9421 13.4821L36.3829 14.7186L35.2325 13.966L34.0821 14.7186L34.5229 13.4821L33.3724 12.7295L34.7917 12.7188ZM19.2448 21.9329L19.6748 20.6965L20.1156 21.9329H21.5349L20.3844 22.6856L20.8252 23.9328L19.6748 23.1694L18.5244 23.922L18.9652 22.6963L17.8148 21.9329H19.2448ZM19.2448 3.97766L19.6748 2.73047L20.1156 3.96691H21.5349L20.3844 4.73028L20.8252 5.96672L19.6748 5.2141L18.5244 5.96672L18.9652 4.73028L17.8148 3.97766H19.2448ZM3.63333 12.708L4.07415 11.4716L4.50422 12.708H5.93419L4.78376 13.4714L5.22458 14.7078L4.07415 13.9552L2.92372 14.7078L3.36454 13.4714L2.21411 12.7188L3.63333 12.708Z" fill="#FEDD00"/>
</g>
</g>
<defs>
<clipPath id="clip0_769_20823">
<path d="M0 20C0 8.95431 8.95431 0 20 0C31.0457 0 40 8.95431 40 20C40 31.0457 31.0457 40 20 40C8.95431 40 0 31.0457 0 20Z" fill="white"/>
</clipPath>
<clipPath id="clip1_769_20823">
<rect width="53.3333" height="40" fill="white" transform="translate(-7 -0.000488281)"/>
</clipPath>
</defs>
</svg>
