<svg width="340" height="208" viewBox="0 0 340 208" fill="none" xmlns="http://www.w3.org/2000/svg">
<rect width="340" height="204" transform="translate(0 4)" fill="#F8F9FB"/>
<rect y="191.598" width="339.793" height="16.402" fill="#F9D2C3"/>
<path d="M235.226 72.105H231.878V194.673H235.226V72.105Z" fill="#AAAEB8"/>
<path d="M233.552 101.973C245.401 101.973 255.007 92.2037 255.007 80.1524C255.007 68.1011 245.401 58.3315 233.552 58.3315C221.703 58.3315 212.097 68.1011 212.097 80.1524C212.097 92.2037 221.703 101.973 233.552 101.973Z" fill="#E4003A"/>
<path d="M248.149 77.0571H218.106V83.2079H248.149V77.0571Z" fill="white"/>
<path d="M75.5117 41.007C72.2069 41.007 69.1025 41.7246 66.1983 43.0572C64.3957 39.9819 61.091 37.8291 57.2855 37.8291C51.5774 37.8291 46.9708 42.5447 46.9708 48.3879C46.9708 48.4904 46.9708 48.5929 46.9708 48.6954C46.1696 48.4904 45.2683 48.3879 44.367 48.3879C39.8606 48.3879 35.955 50.8482 33.7518 54.5386H48.9736H54.9822H65.5975H95.9409C92.536 46.5427 84.6247 41.007 75.5117 41.007Z" fill="#F9C145"/>
<path d="M296.154 10.7638C293.65 10.7638 291.147 11.0714 288.743 11.7889C288.243 5.22814 282.935 0 276.326 0C271.719 0 267.713 2.56281 265.51 6.35578C263.006 5.53568 260.403 5.02312 257.699 5.02312C253.092 5.02312 248.786 6.35578 245.181 8.61105C243.078 8.09849 240.775 7.79095 238.571 7.79095C227.355 7.79095 217.641 14.1467 212.534 23.4754H234.265H264.609H269.716H272.821H281.333H283.235H319.788C314.58 15.8894 305.968 10.7638 296.154 10.7638Z" fill="#F8BFCD"/>
<path d="M268.325 43.0439L258.38 56.6714L256.737 55.1806L266.63 41.5013L268.325 43.0439Z" fill="#F8AD07"/>
<path d="M267.22 57.3139L268.066 59.2321L256.522 63.6657L255.655 61.7141L267.22 57.3139Z" fill="#F8AD07"/>
<path d="M251.301 56.0484L251.473 46.1428L253.55 46.8023L253.521 56.7734L251.301 56.0484Z" fill="#F8AD07"/>
<path d="M156.899 125.617L141.416 121.943L131.202 101.232L137.607 97.947L146.707 116.348L157.5 123.5L156.899 125.617Z" fill="#EE7A4B"/>
<path d="M157.5 123.5C157.5 123.5 159.319 123.811 160.662 124.42C161.192 124.644 161.663 125.003 161.913 125.507L162.67 127.184C162.707 127.279 162.581 127.385 162.497 127.31L160.657 126.132C160.44 126 160.212 125.984 160.039 126.11C159.579 126.353 159.045 126.407 158.563 126.163L156.771 125.683L157.5 123.5Z" fill="#F8BFCD"/>
<path d="M123.985 173.654C123.985 185.142 114.499 194.5 102.743 194.5C90.9856 194.5 81.5 185.142 81.5 173.654C81.5 162.166 90.9856 152.809 102.743 152.809C114.499 152.809 123.985 162.166 123.985 173.654Z" stroke="#303642" stroke-width="3"/>
<path d="M193.5 173.654C193.5 185.142 184.014 194.5 172.257 194.5C160.5 194.5 151.015 185.142 151.015 173.654C151.015 162.166 160.5 152.809 172.257 152.809C184.014 152.809 193.5 162.166 193.5 173.654Z" stroke="#303642" stroke-width="3"/>
<path d="M131.493 173.233L159.813 142.876H119.478L103.172 173.233H131.493ZM131.493 173.233L114.328 134.022M123.769 134.022H114.328M110.466 134.022H114.328" stroke="#F8AD07" stroke-width="3" stroke-linecap="round" stroke-linejoin="round"/>
<path d="M172.687 173.654L155.093 127H165.779" stroke="#F8AD07" stroke-width="3" stroke-linecap="round" stroke-linejoin="round"/>
<path d="M153.5 126C153.5 126 153.656 126.909 154.948 127.575C155.458 127.829 156.052 128.005 156.607 127.839L158.367 127.378C158.481 127.368 158.486 127.206 158.39 127.168L156.272 126.508C156.08 126.433 155.875 126.244 155.849 126.016C155.767 125.493 155.463 125.235 155 125L153.5 126Z" fill="#F8BFCD"/>
<path d="M130.605 125.842H124.924C120.675 125.842 117.399 122.643 118.065 119.032L121.341 101.182C121.648 99.531 123.337 98.2928 125.333 98.2928H130.605V125.842Z" fill="#870B58"/>
<path d="M125.282 134.251L130.349 162.883L121.443 193.167H124.054L136.645 162.883L137.259 144.105H140.279L145.346 162.883L149.748 193.631H152.41L151.642 162.883L148.417 133.787L125.282 134.251Z" fill="#555D71"/>
<path d="M129.018 195.849H126.562L124.053 195.127V193.167L126.562 194.25L129.018 194.766V195.849Z" fill="#870B58"/>
<path d="M123.286 195.849H121.443V193.167H124.054V195.127L123.286 195.849Z" fill="#870B58"/>
<path d="M157.272 195.849H154.815L152.307 195.127V193.167L154.815 194.25L157.272 194.766V195.849Z" fill="#870B58"/>
<path d="M151.54 195.849H149.697V193.167H152.307V195.127L151.54 195.849Z" fill="#870B58"/>
<path d="M152.256 107.115L150.209 120.425L148.468 133.838L125.333 134.251L125.435 125.171L125.487 122.746L125.794 105.206C125.845 102.317 127.585 99.789 130.196 98.4476C131.015 98.0349 131.885 97.7254 132.857 97.519C133.42 97.4158 133.983 97.3643 134.598 97.3643H143.76C144.118 97.3643 144.476 97.3643 144.886 97.4158C147.291 97.6738 149.339 98.8088 150.721 100.408C150.721 100.408 150.721 100.408 150.772 100.46C151.386 101.182 151.847 101.956 152.154 102.833C152.512 104.174 152.614 105.619 152.256 107.115Z" fill="#E94E0F"/>
<path d="M139.204 109.643L137.413 115.575C135.928 120.58 131.68 124.294 126.51 125.016L125.384 125.171L122.825 125.532L122.518 123.159L125.435 122.746L126.203 122.643C130.452 122.076 133.932 119.032 135.161 114.905L136.901 108.972C137.617 106.547 136.798 103.968 134.905 102.42L130.144 98.4992C130.963 98.0865 131.834 97.7769 132.806 97.5706L136.44 100.511C139.102 102.73 140.177 106.289 139.204 109.643Z" fill="#870B58"/>
<path d="M153.5 126L131.046 124.774L127.344 104.24L134.345 103.14L137.514 120.623L155 125L153.5 126Z" fill="#E94E0F"/>
<path d="M143.248 100.047C142.685 100.047 142.07 99.9437 141.559 99.6858L136.85 97.6222H144.732V98.5508C144.732 99.3762 144.067 100.047 143.248 100.047Z" fill="#F8BFCD"/>
<path d="M142.275 89.6772H139.153L136.85 97.6221H144.732L142.275 89.6772Z" fill="#F8BFCD"/>
<path d="M141.814 93.5466L139.921 92.9275C137.873 92.2569 136.747 90.0385 137.413 87.9749L139.972 80.0817L150.004 83.3318L147.649 90.5544C146.882 93.0307 144.271 94.3721 141.814 93.5466Z" fill="#F8BFCD"/>
<path d="M138.692 81.2681L146.779 83.8992C148.724 84.5183 150.823 83.4349 151.437 81.4745L152 79.6688L144.118 77.0893C142.07 76.4187 139.818 77.5537 139.153 79.6173L138.692 81.2681Z" fill="#870B58"/>
<path d="M141.814 82.3L138.692 81.2682L138.129 83.0222L137.976 83.4866L136.952 86.6851L138.743 87.2526L139.767 84.1056L141.098 84.5183L141.814 82.3Z" fill="#870B58"/>
<path d="M141.354 84.7763C141.2 85.2922 140.637 85.6017 140.125 85.3954C139.614 85.2406 139.306 84.6731 139.511 84.1572C139.716 83.6413 140.228 83.3318 140.74 83.5381C141.251 83.6929 141.559 84.2088 141.354 84.7763Z" fill="#F8BFCD"/>
<path d="M140.688 85.447H140.74C141.661 85.7565 142.685 85.2406 142.992 84.2604L143.606 82.4032L141.866 81.8357L140.688 85.447Z" fill="#870B58"/>
</svg>
