<svg width="340" height="204" viewBox="0 0 340 204" fill="none" xmlns="http://www.w3.org/2000/svg">
<rect width="340" height="204" transform="translate(0 0.000305176)" fill="#F8F9FB"/>
<path d="M91.7675 41.6658L133.655 188H19L60.8874 41.6658H91.7675Z" fill="#FDEAC1"/>
<path d="M76.2424 0.000305176H74.7482V32.7306H76.2424V0.000305176Z" fill="#F8AD07"/>
<path d="M91.8801 41.8273C91.3821 33.7569 84.6582 27.3802 76.4401 27.3802C68.222 27.3802 61.4981 33.7569 61 41.8273H91.8801Z" fill="#F8AD07"/>
<path d="M248.849 39.3582V25.0003H234.572V39.3582H248.849Z" fill="#E3E6EF"/>
<path d="M248.849 56.5712V42.2134H234.572V56.5712H248.849Z" fill="#E3E6EF"/>
<path d="M248.849 73.7873V59.4294H234.572V73.7873H248.849Z" fill="#E3E6EF"/>
<path d="M248.849 91.0003V76.6425H234.572V91.0003H248.849Z" fill="#E3E6EF"/>
<path d="M232.003 39.3582V25.0003H217.726V39.3582H232.003Z" fill="#E3E6EF"/>
<path d="M232 56.5712V42.2134H217.723V56.5712H232Z" fill="#E3E6EF"/>
<path d="M232.003 73.7843V59.4265H217.726V73.7843H232.003Z" fill="#E3E6EF"/>
<path d="M232 91.0003V76.6425H217.723V91.0003H232Z" fill="#E3E6EF"/>
<path d="M215.157 39.3582V25.0003H200.881V39.3582H215.157Z" fill="#E3E6EF"/>
<path d="M215.155 56.5712V42.2134H200.878V56.5712H215.155Z" fill="#E3E6EF"/>
<path d="M215.155 73.7872V59.4294H200.878V73.7872H215.155Z" fill="#E3E6EF"/>
<path d="M215.155 91.0003V76.6425H200.878V91.0003H215.155Z" fill="#E3E6EF"/>
<rect x="0.206787" y="188" width="339.793" height="16" fill="#F9D2C3"/>
<path d="M99.7667 139.834H96.8116V191.393H99.7667V139.834Z" fill="#7783A0"/>
<path d="M251.952 139.834H248.996V191.393H251.952V139.834Z" fill="#7783A0"/>
<path d="M260.841 134.017H87.9465V143.655H260.841V134.017Z" fill="#7783A0"/>
<path d="M183.346 114.338H173.11V131.634H183.346V114.338Z" fill="#ADB4C6"/>
<path d="M190.16 131.842H167.659V133.913H190.16V131.842Z" fill="#C8CDD9"/>
<path d="M207.496 120.484H148.929C148.168 120.484 147.534 119.793 147.534 118.965V81.8172C147.534 80.9886 148.168 80.2982 148.929 80.2982H207.496C208.256 80.2982 208.89 80.9886 208.89 81.8172V118.965C208.89 119.828 208.288 120.484 207.496 120.484Z" fill="#C8CDD9"/>
<path d="M205.474 117.408H150.552C149.823 117.408 149.221 116.752 149.221 115.958V83.8166C149.221 83.0226 149.823 82.3666 150.552 82.3666H205.474C206.203 82.3666 206.805 83.0226 206.805 83.8166V115.958C206.805 116.752 206.203 117.408 205.474 117.408Z" fill="white"/>
<path d="M185.007 96.8334H170.005L170 111.493H185.002L185.007 96.8334Z" fill="#E4003A"/>
<ellipse rx="0.993371" ry="0.987493" transform="matrix(1 -0.000190721 -0.000192967 1 177.75 103.285)" fill="white"/>
<path d="M178.246 104.272C178.246 104.817 178.494 106 177.749 106C177.004 106 177.253 104.818 177.253 104.272C177.253 103.727 177.475 103.285 177.75 103.285C178.024 103.285 178.246 103.727 178.246 104.272Z" fill="white"/>
<path d="M177.506 88.2808C177.366 88.2808 177.229 88.2832 177.094 88.2887C175.699 88.3461 174.55 89.1866 173.783 90.2015C173.011 91.2221 172.523 92.5431 172.503 93.8268C172.503 93.8361 172.503 93.8454 172.503 93.8547L172.503 93.8417C172.504 90.4884 174.863 88.0003 177.506 88.0003C180.149 88.0003 182.506 90.4884 182.505 93.8417L182.504 97.4026H182.503L182.504 93.8417C182.505 90.8976 180.387 88.2808 177.506 88.2808Z" stroke="#F8AD07" stroke-width="2"/>
<path d="M240.59 147.261C240.59 147.261 240.283 148.278 235.004 159.911C234.763 157.854 234.149 154.647 232.397 151.219C229.746 146.067 227.008 145.293 225.737 142.13C222.824 134.832 230.688 122.381 235.266 123.022C239.714 123.642 243.679 137.066 240.59 147.261Z" fill="#F8AD07"/>
<path d="M226.898 150.025C228.936 151.308 230.644 153.033 231.849 155.112C232.024 155.421 232.2 155.731 232.331 156.041C233.317 158.186 233.799 160.154 234.04 161.636C233.689 161.282 233.12 160.796 232.309 160.486C230.995 159.977 229.987 160.331 229.155 160.353C226.701 160.375 224.751 157.567 223.152 155.222C222.802 154.714 218.859 148.986 220.151 147.681C220.523 147.239 221.444 146.597 226.898 150.025Z" fill="#F8AD07"/>
<path d="M246.57 153.011C244.642 155.112 242.89 154.824 241.838 157.058C241.4 158.009 241.576 158.319 241.137 159.048C240.086 160.751 237.72 161.194 235.792 161.282C236.011 160.906 236.384 160.265 236.778 159.424C237.808 157.191 237.83 156.085 239.012 152.945C239.779 150.91 240.502 150.224 241.137 149.716C241.707 149.251 241.86 149.318 243.065 148.676C246.066 147.084 247.49 145.447 248.301 145.978C248.389 146.045 248.454 146.111 248.52 146.199C249.396 147.46 248.608 150.777 246.57 153.011Z" fill="#F8AD07"/>
<path d="M234.347 170.814C233.623 164.312 234.96 158.274 234.982 158.208L235.618 158.363C235.596 158.429 234.303 164.356 235.004 170.747L234.347 170.814Z" fill="#F8AD07"/>
<path d="M243.788 166.833H226.044L223.065 180.987C222.101 185.521 225.54 189.811 230.14 189.811H239.713C244.314 189.811 247.753 185.521 246.789 180.987L243.788 166.833Z" fill="#E94E0F"/>
<path d="M239.867 189.811H229.965V192H239.867V189.811Z" fill="#F8AD07"/>
<path d="M234.237 164.069C233.733 161.415 232.287 159.557 232.265 159.535L232.791 159.115C232.857 159.203 234.347 161.127 234.894 163.936L234.237 164.069Z" fill="#F8AD07"/>
<path d="M139.241 165.05L146.48 164.306L145.333 153.005L138.093 153.748L139.241 165.05Z" fill="#7783A0"/>
<path d="M142.894 182.415L146.388 182.056L144.87 167.114L141.377 167.473L142.894 182.415Z" fill="#7783A0"/>
<path d="M136.79 157.032L147.269 155.956C151.197 155.553 154.056 152.024 153.655 148.075L153.376 145.327C152.975 141.377 149.465 138.502 145.537 138.906L135.059 139.981C131.131 140.385 128.272 143.913 128.673 147.863L128.952 150.611C129.353 154.56 132.862 157.435 136.79 157.032Z" fill="#E3E6EF"/>
<path d="M133.176 168.318L153.073 166.275C154.4 166.139 155.366 164.947 155.231 163.613L155.137 162.688C155.001 161.354 153.816 160.382 152.489 160.519L132.591 162.562C131.264 162.698 130.299 163.89 130.434 165.224L130.528 166.149C130.663 167.483 131.849 168.454 133.176 168.318Z" fill="#E3E6EF"/>
<path d="M133.649 191.23L135.08 191.083C134.891 189.208 135.45 187.335 136.634 185.874C137.817 184.413 139.529 183.484 141.393 183.29L148.38 182.574C150.245 182.385 152.107 182.948 153.56 184.138C155.012 185.329 155.935 187.05 156.127 188.925L157.561 188.778C157.329 186.522 156.218 184.45 154.469 183.017C152.721 181.584 150.478 180.907 148.234 181.135L141.247 181.857C139.005 182.09 136.946 183.208 135.522 184.965C134.097 186.721 133.424 188.974 133.649 191.23Z" fill="#7783A0"/>
<path d="M145.385 182.147L143.953 182.294L144.78 190.436L146.212 190.289L145.385 182.147Z" fill="#7783A0"/>
<path d="M157.084 191.074C158.118 190.968 158.871 190.038 158.766 188.998C158.66 187.958 157.736 187.201 156.702 187.308C155.667 187.414 154.914 188.343 155.02 189.383C155.126 190.423 156.05 191.18 157.084 191.074Z" fill="#F8AD07"/>
<path d="M134.605 193.384C135.639 193.278 136.392 192.349 136.287 191.309C136.181 190.269 135.257 189.512 134.223 189.618C133.188 189.724 132.435 190.653 132.541 191.694C132.647 192.734 133.571 193.491 134.605 193.384Z" fill="#F8AD07"/>
<path d="M145.684 192.245C146.718 192.139 147.471 191.21 147.365 190.17C147.26 189.13 146.336 188.373 145.301 188.479C144.267 188.585 143.514 189.514 143.62 190.554C143.725 191.594 144.65 192.351 145.684 192.245Z" fill="#F8AD07"/>
<path d="M157.942 152.882L157.856 152.297L157.561 151.746C157.455 151.549 157.305 151.38 157.122 151.252C156.94 151.124 156.73 151.04 156.51 151.008C156.29 150.976 156.065 150.996 155.854 151.067C155.643 151.137 155.452 151.256 155.294 151.415L154.822 151.89L154.869 152.985C154.884 153.32 154.977 153.646 155.14 153.939C155.302 154.231 155.531 154.482 155.806 154.67C155.921 154.764 156.01 154.885 156.066 155.023C156.122 155.161 156.142 155.31 156.125 155.458L155.864 158.346C155.867 158.38 155.88 158.412 155.9 158.439C155.92 158.466 155.946 158.487 155.977 158.5C156.008 158.513 156.042 158.518 156.075 158.513C156.109 158.509 156.14 158.495 156.166 158.475L157.66 156.587C157.885 156.283 158.048 155.936 158.138 155.568C158.227 155.199 158.242 154.816 158.182 154.442L157.947 152.882" fill="#FBD683"/>
<path d="M157.71 152.775L154.955 151.438L156.31 130.088V130.072C156.339 129.613 156.517 129.176 156.817 128.828C157.117 128.48 157.522 128.241 157.971 128.148C160.501 127.623 162.908 129.807 163.253 132.385L163.289 132.648C163.328 132.95 163.305 133.258 163.222 133.551L157.71 152.775Z" fill="#870B58"/>
<path d="M174.574 193.451L175.721 196L177.319 195.273V194.485C177.404 194.242 177.537 194.019 177.71 193.829C177.775 193.744 177.819 193.644 177.839 193.539C177.858 193.433 177.852 193.325 177.821 193.222C177.79 193.119 177.735 193.026 177.661 192.949C177.587 192.871 177.495 192.813 177.394 192.779C176.907 192.596 176.411 192.439 175.909 192.306C175.744 192.273 175.574 192.277 175.411 192.319C175.248 192.362 175.097 192.44 174.969 192.55C174.841 192.659 174.739 192.796 174.671 192.951C174.603 193.106 174.571 193.274 174.577 193.443L174.574 193.451Z" fill="#555D71"/>
<path d="M179.379 192.53L176.862 192.406L175.757 192.144C175.597 192.1 175.429 192.1 175.269 192.144C175.075 192.199 174.904 192.316 174.779 192.476C174.655 192.635 174.584 192.831 174.577 193.034L174.561 193.448L177.303 194.478L179.653 194.202L179.718 194.136C179.832 194.02 179.916 193.877 179.961 193.72C180.006 193.563 180.012 193.398 179.978 193.238C179.944 193.078 179.871 192.93 179.765 192.806C179.66 192.682 179.525 192.586 179.374 192.527L179.379 192.53Z" fill="#555D71"/>
<path d="M174.141 191.224C174.04 191.228 173.941 191.258 173.854 191.311C173.767 191.365 173.695 191.439 173.645 191.528C173.595 191.617 173.569 191.717 173.568 191.82C173.568 191.922 173.593 192.022 173.642 192.112L174.084 192.92L176.796 192.293L176.554 191.227L174.141 191.224Z" fill="#555D71"/>
<path d="M161.224 163.778L161.242 163.814L174.559 193.451L176.859 192.401L167.138 161.131L167.122 161.092C166.459 159.335 161.08 159.805 160.856 161.669L162.762 159.278C162.357 159.46 161.994 159.725 161.695 160.054C161.396 160.383 161.168 160.771 161.023 161.193C160.879 161.614 160.823 162.061 160.857 162.506C160.892 162.951 161.017 163.384 161.224 163.778Z" fill="#303642"/>
<path d="M132.239 158.104C132.157 158.772 132.211 159.449 132.399 160.095C132.587 160.741 132.905 161.341 133.332 161.859C133.759 162.376 134.287 162.801 134.884 163.105C135.48 163.41 136.133 163.589 136.8 163.631L163.94 165.316C165.595 165.364 167.12 163.954 167.282 162.297C167.374 161.505 167.161 160.708 166.687 160.069C166.213 159.43 165.514 158.998 164.733 158.86L138.001 153.864C137.344 153.741 136.668 153.755 136.016 153.904C135.364 154.054 134.749 154.335 134.209 154.733C133.669 155.13 133.216 155.634 132.877 156.214C132.538 156.793 132.321 157.437 132.239 158.104Z" fill="#303642"/>
<path d="M176.329 189.471L176.953 192.196L178.661 191.802L178.815 191.014C178.963 190.755 179.156 190.524 179.384 190.332C179.45 190.267 179.5 190.187 179.531 190.1C179.561 190.012 179.571 189.919 179.561 189.826C179.55 189.734 179.518 189.646 179.468 189.568C179.418 189.49 179.351 189.424 179.272 189.376C178.825 189.114 178.295 188.788 178.146 188.715C177.978 188.637 177.796 188.595 177.611 188.59C177.426 188.586 177.243 188.62 177.071 188.691C176.9 188.761 176.745 188.865 176.615 188.998C176.486 189.131 176.385 189.289 176.319 189.463L176.329 189.471Z" fill="#555D71"/>
<path d="M181.233 189.518L178.789 188.896L177.76 188.421C177.61 188.35 177.444 188.321 177.28 188.334C177.078 188.35 176.887 188.429 176.733 188.562C176.58 188.694 176.472 188.871 176.426 189.069L176.329 189.473L178.815 191.025L181.165 191.222L181.243 191.17C181.378 191.078 181.488 190.955 181.563 190.811C181.638 190.666 181.677 190.505 181.675 190.342C181.673 190.179 181.63 190.019 181.551 189.876C181.472 189.734 181.359 189.614 181.222 189.526L181.233 189.518Z" fill="#555D71"/>
<path d="M181.233 189.518C181.131 189.522 181.032 189.552 180.946 189.605C180.859 189.658 180.787 189.733 180.737 189.822C180.687 189.911 180.66 190.011 180.66 190.113C180.659 190.215 180.685 190.316 180.734 190.405L181.175 191.214L183.888 190.589L183.645 189.521L181.233 189.518Z" fill="#555D71"/>
<path d="M169.073 157.729L169.086 157.768L176.329 189.471L178.786 188.903L175.392 156.316V156.277C175.319 155.839 175.158 155.42 174.918 155.047C174.679 154.674 174.367 154.354 174 154.106C173.633 153.858 173.22 153.688 172.786 153.606C172.352 153.525 171.906 153.533 171.475 153.63C171.043 153.728 170.635 153.914 170.277 154.177C169.918 154.439 169.617 154.773 169.392 155.157C169.167 155.541 169.023 155.967 168.968 156.41C168.913 156.852 168.949 157.301 169.073 157.729Z" fill="#303642"/>
<path d="M140.069 156.529C140.063 157.202 140.194 157.868 140.453 158.488C140.713 159.108 141.096 159.668 141.579 160.133C142.062 160.598 142.634 160.959 143.261 161.194C143.888 161.428 144.556 161.531 145.224 161.497L172.379 160.081C174.029 159.937 175.384 158.362 175.358 156.697C175.359 155.9 175.058 155.133 174.515 154.552C173.972 153.971 173.23 153.621 172.439 153.573L145.315 151.664C144.648 151.617 143.979 151.708 143.349 151.93C142.718 152.153 142.139 152.503 141.648 152.958C141.157 153.414 140.763 153.966 140.492 154.58C140.22 155.194 140.077 155.857 140.069 156.529Z" fill="#303642"/>
<path d="M146.743 160.202L136.192 161.286C135.362 161.371 134.532 161.134 133.87 160.624C133.209 160.115 132.765 159.37 132.63 158.543L131.659 152.418C131.534 151.627 131.651 150.816 131.994 150.093C132.337 149.37 132.891 148.769 133.581 148.369L135.811 147.08C139.727 144.717 140.581 144.694 144.861 146.292L146.793 146.978C147.529 147.241 148.171 147.719 148.636 148.351C149.101 148.983 149.368 149.74 149.404 150.525L149.686 156.781C149.723 157.621 149.438 158.444 148.891 159.08C148.344 159.716 147.575 160.118 146.743 160.202Z" fill="#303642"/>
<path d="M161.673 133.286C160.705 134.201 159.622 134.985 158.451 135.617C158.199 135.751 157.918 135.822 157.633 135.822C157.347 135.822 157.066 135.751 156.814 135.617H156.801L140.142 123.427C139.467 122.941 138.906 122.311 138.499 121.583C138.093 120.854 137.852 120.044 137.793 119.211C137.683 117.708 138.172 116.223 139.151 115.082C140.13 113.941 141.52 113.238 143.015 113.127C143.844 113.066 144.677 113.19 145.453 113.49C146.229 113.79 146.93 114.259 147.506 114.863L162.19 129.928C162.367 130.103 162.504 130.316 162.591 130.55C162.677 130.785 162.712 131.036 162.692 131.285C162.577 132.045 162.22 132.748 161.673 133.286Z" fill="#870B58"/>
<path d="M126.938 137.413L127.602 139.931L129.142 145.814L132.348 159.028L149.806 155.765L148.464 133.75C148.457 133.489 148.393 133.233 148.278 132.999C148.163 132.765 147.998 132.559 147.795 132.396C147.593 132.232 147.358 132.115 147.106 132.052C146.854 131.989 146.591 131.981 146.336 132.031L128.816 135.425C127.244 135.717 126.659 136.347 126.938 137.413Z" fill="#870B58"/>
<path d="M148.182 124.125L141.936 113.175L131.516 115.138L126.403 116.099L124.601 128.531L127.011 137.699C127.408 138.781 127.534 140.325 128.667 140.107L146.56 136.694C147.108 136.588 147.601 136.291 147.95 135.854C148.3 135.418 148.484 134.87 148.469 134.31L148.182 124.125Z" fill="#870B58"/>
<path d="M136.727 123.54L138.317 113.857L132.098 115.018L136.727 123.54Z" fill="white"/>
<path d="M140.589 139.324L141.673 139.219C142.005 139.189 142.339 139.236 142.649 139.359C142.96 139.481 143.238 139.674 143.461 139.923C143.568 140.023 143.698 140.094 143.839 140.131C143.98 140.168 144.129 140.17 144.271 140.135L147.09 139.463C147.124 139.462 147.158 139.47 147.187 139.487C147.217 139.503 147.241 139.527 147.258 139.557C147.276 139.586 147.285 139.619 147.284 139.653C147.284 139.687 147.275 139.72 147.258 139.75L145.592 141.49C145.324 141.758 145.005 141.969 144.654 142.111C144.303 142.252 143.928 142.322 143.55 142.315L141.396 142.286L140.874 141.968C140.657 141.833 140.474 141.65 140.338 141.433C140.203 141.216 140.118 140.971 140.091 140.716C140.063 140.461 140.094 140.203 140.18 139.962C140.266 139.721 140.406 139.503 140.589 139.324Z" fill="#FBD683"/>
<path d="M117.066 144.184C116.205 143.683 115.545 142.896 115.199 141.958C114.852 141.02 114.841 139.991 115.168 139.046L121.776 119.896C122.04 119.103 122.476 118.378 123.051 117.773C123.626 117.169 124.326 116.7 125.103 116.399C125.795 116.129 126.534 116 127.277 116.018C128.019 116.036 128.751 116.201 129.43 116.504C130.109 116.806 130.722 117.241 131.234 117.782C131.746 118.323 132.147 118.96 132.414 119.657C132.713 120.437 132.837 121.274 132.778 122.109C132.718 122.943 132.476 123.753 132.069 124.483L122.092 142.808C120.855 144.699 118.711 145.263 117.058 144.184H117.066Z" fill="#870B58"/>
<path d="M141.414 139.232L140.597 142.197L119.92 144.615C119.599 144.652 119.276 144.661 118.954 144.643C118.735 144.63 118.522 144.572 118.326 144.475C118.13 144.377 117.955 144.24 117.813 144.074L115.554 141.448C115.378 141.243 115.255 140.998 115.195 140.734C115.135 140.47 115.14 140.196 115.21 139.934C115.28 139.673 115.413 139.433 115.597 139.235C115.781 139.037 116.01 138.887 116.264 138.799L120.815 137.266C121.038 137.19 121.274 137.164 121.507 137.19L141.404 139.232H141.414Z" fill="#870B58"/>
<path d="M132.103 115.044L132.401 108.081L135.187 107.556L138.32 113.857L135.67 116.958L132.103 115.044Z" fill="#FBD683"/>
<path d="M139.088 107.425L138.43 103.857C138.28 103.048 137.817 102.333 137.143 101.868C136.469 101.402 135.638 101.225 134.834 101.376L133.487 101.638C133.089 101.713 132.709 101.865 132.37 102.087C132.031 102.308 131.738 102.595 131.509 102.931C131.28 103.266 131.119 103.644 131.035 104.042C130.951 104.44 130.945 104.851 131.019 105.251L131.944 110.255C132.036 110.745 132.317 111.179 132.725 111.461C133.133 111.744 133.636 111.853 134.124 111.765L136.437 111.332C136.87 111.257 137.283 111.096 137.653 110.858C138.022 110.619 138.34 110.308 138.587 109.944C138.834 109.579 139.006 109.168 139.092 108.736C139.178 108.303 139.177 107.857 139.088 107.425Z" fill="#FBD683"/>
<path d="M139.479 103.014C139.36 102.372 138.992 101.803 138.456 101.433C137.92 101.063 137.259 100.923 136.62 101.042L132.865 101.743C132.249 101.859 131.7 102.208 131.332 102.718C130.964 103.229 130.804 103.862 130.886 104.487L131.424 107.399C131.624 107.448 131.83 107.465 132.035 107.449C132.008 107.289 132.028 107.125 132.092 106.977C132.157 106.829 132.264 106.703 132.399 106.615C132.534 106.528 132.692 106.482 132.853 106.484C133.014 106.486 133.171 106.536 133.304 106.627C133.57 106.199 133.77 105.732 133.894 105.243L138.542 104.374C138.845 104.319 139.115 104.144 139.29 103.889C139.466 103.634 139.534 103.32 139.479 103.014Z" fill="#303642"/>
<path d="M203.657 76.7276L191.608 87.2324L190.493 85.4223L202.509 74.8559L203.657 76.7276Z" fill="#F8AD07"/>
<path d="M199.331 89.9807L199.635 92.0029L188.314 93.4097L187.999 91.3508L199.331 89.9807Z" fill="#F8AD07"/>
<path d="M185.448 84.9289L187.921 75.5851L189.617 76.7128L187.256 86.1531L185.448 84.9289Z" fill="#F8AD07"/>
</svg>
