<svg width="340" height="211" viewBox="0 0 340 211" fill="none" xmlns="http://www.w3.org/2000/svg">
<rect width="340" height="204" transform="translate(0 7.00012)" fill="#F8F9FB"/>
<rect y="194.922" width="340" height="16.0788" fill="#E1C2D5"/>
<path d="M223.203 194.383L222.884 197.485L221.334 197.324L221.157 196.289C221.147 196.204 220.553 196.24 220.257 196.03C220.169 195.969 220.096 195.888 220.046 195.793C219.995 195.698 219.967 195.593 219.964 195.486C219.962 195.378 219.984 195.272 220.031 195.175C220.077 195.078 220.145 194.993 220.23 194.928C220.642 194.59 221.071 194.273 221.516 193.98C222.152 193.613 222.996 193.674 223.203 194.381L223.203 194.383Z" fill="#EA3F6B"/>
<path d="M218.206 195.317L220.606 194.383L221.589 193.766C221.732 193.674 221.897 193.621 222.067 193.612C222.272 193.604 222.473 193.662 222.644 193.776C222.814 193.89 222.944 194.055 223.016 194.247L223.205 194.379L221.156 196.276L218.476 197.014L218.391 196.971C218.245 196.894 218.12 196.782 218.028 196.645C217.935 196.508 217.877 196.351 217.859 196.186C217.841 196.022 217.864 195.856 217.925 195.702C217.986 195.548 218.084 195.412 218.21 195.305L218.206 195.317Z" fill="#EA3F6B"/>
<path d="M218.206 195.317C218.31 195.307 218.414 195.325 218.509 195.367C218.604 195.41 218.687 195.477 218.749 195.56C218.811 195.644 218.85 195.743 218.863 195.846C218.876 195.95 218.862 196.055 218.822 196.152L218.473 197.026L215.645 196.732L215.698 196.221L218.206 195.317Z" fill="#EA3F6B"/>
<path d="M225.898 168.206L223.205 194.383L220.96 194.162L220.219 167.652L220.223 167.616C220.24 167.226 220.337 166.844 220.507 166.493C220.677 166.142 220.917 165.829 221.211 165.574C221.506 165.32 221.849 165.128 222.221 165.011C222.592 164.893 222.983 164.854 223.371 164.893C223.758 164.934 224.133 165.054 224.473 165.245C224.812 165.436 225.109 165.694 225.346 166.004C225.583 166.314 225.754 166.669 225.848 167.048C225.943 167.427 225.96 167.821 225.898 168.206Z" fill="#F8AD07"/>
<path d="M225.945 139.851C226.521 139.91 227.079 140.086 227.584 140.37C228.089 140.653 228.532 141.037 228.883 141.498C229.235 141.959 229.489 142.487 229.629 143.05C229.769 143.613 229.793 144.199 229.698 144.771L225.867 168.016C225.586 169.422 224.109 170.438 222.689 170.253C222.009 170.177 221.383 169.844 220.939 169.32C220.496 168.797 220.269 168.123 220.304 167.438L221.286 143.897C221.31 143.319 221.452 142.752 221.702 142.23C221.953 141.709 222.308 141.245 222.744 140.866C223.18 140.487 223.689 140.201 224.24 140.027C224.79 139.852 225.371 139.793 225.945 139.851Z" fill="#F8AD07"/>
<path d="M213.987 193.116L213.933 196.235L212.376 196.207L212.111 195.191C212.094 195.108 211.505 195.195 211.192 195.012C211.099 194.958 211.02 194.883 210.961 194.793C210.903 194.703 210.866 194.601 210.854 194.494C210.842 194.387 210.856 194.279 210.894 194.178C210.931 194.078 210.992 193.988 211.071 193.915C211.453 193.543 211.854 193.191 212.272 192.86C212.875 192.44 213.72 192.428 213.987 193.114L213.987 193.116Z" fill="#EA3F6B"/>
<path d="M209.088 194.477L211.4 193.341L212.326 192.641C212.461 192.537 212.621 192.47 212.79 192.446C212.993 192.421 213.199 192.461 213.378 192.56C213.558 192.659 213.701 192.812 213.789 192.998L213.989 193.113L212.109 195.179L209.501 196.145L209.413 196.109C209.261 196.045 209.127 195.944 209.023 195.816C208.919 195.687 208.848 195.535 208.816 195.373C208.784 195.211 208.793 195.043 208.841 194.885C208.888 194.727 208.974 194.583 209.09 194.465L209.088 194.477Z" fill="#EA3F6B"/>
<path d="M209.09 194.477C209.193 194.459 209.298 194.467 209.396 194.501C209.495 194.536 209.583 194.595 209.651 194.673C209.72 194.751 209.768 194.846 209.789 194.948C209.811 195.05 209.806 195.156 209.775 195.256L209.503 196.157L206.659 196.108L206.668 195.594L209.09 194.477Z" fill="#EA3F6B"/>
<path d="M216.77 167.246L214.075 193.447L211.907 193.221L211.208 166.702L211.211 166.668C211.227 166.286 211.32 165.911 211.486 165.567C211.651 165.222 211.885 164.915 212.173 164.664C212.461 164.414 212.797 164.225 213.161 164.109C213.525 163.994 213.908 163.954 214.288 163.993C214.669 164.031 215.038 164.148 215.372 164.335C215.706 164.522 215.999 164.776 216.231 165.081C216.464 165.386 216.632 165.735 216.724 166.107C216.817 166.48 216.833 166.867 216.77 167.246Z" fill="#F8AD07"/>
<path d="M216.871 138.886C217.447 138.945 218.004 139.121 218.51 139.404C219.015 139.687 219.457 140.071 219.809 140.532C220.161 140.993 220.414 141.522 220.554 142.085C220.695 142.648 220.718 143.234 220.624 143.806L216.782 167.055C216.501 168.462 215.024 169.475 213.605 169.291C212.924 169.216 212.298 168.882 211.854 168.359C211.411 167.836 211.184 167.163 211.219 166.477L212.195 142.93C212.22 142.351 212.362 141.782 212.614 141.26C212.866 140.737 213.222 140.272 213.66 139.894C214.098 139.515 214.609 139.23 215.161 139.056C215.713 138.883 216.295 138.825 216.871 138.886Z" fill="#F8AD07"/>
<path d="M215.228 138.164L215.398 139.066C215.448 139.342 215.434 139.626 215.355 139.895C215.277 140.165 215.138 140.413 214.947 140.619C214.873 140.717 214.824 140.831 214.804 140.953C214.784 141.074 214.794 141.199 214.833 141.315L215.603 143.627C215.606 143.655 215.6 143.684 215.588 143.71C215.576 143.735 215.557 143.757 215.534 143.773C215.51 143.789 215.483 143.798 215.455 143.799C215.426 143.801 215.398 143.795 215.373 143.781L213.801 142.529C213.558 142.325 213.359 142.074 213.215 141.791C213.071 141.507 212.985 141.198 212.962 140.881L212.822 139.071L212.967 138.56C213.016 138.379 213.106 138.212 213.23 138.072C213.354 137.933 213.509 137.824 213.683 137.755C213.856 137.686 214.043 137.658 214.228 137.675C214.414 137.691 214.593 137.75 214.751 137.849L215.228 138.164Z" fill="#F8AD07"/>
<path d="M212.566 123.565C213.049 123.671 213.555 123.584 213.976 123.323C214.397 123.063 214.701 122.648 214.823 122.167L219.468 103.91C219.553 103.576 219.571 103.229 219.519 102.888C219.467 102.547 219.348 102.221 219.168 101.927C218.987 101.634 218.75 101.38 218.47 101.181C218.189 100.982 217.872 100.842 217.536 100.768C217.2 100.695 216.853 100.69 216.515 100.754C216.178 100.818 215.856 100.949 215.57 101.14C215.284 101.331 215.039 101.578 214.85 101.865C214.66 102.153 214.531 102.476 214.469 102.815L211.089 121.354C211 121.842 211.105 122.346 211.381 122.759C211.656 123.172 212.081 123.461 212.566 123.565Z" fill="#E4003A"/>
<path d="M212.912 119.941C212.418 119.955 211.949 120.162 211.603 120.517C211.257 120.873 211.062 121.348 211.058 121.845L213.158 138.586L215.672 138.226L214.87 121.74C214.841 121.243 214.621 120.777 214.256 120.441C213.89 120.105 213.408 119.926 212.912 119.941Z" fill="#E4003A"/>
<path d="M217.738 100.887L233.875 102.564L232.558 114.22L228.413 129.114C228.135 130.325 227.425 131.391 226.417 132.113C225.409 132.835 224.172 133.162 222.939 133.032L221.181 132.85C218.474 132.569 216.918 130.15 216.638 127.471L215.556 112.746C215.44 110.898 217.738 100.887 217.738 100.887Z" fill="#E4003A"/>
<path d="M214.703 145.863L226.688 147.397C227.383 147.466 228.078 147.267 228.631 146.84C229.184 146.413 229.554 145.79 229.665 145.099L230.321 137.927C230.428 137.266 230.333 136.588 230.048 135.982C229.763 135.376 229.302 134.871 228.726 134.532L226.868 133.449C223.597 131.47 220.021 131.467 216.449 132.814L215.48 133.221C214.863 133.444 214.326 133.846 213.936 134.375C213.547 134.904 213.324 135.537 213.294 136.195L212.261 143C212.229 143.699 212.463 144.384 212.917 144.916C213.37 145.448 214.009 145.786 214.703 145.863Z" fill="#F8AD07"/>
<path d="M207.94 157.5L230.237 159.816C232.287 139.9 228.985 127.059 228.985 127.059L216.343 125.745C216.343 125.745 210.151 136.01 207.94 157.5Z" fill="#EE7A4B"/>
<path d="M239.427 138.744L239.534 139.656C239.563 139.935 239.528 140.217 239.431 140.48C239.334 140.743 239.177 140.979 238.973 141.171C238.891 141.262 238.832 141.372 238.803 141.492C238.773 141.611 238.774 141.736 238.805 141.855L239.416 144.217C239.418 144.246 239.411 144.274 239.398 144.299C239.385 144.324 239.366 144.345 239.341 144.36C239.317 144.375 239.29 144.383 239.261 144.383C239.233 144.384 239.205 144.376 239.181 144.362L237.7 142.995C237.473 142.774 237.291 142.509 237.168 142.216C237.044 141.923 236.98 141.608 236.979 141.29L236.968 139.469L237.146 138.974C237.208 138.798 237.31 138.639 237.445 138.509C237.579 138.38 237.742 138.284 237.92 138.228C238.098 138.173 238.287 138.16 238.471 138.191C238.655 138.222 238.83 138.295 238.981 138.405L239.427 138.744Z" fill="#F8AD07"/>
<path d="M238.912 124.856C239.387 124.716 239.789 124.395 240.032 123.963C240.275 123.531 240.34 123.021 240.214 122.54L235.436 104.311C235.349 103.978 235.196 103.665 234.986 103.393C234.776 103.12 234.513 102.892 234.214 102.724C233.914 102.555 233.583 102.448 233.242 102.41C232.9 102.372 232.555 102.403 232.226 102.502C231.897 102.6 231.59 102.764 231.326 102.984C231.061 103.203 230.844 103.474 230.686 103.78C230.528 104.086 230.433 104.42 230.407 104.764C230.381 105.107 230.425 105.452 230.535 105.779L236.556 123.633C236.714 124.104 237.049 124.494 237.488 124.722C237.928 124.95 238.438 124.998 238.912 124.856Z" fill="#E4003A"/>
<path d="M238.445 121.093C237.95 121.059 237.462 121.219 237.083 121.539C236.704 121.859 236.465 122.315 236.416 122.81L236.897 139.666L239.441 139.557L240.228 123.07C240.244 122.573 240.067 122.09 239.735 121.721C239.402 121.352 238.94 121.127 238.445 121.093Z" fill="#E4003A"/>
<path d="M222.79 101.378L223.92 94.1411L228.036 94.5687L227.347 101.998C227.32 102.301 227.234 102.596 227.093 102.866C226.952 103.136 226.759 103.375 226.526 103.569C226.292 103.764 226.022 103.91 225.732 104C225.441 104.089 225.136 104.12 224.834 104.091C224.516 104.06 224.209 103.964 223.931 103.808C223.653 103.651 223.41 103.439 223.218 103.184C223.026 102.929 222.889 102.637 222.815 102.326C222.742 102.015 222.733 101.692 222.79 101.378Z" fill="#F8AD07"/>
<path d="M223.727 89.6154L228.08 90.0676C228.612 90.1229 229.1 90.3879 229.438 90.8043C229.776 91.2207 229.934 91.7543 229.879 92.2879L229.305 97.8684C229.251 98.3742 229 98.838 228.606 99.1585C228.212 99.479 227.707 99.6303 227.202 99.5795L223.851 99.2313C223.474 99.1924 223.109 99.0795 222.776 98.8989C222.442 98.7184 222.148 98.4738 221.909 98.1792C221.67 97.8845 221.491 97.5455 221.382 97.1816C221.274 96.8177 221.238 96.436 221.277 96.0583L221.777 91.204C221.8 90.9712 221.87 90.7453 221.98 90.5394C222.091 90.3335 222.242 90.1515 222.423 90.0039C222.604 89.8564 222.812 89.7461 223.036 89.6794C223.26 89.6127 223.495 89.591 223.727 89.6154Z" fill="#F8AD07"/>
<path d="M223.85 87.7841L228.065 88.222C228.155 88.2313 228.245 88.2407 228.334 88.2622L228.335 88.2501C228.367 87.9436 228.459 87.6465 228.606 87.376C228.753 87.1054 228.952 86.8669 229.191 86.6741C229.431 86.4813 229.706 86.3381 230.002 86.2529C230.297 86.1676 230.606 86.142 230.912 86.1775C231.523 86.2654 232.077 86.5892 232.455 87.0799C232.832 87.5706 233.004 88.1896 232.933 88.8051L232.218 95.7516C232.035 97.532 230.198 98.7948 228.424 98.6105L228.622 96.2725C228.86 96.2645 229.088 96.169 229.261 96.0041C229.434 95.8393 229.541 95.6164 229.561 95.3778C229.582 95.1392 229.514 94.9014 229.371 94.7093C229.228 94.5173 229.02 94.3843 228.786 94.3357C228.817 93.9746 228.704 93.6159 228.474 93.3368C228.243 93.0577 227.912 92.8805 227.553 92.8432L223.298 92.4012C222.991 92.3693 222.694 92.2765 222.423 92.1281C222.153 91.9797 221.914 91.7786 221.722 91.5368C221.53 91.2949 221.387 91.0171 221.303 90.7195C221.219 90.4219 221.195 90.1105 221.233 89.8036C221.321 89.1916 221.644 88.6384 222.133 88.2613C222.621 87.8842 223.238 87.713 223.85 87.7841Z" fill="#E4003A"/>
<path d="M254.222 196.9L254.163 199.937L252.602 199.908L252.335 198.918C252.321 198.837 251.728 198.92 251.415 198.741C251.322 198.688 251.243 198.615 251.184 198.527C251.125 198.44 251.089 198.339 251.077 198.235C251.065 198.131 251.079 198.026 251.117 197.928C251.155 197.83 251.216 197.742 251.296 197.671C251.676 197.311 251.584 197.25 252 196.931C252.616 196.523 253.945 196.233 254.212 196.9L254.222 196.9Z" fill="#870B58"/>
<path d="M249.313 197.968L251.637 196.867L252.568 196.197C252.703 196.096 252.862 196.031 253.031 196.009C253.235 195.985 253.442 196.024 253.622 196.121C253.802 196.218 253.912 196.248 254 196.429L254 196.931L252.342 198.669L249.725 199.605L249.636 199.57C249.484 199.507 249.349 199.409 249.245 199.284C249.14 199.159 249.069 199.011 249.037 198.853C249.005 198.694 249.014 198.531 249.062 198.377C249.11 198.223 249.196 198.083 249.313 197.968Z" fill="#870B58"/>
<path d="M249.353 197.969C249.456 197.951 249.563 197.959 249.662 197.992C249.761 198.026 249.849 198.084 249.919 198.161C249.988 198.237 250.036 198.33 250.057 198.43C250.079 198.53 250.073 198.633 250.041 198.731L249.765 199.606L246.91 199.553L246.919 199.047L249.353 197.969Z" fill="#870B58"/>
<path d="M254.788 167.826L254 196.931L252 196.931L249.06 167.762L249.061 167.719C249.045 167.339 249.11 166.96 249.25 166.606C249.39 166.251 249.604 165.928 249.877 165.656C250.151 165.385 250.478 165.17 250.84 165.026C251.202 164.882 251.59 164.812 251.981 164.819C252.372 164.826 252.757 164.912 253.113 165.069C253.469 165.227 253.788 165.453 254.051 165.734C254.313 166.016 254.514 166.347 254.641 166.706C254.768 167.066 254.818 167.447 254.788 167.826Z" fill="#E94E0F"/>
<path d="M254.787 167.844L254.345 190.855L251.307 190.799L249.06 167.797C249.06 167.797 249.06 167.738 249.06 167.664C249.06 167.589 249.105 166.931 249.244 166.574C249.383 166.217 249.596 165.891 249.87 165.617C250.144 165.344 250.473 165.127 250.837 164.982C251.2 164.837 251.59 164.766 251.983 164.773C252.376 164.781 252.763 164.866 253.12 165.025C253.478 165.183 253.798 165.412 254.062 165.695C254.325 165.979 254.525 166.312 254.651 166.674C254.776 167.036 254.824 167.42 254.791 167.8L254.787 167.844Z" fill="#303642"/>
<path d="M254.795 138.369C255.361 138.427 255.91 138.599 256.408 138.875C256.905 139.152 257.341 139.526 257.687 139.975C258.034 140.425 258.284 140.939 258.422 141.488C258.561 142.036 258.585 142.607 258.492 143.164L254.545 167.758C254.271 169.127 252.818 170.113 251.422 169.932C250.752 169.858 250.136 169.533 249.699 169.023C249.262 168.513 249.038 167.857 249.072 167.189L250.215 142.304C250.238 141.741 250.377 141.189 250.623 140.681C250.869 140.174 251.218 139.722 251.647 139.353C252.075 138.985 252.576 138.707 253.117 138.538C253.659 138.369 254.23 138.311 254.795 138.369Z" fill="#303642"/>
<path d="M242.481 196.409L242.17 199.43L240.648 199.271L240.47 198.263C240.461 198.181 239.877 198.215 239.586 198.011C239.5 197.95 239.429 197.871 239.379 197.779C239.329 197.686 239.301 197.584 239.299 197.479C239.296 197.375 239.318 197.271 239.363 197.176C239.408 197.082 239.474 196.999 239.557 196.935C240.014 196.586 240.562 196.174 240.824 196.025C241.46 195.669 242.282 195.729 242.485 196.415L242.481 196.409Z" fill="#870B58"/>
<path d="M237.567 197.314L239.929 196.409L240.892 195.818C241.033 195.728 241.195 195.677 241.362 195.669C241.563 195.662 241.761 195.719 241.929 195.83C242.097 195.941 242.225 196.101 242.296 196.288L242.483 196.415L240.468 198.263L237.834 198.979L237.751 198.937C237.607 198.862 237.484 198.753 237.392 198.619C237.301 198.486 237.243 198.332 237.225 198.172C237.207 198.012 237.229 197.85 237.289 197.7C237.349 197.551 237.445 197.418 237.568 197.314L237.567 197.314Z" fill="#870B58"/>
<path d="M237.57 197.314C237.673 197.305 237.776 197.322 237.869 197.364C237.963 197.405 238.044 197.47 238.105 197.552C238.166 197.635 238.205 197.731 238.218 197.832C238.23 197.933 238.216 198.036 238.177 198.13L237.834 198.979L235.052 198.69L235.104 198.187L237.57 197.314Z" fill="#870B58"/>
<path d="M245.504 166.993L242.476 196.422L240.343 196.2L240.031 166.454L240.034 166.424C240.05 166.052 240.142 165.686 240.305 165.351C240.468 165.015 240.698 164.716 240.982 164.473C241.266 164.229 241.597 164.046 241.956 163.934C242.314 163.822 242.692 163.784 243.066 163.823C243.44 163.862 243.802 163.976 244.13 164.159C244.458 164.342 244.745 164.59 244.974 164.887C245.202 165.184 245.367 165.524 245.458 165.886C245.549 166.248 245.565 166.625 245.504 166.993Z" fill="#E94E0F"/>
<path d="M245.499 167.022L243.142 189.929L240.273 189.631L240.029 166.454L240.032 166.424C240.046 166.05 240.137 165.683 240.299 165.345C240.461 165.008 240.692 164.707 240.977 164.462C241.261 164.217 241.593 164.032 241.953 163.92C242.313 163.808 242.692 163.77 243.067 163.809C243.443 163.848 243.806 163.963 244.135 164.147C244.464 164.331 244.752 164.579 244.981 164.878C245.209 165.176 245.374 165.518 245.464 165.882C245.554 166.246 245.569 166.624 245.506 166.993L245.499 167.022Z" fill="#303642"/>
<path d="M245.771 137.407C246.338 137.465 246.887 137.638 247.384 137.914C247.882 138.19 248.317 138.565 248.664 139.014C249.01 139.463 249.26 139.978 249.399 140.527C249.537 141.075 249.561 141.646 249.469 142.203L245.516 166.796C245.239 168.165 243.789 169.153 242.392 168.972C241.722 168.898 241.105 168.572 240.668 168.062C240.231 167.552 240.006 166.895 240.04 166.227L241.184 141.342C241.207 140.778 241.346 140.225 241.593 139.717C241.839 139.209 242.188 138.757 242.618 138.389C243.048 138.02 243.549 137.743 244.092 137.574C244.634 137.405 245.206 137.349 245.771 137.407Z" fill="#303642"/>
<path d="M243.59 144.136L255.498 145.712C256.926 145.861 258.244 144.647 258.507 142.942L259.3 134.459C259.541 132.852 258.936 131.271 257.776 130.481L255.946 129.239C252.727 126.967 249.166 127.03 245.581 128.691L243.965 129.399C242.71 129.955 241.816 131.353 241.725 132.954L241.209 140.806C241.11 142.526 242.157 143.988 243.59 144.136Z" fill="#303642"/>
<path d="M231.936 138.061L231.48 138.881C231.34 139.131 231.142 139.345 230.903 139.506C230.664 139.667 230.391 139.77 230.104 139.807C229.981 139.835 229.866 139.893 229.771 139.976C229.676 140.059 229.603 140.163 229.558 140.281L228.657 142.603C228.642 142.628 228.62 142.648 228.593 142.662C228.567 142.675 228.538 142.681 228.508 142.679C228.479 142.677 228.45 142.667 228.426 142.65C228.402 142.633 228.383 142.61 228.371 142.583L227.941 140.558C227.882 140.239 227.888 139.91 227.958 139.593C228.029 139.276 228.163 138.977 228.353 138.712L229.426 137.198L229.869 136.89C230.027 136.78 230.208 136.709 230.399 136.681C230.589 136.653 230.784 136.67 230.967 136.731C231.15 136.791 231.316 136.892 231.453 137.028C231.589 137.163 231.692 137.328 231.753 137.509L231.936 138.061Z" fill="#E94E0F"/>
<path d="M240.15 125.45C240.981 125.684 241.866 125.623 242.655 125.28C243.443 124.936 244.086 124.331 244.473 123.567L251.734 106.376C251.98 105.89 252.121 105.357 252.149 104.813C252.177 104.268 252.09 103.724 251.895 103.214C251.7 102.704 251.401 102.239 251.015 101.849C250.63 101.459 250.168 101.153 249.658 100.949C248.691 100.559 247.608 100.562 246.645 100.958C245.682 101.353 244.915 102.11 244.511 103.064L238.418 121.904C237.998 123.795 238.49 125.08 240.149 125.462L240.15 125.45Z" fill="#870B58"/>
<path d="M229.43 137.187L231.936 138.041L244.024 124.249L244.035 124.238C244.295 123.941 244.449 123.568 244.475 123.175C244.5 122.782 244.396 122.392 244.177 122.063C242.939 120.204 240.874 119.815 239.1 121.171L238.92 121.311C238.712 121.469 238.54 121.669 238.415 121.898L229.43 137.187Z" fill="#870B58"/>
<path d="M248.711 100.694L262.795 102.158L263.071 114.858L259.986 128.275C259.714 129.454 259.017 130.492 258.026 131.193C257.034 131.895 255.818 132.212 254.605 132.084L248.928 131.494C247.646 131.361 246.464 130.741 245.63 129.765C244.795 128.788 244.373 127.53 244.45 126.253L243.676 115.142C243.55 113.342 243.869 111.54 244.603 109.892L248.711 100.694Z" fill="#870B58"/>
<path d="M244.474 126.079C244.474 126.079 245.285 122.489 247.285 122.697L257.608 123.769C259.725 123.989 260.015 127.979 260.015 127.979L262.445 140.229L253.954 139.346L250.408 135.018L246.056 138.526L238.665 137.758L244.474 126.079Z" fill="#870B58"/>
<path d="M270.599 142.06L270.746 142.987C270.787 143.27 270.761 143.56 270.669 143.832C270.578 144.104 270.424 144.351 270.22 144.554C270.14 144.651 270.084 144.766 270.059 144.889C270.033 145.012 270.039 145.14 270.075 145.26L270.777 147.65C270.779 147.679 270.774 147.708 270.761 147.735C270.748 147.761 270.728 147.783 270.704 147.799C270.679 147.815 270.651 147.824 270.622 147.826C270.592 147.827 270.563 147.82 270.537 147.806L268.96 146.456C268.718 146.238 268.521 145.974 268.384 145.679C268.246 145.384 268.17 145.065 268.159 144.74L268.083 142.888L268.335 142.428C268.44 142.235 268.588 142.068 268.769 141.941C268.949 141.813 269.156 141.728 269.374 141.692C269.593 141.656 269.816 141.67 270.029 141.732C270.241 141.795 270.436 141.905 270.599 142.054L270.599 142.06Z" fill="#E94E0F"/>
<path d="M269.608 127C270.391 126.642 271.023 126.025 271.397 125.254C271.771 124.484 271.863 123.608 271.657 122.777L265.913 105.003C265.781 104.474 265.54 103.978 265.205 103.545C264.87 103.113 264.448 102.755 263.966 102.493C263.485 102.231 262.954 102.07 262.406 102.022C261.859 101.974 261.308 102.039 260.788 102.213C259.797 102.541 258.977 103.242 258.505 104.165C258.033 105.089 257.946 106.159 258.264 107.146L265.964 125.412C266.882 127.121 268.09 127.786 269.606 127L269.608 127Z" fill="#870B58"/>
<path d="M268.085 142.893L270.599 142.059L271.739 124.188C271.757 123.912 271.752 123.634 271.723 123.358C271.702 123.169 271.643 122.986 271.549 122.821C271.456 122.655 271.329 122.51 271.178 122.394L268.819 120.57C268.634 120.428 268.417 120.332 268.186 120.293C267.954 120.253 267.717 120.27 267.495 120.343C267.272 120.416 267.071 120.542 266.909 120.71C266.747 120.878 266.629 121.083 266.566 121.307L266.047 125.274C265.994 125.466 265.982 125.668 266.013 125.865L268.083 142.891L268.085 142.893Z" fill="#870B58"/>
<path d="M252.972 101.137L254.291 94.0787L257.867 94.4502L257.721 101.63L252.972 101.137Z" fill="#E94E0F"/>
<path d="M252.134 91.4509L257.91 92.051C258.434 92.1054 258.915 92.364 259.247 92.7699C259.58 93.1757 259.736 93.6957 259.683 94.2152L259.386 97.099C259.334 97.5906 259.088 98.0411 258.702 98.3529C258.316 98.6646 257.821 98.8123 257.325 98.7639L254.266 98.4461C253.518 98.3683 252.831 97.9988 252.356 97.4188C251.88 96.8388 251.656 96.0959 251.733 95.3534L252.134 91.4509Z" fill="#E94E0F"/>
<path d="M257.766 86.8881C259.121 87.0288 260.366 87.6978 261.227 88.7477C262.087 89.7977 262.493 91.1428 262.355 92.4871L262.322 92.8084L260.125 101.886L253.402 105.989L252.405 101.078L252.282 97.3232C252.597 97.7406 253.022 98.0642 253.509 98.2585L253.223 99.7811L256.107 100.047L258.574 92.419L252.104 91.7467L252.137 91.4254C252.275 90.0813 252.946 88.8481 254.002 87.9972C255.057 87.1463 256.412 86.7473 257.766 86.8881V86.8881Z" fill="#E4003A"/>
<path d="M274.663 33.1627C274.888 31.9599 275.056 30.7571 275.056 29.497C275.056 23.5404 272.192 18.2138 267.81 14.8918C266.799 6.52954 259.834 0.00012207 251.353 0.00012207C242.59 0.00012207 235.401 6.93047 234.839 15.6936C232.985 14.8345 230.963 14.3763 228.773 14.3763C220.628 14.3763 214 21.1348 214 29.4398C214 30.6998 214.169 31.9599 214.449 33.1054H274.663V33.1627Z" fill="#FDEAC1"/>
<path d="M147.997 109.001L147.774 107.02C147.677 106.408 147.808 105.726 148.184 105.231L149.333 103.666C149.402 103.557 149.589 103.645 149.569 103.724L149.384 106.116C149.353 106.403 149.471 106.6 149.687 106.738C150.15 107.062 150.444 107.556 150.482 108.069L150.498 108.998L147.997 109.001Z" fill="#F9D2C3"/>
<path d="M139.344 125.294L150.5 109H148L138.485 119.223L130.925 104.478L126 106.849L134.247 123.964C135.164 125.93 137.626 126.567 139.344 125.294Z" fill="#F8AD07"/>
<path d="M131.28 146.763L134.029 162.78C134.086 162.954 134.086 163.185 134.086 163.359L132.711 195.335H135.059L140.329 163.763C140.443 163.069 140.5 162.376 140.558 161.682L142.047 147.226L131.28 146.763Z" fill="#F9D2C3"/>
<path d="M124.235 163.706L118.336 195.335H120.684L130.592 163.821C130.821 163.07 130.993 162.318 130.993 161.508L131.623 147.457L120.913 147.168L124.235 162.549C124.292 162.954 124.292 163.359 124.235 163.706Z" fill="#F9D2C3"/>
<path d="M133.341 93.0457H131.337C130.421 93.0457 129.733 92.294 129.733 91.4267V85.4709H136.262V90.1546C136.205 91.7736 134.945 93.0457 133.341 93.0457Z" fill="#F9D2C3"/>
<path d="M134.086 90.5593L131.051 91.2532L129.447 97.209H134.773L134.086 90.5593Z" fill="#F9D2C3"/>
<path d="M147.659 153.413V141.906C147.659 130.052 146.342 118.257 143.765 106.692C143.765 106.692 142.047 99.6375 140.099 98.3076C138.954 97.4981 137.522 97.1511 136.148 97.1511H128.015C125.781 97.1511 123.72 98.2498 122.402 100.042L122.345 100.1C121.486 101.314 121.028 104.206 121.028 104.206C117.592 117.389 115.873 130.978 115.873 144.566V153.355H147.659V153.413Z" fill="#F8AD07"/>
<path d="M134.773 87.4369H129.676L131.967 82.5797H134.716C136.033 82.5797 137.121 83.6784 137.121 85.0083C137.179 86.3382 136.09 87.4369 134.773 87.4369Z" fill="#303642"/>
<path d="M124.636 115.423C127.442 115.423 129.676 113.168 129.676 110.335V88.8246C126.87 88.8246 124.636 91.0797 124.636 93.913V115.423Z" fill="#303642"/>
<path d="M129.504 91.0219H127.156V87.4369C127.156 84.7192 129.332 82.5797 131.967 82.5797V88.4777C132.024 89.9232 130.879 91.0219 129.504 91.0219Z" fill="#303642"/>
<path d="M132.081 89.2872C132.081 89.8076 131.68 90.2123 131.165 90.2123C130.65 90.2123 130.249 89.8076 130.249 89.2872C130.249 88.7668 130.65 88.362 131.165 88.362C131.68 88.362 132.081 88.7668 132.081 89.2872Z" fill="#F9D2C3"/>
<path d="M170.225 88.4777L154.99 100.042L138.324 103.223L137.179 97.2668L152.871 94.7804L168.105 87.3212L170.225 88.4777Z" fill="#F8AD07"/>
<path d="M170.225 88.4777L171.485 86.9165C171.885 86.4539 172.057 85.76 172 85.1818L171.714 83.2158C171.714 83.1002 171.542 83.0424 171.485 83.158L170.454 85.3553C170.339 85.5866 170.11 85.76 169.881 85.76C169.308 85.76 168.793 86.107 168.506 86.5696L168.048 87.3213L170.225 88.4777Z" fill="#F9D2C3"/>
<path d="M125.151 197.937H122.918L119.711 196.896L120.684 195.277L125.151 197.474V197.937Z" fill="#E4003A"/>
<path d="M119.997 197.937H118.336V195.277H120.684L119.711 196.896L119.997 197.937Z" fill="#E4003A"/>
<path d="M139.527 197.937H137.293L134.086 196.896L135.117 195.277L139.527 197.474V197.937Z" fill="#E4003A"/>
<path d="M134.43 197.937H132.711V195.277H135.117L134.086 196.896L134.43 197.937Z" fill="#E4003A"/>
<path d="M163.542 64.3135L161.604 64.9479L174.588 104.994L176.525 104.36L163.542 64.3135Z" fill="#AAAEB8"/>
<path d="M167.244 79.0621C172.188 77.4431 174.899 72.1285 173.299 67.1915C171.698 62.2545 166.392 59.5646 161.447 61.1835C156.503 62.8025 153.792 68.1171 155.392 73.0541C156.993 77.9911 162.299 80.681 167.244 79.0621Z" fill="#E4003A"/>
<path d="M170.026 66.8593L157.489 70.964L158.306 73.4837L170.843 69.379L170.026 66.8593Z" fill="white"/>
<path d="M39.4009 40.1627C44.9009 40.1627 49.7009 42.675 52.9009 46.5942C54.7009 45.8908 56.601 45.3883 58.601 45.3883C66.101 45.3883 72.201 50.9154 73.301 58.1509H56.9009H44.001H22.001C22.001 57.9499 22.001 57.8494 22.001 57.6484C21.901 48.1016 29.7009 40.1627 39.4009 40.1627Z" fill="#F8BFCD"/>
<path d="M54.3629 197.936H47.6372L49.3186 47.9434H52.6815L54.3629 197.936Z" fill="#303642"/>
<path d="M54.2743 47.9433H47.7257L43.2124 34.7166H58.7876L54.2743 47.9433Z" fill="#F8AD07"/>
<path d="M51.354 50.7327H50.7346C49.0531 50.7327 47.7257 49.383 47.7257 47.6735H54.4514C54.3629 49.383 53.0354 50.7327 51.354 50.7327Z" fill="#303642"/>
<path d="M51 26.7086L41 35.3465H61L51 26.7086Z" fill="#303642"/>
<path d="M52.5929 26.7086C52.5929 27.6084 51.885 28.3282 51 28.3282C50.1151 28.3282 49.4071 27.6084 49.4071 26.7086C49.4071 25.8088 50.1151 25.089 51 25.089C51.885 25.089 52.5929 25.8088 52.5929 26.7086Z" fill="#303642"/>
<path d="M52.6814 73.4971H49.3185C48.7876 73.4971 48.4336 73.0472 48.4336 72.5973C48.4336 72.0574 48.8761 71.6975 49.3185 71.6975H52.6814C53.2124 71.6975 53.5663 72.1474 53.5663 72.5973C53.5663 73.0472 53.2124 73.4971 52.6814 73.4971Z" fill="#303642"/>
<path d="M53.2124 113.807H48.7876C48.1682 113.807 47.6372 113.267 47.6372 112.637C47.6372 112.008 48.1682 111.468 48.7876 111.468H53.1239C53.7434 111.468 54.2744 112.008 54.2744 112.637C54.3629 113.267 53.8319 113.807 53.2124 113.807Z" fill="#303642"/>
<path d="M54.2744 168.783H47.8142C47.1947 168.783 46.6637 169.323 46.5752 169.953L45.4248 198.026H56.4868L55.4248 169.953C55.4248 169.233 54.8938 168.783 54.2744 168.783Z" fill="#303642"/>
<path d="M51.8849 33.4569H50.115V49.203H51.8849V33.4569Z" fill="#303642"/>
</svg>
