<svg width="340" height="208" viewBox="0 0 340 208" fill="none" xmlns="http://www.w3.org/2000/svg">
<rect width="340" height="204" transform="translate(0 4.00012)" fill="#F8F9FB"/>
<rect y="191.598" width="339.793" height="16.402" fill="#F9D2C3"/>
<path d="M278.933 88.6002H276V194.2H278.933V88.6002Z" fill="#AAAEB8"/>
<rect x="264" y="56.6002" width="28" height="34.6667" rx="2" fill="#E4003A"/>
<path d="M275.516 76.984V82.9957H272V65.9332H278.656C279.938 65.9332 281.062 66.1676 282.031 66.6364C283.008 67.1051 283.758 67.7731 284.281 68.6403C284.805 69.4996 285.066 70.4801 285.066 71.5817C285.066 73.2535 284.492 74.5739 283.344 75.5426C282.203 76.5035 280.621 76.984 278.598 76.984H275.516ZM275.516 74.1364H278.656C279.586 74.1364 280.293 73.9176 280.777 73.4801C281.27 73.0426 281.516 72.4176 281.516 71.6051C281.516 70.7692 281.27 70.0934 280.777 69.5778C280.285 69.0621 279.605 68.7965 278.738 68.7809H275.516V74.1364Z" fill="white"/>
<path d="M237.847 191.607L242.847 191.607L219.5 208L214 208L237.847 191.607Z" fill="white"/>
<path d="M314.693 191.607L319.693 191.607L296.347 208L290.847 208L314.693 191.607Z" fill="white"/>
<path d="M223.5 170.943C221.167 172.277 215.2 174.743 210 173.943C203.5 172.943 198 171.943 195 172.943C192 173.943 192.5 177.943 195 176.944C197.936 175.769 192.5 166.944 188 169.444" stroke="#F8AD07" stroke-width="0.5" stroke-linecap="round" stroke-dasharray="2 2"/>
<path d="M162.82 189.983C161.34 189.943 157.934 189.663 156.154 188.863M162.82 189.983C160.219 192.34 157.163 193.878 153.968 194.612M162.82 189.983C166.165 186.953 168.236 183.041 169 178.922M162.82 189.983C163.414 186.732 163.52 180.953 161.363 175.855M142.562 156.718C144.605 155.955 146.744 155.542 148.888 155.476M129.851 172.724C129.769 173.357 129.717 173.993 129.696 174.631M165.164 192.569L149.041 174.774M133.105 157.186L137.511 162.048M154.706 168.135C157.983 170.01 160.076 172.811 161.363 175.855M150.749 186.225C150.221 185.906 149.574 185.48 148.852 184.962M138.525 173.564C139.39 175.395 140.614 177.139 141.977 178.725M141.977 178.725L136.009 178.48M141.977 178.725C144.214 181.329 146.828 183.51 148.852 184.962M148.852 184.962L149.03 181M145.034 194.606L141.716 197.047M145.034 194.606C147.964 195.282 151.025 195.288 153.968 194.612M145.034 194.606C142.754 194.08 140.553 193.148 138.548 191.816M153.968 194.612L154.427 199.848M130.477 180.855C131.291 183.647 132.734 186.302 134.818 188.602C135.95 189.852 137.205 190.924 138.548 191.816M130.477 180.855L125.686 179.355M130.477 180.855C129.885 178.825 129.626 176.722 129.696 174.631M129.696 174.631L125.769 169.673M138.548 191.816L139.267 184.571M143.135 168.256L136.317 168.632M143.135 168.256L137.511 162.048M143.135 168.256L149.041 174.774M137.511 162.048L138.443 155.175M148.888 155.476L147.689 152.073M148.888 155.476C151.619 155.392 154.358 155.869 156.919 156.898M161.853 159.775C162.681 160.435 163.467 161.17 164.201 161.981C165.922 163.88 167.206 166.021 168.059 168.281M161.853 159.775L160.943 155.89M161.853 159.775C160.331 158.561 158.666 157.601 156.919 156.898M168.059 168.281L170.114 164.348M168.059 168.281C168.332 169.005 168.561 169.74 168.747 170.484M168.747 170.484L160.247 168.012M168.747 170.484C169.436 173.253 169.517 176.135 169 178.922M169 178.922L173.629 179.248M161.363 175.855L154.139 175.618M149.041 174.774L150.16 168.108M156.919 156.898L150.526 162.69" stroke="#F8AD07" stroke-width="2.5" stroke-linecap="round"/>
<path d="M222.62 11.7639C220.116 11.7639 217.613 12.0715 215.209 12.7891C214.708 6.22826 209.401 1.00012 202.791 1.00012C198.185 1.00012 194.179 3.56294 191.976 7.3559C189.472 6.5358 186.869 6.02324 184.165 6.02324C179.558 6.02324 175.252 7.3559 171.647 9.61118C169.544 9.09861 167.24 8.79108 165.037 8.79108C153.821 8.79108 144.107 15.1469 139 24.4755H160.731H191.075H196.182H199.286H207.799H209.701H246.254C241.046 16.8896 232.434 11.7639 222.62 11.7639Z" fill="#E1C2D5"/>
<path d="M69.5326 70.0254C70.8838 64.1218 71.6044 57.5825 71.6044 50.7707C71.6945 22.7061 59.0835 0.00012207 43.5 0.00012207C27.9164 0.00012207 15.3055 22.7061 15.3055 50.7707C15.3055 57.5825 16.0261 64.1218 17.3773 70.0254C12.1527 76.1106 9 84.1031 9 92.8222C9 111.986 24.4034 127.608 43.5 127.608C62.5065 127.608 78 112.077 78 92.8222C78 84.1031 74.8473 76.1106 69.5326 70.0254Z" fill="#870B58"/>
<path d="M44.6709 96.4552H40.167V194H44.6709V96.4552Z" fill="#E1C2D5"/>
<path d="M56.4087 104.878L41.6953 119.714L43.2877 121.319L58.0011 106.484L56.4087 104.878Z" fill="#E1C2D5"/>
<path d="M313.082 38.4265L302.598 50.0876L301.175 48.5806L311.615 36.8676L313.082 38.4265Z" fill="#F8AD07"/>
<path d="M310.864 51.4255L311.502 53.2571L300.272 56.3474L299.617 54.4834L310.864 51.4255Z" fill="#F8AD07"/>
<path d="M295.987 48.9165L296.966 39.8427L298.867 40.6237L298.017 49.7697L295.987 48.9165Z" fill="#F8AD07"/>
</svg>
