<svg width="340" height="208" viewBox="0 0 340 208" fill="none" xmlns="http://www.w3.org/2000/svg">
<rect width="340" height="204" transform="translate(0 4)" fill="#F8F9FB"/>
<path d="M108.06 161.452L107.528 159.376L118.272 151.691L107.821 139.799L113.219 138.1L124.468 150.774C125.479 152.284 125 154.333 123.458 155.25L108.06 161.452Z" fill="#E94E0F"/>
<path d="M115.719 167.654H92.1578L91.6791 140.258C91.7589 139.718 91.9184 139.233 92.1578 138.774C92.929 137.291 94.4714 136.321 96.1999 136.321H109.603C111.863 136.321 113.778 137.993 114.124 140.258L115.719 167.654Z" fill="#E94E0F"/>
<path d="M99.8698 136.321V139.152C99.8698 139.799 100.588 140.177 101.12 139.799L105.773 136.321H99.8698Z" fill="#F9D2C3"/>
<path d="M105.8 132.357C104.669 132.357 103.752 131.463 103.752 130.361C103.752 129.259 104.669 128.366 105.8 128.366C106.931 128.366 107.848 129.259 107.848 130.361C107.848 131.463 106.931 132.357 105.8 132.357Z" fill="#303642"/>
<path d="M105.785 129.701H103.232V126.681H105.785V129.701Z" fill="#303642"/>
<path d="M105.082 128.312C105.082 128.636 104.816 128.905 104.497 128.905C104.178 128.905 103.912 128.636 103.912 128.312C103.912 127.989 104.178 127.719 104.497 127.719C104.843 127.746 105.082 127.989 105.082 128.312Z" fill="#F9D2C3"/>
<path d="M101.731 129.256H104.045L105.773 136.321H99.8698L101.731 129.256Z" fill="#F9D2C3"/>
<path d="M101.173 131.952H103.061C103.885 131.952 104.577 131.278 104.577 130.415V124.807H98.4603V129.202C98.4868 130.712 99.6835 131.952 101.173 131.952Z" fill="#F9D2C3"/>
<path d="M105.8 126.694H99.9227C98.9122 126.694 98.1144 125.858 98.1144 124.861C98.1144 123.836 98.9388 123.027 99.9227 123.027H102.157C104.178 123 105.8 124.645 105.8 126.694Z" fill="#303642"/>
<path d="M84 159L92 166L93.3031 164.328L88.3879 159.162L96.5454 143.871L92.131 138.802L83.8936 155.818C83.6011 156.843 83.6277 157.948 84 159Z" fill="#E94E0F"/>
<path d="M102.476 150.45H103.273C103.273 149.776 103.008 149.399 102.821 149.102C102.635 148.832 102.502 148.644 102.502 148.239C102.502 147.808 102.635 147.619 102.821 147.376C103.034 147.08 103.273 146.729 103.273 146.028C103.273 145.354 103.008 144.976 102.821 144.68C102.635 144.41 102.502 144.221 102.502 143.817C102.502 143.412 102.635 143.197 102.821 142.954C103.034 142.657 103.273 142.307 103.273 141.606H102.476C102.476 142.037 102.343 142.226 102.157 142.469C101.944 142.765 101.704 143.116 101.704 143.817C101.704 144.518 101.97 144.869 102.157 145.165C102.343 145.435 102.476 145.624 102.476 146.028C102.476 146.46 102.343 146.648 102.157 146.891C101.944 147.188 101.704 147.538 101.704 148.239C101.704 148.913 101.97 149.291 102.157 149.587C102.343 149.857 102.476 150.046 102.476 150.45Z" fill="white"/>
<path d="M105.374 150.45H106.172C106.172 149.776 105.906 149.399 105.72 149.102C105.534 148.833 105.401 148.644 105.401 148.239C105.401 147.808 105.534 147.619 105.72 147.376C105.933 147.08 106.172 146.729 106.172 146.028C106.172 145.354 105.906 144.977 105.72 144.68C105.534 144.41 105.401 144.221 105.401 143.817H104.603C104.603 144.491 104.869 144.869 105.055 145.165C105.241 145.435 105.374 145.624 105.374 146.028C105.374 146.46 105.241 146.648 105.055 146.891C104.842 147.188 104.603 147.538 104.603 148.239C104.603 148.913 104.869 149.291 105.055 149.588C105.241 149.857 105.374 150.046 105.374 150.45Z" fill="white"/>
<path d="M103.938 161.587H103.991C105.933 161.587 107.528 159.969 107.528 158.001V151.799H100.375V158.001C100.401 159.969 101.97 161.587 103.938 161.587Z" fill="#870B58"/>
<rect y="191.598" width="339.793" height="16.402" fill="#F9D2C3"/>
<path d="M278.933 88.6001H276V194.2H278.933V88.6001Z" fill="#AAAEB8"/>
<rect x="264" y="56.6001" width="28" height="34.6667" rx="2" fill="#F8AD07"/>
<path d="M275.516 76.9839V82.9956H272V65.9331H278.656C279.938 65.9331 281.062 66.1675 282.031 66.6362C283.008 67.105 283.758 67.7729 284.281 68.6401C284.805 69.4995 285.066 70.48 285.066 71.5815C285.066 73.2534 284.492 74.5737 283.344 75.5425C282.203 76.5034 280.621 76.9839 278.598 76.9839H275.516ZM275.516 74.1362H278.656C279.586 74.1362 280.293 73.9175 280.777 73.48C281.27 73.0425 281.516 72.4175 281.516 71.605C281.516 70.769 281.27 70.0933 280.777 69.5776C280.285 69.062 279.605 68.7964 278.738 68.7808H275.516V74.1362Z" fill="white"/>
<path d="M237.847 191.607L242.847 191.607L219.5 208L214 208L237.847 191.607Z" fill="white"/>
<path d="M314.693 191.607L319.693 191.607L296.347 208L290.847 208L314.693 191.607Z" fill="white"/>
<path d="M104.468 115H133.37C143.427 115 153.23 118.159 161.395 124.031L162.351 124.719C174.892 133.738 182.326 148.241 182.326 163.688V171.206C182.326 177.281 177.401 182.206 171.326 182.206H17.7523L17.0735 175.389C15.8604 163.208 23.2334 151.806 34.8404 147.915L46.6745 143.947C51.9715 142.171 56.9177 139.484 61.2906 136.007L74.5939 125.429C83.0869 118.676 93.6173 115 104.468 115Z" fill="#870B58"/>
<path d="M117.185 124.161C117.185 121.952 115.394 120.161 113.185 120.161H110.98C96.9749 120.161 83.4806 125.424 73.1734 134.907C70.7182 137.166 72.3163 141.263 75.6526 141.263H113.185C115.394 141.263 117.185 139.472 117.185 137.263V124.161Z" fill="white"/>
<path d="M163.468 138.7C155.456 127.091 142.252 120.161 128.147 120.161H124.583C123.537 120.161 122.69 121.009 122.69 122.055V137.263C122.69 139.472 124.48 141.263 126.69 141.263H162.123C163.441 141.263 164.217 139.784 163.468 138.7Z" fill="white"/>
<circle r="17.5468" transform="matrix(-1 0 0 1 48.7168 179.453)" fill="#242831"/>
<circle r="12.5007" transform="matrix(-1 0 0 1 48.7171 179.453)" fill="#D4D6DB"/>
<circle r="17.5468" transform="matrix(-1 0 0 1 151.934 179.453)" fill="#242831"/>
<circle r="12.5007" transform="matrix(-1 0 0 1 151.934 179.453)" fill="#D4D6DB"/>
<rect width="5.50489" height="2.06434" transform="matrix(-1 0 0 1 117.185 150.437)" fill="#F8AD07"/>
<path d="M223.5 170.943C221.167 172.277 215.2 174.743 210 173.943C203.5 172.943 198 171.943 195 172.943C192 173.943 192.5 177.943 195 176.943C197.936 175.769 192.5 166.944 188 169.444" stroke="#F8AD07" stroke-width="0.5" stroke-linecap="round" stroke-dasharray="2 2"/>
<path d="M242.413 37.4264L252.897 49.0874L254.32 47.5805L243.88 35.8675L242.413 37.4264Z" fill="#F8AD07"/>
<path d="M244.63 50.4254L243.993 52.257L255.223 55.3473L255.878 53.4833L244.63 50.4254Z" fill="#F8AD07"/>
<path d="M259.507 47.9164L258.528 38.8426L256.627 39.6236L257.478 48.7695L259.507 47.9164Z" fill="#F8AD07"/>
<path d="M75.5118 41.007C72.207 41.007 69.1026 41.7246 66.1984 43.0572C64.3959 39.9819 61.0911 37.8291 57.2857 37.8291C51.5775 37.8291 46.9709 42.5447 46.9709 48.3879C46.9709 48.4904 46.9709 48.5929 46.9709 48.6954C46.1697 48.4904 45.2685 48.3879 44.3672 48.3879C39.8607 48.3879 35.9551 50.8482 33.752 54.5386H48.9738H54.9824H65.5976H95.941C92.5362 46.5427 84.6248 41.007 75.5118 41.007Z" fill="#F9C145"/>
<path d="M296.154 10.7638C293.65 10.7638 291.147 11.0714 288.743 11.7889C288.243 5.22814 282.935 0 276.326 0C271.719 0 267.713 2.56281 265.51 6.35578C263.006 5.53568 260.403 5.02312 257.699 5.02312C253.092 5.02312 248.786 6.35578 245.181 8.61105C243.078 8.09849 240.775 7.79095 238.571 7.79095C227.355 7.79095 217.641 14.1467 212.534 23.4754H234.265H264.609H269.716H272.821H281.333H283.235H319.788C314.58 15.8894 305.968 10.7638 296.154 10.7638Z" fill="#F8BFCD"/>
</svg>
