<svg width="340" height="204" viewBox="0 0 340 204" fill="none" xmlns="http://www.w3.org/2000/svg">
<rect width="340" height="204" transform="translate(0 0.000244141)" fill="#F8F9FB"/>
<rect y="187.598" width="339.793" height="16.402" fill="#F9D2C3"/>
<path d="M91.4304 189.867C93.325 189.867 94.8608 188.329 94.8608 186.433C94.8608 184.537 93.325 183 91.4304 183C89.5359 183 88 184.537 88 186.433C88 188.329 89.5359 189.867 91.4304 189.867Z" fill="#F8AD07"/>
<path d="M138.43 189.867C140.325 189.867 141.861 188.329 141.861 186.433C141.861 184.537 140.325 183 138.43 183C136.536 183 135 184.537 135 186.433C135 188.329 136.536 189.867 138.43 189.867Z" fill="#F8AD07"/>
<rect x="87" y="45.0002" width="56" height="138" fill="#E4003A"/>
<rect x="92.2832" y="49.0002" width="45.434" height="19" fill="#F9C145"/>
<rect x="92.2832" y="72.0002" width="45.434" height="39" fill="#F9C145"/>
<rect x="92.2832" y="116" width="45.434" height="63" fill="#F9C145"/>
<path d="M159.812 47.5836L168.526 60.6208L170.15 59.3323L161.487 46.25L159.812 47.5836Z" fill="#F8AD07"/>
<path d="M160.154 60.7662L159.261 62.4881L169.936 67.1485L170.85 65.397L160.154 60.7662Z" fill="#F8AD07"/>
<path d="M175.236 60.4046L175.562 51.2839L173.569 51.7859L173.106 60.9596L175.236 60.4046Z" fill="#F8AD07"/>
<path d="M189.691 149.149H184.138L175.789 188.161H178.342L189.691 149.149Z" fill="#F8BFCD"/>
<path d="M192.368 149.149L191.639 188.161H194.233L197.921 149.149H192.368Z" fill="#F8BFCD"/>
<path d="M183.246 191H180.814L177.248 189.865L178.382 188.121L183.246 190.473V191Z" fill="#E4003A"/>
<path d="M177.612 191H175.789V188.121H178.383L177.248 189.865L177.612 191Z" fill="#E4003A"/>
<path d="M199.137 191H196.705L193.138 189.865L194.273 188.121L199.137 190.473V191Z" fill="#E4003A"/>
<path d="M193.503 191H191.639V188.121H194.273L193.138 189.865L193.503 191Z" fill="#E4003A"/>
<path d="M198.323 155.232H182.233L179.396 131.751H201.16L198.323 155.232Z" fill="#303642"/>
<path d="M192.091 80.9892C192.944 78.9672 192.349 76.7842 190.761 76.1134C189.173 75.4425 187.194 76.5378 186.341 78.5598C185.488 80.5818 186.083 82.7647 187.671 83.4356C189.259 84.1065 191.238 83.0112 192.091 80.9892Z" fill="#E4003A"/>
<path d="M194.476 76.841C194.314 77.7737 194.962 78.6659 195.935 78.7876C196.867 78.9498 197.759 78.3009 197.881 77.3276C198.043 76.3949 197.394 75.5027 196.421 75.3811C195.489 75.2594 194.598 75.9083 194.476 76.841Z" fill="#E4003A"/>
<path d="M193.381 83.1674L191.355 82.843C190.463 82.6807 189.855 81.8697 190.017 80.9775L190.99 75.0972L197.475 76.1516L196.745 80.7747C196.462 82.3563 194.962 83.4107 193.381 83.1674Z" fill="#F8BFCD"/>
<path d="M191.234 79.0309C191.315 79.4365 191.031 79.842 190.626 79.9231C190.22 80.0042 189.815 79.7203 189.734 79.3148C189.653 78.9093 189.937 78.5037 190.342 78.4226C190.747 78.3415 191.153 78.6254 191.234 79.0309Z" fill="#F8BFCD"/>
<path d="M190.099 77.9765L193.503 78.1793C196.462 78.301 197.84 77.2466 198.124 75.2189C198.245 74.4889 197.597 73.7995 196.665 73.6778L193.706 73.475C192.125 73.2317 190.707 74.0428 190.504 75.3L190.099 77.9765Z" fill="#E4003A"/>
<path d="M178.18 135.563H201.485L201.647 111.231L202.417 93.6303C202.417 89.8994 199.418 86.8984 195.689 86.8984H186.732C182.395 86.8984 179.193 90.9538 180.206 95.1714L183.165 107.621C183.732 109.974 183.732 112.447 183.165 114.799L178.18 135.563Z" fill="#E4003A"/>
<path d="M194.233 79.6392L190.869 80.4097L189.126 86.8984L193.22 93.9142C193.422 94.2386 193.949 94.1575 193.99 93.752L195.003 86.8984L194.233 79.6392Z" fill="#F8BFCD"/>
<path d="M183.003 126.317L166.183 110.744C164.724 109.406 164.683 107.135 166.021 105.715L182.557 88.5205L186.935 92.7381L172.019 108.311L185.273 124.127L183.003 126.317Z" fill="#E4003A"/>
<path d="M184.948 124.005L186.245 125.749C186.651 126.317 186.813 127.006 186.691 127.696L186.326 129.845C186.286 129.967 186.124 130.007 186.043 129.886L185.07 127.452C184.948 127.209 184.746 127.006 184.462 127.006C183.854 126.966 183.327 126.601 183.003 126.073L182.517 125.181L184.948 124.005Z" fill="#F8BFCD"/>
<path d="M219.414 96.0143L220.942 94.4584C221.433 93.9733 221.698 93.3032 221.655 92.599L221.554 90.4362C221.558 90.3085 221.367 90.2393 221.285 90.3905L219.98 92.681C219.843 92.9329 219.582 93.0536 219.325 93.0466C218.721 93.0173 218.133 93.3207 217.77 93.8093L217.166 94.6236L219.414 96.0143Z" fill="#F8BFCD"/>
<path d="M203.393 113.793L195.753 93.0401L201.5 90.9172L206.84 105.464L217.119 94.115L219.57 95.9419L207.553 114.256C206.443 115.883 204.021 115.6 203.393 113.793Z" fill="#E4003A"/>
<path d="M240.276 158.882H207.851L202.015 130.94H249.962L240.276 158.882ZM209.634 156.692H238.735L246.923 133.13H204.69L209.634 156.692Z" fill="#F8AD07"/>
<path d="M202.501 132.684L194.719 122.18H189.734V119.99H195.813L204.244 131.386L202.501 132.684Z" fill="#F8AD07"/>
<path d="M236.871 183.822H208.702C206.635 183.822 204.73 182.849 203.474 181.227C202.217 179.564 201.852 177.455 202.42 175.468L207.648 157.503L209.756 158.111L204.527 176.076C204.122 177.415 204.406 178.793 205.216 179.888C206.027 180.983 207.324 181.632 208.702 181.632H236.871V183.822Z" fill="#F8AD07"/>
<path d="M206.838 191C208.942 191 210.648 189.294 210.648 187.188C210.648 185.083 208.942 183.376 206.838 183.376C204.734 183.376 203.028 185.083 203.028 187.188C203.028 189.294 204.734 191 206.838 191Z" fill="#303642"/>
<path d="M233.061 191C235.165 191 236.871 189.294 236.871 187.188C236.871 185.083 235.165 183.376 233.061 183.376C230.957 183.376 229.251 185.083 229.251 187.188C229.251 189.294 230.957 191 233.061 191Z" fill="#303642"/>
<path d="M205.217 181.43L206.027 187.107H208.621L209.837 182.727L205.217 181.43Z" fill="#F8AD07"/>
<path d="M230.792 181.916L231.521 187.107H234.156L235.331 182.727L230.792 181.916Z" fill="#F8AD07"/>
<path d="M188.638 117.557L191.07 118.247C191.84 118.449 192.489 119.017 192.894 119.747L194.029 122.018C194.11 122.18 193.948 122.302 193.786 122.221L191.151 120.639C190.867 120.477 190.543 120.477 190.26 120.639C189.652 121.004 188.881 121.085 188.233 120.801L187.098 120.193L188.638 117.557Z" fill="#F8BFCD"/>
<path d="M187.137 120.193L173.356 107.135L167.358 85.6006L173.154 83.6541L178.625 103.485L188.636 117.557L187.137 120.193Z" fill="#303642"/>
<path d="M177.653 152.88L175.586 120.477H157.023L153.537 152.798L143.688 187.634H146.89L160.832 152.798L166.79 130.94L170.276 152.88L173.194 187.756H176.396L177.653 152.88Z" fill="#870B58"/>
<path d="M152.929 190.919H149.889L146.89 190.068V187.634L149.889 188.973L152.929 189.621V190.919Z" fill="#303642"/>
<path d="M145.958 190.919H143.688V187.634H146.89V190.068L145.958 190.919Z" fill="#303642"/>
<path d="M182.436 191H179.396L176.396 190.149V187.756L179.396 189.054L182.436 189.703V191Z" fill="#303642"/>
<path d="M175.464 191H173.194V187.756H176.396V190.149L175.464 191Z" fill="#303642"/>
<path d="M156.374 116.868L155.239 126.56H174.694V86.8172C174.694 84.4651 172.627 82.5591 170.073 82.5591H157.266C154.51 82.5591 152.362 84.749 152.645 87.2633L156.374 116.868Z" fill="#F8AD07"/>
<path d="M177.45 128.385L177.612 116.949L175.505 87.4256C175.545 84.749 173.195 82.5591 170.276 82.5591L170.925 128.385H177.45Z" fill="#303642"/>
<path d="M156.374 116.868L155.037 128.385H163.346L164.197 116.787L159.212 82.5591H156.456C153.213 82.5591 150.781 85.1951 151.268 88.115L156.374 116.868Z" fill="#303642"/>
<path d="M121.045 94.3305L119.028 92.8077C118.383 92.34 117.984 91.5761 117.87 90.7489L117.634 88.2211C117.618 88.0405 117.813 87.9858 117.934 88.1201L119.818 90.5479C120.024 90.8018 120.326 90.9191 120.649 90.8706C121.348 90.7504 122.095 90.9534 122.597 91.4528L123.435 92.4305L121.045 94.3305Z" fill="#F8BFCD"/>
<path d="M120.455 94.1958L138.852 107.019C140.426 108.434 142.707 108.257 143.997 106.669L160.602 92.1401L153.095 85.196L140.831 97.6776C140.286 98.4512 139.292 98.6546 138.487 98.1575L122.648 91.7611L120.455 94.1958Z" fill="#303642"/>
<path d="M169.831 69.7035H168.453V73.0695H169.831V69.7035Z" fill="#303642"/>
<path d="M166.872 78.6254H164.481C163.548 78.6254 162.819 77.8954 162.819 76.9627V72.9478C162.819 71.0823 164.318 69.5818 166.183 69.5818H166.507C168.372 69.5818 169.871 71.0823 169.871 72.9478V75.6244C169.831 77.2871 168.493 78.6254 166.872 78.6254Z" fill="#F8BFCD"/>
<path d="M164.562 75.2188H163.022C162.535 75.2188 162.17 74.8538 162.17 74.3672V71.4473C162.17 70.6362 162.819 69.9874 163.63 69.9874H164.602V75.2188H164.562Z" fill="#303642"/>
<path d="M165.089 73.8806C165.007 74.3266 164.602 74.6105 164.116 74.57C163.629 74.4889 163.305 74.0833 163.346 73.6372C163.427 73.1911 163.832 72.9073 164.318 72.9478C164.805 73.0289 165.129 73.4345 165.089 73.8806Z" fill="#F8BFCD"/>
<path d="M161.157 82.5997L162.859 86.6145L166.304 84.2624L168.736 86.209L168.939 82.5997H161.157Z" fill="white"/>
<path d="M167.723 71.204H162.657V70.4335C162.657 69.0952 163.751 68.0002 165.089 68.0002H170.398V68.4869C170.398 69.9874 169.223 71.204 167.723 71.204Z" fill="#303642"/>
<path d="M161.157 82.5997L166.304 84.2624L168.939 82.5997H161.157Z" fill="#F8BFCD"/>
<path d="M166.75 75.5433H163.143L161.157 82.5997H168.939L166.75 75.5433Z" fill="#F8BFCD"/>
<path d="M214.356 131.851L212.204 132.252L217.003 158.007L219.155 157.606L214.356 131.851Z" fill="#F8AD07"/>
<path d="M234.3 131.772L228.2 157.542L230.329 158.047L236.43 132.277L234.3 131.772Z" fill="#F8AD07"/>
<path d="M243.194 143.836H205.217V146.026H243.194V143.836Z" fill="#F8AD07"/>
<path d="M256.315 107.635C256.363 109.286 255.977 113.236 254.04 115.825C251.619 119.062 249.487 121.757 249.162 123.673C248.838 125.59 251.152 126.475 251.332 124.829C251.544 122.897 245.185 123.296 245.241 126.459" stroke="#F8AD07" stroke-width="0.2" stroke-linecap="round" stroke-dasharray="1 1"/>
<rect x="24" y="45.0002" width="56" height="138" fill="#E4003A"/>
<rect x="29.2832" y="49.0002" width="45.434" height="19" fill="#F9C145"/>
<rect x="29.2832" y="72.0002" width="45.434" height="72" fill="#F9C145"/>
<rect x="29.2832" y="148" width="45.434" height="31" fill="#F9C145"/>
<path d="M27.4304 189.867C29.325 189.867 30.8608 188.329 30.8608 186.433C30.8608 184.537 29.325 183 27.4304 183C25.5359 183 24 184.537 24 186.433C24 188.329 25.5359 189.867 27.4304 189.867Z" fill="#F8AD07"/>
<path d="M74.4304 189.867C76.325 189.867 77.8608 188.329 77.8608 186.433C77.8608 184.537 76.325 183 74.4304 183C72.5359 183 71 184.537 71 186.433C71 188.329 72.5359 189.867 74.4304 189.867Z" fill="#F8AD07"/>
<path d="M310.971 39.3581V25.0002H296.694V39.3581H310.971Z" fill="#F9D2C3"/>
<path d="M310.971 56.5712V42.2133H296.694V56.5712H310.971Z" fill="#F9D2C3"/>
<path d="M310.971 73.7872V59.4293H296.694V73.7872H310.971Z" fill="#F9D2C3"/>
<path d="M310.971 91.0003V76.6424H296.694V91.0003H310.971Z" fill="#F9D2C3"/>
<path d="M294.125 39.3581V25.0002H279.848V39.3581H294.125Z" fill="#F9D2C3"/>
<path d="M294.123 56.5712V42.2133H279.846V56.5712H294.123Z" fill="#F9D2C3"/>
<path d="M294.125 73.7843V59.4264H279.848V73.7843H294.125Z" fill="#F9D2C3"/>
<path d="M294.123 91.0002V76.6423H279.846V91.0002H294.123Z" fill="#F9D2C3"/>
<path d="M277.28 39.3581V25.0002H263.003V39.3581H277.28Z" fill="#F9D2C3"/>
<path d="M277.277 56.5712V42.2133H263V56.5712H277.277Z" fill="#F9D2C3"/>
<path d="M277.277 73.7872V59.4293H263V73.7872H277.277Z" fill="#F9D2C3"/>
<path d="M277.277 91.0003V76.6424H263V91.0003H277.277Z" fill="#F9D2C3"/>
</svg>
