<svg width="340" height="208" viewBox="0 0 340 208" fill="none" xmlns="http://www.w3.org/2000/svg">
<rect width="340" height="204" transform="translate(0 4.00012)" fill="#F8F9FB"/>
<path d="M220.429 41.0071C223.734 41.0071 226.838 41.7247 229.742 43.0574C231.545 39.982 234.85 37.8292 238.655 37.8292C244.363 37.8292 248.97 42.5448 248.97 48.388C248.97 48.4905 248.97 48.593 248.97 48.6956C249.771 48.4905 250.672 48.388 251.574 48.388C256.08 48.388 259.986 50.8483 262.189 54.5388H246.967H240.959H230.343H200C203.405 46.5428 211.316 41.0071 220.429 41.0071Z" fill="#F3A687"/>
<rect y="191.598" width="339.793" height="16.402" fill="#F9D2C3"/>
<path d="M222.41 154.734L209.712 163.935L211.061 165.509L223.806 156.357L222.41 154.734Z" fill="#F8AD07"/>
<path d="M209.25 155.574L207.495 154.747L203.242 165.591L205.027 166.438L209.25 155.574Z" fill="#F8AD07"/>
<path d="M210.182 170.632L219.308 170.612L218.731 168.64L209.547 168.525L210.182 170.632Z" fill="#F8AD07"/>
<path d="M187.231 127.263L188.906 127.668C190.118 127.958 191.331 127.263 191.62 126.047L192.486 122.572C192.89 120.951 191.966 119.329 190.349 118.924L189.426 118.692L187.231 127.263Z" fill="#F8AD07"/>
<path d="M184.056 128.421H186.308L188.04 134.328H182.208L184.056 128.421Z" fill="#F8BFCD"/>
<path d="M182.554 130.68L185.499 131.433C186.769 131.78 188.097 130.969 188.444 129.695L190.638 121.124L181.226 118.692L179.494 125.41C178.858 127.726 180.244 130.043 182.554 130.68Z" fill="#F8BFCD"/>
<path d="M186.632 192.58L188.283 192.055L189.703 190.995L189.247 189.56L187.897 190.841L186.369 191.752L186.632 192.58Z" fill="#EA3F6B"/>
<path d="M190.429 191.372L191.639 190.987L191.007 189L189.247 189.56L189.703 190.995L190.429 191.372Z" fill="#EA3F6B"/>
<path d="M162 186.085H163.733L165.465 185.506V184L163.733 184.811L162 185.216V186.085Z" fill="#EA3F6B"/>
<path d="M166.042 186.085H167.312V184H165.465V185.506L166.042 186.085Z" fill="#EA3F6B"/>
<path d="M167.14 158.105L165.814 159.441C165.374 159.925 165.113 160.516 165.144 161.151L165.242 163.169C165.248 163.285 165.424 163.334 165.476 163.216L166.705 161.074C166.81 160.838 167.093 160.708 167.328 160.755C167.909 160.784 168.476 160.525 168.801 160.047L169.345 159.327L167.14 158.105Z" fill="#F8BFCD"/>
<path d="M182.035 121.24L189.022 123.035L190.119 118.866L183.132 117.07C182.15 116.781 181.111 117.418 180.822 118.402L180.706 118.924C180.418 119.966 180.995 121.008 182.035 121.24Z" fill="#F8AD07"/>
<path d="M188.502 125.873C189.022 125.989 189.541 125.699 189.714 125.178L190.985 120.139L189.079 119.618L187.809 124.657C187.636 125.178 187.982 125.699 188.502 125.873Z" fill="#F8AD07"/>
<path d="M165 184L170.5 167.5L178.5 160.5L187.5 162.5L185 167L176 170L167.5 185L165 184Z" fill="#303642"/>
<rect x="57.1436" y="147.153" width="149.323" height="6.31767" rx="2" transform="rotate(10.4279 57.1436 147.153)" fill="#E94E0F"/>
<path d="M141.999 188.879C141.999 171.297 135.629 166.583 129.258 166.583C119.066 166.583 117.261 181.447 117.155 188.879H141.999Z" fill="#E94E0F"/>
<circle cx="129.895" cy="173.909" r="1.91108" fill="#F8AD07"/>
<rect x="110.147" y="188.56" width="38.8587" height="5.73325" rx="2" fill="#F8AD07"/>
<path d="M84.979 147.332L86.8605 147.667L86.0002 152.5L84.1187 152.165L84.979 147.332Z" fill="#F8AD07"/>
<path d="M166.293 160.569L168.174 160.903L166.881 168.168L165 167.833L166.293 160.569Z" fill="#F8AD07"/>
<path d="M194.5 164L186 163.5L180 181.5L188 190.5L191.5 189.5L185.5 180.5L194.5 164Z" fill="#303642"/>
<path d="M187.934 133.544H180.601C177.367 133.544 174.827 136.266 175 139.509L177.434 163.216L196.018 168.176L197.809 139.509V139.046C197.809 139.046 198.5 138 197.809 136C197.117 134 196.018 134 196.018 134C193.5 133.544 190.706 133.544 187.934 133.544Z" fill="#EA3F6B"/>
<path d="M180.074 151.243L183.068 136.614L176.227 135.835L174.112 149.868L167.018 157.778L168.075 160.066L178.77 153.219C179.442 152.832 179.919 152.109 180.074 151.243Z" fill="#EA3F6B"/>
<path d="M309.533 70.0254C310.884 64.1218 311.604 57.5825 311.604 50.7707C311.695 22.7061 299.084 0.00012207 283.5 0.00012207C267.916 0.00012207 255.305 22.7061 255.305 50.7707C255.305 57.5825 256.026 64.1218 257.377 70.0254C252.153 76.1106 249 84.1031 249 92.8222C249 111.986 264.403 127.608 283.5 127.608C302.507 127.608 318 112.077 318 92.8222C318 84.1031 314.847 76.1106 309.533 70.0254Z" fill="#870B58"/>
<path d="M284.671 96.4552H280.167V194H284.671V96.4552Z" fill="#E1C2D5"/>
<path d="M296.409 104.878L281.695 119.714L283.288 121.319L298.001 106.484L296.409 104.878Z" fill="#E1C2D5"/>
<path d="M57.3856 10.7639C59.8892 10.7639 62.3928 11.0715 64.7962 11.7891C65.2969 5.22826 70.6045 0.00012207 77.214 0.00012207C81.8206 0.00012207 85.8263 2.56294 88.0295 6.3559C90.5331 5.5358 93.1368 5.02324 95.8407 5.02324C100.447 5.02324 104.753 6.3559 108.359 8.61118C110.462 8.09861 112.765 7.79108 114.968 7.79108C126.184 7.79108 135.898 14.1469 141.005 23.4755H119.274H88.9308H83.8235H80.719H72.2068H70.3041H33.7517C38.9592 15.8896 47.5715 10.7639 57.3856 10.7639Z" fill="#F8BFCD"/>
<path d="M179.527 158.872L178.201 160.209C177.76 160.693 177.499 161.284 177.53 161.918L177.629 163.937C177.635 164.052 177.811 164.101 177.863 163.983L179.092 161.842C179.197 161.606 179.48 161.476 179.714 161.522C180.296 161.552 180.863 161.293 181.187 160.815L181.732 160.094L179.527 158.872Z" fill="#F8BFCD"/>
<path d="M192.461 152.011L195.455 137.382L188.614 136.603L186.499 150.635L179.405 158.545L180.462 160.834L191.157 153.986C191.829 153.6 192.306 152.877 192.461 152.011Z" fill="#EA3F6B"/>
</svg>
