<svg width="340" height="204" viewBox="0 0 340 204" fill="none" xmlns="http://www.w3.org/2000/svg">
<rect width="340" height="204" fill="#F8F9FB"/>
<path d="M86 188H13.5L29 108.5L69 109L86 188Z" fill="#FDEAC1"/>
<path d="M164.483 101.779L158.791 89.4004L139.301 94.3365L139.79 108.03L141.137 116.461C141.662 117.644 143.629 118.827 144.884 118.505L165.194 113.278C166.458 112.96 167.567 110.933 167.445 109.637L164.483 101.779Z" fill="#F8AD07"/>
<path d="M158.486 133.647L149.066 145.299L171.386 166.069C172.268 166.879 173.428 167.32 174.625 167.302C175.823 167.283 176.967 166.806 177.821 165.97C178.574 165.233 179.033 164.249 179.115 163.199C179.197 162.15 178.896 161.105 178.267 160.259L158.486 133.647Z" fill="#303642"/>
<path d="M160.164 138.292L173.623 131.222L187.16 160.448C187.662 161.533 187.727 162.768 187.343 163.9C186.959 165.031 186.155 165.973 185.095 166.529C184.162 167.02 183.082 167.157 182.055 166.915C181.028 166.672 180.123 166.067 179.509 165.211L160.164 138.292Z" fill="#870B58"/>
<path d="M172.968 139.013L153.496 146.783C152.619 147.133 151.641 147.136 150.761 146.792C149.882 146.447 149.167 145.78 148.763 144.928L146.38 139.894C145.597 138.225 145.358 134.959 146.642 133.636L148.669 131.548C152.212 127.782 161.431 124.172 166.592 124.583L168.906 124.721C170.718 124.831 172.601 127.49 173.367 129.133L175.121 134.417C175.417 135.313 175.359 136.287 174.958 137.142C174.558 137.996 173.846 138.665 172.968 139.013Z" fill="#303642"/>
<path d="M141.136 116.464L145.671 137.448L158.884 134.103L160.281 130.525L163.219 133.003L173.833 130.318L167.444 109.637L141.136 116.464Z" fill="#F8AD07"/>
<path d="M200.372 98.6262L201.289 97.8024C201.568 97.5484 201.784 97.2329 201.919 96.8809C202.054 96.529 202.104 96.1504 202.067 95.7753C202.066 95.6103 202.107 95.4477 202.185 95.302C202.262 95.1563 202.375 95.0321 202.512 94.9403L205.222 93.0971C205.248 93.0697 205.267 93.0357 205.276 92.9986C205.285 92.9614 205.284 92.9226 205.273 92.8861C205.261 92.8496 205.24 92.8168 205.212 92.7912C205.184 92.7655 205.149 92.748 205.111 92.7404L202.398 92.7995C201.97 92.8201 201.551 92.926 201.166 93.1111C200.78 93.2962 200.436 93.5566 200.154 93.8769L198.53 95.6961L198.265 96.3488C198.171 96.582 198.133 96.8339 198.154 97.0845C198.175 97.335 198.255 97.5772 198.386 97.7918C198.517 98.0064 198.697 98.1874 198.911 98.3205C199.124 98.4535 199.366 98.535 199.617 98.5582L200.372 98.6262Z" fill="#E94E0F"/>
<path d="M181.941 109.671C181.325 110.497 179.509 112.137 178.615 112.685C178.347 112.865 178.038 112.976 177.717 113.01C177.395 113.044 177.071 112.999 176.77 112.879L176.754 112.877L156.447 101.381C155.623 100.925 154.909 100.293 154.357 99.531C153.805 98.7686 153.428 97.8941 153.253 96.9699C152.94 95.3046 153.302 93.5837 154.259 92.1852C155.217 90.7867 156.692 89.8248 158.36 89.5107C159.286 89.3373 160.24 89.3704 161.152 89.6077C162.064 89.845 162.913 90.2807 163.637 90.8834L182.087 105.844C182.309 106.017 182.49 106.237 182.617 106.488C182.744 106.739 182.815 107.015 182.824 107.296C182.797 108.163 182.487 108.997 181.941 109.671Z" fill="#F8AD07"/>
<path d="M198.778 95.2268L199.721 98.5544L180.696 113.314L180.681 113.327C180.272 113.644 179.77 113.819 179.252 113.824C178.734 113.83 178.229 113.666 177.813 113.357C175.46 111.616 175.503 107.94 177.419 105.726L177.613 105.512C177.837 105.254 178.113 105.045 178.422 104.898L198.778 95.2268Z" fill="#F8AD07"/>
<path d="M152.912 90.9173C151.389 93.1609 149.412 93.6286 149.412 93.6286C147.95 94.0011 145.036 92.9113 145.036 92.9113L145.342 84.4388L148.454 83.6531L152.912 90.9173Z" fill="#F8BFCD"/>
<path d="M145.03 92.8866L146.991 96.1579L149.412 93.6285L145.03 92.8866Z" fill="white"/>
<path d="M152.908 90.893L153.158 94.596L149.412 93.6287L152.908 90.893Z" fill="white"/>
<path d="M153.724 85.0629L153.338 78.5855L144.344 79.116L144.777 86.1923C144.812 86.7509 145.068 87.273 145.487 87.6454C145.906 88.0178 146.455 88.2103 147.015 88.1813L151.343 87.9258C153.166 87.8127 153.807 86.4973 153.724 85.0629Z" fill="#F8BFCD"/>
<path d="M153.493 77.4283C153.575 77.3487 153.639 77.2523 153.68 77.1456C153.722 77.039 153.739 76.9246 153.732 76.8105C153.723 76.6616 153.673 76.5181 153.587 76.3959C153.501 76.2738 153.383 76.1779 153.246 76.1187C153.28 76.0177 153.293 75.9109 153.285 75.8045C153.276 75.6548 153.226 75.5103 153.14 75.3874C153.053 75.2646 152.934 75.1682 152.796 75.1091C152.658 75.05 152.506 75.0306 152.357 75.0531C152.209 75.0755 152.069 75.139 151.955 75.2362L151.957 75.2151C151.109 75.2632 150.273 74.9888 149.619 74.4471C149.473 74.4568 149.333 74.5054 149.212 74.5881C149.092 74.6707 148.996 74.7842 148.935 74.9166C148.855 74.8188 148.753 74.7415 148.636 74.691C148.52 74.6405 148.394 74.6183 148.267 74.6262C148.199 74.7325 148.106 74.8212 147.997 74.885C147.887 74.9488 147.764 74.9859 147.638 74.9933C147.511 75.0008 147.385 74.9783 147.269 74.9277C147.153 74.8771 147.05 74.7999 146.969 74.7023C146.939 74.845 146.871 74.9768 146.772 75.0837C146.673 75.1907 146.547 75.2687 146.407 75.3094C146.266 75.3502 146.118 75.3521 145.976 75.315C145.835 75.2779 145.707 75.2032 145.605 75.0989C145.498 75.1047 145.394 75.1316 145.298 75.178C145.202 75.2244 145.116 75.2894 145.045 75.3691C144.974 75.4489 144.92 75.5418 144.885 75.6427C144.851 75.7435 144.837 75.8501 144.844 75.9564C144.846 75.9958 144.853 76.0349 144.863 76.0731C144.808 76.0643 144.752 76.0613 144.697 76.0643C144.59 76.0705 144.486 76.0976 144.39 76.1441C144.294 76.1906 144.208 76.2555 144.138 76.3352C144.067 76.4149 144.013 76.5077 143.978 76.6084C143.944 76.7091 143.929 76.8156 143.936 76.9219C143.943 77.0394 143.975 77.154 144.032 77.2574C144.088 77.3607 144.167 77.4504 144.262 77.5198C144.103 77.5562 143.959 77.6397 143.849 77.7593C143.739 77.879 143.667 78.0292 143.644 78.1901C143.621 78.3511 143.647 78.5153 143.719 78.6612C143.791 78.8071 143.906 78.9278 144.048 79.0076C143.939 79.0864 143.852 79.1911 143.794 79.3123C143.736 79.4334 143.709 79.567 143.716 79.7011C143.723 79.8352 143.764 79.9654 143.834 80.0799C143.904 80.1945 144.002 80.2897 144.118 80.357C144.01 80.4375 143.924 80.5436 143.867 80.6658C143.81 80.788 143.784 80.9224 143.792 81.0569C143.799 81.1671 143.828 81.2748 143.878 81.3733C143.928 81.4717 143.998 81.5588 144.084 81.629C144.279 81.8663 144.416 82.1465 144.482 82.4466C144.549 82.7466 144.543 83.0581 144.465 83.3553C144.471 83.4617 144.498 83.5659 144.544 83.6618C144.591 83.7578 144.656 83.8435 144.736 83.9142C144.816 83.9848 144.909 84.039 145.01 84.0735C145.111 84.1079 145.218 84.1221 145.325 84.1151L147.19 84.0049L147.129 82.9685C146.901 82.9741 146.679 82.8911 146.511 82.7369C146.343 82.5827 146.241 82.3695 146.227 82.1421C146.214 81.9147 146.289 81.6909 146.437 81.5179C146.586 81.3449 146.796 81.2362 147.023 81.2146L146.987 80.5695C146.933 79.6794 146.062 81.6753 146.494 81.6507L153.35 79.0465L153.511 81.2872C153.705 81.2745 153.73 78.9309 153.868 78.795C154.006 78.659 154.091 78.4779 154.107 78.2848C154.123 78.0916 154.068 77.8992 153.954 77.7426C153.839 77.586 153.672 77.4757 153.483 77.4318L153.493 77.4283Z" fill="#303642"/>
<rect y="187.598" width="339.793" height="16.402" fill="#F9D2C3"/>
<path d="M97.9707 39.3579V25H83.694V39.3579H97.9707Z" fill="#E3E6EF"/>
<path d="M97.9707 56.571V42.2131H83.694V56.571H97.9707Z" fill="#E3E6EF"/>
<path d="M97.9707 73.787V59.4291H83.694V73.787H97.9707Z" fill="#E3E6EF"/>
<path d="M97.9707 91V76.6421H83.694V91H97.9707Z" fill="#E3E6EF"/>
<path d="M81.125 39.3579V25H66.8482V39.3579H81.125Z" fill="#E3E6EF"/>
<path d="M81.1226 56.5709V42.213H66.8458V56.5709H81.1226Z" fill="#E3E6EF"/>
<path d="M81.125 73.784V59.4261H66.8483V73.784H81.125Z" fill="#E3E6EF"/>
<path d="M81.1226 91V76.6421H66.8458V91H81.1226Z" fill="#E3E6EF"/>
<path d="M64.2798 39.3579V25H50.003V39.3579H64.2798Z" fill="#E3E6EF"/>
<path d="M64.2769 56.5709V42.213H50.0001V56.5709H64.2769Z" fill="#E3E6EF"/>
<path d="M64.2769 73.7869V59.4291H50.0001V73.7869H64.2769Z" fill="#E3E6EF"/>
<path d="M64.2769 90.9999V76.6421H50.0001V90.9999H64.2769Z" fill="#E3E6EF"/>
<rect x="162" y="51" width="56" height="138" fill="#870B58"/>
<rect x="167.283" y="55" width="45.434" height="19" fill="#E94E0F"/>
<rect x="167.283" y="78" width="45.434" height="39" fill="#E94E0F"/>
<rect x="167.283" y="121" width="45.434" height="29" fill="#E94E0F"/>
<rect x="167.283" y="154" width="45.434" height="31" fill="#E94E0F"/>
<path d="M147.226 80.3302L148.273 80.0742C148.602 79.9949 148.906 79.8353 149.158 79.6094C149.411 79.3836 149.605 79.0985 149.722 78.7794C149.754 78.6308 149.834 78.497 149.949 78.3981C150.064 78.2992 150.207 78.2406 150.358 78.231L153.234 77.8842C153.349 77.8703 153.421 77.6848 153.203 77.6286L151.052 76.6028C150.714 76.426 150.342 76.3254 149.962 76.3082C149.581 76.2909 149.202 76.3574 148.85 76.5031L146.181 77.5913L147.226 80.3302Z" fill="#F8BFCD"/>
<path d="M124.285 92.3919C124.834 91.468 125.688 90.7633 126.701 90.3985C127.713 90.0338 128.821 90.0317 129.834 90.3927L150.377 97.7003C151.228 97.9934 152.004 98.4702 152.649 99.0968C153.294 99.7234 153.792 100.484 154.108 101.325C154.391 102.076 154.523 102.875 154.496 103.677C154.469 104.478 154.285 105.267 153.952 105.998C153.62 106.728 153.146 107.386 152.559 107.934C151.972 108.482 151.282 108.909 150.53 109.191C149.687 109.508 148.784 109.635 147.887 109.563C146.989 109.492 146.119 109.223 145.338 108.776L125.713 97.8443C123.691 96.49 123.103 94.1701 124.272 92.3961L124.285 92.3919Z" fill="#F8AD07"/>
<path d="M146.909 78.1408L147.654 80.2491L131.505 96.6009C131.264 96.8549 131.002 97.0876 130.721 97.2964C130.53 97.4376 131.075 98.4792 130.845 98.535C130.615 98.5908 129.614 97.6595 129.381 97.621L125.698 97.035C125.409 96.9893 125.136 96.8732 124.903 96.6968C124.67 96.5205 124.484 96.2894 124.361 96.024C124.239 95.7586 124.184 95.467 124.202 95.1752C124.219 94.8834 124.309 94.6004 124.462 94.3511L126.198 90.6738C126.331 90.4576 127.49 89.5342 127.7 89.3917L146.283 77.2447L146.909 78.1408Z" fill="#F8AD07"/>
<path d="M214.526 27.4344C212.932 28.4321 212.517 28.2728 212.199 28.8471C211.602 29.935 212.496 31.5489 213.196 32.3391C213.715 32.926 214.494 33.4731 214.733 33.2949C214.854 33.2069 214.798 32.9616 214.523 31.7564C214.276 30.656 214.155 30.1026 214.314 29.9706C214.523 29.7924 215.081 29.9329 215.269 30.2598C215.501 30.6665 214.999 31.0584 214.978 31.8822C214.973 32.4623 215.181 33.0242 215.56 33.4626C216.335 34.3408 217.864 34.5232 218.218 34.0432C218.298 33.9342 218.333 33.7686 217.678 32.0058C217.246 30.8425 216.984 30.2515 217.179 30.0943C217.324 29.979 217.644 30.1571 217.678 30.1781C218.796 30.8174 217.923 33.1587 218.882 33.9615C219.493 34.4708 220.658 34.039 221.873 33.6282C222.472 33.4186 222.869 33.3725 223.202 33.0455C223.621 32.6263 223.726 32.1337 223.831 31.6747C223.963 31.0647 224.187 30.0146 223.707 29.6373C223.228 29.26 222.66 29.9538 221.422 29.761C220.662 29.6436 219.831 29.216 219.845 28.8471C219.845 28.6228 220.176 28.3881 220.474 28.3902C220.918 28.3902 221.022 28.9456 221.554 29.2286C222.153 29.5388 223.085 29.39 223.422 28.9372C224.112 28.0171 222.597 25.4997 221.554 25.5689C221.119 25.5983 221.06 26.0552 220.266 26.3591C219.472 26.663 218.591 26.596 218.522 26.3591C218.463 26.1705 218.93 25.8309 219.311 25.6528C220.241 25.2189 220.987 25.5941 221.221 25.2336C221.456 24.873 220.991 24.2778 220.93 24.1855C220.214 23.1711 218.486 22.6429 217.608 23.2717C216.882 23.7915 217.399 24.6341 216.528 25.8477C216.088 26.4576 215.566 26.793 214.526 27.4344Z" fill="#F8BFCD"/>
<path d="M203.802 33.6618C202.715 32.488 203.247 31.5302 202.368 30.9621C201.321 30.2872 199.7 31.0774 198.889 31.4736C198.211 31.8047 197.04 32.5216 197.163 32.9408C197.266 33.2803 198.242 33.4564 199.025 33.2678C199.566 33.1378 199.907 32.8611 200.072 33.012C200.211 33.1336 200.169 33.4753 200.016 33.6954C199.61 34.2739 198.414 34.037 198.271 34.0077C197.333 33.8106 197.239 33.3348 196.665 33.3579C195.863 33.3893 194.88 34.3619 195.075 35.2318C195.232 35.9172 196.095 36.4139 196.751 36.3468C197.266 36.2923 197.547 35.9088 198.154 36.0052C198.345 36.0345 198.692 36.1309 198.703 36.2798C198.722 36.5313 197.775 36.9798 196.818 36.9254C195.861 36.8709 195.429 36.328 195.142 36.5543C194.883 36.7514 195.01 37.3194 195.27 38.4555C195.511 39.5202 195.71 39.7403 195.785 39.8179C196.162 40.1662 196.661 40.3522 197.174 40.3356C197.454 40.3356 198.077 40.3356 198.412 39.9164C198.83 39.4091 198.399 38.7699 198.843 38.1767C199.034 37.921 199.339 37.6422 199.511 37.7155C199.683 37.7889 199.721 38.3003 199.601 38.6986C199.392 39.3777 198.841 39.5999 198.929 39.9017C198.996 40.1344 199.383 40.2098 199.53 40.2392C200.598 40.4488 201.939 39.6376 201.928 38.9501C201.928 38.6106 201.595 38.5875 201.488 38.053C201.439 37.8361 201.444 37.6106 201.501 37.3958C201.559 37.1811 201.668 36.9836 201.819 36.8205C201.976 36.6675 202.251 36.4978 202.355 36.5774C202.496 36.6843 202.16 37.1119 202.198 37.7679C202.211 37.965 202.24 38.4827 202.525 38.6546C203.04 38.9669 204.2 38.053 204.881 37.1874C205.317 36.6298 205.853 35.9423 205.673 35.2485C205.491 34.5002 204.67 34.5967 203.802 33.6618Z" fill="#F8BFCD"/>
<path d="M214.815 34.9677C215.248 33.949 217.51 34.8629 218.584 35.7663C219.493 36.5292 219.676 37.9629 219.372 38.1494C219.02 38.359 217.973 36.9275 217.552 37.1916C217.357 37.3131 217.342 37.7722 217.514 38.0866C217.862 38.7028 218.733 38.357 219.322 38.9795C219.741 39.428 219.927 40.2769 219.531 40.8659C219.213 41.3354 218.522 41.6163 218.128 41.4025C217.734 41.1887 217.918 40.715 217.393 40.0359C217.135 39.7026 216.733 39.3484 216.597 39.4322C216.461 39.5161 216.639 40.0967 216.781 40.4237C217.116 41.1782 217.728 41.2788 217.69 41.6205C217.657 41.9181 217.19 42.1801 216.773 42.2032C216.402 42.2242 215.964 42.0648 214.957 40.9015C213.822 39.5915 213.091 38.6169 213.596 37.8791C214.186 37.0155 214.534 36.6403 214.722 36.3636C214.84 36.198 214.53 35.6405 214.815 34.9677Z" fill="#F8BFCD"/>
<path d="M209.939 44.0266C209.864 40.9538 208.802 21.6912 217.045 27.841" stroke="#E4003A" stroke-miterlimit="10"/>
<path d="M209.032 43.794C209.633 39.7445 207.985 29.6961 201.09 34.7958" stroke="#E4003A" stroke-miterlimit="10"/>
<path d="M210.885 43.9806C210.339 41.0147 211.851 34.5128 216.226 37.1999" stroke="#E4003A" stroke-miterlimit="10"/>
<path d="M213.732 50.0171H205.983V51H213.732V50.0171Z" fill="#F8AD07"/>
<path d="M215.253 43.5697H204.462L205.373 50.0171H214.339L215.253 43.5697Z" fill="#E4003A"/>
<path d="M146.812 34.5834L155.526 47.6205L157.15 46.332L148.487 33.2497L146.812 34.5834Z" fill="#F8AD07"/>
<path d="M147.154 47.7658L146.261 49.4878L156.936 54.1482L157.85 52.3967L147.154 47.7658Z" fill="#F8AD07"/>
<path d="M162.236 47.4044L162.562 38.2837L160.569 38.7856L160.106 47.9594L162.236 47.4044Z" fill="#F8AD07"/>
<path d="M281.5 74C291.717 74 300 65.7173 300 55.5C300 45.2827 291.717 37 281.5 37C271.283 37 263 45.2827 263 55.5C263 65.7173 271.283 74 281.5 74Z" fill="#F8AD07"/>
<path d="M292.592 66.5842C298.717 60.4595 298.717 50.5293 292.592 44.4045C286.467 38.2798 276.537 38.2798 270.412 44.4045C264.287 50.5293 264.287 60.4595 270.412 66.5842C276.537 72.709 286.467 72.709 292.592 66.5842Z" fill="white"/>
<path d="M289.231 56.3284H280.837V45.8358H282.218V54.9478H289.231V56.3284Z" fill="#303642"/>
<path d="M50.609 109.143H47.3906V185.099H50.609V109.143Z" fill="#BF0031"/>
<path d="M66.7011 189H31.2988L33.5977 185.099H47.3908H50.6092H64.4023L66.7011 189Z" fill="#BF0031"/>
<path d="M69 109.143H29L33.5977 80H64.4023L69 109.143Z" fill="#F8AD07"/>
</svg>
