<svg width="340" height="217" viewBox="0 0 340 217" fill="none" xmlns="http://www.w3.org/2000/svg">
<rect width="340" height="204" transform="translate(0 13)" fill="#F8F9FB"/>
<path d="M237.62 19.7638C235.116 19.7638 232.613 20.0714 230.209 20.7889C229.708 14.2281 224.401 9 217.791 9C213.185 9 209.179 11.5628 206.976 15.3558C204.472 14.5357 201.869 14.0231 199.165 14.0231C194.558 14.0231 190.252 15.3558 186.647 17.6111C184.544 17.0985 182.24 16.791 180.037 16.791C168.821 16.791 159.107 23.1467 154 32.4754H175.731H206.075H211.182H214.286H222.799H224.701H261.254C256.046 24.8894 247.434 19.7638 237.62 19.7638Z" fill="#F8BFCD"/>
<rect y="201" width="340" height="16" fill="#E1C2D5"/>
<path d="M194.639 193.468L196.998 195.407L195.792 196.898L194.953 196.67C194.873 196.629 194.52 196.752 194.152 196.9C194.045 196.943 193.929 196.959 193.815 196.949C193.7 196.938 193.589 196.901 193.492 196.84C193.394 196.778 193.312 196.695 193.253 196.596C193.193 196.497 193.158 196.386 193.149 196.271C193.096 195.702 193.071 195.131 193.076 194.56C193.088 194.376 193.141 194.198 193.232 194.037C193.323 193.877 193.449 193.74 193.6 193.635C193.752 193.531 193.925 193.462 194.107 193.434C194.289 193.407 194.475 193.42 194.65 193.475L194.639 193.468Z" fill="#303642"/>
<path d="M192.298 198.322L192.885 195.613L192.913 194.365C192.918 194.183 192.969 194.005 193.063 193.849C193.177 193.659 193.348 193.51 193.552 193.424C193.756 193.337 193.982 193.317 194.197 193.367L194.631 193.469L194.934 196.67L193.974 199.093L193.885 199.143C193.73 199.228 193.557 199.274 193.38 199.276C193.203 199.279 193.028 199.238 192.87 199.157C192.713 199.076 192.577 198.958 192.476 198.812C192.375 198.666 192.311 198.498 192.289 198.322H192.298Z" fill="#303642"/>
<path d="M192.638 197.801C192.721 197.726 192.822 197.673 192.932 197.649C193.041 197.624 193.155 197.628 193.262 197.661C193.369 197.693 193.466 197.753 193.544 197.834C193.621 197.916 193.676 198.015 193.704 198.124L193.961 199.099L191.336 200.675L190.728 199.646L192.638 197.801Z" fill="#303642"/>
<path d="M178.032 159.75L195.332 193.801L192.577 195.526L170.452 164.31C170.092 163.794 169.846 163.207 169.73 162.588C169.613 161.969 169.63 161.332 169.778 160.72C169.927 160.108 170.203 159.535 170.59 159.038C170.976 158.541 171.464 158.133 172.02 157.84C172.539 157.565 173.107 157.396 173.692 157.344C174.276 157.291 174.865 157.356 175.425 157.534C175.984 157.711 176.503 157.999 176.95 158.379C177.398 158.76 177.766 159.226 178.032 159.75Z" fill="#FDEAC1"/>
<path d="M160.595 140.029L174.983 136.862L178.682 161.389C178.872 162.535 178.615 163.711 177.965 164.673C177.315 165.635 176.321 166.31 175.188 166.559C174.19 166.778 173.146 166.628 172.25 166.137C171.354 165.645 170.665 164.845 170.311 163.885L160.595 140.029Z" fill="#FDEAC1"/>
<path d="M160.307 199.872L160.74 202.897L158.837 203.169L158.373 202.435C158.338 202.342 157.927 202.14 157.524 201.962C157.432 201.921 157.349 201.86 157.284 201.783C157.218 201.706 157.171 201.615 157.146 201.517C157.121 201.418 157.119 201.316 157.139 201.217C157.16 201.117 157.202 201.024 157.264 200.944C157.615 200.49 158.033 199.959 158.159 199.826C158.3 199.682 158.469 199.569 158.656 199.492C158.843 199.416 159.043 199.379 159.244 199.383C159.446 199.387 159.645 199.432 159.828 199.516C160.011 199.6 160.176 199.72 160.312 199.87L160.307 199.872Z" fill="#303642"/>
<path d="M155.309 201.858L157.567 200.26L158.434 199.362C158.56 199.231 158.719 199.136 158.893 199.084C159.105 199.021 159.332 199.027 159.54 199.101C159.749 199.175 159.929 199.313 160.054 199.496L160.312 199.872L158.362 202.435L156.023 203.568L155.921 203.547C155.749 203.504 155.59 203.42 155.458 203.301C155.326 203.183 155.225 203.034 155.164 202.867C155.103 202.7 155.083 202.521 155.107 202.345C155.132 202.169 155.198 202.002 155.302 201.858H155.309Z" fill="#303642"/>
<path d="M155.309 201.858C155.415 201.819 155.529 201.808 155.64 201.827C155.752 201.846 155.856 201.893 155.944 201.965C156.031 202.037 156.099 202.13 156.139 202.236C156.18 202.341 156.192 202.456 156.175 202.568L156.038 203.568L153.006 204.002L152.837 202.817L155.309 201.858Z" fill="#303642"/>
<path d="M155.438 161.972L160.307 199.872L157.134 200.566L146.97 164.178C146.398 161.373 147.785 158.534 150.436 158.15C151.015 158.069 151.605 158.104 152.17 158.252C152.736 158.401 153.267 158.66 153.732 159.016C154.198 159.371 154.588 159.815 154.881 160.323C155.174 160.83 155.363 161.391 155.438 161.972Z" fill="#FDEAC1"/>
<path d="M163.485 139.727L148.92 137.532L146.858 162.241C146.745 163.398 147.08 164.554 147.793 165.471C148.507 166.387 149.544 166.994 150.691 167.166C151.701 167.319 152.732 167.099 153.593 166.549C154.454 165.999 155.087 165.155 155.376 164.173L163.485 139.727Z" fill="#FDEAC1"/>
<path d="M152.155 147.157H172.466C173.38 147.157 174.261 146.807 174.927 146.179C175.593 145.551 175.995 144.692 176.05 143.777L176.379 138.375C176.479 136.586 175.513 133.552 173.884 132.818L171.318 131.666C166.77 129.541 157.184 129.601 152.692 131.831L150.661 132.792C149.073 133.543 148.339 136.621 148.25 138.375L148.579 143.777C148.636 144.69 149.036 145.548 149.701 146.175C150.365 146.803 151.242 147.154 152.155 147.157Z" fill="#FDEAC1"/>
<path d="M126.27 75.063L125.761 73.9778C125.607 73.6453 125.533 73.2816 125.544 72.9155C125.555 72.5493 125.65 72.1907 125.823 71.868C125.886 71.72 125.911 71.5588 125.897 71.3986C125.883 71.2385 125.829 71.0844 125.741 70.9499L124.009 68.2802C123.998 68.2458 123.997 68.2094 124.004 68.1743C124.011 68.1391 124.027 68.1063 124.05 68.0788C124.073 68.0513 124.102 68.0299 124.136 68.0166C124.169 68.0032 124.205 67.9983 124.24 68.0023L126.644 69.0746C127.018 69.2534 127.352 69.5055 127.626 69.8161C127.901 70.1267 128.111 70.4894 128.243 70.8826L129.012 73.1247V73.8085C129.008 74.0528 128.948 74.293 128.836 74.5099C128.723 74.7268 128.562 74.9143 128.364 75.0575C128.167 75.2007 127.938 75.2956 127.698 75.3346C127.457 75.3737 127.21 75.3557 126.978 75.2822L126.27 75.063Z" fill="#F8BFCD"/>
<path d="M132.8 90.4779C132.384 91.3896 131.827 93.699 131.773 94.7148C131.745 95.0273 131.793 95.342 131.913 95.6317C132.034 95.9214 132.223 96.1774 132.464 96.3774H132.479L151.679 108.326C152.449 108.816 153.317 109.13 154.222 109.246C155.126 109.361 156.045 109.275 156.913 108.995C158.478 108.487 159.778 107.377 160.526 105.909C161.275 104.442 161.411 102.736 160.905 101.168C160.624 100.297 160.155 99.5002 159.53 98.8327C158.906 98.1652 158.143 97.644 157.295 97.3064L136.016 88.5614C135.765 88.4541 135.494 88.4028 135.221 88.411C134.948 88.4193 134.681 88.4869 134.437 88.6091C133.702 89.0355 133.126 89.692 132.8 90.4779Z" fill="#F8AD07"/>
<path d="M129.031 73.1396L126.287 75.0757L131.396 94.7927V94.8101C131.51 95.2999 131.78 95.7391 132.166 96.0605C132.552 96.3819 133.032 96.5678 133.534 96.5899C136.367 96.7136 138.582 93.9093 138.493 91.0681V90.7772C138.483 90.4441 138.404 90.1168 138.262 89.8157L129.031 73.1396Z" fill="#F8AD07"/>
<path d="M175.615 117.514L176.379 138.375H148.242C147.702 135.672 148.72 124.412 151.458 117.362L175.615 117.514Z" fill="#F8AD07"/>
<path d="M152.357 109.249L154.739 96.2256H172.048L174.863 109.249L175.615 117.514C175.398 118.756 173.841 120.336 172.583 120.336L154.44 120.258C153.175 120.258 151.65 118.612 151.456 117.362L152.357 109.249Z" fill="#F8AD07"/>
<path d="M205.323 96.0861L205.571 94.9165C205.649 94.5595 205.81 94.2257 206.04 93.9415C206.27 93.6574 206.564 93.4308 206.897 93.2796C207.037 93.1999 207.154 93.0872 207.24 92.9513C207.325 92.8155 207.375 92.6607 207.386 92.5008L207.621 89.333C207.631 89.2975 207.65 89.2654 207.677 89.24C207.704 89.2146 207.737 89.1969 207.773 89.1888C207.809 89.1807 207.847 89.1824 207.882 89.1939C207.917 89.2054 207.948 89.2262 207.972 89.2541L209.242 91.5634C209.434 91.9329 209.549 92.3371 209.581 92.7519C209.613 93.1667 209.561 93.5836 209.428 93.9778L208.684 96.2239L208.181 96.6616C207.969 96.8453 207.718 96.9784 207.447 97.0507C207.176 97.1229 206.892 97.1324 206.616 97.0784C206.341 97.0244 206.081 96.9083 205.858 96.739C205.634 96.5697 205.452 96.3517 205.326 96.1017L205.323 96.0861Z" fill="#F8BFCD"/>
<path d="M196.433 114.847C195.839 115.764 194.943 116.445 193.9 116.774C192.857 117.102 191.731 117.058 190.716 116.649L170.179 108.339C169.327 108.005 168.56 107.488 167.933 106.824C167.305 106.161 166.832 105.367 166.547 104.5C166.033 102.937 166.163 101.235 166.906 99.7672C167.65 98.2999 168.947 97.1874 170.513 96.6742C171.381 96.3899 172.303 96.3006 173.21 96.4125C174.118 96.5244 174.99 96.8349 175.763 97.3217L195.21 109.266C197.204 110.727 197.703 113.106 196.432 114.858L196.433 114.847Z" fill="#F8AD07"/>
<path d="M205.353 94.6805L207.29 97.4205L196.26 114.918C196.068 115.217 195.851 115.498 195.61 115.759C195.447 115.935 195.25 116.077 195.031 116.176C194.812 116.274 194.575 116.328 194.335 116.334L190.547 116.439C190.249 116.448 189.955 116.383 189.688 116.251C189.422 116.119 189.193 115.923 189.02 115.681C188.848 115.439 188.738 115.159 188.7 114.865C188.663 114.57 188.698 114.271 188.804 113.994L190.672 109.071C190.764 108.831 190.906 108.612 191.088 108.43L205.35 94.6693L205.353 94.6805Z" fill="#F8AD07"/>
<path d="M158.453 96.2494C160.42 98.001 162.386 97.9706 162.386 97.9706C163.848 97.9706 166.324 96.2494 166.324 96.2494L164.009 88.3379H160.901L158.453 96.2494Z" fill="#F8BFCD"/>
<path d="M156.669 89.6181V85.9456C156.669 84.7863 157.128 83.6744 157.946 82.8546C158.764 82.0348 159.874 81.5742 161.031 81.5742C162.187 81.5742 163.297 82.0348 164.115 82.8546C164.933 83.6744 165.393 84.7863 165.393 85.9456V90.1955C165.391 90.7401 165.175 91.2621 164.791 91.6478C164.407 92.0336 163.887 92.2519 163.344 92.2553H159.14C157.364 92.2596 156.669 91.0159 156.669 89.6181Z" fill="#F8BFCD"/>
<path d="M163.058 87.6345C163.191 87.6356 163.324 87.6072 163.445 87.5512C163.566 87.4953 163.674 87.4132 163.76 87.3108C163.846 87.2085 163.908 87.0883 163.943 86.959C163.977 86.8297 163.982 86.6943 163.958 86.5627C163.935 86.431 163.882 86.3062 163.805 86.1972C163.727 86.0882 163.626 85.9977 163.51 85.9322C163.394 85.8666 163.264 85.8276 163.131 85.818C162.998 85.8083 162.864 85.8283 162.74 85.8763V84.6066C162.739 84.5329 162.753 84.4598 162.781 84.3916C162.809 84.3234 162.85 84.2614 162.902 84.2092C162.954 84.157 163.016 84.1155 163.084 84.0873C163.152 84.059 163.225 84.0444 163.298 84.0444H165.122C165.489 84.0444 165.841 84.1906 166.1 84.4507C166.36 84.7108 166.506 85.0635 166.506 85.4314V86.3365C166.506 86.9444 166.265 87.5274 165.836 87.9572C165.407 88.3871 164.825 88.6286 164.219 88.6286H163.305C163.157 88.6286 163.014 88.5696 162.91 88.4645C162.805 88.3595 162.746 88.2171 162.746 88.0686V87.5737C162.846 87.612 162.951 87.6326 163.058 87.6345Z" fill="#AAAEB8"/>
<path d="M125.229 74.1639C124.811 74.0525 124.569 73.6835 124.6 73.2978L125.986 65.8385C126.097 65.4204 126.467 65.1785 126.853 65.2096C127.271 65.321 127.513 65.69 127.481 66.0757L126.096 73.535C126.065 73.9207 125.615 74.195 125.229 74.1639Z" fill="#870B58"/>
<path d="M118.009 56.4272L122.706 61.6224L123.343 60.9511L118.666 55.7327L118.009 56.4272Z" fill="#F8AD07"/>
<path d="M119.003 62.2186L118.717 63.0346L123.748 64.4114L124.041 63.5809L119.003 62.2186Z" fill="#F8AD07"/>
<path d="M125.667 61.1007L125.229 57.0581L124.377 57.4061L124.758 61.4808L125.667 61.1007Z" fill="#F8AD07"/>
<path d="M284.9 146.8H218V153.8H284.9V146.8Z" fill="#303642"/>
<path d="M284.9 157.4H218V164.4H284.9V157.4Z" fill="#303642"/>
<path d="M284.9 171.4H218V174.9H284.9V171.4Z" fill="#303642"/>
<path d="M310.8 201.6H298.7V203.1H310.8V201.6Z" fill="#303642"/>
<path d="M220.7 145H218V203.1H220.7V145Z" fill="#303642"/>
<path d="M284.9 145H282.2V203.1H284.9V145Z" fill="#303642"/>
<path d="M305.8 182.2H303.5V203H305.8V182.2Z" fill="#303642"/>
<path d="M311.3 193.5H298.1L296.3 175.9H313.2L311.3 193.5Z" fill="#870B58"/>
<ellipse cx="48.9857" cy="29.6454" rx="29.6454" ry="29.6454" fill="#F9C145"/>
<ellipse cx="48.9858" cy="30.3865" rx="23.7163" ry="23.7163" fill="#F9F9F9"/>
<ellipse cx="48.9857" cy="30.3865" rx="17.7872" ry="17.7872" fill="#FDEAC1"/>
<ellipse cx="48.9858" cy="30.3865" rx="11.8582" ry="11.8582" fill="#FDEAC1"/>
<path d="M51.209 42.2446L60.8437 205.294L40.4625 205.294L46.0211 42.2446L51.209 42.2446Z" fill="#7783A0"/>
<path d="M49.7268 33.3511L49.7268 43.727L48.2445 43.727L48.2445 33.3511L49.7268 33.3511Z" fill="#7783A0"/>
<circle cx="48.9857" cy="29.6454" r="3.70567" fill="#E4003A"/>
</svg>
