<svg width="340" height="214" viewBox="0 0 340 214" fill="none" xmlns="http://www.w3.org/2000/svg">
<rect width="340" height="204" transform="translate(0 10)" fill="#F8F9FB"/>
<path d="M22.337 36.1626C22.1123 34.9598 21.9438 33.757 21.9438 32.4969C21.9438 26.5403 24.8085 21.2136 29.1897 17.8917C30.2007 9.52942 37.1657 3 45.6473 3C54.4098 3 61.5994 9.93035 62.1611 18.6935C64.0147 17.8344 66.0368 17.3762 68.2274 17.3762C76.372 17.3762 83 24.1347 83 32.4396C83 33.6997 82.8315 34.9598 82.5506 36.1053H22.337V36.1626Z" fill="#FDEAC1"/>
<path d="M257.599 43.1626C252.099 43.1626 247.299 45.6749 244.099 49.5941C242.299 48.8907 240.399 48.3882 238.399 48.3882C230.899 48.3882 224.799 53.9153 223.699 61.1508H240.099H252.999H274.999C274.999 60.9498 274.999 60.8493 274.999 60.6483C275.099 51.1015 267.299 43.1626 257.599 43.1626Z" fill="#FDEAC1"/>
<path d="M212.795 10L257 198H136L180.205 10H212.795Z" fill="#FDEAC1"/>
<rect y="198" width="340" height="16" fill="#F9D2C3"/>
<path d="M255.212 70.5338C255.159 71.386 254.643 73.3473 254.271 74.1328C254.166 74.379 254.002 74.5959 253.794 74.765C253.587 74.9341 253.341 75.0502 253.078 75.1032L253.066 75.1093L233.765 76.3307C232.987 76.388 232.205 76.273 231.477 75.994C230.748 75.7149 230.09 75.2787 229.55 74.7164C228.578 73.7023 228.049 72.3439 228.08 70.9393C228.111 69.5347 228.698 68.1989 229.713 67.225C230.278 66.6848 231.111 66.1041 231.851 65.8555C232.592 65.6068 233.222 65.6964 233.997 65.7867L253.579 67.8111C253.812 67.831 254.037 67.9016 254.239 68.018C254.441 68.1343 254.615 68.2936 254.749 68.4845C255.123 69.0985 255.286 69.8181 255.212 70.5338Z" fill="#F8AD07"/>
<path d="M258.838 52.9999L261 54.8824L254.488 73.747L254.483 73.7628C254.343 74.1682 254.074 74.5169 253.717 74.7554C253.36 74.9939 252.935 75.109 252.507 75.0832C250.085 74.9407 248.449 72.3695 248.775 69.965L248.813 69.7287C248.851 69.4479 248.948 69.1782 249.096 68.9363L258.838 52.9999Z" fill="#F8AD07"/>
<path d="M259.122 54.4861L258.859 53.499C258.78 53.1963 258.774 52.8796 258.84 52.5741C258.905 52.2687 259.042 51.9829 259.238 51.7395C259.313 51.6252 259.359 51.494 259.371 51.3577C259.383 51.2213 259.361 51.0841 259.307 50.9581L258.262 48.451C258.256 48.42 258.259 48.3878 258.269 48.358C258.28 48.3282 258.298 48.3018 258.323 48.2816C258.347 48.2614 258.376 48.2481 258.408 48.2432C258.439 48.2383 258.471 48.2419 258.501 48.2536L260.357 49.5242C260.644 49.7321 260.887 49.9954 261.07 50.2985C261.254 50.6016 261.375 50.9384 261.426 51.2888L261.728 53.2869L261.616 53.8601C261.575 54.0645 261.487 54.2566 261.359 54.421C261.231 54.5854 261.067 54.7176 260.878 54.807C260.69 54.8965 260.483 54.9407 260.274 54.9362C260.066 54.9317 259.861 54.8786 259.676 54.7811L259.122 54.4861Z" fill="#E94E0F"/>
<path d="M229.374 156.135L225.753 156.725L226.125 159.004L227.132 159.275C227.254 159.282 227.631 159.682 227.978 160.082C228.058 160.173 228.158 160.246 228.269 160.293C228.381 160.34 228.502 160.361 228.624 160.355C228.745 160.348 228.863 160.314 228.969 160.255C229.075 160.196 229.167 160.114 229.236 160.014C229.629 159.449 230.09 158.78 230.199 158.588C230.313 158.374 230.382 158.14 230.402 157.898C230.422 157.657 230.392 157.414 230.315 157.184C230.238 156.954 230.115 156.743 229.953 156.562C229.791 156.382 229.594 156.236 229.374 156.135Z" fill="#242831"/>
<path d="M228.891 162.592L229.91 159.427L230.63 158.114C230.737 157.924 230.793 157.708 230.792 157.489C230.786 157.225 230.697 156.97 230.538 156.759C230.378 156.548 230.157 156.393 229.905 156.315L229.383 156.155L227.14 159.295L226.681 162.385L226.743 162.491C226.853 162.674 227.006 162.826 227.189 162.936C227.371 163.045 227.578 163.108 227.791 163.119C228.003 163.13 228.216 163.088 228.409 162.998C228.602 162.908 228.769 162.772 228.898 162.602L228.891 162.592Z" fill="#242831"/>
<path d="M228.891 162.592C228.896 162.458 228.866 162.325 228.804 162.206C228.742 162.087 228.65 161.985 228.538 161.912C228.425 161.839 228.296 161.795 228.162 161.787C228.027 161.778 227.893 161.804 227.772 161.862L226.674 162.376L227.265 165.999L228.683 165.768L228.891 162.592Z" fill="#242831"/>
<path d="M253.823 120.801L227.326 155.387L229.928 157.763L261.601 127.031C263.65 124.724 262.862 121.733 260.595 119.951C260.097 119.557 259.525 119.266 258.913 119.096C258.301 118.925 257.662 118.878 257.031 118.957C256.401 119.036 255.793 119.24 255.242 119.556C254.691 119.873 254.209 120.296 253.823 120.801Z" fill="#303642"/>
<path d="M247.555 200.44H240.478V33.5381C240.478 20.0963 229.584 9.17484 216.176 9.17484H191.781V2.08057H216.176C233.495 2.08057 247.555 16.1758 247.555 33.5381V200.44Z" fill="#870B58"/>
<path d="M184.518 13.0684H206.679C210.217 13.0684 213.196 10.1747 213.196 6.5342C213.196 2.98706 210.31 0 206.679 0H184.518C180.886 0.0933457 178 2.98706 178 6.62754C178 10.1747 180.886 13.0684 184.518 13.0684Z" fill="#870B58"/>
<path d="M213.103 6.62744C213.103 10.1746 210.5 13.0683 206.585 13.0683H184.518C180.886 13.0683 178 10.1746 178 6.62744H213.103Z" fill="#FDEAC1"/>
<path d="M239.98 156H248.173C249.011 156 249.663 156.747 249.663 157.774L251.06 200.526H237L238.397 157.774C238.49 156.84 239.142 156 239.98 156Z" fill="#870B58"/>
<path d="M237.333 75.6551L231.382 66.0573L215.861 72.1176L217.668 83.3314L219.641 90.1283C220.194 91.0469 221.933 91.8187 222.932 91.425L239.097 85.0414C240.104 84.6497 240.808 82.8692 240.575 81.8154L237.333 75.6551Z" fill="#F8AD07"/>
<path d="M237.527 106.133L247.87 98.9368L262 121.588C262.524 122.429 262.705 123.438 262.505 124.409C262.305 125.379 261.74 126.235 260.926 126.802C260.209 127.301 259.335 127.525 258.465 127.431C257.596 127.337 256.79 126.932 256.197 126.291L237.527 106.133Z" fill="#303642"/>
<path d="M248.131 105.659L232.915 114.048C232.23 114.427 231.426 114.53 230.667 114.336C229.909 114.143 229.253 113.668 228.833 113.008L226.356 109.112C225.542 107.82 225.01 105.158 225.931 103.937L227.383 102.012C229.911 98.5508 237.121 94.6352 241.407 94.4433L243.324 94.3199C244.826 94.2239 246.647 96.2179 247.446 97.4911L249.43 101.657C249.765 102.364 249.817 103.172 249.576 103.915C249.334 104.659 248.817 105.283 248.131 105.659Z" fill="#303642"/>
<path d="M219.641 90.1302L225.522 106.926L236.045 102.819L236.826 99.732L239.497 101.469L247.95 98.1708L240.575 81.8153L219.641 90.1302Z" fill="#F8AD07"/>
<path d="M226.704 67.9083C225.681 69.9101 224.103 70.4978 224.103 70.4978C222.94 70.9541 220.431 70.3567 220.431 70.3567L219.813 63.3562L222.292 62.3905L226.704 67.9083Z" fill="#E94E0F"/>
<path d="M220.424 70.337L222.372 72.8266L224.103 70.4977L220.424 70.337Z" fill="white"/>
<path d="M226.698 67.8888L227.283 70.9092L224.104 70.4978L226.698 67.8888Z" fill="white"/>
<path d="M226.77 63.0093L225.789 57.7207L218.447 59.0801L219.529 64.8564C219.615 65.3123 219.879 65.7156 220.262 65.9789C220.644 66.2421 221.116 66.3442 221.574 66.2628L225.106 65.6086C226.594 65.3285 226.986 64.1806 226.77 63.0093Z" fill="#E94E0F"/>
<path d="M225.797 56.7532C225.857 56.6793 225.899 56.5934 225.922 56.5014C225.945 56.4095 225.948 56.3136 225.931 56.2204C225.908 56.0989 225.852 55.986 225.769 55.8943C225.685 55.8027 225.578 55.7359 225.46 55.7014C225.477 55.6148 225.477 55.5255 225.46 55.4389C225.437 55.3166 225.381 55.2029 225.297 55.1107C225.214 55.0185 225.106 54.9514 224.986 54.917C224.867 54.8826 224.74 54.8822 224.62 54.9159C224.5 54.9497 224.392 55.0161 224.308 55.1079V55.0902C223.615 55.2168 222.899 55.0769 222.306 54.6985C222.187 54.7214 222.076 54.7758 221.986 54.8562C221.895 54.9365 221.828 55.0397 221.792 55.1549C221.716 55.0827 221.623 55.0295 221.523 54.9999C221.422 54.9703 221.316 54.965 221.213 54.9845C221.167 55.079 221.1 55.1614 221.017 55.2251C220.933 55.2888 220.836 55.332 220.733 55.3511C220.629 55.3702 220.523 55.3647 220.422 55.335C220.322 55.3053 220.229 55.2523 220.153 55.1803C220.143 55.3007 220.101 55.4161 220.03 55.5143C219.959 55.6124 219.863 55.6896 219.752 55.7374C219.641 55.7853 219.519 55.8022 219.399 55.7862C219.279 55.7701 219.166 55.7219 219.071 55.6465C218.984 55.6623 218.901 55.6951 218.827 55.7431C218.753 55.7912 218.689 55.8534 218.639 55.9263C218.589 55.9991 218.554 56.0812 218.536 56.1676C218.518 56.2541 218.517 56.3433 218.534 56.43C218.54 56.4622 218.549 56.4936 218.561 56.524C218.515 56.5224 218.469 56.5257 218.424 56.5338C218.337 56.5498 218.254 56.5828 218.18 56.6309C218.106 56.679 218.042 56.7412 217.992 56.814C217.942 56.8868 217.907 56.9688 217.889 57.0552C217.871 57.1415 217.87 57.2306 217.886 57.3173C217.904 57.4133 217.942 57.5042 217.999 57.5834C218.056 57.6627 218.13 57.7283 218.216 57.7757C218.089 57.8219 217.979 57.9054 217.901 58.0151C217.822 58.1248 217.779 58.2557 217.776 58.3905C217.774 58.5253 217.812 58.6577 217.886 58.7703C217.961 58.8829 218.067 58.9705 218.192 59.0214C218.111 59.0975 218.05 59.1926 218.015 59.2982C217.979 59.4037 217.971 59.5164 217.991 59.626C218.01 59.7355 218.057 59.8385 218.126 59.9255C218.196 60.0125 218.286 60.0808 218.389 60.1242C218.308 60.2016 218.248 60.2977 218.213 60.4041C218.179 60.5104 218.172 60.6236 218.192 60.7334C218.209 60.8234 218.244 60.909 218.295 60.9848C218.347 61.0607 218.413 61.1251 218.491 61.1741C218.676 61.3492 218.817 61.5657 218.902 61.8057C218.987 62.0457 219.015 62.3025 218.981 62.555C218.997 62.6419 219.03 62.7248 219.078 62.799C219.126 62.8731 219.188 62.937 219.262 62.9869C219.335 63.0368 219.417 63.0718 219.503 63.0897C219.59 63.1077 219.679 63.1084 219.766 63.0917L221.289 62.8097L221.132 61.9635C220.945 61.9915 220.754 61.9459 220.6 61.8364C220.446 61.7268 220.341 61.5618 220.306 61.3762C220.271 61.1905 220.31 60.9987 220.415 60.8412C220.519 60.6836 220.681 60.5727 220.865 60.5316L220.769 60.0047C220.634 59.278 220.952 59.0038 221.305 58.9392L225.846 58.0989V58.0812C226.004 58.0509 226.146 57.9649 226.246 57.8389C226.346 57.7128 226.397 57.5552 226.39 57.3947C226.383 57.2342 226.319 57.0815 226.208 56.9644C226.098 56.8474 225.949 56.7738 225.789 56.7571L225.797 56.7532Z" fill="#303642"/>
<path d="M235.25 104L230 114L253.446 124.643C254.354 125.052 255.391 125.111 256.343 124.809C257.296 124.506 258.09 123.865 258.563 123.017C258.979 122.271 259.1 121.405 258.902 120.58C258.704 119.755 258.201 119.027 257.486 118.53L235.25 104Z" fill="#303642"/>
<path d="M251.802 78.4672L255.435 77.8119C255.846 77.7382 256.241 78.0645 256.323 78.5454L256.612 80.2929C256.721 80.6997 256.483 81.1063 256.125 81.1434L255.162 81.2413C255.162 81.2413 255.656 82.4877 255.602 82.8854C255.548 83.2831 255.003 83.6827 255.003 83.6827L254.455 82.5541C254.297 82.2029 254.06 81.8935 253.761 81.6507C253.462 81.4078 253.11 81.2384 252.733 81.1559L252.229 81.1997C251.988 81.2154 251.747 81.1738 251.526 81.0783C251.305 80.9828 251.11 80.8362 250.956 80.6506C250.419 80.0402 250.583 79.0067 251.267 78.6998L251.802 78.4672Z" fill="#E94E0F"/>
<path d="M236.654 88.3854C236.102 89.0845 235.323 89.5702 234.452 89.7593C233.58 89.9483 232.67 89.8289 231.877 89.4215L215.8 81.1713C215.133 80.8375 214.548 80.3608 214.086 79.7755C213.625 79.1901 213.299 78.5103 213.131 77.7846C212.98 77.1369 212.959 76.466 213.069 75.8101C213.179 75.1543 213.417 74.5265 213.77 73.9626C214.122 73.3987 214.583 72.9097 215.126 72.5236C215.668 72.1375 216.281 71.8619 216.93 71.7125C217.657 71.5442 218.412 71.5383 219.142 71.6955C219.871 71.8526 220.557 72.1688 221.15 72.6214L236.077 83.749C237.59 85.0829 237.819 87.0534 236.665 88.3834L236.654 88.3854Z" fill="#F8AD07"/>
<path d="M251.844 78.323L252.04 81.0515L235.288 89.2783C235.027 89.4059 234.756 89.5108 234.477 89.5917C234.289 89.6464 234.091 89.6626 233.896 89.6394C233.701 89.6162 233.513 89.554 233.343 89.4565L230.652 87.9365C230.441 87.8175 230.262 87.6482 230.132 87.4438C230.002 87.2393 229.924 87.006 229.906 86.7645C229.888 86.5229 229.93 86.2806 230.028 86.059C230.126 85.8374 230.277 85.6433 230.468 85.494L233.855 82.8497C234.021 82.7201 234.212 82.6273 234.416 82.5774L251.844 78.321V78.323Z" fill="#F8AD07"/>
<path d="M227.076 156.423L223.439 155.944L223.137 158.236L224.023 158.789C224.126 158.826 224.31 159.239 224.483 159.682C224.534 159.811 224.614 159.926 224.717 160.018C224.821 160.11 224.944 160.176 225.078 160.211C225.212 160.246 225.352 160.25 225.487 160.221C225.622 160.192 225.749 160.131 225.856 160.044C226.399 159.626 226.919 159.181 227.416 158.71C227.568 158.549 227.681 158.355 227.747 158.144C227.813 157.932 227.83 157.708 227.798 157.489C227.765 157.27 227.683 157.061 227.558 156.878C227.432 156.695 227.267 156.543 227.075 156.433L227.076 156.423Z" fill="#242831"/>
<path d="M224.753 162.459L226.642 159.722L227.709 158.673C227.867 158.521 227.982 158.331 228.045 158.121C228.115 157.866 228.103 157.596 228.011 157.348C227.92 157.101 227.752 156.888 227.533 156.741L227.08 156.434L224.023 158.789L222.692 161.618L222.721 161.738C222.773 161.944 222.876 162.134 223.019 162.292C223.163 162.449 223.343 162.569 223.543 162.641C223.744 162.713 223.959 162.734 224.17 162.703C224.38 162.673 224.58 162.591 224.752 162.465L224.753 162.459Z" fill="#242831"/>
<path d="M224.753 162.459C224.797 162.332 224.807 162.195 224.782 162.063C224.757 161.93 224.699 161.807 224.612 161.704C224.526 161.601 224.414 161.522 224.288 161.474C224.162 161.427 224.026 161.413 223.893 161.434L222.693 161.613L222.214 165.25L223.639 165.437L224.753 162.459Z" fill="#242831"/>
<path d="M245.489 118.257L224.489 156.432L227.418 158.39L253.52 123.43C253.926 122.886 254.212 122.261 254.358 121.598C254.504 120.934 254.507 120.247 254.368 119.582C254.228 118.918 253.948 118.29 253.547 117.742C253.146 117.193 252.633 116.737 252.042 116.402C251.491 116.09 250.883 115.89 250.254 115.814C249.625 115.739 248.987 115.788 248.378 115.961C247.768 116.134 247.199 116.425 246.703 116.82C246.207 117.214 245.795 117.702 245.489 118.257Z" fill="#303642"/>
<path d="M260.221 51.8323C259.931 51.9725 259.596 51.8721 259.468 51.6064L257.231 46.9834C257.103 46.7177 257.232 46.3929 257.522 46.2527C257.812 46.1124 258.146 46.2128 258.275 46.4785L260.537 51.1547C260.64 51.3673 260.511 51.692 260.221 51.8323Z" fill="#C385AB"/>
<path d="M296.511 47.6425C310.186 47.6425 321.271 38.0967 321.271 26.3213C321.271 14.5459 310.186 5 296.511 5C282.837 5 271.751 14.5459 271.751 26.3213C271.751 29.8387 272.74 33.1572 274.492 36.0818L269 45.2353L278.715 41.145C283.216 45.1516 289.526 47.6425 296.511 47.6425Z" fill="#C8CDD9"/>
<path d="M296.982 17.0001C296.746 17.0037 296.522 17.0987 296.358 17.2642C296.194 17.4298 296.104 17.6523 296.107 17.8829V28.9075C296.105 29.0228 296.127 29.1373 296.171 29.2444C296.215 29.3514 296.28 29.4488 296.363 29.5309C296.445 29.6131 296.544 29.6783 296.653 29.7228C296.761 29.7673 296.878 29.7902 296.995 29.7902C297.113 29.7902 297.23 29.7673 297.338 29.7228C297.447 29.6783 297.545 29.6131 297.628 29.5309C297.711 29.4488 297.776 29.3514 297.82 29.2444C297.864 29.1373 297.885 29.0228 297.884 28.9075V17.8829C297.885 17.7664 297.863 17.6508 297.818 17.5429C297.774 17.4349 297.707 17.3369 297.623 17.2546C297.539 17.1722 297.439 17.1073 297.329 17.0636C297.218 17.0199 297.1 16.9983 296.982 17.0001ZM293.778 17.9498C293.698 17.9475 293.617 17.9559 293.539 17.9747C290.226 18.7201 287.322 20.5125 285.209 22.9759C285.133 23.0634 285.077 23.1646 285.041 23.2736C285.006 23.3826 284.993 23.4973 285.003 23.6112C285.024 23.8413 285.136 24.054 285.317 24.2027C285.497 24.3513 285.73 24.4236 285.965 24.4038C286.081 24.3939 286.194 24.3617 286.298 24.3091C286.402 24.2564 286.494 24.1842 286.569 24.0967C288.44 21.9159 291.009 20.33 293.937 19.6712C294.15 19.6269 294.338 19.5078 294.467 19.3364C294.596 19.165 294.657 18.9532 294.637 18.7411C294.617 18.5291 294.519 18.3314 294.361 18.1856C294.202 18.0398 293.995 17.9559 293.778 17.9498ZM300.275 17.9498C300.246 17.9487 300.216 17.9491 300.186 17.9509C299.972 17.9633 299.769 18.0515 299.616 18.1992C299.462 18.3469 299.369 18.544 299.353 18.7541C299.336 18.9642 299.398 19.1729 299.527 19.3416C299.656 19.5102 299.843 19.6274 300.053 19.6712C302.982 20.33 305.551 21.9158 307.422 24.0967C307.496 24.1864 307.588 24.2607 307.692 24.3152C307.796 24.3698 307.91 24.4035 308.027 24.4144C308.145 24.4254 308.263 24.4133 308.376 24.379C308.488 24.3446 308.593 24.2887 308.683 24.2144C308.773 24.1401 308.848 24.0489 308.902 23.9462C308.956 23.8434 308.988 23.7312 308.997 23.6161C309.007 23.5009 308.992 23.3851 308.955 23.2754C308.918 23.1656 308.86 23.0642 308.782 22.977C306.668 20.5137 303.765 18.7201 300.451 17.9747C300.394 17.9607 300.335 17.9523 300.275 17.9498ZM293.763 22.7787C293.653 22.7772 293.544 22.7957 293.441 22.8331C291.488 23.513 289.8 24.7346 288.559 26.3111C288.485 26.4013 288.429 26.5052 288.396 26.6166C288.364 26.7281 288.354 26.8448 288.368 26.96C288.381 27.0752 288.418 27.1866 288.477 27.2875C288.535 27.3885 288.613 27.477 288.707 27.5478C288.801 27.6187 288.908 27.6705 289.023 27.7001C289.137 27.7298 289.256 27.7367 289.374 27.7206C289.491 27.7044 289.604 27.6654 289.705 27.6059C289.807 27.5464 289.895 27.4676 289.966 27.3742C291.002 26.0576 292.411 25.0383 294.036 24.473C294.234 24.4068 294.402 24.2743 294.51 24.0987C294.618 23.9232 294.659 23.7159 294.627 23.5133C294.594 23.3108 294.489 23.126 294.331 22.9917C294.173 22.8573 293.972 22.7818 293.763 22.7787ZM300.201 22.7787C299.995 22.7881 299.798 22.8678 299.645 23.0041C299.492 23.1404 299.392 23.3247 299.363 23.5254C299.334 23.726 299.377 23.9303 299.485 24.1031C299.593 24.2758 299.759 24.4062 299.955 24.4718C301.58 25.0378 302.989 26.0577 304.025 27.3742C304.095 27.4676 304.184 27.5464 304.285 27.6059C304.387 27.6654 304.5 27.7044 304.617 27.7206C304.734 27.7367 304.854 27.7298 304.968 27.7001C305.083 27.6705 305.19 27.6187 305.284 27.5478C305.377 27.477 305.456 27.3885 305.514 27.2875C305.572 27.1866 305.609 27.0752 305.623 26.96C305.637 26.8448 305.627 26.7281 305.594 26.6166C305.561 26.5052 305.506 26.4013 305.432 26.3111C304.19 24.7346 302.503 23.5123 300.55 22.832C300.438 22.7916 300.32 22.7735 300.201 22.7787ZM300.237 28.0292C300.053 28.0264 299.873 28.0798 299.721 28.1819C299.569 28.2841 299.453 28.43 299.39 28.5994C299.326 28.7688 299.318 28.9533 299.366 29.1275C299.415 29.3017 299.517 29.4569 299.659 29.5716C300.016 29.8675 300.323 30.2222 300.562 30.6187C300.621 30.719 300.699 30.8069 300.792 30.8772C300.886 30.9476 300.992 30.999 301.106 31.0286C301.22 31.0582 301.339 31.0652 301.456 31.0494C301.572 31.0335 301.685 30.9951 301.786 30.9364C301.887 30.8776 301.976 30.7996 302.046 30.707C302.117 30.6145 302.168 30.5091 302.196 30.3971C302.224 30.285 302.23 30.1686 302.212 30.0545C302.194 29.9404 302.153 29.831 302.091 29.7325C301.75 29.167 301.315 28.6647 300.806 28.2434C300.648 28.1085 300.447 28.0326 300.237 28.0292ZM293.703 28.0462C293.503 28.0561 293.312 28.132 293.161 28.2615C292.663 28.6786 292.235 29.1757 291.899 29.7336C291.837 29.8322 291.796 29.9419 291.777 30.0563C291.759 30.1708 291.764 30.2877 291.793 30.4001C291.821 30.5126 291.872 30.6184 291.943 30.7113C292.013 30.8042 292.102 30.8823 292.204 30.9412C292.306 31 292.419 31.0383 292.536 31.0539C292.653 31.0695 292.772 31.062 292.886 31.0318C293 31.0017 293.107 30.9495 293.201 30.8784C293.294 30.8073 293.372 30.7186 293.43 30.6176C293.665 30.2275 293.965 29.8783 294.316 29.5852C294.459 29.4684 294.561 29.3103 294.608 29.1333C294.655 28.9563 294.643 28.7693 294.576 28.599C294.508 28.4287 294.387 28.2836 294.23 28.1844C294.074 28.0852 293.889 28.0368 293.703 28.0462ZM296.995 31.5186C296.524 31.5186 296.072 31.702 295.739 32.0284C295.406 32.3549 295.219 32.7976 295.219 33.2593C295.219 33.7209 295.406 34.1637 295.739 34.4902C296.072 34.8166 296.524 35 296.995 35C297.467 35 297.918 34.8166 298.252 34.4902C298.585 34.1637 298.772 33.7209 298.772 33.2593C298.772 32.7976 298.585 32.3549 298.252 32.0284C297.918 31.702 297.467 31.5186 296.995 31.5186Z" fill="white"/>
<path d="M203.584 45.2331L210.294 52.6963L211.205 51.7318L204.523 44.2354L203.584 45.2331Z" fill="#F8AD07"/>
<path d="M205.003 53.5526L204.595 54.7249L211.783 56.7027L212.202 55.5097L205.003 53.5526Z" fill="#F8AD07"/>
<path d="M214.525 51.9469L213.898 46.1396L212.682 46.6395L213.226 52.4929L214.525 51.9469Z" fill="#F8AD07"/>
<path d="M50.1 147H47.5V170.6H50.1V147Z" fill="#F17F9C"/>
<path d="M59.5001 201.6H38.1001V160.7C38.1001 154.8 42.9001 150 48.8001 150C54.7001 150 59.5001 154.8 59.5001 160.7V201.6Z" fill="#E4003A"/>
<path d="M60.4 163.9H37.2C35.8 163.9 34.7 162.8 34.7 161.4C34.7 160 35.8 158.9 37.2 158.9H60.4C61.7999 158.9 62.9 160 62.9 161.4C63 162.8 61.7999 163.9 60.4 163.9Z" fill="#F17F9C"/>
<path d="M62.9001 197.2H34.6001V201.6H62.9001V197.2Z" fill="#F17F9C"/>
<path d="M63.6 181.8L48.8 185.6L34 181.8V175.7L48.8 171.9L63.6 175.7V181.8Z" fill="#E4003A"/>
<path d="M54.6 178.8C54.6 182 52 184.6 48.8 184.6C45.6 184.6 43 182 43 178.8C43 175.6 45.6 173 48.8 173C52 172.9 54.6 175.5 54.6 178.8Z" fill="#F17F9C"/>
<circle cx="105.127" cy="176.373" r="22.6269" stroke="#303642" stroke-width="3"/>
<circle cx="178.873" cy="176.373" r="22.6269" stroke="#303642" stroke-width="3"/>
<path d="M135.627 175.918L165.672 143.142H122.881L105.582 175.918H135.627ZM135.627 175.918L117.418 133.582M127.433 133.582H117.418M113.321 133.582H117.418" stroke="#F8AD07" stroke-width="3" stroke-linecap="round" stroke-linejoin="round"/>
<path d="M179.328 176.373L160.664 126H172" stroke="#F8AD07" stroke-width="3" stroke-linecap="round" stroke-linejoin="round"/>
</svg>
