<svg width="340" height="206" viewBox="0 0 340 206" fill="none" xmlns="http://www.w3.org/2000/svg">
<rect width="340" height="204" transform="translate(0 0.00012207)" fill="#F8F9FB"/>
<path d="M226.15 35.2849L280.844 108.87L272.5 187.5L194.533 205.717L198.694 117.578L203.844 41.4527L226.15 35.2849Z" fill="#FDEAC1"/>
<path d="M214 0.00012207H213V28.0001H214V0.00012207Z" fill="#F8AD07"/>
<path d="M226.733 35.1236C225.74 32.3025 223.69 29.9686 220.998 28.594C218.307 27.2195 215.175 26.9069 212.236 27.7195C209.297 28.5322 206.77 30.4094 205.168 32.9713C203.565 35.5333 203.005 38.5888 203.601 41.5198L226.733 35.1236Z" fill="#F8AD07"/>
<rect y="187.598" width="339.793" height="16.402" fill="#F9D2C3"/>
<path d="M307 48.0001H273V184H307V48.0001Z" fill="#870B58"/>
<path d="M277.43 190.508C279.325 190.508 280.861 188.971 280.861 187.075C280.861 185.179 279.325 183.642 277.43 183.642C275.536 183.642 274 185.179 274 187.075C274 188.971 275.536 190.508 277.43 190.508Z" fill="#7783A0"/>
<path d="M300.607 190.508C302.502 190.508 304.038 188.971 304.038 187.075C304.038 185.179 302.502 183.642 300.607 183.642C298.713 183.642 297.177 185.179 297.177 187.075C297.177 188.971 298.713 190.508 300.607 190.508Z" fill="#7783A0"/>
<path d="M259.86 143H255V162.455H259.86V143Z" fill="#F8AD07"/>
<path d="M254.86 143H250V162.455H254.86V143Z" fill="#F8AD07"/>
<path d="M264.86 143H260V162.455H264.86V143Z" fill="#F8AD07"/>
<path d="M269.826 142.781L265 143.355L267.298 162.673L272.123 162.099L269.826 142.781Z" fill="#F8AD07"/>
<path d="M273 182V146H249V182H273Z" fill="#740048"/>
<path d="M273 135V99.0001H254V135H273Z" fill="#740048"/>
<path d="M172.731 187.192L172.194 190.46L173.838 190.73L174.316 189.713C174.348 189.63 174.946 189.83 175.317 189.699C175.426 189.661 175.524 189.598 175.604 189.516C175.684 189.433 175.742 189.332 175.775 189.222C175.808 189.112 175.814 188.996 175.794 188.884C175.773 188.771 175.725 188.665 175.655 188.574C175.323 188.115 174.967 187.674 174.588 187.253C174.033 186.697 173.143 186.524 172.731 187.188V187.192Z" fill="#870B58"/>
<path d="M177.632 189.553L175.412 187.923L174.572 187.023C174.449 186.89 174.293 186.791 174.119 186.737C173.909 186.67 173.683 186.67 173.473 186.739C173.263 186.808 173.081 186.941 172.953 187.12L172.726 187.201L174.312 189.722L176.869 191.236L176.971 191.216C177.145 191.181 177.307 191.102 177.443 190.989C177.579 190.875 177.684 190.73 177.749 190.566C177.815 190.401 177.838 190.224 177.816 190.048C177.795 189.873 177.73 189.706 177.628 189.562L177.632 189.553Z" fill="#870B58"/>
<path d="M177.632 189.553C177.528 189.515 177.417 189.505 177.308 189.522C177.198 189.539 177.095 189.583 177.008 189.651C176.921 189.718 176.853 189.807 176.809 189.908C176.766 190.009 176.749 190.119 176.76 190.228L176.873 191.221L179.879 191.714L179.97 191.169L177.632 189.553Z" fill="#870B58"/>
<path d="M178.013 155.388V155.427L172.737 187.193L175.118 187.598L184.042 156.417V156.379C184.135 155.973 184.144 155.554 184.067 155.145C183.991 154.736 183.831 154.347 183.597 154.002C183.364 153.658 183.062 153.364 182.71 153.139C182.358 152.915 181.963 152.764 181.551 152.697C181.139 152.631 180.718 152.649 180.313 152.75C179.909 152.852 179.53 153.034 179.198 153.286C178.867 153.538 178.591 153.854 178.387 154.216C178.183 154.577 178.056 154.976 178.013 155.388Z" fill="#F3A687"/>
<path d="M178.013 155.426L173.902 180.184L177.091 180.708L184.042 156.417V156.378C184.138 155.973 184.149 155.552 184.074 155.141C183.999 154.731 183.84 154.341 183.607 153.994C183.374 153.647 183.072 153.352 182.72 153.126C182.367 152.9 181.972 152.748 181.558 152.68C181.144 152.613 180.72 152.63 180.313 152.731C179.907 152.832 179.525 153.016 179.192 153.27C178.859 153.523 178.583 153.842 178.379 154.207C178.175 154.571 178.049 154.973 178.008 155.388L178.013 155.426Z" fill="#E4003A"/>
<path d="M179.145 123.8C178.527 123.837 177.922 123.999 177.37 124.278C176.817 124.556 176.327 124.944 175.931 125.417C175.535 125.891 175.241 126.44 175.068 127.031C174.894 127.622 174.844 128.242 174.921 128.853L178.149 155.823C178.389 157.328 179.924 158.469 181.451 158.337C182.183 158.286 182.868 157.959 183.365 157.423C183.863 156.887 184.136 156.183 184.128 155.454L183.97 128.295C183.97 127.679 183.843 127.069 183.597 126.504C183.351 125.939 182.99 125.43 182.538 125.008C182.086 124.587 181.551 124.262 180.968 124.055C180.384 123.847 179.764 123.76 179.145 123.8Z" fill="#E4003A"/>
<path d="M198.398 186.526L198.341 189.837L200.008 189.866L200.332 188.79C200.353 188.702 200.973 188.817 201.322 188.633C201.423 188.579 201.511 188.502 201.577 188.409C201.643 188.316 201.686 188.209 201.702 188.096C201.719 187.983 201.708 187.868 201.672 187.76C201.635 187.652 201.574 187.554 201.492 187.473C201.095 187.069 200.678 186.684 200.242 186.321C199.612 185.853 198.708 185.808 198.398 186.526Z" fill="#870B58"/>
<path d="M203.591 188.153L201.159 186.861L200.194 186.082C200.053 185.968 199.886 185.89 199.707 185.857C199.489 185.822 199.266 185.856 199.068 185.954C198.871 186.052 198.71 186.21 198.608 186.404L198.4 186.519L200.334 188.783L203.086 189.909L203.184 189.875C203.351 189.815 203.5 189.714 203.618 189.582C203.736 189.45 203.819 189.29 203.86 189.118C203.9 188.946 203.897 188.767 203.85 188.596C203.803 188.426 203.714 188.27 203.591 188.142V188.153Z" fill="#870B58"/>
<path d="M203.401 188.133C203.292 188.115 203.179 188.126 203.075 188.164C202.97 188.202 202.877 188.266 202.805 188.349C202.732 188.433 202.682 188.534 202.66 188.642C202.637 188.75 202.643 188.862 202.677 188.968L202.976 189.92L206.022 189.841L206.009 189.29L203.401 188.133Z" fill="#870B58"/>
<path d="M198.989 154.283V154.321L198.398 186.54L200.731 186.58L204.967 154.427V154.389C204.999 153.983 204.947 153.574 204.814 153.189C204.681 152.803 204.471 152.449 204.195 152.148C203.919 151.846 203.584 151.604 203.21 151.437C202.836 151.269 202.432 151.179 202.022 151.173C201.614 151.168 201.21 151.246 200.833 151.402C200.457 151.558 200.116 151.788 199.832 152.08C199.548 152.371 199.327 152.716 199.182 153.095C199.037 153.474 198.972 153.878 198.989 154.283Z" fill="#F3A687"/>
<path d="M198.991 154.321L198.538 179.423L201.677 179.479L204.966 154.427V154.389C205 153.982 204.95 153.573 204.818 153.187C204.687 152.8 204.477 152.445 204.201 152.142C203.926 151.84 203.591 151.596 203.217 151.428C202.844 151.259 202.439 151.168 202.029 151.161C201.618 151.153 201.211 151.23 200.831 151.386C200.452 151.541 200.108 151.772 199.822 152.065C199.536 152.358 199.314 152.705 199.168 153.087C199.023 153.468 198.958 153.875 198.978 154.283L198.991 154.321Z" fill="#E4003A"/>
<path d="M188.303 125.208C187.743 125.47 187.242 125.844 186.833 126.306C186.423 126.767 186.114 127.307 185.923 127.893C185.732 128.478 185.663 129.096 185.722 129.709C185.781 130.321 185.965 130.915 186.264 131.454L199.286 155.327C200.067 156.637 201.92 157.127 203.291 156.452C203.952 156.137 204.467 155.582 204.73 154.902C204.992 154.221 204.983 153.467 204.704 152.793L194.455 127.614C194.226 127.042 193.882 126.523 193.443 126.088C193.004 125.653 192.48 125.312 191.903 125.087C191.327 124.861 190.71 124.756 190.09 124.777C189.471 124.798 188.863 124.945 188.303 125.208Z" fill="#E4003A"/>
<path d="M188.992 135.061L176.71 130.634C175.256 130.07 174.546 128.494 175.093 127.025L178.308 119.986C178.83 118.609 180.16 117.654 181.655 117.589L184.011 117.482C188.199 117.23 191.618 118.983 194.314 121.985L195.548 123.31C196.514 124.348 196.712 125.874 196.05 127.168L192.863 133.58C192.141 134.975 190.444 135.624 188.992 135.061Z" fill="#E4003A"/>
<path d="M247.803 96.9019L248.818 96.7229C249.127 96.6661 249.419 96.5385 249.669 96.3501C249.919 96.1617 250.122 95.9177 250.26 95.6374C250.332 95.5214 250.432 95.4248 250.55 95.3561C250.669 95.2874 250.802 95.2487 250.94 95.2434L253.669 95.1337C253.7 95.1263 253.728 95.1108 253.751 95.0886C253.774 95.0665 253.79 95.0387 253.798 95.008C253.806 94.9774 253.806 94.9451 253.797 94.9147C253.788 94.8842 253.771 94.8566 253.748 94.8349L251.799 93.685C251.487 93.513 251.143 93.4051 250.788 93.3676C250.433 93.3301 250.075 93.3639 249.734 93.4668L247.785 94.0353L247.313 94.3803C247.146 94.5053 247.011 94.6672 246.917 94.8532C246.824 95.0392 246.775 95.2444 246.774 95.4527C246.774 95.661 246.822 95.8668 246.914 96.054C247.007 96.2412 247.142 96.4047 247.308 96.5318L247.803 96.9019Z" fill="#F3A687"/>
<path d="M231.352 101.913C231.078 102.805 230.501 103.573 229.718 104.085C228.936 104.598 227.997 104.823 227.064 104.721L206.907 101.124C206.314 101.058 205.74 100.871 205.221 100.574C204.703 100.277 204.252 99.8761 203.896 99.3975C203.541 98.9188 203.288 98.3724 203.155 97.7927C203.022 97.2131 203.011 96.6127 203.122 96.0294C203.333 94.9206 203.975 93.9406 204.908 93.3009C205.84 92.6612 206.99 92.4132 208.109 92.6105L229.091 98.2268C231.084 98.9645 231.985 100.167 231.354 101.904L231.352 101.913Z" fill="#F8AD07"/>
<path d="M247.768 94.0278L247.789 96.9001L229.245 104.459L229.229 104.465C228.83 104.627 228.389 104.654 227.972 104.543C227.555 104.432 227.185 104.188 226.92 103.849C225.413 101.931 225.73 99.6775 227.759 98.3359L227.965 98.1985C228.203 98.042 228.471 97.9364 228.753 97.8883L247.768 94.0278Z" fill="#F8AD07"/>
<path d="M208.619 92.9548L194.543 86.6739L187.367 98.5101L182.964 112.858C182.577 114.118 182.668 115.477 183.219 116.679C183.77 117.881 184.742 118.842 185.954 119.383L191.627 121.913C192.908 122.485 194.36 122.543 195.679 122.074C196.998 121.606 198.082 120.648 198.704 119.4L205.489 109.332C206.586 107.701 207.267 105.827 207.474 103.873L208.619 92.9548Z" fill="#F8AD07"/>
<path d="M198.778 119.235C198.778 119.235 199.97 115.405 197.974 114.512L187.656 109.908C185.542 108.961 183.09 112.58 183.09 112.58L174.127 122.822L182.606 126.604L188.307 124.446L190.499 130.129L197.885 133.424L198.778 119.235Z" fill="#F8AD07"/>
<path d="M176.546 109.176C175.877 108.52 175.457 107.654 175.358 106.725C175.259 105.797 175.488 104.864 176.006 104.088L188.45 87.9708C188.781 87.4766 189.211 87.0563 189.713 86.7364C190.216 86.4165 190.78 86.2039 191.37 86.112C191.961 86.0201 192.564 86.0509 193.143 86.2024C193.721 86.354 194.262 86.623 194.732 86.9926C195.628 87.6949 196.21 88.719 196.354 89.8431C196.497 90.9671 196.19 92.1003 195.498 92.9971L180.869 108.896C179.298 110.311 177.814 110.547 176.554 109.181L176.546 109.176Z" fill="#F8AD07"/>
<path d="M188.18 125.719L185.31 125.993L176.148 108.675C176.006 108.408 175.887 108.129 175.792 107.843C175.729 107.647 175.707 107.44 175.726 107.236C175.744 107.031 175.805 106.833 175.902 106.652L177.424 103.799C177.543 103.575 177.716 103.384 177.928 103.243C178.139 103.101 178.383 103.014 178.637 102.989C178.89 102.964 179.147 103.002 179.383 103.099C179.619 103.195 179.828 103.349 179.991 103.545L182.289 107.271C182.429 107.44 182.533 107.637 182.592 107.848L188.181 125.717L188.18 125.719Z" fill="#F8AD07"/>
<path d="M204.36 91.0564L206.965 83.6735L203.391 82.0778L199.616 88.9398L204.36 91.0564Z" fill="#F3A687"/>
<path d="M210.43 82.3606L204.658 79.7827C204.136 79.5509 203.545 79.5339 203.013 79.7354C202.481 79.937 202.051 80.3406 201.819 80.8577L201.471 81.6383L201.496 81.5658L200.522 83.7555C200.303 84.2483 200.289 84.8078 200.484 85.3123C200.678 85.8167 201.064 86.2252 201.558 86.4487L204.606 87.8109C205.355 88.1442 206.205 88.1685 206.97 87.8783C207.734 87.5881 208.35 87.0073 208.683 86.2636L210.43 82.3606Z" fill="#F3A687"/>
<path d="M207.607 74.9819C206.936 74.6811 206.213 74.5147 205.478 74.4921C204.744 74.4695 204.013 74.5912 203.327 74.8503C202.641 75.1094 202.013 75.5007 201.48 76.0019C200.947 76.5031 200.519 77.1043 200.221 77.7712L200.077 78.0932L197.217 87.8759L201.314 95.4232L204.932 91.3267L207.092 87.8447C206.568 88.07 205.991 88.1452 205.426 88.0618L204.867 89.6549L202.003 88.3376L203.834 79.7908L210.302 82.6733L210.445 82.3534C210.746 81.6862 210.912 80.9657 210.932 80.2335C210.953 79.5013 210.827 78.7718 210.564 78.0868C210.3 77.4018 209.903 76.7749 209.396 76.242C208.888 75.7092 208.28 75.281 207.607 74.9819ZM210.29 82.6505L210.286 82.6633L210.29 82.6505Z" fill="#E4003A"/>
<path d="M185.31 125.992L185.588 126.978C185.675 127.279 185.831 127.556 186.043 127.788C186.256 128.019 186.52 128.198 186.814 128.31C186.936 128.37 187.043 128.458 187.123 128.568C187.204 128.678 187.256 128.806 187.276 128.94L187.65 131.635C187.66 131.665 187.678 131.692 187.702 131.712C187.727 131.733 187.756 131.747 187.788 131.752C187.819 131.757 187.852 131.754 187.881 131.742C187.911 131.73 187.937 131.71 187.956 131.685L188.919 129.653C189.061 129.329 189.137 128.979 189.141 128.625C189.145 128.271 189.077 127.919 188.942 127.591L188.185 125.711L187.727 125.36C187.536 125.215 187.315 125.114 187.079 125.066C186.844 125.019 186.601 125.024 186.369 125.084C186.137 125.143 185.921 125.254 185.739 125.408C185.556 125.563 185.412 125.756 185.316 125.975L185.31 125.992Z" fill="#F3A687"/>
<path d="M256.395 88.342C255.467 86.4944 253.222 85.7509 251.374 86.6792C249.527 87.6075 248.783 89.8527 249.712 91.7002C250.043 92.3599 250.543 92.8731 251.132 93.2255L249.332 98.5027L250.587 98.9183L252.366 93.6905C253.143 93.8365 253.97 93.7461 254.733 93.363C256.58 92.4347 257.324 90.1896 256.395 88.342ZM255.609 88.7371C256.32 90.1523 255.753 91.8656 254.338 92.5767C252.922 93.2878 251.209 92.7204 250.498 91.3051C249.787 89.8899 250.354 88.1766 251.77 87.4656C253.185 86.7545 254.898 87.3219 255.609 88.7371Z" fill="#870B58"/>
<path d="M303.526 24.4345C301.932 25.4322 301.517 25.2729 301.199 25.8472C300.602 26.9351 301.496 28.549 302.196 29.3392C302.715 29.9261 303.494 30.4732 303.733 30.295C303.854 30.207 303.798 29.9618 303.523 28.7565C303.276 27.6561 303.155 27.1028 303.314 26.9707C303.523 26.7925 304.081 26.933 304.269 27.26C304.501 27.6666 303.999 28.0586 303.978 28.8823C303.973 29.4624 304.181 30.0243 304.56 30.4627C305.335 31.341 306.864 31.5233 307.218 31.0433C307.298 30.9343 307.333 30.7687 306.678 29.006C306.246 27.8427 305.984 27.2516 306.179 27.0944C306.324 26.9791 306.644 27.1573 306.678 27.1782C307.796 27.8175 306.923 30.1588 307.882 30.9616C308.493 31.4709 309.658 31.0391 310.873 30.6283C311.472 30.4187 311.869 30.3726 312.202 30.0456C312.621 29.6264 312.726 29.1338 312.831 28.6748C312.963 28.0648 313.187 27.0147 312.707 26.6375C312.228 26.2602 311.66 26.9539 310.422 26.7611C309.662 26.6437 308.831 26.2161 308.845 25.8472C308.845 25.623 309.176 25.3882 309.474 25.3903C309.918 25.3903 310.022 25.9458 310.554 26.2287C311.153 26.5389 312.085 26.3901 312.422 25.9374C313.112 25.0172 311.597 22.4999 310.554 22.569C310.119 22.5984 310.06 23.0553 309.266 23.3592C308.472 23.6632 307.591 23.5961 307.522 23.3592C307.463 23.1706 307.93 22.831 308.311 22.6529C309.241 22.219 309.987 22.5942 310.221 22.2337C310.456 21.8732 309.991 21.2779 309.93 21.1857C309.214 20.1712 307.486 19.643 306.608 20.2718C305.882 20.7916 306.399 21.6342 305.528 22.8478C305.088 23.4578 304.566 23.7931 303.526 24.4345Z" fill="#F8BFCD"/>
<path d="M292.802 30.6618C291.715 29.488 292.247 28.5302 291.368 27.9621C290.321 27.2872 288.7 28.0774 287.889 28.4736C287.211 28.8047 286.04 29.5216 286.163 29.9408C286.266 30.2803 287.242 30.4564 288.025 30.2678C288.566 30.1378 288.907 29.8611 289.072 30.012C289.211 30.1336 289.169 30.4753 289.016 30.6954C288.61 31.2739 287.414 31.037 287.271 31.0077C286.333 30.8106 286.239 30.3348 285.665 30.3579C284.863 30.3893 283.88 31.3619 284.075 32.2318C284.232 32.9172 285.095 33.4139 285.751 33.3468C286.266 33.2923 286.547 32.9088 287.154 33.0052C287.345 33.0345 287.692 33.1309 287.703 33.2798C287.722 33.5313 286.775 33.9798 285.818 33.9254C284.861 33.8709 284.429 33.328 284.142 33.5543C283.883 33.7514 284.01 34.3194 284.27 35.4555C284.511 36.5202 284.71 36.7403 284.785 36.8179C285.162 37.1662 285.661 37.3522 286.174 37.3356C286.454 37.3356 287.077 37.3356 287.412 36.9164C287.83 36.4091 287.399 35.7699 287.843 35.1767C288.034 34.921 288.339 34.6422 288.511 34.7155C288.683 34.7889 288.721 35.3003 288.601 35.6986C288.392 36.3777 287.841 36.5999 287.929 36.9017C287.996 37.1344 288.383 37.2098 288.53 37.2392C289.598 37.4488 290.939 36.6376 290.928 35.9501C290.928 35.6106 290.595 35.5875 290.488 35.053C290.439 34.8361 290.444 34.6106 290.501 34.3958C290.559 34.1811 290.668 33.9836 290.819 33.8205C290.976 33.6675 291.251 33.4978 291.355 33.5774C291.496 33.6843 291.16 34.1119 291.198 34.7679C291.211 34.965 291.24 35.4827 291.525 35.6546C292.04 35.9669 293.2 35.053 293.881 34.1874C294.317 33.6298 294.853 32.9423 294.673 32.2485C294.491 31.5002 293.67 31.5967 292.802 30.6618Z" fill="#F8BFCD"/>
<path d="M303.815 31.9678C304.248 30.9491 306.51 31.863 307.584 32.7664C308.493 33.5293 308.676 34.963 308.372 35.1496C308.02 35.3592 306.973 33.9276 306.552 34.1917C306.357 34.3132 306.342 34.7723 306.514 35.0867C306.862 35.7029 307.733 35.3571 308.322 35.9796C308.741 36.4282 308.927 37.2771 308.531 37.866C308.213 38.3356 307.522 38.6164 307.128 38.4026C306.734 38.1888 306.918 37.7151 306.393 37.036C306.135 36.7027 305.733 36.3485 305.597 36.4323C305.461 36.5162 305.639 37.0968 305.781 37.4238C306.116 38.1784 306.728 38.279 306.69 38.6206C306.657 38.9182 306.19 39.1803 305.773 39.2033C305.402 39.2243 304.964 39.065 303.957 37.9017C302.822 36.5916 302.091 35.617 302.596 34.8792C303.186 34.0156 303.534 33.6404 303.722 33.3637C303.84 33.1982 303.53 32.6406 303.815 31.9678Z" fill="#F8BFCD"/>
<path d="M298.939 41.0267C298.864 37.9539 297.802 18.6914 306.045 24.8411" stroke="#E4003A" stroke-miterlimit="10"/>
<path d="M298.032 40.7942C298.633 36.7446 296.985 26.6962 290.09 31.7959" stroke="#E4003A" stroke-miterlimit="10"/>
<path d="M299.885 40.9807C299.339 38.0148 300.851 31.5129 305.226 34.2" stroke="#E4003A" stroke-miterlimit="10"/>
<path d="M302.732 47.0172H294.983V48.0001H302.732V47.0172Z" fill="#F8AD07"/>
<path d="M304.253 40.5698H293.462L294.373 47.0172H303.339L304.253 40.5698Z" fill="#E94E0F"/>
<path d="M27.7844 128H23.3218L23.3168 190.131H27.7794L27.7844 128Z" fill="#AAAEB8"/>
<path d="M83.4675 127.783H79.0049L78.9999 189.914H83.4625L83.4675 127.783Z" fill="#AAAEB8"/>
<path d="M98.7695 122.544H9L8.99931 131.107H98.7688L98.7695 122.544Z" fill="#AAAEB8"/>
<path d="M77.2596 114.086H76.6597C76.6597 113.552 76.8797 113.267 77.0397 113.038C77.1997 112.829 77.3196 112.676 77.3196 112.314C77.3196 111.971 77.1997 111.8 77.0397 111.59C76.8597 111.362 76.6597 111.076 76.6597 110.543C76.6597 110.01 76.8797 109.724 77.0397 109.495C77.1997 109.286 77.3196 109.133 77.3196 108.771C77.3196 108.429 77.1997 108.257 77.0397 108.048C76.8597 107.819 76.6597 107.533 76.6597 107H77.2596C77.2596 107.343 77.3796 107.514 77.5396 107.724C77.7196 107.952 77.9196 108.238 77.9196 108.771C77.9196 109.305 77.6996 109.59 77.5396 109.819C77.3796 110.029 77.2596 110.181 77.2596 110.543C77.2596 110.886 77.3796 111.057 77.5396 111.267C77.7196 111.495 77.9196 111.781 77.9196 112.314C77.9196 112.848 77.6996 113.133 77.5396 113.362C77.3796 113.571 77.2596 113.743 77.2596 114.086Z" fill="#C8CDD9"/>
<path d="M74.8002 114.086H74.2002C74.2002 113.552 74.4202 113.267 74.5802 113.038C74.7402 112.829 74.8602 112.676 74.8602 112.314C74.8602 111.971 74.7402 111.8 74.5802 111.59C74.4202 111.381 74.2002 111.095 74.2002 110.562C74.2002 110.029 74.4202 109.743 74.5802 109.514C74.7402 109.305 74.8602 109.152 74.8602 108.79H75.4602C75.4602 109.324 75.2402 109.61 75.0802 109.838C74.9202 110.048 74.8002 110.219 74.8002 110.562C74.8002 110.905 74.9202 111.076 75.0802 111.286C75.2602 111.514 75.4602 111.8 75.4602 112.333C75.4602 112.867 75.2402 113.152 75.0802 113.381C74.9202 113.571 74.8002 113.743 74.8002 114.086Z" fill="#C8CDD9"/>
<path d="M76.0799 123H76.0199C74.34 123 73 121.724 73 120.124V115.171H79.0798V120.143C79.0798 121.724 77.7399 123 76.0799 123Z" fill="#E4003A"/>
<path d="M78.28 120.981C76.78 120.981 75.5601 119.819 75.5601 118.39C75.5601 116.962 76.78 115.8 78.28 115.8C79.7799 115.8 80.9999 116.962 80.9999 118.39C81.0199 119.819 79.7999 120.981 78.28 120.981ZM78.28 116.733C77.32 116.733 76.56 117.476 76.56 118.371C76.56 119.286 77.34 120.01 78.28 120.01C79.2399 120.01 79.9999 119.267 79.9999 118.371C80.0199 117.476 79.2399 116.733 78.28 116.733Z" fill="#E4003A"/>
<path d="M61.4258 123.025H84.2258C84.9258 123.025 85.4258 122.525 85.4258 121.825V121.525C85.4258 120.825 84.9258 120.325 84.2258 120.325H61.4258C60.7258 120.325 60.2258 120.825 60.2258 121.525V121.825C60.2258 122.525 60.8258 123.025 61.4258 123.025Z" fill="#F8AD07"/>
<path d="M62.7255 122.026L55.4255 98.5256C55.3255 98.1256 54.9255 97.9256 54.5255 98.0256C54.1255 98.1256 53.9255 98.5256 54.0255 98.9256L61.3255 122.426C61.4255 122.826 61.8255 123.026 62.2255 122.926C62.6255 122.826 62.8255 122.426 62.7255 122.026Z" fill="#F8AD07"/>
<path d="M130.971 39.358V25.0001H116.694V39.358H130.971Z" fill="#E3E6EF"/>
<path d="M130.971 56.5711V42.2133H116.694V56.5711H130.971Z" fill="#E3E6EF"/>
<path d="M130.971 73.7871V59.4292H116.694V73.7871H130.971Z" fill="#E3E6EF"/>
<path d="M130.971 91.0002V76.6423H116.694V91.0002H130.971Z" fill="#E3E6EF"/>
<path d="M114.125 39.358V25.0001H99.8482V39.358H114.125Z" fill="#E3E6EF"/>
<path d="M114.123 56.571V42.2131H99.8458V56.571H114.123Z" fill="#E3E6EF"/>
<path d="M114.125 73.7841V59.4263H99.8483V73.7841H114.125Z" fill="#E3E6EF"/>
<path d="M114.123 91.0001V76.6422H99.8458V91.0001H114.123Z" fill="#E3E6EF"/>
<path d="M97.2798 39.358V25.0001H83.003V39.358H97.2798Z" fill="#E3E6EF"/>
<path d="M97.2769 56.571V42.2131H83.0001V56.571H97.2769Z" fill="#E3E6EF"/>
<path d="M97.2769 73.7871V59.4292H83.0001V73.7871H97.2769Z" fill="#E3E6EF"/>
<path d="M97.2769 91.0002V76.6423H83.0001V91.0002H97.2769Z" fill="#E3E6EF"/>
<path d="M239.584 76.2332L246.294 83.6964L247.205 82.732L240.523 75.2356L239.584 76.2332Z" fill="#F8AD07"/>
<path d="M241.003 84.5528L240.595 85.725L247.783 87.7028L248.202 86.5098L241.003 84.5528Z" fill="#F8AD07"/>
<path d="M250.525 82.947L249.898 77.1396L248.682 77.6395L249.226 83.493L250.525 82.947Z" fill="#F8AD07"/>
<path d="M29.5 70.0001C35.8513 70.0001 41 64.8514 41 58.5001C41 52.1488 35.8513 47.0001 29.5 47.0001C23.1487 47.0001 18 52.1488 18 58.5001C18 64.8514 23.1487 70.0001 29.5 70.0001Z" fill="#F8AD07"/>
<path d="M36.395 65.3903C40.2022 61.583 40.2022 55.4102 36.395 51.6029C32.5877 47.7956 26.4148 47.7956 22.6076 51.6029C18.8003 55.4102 18.8003 61.583 22.6076 65.3903C26.4148 69.1976 32.5877 69.1976 36.395 65.3903Z" fill="white"/>
<path d="M34.3058 59.0151H29.0879V52.4927H29.9461V58.1569H34.3058V59.0151Z" fill="#303642"/>
</svg>
