<svg width="340" height="216" viewBox="0 0 340 216" fill="none" xmlns="http://www.w3.org/2000/svg">
<rect width="340" height="204" transform="translate(0 12)" fill="#F8F9FB"/>
<rect y="199.598" width="339.793" height="16.402" fill="#F9D2C3"/>
<path d="M231 9.5L219 201H98L198.411 9.5H231Z" fill="#FDEAC1"/>
<path d="M266.555 200.44H259.478V33.5381C259.478 20.0963 248.584 9.17484 235.176 9.17484H210.78V2.08057H235.176C252.495 2.08057 266.555 16.1758 266.555 33.5381V200.44Z" fill="#870B58"/>
<path d="M203.518 13.0684H225.679C229.217 13.0684 232.196 10.1747 232.196 6.5342C232.196 2.98706 229.31 0 225.679 0H203.518C199.886 0.0933457 197 2.98706 197 6.62754C197 10.1747 199.886 13.0684 203.518 13.0684Z" fill="#870B58"/>
<path d="M232.103 6.62744C232.103 10.1746 229.5 13.0683 225.585 13.0683H203.518C199.886 13.0683 197 10.1746 197 6.62744H232.103Z" fill="#FDEAC1"/>
<path d="M258.98 156H267.173C268.011 156 268.663 156.747 268.663 157.774L270.06 200.526H256L257.397 157.774C257.49 156.84 258.142 156 258.98 156Z" fill="#870B58"/>
<path d="M167.63 95.2708L161.737 102.27L162.735 102.943L168.662 95.9641L167.63 95.2708Z" fill="#F8AD07"/>
<path d="M160.256 97.6964L159.137 97.4987L158.293 104.152L159.433 104.357L160.256 97.6964Z" fill="#F8AD07"/>
<path d="M162.98 105.918L168.175 104.548L167.56 103.539L162.311 104.842L162.98 105.918Z" fill="#F8AD07"/>
<path d="M127.033 96.9937H131.033V200.994H127.033V96.9937Z" fill="#7F8594"/>
<path d="M127.074 140.042L143.033 124.056L144.628 125.802L128.669 141.787L127.074 140.042Z" fill="#7F8594"/>
<path d="M129.152 127.787H152.759V106.609H134.859C131.616 106.609 129.022 109.207 129.022 112.456V127.787H129.152Z" fill="#E4003A"/>
<path d="M146.274 127.787H159.375V113.105C159.375 109.467 156.392 106.479 152.76 106.479C149.128 106.479 146.144 109.467 146.144 113.105V127.787H146.274Z" fill="#BF0031"/>
<path d="M146.325 127.523H159.426C159.426 127.523 163.354 130.067 167.569 132.974C171.783 135.882 170.639 138.062 167.007 138.062C163.375 138.062 158.699 135.882 154.338 132.974C149.977 130.067 146.196 127.523 146.196 127.523H146.325Z" fill="#EA3F6B"/>
<path d="M197.497 85.3462L194.182 86.1304L194.683 88.5417C194.764 88.8795 194.912 89.1976 195.117 89.4772C195.322 89.7569 195.58 89.9925 195.877 90.1702C196.174 90.3479 196.503 90.4642 196.845 90.5122C197.188 90.5601 197.536 90.5389 197.87 90.4496L198.591 90.3091L197.497 85.3462Z" fill="#303642"/>
<path d="M206.244 90.6957C205.32 89.2801 204.702 87.685 204.43 86.0137L201.371 86.7394L202.453 91.6906L206.291 90.7893L206.244 90.6957Z" fill="#303642"/>
<path d="M231.556 132.336C232.339 133.287 232.914 134.393 233.244 135.583C233.574 136.772 233.653 138.018 233.474 139.239C233.295 140.461 232.863 141.631 232.206 142.674C231.549 143.717 230.682 144.609 229.66 145.293L216.459 165.309L208.491 197.088L205.827 197.463L208.084 163.366C208.223 161.669 208.351 158.426 209.247 156.554L215.877 139.886L228.823 129L231.556 132.336Z" fill="#303642"/>
<path d="M230.622 129.662C231.592 130.416 232.394 131.366 232.977 132.451C233.56 133.536 233.911 134.732 234.006 135.962C234.101 137.192 233.94 138.428 233.531 139.591C233.122 140.754 232.476 141.817 231.634 142.714L223.096 165.14L222.166 197.914L219.641 198.863L214.454 165.105C214.221 163.42 213.64 160.236 214.151 158.199L217.001 140.454L227.272 126.994L230.622 129.662Z" fill="#303642"/>
<path d="M201 199.991L203.501 199.02L205.897 197.404L206.188 199.64L203.756 200.81L201.198 201.22L201 199.991Z" fill="#303642"/>
<path d="M215.053 199.896L217.554 198.925L219.95 197.31L220.241 199.545L217.81 200.716L215.251 201.125L215.053 199.896Z" fill="#303642"/>
<path d="M206.118 199.687L205.827 197.451L208.491 197.088L208.979 200.108L207.06 200.413L206.118 199.687Z" fill="#303642"/>
<path d="M220.171 199.592L219.881 197.357L222.544 196.994L223.033 200.014L221.113 200.318L220.171 199.592Z" fill="#303642"/>
<path d="M166.009 115.298L165.052 114.802C164.752 114.648 164.494 114.421 164.302 114.142C164.109 113.862 163.989 113.54 163.95 113.202C163.954 113.05 163.908 112.901 163.82 112.778C163.731 112.655 163.605 112.564 163.461 112.519L160.749 111.503C160.64 111.462 160.614 111.265 160.839 111.262L163.171 110.773C163.541 110.681 163.927 110.671 164.301 110.744C164.674 110.817 165.028 110.971 165.335 111.196L167.672 112.884L166.009 115.298Z" fill="#F8BFCD"/>
<path d="M227.565 118.179L224.402 102.33C224.126 100.956 223.541 99.6633 222.693 98.5514C221.844 97.4395 220.754 96.5378 219.505 95.9153C218.257 95.2928 216.883 94.966 215.49 94.96C214.097 94.9541 212.721 95.269 211.467 95.8808L200.685 101.078C199.512 101.634 198.471 102.437 197.632 103.432C196.792 104.426 196.174 105.59 195.818 106.845C195.462 108.1 195.377 109.417 195.569 110.707C195.76 111.998 196.223 113.232 196.928 114.328L214.247 140.688L234.021 131.125L227.565 118.179Z" fill="#F8AD07"/>
<path d="M190.179 124.653C191.312 125.058 192.533 125.147 193.714 124.912C194.895 124.677 195.993 124.126 196.89 123.317L204.09 116.865L198.065 107.583L190.024 117.608L167.57 112.858L165.935 115.433L190.179 124.653Z" fill="#F8AD07"/>
<path d="M201.184 142.372L200.921 143.413C200.852 143.735 200.697 144.033 200.474 144.274C200.251 144.515 199.966 144.691 199.651 144.784C199.522 144.855 199.41 144.952 199.321 145.07C199.233 145.188 199.17 145.323 199.136 145.467L198.718 148.392C198.659 148.577 198.485 148.648 198.414 148.473L197.436 146.312C197.275 145.962 197.188 145.583 197.183 145.198C197.177 144.813 197.252 144.432 197.403 144.079L198.492 141.362L201.184 142.372Z" fill="#F8BFCD"/>
<path d="M196.846 93.622L195.381 87.0906L203.057 85.2646L204.779 92.8495C204.852 93.2122 204.783 93.5894 204.586 93.9016C204.388 94.2138 204.078 94.4368 203.72 94.5233L199.766 95.4129C199.457 95.5016 199.133 95.525 198.815 95.4816C198.496 95.4382 198.191 95.329 197.916 95.1608C197.642 94.9925 197.405 94.7689 197.221 94.5041C197.037 94.2393 196.909 93.939 196.846 93.622Z" fill="#F8BFCD"/>
<path d="M205.151 98.7604L208.396 97.2153L206.152 108.71L202.569 100.06L205.151 98.7604Z" fill="white"/>
<path d="M208.42 97.4026L204.93 100.914L202.604 100.177L199.894 92.6152L203.593 91.7959L208.42 97.4026Z" fill="#F8BFCD"/>
<path d="M204.209 85.3464C204.119 84.9554 203.953 84.5864 203.72 84.2607C203.487 83.935 203.192 83.659 202.852 83.4489C202.512 83.2387 202.134 83.0985 201.74 83.0365C201.346 82.9744 200.944 82.9917 200.557 83.0873L193.182 84.843C193.288 85.3191 193.486 85.7691 193.767 86.1669C194.047 86.5646 194.404 86.902 194.815 87.1593C195.227 87.4166 195.686 87.5886 196.164 87.6652C196.643 87.7418 197.132 87.7215 197.602 87.6054L204.43 86.0135L204.209 85.3464Z" fill="#303642"/>
<path d="M203.407 88.5768C203.253 88.6164 203.115 88.7008 203.009 88.8196C202.903 88.9383 202.834 89.086 202.811 89.244C202.789 89.402 202.813 89.5631 202.881 89.7072C202.95 89.8512 203.059 89.9717 203.195 90.0533C203.331 90.135 203.489 90.1741 203.647 90.1659C203.805 90.1577 203.958 90.1024 204.085 90.007C204.212 89.9116 204.309 89.7805 204.362 89.6301C204.415 89.4797 204.423 89.3169 204.384 89.1621C204.312 88.9671 204.175 88.8028 203.998 88.6963C203.82 88.5899 203.612 88.5477 203.407 88.5768Z" fill="#F8BFCD"/>
<path d="M219.448 98.8528L218.949 121.881L201.193 142.406L198.506 141.37L212.159 121.487L211.241 100.136L219.448 98.8528Z" fill="#F8AD07"/>
<path d="M151.206 119.089C153.885 119.297 160.207 120.609 164.059 124.192C168.874 128.672 172.862 132.589 175.905 133.448C178.949 134.306 180.783 130.716 178.153 130.139C175.064 129.461 174.602 139.815 179.729 140.276" stroke="#F8AD07" stroke-width="0.5" stroke-linecap="round" stroke-dasharray="2 2"/>
<path d="M98.6198 19.7638C96.1162 19.7638 93.6126 20.0714 91.2092 20.7889C90.7085 14.2281 85.4009 9 78.7914 9C74.1848 9 70.179 11.5628 67.9759 15.3558C65.4723 14.5357 62.8686 14.0231 60.1647 14.0231C55.5581 14.0231 51.2519 15.3558 47.6468 17.6111C45.5438 17.0985 43.2405 16.791 41.0373 16.791C29.8212 16.791 20.1073 23.1467 15 32.4754H36.7311H67.0746H72.1819H75.2864H83.7986H85.7013H122.254C117.046 24.8894 108.434 19.7638 98.6198 19.7638Z" fill="#F8BFCD"/>
</svg>
