<svg width="40" height="40" viewBox="0 0 40 40" fill="none" xmlns="http://www.w3.org/2000/svg">
<g clip-path="url(#clip0_769_20702)">
<path d="M0 20C0 8.95431 8.95431 0 20 0C31.0457 0 40 8.95431 40 20C40 31.0457 31.0457 40 20 40C8.95431 40 0 31.0457 0 20Z" fill="#E94E0F"/>
<g clip-path="url(#clip1_769_20702)">
<path fill-rule="evenodd" clip-rule="evenodd" d="M9.2334 -0.000610352H30.1001V39.9994H9.2334V-0.000610352Z" fill="white"/>
<path fill-rule="evenodd" clip-rule="evenodd" d="M-7 -0.000610352H9.23333V39.9994H-7V-0.000610352ZM30.1 -0.000610352H46.3333V39.9994H30.1V-0.000610352Z" fill="#198200"/>
<path fill-rule="evenodd" clip-rule="evenodd" d="M19.1251 29.2744V33.6577L20.9001 33.6744C20.9001 33.6744 20.3334 29.8577 20.6418 29.3411C20.9501 28.8411 21.2418 28.9077 21.2418 28.9077C21.2418 28.9077 22.4001 29.2577 22.5251 29.1994C22.6501 29.1494 22.5084 28.7661 23.1251 28.8161C23.3251 28.7411 23.2168 28.3994 23.4001 28.3827C23.5834 28.3577 27.1084 29.3661 27.8751 28.4161C27.6751 27.8827 26.9834 28.3744 26.8001 28.3994C26.6334 28.3994 25.9418 28.0661 25.5418 28.3994C25.1751 28.1244 23.5084 27.9411 23.5084 27.9411C23.2918 27.7244 27.4751 28.0494 27.7168 27.8827C28.2084 27.3911 26.8001 27.4494 26.5834 27.6077C26.4062 27.5008 26.205 27.4401 25.9982 27.4314C25.7914 27.4227 25.5857 27.4661 25.4001 27.5577C25.2584 27.2161 23.9001 27.3577 23.1501 27.2661C22.9001 27.1244 22.9418 27.0411 23.1084 26.9494C24.6918 27.0161 26.2584 27.2244 27.8418 27.1577C28.2668 26.5994 27.3001 26.3827 26.7084 26.8661C26.3584 26.2827 25.6501 26.8411 25.1751 26.7827C24.7001 26.7327 24.9251 26.1494 25.5251 26.2411C26.1251 26.3244 27.2001 26.2077 27.4001 25.9327C27.6001 25.6577 27.2834 25.3744 26.2918 25.6411C25.9584 25.3077 25.2084 25.6411 24.8668 25.7494C24.4001 25.4911 23.3251 25.7077 22.9668 25.7994C22.6084 25.5827 24.8418 25.2161 24.8418 25.2161C25.7084 25.1994 26.2001 25.0494 26.4668 24.9827C27.7751 24.2827 26.4501 24.2077 25.7668 24.7161C25.3418 24.3827 24.9334 24.7411 24.5501 24.8661C24.1908 24.9877 23.8126 25.0442 23.4334 25.0327C23.4334 24.9827 24.4834 24.3411 24.4834 24.3411C24.4834 24.3411 25.7584 24.2494 26.0168 24.2161C26.2668 24.1744 27.5834 23.5077 25.7918 23.9577C25.1751 24.0077 24.8084 23.9744 24.5668 23.9911C23.1918 23.8494 24.7001 23.7161 24.7001 23.7161C24.7001 23.7161 26.6501 23.5411 26.6751 23.4411C26.7084 22.6911 25.0834 23.0411 25.0668 23.0411C25.0668 22.4994 23.5501 23.0577 23.5501 23.0411C23.2584 22.8744 23.7168 22.6994 23.7168 22.6994C24.1168 22.5994 24.7168 22.5661 24.8751 22.4411C24.8751 22.4411 26.0084 22.4327 26.1418 22.1327C25.8668 21.3577 23.7418 22.2661 23.4584 22.3994C23.0751 22.3994 23.7084 21.7827 23.7334 21.7661C23.7501 21.7411 25.4834 21.6744 26.3084 20.5577C26.3668 19.8827 25.3418 20.9411 25.3418 20.9411C25.2584 20.0577 24.2251 20.9994 23.6251 21.0661C23.0168 21.1494 23.0001 20.7911 23.4168 20.7327C23.8334 20.6827 24.3168 20.7244 24.5501 20.0827C24.7918 19.4411 25.5001 20.1161 25.6334 19.8827C25.7584 19.6411 25.3751 19.4411 25.3751 19.4411C25.3751 19.4411 25.9084 18.8911 25.0418 18.9161C24.1918 18.9327 23.0751 18.7994 23.0751 18.7994C23.0751 18.7994 23.9668 18.4577 24.8084 18.4661C25.6418 18.4911 25.1918 17.8744 24.3918 17.8744C23.5834 17.8744 23.1668 17.5994 23.1668 17.5994L24.5334 17.0827L24.4501 16.6994C24.4501 16.6994 25.2501 16.0577 24.1168 16.2077L22.8501 16.3744L20.5668 16.7161C20.5501 16.7161 19.9501 16.5327 20.5334 16.3827C21.1168 16.2327 23.1834 15.8244 23.4918 15.9327C23.8001 16.0411 23.4584 15.1661 22.3584 15.0577C21.2668 14.9494 20.5834 15.3327 20.5834 15.3327C20.5834 15.3327 19.8751 15.0744 20.5334 14.8577C21.1918 14.6327 22.2334 14.9327 22.2334 14.9327C22.2334 14.9327 23.4001 14.5827 22.4334 14.4327C21.4668 14.2911 21.1584 14.5661 20.7168 14.5827C20.5418 14.3577 22.2334 14.3077 22.3418 14.1244C22.1584 13.7911 21.1084 14.1244 20.4918 14.1244C20.2418 14.0161 20.2168 13.8327 20.5168 13.7244C21.1418 13.6994 21.7334 13.7327 22.3584 13.7077C22.3418 13.3744 22.3584 12.9827 22.3418 12.6411C21.5418 12.4994 20.6084 12.7494 20.1668 12.7244C20.2834 12.3661 22.0001 12.2661 22.1918 12.1661C22.5918 11.6661 20.5168 12.1661 20.4918 12.1661C20.1334 12.1161 20.1584 11.8827 20.3834 11.7494C20.9168 11.6911 22.1001 11.8327 22.0168 11.4661C21.9501 11.1327 21.1834 11.3077 20.8834 11.3827C20.5668 11.4577 20.1084 11.3994 20.1084 11.3994C19.9168 11.1327 21.9001 11.2411 21.8834 11.0327C21.8584 10.7994 20.6251 10.9661 20.2001 10.9827C19.8751 10.7577 21.7834 10.6077 21.8084 10.5827C21.8834 9.9744 20.5334 10.5827 20.2751 10.5827C20.0251 10.5827 20.1501 10.1994 20.1501 10.1994C20.1501 10.1994 20.6751 9.95773 20.6584 9.9244C20.5216 9.85071 20.376 9.7947 20.2251 9.75773C20.1834 9.75773 20.2251 9.34107 20.2251 9.34107C20.2251 9.34107 20.6584 9.00774 20.6251 8.91607C20.5834 8.8244 20.1084 8.99107 20.1084 8.99107V8.6244C20.1084 8.6244 20.4584 8.59107 20.4918 8.4244C20.5334 8.25773 20.0751 8.24107 20.0751 8.24107L19.8918 6.3244L19.7251 8.11607L19.1251 8.1994C19.1251 8.1994 19.5418 8.44107 19.6251 8.68273C19.6918 8.91607 19.1084 8.8494 19.1084 8.8494C19.1084 8.8494 19.5834 9.2494 19.6168 9.39107C19.6584 9.54107 18.9584 9.5744 18.9584 9.5744C18.9584 9.5744 19.5418 9.99107 19.5834 10.2327C19.6168 10.4661 19.5834 10.5994 19.5834 10.5994C19.5834 10.5994 18.6168 9.75774 18.0001 9.99107C17.6668 10.1577 18.7334 10.2411 19.4334 10.8494C19.4334 10.9911 17.7251 10.4327 17.6668 10.7827C17.7001 10.8744 19.4918 11.1327 19.6168 11.3661C18.9668 11.3911 17.6168 11.2244 17.6668 11.4411C17.5251 11.6911 18.9334 11.5494 19.5251 11.7494C19.7001 11.9494 19.6834 12.1161 19.3834 12.1327C18.8084 11.8577 17.5418 11.6577 17.5334 12.0077C17.5418 12.0911 18.8501 12.0411 19.3251 12.3494C18.6918 12.4994 16.5418 12.0577 16.5334 12.2661C16.5918 12.3744 16.9334 12.8077 17.5168 12.7911C18.1001 12.7744 19.4584 13.0244 19.5501 13.2077C19.6334 13.3911 17.7918 12.8244 17.1001 13.1577C16.4001 13.4911 19.0918 13.2827 19.5251 13.6827C19.9668 14.0911 18.6501 13.6494 18.6501 13.6494C18.6501 13.6494 16.8168 13.3994 16.5501 13.5244C16.2751 13.6494 15.9668 13.9411 15.9668 13.9411C15.9668 13.9411 16.1501 14.3077 16.3334 14.2327C16.5168 14.1577 16.2751 14.4577 16.2751 14.4577C16.2751 14.4577 18.8334 15.0744 19.4001 15.6244C19.9668 16.1744 16.1501 14.7661 16.1501 14.7661C16.1501 14.7661 14.6084 15.3327 16.2334 15.3661C16.0501 15.6411 16.3334 15.8077 16.3334 15.8077C16.3334 15.8077 19.0334 16.3744 19.3084 16.8077C19.5834 17.2494 17.4668 16.3911 16.9834 16.1494C16.5084 15.9161 15.1584 16.2994 15.1751 16.3911C15.2001 16.4744 15.8418 16.6077 15.8501 16.7744C15.8751 16.9411 15.0668 16.9911 15.0668 17.1411C15.0668 17.2827 18.4834 17.9994 19.4001 18.7661C20.3168 19.5327 16.7168 17.8494 16.7168 17.8494C16.7168 17.8494 16.9168 18.1244 16.7168 18.1994C16.5084 18.2744 15.8001 17.1744 14.6334 17.8494C14.4168 18.1327 15.6501 18.3494 15.9668 18.3827C15.8584 18.6577 15.7668 18.7494 16.2001 19.0244C16.6334 19.2994 15.3418 18.6244 15.3418 18.6577L15.4334 19.1327C15.0334 18.7994 14.5418 18.7077 14.0834 19.0411C14.0834 19.0411 14.0668 19.3744 14.5418 19.5744C14.2834 20.0994 14.8334 19.9327 15.7084 20.4327C14.4084 20.0911 14.3001 20.7244 15.2334 20.8661C16.1668 21.0077 18.7251 21.1077 19.3251 21.8911C19.9334 22.6744 18.4668 21.5911 18.3001 21.5577C18.2668 21.5827 18.2334 21.9661 18.2334 21.9661C17.8418 21.7411 17.4834 21.5327 17.0168 21.4411C16.9751 21.5161 16.9918 21.6161 16.9501 21.6911C16.5334 21.3827 16.1584 21.1744 15.5418 21.1411L15.4668 21.4327C15.4668 21.4327 14.9584 20.7911 13.9501 21.4327C13.3918 21.8411 16.0751 21.5827 16.5084 22.0577C16.9501 22.5327 16.6001 22.6077 16.6001 22.6077L15.5084 22.1994C15.5084 22.1994 14.2084 21.9661 13.8418 22.2577C13.4751 22.5494 19.1751 23.2577 19.3418 24.0494C19.4584 24.4661 18.0084 23.5994 16.7501 23.2244L16.6001 23.6411C16.6001 23.6411 16.1001 23.1411 15.5418 23.0577C15.5251 23.0577 15.6501 23.5577 15.6501 23.5577C15.6501 23.5577 14.2501 22.8911 13.5334 23.2411C12.8251 23.5911 16.0168 23.7744 16.3084 24.0994C16.6001 24.4327 15.3418 23.8827 15.2251 24.0994C15.1251 24.3244 13.5668 23.6994 13.5918 23.9911C13.6084 24.2827 13.8084 24.4494 13.8084 24.4494C13.8084 24.4494 17.0418 24.7577 17.1501 25.1411C17.2584 25.5244 15.3584 24.9244 15.3584 24.9244C15.3584 24.9244 15.1751 25.1994 15.3251 25.3244C15.4668 25.4577 14.2251 24.5994 14.3418 25.1577C13.9334 24.9994 12.8918 24.5077 13.0418 24.8911C13.1834 25.2744 15.9834 25.8244 15.9834 25.8244C15.9834 25.8244 14.7584 25.9077 14.8168 26.2244C13.2334 25.2661 13.2751 25.8744 13.3168 25.8911C13.3501 25.9077 11.2834 25.3827 12.8418 26.2244C14.4001 27.0661 13.6751 26.9161 13.7001 26.9327C13.7168 26.9494 13.8668 27.3494 13.8251 27.3494C13.7918 27.3494 12.7668 26.8077 12.4168 26.7661C12.0751 26.7327 10.4251 27.2244 12.1834 27.9994C13.9418 28.7744 15.0168 27.8161 15.9834 27.9161C16.9501 28.0327 17.4001 28.1994 17.3168 28.4994C17.2251 28.8161 16.3251 27.4911 15.3834 28.6411C14.3001 28.4244 13.5751 28.3077 14.1334 29.0911C12.3834 28.4327 11.3001 29.2911 13.5168 29.6411C15.6834 29.7077 17.0168 29.1077 17.0168 29.1077C17.0168 29.1077 17.3918 29.7827 17.9168 29.3077C18.4501 28.8327 18.4668 29.4911 18.4834 29.4911L19.0001 29.2744H19.1251Z" fill="#198200" stroke="black" stroke-width="0.0583333" stroke-linecap="round" stroke-linejoin="round"/>
<path fill-rule="evenodd" clip-rule="evenodd" d="M19.3333 26.6827V26.3744C19.3333 26.3744 18.65 26.2494 18.3083 26.3161C18.1167 26.2077 17.925 26.0577 17.6833 26.1827C17.6417 26.2827 18.125 26.5411 18.2833 26.5411C18.6265 26.6433 18.9837 26.6911 19.3417 26.6827H19.3333ZM19.3333 27.1827C19.3333 27.1827 18.6417 26.9244 18.3667 27.2161C18.4083 27.5244 19.175 27.6744 19.3417 27.5911C19.5 27.5077 19.3417 27.1911 19.3333 27.1744V27.1827ZM20.5 27.2994V27.5161C20.5 27.5161 21.3167 27.6744 21.4667 27.4994C21.6083 27.3244 20.8 27.2077 20.4917 27.2994H20.5ZM20.4583 26.4494L20.4833 26.6911C20.4833 26.6911 21.2 26.8494 21.475 26.4577C21.75 26.0661 20.85 26.4577 20.4583 26.4494ZM20.4917 25.6161V25.7827C20.4917 25.7827 21.0333 25.8661 21.1583 25.6327C21.275 25.3994 20.5083 25.6327 20.4917 25.6161ZM19.375 25.1161C19.2917 25.0077 19 24.7161 18.225 24.6327C17.6833 24.6327 19.2 25.4244 19.375 25.1244V25.1161ZM20.475 24.3077L20.4583 24.5327C20.4583 24.5327 22.2917 23.9827 22.7167 24.0244C23.1 23.9161 23.1833 23.6494 23.1667 23.6494C22.8333 23.4077 21.2583 23.8411 20.475 24.3077ZM20.5167 23.6577L20.4917 23.8744C20.4917 23.8744 21.7833 23.6244 22.1333 23.3744C22.475 23.1244 20.5333 23.6661 20.5167 23.6577ZM20.4667 23.0244V23.2411C20.4667 23.2411 21.325 23.2077 21.5083 23.0411C21.6167 22.8661 20.7417 23.0161 20.4667 23.0244ZM22.2667 24.8327C22.2667 24.8327 22.7167 24.8994 22.8 24.7661C22.7833 24.5327 22.2667 24.8494 22.2667 24.8327ZM20.5 22.2161L20.5083 22.6911C20.5083 22.6911 22.5833 22.0327 22.7167 21.9161C22.8417 21.7911 23.1333 21.4161 20.5 22.2161ZM20.4417 21.5577V21.9077C20.4417 21.9077 21.275 21.8411 21.6583 21.5327C22.0417 21.2161 20.4417 21.5661 20.4417 21.5577ZM19.4417 20.7827L19.4917 21.0911L16.75 20.2077C16.7583 20.2077 16.6167 19.7577 19.4417 20.7827ZM19.4833 19.6744C19.4833 19.7077 19.4833 19.9744 19.4667 19.9661C19.4667 19.9661 17.5667 19.1744 17.4917 19.2411C17.2417 18.6577 19.4917 19.6911 19.4917 19.6744H19.4833ZM20.4083 20.1744L20.4417 20.4327C20.4417 20.4327 21.6083 20.1911 21.675 20.0744C21.7417 19.9577 20.4083 20.1744 20.4083 20.1661V20.1744ZM20.4333 20.7911C20.45 20.8494 20.4667 21.0661 20.4667 21.0661C20.4667 21.0661 20.9333 21.0244 21.0083 20.9161C21.075 20.8077 20.4333 20.7911 20.4333 20.7911ZM20.3667 19.3744V19.6244C20.3667 19.6244 21.65 19.3744 21.7833 19.2577C21.925 19.1327 20.3417 19.3744 20.3667 19.3744ZM20.3667 18.6661C20.3667 18.6827 20.325 18.9244 20.3583 18.9244C20.3917 18.9244 21.9083 18.6744 22.15 18.4494C22.3833 18.2411 20.4 18.6911 20.375 18.6661H20.3667ZM20.35 17.4244V17.6994C20.35 17.6994 21.3333 17.4911 21.5167 17.2827C21.7 17.0744 20.35 17.4494 20.35 17.4244ZM20.1833 15.6244L20.2 16.0244C20.2 16.0244 21.5333 15.8411 21.7167 15.6244C21.9083 15.3994 20.175 15.6244 20.1833 15.6244ZM19.5667 12.5827V12.8327C19.5667 12.8327 18.9417 12.8077 19.0917 12.6994C19.2417 12.5911 19.5667 12.6077 19.5667 12.5827ZM20.15 12.9161L20.1667 13.2661C20.1667 13.2661 20.975 13.1827 21.0333 13.0577C21.1 12.9327 20.1667 12.9244 20.15 12.9244V12.9161ZM20.1 13.4161C20.1 13.4161 20.1167 13.6327 20.1333 13.6327C20.15 13.6327 20.4583 13.6077 20.525 13.5244C20.5917 13.4411 20.1333 13.4411 20.1083 13.4161H20.1ZM19.4167 14.3994C19.4167 14.4244 19.4417 14.7327 19.4167 14.7161C19.3917 14.6994 17.65 14.2077 17.4833 14.2161C17.325 14.2161 17.2833 13.8077 19.4167 14.3994ZM19.5583 14.9744C19.5583 15.0327 19.6 15.3577 19.5333 15.3411C19.475 15.3244 18.3417 14.9661 18.4583 14.8577C18.575 14.7494 19.5583 14.9994 19.5583 14.9744ZM19.4583 17.3911L19.4667 17.6827C19.4667 17.6827 17.4917 17.0827 17.425 16.9827C17.3583 16.8827 17.1667 16.4161 19.4583 17.3911ZM19.5417 18.0994V18.3744L16.8583 17.4327C16.8583 17.4327 16.6417 16.7327 19.5333 18.0994H19.5417Z" fill="white" stroke="black" stroke-width="0.0666667" stroke-linecap="round" stroke-linejoin="round"/>
<path fill-rule="evenodd" clip-rule="evenodd" d="M16.3582 27.3911L16.3415 27.6827C16.3415 27.6827 15.8249 27.5327 15.6582 27.241C15.9582 27.1577 16.3665 27.3994 16.3582 27.3911Z" fill="white" stroke="black" stroke-width="0.0666667" stroke-linejoin="round"/>
</g>
</g>
<defs>
<clipPath id="clip0_769_20702">
<path d="M0 20C0 8.95431 8.95431 0 20 0C31.0457 0 40 8.95431 40 20C40 31.0457 31.0457 40 20 40C8.95431 40 0 31.0457 0 20Z" fill="white"/>
</clipPath>
<clipPath id="clip1_769_20702">
<rect width="53.3333" height="40" fill="white" transform="translate(-7 -0.000610352)"/>
</clipPath>
</defs>
</svg>
