<svg width="40" height="40" viewBox="0 0 40 40" fill="none" xmlns="http://www.w3.org/2000/svg">
<g clip-path="url(#clip0_769_19999)">
<path d="M0 20C0 8.95431 8.95431 0 20 0C31.0457 0 40 8.95431 40 20C40 31.0457 31.0457 40 20 40C8.95431 40 0 31.0457 0 20Z" fill="#E94E0F"/>
<g clip-path="url(#clip1_769_19999)">
<path fill-rule="evenodd" clip-rule="evenodd" d="M-19.6731 -0.000610352H60.3269V39.9994H-19.6731V-0.000610352Z" fill="#0071BC"/>
<path fill-rule="evenodd" clip-rule="evenodd" d="M24.4937 30.4744C24.4937 30.4744 25.7603 29.1327 26.977 29.3911C27.3437 27.9744 28.727 27.8577 28.727 27.8577C28.727 27.8577 28.5853 26.2994 30.352 25.9577C30.402 24.8994 31.477 24.0161 31.477 24.0161C31.477 24.0161 31.2603 22.3744 32.377 21.9911C31.6937 20.6911 32.6103 19.7411 32.602 19.7161C32.5853 19.6911 31.4353 17.6494 32.4687 17.0661C31.3853 16.1494 31.7353 15.1161 31.7353 15.1161C31.7353 15.1161 30.552 14.8077 30.977 13.3911C30.002 13.2244 29.8103 11.6494 29.8103 11.6494C29.8103 11.6494 28.3103 11.9577 28.127 10.6494C27.127 10.8077 27.027 9.83273 27.0103 9.83273C27.002 9.83273 25.052 10.3577 24.6603 8.88273C23.902 9.2744 23.577 8.5744 23.577 8.5744C23.577 8.5744 22.4937 9.11607 21.8437 8.0744C20.552 8.88273 19.827 8.04107 19.827 8.04107C19.827 8.04107 18.1353 9.15773 17.577 8.29107C16.577 9.30773 15.677 8.8744 15.677 8.8744C15.677 8.8744 14.927 10.2077 13.702 9.8744C13.427 11.1161 12.0187 11.1411 12.0187 11.1411C12.0187 11.1411 12.1687 12.2327 10.4853 12.5327C10.2687 13.8244 9.38532 14.0327 9.38532 14.0327C9.38532 14.0327 9.46865 15.2994 8.67699 15.6994C8.96032 16.4077 8.22699 17.2744 8.22699 17.2744C8.22699 17.2744 9.01032 18.2494 7.94365 19.3494C8.96865 19.6161 8.22699 21.3827 8.22699 21.3827C8.22699 21.3827 9.64365 22.0161 8.75199 23.1911C9.76865 23.5244 9.45199 24.3244 9.46032 24.7994C10.1103 25.0911 10.677 24.9494 10.402 26.2494C12.3853 26.4744 11.452 27.5661 11.452 27.5661C11.452 27.5661 12.3687 27.6077 12.0103 28.3411C13.702 28.2994 13.952 29.6077 13.952 29.6077C13.952 29.6077 15.5187 29.1911 15.727 29.7994C15.9353 30.4077 15.0437 34.5244 15.0437 34.5244C15.0437 34.5244 13.7103 34.5244 12.727 33.4577C10.4103 33.3994 10.927 31.8744 10.8937 31.8744C10.852 31.8744 10.1187 32.1577 9.74365 30.8827C8.19365 31.1994 8.24365 29.8994 8.22699 29.8827C8.21865 29.8744 7.53532 29.5661 7.78532 28.9244C6.19365 29.0661 6.31032 27.5077 6.31032 27.5077C5.96032 27.3661 5.83532 27.0411 5.88532 26.7161C5.67699 26.6411 4.26032 26.6161 4.99365 24.7494C3.64365 23.9327 4.48532 22.9994 4.48532 22.9994C4.48532 22.9994 2.61865 22.0327 4.06032 20.9161C2.97699 19.3327 4.14365 18.5411 4.14365 18.5411C4.14365 18.5411 2.65199 17.0327 4.16865 15.9577C3.91865 13.6661 5.28532 13.1161 5.28532 13.1161C5.28532 13.1161 4.56865 11.2494 6.51865 10.4661C6.64365 8.5744 8.01032 8.5244 8.01032 8.5244C8.01032 8.5244 8.04365 7.0244 10.1937 7.1744C10.6103 5.83273 12.0687 6.0994 12.0687 6.0994C12.0687 6.0994 12.5187 4.4744 14.5103 5.25773C15.5187 3.28273 17.027 4.29107 17.027 4.29107C17.027 4.29107 17.977 3.6744 18.4437 3.8744C19.052 2.83273 20.3437 3.8244 21.1687 4.03273C21.477 3.90773 22.552 3.0994 23.377 4.11607C24.477 3.40773 25.4187 4.6994 25.4187 4.6994C25.4187 4.6994 26.927 3.93273 27.6353 5.68273C30.8437 5.39107 30.3853 7.49107 30.3853 7.49107C30.3853 7.49107 32.902 6.91607 32.352 9.43273C34.652 9.59107 34.4187 11.0994 34.4187 11.0994C34.4187 11.0994 35.8687 12.1994 35.2353 13.1827C36.527 13.2494 36.052 14.4911 36.052 14.4911C36.052 14.4911 37.0437 14.8744 36.2187 16.4077C38.1103 17.9161 36.5853 19.4244 36.577 19.4077C36.5603 19.3994 37.5853 20.6244 36.6603 22.0411C36.9437 24.2911 35.8103 24.8577 35.8103 24.8577C35.8103 24.8577 36.102 26.3161 34.8353 26.7244C34.8103 28.4327 33.1937 28.6411 33.1937 28.6411C33.1937 28.6411 33.627 29.3911 32.027 30.1661C31.9603 31.3077 30.2937 31.3994 30.2937 31.3994C30.2937 31.3994 30.1353 33.4994 28.0103 32.9327C27.502 34.6161 25.0103 34.1161 24.9603 34.0994C24.9187 34.0744 24.4853 30.4827 24.4853 30.4744H24.4937Z" fill="white" stroke="black" stroke-width="0.158333"/>
<path fill-rule="evenodd" clip-rule="evenodd" d="M9.07688 10.3327C9.07688 10.3327 9.61021 10.7994 9.51021 11.4994C9.41021 12.1911 9.01021 13.1577 9.09354 13.8744C9.14354 14.1661 9.11854 14.6827 9.11854 14.6827C9.11854 14.6827 8.64354 13.9994 8.63521 13.2661C8.62688 12.5327 9.15188 11.8411 9.15188 11.2994C9.15188 10.7577 9.06021 10.3244 9.06854 10.3411L9.07688 10.3327ZM8.81021 10.5494C8.81021 10.5494 8.11021 11.2161 8.01854 11.8577C7.95188 12.1911 7.93521 13.7494 7.91854 14.4411C7.90188 14.6494 7.81854 15.4827 7.80188 15.7911C7.77688 16.0911 8.31021 15.2744 8.34354 14.5994C8.32688 13.9077 8.32688 12.4494 8.39354 12.2244C8.46021 11.9411 8.44354 11.6327 8.54354 11.3494L8.81021 10.5494Z" fill="#217900" stroke="black" stroke-width="0.158333" stroke-linejoin="round"/>
<path fill-rule="evenodd" clip-rule="evenodd" d="M24.1604 8.37435C24.1604 8.37435 25.0604 7.95769 25.3271 7.17435C25.5938 6.39102 24.5354 6.39102 24.4021 6.64102C24.2604 6.89102 24.5188 7.49935 24.4521 7.66602C24.3854 7.83269 24.0188 8.21602 24.1604 8.36602V8.37435Z" fill="#FFD200" stroke="#EF8A10" stroke-width="0.158333"/>
<path fill-rule="evenodd" clip-rule="evenodd" d="M16.1437 8.65771C16.1437 8.65771 16.727 7.84938 16.577 7.04105C16.4187 6.24105 15.5104 6.74105 15.5104 7.02438C15.5104 7.30771 16.027 7.71605 16.052 7.89105C16.077 8.06605 15.9437 8.59105 16.1354 8.64938L16.1437 8.65771ZM14.552 9.13271C14.552 9.13271 15.1354 8.32438 14.9854 7.52438C14.8354 6.71605 13.9187 7.21605 13.9187 7.49938C13.9187 7.78271 14.4437 8.19938 14.4687 8.37438C14.4854 8.54105 14.3604 9.06605 14.552 9.13271ZM12.7937 9.67438C12.7937 9.67438 13.377 8.87438 13.227 8.06605C13.0687 7.25771 12.1604 7.75771 12.1604 8.04105C12.1604 8.32438 12.677 8.74105 12.702 8.91605C12.727 9.08271 12.5937 9.60771 12.7854 9.67438H12.7937ZM11.5437 10.916C11.5437 10.916 12.1354 10.1077 11.9854 9.30771C11.8354 8.49938 10.9187 8.99938 10.9187 9.28271C10.9187 9.56605 11.4437 9.98271 11.4604 10.1577C11.4854 10.3244 11.352 10.8494 11.5437 10.916ZM10.2437 12.116C10.2437 12.116 10.827 11.3077 10.677 10.4994C10.527 9.69105 9.61035 10.1994 9.61035 10.4827C9.61035 10.766 10.1354 11.1744 10.1604 11.3494C10.177 11.5244 10.052 12.0494 10.2437 12.116Z" fill="#FFD200" stroke="#EF8A10" stroke-width="0.208333"/>
<path fill-rule="evenodd" clip-rule="evenodd" d="M13.2438 5.14104C13.2438 5.14104 12.4605 5.7577 12.3938 6.57437C12.3271 7.39104 13.3355 7.1577 13.4105 6.8827C13.4938 6.6077 13.1021 6.07437 13.1271 5.89937C13.1521 5.7327 13.4188 5.2577 13.2438 5.14937V5.14104ZM15.8521 4.34104C15.8521 4.34104 15.0771 4.9577 15.0021 5.77437C14.9355 6.59104 15.9438 6.3577 16.0271 6.0827C16.1021 5.8077 15.7105 5.26604 15.7355 5.09104C15.7605 4.92437 16.0271 4.44937 15.8521 4.34104ZM6.12715 11.3827C6.12715 11.3827 6.29382 12.366 6.97715 12.8244C7.66048 13.2744 7.93548 12.2744 7.73548 12.0744C7.53548 11.8744 6.87715 11.9577 6.73548 11.8577C6.59381 11.7494 6.31882 11.291 6.12715 11.3827ZM4.82715 14.716C4.82715 14.716 4.82715 15.716 5.43548 16.2744C6.03548 16.8244 6.46881 15.8827 6.30215 15.6577C6.13548 15.4327 5.46882 15.4077 5.35215 15.2827C5.22715 15.1494 5.01882 14.6577 4.82715 14.7244V14.716ZM7.82715 18.4494C7.82715 18.4494 7.47715 17.516 6.71881 17.1994C5.96048 16.8994 5.88548 17.9327 6.11882 18.091C6.36048 18.241 6.98548 18.0327 7.14382 18.1077C7.31048 18.1827 7.66882 18.5744 7.83548 18.441L7.82715 18.4494ZM7.21048 16.8327C7.21048 16.8327 7.81048 16.041 7.67715 15.241C7.53548 14.4327 6.61881 14.9077 6.61048 15.191C6.61048 15.4744 7.11048 15.8994 7.13548 16.0744C7.15215 16.2494 7.01048 16.766 7.21048 16.841V16.8327ZM26.0105 9.17437C26.0105 9.17437 26.9105 8.7577 27.1771 7.9827C27.4438 7.2077 26.3855 7.19937 26.2521 7.44104C26.1105 7.69104 26.3688 8.3077 26.3021 8.46604C26.2355 8.6327 25.8688 9.02437 26.0105 9.17437ZM28.7438 10.541C28.7438 10.541 29.2771 9.69937 29.0688 8.9077C28.8605 8.11604 27.9855 8.67437 28.0021 8.9577C28.0188 9.2327 28.5688 9.61604 28.6021 9.79104C28.6355 9.9577 28.5438 10.491 28.7438 10.541ZM36.2105 18.291C36.2105 18.291 35.8521 17.366 35.0938 17.0494C34.3355 16.741 34.2605 17.7827 34.4938 17.9327C34.7355 18.091 35.3688 17.8744 35.5188 17.9494C35.6855 18.0327 36.0438 18.4244 36.2105 18.291ZM32.5605 18.8744C32.5605 18.8744 32.5771 17.8744 33.1855 17.3244C33.7938 16.7744 34.2188 17.7327 34.0521 17.9577C33.8771 18.1827 33.2188 18.191 33.0855 18.316C32.9688 18.441 32.7521 18.9327 32.5605 18.866V18.8744ZM31.9771 8.3077C31.9771 8.3077 31.0355 7.94937 30.3105 8.3077C29.5605 8.67437 30.2938 9.42437 30.5605 9.34937C30.8355 9.26604 31.0938 8.6577 31.2605 8.59104C31.4271 8.52437 31.9605 8.5077 31.9688 8.3077H31.9771ZM29.8271 6.52437C29.8271 6.52437 28.9021 6.16604 28.1605 6.52437C27.4271 6.89104 28.1521 7.64104 28.4271 7.56604C28.6938 7.4827 28.9605 6.87437 29.1188 6.8077C29.2855 6.74104 29.8188 6.72437 29.8271 6.52437ZM26.6605 4.82437C26.6605 4.82437 25.8688 5.4327 25.7938 6.24104C25.7105 7.0577 26.7271 6.8327 26.8105 6.56604C26.8938 6.29104 26.5021 5.74937 26.5271 5.57437C26.5605 5.4077 26.8271 4.94104 26.6605 4.82437ZM24.5938 4.32437C24.5938 4.32437 24.2271 5.24937 24.5855 5.99104C24.9438 6.7327 25.6938 6.0077 25.6188 5.74104C25.5438 5.46604 24.9355 5.19937 24.8688 5.04104C24.8021 4.87437 24.7938 4.3327 24.5938 4.32437ZM18.7188 7.9077C18.7188 7.9077 19.3605 7.14104 19.2688 6.32437C19.1771 5.51604 18.2271 5.94937 18.2105 6.2327C18.1855 6.51604 18.6771 6.96604 18.6855 7.14104C18.6938 7.3077 18.5271 7.82437 18.7188 7.89937V7.9077Z" fill="#FFD200" stroke="#EF8A10" stroke-width="0.158333"/>
<path fill-rule="evenodd" clip-rule="evenodd" d="M22.2269 9.53272C22.2269 9.53272 23.7686 9.63272 23.8436 10.5161C23.9186 11.3994 23.4769 11.9411 23.4769 11.9411C23.4769 11.9411 23.6686 13.8577 22.1603 14.4161C20.5436 14.6077 18.0019 14.4577 18.0019 14.4577C18.0019 14.4577 17.2519 14.6411 16.9519 13.0994C16.7783 12.2289 16.6503 11.3499 16.5686 10.4661C16.5686 10.4661 16.7186 9.59939 17.8103 9.54939C18.8936 9.49106 22.2103 9.54939 22.2269 9.53272Z" fill="#8C8A8C" stroke="black" stroke-width="0.158333"/>
<path d="M23.4685 11.9327C23.4685 11.9327 22.6352 12.9661 22.7185 13.3911" stroke="black" stroke-width="0.158333" stroke-linecap="round"/>
<path fill-rule="evenodd" clip-rule="evenodd" d="M22.352 14.3577C22.5603 14.5327 22.752 14.7244 22.7936 15.3577L22.877 16.6411L23.9603 26.3577L24.9103 33.3827L24.977 34.4661C24.977 34.4661 24.752 35.2744 24.1103 35.3411C23.652 36.3077 21.1353 36.5911 20.8853 36.5827C20.6603 36.5661 19.8603 36.2327 19.377 36.2744C18.8853 36.3161 18.0436 36.6411 17.6686 36.5911C17.2936 36.5327 16.4353 36.2411 16.2853 35.6244C15.227 35.2911 15.0603 34.4827 15.0603 34.4827L16.202 26.3577L17.3103 16.0744C17.3103 16.0744 17.4436 14.7077 17.9936 14.4994C18.5686 14.4494 21.527 14.5577 22.352 14.3577Z" fill="#8C8A8C" stroke="black" stroke-width="0.158333"/>
<path d="M23.5103 29.3744L24.1437 35.3077M16.527 28.4244L16.302 35.616L16.527 28.4244Z" stroke="black" stroke-width="0.158333"/>
<path d="M34.9102 24.4327L34.9352 24.5161M5.04355 24.6911L5.01855 24.7744L5.04355 24.6911Z" stroke="black" stroke-width="0.0833333"/>
<path d="M4.24364 14.9827C4.24364 14.9827 4.7103 15.6411 4.80197 16.0161C4.8853 16.3911 5.04364 17.1327 5.24364 17.4327C5.45197 17.7411 6.62697 19.4244 6.69364 20.1244C6.70197 20.5911 6.20197 21.3744 5.46864 21.3911C5.00197 21.3744 3.81864 21.0744 3.76864 20.0577C3.71864 19.0327 4.12697 19.0161 4.1853 18.3911C4.22697 17.7744 4.24364 14.9994 4.24364 14.9827V14.9827Z" stroke="#6B18B5" stroke-width="0.158333" stroke-linejoin="round"/>
<path d="M12.3685 6.06606C12.3685 6.06606 11.8685 6.09939 11.5018 6.30773C11.2102 6.48273 10.7102 6.74939 10.3685 7.22439C9.48518 7.90773 8.16018 8.22439 7.74351 8.80773C7.49351 9.19106 7.51018 10.1161 8.13518 10.5161C8.53518 10.7411 9.71851 11.0994 10.2852 10.2577C10.8518 9.40773 10.5102 9.17439 10.7852 8.62439C11.1779 7.69508 11.712 6.8321 12.3685 6.06606V6.06606ZM24.2435 4.83273C24.2435 4.83273 23.8768 4.49939 23.4685 4.37439C23.1352 4.29106 22.5852 4.32439 22.0102 4.26606C20.9018 4.11606 19.7602 3.31606 19.0685 3.41606C18.6185 3.49939 17.9602 4.16606 18.1102 4.88273C18.2185 5.33273 18.7185 6.23273 19.7268 6.05773C20.7268 5.88273 20.7268 5.65773 21.3102 5.47439C22.7602 4.66606 24.2268 4.83273 24.2435 4.83273V4.83273ZM36.0268 16.2827C36.1102 16.0911 35.9518 15.7327 35.8435 15.3244C35.7435 14.9911 35.5852 14.4911 35.2018 14.0327C34.7518 13.0161 34.8268 11.6161 34.3685 11.0827C34.0602 10.7494 33.1518 10.5327 32.6185 11.0494C32.2935 11.3827 31.6685 12.4327 32.3518 13.1911C33.0352 13.9411 33.3352 13.6661 33.8018 14.0661C34.9268 14.8161 35.4685 16.1494 36.0268 16.2827V16.2827ZM35.6185 25.1661C35.7768 24.9577 36.0518 24.5494 36.0185 24.2077C35.9935 23.9411 36.1435 23.1244 36.1602 22.7661C36.2602 21.6577 36.9518 20.7494 36.7602 19.7911C36.6518 19.3411 35.9935 18.7077 35.2768 18.8911C34.8435 19.0244 33.8602 19.5577 34.0852 20.5577C34.3102 21.5577 34.6352 21.5327 34.8435 22.1161C35.4518 23.3244 35.0685 24.7577 35.6185 25.1661V25.1661Z" stroke="#6B18B5" stroke-width="0.0833333" stroke-linejoin="round"/>
<path d="M12.6019 32.366C12.6019 32.366 12.7685 33.2494 12.7685 33.4494M27.4519 32.2327C27.4519 32.2327 27.2602 32.5994 28.0185 32.916L27.4519 32.2327ZM28.9602 31.3827C28.9602 31.3827 29.7935 31.1744 30.3602 31.3827H28.9602ZM31.4602 29.266C31.4602 29.2827 31.3435 29.641 32.0102 30.166L31.4602 29.266ZM31.9435 28.3327C31.9435 28.3327 32.4352 28.691 33.2602 28.666L31.9435 28.3327ZM26.9769 29.3827C26.9769 29.3827 27.0019 30.341 26.5102 30.7827L26.9769 29.3827ZM28.6269 27.9077C28.6269 27.9077 29.4352 28.1077 30.1019 27.7744L28.6269 27.9077ZM33.8185 26.4994C33.8185 26.4994 33.9935 26.7494 34.8935 26.7077L33.8185 26.4994ZM30.3185 25.9327C30.3435 25.9494 31.3769 26.2827 32.0269 25.9827L30.3185 25.9327ZM32.3769 21.9994C32.3769 21.9994 32.4185 21.941 32.7352 23.0577L32.3769 21.9994ZM33.1685 18.8577C33.1685 18.8577 33.1269 19.4494 32.6519 19.7077L33.1685 18.8577ZM36.2269 16.4244C36.2269 16.4244 35.5269 16.991 35.6602 17.216L36.2269 16.4244ZM32.7685 16.016C32.7685 16.016 33.1269 16.6244 32.5352 17.041L32.7685 16.016ZM31.0102 13.416C31.0102 13.416 31.6352 13.391 31.9102 13.9244L31.0102 13.416ZM29.8435 11.6494H30.3185H29.8435ZM32.3185 9.48271C32.3185 9.49104 32.4435 9.60771 32.2019 9.85771L32.3185 9.48271ZM27.8685 9.54104C27.8685 9.54104 28.2019 10.0577 28.1435 10.6994L27.8685 9.54104ZM29.7935 7.77438C29.9435 7.75771 30.4352 7.54104 30.4352 7.54104L29.7935 7.77438ZM27.6519 5.70771C27.6435 5.70771 27.4685 6.34938 27.7852 6.58271L27.6519 5.70771ZM26.8602 8.66604C26.8602 9.36604 27.4102 9.19104 27.0269 9.85771L26.8602 8.66604ZM25.5102 8.08271C25.1902 8.30717 24.8991 8.57027 24.6435 8.86604L25.5102 8.08271ZM23.2769 7.72438C23.2769 7.72438 23.6435 8.08271 23.5519 8.57438L23.2769 7.72438ZM22.2185 7.43271C22.2185 7.43271 22.0352 7.98271 21.7935 8.12438L22.2185 7.43271ZM20.2935 7.29104C20.2852 7.31604 19.9935 7.94104 19.7935 8.04938L20.2935 7.29104ZM17.6602 7.29938C17.6769 7.29938 17.9519 7.88271 17.5935 8.29938L17.6602 7.29938ZM17.0519 4.29938C17.0685 4.31604 17.1102 4.74938 16.8352 5.13271L17.0519 4.29938ZM14.4435 5.29104C14.4435 5.29938 14.5602 5.78271 13.7935 5.94104L14.4435 5.29104ZM12.9685 9.70771C12.9852 9.73271 13.7102 9.84938 13.7102 9.84938L12.9685 9.70771ZM11.1602 11.3827C11.1769 11.366 12.0435 11.1077 12.0435 11.1077L11.1602 11.3827ZM9.7602 12.466C9.7852 12.466 10.3685 12.5744 10.5102 12.4994L9.7602 12.466ZM9.34354 12.9994C9.34354 12.9994 9.5352 13.1077 9.37687 14.0827L9.34354 12.9994ZM6.52687 10.4577L6.87687 10.9744L6.52687 10.4577ZM5.33521 13.141C5.33521 13.1244 5.6852 13.6577 6.15187 13.7577L5.33521 13.141ZM8.06854 15.8577C8.29505 15.821 8.51806 15.7652 8.7352 15.691L8.06854 15.8577ZM7.82687 17.816C7.84354 17.816 7.81854 17.4577 8.2602 17.2077L7.82687 17.816ZM7.24354 18.7244C7.24354 18.741 7.6602 19.2577 7.95187 19.3327L7.24354 18.7244ZM6.99354 19.7244C7.04354 19.7077 7.49354 19.316 8.0102 19.3494L6.99354 19.7244ZM6.85187 21.066C6.85187 21.066 6.86854 21.516 8.20187 21.3994L6.85187 21.066ZM6.9852 22.6494C6.9852 22.6327 7.37687 21.7494 8.16854 21.416L6.9852 22.6494ZM8.05187 23.7827C8.05187 23.7827 8.16854 23.3994 8.8352 23.141L8.05187 23.7827ZM8.79354 25.266C8.79354 25.266 9.26854 24.8744 9.44354 24.8244L8.79354 25.266ZM9.3852 26.4327C9.3852 26.4327 9.67687 26.7327 10.4019 26.2077L9.3852 26.4327ZM5.90187 26.6744C5.9852 26.6577 7.04354 26.416 7.40187 26.966L5.90187 26.6744ZM6.31854 27.5494C6.31854 27.5494 7.4352 27.3994 7.57687 27.516L6.31854 27.5494ZM10.3019 27.7744C10.3019 27.7744 10.1519 28.0827 11.5269 27.5744L10.3019 27.7744ZM12.0102 28.3244C11.7602 28.741 12.0685 29.0744 11.7435 29.266L12.0102 28.3244ZM7.82687 28.9077C7.86854 28.8744 8.32687 28.716 8.2602 28.0494L7.82687 28.9077ZM8.24354 29.9077C8.30187 29.891 9.06854 29.5577 9.22687 29.7327L8.24354 29.9077ZM9.75187 30.8744C9.75187 30.8744 9.85187 30.191 10.0685 30.1244L9.75187 30.8744ZM10.9019 31.8994C10.9019 31.8994 11.5435 31.891 11.8185 31.6827L10.9019 31.8994ZM12.1352 29.5994C12.1519 29.616 12.7269 29.916 13.9685 29.616L12.1352 29.5994Z" stroke="black" stroke-width="0.158333"/>
<path fill-rule="evenodd" clip-rule="evenodd" d="M34.8266 18.7861C34.7921 18.5098 34.6503 18.247 34.4722 18.129C34.2655 18.0005 34.051 18.0273 33.9091 18.1993C33.7672 18.3714 33.6793 18.6489 33.7139 18.9252C33.7501 19.2153 33.8902 19.4643 34.0701 19.5962C34.2768 19.7247 34.4913 19.6979 34.6332 19.5258C34.7751 19.3537 34.8763 19.0745 34.8284 18.7999L34.8266 18.7861Z" fill="#DE2010" stroke="black" stroke-width="0.20572"/>
<path fill-rule="evenodd" clip-rule="evenodd" d="M34.7099 17.3111C34.6754 17.0348 34.5336 16.772 34.3555 16.654C34.1488 16.5255 33.9343 16.5523 33.7924 16.7243C33.6505 16.8964 33.5626 17.1739 33.5972 17.4502C33.6334 17.7403 33.7735 17.9893 33.9534 18.1212C34.1601 18.2497 34.3746 18.2229 34.5165 18.0508C34.6584 17.8787 34.7596 17.5995 34.7117 17.3249L34.7099 17.3111Z" fill="#DE2010" stroke="black" stroke-width="0.20572"/>
<path fill-rule="evenodd" clip-rule="evenodd" d="M34.3997 15.731C34.3411 15.4588 34.1767 15.2094 33.9889 15.1075C33.7717 14.9977 33.5604 15.0433 33.4341 15.2271C33.3079 15.411 33.2448 15.6952 33.3035 15.9673C33.3651 16.2531 33.5265 16.4889 33.7173 16.6044C33.9344 16.7142 34.1458 16.6687 34.272 16.4848C34.3982 16.301 34.4746 16.0139 34.4027 15.7446L34.3997 15.731Z" fill="#DE2010" stroke="black" stroke-width="0.205721"/>
<path fill-rule="evenodd" clip-rule="evenodd" d="M33.8652 14.1031C33.739 13.8549 33.5166 13.6556 33.309 13.605C33.071 13.5541 32.8782 13.652 32.803 13.862C32.7278 14.072 32.7392 14.3629 32.8654 14.6111C32.9978 14.8717 33.214 15.0586 33.4279 15.1216C33.6659 15.1725 33.8586 15.0745 33.9338 14.8646C34.009 14.6546 34.0096 14.3576 33.8715 14.1155L33.8652 14.1031Z" fill="#DE2010" stroke="black" stroke-width="0.205721"/>
<path fill-rule="evenodd" clip-rule="evenodd" d="M33.2817 12.7781C33.1556 12.5299 32.9331 12.3306 32.7255 12.28C32.4875 12.2291 32.2947 12.3271 32.2195 12.537C32.1444 12.747 32.1557 13.0379 32.2819 13.2861C32.4143 13.5467 32.6305 13.7336 32.8444 13.7966C33.0824 13.8475 33.2751 13.7495 33.3503 13.5396C33.4255 13.3296 33.4261 13.0326 33.288 12.7905L33.2817 12.7781Z" fill="#DE2010" stroke="black" stroke-width="0.205721"/>
<path fill-rule="evenodd" clip-rule="evenodd" d="M32.4563 11.4577C32.3096 11.2211 32.0711 11.0414 31.8599 11.0085C31.6185 10.978 31.4347 11.0919 31.3776 11.3074C31.3205 11.523 31.3565 11.8119 31.5031 12.0485C31.6572 12.297 31.8884 12.4649 32.1069 12.5096C32.3483 12.5401 32.5321 12.4262 32.5892 12.2106C32.6463 11.9951 32.6218 11.6991 32.4637 11.4695L32.4563 11.4577Z" fill="#DE2010" stroke="black" stroke-width="0.205721"/>
<path fill-rule="evenodd" clip-rule="evenodd" d="M31.5331 10.1741C31.3642 9.95277 31.1094 9.79698 30.8961 9.78465C30.6528 9.77764 30.4809 9.90877 30.4449 10.1289C30.4089 10.3489 30.4726 10.633 30.6415 10.8543C30.8188 11.0868 31.0652 11.2315 31.287 11.2549C31.5303 11.2619 31.7022 11.1308 31.7382 10.9107C31.7742 10.6906 31.7212 10.3983 31.5416 10.1852L31.5331 10.1741Z" fill="#DE2010" stroke="black" stroke-width="0.205721"/>
<path fill-rule="evenodd" clip-rule="evenodd" d="M30.4313 8.98814C30.2321 8.79361 29.9574 8.6764 29.7446 8.69512C29.5028 8.72346 29.3518 8.87811 29.348 9.1011C29.3443 9.32409 29.4486 9.5959 29.6477 9.79043C29.8569 9.9947 30.1216 10.1022 30.3445 10.0932C30.5862 10.0648 30.7372 9.91019 30.741 9.6872C30.7447 9.46421 30.6499 9.18274 30.4413 8.99787L30.4313 8.98814Z" fill="#DE2010" stroke="black" stroke-width="0.205721"/>
<path fill-rule="evenodd" clip-rule="evenodd" d="M29.199 7.89789C28.9828 7.7225 28.6985 7.63106 28.4882 7.66928C28.2501 7.71973 28.1139 7.88762 28.1307 8.11001C28.1475 8.3324 28.2763 8.59346 28.4926 8.76885C28.7196 8.95301 28.9931 9.03568 29.2142 9.00622C29.4523 8.95578 29.5885 8.78788 29.5717 8.5655C29.5549 8.34311 29.4346 8.07155 29.2098 7.90666L29.199 7.89789Z" fill="#DE2010" stroke="black" stroke-width="0.20572"/>
<path fill-rule="evenodd" clip-rule="evenodd" d="M27.8893 7.02486C27.6469 6.8878 27.3513 6.84483 27.1504 6.91743C26.9239 7.0067 26.8175 7.19488 26.871 7.41139C26.9245 7.62791 27.0948 7.86396 27.3372 8.00102C27.5916 8.14494 27.8751 8.18106 28.0882 8.11531C28.3146 8.02604 28.421 7.83786 28.3676 7.62135C28.3141 7.40483 28.1504 7.15701 27.9014 7.03171L27.8893 7.02486Z" fill="#DE2010" stroke="black" stroke-width="0.205721"/>
<path fill-rule="evenodd" clip-rule="evenodd" d="M26.4241 6.24972C26.1702 6.13528 25.872 6.11939 25.6784 6.20998C25.4611 6.31949 25.3722 6.51657 25.4452 6.72732C25.5182 6.93807 25.7093 7.15764 25.9631 7.27207C26.2296 7.39222 26.5152 7.4024 26.7214 7.31752C26.9388 7.20802 27.0276 7.01094 26.9547 6.80019C26.8817 6.58944 26.6961 6.35755 26.4367 6.25544L26.4241 6.24972Z" fill="#DE2010" stroke="black" stroke-width="0.205721"/>
<path fill-rule="evenodd" clip-rule="evenodd" d="M24.9867 5.66974C24.7258 5.57258 24.4272 5.57672 24.2401 5.68008C24.0306 5.80391 23.9552 6.0065 24.0421 6.21189C24.129 6.41727 24.3345 6.62353 24.5954 6.72069C24.8693 6.82271 25.1549 6.81372 25.355 6.71521C25.5645 6.59138 25.64 6.38878 25.553 6.1834C25.4661 5.97802 25.2654 5.75909 24.9998 5.6746L24.9867 5.66974Z" fill="#DE2010" stroke="black" stroke-width="0.205721"/>
<path fill-rule="evenodd" clip-rule="evenodd" d="M23.5258 5.21629C23.2583 5.13932 22.9608 5.16624 22.7822 5.28358C22.5827 5.42304 22.523 5.6308 22.6253 5.82895C22.7277 6.0271 22.9483 6.21708 23.2158 6.29404C23.4968 6.37485 23.7808 6.34409 23.9728 6.2306C24.1723 6.09114 24.232 5.88338 24.1297 5.68523C24.0274 5.48708 23.8105 5.28411 23.5392 5.22013L23.5258 5.21629Z" fill="#DE2010" stroke="black" stroke-width="0.205721"/>
<path fill-rule="evenodd" clip-rule="evenodd" d="M21.9234 4.93966C21.6471 4.90482 21.3574 4.97723 21.199 5.12067C21.0234 5.28918 20.9963 5.50367 21.128 5.68369C21.2596 5.86372 21.5068 6.01746 21.783 6.0523C22.0731 6.08888 22.349 6.01474 22.5212 5.87303C22.6968 5.70452 22.7239 5.49004 22.5922 5.31001C22.4606 5.12999 22.2151 4.96283 21.9372 4.9414L21.9234 4.93966Z" fill="#DE2010" stroke="black" stroke-width="0.20572"/>
<path fill-rule="evenodd" clip-rule="evenodd" d="M20.3333 4.85122C20.0551 4.84005 19.7725 4.93688 19.6269 5.09331C19.4663 5.27617 19.4577 5.49218 19.6042 5.66033C19.7507 5.82849 20.0101 5.96061 20.2883 5.97178C20.5804 5.98351 20.849 5.88611 21.0085 5.73025C21.1691 5.54739 21.1778 5.33138 21.0313 5.16322C20.8848 4.99507 20.6259 4.84945 20.3472 4.85178L20.3333 4.85122Z" fill="#DE2010" stroke="black" stroke-width="0.205722"/>
<path fill-rule="evenodd" clip-rule="evenodd" d="M18.875 4.90121C18.5968 4.89004 18.3143 4.98687 18.1687 5.14329C18.0081 5.32616 17.9994 5.54217 18.1459 5.71032C18.2924 5.87847 18.5518 6.01059 18.83 6.02176C19.1221 6.0335 19.3908 5.9361 19.5503 5.78024C19.7109 5.59737 19.7195 5.38136 19.573 5.21321C19.4265 5.04506 19.1677 4.89944 18.8889 4.90177L18.875 4.90121Z" fill="#DE2010" stroke="black" stroke-width="0.205722"/>
<path fill-rule="evenodd" clip-rule="evenodd" d="M17.1751 5.10251C16.9037 5.16456 16.6564 5.33197 16.5568 5.52106C16.4497 5.73958 16.4978 5.95033 16.6833 6.07427C16.8687 6.1982 17.1536 6.25781 17.425 6.19576C17.71 6.13062 17.9438 5.9663 18.0569 5.77412C18.1641 5.55559 18.1159 5.34485 17.9305 5.22091C17.7451 5.09697 17.4571 5.0242 17.1887 5.09941L17.1751 5.10251Z" fill="#DE2010" stroke="black" stroke-width="0.205721"/>
<path fill-rule="evenodd" clip-rule="evenodd" d="M15.627 5.49058C15.3617 5.5748 15.129 5.76204 15.0453 5.95869C14.9566 6.18531 15.022 6.39137 15.217 6.49959C15.412 6.60781 15.7009 6.64371 15.9663 6.55949C16.2449 6.47106 16.4643 6.28803 16.5612 6.08717C16.65 5.86055 16.5846 5.65449 16.3896 5.54627C16.1946 5.43805 15.9016 5.38927 15.6403 5.48637L15.627 5.49058Z" fill="#DE2010" stroke="black" stroke-width="0.205721"/>
<path fill-rule="evenodd" clip-rule="evenodd" d="M14.2145 6.10046C13.961 6.21569 13.7523 6.42932 13.6927 6.63454C13.6316 6.87011 13.721 7.06691 13.9275 7.15114C14.1341 7.23536 14.4252 7.23659 14.6786 7.12136C14.9447 7.00037 15.1408 6.7925 15.2131 6.58153C15.2742 6.34595 15.1847 6.14915 14.9782 6.06493C14.7717 5.9807 14.475 5.96717 14.2272 6.0947L14.2145 6.10046Z" fill="#DE2010" stroke="black" stroke-width="0.20572"/>
<path fill-rule="evenodd" clip-rule="evenodd" d="M12.8041 6.82075C12.5614 6.95718 12.3716 7.18783 12.3297 7.39738C12.2889 7.63731 12.3949 7.82576 12.6078 7.89206C12.8207 7.95836 13.1109 7.93476 13.3536 7.79833C13.6084 7.65507 13.786 7.43124 13.8401 7.21487C13.8809 6.97494 13.7749 6.78649 13.562 6.72019C13.3491 6.65389 13.0523 6.66572 12.8162 6.81392L12.8041 6.82075Z" fill="#DE2010" stroke="black" stroke-width="0.205719"/>
<path fill-rule="evenodd" clip-rule="evenodd" d="M11.4648 7.72847C11.2383 7.89047 11.0748 8.14038 11.0559 8.35324C11.0414 8.59618 11.1672 8.77201 11.3861 8.81477C11.605 8.85754 11.8908 8.80255 12.1173 8.64056C12.355 8.47046 12.5072 8.22865 12.5375 8.00769C12.5519 7.76475 12.4261 7.58893 12.2073 7.54616C11.9884 7.50339 11.6947 7.54739 11.4761 7.72038L11.4648 7.72847Z" fill="#DE2010" stroke="black" stroke-width="0.20572"/>
<path fill-rule="evenodd" clip-rule="evenodd" d="M10.2351 8.66374C10.0232 8.84431 9.88135 9.10716 9.88055 9.32085C9.88668 9.56415 10.0269 9.72869 10.2486 9.75279C10.4703 9.77688 10.7505 9.6979 10.9624 9.51732C11.1849 9.32772 11.3162 9.0739 11.3276 8.85118C11.3214 8.60788 11.1812 8.44334 10.9595 8.41924C10.7378 8.39515 10.4488 8.46385 10.2457 8.65471L10.2351 8.66374Z" fill="#DE2010" stroke="black" stroke-width="0.205719"/>
<path fill-rule="evenodd" clip-rule="evenodd" d="M9.14329 9.80314C8.94486 9.99844 8.82226 10.2708 8.83678 10.484C8.86034 10.7262 9.01199 10.8803 9.23486 10.8884C9.45773 10.8966 9.73154 10.7977 9.92997 10.6024C10.1383 10.3973 10.251 10.1347 10.2464 9.91176C10.2228 9.66953 10.0712 9.51546 9.84832 9.50733C9.62544 9.49919 9.34216 9.58844 9.15321 9.79337L9.14329 9.80314Z" fill="#DE2010" stroke="black" stroke-width="0.20572"/>
<path fill-rule="evenodd" clip-rule="evenodd" d="M8.20504 11.0727C8.02366 11.2839 7.92429 11.5656 7.9566 11.7768C8.00036 12.0162 8.16437 12.1571 8.38714 12.1465C8.60991 12.136 8.87448 12.0145 9.05586 11.8033C9.24631 11.5815 9.33662 11.3104 9.31337 11.0886C9.26962 10.8492 9.1056 10.7084 8.88283 10.7189C8.66006 10.7295 8.38524 10.8421 8.21411 11.0622L8.20504 11.0727Z" fill="#DE2010" stroke="black" stroke-width="0.205721"/>
<path fill-rule="evenodd" clip-rule="evenodd" d="M7.34583 12.3636C7.18801 12.593 7.11924 12.8836 7.1739 13.0902C7.24293 13.3236 7.42103 13.4461 7.64141 13.4119C7.86178 13.3776 8.11189 13.2287 8.26971 12.9993C8.43543 12.7585 8.49631 12.4793 8.44954 12.2612C8.3805 12.0279 8.20241 11.9053 7.98203 11.9396C7.76166 11.9738 7.50042 12.1151 7.35372 12.3521L7.34583 12.3636Z" fill="#DE2010" stroke="black" stroke-width="0.20572"/>
<path fill-rule="evenodd" clip-rule="evenodd" d="M6.63441 13.828C6.51833 14.0811 6.5005 14.3792 6.58984 14.5733C6.69794 14.7914 6.89443 14.8815 7.10565 14.8099C7.31686 14.7383 7.53767 14.5486 7.65374 14.2956C7.77562 14.0298 7.78764 13.7444 7.70411 13.5376C7.59602 13.3195 7.39952 13.2294 7.1883 13.301C6.97709 13.3726 6.744 13.5567 6.64021 13.8154L6.63441 13.828Z" fill="#DE2010" stroke="black" stroke-width="0.20572"/>
<path fill-rule="evenodd" clip-rule="evenodd" d="M6.06976 15.3682C5.9771 15.6307 5.98638 15.9292 6.09294 16.1145C6.22036 16.3218 6.42422 16.3938 6.62808 16.3033C6.83193 16.2129 7.03462 16.0039 7.12728 15.7414C7.22457 15.4657 7.21066 15.1803 7.10872 14.9819C6.98131 14.7746 6.77745 14.7026 6.57359 14.7931C6.36974 14.8835 6.1543 15.088 6.07439 15.355L6.06976 15.3682Z" fill="#DE2010" stroke="black" stroke-width="0.20572"/>
<path fill-rule="evenodd" clip-rule="evenodd" d="M5.57811 18.2805C5.55239 18.5027 5.63431 18.7329 5.78289 18.8561C5.9571 18.9923 6.17236 19.0083 6.34795 18.8981C6.52354 18.7879 6.66905 18.5857 6.69477 18.3635C6.72177 18.1301 6.63857 17.911 6.49127 17.7768C6.31706 17.6405 6.1018 17.6245 5.92621 17.7348C5.75062 17.845 5.59165 18.0461 5.57939 18.2694L5.57811 18.2805Z" fill="#DE2010" stroke="black" stroke-width="0.184269"/>
<path fill-rule="evenodd" clip-rule="evenodd" d="M5.70717 16.9237C5.6453 17.1952 5.68881 17.4906 5.81595 17.6624C5.96635 17.8537 6.17713 17.9018 6.36924 17.7885C6.56135 17.6753 6.7387 17.4444 6.80057 17.1729C6.86554 16.8879 6.81893 16.606 6.69488 16.4207C6.54449 16.2293 6.33371 16.1813 6.1416 16.2946C5.94948 16.4078 5.75897 16.6357 5.71027 16.9101L5.70717 16.9237Z" fill="#DE2010" stroke="black" stroke-width="0.205719"/>
<path fill-rule="evenodd" clip-rule="evenodd" d="M33.6603 16.2244C33.8437 16.0327 34.0103 15.9744 34.2187 16.0494C34.1353 15.541 33.9853 15.366 33.7853 15.4327C33.5937 15.491 33.502 15.7494 33.6603 16.2244ZM33.9353 17.741C34.127 17.566 34.2937 17.5244 34.502 17.6077C34.4687 17.1077 34.3187 16.916 34.1187 16.966C33.9187 17.0077 33.8187 17.266 33.9353 17.741ZM33.2853 14.8244C33.4103 14.5994 33.5603 14.5077 33.7853 14.516C33.577 14.0494 33.3853 13.9244 33.202 14.0327C33.0353 14.141 33.0187 14.416 33.2853 14.8327V14.8244ZM32.6103 13.441C32.7353 13.2077 32.8853 13.116 33.1103 13.1327C32.902 12.6577 32.702 12.5327 32.527 12.641C32.3603 12.7494 32.3437 13.0244 32.6103 13.441ZM30.9853 10.8994C31.0687 10.6494 31.202 10.5327 31.4187 10.516C31.1437 10.0827 30.927 9.99105 30.777 10.1244C30.627 10.2577 30.652 10.541 30.9853 10.8994ZM29.9103 9.79105C29.9937 9.54105 30.1103 9.42438 30.327 9.39105C30.0437 8.97438 29.827 8.89105 29.677 9.02438C29.527 9.16605 29.5603 9.44105 29.9103 9.79105ZM27.6853 7.91605C27.6853 7.64938 27.7687 7.49938 27.9603 7.39938C27.5603 7.09105 27.3187 7.08272 27.227 7.25772C27.1353 7.43272 27.2437 7.68272 27.6853 7.91605ZM28.852 8.79105C28.8853 8.53272 28.9937 8.39105 29.2103 8.33272C28.8603 7.95772 28.6353 7.89938 28.5103 8.05772C28.3853 8.22438 28.452 8.48272 28.8437 8.79105H28.852ZM26.352 7.18271C26.327 6.92438 26.3937 6.76605 26.577 6.64105C26.1437 6.37438 25.9103 6.39105 25.827 6.57438C25.752 6.76605 25.8937 6.99938 26.3603 7.18271H26.352ZM25.0103 6.58272C24.9437 6.33272 24.9853 6.16605 25.152 6.01605C24.6853 5.81605 24.452 5.85771 24.402 6.05771C24.352 6.25771 24.527 6.46605 25.0103 6.58272ZM23.552 6.13272C23.4603 5.88272 23.4853 5.71605 23.6437 5.54938C23.1603 5.39105 22.9353 5.45772 22.8937 5.65772C22.8687 5.85772 23.0603 6.05772 23.552 6.13272ZM22.1103 5.84938C22.0103 5.61605 22.027 5.43272 22.1687 5.26605C21.6687 5.14105 21.452 5.22438 21.4353 5.43271C21.4103 5.63271 21.6187 5.81605 22.1103 5.84938ZM20.5937 5.73272C20.4603 5.50772 20.4603 5.33272 20.5937 5.14938C20.0853 5.07438 19.8687 5.18272 19.877 5.38272C19.877 5.59105 20.102 5.74938 20.5937 5.73272ZM17.6187 5.95772C17.4353 5.77438 17.3937 5.59938 17.4687 5.39105C16.9687 5.44105 16.7853 5.59105 16.8353 5.79105C16.8853 5.99105 17.1437 6.09105 17.6187 5.95772ZM19.0853 5.76605C18.927 5.55771 18.902 5.38272 19.0103 5.18272C18.502 5.16605 18.302 5.29105 18.327 5.49938C18.352 5.69938 18.5937 5.83271 19.077 5.76605H19.0853ZM16.177 6.26605C15.977 6.10771 15.902 5.94938 15.952 5.73272C15.452 5.85772 15.302 6.03272 15.377 6.21605C15.4603 6.40772 15.727 6.46605 16.177 6.26605ZM13.427 7.53272C13.1937 7.41605 13.0937 7.27438 13.102 7.04938C12.6353 7.26605 12.5187 7.46605 12.6353 7.63272C12.7437 7.79938 13.0187 7.81605 13.427 7.53272ZM14.7603 6.85772C14.5353 6.71605 14.4603 6.55772 14.4937 6.34105C14.002 6.49105 13.8603 6.67438 13.952 6.85772C14.0437 7.04105 14.3187 7.09105 14.752 6.85772H14.7603ZM10.9603 9.25772C10.7103 9.19105 10.577 9.06605 10.5437 8.84105C10.127 9.15772 10.0603 9.37438 10.202 9.51605C10.352 9.65772 10.6187 9.61605 10.952 9.25772H10.9603ZM12.1353 8.29105C11.8853 8.20772 11.7687 8.07438 11.752 7.85772C11.3187 8.12438 11.227 8.34105 11.3603 8.49938C11.4937 8.64938 11.777 8.62438 12.1353 8.29105ZM9.91032 10.291C9.66032 10.241 9.51865 10.1327 9.46032 9.91605C9.07699 10.2577 9.02699 10.491 9.18532 10.616C9.34365 10.7494 9.60199 10.6744 9.91032 10.2827V10.291ZM8.96865 11.4994C8.70199 11.4827 8.55199 11.391 8.48532 11.1827C8.13532 11.5577 8.10199 11.7827 8.26865 11.8994C8.43532 12.016 8.69365 11.916 8.96865 11.4994ZM8.18532 12.7494C7.91865 12.766 7.76865 12.691 7.65199 12.4994C7.36865 12.9244 7.36865 13.166 7.55199 13.2494C7.73532 13.3327 7.97699 13.1994 8.18532 12.7494ZM7.49365 14.0827C7.24365 14.1327 7.07699 14.0827 6.93532 13.8994C6.71032 14.3577 6.74365 14.591 6.93532 14.6494C7.12699 14.716 7.35199 14.5494 7.49365 14.0744V14.0827ZM6.94365 15.441C6.69365 15.5327 6.52699 15.5077 6.36032 15.3577C6.21032 15.841 6.27699 16.066 6.48532 16.0994C6.68532 16.1244 6.87699 15.9327 6.94365 15.4327V15.441ZM6.56865 16.9577C6.33532 17.066 6.16032 17.0577 5.98532 16.916C5.86865 17.416 5.95199 17.6244 6.15199 17.641C6.36032 17.666 6.54365 17.4577 6.56865 16.9577ZM6.41865 18.2244C6.20199 18.341 6.02699 18.3577 5.83532 18.266C5.77699 18.6744 5.88532 18.8327 6.08532 18.816C6.28532 18.7994 6.44365 18.616 6.41865 18.2244ZM32.002 12.2077C32.0937 11.9577 32.227 11.841 32.4437 11.8244C32.177 11.391 31.9687 11.2994 31.8103 11.4244C31.652 11.5577 31.677 11.841 32.002 12.2077ZM34.102 19.291C34.2937 19.1077 34.4687 19.066 34.6687 19.1577C34.6353 18.6494 34.4853 18.466 34.2853 18.5077C34.0937 18.5577 33.9853 18.8077 34.102 19.291Z" fill="#FFE300"/>
<path fill-rule="evenodd" clip-rule="evenodd" d="M32.1019 10.9994C32.1019 10.9994 31.5186 11.5744 31.6269 12.2661C31.7269 12.9577 32.1686 13.8161 32.0853 14.5411C32.0019 15.2577 31.8769 15.7327 31.8769 15.7327C31.8769 15.7327 32.5436 14.9744 32.5436 14.2327C32.5603 13.5077 32.0936 12.5411 32.0936 12.0077C32.0936 11.4744 32.1186 10.9911 32.1019 11.0077V10.9994ZM33.1603 13.3327C33.1603 13.3327 32.7186 13.6661 32.7603 14.4161C32.8019 15.1744 33.5936 16.5661 33.5936 16.5661C33.5936 16.5661 34.1603 17.7327 34.1353 18.0411C34.1186 18.3494 34.2436 17.7494 34.1853 17.0827C34.1269 16.4161 33.2686 14.9327 33.2686 14.9327C33.2686 14.9327 33.0853 14.6327 33.1019 14.1244C33.1186 13.6244 33.1686 13.3411 33.1686 13.3327H33.1603Z" fill="#217900" stroke="black" stroke-width="0.158333" stroke-linejoin="round"/>
<path fill-rule="evenodd" clip-rule="evenodd" d="M19.7436 3.94938C19.7436 3.79938 19.5602 3.66605 19.3436 3.66605C19.1269 3.66605 18.9519 3.79938 18.9519 3.94938C18.9519 4.09938 19.1186 4.23271 19.3436 4.23271C19.5686 4.23271 19.7352 4.10771 19.7352 3.94938H19.7436ZM19.9102 4.61605C19.9102 4.46605 19.7269 4.34105 19.4936 4.34105C19.2769 4.34105 19.0936 4.45771 19.0936 4.60771C19.0936 4.75771 19.2769 4.88271 19.5019 4.88271C19.7269 4.88271 19.9019 4.75771 19.9019 4.60771L19.9102 4.61605ZM20.4102 3.83271C20.4102 3.83271 19.9436 4.17438 20.1352 4.31605C20.3269 4.45771 20.8519 4.01605 20.8519 4.01605L20.4102 3.83271ZM34.0186 11.7827C34.0186 11.6827 33.9769 11.591 33.9019 11.541C33.8653 11.5152 33.8217 11.5014 33.7769 11.5014C33.7321 11.5014 33.6884 11.5152 33.6519 11.541C33.5769 11.591 33.5352 11.6827 33.5352 11.7827C33.5352 11.8827 33.5769 11.9744 33.6519 12.0244C33.6884 12.0502 33.7321 12.0641 33.7769 12.0641C33.8217 12.0641 33.8653 12.0502 33.9019 12.0244C33.9769 11.9744 34.0186 11.8827 34.0186 11.7827ZM33.8436 11.116C33.8436 10.9494 33.7269 10.8244 33.5936 10.8244C33.4602 10.8244 33.3352 10.9577 33.3352 11.1244C33.3352 11.291 33.4519 11.416 33.5852 11.416C33.7186 11.416 33.8436 11.2827 33.8436 11.1244V11.116ZM33.9686 12.466C33.9686 12.3827 33.9186 12.316 33.8686 12.316C33.8186 12.316 33.7686 12.3827 33.7686 12.466C33.7686 12.5494 33.8102 12.6244 33.8686 12.6244C33.9269 12.6244 33.9686 12.5494 33.9686 12.466ZM34.3769 11.266C34.3769 11.166 34.3269 11.091 34.2769 11.091C34.2186 11.091 34.1769 11.166 34.1769 11.2577C34.1769 11.3494 34.2186 11.441 34.2769 11.441C34.3269 11.441 34.3769 11.3577 34.3769 11.266ZM33.2602 11.3827C33.2602 11.2994 33.2102 11.241 33.1602 11.241C33.1102 11.241 33.0602 11.3077 33.0602 11.3827C33.0602 11.4577 33.1019 11.5327 33.1602 11.5327C33.2186 11.5327 33.2602 11.466 33.2602 11.3827ZM33.4352 12.3327C33.4352 12.2077 33.3435 12.1077 33.2269 12.1077C33.1102 12.1077 33.0186 12.2077 33.0186 12.3327C33.0186 12.466 33.1019 12.566 33.2269 12.566C33.3519 12.566 33.4352 12.466 33.4352 12.3327ZM32.8852 11.916C32.8852 11.8077 32.8019 11.716 32.7102 11.716C32.6102 11.716 32.5269 11.7994 32.5269 11.916C32.5269 12.0327 32.6102 12.116 32.7102 12.116C32.8019 12.116 32.8769 12.0327 32.8769 11.916H32.8852ZM32.8019 11.3494C32.8014 11.3206 32.7935 11.2924 32.7789 11.2676C32.7643 11.2427 32.7435 11.2221 32.7186 11.2077C32.6948 11.1929 32.6674 11.1851 32.6394 11.1851C32.6114 11.1851 32.584 11.1929 32.5602 11.2077C32.5368 11.2231 32.5177 11.2442 32.5046 11.2689C32.4915 11.2937 32.4848 11.3214 32.4852 11.3494C32.4842 11.3796 32.4914 11.4095 32.5061 11.4359C32.5208 11.4624 32.5424 11.4843 32.5686 11.4994C32.5914 11.5125 32.6172 11.5195 32.6436 11.5195C32.6699 11.5195 32.6957 11.5125 32.7186 11.4994C32.7686 11.466 32.8019 11.416 32.8019 11.3494ZM35.3102 14.216C35.0852 13.916 34.7186 13.791 34.4936 13.9327C34.2769 14.0744 34.2769 14.4327 34.5102 14.741C34.7352 15.041 35.0936 15.166 35.3186 15.0244C35.5436 14.8744 35.5436 14.5244 35.3186 14.216H35.3102ZM35.9602 19.7744C36.0019 19.3994 35.8269 19.0744 35.5602 19.041C35.2936 19.016 35.0436 19.291 34.9936 19.6577C34.9519 20.0244 35.1352 20.3494 35.4019 20.3827C35.6686 20.416 35.9186 20.1327 35.9602 19.7744ZM36.0936 23.0077C36.1769 22.641 36.0186 22.2994 35.7602 22.241C35.4936 22.191 35.2185 22.441 35.1436 22.8077C35.0686 23.166 35.2269 23.5077 35.4769 23.5577C35.7436 23.616 36.0186 23.366 36.0936 22.9994V23.0077ZM36.7186 19.9744C36.7186 19.8327 36.6185 19.716 36.5019 19.716C36.3852 19.716 36.2769 19.8327 36.2769 19.9744C36.2769 20.1244 36.3769 20.241 36.5019 20.241C36.6269 20.241 36.7186 20.1244 36.7186 19.9744ZM36.1769 20.5827L35.7269 21.0994C35.7269 21.0994 35.3019 21.1077 35.3269 21.2494C35.3436 21.3827 35.9102 21.7994 35.9102 21.966C35.9019 22.1327 36.2769 21.9244 36.2769 21.9244L36.5852 20.9994C36.5852 20.9994 36.5686 20.3577 36.4019 20.366C36.2352 20.3827 36.1936 20.5744 36.1769 20.5827ZM6.39355 20.3827C6.3998 20.3513 6.39901 20.3189 6.39123 20.2878C6.38344 20.2567 6.36887 20.2277 6.34854 20.203C6.32822 20.1782 6.30265 20.1583 6.27369 20.1446C6.24473 20.1309 6.21309 20.1238 6.18105 20.1238C6.14901 20.1238 6.11737 20.1309 6.08841 20.1446C6.05945 20.1583 6.03388 20.1782 6.01356 20.203C5.99324 20.2277 5.97866 20.2567 5.97087 20.2878C5.96309 20.3189 5.9623 20.3513 5.96855 20.3827C5.97833 20.4319 6.00486 20.4761 6.04361 20.5079C6.08235 20.5397 6.13093 20.5571 6.18105 20.5571C6.23117 20.5571 6.27975 20.5397 6.3185 20.5079C6.35724 20.4761 6.38377 20.4319 6.39355 20.3827ZM6.60188 19.716C6.60188 19.5994 6.50188 19.4994 6.38522 19.4994C6.26855 19.4994 6.16855 19.5994 6.16855 19.7244C6.16855 19.8494 6.26855 19.9494 6.38522 19.9494C6.44343 19.9472 6.49855 19.9226 6.53896 19.8806C6.57937 19.8386 6.60192 19.7826 6.60188 19.7244V19.716ZM4.82688 16.5994C4.74355 16.416 4.57688 16.316 4.45188 16.3744C4.32688 16.4327 4.28522 16.6244 4.36855 16.8077C4.45188 16.991 4.61855 17.091 4.74355 17.0327C4.87688 16.9744 4.91022 16.7827 4.82688 16.5994ZM5.36855 18.5494C5.25188 18.316 5.02688 18.1827 4.85188 18.2577C4.67688 18.3327 4.62688 18.5827 4.73522 18.816C4.84355 19.0494 5.06855 19.1827 5.25188 19.1077C5.43522 19.0327 5.47688 18.7827 5.36855 18.5494ZM5.93522 19.9827C5.97688 19.691 5.85188 19.416 5.66855 19.3827C5.47688 19.341 5.30188 19.5494 5.26022 19.841C5.22688 20.1327 5.34355 20.3994 5.53522 20.441C5.71855 20.4827 5.90188 20.2744 5.93522 19.9827ZM5.01855 20.191C5.13522 19.916 5.09355 19.6244 4.92688 19.541C4.76022 19.4577 4.52688 19.5994 4.41022 19.8744C4.29355 20.1494 4.33522 20.4327 4.51022 20.5244C4.68522 20.616 4.90188 20.466 5.01855 20.191Z" fill="#6B18B5"/>
<path fill-rule="evenodd" clip-rule="evenodd" d="M4.60197 19.5661C4.60197 19.4244 4.49363 19.3161 4.3603 19.3161C4.22697 19.3161 4.11863 19.4327 4.11863 19.5661C4.11863 19.6994 4.22697 19.8161 4.36863 19.8161C4.5103 19.8161 4.60197 19.7077 4.60197 19.5661ZM4.4103 18.9411C4.4103 18.8161 4.3103 18.7161 4.19363 18.7161C4.16408 18.7171 4.13503 18.724 4.10814 18.7363C4.08125 18.7487 4.05705 18.7661 4.03693 18.7878C4.0168 18.8095 4.00115 18.8349 3.99086 18.8626C3.98057 18.8904 3.97585 18.9198 3.97697 18.9494C3.97697 19.0661 4.07697 19.1744 4.19363 19.1744C4.3103 19.1744 4.4103 19.0661 4.4103 18.9411ZM4.6103 17.7494C4.6103 17.5327 4.51863 17.3661 4.40197 17.3661C4.2853 17.3661 4.19363 17.5327 4.19363 17.7494C4.19363 17.9577 4.2853 18.1327 4.40197 18.1327C4.51863 18.1327 4.6103 17.9661 4.6103 17.7494ZM5.2603 17.6577C5.2853 17.4494 5.21863 17.2661 5.09363 17.2411C4.9853 17.2327 4.86863 17.3911 4.84363 17.5994C4.8103 17.8077 4.8853 17.9911 5.00197 18.0077C5.1103 18.0244 5.22697 17.8661 5.25197 17.6577H5.2603ZM9.84363 8.49107C9.9353 8.19107 9.84363 7.89107 9.65197 7.8244C9.4603 7.7494 9.2353 7.93273 9.15197 8.23273C9.06863 8.53273 9.15197 8.83273 9.34363 8.8994C9.5353 8.9744 9.7603 8.79107 9.84363 8.49107ZM8.97697 9.81607C9.22697 9.59107 9.34363 9.29107 9.22697 9.14107C9.10197 8.98273 8.79363 9.04107 8.5353 9.25773C8.27697 9.4744 8.17697 9.7744 8.29363 9.9244C8.41863 10.0827 8.72697 10.0327 8.97697 9.81607ZM8.47697 9.08273C8.72697 8.89107 8.82697 8.63273 8.7103 8.4994C8.59363 8.36607 8.29363 8.41607 8.04363 8.5994C7.7853 8.79107 7.67697 9.0494 7.79363 9.18273C7.9103 9.31607 8.2103 9.26607 8.46863 9.08273H8.47697ZM10.4353 7.79107C10.602 7.65773 10.677 7.4744 10.602 7.38273C10.5186 7.2994 10.3103 7.3244 10.1353 7.45773C9.9603 7.59107 9.89363 7.76607 9.97697 7.85773C10.0603 7.9494 10.2603 7.91607 10.4353 7.79107Z" fill="#6B18B5"/>
<path fill-rule="evenodd" clip-rule="evenodd" d="M9.4102 9.04107C9.52687 8.85774 9.5352 8.66607 9.42687 8.60774C9.31853 8.5494 9.1352 8.64107 9.01853 8.8244C8.90187 9.00774 8.89353 9.1994 9.00187 9.25774C9.1102 9.31607 9.29353 9.21607 9.4102 9.04107ZM10.8852 8.26607C11.0685 8.10774 11.1352 7.90774 11.0519 7.80774C10.9519 7.70774 10.7185 7.75774 10.5352 7.90774C10.3519 8.05774 10.2852 8.26607 10.3769 8.36607C10.4769 8.46607 10.7019 8.41607 10.8852 8.26607ZM8.21853 10.0661C8.3852 10.0661 8.51853 9.9744 8.50187 9.8744C8.50187 9.78274 8.34353 9.70774 8.16853 9.71607C8.00187 9.7244 7.86853 9.81607 7.8852 9.90774C7.89353 10.0077 8.05187 10.0744 8.21853 10.0744V10.0661ZM11.4435 7.30774C11.5602 7.1244 11.5685 6.93274 11.4602 6.8744C11.3602 6.81607 11.1769 6.90774 11.0602 7.09107C10.9435 7.2744 10.9352 7.46607 11.0435 7.5244C11.1519 7.58274 11.3269 7.49107 11.4435 7.30774Z" fill="#6B18B5"/>
<path fill-rule="evenodd" clip-rule="evenodd" d="M30.8935 12.7827C30.8935 12.7827 31.4268 11.941 31.2268 11.141C31.0185 10.3494 30.1435 10.916 30.1601 11.1994C30.1768 11.4744 30.7268 11.8577 30.7601 12.0327C30.7935 12.1994 30.6935 12.7244 30.8935 12.7827Z" fill="#FFD200" stroke="#EF8A10" stroke-width="0.0833333"/>
<path fill-rule="evenodd" clip-rule="evenodd" d="M20.7354 5.77438C20.7354 5.77438 22.652 5.84938 22.6604 7.09105C22.6604 7.28271 22.6604 7.50771 22.5937 8.06605C22.977 7.85771 23.227 7.29105 23.177 6.92438C23.1854 5.66605 21.4687 4.79938 20.7354 5.77438Z" fill="#217900" stroke="black" stroke-width="0.191667" stroke-linejoin="round"/>
<path fill-rule="evenodd" clip-rule="evenodd" d="M19.5186 5.71605C19.5186 5.71605 21.0602 5.39939 21.0769 6.63272C21.0852 7.88272 20.5769 8.07439 20.5769 8.07439C20.5769 8.07439 21.7686 7.82439 21.7769 6.56606C21.7769 5.29939 20.2519 4.74105 19.5186 5.71605Z" fill="#217900" stroke="black" stroke-width="0.191667" stroke-linejoin="round"/>
<path fill-rule="evenodd" clip-rule="evenodd" d="M24.7686 32.4994C24.7686 32.4994 32.0019 30.4494 34.1853 21.5827C32.9103 30.6744 24.9936 33.5827 24.9936 33.5827L24.7603 32.4994H24.7686Z" fill="#F7DF73" stroke="black" stroke-width="0.208333" stroke-linejoin="round"/>
<path fill-rule="evenodd" clip-rule="evenodd" d="M25.5103 33.0494C25.7353 33.0494 26.2853 32.4327 26.6019 32.366C26.9186 32.2994 26.9519 31.9744 26.5936 31.966C26.2269 31.9494 25.9103 32.3827 25.9103 32.3827C25.9103 32.3827 25.5936 32.6494 25.2603 32.6827C24.9269 32.716 25.1436 33.1327 25.5103 33.0494Z" fill="#8C1800"/>
<path fill-rule="evenodd" clip-rule="evenodd" d="M29.677 29.941C29.677 29.941 28.927 30.3744 29.027 30.4827C29.1353 30.591 29.802 30.066 29.8187 30.066C29.827 30.0494 30.102 29.716 29.677 29.941Z" fill="#8C1800" stroke="#8C1800" stroke-width="0.208333"/>
<path fill-rule="evenodd" clip-rule="evenodd" d="M27.0519 31.9161C27.0519 31.9161 26.8269 31.8327 27.4019 31.6161C27.9852 31.3911 27.9436 31.1327 28.1352 31.0244C28.3186 30.9161 28.7186 30.6327 28.8019 30.7994C28.8852 30.9661 28.3852 31.2994 28.2602 31.3327C28.1436 31.3661 27.5686 31.8994 27.4019 31.9411C27.2352 31.9911 27.1186 31.9661 27.0519 31.9161Z" fill="#8C1800"/>
<path d="M30.7935 28.8327C30.2935 29.3911 30.2935 29.3744 30.2935 29.3744" stroke="#8C1800" stroke-width="0.25" stroke-linecap="round"/>
<path d="M31.5353 27.9327L31.0603 28.5077" stroke="#8C1800" stroke-width="0.233333" stroke-linecap="round"/>
<path d="M32.277 26.7494L31.7437 27.5994" stroke="#8C1800" stroke-width="0.208333" stroke-linecap="round"/>
<path d="M33.1769 24.9244L33.0435 25.2244M32.9019 25.5494L32.4602 26.4244L32.9019 25.5494Z" stroke="#8C1800" stroke-width="0.191667" stroke-linecap="round"/>
<path d="M33.4936 24.0827L33.377 24.4494" stroke="#8C1800" stroke-width="0.116667" stroke-linecap="round"/>
<path fill-rule="evenodd" clip-rule="evenodd" d="M15.2817 32.3106C15.2817 32.3106 8.10886 30.2273 5.957 21.1857C7.21225 30.4682 15.061 33.4018 15.061 33.4018L15.2817 32.3106Z" fill="#F7DF73" stroke="black" stroke-width="0.209725" stroke-linejoin="round"/>
<path fill-rule="evenodd" clip-rule="evenodd" d="M14.5519 32.8661C14.3269 32.8661 13.7852 32.2411 13.4685 32.1744C13.1519 32.0994 13.1185 31.7744 13.4769 31.7577C13.8435 31.7577 14.1519 32.1827 14.1519 32.1827C14.1519 32.1827 14.4685 32.4577 14.7935 32.4994C15.1269 32.5327 14.9102 32.9494 14.5519 32.8661Z" fill="#8C1800"/>
<path fill-rule="evenodd" clip-rule="evenodd" d="M10.4263 29.7029C10.4263 29.7029 11.1712 30.1564 11.0609 30.2698C10.9643 30.369 10.3022 29.8447 10.2884 29.8305C10.2746 29.8163 10.0125 29.4762 10.4263 29.7029Z" fill="#8C1800" stroke="#8C1800" stroke-width="0.209725"/>
<path fill-rule="evenodd" clip-rule="evenodd" d="M13.0269 31.7161C13.0269 31.7161 13.2435 31.6327 12.6769 31.4077C12.1102 31.1827 12.1352 30.9077 11.9519 30.8077C11.7685 30.6994 11.3685 30.4161 11.2852 30.5827C11.2019 30.7494 11.7019 31.0827 11.8269 31.1161C11.9435 31.1577 12.5102 31.6994 12.6769 31.7411C12.8435 31.7911 12.9519 31.7661 13.0269 31.7161Z" fill="#8C1800"/>
<path d="M9.32287 28.5833L9.80566 29.136" stroke="#8C1800" stroke-width="0.25167" stroke-linecap="round"/>
<path d="M8.57788 27.6622L9.04688 28.2432" stroke="#8C1800" stroke-width="0.237688" stroke-linecap="round"/>
<path d="M7.84692 26.4576L8.37109 27.3221" stroke="#8C1800" stroke-width="0.209725" stroke-linecap="round"/>
<path d="M6.95019 24.5869L7.08813 24.8987M7.22607 25.2388L7.66748 26.1316L7.22607 25.2388Z" stroke="#8C1800" stroke-width="0.195743" stroke-linecap="round"/>
<path d="M6.63293 23.7366L6.75708 24.1192" stroke="#8C1800" stroke-width="0.111853" stroke-linecap="round"/>
<path fill-rule="evenodd" clip-rule="evenodd" d="M34.5269 19.941C34.5686 20.4994 35.1103 21.0244 34.8936 21.9994C34.6269 23.1077 33.6603 25.7244 33.8269 26.1827C33.5436 25.791 33.5936 25.4327 33.5769 24.8827C33.5436 24.341 34.3603 22.3077 34.4353 21.6244C34.4353 21.0077 34.4936 20.166 34.5269 19.941Z" fill="#217900" stroke="black" stroke-width="0.191667" stroke-linejoin="round"/>
<path fill-rule="evenodd" clip-rule="evenodd" d="M34.5269 19.9494C34.5269 19.9494 35.4185 21.0744 35.3685 21.9661C35.3269 22.8577 34.8269 23.8994 34.9935 24.3577C34.7299 24.021 34.594 23.6018 34.6102 23.1744C34.5852 22.6327 35.0519 22.0244 34.9519 21.4327C34.8602 20.8494 34.5185 19.9494 34.5352 19.9494H34.5269ZM5.41854 20.1994C5.38521 20.7577 4.96854 21.2577 5.18521 22.2244C5.45187 23.3327 6.43521 24.7244 6.26854 26.3244C6.56021 25.9327 6.64354 25.4911 6.66854 24.9494C6.68521 24.4077 5.58521 22.5744 5.51854 21.8827C5.51854 21.2661 5.45188 20.4244 5.41854 20.1994Z" fill="#217900" stroke="black" stroke-width="0.191667" stroke-linejoin="round"/>
<path fill-rule="evenodd" clip-rule="evenodd" d="M5.4186 20.2161C5.4186 20.2161 4.55194 21.2994 4.60194 22.1911C4.61027 22.7827 5.70194 25.2577 5.53527 25.7244C5.82694 25.3327 5.90194 25.3827 5.8936 24.7911C5.57694 23.2661 5.00194 22.2994 5.10194 21.7077C5.1936 21.1161 5.43527 20.2077 5.4186 20.2077V20.2161Z" fill="#217900" stroke="black" stroke-width="0.191667" stroke-linejoin="round"/>
<path d="M20.2033 10.2494L22.3394 16.8724H29.3303L23.6987 20.9705L25.8446 27.5935L20.213 23.5051L14.5814 27.5935L16.7175 20.9705L11.0762 16.8724H18.0477L20.2033 10.2494Z" fill="white" stroke="black" stroke-width="0.165077" stroke-linecap="square" stroke-linejoin="round"/>
</g>
</g>
<defs>
<clipPath id="clip0_769_19999">
<path d="M0 20C0 8.95431 8.95431 0 20 0C31.0457 0 40 8.95431 40 20C40 31.0457 31.0457 40 20 40C8.95431 40 0 31.0457 0 20Z" fill="white"/>
</clipPath>
<clipPath id="clip1_769_19999">
<rect width="53.3333" height="40" fill="white" transform="translate(-6.33984 -0.000610352)"/>
</clipPath>
</defs>
</svg>
