<svg width="40" height="40" viewBox="0 0 40 40" fill="none" xmlns="http://www.w3.org/2000/svg">
<g clip-path="url(#clip0_769_17523)">
<path d="M0 20C0 8.95431 8.95431 0 20 0C31.0457 0 40 8.95431 40 20C40 31.0457 31.0457 40 20 40C8.95431 40 0 31.0457 0 20Z" fill="#E94E0F"/>
<g clip-path="url(#clip1_769_17523)">
<path d="M-7 -6.10352e-05H46.3333V39.9999H-7V-6.10352e-05Z" fill="white"/>
<path d="M16.4668 -6.10352e-05H22.8668V39.9999H16.4668V-6.10352e-05Z" fill="#CE1124"/>
<path d="M46.3333 15.9999H-7V23.9999H46.3333V15.9999Z" fill="#CC0000"/>
<path fill-rule="evenodd" clip-rule="evenodd" d="M22.5999 12.2166C22.8499 11.8166 22.6999 11.5499 22.3165 11.4749C22.3165 11.4749 21.0749 11.8749 19.7332 11.9166C18.3999 11.9583 16.8165 11.5833 16.8165 11.5833C16.5249 11.7583 16.5915 12.1833 16.7332 12.4499C16.7332 12.4499 18.1332 12.9166 19.7332 12.8666C20.5865 12.8304 21.4306 12.6761 22.2415 12.4083C22.5499 12.3083 22.5999 12.2249 22.5999 12.2166Z" fill="#EBEAE3" stroke="black" stroke-width="0.0416667"/>
<path d="M19.6667 29.7999L17.0917 24.4499L11.1833 24.8999L14.5167 19.9999L11.1833 15.0999L17.1 15.5499L19.6667 10.2083L22.2417 15.5416L28.15 15.0999L24.8167 19.9999L28.15 24.8999L22.2333 24.4499L19.6667 29.7999Z" fill="white" stroke="#161111" stroke-width="0.133333"/>
<path fill-rule="evenodd" clip-rule="evenodd" d="M19.6251 10.1833C22.8584 10.7166 22.7417 10.8666 22.7417 10.8666L23.5834 8.34994C23.5834 8.34994 23.6751 7.84994 23.4417 7.54994C23.2084 7.24994 22.5667 7.4166 22.5667 7.4166C22.5667 7.4166 22.4834 7.00827 22.1917 6.9166C21.9084 6.8166 20.8584 7.2916 20.5251 7.39994C20.1917 7.50827 20.0251 7.60827 19.5667 7.59994C19.1084 7.59994 18.2834 7.18327 18.1251 7.09994C17.9834 7.02494 17.7584 6.94994 17.5501 6.95827C17.3501 6.95827 17.1334 7.0166 17.0251 7.15827C16.9251 7.29994 16.9251 7.48327 16.9251 7.48327C16.9251 7.48327 16.7584 7.37494 16.4917 7.37494C16.2251 7.37494 16.0751 7.40827 15.9501 7.54994C15.8251 7.6916 15.6667 8.0916 15.6667 8.0916L15.9667 8.77494L15.9834 9.7166L16.6084 10.7166L19.6251 10.1833Z" fill="#B02320" stroke="black" stroke-width="0.108333"/>
<path fill-rule="evenodd" clip-rule="evenodd" d="M22.6418 11.6083C22.6418 11.6083 22.8084 11.7999 22.8001 11.8749C22.7918 11.9416 22.7168 11.9999 22.7168 11.9999C22.7168 11.9999 22.7751 12.0499 22.7584 12.1249C22.7501 12.2083 22.6418 12.2083 22.6418 12.2083C22.6418 12.2083 22.6668 12.2749 22.6001 12.3083C22.5418 12.3416 22.2834 12.3916 22.2834 12.3916C22.2834 12.3916 21.0334 12.0416 19.7001 12.0416C18.3668 12.0416 16.7834 12.4749 16.7834 12.4749C16.7834 12.4749 16.6168 12.4166 16.6168 12.3083C16.6001 12.2083 16.6251 12.1333 16.6251 12.1333C16.6251 12.1333 16.5418 12.1333 16.5168 12.0583C16.4834 11.9499 16.5251 11.8666 16.5251 11.8666C16.5251 11.8666 16.4668 11.8833 16.5334 11.7416C16.5834 11.6333 16.6584 11.5999 16.6584 11.5999C16.6584 11.5999 18.0584 11.0999 19.6584 11.0916C21.2501 11.0916 22.6418 11.5916 22.6418 11.6083Z" fill="#EBEAE3" stroke="black" stroke-width="0.0416667"/>
<path d="M16.0168 8.45828C16.0168 8.45828 15.9668 8.27494 16.0834 8.11661C16.129 8.05956 16.191 8.01782 16.261 7.99697C16.331 7.97612 16.4057 7.97715 16.4751 7.99994C16.5418 8.03328 16.5334 8.10828 16.6168 8.12494C16.7001 8.14994 16.7668 8.08328 16.7668 8.08328" stroke="black" stroke-width="0.0916667"/>
<path fill-rule="evenodd" clip-rule="evenodd" d="M23.8166 8.88328L23.3333 9.88328L23.1416 9.91662C23.1416 9.91662 23.025 9.84995 22.6916 9.87495C22.4583 9.89162 22.3833 9.95828 22.3833 9.95828L22.8166 8.95828C22.8166 8.95828 22.85 9.16662 22.9 9.29162C22.9666 9.45828 23.2083 9.59995 23.2083 9.59995C23.2083 9.59995 23.2416 9.40828 23.175 9.18328C23.1115 8.97531 23.0335 8.77203 22.9416 8.57495L23.8166 8.88328Z" fill="#FFCC00" fill-opacity="0.9" stroke="black" stroke-width="0.1"/>
<path d="M19.375 5.7666H19.9167V8.07494H19.375V5.7666Z" fill="#121116" stroke="#121116" stroke-width="0.1" stroke-linejoin="round"/>
<path fill-rule="evenodd" clip-rule="evenodd" d="M16.05 10.0166L16.3917 10.7666C16.3917 10.7666 17.8834 10.1833 19.6334 10.1999C22.2584 10.2166 23.0084 10.7416 23.0084 10.7416L23.3917 9.8166L23.1 9.98326L22.8 10.1749L22.4667 10.2999L22.05 10.2749L21.6834 10.0083L21.5 9.6166L21.1917 9.89993L20.6417 10.0166L20.1084 9.88326L19.6417 9.2916C19.6417 9.2916 19.2917 9.94993 18.8417 9.9916C18.2 10.0416 17.8334 9.68326 17.8334 9.68326C17.8334 9.68326 17.5917 10.2166 17.2 10.3083C16.575 10.4666 16.0584 10.0166 16.05 10.0166Z" fill="#F6CA1F" stroke="black" stroke-width="0.0833333"/>
<path d="M22.0333 5.47495C22.0333 5.62495 21.9166 5.75829 21.7583 5.75829C21.7211 5.75829 21.6843 5.75096 21.6499 5.73672C21.6155 5.72248 21.5843 5.70161 21.558 5.6753C21.5317 5.64899 21.5108 5.61776 21.4965 5.58338C21.4823 5.54901 21.475 5.51216 21.475 5.47495C21.4739 5.43705 21.4804 5.39931 21.4941 5.36397C21.5078 5.32862 21.5285 5.2964 21.555 5.2692C21.5814 5.242 21.613 5.22038 21.6479 5.20562C21.6829 5.19087 21.7204 5.18327 21.7583 5.18329C21.832 5.18546 21.9019 5.21626 21.9533 5.26916C22.0046 5.32207 22.0333 5.3929 22.0333 5.46662" fill="#EEEEEE"/>
<path d="M22.0333 5.47495C22.0333 5.62495 21.9166 5.75829 21.7583 5.75829C21.7211 5.75829 21.6843 5.75096 21.6499 5.73672C21.6155 5.72248 21.5843 5.70161 21.558 5.6753C21.5317 5.64899 21.5108 5.61776 21.4965 5.58338C21.4823 5.54901 21.475 5.51216 21.475 5.47495C21.4739 5.43705 21.4804 5.39931 21.4941 5.36397C21.5078 5.32862 21.5285 5.2964 21.555 5.2692C21.5814 5.242 21.613 5.22038 21.6479 5.20562C21.6829 5.19087 21.7204 5.18327 21.7583 5.18329C21.832 5.18546 21.9019 5.21626 21.9533 5.26916C22.0046 5.32207 22.0333 5.3929 22.0333 5.46662" stroke="#1E1E1E" stroke-width="0.1" stroke-linejoin="round"/>
<path fill-rule="evenodd" clip-rule="evenodd" d="M21.625 5.61662C21.625 5.61662 21.85 5.61662 21.875 5.52496C21.9 5.42496 21.8583 5.30829 21.8583 5.30829C21.8583 5.30829 21.9667 5.42495 21.9417 5.51662C21.9083 5.60829 21.875 5.63329 21.8 5.65829C21.7413 5.66452 21.6822 5.64976 21.6333 5.61662H21.625Z" fill="#A3AFB8"/>
<path d="M21.3583 5.79161C21.3583 5.94161 21.2333 6.07494 21.075 6.07494C21.0378 6.07494 21.0009 6.06761 20.9665 6.05338C20.9322 6.03914 20.9009 6.01827 20.8746 5.99196C20.8483 5.96565 20.8274 5.93441 20.8132 5.90004C20.799 5.86566 20.7916 5.82882 20.7916 5.79161C20.7905 5.75299 20.7972 5.71455 20.8115 5.67864C20.8257 5.64274 20.8472 5.61012 20.8745 5.5828C20.9018 5.55549 20.9344 5.53404 20.9703 5.51979C21.0062 5.50555 21.0447 5.49879 21.0833 5.49994C21.157 5.49991 21.2279 5.52862 21.2808 5.57996C21.3337 5.63131 21.3645 5.70125 21.3666 5.77494" fill="#EEEEEE"/>
<path d="M21.3583 5.79161C21.3583 5.94161 21.2333 6.07494 21.075 6.07494C21.0378 6.07494 21.0009 6.06761 20.9665 6.05338C20.9322 6.03914 20.9009 6.01827 20.8746 5.99196C20.8483 5.96565 20.8274 5.93441 20.8132 5.90004C20.799 5.86566 20.7916 5.82882 20.7916 5.79161C20.7905 5.75299 20.7972 5.71455 20.8115 5.67864C20.8257 5.64274 20.8472 5.61012 20.8745 5.5828C20.9018 5.55549 20.9344 5.53404 20.9703 5.51979C21.0062 5.50555 21.0447 5.49879 21.0833 5.49994C21.157 5.49991 21.2279 5.52862 21.2808 5.57996C21.3337 5.63131 21.3645 5.70125 21.3666 5.77494" stroke="#1E1E1E" stroke-width="0.1" stroke-linejoin="round"/>
<path fill-rule="evenodd" clip-rule="evenodd" d="M20.9417 5.93327C20.9417 5.93327 21.175 5.93327 21.1917 5.84161C21.2167 5.74994 21.175 5.62494 21.175 5.62494C21.175 5.62494 21.2833 5.74994 21.2583 5.84161C21.225 5.92494 21.1917 5.95827 21.1167 5.97494C21.0579 5.98117 20.9989 5.96641 20.95 5.93327H20.9417Z" fill="#A3AFB8"/>
<path d="M22.8333 5.28327C22.8333 5.44161 22.6999 5.56661 22.5499 5.56661C22.4748 5.56661 22.4027 5.53675 22.3496 5.48362C22.2965 5.43048 22.2666 5.35842 22.2666 5.28327C22.2666 5.20955 22.2953 5.13872 22.3466 5.08582C22.398 5.03291 22.4679 5.00211 22.5416 4.99994C22.6167 4.99994 22.6888 5.02979 22.7419 5.08293C22.7951 5.13606 22.8249 5.20813 22.8249 5.28327" fill="#EEEEEE"/>
<path d="M22.8333 5.28327C22.8333 5.44161 22.6999 5.56661 22.5499 5.56661C22.4748 5.56661 22.4027 5.53675 22.3496 5.48362C22.2965 5.43048 22.2666 5.35842 22.2666 5.28327C22.2666 5.20955 22.2953 5.13872 22.3466 5.08582C22.398 5.03291 22.4679 5.00211 22.5416 4.99994C22.6167 4.99994 22.6888 5.02979 22.7419 5.08293C22.7951 5.13606 22.8249 5.20813 22.8249 5.28327" stroke="#1E1E1E" stroke-width="0.1" stroke-linejoin="round"/>
<path fill-rule="evenodd" clip-rule="evenodd" d="M22.4167 5.43327C22.4167 5.43327 22.6417 5.43327 22.6667 5.33327C22.6917 5.24161 22.6501 5.12494 22.6501 5.12494C22.6501 5.12494 22.7584 5.24161 22.7334 5.33327C22.7001 5.42494 22.6667 5.44994 22.5917 5.46661C22.534 5.4753 22.475 5.46351 22.4251 5.43327H22.4167Z" fill="#A3AFB8"/>
<path d="M23.7168 5.46662C23.7168 5.61662 23.5918 5.74996 23.4418 5.74996C23.3666 5.74996 23.2946 5.7201 23.2414 5.66697C23.1883 5.61383 23.1584 5.54177 23.1584 5.46662C23.1584 5.39148 23.1883 5.31941 23.2414 5.26627C23.2946 5.21314 23.3666 5.18329 23.4418 5.18329C23.5141 5.18538 23.5828 5.21503 23.6339 5.26616C23.685 5.31728 23.7147 5.38602 23.7168 5.45829" fill="#EEEEEE"/>
<path d="M23.7168 5.46662C23.7168 5.61662 23.5918 5.74996 23.4418 5.74996C23.3666 5.74996 23.2946 5.7201 23.2414 5.66697C23.1883 5.61383 23.1584 5.54177 23.1584 5.46662C23.1584 5.39148 23.1883 5.31941 23.2414 5.26627C23.2946 5.21314 23.3666 5.18329 23.4418 5.18329C23.5141 5.18538 23.5828 5.21503 23.6339 5.26616C23.685 5.31728 23.7147 5.38602 23.7168 5.45829" stroke="#1E1E1E" stroke-width="0.1" stroke-linejoin="round"/>
<path fill-rule="evenodd" clip-rule="evenodd" d="M23.3083 5.60826C23.3083 5.60826 23.5333 5.60826 23.5583 5.51659C23.5833 5.41659 23.5417 5.29993 23.5417 5.29993C23.5417 5.29993 23.65 5.41659 23.625 5.51659C23.5917 5.59993 23.5583 5.62493 23.4833 5.64993C23.4219 5.65823 23.3595 5.64338 23.3083 5.60826Z" fill="#A3AFB8"/>
<path d="M24.3999 6.02494C24.3999 6.17494 24.2749 6.30827 24.1166 6.30827C24.0414 6.30827 23.9694 6.27842 23.9162 6.22529C23.8631 6.17215 23.8333 6.10009 23.8333 6.02494C23.8333 5.9498 23.8631 5.87773 23.9162 5.82459C23.9694 5.77146 24.0414 5.74161 24.1166 5.74161C24.1903 5.74158 24.2611 5.77028 24.314 5.82163C24.3669 5.87297 24.3977 5.94292 24.3999 6.01661" fill="#EEEEEE"/>
<path d="M24.3999 6.02494C24.3999 6.17494 24.2749 6.30827 24.1166 6.30827C24.0414 6.30827 23.9694 6.27842 23.9162 6.22529C23.8631 6.17215 23.8333 6.10009 23.8333 6.02494C23.8333 5.9498 23.8631 5.87773 23.9162 5.82459C23.9694 5.77146 24.0414 5.74161 24.1166 5.74161C24.1903 5.74158 24.2611 5.77028 24.314 5.82163C24.3669 5.87297 24.3977 5.94292 24.3999 6.01661" stroke="#1E1E1E" stroke-width="0.1" stroke-linejoin="round"/>
<path fill-rule="evenodd" clip-rule="evenodd" d="M23.9917 6.16661C23.9917 6.16661 24.2167 6.16661 24.2417 6.07494C24.2584 5.98328 24.225 5.85828 24.225 5.85828C24.225 5.85828 24.3334 5.98328 24.3 6.07494C24.2667 6.15828 24.2417 6.19161 24.1584 6.20828C24.1084 6.21661 24.0334 6.19994 23.9917 6.16661Z" fill="#A3AFB8"/>
<path d="M24.6916 6.9416C24.6916 7.09993 24.5666 7.22493 24.4083 7.22493C24.3346 7.22276 24.2647 7.19196 24.2133 7.13905C24.162 7.08615 24.1333 7.01532 24.1333 6.9416C24.1333 6.86787 24.162 6.79704 24.2133 6.74414C24.2647 6.69124 24.3346 6.66043 24.4083 6.65826C24.4834 6.65826 24.5555 6.68812 24.6086 6.74125C24.6618 6.79439 24.6916 6.86645 24.6916 6.9416Z" fill="#EEEEEE" stroke="#1E1E1E" stroke-width="0.1" stroke-linejoin="round"/>
<path fill-rule="evenodd" clip-rule="evenodd" d="M24.2834 7.08327C24.2834 7.08327 24.5084 7.08327 24.5334 6.9916C24.5501 6.89993 24.5168 6.77493 24.5168 6.77493C24.5168 6.77493 24.6251 6.89993 24.5918 6.9916C24.5584 7.07493 24.5334 7.10827 24.4501 7.12493C24.3914 7.13117 24.3323 7.11641 24.2834 7.08327Z" fill="#A3AFB8"/>
<path d="M24.5834 7.86662C24.5834 8.03328 24.4584 8.14995 24.3 8.14995C24.2278 8.14785 24.159 8.11821 24.1079 8.06708C24.0568 8.01596 24.0271 7.94722 24.025 7.87495C24.0239 7.83774 24.0302 7.80067 24.0434 7.76587C24.0566 7.73107 24.0765 7.69921 24.1021 7.67213C24.1276 7.64504 24.1583 7.62325 24.1922 7.60801C24.2262 7.59276 24.2628 7.58436 24.3 7.58328C24.3752 7.58328 24.4472 7.61313 24.5004 7.66627C24.5535 7.7194 24.5834 7.79147 24.5834 7.86662Z" fill="#EEEEEE"/>
<path d="M24.5834 7.86662C24.5834 8.03328 24.4584 8.14995 24.3 8.14995C24.2278 8.14785 24.159 8.11821 24.1079 8.06708C24.0568 8.01596 24.0271 7.94722 24.025 7.87495C24.0239 7.83774 24.0302 7.80067 24.0434 7.76587C24.0566 7.73107 24.0765 7.69921 24.1021 7.67213C24.1276 7.64504 24.1583 7.62325 24.1922 7.60801C24.2262 7.59276 24.2628 7.58436 24.3 7.58328C24.3752 7.58328 24.4472 7.61313 24.5004 7.66627C24.5535 7.7194 24.5834 7.79147 24.5834 7.86662" stroke="#1E1E1E" stroke-width="0.1" stroke-linejoin="round"/>
<path fill-rule="evenodd" clip-rule="evenodd" d="M24.1667 8.01662C24.1667 8.01662 24.4001 8.01662 24.4167 7.91662C24.4417 7.83328 24.4084 7.70828 24.4084 7.70828C24.4084 7.70828 24.5167 7.82495 24.4834 7.91662C24.4501 8.00828 24.4251 8.03328 24.3417 8.04995C24.284 8.05864 24.225 8.04685 24.1751 8.01662H24.1667Z" fill="#A3AFB8"/>
<path d="M24.1667 8.68327C24.1667 8.8416 24.0417 8.9666 23.8917 8.9666C23.8166 8.9666 23.7445 8.93675 23.6914 8.88361C23.6383 8.83048 23.6084 8.75841 23.6084 8.68327C23.6084 8.60812 23.6383 8.53605 23.6914 8.48292C23.7445 8.42978 23.8166 8.39993 23.8917 8.39993C23.9654 8.4021 24.0354 8.43291 24.0867 8.48581C24.1381 8.53871 24.1668 8.60954 24.1667 8.68327Z" fill="#EEEEEE"/>
<path d="M24.1667 8.68327C24.1667 8.8416 24.0417 8.9666 23.8917 8.9666C23.8166 8.9666 23.7445 8.93675 23.6914 8.88361C23.6383 8.83048 23.6084 8.75841 23.6084 8.68327C23.6084 8.60812 23.6383 8.53605 23.6914 8.48292C23.7445 8.42978 23.8166 8.39993 23.8917 8.39993C23.9654 8.4021 24.0354 8.43291 24.0867 8.48581C24.1381 8.53871 24.1668 8.60954 24.1667 8.68327" stroke="#1E1E1E" stroke-width="0.1" stroke-linejoin="round"/>
<path fill-rule="evenodd" clip-rule="evenodd" d="M23.7583 8.83327C23.7583 8.83327 23.9833 8.83327 24.0083 8.73327C24.0333 8.64993 23.9916 8.52493 23.9916 8.52493C23.9916 8.52493 24.1 8.6416 24.075 8.73327C24.0416 8.82493 24.0083 8.84993 23.9333 8.8666C23.8756 8.87529 23.8166 8.8635 23.7666 8.83327H23.7583Z" fill="#A3AFB8"/>
<path d="M20.6916 6.03327C20.6916 6.19161 20.5666 6.31661 20.4166 6.31661C20.3415 6.31661 20.2694 6.28675 20.2163 6.23362C20.1632 6.18048 20.1333 6.10842 20.1333 6.03327C20.1333 5.95955 20.162 5.88872 20.2133 5.83581C20.2647 5.78291 20.3346 5.75211 20.4083 5.74994C20.4834 5.74994 20.5555 5.77979 20.6086 5.83293C20.6618 5.88606 20.6916 5.95813 20.6916 6.03327Z" fill="#EEEEEE" stroke="#1E1E1E" stroke-width="0.1" stroke-linejoin="round"/>
<path fill-rule="evenodd" clip-rule="evenodd" d="M20.2834 6.18327C20.2834 6.18327 20.5084 6.18327 20.5334 6.08327C20.5584 5.99161 20.5168 5.87494 20.5168 5.87494C20.5168 5.87494 20.6251 5.99161 20.6001 6.08327C20.5668 6.17494 20.5334 6.19994 20.4584 6.21661C20.4001 6.23327 20.3251 6.21661 20.2834 6.18327Z" fill="#A3AFB8"/>
<path d="M19.8416 5.95831C19.8427 5.98964 19.8375 6.02089 19.8263 6.05016C19.815 6.07944 19.798 6.10616 19.7762 6.12871C19.7545 6.15127 19.7284 6.16921 19.6995 6.18145C19.6706 6.1937 19.6396 6.2 19.6082 6.19998C19.5769 6.2 19.5458 6.1937 19.517 6.18145C19.4881 6.16921 19.462 6.15127 19.4402 6.12871C19.4184 6.10616 19.4014 6.07944 19.3902 6.05016C19.379 6.02089 19.3738 5.98964 19.3749 5.95831C19.3749 5.89643 19.3995 5.83708 19.4432 5.79332C19.487 5.74956 19.5464 5.72498 19.6082 5.72498C19.6701 5.72498 19.7295 5.74956 19.7732 5.79332C19.817 5.83708 19.8416 5.89643 19.8416 5.95831Z" fill="#EEEEEE"/>
<path d="M19.8416 5.95831C19.8427 5.98964 19.8375 6.02089 19.8263 6.05016C19.815 6.07944 19.798 6.10616 19.7762 6.12871C19.7545 6.15127 19.7284 6.16921 19.6995 6.18145C19.6706 6.1937 19.6396 6.2 19.6082 6.19998C19.5769 6.2 19.5458 6.1937 19.517 6.18145C19.4881 6.16921 19.462 6.15127 19.4402 6.12871C19.4184 6.10616 19.4014 6.07944 19.3902 6.05016C19.379 6.02089 19.3738 5.98964 19.3749 5.95831C19.3749 5.89643 19.3995 5.83708 19.4432 5.79332C19.487 5.74956 19.5464 5.72498 19.6082 5.72498C19.6701 5.72498 19.7295 5.74956 19.7732 5.79332C19.817 5.83708 19.8416 5.89643 19.8416 5.95831" stroke="#1E1E1E" stroke-width="0.1" stroke-linejoin="round"/>
<path fill-rule="evenodd" clip-rule="evenodd" d="M19.5 6.08331C19.5 6.08331 19.6917 6.08331 19.7083 5.99998C19.7333 5.92498 19.7 5.83331 19.7 5.83331C19.7 5.83331 19.7833 5.92498 19.7667 5.99998C19.7333 6.08331 19.7083 6.09998 19.65 6.11665C19.5976 6.12505 19.5439 6.11313 19.5 6.08331Z" fill="#A3AFB8"/>
<path d="M19.8501 6.24994C19.8524 6.28195 19.848 6.31409 19.8373 6.34435C19.8266 6.37462 19.8098 6.40235 19.7879 6.42581C19.766 6.44927 19.7395 6.46797 19.7101 6.48072C19.6806 6.49348 19.6488 6.50002 19.6167 6.49994C19.5846 6.50002 19.5529 6.49348 19.5234 6.48072C19.494 6.46797 19.4675 6.44927 19.4456 6.42581C19.4237 6.40235 19.4068 6.37462 19.3961 6.34435C19.3855 6.31409 19.3811 6.28195 19.3834 6.24994C19.3834 6.21929 19.3894 6.18895 19.4012 6.16064C19.4129 6.13233 19.4301 6.10661 19.4518 6.08494C19.4734 6.06328 19.4991 6.04609 19.5274 6.03436C19.5558 6.02264 19.5861 6.0166 19.6167 6.0166C19.6786 6.0166 19.738 6.04119 19.7817 6.08494C19.8255 6.1287 19.8501 6.18805 19.8501 6.24994Z" fill="#EEEEEE"/>
<path d="M19.8501 6.24994C19.8524 6.28195 19.848 6.31409 19.8373 6.34435C19.8266 6.37462 19.8098 6.40235 19.7879 6.42581C19.766 6.44927 19.7395 6.46797 19.7101 6.48072C19.6806 6.49348 19.6488 6.50002 19.6167 6.49994C19.5846 6.50002 19.5529 6.49348 19.5234 6.48072C19.494 6.46797 19.4675 6.44927 19.4456 6.42581C19.4237 6.40235 19.4068 6.37462 19.3961 6.34435C19.3855 6.31409 19.3811 6.28195 19.3834 6.24994C19.3834 6.21929 19.3894 6.18895 19.4012 6.16064C19.4129 6.13233 19.4301 6.10661 19.4518 6.08494C19.4734 6.06328 19.4991 6.04609 19.5274 6.03436C19.5558 6.02264 19.5861 6.0166 19.6167 6.0166C19.6786 6.0166 19.738 6.04119 19.7817 6.08494C19.8255 6.1287 19.8501 6.18805 19.8501 6.24994" stroke="#1E1E1E" stroke-width="0.1" stroke-linejoin="round"/>
<path fill-rule="evenodd" clip-rule="evenodd" d="M19.5 6.37494C19.5 6.37494 19.6917 6.37494 19.7167 6.29161C19.7333 6.22494 19.7 6.12494 19.7 6.12494C19.7 6.12494 19.7833 6.22494 19.7667 6.29161C19.7417 6.37494 19.7167 6.39161 19.65 6.40827C19.6003 6.41455 19.55 6.40272 19.5083 6.37494H19.5Z" fill="#A3AFB8"/>
<path d="M19.8668 6.69159C19.8668 6.75347 19.8422 6.81282 19.7984 6.85658C19.7547 6.90034 19.6953 6.92492 19.6334 6.92492C19.6021 6.92604 19.5708 6.92084 19.5416 6.90961C19.5123 6.89839 19.4856 6.88138 19.463 6.8596C19.4405 6.83782 19.4225 6.81172 19.4103 6.78285C19.398 6.75398 19.3917 6.72295 19.3918 6.69159C19.3906 6.65954 19.396 6.62759 19.4078 6.59774C19.4195 6.5679 19.4373 6.54079 19.4599 6.51811C19.4826 6.49543 19.5097 6.47767 19.5396 6.46594C19.5694 6.45421 19.6014 6.44876 19.6334 6.44992C19.6648 6.4499 19.6958 6.4562 19.7247 6.46845C19.7535 6.48069 19.7797 6.49863 19.8014 6.52118C19.8232 6.54374 19.8402 6.57046 19.8514 6.59974C19.8627 6.62901 19.8679 6.66025 19.8668 6.69159Z" fill="#EEEEEE" stroke="#1E1E1E" stroke-width="0.1" stroke-linejoin="round"/>
<path fill-rule="evenodd" clip-rule="evenodd" d="M19.5249 6.81659C19.5249 6.81659 19.7082 6.81659 19.7332 6.73326C19.7499 6.64993 19.7166 6.55826 19.7166 6.55826C19.7166 6.55826 19.7999 6.65826 19.7832 6.72492C19.7582 6.80826 19.7332 6.83326 19.6666 6.84159C19.6179 6.85034 19.5677 6.84148 19.5249 6.81659Z" fill="#A3AFB8"/>
<path d="M19.8917 7.14994C19.8928 7.18346 19.8872 7.21687 19.8751 7.24817C19.8631 7.27947 19.8448 7.30802 19.8215 7.33212C19.7982 7.35623 19.7702 7.37539 19.7393 7.38847C19.7084 7.40156 19.6752 7.40829 19.6417 7.40827C19.6082 7.40939 19.5748 7.40375 19.5435 7.39169C19.5122 7.37962 19.4836 7.36139 19.4595 7.33806C19.4354 7.31473 19.4162 7.28679 19.4032 7.2559C19.3901 7.22502 19.3834 7.19181 19.3834 7.15827C19.3811 7.12406 19.3859 7.08975 19.3974 7.05747C19.4089 7.02519 19.427 6.99563 19.4504 6.97062C19.4739 6.94561 19.5022 6.92569 19.5337 6.91209C19.5652 6.8985 19.5991 6.89153 19.6334 6.8916C19.6669 6.89158 19.7001 6.89832 19.731 6.9114C19.7619 6.92448 19.7898 6.94364 19.8132 6.96775C19.8365 6.99185 19.8547 7.0204 19.8668 7.0517C19.8788 7.083 19.8845 7.11641 19.8834 7.14994" fill="#EEEEEE"/>
<path d="M19.8917 7.14994C19.8928 7.18346 19.8872 7.21687 19.8751 7.24817C19.8631 7.27947 19.8448 7.30802 19.8215 7.33212C19.7982 7.35623 19.7702 7.37539 19.7393 7.38847C19.7084 7.40156 19.6752 7.40829 19.6417 7.40827C19.6082 7.40939 19.5748 7.40375 19.5435 7.39169C19.5122 7.37962 19.4836 7.36139 19.4595 7.33806C19.4354 7.31473 19.4162 7.28679 19.4032 7.2559C19.3901 7.22502 19.3834 7.19181 19.3834 7.15827C19.3811 7.12406 19.3859 7.08975 19.3974 7.05747C19.4089 7.02519 19.427 6.99563 19.4504 6.97062C19.4739 6.94561 19.5022 6.92569 19.5337 6.91209C19.5652 6.8985 19.5991 6.89153 19.6334 6.8916C19.6669 6.89158 19.7001 6.89832 19.731 6.9114C19.7619 6.92448 19.7898 6.94364 19.8132 6.96775C19.8365 6.99185 19.8547 7.0204 19.8668 7.0517C19.8788 7.083 19.8845 7.11641 19.8834 7.14994" stroke="#1E1E1E" stroke-width="0.1" stroke-linejoin="round"/>
<path fill-rule="evenodd" clip-rule="evenodd" d="M19.5166 7.28327C19.5166 7.28327 19.7249 7.28327 19.7416 7.19994C19.7583 7.1166 19.7249 7.00827 19.7249 7.00827C19.7249 7.00827 19.8249 7.1166 19.7999 7.19994C19.7666 7.28327 19.7416 7.29994 19.6749 7.3166C19.6198 7.32636 19.5631 7.31441 19.5166 7.28327Z" fill="#A3AFB8"/>
<path d="M19.9166 7.77494C19.9166 7.92494 19.7916 8.05828 19.6333 8.05828C19.5596 8.05611 19.4896 8.0253 19.4383 7.9724C19.387 7.9195 19.3582 7.84867 19.3583 7.77494C19.3572 7.73773 19.3634 7.70067 19.3766 7.66586C19.3898 7.63106 19.4098 7.59921 19.4353 7.57212C19.4609 7.54503 19.4915 7.52325 19.5255 7.508C19.5594 7.49276 19.5961 7.48435 19.6333 7.48328C19.7084 7.48328 19.7805 7.51313 19.8336 7.56626C19.8868 7.6194 19.9166 7.69146 19.9166 7.76661" fill="#EEEEEE"/>
<path d="M19.9166 7.77494C19.9166 7.92494 19.7916 8.05828 19.6333 8.05828C19.5596 8.05611 19.4896 8.0253 19.4383 7.9724C19.387 7.9195 19.3582 7.84867 19.3583 7.77494C19.3572 7.73773 19.3634 7.70067 19.3766 7.66586C19.3898 7.63106 19.4098 7.59921 19.4353 7.57212C19.4609 7.54503 19.4915 7.52325 19.5255 7.508C19.5594 7.49276 19.5961 7.48435 19.6333 7.48328C19.7084 7.48328 19.7805 7.51313 19.8336 7.56626C19.8868 7.6194 19.9166 7.69146 19.9166 7.76661" stroke="#1E1E1E" stroke-width="0.1" stroke-linejoin="round"/>
<path fill-rule="evenodd" clip-rule="evenodd" d="M19.5 7.91661C19.5 7.91661 19.7333 7.91661 19.75 7.82494C19.775 7.73328 19.7417 7.60828 19.7417 7.60828C19.7417 7.60828 19.85 7.73328 19.8167 7.82494C19.7833 7.90828 19.7583 7.94161 19.675 7.95828C19.6163 7.96451 19.5572 7.94975 19.5083 7.91661H19.5Z" fill="#A3AFB8"/>
<path d="M19.8917 9.0416C19.8917 9.1916 19.7751 9.30827 19.6251 9.30827C19.5543 9.30827 19.4865 9.28017 19.4365 9.23016C19.3865 9.18015 19.3584 9.11232 19.3584 9.0416C19.3584 8.89993 19.4751 8.77493 19.6251 8.77493C19.6958 8.77493 19.7636 8.80303 19.8136 8.85304C19.8636 8.90305 19.8917 8.97087 19.8917 9.0416Z" fill="#EEEEEE"/>
<path d="M19.8917 9.0416C19.8917 9.1916 19.7751 9.30827 19.6251 9.30827C19.5543 9.30827 19.4865 9.28017 19.4365 9.23016C19.3865 9.18015 19.3584 9.11232 19.3584 9.0416C19.3584 8.89993 19.4751 8.77493 19.6251 8.77493C19.6958 8.77493 19.7636 8.80303 19.8136 8.85304C19.8636 8.90305 19.8917 8.97087 19.8917 9.0416" stroke="#1E1E1E" stroke-width="0.1" stroke-linejoin="round"/>
<path fill-rule="evenodd" clip-rule="evenodd" d="M19.5 9.18324C19.5 9.18324 19.7167 9.18324 19.7333 9.09157C19.7583 9.00824 19.725 8.89157 19.725 8.89157C19.725 8.89157 19.825 8.9999 19.7917 9.09157C19.7667 9.1749 19.7333 9.1999 19.6667 9.21657C19.6167 9.2249 19.5417 9.20824 19.5 9.18324Z" fill="#A3AFB8"/>
<path d="M19.1333 6.02494C19.1333 6.18327 19 6.30827 18.85 6.30827C18.7748 6.30827 18.7028 6.27842 18.6496 6.22529C18.5965 6.17215 18.5667 6.10009 18.5667 6.02494C18.5667 5.9498 18.5965 5.87773 18.6496 5.82459C18.7028 5.77146 18.7748 5.74161 18.85 5.74161C18.9251 5.74161 18.9972 5.77146 19.0503 5.82459C19.1035 5.87773 19.1333 5.9498 19.1333 6.02494Z" fill="#EEEEEE" stroke="#1E1E1E" stroke-width="0.1" stroke-linejoin="round"/>
<path fill-rule="evenodd" clip-rule="evenodd" d="M18.7168 6.16661C18.7168 6.16661 18.9418 6.16661 18.9668 6.08327C18.9918 5.98327 18.9501 5.86661 18.9501 5.86661C18.9501 5.86661 19.0585 5.98327 19.0335 6.07494C19.0001 6.16661 18.9668 6.19161 18.8918 6.20827C18.8341 6.21697 18.7751 6.20518 18.7251 6.17494L18.7168 6.16661Z" fill="#A3AFB8"/>
<path d="M18.4333 5.74995C18.4333 5.90828 18.3083 6.03328 18.15 6.03328C18.0763 6.03111 18.0064 6.00031 17.955 5.9474C17.9037 5.8945 17.875 5.82367 17.875 5.74995C17.875 5.67622 17.9037 5.60539 17.955 5.55249C18.0064 5.49959 18.0763 5.46878 18.15 5.46661C18.2251 5.46661 18.2972 5.49647 18.3503 5.5496C18.4035 5.60274 18.4333 5.6748 18.4333 5.74995Z" fill="#EEEEEE" stroke="#1E1E1E" stroke-width="0.1" stroke-linejoin="round"/>
<path fill-rule="evenodd" clip-rule="evenodd" d="M18.0249 5.89995C18.0249 5.89995 18.2499 5.89995 18.2749 5.79995C18.2916 5.71661 18.2582 5.59161 18.2582 5.59161C18.2582 5.59161 18.3666 5.70828 18.3416 5.79995C18.2999 5.89161 18.2749 5.91661 18.1916 5.93328C18.1416 5.94995 18.0666 5.93328 18.0249 5.89995Z" fill="#A3AFB8"/>
<path d="M17.7667 5.4416C17.7667 5.5916 17.6417 5.72493 17.4917 5.72493C17.4166 5.72493 17.3445 5.69508 17.2914 5.64195C17.2382 5.58881 17.2084 5.51674 17.2084 5.4416C17.2073 5.40439 17.2135 5.36732 17.2267 5.33252C17.2399 5.29772 17.2599 5.26586 17.2854 5.23878C17.311 5.21169 17.3416 5.1899 17.3756 5.17466C17.4095 5.15941 17.4462 5.15101 17.4834 5.14993C17.5585 5.14993 17.6306 5.17978 17.6837 5.23292C17.7369 5.28605 17.7667 5.35812 17.7667 5.43327" fill="#EEEEEE"/>
<path d="M17.7667 5.4416C17.7667 5.5916 17.6417 5.72493 17.4917 5.72493C17.4166 5.72493 17.3445 5.69508 17.2914 5.64195C17.2382 5.58881 17.2084 5.51674 17.2084 5.4416C17.2073 5.40439 17.2135 5.36732 17.2267 5.33252C17.2399 5.29772 17.2599 5.26586 17.2854 5.23878C17.311 5.21169 17.3416 5.1899 17.3756 5.17466C17.4095 5.15941 17.4462 5.15101 17.4834 5.14993C17.5585 5.14993 17.6306 5.17978 17.6837 5.23292C17.7369 5.28605 17.7667 5.35812 17.7667 5.43327" stroke="#1E1E1E" stroke-width="0.1" stroke-linejoin="round"/>
<path fill-rule="evenodd" clip-rule="evenodd" d="M17.3584 5.58327C17.3584 5.58327 17.5834 5.58327 17.6084 5.4916C17.6334 5.39993 17.5917 5.27493 17.5917 5.27493C17.5917 5.27493 17.7001 5.39993 17.6751 5.4916C17.6417 5.57493 17.6084 5.60827 17.5334 5.62493C17.4719 5.63324 17.4095 5.61839 17.3584 5.58327Z" fill="#A3AFB8"/>
<path d="M17.0001 5.27494C17.0001 5.43328 16.8834 5.55828 16.7251 5.55828C16.65 5.55828 16.5779 5.52843 16.5248 5.47529C16.4716 5.42215 16.4418 5.35009 16.4418 5.27494C16.4407 5.23704 16.4472 5.1993 16.4609 5.16396C16.4746 5.12861 16.4953 5.09639 16.5218 5.06919C16.5482 5.04199 16.5798 5.02037 16.6147 5.00561C16.6497 4.99086 16.6872 4.98326 16.7251 4.98328C16.8003 4.98328 16.8723 5.01313 16.9255 5.06626C16.9786 5.1194 17.0084 5.19147 17.0084 5.26661" fill="#EEEEEE"/>
<path d="M17.0001 5.27494C17.0001 5.43328 16.8834 5.55828 16.7251 5.55828C16.65 5.55828 16.5779 5.52843 16.5248 5.47529C16.4716 5.42215 16.4418 5.35009 16.4418 5.27494C16.4407 5.23704 16.4472 5.1993 16.4609 5.16396C16.4746 5.12861 16.4953 5.09639 16.5218 5.06919C16.5482 5.04199 16.5798 5.02037 16.6147 5.00561C16.6497 4.99086 16.6872 4.98326 16.7251 4.98328C16.8003 4.98328 16.8723 5.01313 16.9255 5.06626C16.9786 5.1194 17.0084 5.19147 17.0084 5.26661" stroke="#1E1E1E" stroke-width="0.1" stroke-linejoin="round"/>
<path fill-rule="evenodd" clip-rule="evenodd" d="M16.5918 5.41661C16.5918 5.41661 16.8168 5.41661 16.8418 5.32494C16.8668 5.23328 16.8251 5.10828 16.8251 5.10828C16.8251 5.10828 16.9335 5.23328 16.9085 5.32494C16.8751 5.40828 16.8418 5.44161 16.7668 5.45828C16.7081 5.46451 16.649 5.44975 16.6001 5.41661H16.5918Z" fill="#A3AFB8"/>
<path d="M16.1 5.48328C16.1 5.64995 15.975 5.76662 15.825 5.77495C15.7498 5.77495 15.6777 5.7451 15.6246 5.69196C15.5715 5.63883 15.5416 5.56676 15.5416 5.49162C15.5405 5.45371 15.547 5.41597 15.5608 5.38063C15.5745 5.34529 15.5952 5.31306 15.6216 5.28586C15.648 5.25866 15.6796 5.23704 15.7146 5.22229C15.7495 5.20753 15.787 5.19993 15.825 5.19995C15.8987 5.20212 15.9686 5.23292 16.0199 5.28583C16.0713 5.33873 16.1 5.40956 16.1 5.48328Z" fill="#EEEEEE" stroke="#1E1E1E" stroke-width="0.1" stroke-linejoin="round"/>
<path fill-rule="evenodd" clip-rule="evenodd" d="M15.6917 5.63328C15.6917 5.63328 15.9167 5.63328 15.9417 5.54162C15.9667 5.44162 15.925 5.32495 15.925 5.32495C15.925 5.32495 16.0333 5.44162 16.0083 5.53328C15.975 5.62495 15.9417 5.64995 15.8667 5.67495C15.8079 5.68119 15.7489 5.66642 15.7 5.63328H15.6917Z" fill="#A3AFB8"/>
<path d="M15.4668 6.12495C15.4668 6.28328 15.3418 6.40828 15.1834 6.40828C15.1098 6.40611 15.0398 6.37531 14.9885 6.3224C14.9371 6.2695 14.9084 6.19867 14.9084 6.12495C14.9084 6.05122 14.9371 5.98039 14.9885 5.92749C15.0398 5.87459 15.1098 5.84378 15.1834 5.84161C15.2586 5.84161 15.3307 5.87147 15.3838 5.9246C15.4369 5.97774 15.4668 6.0498 15.4668 6.12495Z" fill="#EEEEEE" stroke="#1E1E1E" stroke-width="0.1" stroke-linejoin="round"/>
<path fill-rule="evenodd" clip-rule="evenodd" d="M15.0583 6.26662C15.0583 6.26662 15.2833 6.26662 15.3083 6.17495C15.325 6.08328 15.2917 5.95828 15.2917 5.95828C15.2917 5.95828 15.4 6.08328 15.3667 6.17495C15.3333 6.25828 15.3083 6.29162 15.225 6.30828C15.1663 6.31452 15.1072 6.29976 15.0583 6.26662Z" fill="#A3AFB8"/>
<path d="M15.1999 7.01661C15.1999 7.17494 15.0749 7.29994 14.9249 7.29994C14.8498 7.29994 14.7777 7.27009 14.7246 7.21696C14.6715 7.16382 14.6416 7.09175 14.6416 7.01661C14.6416 6.94289 14.6703 6.87205 14.7216 6.81915C14.773 6.76625 14.8429 6.73544 14.9166 6.73328C14.9903 6.73324 15.0612 6.76195 15.1141 6.81329C15.167 6.86464 15.1978 6.93459 15.1999 7.00828" fill="#EEEEEE"/>
<path d="M15.1999 7.01661C15.1999 7.17494 15.0749 7.29994 14.9249 7.29994C14.8498 7.29994 14.7777 7.27009 14.7246 7.21696C14.6715 7.16382 14.6416 7.09175 14.6416 7.01661C14.6416 6.94289 14.6703 6.87205 14.7216 6.81915C14.773 6.76625 14.8429 6.73544 14.9166 6.73328C14.9903 6.73324 15.0612 6.76195 15.1141 6.81329C15.167 6.86464 15.1978 6.93459 15.1999 7.00828" stroke="#1E1E1E" stroke-width="0.1" stroke-linejoin="round"/>
<path fill-rule="evenodd" clip-rule="evenodd" d="M14.7917 7.16661C14.7917 7.16661 15.0167 7.15828 15.0417 7.06661C15.0667 6.97495 15.0251 6.84995 15.0251 6.84995C15.0251 6.84995 15.1334 6.97495 15.1084 7.06661C15.0751 7.14995 15.0417 7.18328 14.9667 7.19995C14.9053 7.20825 14.8429 7.1934 14.7917 7.15828V7.16661Z" fill="#A3AFB8"/>
<path d="M15.3168 7.9416C15.3168 8.10826 15.1918 8.23326 15.0418 8.23326C14.9666 8.23326 14.8945 8.20341 14.8414 8.15028C14.7883 8.09714 14.7584 8.02508 14.7584 7.94993C14.7573 7.91272 14.7635 7.87565 14.7768 7.84085C14.79 7.80605 14.8099 7.7742 14.8355 7.74711C14.861 7.72002 14.8917 7.69823 14.9256 7.68299C14.9596 7.66774 14.9962 7.65934 15.0334 7.65826C15.1086 7.65826 15.1806 7.68812 15.2338 7.74125C15.2869 7.79439 15.3168 7.86645 15.3168 7.9416Z" fill="#EEEEEE" stroke="#1E1E1E" stroke-width="0.1" stroke-linejoin="round"/>
<path fill-rule="evenodd" clip-rule="evenodd" d="M14.9084 8.0916C14.9084 8.0916 15.1334 8.0916 15.1584 7.9916C15.1834 7.90826 15.1418 7.78326 15.1418 7.78326C15.1418 7.78326 15.2501 7.89993 15.2251 7.9916C15.1918 8.08326 15.1584 8.10826 15.0834 8.13326C15.0247 8.1395 14.9657 8.12474 14.9168 8.0916H14.9084Z" fill="#A3AFB8"/>
<path d="M15.7501 8.79161C15.7501 8.94161 15.6251 9.07494 15.4668 9.07494C15.3931 9.07277 15.3231 9.04196 15.2718 8.98906C15.2204 8.93616 15.1917 8.86533 15.1918 8.79161C15.1907 8.75439 15.1969 8.71733 15.2101 8.68253C15.2233 8.64772 15.2433 8.61587 15.2688 8.58878C15.2944 8.5617 15.325 8.53991 15.359 8.52466C15.3929 8.50942 15.4296 8.50102 15.4668 8.49994C15.504 8.49994 15.5408 8.50727 15.5752 8.52151C15.6096 8.53575 15.6408 8.55662 15.6671 8.58293C15.6934 8.60924 15.7143 8.64047 15.7285 8.67485C15.7428 8.70922 15.7501 8.74606 15.7501 8.78327" fill="#EEEEEE"/>
<path d="M15.7501 8.79161C15.7501 8.94161 15.6251 9.07494 15.4668 9.07494C15.3931 9.07277 15.3231 9.04196 15.2718 8.98906C15.2204 8.93616 15.1917 8.86533 15.1918 8.79161C15.1907 8.75439 15.1969 8.71733 15.2101 8.68253C15.2233 8.64772 15.2433 8.61587 15.2688 8.58878C15.2944 8.5617 15.325 8.53991 15.359 8.52466C15.3929 8.50942 15.4296 8.50102 15.4668 8.49994C15.504 8.49994 15.5408 8.50727 15.5752 8.52151C15.6096 8.53575 15.6408 8.55662 15.6671 8.58293C15.6934 8.60924 15.7143 8.64047 15.7285 8.67485C15.7428 8.70922 15.7501 8.74606 15.7501 8.78327" stroke="#1E1E1E" stroke-width="0.1" stroke-linejoin="round"/>
<path fill-rule="evenodd" clip-rule="evenodd" d="M15.3333 8.93327C15.3333 8.93327 15.5666 8.93327 15.5833 8.84161C15.6083 8.74994 15.5749 8.62494 15.5749 8.62494C15.5749 8.62494 15.6833 8.74161 15.6583 8.83327C15.6166 8.92494 15.5916 8.94994 15.5166 8.97494C15.4551 8.98325 15.3927 8.96839 15.3416 8.93327H15.3333Z" fill="#A3AFB8"/>
<path d="M16.2375 9.84831C16.2567 9.91996 16.2575 9.99348 16.2396 10.053C16.2218 10.1125 16.1867 10.1532 16.1421 10.1663C16.0967 10.1785 16.0455 10.1614 15.9997 10.1188C15.9538 10.0763 15.9172 10.0117 15.8978 9.93932C15.8786 9.86767 15.8779 9.79416 15.8957 9.73466C15.9136 9.67515 15.9486 9.63443 15.9932 9.62129C16.0386 9.60913 16.0899 9.62621 16.1357 9.66879C16.1815 9.71136 16.2181 9.77594 16.2375 9.84831Z" fill="#EEEEEE"/>
<path d="M16.2375 9.84831C16.2567 9.91996 16.2575 9.99348 16.2396 10.053C16.2218 10.1125 16.1867 10.1532 16.1421 10.1663C16.0967 10.1785 16.0455 10.1614 15.9997 10.1188C15.9538 10.0763 15.9172 10.0117 15.8978 9.93932C15.8786 9.86767 15.8779 9.79416 15.8957 9.73466C15.9136 9.67515 15.9486 9.63443 15.9932 9.62129C16.0386 9.60913 16.0899 9.62621 16.1357 9.66879C16.1815 9.71136 16.2181 9.77594 16.2375 9.84831" stroke="#1E1E1E" stroke-width="0.0963776" stroke-linejoin="round"/>
<path fill-rule="evenodd" clip-rule="evenodd" d="M16.0247 10.0583C16.0247 10.0583 16.158 10.0166 16.1497 9.92495C16.1497 9.83328 16.0913 9.72495 16.0913 9.72495C16.0913 9.72495 16.183 9.81661 16.1913 9.91661C16.1913 9.99995 16.183 10.0333 16.1413 10.0666C16.1163 10.0833 16.058 10.0833 16.0247 10.0583Z" fill="#A3AFB8"/>
<path d="M23.4856 9.90266C23.4678 9.97468 23.433 10.0394 23.3886 10.0829C23.3443 10.1264 23.294 10.1452 23.2485 10.1351C23.2029 10.1239 23.1663 10.0842 23.1467 10.0248C23.1272 9.96536 23.1262 9.89112 23.1442 9.81838C23.162 9.74636 23.1968 9.68161 23.2412 9.63812C23.2855 9.59462 23.3359 9.57587 23.3813 9.58591C23.4269 9.59717 23.4635 9.63687 23.4831 9.69627C23.5027 9.75568 23.5036 9.82991 23.4856 9.90266Z" fill="#EEEEEE"/>
<path d="M23.4856 9.90266C23.4678 9.97468 23.433 10.0394 23.3886 10.0829C23.3443 10.1264 23.294 10.1452 23.2485 10.1351C23.2029 10.1239 23.1663 10.0842 23.1467 10.0248C23.1272 9.96536 23.1262 9.89112 23.1442 9.81838C23.162 9.74636 23.1968 9.68161 23.2412 9.63812C23.2855 9.59462 23.3359 9.57587 23.3813 9.58591C23.4269 9.59717 23.4635 9.63687 23.4831 9.69627C23.5027 9.75568 23.5036 9.82991 23.4856 9.90266" stroke="#1E1E1E" stroke-width="0.0963782" stroke-linejoin="round"/>
<path fill-rule="evenodd" clip-rule="evenodd" d="M23.1919 9.98328C23.1919 9.98328 23.3336 10.0166 23.3669 9.92495C23.4086 9.84161 23.4086 9.71661 23.4086 9.71661C23.4086 9.71661 23.4502 9.84995 23.4086 9.93328C23.3669 10.0166 23.3419 10.0416 23.2919 10.0416C23.2586 10.0499 23.2086 10.0166 23.1919 9.98328Z" fill="#A3AFB8"/>
<path fill-rule="evenodd" clip-rule="evenodd" d="M19.3917 4.48328L19.4167 4.95828C19.4167 4.95828 18.85 5.00828 18.8333 5.05828C18.7167 5.30828 18.9583 5.64161 18.9583 5.64161C18.9583 5.64161 19.15 5.49161 19.625 5.49161C20.0833 5.49161 20.3167 5.60828 20.3167 5.60828C20.3167 5.60828 20.4333 5.41661 20.4333 5.27494C20.4333 5.13328 20.3833 4.99161 20.3833 4.99161L20.0833 4.95828H19.875L19.8583 4.47495L19.3917 4.48328Z" fill="#B3A192" stroke="black" stroke-width="0.1"/>
<path d="M20.1999 5.21661C20.1999 5.27494 20.1499 5.31661 20.0999 5.31661C20.0416 5.31661 19.9916 5.27495 19.9916 5.22495C19.9916 5.16661 20.0416 5.12495 20.0916 5.12495C20.1499 5.12495 20.1916 5.16661 20.1999 5.21661ZM20.4249 5.27494C20.4249 5.32494 20.3832 5.37495 20.3249 5.37495C20.2666 5.37495 20.2166 5.32494 20.2166 5.27494C20.2166 5.21661 20.2666 5.17494 20.3249 5.17494C20.3832 5.17494 20.4249 5.21661 20.4249 5.27494ZM19.9666 5.21661C19.9666 5.26661 19.9166 5.31661 19.8666 5.31661C19.8082 5.31661 19.7666 5.26661 19.7666 5.21661C19.7666 5.16661 19.8082 5.11661 19.8582 5.11661C19.9166 5.11661 19.9666 5.16661 19.9666 5.21661ZM19.4999 5.21661C19.4999 5.27494 19.4499 5.32495 19.3916 5.32495C19.3332 5.32495 19.2916 5.27495 19.2916 5.22495C19.2916 5.16661 19.3332 5.12495 19.3916 5.12495C19.4499 5.12495 19.4999 5.16661 19.4999 5.22495V5.21661ZM19.2416 5.24161C19.2416 5.29161 19.1916 5.34161 19.1332 5.34161C19.0749 5.34161 19.0332 5.29995 19.0332 5.24161C19.0332 5.18328 19.0749 5.14161 19.1332 5.14161C19.1916 5.14161 19.2416 5.18328 19.2416 5.24161ZM19.7166 4.94995C19.7166 4.99995 19.6749 5.03328 19.6332 5.03328C19.621 5.03578 19.6083 5.0355 19.5962 5.03244C19.5841 5.02939 19.5728 5.02365 19.5632 5.01565C19.5536 5.00765 19.5459 4.99759 19.5407 4.98621C19.5355 4.97484 19.533 4.96244 19.5332 4.94995C19.5332 4.89995 19.5749 4.86661 19.6249 4.86661C19.6749 4.86661 19.7082 4.89995 19.7082 4.94995H19.7166ZM19.7082 4.55828C19.7082 4.59995 19.6749 4.64161 19.6249 4.64161C19.6028 4.64161 19.5816 4.63283 19.566 4.6172C19.5504 4.60158 19.5416 4.58038 19.5416 4.55828C19.5416 4.50828 19.5749 4.47495 19.6249 4.47495C19.6749 4.47495 19.7082 4.50828 19.7082 4.55828ZM19.7082 4.76661C19.7082 4.81661 19.6749 4.84995 19.6249 4.84995C19.5749 4.84995 19.5416 4.81661 19.5416 4.76661C19.5416 4.72495 19.5749 4.68328 19.6249 4.68328C19.6749 4.68328 19.7082 4.71661 19.7082 4.76661ZM18.9749 5.30828C18.9749 5.36661 18.9332 5.40828 18.8749 5.40828C18.8249 5.40828 18.7749 5.36661 18.7749 5.30828C18.7749 5.25828 18.8166 5.21661 18.8749 5.21661C18.9332 5.21661 18.9749 5.25828 18.9749 5.30828Z" fill="#F0DDCB" stroke="#121116" stroke-width="0.05" stroke-linejoin="round"/>
<path d="M19.7416 5.19995C19.7416 5.25828 19.6916 5.29995 19.6249 5.29995C19.5976 5.30003 19.5712 5.28977 19.5511 5.27122C19.531 5.25267 19.5187 5.22721 19.5166 5.19995C19.5166 5.14161 19.5666 5.09161 19.6249 5.09161C19.6833 5.09161 19.7333 5.14161 19.7333 5.19995" fill="#916C68"/>
<path d="M19.7416 5.19995C19.7416 5.25828 19.6916 5.29995 19.6249 5.29995C19.5976 5.30003 19.5712 5.28977 19.5511 5.27122C19.531 5.25267 19.5187 5.22721 19.5166 5.19995C19.5166 5.14161 19.5666 5.09161 19.6249 5.09161C19.6833 5.09161 19.7333 5.14161 19.7333 5.19995" stroke="#4D3126" stroke-width="0.05" stroke-linejoin="round"/>
<path d="M19.8333 3.79162C19.8333 3.84546 19.8125 3.89722 19.7753 3.93606C19.738 3.9749 19.6871 3.9978 19.6333 3.99995C19.6059 3.99995 19.5789 3.99456 19.5536 3.98409C19.5283 3.97362 19.5053 3.95828 19.486 3.93893C19.4666 3.91959 19.4513 3.89662 19.4408 3.87134C19.4304 3.84607 19.425 3.81898 19.425 3.79162C19.4238 3.76357 19.4284 3.73558 19.4384 3.70933C19.4483 3.68308 19.4635 3.65912 19.483 3.63889C19.5024 3.61865 19.5258 3.60255 19.5516 3.59157C19.5774 3.58058 19.6052 3.57493 19.6333 3.57495C19.6886 3.57495 19.7415 3.5969 19.7806 3.63597C19.8197 3.67504 19.8416 3.72803 19.8416 3.78328" fill="#EEEEEE"/>
<path d="M19.8333 3.79162C19.8333 3.84546 19.8125 3.89722 19.7753 3.93606C19.738 3.9749 19.6871 3.9978 19.6333 3.99995C19.6059 3.99995 19.5789 3.99456 19.5536 3.98409C19.5283 3.97362 19.5053 3.95828 19.486 3.93893C19.4666 3.91959 19.4513 3.89662 19.4408 3.87134C19.4304 3.84607 19.425 3.81898 19.425 3.79162C19.4238 3.76357 19.4284 3.73558 19.4384 3.70933C19.4483 3.68308 19.4635 3.65912 19.483 3.63889C19.5024 3.61865 19.5258 3.60255 19.5516 3.59157C19.5774 3.58058 19.6052 3.57493 19.6333 3.57495C19.6886 3.57495 19.7415 3.5969 19.7806 3.63597C19.8197 3.67504 19.8416 3.72803 19.8416 3.78328" stroke="#1E1E1E" stroke-width="0.1" stroke-linejoin="round"/>
<path fill-rule="evenodd" clip-rule="evenodd" d="M19.5334 3.89993C19.5334 3.89993 19.7001 3.89993 19.7168 3.8166C19.7334 3.75826 19.7084 3.6666 19.7084 3.6666C19.7084 3.6666 19.7918 3.74993 19.7668 3.82493C19.7418 3.8916 19.7168 3.90826 19.6668 3.92493C19.6208 3.93395 19.5731 3.925 19.5334 3.89993Z" fill="#A3AFB8"/>
<path fill-rule="evenodd" clip-rule="evenodd" d="M16.3333 10.8416C16.3333 10.8416 16.5166 11.0166 16.5666 11.1749C16.6166 11.3249 16.6916 11.7416 16.6916 11.7416C16.6916 11.7416 18.6249 11.1999 19.5749 11.2416C20.5249 11.2916 22.7166 11.7666 22.7166 11.7666L22.7999 11.2916C22.8416 11.0416 23.0249 10.7666 23.0249 10.7666C23.0249 10.7666 20.9333 10.1166 19.6083 10.1833C18.841 10.1899 18.0773 10.2878 17.3333 10.4749C16.9969 10.5889 16.6635 10.7112 16.3333 10.8416Z" fill="#FFCC00" stroke="black" stroke-width="0.0416667"/>
<path fill-rule="evenodd" clip-rule="evenodd" d="M19.2249 2.99994H20.0583C20.0583 2.99994 19.8499 3.14161 19.8083 3.28327C19.7749 3.39994 19.7833 3.59161 19.7833 3.59161C19.7833 3.59161 20.0083 3.59161 20.1166 3.50827C20.217 3.42467 20.3198 3.34408 20.4249 3.26661V4.32494C20.4249 4.32494 20.2166 4.13327 20.0916 4.06661C19.9995 4.01799 19.9014 3.98157 19.7999 3.95827C19.7999 3.95827 19.7999 4.12494 19.8666 4.23327C19.9333 4.34161 20.2249 4.71661 20.2249 4.71661L19.0333 4.75827C19.0333 4.75827 19.3166 4.46661 19.4333 4.24994C19.5083 4.10827 19.4749 3.95827 19.4749 3.95827C19.4749 3.95827 19.2749 3.95827 19.1749 4.03327C19.0666 4.09994 18.8916 4.30827 18.8916 4.30827V3.29161C18.8916 3.29161 18.9749 3.49161 19.1416 3.56661C19.3083 3.64161 19.4583 3.59994 19.4583 3.59994C19.4583 3.59994 19.4916 3.39994 19.4249 3.26661C19.3583 3.14161 19.2083 2.99994 19.2249 3.00827V2.99994Z" fill="#FFCC00" stroke="black" stroke-width="0.1"/>
<path fill-rule="evenodd" clip-rule="evenodd" d="M19.1585 6.37493C19.1585 6.37493 18.5668 6.3666 18.0585 6.0666C17.5501 5.7666 17.0335 5.44993 16.2835 5.62493C16.1335 5.6666 15.5668 5.9166 15.3168 6.72493C15.1861 7.2511 15.2575 7.80714 15.5168 8.28326C15.653 8.50279 15.8092 8.70922 15.9835 8.89993L16.2918 8.6916C16.2918 8.6916 15.5168 8.02493 15.6085 7.17493C15.6918 6.3166 16.1251 6.1166 16.1251 6.1166C16.1251 6.1166 16.6585 5.69993 17.3668 6.0916C18.0239 6.4499 18.7366 6.69499 19.4751 6.8166C19.5251 6.80826 19.1418 6.3666 19.1585 6.37493Z" fill="#FFCC00" stroke="#121116" stroke-width="0.1"/>
<path fill-rule="evenodd" clip-rule="evenodd" d="M15.875 9.58328L15.5583 8.96661L16.5083 8.59995C16.5083 8.59995 16.275 8.89995 16.225 9.11661C16.1583 9.38328 16.1833 9.60828 16.1833 9.60828C16.1833 9.60828 16.2667 9.54161 16.375 9.36661C16.4583 9.24161 16.5917 8.75828 16.5917 8.75828L17.0167 10.1166C17.0167 10.1166 16.8 9.89995 16.6417 9.87495C16.475 9.84161 16.2583 9.89995 16.2583 9.89995L16.0083 9.98328L15.875 9.58328Z" fill="#FFCC00" stroke="black" stroke-width="0.1"/>
<path fill-rule="evenodd" clip-rule="evenodd" d="M20.2249 6.35828C20.2249 6.35828 20.8166 6.35828 21.3249 6.04994C21.8333 5.74994 22.3416 5.44161 23.0999 5.61661C23.2499 5.64994 23.8166 5.89994 24.0666 6.70828C24.1947 7.23548 24.1204 7.79157 23.8583 8.26661C23.7631 8.43343 23.6631 8.59739 23.5583 8.75828L23.1916 8.62494C23.1916 8.62494 23.8666 8.01661 23.7749 7.15828C23.6833 6.29994 23.2583 6.09994 23.2583 6.09994C23.2583 6.09994 22.7249 5.68328 22.0166 6.08328C21.3083 6.47494 20.6166 6.64994 20.6166 6.64994C20.6166 6.64994 19.9666 6.81661 19.9083 6.79994C19.8499 6.79994 20.2416 6.34994 20.2249 6.35828Z" fill="#FFCC00" stroke="#121116" stroke-width="0.1"/>
<path d="M19.9166 5.77494H20.1666V8.08327H19.9166V5.77494ZM19.0833 5.75827H19.3749V8.0666H19.0833V5.75827Z" fill="#FFCC00" stroke="#121116" stroke-width="0.1" stroke-linejoin="round"/>
<path d="M20.4333 5.22494C20.4333 5.64161 20.075 5.97494 19.625 5.97494C19.1833 5.97494 18.8167 5.64161 18.8167 5.22494C18.8167 4.81661 19.175 4.48328 19.6167 4.48328C20.0667 4.48328 20.4333 4.81661 20.4333 5.22494Z" fill="#FFCC00"/>
<path d="M20.4333 5.22494C20.4333 5.64161 20.075 5.97494 19.625 5.97494C19.1833 5.97494 18.8167 5.64161 18.8167 5.22494C18.8167 4.81661 19.175 4.48328 19.6167 4.48328C20.0667 4.48328 20.4333 4.81661 20.4333 5.22494" stroke="#121116" stroke-width="0.1" stroke-linejoin="round"/>
<path fill-rule="evenodd" clip-rule="evenodd" d="M18.9083 8.06659L20.3 8.04993C20.3 8.04993 20.1333 8.14993 19.9916 8.39993C19.8583 8.64993 19.875 8.79993 19.875 8.79993C19.875 8.79993 20.0833 8.79993 20.2333 8.69159C20.3491 8.59992 20.4552 8.4966 20.55 8.38326V9.65826C20.55 9.65826 20.4416 9.49159 20.275 9.40826C20.1083 9.29993 19.875 9.29993 19.875 9.29993H19.4C19.4 9.29993 19.1833 9.31659 19.0916 9.38326C18.9815 9.46331 18.8784 9.55251 18.7833 9.64993L18.7583 8.43326C18.7583 8.43326 18.825 8.64993 19.05 8.73326C19.275 8.81659 19.4 8.81659 19.4 8.81659C19.4 8.81659 19.4 8.53326 19.2833 8.39993C19.1687 8.27762 19.0432 8.16605 18.9083 8.06659Z" fill="#FFCC00" stroke="black" stroke-width="0.0833333"/>
<path fill-rule="evenodd" clip-rule="evenodd" d="M19.6832 9.06659C19.6832 9.06659 19.8832 9.54159 20.1249 9.74993C20.2582 9.87493 20.6749 9.96659 20.8582 9.91659C21.2749 9.80826 21.5749 9.47493 21.5749 9.47493C21.5749 9.47493 21.5582 9.84159 21.8249 10.0499C22.0832 10.2499 22.2916 10.2999 22.5082 10.2416C22.7332 10.1833 23.3416 9.72493 23.3416 9.72493L23.4749 9.83326C23.4749 9.83326 23.1166 10.1833 22.7499 10.3583C22.5582 10.4583 21.9749 10.3999 21.7916 10.2499C21.5999 10.0999 21.4916 9.74159 21.4916 9.74159C21.4916 9.74159 21.3749 9.97493 21.1249 10.0583C20.8749 10.1416 20.5416 10.1416 20.2166 10.0416C20.0082 9.97493 19.7249 9.68326 19.6749 9.58326C19.6249 9.49159 19.6416 9.43326 19.6416 9.43326C19.6416 9.43326 19.4749 9.88326 19.1582 10.0083C18.8502 10.1198 18.5149 10.1315 18.1999 10.0416C17.8999 9.95826 17.8749 9.78326 17.8749 9.78326C17.8749 9.78326 17.8582 10.2583 17.2082 10.3916C16.5416 10.5249 16.0249 10.0499 16.0249 10.0499L16.1166 9.90826C16.1166 9.90826 16.4832 10.3249 17.0499 10.2916C17.6166 10.2499 17.7999 9.52493 17.7999 9.52493C17.7999 9.52493 18.0499 9.89993 18.7166 9.90826C19.3749 9.91659 19.5666 9.04993 19.5666 9.04993L19.6832 9.06659Z" fill="#F6CA1F" stroke="black" stroke-width="0.075"/>
<path fill-rule="evenodd" clip-rule="evenodd" d="M18.05 9.3416C18.05 9.3416 18.05 9.1166 18.1083 9.0416C18.175 8.94993 18.275 8.9416 18.325 8.95826C18.3833 8.97493 18.4417 9.02493 18.4333 9.1916C18.425 9.34993 18.375 9.42493 18.4333 9.4916C18.475 9.54993 18.4833 9.5916 18.575 9.57493C18.6583 9.55826 18.7083 9.53326 18.6833 9.44993C18.6583 9.3666 18.6417 9.44993 18.625 9.38326C18.6083 9.30826 18.7083 8.99993 18.6917 8.80826C18.675 8.62493 18.6083 8.47493 18.4583 8.43326C18.325 8.39993 18.2083 8.39993 18.0833 8.4916C17.9667 8.57493 17.8083 8.8666 17.8083 8.8666V9.4916L18.0583 9.47493V9.3416H18.05Z" fill="#FFCC00" stroke="black" stroke-width="0.0916667"/>
<path fill-rule="evenodd" clip-rule="evenodd" d="M17.5834 9.50828C17.5834 9.50828 17.4834 9.29994 17.4167 9.25828C17.3823 9.23499 17.3417 9.22255 17.3001 9.22255C17.2585 9.22255 17.2179 9.23499 17.1834 9.25828C17.1334 9.29994 17.1001 9.37494 17.1751 9.51661C17.2417 9.65828 17.3167 9.71661 17.2917 9.79161C17.2751 9.86661 17.2917 9.90828 17.2001 9.93328C17.1084 9.95828 17.0584 9.94161 17.0417 9.84994C17.0251 9.76661 17.0917 9.84994 17.0751 9.76661C17.0667 9.69994 16.8417 9.45828 16.7834 9.27495C16.7251 9.09995 16.7334 8.93328 16.8501 8.84161C16.9584 8.75828 17.0584 8.70828 17.2084 8.74161C17.3584 8.77495 17.6167 8.98328 17.6167 8.98328L17.8667 9.54994L17.6334 9.63328L17.5834 9.50828Z" fill="#FFCC00" stroke="black" stroke-width="0.0916667"/>
<path fill-rule="evenodd" clip-rule="evenodd" d="M17.5333 7.67493C17.5333 7.67493 17.2833 8.09159 17.3416 8.40826C17.3999 8.72493 17.7249 9.40826 17.7249 9.40826V9.49159L17.9083 9.47493L17.8666 9.38326C17.8666 9.38326 17.9499 8.56659 17.8999 8.30826C17.8065 8.08176 17.6831 7.86876 17.5333 7.67493ZM17.9249 9.56659C17.9249 9.56659 18.0499 9.70826 18.1916 9.78326C18.3583 9.85826 18.4249 9.86659 18.4833 9.80826C18.5333 9.77493 18.5166 9.62493 18.4583 9.58326C18.4083 9.54159 18.3416 9.56659 18.3333 9.60826C18.3166 9.67493 18.2999 9.67493 18.2499 9.64159C18.1666 9.60826 17.9999 9.49993 17.9999 9.49993L17.9249 9.56659ZM17.7333 9.59993C17.7333 9.59993 17.6833 9.78326 17.5833 9.90826C17.4666 10.0416 17.4083 10.0749 17.3333 10.0499C17.2749 10.0416 17.2249 9.89993 17.2583 9.83326C17.2916 9.77493 17.3583 9.76659 17.3833 9.79993C17.4249 9.85826 17.4416 9.84993 17.4749 9.79993L17.6416 9.57493L17.7333 9.59159V9.59993Z" fill="#FFCC00" stroke="black" stroke-width="0.0916667"/>
<path d="M18.2 9.44995C18.2167 9.49995 18.05 9.57495 17.8417 9.60829C17.6333 9.64162 17.4583 9.63329 17.4417 9.57495C17.4417 9.52495 17.6 9.44995 17.8083 9.40829C18.0167 9.37495 18.1917 9.39162 18.2 9.44995Z" fill="#FFCC00"/>
<path d="M18.2 9.44995C18.2167 9.49995 18.05 9.57495 17.8417 9.60829C17.6333 9.64162 17.4583 9.63329 17.4417 9.57495C17.4417 9.52495 17.6 9.44995 17.8083 9.40829C18.0167 9.37495 18.1917 9.39162 18.2 9.44995" stroke="black" stroke-width="0.0916667" stroke-linejoin="round"/>
<path fill-rule="evenodd" clip-rule="evenodd" d="M21.8001 9.43329C21.8001 9.43329 21.8835 9.22496 21.9668 9.17496C22.0585 9.10829 22.1501 9.13329 22.1918 9.17496C22.2418 9.19996 22.2751 9.27496 22.2168 9.42496C22.1501 9.56662 22.0835 9.62496 22.1001 9.69996C22.1251 9.78329 22.1168 9.81662 22.2085 9.83329C22.3001 9.85829 22.3501 9.84162 22.3585 9.74996C22.3668 9.66662 22.3168 9.74996 22.3251 9.66662C22.3251 9.59996 22.5418 9.34162 22.5918 9.16662C22.6418 8.97496 22.6251 8.81662 22.5085 8.72496C22.3918 8.64162 22.2835 8.60829 22.1335 8.64996C21.9918 8.69162 21.7418 8.90829 21.7418 8.90829L21.5251 9.49162L21.7668 9.56662L21.8001 9.43329Z" fill="#FFCC00" stroke="black" stroke-width="0.0916667"/>
<path fill-rule="evenodd" clip-rule="evenodd" d="M21.3085 9.42496C21.3085 9.42496 21.2918 9.19996 21.2334 9.13329C21.1584 9.04162 21.0668 9.04162 21.0168 9.04996C20.9585 9.07496 20.9001 9.13329 20.9168 9.29162C20.9334 9.45829 20.9834 9.52496 20.9418 9.59162C20.8918 9.65829 20.8918 9.69162 20.8001 9.68329C20.7085 9.68329 20.6585 9.64996 20.6751 9.56662C20.6918 9.48329 20.7251 9.56662 20.7418 9.49162C20.7501 9.42496 20.6335 9.11662 20.6418 8.92496C20.6418 8.74162 20.7085 8.59162 20.8501 8.54162C20.9835 8.49996 21.1001 8.49162 21.2251 8.58329C21.3501 8.66662 21.5251 8.94162 21.5251 8.94162L21.5585 9.55829H21.3085V9.42496Z" fill="#FFCC00" stroke="black" stroke-width="0.0916667"/>
<path fill-rule="evenodd" clip-rule="evenodd" d="M21.9001 7.69162C21.9001 7.69162 21.5251 7.99162 21.4668 8.30829C21.4085 8.62495 21.4751 9.37495 21.4751 9.37495L21.4501 9.45829L21.6168 9.50829V9.40829C21.6168 9.40829 21.9835 8.67495 22.0251 8.40829C22.0164 8.16481 21.9744 7.92368 21.9001 7.69162ZM21.6085 9.59995C21.6085 9.59995 21.6751 9.77495 21.7835 9.89162C21.9085 10.025 21.9668 10.05 22.0418 10.025C22.1001 10.0083 22.1335 9.85829 22.1001 9.80829C22.0668 9.74995 22.0001 9.74995 21.9751 9.78329C21.9335 9.84162 21.9168 9.82495 21.8835 9.78329C21.8208 9.71241 21.7597 9.64017 21.7001 9.56662L21.6085 9.59995ZM21.4168 9.55829C21.4168 9.55829 21.3085 9.71662 21.1668 9.79162C21.0085 9.88329 20.9418 9.89162 20.8751 9.84162C20.8251 9.81662 20.8335 9.66662 20.8835 9.61662C20.9418 9.57495 21.0001 9.59162 21.0168 9.63329C21.0335 9.69995 21.0585 9.69162 21.1001 9.66662L21.3335 9.49995L21.4168 9.55829Z" fill="#FFCC00" stroke="black" stroke-width="0.0916667"/>
<path d="M21.9086 9.58327C21.9002 9.64161 21.7169 9.64994 21.5086 9.60827C21.3002 9.56661 21.1419 9.49161 21.1502 9.44161C21.1586 9.38327 21.3419 9.37494 21.5502 9.41661C21.7586 9.45827 21.9169 9.53327 21.9086 9.58327Z" fill="#FFCC00" stroke="black" stroke-width="0.0916667" stroke-linejoin="round"/>
<path fill-rule="evenodd" clip-rule="evenodd" d="M16.2499 10.8249C16.2499 10.8249 16.2999 10.9916 16.3916 10.9083C16.4916 10.8166 17.8333 10.2833 19.7249 10.2833C21.6166 10.2833 22.8499 10.8083 22.9249 10.8416C22.9999 10.8666 23.0333 10.9083 23.0916 10.8416C23.1583 10.7583 23.0333 10.6499 23.0333 10.6499C23.0333 10.6499 21.7166 10.0916 19.6666 10.0999C17.6083 10.1083 16.2833 10.6916 16.2833 10.6916C16.2833 10.6916 16.1999 10.7583 16.2583 10.8249H16.2499Z" fill="#CCA715" stroke="black" stroke-width="0.0416667"/>
<path fill-rule="evenodd" clip-rule="evenodd" d="M18.6583 11.6083C18.6583 11.6083 18.7167 11.4416 18.825 11.4083C18.9083 11.3833 19.0333 11.4666 19.0333 11.4666C19.0333 11.4666 18.875 11.4499 18.825 11.4833C18.7833 11.5083 18.7667 11.5833 18.7667 11.5833C18.7667 11.5833 18.8 11.5166 18.925 11.5249H19.0583C19.0583 11.5249 18.85 11.5499 18.8083 11.6083C18.7583 11.6666 19 11.6916 19 11.6916C19 11.6916 18.625 11.6916 18.5833 11.6749C18.5333 11.6499 18.5 11.5749 18.4167 11.5916C18.3333 11.6249 18.25 11.6999 18.25 11.6999C18.25 11.6999 18.3417 11.5333 18.4 11.5333C18.4583 11.5333 18.5 11.5333 18.55 11.5583L18.6583 11.6083ZM17.2583 11.9083C17.2583 11.9083 17.2833 11.7416 17.3833 11.6833C17.4667 11.6416 17.6083 11.6999 17.6083 11.6999C17.6083 11.6999 17.4417 11.7166 17.4 11.7499C17.3667 11.7833 17.3667 11.8666 17.3667 11.8666C17.3667 11.8666 17.3917 11.7999 17.5083 11.7833C17.5529 11.7755 17.5973 11.7671 17.6417 11.7583C17.6417 11.7583 17.4417 11.8166 17.4083 11.8833C17.3667 11.9499 17.6167 11.9333 17.6167 11.9333C17.6167 11.9333 17.25 11.9999 17.2 11.9916C17.1417 11.9749 17.1 11.9083 17.025 11.9499C16.9417 11.9833 16.875 12.0749 16.875 12.0749C16.875 12.0749 16.9417 11.8999 17 11.8833C17.0583 11.8749 17.0833 11.8666 17.15 11.8833L17.2583 11.9083ZM19.8333 11.5499C19.8333 11.5499 19.9 11.3833 20 11.3583C20.0917 11.3333 20.225 11.4249 20.225 11.4249C20.225 11.4249 20.0583 11.3999 20.0083 11.4249C19.9667 11.4499 19.95 11.5249 19.95 11.5249C19.95 11.5249 19.9833 11.4666 20.1083 11.4833L20.2417 11.4916C20.2417 11.4916 20.0333 11.4916 19.9833 11.5583C19.9333 11.6083 20.175 11.6499 20.175 11.6499C20.175 11.6499 19.8 11.6333 19.7583 11.6083C19.7083 11.5833 19.675 11.5083 19.5917 11.5249C19.5083 11.5416 19.425 11.6083 19.425 11.6083C19.425 11.6083 19.525 11.4583 19.5833 11.4583C19.6417 11.4583 19.675 11.4583 19.7333 11.4916L19.8333 11.5499ZM21.0083 11.6833C21.0083 11.6833 21.0917 11.5249 21.2083 11.5166C21.2917 11.4999 21.4083 11.5999 21.4083 11.5999C21.4083 11.5999 21.2583 11.5666 21.2 11.5833C21.15 11.5999 21.125 11.6666 21.125 11.6666C21.125 11.6666 21.1667 11.6166 21.2917 11.6416L21.425 11.6749C21.425 11.6749 21.2167 11.6583 21.1583 11.7083C21.1 11.7583 21.3333 11.8249 21.3333 11.8249C21.3333 11.8249 20.9667 11.7583 20.9167 11.7333C20.8833 11.6999 20.8583 11.6166 20.775 11.6249C20.6917 11.6333 20.5917 11.6916 20.5917 11.6916C20.5917 11.6916 20.7167 11.5583 20.775 11.5666C20.8333 11.5666 20.8667 11.5749 20.9167 11.6083L21.0083 11.6833ZM22.175 11.8916C22.175 11.8916 22.2583 11.7749 22.35 11.7666C22.425 11.7666 22.5083 11.8583 22.5083 11.8583C22.5083 11.8583 22.3833 11.8166 22.3417 11.8249C22.3 11.8333 22.275 11.8916 22.275 11.8916C22.275 11.8916 22.3167 11.8499 22.4083 11.8833L22.5167 11.9166C22.5167 11.9166 22.35 11.8833 22.3 11.9166C22.25 11.9583 22.4333 12.0333 22.4333 12.0333C22.4333 12.0333 22.1417 11.9499 22.1 11.9249C22.075 11.8999 22.0667 11.8333 22 11.8333C21.925 11.8333 21.8417 11.8749 21.8417 11.8749C21.8417 11.8749 21.95 11.7666 22 11.7833C22.0417 11.7833 22.075 11.7999 22.1083 11.8249L22.1833 11.8916H22.175Z" fill="black"/>
<path d="M18.4167 10.8083C18.4501 10.9499 18.2834 11.0999 18.0501 11.1416C17.8167 11.1916 17.6084 11.1166 17.5834 10.9749C17.5584 10.8416 17.7167 10.6916 17.9501 10.6416C18.1834 10.5916 18.3917 10.6666 18.4167 10.8083Z" fill="#0F6545" stroke="black" stroke-width="0.0583333" stroke-linejoin="round"/>
<path d="M17.8999 10.7833C17.8999 10.8166 17.8666 10.8583 17.8166 10.8666C17.7666 10.8749 17.7166 10.8583 17.7083 10.8249C17.7083 10.7916 17.7416 10.7583 17.7916 10.7416C17.8416 10.7416 17.8916 10.7499 17.8999 10.7833Z" fill="#CECFC1"/>
<path d="M21.675 10.9833C21.6334 11.1166 21.425 11.1666 21.1917 11.0999C20.9667 11.0249 20.825 10.8583 20.8584 10.7249C20.9084 10.5916 21.125 10.5333 21.35 10.6083C21.575 10.6749 21.725 10.8416 21.6834 10.9749L21.675 10.9833Z" fill="#0F6545" stroke="black" stroke-width="0.0583333" stroke-linejoin="round"/>
<path d="M21.2334 10.7083C21.2168 10.7416 21.1751 10.7583 21.1251 10.7416C21.0751 10.7249 21.0418 10.6833 21.0501 10.6583C21.0584 10.6166 21.1084 10.6083 21.1584 10.6166C21.2084 10.6333 21.2418 10.6749 21.2334 10.6999V10.7083Z" fill="#CECFC1"/>
<path d="M19.2168 10.4999H20.0585V10.9166H19.2168V10.4999Z" fill="#1F2D86" stroke="black" stroke-width="0.0833333" stroke-linejoin="round"/>
<path d="M19.5749 10.5833C19.5749 10.6083 19.5415 10.6249 19.4915 10.6249C19.4415 10.6249 19.4082 10.6083 19.4082 10.5833C19.4082 10.5666 19.4499 10.5499 19.4915 10.5499C19.5332 10.5499 19.5749 10.5666 19.5749 10.5833Z" fill="#707C8B"/>
<path fill-rule="evenodd" clip-rule="evenodd" d="M16.8333 10.9166L16.9666 11.3333L16.7166 11.475C16.7166 11.475 16.5916 11.5583 16.4666 11.4916C16.35 11.4333 16.2833 11.2416 16.35 11.1583C16.475 11.0083 16.825 10.9083 16.825 10.9166H16.8333Z" fill="#9F1209" stroke="black" stroke-width="0.0416667"/>
<path d="M16.6167 11.2166C16.6167 11.2833 16.5583 11.3416 16.4917 11.3416C16.425 11.3416 16.375 11.2833 16.375 11.2166C16.375 11.1416 16.425 11.0916 16.4917 11.0916C16.5583 11.0916 16.6167 11.1416 16.6167 11.2166Z" fill="#8F322F"/>
<path d="M16.4999 11.1666C16.5019 11.1769 16.5015 11.1876 16.4986 11.1978C16.4957 11.2079 16.4904 11.2172 16.4832 11.2249C16.4773 11.2297 16.47 11.2322 16.4624 11.2322C16.4548 11.2322 16.4475 11.2297 16.4416 11.2249C16.4334 11.2206 16.4263 11.2147 16.4205 11.2076C16.4148 11.2004 16.4106 11.1921 16.4082 11.1833C16.4062 11.1729 16.4067 11.1622 16.4095 11.1521C16.4124 11.1419 16.4177 11.1326 16.4249 11.1249C16.4298 11.1189 16.4366 11.1148 16.4442 11.1133C16.4518 11.1117 16.4597 11.1129 16.4666 11.1166C16.4832 11.1166 16.4999 11.1416 16.4999 11.1666Z" fill="#E2A494"/>
<path fill-rule="evenodd" clip-rule="evenodd" d="M22.4918 10.9749L22.3501 11.3416L22.6834 11.5083C22.6834 11.5083 22.8251 11.5749 22.9168 11.4999C23.0001 11.4333 23.0168 11.2666 22.9501 11.1916C22.8918 11.1083 22.4834 10.9749 22.4918 10.9749Z" fill="#9F1209" stroke="black" stroke-width="0.0416667"/>
<path d="M22.8834 11.2666C22.8834 11.3166 22.8334 11.35 22.775 11.35C22.7167 11.35 22.675 11.3166 22.675 11.2666C22.675 11.2166 22.725 11.1833 22.775 11.1833C22.8334 11.1833 22.8834 11.225 22.8834 11.2666Z" fill="#AA675D"/>
<path d="M22.7833 11.25C22.7833 11.275 22.775 11.3 22.7583 11.3083C22.7511 11.3137 22.7424 11.3166 22.7333 11.3166C22.7243 11.3166 22.7156 11.3137 22.7083 11.3083C22.7008 11.3023 22.6947 11.2947 22.6904 11.286C22.686 11.2774 22.6836 11.2679 22.6833 11.2583C22.6833 11.2333 22.6917 11.2166 22.7083 11.2083C22.7156 11.2029 22.7243 11.2 22.7333 11.2C22.7424 11.2 22.7511 11.2029 22.7583 11.2083C22.775 11.2083 22.7833 11.2333 22.7833 11.2583V11.25Z" fill="#E2A494"/>
<path d="M20.3833 10.5333C20.3833 10.5417 20.3816 10.55 20.3782 10.5577C20.3747 10.5654 20.3697 10.5722 20.3633 10.5778C20.357 10.5833 20.3495 10.5874 20.3415 10.5898C20.3334 10.5922 20.3249 10.5928 20.3166 10.5916C20.3011 10.5916 20.2863 10.5855 20.2753 10.5745C20.2644 10.5636 20.2583 10.5487 20.2583 10.5333C20.2583 10.5178 20.2644 10.503 20.2753 10.492C20.2863 10.4811 20.3011 10.4749 20.3166 10.4749C20.3499 10.4749 20.3833 10.4999 20.3833 10.5333ZM20.7416 10.5499C20.7416 10.5576 20.7401 10.5652 20.7371 10.5723C20.7342 10.5793 20.7299 10.5858 20.7245 10.5912C20.7191 10.5966 20.7127 10.6009 20.7056 10.6038C20.6985 10.6068 20.6909 10.6083 20.6833 10.6083C20.6749 10.6095 20.6664 10.6089 20.6584 10.6065C20.6503 10.6041 20.6428 10.6 20.6365 10.5944C20.6302 10.5889 20.6251 10.5821 20.6217 10.5744C20.6182 10.5667 20.6165 10.5584 20.6166 10.5499C20.6176 10.5423 20.6201 10.5348 20.6241 10.5281C20.628 10.5214 20.6332 10.5156 20.6394 10.5109C20.6456 10.5063 20.6527 10.5029 20.6602 10.501C20.6678 10.4991 20.6756 10.4988 20.6833 10.4999C20.7083 10.4999 20.7416 10.5166 20.7416 10.5499ZM20.5583 10.6916C20.5583 10.7333 20.5249 10.7666 20.4749 10.7666C20.4249 10.7666 20.4083 10.7333 20.4083 10.6916C20.4083 10.6499 20.4416 10.6166 20.4833 10.6166C20.5249 10.6166 20.5583 10.6499 20.5583 10.6999V10.6916ZM20.7249 10.9249C20.7251 10.9391 20.7201 10.9528 20.7109 10.9635C20.7017 10.9742 20.6889 10.9813 20.6749 10.9833C20.6666 10.9845 20.6581 10.9839 20.65 10.9815C20.642 10.9791 20.6345 10.975 20.6282 10.9694C20.6218 10.9639 20.6168 10.9571 20.6133 10.9494C20.6099 10.9417 20.6082 10.9334 20.6083 10.9249C20.6083 10.9095 20.6144 10.8946 20.6253 10.8837C20.6363 10.8728 20.6511 10.8666 20.6666 10.8666C20.7083 10.8666 20.7333 10.8916 20.7333 10.9249H20.7249ZM20.3833 10.8833C20.3833 10.8988 20.3771 10.9136 20.3662 10.9245C20.3552 10.9355 20.3404 10.9416 20.3249 10.9416C20.3094 10.9416 20.2946 10.9355 20.2837 10.9245C20.2727 10.9136 20.2666 10.8988 20.2666 10.8833C20.2666 10.8678 20.2727 10.853 20.2837 10.842C20.2946 10.8311 20.3094 10.8249 20.3249 10.8249C20.3583 10.8249 20.3833 10.8499 20.3833 10.8833ZM18.6416 10.5916C18.6442 10.6059 18.6414 10.6207 18.6337 10.633C18.626 10.6454 18.6139 10.6544 18.5999 10.6583C18.5923 10.6608 18.5842 10.6617 18.5761 10.661C18.5681 10.6602 18.5603 10.6578 18.5533 10.6539C18.5462 10.65 18.5401 10.6446 18.5352 10.6382C18.5303 10.6318 18.5268 10.6244 18.5249 10.6166C18.5237 10.6089 18.5241 10.6011 18.526 10.5936C18.5279 10.5861 18.5313 10.579 18.5359 10.5728C18.5406 10.5666 18.5464 10.5613 18.5531 10.5574C18.5598 10.5535 18.5672 10.551 18.5749 10.5499C18.5892 10.5473 18.604 10.5502 18.6163 10.5579C18.6287 10.5656 18.6377 10.5776 18.6416 10.5916ZM18.9999 10.5333C19.0011 10.5409 19.0007 10.5488 18.9988 10.5563C18.997 10.5638 18.9936 10.5709 18.9889 10.5771C18.9843 10.5833 18.9784 10.5885 18.9717 10.5925C18.965 10.5964 18.9576 10.5989 18.9499 10.5999C18.9356 10.6026 18.9208 10.5997 18.9085 10.592C18.8962 10.5843 18.8872 10.5723 18.8833 10.5583C18.8806 10.544 18.8835 10.5292 18.8912 10.5169C18.8989 10.5045 18.9109 10.4955 18.9249 10.4916C18.9326 10.4891 18.9407 10.4882 18.9487 10.4889C18.9567 10.4897 18.9645 10.4921 18.9716 10.496C18.9786 10.4999 18.9848 10.5053 18.9896 10.5117C18.9945 10.5181 18.998 10.5254 18.9999 10.5333ZM18.8499 10.7083C18.8583 10.7499 18.8333 10.7916 18.7999 10.7916C18.7811 10.7968 18.7611 10.7945 18.744 10.7852C18.7268 10.7759 18.714 10.7602 18.7083 10.7416C18.6999 10.7083 18.7249 10.6583 18.7666 10.6583C18.7842 10.6554 18.8022 10.6588 18.8174 10.668C18.8327 10.6771 18.8442 10.6914 18.8499 10.7083ZM19.0749 10.8999C19.0775 10.9143 19.0747 10.929 19.067 10.9414C19.0593 10.9537 19.0473 10.9627 19.0333 10.9666C19.0256 10.9691 19.0175 10.9701 19.0095 10.9693C19.0014 10.9685 18.9937 10.9661 18.9866 10.9622C18.9796 10.9583 18.9734 10.953 18.9685 10.9466C18.9636 10.9401 18.9601 10.9328 18.9583 10.9249C18.9556 10.9106 18.9585 10.8959 18.9662 10.8835C18.9739 10.8712 18.9859 10.8622 18.9999 10.8583C19.0076 10.8557 19.0157 10.8548 19.0237 10.8556C19.0317 10.8563 19.0395 10.8588 19.0466 10.8627C19.0536 10.8666 19.0598 10.8719 19.0646 10.8783C19.0695 10.8848 19.073 10.8921 19.0749 10.8999ZM18.7249 10.9333C18.7275 10.9476 18.7247 10.9624 18.717 10.9747C18.7093 10.987 18.6973 10.996 18.6833 10.9999C18.6756 11.0025 18.6675 11.0034 18.6595 11.0026C18.6514 11.0019 18.6437 10.9995 18.6366 10.9956C18.6296 10.9916 18.6234 10.9863 18.6185 10.9799C18.6136 10.9735 18.6101 10.9661 18.6083 10.9583C18.6071 10.9506 18.6074 10.9428 18.6093 10.9353C18.6112 10.9277 18.6146 10.9206 18.6192 10.9144C18.6239 10.9082 18.6297 10.903 18.6364 10.8991C18.6431 10.8952 18.6506 10.8926 18.6583 10.8916C18.6726 10.889 18.6873 10.8918 18.6997 10.8995C18.712 10.9072 18.721 10.9193 18.7249 10.9333ZM17.1249 10.9166C17.129 10.9241 17.1314 10.9325 17.1319 10.941C17.1324 10.9496 17.131 10.9581 17.1278 10.9661C17.1246 10.9741 17.1197 10.9812 17.1135 10.9871C17.1072 10.9929 17.0997 10.9973 17.0916 10.9999C17.0772 11.0054 17.0613 11.0049 17.0472 10.9987C17.0332 10.9925 17.0222 10.9809 17.0166 10.9666C17.0125 10.9591 17.0101 10.9507 17.0096 10.9422C17.0091 10.9336 17.0105 10.9251 17.0137 10.9171C17.0169 10.9092 17.0218 10.902 17.028 10.8962C17.0343 10.8903 17.0418 10.8859 17.0499 10.8833C17.0574 10.8792 17.0658 10.8768 17.0743 10.8763C17.0829 10.8758 17.0915 10.8772 17.0994 10.8804C17.1074 10.8836 17.1145 10.8885 17.1204 10.8947C17.1262 10.901 17.1306 10.9085 17.1333 10.9166H17.1249ZM17.4666 10.8083C17.4707 10.8158 17.4731 10.8241 17.4736 10.8327C17.4741 10.8413 17.4727 10.8498 17.4695 10.8578C17.4663 10.8657 17.4614 10.8729 17.4551 10.8787C17.4489 10.8846 17.4414 10.889 17.4333 10.8916C17.4256 10.8941 17.4175 10.8951 17.4095 10.8943C17.4014 10.8935 17.3937 10.8911 17.3866 10.8872C17.3796 10.8833 17.3734 10.878 17.3685 10.8716C17.3636 10.8651 17.3601 10.8578 17.3583 10.8499C17.3528 10.8356 17.3533 10.8196 17.3595 10.8056C17.3657 10.7915 17.3773 10.7805 17.3916 10.7749C17.3991 10.7709 17.4075 10.7685 17.416 10.768C17.4246 10.7675 17.4331 10.7689 17.4411 10.7721C17.449 10.7752 17.4562 10.7801 17.462 10.7864C17.4679 10.7927 17.4723 10.8001 17.4749 10.8083H17.4666ZM17.3499 11.0083C17.3534 11.0248 17.3512 11.0421 17.3436 11.0572C17.336 11.0723 17.3236 11.0845 17.3083 11.0916C17.2915 11.0979 17.2731 11.098 17.2563 11.0919C17.2395 11.0858 17.2254 11.0739 17.2166 11.0583C17.2109 11.0406 17.212 11.0214 17.2197 11.0044C17.2275 10.9875 17.2412 10.974 17.2583 10.9666C17.276 10.9609 17.2952 10.9621 17.3121 10.9698C17.3291 10.9775 17.3425 10.9912 17.3499 11.0083ZM17.5999 11.1583C17.604 11.1658 17.6064 11.1741 17.6069 11.1827C17.6074 11.1913 17.606 11.1998 17.6028 11.2078C17.5996 11.2157 17.5947 11.2229 17.5885 11.2287C17.5822 11.2346 17.5747 11.239 17.5666 11.2416C17.5333 11.2416 17.4999 11.2333 17.4833 11.1999C17.4666 11.1666 17.4916 11.1416 17.5249 11.1249C17.5393 11.1195 17.5552 11.1199 17.5693 11.1262C17.5833 11.1324 17.5943 11.144 17.5999 11.1583ZM17.2583 11.2416C17.2623 11.2491 17.2647 11.2575 17.2652 11.266C17.2657 11.2746 17.2643 11.2831 17.2611 11.2911C17.258 11.2991 17.2531 11.3062 17.2468 11.3121C17.2405 11.3179 17.2331 11.3223 17.2249 11.3249C17.2174 11.329 17.209 11.3314 17.2005 11.3319C17.1919 11.3324 17.1834 11.331 17.1754 11.3278C17.1675 11.3247 17.1603 11.3198 17.1545 11.3135C17.1486 11.3072 17.1442 11.2998 17.1416 11.2916C17.1376 11.2835 17.1355 11.2746 17.1355 11.2656C17.1355 11.2565 17.1376 11.2476 17.1416 11.2396C17.1457 11.2315 17.1515 11.2244 17.1588 11.219C17.166 11.2136 17.1744 11.2099 17.1833 11.2083C17.1908 11.2042 17.1991 11.2018 17.2077 11.2013C17.2162 11.2008 17.2248 11.2022 17.2327 11.2054C17.2407 11.2086 17.2479 11.2135 17.2537 11.2197C17.2596 11.226 17.264 11.2335 17.2666 11.2416H17.2583ZM21.9416 10.7583C21.9333 10.7916 21.8999 10.8083 21.8583 10.7999C21.8418 10.7942 21.8282 10.7823 21.8204 10.7668C21.8127 10.7512 21.8113 10.7332 21.8166 10.7166C21.8166 10.6916 21.8583 10.6749 21.8999 10.6833C21.9249 10.6833 21.9499 10.7249 21.9416 10.7583ZM22.3083 10.8666C22.3083 10.8999 22.2666 10.9249 22.2333 10.9166C22.2244 10.9147 22.2159 10.9109 22.2085 10.9056C22.2011 10.9003 22.1949 10.8936 22.1902 10.8858C22.1855 10.878 22.1825 10.8693 22.1813 10.8602C22.1801 10.8512 22.1808 10.842 22.1833 10.8333C22.1916 10.8083 22.2249 10.7833 22.2666 10.7916C22.2999 10.7999 22.3166 10.8333 22.3083 10.8749V10.8666ZM22.0833 10.9666C22.0775 10.9857 22.0651 11.0021 22.0482 11.0128C22.0314 11.0235 22.0113 11.0278 21.9916 11.0249C21.971 11.0209 21.9526 11.0092 21.9403 10.9922C21.9279 10.9752 21.9224 10.9541 21.9249 10.9333C21.9308 10.9125 21.9445 10.8948 21.9631 10.8839C21.9818 10.873 22.0039 10.8698 22.0249 10.8749C22.0666 10.8833 22.0916 10.9249 22.0833 10.9666ZM22.2083 11.2583C22.1999 11.2916 22.1666 11.3083 22.1249 11.2999C22.1103 11.2943 22.098 11.2838 22.0904 11.27C22.0828 11.2563 22.0803 11.2404 22.0833 11.2249C22.0833 11.1916 22.1249 11.1749 22.1583 11.1833C22.1916 11.1916 22.2166 11.2249 22.2083 11.2666V11.2583ZM21.8499 11.1249C21.8499 11.1583 21.8083 11.1749 21.7749 11.1666C21.7603 11.161 21.748 11.1504 21.7404 11.1367C21.7328 11.123 21.7303 11.107 21.7333 11.0916C21.7333 11.0583 21.7749 11.0416 21.8083 11.0499C21.8416 11.0499 21.8583 11.0916 21.8499 11.1249Z" fill="#F5D8BC"/>
<path d="M22.6668 7.4166C22.6668 7.4166 22.5001 7.57493 22.2918 7.57493C22.1521 7.57781 22.0161 7.5305 21.9084 7.4416C21.8418 7.39993 21.9251 7.27493 21.9251 7.27493" stroke="black" stroke-width="0.1"/>
<path d="M19.0751 7.73327C19.0751 7.73327 18.7667 7.67494 18.6334 7.63327C18.5084 7.5916 18.5417 7.50827 18.3834 7.5166C18.2417 7.52494 18.0917 7.63327 18.1251 7.78327C18.1584 7.93327 18.2667 7.94994 18.3751 7.92494C18.4751 7.8916 18.4417 7.70827 18.3084 7.72494C18.1667 7.72494 18.2834 7.84994 18.2834 7.84994" stroke="black" stroke-width="0.0916667"/>
<path d="M16.9417 7.49993C16.9417 7.49993 17.025 7.62493 17.25 7.59993C17.475 7.58326 17.5583 7.4666 17.5667 7.40826C17.5833 7.35826 17.5667 7.25826 17.525 7.2166C17.4833 7.17493 17.3333 7.15826 17.3333 7.15826" stroke="black" stroke-width="0.0833333"/>
<path d="M21.2667 22.5333C21.4751 22.3249 21.8084 22.0999 21.9917 21.6166C22.1584 21.1499 22.2417 20.3083 22.4084 19.8833C22.6167 19.1499 23.0334 18.4333 22.5334 18.4833C22.0584 18.5333 21.9084 18.9833 21.7334 19.3166C21.6501 19.4416 21.4584 19.7083 21.4251 19.8583C21.4167 19.6083 21.2834 18.8666 21.2584 18.1249C21.2334 17.4249 21.2584 16.7083 21.2334 16.4333C21.2167 16.0749 21.2167 15.7416 21.1334 15.4833C21.0917 15.3583 20.9167 15.2333 20.8167 15.2416C20.6334 15.2416 20.5167 15.4083 20.4834 15.5666L20.4667 15.7999C20.4501 15.9999 20.4667 16.2583 20.4501 16.4916C20.4417 16.7416 20.4667 17.0083 20.4501 17.2416C20.4334 17.6916 20.4001 18.1166 20.3834 18.1999C20.3834 18.0333 20.3001 17.2249 20.2751 16.4583L20.2584 15.6249C20.2584 15.4083 20.2584 15.1749 20.2417 15.0083C20.2001 14.7249 20.1084 14.5916 19.9084 14.5916C19.7584 14.5916 19.5584 14.6999 19.4917 15.0083C19.4667 15.1833 19.4584 15.3916 19.4667 15.6249L19.4834 16.2916C19.4667 17.1666 19.4501 18.0833 19.4167 18.3583C19.4167 18.2749 19.3251 17.8166 19.3001 17.1999L19.2667 16.3999L19.2417 15.5999C19.2417 15.4666 19.1834 15.0833 18.9334 15.0999C18.7917 15.0833 18.6501 15.1833 18.6001 15.5416C18.5667 15.7499 18.5667 16.0916 18.5584 16.3666C18.5501 16.8666 18.5251 17.3166 18.5584 17.7749L18.5667 18.4166C18.5667 18.4499 18.4917 18.1749 18.4584 17.7999L18.3917 17.0833C18.3917 16.8916 18.3834 16.6083 18.3667 16.3749C18.3501 16.1999 18.3584 15.9999 18.1584 16.0166C17.9584 16.0249 17.8417 16.0999 17.8001 16.4333C17.7667 16.6583 17.7667 17.1416 17.7584 17.3083C17.7751 17.7499 17.6584 18.7833 17.6084 19.0749C17.5917 19.2833 17.5084 19.5499 17.4751 19.8416C17.4179 20.4148 17.446 20.9933 17.5584 21.5583C17.7251 22.1416 18.1417 22.4083 18.1251 22.8083C18.1001 23.2083 18.1251 23.9166 18.1251 24.2249C18.1251 24.5416 18.4001 24.5583 18.9584 24.4416C19.8917 24.2416 20.4001 24.6416 21.1584 24.3416C21.0667 23.4749 21.2501 22.9499 21.2417 22.6333L21.2667 22.5333ZM20.7251 20.4749C20.9167 19.9416 21.1584 19.7333 21.3917 19.6249L20.7251 20.4749Z" fill="#CC0000"/>
<path d="M20.7251 20.4749C20.9167 19.9416 21.1584 19.7333 21.3917 19.6249M21.2667 22.5333C21.4751 22.3249 21.8084 22.0999 21.9917 21.6166C22.1584 21.1499 22.2417 20.3083 22.4084 19.8833C22.6167 19.1499 23.0334 18.4333 22.5334 18.4833C22.0584 18.5333 21.9084 18.9833 21.7334 19.3166C21.6501 19.4416 21.4584 19.7083 21.4251 19.8583C21.4167 19.6083 21.2834 18.8666 21.2584 18.1249C21.2334 17.4249 21.2584 16.7083 21.2334 16.4333C21.2167 16.0749 21.2167 15.7416 21.1334 15.4833C21.0917 15.3583 20.9167 15.2333 20.8167 15.2416C20.6334 15.2416 20.5167 15.4083 20.4834 15.5666L20.4667 15.7999C20.4501 15.9999 20.4667 16.2583 20.4501 16.4916C20.4417 16.7416 20.4667 17.0083 20.4501 17.2416C20.4334 17.6916 20.4001 18.1166 20.3834 18.1999C20.3834 18.0333 20.3001 17.2249 20.2751 16.4583L20.2584 15.6249C20.2584 15.4083 20.2584 15.1749 20.2417 15.0083C20.2001 14.7249 20.1084 14.5916 19.9084 14.5916C19.7584 14.5916 19.5584 14.6999 19.4917 15.0083C19.4667 15.1833 19.4584 15.3916 19.4667 15.6249L19.4834 16.2916C19.4667 17.1666 19.4501 18.0833 19.4167 18.3583C19.4167 18.2749 19.3251 17.8166 19.3001 17.1999L19.2667 16.3999L19.2417 15.5999C19.2417 15.4666 19.1834 15.0833 18.9334 15.0999C18.7917 15.0833 18.6501 15.1833 18.6001 15.5416C18.5667 15.7499 18.5667 16.0916 18.5584 16.3666C18.5501 16.8666 18.5251 17.3166 18.5584 17.7749L18.5667 18.4166C18.5667 18.4499 18.4917 18.1749 18.4584 17.7999L18.3917 17.0833C18.3917 16.8916 18.3834 16.6083 18.3667 16.3749C18.3501 16.1999 18.3584 15.9999 18.1584 16.0166C17.9584 16.0249 17.8417 16.0999 17.8001 16.4333C17.7667 16.6583 17.7667 17.1416 17.7584 17.3083C17.7751 17.7499 17.6584 18.7833 17.6084 19.0749C17.5917 19.2833 17.5084 19.5499 17.4751 19.8416C17.4179 20.4148 17.446 20.9933 17.5584 21.5583C17.7251 22.1416 18.1417 22.4083 18.1251 22.8083C18.1001 23.2083 18.1251 23.9166 18.1251 24.2249C18.1251 24.5416 18.4001 24.5583 18.9584 24.4416C19.8917 24.2416 20.4001 24.6416 21.1584 24.3416C21.0667 23.4749 21.2501 22.9499 21.2417 22.6333L21.2667 22.5333Z" stroke="#161111" stroke-width="0.133333"/>
<path d="M19.9167 22.7666L20.0501 22.8416C20.1167 22.8666 20.2001 22.8749 20.6584 22.8416C20.9501 22.8583 21.2001 22.6083 21.2751 22.5416M18.6167 19.9333C18.9084 19.8166 19.2001 19.7333 19.5001 19.6333C19.8584 19.5333 20.2084 19.3833 20.5834 19.3333C20.7501 19.2916 20.9334 19.2499 21.1167 19.2499L18.6167 19.9333ZM18.1084 22.7499C18.1417 22.7249 18.1917 22.7666 18.2251 22.7749C18.2751 22.7916 18.3334 22.8083 18.3917 22.7999C18.5028 22.7979 18.614 22.7979 18.7251 22.7999C18.8667 22.7999 18.9751 22.7833 19.0834 22.7166L18.1084 22.7499Z" stroke="#161111" stroke-width="0.133333"/>
</g>
</g>
<defs>
<clipPath id="clip0_769_17523">
<path d="M0 20C0 8.95431 8.95431 0 20 0C31.0457 0 40 8.95431 40 20C40 31.0457 31.0457 40 20 40C8.95431 40 0 31.0457 0 20Z" fill="white"/>
</clipPath>
<clipPath id="clip1_769_17523">
<rect width="53.3333" height="40" fill="white" transform="translate(-7 -6.10352e-05)"/>
</clipPath>
</defs>
</svg>
