<svg width="40" height="40" viewBox="0 0 40 40" fill="none" xmlns="http://www.w3.org/2000/svg">
<g clip-path="url(#clip0_769_19944)">
<path d="M0 20C0 8.95431 8.95431 0 20 0C31.0457 0 40 8.95431 40 20C40 31.0457 31.0457 40 20 40C8.95431 40 0 31.0457 0 20Z" fill="#E94E0F"/>
<g clip-path="url(#clip1_769_19944)">
<path d="M-7 0.000488281H46.3333V40.0005H-7V0.000488281Z" fill="#D20000"/>
<path d="M-7 0.000488281H1L19.6667 19.2838L38.3333 0.000488281H46.3333L-7 40.0005H1L19.6667 20.7172L38.3333 40.0005H46.3333L-7 0.000488281ZM46.3333 16.0005V24.0005L-7 16.0005V24.0005L46.3333 16.0005ZM16.3333 0.000488281L19.6667 17.1422L23 0.000488281H16.3333ZM16.3333 40.0005L19.6667 22.8588L23 40.0005H16.3333Z" fill="#FFE600"/>
<path d="M19.6667 26.4255C23.2151 26.4255 26.0917 23.5489 26.0917 20.0005C26.0917 16.4521 23.2151 13.5755 19.6667 13.5755C16.1183 13.5755 13.2417 16.4521 13.2417 20.0005C13.2417 23.5489 16.1183 26.4255 19.6667 26.4255Z" fill="#FFE600" stroke="#D20000" stroke-width="1.425"/>
</g>
</g>
<defs>
<clipPath id="clip0_769_19944">
<path d="M0 20C0 8.95431 8.95431 0 20 0C31.0457 0 40 8.95431 40 20C40 31.0457 31.0457 40 20 40C8.95431 40 0 31.0457 0 20Z" fill="white"/>
</clipPath>
<clipPath id="clip1_769_19944">
<rect width="53.3333" height="40" fill="white" transform="translate(-7 0.000488281)"/>
</clipPath>
</defs>
</svg>
