<svg width="40" height="40" viewBox="0 0 40 40" fill="none" xmlns="http://www.w3.org/2000/svg">
<g clip-path="url(#clip0_769_19211)">
<path d="M0 20C0 8.95431 8.95431 0 20 0C31.0457 0 40 8.95431 40 20C40 31.0457 31.0457 40 20 40C8.95431 40 0 31.0457 0 20Z" fill="#E94E0F"/>
<g clip-path="url(#clip1_769_19211)">
<path fill-rule="evenodd" clip-rule="evenodd" d="M53.2369 39.96H-13.3384V0.0304642H53.2369V39.96Z" fill="white" stroke="black" stroke-width="0.07814"/>
<path fill-rule="evenodd" clip-rule="evenodd" d="M53.2369 32.7321H-13.3384V39.96H53.2369V32.7321Z" fill="#3E5698"/>
<path fill-rule="evenodd" clip-rule="evenodd" d="M53.2369 31.0599H-13.3384V8.93061H53.2369V31.0599Z" fill="#C60000"/>
<path fill-rule="evenodd" clip-rule="evenodd" d="M53.2369 0.0382767H-13.3384V7.25841H53.2369V0.0382767Z" fill="#3E5698"/>
<path fill-rule="evenodd" clip-rule="evenodd" d="M18.2692 19.9952C18.2692 24.9571 14.1278 28.9813 9.00178 28.9813C3.87579 28.9813 -0.265625 24.9571 -0.265625 19.9952C-0.265625 15.0333 3.87579 11.0248 9.00178 11.0248C14.1199 11.0248 18.2692 15.0412 18.2692 20.0031V19.9952Z" fill="white"/>
<path fill-rule="evenodd" clip-rule="evenodd" d="M6.33728 21.1361L1.8833 17.9558L7.43124 17.9402L9.20502 12.7517L10.8538 17.9167L16.4017 17.8855L11.8774 21.1048L13.5418 26.2699L9.08781 23.0896L4.55569 26.3168L6.33728 21.1361Z" fill="#C40000"/>
</g>
</g>
<defs>
<clipPath id="clip0_769_19211">
<path d="M0 20C0 8.95431 8.95431 0 20 0C31.0457 0 40 8.95431 40 20C40 31.0457 31.0457 40 20 40C8.95431 40 0 31.0457 0 20Z" fill="white"/>
</clipPath>
<clipPath id="clip1_769_19211">
<rect width="53.3333" height="40" fill="white" transform="translate(-7 -0.000244141)"/>
</clipPath>
</defs>
</svg>
