<svg width="40" height="40" viewBox="0 0 40 40" fill="none" xmlns="http://www.w3.org/2000/svg">
<g clip-path="url(#clip0_769_20868)">
<path d="M0 20C0 8.95431 8.95431 0 20 0C31.0457 0 40 8.95431 40 20C40 31.0457 31.0457 40 20 40C8.95431 40 0 31.0457 0 20Z" fill="#E94E0F"/>
<g clip-path="url(#clip1_769_20868)">
<path fill-rule="evenodd" clip-rule="evenodd" d="M-0.274902 -1.80023H58.2501V44.2831H-0.274902V-1.80023Z" fill="#EF2D29"/>
<path fill-rule="evenodd" clip-rule="evenodd" d="M14.55 26.4414H59.1917V43.7497H14.55V26.4414Z" fill="#009025"/>
<path fill-rule="evenodd" clip-rule="evenodd" d="M14.5501 -2.95026H61.6251V12.8831H14.5417L14.5501 -2.95026Z" fill="white"/>
<path d="M11.6668 5.79883H9.75477C9.65155 5.79883 9.56787 5.87695 9.56787 5.97331V6.88121C9.56787 6.97758 9.65155 7.05569 9.75477 7.05569H11.6668C11.77 7.05569 11.8537 6.97758 11.8537 6.88121V5.97331C11.8537 5.87695 11.77 5.79883 11.6668 5.79883Z" fill="white" stroke="#EF2D28" stroke-width="0.0218943"/>
<path d="M11.6189 5.85205H9.80442C9.70668 5.85205 9.62744 5.92421 9.62744 6.01323V6.84424C9.62744 6.93325 9.70668 7.00541 9.80442 7.00541H11.6189C11.7166 7.00541 11.7958 6.93325 11.7958 6.84424V6.01323C11.7958 5.92421 11.7166 5.85205 11.6189 5.85205Z" fill="white" stroke="#EF2D28" stroke-width="0.0203304"/>
<path fill-rule="evenodd" clip-rule="evenodd" d="M10.6357 6.16461L10.745 6.16894L10.7495 6.21913L10.8396 6.26499L10.9094 6.20701L10.9939 6.25287L10.9151 6.30306L10.9342 6.37229L11.0334 6.36796V6.45882L10.9545 6.45536L10.914 6.51247L11.0041 6.57737L10.9342 6.63102L10.8588 6.57391L10.7495 6.5964L10.7551 6.68034L10.6357 6.68899L10.6199 6.60765L10.5208 6.56612L10.4656 6.62323L10.3811 6.58083L10.4307 6.51593L10.371 6.47439H10.2865L10.282 6.35585L10.3665 6.36363L10.4262 6.29441L10.3563 6.24076L10.4465 6.18019L10.5107 6.22951L10.6199 6.21393L10.6357 6.16461Z" fill="white" stroke="#EF2D28" stroke-width="0.012835"/>
<path d="M10.6667 6.517C10.7335 6.517 10.7876 6.47098 10.7876 6.4142C10.7876 6.35743 10.7335 6.3114 10.6667 6.3114C10.6 6.3114 10.5459 6.35743 10.5459 6.4142C10.5459 6.47098 10.6 6.517 10.6667 6.517Z" fill="white" stroke="#EF2D28" stroke-width="0.0138218"/>
<path fill-rule="evenodd" clip-rule="evenodd" d="M9.92009 5.90381L9.74311 6.06055L9.92009 5.90381ZM10.0375 5.90381L9.86054 6.06055L10.0375 5.90381ZM10.1533 5.90381L9.97798 6.06055L10.1533 5.90381ZM10.2707 5.90381L10.0954 6.06055L10.2707 5.90381ZM10.3882 5.90381L10.2128 6.06055L10.3882 5.90381ZM10.5056 5.90381L10.3303 6.06055L10.5056 5.90381ZM10.623 5.90381L10.4477 6.06055L10.623 5.90381ZM10.7405 5.90381L10.5651 6.06055L10.7405 5.90381ZM10.8579 5.90381L10.6809 6.06055L10.8579 5.90381ZM10.9753 5.90381L10.7967 6.06055L10.9753 5.90381ZM11.0895 5.90381L10.9141 6.06055L11.0895 5.90381ZM11.2069 5.90381L11.0316 6.06055L11.2069 5.90381ZM10.7388 5.90381L10.5651 6.06055L10.7388 5.90381ZM11.326 5.90381L11.1507 6.06055L11.326 5.90381ZM11.4434 5.90381L11.2681 6.06055L11.4434 5.90381ZM11.5609 5.90381L11.3855 6.06055L11.5609 5.90381ZM11.6783 5.90381L11.503 6.06055L11.6783 5.90381ZM11.503 5.90381L11.6783 6.06055L11.503 5.90381ZM11.3855 5.90381L11.5609 6.06055L11.3855 5.90381ZM11.2681 5.90381L11.4434 6.06055L11.2681 5.90381ZM11.1507 5.90381L11.326 6.06055L11.1507 5.90381ZM11.0332 5.90381L11.2086 6.06055L11.0332 5.90381ZM10.9158 5.90381L11.0911 6.06055L10.9158 5.90381ZM10.7984 5.90381L10.9753 6.06055L10.7984 5.90381ZM10.6809 5.90381L10.8563 6.06055L10.6809 5.90381ZM10.5618 5.90381L10.7388 6.06055L10.5618 5.90381ZM10.4461 5.90381L10.6214 6.06055L10.4461 5.90381ZM10.3286 5.90381L10.5039 6.06055L10.3286 5.90381ZM10.2112 5.90381L10.3865 6.06055L10.2112 5.90381ZM10.6809 5.90381L10.8563 6.06055L10.6809 5.90381ZM10.0954 5.90381L10.2691 6.06055L10.0954 5.90381ZM9.97632 5.90381L10.1533 6.06055L9.97632 5.90381ZM9.85889 5.90381L10.0359 6.06055L9.85889 5.90381ZM9.74146 5.90381L9.92009 6.06055L9.74146 5.90381ZM9.92009 6.79397L9.74476 6.95218L9.92009 6.79397ZM10.0359 6.79397L9.85889 6.95218L10.0359 6.79397ZM10.155 6.79397L9.97798 6.95218L10.155 6.79397ZM10.2707 6.79397L10.0954 6.95218L10.2707 6.79397ZM10.3882 6.79397L10.2128 6.95218L10.3882 6.79397ZM10.5056 6.79397L10.3303 6.95218L10.5056 6.79397ZM10.623 6.79397L10.4494 6.95218L10.623 6.79397ZM10.7405 6.79397L10.5651 6.95218L10.7405 6.79397ZM10.8579 6.79397L10.6809 6.95218L10.8579 6.79397ZM10.9737 6.79397L10.7967 6.95218L10.9737 6.79397ZM11.0944 6.79397L10.9174 6.95218L11.0944 6.79397ZM11.2102 6.79397L11.0349 6.95218L11.2102 6.79397ZM10.7405 6.79397L10.5651 6.95218L10.7405 6.79397ZM11.326 6.79397L11.1507 6.95218L11.326 6.79397ZM11.4434 6.79397L11.2681 6.95218L11.4434 6.79397ZM11.5609 6.79397L11.3855 6.95218L11.5609 6.79397ZM11.6783 6.79397L11.503 6.95218L11.6783 6.79397ZM11.503 6.79397L11.6783 6.95218L11.503 6.79397ZM11.3855 6.79397L11.5609 6.95218L11.3855 6.79397ZM11.2681 6.79397L11.4434 6.95218L11.2681 6.79397ZM11.1507 6.79397L11.326 6.95218L11.1507 6.79397ZM11.0332 6.79397L11.2086 6.95218L11.0332 6.79397ZM10.9158 6.79397L11.0928 6.95218L10.9158 6.79397ZM10.7967 6.79397L10.9737 6.95218L10.7967 6.79397ZM10.6809 6.79397L10.8563 6.95218L10.6809 6.79397ZM10.5651 6.79397L10.7405 6.95218L10.5651 6.79397ZM10.4477 6.79397L10.623 6.95218L10.4477 6.79397ZM10.3303 6.79397L10.5056 6.95218L10.3303 6.79397ZM10.2128 6.79397L10.3882 6.95218L10.2128 6.79397ZM10.6826 6.79397L10.8579 6.95218L10.6826 6.79397ZM10.0971 6.79397L10.2707 6.95218L10.0971 6.79397ZM9.97798 6.79397L10.155 6.95218L9.97798 6.79397ZM9.86054 6.79397L10.0375 6.95218L9.86054 6.79397ZM9.74476 6.79397L9.92009 6.95218L9.74476 6.79397Z" fill="white"/>
<path d="M9.74476 6.79397L9.92009 6.95218M9.92009 5.90381L9.74311 6.06055L9.92009 5.90381ZM10.0375 5.90381L9.86054 6.06055L10.0375 5.90381ZM10.1533 5.90381L9.97798 6.06055L10.1533 5.90381ZM10.2707 5.90381L10.0954 6.06055L10.2707 5.90381ZM10.3882 5.90381L10.2128 6.06055L10.3882 5.90381ZM10.5056 5.90381L10.3303 6.06055L10.5056 5.90381ZM10.623 5.90381L10.4477 6.06055L10.623 5.90381ZM10.7405 5.90381L10.5651 6.06055L10.7405 5.90381ZM10.8579 5.90381L10.6809 6.06055L10.8579 5.90381ZM10.9753 5.90381L10.7967 6.06055L10.9753 5.90381ZM11.0895 5.90381L10.9141 6.06055L11.0895 5.90381ZM11.2069 5.90381L11.0316 6.06055L11.2069 5.90381ZM10.7388 5.90381L10.5651 6.06055L10.7388 5.90381ZM11.326 5.90381L11.1507 6.06055L11.326 5.90381ZM11.4434 5.90381L11.2681 6.06055L11.4434 5.90381ZM11.5609 5.90381L11.3855 6.06055L11.5609 5.90381ZM11.6783 5.90381L11.503 6.06055L11.6783 5.90381ZM11.503 5.90381L11.6783 6.06055L11.503 5.90381ZM11.3855 5.90381L11.5609 6.06055L11.3855 5.90381ZM11.2681 5.90381L11.4434 6.06055L11.2681 5.90381ZM11.1507 5.90381L11.326 6.06055L11.1507 5.90381ZM11.0332 5.90381L11.2086 6.06055L11.0332 5.90381ZM10.9158 5.90381L11.0911 6.06055L10.9158 5.90381ZM10.7984 5.90381L10.9753 6.06055L10.7984 5.90381ZM10.6809 5.90381L10.8563 6.06055L10.6809 5.90381ZM10.5618 5.90381L10.7388 6.06055L10.5618 5.90381ZM10.4461 5.90381L10.6214 6.06055L10.4461 5.90381ZM10.3286 5.90381L10.5039 6.06055L10.3286 5.90381ZM10.2112 5.90381L10.3865 6.06055L10.2112 5.90381ZM10.6809 5.90381L10.8563 6.06055L10.6809 5.90381ZM10.0954 5.90381L10.2691 6.06055L10.0954 5.90381ZM9.97632 5.90381L10.1533 6.06055L9.97632 5.90381ZM9.85889 5.90381L10.0359 6.06055L9.85889 5.90381ZM9.74146 5.90381L9.92009 6.06055L9.74146 5.90381ZM9.92009 6.79397L9.74476 6.95218L9.92009 6.79397ZM10.0359 6.79397L9.85889 6.95218L10.0359 6.79397ZM10.155 6.79397L9.97798 6.95218L10.155 6.79397ZM10.2707 6.79397L10.0954 6.95218L10.2707 6.79397ZM10.3882 6.79397L10.2128 6.95218L10.3882 6.79397ZM10.5056 6.79397L10.3303 6.95218L10.5056 6.79397ZM10.623 6.79397L10.4494 6.95218L10.623 6.79397ZM10.7405 6.79397L10.5651 6.95218L10.7405 6.79397ZM10.8579 6.79397L10.6809 6.95218L10.8579 6.79397ZM10.9737 6.79397L10.7967 6.95218L10.9737 6.79397ZM11.0944 6.79397L10.9174 6.95218L11.0944 6.79397ZM11.2102 6.79397L11.0349 6.95218L11.2102 6.79397ZM10.7405 6.79397L10.5651 6.95218L10.7405 6.79397ZM11.326 6.79397L11.1507 6.95218L11.326 6.79397ZM11.4434 6.79397L11.2681 6.95218L11.4434 6.79397ZM11.5609 6.79397L11.3855 6.95218L11.5609 6.79397ZM11.6783 6.79397L11.503 6.95218L11.6783 6.79397ZM11.503 6.79397L11.6783 6.95218L11.503 6.79397ZM11.3855 6.79397L11.5609 6.95218L11.3855 6.79397ZM11.2681 6.79397L11.4434 6.95218L11.2681 6.79397ZM11.1507 6.79397L11.326 6.95218L11.1507 6.79397ZM11.0332 6.79397L11.2086 6.95218L11.0332 6.79397ZM10.9158 6.79397L11.0928 6.95218L10.9158 6.79397ZM10.7967 6.79397L10.9737 6.95218L10.7967 6.79397ZM10.6809 6.79397L10.8563 6.95218L10.6809 6.79397ZM10.5651 6.79397L10.7405 6.95218L10.5651 6.79397ZM10.4477 6.79397L10.623 6.95218L10.4477 6.79397ZM10.3303 6.79397L10.5056 6.95218L10.3303 6.79397ZM10.2128 6.79397L10.3882 6.95218L10.2128 6.79397ZM10.6826 6.79397L10.8579 6.95218L10.6826 6.79397ZM10.0971 6.79397L10.2707 6.95218L10.0971 6.79397ZM9.97798 6.79397L10.155 6.95218L9.97798 6.79397ZM9.86054 6.79397L10.0375 6.95218L9.86054 6.79397Z" stroke="#EF2D28" stroke-width="0.0203304"/>
<path d="M3.98345 5.74884H2.07142C1.9682 5.74884 1.88452 5.82696 1.88452 5.92332V6.83122C1.88452 6.92759 1.9682 7.00571 2.07142 7.00571H3.98345C4.08667 7.00571 4.17035 6.92759 4.17035 6.83122V5.92332C4.17035 5.82696 4.08667 5.74884 3.98345 5.74884Z" fill="white" stroke="#EF2D28" stroke-width="0.0218943"/>
<path d="M3.93551 5.80206H2.12107C2.02333 5.80206 1.94409 5.87422 1.94409 5.96324V6.79425C1.94409 6.88326 2.02333 6.95542 2.12107 6.95542H3.93551C4.03325 6.95542 4.11249 6.88326 4.11249 6.79425V5.96324C4.11249 5.87422 4.03325 5.80206 3.93551 5.80206Z" fill="white" stroke="#EF2D28" stroke-width="0.0203304"/>
<path fill-rule="evenodd" clip-rule="evenodd" d="M2.9526 6.11462L3.06187 6.11895L3.06638 6.16914L3.1565 6.215L3.22634 6.15702L3.31083 6.20289L3.23197 6.25307L3.25112 6.3223L3.35026 6.31797V6.40883L3.2714 6.40537L3.23085 6.46248L3.32097 6.52738L3.25112 6.58103L3.17565 6.52392L3.06638 6.54642L3.07201 6.63035L2.9526 6.63901L2.93683 6.55767L2.8377 6.51613L2.7825 6.57324L2.69801 6.53084L2.74758 6.46594L2.68787 6.42441H2.60338L2.59888 6.30586L2.68336 6.31365L2.74307 6.24442L2.67323 6.19077L2.76335 6.1302L2.82756 6.17952L2.93683 6.16395L2.9526 6.11462Z" fill="white" stroke="#EF2D28" stroke-width="0.012835"/>
<path d="M2.98363 6.46701C3.05037 6.46701 3.10447 6.42099 3.10447 6.36421C3.10447 6.30744 3.05037 6.26141 2.98363 6.26141C2.91689 6.26141 2.86279 6.30744 2.86279 6.36421C2.86279 6.42099 2.91689 6.46701 2.98363 6.46701Z" fill="white" stroke="#EF2D28" stroke-width="0.0138218"/>
<path fill-rule="evenodd" clip-rule="evenodd" d="M2.23674 5.85382L2.05976 6.01056L2.23674 5.85382ZM2.35417 5.85382L2.17719 6.01056L2.35417 5.85382ZM2.46995 5.85382L2.29463 6.01056L2.46995 5.85382ZM2.58739 5.85382L2.41206 6.01056L2.58739 5.85382ZM2.70482 5.85382L2.5295 6.01056L2.70482 5.85382ZM2.82225 5.85382L2.64693 6.01056L2.82225 5.85382ZM2.93969 5.85382L2.76436 6.01056L2.93969 5.85382ZM3.05712 5.85382L2.8818 6.01056L3.05712 5.85382ZM3.17456 5.85382L2.99758 6.01056L3.17456 5.85382ZM3.29199 5.85382L3.11336 6.01056L3.29199 5.85382ZM3.40612 5.85382L3.23079 6.01056L3.40612 5.85382ZM3.52355 5.85382L3.34823 6.01056L3.52355 5.85382ZM3.05547 5.85382L2.8818 6.01056L3.05547 5.85382ZM3.64264 5.85382L3.46731 6.01056L3.64264 5.85382ZM3.76007 5.85382L3.58475 6.01056L3.76007 5.85382ZM3.87751 5.85382L3.70218 6.01056L3.87751 5.85382ZM3.99494 5.85382L3.81962 6.01056L3.99494 5.85382ZM3.81962 5.85382L3.99494 6.01056L3.81962 5.85382ZM3.70218 5.85382L3.87751 6.01056L3.70218 5.85382ZM3.58475 5.85382L3.76007 6.01056L3.58475 5.85382ZM3.46731 5.85382L3.64264 6.01056L3.46731 5.85382ZM3.34988 5.85382L3.5252 6.01056L3.34988 5.85382ZM3.23245 5.85382L3.40777 6.01056L3.23245 5.85382ZM3.11501 5.85382L3.29199 6.01056L3.11501 5.85382ZM2.99758 5.85382L3.1729 6.01056L2.99758 5.85382ZM2.87849 5.85382L3.05547 6.01056L2.87849 5.85382ZM2.76271 5.85382L2.93803 6.01056L2.76271 5.85382ZM2.64528 5.85382L2.8206 6.01056L2.64528 5.85382ZM2.52784 5.85382L2.70317 6.01056L2.52784 5.85382ZM2.99758 5.85382L3.1729 6.01056L2.99758 5.85382ZM2.41206 5.85382L2.58573 6.01056L2.41206 5.85382ZM2.29297 5.85382L2.46995 6.01056L2.29297 5.85382ZM2.17554 5.85382L2.35252 6.01056L2.17554 5.85382ZM2.05811 5.85382L2.23674 6.01056L2.05811 5.85382ZM2.23674 6.74398L2.06141 6.9022L2.23674 6.74398ZM2.35252 6.74398L2.17554 6.9022L2.35252 6.74398ZM2.47161 6.74398L2.29463 6.9022L2.47161 6.74398ZM2.58739 6.74398L2.41206 6.9022L2.58739 6.74398ZM2.70482 6.74398L2.5295 6.9022L2.70482 6.74398ZM2.82225 6.74398L2.64693 6.9022L2.82225 6.74398ZM2.93969 6.74398L2.76602 6.9022L2.93969 6.74398ZM3.05712 6.74398L2.8818 6.9022L3.05712 6.74398ZM3.17456 6.74398L2.99758 6.9022L3.17456 6.74398ZM3.29034 6.74398L3.11336 6.9022L3.29034 6.74398ZM3.41108 6.74398L3.2341 6.9022L3.41108 6.74398ZM3.52686 6.74398L3.35153 6.9022L3.52686 6.74398ZM3.05712 6.74398L2.8818 6.9022L3.05712 6.74398ZM3.64264 6.74398L3.46731 6.9022L3.64264 6.74398ZM3.76007 6.74398L3.58475 6.9022L3.76007 6.74398ZM3.87751 6.74398L3.70218 6.9022L3.87751 6.74398ZM3.99494 6.74398L3.81962 6.9022L3.99494 6.74398ZM3.81962 6.74398L3.99494 6.9022L3.81962 6.74398ZM3.70218 6.74398L3.87751 6.9022L3.70218 6.74398ZM3.58475 6.74398L3.76007 6.9022L3.58475 6.74398ZM3.46731 6.74398L3.64264 6.9022L3.46731 6.74398ZM3.34988 6.74398L3.5252 6.9022L3.34988 6.74398ZM3.23245 6.74398L3.40942 6.9022L3.23245 6.74398ZM3.11336 6.74398L3.29034 6.9022L3.11336 6.74398ZM2.99758 6.74398L3.1729 6.9022L2.99758 6.74398ZM2.8818 6.74398L3.05712 6.9022L2.8818 6.74398ZM2.76436 6.74398L2.93969 6.9022L2.76436 6.74398ZM2.64693 6.74398L2.82225 6.9022L2.64693 6.74398ZM2.5295 6.74398L2.70482 6.9022L2.5295 6.74398ZM2.99923 6.74398L3.17456 6.9022L2.99923 6.74398ZM2.41372 6.74398L2.58739 6.9022L2.41372 6.74398ZM2.29463 6.74398L2.47161 6.9022L2.29463 6.74398ZM2.17719 6.74398L2.35417 6.9022L2.17719 6.74398ZM2.06141 6.74398L2.23674 6.9022L2.06141 6.74398Z" fill="white"/>
<path d="M2.06141 6.74398L2.23674 6.9022M2.23674 5.85382L2.05976 6.01056L2.23674 5.85382ZM2.35417 5.85382L2.17719 6.01056L2.35417 5.85382ZM2.46995 5.85382L2.29463 6.01056L2.46995 5.85382ZM2.58739 5.85382L2.41206 6.01056L2.58739 5.85382ZM2.70482 5.85382L2.5295 6.01056L2.70482 5.85382ZM2.82225 5.85382L2.64693 6.01056L2.82225 5.85382ZM2.93969 5.85382L2.76436 6.01056L2.93969 5.85382ZM3.05712 5.85382L2.8818 6.01056L3.05712 5.85382ZM3.17456 5.85382L2.99758 6.01056L3.17456 5.85382ZM3.29199 5.85382L3.11336 6.01056L3.29199 5.85382ZM3.40612 5.85382L3.23079 6.01056L3.40612 5.85382ZM3.52355 5.85382L3.34823 6.01056L3.52355 5.85382ZM3.05547 5.85382L2.8818 6.01056L3.05547 5.85382ZM3.64264 5.85382L3.46731 6.01056L3.64264 5.85382ZM3.76007 5.85382L3.58475 6.01056L3.76007 5.85382ZM3.87751 5.85382L3.70218 6.01056L3.87751 5.85382ZM3.99494 5.85382L3.81962 6.01056L3.99494 5.85382ZM3.81962 5.85382L3.99494 6.01056L3.81962 5.85382ZM3.70218 5.85382L3.87751 6.01056L3.70218 5.85382ZM3.58475 5.85382L3.76007 6.01056L3.58475 5.85382ZM3.46731 5.85382L3.64264 6.01056L3.46731 5.85382ZM3.34988 5.85382L3.5252 6.01056L3.34988 5.85382ZM3.23245 5.85382L3.40777 6.01056L3.23245 5.85382ZM3.11501 5.85382L3.29199 6.01056L3.11501 5.85382ZM2.99758 5.85382L3.1729 6.01056L2.99758 5.85382ZM2.87849 5.85382L3.05547 6.01056L2.87849 5.85382ZM2.76271 5.85382L2.93803 6.01056L2.76271 5.85382ZM2.64528 5.85382L2.8206 6.01056L2.64528 5.85382ZM2.52784 5.85382L2.70317 6.01056L2.52784 5.85382ZM2.99758 5.85382L3.1729 6.01056L2.99758 5.85382ZM2.41206 5.85382L2.58573 6.01056L2.41206 5.85382ZM2.29297 5.85382L2.46995 6.01056L2.29297 5.85382ZM2.17554 5.85382L2.35252 6.01056L2.17554 5.85382ZM2.05811 5.85382L2.23674 6.01056L2.05811 5.85382ZM2.23674 6.74398L2.06141 6.9022L2.23674 6.74398ZM2.35252 6.74398L2.17554 6.9022L2.35252 6.74398ZM2.47161 6.74398L2.29463 6.9022L2.47161 6.74398ZM2.58739 6.74398L2.41206 6.9022L2.58739 6.74398ZM2.70482 6.74398L2.5295 6.9022L2.70482 6.74398ZM2.82225 6.74398L2.64693 6.9022L2.82225 6.74398ZM2.93969 6.74398L2.76602 6.9022L2.93969 6.74398ZM3.05712 6.74398L2.8818 6.9022L3.05712 6.74398ZM3.17456 6.74398L2.99758 6.9022L3.17456 6.74398ZM3.29034 6.74398L3.11336 6.9022L3.29034 6.74398ZM3.41108 6.74398L3.2341 6.9022L3.41108 6.74398ZM3.52686 6.74398L3.35153 6.9022L3.52686 6.74398ZM3.05712 6.74398L2.8818 6.9022L3.05712 6.74398ZM3.64264 6.74398L3.46731 6.9022L3.64264 6.74398ZM3.76007 6.74398L3.58475 6.9022L3.76007 6.74398ZM3.87751 6.74398L3.70218 6.9022L3.87751 6.74398ZM3.99494 6.74398L3.81962 6.9022L3.99494 6.74398ZM3.81962 6.74398L3.99494 6.9022L3.81962 6.74398ZM3.70218 6.74398L3.87751 6.9022L3.70218 6.74398ZM3.58475 6.74398L3.76007 6.9022L3.58475 6.74398ZM3.46731 6.74398L3.64264 6.9022L3.46731 6.74398ZM3.34988 6.74398L3.5252 6.9022L3.34988 6.74398ZM3.23245 6.74398L3.40942 6.9022L3.23245 6.74398ZM3.11336 6.74398L3.29034 6.9022L3.11336 6.74398ZM2.99758 6.74398L3.1729 6.9022L2.99758 6.74398ZM2.8818 6.74398L3.05712 6.9022L2.8818 6.74398ZM2.76436 6.74398L2.93969 6.9022L2.76436 6.74398ZM2.64693 6.74398L2.82225 6.9022L2.64693 6.74398ZM2.5295 6.74398L2.70482 6.9022L2.5295 6.74398ZM2.99923 6.74398L3.17456 6.9022L2.99923 6.74398ZM2.41372 6.74398L2.58739 6.9022L2.41372 6.74398ZM2.29463 6.74398L2.47161 6.9022L2.29463 6.74398ZM2.17719 6.74398L2.35417 6.9022L2.17719 6.74398Z" stroke="#EF2D28" stroke-width="0.0203304"/>
<path fill-rule="evenodd" clip-rule="evenodd" d="M5.47298 8.37966C2.62885 11.169 1.41558 11.5214 1.98599 11.7465C2.5564 11.9717 4.3874 10.5318 6.29233 8.62087C8.19726 6.70998 9.36411 5.00793 8.79369 4.78279C8.22328 4.55764 8.49885 5.41546 5.47298 8.37966Z" fill="white" stroke="#EF2D28" stroke-width="0.034025"/>
<path fill-rule="evenodd" clip-rule="evenodd" d="M3.08247 10.4093L4.07983 10.671C3.14202 11.5627 2.08676 11.9279 1.79401 11.7712C1.50125 11.6144 2.32163 11.2477 3.08413 10.4108L3.08247 10.4093Z" fill="white" stroke="#EF2D28" stroke-width="0.0187665"/>
<path fill-rule="evenodd" clip-rule="evenodd" d="M3.08211 10.5132L3.90381 10.7222C2.99028 11.5796 2.08641 11.8227 1.85279 11.7175C1.61756 11.6137 2.34098 11.3194 3.08211 10.5132Z" fill="white" stroke="#EF2D28" stroke-width="0.0196761"/>
<path d="M6.13696 8.26056C6.13463 8.27401 6.12764 8.33401 6.12182 8.3578C6.12182 8.39091 6.11833 8.41573 6.11483 8.4416C6.10551 8.46436 6.10668 8.48505 6.07872 8.49332C6.06581 8.51401 6.04523 8.5301 6.02048 8.53884C5.9981 8.55478 5.97342 8.568 5.9471 8.57815C5.91956 8.58878 5.88882 8.59097 5.85973 8.58436C5.83411 8.56884 5.81547 8.55229 5.7945 8.53884C5.78984 8.51815 5.78518 8.48815 5.77936 8.46746C5.78846 8.49505 5.79355 8.52355 5.7945 8.55229C5.79217 8.58332 5.77936 8.59781 5.76538 8.62263" stroke="#EF2D28" stroke-width="0.0197592"/>
<path d="M5.87248 8.69359L5.86549 8.68738C5.88297 8.7029 5.87598 8.69566 5.83637 8.67394C5.80842 8.66152 5.77813 8.65532 5.74202 8.64911H5.63952C5.59991 8.64911 5.57312 8.65428 5.54516 8.66152C5.5242 8.68014 5.49391 8.69049 5.47178 8.70704C5.45211 8.72024 5.43714 8.7382 5.42868 8.75877C5.40888 8.77635 5.39607 8.80325 5.37743 8.8167C5.36927 8.8467 5.35297 8.84566 5.34132 8.86842C5.37626 8.87049 5.40305 8.87463 5.42169 8.89428C5.45198 8.90773 5.39607 8.88084 5.38442 8.86842C5.36112 8.86222 5.3553 8.85601 5.31919 8.85601C5.28657 8.84566 5.2656 8.86325 5.23182 8.86842C5.21202 8.87877 5.2062 8.88187 5.18057 8.88187" stroke="#EF2D28" stroke-width="0.0197592"/>
<path d="M5.48022 9.01553C5.46508 9.01553 5.39752 9.02691 5.37073 9.01553C5.34044 9.00829 5.32414 8.99484 5.3055 8.97001C5.29618 8.95242 5.3055 9.00105 5.3055 9.02174C5.30201 9.06001 5.28919 9.06001 5.26823 9.08587C5.24726 9.09829 5.22513 9.11484 5.20299 9.12519C5.18358 9.13925 5.16149 9.15011 5.13776 9.15725C5.11447 9.1676 5.09001 9.17588 5.07253 9.18932C5.04807 9.20484 5.04924 9.22346 5.03526 9.24829C5.03875 9.27933 5.04458 9.29795 5.06438 9.31243C5.0737 9.33415 5.09234 9.35588 5.10864 9.37036C5.12612 9.4014 5.14708 9.41485 5.10165 9.42209C5.07603 9.43243 5.06205 9.42416 5.03526 9.42209" stroke="#EF2D28" stroke-width="0.0197592"/>
<path d="M5.01855 9.46634C4.99992 9.4622 4.93702 9.44358 4.90906 9.43427H4.80656C4.76812 9.43737 4.75996 9.44771 4.72735 9.46013C4.70521 9.47978 4.69124 9.49323 4.66095 9.50565C4.64581 9.52323 4.61436 9.55427 4.60271 9.57703C4.59312 9.60378 4.5884 9.63172 4.58873 9.65979C4.58873 9.69806 4.60038 9.7053 4.60271 9.73841C4.61086 9.76685 4.62598 9.79334 4.64697 9.816C4.65047 9.82427 4.6528 9.82634 4.66095 9.82841" stroke="#EF2D28" stroke-width="0.0197592"/>
<path d="M4.6748 9.91274C4.6715 9.91274 4.66488 9.92907 4.65413 9.94295C4.63015 9.96745 4.62767 9.96908 4.5921 9.96908C4.55902 9.96745 4.56316 9.95602 4.54 9.94867C4.52925 9.93234 4.51602 9.91927 4.50362 9.89722C4.49535 9.88416 4.4879 9.86374 4.47881 9.85149C4.46888 9.83598 4.4573 9.82455 4.44738 9.81066C4.43746 9.80658 4.43415 9.8025 4.42092 9.80005C4.45069 9.80495 4.454 9.81556 4.47302 9.83108C4.4824 9.84585 4.49095 9.86112 4.49865 9.87681C4.50196 9.89886 4.50858 9.916 4.5094 9.94295C4.5094 9.97153 4.5094 9.99113 4.49865 10.0148C4.48625 10.0271 4.47798 10.0401 4.46227 10.0507C4.4492 10.0633 4.43729 10.0769 4.4267 10.0916L4.37957 10.1218C4.36468 10.1308 4.34731 10.1397 4.32333 10.1422C4.29273 10.1397 4.28363 10.1316 4.2613 10.1218C4.24146 10.1079 4.22657 10.0989 4.2092 10.0859C4.19495 10.0742 4.18267 10.0605 4.17282 10.045C4.14552 10.0385 4.12733 10.0409 4.11079 10.0556C4.09676 10.0653 4.0847 10.0775 4.07523 10.0916C4.06696 10.0957 4.05207 10.1079 4.0438 10.112" stroke="#EF2D28" stroke-width="0.0189008"/>
<path d="M4.10343 10.1287C4.11166 10.1317 4.1425 10.1531 4.15484 10.1603C4.16307 10.1878 4.17643 10.202 4.18055 10.2316C4.18774 10.2581 4.18774 10.2887 4.18774 10.3203C4.18055 10.3529 4.16718 10.3763 4.15484 10.4018C4.13428 10.416 4.124 10.4262 4.09727 10.4405C4.07156 10.4446 4.04586 10.4476 4.01398 10.4476C3.99342 10.4538 3.95641 10.4568 3.93687 10.4476C3.90808 10.4436 3.88649 10.4323 3.86593 10.4222C3.84228 10.4089 3.82789 10.3957 3.80218 10.3834C3.78882 10.3651 3.76928 10.3478 3.75077 10.3264C3.73432 10.305 3.72301 10.2927 3.7117 10.2693C3.72198 10.2958 3.73535 10.3203 3.74358 10.3457C3.759 10.3722 3.76722 10.3824 3.76928 10.415C3.77956 10.4415 3.77648 10.4741 3.77648 10.5047C3.77339 10.5251 3.77236 10.5638 3.76311 10.5811V10.6005" stroke="#EF2D28" stroke-width="0.0194487"/>
<path d="M3.15521 10.7006V10.7109C3.15521 10.6858 3.15521 10.6976 3.16678 10.7479C3.18498 10.7686 3.23294 10.7745 3.26933 10.7657C3.30241 10.7405 3.30241 10.7213 3.36196 10.7109C3.4215 10.7139 3.44466 10.7287 3.47774 10.7479C3.51291 10.7596 3.54225 10.7822 3.56044 10.8115C3.57201 10.8425 3.57863 10.8647 3.53893 10.8766C3.50436 10.8973 3.46458 10.91 3.42315 10.9135C3.37684 10.9135 3.34211 10.9091 3.32061 10.9327C3.28753 10.9623 3.29083 10.9801 3.29083 11.0333C3.27926 11.0496 3.2776 11.0984 3.26933 11.1176C3.24086 11.131 3.20882 11.1371 3.17671 11.1353C3.16513 11.1057 3.15355 11.0555 3.14528 11.0244C3.13701 10.9919 3.13536 10.9446 3.11386 10.9224C3.09489 10.8969 3.07077 10.8749 3.04273 10.8573C3.02601 10.8404 3.0042 10.8281 2.97988 10.8218C3.02123 10.8396 3.02619 10.8603 3.03116 10.9046C2.99642 10.9194 2.9865 10.9313 2.92861 10.9327C2.87072 10.9283 2.85749 10.915 2.83598 10.8854C2.83102 10.9327 2.81448 10.9475 2.8029 10.9889C2.78306 11.0155 2.77479 11.0436 2.75328 11.0806C2.76155 11.125 2.7814 11.1264 2.78306 11.1812C2.79629 11.2181 2.79629 11.2521 2.82441 11.2743C2.83764 11.2891 2.84756 11.2906 2.87733 11.2921C2.81779 11.2921 2.7814 11.2861 2.74171 11.2654C2.71193 11.2477 2.68878 11.227 2.65901 11.2093C2.6217 11.1841 2.5797 11.1651 2.53496 11.1531C2.48699 11.1531 2.45226 11.1486 2.43241 11.1723C2.40264 11.1915 2.38279 11.224 2.36956 11.2654C2.36129 11.3128 2.35632 11.3453 2.38113 11.3763C2.39767 11.4118 2.40264 11.4251 2.38113 11.468C2.35632 11.4976 2.32159 11.502 2.26535 11.5139C2.22731 11.5124 2.18927 11.505 2.16281 11.4961" stroke="#EF2D28" stroke-width="0.0187665"/>
<path fill-rule="evenodd" clip-rule="evenodd" d="M8.7214 5.86458C9.9827 3.68137 10.8192 1.82098 10.5911 1.71567C10.3607 1.60927 9.15033 3.29704 7.88903 5.48025L8.7214 5.86458Z" fill="white" stroke="#EF2D28" stroke-width="0.0258462"/>
<path fill-rule="evenodd" clip-rule="evenodd" d="M8.638 5.82767C9.8548 3.7215 10.6928 1.94107 10.5103 1.85682C10.326 1.77171 9.18889 3.41403 7.9721 5.5202" fill="white"/>
<path d="M8.638 5.82767C9.8548 3.7215 10.6928 1.94107 10.5103 1.85682C10.326 1.77171 9.18889 3.41403 7.9721 5.5202" stroke="#EF2D28" stroke-width="0.0227061"/>
<path fill-rule="evenodd" clip-rule="evenodd" d="M8.42901 4.72897C8.28086 4.9751 8.12389 5.25711 7.97209 5.51987L8.63987 5.8282C8.79167 5.56544 8.95804 5.28778 9.09679 5.0373L8.42901 4.72897Z" fill="white" stroke="#EF2D28" stroke-width="0.02577"/>
<path fill-rule="evenodd" clip-rule="evenodd" d="M8.48722 4.81404C8.33831 5.06148 8.23599 5.2489 8.08343 5.51297L8.58191 5.74313C8.73371 5.48038 8.84695 5.29468 8.9857 5.0442L8.48722 4.81404Z" fill="white" stroke="#EF2D28" stroke-width="0.02577"/>
<path fill-rule="evenodd" clip-rule="evenodd" d="M8.8496 5.09946L8.51572 4.94529L8.2197 5.45767L8.55359 5.61183L8.8496 5.09946ZM8.8496 5.09946L8.2197 5.45767L8.8496 5.09946ZM8.55359 5.61183L8.51572 4.94529L8.55359 5.61183ZM10.3555 2.49292L10.0216 2.33875L10.3555 2.49292Z" fill="white"/>
<path d="M10.3555 2.49292L10.0216 2.33875M8.8496 5.09946L8.51572 4.94529L8.2197 5.45767L8.55359 5.61183L8.8496 5.09946ZM8.8496 5.09946L8.2197 5.45767L8.8496 5.09946ZM8.55359 5.61183L8.51572 4.94529L8.55359 5.61183Z" stroke="#EF2D28" stroke-width="0.02577"/>
<path d="M10.3533 2.25055C10.302 2.26352 10.2511 2.23745 10.2395 2.19233C10.2279 2.14721 10.2601 2.10011 10.3114 2.08714C10.3627 2.07417 10.4137 2.10024 10.4253 2.14536C10.4368 2.19049 10.4046 2.23758 10.3533 2.25055Z" fill="#EF0000" stroke="#EF2D28" stroke-width="0.033391"/>
<path fill-rule="evenodd" clip-rule="evenodd" d="M8.22697 8.32961C11.0711 11.119 12.2844 11.4713 11.714 11.6965C11.1435 11.9216 9.31255 10.4817 7.40762 8.57082C5.50269 6.65993 4.33584 4.95788 4.90626 4.73274C5.47667 4.5076 5.2011 5.36541 8.22697 8.32961Z" fill="white" stroke="#EF2D28" stroke-width="0.034025"/>
<path fill-rule="evenodd" clip-rule="evenodd" d="M10.6175 10.3593L9.62012 10.621C10.5579 11.5127 11.6132 11.8779 11.9059 11.7212C12.1987 11.5644 11.3783 11.1977 10.6158 10.3608L10.6175 10.3593Z" fill="white" stroke="#EF2D28" stroke-width="0.0187665"/>
<path fill-rule="evenodd" clip-rule="evenodd" d="M10.6181 10.4548L9.79639 10.6638C10.7099 11.5212 11.6138 11.7643 11.8474 11.6591C12.0826 11.5553 11.3592 11.261 10.6181 10.4548Z" fill="white" stroke="#EF2D28" stroke-width="0.0196761"/>
<path d="M7.56299 8.20221C7.56532 8.21566 7.57231 8.27566 7.57813 8.29945C7.57813 8.33256 7.58163 8.35738 7.58512 8.38325C7.59444 8.40601 7.59327 8.4267 7.62123 8.43497C7.63414 8.45566 7.65472 8.47175 7.67947 8.48049C7.70186 8.49643 7.72654 8.50965 7.75286 8.5198C7.78039 8.53043 7.81113 8.53262 7.84022 8.52601C7.86584 8.51049 7.88448 8.49394 7.90545 8.48049C7.91011 8.4598 7.91477 8.4298 7.92059 8.40911C7.91149 8.4367 7.90641 8.4652 7.90545 8.49394C7.90778 8.52497 7.92059 8.53946 7.93457 8.56428" stroke="#EF2D28" stroke-width="0.0197592"/>
<path d="M7.82747 8.6353L7.83446 8.6291C7.81699 8.64461 7.82397 8.63737 7.86358 8.61565C7.89153 8.60323 7.92182 8.59703 7.95793 8.59082H8.06044C8.10004 8.59082 8.12683 8.59599 8.15479 8.60323C8.17575 8.62185 8.20604 8.6322 8.22817 8.64875C8.24784 8.66195 8.26281 8.67991 8.27127 8.70048C8.29107 8.71806 8.30389 8.74496 8.32252 8.75841C8.33068 8.78841 8.34698 8.78737 8.35863 8.81013C8.32369 8.8122 8.2969 8.81634 8.27826 8.836C8.24797 8.84944 8.30389 8.82255 8.31553 8.81013C8.33883 8.80393 8.34465 8.79772 8.38076 8.79772C8.41338 8.78738 8.43435 8.80496 8.46813 8.81013C8.48793 8.82048 8.49375 8.82358 8.51938 8.82358" stroke="#EF2D28" stroke-width="0.0197592"/>
<path d="M8.21973 8.96554C8.23487 8.96554 8.30243 8.97692 8.32922 8.96554C8.35951 8.9583 8.37581 8.94485 8.39445 8.92002C8.40377 8.90244 8.39445 8.95106 8.39445 8.97175C8.39795 9.01002 8.41076 9.01002 8.43173 9.03589C8.45269 9.0483 8.47482 9.06485 8.49696 9.0752C8.51637 9.08926 8.53846 9.10012 8.56219 9.10727C8.58548 9.11761 8.60995 9.12589 8.62742 9.13934C8.65188 9.15485 8.65071 9.17348 8.66469 9.1983C8.6612 9.22934 8.65537 9.24796 8.63557 9.26244C8.62625 9.28417 8.60762 9.30589 8.59131 9.32037C8.57384 9.35141 8.55287 9.36486 8.5983 9.3721C8.62392 9.38244 8.6379 9.37417 8.66469 9.3721" stroke="#EF2D28" stroke-width="0.0197592"/>
<path d="M8.68164 9.41635C8.70028 9.41221 8.76318 9.39359 8.79113 9.38428H8.89364C8.93208 9.38738 8.94023 9.39773 8.97285 9.41014C8.99498 9.4298 9.00896 9.44324 9.03924 9.45566C9.05439 9.47324 9.08584 9.50428 9.09749 9.52704C9.10707 9.55379 9.11179 9.58173 9.11146 9.6098C9.11146 9.64808 9.09982 9.65532 9.09749 9.68842C9.08933 9.71686 9.07422 9.74335 9.05322 9.76601C9.04973 9.77428 9.0474 9.77635 9.03924 9.77842" stroke="#EF2D28" stroke-width="0.0197592"/>
<path d="M9.03345 9.86275C9.03676 9.86275 9.04337 9.87908 9.05412 9.89296C9.07811 9.91746 9.08059 9.91909 9.11615 9.91909C9.14923 9.91746 9.14509 9.90603 9.16825 9.89868C9.179 9.88235 9.19223 9.86928 9.20464 9.84723C9.21291 9.83417 9.22035 9.81375 9.22945 9.80151C9.23937 9.78599 9.25095 9.77456 9.26087 9.76068C9.2708 9.75659 9.2741 9.75251 9.28734 9.75006C9.25756 9.75496 9.25426 9.76558 9.23524 9.78109C9.22586 9.79586 9.2173 9.81113 9.2096 9.82682C9.20629 9.84887 9.19967 9.86602 9.19885 9.89296C9.19885 9.92154 9.19885 9.94114 9.2096 9.96482C9.222 9.97707 9.23027 9.99014 9.24599 10.0008C9.25906 10.0133 9.27096 10.0269 9.28155 10.0416L9.32869 10.0718C9.34357 10.0808 9.36094 10.0898 9.38492 10.0922C9.41552 10.0898 9.42462 10.0816 9.44695 10.0718C9.4668 10.0579 9.48168 10.0489 9.49905 10.0359C9.5133 10.0243 9.52558 10.0105 9.53544 9.99504C9.56273 9.9885 9.58092 9.99095 9.59746 10.0057C9.61149 10.0153 9.62355 10.0275 9.63302 10.0416C9.64129 10.0457 9.65618 10.0579 9.66445 10.062" stroke="#EF2D28" stroke-width="0.0189008"/>
<path d="M9.59652 10.0703C9.58829 10.0734 9.55745 10.0948 9.54511 10.1019C9.53688 10.1294 9.52352 10.1437 9.5194 10.1732C9.51221 10.1997 9.51221 10.2303 9.51221 10.2619C9.5194 10.2945 9.53277 10.318 9.54511 10.3434C9.56567 10.3577 9.57595 10.3679 9.60269 10.3822C9.62839 10.3862 9.65409 10.3893 9.68597 10.3893C9.70653 10.3954 9.74354 10.3985 9.76308 10.3893C9.79187 10.3852 9.81346 10.374 9.83402 10.3638C9.85767 10.3506 9.87207 10.3373 9.89777 10.3251C9.91114 10.3067 9.93067 10.2894 9.94918 10.268C9.96563 10.2466 9.97694 10.2344 9.98825 10.2109C9.97797 10.2374 9.9646 10.2619 9.95637 10.2874C9.94095 10.3139 9.93273 10.3241 9.93067 10.3567C9.92039 10.3832 9.92347 10.4158 9.92347 10.4464C9.92656 10.4667 9.92759 10.5055 9.93684 10.5228V10.5421" stroke="#EF2D28" stroke-width="0.0194487"/>
<path d="M10.5447 10.6506V10.661C10.5447 10.6358 10.5447 10.6476 10.5332 10.6979C10.515 10.7186 10.467 10.7245 10.4306 10.7157C10.3975 10.6905 10.3975 10.6713 10.338 10.661C10.2785 10.6639 10.2553 10.6787 10.2222 10.6979C10.187 10.7096 10.1577 10.7322 10.1395 10.7615C10.1279 10.7926 10.1213 10.8147 10.161 10.8266C10.1956 10.8473 10.2354 10.86 10.2768 10.8635C10.3231 10.8635 10.3578 10.8591 10.3793 10.8828C10.4124 10.9123 10.4091 10.9301 10.4091 10.9833C10.4207 10.9996 10.4223 11.0484 10.4306 11.0676C10.4591 11.081 10.4911 11.0871 10.5232 11.0853C10.5348 11.0558 10.5464 11.0055 10.5547 10.9744C10.5629 10.9419 10.5646 10.8946 10.5861 10.8724C10.6051 10.8469 10.6292 10.8249 10.6572 10.8073C10.6739 10.7904 10.6958 10.7781 10.7201 10.7719C10.6787 10.7896 10.6738 10.8103 10.6688 10.8547C10.7035 10.8694 10.7135 10.8813 10.7713 10.8828C10.8292 10.8783 10.8425 10.865 10.864 10.8354C10.8689 10.8828 10.8855 10.8975 10.897 10.9389C10.9169 10.9656 10.9252 10.9937 10.9467 11.0306C10.9384 11.075 10.9185 11.0765 10.9169 11.1312C10.9037 11.1681 10.9037 11.2021 10.8755 11.2243C10.8623 11.2391 10.8524 11.2406 10.8226 11.2421C10.8822 11.2421 10.9185 11.2362 10.9582 11.2155C10.988 11.1977 11.0112 11.177 11.0409 11.1593C11.0783 11.1341 11.1203 11.1151 11.165 11.1031C11.213 11.1031 11.2477 11.0986 11.2675 11.1223C11.2973 11.1415 11.3172 11.1741 11.3304 11.2155C11.3387 11.2628 11.3436 11.2953 11.3188 11.3264C11.3023 11.3618 11.2973 11.3752 11.3188 11.418C11.3436 11.4476 11.3784 11.452 11.4346 11.4639C11.4726 11.4624 11.5107 11.455 11.5371 11.4461" stroke="#EF2D28" stroke-width="0.0187665"/>
<path fill-rule="evenodd" clip-rule="evenodd" d="M4.97855 5.81459C3.71725 3.63138 2.88073 1.77099 3.10881 1.66568C3.33924 1.55929 4.54962 3.24705 5.81092 5.43026L4.97855 5.81459Z" fill="white" stroke="#EF2D28" stroke-width="0.0258462"/>
<path fill-rule="evenodd" clip-rule="evenodd" d="M5.06195 5.77768C3.84515 3.67152 3.00718 1.89109 3.18964 1.80684C3.37399 1.72172 4.51106 3.36405 5.72786 5.47022" fill="white"/>
<path d="M5.06195 5.77768C3.84515 3.67152 3.00718 1.89109 3.18964 1.80684C3.37399 1.72172 4.51106 3.36405 5.72786 5.47022" stroke="#EF2D28" stroke-width="0.0227061"/>
<path fill-rule="evenodd" clip-rule="evenodd" d="M5.27094 4.67892C5.4191 4.92505 5.57606 5.20706 5.72786 5.46982L5.06008 5.77815C4.90828 5.51539 4.74191 5.23773 4.60316 4.98726L5.27094 4.67892Z" fill="white" stroke="#EF2D28" stroke-width="0.02577"/>
<path fill-rule="evenodd" clip-rule="evenodd" d="M5.21273 4.76399C5.36164 5.01143 5.46396 5.19885 5.61652 5.46292L5.11804 5.69308C4.96624 5.43033 4.853 5.24463 4.71425 4.99415L5.21273 4.76399Z" fill="white" stroke="#EF2D28" stroke-width="0.02577"/>
<path fill-rule="evenodd" clip-rule="evenodd" d="M4.85059 5.04947L5.18448 4.89531L5.48049 5.40768L5.1466 5.56185L4.85059 5.04947ZM4.85059 5.04947L5.48049 5.40768L4.85059 5.04947ZM5.1466 5.56185L5.18448 4.89531L5.1466 5.56185ZM3.34473 2.44293L3.67862 2.28877L3.34473 2.44293Z" fill="white"/>
<path d="M3.34473 2.44293L3.67862 2.28877M4.85059 5.04947L5.18448 4.89531L5.48049 5.40768L5.1466 5.56185L4.85059 5.04947ZM4.85059 5.04947L5.48049 5.40768L4.85059 5.04947ZM5.1466 5.56185L5.18448 4.89531L5.1466 5.56185Z" stroke="#EF2D28" stroke-width="0.02577"/>
<path d="M3.34661 2.2005C3.39792 2.21347 3.44889 2.1874 3.46047 2.14228C3.47205 2.09716 3.43985 2.05006 3.38854 2.03709C3.33724 2.02412 3.28627 2.05019 3.27469 2.09531C3.26311 2.14044 3.29531 2.18753 3.34661 2.2005Z" fill="#EF0000" stroke="#EF2D28" stroke-width="0.033391"/>
<path fill-rule="evenodd" clip-rule="evenodd" d="M5.98723 4.7019C5.98723 6.53545 5.99825 7.22599 5.86373 7.32062C5.73582 7.42265 2.17871 7.32062 2.17871 7.84407C2.17871 8.36752 5.10732 8.89392 5.98723 8.89392C7.16043 8.89392 7.74483 8.369 7.74483 7.32062V4.70338H5.98723V4.7019Z" fill="white" stroke="#EF2D28" stroke-width="0.0234752"/>
<path fill-rule="evenodd" clip-rule="evenodd" d="M5.98804 5.22528V5.487C6.56949 5.57416 7.16313 5.57416 7.74459 5.487V5.22528C7.16313 5.31244 6.56949 5.31244 5.98804 5.22528Z" fill="white" stroke="#EF2D28" stroke-width="0.0203304"/>
<path fill-rule="evenodd" clip-rule="evenodd" d="M5.98804 4.70184V4.96356C6.56949 5.05073 7.16313 5.05073 7.74459 4.96356V4.70184C7.16313 4.789 6.56949 4.789 5.98804 4.70184Z" fill="white" stroke="#EF2D28" stroke-width="0.0203304"/>
<path fill-rule="evenodd" clip-rule="evenodd" d="M5.98804 4.96356V5.22528C6.56949 5.31244 7.16313 5.31244 7.74459 5.22528V4.96356C7.16313 5.05072 6.56949 5.05072 5.98804 4.96356Z" fill="white" stroke="#EF2D28" stroke-width="0.0203304"/>
<path fill-rule="evenodd" clip-rule="evenodd" d="M5.98804 5.487V5.74872C6.56949 5.83588 7.16313 5.83588 7.74459 5.74872V5.487C7.16313 5.57416 6.56949 5.57416 5.98804 5.487Z" fill="white" stroke="#EF2D28" stroke-width="0.0203304"/>
<path d="M6.06784 5.16838C6.11219 5.16838 6.14814 5.14305 6.14814 5.11181C6.14814 5.08056 6.11219 5.05524 6.06784 5.05524C6.0235 5.05524 5.98755 5.08056 5.98755 5.11181C5.98755 5.14305 6.0235 5.16838 6.06784 5.16838Z" fill="white" stroke="#EF2D28" stroke-width="0.0192734"/>
<path d="M6.38718 5.19652C6.43152 5.19652 6.46747 5.17119 6.46747 5.13995C6.46747 5.1087 6.43152 5.08337 6.38718 5.08337C6.34283 5.08337 6.30688 5.1087 6.30688 5.13995C6.30688 5.17119 6.34283 5.19652 6.38718 5.19652Z" fill="white" stroke="#EF2D28" stroke-width="0.0192734"/>
<path d="M6.70749 5.22533C6.75184 5.22533 6.78778 5.2 6.78778 5.16875C6.78778 5.13751 6.75184 5.11218 6.70749 5.11218C6.66315 5.11218 6.6272 5.13751 6.6272 5.16875C6.6272 5.2 6.66315 5.22533 6.70749 5.22533Z" fill="white" stroke="#EF2D28" stroke-width="0.0192734"/>
<path d="M7.02683 5.22533C7.07117 5.22533 7.10712 5.2 7.10712 5.16875C7.10712 5.13751 7.07117 5.11218 7.02683 5.11218C6.98248 5.11218 6.94653 5.13751 6.94653 5.16875C6.94653 5.2 6.98248 5.22533 7.02683 5.22533Z" fill="white" stroke="#EF2D28" stroke-width="0.0192734"/>
<path d="M7.34616 5.19652C7.39051 5.19652 7.42646 5.17119 7.42646 5.13995C7.42646 5.1087 7.39051 5.08337 7.34616 5.08337C7.30182 5.08337 7.26587 5.1087 7.26587 5.13995C7.26587 5.17119 7.30182 5.19652 7.34616 5.19652Z" fill="white" stroke="#EF2D28" stroke-width="0.0192734"/>
<path d="M7.66648 5.16838C7.71082 5.16838 7.74677 5.14305 7.74677 5.11181C7.74677 5.08056 7.71082 5.05524 7.66648 5.05524C7.62213 5.05524 7.58618 5.08056 7.58618 5.11181C7.58618 5.14305 7.62213 5.16838 7.66648 5.16838Z" fill="white" stroke="#EF2D28" stroke-width="0.0192734"/>
<path fill-rule="evenodd" clip-rule="evenodd" d="M5.98796 6.01056L7.74451 7.42564L5.98796 6.01056ZM6.16328 6.01056L7.74616 7.26743L6.16328 6.01056ZM6.3965 6.06379L7.74616 7.11217L6.3965 6.06379ZM6.57182 6.06231L7.74616 6.95395L6.57182 6.06231ZM6.7488 6.06379L7.74451 6.79721L6.7488 6.06379ZM6.92412 6.06379L7.74451 6.64047L6.92412 6.06379ZM7.09945 6.06379L7.74451 6.48225L7.09945 6.06379ZM7.27808 6.06379L7.74781 6.37727L7.27808 6.06379ZM7.45175 6.06379L7.74616 6.27376L7.45175 6.06379ZM7.62873 6.06379L7.74451 6.1673L7.62873 6.06379ZM5.98796 6.1673L7.74451 7.58386L5.98796 6.1673ZM7.74451 6.01204L5.80933 7.58238L7.74451 6.01204ZM7.56753 6.01056L5.86887 7.37389L7.56753 6.01056ZM7.33431 6.06379L5.9863 7.11069L7.33431 6.06379ZM7.15734 6.06379L5.9863 6.95395L7.15734 6.06379ZM6.98367 6.06379L5.98796 6.79721L6.98367 6.06379ZM6.80834 6.06379L5.98796 6.64047L6.80834 6.06379ZM6.63302 6.06379L5.98796 6.48225L6.63302 6.06379ZM6.45439 6.06379L5.9863 6.37727L6.45439 6.06379ZM6.27906 6.06379L5.9863 6.27376L6.27906 6.06379ZM6.10208 6.06379L5.9863 6.1673L6.10208 6.06379ZM7.74451 6.1673L5.80933 7.74208L7.74451 6.1673ZM7.74451 6.32699L5.80933 7.89734L7.74451 6.32699ZM7.74451 6.48225L5.80933 8.05408L7.74451 6.48225ZM7.74451 6.63899L5.80933 8.21377L7.74451 6.63899ZM7.74451 6.79869L5.80933 8.36903L7.74451 6.79869ZM7.74451 6.95395L5.80933 8.52577L7.74451 6.95395ZM7.74451 7.11069L5.80933 8.68251L7.74451 7.11069ZM7.74451 7.2689L5.80933 8.84073L7.74451 7.2689ZM7.74451 7.42564L5.92676 8.89248L7.74451 7.42564ZM7.74451 7.58238L6.10374 8.89248L7.74451 7.58238ZM7.68496 7.79235L6.39484 8.84073L7.68496 7.79235ZM7.62873 8.00084L6.57347 8.83925L7.62873 8.00084ZM7.51129 8.26257L6.98201 8.68103L7.51129 8.26257ZM5.98796 6.32404L7.68662 7.68589L5.98796 6.32404ZM5.98796 6.48078L7.68662 7.84411L5.98796 6.48078ZM5.98796 6.64047L7.62873 7.94909L5.98796 6.64047ZM5.98796 6.79573L7.62873 8.10731L5.98796 6.79573ZM5.98796 6.95395L7.56918 8.21082L5.98796 6.95395ZM5.92841 7.05893L7.51129 8.3158L5.92841 7.05893ZM5.92841 7.21715L7.39386 8.37051L5.92841 7.21715ZM5.87052 7.32066L7.33597 8.47402L5.87052 7.32066ZM5.80933 7.42416L7.21523 8.52429L5.80933 7.42416ZM5.80933 7.5809L7.15734 8.62928L5.80933 7.5809ZM5.80933 7.73912L6.98367 8.68103L5.80933 7.73912Z" fill="white"/>
<path d="M5.80933 7.73912L6.98367 8.68103M5.98796 6.01056L7.74451 7.42564L5.98796 6.01056ZM6.16328 6.01056L7.74616 7.26743L6.16328 6.01056ZM6.3965 6.06379L7.74616 7.11217L6.3965 6.06379ZM6.57182 6.06231L7.74616 6.95395L6.57182 6.06231ZM6.7488 6.06379L7.74451 6.79721L6.7488 6.06379ZM6.92412 6.06379L7.74451 6.64047L6.92412 6.06379ZM7.09945 6.06379L7.74451 6.48225L7.09945 6.06379ZM7.27808 6.06379L7.74781 6.37727L7.27808 6.06379ZM7.45175 6.06379L7.74616 6.27376L7.45175 6.06379ZM7.62873 6.06379L7.74451 6.1673L7.62873 6.06379ZM5.98796 6.1673L7.74451 7.58386L5.98796 6.1673ZM7.74451 6.01204L5.80933 7.58238L7.74451 6.01204ZM7.56753 6.01056L5.86887 7.37389L7.56753 6.01056ZM7.33431 6.06379L5.9863 7.11069L7.33431 6.06379ZM7.15734 6.06379L5.9863 6.95395L7.15734 6.06379ZM6.98367 6.06379L5.98796 6.79721L6.98367 6.06379ZM6.80834 6.06379L5.98796 6.64047L6.80834 6.06379ZM6.63302 6.06379L5.98796 6.48225L6.63302 6.06379ZM6.45439 6.06379L5.9863 6.37727L6.45439 6.06379ZM6.27906 6.06379L5.9863 6.27376L6.27906 6.06379ZM6.10208 6.06379L5.9863 6.1673L6.10208 6.06379ZM7.74451 6.1673L5.80933 7.74208L7.74451 6.1673ZM7.74451 6.32699L5.80933 7.89734L7.74451 6.32699ZM7.74451 6.48225L5.80933 8.05408L7.74451 6.48225ZM7.74451 6.63899L5.80933 8.21377L7.74451 6.63899ZM7.74451 6.79869L5.80933 8.36903L7.74451 6.79869ZM7.74451 6.95395L5.80933 8.52577L7.74451 6.95395ZM7.74451 7.11069L5.80933 8.68251L7.74451 7.11069ZM7.74451 7.2689L5.80933 8.84073L7.74451 7.2689ZM7.74451 7.42564L5.92676 8.89248L7.74451 7.42564ZM7.74451 7.58238L6.10374 8.89248L7.74451 7.58238ZM7.68496 7.79235L6.39484 8.84073L7.68496 7.79235ZM7.62873 8.00084L6.57347 8.83925L7.62873 8.00084ZM7.51129 8.26257L6.98201 8.68103L7.51129 8.26257ZM5.98796 6.32404L7.68662 7.68589L5.98796 6.32404ZM5.98796 6.48078L7.68662 7.84411L5.98796 6.48078ZM5.98796 6.64047L7.62873 7.94909L5.98796 6.64047ZM5.98796 6.79573L7.62873 8.10731L5.98796 6.79573ZM5.98796 6.95395L7.56918 8.21082L5.98796 6.95395ZM5.92841 7.05893L7.51129 8.3158L5.92841 7.05893ZM5.92841 7.21715L7.39386 8.37051L5.92841 7.21715ZM5.87052 7.32066L7.33597 8.47402L5.87052 7.32066ZM5.80933 7.42416L7.21523 8.52429L5.80933 7.42416ZM5.80933 7.5809L7.15734 8.62928L5.80933 7.5809Z" stroke="#EF2D28" stroke-width="0.0203304"/>
<path fill-rule="evenodd" clip-rule="evenodd" d="M5.98804 5.75024V6.01197C6.56949 6.09913 7.16313 6.09913 7.74459 6.01197V5.75024C7.16313 5.83741 6.56949 5.83741 5.98804 5.75024Z" fill="white" stroke="#EF2D28" stroke-width="0.0203304"/>
<path fill-rule="evenodd" clip-rule="evenodd" d="M5.81098 7.89734L6.86623 8.73574L5.81098 7.89734ZM5.81098 8.05556L6.7488 8.7875L5.81098 8.05556ZM5.81098 8.21082L6.63136 8.84073L5.81098 8.21082ZM5.81098 8.36755L6.39815 8.84073L5.81098 8.36755ZM5.80933 8.52577L6.27906 8.89248L5.80933 8.52577ZM5.80933 8.68251L6.10208 8.89248L5.80933 8.68251Z" fill="white"/>
<path d="M5.80933 8.68251L6.10208 8.89248M5.81098 7.89734L6.86623 8.73574L5.81098 7.89734ZM5.81098 8.05556L6.7488 8.7875L5.81098 8.05556ZM5.81098 8.21082L6.63136 8.84073L5.81098 8.21082ZM5.81098 8.36755L6.39815 8.84073L5.81098 8.36755ZM5.80933 8.52577L6.27906 8.89248L5.80933 8.52577Z" stroke="#EF2D28" stroke-width="0.0203304"/>
<path d="M6.06784 5.955C6.11219 5.955 6.14814 5.92967 6.14814 5.89843C6.14814 5.86719 6.11219 5.84186 6.06784 5.84186C6.0235 5.84186 5.98755 5.86719 5.98755 5.89843C5.98755 5.92967 6.0235 5.955 6.06784 5.955Z" fill="white" stroke="#EF2D28" stroke-width="0.0192734"/>
<path d="M6.38718 5.9832C6.43152 5.9832 6.46747 5.95787 6.46747 5.92663C6.46747 5.89538 6.43152 5.87006 6.38718 5.87006C6.34283 5.87006 6.30688 5.89538 6.30688 5.92663C6.30688 5.95787 6.34283 5.9832 6.38718 5.9832Z" fill="white" stroke="#EF2D28" stroke-width="0.0192734"/>
<path d="M6.70749 6.01048C6.75184 6.01048 6.78778 5.98515 6.78778 5.95391C6.78778 5.92267 6.75184 5.89734 6.70749 5.89734C6.66315 5.89734 6.6272 5.92267 6.6272 5.95391C6.6272 5.98515 6.66315 6.01048 6.70749 6.01048Z" fill="white" stroke="#EF2D28" stroke-width="0.0192734"/>
<path d="M7.02683 6.01048C7.07117 6.01048 7.10712 5.98515 7.10712 5.95391C7.10712 5.92267 7.07117 5.89734 7.02683 5.89734C6.98248 5.89734 6.94653 5.92267 6.94653 5.95391C6.94653 5.98515 6.98248 6.01048 7.02683 6.01048Z" fill="white" stroke="#EF2D28" stroke-width="0.0192734"/>
<path d="M7.34616 5.9832C7.39051 5.9832 7.42646 5.95787 7.42646 5.92663C7.42646 5.89538 7.39051 5.87006 7.34616 5.87006C7.30182 5.87006 7.26587 5.89538 7.26587 5.92663C7.26587 5.95787 7.30182 5.9832 7.34616 5.9832Z" fill="white" stroke="#EF2D28" stroke-width="0.0192734"/>
<path d="M7.66648 5.955C7.71082 5.955 7.74677 5.92967 7.74677 5.89843C7.74677 5.86719 7.71082 5.84186 7.66648 5.84186C7.62213 5.84186 7.58618 5.86719 7.58618 5.89843C7.58618 5.92967 7.62213 5.955 7.66648 5.955Z" fill="white" stroke="#EF2D28" stroke-width="0.0192734"/>
<path fill-rule="evenodd" clip-rule="evenodd" d="M3.46724 8.47397L5.57609 7.37384L3.46724 8.47397ZM3.3498 8.42074L5.34287 7.37384L3.3498 8.42074ZM3.29191 8.31575L5.10801 7.37384L3.29191 8.31575ZM3.23237 8.21224L4.81525 7.37384L3.23237 8.21224ZM3.11328 8.10726L4.57873 7.37384L3.11328 8.10726ZM3.17283 7.95052L4.16853 7.42559L3.17283 7.95052ZM3.11328 7.84406L3.87412 7.42559L3.11328 7.84406ZM3.11328 7.68732L3.64256 7.42559L3.11328 7.68732ZM3.64256 8.52572L5.63398 7.47735L3.64256 8.52572ZM3.81954 8.57748L5.69352 7.58233L3.81954 8.57748ZM3.99486 8.63071L5.75307 7.68732L3.99486 8.63071ZM4.17019 8.68246L5.63563 7.89729L4.17019 8.68246ZM4.4034 8.68246L5.69352 8.00227L4.4034 8.68246ZM4.57873 8.73569L5.69187 8.15901L4.57873 8.73569ZM4.75405 8.78745L5.63398 8.31575L4.75405 8.78745ZM4.98892 8.78892L5.69187 8.42074L4.98892 8.78892ZM5.22379 8.84068L5.69352 8.57748L5.22379 8.84068ZM5.46196 8.84068L5.75472 8.68394L5.46196 8.84068Z" fill="white"/>
<path d="M5.46196 8.84068L5.75472 8.68394M3.46724 8.47397L5.57609 7.37384L3.46724 8.47397ZM3.3498 8.42074L5.34287 7.37384L3.3498 8.42074ZM3.29191 8.31575L5.10801 7.37384L3.29191 8.31575ZM3.23237 8.21224L4.81525 7.37384L3.23237 8.21224ZM3.11328 8.10726L4.57873 7.37384L3.11328 8.10726ZM3.17283 7.95052L4.16853 7.42559L3.17283 7.95052ZM3.11328 7.84406L3.87412 7.42559L3.11328 7.84406ZM3.11328 7.68732L3.64256 7.42559L3.11328 7.68732ZM3.64256 8.52572L5.63398 7.47735L3.64256 8.52572ZM3.81954 8.57748L5.69352 7.58233L3.81954 8.57748ZM3.99486 8.63071L5.75307 7.68732L3.99486 8.63071ZM4.17019 8.68246L5.63563 7.89729L4.17019 8.68246ZM4.4034 8.68246L5.69352 8.00227L4.4034 8.68246ZM4.57873 8.73569L5.69187 8.15901L4.57873 8.73569ZM4.75405 8.78745L5.63398 8.31575L4.75405 8.78745ZM4.98892 8.78892L5.69187 8.42074L4.98892 8.78892ZM5.22379 8.84068L5.69352 8.57748L5.22379 8.84068Z" stroke="#EF2D28" stroke-width="0.0203304"/>
<path fill-rule="evenodd" clip-rule="evenodd" d="M5.86914 7.32208H5.57639C5.47889 7.8419 5.47889 8.37261 5.57639 8.89243H5.86914C5.77164 8.37261 5.77164 7.8419 5.86914 7.32208Z" fill="white" stroke="#EF2D28" stroke-width="0.0203304"/>
<path fill-rule="evenodd" clip-rule="evenodd" d="M2.41211 8.05403L3.11506 7.53058L2.41211 8.05403ZM2.41211 7.68732L3.11506 8.31575L2.41211 7.68732Z" fill="white"/>
<path d="M2.41211 7.68732L3.11506 8.31575M2.41211 8.05403L3.11506 7.53058L2.41211 8.05403Z" stroke="#EF2D28" stroke-width="0.0203304"/>
<path fill-rule="evenodd" clip-rule="evenodd" d="M3.46729 7.42456L3.11531 7.477C3.03725 7.80946 3.03725 8.08853 3.11531 8.42098L3.46729 8.52493C3.38922 8.19341 3.38922 7.75701 3.46729 7.42456Z" fill="white" stroke="#EF2D28" stroke-width="0.0144713"/>
<path fill-rule="evenodd" clip-rule="evenodd" d="M7.74483 4.80539V4.54071C7.47966 4.54367 7.30371 4.38545 7.30371 4.22723L6.42643 4.22871C6.42643 4.38545 6.25296 4.54367 5.98779 4.54367V4.80539H7.74483Z" fill="white" stroke="#EF2D28" stroke-width="0.0248855"/>
<path fill-rule="evenodd" clip-rule="evenodd" d="M6.48755 3.91527H7.24177V4.23022H6.48755V3.91527ZM6.55205 3.60031H7.17892V3.91527H6.5504L6.55205 3.60031ZM6.55205 3.28683H7.17892V3.60031H6.5504L6.55205 3.28683ZM6.61491 2.86689H7.11607V3.28683H6.61491V2.86689ZM6.5934 2.50018H7.13922V2.86689H6.5934V2.50018Z" fill="white" stroke="#EF2D28" stroke-width="0.0218943"/>
<path d="M6.89457 2.65836C7.29573 2.65836 7.62093 2.43526 7.62093 2.16005C7.62093 1.88484 7.29573 1.66174 6.89457 1.66174C6.49341 1.66174 6.16821 1.88484 6.16821 2.16005C6.16821 2.43526 6.49341 2.65836 6.89457 2.65836Z" fill="white" stroke="#EF2D28" stroke-width="0.0206661"/>
<path fill-rule="evenodd" clip-rule="evenodd" d="M7.2586 2.13348C7.2586 2.271 7.43976 2.50019 7.43976 2.50019C7.30816 2.59187 7.09452 2.65841 6.89456 2.65841C6.6946 2.65841 6.44507 2.61997 6.34937 2.50019C6.34937 2.50019 6.53053 2.27248 6.53053 2.13496C6.53053 1.99745 6.34937 1.82001 6.34937 1.82001C6.508 1.71916 6.69942 1.6643 6.89627 1.66327C7.09452 1.66327 7.30645 1.72981 7.43976 1.82001C7.43976 1.82001 7.2586 1.99745 7.2586 2.13496V2.13348Z" fill="white" stroke="#EF2D28" stroke-width="0.0206661"/>
<path fill-rule="evenodd" clip-rule="evenodd" d="M7.13724 2.13348C7.13724 2.271 7.31841 2.55343 7.31841 2.55343C7.18681 2.64215 7.09623 2.65693 6.89455 2.65693C6.69288 2.65693 6.56641 2.6732 6.4707 2.55343C6.4707 2.55343 6.65187 2.27248 6.65187 2.13348C6.65187 1.99449 6.4707 1.76678 6.4707 1.76678C6.6023 1.67806 6.69288 1.66327 6.89455 1.66327C7.09452 1.66327 7.18681 1.67806 7.31841 1.76678C7.31841 1.76678 7.13724 1.99597 7.13724 2.13348Z" fill="white" stroke="#EF2D28" stroke-width="0.0206661"/>
<path d="M6.16822 2.34198C6.26828 2.34198 6.34939 2.27181 6.34939 2.18524C6.34939 2.09868 6.26828 2.0285 6.16822 2.0285C6.06817 2.0285 5.98706 2.09868 5.98706 2.18524C5.98706 2.27181 6.06817 2.34198 6.16822 2.34198Z" fill="white" stroke="#EF2D28" stroke-width="0.0206661"/>
<path d="M7.62208 2.34198C7.72213 2.34198 7.80324 2.27181 7.80324 2.18524C7.80324 2.09868 7.72213 2.0285 7.62208 2.0285C7.52203 2.0285 7.44092 2.09868 7.44092 2.18524C7.44092 2.27181 7.52203 2.34198 7.62208 2.34198Z" fill="white" stroke="#EF2D28" stroke-width="0.0206661"/>
<path d="M6.89601 2.34198C6.99606 2.34198 7.07717 2.27181 7.07717 2.18524C7.07717 2.09868 6.99606 2.0285 6.89601 2.0285C6.79595 2.0285 6.71484 2.09868 6.71484 2.18524C6.71484 2.27181 6.79595 2.34198 6.89601 2.34198Z" fill="white" stroke="#EF2D28" stroke-width="0.0206661"/>
<path d="M6.89601 1.81848C6.99606 1.81848 7.07717 1.74831 7.07717 1.66174C7.07717 1.57518 6.99606 1.505 6.89601 1.505C6.79595 1.505 6.71484 1.57518 6.71484 1.66174C6.71484 1.74831 6.79595 1.81848 6.89601 1.81848Z" fill="white" stroke="#EF2D28" stroke-width="0.0206661"/>
<path d="M6.36488 4.80542C6.4685 4.80542 6.55251 4.73525 6.55251 4.64868C6.55251 4.56212 6.4685 4.49194 6.36488 4.49194C6.26125 4.49194 6.17725 4.56212 6.17725 4.64868C6.17725 4.73525 6.26125 4.80542 6.36488 4.80542Z" fill="white" stroke="#EF2D28" stroke-width="0.0210319"/>
<path d="M7.36707 4.80542C7.4707 4.80542 7.55471 4.73525 7.55471 4.64868C7.55471 4.56212 7.4707 4.49194 7.36707 4.49194C7.26345 4.49194 7.17944 4.56212 7.17944 4.64868C7.17944 4.73525 7.26345 4.80542 7.36707 4.80542Z" fill="white" stroke="#EF2D28" stroke-width="0.0210319"/>
<path fill-rule="evenodd" clip-rule="evenodd" d="M6.42676 4.22876H7.30473L6.86575 4.70045L6.42676 4.22876Z" fill="white" stroke="#EF2D28" stroke-width="0.0210319"/>
<path d="M6.86493 4.80437C7.00311 4.80437 7.11512 4.71081 7.11512 4.59539C7.11512 4.47998 7.00311 4.38641 6.86493 4.38641C6.72676 4.38641 6.61475 4.47998 6.61475 4.59539C6.61475 4.71081 6.72676 4.80437 6.86493 4.80437Z" fill="white" stroke="#EF2D28" stroke-width="0.0280429"/>
<path d="M7.1807 6.16217H5.97493C5.93565 6.16217 5.90381 6.18666 5.90381 6.21688V6.42242C5.90381 6.45263 5.93565 6.47713 5.97493 6.47713H7.1807C7.21998 6.47713 7.25182 6.45263 7.25182 6.42242V6.21688C7.25182 6.18666 7.21998 6.16217 7.1807 6.16217Z" fill="white" stroke="#EF2D28" stroke-width="0.0187665"/>
<path fill-rule="evenodd" clip-rule="evenodd" d="M7.66191 5.90046C7.49982 5.90046 7.36915 6.02319 7.36915 6.17401V6.41208C7.36805 6.44728 7.37478 6.48232 7.38894 6.51518C7.4031 6.54804 7.42441 6.57806 7.45164 6.60351C7.47887 6.62895 7.51147 6.64931 7.54757 6.66341C7.58366 6.67751 7.62253 6.68506 7.66191 6.68563C7.70129 6.68506 7.74016 6.67751 7.77625 6.66341C7.81235 6.64931 7.84495 6.62895 7.87218 6.60351C7.89941 6.57806 7.92073 6.54804 7.93489 6.51518C7.94904 6.48232 7.95577 6.44728 7.95467 6.41208V6.17549C7.95599 6.14017 7.94943 6.10497 7.93537 6.07194C7.92132 6.03891 7.90004 6.00871 7.87279 5.98311C7.84554 5.9575 7.81285 5.93701 7.77665 5.92282C7.74044 5.90863 7.70144 5.90103 7.66191 5.90046ZM7.66191 6.00397C7.56432 6.00397 7.48659 6.10304 7.48659 6.22429V6.36181C7.48659 6.48306 7.56432 6.58065 7.66191 6.58065C7.7595 6.58065 7.83723 6.48306 7.83723 6.36181V6.22429C7.83723 6.10304 7.7595 6.00545 7.66191 6.00545V6.00397ZM6.13858 5.95221C6.03934 5.95221 5.96325 6.04981 5.96325 6.17254V6.41504C5.96325 6.53629 6.04099 6.63388 6.13858 6.63388C6.23616 6.63388 6.3139 6.53629 6.3139 6.41504V6.17106C6.3139 6.04833 6.23616 5.95074 6.13858 5.95074V5.95221ZM6.13858 5.84871C6.09919 5.84928 6.06033 5.85683 6.02423 5.87093C5.98814 5.88503 5.95553 5.90539 5.9283 5.93083C5.90107 5.95628 5.87976 5.9863 5.8656 6.01916C5.85144 6.05202 5.84472 6.08706 5.84582 6.12226V6.46531C5.84472 6.50051 5.85144 6.53556 5.8656 6.56842C5.87976 6.60127 5.90107 6.6313 5.9283 6.65674C5.95553 6.68218 5.98814 6.70254 6.02423 6.71664C6.06033 6.73074 6.09919 6.73829 6.13858 6.73887C6.30067 6.73887 6.43133 6.61614 6.43133 6.46531V6.12226C6.43266 6.08694 6.4261 6.05174 6.41204 6.0187C6.39798 5.98567 6.37671 5.95548 6.34945 5.92987C6.3222 5.90427 6.28952 5.88378 6.25331 5.86959C6.21711 5.8554 6.1781 5.8478 6.13858 5.84723V5.84871Z" fill="white" stroke="#EF2D28" stroke-width="0.0187665"/>
<path fill-rule="evenodd" clip-rule="evenodd" d="M5.66885 6.05719C5.57126 6.05719 5.49353 6.15479 5.49353 6.27604V6.33371C5.49353 6.45496 5.57126 6.55255 5.66885 6.55255C5.76809 6.55255 5.84583 6.45496 5.84583 6.33371V6.27604C5.84583 6.15479 5.76644 6.05719 5.66885 6.05719ZM5.66885 5.95369C5.62947 5.95426 5.5906 5.96182 5.55451 5.97591C5.51841 5.99001 5.48581 6.01037 5.45858 6.03581C5.43135 6.06126 5.41004 6.09128 5.39588 6.12414C5.38172 6.157 5.37499 6.19204 5.37609 6.22724V6.38398C5.37499 6.41918 5.38172 6.45422 5.39588 6.48708C5.41004 6.51994 5.43135 6.54996 5.45858 6.57541C5.48581 6.60085 5.51841 6.62121 5.55451 6.63531C5.5906 6.64941 5.62947 6.65696 5.66885 6.65753C5.83094 6.65753 5.96326 6.5348 5.96326 6.38398V6.22724C5.96459 6.1918 5.95797 6.15647 5.94381 6.12335C5.92965 6.09022 5.90823 6.05995 5.8808 6.03433C5.85338 6.00871 5.8205 5.98825 5.7841 5.97414C5.7477 5.96004 5.70852 5.95258 5.66885 5.95221V5.95369Z" fill="white" stroke="#EF2D28" stroke-width="0.0187665"/>
<path fill-rule="evenodd" clip-rule="evenodd" d="M4.96774 5.91256C4.78911 5.91256 4.64918 6.02163 4.64918 6.15714V6.42981C4.64918 6.56367 4.79209 6.67439 4.96774 6.67439C5.14042 6.67439 5.28332 6.56532 5.28332 6.42816V6.15714C5.28332 6.02163 5.14042 5.91256 4.96774 5.91256ZM4.96774 5.79688C4.89686 5.79731 4.82683 5.80554 4.76171 5.82109C4.6966 5.83665 4.63769 5.85922 4.5884 5.8875C4.53911 5.91578 4.50042 5.94921 4.47457 5.98585C4.44872 6.02249 4.43622 6.06161 4.4378 6.10095V6.48434C4.43542 6.52382 4.44722 6.56316 4.47253 6.60008C4.49783 6.63699 4.53613 6.67074 4.58518 6.69936C4.63424 6.72797 4.69307 6.75087 4.75824 6.76673C4.82341 6.78259 4.89362 6.79108 4.96476 6.79172C5.25951 6.79172 5.49471 6.65456 5.49471 6.48434V6.10095C5.49668 6.06161 5.48458 6.02245 5.45909 5.98572C5.43361 5.949 5.39525 5.91545 5.34623 5.88701C5.29722 5.85857 5.23853 5.83582 5.17356 5.82006C5.10859 5.80431 5.03863 5.79587 4.96774 5.79523V5.79688Z" fill="white" stroke="#EF2D28" stroke-width="0.019963"/>
<path fill-rule="evenodd" clip-rule="evenodd" d="M8.77707 5.96432C8.59844 5.96432 8.45851 6.07339 8.45851 6.20889V6.48157C8.45851 6.61542 8.60141 6.72615 8.77707 6.72615C8.94975 6.72615 9.09265 6.61708 9.09265 6.47991V6.20889C9.09265 6.07339 8.94975 5.96432 8.77707 5.96432ZM8.77707 5.84864C8.70618 5.84906 8.63615 5.85729 8.57104 5.87285C8.50592 5.88841 8.44701 5.91098 8.39773 5.93926C8.34844 5.96754 8.30975 6.00097 8.2839 6.03761C8.25804 6.07425 8.24555 6.11337 8.24713 6.15271V6.5361C8.24475 6.57558 8.25655 6.61492 8.28186 6.65184C8.30716 6.68875 8.34546 6.7225 8.39451 6.75111C8.44356 6.77973 8.50239 6.80263 8.56756 6.81849C8.63273 6.83435 8.70294 6.84284 8.77409 6.84348C9.06883 6.84348 9.30403 6.70631 9.30403 6.5361V6.15271C9.30601 6.11337 9.29391 6.0742 9.26842 6.03748C9.24294 6.00076 9.20457 5.9672 9.15556 5.93877C9.10655 5.91033 9.04785 5.88758 8.98288 5.87182C8.91791 5.85607 8.84796 5.84763 8.77707 5.84698V5.84864Z" fill="white" stroke="#EF2D28" stroke-width="0.019963"/>
<path d="M8.4442 6.16217H7.81734C7.79633 6.16217 7.7793 6.18666 7.7793 6.21688V6.42242C7.7793 6.45263 7.79633 6.47713 7.81734 6.47713H8.4442C8.46521 6.47713 8.48225 6.45263 8.48225 6.42242V6.21688C8.48225 6.18666 8.46521 6.16217 8.4442 6.16217Z" fill="white" stroke="#EF2D28" stroke-width="0.0187665"/>
<path d="M7.52297 6.11041H7.15578C7.1439 6.11041 7.13428 6.14285 7.13428 6.18287V6.4579C7.13428 6.49791 7.1439 6.53035 7.15578 6.53035H7.52297C7.53484 6.53035 7.54447 6.49791 7.54447 6.4579V6.18287C7.54447 6.14285 7.53484 6.11041 7.52297 6.11041Z" fill="white" stroke="#EF2D28" stroke-width="0.0187665"/>
<path d="M5.58937 6.11041H5.22219C5.21031 6.11041 5.20068 6.14285 5.20068 6.18287V6.4579C5.20068 6.49791 5.21031 6.53035 5.22219 6.53035H5.58937C5.60125 6.53035 5.61088 6.49791 5.61088 6.4579V6.18287C5.61088 6.14285 5.60125 6.11041 5.58937 6.11041Z" fill="white" stroke="#EF2D28" stroke-width="0.0187665"/>
<path d="M4.68802 6.05719H3.95365C3.9299 6.05719 3.91064 6.09757 3.91064 6.14739V6.49044C3.91064 6.54025 3.9299 6.58064 3.95365 6.58064H4.68802C4.71178 6.58064 4.73103 6.54025 4.73103 6.49044V6.14739C4.73103 6.09757 4.71178 6.05719 4.68802 6.05719Z" fill="white" stroke="#EF2D28" stroke-width="0.0187665"/>
<path d="M9.73115 6.11041H9.05136C9.02852 6.11041 9.01001 6.1508 9.01001 6.20061V6.54366C9.01001 6.59348 9.02852 6.63386 9.05136 6.63386H9.73115C9.75399 6.63386 9.7725 6.59348 9.7725 6.54366V6.20061C9.7725 6.1508 9.75399 6.11041 9.73115 6.11041Z" fill="white" stroke="#EF2D28" stroke-width="0.0187665"/>
</g>
</g>
<defs>
<clipPath id="clip0_769_20868">
<path d="M0 20C0 8.95431 8.95431 0 20 0C31.0457 0 40 8.95431 40 20C40 31.0457 31.0457 40 20 40C8.95431 40 0 31.0457 0 20Z" fill="white"/>
</clipPath>
<clipPath id="clip1_769_20868">
<rect width="53.3333" height="40" fill="white" transform="translate(0 -0.000244141)"/>
</clipPath>
</defs>
</svg>
