<svg width="40" height="40" viewBox="0 0 40 40" fill="none" xmlns="http://www.w3.org/2000/svg">
<g clip-path="url(#clip0_769_21240)">
<path d="M0 20C0 8.95431 8.95431 0 20 0V0C31.0457 0 40 8.95431 40 20V20C40 31.0457 31.0457 40 20 40V40C8.95431 40 0 31.0457 0 20V20Z" fill="#E94E0F"/>
<g clip-path="url(#clip1_769_21240)">
<path fill-rule="evenodd" clip-rule="evenodd" d="M-10.3386 0.000732422H49.6614V40.0007H-10.3386V0.000732422Z" fill="#0C590B"/>
<path fill-rule="evenodd" clip-rule="evenodd" d="M28.6223 17.6101L26.1848 17.0945L24.9036 19.2273L24.6379 16.7585L22.2161 16.196L24.4817 15.1804L24.2708 12.7039L25.9426 14.5476L28.2317 13.5789L26.9895 15.7351L28.6301 17.6101H28.6223Z" fill="white"/>
<path fill-rule="evenodd" clip-rule="evenodd" d="M29.5363 23.907C29.0164 25.0415 28.2774 26.0621 27.3616 26.91C26.4459 27.7579 25.3716 28.4164 24.2005 28.8477C23.0294 29.2789 21.7846 29.4744 20.5377 29.423C19.2908 29.3715 18.0663 29.074 16.9348 28.5476C14.639 27.4847 12.8595 25.5533 11.9878 23.1783C11.116 20.8033 11.2234 18.1793 12.2863 15.8835C12.8142 14.7034 13.5832 13.6468 14.5439 12.7816C15.5046 11.9165 16.6357 11.2619 17.8645 10.8601C17.5428 11.128 17.2351 11.4122 16.9426 11.7117C15.4184 13.3997 14.6092 15.6137 14.6858 17.8867C14.7623 20.1598 15.7186 22.3143 17.353 23.896C18.9873 25.4776 21.172 26.3628 23.4463 26.3649C25.7207 26.3669 27.907 25.4857 29.5442 23.907H29.5363Z" fill="white"/>
</g>
</g>
<defs>
<clipPath id="clip0_769_21240">
<path d="M0 20C0 8.95431 8.95431 0 20 0V0C31.0457 0 40 8.95431 40 20V20C40 31.0457 31.0457 40 20 40V40C8.95431 40 0 31.0457 0 20V20Z" fill="white"/>
</clipPath>
<clipPath id="clip1_769_21240">
<rect width="53.3333" height="40" fill="white" transform="translate(-7 0.000732422)"/>
</clipPath>
</defs>
</svg>
