<svg width="40" height="40" viewBox="0 0 40 40" fill="none" xmlns="http://www.w3.org/2000/svg">
<g clip-path="url(#clip0_769_21541)">
<path d="M0 20C0 8.95431 8.95431 0 20 0C31.0457 0 40 8.95431 40 20C40 31.0457 31.0457 40 20 40C8.95431 40 0 31.0457 0 20Z" fill="#E94E0F"/>
<g clip-path="url(#clip1_769_21541)">
<path fill-rule="evenodd" clip-rule="evenodd" d="M-15.5916 0H54.9334V40H-15.5916V0Z" fill="#4AADD6"/>
<path fill-rule="evenodd" clip-rule="evenodd" d="M26.825 19.3417C26.8661 20.7896 26.6036 22.2308 26.0531 23.58C25.5027 24.9293 24.6754 26.1592 23.6201 27.1973C22.5648 28.2353 21.3029 29.0604 19.9089 29.6238C18.515 30.1871 17.0173 30.4774 15.5042 30.4774C13.9911 30.4774 12.4934 30.1871 11.0995 29.6238C9.70551 29.0604 8.44363 28.2353 7.38834 27.1973C6.33304 26.1592 5.50573 24.9293 4.95526 23.58C4.40479 22.2308 4.14233 20.7896 4.18337 19.3417C4.14233 17.8937 4.40479 16.4525 4.95526 15.1033C5.50573 13.7541 6.33304 12.5241 7.38834 11.4861C8.44363 10.448 9.70551 9.62295 11.0995 9.05957C12.4934 8.49619 13.9911 8.20593 15.5042 8.20593C17.0173 8.20593 18.515 8.49619 19.9089 9.05957C21.3029 9.62295 22.5648 10.448 23.6201 11.4861C24.6754 12.5241 25.5027 13.7541 26.0531 15.1033C26.6036 16.4525 26.8661 17.8937 26.825 19.3417Z" fill="#FFDE00"/>
</g>
</g>
<defs>
<clipPath id="clip0_769_21541">
<path d="M0 20C0 8.95431 8.95431 0 20 0C31.0457 0 40 8.95431 40 20C40 31.0457 31.0457 40 20 40C8.95431 40 0 31.0457 0 20Z" fill="white"/>
</clipPath>
<clipPath id="clip1_769_21541">
<rect width="53.3333" height="40" fill="white" transform="translate(-7)"/>
</clipPath>
</defs>
</svg>
