<svg width="40" height="40" viewBox="0 0 40 40" fill="none" xmlns="http://www.w3.org/2000/svg">
<g clip-path="url(#clip0_769_21216)">
<path d="M0 20C0 8.95431 8.95431 0 20 0C31.0457 0 40 8.95431 40 20C40 31.0457 31.0457 40 20 40C8.95431 40 0 31.0457 0 20Z" fill="#E94E0F"/>
<g clip-path="url(#clip1_769_21216)">
<path fill-rule="evenodd" clip-rule="evenodd" d="M-6.86678 -0.000244141L-6.90845 39.9998H46.4249L-6.86678 -0.000244141Z" fill="black"/>
<path fill-rule="evenodd" clip-rule="evenodd" d="M46.3832 39.9998L46.4249 -0.000244141H-6.90845L46.3832 39.9998Z" fill="#FF0000"/>
<path d="M26.0201 9.95351L25.3171 9.91664C25.0951 9.40052 24.4847 9.21619 24.0962 9.43739C23.3807 9.43752 22.6653 9.42523 21.9503 9.40052L23.2637 9.97194C23.6152 10.8751 24.7252 11.0595 24.7252 11.0595C24.6142 12.6816 23.0787 10.8567 21.7838 11.7784C20.8588 12.3313 20.8588 12.9765 20.3594 14.0456C20.1929 14.3405 19.5454 15.1147 19.5454 15.1147L20.6369 15.0225L20.2854 15.4834L21.5803 15.299L21.3028 15.5571C21.4878 15.594 22.7827 15.2437 22.7827 15.2437L22.6903 15.6677L24.1702 15.1331C24.1702 15.1331 24.4662 15.3728 24.7252 15.4834L24.9101 14.746L25.6501 14.9304L25.8351 14.1931C26.945 15.6677 27.315 17.1423 29.3499 17.511L29.1649 16.7737C29.7059 17.0096 30.2424 17.2555 30.7744 17.511L30.9408 17.1976C31.8288 17.8243 32.5503 17.8059 33.0497 17.8796L32.6798 16.958L33.0497 17.1423L32.4948 15.6677L33.0497 15.852L32.3098 14.746L32.5873 14.5617L32.4948 14.0087C33.6047 14.3774 35.0846 14.9304 35.2696 16.2207C35.4546 18.2483 33.2347 18.8013 31.7548 18.6169C32.8647 19.5386 34.8996 19.1699 35.8246 18.2483C36.1946 17.8796 36.3796 17.3266 36.5646 16.7737C36.7496 17.3266 37.1195 18.064 37.1195 18.8013C36.9345 20.4602 34.7147 21.0132 33.2347 21.1975C34.8996 22.1192 37.8595 21.0132 38.0445 18.6169C38.0445 16.5893 36.7496 15.6677 36.1946 14.746L36.0096 13.7507L36.5646 14.0087C36.5646 14.0087 36.2316 13.4004 36.1946 13.2714C36.1946 13.2714 35.6211 11.7046 35.4176 11.3544L35.8246 11.4281L34.3077 9.52955L34.7332 9.49268C34.7332 9.49268 32.9757 8.11022 32.4948 7.92589L33.0497 7.74157C31.9398 7.18858 30.6449 7.55724 29.5349 8.29455L29.7199 7.74157L29.3869 7.77843V7.13328L29.7199 6.6356L29.1649 6.45127L29.5349 5.52963L28.9799 5.71395L29.1649 4.79231C29.1649 4.79231 28.758 4.97664 28.499 4.95821C28.6052 4.75295 28.7039 4.5439 28.795 4.33149C28.61 4.055 28.795 3.50201 28.795 3.50201C27.5 3.68634 27.315 3.87067 26.5751 4.97664C25.4651 7.00425 25.8351 7.92589 26.0201 9.95351Z" fill="#FFCC00" stroke="#FFCC00" stroke-width="0.203125"/>
<path fill-rule="evenodd" clip-rule="evenodd" d="M33.0127 12.9764C33.1052 13.1423 34.1596 13.64 34.9366 14.0824C34.7331 13.2345 33.1977 13.0502 33.0127 12.9764Z" fill="#FF0000" stroke="#FF0000" stroke-width="0.258523"/>
<path fill-rule="evenodd" clip-rule="evenodd" d="M7.5834 33.2498L6.40007 32.4998L4.81673 33.2581L5.17507 31.9081L3.96673 30.6498L5.3584 30.5664L6.19173 29.0331L6.70006 30.3248L8.42507 30.6414L7.34173 31.5248L7.5834 33.2498ZM10.6001 26.6664L10.0501 26.4164L9.52507 26.7164L9.6084 26.1164L9.1584 25.7081L9.75006 25.5998L10.0001 25.0498L10.2917 25.5831L10.8917 25.6498L10.4751 26.0831L10.6001 26.6664ZM13.2667 22.8998L12.0584 22.3164L10.9001 22.9664L11.0917 21.6581L10.1084 20.7581L11.4167 20.5248L11.9667 19.3248L12.6001 20.4914L13.9167 20.6414L13.0001 21.5998L13.2667 22.8998ZM7.7834 17.6498L6.36673 16.9414L4.99173 17.6998L5.22506 16.1498L4.07506 15.0664L5.6334 14.8164L6.30007 13.3998L7.02507 14.7914L8.59173 14.9831L7.4834 16.0998L7.7834 17.6498ZM2.71673 23.0998L1.30006 22.2664L-0.116602 23.1248L0.241732 21.5164L-1.0166 20.4331L0.625065 20.2831L1.26673 18.7581L1.92506 20.2748L3.57507 20.4081L2.3334 21.4914L2.71673 23.0998Z" fill="white"/>
</g>
</g>
<defs>
<clipPath id="clip0_769_21216">
<path d="M0 20C0 8.95431 8.95431 0 20 0C31.0457 0 40 8.95431 40 20C40 31.0457 31.0457 40 20 40C8.95431 40 0 31.0457 0 20Z" fill="white"/>
</clipPath>
<clipPath id="clip1_769_21216">
<rect width="53.3333" height="40" fill="white" transform="translate(-7 -0.000244141)"/>
</clipPath>
</defs>
</svg>
