<svg width="40" height="40" viewBox="0 0 40 40" fill="none" xmlns="http://www.w3.org/2000/svg">
<g clip-path="url(#clip0_769_21549)">
<path d="M0 20C0 8.95431 8.95431 0 20 0C31.0457 0 40 8.95431 40 20C40 31.0457 31.0457 40 20 40C8.95431 40 0 31.0457 0 20Z" fill="#E94E0F"/>
<g clip-path="url(#clip1_769_21549)">
<path d="M-7 26.6417H46.3333V40H-7V26.6417Z" fill="#0038A8"/>
<path d="M-7 13.3333H46.3333V26.6667H-7V13.3333Z" fill="white"/>
<path d="M-7 0H46.3333V13.3333H-7V0Z" fill="#D52B1E"/>
<path d="M19.6635 25.1153C22.4885 25.1153 24.7787 22.8251 24.7787 20.0001C24.7787 17.1751 22.4885 14.8849 19.6635 14.8849C16.8385 14.8849 14.5483 17.1751 14.5483 20.0001C14.5483 22.8251 16.8385 25.1153 19.6635 25.1153Z" stroke="black" stroke-width="0.133334"/>
<path d="M19.6636 24.2062C21.9865 24.2062 23.8697 22.323 23.8697 20.0001C23.8697 17.6771 21.9865 15.794 19.6636 15.794C17.3406 15.794 15.4575 17.6771 15.4575 20.0001C15.4575 22.323 17.3406 24.2062 19.6636 24.2062Z" stroke="black" stroke-width="0.0606063"/>
<path d="M19.6635 23.2243C21.4442 23.2243 22.8877 21.7808 22.8877 20.0001C22.8877 18.2194 21.4442 16.7758 19.6635 16.7758C17.8828 16.7758 16.4392 18.2194 16.4392 20.0001C16.4392 21.7808 17.8828 23.2243 19.6635 23.2243Z" stroke="black" stroke-width="0.048485"/>
<path d="M16.9417 21.975L16.35 22.325L16.1667 22.0167C16.1411 21.9752 16.1214 21.9303 16.1084 21.8833C16.099 21.8473 16.1019 21.8092 16.1167 21.775C16.1334 21.7417 16.1584 21.7167 16.2 21.6917C16.2334 21.675 16.2584 21.6667 16.2917 21.6667C16.3232 21.6646 16.3546 21.6703 16.3834 21.6833L16.45 21.7333V21.625L16.475 21.5833L16.6 21.3917L16.7167 21.6L16.6 21.8L16.575 21.8667L16.5834 21.9167L16.5917 21.9333L16.8417 21.7917L16.9417 21.975ZM16.4834 22L16.4334 21.9167L16.4 21.875C16.3945 21.8696 16.388 21.8654 16.3809 21.8625C16.3737 21.8596 16.3661 21.8582 16.3584 21.8583C16.3439 21.8565 16.3293 21.8594 16.3167 21.8667L16.2834 21.9167C16.2834 21.9333 16.2917 21.9583 16.3167 21.9917L16.3584 22.075L16.4834 22ZM15.925 21.5417L15.7417 21L15.8834 20.95L15.9917 21.2917L16.1 21.2583L15.9917 20.9417L16.125 20.9L16.2334 21.2083L16.3584 21.1667L16.2417 20.8167L16.3917 20.775L16.575 21.325L15.925 21.5417ZM15.6834 20.7333L15.65 20.3833C15.6334 20.3 15.65 20.25 15.6834 20.2083C15.7167 20.1583 15.7667 20.1333 15.8334 20.125C15.9 20.125 15.9584 20.1333 16 20.175C16.0417 20.2083 16.0667 20.275 16.0834 20.3583L16.0917 20.475L16.3417 20.4417L16.375 20.6583L15.6834 20.7333ZM15.9584 20.4833L15.95 20.4333C15.95 20.3917 15.9334 20.3667 15.9167 20.35C15.909 20.3428 15.8997 20.3375 15.8895 20.3346C15.8794 20.3317 15.8687 20.3313 15.8584 20.3333C15.8381 20.3378 15.8203 20.3497 15.8084 20.3667C15.7917 20.375 15.7917 20.4083 15.7917 20.45L15.8 20.5083L15.9584 20.4833ZM15.6667 19.4417L15.6917 19.225L16.0917 19.275C16.1322 19.2792 16.1717 19.2905 16.2084 19.3083C16.2417 19.325 16.275 19.3417 16.2917 19.375C16.325 19.4 16.3334 19.4333 16.3417 19.4583C16.3584 19.5083 16.3584 19.5583 16.35 19.6167L16.3334 19.725C16.325 19.7667 16.3084 19.7917 16.2917 19.8167C16.2574 19.8706 16.2037 19.9094 16.1417 19.925H16.025L15.6167 19.8833L15.6417 19.675L16.0584 19.7167C16.0917 19.7167 16.125 19.7167 16.1417 19.7C16.175 19.6833 16.1834 19.65 16.1917 19.6167C16.1944 19.5867 16.1855 19.5568 16.1667 19.5333C16.15 19.5 16.1167 19.4917 16.0834 19.4833L15.6667 19.4417ZM15.75 18.9417L15.8917 18.5583C15.9084 18.4917 15.9417 18.45 15.9834 18.4333C16.0032 18.4214 16.0253 18.4138 16.0483 18.411C16.0712 18.4081 16.0945 18.41 16.1167 18.4167C16.1584 18.4333 16.1834 18.4583 16.2 18.4917C16.2167 18.5167 16.225 18.5417 16.225 18.575C16.25 18.5333 16.2834 18.5083 16.3167 18.4917C16.3543 18.4776 16.3957 18.4776 16.4334 18.4917C16.4662 18.5023 16.4954 18.5221 16.5175 18.5486C16.5396 18.5752 16.5538 18.6074 16.5584 18.6417V18.725L16.5334 18.8083L16.4084 19.1583L15.75 18.9417ZM16.0834 18.825L16.1167 18.7333C16.1167 18.7 16.125 18.675 16.1167 18.6667C16.1167 18.65 16.1 18.6333 16.0834 18.625C16.0756 18.6213 16.067 18.6194 16.0584 18.6194C16.0497 18.6194 16.0412 18.6213 16.0334 18.625C16.0167 18.6417 16 18.6583 15.9917 18.6917L15.9584 18.775L16.0834 18.825ZM16.3334 18.9083L16.375 18.8083C16.3834 18.775 16.3917 18.75 16.375 18.725C16.3684 18.7102 16.3565 18.6983 16.3417 18.6917C16.3328 18.6865 16.3228 18.6838 16.3125 18.6838C16.3023 18.6838 16.2922 18.6865 16.2834 18.6917L16.2417 18.7667L16.2084 18.8667L16.3334 18.9083ZM16.0834 18.1083L16.1917 17.925L16.6417 18.1917L16.8084 17.9083L16.9584 17.9917L16.675 18.4583L16.0834 18.1083ZM16.5 17.475L16.6334 17.3083L17.1667 17.75L17.0334 17.9167L16.5 17.475ZM17.425 17.1167L17.6084 17.0333C17.6334 17.0833 17.6417 17.1333 17.65 17.175C17.6523 17.2181 17.6437 17.2611 17.625 17.3C17.6011 17.3484 17.567 17.391 17.525 17.425C17.4796 17.4711 17.4216 17.5029 17.3584 17.5167C17.304 17.5329 17.2461 17.5329 17.1917 17.5167C17.1249 17.4885 17.0672 17.4423 17.025 17.3833C16.9417 17.3 16.9084 17.2167 16.9167 17.125C16.9214 17.0778 16.9356 17.032 16.9585 16.9905C16.9815 16.9489 17.0126 16.9125 17.05 16.8833C17.1039 16.8367 17.1708 16.8076 17.2417 16.8C17.3 16.7917 17.3667 16.8 17.4334 16.8417L17.3167 17C17.3016 16.9888 17.2847 16.9803 17.2667 16.975C17.2475 16.9704 17.2275 16.9704 17.2084 16.975C17.1892 16.9819 17.1721 16.9933 17.1584 17.0083C17.1404 17.0215 17.1262 17.0393 17.1175 17.0598C17.1087 17.0804 17.1055 17.1029 17.1084 17.125C17.1084 17.1583 17.1417 17.2 17.175 17.2417C17.225 17.3 17.2667 17.3333 17.3084 17.3417C17.3417 17.3417 17.375 17.3417 17.4084 17.3083C17.4417 17.2833 17.4584 17.2583 17.4584 17.225C17.4584 17.1917 17.45 17.1583 17.425 17.1167ZM18.1584 16.85L17.95 16.9667L17.975 17.0833L17.7834 17.1833L17.6834 16.4583L17.8917 16.35L18.4417 16.8333L18.2417 16.9417L18.1584 16.85ZM18.05 16.7417L17.8667 16.5583L17.9167 16.8083L18.05 16.7417ZM18.7 16.0333L19.0167 15.9833C19.0662 15.9734 19.1172 15.9734 19.1667 15.9833C19.2084 15.9917 19.25 16.0083 19.275 16.0417C19.3 16.075 19.3334 16.1 19.35 16.1417C19.3667 16.175 19.3834 16.225 19.3834 16.2667C19.4 16.3417 19.4 16.4 19.3917 16.4333C19.3841 16.4755 19.367 16.5154 19.3417 16.55C19.3207 16.5816 19.292 16.6074 19.2584 16.625C19.2187 16.6443 19.1767 16.6583 19.1334 16.6667L18.825 16.7167L18.7 16.0333ZM18.9417 16.15L19.0084 16.525L19.0584 16.5167C19.1 16.5083 19.1334 16.5 19.1417 16.4833C19.1667 16.475 19.175 16.45 19.1834 16.425V16.3083C19.1667 16.2333 19.1417 16.1917 19.1167 16.1667C19.0917 16.1417 19.05 16.1333 18.9917 16.1417L18.9417 16.15ZM19.5917 15.9167L20.1584 15.9417V16.0917L19.8 16.075L19.7917 16.1833L20.125 16.2L20.1167 16.3417L19.7834 16.325V16.4583L20.15 16.475L20.1417 16.6333L19.5584 16.6083L19.5917 15.9167ZM20.425 15.9833L20.625 16.0333L20.5 16.5333L20.8334 16.6167L20.7834 16.7833L20.2584 16.65L20.425 15.9833ZM21.525 16.35L21.8334 16.5333C21.9 16.5667 21.9417 16.6167 21.95 16.6667C21.9667 16.7167 21.95 16.775 21.925 16.8333C21.9109 16.8607 21.8909 16.8847 21.8664 16.9034C21.8419 16.9222 21.8135 16.9352 21.7834 16.9417C21.7334 16.95 21.6667 16.9417 21.5917 16.8917L21.4917 16.8333L21.3584 17.05L21.175 16.9417L21.525 16.35ZM21.5584 16.7167L21.6084 16.7417L21.6917 16.7667C21.7021 16.7654 21.712 16.7617 21.7207 16.7559C21.7294 16.7502 21.7366 16.7424 21.7417 16.7333C21.7487 16.7145 21.7487 16.6938 21.7417 16.675C21.7417 16.65 21.725 16.6333 21.6917 16.6083L21.6417 16.5833L21.5584 16.7167ZM22.1584 17.5167L21.9834 17.35L21.8834 17.4083L21.7167 17.2667L22.3834 16.9333L22.55 17.1L22.2667 17.775L22.1 17.625L22.1584 17.5167ZM22.225 17.375L22.3417 17.1417L22.1167 17.275L22.225 17.375ZM22.3084 17.8333L22.8834 17.4417L23.075 17.7333L23.1584 17.875L23.15 17.975C23.1332 18.0139 23.1039 18.0462 23.0667 18.0667C23.0417 18.0917 23.0084 18.1 22.9834 18.1C22.9491 18.1035 22.9146 18.0978 22.8834 18.0833C22.8667 18.0833 22.8417 18.0583 22.8167 18.0417L22.8334 18.1L22.8167 18.15C22.8128 18.1672 22.8072 18.1839 22.8 18.2L22.6917 18.3917L22.5584 18.2L22.6667 17.9833L22.6917 17.925C22.6937 17.9041 22.6877 17.8833 22.675 17.8667L22.6667 17.85L22.4334 18.0167L22.3084 17.8333ZM22.7667 17.7833L22.825 17.8583L22.8584 17.8917C22.875 17.9083 22.8834 17.9083 22.9 17.9083C22.9145 17.9102 22.9291 17.9072 22.9417 17.9C22.9492 17.894 22.9554 17.8864 22.9597 17.8777C22.964 17.8691 22.9664 17.8596 22.9667 17.85C22.9667 17.8333 22.9667 17.8083 22.9417 17.775L22.8834 17.7L22.7667 17.7833ZM22.9834 18.8167L22.9 18.5833L22.775 18.6L22.6917 18.3917L23.4334 18.3833L23.5167 18.6L22.975 19.1L22.8917 18.8833L22.9834 18.8167ZM23.1084 18.7167L23.3084 18.55L23.05 18.575L23.1084 18.7167ZM23.2834 19.4667L23.425 19.45L23.475 19.775L23.1834 19.8167C23.1405 19.7719 23.104 19.7214 23.075 19.6667C23.0499 19.614 23.033 19.5578 23.025 19.5C23.0101 19.431 23.013 19.3593 23.0334 19.2917C23.0572 19.2385 23.0946 19.1925 23.1417 19.1583C23.1957 19.1187 23.2587 19.0929 23.325 19.0833C23.3921 19.0725 23.4607 19.0782 23.525 19.1C23.5833 19.1231 23.6328 19.1639 23.6667 19.2167C23.7 19.2667 23.7167 19.325 23.7334 19.4V19.5667C23.7268 19.6066 23.7095 19.644 23.6834 19.675C23.6584 19.7083 23.625 19.725 23.5834 19.75L23.5167 19.55C23.5417 19.5417 23.5584 19.525 23.575 19.5C23.5917 19.475 23.5834 19.45 23.575 19.4167C23.5729 19.3968 23.5666 19.3777 23.5565 19.3604C23.5465 19.3432 23.5329 19.3283 23.5167 19.3167C23.4834 19.2917 23.4334 19.2833 23.35 19.3C23.2979 19.3041 23.2483 19.3245 23.2084 19.3583C23.175 19.3917 23.1667 19.4417 23.175 19.4833C23.175 19.5083 23.1834 19.5333 23.2 19.55L23.2417 19.6167H23.3084L23.2834 19.4667ZM23.7334 20.4667L23.7167 20.6833L23.3 20.65C23.2624 20.6448 23.2258 20.6336 23.1917 20.6167C23.1594 20.6007 23.131 20.578 23.1084 20.55C23.0854 20.5233 23.0684 20.4921 23.0584 20.4583C23.0439 20.4097 23.0383 20.3589 23.0417 20.3083L23.0584 20.2L23.1 20.1C23.1178 20.0737 23.1405 20.0511 23.1667 20.0333C23.1918 20.0165 23.2202 20.0052 23.25 20C23.2879 19.9888 23.3272 19.9832 23.3667 19.9833L23.7834 20.025L23.7584 20.2333L23.3417 20.2C23.3 20.2 23.2667 20.2 23.25 20.225C23.2377 20.2353 23.2277 20.248 23.2205 20.2623C23.2134 20.2767 23.2092 20.2923 23.2084 20.3083C23.2084 20.3417 23.2084 20.375 23.2334 20.3917C23.25 20.4167 23.275 20.4333 23.3167 20.4333L23.7334 20.4667ZM22.975 21.2L23.05 20.9667L22.95 20.9L23.0167 20.6917L23.6 21.1583L23.5167 21.375L22.7834 21.4083L22.8584 21.2H22.975ZM23.1334 21.2L23.3834 21.2083L23.175 21.0583L23.1334 21.2ZM23.3834 21.7667L23.2584 21.9667H22.9834L23.1084 22.2083L22.9917 22.4083L22.7834 21.975L22.5334 21.825L22.65 21.6417L22.9 21.7917L23.3834 21.7667Z" fill="black"/>
<path d="M20.342 17.6083C20.342 17.6083 22.292 18.45 21.9503 20.1833C21.617 21.9167 20.5337 21.9 20.1003 22.1C19.6837 22.2833 19.3837 22.5583 19.217 22.5167C19.0503 22.4833 18.8253 22.35 18.8253 22.35C18.8253 22.35 18.8087 22.6417 19.1503 22.6833C19.492 22.7417 19.942 22.2417 20.1503 22.1833C20.367 22.1333 21.692 21.9833 22.017 20.225C22.392 18.3417 20.3503 17.6667 20.3503 17.6083H20.342Z" fill="#009B3A" stroke="black" stroke-width="0.00833333"/>
<path d="M21.3253 17.9833C21.3309 18.0281 21.3315 18.0661 21.3271 18.0927C21.3226 18.1193 21.3132 18.1334 21.3001 18.1334C21.2869 18.1334 21.2705 18.1193 21.2529 18.0927C21.2352 18.0661 21.2169 18.0281 21.2003 17.9833C21.1857 17.944 21.1728 17.9007 21.1629 17.8575C21.1529 17.8142 21.1462 17.7724 21.1434 17.7359C21.1405 17.6994 21.1417 17.6694 21.1466 17.6486C21.1516 17.6278 21.1602 17.6169 21.1718 17.6169C21.1833 17.6169 21.1974 17.6278 21.2127 17.6486C21.228 17.6694 21.2441 17.6994 21.2593 17.7359C21.2746 17.7724 21.2887 17.8142 21.3002 17.8575C21.3117 17.9007 21.3204 17.944 21.3253 17.9833Z" fill="#009B3A" stroke="black" stroke-width="0.00833333"/>
<path d="M21.2585 18C21.2754 18.0341 21.2907 18.0684 21.3034 18.1009C21.3161 18.1335 21.326 18.1637 21.3325 18.1897C21.339 18.2157 21.3421 18.2372 21.3415 18.2527C21.3409 18.2683 21.3366 18.2777 21.329 18.2805C21.3213 18.2832 21.3104 18.2792 21.2968 18.2687C21.2833 18.2582 21.2674 18.2413 21.25 18.2192C21.2326 18.197 21.2141 18.1699 21.1956 18.1394C21.177 18.109 21.1588 18.0758 21.1419 18.0417C21.1077 17.9728 21.0811 17.9046 21.0679 17.852C21.0547 17.7994 21.0559 17.7667 21.0714 17.7612C21.0869 17.7557 21.1153 17.7777 21.1504 17.8225C21.1855 17.8673 21.2244 17.9311 21.2585 18ZM21.0669 18.125C21.1272 18.1446 21.1822 18.1688 21.2213 18.193C21.2604 18.2172 21.2808 18.2397 21.2788 18.2562C21.2767 18.2727 21.2523 18.2821 21.2101 18.2825C21.1679 18.2829 21.111 18.2743 21.0502 18.2583C20.9899 18.2388 20.9349 18.2146 20.8958 18.1903C20.8567 18.1661 20.8362 18.1436 20.8383 18.1271C20.8403 18.1106 20.8648 18.1013 20.907 18.1009C20.9491 18.1005 21.0061 18.1091 21.0669 18.125Z" fill="#009B3A" stroke="black" stroke-width="0.00833333"/>
<path d="M21.0918 18.0583C21.1553 18.1011 21.2131 18.1477 21.2525 18.1881C21.292 18.2284 21.3098 18.2592 21.302 18.2736C21.2943 18.2879 21.2616 18.2847 21.2113 18.2647C21.1609 18.2446 21.097 18.2094 21.0335 18.1667C21.0021 18.1455 20.9717 18.1232 20.9441 18.1009C20.9165 18.0787 20.8923 18.0569 20.8728 18.0369C20.8334 17.9966 20.8156 17.9658 20.8233 17.9515C20.831 17.9371 20.8637 17.9403 20.914 17.9603C20.9644 17.9804 21.0283 18.0156 21.0918 18.0583Z" fill="#009B3A" stroke="black" stroke-width="0.00833333"/>
<path d="M21.1753 18.025C21.2263 18.0781 21.2709 18.1334 21.2992 18.1788C21.3274 18.2242 21.3371 18.2559 21.3261 18.2669C21.315 18.278 21.2841 18.2675 21.2402 18.2377C21.1963 18.208 21.143 18.1614 21.092 18.1083C21.0409 18.0552 20.9964 17.9999 20.9681 17.9545C20.9399 17.9091 20.9302 17.8774 20.9412 17.8664C20.9523 17.8553 20.9831 17.8658 21.027 17.8956C21.0709 17.9253 21.1243 17.9719 21.1753 18.025Z" fill="#009B3A" stroke="black" stroke-width="0.00833333"/>
<path d="M21.3085 18.2667L21.2252 18.3167C21.2002 18.3167 21.1752 18.2917 21.1252 18.3167C21.0752 18.3417 21.0419 18.3917 21.0335 18.4167C21.0252 18.4417 21.0502 18.4583 21.1085 18.425C21.1669 18.4 21.1835 18.35 21.2085 18.3333L21.3169 18.275L21.3835 18.1667C21.4085 18.1333 21.4835 18.0833 21.5169 18.0167C21.5419 17.9667 21.5335 17.925 21.5002 17.9417C21.4567 17.9669 21.4219 18.0047 21.4002 18.05C21.3835 18.0833 21.4002 18.1333 21.3752 18.1667L21.3085 18.2667ZM21.9169 18.4667C21.9188 18.5826 21.911 18.6915 21.8952 18.7696C21.8794 18.8476 21.8569 18.8884 21.8325 18.8828C21.8082 18.8773 21.7841 18.826 21.7656 18.7401C21.747 18.6542 21.7355 18.5409 21.7335 18.425C21.7316 18.3091 21.7394 18.2001 21.7552 18.1221C21.771 18.044 21.7936 18.0033 21.8179 18.0088C21.8422 18.0143 21.8663 18.0657 21.8848 18.1516C21.9034 18.2374 21.9149 18.3508 21.9169 18.4667Z" fill="#009B3A" stroke="black" stroke-width="0.00833333"/>
<path d="M21.8169 18.4583C21.842 18.5755 21.8565 18.6884 21.857 18.772C21.8576 18.8557 21.8443 18.9033 21.82 18.9044C21.7957 18.9055 21.7624 18.86 21.7274 18.7779C21.6925 18.6958 21.6587 18.5839 21.6336 18.4667C21.6219 18.4118 21.6126 18.3575 21.6063 18.3068C21.5999 18.2561 21.5966 18.21 21.5964 18.1712C21.5963 18.1324 21.5994 18.1016 21.6056 18.0806C21.6117 18.0596 21.6208 18.0488 21.6323 18.0488C21.6438 18.0488 21.6575 18.0596 21.6726 18.0806C21.6876 18.1016 21.7038 18.1324 21.7202 18.1712C21.7365 18.21 21.7528 18.2561 21.7679 18.3068C21.7831 18.3575 21.7969 18.4118 21.8086 18.4667L21.8169 18.4583Z" fill="#009B3A" stroke="black" stroke-width="0.00833333"/>
<path d="M21.5002 18.5583C21.5429 18.5872 21.5845 18.6181 21.6225 18.6493C21.6604 18.6806 21.6941 18.7115 21.7216 18.7404C21.7491 18.7693 21.7699 18.7956 21.7827 18.8177C21.7955 18.8399 21.8001 18.8575 21.7963 18.8695C21.7924 18.8816 21.7802 18.8878 21.7604 18.8879C21.7405 18.888 21.7133 18.8819 21.6804 18.87C21.6475 18.8582 21.6095 18.8407 21.5686 18.8187C21.5276 18.7967 21.4846 18.7705 21.4419 18.7417C21.3992 18.7128 21.3576 18.6819 21.3197 18.6507C21.2817 18.6194 21.248 18.5885 21.2205 18.5596C21.193 18.5307 21.1722 18.5044 21.1594 18.4823C21.1466 18.4601 21.142 18.4425 21.1458 18.4305C21.1497 18.4184 21.1619 18.4122 21.1818 18.4121C21.2016 18.412 21.2288 18.4181 21.2617 18.43C21.2946 18.4418 21.3326 18.4593 21.3735 18.4813C21.4145 18.5033 21.4575 18.5295 21.5002 18.5583Z" fill="#009B3A" stroke="black" stroke-width="0.00833333"/>
<path d="M21.5669 18.4667C21.6405 18.556 21.705 18.6488 21.7461 18.7244C21.7872 18.8001 21.8016 18.8526 21.7862 18.8703C21.7707 18.8879 21.7266 18.8694 21.6636 18.8187C21.6006 18.768 21.5238 18.6894 21.4502 18.6C21.3789 18.5133 21.3166 18.4235 21.2772 18.3504C21.2377 18.2773 21.2242 18.227 21.2397 18.2104C21.2551 18.1938 21.2983 18.2124 21.3597 18.262C21.421 18.3116 21.4955 18.3883 21.5669 18.475V18.4667Z" fill="#009B3A" stroke="black" stroke-width="0.00833333"/>
<path d="M21.6919 18.4583C21.7468 18.5606 21.7915 18.663 21.8163 18.7431C21.841 18.8232 21.8437 18.8744 21.8238 18.8855C21.8039 18.8965 21.7631 18.8665 21.7102 18.802C21.6573 18.7376 21.5968 18.6439 21.5419 18.5417C21.5147 18.4911 21.4897 18.4399 21.4684 18.391C21.447 18.3421 21.4297 18.2966 21.4175 18.2569C21.3927 18.1768 21.39 18.1256 21.4099 18.1146C21.4298 18.1035 21.4707 18.1335 21.5236 18.198C21.5764 18.2625 21.637 18.3561 21.6919 18.4583Z" fill="#009B3A" stroke="black" stroke-width="0.00833333"/>
<path d="M21.8002 18.8667L21.6502 18.9C21.6252 18.9 21.6002 18.8417 21.5252 18.8583C21.4502 18.875 21.3836 18.925 21.3586 18.9583C21.3419 18.9917 21.3669 19.025 21.4586 19.0083C21.5586 18.9917 21.5919 18.925 21.6419 18.925C21.6836 18.9083 21.7586 18.8917 21.8086 18.8917C21.8252 18.8583 21.8919 18.7917 21.9336 18.7583C21.9752 18.7167 22.1002 18.675 22.1586 18.6083C22.2169 18.5417 22.2169 18.475 22.1586 18.4833C22.0948 18.5049 22.0375 18.5421 21.9919 18.5917C21.9502 18.6417 21.9586 18.7167 21.9169 18.7583L21.8002 18.8667ZM22.2252 19.275C22.2066 19.3864 22.18 19.4888 22.1511 19.5597C22.1223 19.6306 22.0937 19.6642 22.0716 19.6532C22.0495 19.6421 22.0357 19.5873 22.0333 19.5008C22.0308 19.4142 22.0399 19.303 22.0586 19.1917C22.0678 19.1365 22.0791 19.083 22.0918 19.0342C22.1045 18.9853 22.1184 18.9421 22.1327 18.907C22.1469 18.8719 22.1613 18.8455 22.1749 18.8295C22.1886 18.8135 22.2012 18.808 22.2122 18.8135C22.2231 18.819 22.2321 18.8352 22.2387 18.8614C22.2453 18.8876 22.2493 18.9231 22.2505 18.9659C22.2517 19.0088 22.2501 19.0581 22.2458 19.1112C22.2415 19.1642 22.2345 19.2199 22.2252 19.275Z" fill="#009B3A" stroke="black" stroke-width="0.00833333"/>
<path d="M22.1336 19.25C22.1364 19.3081 22.1368 19.3664 22.1346 19.4212C22.1325 19.476 22.128 19.526 22.1213 19.568C22.1146 19.6101 22.106 19.6432 22.0959 19.6652C22.0859 19.6872 22.0746 19.6977 22.0629 19.696C22.0512 19.6942 22.0393 19.6803 22.0279 19.655C22.0165 19.6298 22.006 19.5938 21.997 19.5494C21.9879 19.505 21.9806 19.4532 21.9754 19.3973C21.9703 19.3415 21.9674 19.2828 21.967 19.225C21.9642 19.1669 21.9639 19.1086 21.966 19.0538C21.9681 18.999 21.9726 18.949 21.9793 18.907C21.986 18.8649 21.9946 18.8318 22.0047 18.8098C22.0147 18.7878 22.026 18.7773 22.0377 18.7791C22.0494 18.7808 22.0613 18.7948 22.0727 18.82C22.0841 18.8453 22.0946 18.8812 22.1036 18.9256C22.1127 18.97 22.12 19.0218 22.1252 19.0777C22.1304 19.1336 22.1332 19.1923 22.1336 19.25Z" fill="#009B3A" stroke="black" stroke-width="0.00833333"/>
<path d="M21.8085 19.2833C21.8515 19.3206 21.8951 19.3632 21.936 19.4075C21.9768 19.4519 22.0137 19.4969 22.0438 19.539C22.074 19.5811 22.0964 19.6192 22.1095 19.6502C22.1226 19.6812 22.1259 19.7043 22.1192 19.7177C22.1125 19.7311 22.096 19.7344 22.0709 19.7274C22.0458 19.7204 22.0129 19.7033 21.9747 19.6773C21.9365 19.6514 21.8941 19.6173 21.8508 19.5779C21.8075 19.5384 21.7645 19.4947 21.7252 19.45C21.6822 19.4127 21.6386 19.3701 21.5977 19.3258C21.5569 19.2814 21.52 19.2364 21.4899 19.1943C21.4598 19.1522 21.4373 19.1142 21.4242 19.0831C21.4111 19.0521 21.4078 19.029 21.4145 19.0156C21.4212 19.0022 21.4377 18.9989 21.4628 19.0059C21.4879 19.0129 21.5208 19.03 21.559 19.056C21.5972 19.0819 21.6396 19.116 21.6829 19.1554C21.7262 19.1949 21.7692 19.2386 21.8085 19.2833Z" fill="#009B3A" stroke="black" stroke-width="0.00833333"/>
<path d="M21.8918 19.2083C21.9194 19.2591 21.945 19.3107 21.967 19.3604C21.9889 19.41 22.0069 19.4566 22.0199 19.4975C22.0329 19.5384 22.0406 19.5729 22.0425 19.5989C22.0445 19.6249 22.0408 19.6419 22.0315 19.649C22.0221 19.6561 22.0075 19.6532 21.9883 19.6403C21.9692 19.6275 21.9458 19.605 21.9197 19.5741C21.8936 19.5432 21.8652 19.5046 21.8361 19.4605C21.807 19.4163 21.7778 19.3674 21.7501 19.3167C21.7225 19.2659 21.6969 19.2142 21.675 19.1646C21.653 19.115 21.635 19.0684 21.622 19.0275C21.6091 18.9866 21.6014 18.9521 21.5994 18.9261C21.5974 18.9001 21.6012 18.8831 21.6105 18.876C21.6198 18.8689 21.6344 18.8718 21.6536 18.8847C21.6728 18.8975 21.6961 18.92 21.7222 18.9509C21.7483 18.9817 21.7768 19.0204 21.8059 19.0645C21.835 19.1087 21.8642 19.1576 21.8918 19.2083Z" fill="#009B3A" stroke="black" stroke-width="0.00833333"/>
<path d="M22.0085 19.225C22.043 19.3336 22.0677 19.4409 22.0773 19.5232C22.0868 19.6055 22.0804 19.6561 22.0594 19.6638C22.0384 19.6716 22.0045 19.6358 21.9653 19.5645C21.9261 19.4931 21.8847 19.392 21.8502 19.2833C21.8324 19.227 21.8169 19.1704 21.8046 19.1169C21.7923 19.0634 21.7834 19.0139 21.7786 18.9714C21.7737 18.9288 21.7729 18.894 21.7761 18.8689C21.7794 18.8438 21.7868 18.8289 21.7977 18.8251C21.8086 18.8213 21.823 18.8286 21.8399 18.8466C21.8569 18.8646 21.8761 18.893 21.8964 18.9301C21.9168 18.9673 21.9379 19.0124 21.9585 19.063C21.9792 19.1136 21.999 19.1686 22.0169 19.225H22.0085Z" fill="#009B3A" stroke="black" stroke-width="0.00833333"/>
<path d="M22.0419 19.65H21.9002C21.8752 19.65 21.8586 19.5833 21.7836 19.5833C21.7192 19.5844 21.6573 19.608 21.6086 19.65C21.5752 19.6833 21.6002 19.7167 21.6919 19.7167C21.7836 19.7167 21.8336 19.675 21.8836 19.6667H22.0502L22.2002 19.5667C22.2502 19.5333 22.3752 19.5167 22.4502 19.4583C22.5086 19.4083 22.5252 19.3417 22.4752 19.3417C22.4061 19.3503 22.3402 19.376 22.2836 19.4167C22.2419 19.45 22.2336 19.525 22.1836 19.5583C22.1502 19.575 22.0502 19.65 22.0419 19.6417V19.65ZM22.2502 20.175C22.1915 20.2684 22.129 20.3505 22.0766 20.4032C22.0241 20.456 21.9859 20.475 21.9705 20.4563C21.955 20.4375 21.9635 20.3824 21.9941 20.303C22.0247 20.2237 22.0749 20.1267 22.1336 20.0333C22.1923 19.94 22.2548 19.8579 22.3072 19.8051C22.3597 19.7524 22.3979 19.7333 22.4134 19.7521C22.4288 19.7709 22.4203 19.826 22.3897 19.9053C22.3592 19.9846 22.309 20.0816 22.2502 20.175Z" fill="#009B3A"/>
<path d="M22.2502 20.175C22.1915 20.2684 22.129 20.3505 22.0766 20.4032C22.0241 20.456 21.9859 20.475 21.9705 20.4563C21.955 20.4375 21.9635 20.3824 21.9941 20.303C22.0247 20.2237 22.0749 20.1267 22.1336 20.0333C22.1923 19.94 22.2548 19.8579 22.3072 19.8051C22.3597 19.7524 22.3979 19.7333 22.4134 19.7521C22.4288 19.7709 22.4203 19.826 22.3897 19.9053C22.3592 19.9846 22.309 20.0816 22.2502 20.175M22.0419 19.65H21.9002C21.8752 19.65 21.8586 19.5833 21.7836 19.5833C21.7192 19.5844 21.6573 19.608 21.6086 19.65C21.5752 19.6833 21.6002 19.7167 21.6919 19.7167C21.7836 19.7167 21.8336 19.675 21.8836 19.6667H22.0502L22.2002 19.5667C22.2502 19.5333 22.3752 19.5167 22.4502 19.4583C22.5086 19.4083 22.5252 19.3417 22.4752 19.3417C22.4061 19.3503 22.3402 19.376 22.2836 19.4167C22.2419 19.45 22.2336 19.525 22.1836 19.5583C22.1502 19.575 22.0502 19.65 22.0419 19.6417V19.65Z" stroke="black" stroke-width="0.00833333"/>
<path d="M22.1752 20.1083C22.1341 20.2152 22.0868 20.3128 22.0437 20.3798C22.0006 20.4468 21.9652 20.4776 21.9453 20.4654C21.9254 20.4532 21.9226 20.3991 21.9376 20.315C21.9526 20.2308 21.9841 20.1235 22.0252 20.0167C22.0663 19.9098 22.1137 19.8122 22.1568 19.7452C22.1999 19.6782 22.2353 19.6475 22.2552 19.6596C22.2751 19.6718 22.2779 19.7259 22.2629 19.81C22.2479 19.8942 22.2163 20.0015 22.1752 20.1083ZM21.8669 20.0083C21.9086 20.1176 21.9407 20.229 21.9562 20.3179C21.9716 20.4069 21.9691 20.4662 21.9492 20.4828C21.9293 20.4994 21.8936 20.4719 21.8501 20.4063C21.8065 20.3408 21.7586 20.2426 21.7169 20.1333C21.6752 20.0241 21.6431 19.9127 21.6277 19.8237C21.6122 19.7348 21.6148 19.6755 21.6346 19.6589C21.6545 19.6423 21.6902 19.6698 21.7337 19.7354C21.7773 19.8009 21.8252 19.8991 21.8669 20.0083Z" fill="#009B3A"/>
<path d="M21.8669 20.0083C21.9086 20.1176 21.9407 20.229 21.9562 20.3179C21.9716 20.4069 21.9691 20.4662 21.9492 20.4828C21.9293 20.4994 21.8936 20.4719 21.8501 20.4063C21.8065 20.3408 21.7586 20.2426 21.7169 20.1333C21.6752 20.0241 21.6431 19.9127 21.6277 19.8237C21.6122 19.7348 21.6148 19.6755 21.6346 19.6589C21.6545 19.6423 21.6902 19.6698 21.7337 19.7354C21.7773 19.8009 21.8252 19.8991 21.8669 20.0083M22.1752 20.1083C22.1341 20.2152 22.0868 20.3128 22.0437 20.3798C22.0006 20.4468 21.9652 20.4776 21.9453 20.4654C21.9254 20.4532 21.9226 20.3991 21.9376 20.315C21.9526 20.2308 21.9841 20.1235 22.0252 20.0167C22.0663 19.9098 22.1137 19.8122 22.1568 19.7452C22.1999 19.6782 22.2353 19.6475 22.2552 19.6596C22.2751 19.6718 22.2779 19.7259 22.2629 19.81C22.2479 19.8942 22.2163 20.0015 22.1752 20.1083Z" stroke="black" stroke-width="0.00833333"/>
<path d="M21.9669 19.975C21.9774 20.0892 21.9787 20.201 21.9705 20.2857C21.9623 20.3703 21.9452 20.421 21.9231 20.4265C21.901 20.4321 21.8757 20.392 21.8526 20.3151C21.8296 20.2382 21.8107 20.1309 21.8002 20.0167C21.795 19.9601 21.792 19.9035 21.7914 19.8502C21.7908 19.7969 21.7925 19.7479 21.7966 19.706C21.8007 19.6641 21.8069 19.63 21.815 19.6059C21.8232 19.5817 21.833 19.5678 21.8439 19.5651C21.8549 19.5624 21.8667 19.5708 21.8788 19.5899C21.8909 19.609 21.903 19.6385 21.9144 19.6765C21.9259 19.7146 21.9364 19.7605 21.9454 19.8117C21.9544 19.863 21.9617 19.9184 21.9669 19.975Z" fill="#009B3A"/>
<path d="M21.9669 19.975C21.9774 20.0892 21.9787 20.201 21.9705 20.2857C21.9623 20.3703 21.9452 20.421 21.9231 20.4265C21.901 20.4321 21.8757 20.392 21.8526 20.3151C21.8296 20.2382 21.8107 20.1309 21.8002 20.0167C21.795 19.9601 21.792 19.9035 21.7914 19.8502C21.7908 19.7969 21.7925 19.7479 21.7966 19.706C21.8007 19.6641 21.8069 19.63 21.815 19.6059C21.8232 19.5817 21.833 19.5678 21.8439 19.5651C21.8549 19.5624 21.8667 19.5708 21.8788 19.5899C21.8909 19.609 21.903 19.6385 21.9144 19.6765C21.9259 19.7146 21.9364 19.7605 21.9454 19.8117C21.9544 19.863 21.9617 19.9184 21.9669 19.975" stroke="black" stroke-width="0.00833333"/>
<path d="M22.0836 20.0333C22.0728 20.1478 22.0536 20.2571 22.0303 20.3372C22.007 20.4174 21.9816 20.4618 21.9595 20.4607C21.9373 20.4596 21.9205 20.413 21.9125 20.3313C21.9045 20.2496 21.9061 20.1394 21.9169 20.025C21.9223 19.9683 21.9297 19.9123 21.9389 19.8602C21.948 19.8081 21.9587 19.7608 21.9702 19.7211C21.9817 19.6814 21.9939 19.6501 22.0061 19.6289C22.0182 19.6077 22.0301 19.5971 22.0411 19.5977C22.0632 19.5988 22.0801 19.6453 22.088 19.727C22.096 19.8087 22.0944 19.9189 22.0836 20.0333Z" fill="#009B3A" stroke="black" stroke-width="0.00833333"/>
<path d="M21.9418 20.4417C21.9418 20.4417 21.8251 20.4 21.8085 20.3833C21.7835 20.3667 21.8001 20.3167 21.7251 20.275C21.6661 20.2526 21.6009 20.2526 21.5418 20.275C21.5001 20.275 21.5085 20.325 21.5918 20.3583C21.6751 20.4083 21.7418 20.375 21.7835 20.3917L21.9335 20.4667C21.9751 20.45 22.0668 20.4417 22.1168 20.4333C22.1668 20.425 22.2918 20.4667 22.3835 20.4333C22.4585 20.4083 22.4918 20.35 22.4418 20.3333C22.379 20.3167 22.3129 20.3167 22.2501 20.3333C22.1918 20.3417 22.1585 20.4167 22.1001 20.4167C22.0585 20.4167 21.9418 20.45 21.9335 20.4417H21.9418ZM22.0168 21.0833C21.9674 21.1304 21.9145 21.1757 21.8619 21.2159C21.8093 21.2562 21.7585 21.2902 21.7131 21.3156C21.6678 21.341 21.6291 21.3571 21.6 21.3626C21.5709 21.3681 21.5521 21.363 21.545 21.3475C21.5379 21.3321 21.5427 21.3067 21.5591 21.2734C21.5754 21.24 21.6029 21.1995 21.6394 21.1549C21.676 21.1103 21.7207 21.0627 21.7701 21.0157C21.8196 20.9686 21.8726 20.9234 21.9251 20.8833C21.9752 20.8336 22.0303 20.7848 22.0858 20.741C22.1413 20.6972 22.1956 20.6596 22.2443 20.6314C22.293 20.6031 22.3348 20.585 22.366 20.5785C22.3973 20.572 22.4172 20.5773 22.4241 20.594C22.4311 20.6107 22.4249 20.6383 22.406 20.6745C22.3871 20.7106 22.3561 20.7544 22.3155 20.8022C22.2749 20.85 22.2259 20.9004 22.1725 20.9492C22.1192 20.9981 22.0629 21.0441 22.0085 21.0833" fill="#009B3A"/>
<path d="M22.0168 21.0833C21.9674 21.1304 21.9145 21.1757 21.8619 21.2159C21.8093 21.2562 21.7585 21.2902 21.7131 21.3156C21.6678 21.341 21.6291 21.3571 21.6 21.3626C21.5709 21.3681 21.5521 21.363 21.545 21.3475C21.5379 21.3321 21.5427 21.3067 21.5591 21.2734C21.5754 21.24 21.6029 21.1995 21.6394 21.1549C21.676 21.1103 21.7207 21.0627 21.7701 21.0157C21.8196 20.9686 21.8726 20.9234 21.9251 20.8833C21.9752 20.8336 22.0303 20.7848 22.0858 20.741C22.1413 20.6972 22.1956 20.6596 22.2443 20.6314C22.293 20.6031 22.3348 20.585 22.366 20.5785C22.3973 20.572 22.4172 20.5773 22.4241 20.594C22.4311 20.6107 22.4249 20.6383 22.406 20.6745C22.3871 20.7106 22.3561 20.7544 22.3155 20.8022C22.2749 20.85 22.2259 20.9004 22.1725 20.9492C22.1192 20.9981 22.0629 21.0441 22.0085 21.0833M21.9418 20.4417C21.9418 20.4417 21.8251 20.4 21.8085 20.3833C21.7835 20.3667 21.8001 20.3167 21.7251 20.275C21.6661 20.2526 21.6009 20.2526 21.5418 20.275C21.5001 20.275 21.5085 20.325 21.5918 20.3583C21.6751 20.4083 21.7418 20.375 21.7835 20.3917L21.9335 20.4667C21.9751 20.45 22.0668 20.4417 22.1168 20.4333C22.1668 20.425 22.2918 20.4667 22.3835 20.4333C22.4585 20.4083 22.4918 20.35 22.4418 20.3333C22.379 20.3167 22.3129 20.3167 22.2501 20.3333C22.1918 20.3417 22.1585 20.4167 22.1001 20.4167C22.0585 20.4167 21.9418 20.45 21.9335 20.4417H21.9418Z" stroke="black" stroke-width="0.00833333"/>
<path d="M21.942 20.9917C21.8625 21.0927 21.7796 21.1809 21.7117 21.2367C21.6437 21.2926 21.5963 21.3115 21.5797 21.2894C21.5631 21.2673 21.5788 21.206 21.6233 21.1189C21.6678 21.0318 21.7375 20.9261 21.817 20.825C21.8563 20.7749 21.8969 20.7275 21.9364 20.6855C21.9759 20.6434 22.0136 20.6075 22.0472 20.5799C22.0809 20.5522 22.1098 20.5334 22.1325 20.5243C22.1551 20.5153 22.171 20.5162 22.1792 20.5272C22.1874 20.5381 22.1878 20.5588 22.1803 20.5881C22.1728 20.6174 22.1577 20.6546 22.1356 20.6977C22.1136 20.7409 22.0851 20.789 22.0519 20.8395C22.0187 20.8899 21.9813 20.9416 21.942 20.9917Z" fill="#009B3A"/>
<path d="M21.942 20.9917C21.8625 21.0927 21.7796 21.1809 21.7117 21.2367C21.6437 21.2926 21.5963 21.3115 21.5797 21.2894C21.5631 21.2673 21.5788 21.206 21.6233 21.1189C21.6678 21.0318 21.7375 20.9261 21.817 20.825C21.8563 20.7749 21.8969 20.7275 21.9364 20.6855C21.9759 20.6434 22.0136 20.6075 22.0472 20.5799C22.0809 20.5522 22.1098 20.5334 22.1325 20.5243C22.1551 20.5153 22.171 20.5162 22.1792 20.5272C22.1874 20.5381 22.1878 20.5588 22.1803 20.5881C22.1728 20.6174 22.1577 20.6546 22.1356 20.6977C22.1136 20.7409 22.0851 20.789 22.0519 20.8395C22.0187 20.8899 21.9813 20.9416 21.942 20.9917" stroke="black" stroke-width="0.00833333"/>
<path d="M21.6418 20.7667C21.6527 20.8329 21.66 20.9053 21.6633 20.9778C21.6666 21.0502 21.6656 21.1208 21.6606 21.1835C21.6556 21.2462 21.6465 21.2993 21.6343 21.3385C21.6221 21.3777 21.607 21.4017 21.5902 21.4087C21.5735 21.4157 21.5556 21.4053 21.5381 21.3786C21.5205 21.3518 21.5038 21.3094 21.4893 21.2548C21.4748 21.2003 21.463 21.1351 21.4547 21.0647C21.4464 20.9943 21.442 20.9207 21.4418 20.85C21.431 20.7837 21.4236 20.7114 21.4204 20.6389C21.4171 20.5664 21.418 20.4959 21.4231 20.4332C21.4281 20.3705 21.4371 20.3173 21.4494 20.2782C21.4616 20.239 21.4767 20.215 21.4934 20.208C21.5102 20.201 21.528 20.2113 21.5456 20.2381C21.5631 20.2648 21.5799 20.3072 21.5944 20.3618C21.6089 20.4164 21.6207 20.4816 21.629 20.552C21.6372 20.6224 21.6416 20.696 21.6418 20.7667Z" fill="#009B3A"/>
<path d="M21.6418 20.7667C21.6527 20.8329 21.66 20.9053 21.6633 20.9778C21.6666 21.0502 21.6656 21.1208 21.6606 21.1835C21.6556 21.2462 21.6465 21.2993 21.6343 21.3385C21.6221 21.3777 21.607 21.4017 21.5902 21.4087C21.5735 21.4157 21.5556 21.4053 21.5381 21.3786C21.5205 21.3518 21.5038 21.3094 21.4893 21.2548C21.4748 21.2003 21.463 21.1351 21.4547 21.0647C21.4464 20.9943 21.442 20.9207 21.4418 20.85C21.431 20.7837 21.4236 20.7114 21.4204 20.6389C21.4171 20.5664 21.418 20.4959 21.4231 20.4332C21.4281 20.3705 21.4371 20.3173 21.4494 20.2782C21.4616 20.239 21.4767 20.215 21.4934 20.208C21.5102 20.201 21.528 20.2113 21.5456 20.2381C21.5631 20.2648 21.5799 20.3072 21.5944 20.3618C21.6089 20.4164 21.6207 20.4816 21.629 20.552C21.6372 20.6224 21.6416 20.696 21.6418 20.7667" stroke="black" stroke-width="0.00833333"/>
<path d="M21.7586 20.7667C21.7326 20.8646 21.7026 20.9497 21.6731 21.0095C21.6436 21.0692 21.6161 21.1004 21.5947 21.0986C21.5732 21.0967 21.559 21.0618 21.554 20.9991C21.549 20.9364 21.5535 20.8491 21.567 20.75C21.5762 20.6773 21.5901 20.5999 21.6075 20.5244C21.6249 20.4488 21.6453 20.3772 21.667 20.3155C21.6887 20.2537 21.711 20.2036 21.7322 20.1693C21.7535 20.135 21.7729 20.1175 21.7889 20.1182C21.805 20.1189 21.8172 20.1378 21.8246 20.1734C21.8319 20.2089 21.8342 20.2601 21.8312 20.3226C21.8283 20.3852 21.8202 20.4573 21.8075 20.5331C21.7949 20.6088 21.7781 20.6861 21.7586 20.7583" fill="#009B3A"/>
<path d="M21.7586 20.7667C21.7326 20.8646 21.7026 20.9497 21.6731 21.0095C21.6436 21.0692 21.6161 21.1004 21.5947 21.0986C21.5732 21.0967 21.559 21.0618 21.554 20.9991C21.549 20.9364 21.5535 20.8491 21.567 20.75C21.5762 20.6773 21.5901 20.5999 21.6075 20.5244C21.6249 20.4488 21.6453 20.3772 21.667 20.3155C21.6887 20.2537 21.711 20.2036 21.7322 20.1693C21.7535 20.135 21.7729 20.1175 21.7889 20.1182C21.805 20.1189 21.8172 20.1378 21.8246 20.1734C21.8319 20.2089 21.8342 20.2601 21.8312 20.3226C21.8283 20.3852 21.8202 20.4573 21.8075 20.5331C21.7949 20.6088 21.7781 20.6861 21.7586 20.7583" stroke="black" stroke-width="0.00833333"/>
<path d="M21.8586 20.8667C21.8355 20.9388 21.8067 21.0149 21.7747 21.0886C21.7428 21.1622 21.7086 21.2311 21.675 21.2894C21.6415 21.3477 21.6096 21.3937 21.5821 21.4233C21.5547 21.453 21.5325 21.4655 21.5173 21.4597C21.5022 21.454 21.4947 21.4301 21.4954 21.3903C21.4961 21.3504 21.505 21.2957 21.5213 21.2309C21.5377 21.166 21.561 21.0929 21.5892 21.0179C21.6175 20.9429 21.6498 20.8681 21.6836 20.8C21.7067 20.7278 21.7354 20.6517 21.7674 20.5781C21.7993 20.5044 21.8336 20.4355 21.8671 20.3772C21.9006 20.3189 21.9325 20.273 21.96 20.2433C21.9874 20.2137 22.0097 20.2012 22.0248 20.2069C22.0399 20.2127 22.0474 20.2365 22.0467 20.2764C22.046 20.3162 22.0371 20.3709 22.0208 20.4358C22.0044 20.5006 21.9811 20.5737 21.9529 20.6487C21.9246 20.7238 21.8923 20.7986 21.8586 20.8667Z" fill="#009B3A"/>
<path d="M21.8586 20.8667C21.8355 20.9388 21.8067 21.0149 21.7747 21.0886C21.7428 21.1622 21.7086 21.2311 21.675 21.2894C21.6415 21.3477 21.6096 21.3937 21.5821 21.4233C21.5547 21.453 21.5325 21.4655 21.5173 21.4597C21.5022 21.454 21.4947 21.4301 21.4954 21.3903C21.4961 21.3504 21.505 21.2957 21.5213 21.2309C21.5377 21.166 21.561 21.0929 21.5892 21.0179C21.6175 20.9429 21.6498 20.8681 21.6836 20.8C21.7067 20.7278 21.7354 20.6517 21.7674 20.5781C21.7993 20.5044 21.8336 20.4355 21.8671 20.3772C21.9006 20.3189 21.9325 20.273 21.96 20.2433C21.9874 20.2137 22.0097 20.2012 22.0248 20.2069C22.0399 20.2127 22.0474 20.2365 22.0467 20.2764C22.046 20.3162 22.0371 20.3709 22.0208 20.4358C22.0044 20.5006 21.9811 20.5737 21.9529 20.6487C21.9246 20.7238 21.8923 20.7986 21.8586 20.8667" stroke="black" stroke-width="0.00833333"/>
<path d="M21.5837 21.275C21.5367 21.239 21.4922 21.2001 21.4503 21.1583C21.4337 21.1333 21.4587 21.075 21.392 21.0083C21.3253 20.9417 21.242 20.925 21.192 20.925C21.142 20.9333 21.142 20.9833 21.217 21.0583C21.3003 21.1417 21.3837 21.125 21.417 21.1583C21.467 21.1917 21.5337 21.25 21.5587 21.2917L21.7753 21.325C21.8337 21.325 21.9587 21.4167 22.067 21.4167C22.1503 21.4167 22.217 21.375 22.167 21.3333C22.1035 21.2867 22.0287 21.2579 21.9503 21.25C21.8837 21.25 21.8253 21.3167 21.767 21.3L21.5753 21.275H21.5837ZM21.3837 21.8833C21.2527 21.9048 21.1285 21.9126 21.0383 21.9051C20.948 21.8976 20.8992 21.8754 20.9025 21.8433C20.9058 21.8113 20.961 21.772 21.0559 21.7342C21.1509 21.6964 21.2777 21.6631 21.4087 21.6417C21.4735 21.631 21.5374 21.6237 21.5966 21.6199C21.6559 21.6162 21.7094 21.6162 21.7541 21.6199C21.7988 21.6236 21.8338 21.631 21.8571 21.6416C21.8803 21.6522 21.8915 21.6658 21.8898 21.6817C21.8882 21.6975 21.8738 21.7153 21.8475 21.734C21.8212 21.7528 21.7834 21.772 21.7364 21.7908C21.6894 21.8095 21.6341 21.8273 21.5735 21.8432C21.513 21.8591 21.4485 21.8727 21.3837 21.8833Z" fill="#009B3A"/>
<path d="M21.3837 21.8833C21.2527 21.9048 21.1285 21.9126 21.0383 21.9051C20.948 21.8976 20.8992 21.8754 20.9025 21.8433C20.9058 21.8113 20.961 21.772 21.0559 21.7342C21.1509 21.6964 21.2777 21.6631 21.4087 21.6417C21.4735 21.631 21.5374 21.6237 21.5966 21.6199C21.6559 21.6162 21.7094 21.6162 21.7541 21.6199C21.7988 21.6236 21.8338 21.631 21.8571 21.6416C21.8803 21.6522 21.8915 21.6658 21.8898 21.6817C21.8882 21.6975 21.8738 21.7153 21.8475 21.734C21.8212 21.7528 21.7834 21.772 21.7364 21.7908C21.6894 21.8095 21.6341 21.8273 21.5735 21.8432C21.513 21.8591 21.4485 21.8727 21.3837 21.8833M21.5837 21.275C21.5367 21.239 21.4922 21.2001 21.4503 21.1583C21.4337 21.1333 21.4587 21.075 21.392 21.0083C21.3253 20.9417 21.242 20.925 21.192 20.925C21.142 20.9333 21.142 20.9833 21.217 21.0583C21.3003 21.1417 21.3837 21.125 21.417 21.1583C21.467 21.1917 21.5337 21.25 21.5587 21.2917L21.7753 21.325C21.8337 21.325 21.9587 21.4167 22.067 21.4167C22.1503 21.4167 22.217 21.375 22.167 21.3333C22.1035 21.2867 22.0287 21.2579 21.9503 21.25C21.8837 21.25 21.8253 21.3167 21.767 21.3L21.5753 21.275H21.5837Z" stroke="black" stroke-width="0.00833333"/>
<path d="M21.3752 21.75C21.243 21.8009 21.1141 21.8382 21.0168 21.8539C20.9195 21.8696 20.8617 21.8622 20.8561 21.8335C20.8506 21.8047 20.8978 21.757 20.9873 21.7007C21.0769 21.6444 21.2014 21.5842 21.3335 21.5333C21.4704 21.4807 21.6038 21.442 21.7045 21.4259C21.8052 21.4098 21.8649 21.4175 21.8704 21.4473C21.8759 21.4772 21.8268 21.5267 21.734 21.585C21.6411 21.6433 21.512 21.7057 21.3752 21.7583" fill="#009B3A"/>
<path d="M21.3752 21.75C21.243 21.8009 21.1141 21.8382 21.0168 21.8539C20.9195 21.8696 20.8617 21.8622 20.8561 21.8335C20.8506 21.8047 20.8978 21.757 20.9873 21.7007C21.0769 21.6444 21.2014 21.5842 21.3335 21.5333C21.4704 21.4807 21.6038 21.442 21.7045 21.4259C21.8052 21.4098 21.8649 21.4175 21.8704 21.4473C21.8759 21.4772 21.8268 21.5267 21.734 21.585C21.6411 21.6433 21.512 21.7057 21.3752 21.7583" stroke="black" stroke-width="0.00833333"/>
<path d="M21.2001 21.3667C21.1466 21.4668 21.0891 21.5549 21.037 21.6162C20.985 21.6776 20.9417 21.7083 20.9144 21.7035C20.887 21.6986 20.8773 21.6583 20.8869 21.5894C20.8964 21.5205 20.9246 21.4272 20.9668 21.325C20.9942 21.2586 21.0265 21.1907 21.0616 21.1261C21.0966 21.0616 21.1334 21.002 21.1692 20.9518C21.2051 20.9017 21.2391 20.8621 21.2688 20.8361C21.2985 20.81 21.3231 20.7981 21.3408 20.8013C21.3586 20.8045 21.369 20.8226 21.3714 20.8544C21.3738 20.8862 21.368 20.9308 21.3545 20.9849C21.341 21.0391 21.3202 21.1015 21.2935 21.1675C21.2667 21.2336 21.2348 21.3016 21.2001 21.3667Z" fill="#009B3A"/>
<path d="M21.2001 21.3667C21.1466 21.4668 21.0891 21.5549 21.037 21.6162C20.985 21.6776 20.9417 21.7083 20.9144 21.7035C20.887 21.6986 20.8773 21.6583 20.8869 21.5894C20.8964 21.5205 20.9246 21.4272 20.9668 21.325C20.9942 21.2586 21.0265 21.1907 21.0616 21.1261C21.0966 21.0616 21.1334 21.002 21.1692 20.9518C21.2051 20.9017 21.2391 20.8621 21.2688 20.8361C21.2985 20.81 21.3231 20.7981 21.3408 20.8013C21.3586 20.8045 21.369 20.8226 21.3714 20.8544C21.3738 20.8862 21.368 20.9308 21.3545 20.9849C21.341 21.0391 21.3202 21.1015 21.2935 21.1675C21.2667 21.2336 21.2348 21.3016 21.2001 21.3667" stroke="black" stroke-width="0.00833333"/>
<path d="M21.3253 21.4333C21.2761 21.489 21.225 21.5425 21.1747 21.5908C21.1245 21.6391 21.0762 21.6812 21.0325 21.7148C20.9888 21.7483 20.9507 21.7726 20.9203 21.7864C20.8898 21.8001 20.8677 21.8029 20.8551 21.7947C20.8425 21.7865 20.8397 21.7674 20.8469 21.7385C20.8541 21.7096 20.8711 21.6715 20.897 21.6264C20.9228 21.5812 20.957 21.5299 20.9976 21.4753C21.0382 21.4207 21.0844 21.364 21.1336 21.3083C21.2329 21.1959 21.3382 21.0947 21.4264 21.0269C21.5145 20.9592 21.5784 20.9304 21.6038 20.947C21.6292 20.9635 21.6141 21.0241 21.5619 21.1153C21.5097 21.2065 21.4246 21.3209 21.3253 21.4333Z" fill="#009B3A"/>
<path d="M21.3253 21.4333C21.2761 21.489 21.225 21.5425 21.1747 21.5908C21.1245 21.6391 21.0762 21.6812 21.0325 21.7148C20.9888 21.7483 20.9507 21.7726 20.9203 21.7864C20.8898 21.8001 20.8677 21.8029 20.8551 21.7947C20.8425 21.7865 20.8397 21.7674 20.8469 21.7385C20.8541 21.7096 20.8711 21.6715 20.897 21.6264C20.9228 21.5812 20.957 21.5299 20.9976 21.4753C21.0382 21.4207 21.0844 21.364 21.1336 21.3083C21.2329 21.1959 21.3382 21.0947 21.4264 21.0269C21.5145 20.9592 21.5784 20.9304 21.6038 20.947C21.6292 20.9635 21.6141 21.0241 21.5619 21.1153C21.5097 21.2065 21.4246 21.3209 21.3253 21.4333" stroke="black" stroke-width="0.00833333"/>
<path d="M21.3585 21.5917C21.2983 21.6411 21.2343 21.689 21.171 21.7322C21.1077 21.7753 21.0467 21.8126 20.9922 21.8414C20.9377 21.8703 20.891 21.8899 20.8555 21.899C20.82 21.9081 20.7964 21.9064 20.7865 21.894C20.7767 21.8816 20.7807 21.8589 20.7983 21.8275C20.8159 21.796 20.8467 21.7565 20.8885 21.7118C20.9303 21.6671 20.9821 21.6183 21.0402 21.5687C21.0984 21.5192 21.1615 21.4701 21.2252 21.425C21.3276 21.3523 21.4261 21.2936 21.5034 21.2592C21.5807 21.2248 21.6318 21.2168 21.6477 21.2367C21.6636 21.2566 21.6433 21.3031 21.5904 21.368C21.5375 21.4329 21.4554 21.5121 21.3585 21.5917Z" fill="#009B3A"/>
<path d="M21.3585 21.5917C21.2983 21.6411 21.2343 21.689 21.171 21.7322C21.1077 21.7753 21.0467 21.8126 20.9922 21.8414C20.9377 21.8703 20.891 21.8899 20.8555 21.899C20.82 21.9081 20.7964 21.9064 20.7865 21.894C20.7767 21.8816 20.7807 21.8589 20.7983 21.8275C20.8159 21.796 20.8467 21.7565 20.8885 21.7118C20.9303 21.6671 20.9821 21.6183 21.0402 21.5687C21.0984 21.5192 21.1615 21.4701 21.2252 21.425C21.3276 21.3523 21.4261 21.2936 21.5034 21.2592C21.5807 21.2248 21.6318 21.2168 21.6477 21.2367C21.6636 21.2566 21.6433 21.3031 21.5904 21.368C21.5375 21.4329 21.4554 21.5121 21.3585 21.5917" stroke="black" stroke-width="0.00833333"/>
<path d="M20.8668 21.8083C20.8435 21.7485 20.824 21.6873 20.8085 21.625C20.8001 21.5917 20.8585 21.5583 20.8335 21.4583C20.8053 21.3776 20.7491 21.3096 20.6751 21.2667C20.6335 21.2417 20.6001 21.2833 20.6335 21.4C20.6668 21.5167 20.7501 21.5583 20.7751 21.6167L20.8418 21.8167L21.0251 21.975C21.0751 22.0167 21.1501 22.175 21.2501 22.2333C21.3335 22.2917 21.4168 22.275 21.4001 22.2167C21.3626 22.1369 21.3052 22.068 21.2335 22.0167C21.1751 21.9667 21.0835 21.9917 21.0251 21.95C20.9918 21.9083 20.8585 21.8167 20.8585 21.8083" fill="#009B3A"/>
<path d="M20.8668 21.8083C20.8435 21.7485 20.824 21.6873 20.8085 21.625C20.8001 21.5917 20.8585 21.5583 20.8335 21.4583C20.8053 21.3776 20.7491 21.3096 20.6751 21.2667C20.6335 21.2417 20.6001 21.2833 20.6335 21.4C20.6668 21.5167 20.7501 21.5583 20.7751 21.6167L20.8418 21.8167L21.0251 21.975C21.0751 22.0167 21.1501 22.175 21.2501 22.2333C21.3335 22.2917 21.4168 22.275 21.4001 22.2167C21.3626 22.1369 21.3052 22.068 21.2335 22.0167C21.1751 21.9667 21.0835 21.9917 21.0251 21.95C20.9918 21.9083 20.8585 21.8167 20.8585 21.8083" stroke="black" stroke-width="0.00833333"/>
<path d="M20.567 22.3333C20.4561 22.3272 20.3575 22.3101 20.2869 22.2848C20.2163 22.2594 20.178 22.2274 20.178 22.1937C20.178 22.16 20.2163 22.1267 20.2869 22.0991C20.3575 22.0716 20.4561 22.0513 20.567 22.0417C20.6779 22.0478 20.7765 22.0649 20.8471 22.0902C20.9176 22.1155 20.956 22.1476 20.956 22.1813C20.956 22.215 20.9176 22.2483 20.8471 22.2758C20.7765 22.3034 20.6779 22.3237 20.567 22.3333Z" fill="#009B3A"/>
<path d="M20.567 22.3333C20.4561 22.3272 20.3575 22.3101 20.2869 22.2848C20.2163 22.2594 20.178 22.2274 20.178 22.1937C20.178 22.16 20.2163 22.1267 20.2869 22.0991C20.3575 22.0716 20.4561 22.0513 20.567 22.0417C20.6779 22.0478 20.7765 22.0649 20.8471 22.0902C20.9176 22.1155 20.956 22.1476 20.956 22.1813C20.956 22.215 20.9176 22.2483 20.8471 22.2758C20.7765 22.3034 20.6779 22.3237 20.567 22.3333" stroke="black" stroke-width="0.00833333"/>
<path d="M20.5001 21.875C20.4129 21.9878 20.3174 22.0863 20.2346 22.1489C20.1518 22.2114 20.0886 22.2329 20.0587 22.2086C20.0289 22.1843 20.0349 22.1162 20.0755 22.0192C20.1161 21.9223 20.1879 21.8045 20.2751 21.6917C20.3174 21.6372 20.362 21.5855 20.4066 21.5398C20.4511 21.494 20.4945 21.455 20.5345 21.425C20.5744 21.3949 20.6101 21.3744 20.6394 21.3647C20.6687 21.355 20.6911 21.3561 20.7054 21.3682C20.7196 21.3802 20.7254 21.4029 20.7223 21.4349C20.7193 21.4669 20.7075 21.5075 20.6877 21.5546C20.6679 21.6017 20.6403 21.6542 20.6067 21.7092C20.5731 21.7641 20.5341 21.8205 20.4918 21.875" fill="#009B3A"/>
<path d="M20.5001 21.875C20.4129 21.9878 20.3174 22.0863 20.2346 22.1489C20.1518 22.2114 20.0886 22.2329 20.0587 22.2086C20.0289 22.1843 20.0349 22.1162 20.0755 22.0192C20.1161 21.9223 20.1879 21.8045 20.2751 21.6917C20.3174 21.6372 20.362 21.5855 20.4066 21.5398C20.4511 21.494 20.4945 21.455 20.5345 21.425C20.5744 21.3949 20.6101 21.3744 20.6394 21.3647C20.6687 21.355 20.6911 21.3561 20.7054 21.3682C20.7196 21.3802 20.7254 21.4029 20.7223 21.4349C20.7193 21.4669 20.7075 21.5075 20.6877 21.5546C20.6679 21.6017 20.6403 21.6542 20.6067 21.7092C20.5731 21.7641 20.5341 21.8205 20.4918 21.875" stroke="black" stroke-width="0.00833333"/>
<path d="M20.5668 22.1083C20.4371 22.1641 20.3073 22.203 20.2061 22.2166C20.105 22.2303 20.0407 22.2174 20.0275 22.181C20.0142 22.1445 20.053 22.0874 20.1354 22.0222C20.2178 21.957 20.3371 21.8891 20.4669 21.8333C20.5966 21.7776 20.7264 21.7387 20.8276 21.725C20.9287 21.7114 20.993 21.7243 21.0062 21.7607C21.0195 21.7972 20.9807 21.8543 20.8983 21.9195C20.8159 21.9847 20.6966 22.0526 20.5668 22.1083ZM20.7085 17.6583C20.7656 17.7118 20.8128 17.7647 20.8409 17.8067C20.8689 17.8486 20.8758 17.8765 20.8601 17.8849C20.8444 17.8933 20.8073 17.8815 20.7561 17.8519C20.7049 17.8223 20.6433 17.777 20.5835 17.725C20.5504 17.6962 20.5189 17.6662 20.4909 17.637C20.4629 17.6077 20.4392 17.5798 20.4211 17.5551C20.403 17.5303 20.3911 17.5093 20.3859 17.4932C20.3808 17.4772 20.3827 17.4665 20.3914 17.4619C20.4001 17.4572 20.4154 17.4587 20.4365 17.4663C20.4575 17.4738 20.4838 17.4873 20.5136 17.5058C20.5434 17.5242 20.5761 17.5473 20.6097 17.5736C20.6433 17.5999 20.6769 17.6287 20.7085 17.6583ZM20.5502 17.7833C20.6192 17.7961 20.681 17.8126 20.7263 17.8302C20.7715 17.8478 20.7975 17.8656 20.8004 17.8808C20.8032 17.896 20.7827 17.9077 20.742 17.9142C20.7013 17.9207 20.6427 17.9215 20.5752 17.9167C20.528 17.9133 20.4781 17.9072 20.4293 17.8988C20.3804 17.8905 20.334 17.8802 20.2936 17.8687C20.2532 17.8571 20.2199 17.8447 20.1962 17.8324C20.1726 17.82 20.1592 17.8081 20.1573 17.7975C20.1553 17.7869 20.1647 17.7779 20.1848 17.7712C20.2048 17.7646 20.235 17.7604 20.273 17.759C20.311 17.7576 20.3558 17.7591 20.4039 17.7633C20.4519 17.7676 20.502 17.7744 20.5502 17.7833Z" fill="#009B3A"/>
<path d="M20.5502 17.7833C20.6192 17.7961 20.681 17.8126 20.7263 17.8302C20.7715 17.8478 20.7975 17.8656 20.8004 17.8808C20.8032 17.896 20.7827 17.9077 20.742 17.9142C20.7013 17.9207 20.6427 17.9215 20.5752 17.9167C20.528 17.9133 20.4781 17.9072 20.4293 17.8988C20.3804 17.8905 20.334 17.8802 20.2936 17.8687C20.2532 17.8571 20.2199 17.8447 20.1962 17.8324C20.1726 17.82 20.1592 17.8081 20.1573 17.7975C20.1553 17.7869 20.1647 17.7779 20.1848 17.7712C20.2048 17.7646 20.235 17.7604 20.273 17.759C20.311 17.7576 20.3558 17.7591 20.4039 17.7633C20.4519 17.7676 20.502 17.7744 20.5502 17.7833M20.5668 22.1083C20.4371 22.1641 20.3073 22.203 20.2061 22.2166C20.105 22.2303 20.0407 22.2174 20.0275 22.181C20.0142 22.1445 20.053 22.0874 20.1354 22.0222C20.2178 21.957 20.3371 21.8891 20.4669 21.8333C20.5966 21.7776 20.7264 21.7387 20.8276 21.725C20.9287 21.7114 20.993 21.7243 21.0062 21.7607C21.0195 21.7972 20.9807 21.8543 20.8983 21.9195C20.8159 21.9847 20.6966 22.0526 20.5668 22.1083V22.1083ZM20.7085 17.6583C20.7656 17.7118 20.8128 17.7647 20.8409 17.8067C20.8689 17.8486 20.8758 17.8765 20.8601 17.8849C20.8444 17.8933 20.8073 17.8815 20.7561 17.8519C20.7049 17.8223 20.6433 17.777 20.5835 17.725C20.5504 17.6962 20.5189 17.6662 20.4909 17.637C20.4629 17.6077 20.4392 17.5798 20.4211 17.5551C20.403 17.5303 20.3911 17.5093 20.3859 17.4932C20.3808 17.4772 20.3827 17.4665 20.3914 17.4619C20.4001 17.4572 20.4154 17.4587 20.4365 17.4663C20.4575 17.4738 20.4838 17.4873 20.5136 17.5058C20.5434 17.5242 20.5761 17.5473 20.6097 17.5736C20.6433 17.5999 20.6769 17.6287 20.7085 17.6583V17.6583Z" stroke="black" stroke-width="0.00833333"/>
<path d="M20.6169 17.7C20.6593 17.7215 20.7004 17.7443 20.7379 17.7669C20.7754 17.7896 20.8086 17.8116 20.8354 17.8319C20.8623 17.8522 20.8824 17.8702 20.8946 17.8851C20.9068 17.8999 20.9108 17.9112 20.9064 17.9183C20.9021 17.9254 20.8894 17.9282 20.8691 17.9265C20.8488 17.9248 20.8214 17.9187 20.7883 17.9085C20.7552 17.8983 20.7172 17.8842 20.6763 17.867C20.6355 17.8498 20.5927 17.8299 20.5503 17.8083C20.4646 17.7648 20.386 17.7173 20.3317 17.6764C20.2775 17.6355 20.2519 17.6044 20.2608 17.59C20.2696 17.5757 20.3121 17.5792 20.3789 17.5998C20.4457 17.6204 20.5313 17.6565 20.6169 17.7ZM18.3086 21.8333C18.3086 21.8333 18.7336 21.925 19.1086 22.0583C19.4836 22.2 20.0503 22.6583 20.2003 22.6917C20.3669 22.6917 20.6086 22.6333 20.7003 22.3917C20.4336 22.4583 20.2836 22.5667 20.0336 22.4333C19.9419 22.4 19.6503 22.1333 19.3253 21.9917C19.0086 21.85 18.3669 21.6917 18.3669 21.6917L18.3086 21.8333ZM18.7669 17.9583L19.2586 17.7L18.7169 17.8417L18.6503 17.9333L18.7669 17.9583Z" fill="#009B3A"/>
<path d="M18.7669 17.9583L19.2586 17.7L18.7169 17.8417L18.6503 17.9333L18.7669 17.9583M20.6169 17.7C20.6593 17.7215 20.7004 17.7443 20.7379 17.7669C20.7754 17.7896 20.8086 17.8116 20.8354 17.8319C20.8623 17.8522 20.8824 17.8702 20.8946 17.8851C20.9068 17.8999 20.9108 17.9112 20.9064 17.9183C20.9021 17.9254 20.8894 17.9282 20.8691 17.9265C20.8488 17.9248 20.8214 17.9187 20.7883 17.9085C20.7552 17.8983 20.7172 17.8842 20.6763 17.867C20.6355 17.8498 20.5927 17.8299 20.5503 17.8083C20.4646 17.7648 20.386 17.7173 20.3317 17.6764C20.2775 17.6355 20.2519 17.6044 20.2608 17.59C20.2696 17.5757 20.3121 17.5792 20.3789 17.5998C20.4457 17.6204 20.5313 17.6565 20.6169 17.7V17.7ZM18.3086 21.8333C18.3086 21.8333 18.7336 21.925 19.1086 22.0583C19.4836 22.2 20.0503 22.6583 20.2003 22.6917C20.3669 22.6917 20.6086 22.6333 20.7003 22.3917C20.4336 22.4583 20.2836 22.5667 20.0336 22.4333C19.9419 22.4 19.6503 22.1333 19.3253 21.9917C19.0086 21.85 18.3669 21.6917 18.3669 21.6917L18.3086 21.8333V21.8333Z" stroke="black" stroke-width="0.00833333"/>
<path d="M19.2336 18.0833C19.0419 18.0417 18.7502 17.975 18.5669 17.9667C18.6919 17.825 18.8669 17.575 18.9836 17.4333C18.9002 17.575 18.7919 17.7667 18.7502 17.8917C18.8752 17.9667 19.0836 18.025 19.2336 18.075" fill="#009B3A"/>
<path d="M19.2336 18.0833C19.0419 18.0417 18.7502 17.975 18.5669 17.9667C18.6919 17.825 18.8669 17.575 18.9836 17.4333C18.9002 17.575 18.7919 17.7667 18.7502 17.8917C18.8752 17.9667 19.0836 18.025 19.2336 18.075" stroke="black" stroke-width="0.00833333"/>
<path d="M18.6753 17.9917C18.8213 17.8762 18.9685 17.7623 19.1169 17.65L18.6086 17.875L18.5586 17.9833H18.6753" fill="#009B3A"/>
<path d="M18.6753 17.9917C18.8213 17.8762 18.9685 17.7623 19.1169 17.65L18.6086 17.875L18.5586 17.9833H18.6753" stroke="black" stroke-width="0.00833333"/>
<path d="M19.1418 18.075C18.9501 18.0333 18.6584 17.9667 18.4751 17.95C18.5918 17.8083 18.7668 17.5583 18.8751 17.4C18.8084 17.55 18.6918 17.7417 18.6501 17.8833C18.7834 17.9583 18.9918 18.0167 19.1501 18.075" fill="#009B3A"/>
<path d="M19.1418 18.075C18.9501 18.0333 18.6584 17.9667 18.4751 17.95C18.5918 17.8083 18.7668 17.5583 18.8751 17.4C18.8084 17.55 18.6918 17.7417 18.6501 17.8833C18.7834 17.9583 18.9918 18.0167 19.1501 18.075" stroke="black" stroke-width="0.00833333"/>
<path d="M18.6086 18.0167L19.1169 17.8L18.5669 17.8917L18.4919 17.975L18.6003 18.0167" fill="#009B3A"/>
<path d="M18.6086 18.0167L19.1169 17.8L18.5669 17.8917L18.4919 17.975L18.6003 18.0167" stroke="black" stroke-width="0.00833333"/>
<path d="M19.0835 18.0833C18.8918 18.0583 18.5835 18.025 18.4001 18.0333C18.5085 17.8667 18.6501 17.5917 18.7418 17.425C18.6918 17.5833 18.6001 17.7917 18.5751 17.9333C18.7168 18 18.9335 18.0333 19.0835 18.075" fill="#009B3A"/>
<path d="M19.0835 18.0833C18.8918 18.0583 18.5835 18.025 18.4001 18.0333C18.5085 17.8667 18.6501 17.5917 18.7418 17.425C18.6918 17.5833 18.6001 17.7917 18.5751 17.9333C18.7168 18 18.9335 18.0333 19.0835 18.075" stroke="black" stroke-width="0.00833333"/>
<path d="M18.5503 18.0167L18.9003 17.6L18.4586 17.925L18.4336 18.0333L18.5503 18.0167Z" fill="#009B3A"/>
<path d="M18.5503 18.0167L18.9003 17.6L18.4586 17.925L18.4336 18.0333L18.5503 18.0167" stroke="black" stroke-width="0.00833333"/>
<path d="M19.0834 18.1083C18.8751 18.1083 18.5501 18.0833 18.3501 18.1083C18.4501 17.9167 18.5751 17.6083 18.6501 17.4167C18.6168 17.5917 18.5418 17.8333 18.5334 17.9917C18.6834 18.0417 18.9168 18.075 19.0834 18.1083Z" fill="#009B3A"/>
<path d="M19.0834 18.1083C18.8751 18.1083 18.5501 18.0833 18.3501 18.1083C18.4501 17.9167 18.5751 17.6083 18.6501 17.4167C18.6168 17.5917 18.5418 17.8333 18.5334 17.9917C18.6834 18.0417 18.9168 18.075 19.0834 18.1083" stroke="black" stroke-width="0.00833333"/>
<path d="M18.4836 18.1167L18.9003 17.7083L18.392 18L18.3586 18.1167H18.4836Z" fill="#009B3A" stroke="black" stroke-width="0.00833333"/>
<path d="M18.9919 18.1167C18.7669 18.1167 18.4252 18.1083 18.2002 18.1333C18.3502 17.925 18.5502 17.5833 18.6669 17.375C18.5835 17.5667 18.4669 17.825 18.4169 18C18.5752 18.0583 18.8169 18.0833 18.9919 18.1167Z" fill="#009B3A" stroke="black" stroke-width="0.00833333"/>
<path d="M18.3335 18.15L18.8835 17.6917L18.2669 18.0166L18.2002 18.15H18.3335Z" fill="#009B3A"/>
<path d="M18.3335 18.15L18.8835 17.6917L18.2669 18.0166L18.2002 18.15H18.3335" stroke="black" stroke-width="0.00833333"/>
<path d="M18.9169 18.1333C18.6919 18.1667 18.3419 18.2 18.1335 18.2583C18.2419 18.0333 18.3919 17.675 18.4835 17.45C18.4335 17.65 18.3419 17.9167 18.3169 18.1C18.4835 18.1333 18.7335 18.125 18.9085 18.1333" fill="#009B3A"/>
<path d="M18.9169 18.1333C18.6919 18.1667 18.3419 18.2 18.1335 18.2583C18.2419 18.0333 18.3919 17.675 18.4835 17.45C18.4335 17.65 18.3419 17.9167 18.3169 18.1C18.4835 18.1333 18.7335 18.125 18.9085 18.1333" stroke="black" stroke-width="0.00833333"/>
<path d="M18.2669 18.2417L18.6835 17.6583L18.1585 18.1333L18.1335 18.275L18.2669 18.2417Z" fill="#009B3A"/>
<path d="M18.2669 18.2417L18.6835 17.6583L18.1585 18.1333L18.1335 18.275L18.2669 18.2417" stroke="black" stroke-width="0.00833333"/>
<path d="M18.7836 18.2C18.5669 18.225 18.2169 18.2417 18.0002 18.2833C18.1252 18.0667 18.2919 17.7167 18.4002 17.5C18.3336 17.6917 18.2336 17.9583 18.2002 18.1417C18.3669 18.1833 18.6169 18.1833 18.7836 18.2Z" fill="#009B3A"/>
<path d="M18.7836 18.2C18.5669 18.225 18.2169 18.2417 18.0002 18.2833C18.1252 18.0667 18.2919 17.7167 18.4002 17.5C18.3336 17.6917 18.2336 17.9583 18.2002 18.1417C18.3669 18.1833 18.6169 18.1833 18.7836 18.2" stroke="black" stroke-width="0.00833333"/>
<path d="M18.1919 18.3L18.7253 17.8417L18.1169 18.1667L18.0586 18.3H18.1919Z" fill="#009B3A" stroke="black" stroke-width="0.00833333"/>
<path d="M18.7252 18.225C18.5002 18.275 18.1502 18.3333 17.9419 18.4C18.0419 18.175 18.1752 17.8083 18.2586 17.5833C18.2169 17.7833 18.1419 18.05 18.1252 18.2333C18.2919 18.2583 18.5419 18.2333 18.7252 18.225Z" fill="#009B3A" stroke="black" stroke-width="0.00833333"/>
<path d="M18.1001 18.3333L18.4334 17.6917L17.9834 18.2416L17.9751 18.3833L18.1001 18.325" fill="#009B3A"/>
<path d="M18.1001 18.3333L18.4334 17.6917L17.9834 18.2416L17.9751 18.3833L18.1001 18.325" stroke="black" stroke-width="0.00833333"/>
<path d="M18.7252 18.2583C18.4752 18.325 18.1085 18.4083 17.8918 18.4916C17.9752 18.2333 18.0668 17.825 18.1335 17.5667C18.1085 17.7917 18.0585 18.0917 18.0668 18.3C18.2585 18.3167 18.5252 18.275 18.7168 18.2583" fill="#009B3A"/>
<path d="M18.7252 18.2583C18.4752 18.325 18.1085 18.4083 17.8918 18.4916C17.9752 18.2333 18.0668 17.825 18.1335 17.5667C18.1085 17.7917 18.0585 18.0917 18.0668 18.3C18.2585 18.3167 18.5252 18.275 18.7168 18.2583" stroke="black" stroke-width="0.00833333"/>
<path d="M18.0335 18.475L18.4668 17.8417L17.9168 18.35L17.8918 18.5167L18.0335 18.475Z" fill="#009B3A"/>
<path d="M18.0335 18.475L18.4668 17.8417L17.9168 18.35L17.8918 18.5167L18.0335 18.475" stroke="black" stroke-width="0.00833333"/>
<path d="M18.6253 18.3333C18.3919 18.4083 18.0253 18.5083 17.8086 18.6083C17.8753 18.3417 17.9586 17.9333 18.0086 17.675C18.0003 17.9 17.9669 18.2 17.9836 18.4C18.1669 18.4083 18.4336 18.35 18.6253 18.3333Z" fill="#009B3A"/>
<path d="M18.6253 18.3333C18.3919 18.4083 18.0253 18.5083 17.8086 18.6083C17.8753 18.3417 17.9586 17.9333 18.0086 17.675C18.0003 17.9 17.9669 18.2 17.9836 18.4C18.1669 18.4083 18.4336 18.35 18.6253 18.3333" stroke="black" stroke-width="0.00833333"/>
<path d="M17.9503 18.5667L18.2753 17.8667L17.8086 18.4667V18.6333L17.9503 18.5667Z" fill="#009B3A"/>
<path d="M17.9503 18.5667L18.2753 17.8667L17.8086 18.4667V18.6333L17.9503 18.5667" stroke="black" stroke-width="0.00833333"/>
<path d="M18.5335 18.4333C18.3002 18.4833 17.9252 18.5583 17.7002 18.6333C17.7919 18.3833 17.9085 17.9667 17.9835 17.7167C17.9502 17.9417 17.8919 18.25 17.8919 18.4417C18.0752 18.4667 18.3419 18.4333 18.5335 18.425" fill="#009B3A"/>
<path d="M18.5335 18.4333C18.3002 18.4833 17.9252 18.5583 17.7002 18.6333C17.7919 18.3833 17.9085 17.9667 17.9835 17.7167C17.9502 17.9417 17.8919 18.25 17.8919 18.4417C18.0752 18.4667 18.3419 18.4333 18.5335 18.425" stroke="black" stroke-width="0.00833333"/>
<path d="M17.8668 18.6333L18.4001 18.0833L17.7751 18.4917L17.7251 18.6417L17.8668 18.6333Z" fill="#009B3A"/>
<path d="M17.8668 18.6333L18.4001 18.0833L17.7751 18.4917L17.7251 18.6417L17.8668 18.6333" stroke="black" stroke-width="0.00833333"/>
<path d="M18.4334 18.525C18.1918 18.5583 17.8251 18.5917 17.6001 18.65C17.7084 18.4 17.8501 18 17.9334 17.75C17.8834 17.975 17.8084 18.275 17.7918 18.475C17.9751 18.5167 18.2418 18.5083 18.4334 18.525Z" fill="#009B3A"/>
<path d="M18.4334 18.525C18.1918 18.5583 17.8251 18.5917 17.6001 18.65C17.7084 18.4 17.8501 18 17.9334 17.75C17.8834 17.975 17.8084 18.275 17.7918 18.475C17.9751 18.5167 18.2418 18.5083 18.4334 18.525" stroke="black" stroke-width="0.00833333"/>
<path d="M17.7669 18.5833L18.1252 17.8917L17.6335 18.475V18.6333L17.7669 18.575" fill="#009B3A"/>
<path d="M17.7669 18.5833L18.1252 17.8917L17.6335 18.475V18.6333L17.7669 18.575" stroke="black" stroke-width="0.00833333"/>
<path d="M18.4586 18.4417C18.2086 18.55 17.792 18.6917 17.5503 18.825C17.6336 18.5167 17.717 18.0333 17.767 17.7333C17.767 17.9917 17.7253 18.35 17.742 18.575C17.9503 18.575 18.242 18.4833 18.4586 18.4417Z" fill="#009B3A"/>
<path d="M18.4586 18.4417C18.2086 18.55 17.792 18.6917 17.5503 18.825C17.6336 18.5167 17.717 18.0333 17.767 17.7333C17.767 17.9917 17.7253 18.35 17.742 18.575C17.9503 18.575 18.242 18.4833 18.4586 18.4417" stroke="black" stroke-width="0.00833333"/>
<path d="M17.7169 18.7833L18.1503 18L17.5753 18.6667L17.5586 18.85L17.7169 18.7833Z" fill="#009B3A"/>
<path d="M17.7169 18.7833L18.1503 18L17.5753 18.6667L17.5586 18.85L17.7169 18.7833" stroke="black" stroke-width="0.00833333"/>
<path d="M18.3584 18.5417C18.1084 18.6583 17.7084 18.825 17.4751 18.9667C17.5418 18.6667 17.6001 18.175 17.6418 17.8833C17.6418 18.1333 17.6251 18.4917 17.6501 18.7167C17.8584 18.6917 18.1501 18.5917 18.3584 18.5417Z" fill="#009B3A" stroke="black" stroke-width="0.00833333"/>
<path d="M17.6251 18.9L17.9418 18.0583L17.4668 18.8083L17.4835 19L17.6251 18.9Z" fill="#009B3A"/>
<path d="M17.6251 18.9L17.9418 18.0583L17.4668 18.8083L17.4835 19L17.6251 18.9" stroke="black" stroke-width="0.00833333"/>
<path d="M18.2503 18.6083C18.0003 18.7333 17.6003 18.9 17.3669 19.05C17.4253 18.7417 17.4836 18.2583 17.5253 17.9583C17.5253 18.2083 17.5086 18.5667 17.5419 18.7917C17.7503 18.7667 18.0419 18.6583 18.2503 18.6083Z" fill="#009B3A"/>
<path d="M18.2503 18.6083C18.0003 18.7333 17.6003 18.9 17.3669 19.05C17.4253 18.7417 17.4836 18.2583 17.5253 17.9583C17.5253 18.2083 17.5086 18.5667 17.5419 18.7917C17.7503 18.7667 18.0419 18.6583 18.2503 18.6083" stroke="black" stroke-width="0.00833333"/>
<path d="M17.5585 19L18.0418 18.2583L17.4251 18.8667L17.4001 19.05L17.5585 19Z" fill="#009B3A" stroke="black" stroke-width="0.00833333"/>
<path d="M18.2252 18.5667C18.0002 18.75 17.6419 19.0167 17.4419 19.2167C17.4419 18.9 17.4002 18.425 17.3752 18.1333C17.4252 18.375 17.4836 18.7167 17.5669 18.925C17.7669 18.85 18.0252 18.675 18.2336 18.575" fill="#009B3A"/>
<path d="M18.2252 18.5667C18.0002 18.75 17.6419 19.0167 17.4419 19.2167C17.4419 18.9 17.4002 18.425 17.3752 18.1333C17.4252 18.375 17.4836 18.7167 17.5669 18.925C17.7669 18.85 18.0252 18.675 18.2336 18.575" stroke="black" stroke-width="0.00833333"/>
<path d="M17.5835 19.0417L17.6335 18.15L17.4001 19.0167L17.4668 19.1833L17.5835 19.0417Z" fill="#009B3A"/>
<path d="M17.5835 19.0417L17.6335 18.15L17.4001 19.0167L17.4668 19.1833L17.5835 19.0417" stroke="black" stroke-width="0.00833333"/>
<path d="M18.1669 18.65C17.9336 18.8333 17.5836 19.0917 17.3753 19.2917C17.3753 18.9833 17.3336 18.5 17.3086 18.2083C17.3669 18.4583 17.4169 18.7917 17.5003 19C17.7003 18.9333 17.9586 18.75 18.1669 18.65Z" fill="#009B3A" stroke="black" stroke-width="0.00833333"/>
<path d="M17.5253 19.1917L17.7503 18.3167L17.3586 19.1166L17.3836 19.3L17.5253 19.1917Z" fill="#009B3A"/>
<path d="M17.5253 19.1917L17.7503 18.3167L17.3586 19.1166L17.3836 19.3L17.5253 19.1917" stroke="black" stroke-width="0.00833333"/>
<path d="M18.1335 18.6667C17.9252 18.8833 17.5835 19.2 17.3918 19.4167C17.3585 19.1083 17.2668 18.6167 17.2085 18.3167C17.2918 18.5667 17.3835 18.9083 17.4918 19.1083C17.6835 19.0167 17.9418 18.8083 18.1335 18.675" fill="#009B3A"/>
<path d="M18.1335 18.6667C17.9252 18.8833 17.5835 19.2 17.3918 19.4167C17.3585 19.1083 17.2668 18.6167 17.2085 18.3167C17.2918 18.5667 17.3835 18.9083 17.4918 19.1083C17.6835 19.0167 17.9418 18.8083 18.1335 18.675" stroke="black" stroke-width="0.00833333"/>
<path d="M17.5251 19.3L17.5668 18.375L17.3418 19.275L17.4085 19.4417L17.5251 19.3Z" fill="#009B3A"/>
<path d="M17.5251 19.3L17.5668 18.375L17.3418 19.275L17.4085 19.4417L17.5251 19.3" stroke="black" stroke-width="0.00833333"/>
<path d="M18.0669 18.8333C17.8419 19.0167 17.4836 19.2917 17.2669 19.5C17.2669 19.1833 17.2086 18.6833 17.1836 18.375C17.2419 18.625 17.3086 18.9833 17.3919 19.2C17.6003 19.1167 17.8669 18.9417 18.0669 18.825" fill="#009B3A"/>
<path d="M18.0669 18.8333C17.8419 19.0167 17.4836 19.2917 17.2669 19.5C17.2669 19.1833 17.2086 18.6833 17.1836 18.375C17.2419 18.625 17.3086 18.9833 17.3919 19.2C17.6003 19.1167 17.8669 18.9417 18.0669 18.825" stroke="black" stroke-width="0.00833333"/>
<path d="M17.4587 19.4083L17.7753 18.5333L17.292 19.3083L17.3087 19.5L17.4587 19.4083Z" fill="#009B3A"/>
<path d="M17.4587 19.4083L17.7753 18.5333L17.292 19.3083L17.3087 19.5L17.4587 19.4083" stroke="black" stroke-width="0.00833333"/>
<path d="M18.0669 18.8333C17.8586 19.0417 17.5419 19.3667 17.3586 19.5917C17.3253 19.275 17.2336 18.775 17.1836 18.475C17.2669 18.725 17.3503 19.075 17.4503 19.275C17.6419 19.175 17.8753 18.9667 18.0669 18.8333Z" fill="#009B3A"/>
<path d="M18.0669 18.8333C17.8586 19.0417 17.5419 19.3667 17.3586 19.5917C17.3253 19.275 17.2336 18.775 17.1836 18.475C17.2669 18.725 17.3503 19.075 17.4503 19.275C17.6419 19.175 17.8753 18.9667 18.0669 18.8333" stroke="black" stroke-width="0.00833333"/>
<path d="M17.467 19.45L17.4337 18.5333L17.2837 19.45L17.367 19.6083L17.467 19.45Z" fill="#009B3A" stroke="black" stroke-width="0.00833333"/>
<path d="M17.9669 18.9C17.7669 19.1167 17.4585 19.4417 17.2835 19.675C17.2419 19.3417 17.1335 18.8583 17.0752 18.55C17.1585 18.8 17.2669 19.15 17.3669 19.35C17.5502 19.25 17.7835 19.0333 17.9669 18.9Z" fill="#009B3A" stroke="black" stroke-width="0.00833333"/>
<path d="M17.4169 19.5417L17.5169 18.6083L17.2419 19.4917L17.3003 19.675L17.4169 19.5417Z" fill="#009B3A"/>
<path d="M17.4169 19.5417L17.5169 18.6083L17.2419 19.4917L17.3003 19.675L17.4169 19.5417" stroke="black" stroke-width="0.00833333"/>
<path d="M17.9169 18.9333C17.7502 19.175 17.4585 19.5167 17.3002 19.7667C17.2335 19.45 17.0919 18.975 17.0085 18.6833C17.1169 18.9167 17.2419 19.25 17.3585 19.4417C17.5335 19.325 17.7502 19.0917 17.9252 18.9417" fill="#009B3A"/>
<path d="M17.9169 18.9333C17.7502 19.175 17.4585 19.5167 17.3002 19.7667C17.2335 19.45 17.0919 18.975 17.0085 18.6833C17.1169 18.9167 17.2419 19.25 17.3585 19.4417C17.5335 19.325 17.7502 19.0917 17.9252 18.9417" stroke="black" stroke-width="0.00833333"/>
<path d="M17.417 19.6333L17.3503 18.6917L17.2336 19.625L17.317 19.7917L17.4086 19.625" fill="#009B3A"/>
<path d="M17.417 19.6333L17.3503 18.6917L17.2336 19.625L17.317 19.7917L17.4086 19.625" stroke="black" stroke-width="0.00833333"/>
<path d="M17.9084 18.9917C17.7418 19.2417 17.4668 19.6 17.3251 19.8583C17.2418 19.5417 17.0751 19.0667 16.9751 18.775C17.0918 19.0083 17.2334 19.3417 17.3668 19.525C17.5334 19.4 17.7418 19.15 17.9084 18.9917Z" fill="#009B3A" stroke="black" stroke-width="0.00833333"/>
<path d="M17.467 19.7167L17.567 18.775L17.3003 19.6583L17.3503 19.85L17.467 19.7167Z" fill="#009B3A" stroke="black" stroke-width="0.00833333"/>
<path d="M17.867 19.0833C17.7253 19.3417 17.492 19.75 17.367 20.025C17.2586 19.725 17.0503 19.275 16.9253 18.9917C17.067 19.2083 17.2336 19.5167 17.3836 19.6917C17.542 19.5417 17.717 19.2583 17.867 19.075" fill="#009B3A"/>
<path d="M17.867 19.0833C17.7253 19.3417 17.492 19.75 17.367 20.025C17.2586 19.725 17.0503 19.275 16.9253 18.9917C17.067 19.2083 17.2336 19.5167 17.3836 19.6917C17.542 19.5417 17.717 19.2583 17.867 19.075" stroke="black" stroke-width="0.00833333"/>
<path d="M17.442 19.8L17.1753 18.9L17.2586 19.8417L17.3836 19.975L17.4336 19.8" fill="#009B3A"/>
<path d="M17.442 19.8L17.1753 18.9L17.2586 19.8417L17.3836 19.975L17.4336 19.8" stroke="black" stroke-width="0.00833333"/>
<path d="M17.8668 19.1833C17.7168 19.45 17.4668 19.85 17.3418 20.125C17.2335 19.825 17.0252 19.375 16.8918 19.1C17.0335 19.3167 17.2085 19.625 17.3585 19.7917C17.5252 19.6417 17.7085 19.3667 17.8585 19.1833" fill="#009B3A"/>
<path d="M17.8668 19.1833C17.7168 19.45 17.4668 19.85 17.3418 20.125C17.2335 19.825 17.0252 19.375 16.8918 19.1C17.0335 19.3167 17.2085 19.625 17.3585 19.7917C17.5252 19.6417 17.7085 19.3667 17.8585 19.1833" stroke="black" stroke-width="0.00833333"/>
<path d="M17.4502 19.9667L17.3502 19.025L17.2668 19.9667L17.3585 20.1333L17.4502 19.9667Z" fill="#009B3A"/>
<path d="M17.4502 19.9667L17.3502 19.025L17.2668 19.9667L17.3585 20.1333L17.4502 19.9667" stroke="black" stroke-width="0.00833333"/>
<path d="M17.8837 19.2667C17.7254 19.525 17.467 19.925 17.342 20.1917C17.2337 19.8917 17.0337 19.4417 16.9087 19.1583C17.0504 19.375 17.217 19.6917 17.367 19.8583C17.5337 19.7167 17.7254 19.4417 17.8837 19.2667Z" fill="#009B3A" stroke="black" stroke-width="0.00833333"/>
<path d="M17.4419 20.0417L17.2669 19.125L17.2585 20.0583L17.3669 20.2083L17.4419 20.0417Z" fill="#009B3A"/>
<path d="M17.4419 20.0417L17.2669 19.125L17.2585 20.0583L17.3669 20.2083L17.4419 20.0417" stroke="black" stroke-width="0.00833333"/>
<path d="M17.8168 19.4C17.6501 19.65 17.3751 20.025 17.2334 20.2917C17.1418 19.9833 16.9584 19.5083 16.8501 19.225C16.9751 19.45 17.1334 19.775 17.2668 19.9583C17.4418 19.825 17.6501 19.5667 17.8168 19.4Z" fill="#009B3A" stroke="black" stroke-width="0.00833333"/>
<path d="M17.3586 20.1417L17.4419 19.2L17.1836 20.0917L17.2419 20.275L17.3586 20.1417Z" fill="#009B3A"/>
<path d="M17.3586 20.1417L17.4419 19.2L17.1836 20.0917L17.2419 20.275L17.3586 20.1417" stroke="black" stroke-width="0.00833333"/>
<path d="M17.8251 19.4167C17.6834 19.6917 17.4418 20.1083 17.3251 20.3833C17.2084 20.0917 16.9918 19.65 16.8501 19.3833C17.0001 19.5833 17.1834 19.8833 17.3334 20.05C17.5001 19.8917 17.6668 19.6083 17.8251 19.425" fill="#009B3A"/>
<path d="M17.8251 19.4167C17.6834 19.6917 17.4418 20.1083 17.3251 20.3833C17.2084 20.0917 16.9918 19.65 16.8501 19.3833C17.0001 19.5833 17.1834 19.8833 17.3334 20.05C17.5001 19.8917 17.6668 19.6083 17.8251 19.425" stroke="black" stroke-width="0.00833333"/>
<path d="M17.3337 20.225L17.042 19.3417L17.1503 20.275L17.2753 20.4083L17.3253 20.225" fill="#009B3A"/>
<path d="M17.3337 20.225L17.042 19.3417L17.1503 20.275L17.2753 20.4083L17.3253 20.225" stroke="black" stroke-width="0.00833333"/>
<path d="M17.7836 19.4917C17.6836 19.7917 17.5169 20.2417 17.4502 20.55C17.2836 20.2833 16.9919 19.9 16.8169 19.6583C16.9919 19.8333 17.2252 20.0917 17.4002 20.2167C17.5336 20.025 17.6669 19.7167 17.7836 19.4917Z" fill="#009B3A" stroke="black" stroke-width="0.00833333"/>
<path d="M17.5835 20.2917L17.2751 19.425L17.4085 20.3583L17.5335 20.475L17.5835 20.2917Z" fill="#009B3A"/>
<path d="M17.5835 20.2917L17.2751 19.425L17.4085 20.3583L17.5335 20.475L17.5835 20.2917" stroke="black" stroke-width="0.00833333"/>
<path d="M17.7836 19.5833C17.6836 19.8833 17.5169 20.3417 17.4502 20.6417C17.2836 20.375 17.0002 20 16.8169 19.7667C16.9919 19.9333 17.2252 20.1833 17.4002 20.3167C17.5336 20.125 17.6669 19.8083 17.7836 19.5833Z" fill="#009B3A"/>
<path d="M17.7836 19.5833C17.6836 19.8833 17.5169 20.3417 17.4502 20.6417C17.2836 20.375 17.0002 20 16.8169 19.7667C16.9919 19.9333 17.2252 20.1833 17.4002 20.3167C17.5336 20.125 17.6669 19.8083 17.7836 19.5833" stroke="black" stroke-width="0.00833333"/>
<path d="M17.5836 20.4417L17.1836 19.6333L17.4169 20.5333L17.5586 20.6333L17.5919 20.4417" fill="#009B3A"/>
<path d="M17.5836 20.4417L17.1836 19.6333L17.4169 20.5333L17.5586 20.6333L17.5919 20.4417" stroke="black" stroke-width="0.00833333"/>
<path d="M17.7502 19.6583C17.6919 19.9667 17.5836 20.45 17.5419 20.7583C17.3502 20.5167 17.0169 20.175 16.8169 19.975C17.0086 20.1167 17.2669 20.3417 17.4586 20.4333C17.5669 20.225 17.6586 19.8917 17.7502 19.6583Z" fill="#009B3A"/>
<path d="M17.7502 19.6583C17.6919 19.9667 17.5836 20.45 17.5419 20.7583C17.3502 20.5167 17.0169 20.175 16.8169 19.975C17.0086 20.1167 17.2669 20.3417 17.4586 20.4333C17.5669 20.225 17.6586 19.8917 17.7502 19.6583" stroke="black" stroke-width="0.00833333"/>
<path d="M17.6168 20.5667L17.4001 19.6583L17.4335 20.6L17.5501 20.7417L17.6168 20.575" fill="#009B3A"/>
<path d="M17.6168 20.5667L17.4001 19.6583L17.4335 20.6L17.5501 20.7417L17.6168 20.575" stroke="black" stroke-width="0.00833333"/>
<path d="M17.7503 19.75C17.717 20.075 17.6503 20.5667 17.6503 20.875C17.4336 20.6667 17.0753 20.375 16.8586 20.2C17.0586 20.3167 17.3336 20.5 17.5336 20.5667C17.617 20.35 17.6836 20 17.7503 19.7583" fill="#009B3A"/>
<path d="M17.7503 19.75C17.717 20.075 17.6503 20.5667 17.6503 20.875C17.4336 20.6667 17.0753 20.375 16.8586 20.2C17.0586 20.3167 17.3336 20.5 17.5336 20.5667C17.617 20.35 17.6836 20 17.7503 19.7583" stroke="black" stroke-width="0.00833333"/>
<path d="M17.6253 20.6333L17.0503 19.9833L17.4836 20.775L17.6503 20.825L17.6253 20.6333Z" fill="#009B3A"/>
<path d="M17.6253 20.6333L17.0503 19.9833L17.4836 20.775L17.6503 20.825L17.6253 20.6333" stroke="black" stroke-width="0.00833333"/>
<path d="M17.7669 19.8667C17.7336 20.1833 17.6669 20.675 17.6586 20.9833C17.4419 20.775 17.0836 20.4833 16.8669 20.3C17.0753 20.4167 17.3503 20.6083 17.5419 20.675C17.6336 20.4583 17.6919 20.1083 17.7669 19.8667Z" fill="#009B3A"/>
<path d="M17.7669 19.8667C17.7336 20.1833 17.6669 20.675 17.6586 20.9833C17.4419 20.775 17.0836 20.4833 16.8669 20.3C17.0753 20.4167 17.3503 20.6083 17.5419 20.675C17.6336 20.4583 17.6919 20.1083 17.7669 19.8667" stroke="black" stroke-width="0.00833333"/>
<path d="M17.6919 20.7833L17.2502 20L17.5252 20.8917L17.6669 20.9833L17.6919 20.7917" fill="#009B3A"/>
<path d="M17.6919 20.7833L17.2502 20L17.5252 20.8917L17.6669 20.9833L17.6919 20.7917" stroke="black" stroke-width="0.00833333"/>
<path d="M17.792 20C17.767 20.3167 17.7254 20.8083 17.7254 21.125C17.4645 20.8996 17.1919 20.6882 16.9087 20.4917C17.1254 20.5917 17.4087 20.7667 17.6004 20.825C17.6837 20.6 17.7337 20.2417 17.792 19.9917" fill="#009B3A"/>
<path d="M17.792 20C17.767 20.3167 17.7254 20.8083 17.7254 21.125C17.4645 20.8996 17.1919 20.6882 16.9087 20.4917C17.1254 20.5917 17.4087 20.7667 17.6004 20.825C17.6837 20.6 17.7337 20.2417 17.792 19.9917" stroke="black" stroke-width="0.00833333"/>
<path d="M17.7502 20.9333L17.2002 20.2417L17.6002 21.0583L17.7502 21.125V20.9333Z" fill="#009B3A" stroke="black" stroke-width="0.00833333"/>
<path d="M17.8003 20.15C17.7753 20.4667 17.7337 20.9583 17.742 21.275C17.517 21.075 17.1503 20.8083 16.917 20.6417C17.1337 20.75 17.417 20.9167 17.617 20.975C17.7003 20.75 17.742 20.3917 17.8003 20.1417" fill="#009B3A"/>
<path d="M17.8003 20.15C17.7753 20.4667 17.7337 20.9583 17.742 21.275C17.517 21.075 17.1503 20.8083 16.917 20.6417C17.1337 20.75 17.417 20.9167 17.617 20.975C17.7003 20.75 17.742 20.3917 17.8003 20.1417" stroke="black" stroke-width="0.00833333"/>
<path d="M17.792 21.05L17.417 20.2167L17.6253 21.1333L17.7587 21.2417L17.792 21.05Z" fill="#009B3A" stroke="black" stroke-width="0.00833333"/>
<path d="M17.8086 20.2417C17.8253 20.5667 17.8253 21.0583 17.8586 21.375C17.5777 21.1898 17.2885 21.0174 16.9919 20.8583C17.2086 20.9333 17.5003 21.0583 17.7086 21.0917C17.7669 20.85 17.7753 20.5 17.8086 20.2417Z" fill="#009B3A"/>
<path d="M17.8086 20.2417C17.8253 20.5667 17.8253 21.0583 17.8586 21.375C17.5777 21.1898 17.2885 21.0174 16.9919 20.8583C17.2086 20.9333 17.5003 21.0583 17.7086 21.0917C17.7669 20.85 17.7753 20.5 17.8086 20.2417" stroke="black" stroke-width="0.00833333"/>
<path d="M17.8587 21.0167L17.167 20.5417L17.7503 21.1917L17.917 21.2L17.8587 21.0167Z" fill="#009B3A"/>
<path d="M17.8587 21.0167L17.167 20.5417L17.7503 21.1917L17.917 21.2L17.8587 21.0167" stroke="black" stroke-width="0.00833333"/>
<path d="M17.8337 20.275C17.8587 20.6 17.892 21.0917 17.942 21.4C17.692 21.2417 17.292 21.0417 17.042 20.9167C17.267 20.9833 17.567 21.1 17.7753 21.125C17.817 20.8833 17.8087 20.5333 17.8337 20.275Z" fill="#009B3A" stroke="black" stroke-width="0.00833333"/>
<path d="M17.942 21.1917L17.3586 20.525L17.8003 21.325L17.9586 21.3833L17.9336 21.1917" fill="#009B3A"/>
<path d="M17.942 21.1917L17.3586 20.525L17.8003 21.325L17.9586 21.3833L17.9336 21.1917" stroke="black" stroke-width="0.00833333"/>
<path d="M17.8836 20.4C17.9252 20.7167 17.9669 21.2083 18.0419 21.5167C17.7919 21.375 17.3752 21.2 17.1252 21.0917C17.3502 21.1417 17.6586 21.2417 17.8586 21.2583C17.8919 21.0083 17.8752 20.6583 17.8836 20.4Z" fill="#009B3A"/>
<path d="M17.8836 20.4C17.9252 20.7167 17.9669 21.2083 18.0419 21.5167C17.7919 21.375 17.3752 21.2 17.1252 21.0917C17.3502 21.1417 17.6586 21.2417 17.8586 21.2583C17.8919 21.0083 17.8752 20.6583 17.8836 20.4" stroke="black" stroke-width="0.00833333"/>
<path d="M18.0503 21.3083L17.3586 20.8167L17.942 21.4833L18.1086 21.4916L18.0503 21.3083Z" fill="#009B3A" stroke="black" stroke-width="0.00833333"/>
<path d="M17.9086 20.5333C17.9669 20.85 18.0502 21.3417 18.1336 21.6417C17.8752 21.5167 17.4502 21.3833 17.1919 21.3C17.4252 21.325 17.7336 21.4 17.9419 21.3833C17.9586 21.1417 17.9169 20.8 17.9086 20.5333Z" fill="#009B3A"/>
<path d="M17.9086 20.5333C17.9669 20.85 18.0502 21.3417 18.1336 21.6417C17.8752 21.5167 17.4502 21.3833 17.1919 21.3C17.4252 21.325 17.7336 21.4 17.9419 21.3833C17.9586 21.1417 17.9169 20.8 17.9086 20.5333" stroke="black" stroke-width="0.00833333"/>
<path d="M18.1336 21.4083L17.5503 20.725L17.9836 21.5333L18.1503 21.6L18.1336 21.4083Z" fill="#009B3A" stroke="black" stroke-width="0.00833333"/>
<path d="M17.9419 20.6167C18.0336 20.925 18.1586 21.4083 18.2753 21.7C18.0003 21.6167 17.5753 21.5333 17.3086 21.4833C17.5419 21.4833 17.8503 21.5083 18.0586 21.475C18.0586 21.225 17.9753 20.8833 17.9419 20.625" fill="#009B3A"/>
<path d="M17.9419 20.6167C18.0336 20.925 18.1586 21.4083 18.2753 21.7C18.0003 21.6167 17.5753 21.5333 17.3086 21.4833C17.5419 21.4833 17.8503 21.5083 18.0586 21.475C18.0586 21.225 17.9753 20.8833 17.9419 20.625" stroke="black" stroke-width="0.00833333"/>
<path d="M18.167 21.4083L17.3586 21.2417L18.117 21.6167L18.2753 21.5583L18.1586 21.4083" fill="#009B3A"/>
<path d="M18.167 21.4083L17.3586 21.2417L18.117 21.6167L18.2753 21.5583L18.1586 21.4083" stroke="black" stroke-width="0.00833333"/>
<path d="M18.0003 20.7167C18.0836 21.025 18.2086 21.5 18.317 21.7917C18.0503 21.7083 17.6253 21.625 17.3586 21.575C17.592 21.575 17.9003 21.6 18.1086 21.575C18.1086 21.325 18.0253 20.975 18.0003 20.7167Z" fill="#009B3A"/>
<path d="M18.0003 20.7167C18.0836 21.025 18.2086 21.5 18.317 21.7917C18.0503 21.7083 17.6253 21.625 17.3586 21.575C17.592 21.575 17.9003 21.6 18.1086 21.575C18.1086 21.325 18.0253 20.975 18.0003 20.7167" stroke="black" stroke-width="0.00833333"/>
<path d="M18.2918 21.4917L17.5251 21.1167L18.2085 21.675L18.3751 21.6583L18.2918 21.4917Z" fill="#009B3A" stroke="black" stroke-width="0.00833333"/>
<path d="M17.9585 20.7667C18.1085 21.05 18.3335 21.4917 18.5002 21.7417C18.2168 21.725 17.7835 21.7417 17.5168 21.7417C17.7418 21.7 18.0502 21.6583 18.2418 21.575C18.1835 21.3333 18.0418 21.0167 17.9585 20.7667Z" fill="#009B3A" stroke="black" stroke-width="0.00833333"/>
<path d="M18.4169 21.575L17.6169 21.3583L18.3669 21.775L18.5169 21.7333L18.4086 21.5667" fill="#009B3A"/>
<path d="M18.4169 21.575L17.6169 21.3583L18.3669 21.775L18.5169 21.7333L18.4086 21.5667" stroke="black" stroke-width="0.00833333"/>
<path d="M18.0336 20.8917C18.192 21.1667 18.417 21.6083 18.592 21.8583C18.3086 21.8417 17.8753 21.8583 17.6086 21.875C17.8253 21.8167 18.142 21.775 18.3253 21.6917C18.2753 21.45 18.1253 21.1333 18.042 20.8917" fill="#009B3A"/>
<path d="M18.0336 20.8917C18.192 21.1667 18.417 21.6083 18.592 21.8583C18.3086 21.8417 17.8753 21.8583 17.6086 21.875C17.8253 21.8167 18.142 21.775 18.3253 21.6917C18.2753 21.45 18.1253 21.1333 18.042 20.8917" stroke="black" stroke-width="0.00833333"/>
<path d="M18.5085 21.6417L17.7668 21.2L18.4168 21.8167H18.5835L18.5085 21.6417Z" fill="#009B3A"/>
<path d="M18.5085 21.6417L17.7668 21.2L18.4168 21.8167H18.5835L18.5085 21.6417" stroke="black" stroke-width="0.00833333"/>
<path d="M18.1002 20.9583C18.2752 21.2167 18.5418 21.625 18.7335 21.8667C18.4086 21.8928 18.0856 21.9402 17.7668 22.0083C17.9835 21.925 18.2835 21.8417 18.4668 21.7333C18.3835 21.5 18.2085 21.1917 18.1002 20.9583Z" fill="#009B3A"/>
<path d="M18.1002 20.9583C18.2752 21.2167 18.5418 21.625 18.7335 21.8667C18.4086 21.8928 18.0856 21.9402 17.7668 22.0083C17.9835 21.925 18.2835 21.8417 18.4668 21.7333C18.3835 21.5 18.2085 21.1917 18.1002 20.9583" stroke="black" stroke-width="0.00833333"/>
<path d="M18.5668 21.7083L17.7668 21.6833L18.5585 21.925L18.7002 21.8333L18.5668 21.7083ZM19.0335 17.825L19.6085 17.7333L19.0335 17.7417L18.9335 17.7917L19.0335 17.825Z" fill="#009B3A" stroke="black" stroke-width="0.00833333"/>
<path d="M19.3502 17.95C19.1835 17.9 18.9335 17.8167 18.7585 17.7833L19.3752 17.4917C19.2502 17.575 19.0585 17.675 18.9585 17.7583C19.0585 17.825 19.2335 17.8917 19.3502 17.95Z" fill="#009B3A"/>
<path d="M19.3502 17.95C19.1835 17.9 18.9335 17.8167 18.7585 17.7833L19.3752 17.4917C19.2502 17.575 19.0585 17.675 18.9585 17.7583C19.0585 17.825 19.2335 17.8917 19.3502 17.95" stroke="black" stroke-width="0.00833333"/>
<path d="M19.0001 17.8417L19.5668 17.6917L18.9835 17.7666L18.9001 17.825L19.0085 17.8417" fill="#009B3A"/>
<path d="M19.0001 17.8417L19.5668 17.6917L18.9835 17.7666L18.9001 17.825L19.0085 17.8417" stroke="black" stroke-width="0.00833333"/>
<path d="M19.3753 17.9917C19.1753 17.9667 18.8753 17.9333 18.6836 17.9333C18.8336 17.8 19.0336 17.5917 19.1586 17.4583C19.0753 17.5833 18.9419 17.7417 18.8836 17.8583C19.0169 17.9167 19.2253 17.95 19.3753 17.9917Z" fill="#009B3A"/>
<path d="M19.3753 17.9917C19.1753 17.9667 18.8753 17.9333 18.6836 17.9333C18.8336 17.8 19.0336 17.5917 19.1586 17.4583C19.0753 17.5833 18.9419 17.7417 18.8836 17.8583C19.0169 17.9167 19.2253 17.95 19.3753 17.9917" stroke="black" stroke-width="0.00833333"/>
<path d="M18.8002 17.8833L19.3835 17.8167L18.8168 17.8L18.7085 17.85L18.7918 17.8833" fill="#009B3A"/>
<path d="M18.8002 17.8833L19.3835 17.8167L18.8168 17.8L18.7085 17.85L18.7918 17.8833" stroke="black" stroke-width="0.00833333"/>
<path d="M19.2251 18.0083L18.6001 17.9L19.1751 17.5833C19.0584 17.6667 18.8918 17.7833 18.8084 17.8667C18.9168 17.9167 19.1001 17.9667 19.2251 18.0083Z" fill="#009B3A"/>
<path d="M19.2251 18.0083L18.6001 17.9L19.1751 17.5833C19.0584 17.6667 18.8918 17.7833 18.8084 17.8667C18.9168 17.9167 19.1001 17.9667 19.2251 18.0083" stroke="black" stroke-width="0.00833333"/>
<path d="M18.7502 17.8833L19.2585 17.6583L18.7002 17.8083L18.6335 17.875H18.7502" fill="#009B3A"/>
<path d="M18.7502 17.8833L19.2585 17.6583L18.7002 17.8083L18.6335 17.875H18.7502" stroke="black" stroke-width="0.00833333"/>
<path d="M19.2086 18.075C19.0669 18.0167 18.8336 17.9083 18.6919 17.8667L19.0586 17.4667C18.9919 17.575 18.8919 17.7167 18.8419 17.8333C18.9419 17.9167 19.0919 18 19.2086 18.075Z" fill="#009B3A"/>
<path d="M19.2086 18.075C19.0669 18.0167 18.8336 17.9083 18.6919 17.8667L19.0586 17.4667C18.9919 17.575 18.8919 17.7167 18.8419 17.8333C18.9419 17.9167 19.0919 18 19.2086 18.075" stroke="black" stroke-width="0.00833333"/>
<path d="M18.7752 17.9167L19.1752 17.75L18.7419 17.8L18.6919 17.8833L18.7752 17.9167ZM18.4419 21.6333H17.6252L18.4586 21.8417L18.5919 21.7583L18.4419 21.6333Z" fill="#009B3A" stroke="black" stroke-width="0.00833333"/>
<path d="M18.5919 21.6833L17.7585 21.4917L18.5585 21.8833L18.7252 21.8333L18.5919 21.6833Z" fill="#009B3A"/>
<path d="M18.5919 21.6833L17.7585 21.4917L18.5585 21.8833L18.7252 21.8333L18.5919 21.6833" stroke="black" stroke-width="0.00833333"/>
<path d="M18.7335 21.7417L17.9001 21.7L18.7335 21.95L18.8751 21.8667L18.7335 21.7417Z" fill="#009B3A" stroke="black" stroke-width="0.00833333"/>
<path d="M18.2085 21.1583C18.4168 21.3917 18.7418 21.775 18.9668 21.9833C18.6918 22.025 18.2752 22.1333 18.0168 22.2083C18.2168 22.1083 18.5168 21.9917 18.6835 21.875C18.5668 21.6583 18.3502 21.375 18.2085 21.1583Z" fill="#009B3A"/>
<path d="M18.2085 21.1583C18.4168 21.3917 18.7418 21.775 18.9668 21.9833C18.6918 22.025 18.2752 22.1333 18.0168 22.2083C18.2168 22.1083 18.5168 21.9917 18.6835 21.875C18.5668 21.6583 18.3502 21.375 18.2085 21.1583" stroke="black" stroke-width="0.00833333"/>
<path d="M18.8419 21.7833L18.0085 21.5083L18.7919 21.975L18.9585 21.9417L18.8419 21.775" fill="#009B3A"/>
<path d="M18.8419 21.7833L18.0085 21.5083L18.7919 21.975L18.9585 21.9417L18.8419 21.775" stroke="black" stroke-width="0.00833333"/>
<path d="M18.2835 21.2083C18.5169 21.425 18.8669 21.7667 19.1169 21.9583C18.8502 22.0333 18.4502 22.1917 18.2002 22.2917C18.3919 22.175 18.6669 22.025 18.8169 21.875C18.6835 21.675 18.4419 21.4167 18.2835 21.2083Z" fill="#009B3A" stroke="black" stroke-width="0.00833333"/>
<path d="M18.9169 21.8333L18.1252 21.9917L18.9586 22.0417L19.0752 21.9333L18.9086 21.8333" fill="#009B3A"/>
<path d="M18.9169 21.8333L18.1252 21.9917L18.9586 22.0417L19.0752 21.9333L18.9086 21.8333" stroke="black" stroke-width="0.00833333"/>
<path d="M18.7503 21.7833L17.9336 21.85L18.7753 21.9917L18.9086 21.8917L18.7419 21.7833" fill="#009B3A"/>
<path d="M18.7503 21.7833L17.9336 21.85L18.7753 21.9917L18.9086 21.8917L18.7419 21.7833" stroke="black" stroke-width="0.00833333"/>
<path d="M18.9003 21.8333L18.0503 21.6917L18.8836 22.025L19.0336 21.9667L18.9003 21.825V21.8333Z" fill="#009B3A" stroke="black" stroke-width="0.00833333"/>
<path d="M19.0418 21.875L18.2085 21.8917L19.0585 22.0833L19.1918 21.9917L19.0418 21.875Z" fill="#009B3A" stroke="black" stroke-width="0.00833333"/>
<path d="M18.4753 21.3333C18.7086 21.55 19.0586 21.9 19.3003 22.1C19.0253 22.1583 18.6086 22.3 18.3586 22.3833C18.5586 22.275 18.842 22.1417 19.0003 22.0083C18.867 21.8 18.6336 21.5333 18.4753 21.325V21.3333Z" fill="#009B3A" stroke="black" stroke-width="0.00833333"/>
<path d="M19.1586 21.9083L18.3086 21.6917L19.1253 22.1083L19.2836 22.0583L19.1586 21.9083Z" fill="#009B3A" stroke="black" stroke-width="0.00833333"/>
<path d="M18.5503 21.375C18.8003 21.575 19.1836 21.8917 19.442 22.0583C19.1753 22.15 18.792 22.35 18.5586 22.4667C18.742 22.325 19.0003 22.1583 19.142 22.0083C18.992 21.8083 18.7253 21.5667 18.5586 21.375H18.5503Z" fill="#009B3A" stroke="black" stroke-width="0.00833333"/>
<path d="M19.2335 21.95L18.4585 22.1667H19.2918L19.4002 22.0417L19.2335 21.9583V21.95Z" fill="#009B3A" stroke="black" stroke-width="0.00833333"/>
<path d="M20.3001 20.7917L19.6668 20.35L19.0335 20.7917L19.2751 20.0917L18.7168 19.6583H19.4335L19.6668 18.9583L19.9001 19.6583H20.6168L20.0585 20.0917L20.3001 20.7917Z" fill="#FEDF00" stroke="black" stroke-width="0.0333333"/>
</g>
</g>
<defs>
<clipPath id="clip0_769_21549">
<path d="M0 20C0 8.95431 8.95431 0 20 0C31.0457 0 40 8.95431 40 20C40 31.0457 31.0457 40 20 40C8.95431 40 0 31.0457 0 20Z" fill="white"/>
</clipPath>
<clipPath id="clip1_769_21549">
<rect width="53.3333" height="40" fill="white" transform="translate(-7)"/>
</clipPath>
</defs>
</svg>
