<svg width="40" height="40" viewBox="0 0 40 40" fill="none" xmlns="http://www.w3.org/2000/svg">
<g clip-path="url(#clip0_769_21229)">
<path d="M0 20C0 8.95431 8.95431 0 20 0C31.0457 0 40 8.95431 40 20C40 31.0457 31.0457 40 20 40C8.95431 40 0 31.0457 0 20Z" fill="#E94E0F"/>
<g clip-path="url(#clip1_769_21229)">
<path d="M-7 0.000732422H46.3333V20.0007H-7V0.000732422Z" fill="#0038A8"/>
<path d="M-7 20.0007H46.3333V40.0007H-7V20.0007Z" fill="#CE1126"/>
<path d="M27.6417 20.0007L-7 40.0007V0.000732422" fill="white"/>
<path d="M-4.77492 3.53409L-3.58325 4.58409L-2.19992 3.81742L-2.81659 5.27575L-1.64992 6.35909L-3.23325 6.22575L-3.90825 7.65909L-4.26659 6.11742L-5.83325 5.91742L-4.47492 5.08409L-4.77492 3.53409ZM22.2084 17.8924L22.2417 19.4758L23.7417 20.0008L22.2417 20.5174L22.2084 22.1008L21.2501 20.8424L19.7334 21.3008L20.6334 20.0008L19.7334 18.7008L21.2501 19.1591L22.2084 17.8924ZM-3.89992 32.3424L-3.23325 33.7758L-1.64992 33.6424L-2.80825 34.7258L-2.19159 36.1841L-3.57492 35.4258L-4.77492 36.4591L-4.47492 34.9008L-5.83325 34.0841L-4.25825 33.8841L-3.89992 32.3424Z" fill="#FCD116"/>
<path d="M5.6168 11.5924L5.10013 12.1091L5.35846 16.0257L5.10846 16.0507L4.63346 12.4757L4.20846 12.8924L4.8418 16.0924C4.32968 16.1932 3.84256 16.3943 3.40846 16.6841L1.60013 13.9841H1.00013L3.20013 16.8424C3.13167 16.8958 3.06497 16.9514 3.00013 17.0091L0.408464 14.0507H-0.32487V14.7841L2.62513 17.3674L2.45846 17.5757L-0.39987 15.3841V15.9757L2.30846 17.7841C2.02513 18.2174 1.8168 18.7007 1.7168 19.2174L-1.47487 18.5841L-1.89987 19.0007L1.67513 19.4757C1.65846 19.5591 1.65013 19.6507 1.65013 19.7341L-2.26654 19.4841L-2.7832 20.0007L-2.26654 20.5174L1.65013 20.2591L1.67513 20.5174L-1.89987 20.9924L-1.4832 21.4091L1.7168 20.7757C1.81759 21.2879 2.01867 21.775 2.30846 22.2091L-0.39987 24.0174V24.6174L2.45846 22.4257C2.51183 22.4942 2.56742 22.5609 2.62513 22.6257L-0.32487 25.2091V25.9424H0.416797L3.00013 22.9924L3.20846 23.1591L1.00013 26.0174H1.60013L3.40846 23.3091C3.83346 23.5924 4.32513 23.8007 4.8418 23.9007L4.20846 27.1007L4.62513 27.5174L5.10013 23.9424C5.18346 23.9591 5.2668 23.9674 5.35846 23.9674L5.10846 27.8841L5.6168 28.4007L6.1418 27.8841L5.88346 23.9674L6.13346 23.9424L6.60846 27.5257L7.03346 27.1007L6.40013 23.9007C6.91224 23.7999 7.39937 23.5989 7.83346 23.3091L9.6418 26.0174H10.2418L8.0418 23.1591C8.11025 23.1057 8.17696 23.0501 8.2418 22.9924L10.8335 25.9424H11.5668V25.2091L8.6168 22.6257L8.78346 22.4257L11.6418 24.6174V24.0174L8.93346 22.2091C9.2168 21.7841 9.42513 21.2924 9.52513 20.7757L12.7168 21.4091L13.1418 20.9924L9.5668 20.5174C9.58346 20.4341 9.5918 20.3507 9.5918 20.2591L13.5085 20.5091L14.0251 20.0007L13.5085 19.4841L9.5918 19.7341L9.5668 19.4841L13.1418 19.0091L12.7251 18.5924L9.52513 19.2174C9.42434 18.7053 9.22326 18.2182 8.93346 17.7841L11.6418 15.9757V15.3841L8.78346 17.5757C8.73009 17.5073 8.67451 17.4406 8.6168 17.3757L11.5668 14.7924V14.0507H10.8335L8.25013 17.0091C8.18256 16.9512 8.11308 16.8956 8.0418 16.8424L10.2418 13.9841H9.6418L7.83346 16.6841C7.40846 16.4007 6.9168 16.1924 6.40013 16.0924L7.03346 12.9007L6.6168 12.4841L6.1418 16.0507L5.88346 16.0257L6.13346 12.1091L5.6168 11.5924Z" fill="#FCD116"/>
</g>
</g>
<defs>
<clipPath id="clip0_769_21229">
<path d="M0 20C0 8.95431 8.95431 0 20 0C31.0457 0 40 8.95431 40 20C40 31.0457 31.0457 40 20 40C8.95431 40 0 31.0457 0 20Z" fill="white"/>
</clipPath>
<clipPath id="clip1_769_21229">
<rect width="53.3333" height="40" fill="white" transform="translate(-7 0.000732422)"/>
</clipPath>
</defs>
</svg>
