<svg width="40" height="40" viewBox="0 0 40 40" fill="none" xmlns="http://www.w3.org/2000/svg">
<g clip-path="url(#clip0_769_21268)">
<path d="M0 20C0 8.95431 8.95431 0 20 0C31.0457 0 40 8.95431 40 20C40 31.0457 31.0457 40 20 40C8.95431 40 0 31.0457 0 20Z" fill="#E94E0F"/>
<g clip-path="url(#clip1_769_21268)">
<path d="M-7 0.000732422H46.3333V40.0007H-7V0.000732422Z" fill="#00247D"/>
<path d="M-7 0.000732422H19.6667V20.0007H-7V0.000732422Z" fill="#012169"/>
<path d="M-3.875 0.000732422L6.29167 7.5424L16.4167 0.000732422H19.6667V2.58407L9.66667 10.0424L19.6667 17.4591V20.0007H16.3333L6.33333 12.5424L-3.625 20.0007H-7V17.5007L2.95833 10.0841L-7 2.6674V0.000732422H-3.875Z" fill="white"/>
<path d="M10.6667 11.7091L19.6667 18.3341V20.0007L8.375 11.7091H10.6667ZM3 12.5424L3.25 14.0007L-4.75 20.0007H-7L3 12.5424ZM19.6667 0.000732422V0.125732L9.29167 7.95907L9.375 6.12573L17.5833 0.000732422H19.6667ZM-7 0.000732422L2.95833 7.33407H0.458333L-7 1.75073V0.000732422Z" fill="#C8102E"/>
<path d="M3.04167 0.000732422V20.0007H9.70833V0.000732422H3.04167ZM-7 6.6674V13.3341H19.6667V6.6674H-7Z" fill="white"/>
<path d="M-7 8.0424V12.0424H19.6667V8.0424H-7ZM4.375 0.000732422V20.0007H8.375V0.000732422H4.375Z" fill="#C8102E"/>
<path d="M27.175 21.0257C26.424 21.6191 25.8717 22.4272 25.5916 23.3424C25.1166 25.6174 24.4833 26.1257 23.5083 25.6341C23.5083 26.8591 24.5833 26.9507 25.05 26.2424C25.05 27.3841 25.4666 28.3757 26.4 29.2257C26.8 29.5841 26.875 29.3424 26.6833 28.9424C26.5 28.5507 26.5 27.2757 26.125 26.5424C26.725 26.9674 27.6083 26.7257 27.5416 25.5424C26.7666 25.9924 26 25.9757 25.9166 24.9007C25.825 23.6507 26.3083 21.8174 27.175 21.0257Z" fill="#F7E017" stroke="black" stroke-width="0.0339059"/>
<path d="M26.2583 11.9757C26.3167 11.5174 26.2167 11.0591 25.8833 10.7674C25.25 10.2091 24.625 10.3924 24.1583 10.8507C23.4667 10.4674 23.0917 11.8007 22.3083 11.5757C22.4333 12.0091 22.6417 12.1924 23.0417 12.0424C22.625 12.4174 23.0417 12.8757 22.55 13.3257C23.4333 13.6091 23.9 13.1174 23.8667 12.2674C23.945 12.3396 24.0369 12.3954 24.137 12.4316C24.2371 12.4678 24.3434 12.4836 24.4498 12.4782C24.5561 12.4728 24.6603 12.4462 24.7562 12.3999C24.8521 12.3537 24.9378 12.2888 25.0083 12.2091C24.5417 12.0591 24.5417 11.6507 24.725 11.2757C25.0083 10.7091 26.3333 10.7341 26.2583 11.9757Z" fill="#F7E017" stroke="black" stroke-width="0.0339059"/>
<path d="M28.3001 18.5091C27.3001 19.0424 25.4835 18.8174 25.3085 17.5091C25.1418 16.2174 26.4001 15.6341 26.7418 15.4674C27.2668 15.2007 27.6835 15.6757 27.5085 16.2174C28.0918 16.0174 28.2251 15.3341 27.9418 14.9424C28.7168 15.0007 29.4251 14.4174 29.7251 13.5924C29.4585 13.8424 28.7251 13.6757 28.1168 13.6341C28.3001 13.4257 28.3001 13.0257 28.2418 12.8174C27.6085 13.4757 26.6835 13.1757 25.4668 15.0674C25.7527 14.0419 26.0194 13.0112 26.2668 11.9757C26.3335 10.7257 25.0168 10.7091 24.7334 11.2757C25.0418 11.6257 24.8751 12.0257 24.7668 12.6507C24.6335 13.3757 24.3501 15.0674 24.1084 15.6341C24.0334 14.7507 23.4501 14.6924 23.3418 14.2591C23.1751 14.3757 23.0751 14.6757 23.1168 14.8841C22.9085 14.6591 22.1918 14.9424 21.9251 14.6007C21.6501 15.1591 22.0918 15.7257 22.5668 15.9757C22.2918 15.9924 22.2335 16.3174 21.9251 16.3174C22.3335 16.7924 22.7501 16.9841 23.2251 17.0174C23.7085 17.0507 24.0585 17.2341 24.3501 17.8174C24.8251 18.7591 26.6168 19.3674 28.3001 18.5091Z" fill="#337321" stroke="black" stroke-width="0.0339059"/>
<path d="M30.7833 17.3674C30.2166 18.9257 28.675 20.0341 27.9833 20.2007C26.8 20.4924 24.3833 21.6674 23.7333 22.2674C23.6383 22.2488 23.5477 22.212 23.4666 22.1591C23.15 21.9341 22.8833 21.2007 23.45 20.5757C25.2166 18.9257 27.1166 19.6424 28.3 18.5091C27.3 19.0341 25.4833 18.8091 25.3166 17.5091C26.1248 17.7191 26.975 17.7044 27.7754 17.4664C28.5759 17.2285 29.2961 16.7765 29.8583 16.1591C30.2008 16.5324 30.5077 16.937 30.775 17.3674H30.7833Z" fill="#F7E017" stroke="black" stroke-width="0.0339059"/>
<path d="M27.1751 21.0257C26.2835 21.7757 25.8251 23.6424 25.9168 24.9007C25.9418 25.2507 26.0418 25.484 26.1918 25.634C26.2585 24.9174 26.7501 23.0757 28.0251 22.2507C29.0918 21.559 30.7668 20.0007 31.3835 18.209C31.2644 17.882 31.0304 17.6095 30.7251 17.4424C30.1085 19.1257 28.4668 19.934 27.1751 21.0257Z" fill="#337321" stroke="black" stroke-width="0.0339059"/>
<path d="M30.2083 16.6424C29.7652 17.2581 29.1632 17.7419 28.4667 18.0424C28.5981 17.8824 28.6716 17.6827 28.675 17.4757C27.5766 17.7894 26.4142 17.8038 25.3083 17.5174C26.1177 17.7291 26.9696 17.7152 27.7717 17.4772C28.5738 17.2392 29.2954 16.7862 29.8583 16.1674C30.0011 16.3048 30.1194 16.4654 30.2083 16.6424Z" fill="#316D3A" stroke="black" stroke-width="0.0339059"/>
<path d="M23.4499 20.5841C22.0166 21.9174 22.9666 23.1007 23.5332 23.3591C23.3749 24.3007 24.2582 24.1924 24.2416 24.9757C24.5999 24.7757 24.6916 24.2257 24.6332 23.7924C25.0916 24.2841 26.2332 23.7341 26.4749 24.6424C26.6332 23.6424 25.8582 22.6424 24.8999 22.7424C25.2999 22.3841 25.0666 21.8007 24.6916 21.6507C24.6166 22.3841 23.7916 22.3841 23.4749 22.1507C23.1499 21.9341 22.8916 21.2007 23.4499 20.5757V20.5841Z" fill="#337321" stroke="black" stroke-width="0.0339059"/>
<path d="M26.5584 29.1341C26.4084 29.2174 26.4167 29.4257 26.5167 29.5507C26.7084 29.8174 26.375 30.4174 27.0167 30.5424C27.2 30.5841 27.35 30.4591 27.4167 30.2507C27.6167 29.6591 26.9834 29.5924 26.925 29.3091C26.875 29.0257 26.6917 29.0591 26.5584 29.1341Z" fill="#F7E017" stroke="black" stroke-width="0.0339059"/>
<path d="M27.1 30.2424C26.8917 30.3424 26.7 30.4757 26.7917 31.1591C26.825 31.4341 26.8083 32.1091 26.5583 32.1174C26.7083 32.2007 27.0333 32.2841 27.1667 32.1007C27.2917 32.3174 27.5833 32.2507 27.6917 31.9924C27.8417 32.1091 28.05 31.9091 28.05 31.7257C28.175 31.8091 28.4417 31.6924 28.375 31.2841C28.5417 31.3424 28.7417 31.2257 28.8167 31.1257C28.5833 31.0757 27.9833 30.7591 27.85 30.5091C27.7083 30.2507 27.35 30.1257 27.1 30.2424Z" fill="#F7E017" stroke="black" stroke-width="0.0339059"/>
<path d="M23.8333 11.2257C23.9333 11.0924 24.0416 10.9591 24.1666 10.8424" stroke="black" stroke-width="0.0339059"/>
<path d="M27.4167 13.7174C27.5834 13.6257 27.8334 13.6091 28.1167 13.6341" stroke="black" stroke-width="0.0339059"/>
<path d="M27.1666 32.1007C27.0999 32.0091 27.0749 31.6174 27.1166 31.3757" stroke="black" stroke-width="0.0339059"/>
<path d="M27.6917 31.9924C27.5834 31.9091 27.3917 31.6341 27.3584 31.4007" stroke="black" stroke-width="0.0339059"/>
<path d="M28.0499 31.7257C27.8062 31.5351 27.6237 31.2773 27.5249 30.9841" stroke="black" stroke-width="0.0339059"/>
<path d="M28.3751 31.2841C28.2167 31.2507 27.7417 30.9424 27.5417 30.6174" stroke="black" stroke-width="0.0339059"/>
<path d="M37.0417 20.6007C39.35 22.5341 39.5 24.0757 39.15 24.9757C38.9583 24.1341 38 22.8174 37 22.4757L37.0417 20.6007Z" fill="#F7E017" stroke="black" stroke-width="0.0339059"/>
<path d="M32.9085 19.5007H37.1918V24.5841C37.1918 28.9091 34.7918 31.4591 32.3418 32.8174C30.8454 32.0353 29.5984 30.8492 28.7425 29.3937C27.8866 27.9383 27.4562 26.2719 27.5001 24.5841V19.5007H30.5001C30.5001 19.7674 30.5335 20.1674 30.8335 20.5591C31.5501 20.4924 32.3501 19.9591 32.9085 19.5091V19.5007Z" fill="#337321" stroke="black" stroke-width="0.0339059"/>
<path d="M37.1917 19.5007V24.5841C37.1917 25.8841 36.975 27.0341 36.6084 28.0257L32.3334 20.2174L28.0834 28.0257C27.7084 27.0257 27.4917 25.8841 27.4917 24.5841V19.5007H37.1917Z" fill="#006EC7" stroke="black" stroke-width="0.0339059"/>
<path d="M36.7333 27.6591C36.6406 27.9416 36.5349 28.2196 36.4166 28.4924L32.3333 20.9174L28.2749 28.5007C28.1666 28.2674 28.0333 27.8924 27.9583 27.6674L32.3499 19.5341L36.7333 27.6591Z" fill="#F7E017"/>
<path d="M34.2751 30.4424L34.6917 30.6341C34.9068 30.1123 34.9704 29.5404 34.8751 28.9841C34.6334 29.6007 33.8084 29.5841 33.5834 29.9591C33.7167 30.0257 33.8501 30.1257 33.9584 30.2007C33.6751 30.4841 33.0167 30.9507 32.6417 31.0674V27.0341C32.6417 26.7507 32.5417 26.5174 32.5417 26.2841V25.4507C32.5417 25.2591 32.5084 24.9841 32.3417 24.9841C32.1751 24.9841 32.1334 25.2591 32.1334 25.4507V26.2841C32.1334 26.5174 32.0417 26.7841 32.0417 27.0341V31.0674C31.8334 30.4674 31.0251 30.6674 30.6501 30.0674C30.7976 30.0327 30.9504 30.027 31.1001 30.0507C30.8167 29.0924 30.0417 29.0174 29.9001 28.7341C29.9001 29.1341 29.7334 30.0507 29.9917 30.4507C30.0501 30.3757 30.1417 30.3007 30.2417 30.2424C30.5667 30.9341 32.0001 30.9341 32.3417 32.0841C32.6167 31.6674 33.5917 31.1674 34.2751 30.4424Z" fill="#F7E017" stroke="black" stroke-width="0.0339059"/>
<path d="M32.3418 27.0841C32.6585 27.0841 33.6751 26.9841 34.0418 26.9841C34.1418 26.9841 34.2168 26.8341 34.2168 26.6591C34.2168 26.4924 34.1418 26.3424 34.0501 26.3424C33.6751 26.3424 32.6668 26.2424 32.3418 26.2424C32.0251 26.2424 31.0085 26.3424 30.6418 26.3424C30.5418 26.3424 30.4668 26.4841 30.4668 26.6591C30.4668 26.8341 30.5501 26.9841 30.6335 26.9841C31.0085 26.9841 32.0251 27.0841 32.3418 27.0841Z" fill="#F7E017" stroke="black" stroke-width="0.0339059"/>
<path d="M32.1332 25.4341C32.0666 25.3757 31.9832 25.3507 31.8832 25.3507C31.6666 25.3507 31.4916 25.5007 31.4916 25.6924C31.4916 25.8924 31.6666 26.0507 31.8832 26.0507C32.0916 26.0507 32.2666 25.8841 32.2666 25.6924C32.2666 25.5424 32.4832 25.5424 32.4832 25.6924C32.4832 26.0007 32.2166 26.2507 31.8832 26.2507C31.5499 26.2507 31.2749 26.0007 31.2749 25.6924C31.2749 25.3924 31.5499 25.1424 31.8832 25.1424C31.9786 25.1447 32.0724 25.1674 32.1582 25.2091C32.1582 25.2591 32.1332 25.3507 32.1332 25.4341Z" fill="#F7E017" stroke="black" stroke-width="0.0339059"/>
<path d="M30.6416 26.9841C30.7333 26.9841 30.8083 26.8341 30.8083 26.6591C30.8083 26.4924 30.7333 26.3424 30.6416 26.3424" fill="#F7E017"/>
<path d="M30.6416 26.9841C30.7333 26.9841 30.8083 26.8341 30.8083 26.6591C30.8083 26.4924 30.7333 26.3424 30.6416 26.3424" stroke="black" stroke-width="0.0339059"/>
<path d="M30.7832 26.9841C30.8749 26.9841 30.9499 26.8341 30.9499 26.6591C30.9499 26.4924 30.8749 26.3424 30.7832 26.3424" fill="#F7E017"/>
<path d="M30.7832 26.9841C30.8749 26.9841 30.9499 26.8341 30.9499 26.6591C30.9499 26.4924 30.8749 26.3424 30.7832 26.3424" stroke="black" stroke-width="0.0339059"/>
<path d="M31.7083 27.0424C31.8249 27.0424 31.9166 26.8757 31.9166 26.6591C31.9166 26.4507 31.8333 26.2757 31.7083 26.2757" fill="#F7E017"/>
<path d="M31.7083 27.0424C31.8249 27.0424 31.9166 26.8757 31.9166 26.6591C31.9166 26.4507 31.8333 26.2757 31.7083 26.2757" stroke="black" stroke-width="0.0339059"/>
<path d="M31.925 27.0591C32.05 27.0591 32.1417 26.8841 32.1417 26.6591C32.1417 26.4341 32.05 26.2591 31.925 26.2591" fill="#F7E017"/>
<path d="M31.925 27.0591C32.05 27.0591 32.1417 26.8841 32.1417 26.6591C32.1417 26.4341 32.05 26.2591 31.925 26.2591" stroke="black" stroke-width="0.0339059"/>
<path d="M32.6499 27.0674C32.7749 27.0674 32.8666 26.8841 32.8666 26.6591C32.8666 26.4341 32.7666 26.2507 32.6499 26.2507" fill="#F7E017"/>
<path d="M32.6499 27.0674C32.7749 27.0674 32.8666 26.8841 32.8666 26.6591C32.8666 26.4341 32.7666 26.2507 32.6499 26.2507" stroke="black" stroke-width="0.0339059"/>
<path d="M32.875 27.0507C32.9917 27.0507 33.0917 26.8841 33.0917 26.6591C33.0917 26.4424 32.9917 26.2674 32.875 26.2674" fill="#F7E017"/>
<path d="M32.875 27.0507C32.9917 27.0507 33.0917 26.8841 33.0917 26.6591C33.0917 26.4424 32.9917 26.2674 32.875 26.2674" stroke="black" stroke-width="0.0339059"/>
<path d="M33.8833 26.9841C33.9833 26.9841 34.0583 26.8424 34.0583 26.6591C34.0583 26.4757 33.9833 26.3257 33.8916 26.3257" fill="#F7E017"/>
<path d="M33.8833 26.9841C33.9833 26.9841 34.0583 26.8424 34.0583 26.6591C34.0583 26.4757 33.9833 26.3257 33.8916 26.3257" stroke="black" stroke-width="0.0339059"/>
<path d="M30.25 30.2424C30.3583 30.1674 30.5 30.1091 30.65 30.0757L30.25 30.2424Z" fill="#F7E017"/>
<path d="M30.25 30.2424C30.3583 30.1674 30.5 30.1091 30.65 30.0757" stroke="black" stroke-width="0.0339059"/>
<path d="M34.0749 30.2757L33.9583 30.1924L34.0749 30.2757Z" fill="#F7E017"/>
<path d="M34.0749 30.2757L33.9583 30.1924" stroke="black" stroke-width="0.0339059"/>
<path d="M34.2749 30.4424C34.5416 30.1591 34.7582 29.8341 34.8832 29.4674L34.2749 30.4424Z" fill="#F7E017"/>
<path d="M34.2749 30.4424C34.5416 30.1591 34.7582 29.8341 34.8832 29.4674" stroke="black" stroke-width="0.0339059"/>
<path d="M31.4834 23.1007C31.4834 23.0007 31.5584 22.9674 31.6501 22.9007C31.7501 22.8174 31.7917 22.7841 31.8917 22.7841H33.1251C33.2084 22.7841 33.2334 22.8091 33.2334 22.8924V24.5591C33.2334 24.6424 33.2167 24.6757 33.1251 24.6757H31.4834V23.0757" fill="white"/>
<path d="M31.4834 23.1007C31.4834 23.0007 31.5584 22.9674 31.6501 22.9007C31.7501 22.8174 31.7917 22.7841 31.8917 22.7841H33.1251C33.2084 22.7841 33.2334 22.8091 33.2334 22.8924V24.5591C33.2334 24.6424 33.2167 24.6757 33.1251 24.6757H31.4834V23.0757" stroke="black" stroke-width="0.0339059"/>
<path d="M32.8167 24.8174C32.9834 24.8174 32.95 24.8174 33.0667 24.7007C33.1834 24.5841 33.175 24.5924 33.175 24.4841V22.9507C33.175 22.8674 33.15 22.8507 33.0667 22.8507H31.925C31.8417 22.8507 31.8 22.8841 31.7 22.9591C31.6167 23.0257 31.55 23.0591 31.55 23.1424V24.8174H32.8167Z" fill="#E5E5E5" stroke="black" stroke-width="0.0339059"/>
<path d="M32.9417 24.7841C32.9417 24.8674 32.9167 24.8924 32.8251 24.8924H31.5917C31.5001 24.8924 31.4834 24.8674 31.4834 24.7841V23.1091C31.4834 23.0257 31.5001 23.0007 31.5917 23.0007H32.8251C32.9167 23.0007 32.9417 23.0257 32.9417 23.1091V24.7841Z" fill="white" stroke="black" stroke-width="0.0339059"/>
<path d="M35.3333 18.5257C35.5666 18.7924 35.6499 19.1507 35.5166 19.5091H35.1666C35.3166 19.0507 35.2249 18.6257 34.5833 18.5674C33.6333 18.4841 32.5166 20.3341 30.8416 20.5591C30.3583 19.9757 30.3833 18.8674 31.0083 18.3424C30.6866 17.4546 30.1843 16.6431 29.5333 15.9591C29.2387 15.9106 28.94 15.8911 28.6416 15.9007C28.8916 15.3674 29.5833 14.8174 30.1499 14.5924C30.24 14.4642 30.3346 14.3391 30.4333 14.2174C30.4916 13.4924 33.9333 13.8257 34.6583 14.2757C34.6583 15.0924 34.9833 17.7924 35.3416 18.5257H35.3333Z" fill="#96877D" stroke="black" stroke-width="0.0339059"/>
<path d="M31.1667 19.0174C31.0834 17.7674 30.5751 16.7341 29.8584 16.0341C30.1125 16.0945 30.3761 16.1035 30.6337 16.0606C30.8913 16.0177 31.1377 15.9236 31.3584 15.7841C31.9834 15.3674 33.6084 14.6507 34.1917 14.9591C34.2417 15.0674 34.2751 15.2924 34.2334 15.4507C34.0917 15.0757 32.5334 15.6507 32.0917 15.8341C31.6751 16.0257 31.4834 16.2924 31.6334 16.8841C31.3834 16.6757 31.4667 16.4841 31.2167 16.3341C31.3167 16.5757 31.4001 17.0174 31.4334 17.3757C31.3334 17.1257 31.1667 16.5757 30.8001 16.2507C31.1863 17.1659 31.3464 18.1606 31.2667 19.1507C31.5167 19.1507 32.0834 18.9007 32.3001 18.7341C32.1084 19.0091 31.5334 19.2091 31.1751 19.284C30.9921 19.5792 30.8968 19.9202 30.9001 20.2674C30.8751 19.9174 30.9834 19.0757 31.1584 19.0174H31.1667Z" fill="black"/>
<path d="M35.3333 18.5257C35.0166 18.1757 34.4416 17.9924 33.7 18.1924C33.8798 18.1044 34.0703 18.04 34.2666 18.0007C34.2416 17.809 34.0666 16.959 34.0333 16.7507L34.2416 16.6674C34.35 17.1757 34.475 17.759 34.5583 18.0007C34.625 18.009 34.775 18.0424 34.9083 18.109C34.85 17.909 34.5333 16.4924 34.5416 16.3424L34.825 16.1924C34.9103 16.9854 35.0778 17.7674 35.325 18.5257H35.3333Z" fill="black"/>
<path d="M35.1667 19.5007C35.3084 19.0591 35.2167 18.6257 34.5834 18.5674C34.0834 18.5257 33.5501 19.0091 32.9167 19.5091L35.1667 19.5007Z" fill="#96877D" stroke="black" stroke-width="0.0339059"/>
<path d="M31.0082 15.459C30.593 15.4861 30.1762 15.4438 29.7749 15.334C29.7915 15.2507 29.8249 15.1674 29.8665 15.0674C29.6093 15.2282 29.3716 15.4184 29.1582 15.634C29.6082 15.734 30.5415 15.7757 31.0082 15.459Z" fill="#96877D" stroke="black" stroke-width="0.0339059"/>
<path d="M31 18.3341C31.1 18.6424 31.1667 18.9341 31.175 19.1924" stroke="black" stroke-width="0.0339059"/>
<path d="M30.1416 14.5924C29.9749 14.8424 29.8249 15.1091 29.7749 15.3424C30.1774 15.4456 30.5936 15.485 31.0082 15.4591" stroke="black" stroke-width="0.0339059"/>
<path d="M29.5332 15.9591C29.6499 15.9841 29.7665 16.0007 29.8665 16.0341C30.1999 16.1257 30.8915 16.1257 31.3665 15.7841C31.8332 15.4507 33.1165 14.3924 34.5582 14.2841" stroke="black" stroke-width="0.0339059"/>
<path d="M29.1582 15.6341C29.6082 15.7341 30.5415 15.7757 31.0082 15.4591C31.9414 14.7619 33.0485 14.3352 34.2082 14.2257" stroke="black" stroke-width="0.0339059"/>
<path d="M37.0417 20.6007C38.6251 21.6841 39.7917 22.7424 40.1251 24.4341C40.4584 26.1257 41.1001 26.5757 41.8917 26.1257C41.7084 27.1007 40.7251 27.2091 39.9001 26.4591C39.9834 27.5924 39.5251 28.9424 38.3584 29.4341C38.2834 28.7591 38.7334 28.2174 38.6084 27.6674C38.5501 27.4174 38.5251 26.8591 38.8501 26.5924C38.2251 26.8007 37.2501 26.4091 37.1584 25.4841C37.8751 25.8174 38.7917 25.8757 39.1501 24.9757C39.5001 24.0757 39.3501 22.5341 37.0417 20.6007Z" fill="#337321" stroke="black" stroke-width="0.0339059"/>
<path d="M39.0332 11.8007C39.5249 10.5257 40.7999 10.6591 41.2332 11.2007C42.4915 10.4841 42.6665 12.1007 43.7332 11.7841C43.7165 12.0841 43.3582 12.3674 42.9665 12.3424C43.3832 12.7174 42.7999 13.2841 43.6749 13.6257C42.9249 14.0007 41.8749 13.6091 41.5915 12.5674C41.3415 13.0591 40.4665 13.0591 40.1082 12.6674C40.8749 12.4591 40.8249 11.7507 40.3915 11.4591C39.9499 11.1757 39.1832 11.2924 39.0332 11.8007Z" fill="#337321" stroke="black" stroke-width="0.0339059"/>
<path d="M35.2249 14.6174C35.5873 15.7266 36.2269 16.7248 37.0833 17.5174C37.9833 18.3507 39.3416 18.1341 40.1083 17.3507C40.1249 18.9174 38.4916 19.0424 37.5916 18.5507C37.1916 18.3341 36.8666 18.4424 37.2499 18.8007C37.8333 19.3174 39.1083 19.7174 40.6166 20.0341C43.2416 20.6007 42.3083 22.6841 41.5333 22.6674C41.7583 22.6674 41.9416 22.4257 41.6166 22.1424C39.3333 20.0841 34.6999 20.8924 34.7666 16.3091C34.2833 17.5174 32.2666 17.0424 33.2083 15.6174C33.5083 15.8591 34.0416 15.8757 34.1833 15.5007C34.2999 15.2091 34.2249 14.7007 33.6999 14.2591C33.7833 14.2591 33.9749 14.2591 33.9499 14.0424C33.9749 14.1757 34.0916 14.3591 34.3916 14.2924C34.4749 14.4341 34.5583 14.5174 34.6833 14.4674C34.7083 14.4674 34.7749 14.4257 34.7499 14.2924C34.7666 14.5424 35.0666 14.6341 35.2249 14.6174Z" fill="#337321" stroke="black" stroke-width="0.0339059"/>
<path d="M37.5833 18.5507C38.675 19.2591 39.9167 19.2591 41.0417 17.9507C41.4 17.5341 41.9583 17.1757 42.3583 17.1424C42.7583 17.1007 42.7333 16.7257 43.0333 16.6424C42.85 16.5924 42.775 16.3674 42.4917 16.3924C43.2 16.1507 42.9917 15.5841 43.3333 15.3091C43.05 15.4174 42.6167 15.0007 42.2083 15.5341C42.3167 15.2841 42.1667 15.0007 42.0667 14.8841C42.1083 15.1674 41.5167 15.2174 41.4 15.9341C41.3417 16.3341 41.1167 16.3174 41.0833 15.6924C41.0583 15.2424 40.8333 13.9841 40.5833 13.3424C40.3167 12.7091 40.25 11.8257 40.6083 11.7007C40.5569 11.606 40.4824 11.5257 40.3917 11.4674C39.95 11.1841 39.1833 11.3007 39.0333 11.8007C38.55 13.0841 39.9167 13.8174 39.8083 15.2091C39.6 14.1757 37.925 13.9091 37.9417 12.8924C37.4 13.1424 37.475 13.5924 37.6833 13.9507C37.35 13.4257 36.575 14.2841 35.9167 13.5757C35.8333 14.5174 36.6667 14.8674 37.3417 14.9091C37.0083 15.5091 37.4583 16.0174 37.9083 16.1841C37.925 15.1341 40.0833 15.5591 40.1083 17.3674C40.125 18.9091 38.4667 19.0341 37.5833 18.5507Z" fill="#F7E017" stroke="black" stroke-width="0.0339059"/>
<path d="M40.6167 20.0341C43.2417 20.6007 42.3084 22.6841 41.5334 22.6674C41.0417 22.6507 40.5751 22.2424 40.5501 21.8841C39.9834 22.1841 40.1334 22.7757 40.5667 23.0091C39.3834 22.8757 38.8834 23.6507 38.8584 24.5091C39.0751 24.1091 39.7251 24.0924 39.9751 24.1757C40.2251 24.2591 40.8501 24.3007 41.1001 24.0091C40.8917 24.1924 41.2334 24.6091 40.9334 24.9257C41.9334 24.8924 42.3584 23.9674 42.1834 23.5674C43.4667 22.4007 43.2251 20.5007 40.6167 20.0341Z" fill="#F7E017" stroke="black" stroke-width="0.0339059"/>
<path d="M38.6082 28.9674C38.7749 29.0674 38.7582 29.3007 38.6415 29.4424C38.4082 29.7257 38.7582 30.4007 38.0415 30.5257C37.8332 30.5507 37.6749 30.4174 37.6082 30.1757C37.4082 29.5091 38.1165 29.4591 38.1915 29.1507C38.2749 28.8341 38.4665 28.8757 38.6082 28.9674Z" fill="#F7E017" stroke="black" stroke-width="0.0339059"/>
<path d="M37.9666 30.1757C38.1916 30.2924 38.3916 30.4591 38.275 31.2091C38.2166 31.5174 38.2083 32.2757 38.4833 32.2924C38.3166 32.3757 37.95 32.4507 37.8166 32.2507C37.6583 32.4841 37.3416 32.4007 37.2333 32.1007C37.05 32.2341 36.8333 31.9924 36.8416 31.7924C36.6916 31.8757 36.4 31.7341 36.4916 31.2924C36.3083 31.3424 36.0833 31.2091 36.0083 31.0924C36.2666 31.0424 36.9416 30.7174 37.1166 30.4424C37.2833 30.1591 37.7 30.0424 37.9666 30.1757Z" fill="#F7E017" stroke="black" stroke-width="0.0339059"/>
<path d="M37.8083 32.2507C37.8917 32.1507 37.9333 31.709 37.8917 31.4424" stroke="black" stroke-width="0.0339059"/>
<path d="M37.2251 32.1007C37.3501 32.0174 37.5751 31.7257 37.6251 31.4591" stroke="black" stroke-width="0.0339059"/>
<path d="M36.8333 31.7924C37.1109 31.5865 37.3247 31.3063 37.4499 30.9841" stroke="black" stroke-width="0.0339059"/>
<path d="M36.4917 31.2924C36.6584 31.2591 37.2084 30.9341 37.4417 30.5757" stroke="black" stroke-width="0.0339059"/>
<path d="M34.7666 16.3174C34.7333 18.234 35.5333 19.2174 36.65 19.8507C36.2333 19.6007 36.4166 18.759 35.8583 18.484C35.9916 18.4757 36.1916 18.659 36.525 18.584C36.3583 18.234 36.1083 17.684 35.4916 17.609C35.6583 17.5924 35.9916 17.6507 36.225 17.5674C35.9083 17.0674 35.0583 17.309 34.7666 16.3174Z" fill="#F7E017" stroke="black" stroke-width="0.0339059"/>
<path d="M34.5666 14.4841C34.4999 14.4591 34.4416 14.3924 34.3916 14.3007C34.0916 14.3674 33.9749 14.1757 33.9499 14.0507C33.9749 14.2674 33.7832 14.2591 33.6999 14.2674C34.2249 14.7007 34.2999 15.2091 34.1832 15.5007C34.0332 15.8757 33.5166 15.8591 33.2082 15.6174C33.1666 16.4174 34.2082 16.6757 34.5832 15.6757C34.5832 15.8424 34.7999 15.8257 34.8499 16.0507C35.1166 15.6174 34.9166 14.9924 34.5666 14.4841Z" fill="#F7E017" stroke="black" stroke-width="0.0339059"/>
<path d="M32.9167 10.6674C32.4958 10.2506 32.2563 9.68469 32.25 9.09241C32.2667 8.67574 32.4334 8.23407 33.0417 8.42574C32.85 8.42574 32.9834 8.79241 32.7917 8.83407C32.9417 8.89241 33.1584 8.75907 33.1917 8.66741C33.225 8.80074 33.475 8.76741 33.4917 8.91741C33.5834 8.84241 33.4834 8.47574 33.3417 8.40074C33.4417 8.34241 33.5084 8.05074 33.4584 7.90907C33.3584 7.92574 33.2167 8.05907 33.1917 8.25074C33.2417 8.10074 33.1834 7.72574 32.9167 7.66741C32.8417 7.76741 32.825 8.02574 32.925 8.16741C32.6834 8.10907 32.325 8.26741 32.2417 8.47574C32.2584 8.22574 32.2917 7.86741 32.45 7.64241C32.5 7.57574 32.3667 7.44241 32.275 7.61741C32.0917 7.25907 31.6084 7.07574 31.3834 7.25074C31.1667 7.43407 30.8834 7.16741 30.7 7.45074C30.525 7.73407 29.9167 7.75907 29.95 8.05907C29.9667 8.24241 29.925 8.51741 29.8334 8.61741C29.6167 8.85907 29.9417 9.03407 30 9.25074C29.9584 8.54241 31.0917 7.15074 32.2334 7.69241C32.0949 7.9965 32.0185 8.32511 32.0084 8.65907C31.9584 9.30074 32.0584 10.2007 32.675 10.7341L32.9167 10.6674Z" fill="#337321" stroke="black" stroke-width="0.0339059"/>
<path d="M33.25 8.42573C33.25 8.25907 33.5417 8.03407 33.9333 8.0424C34.4083 8.0424 34.7667 8.47573 35.15 8.43407C35.5333 8.3924 35.35 8.60073 35.2667 8.6674C35.1833 8.7174 35.1417 8.80073 35.1667 8.90907C35.1917 9.00907 35.15 9.07573 35 8.98407C34.6583 8.7674 34.3167 9.0674 33.8667 8.90073C33.4917 8.75907 33.2667 8.67573 33.25 8.42573Z" fill="#C8102E" stroke="black" stroke-width="0.0339059"/>
<path d="M31.3167 12.8674C31.0679 12.2764 30.6277 11.7863 30.0667 11.4757L30.05 11.1591C30.3563 10.9844 30.6391 10.7716 30.8917 10.5257C32.3084 11.1924 34.225 10.2424 35.1084 9.25073L35.4417 9.45073L35.275 9.67573L35.1 9.58407C34.7102 10.0118 34.2866 10.4075 33.8334 10.7674C34.1584 10.8507 34.6084 10.9091 34.7334 10.9007C35.5167 10.3341 36.1417 9.82573 36.4417 9.7924L36.6917 10.1257L36.4667 10.2924L36.2917 10.1841C35.3377 11.0905 34.5927 12.1938 34.1084 13.4174C33.5834 13.3007 31.7 13.3757 31.3167 12.8674Z" fill="#96877D" stroke="black" stroke-width="0.0339059"/>
<path d="M33.8332 10.7674C33.7082 10.7341 33.5999 10.7007 33.5415 10.6674C33.2388 10.8549 32.8893 10.9531 32.5332 10.9507" stroke="black" stroke-width="0.0339059"/>
<path d="M31.3918 12.6591C31.2668 11.9591 31.4751 11.1757 31.8251 10.9424C32.2662 11.2009 32.7697 11.3336 33.2809 11.3263C33.7921 11.319 34.2916 11.1718 34.7251 10.9007" stroke="black" stroke-width="0.0339059"/>
<path d="M31.3916 12.2924C31.9916 12.2757 33.3083 12.3757 33.6166 12.4174C33.9416 12.4674 34.4749 12.6007 34.3999 12.759" stroke="black" stroke-width="0.0339059"/>
<path d="M31.6667 12.1924L31.8417 12.0257L31.675 11.8507L31.5 12.0174L31.6667 12.1924Z" stroke="black" stroke-width="0.0339059"/>
<path d="M32.0834 8.69241C31.8668 8.39241 31.2668 8.29241 31.1418 8.69241C31.0834 8.87575 31.0001 9.06741 30.8584 9.15075C30.7168 9.23408 30.7501 9.49241 30.8084 9.60075C30.9584 9.87575 30.8251 10.1424 31.1168 10.3174C31.1168 10.1007 31.4418 9.87575 31.7084 9.81741C31.9834 9.76741 32.4001 9.51741 32.4584 9.25075C32.5084 8.96741 32.6084 8.75075 32.0834 8.69241Z" fill="#337321" stroke="black" stroke-width="0.0339059"/>
<path d="M30.725 11.4007H30.8083V11.9091L30.85 11.9341L31.2916 11.6841L31.3333 11.7424L30.8833 12.0007V12.0507L31.3333 12.3007L31.2916 12.3674L30.8416 12.1174C30.8333 12.1257 30.8166 12.1424 30.8 12.1424V12.6591H30.725V12.1424C30.7099 12.1361 30.6959 12.1277 30.6833 12.1174L30.2416 12.3757L30.2 12.3091L30.6416 12.0591V12.0007L30.2 11.7507L30.2416 11.6841L30.6833 11.9341L30.725 11.9091V11.4007Z" fill="#96877D" stroke="black" stroke-width="0.0339059"/>
<path d="M31.3916 12.6507C31.2639 12.78 31.0998 12.8672 30.9212 12.9007C30.7426 12.9341 30.558 12.9121 30.3922 12.8378C30.2264 12.7634 30.0873 12.6402 29.9935 12.4845C29.8997 12.3289 29.8557 12.1483 29.8673 11.967C29.879 11.7857 29.9458 11.6122 30.0587 11.4699C30.1717 11.3276 30.3254 11.2231 30.4994 11.1706C30.6733 11.1181 30.8592 11.12 31.032 11.176C31.2049 11.232 31.3565 11.3395 31.4666 11.4841C31.4141 11.6378 31.3805 11.7973 31.3666 11.9591C31.3553 11.8419 31.3103 11.7305 31.2369 11.6384C31.1636 11.5464 31.0651 11.4775 30.9535 11.4403C30.8418 11.4031 30.7217 11.399 30.6078 11.4287C30.4939 11.4583 30.391 11.5204 30.3117 11.6074C30.2324 11.6943 30.1799 11.8024 30.1608 11.9186C30.1417 12.0347 30.1567 12.1539 30.2039 12.2617C30.2512 12.3695 30.3287 12.4613 30.4271 12.5259C30.5255 12.5905 30.6406 12.6252 30.7583 12.6257C31.0416 12.6257 31.2833 12.4341 31.3583 12.1757C31.3583 12.2924 31.3583 12.5591 31.3916 12.6507Z" fill="#96877D" stroke="black" stroke-width="0.0339059"/>
<path d="M30.3834 13.5007C30.3334 13.4341 30.225 13.2507 30.2417 13.1257C30.3586 13.1291 30.4707 13.1733 30.5584 13.2507C30.5501 13.1507 30.5084 12.9507 30.5334 12.8507C30.6334 12.8924 30.8501 13.0174 30.9251 13.1507C30.9084 13.0591 30.8667 12.8174 30.9084 12.6674C31.0167 12.7341 31.2084 12.9091 31.2417 13.0341C31.2584 12.8424 31.325 12.5341 31.375 12.4507C31.4584 12.5341 31.5917 12.6174 31.6751 12.7341C31.6917 12.5757 31.7751 12.4007 31.8834 12.3591C31.9667 12.4424 32.1 12.6674 32.1334 12.9091C32.2167 12.8841 32.325 12.7424 32.375 12.6591C32.4167 12.7424 32.4667 12.8674 32.4334 13.0341C32.5417 12.9341 32.6667 12.8091 32.6834 12.6924C32.7667 12.7507 32.9084 12.8924 32.9417 13.0424C32.925 12.9174 32.9417 12.7007 32.9 12.5757C33.0334 12.6591 33.1501 12.7841 33.1751 12.9257C33.2167 12.7924 33.3 12.5591 33.375 12.5091C33.45 12.6591 33.5251 12.8424 33.5167 12.9841C33.5667 12.8924 33.6334 12.7174 33.7084 12.6841C33.775 12.7841 33.7667 13.0174 33.75 13.1341C33.8167 13.0424 33.9417 12.9257 34.0167 12.8841C34.0167 12.9507 34.0334 13.0591 34.0167 13.1424C34.1364 13.0193 34.2275 12.8714 34.2834 12.7091C34.4167 12.7757 34.5501 13.0007 34.5584 13.1174C34.6584 13.0757 34.8417 12.9091 34.8917 12.8174C34.8917 12.8841 34.9251 13.0674 34.8917 13.2007C34.9501 13.1424 35 13.0341 35.0334 12.9841C35.0667 13.0757 35.0334 13.3007 35 13.4257C35.0789 13.3551 35.1781 13.3114 35.2834 13.3007C35.2595 13.5295 35.1886 13.7508 35.075 13.9507C34.175 13.7007 32.2834 13.6091 30.3834 13.5007Z" fill="#337321" stroke="black" stroke-width="0.0339059"/>
<path d="M33.5332 8.52572C33.5332 8.45072 33.6832 8.30072 33.9582 8.30072C34.2915 8.30072 34.5999 8.55072 34.8665 8.52572C35.1332 8.50905 34.9999 8.60072 34.9499 8.61739C34.8832 8.64239 34.8582 8.67572 34.8665 8.71739C34.8915 8.76739 34.8665 8.79239 34.7499 8.75072C34.5165 8.66739 34.2749 8.78405 33.9665 8.71739C33.6999 8.65905 33.5415 8.63405 33.5332 8.52572Z" fill="#F7E017"/>
<path d="M30.675 14.0674C30.4 14.4007 30.1166 14.3507 30.0583 14.1341C30 13.9174 30.2083 13.8174 30.1333 13.6257C30.0583 13.4341 30.2583 13.3507 30.35 13.4341C30.4416 13.5174 30.75 13.2507 30.875 13.5341C31.0083 13.8174 31.1083 14.0091 31.0416 14.1174C30.9583 14.2341 30.7333 14.1757 30.675 14.0674Z" fill="#F7E017" stroke="black" stroke-width="0.0339059"/>
<path d="M31.8917 13.5591C31.8417 13.4341 32.1333 13.1924 32.2833 13.3674C32.4333 13.5341 32.6667 13.1841 32.8 13.4507C32.9333 13.7174 32.9667 13.8591 33.0417 14.0091C33.1 14.1591 32.6833 14.2341 32.55 14.1091C32.5667 14.1924 32.1833 14.2674 32.0833 14.0091L31.8917 13.5591Z" fill="#F7E017" stroke="black" stroke-width="0.0339059"/>
<path d="M33.8418 13.7174C33.7751 13.5841 34.1168 13.3924 34.3001 13.6341C34.3418 13.5341 34.6834 13.5174 34.7084 13.8007L34.7501 14.3757C34.7584 14.4841 34.5418 14.5924 34.3918 14.3007C34.1084 14.3591 33.9834 14.2007 33.9501 14.0424C33.9168 13.8757 33.8834 13.7924 33.8418 13.7091V13.7174Z" fill="#F7E017" stroke="black" stroke-width="0.0339059"/>
<path d="M30.8583 13.5257C30.8166 13.4341 31.1083 13.2424 31.2916 13.3841C31.4833 13.5257 31.7499 13.2674 31.8749 13.5174C32.0999 14.0341 32.1083 14.0674 32.0416 14.1674C31.9749 14.2674 31.6666 14.2257 31.5916 14.0841C31.5833 14.1841 31.3166 14.1674 31.1833 14.0924C31.0333 14.0091 30.9249 13.6924 30.8583 13.5257Z" fill="#337321" stroke="black" stroke-width="0.0339059"/>
<path d="M32.8334 13.5507C32.7751 13.4007 33.2167 13.2757 33.4167 13.5341C33.5084 13.4424 33.7251 13.4341 33.8417 13.7174C33.9667 13.9924 33.9834 14.1424 33.9001 14.2174C33.8334 14.2674 33.6084 14.3007 33.5334 14.1757C33.4251 14.2424 33.1084 14.1841 33.0334 14.0091C32.9667 13.8341 32.9084 13.6757 32.8417 13.5507H32.8334Z" fill="#337321" stroke="black" stroke-width="0.0339059"/>
<path d="M34.7083 13.8341C34.7083 13.6924 34.9416 13.6341 35.0333 13.8341C35.1166 14.0174 35.4083 13.8424 35.4333 14.1674C35.4333 14.2257 35.3999 14.4591 35.3083 14.5757C35.2249 14.6841 34.7833 14.5757 34.7499 14.3341L34.7083 13.8341Z" fill="#337321" stroke="black" stroke-width="0.0339059"/>
<path d="M30.675 14.0674C30.575 13.9257 30.4333 13.7007 30.2583 13.9424" stroke="black" stroke-width="0.0339059"/>
<path d="M31.6 14.0841C31.5333 14.0091 31.4583 13.8757 31.4333 13.7757" stroke="black" stroke-width="0.0339059"/>
<path d="M32.5499 14.1091C32.4833 14.0591 32.3833 13.9674 32.3333 13.8674" stroke="black" stroke-width="0.0339059"/>
<path d="M32.4668 13.6174C32.6335 13.6341 32.7418 13.7841 32.7918 13.8591C32.8418 13.9257 32.9585 14.0591 33.0418 14.0674" stroke="black" stroke-width="0.0339059"/>
<path d="M33.5332 14.1757C33.4749 14.0924 33.4165 14.009 33.4082 13.9424" stroke="black" stroke-width="0.0339059"/>
<path d="M33.4167 13.5341C33.4667 13.6174 33.5084 13.6757 33.5417 13.7507" stroke="black" stroke-width="0.0339059"/>
<path d="M34.3835 14.3007C34.3194 14.1667 34.2182 14.0539 34.0918 13.9757" stroke="black" stroke-width="0.0339059"/>
<path d="M34.3501 13.7841C34.3584 14.0591 34.7251 14.0841 34.7418 14.2841" stroke="black" stroke-width="0.0339059"/>
<path d="M35.0332 13.8341C35.0665 13.9007 35.0832 13.9674 35.0832 14.0841" stroke="black" stroke-width="0.0339059"/>
</g>
</g>
<defs>
<clipPath id="clip0_769_21268">
<path d="M0 20C0 8.95431 8.95431 0 20 0C31.0457 0 40 8.95431 40 20C40 31.0457 31.0457 40 20 40C8.95431 40 0 31.0457 0 20Z" fill="white"/>
</clipPath>
<clipPath id="clip1_769_21268">
<rect width="53.3333" height="40" fill="white" transform="translate(-7 0.000732422)"/>
</clipPath>
</defs>
</svg>
