<svg width="40" height="40" viewBox="0 0 40 40" fill="none" xmlns="http://www.w3.org/2000/svg">
<g clip-path="url(#clip0_769_21251)">
<path d="M0 20C0 8.95431 8.95431 0 20 0C31.0457 0 40 8.95431 40 20C40 31.0457 31.0457 40 20 40C8.95431 40 0 31.0457 0 20Z" fill="#E94E0F"/>
<g clip-path="url(#clip1_769_21251)">
<path fill-rule="evenodd" clip-rule="evenodd" d="M46.3333 40.0007H-7V0.000732422H46.3333V40.0007Z" fill="white"/>
<path fill-rule="evenodd" clip-rule="evenodd" d="M46.3333 40.0007H-7V20.0007H46.3333V40.0007Z" fill="#DC143C"/>
</g>
</g>
<defs>
<clipPath id="clip0_769_21251">
<path d="M0 20C0 8.95431 8.95431 0 20 0C31.0457 0 40 8.95431 40 20C40 31.0457 31.0457 40 20 40C8.95431 40 0 31.0457 0 20Z" fill="white"/>
</clipPath>
<clipPath id="clip1_769_21251">
<rect width="53.3333" height="40" fill="white" transform="translate(-7 0.000732422)"/>
</clipPath>
</defs>
</svg>
