<svg width="40" height="40" viewBox="0 0 40 40" fill="none" xmlns="http://www.w3.org/2000/svg">
<g clip-path="url(#clip0_769_21386)">
<path d="M0 20C0 8.95431 8.95431 0 20 0C31.0457 0 40 8.95431 40 20C40 31.0457 31.0457 40 20 40C8.95431 40 0 31.0457 0 20Z" fill="#E94E0F"/>
<g clip-path="url(#clip1_769_21386)">
<path d="M14.5999 0H46.9999V40.5H14.5999V0Z" fill="#FF0000"/>
<path d="M-7 0H14.6V40.5H-7V0Z" fill="#006600"/>
<path fill-rule="evenodd" clip-rule="evenodd" d="M21.6452 25.8356C18.9199 25.7512 6.45767 17.9718 6.37329 16.7231L7.05673 15.584C8.29704 17.3812 21.0377 24.9496 22.2949 24.6796L21.6452 25.8356Z" fill="#FFFF00" stroke="black" stroke-width="0.050625" stroke-linecap="round" stroke-linejoin="round"/>
<path fill-rule="evenodd" clip-rule="evenodd" d="M6.91342 15.4237C6.66873 16.0819 10.1703 18.2419 14.3722 20.8069C18.5825 23.3634 22.2106 24.9412 22.4722 24.7219L22.5987 24.4856C22.5481 24.57 22.43 24.5953 22.2359 24.5362C21.0969 24.2072 18.1353 22.8487 14.465 20.6212C10.7862 18.3937 7.59686 16.3434 7.09904 15.4744C7.05686 15.39 7.03998 15.3056 7.04842 15.2128H7.03154L6.93029 15.3984L6.91342 15.4237ZM21.7044 25.8694C21.6622 25.9537 21.5694 25.9537 21.409 25.9369C20.3965 25.8272 17.3084 24.3253 13.655 22.14C9.40248 19.5919 5.89248 17.28 6.28061 16.6725L6.38186 16.4869L6.39873 16.4953C6.06123 17.5247 13.3259 21.6759 13.7562 21.9459C17.9581 24.5447 21.5019 26.0719 21.814 25.6753L21.7044 25.8694Z" fill="#FFFF00" stroke="black" stroke-width="0.050625" stroke-linecap="round" stroke-linejoin="round"/>
<path fill-rule="evenodd" clip-rule="evenodd" d="M14.6171 17.4825C17.334 17.4572 20.6921 17.1112 22.6327 16.335L22.2109 15.66C21.0718 16.2928 17.6968 16.7147 14.5918 16.7737C10.9299 16.74 8.3396 16.3941 7.04022 15.525L6.6521 16.2506C9.03147 17.2631 11.4784 17.4741 14.6171 17.4825Z" fill="#FFFF00" stroke="black" stroke-width="0.050625" stroke-linecap="round" stroke-linejoin="round"/>
<path fill-rule="evenodd" clip-rule="evenodd" d="M22.7422 16.3519C22.6747 16.4616 21.409 16.8919 19.5528 17.2125C17.9159 17.4572 16.2622 17.5838 14.6084 17.5753C13.0222 17.5838 11.4359 17.4825 9.86653 17.2716C7.91747 16.9678 6.91341 16.546 6.53372 16.3941L6.62653 16.2085C7.6981 16.6303 8.7106 16.8835 9.89185 17.0691C11.4528 17.28 13.0222 17.3813 14.6 17.3813C16.2453 17.3813 17.8906 17.2632 19.519 17.0185C21.4175 16.7063 22.4553 16.3097 22.6072 16.1325L22.7422 16.3519ZM22.3709 15.6685C22.1684 15.8372 21.139 16.2 19.3334 16.4869C17.7725 16.7147 16.2031 16.8244 14.6253 16.8244C12.769 16.8244 11.2418 16.6894 10.0859 16.5207C8.24653 16.2844 7.26778 15.8457 6.91341 15.7275L7.0231 15.5419C7.30153 15.6853 8.2381 16.065 10.1028 16.3266C11.6047 16.5291 13.115 16.6219 14.6253 16.6135C16.1862 16.6135 17.7556 16.5038 19.2997 16.276C21.1137 16.0228 22.0925 15.5672 22.2443 15.4491L22.3709 15.6685ZM5.68153 20.7563C7.35216 21.6591 11.0731 22.1063 14.5915 22.14C17.7978 22.1485 21.9659 21.6507 23.5268 20.8238L23.4847 19.921C22.9953 20.6803 18.5234 21.4144 14.5578 21.3891C10.5922 21.3553 6.90497 20.7478 5.6731 19.9547V20.7563" fill="#FFFF00"/>
<path d="M5.68153 20.7563C7.35216 21.6591 11.0731 22.1063 14.5915 22.14C17.7978 22.1485 21.9659 21.6507 23.5268 20.8238L23.4847 19.921C22.9953 20.6803 18.5234 21.4144 14.5578 21.3891C10.5922 21.3553 6.90497 20.7478 5.6731 19.9547V20.7563M22.7422 16.3519C22.6747 16.4616 21.409 16.8919 19.5528 17.2125C17.9159 17.4572 16.2622 17.5838 14.6084 17.5753C13.0222 17.5838 11.4359 17.4825 9.86653 17.2716C7.91747 16.9678 6.91341 16.546 6.53372 16.3941L6.62653 16.2085C7.6981 16.6303 8.7106 16.8835 9.89185 17.0691C11.4528 17.28 13.0222 17.3813 14.6 17.3813C16.2453 17.3813 17.8906 17.2632 19.519 17.0185C21.4175 16.7063 22.4553 16.3097 22.6072 16.1325L22.7422 16.3519ZM22.3709 15.6685C22.1684 15.8372 21.139 16.2 19.3334 16.4869C17.7725 16.7147 16.2031 16.8244 14.6253 16.8244C12.769 16.8244 11.2418 16.6894 10.0859 16.5207C8.24653 16.2844 7.26778 15.8457 6.91341 15.7275L7.0231 15.5419C7.30153 15.6853 8.2381 16.065 10.1028 16.3266C11.6047 16.5291 13.115 16.6219 14.6253 16.6135C16.1862 16.6135 17.7556 16.5038 19.2997 16.276C21.1137 16.0228 22.0925 15.5672 22.2443 15.4491L22.3709 15.6685Z" stroke="black" stroke-width="0.050625" stroke-linecap="round" stroke-linejoin="round"/>
<path fill-rule="evenodd" clip-rule="evenodd" d="M23.6114 20.6297V20.8407C23.3751 21.1275 21.907 21.5494 20.0676 21.8532C18.2367 22.1147 16.3973 22.2413 14.5495 22.2244C12.803 22.2413 11.048 22.1147 9.31827 21.8616C8.02733 21.7097 6.76171 21.3722 5.57202 20.8491V20.6044C6.39046 21.1444 8.60108 21.5494 9.34358 21.6675C10.6767 21.87 12.3895 22.0219 14.5495 22.0219C16.8192 22.0219 18.6333 21.8616 20.0339 21.6507C21.3586 21.4566 23.2401 20.9588 23.6114 20.6297ZM23.6114 19.8704V20.0813C23.3751 20.3597 21.907 20.7816 20.0676 21.0854C18.2367 21.3469 16.3973 21.4819 14.5495 21.465C12.803 21.4735 11.048 21.3554 9.31827 21.1022C8.02733 20.9504 6.76171 20.6129 5.57202 20.0897V19.8366C6.39046 20.385 8.60952 20.7816 9.34358 20.8997C11.0648 21.1529 12.8114 21.271 14.5495 21.2625C16.8192 21.2625 18.6417 21.0938 20.0339 20.8829C21.3586 20.6972 23.2401 20.1994 23.6114 19.8704ZM14.5833 25.6754C10.7358 25.6585 7.43671 24.6291 6.7364 24.4604L7.24265 25.2535C9.60515 26.0888 12.1026 26.5022 14.617 26.46C17.5448 26.3757 20.1014 26.1479 21.8986 25.2704L22.4217 24.4435C21.1983 25.0257 17.0217 25.6754 14.5833 25.6754Z" fill="#FFFF00" stroke="black" stroke-width="0.050625" stroke-linecap="round" stroke-linejoin="round"/>
<path fill-rule="evenodd" clip-rule="evenodd" d="M22.1008 25.0847C22.0249 25.1944 21.9489 25.3125 21.8645 25.4222C21.0208 25.726 19.6708 26.0466 19.1139 26.131C17.6205 26.4094 16.1017 26.5528 14.583 26.5528C11.1742 26.5022 8.38142 25.8356 7.0736 25.2619L6.96392 25.0847L6.98079 25.051L7.15798 25.1269C9.56267 25.92 12.0686 26.3335 14.5999 26.3503C16.1861 26.3503 17.7639 26.1731 19.038 25.9453C20.9955 25.5488 21.7886 25.2535 22.0333 25.1185L22.1008 25.0847ZM22.548 24.3422C22.4889 24.4435 22.4383 24.5363 22.3792 24.6375C21.9236 24.8063 20.6917 25.1606 18.8945 25.4138C17.7133 25.5741 16.9792 25.7344 14.6252 25.7766C11.9336 25.7513 9.25892 25.3547 6.67704 24.5953L6.58423 24.3844C9.20829 25.11 11.9083 25.5066 14.6336 25.5656C16.7852 25.5235 17.7049 25.3631 18.8777 25.2028C20.9702 24.8822 22.0249 24.5278 22.337 24.435C22.337 24.4266 22.337 24.4266 22.337 24.4181L22.5564 24.3338L22.548 24.3422Z" fill="#FFFF00" stroke="black" stroke-width="0.050625" stroke-linecap="round" stroke-linejoin="round"/>
<path fill-rule="evenodd" clip-rule="evenodd" d="M22.5987 20.0475C22.6072 22.5788 21.3078 24.8569 20.27 25.8525C18.7344 27.3459 16.6925 28.1981 14.5494 28.2319C11.9928 28.2741 9.58811 26.6119 8.93842 25.8778C7.48717 24.3338 6.6603 22.3088 6.61811 20.1909C6.76998 17.4234 7.85842 15.4997 9.4278 14.175C10.955 12.9178 12.8703 12.2428 14.8447 12.2597C17.1734 12.3694 19.3503 13.4662 20.8353 15.2634C21.89 16.5459 22.354 17.9381 22.5987 20.0475ZM14.5662 11.3906C19.4769 11.3906 23.4762 15.3563 23.51 20.2669C23.51 25.1944 19.519 29.1853 14.5915 29.1853C9.66405 29.1853 5.67311 25.1944 5.67311 20.2669C5.66467 15.3731 9.66405 11.3906 14.5662 11.3906Z" fill="#FFFF00" stroke="black" stroke-width="0.050625" stroke-linecap="round" stroke-linejoin="round"/>
<path fill-rule="evenodd" clip-rule="evenodd" d="M14.5915 11.3484C19.5021 11.3484 23.5015 15.3478 23.5015 20.2585C23.5015 25.1691 19.5021 29.1685 14.5999 29.1685C9.69775 29.1685 5.68994 25.1691 5.68994 20.2585C5.68994 15.3478 9.68932 11.3484 14.5999 11.3484H14.5915ZM5.87557 20.25C5.87557 25.0425 9.81588 28.9659 14.5915 28.9659C19.3671 28.9659 23.3074 25.0425 23.3074 20.25C23.3074 15.4575 19.3671 11.5341 14.5915 11.5341C9.81588 11.5341 5.87557 15.4575 5.87557 20.25Z" fill="#FFFF00" stroke="black" stroke-width="0.050625" stroke-linecap="round" stroke-linejoin="round"/>
<path fill-rule="evenodd" clip-rule="evenodd" d="M14.6 12.0909C19.0972 12.1078 22.7422 15.7528 22.759 20.25C22.7422 24.7556 19.1056 28.4006 14.6 28.4175C10.1281 28.4175 6.44092 24.7387 6.44092 20.25C6.45779 15.7528 10.1028 12.1078 14.6 12.0909ZM6.63498 20.25C6.63498 24.6375 10.2294 28.215 14.6 28.215C18.9706 28.215 22.565 24.629 22.565 20.25C22.565 15.8625 18.9706 12.285 14.6 12.285C10.2125 12.3018 6.65186 15.8625 6.63498 20.25Z" fill="#FFFF00" stroke="black" stroke-width="0.050625" stroke-linecap="round" stroke-linejoin="round"/>
<path fill-rule="evenodd" clip-rule="evenodd" d="M14.9626 11.3063H14.1948V29.2191H14.9542L14.9626 11.3063Z" fill="#FFFF00" stroke="black" stroke-width="0.050625" stroke-linecap="round" stroke-linejoin="round"/>
<path fill-rule="evenodd" clip-rule="evenodd" d="M14.8783 11.2049H15.0723V29.3202H14.8867L14.8783 11.2049ZM14.1189 11.2049H14.3214V29.3202H14.1273L14.1189 11.2049Z" fill="#FFFF00" stroke="black" stroke-width="0.050625" stroke-linecap="round" stroke-linejoin="round"/>
<path fill-rule="evenodd" clip-rule="evenodd" d="M23.5099 20.6043V19.9462L22.9699 19.4399L19.9071 18.6299L15.5027 18.1827L10.1871 18.4527L6.40708 19.3471L5.64771 19.9124V20.579L7.57989 19.7099L12.1699 18.9927H16.5827L19.8227 19.3471L22.0671 19.8871L23.5099 20.6043Z" fill="#FFFF00" stroke="black" stroke-width="0.050625" stroke-linecap="round" stroke-linejoin="round"/>
<path fill-rule="evenodd" clip-rule="evenodd" d="M14.6001 18.8831C16.7011 18.8831 18.7345 19.0772 20.363 19.3894C22.0336 19.7269 23.2064 20.1488 23.6114 20.6128V20.8491C23.122 20.2584 21.5442 19.8366 20.3208 19.5834C18.7176 19.2797 16.6926 19.0772 14.5917 19.0772C12.3895 19.0772 10.3308 19.2966 8.74452 19.6003C7.4789 19.8534 5.78296 20.3597 5.57202 20.8491V20.6044C5.68171 20.2669 6.94733 19.7606 8.71921 19.3978C10.3139 19.0856 12.3726 18.8831 14.5917 18.8831H14.6001ZM14.6001 18.1153C16.5323 18.1153 18.4645 18.2841 20.363 18.6216C22.0336 18.9591 23.2064 19.3809 23.6114 19.8534V20.0813C23.122 19.4991 21.5442 19.0688 20.3208 18.8241C18.7176 18.5119 16.6926 18.3178 14.5917 18.3178C12.6342 18.3094 10.6767 18.4866 8.75296 18.8409C7.52952 19.0688 5.76608 19.5919 5.57202 20.0813V19.845C5.69015 19.5075 6.97265 18.9759 8.71921 18.6384C10.3223 18.3263 12.3726 18.1153 14.6001 18.1153ZM14.5495 14.2172C17.8655 14.2003 20.7595 14.6813 22.0842 15.3563L22.5651 16.2C21.4176 15.5756 18.2958 14.9344 14.558 15.0188C11.512 15.0441 8.25515 15.3563 6.62671 16.2338L7.20046 15.2719C8.54202 14.5716 11.6976 14.2172 14.5495 14.2172Z" fill="#FFFF00" stroke="black" stroke-width="0.050625" stroke-linecap="round" stroke-linejoin="round"/>
<path fill-rule="evenodd" clip-rule="evenodd" d="M14.5999 14.909C16.3296 14.8837 18.0593 15.0018 19.7721 15.2718C21.1221 15.5249 22.413 15.8962 22.5986 16.0987L22.7421 16.3518C22.2949 16.0649 21.1727 15.7359 19.7383 15.4659C18.3039 15.1959 16.473 15.1031 14.5914 15.1115C12.4568 15.1031 10.7946 15.2128 9.37707 15.4659C8.39832 15.6009 7.45332 15.8962 6.56738 16.335L6.71082 16.0734C7.21707 15.8203 8.00176 15.5081 9.33488 15.2634C10.8114 14.9934 12.4905 14.9174 14.5999 14.909ZM14.5999 14.1496C16.4055 14.1328 18.1943 14.234 19.5864 14.4871C20.4893 14.6221 21.3583 14.909 22.1683 15.3309L22.3793 15.6684C22.0249 15.2718 20.6918 14.8921 19.5021 14.6896C18.1183 14.445 16.4055 14.3521 14.5999 14.3353C12.9208 14.3184 11.2418 14.4449 9.57957 14.7065C8.71051 14.8246 7.86676 15.0862 7.08207 15.4743L7.2677 15.1959C7.75707 14.9428 8.5502 14.7065 9.54582 14.5124C11.2164 14.2509 12.9039 14.1243 14.5999 14.1412V14.1496ZM19.0211 23.9625C17.5614 23.7093 16.0764 23.5996 14.5914 23.625C9.06488 23.6924 7.28457 24.764 7.06519 25.0846L6.64332 24.4096C8.06082 23.3971 11.0646 22.8234 14.6252 22.874C16.473 22.9078 18.0677 23.0343 19.4008 23.2959L19.0211 23.9625Z" fill="#FFFF00" stroke="black" stroke-width="0.050625" stroke-linecap="round" stroke-linejoin="round"/>
<path fill-rule="evenodd" clip-rule="evenodd" d="M14.566 23.5322C16.1016 23.5575 17.6035 23.6166 19.0632 23.8866L18.9619 24.0722C17.6119 23.8191 16.1607 23.7347 14.5744 23.7347C12.5241 23.7178 10.4654 23.9119 8.66818 24.4266C8.10287 24.5869 7.16631 24.9497 7.06506 25.2534L6.96381 25.0847C6.99756 24.8991 7.55443 24.5278 8.61756 24.2409C10.6763 23.6503 12.6001 23.5406 14.566 23.5322ZM14.6335 22.756C16.2535 22.756 17.8735 22.8994 19.4682 23.1778L19.3585 23.3719C17.7976 23.085 16.2197 22.95 14.6335 22.9585C12.5916 22.9585 10.4232 23.1103 8.44881 23.6841C7.816 23.8697 6.71068 24.2747 6.67693 24.5869L6.57568 24.4013C6.59256 24.1144 7.546 23.7347 8.40662 23.49C10.3894 22.9078 12.5663 22.7644 14.6335 22.756Z" fill="#FFFF00" stroke="black" stroke-width="0.050625" stroke-linecap="round" stroke-linejoin="round"/>
<path fill-rule="evenodd" clip-rule="evenodd" d="M22.4807 24.5109L21.8225 25.5487L19.9072 23.8528L14.9628 20.52L9.37722 17.4572L6.48315 16.47L7.09909 15.3225L7.31003 15.2128L9.10722 15.66L15.0472 18.7228L18.4728 20.8828L21.35 22.95L22.5228 24.3L22.4807 24.5109Z" fill="#FFFF00" stroke="black" stroke-width="0.050625" stroke-linecap="round" stroke-linejoin="round"/>
<path fill-rule="evenodd" clip-rule="evenodd" d="M6.3819 16.4954C6.88815 16.1579 10.6175 17.8116 14.5325 20.1741C18.4222 22.5366 22.1516 25.2029 21.8141 25.7007L21.7044 25.8779L21.6538 25.92C21.6622 25.9116 21.7213 25.8357 21.6538 25.6585C21.485 25.11 18.8357 23.0007 14.4566 20.3513C10.1788 17.8116 6.61815 16.276 6.27222 16.7147L6.3819 16.4954ZM22.6157 24.5025C22.9363 23.8613 19.4769 21.2541 15.1822 18.7144C10.7947 16.2254 7.62222 14.7572 7.04003 15.196L6.9219 15.4407C6.9219 15.4491 6.9219 15.4238 6.95565 15.3985C7.0569 15.3141 7.23409 15.3141 7.31003 15.3141C8.30565 15.331 11.1491 16.6388 15.14 18.9254C16.895 19.9379 22.5313 23.566 22.506 24.5785C22.506 24.6629 22.5144 24.6797 22.4807 24.7304L22.6241 24.511L22.6157 24.5025Z" fill="#FFFF00" stroke="black" stroke-width="0.050625" stroke-linecap="round" stroke-linejoin="round"/>
<path d="M9.25073 21.2457C9.25073 22.6548 9.82448 24.0048 10.8285 25.0004C11.8242 26.0044 13.1742 26.5782 14.5917 26.5866C16.0092 26.5866 17.3676 26.0213 18.3717 25.0173C19.3757 24.0216 19.9326 22.6716 19.941 21.2541V14.1244L9.25917 14.1076L9.25073 21.2457Z" fill="white" stroke="black" stroke-width="0.0630028" stroke-miterlimit="4.2667"/>
<path d="M9.45312 21.254C9.45312 22.604 10.0016 23.9034 10.9634 24.8568C11.9253 25.8187 13.2247 26.3671 14.5831 26.3671C15.9416 26.3671 17.2409 25.8271 18.2028 24.8737C19.1647 23.9203 19.7047 22.6293 19.7047 21.2709V14.3437H9.47V21.254H9.45312ZM17.6628 16.4193V20.8237L17.6544 21.2793C17.6628 22.0893 17.3337 22.874 16.7516 23.4393C16.1778 24.0131 15.4016 24.3337 14.5916 24.3421C13.7478 24.3421 12.9969 23.9793 12.44 23.4224C11.8662 22.8487 11.5456 22.0724 11.5372 21.2624V16.4024L17.6628 16.4193Z" fill="#FF0000" stroke="black" stroke-width="0.0449972" stroke-miterlimit="4.2667"/>
<path d="M10.1196 16.1494C10.1281 15.6516 10.4824 15.5334 10.4824 15.5334C10.4909 15.5334 10.8706 15.66 10.8706 16.1578H10.1196" fill="#FFFF00"/>
<path d="M9.8158 15.5419L9.75674 16.1072H10.1364C10.1364 15.6431 10.4992 15.5672 10.4992 15.5672C10.5077 15.5672 10.8621 15.6684 10.8705 16.1072H11.2502L11.1742 15.5334H9.82424V15.5419H9.8158ZM9.72299 16.1241H11.2502C11.2755 16.1241 11.3008 16.1494 11.3008 16.1831C11.3008 16.2253 11.2755 16.2591 11.2502 16.2591H9.72299C9.69768 16.2591 9.67236 16.2338 9.67236 16.1831C9.67236 16.1494 9.69768 16.1241 9.73143 16.1241H9.72299Z" fill="#FFFF00" stroke="black" stroke-width="0.0449972" stroke-miterlimit="4.2667"/>
<path d="M10.2798 16.1157C10.2798 15.8204 10.4907 15.736 10.4907 15.736C10.4907 15.736 10.7017 15.8288 10.7017 16.1157H10.2798ZM9.75668 15.3057H11.2248C11.2501 15.3057 11.2754 15.3394 11.2754 15.3816C11.2754 15.4069 11.2501 15.4323 11.2248 15.4323H9.75668C9.73137 15.4323 9.70605 15.4069 9.70605 15.3732C9.70605 15.3479 9.73137 15.3226 9.75668 15.3226V15.3057ZM9.79043 15.4407H11.1742C11.1995 15.4407 11.2248 15.466 11.2248 15.4998C11.2248 15.5335 11.1995 15.5588 11.1742 15.5588H9.78199C9.74824 15.5588 9.73137 15.5335 9.73137 15.4998C9.73137 15.466 9.74824 15.4407 9.78199 15.4407H9.79043ZM10.2461 14.4873H10.3557V14.5632H10.4401V14.4873H10.5582V14.5716H10.6426V14.4788H10.7523V14.656C10.7523 14.6898 10.7354 14.7066 10.7101 14.7066H10.2967C10.2714 14.7066 10.2461 14.6898 10.2461 14.6644V14.4873ZM10.6595 14.7235L10.6848 15.2973H10.2967L10.322 14.7151H10.6511" fill="#FFFF00"/>
<path d="M10.6595 14.7235L10.6848 15.2973H10.2967L10.322 14.7151H10.6511M10.2798 16.1157C10.2798 15.8204 10.4907 15.736 10.4907 15.736C10.4907 15.736 10.7017 15.8288 10.7017 16.1157H10.2798ZM9.75668 15.3057H11.2248C11.2501 15.3057 11.2754 15.3394 11.2754 15.3816C11.2754 15.4069 11.2501 15.4323 11.2248 15.4323H9.75668C9.73137 15.4323 9.70605 15.4069 9.70605 15.3732C9.70605 15.3479 9.73137 15.3226 9.75668 15.3226V15.3057ZM9.79043 15.4407H11.1742C11.1995 15.4407 11.2248 15.466 11.2248 15.4998C11.2248 15.5335 11.1995 15.5588 11.1742 15.5588H9.78199C9.74824 15.5588 9.73137 15.5335 9.73137 15.4998C9.73137 15.466 9.74824 15.4407 9.78199 15.4407H9.79043ZM10.2461 14.4873H10.3557V14.5632H10.4401V14.4873H10.5582V14.5716H10.6426V14.4788H10.7523V14.656C10.7523 14.6898 10.7354 14.7066 10.7101 14.7066H10.2967C10.2714 14.7066 10.2461 14.6898 10.2461 14.6644V14.4873Z" stroke="black" stroke-width="0.0449972" stroke-miterlimit="4.2667"/>
<path d="M10.1873 14.9934V15.2972H9.82446V14.9934H10.1873Z" fill="#FFFF00" stroke="black" stroke-width="0.0449972" stroke-miterlimit="4.2667"/>
<path d="M11.1406 14.9934V15.2972H10.7778V14.9934H11.1406Z" fill="#FFFF00" stroke="black" stroke-width="0.0449972" stroke-miterlimit="4.2667"/>
<path d="M9.76514 14.7657H9.87482V14.8585H9.9592V14.7657H10.0689V14.8585H10.1533V14.7657H10.263V14.9429C10.263 14.9767 10.2461 14.9935 10.2208 14.9935H9.83264C9.79889 14.9935 9.78201 14.9682 9.78201 14.9429L9.76514 14.7657Z" fill="#FFFF00" stroke="black" stroke-width="0.0449972" stroke-miterlimit="4.2667"/>
<path d="M10.7188 14.7657H10.8284V14.8585H10.9128V14.7657H11.0225V14.8585H11.1069V14.7657H11.2166V14.9429C11.2166 14.9767 11.1997 14.9935 11.1744 14.9935H10.7863C10.7525 14.9935 10.7356 14.9682 10.7356 14.9429L10.7188 14.7657Z" fill="#FFFF00" stroke="black" stroke-width="0.0449972" stroke-miterlimit="4.2667"/>
<path d="M10.449 14.9091C10.449 14.8585 10.5333 14.8585 10.5333 14.9091V15.0525H10.449V14.9091Z" fill="black"/>
<path d="M9.97632 15.1032C9.97632 15.0526 10.0523 15.0526 10.0523 15.1032V15.2129H9.97632V15.1032Z" fill="black"/>
<path d="M10.9297 15.1032C10.9297 15.0526 11.0056 15.0526 11.0056 15.1032V15.2129H10.9297V15.1032Z" fill="black"/>
<path d="M10.1196 20.3175C10.1281 19.8197 10.4824 19.7016 10.4824 19.7016C10.4909 19.7016 10.8706 19.8281 10.8706 20.3259H10.1196" fill="#FFFF00"/>
<path d="M9.8158 19.71L9.75674 20.2753H10.1364C10.1364 19.8113 10.4992 19.7353 10.4992 19.7353C10.5077 19.7353 10.8621 19.8366 10.8705 20.2753H11.2502L11.1742 19.7016H9.82424V19.71H9.8158ZM9.72299 20.2922H11.2502C11.2755 20.2922 11.3008 20.3175 11.3008 20.3513C11.3008 20.3934 11.2755 20.4272 11.2502 20.4272H9.72299C9.69768 20.4272 9.67236 20.4019 9.67236 20.3513C9.67236 20.3175 9.69768 20.2922 9.73143 20.2922H9.72299Z" fill="#FFFF00" stroke="black" stroke-width="0.0449972" stroke-miterlimit="4.2667"/>
<path d="M10.2798 20.2838C10.2798 19.9885 10.4907 19.9041 10.4907 19.9041C10.4907 19.9041 10.7017 19.9969 10.7017 20.2838H10.2798ZM9.75668 19.4738H11.2248C11.2501 19.4738 11.2754 19.5076 11.2754 19.5497C11.2754 19.5751 11.2501 19.6004 11.2248 19.6004H9.75668C9.73137 19.6004 9.70605 19.5751 9.70605 19.5413C9.70605 19.516 9.73137 19.4907 9.75668 19.4907V19.4738ZM9.79043 19.6088H11.1742C11.1995 19.6088 11.2248 19.6341 11.2248 19.6679C11.2248 19.7016 11.1995 19.7269 11.1742 19.7269H9.78199C9.74824 19.7269 9.73137 19.7016 9.73137 19.6679C9.73137 19.6341 9.74824 19.6088 9.78199 19.6088H9.79043ZM10.2461 18.6469H10.3557V18.7229H10.4401V18.6469H10.5582V18.7313H10.6426V18.6385H10.7523V18.8157C10.7523 18.8494 10.7354 18.8663 10.7101 18.8663H10.2967C10.2714 18.8663 10.2461 18.8494 10.2461 18.8241V18.6469ZM10.6595 18.8916L10.6848 19.4654H10.2967L10.322 18.8832H10.6511" fill="#FFFF00"/>
<path d="M10.6595 18.8916L10.6848 19.4654H10.2967L10.322 18.8832H10.6511M10.2798 20.2838C10.2798 19.9885 10.4907 19.9041 10.4907 19.9041C10.4907 19.9041 10.7017 19.9969 10.7017 20.2838H10.2798ZM9.75668 19.4738H11.2248C11.2501 19.4738 11.2754 19.5076 11.2754 19.5497C11.2754 19.5751 11.2501 19.6004 11.2248 19.6004H9.75668C9.73137 19.6004 9.70605 19.5751 9.70605 19.5413C9.70605 19.516 9.73137 19.4907 9.75668 19.4907V19.4738ZM9.79043 19.6088H11.1742C11.1995 19.6088 11.2248 19.6341 11.2248 19.6679C11.2248 19.7016 11.1995 19.7269 11.1742 19.7269H9.78199C9.74824 19.7269 9.73137 19.7016 9.73137 19.6679C9.73137 19.6341 9.74824 19.6088 9.78199 19.6088H9.79043ZM10.2461 18.6469H10.3557V18.7229H10.4401V18.6469H10.5582V18.7313H10.6426V18.6385H10.7523V18.8157C10.7523 18.8494 10.7354 18.8663 10.7101 18.8663H10.2967C10.2714 18.8663 10.2461 18.8494 10.2461 18.8241V18.6469Z" stroke="black" stroke-width="0.0449972" stroke-miterlimit="4.2667"/>
<path d="M10.1873 19.1617V19.4654H9.82446V19.1617H10.1873Z" fill="#FFFF00" stroke="black" stroke-width="0.0449972" stroke-miterlimit="4.2667"/>
<path d="M11.1406 19.1617V19.4654H10.7778V19.1617H11.1406Z" fill="#FFFF00" stroke="black" stroke-width="0.0449972" stroke-miterlimit="4.2667"/>
<path d="M9.76514 18.9338H9.87482V19.0266H9.9592V18.9338H10.0689V19.0266H10.1533V18.9338H10.263V19.111C10.263 19.1447 10.2461 19.1616 10.2208 19.1616H9.83264C9.79889 19.1616 9.78201 19.1363 9.78201 19.111L9.76514 18.9338Z" fill="#FFFF00" stroke="black" stroke-width="0.0449972" stroke-miterlimit="4.2667"/>
<path d="M10.7188 18.9338H10.8284V19.0266H10.9128V18.9338H11.0225V19.0266H11.1069V18.9338H11.2166V19.111C11.2166 19.1447 11.1997 19.1616 11.1744 19.1616H10.7863C10.7525 19.1616 10.7356 19.1363 10.7356 19.111L10.7188 18.9338Z" fill="#FFFF00" stroke="black" stroke-width="0.0449972" stroke-miterlimit="4.2667"/>
<path d="M10.449 19.0772C10.449 19.0266 10.5333 19.0266 10.5333 19.0772V19.2206H10.449V19.0772Z" fill="black"/>
<path d="M9.97632 19.2713C9.97632 19.2207 10.0523 19.2207 10.0523 19.2713V19.381H9.97632V19.2713Z" fill="black"/>
<path d="M10.9297 19.2713C10.9297 19.2207 11.0056 19.2207 11.0056 19.2713V19.381H10.9297V19.2713Z" fill="black"/>
<path d="M11.7398 24.6629C11.3939 24.3085 11.5626 23.9795 11.5626 23.9795C11.5711 23.971 11.9254 23.7938 12.2798 24.1398L11.7398 24.6629Z" fill="#FFFF00"/>
<path d="M11.0986 24.4519L11.453 24.8991L11.723 24.6291C11.3939 24.3 11.5964 23.9962 11.5964 23.9962C11.6049 23.9878 11.9171 23.8106 12.2377 24.1144L12.5077 23.8444L12.0521 23.49L11.0986 24.4519ZM11.4446 24.9244L12.5246 23.8359C12.5414 23.8191 12.5836 23.8191 12.6089 23.8444C12.6427 23.8781 12.6427 23.9119 12.6258 23.9372L11.5458 25.0256C11.5289 25.0425 11.4868 25.0425 11.453 25.0172C11.4277 24.975 11.4277 24.9412 11.4446 24.9244Z" fill="#FFFF00" stroke="black" stroke-width="0.0449972" stroke-miterlimit="4.2667"/>
<path d="M11.8326 24.5194C11.6217 24.3085 11.7061 24.106 11.7061 24.106C11.7061 24.106 11.917 24.0216 12.1195 24.2241L11.8326 24.5194ZM10.8876 24.3169L11.9254 23.2791C11.9423 23.2622 11.9929 23.2622 12.0182 23.2875C12.0351 23.3044 12.0351 23.3466 12.0182 23.3635L10.9804 24.4013C10.9636 24.4182 10.9214 24.4182 10.8961 24.3929C10.8792 24.3844 10.8792 24.3422 10.8876 24.3169ZM11.0057 24.3844L11.9845 23.3972C12.0014 23.3804 12.0436 23.3804 12.0689 23.4057C12.0942 23.431 12.0942 23.4732 12.0773 23.49L11.0986 24.4772C11.0732 24.5025 11.0395 24.4941 11.0142 24.4688C10.9804 24.4519 10.9804 24.4182 11.0057 24.3844ZM10.6514 23.3972L10.7273 23.3213L10.7779 23.3719L10.837 23.3129L10.7864 23.2622L10.8707 23.1779L10.9298 23.2369L10.9889 23.1779L10.9214 23.1104L10.9973 23.0344L11.1239 23.161C11.1492 23.1863 11.1492 23.2116 11.1323 23.2285L10.8539 23.5069C10.837 23.5238 10.8032 23.5322 10.7864 23.5154L10.6514 23.3972ZM11.1154 23.2707L11.5457 23.6588L11.2757 23.9372L10.8792 23.5069L11.1154 23.2707Z" fill="#FFFF00" stroke="black" stroke-width="0.0449972" stroke-miterlimit="4.2667"/>
<path d="M10.9719 23.7938L11.1913 24.0131L10.9381 24.2663L10.7188 24.0469L10.9719 23.7938Z" fill="#FFFF00" stroke="black" stroke-width="0.0449972" stroke-miterlimit="4.2667"/>
<path d="M11.6469 23.1188L11.8663 23.3381L11.6132 23.5913L11.3938 23.3719L11.6469 23.1188Z" fill="#FFFF00" stroke="black" stroke-width="0.0449972" stroke-miterlimit="4.2667"/>
<path d="M10.5078 23.9289L10.5837 23.8529L10.6512 23.9204L10.7103 23.8614L10.6428 23.7939L10.7188 23.7179L10.7863 23.7854L10.8453 23.7264L10.7778 23.6589L10.8538 23.5829L10.9803 23.7095C11.0056 23.7348 11.0056 23.7601 10.9887 23.777L10.7188 24.0554C10.7019 24.0807 10.6597 24.0807 10.6428 24.0554L10.5078 23.9289Z" fill="#FFFF00" stroke="black" stroke-width="0.0449972" stroke-miterlimit="4.2667"/>
<path d="M11.1829 23.2537L11.2588 23.1778L11.3263 23.2453L11.3854 23.1862L11.3179 23.1187L11.3938 23.0428L11.4613 23.1103L11.5204 23.0512L11.4529 22.9837L11.5288 22.9078L11.6554 23.0343C11.6807 23.0597 11.6807 23.085 11.6638 23.1018L11.3938 23.3803C11.3769 23.4056 11.3347 23.4056 11.3179 23.3803L11.1829 23.2537Z" fill="#FFFF00" stroke="black" stroke-width="0.0449972" stroke-miterlimit="4.2667"/>
<path d="M11.0985 23.549C11.0563 23.5068 11.1154 23.4562 11.1576 23.49L11.2588 23.5912L11.1997 23.6503L11.0985 23.549Z" fill="black"/>
<path d="M10.896 24.0216C10.8538 23.9794 10.9044 23.9288 10.9466 23.971L11.0226 24.0469L10.9719 24.0976L10.896 24.0216Z" fill="black"/>
<path d="M11.571 23.3467C11.5289 23.3045 11.5795 23.2539 11.6217 23.2961L11.6976 23.372L11.647 23.4226L11.571 23.3467Z" fill="black"/>
<path d="M14.229 16.1494C14.2374 15.6515 14.5918 15.5334 14.5918 15.5334C14.6003 15.5334 14.9799 15.66 14.9799 16.1578H14.229" fill="#FFFF00"/>
<path d="M13.9249 15.5419L13.8659 16.1072H14.2456C14.2456 15.6431 14.6084 15.5672 14.6084 15.5672C14.6168 15.5672 14.9712 15.6684 14.9796 16.1072H15.3593L15.2834 15.5334H13.9334V15.5419H13.9249ZM13.8321 16.124H15.3593C15.3846 16.124 15.4099 16.1494 15.4099 16.1831C15.4099 16.2253 15.3846 16.259 15.3593 16.259H13.8321C13.8068 16.259 13.7815 16.2337 13.7815 16.1831C13.7815 16.1494 13.8068 16.124 13.8406 16.124H13.8321Z" fill="#FFFF00" stroke="black" stroke-width="0.0449972" stroke-miterlimit="4.2667"/>
<path d="M14.389 16.1157C14.389 15.8204 14.6 15.736 14.6 15.736C14.6 15.736 14.8109 15.8288 14.8109 16.1157H14.389ZM13.8744 15.3057H15.3425C15.3678 15.3057 15.3931 15.3394 15.3931 15.3816C15.3931 15.4069 15.3678 15.4322 15.3425 15.4322H13.8744C13.849 15.4322 13.8237 15.4069 13.8237 15.3732C13.8237 15.3479 13.849 15.3225 13.8744 15.3225V15.3057ZM13.9081 15.4407H15.2919C15.3172 15.4407 15.3425 15.466 15.3425 15.4997C15.3425 15.5335 15.3172 15.5588 15.2919 15.5588H13.8997C13.8659 15.5588 13.849 15.5335 13.849 15.4997C13.849 15.466 13.8659 15.4407 13.8997 15.4407H13.9081ZM14.3553 14.4872H14.465V14.5632H14.5494V14.4872H14.6675V14.5716H14.7519V14.4788H14.8615V14.656C14.8615 14.6897 14.8447 14.7066 14.8194 14.7066H14.4228C14.3975 14.7066 14.3722 14.6897 14.3722 14.6644L14.3553 14.4872ZM14.7687 14.7235L14.794 15.2972H14.4059L14.4312 14.715H14.7603" fill="#FFFF00"/>
<path d="M14.7687 14.7235L14.794 15.2972H14.4059L14.4312 14.715H14.7603M14.389 16.1157C14.389 15.8204 14.6 15.736 14.6 15.736C14.6 15.736 14.8109 15.8288 14.8109 16.1157H14.389ZM13.8744 15.3057H15.3425C15.3678 15.3057 15.3931 15.3394 15.3931 15.3816C15.3931 15.4069 15.3678 15.4322 15.3425 15.4322H13.8744C13.849 15.4322 13.8237 15.4069 13.8237 15.3732C13.8237 15.3479 13.849 15.3225 13.8744 15.3225V15.3057ZM13.9081 15.4407H15.2919C15.3172 15.4407 15.3425 15.466 15.3425 15.4997C15.3425 15.5335 15.3172 15.5588 15.2919 15.5588H13.8997C13.8659 15.5588 13.849 15.5335 13.849 15.4997C13.849 15.466 13.8659 15.4407 13.8997 15.4407H13.9081ZM14.3553 14.4872H14.465V14.5632H14.5494V14.4872H14.6675V14.5716H14.7519V14.4788H14.8615V14.656C14.8615 14.6897 14.8447 14.7066 14.8194 14.7066H14.4228C14.3975 14.7066 14.3722 14.6897 14.3722 14.6644L14.3553 14.4872Z" stroke="black" stroke-width="0.0449972" stroke-miterlimit="4.2667"/>
<path d="M14.3047 14.9934V15.2971H13.9419V14.9934H14.3047Z" fill="#FFFF00" stroke="black" stroke-width="0.0449972" stroke-miterlimit="4.2667"/>
<path d="M15.2583 14.9934V15.2971H14.8955V14.9934H15.2583Z" fill="#FFFF00" stroke="black" stroke-width="0.0449972" stroke-miterlimit="4.2667"/>
<path d="M13.8828 14.7657H13.9925V14.8585H14.0769V14.7657H14.1866V14.8585H14.2709V14.7657H14.3806V14.9429C14.3806 14.9766 14.3637 14.9935 14.3384 14.9935H13.9503C13.9166 14.9935 13.8997 14.9682 13.8997 14.9429L13.8828 14.7657Z" fill="#FFFF00" stroke="black" stroke-width="0.0449972" stroke-miterlimit="4.2667"/>
<path d="M14.8364 14.7657H14.9461V14.8585H15.0305V14.7657H15.1402V14.8585H15.2246V14.7657H15.3342V14.9429C15.3342 14.9766 15.3174 14.9935 15.2921 14.9935H14.9039C14.8702 14.9935 14.8533 14.9682 14.8533 14.9429L14.8364 14.7657Z" fill="#FFFF00" stroke="black" stroke-width="0.0449972" stroke-miterlimit="4.2667"/>
<path d="M14.5662 14.9091C14.5662 14.8584 14.6505 14.8584 14.6505 14.9091V15.0525H14.5662V14.9091Z" fill="black"/>
<path d="M14.0852 15.1032C14.0852 15.0526 14.1611 15.0526 14.1611 15.1032V15.2129H14.0852V15.1032Z" fill="black"/>
<path d="M15.0388 15.1032C15.0388 15.0526 15.1148 15.0526 15.1148 15.1032V15.2129H15.0388V15.1032Z" fill="black"/>
<path d="M19.0634 16.1494C19.055 15.6516 18.7006 15.5334 18.7006 15.5334C18.6922 15.5334 18.3125 15.66 18.3125 16.1578H19.0634" fill="#FFFF00"/>
<path d="M19.3671 15.5419L19.4261 16.1072H19.0465C19.0465 15.6431 18.6836 15.5672 18.6836 15.5672C18.6752 15.5672 18.3208 15.6684 18.3124 16.1072H17.9327L18.0086 15.5334H19.3586V15.5419H19.3671ZM19.4599 16.1241H17.9327C17.9074 16.1241 17.8821 16.1494 17.8821 16.1831C17.8821 16.2253 17.9074 16.2591 17.9327 16.2591H19.4599C19.4852 16.2591 19.5105 16.2338 19.5105 16.1831C19.5105 16.1494 19.4852 16.1241 19.4515 16.1241H19.4599Z" fill="#FFFF00" stroke="black" stroke-width="0.0449972" stroke-miterlimit="4.2667"/>
<path d="M18.9031 16.1157C18.9031 15.8204 18.6922 15.736 18.6922 15.736C18.6922 15.736 18.4812 15.8288 18.4812 16.1157H18.9031ZM19.4262 15.3057H17.9581C17.9328 15.3057 17.9075 15.3394 17.9075 15.3816C17.9075 15.4069 17.9328 15.4323 17.9581 15.4323H19.4262C19.4515 15.4323 19.4768 15.4069 19.4768 15.3732C19.4768 15.3479 19.4515 15.3226 19.4262 15.3226V15.3057ZM19.384 15.4407H18.0003C17.975 15.4407 17.9497 15.466 17.9497 15.4998C17.9497 15.5335 17.975 15.5588 18.0003 15.5588H19.3925C19.4262 15.5588 19.4431 15.5335 19.4431 15.4998C19.4431 15.466 19.4262 15.4407 19.3925 15.4407H19.384ZM18.9368 14.4873H18.8272V14.5632H18.7428V14.4873H18.6247V14.5716H18.5403V14.4788H18.4306V14.656C18.4306 14.6898 18.4475 14.7066 18.4728 14.7066H18.8693C18.8947 14.7066 18.92 14.6898 18.92 14.6644V14.4873H18.9368ZM18.5234 14.7235L18.4981 15.2973H18.8862L18.8609 14.7151H18.5318" fill="#FFFF00"/>
<path d="M18.5234 14.7235L18.4981 15.2973H18.8862L18.8609 14.7151H18.5318M18.9031 16.1157C18.9031 15.8204 18.6922 15.736 18.6922 15.736C18.6922 15.736 18.4812 15.8288 18.4812 16.1157H18.9031ZM19.4262 15.3057H17.9581C17.9328 15.3057 17.9075 15.3394 17.9075 15.3816C17.9075 15.4069 17.9328 15.4323 17.9581 15.4323H19.4262C19.4515 15.4323 19.4768 15.4069 19.4768 15.3732C19.4768 15.3479 19.4515 15.3226 19.4262 15.3226V15.3057ZM19.384 15.4407H18.0003C17.975 15.4407 17.9497 15.466 17.9497 15.4998C17.9497 15.5335 17.975 15.5588 18.0003 15.5588H19.3925C19.4262 15.5588 19.4431 15.5335 19.4431 15.4998C19.4431 15.466 19.4262 15.4407 19.3925 15.4407H19.384ZM18.9368 14.4873H18.8272V14.5632H18.7428V14.4873H18.6247V14.5716H18.5403V14.4788H18.4306V14.656C18.4306 14.6898 18.4475 14.7066 18.4728 14.7066H18.8693C18.8947 14.7066 18.92 14.6898 18.92 14.6644V14.4873H18.9368Z" stroke="black" stroke-width="0.0449972" stroke-miterlimit="4.2667"/>
<path d="M18.9958 14.9934V15.2972H19.3587V14.9934H18.9958Z" fill="#FFFF00" stroke="black" stroke-width="0.0449972" stroke-miterlimit="4.2667"/>
<path d="M18.0342 14.9934V15.2972H18.397V14.9934H18.0342Z" fill="#FFFF00" stroke="black" stroke-width="0.0449972" stroke-miterlimit="4.2667"/>
<path d="M19.4177 14.7657H19.308V14.8585H19.2237V14.7657H19.114V14.8585H19.0296V14.7657H18.9199V14.9429C18.9199 14.9767 18.9368 14.9935 18.9621 14.9935H19.3502C19.384 14.9935 19.4009 14.9682 19.4009 14.9429L19.4177 14.7657Z" fill="#FFFF00" stroke="black" stroke-width="0.0449972" stroke-miterlimit="4.2667"/>
<path d="M18.4642 14.7657H18.3545V14.8585H18.2702V14.7657H18.1605V14.8585H18.0761V14.7657H17.9749V14.9429C17.9749 14.9767 17.9917 14.9935 18.017 14.9935H18.4052C18.4389 14.9935 18.4558 14.9682 18.4558 14.9429L18.4642 14.7657Z" fill="#FFFF00" stroke="black" stroke-width="0.0449972" stroke-miterlimit="4.2667"/>
<path d="M18.7345 14.9091C18.7345 14.8585 18.6501 14.8585 18.6501 14.9091V15.0525H18.7345V14.9091Z" fill="black"/>
<path d="M19.2068 15.1032C19.2068 15.0526 19.1309 15.0526 19.1309 15.1032V15.2129H19.2068V15.1032Z" fill="black"/>
<path d="M18.2534 15.1032C18.2534 15.0526 18.1775 15.0526 18.1775 15.1032V15.2129H18.2534V15.1032Z" fill="black"/>
<path d="M19.0634 20.3175C19.055 19.8197 18.7006 19.7016 18.7006 19.7016C18.6922 19.7016 18.3125 19.8281 18.3125 20.3259H19.0634" fill="#FFFF00"/>
<path d="M19.3671 19.71L19.4261 20.2753H19.0465C19.0465 19.8113 18.6836 19.7353 18.6836 19.7353C18.6752 19.7353 18.3208 19.8366 18.3124 20.2753H17.9327L18.0086 19.7016H19.3586V19.71H19.3671ZM19.4599 20.2922H17.9327C17.9074 20.2922 17.8821 20.3175 17.8821 20.3513C17.8821 20.3934 17.9074 20.4272 17.9327 20.4272H19.4599C19.4852 20.4272 19.5105 20.4019 19.5105 20.3513C19.5105 20.3175 19.4852 20.2922 19.4515 20.2922H19.4599Z" fill="#FFFF00" stroke="black" stroke-width="0.0449972" stroke-miterlimit="4.2667"/>
<path d="M18.9031 20.2838C18.9031 19.9885 18.6922 19.9041 18.6922 19.9041C18.6922 19.9041 18.4812 19.9969 18.4812 20.2838H18.9031ZM19.4262 19.4738H17.9581C17.9328 19.4738 17.9075 19.5076 17.9075 19.5497C17.9075 19.5751 17.9328 19.6004 17.9581 19.6004H19.4262C19.4515 19.6004 19.4768 19.5751 19.4768 19.5413C19.4768 19.516 19.4515 19.4907 19.4262 19.4907V19.4738ZM19.384 19.6088H18.0003C17.975 19.6088 17.9497 19.6341 17.9497 19.6679C17.9497 19.7016 17.975 19.7269 18.0003 19.7269H19.3925C19.4262 19.7269 19.4431 19.7016 19.4431 19.6679C19.4431 19.6341 19.4262 19.6088 19.3925 19.6088H19.384ZM18.9368 18.6469H18.8272V18.7229H18.7428V18.6469H18.6247V18.7313H18.5403V18.6385H18.4306V18.8157C18.4306 18.8494 18.4475 18.8663 18.4728 18.8663H18.8693C18.8947 18.8663 18.92 18.8494 18.92 18.8241V18.6469H18.9368ZM18.5234 18.8916L18.4981 19.4654H18.8862L18.8609 18.8832H18.5318" fill="#FFFF00"/>
<path d="M18.5234 18.8916L18.4981 19.4654H18.8862L18.8609 18.8832H18.5318M18.9031 20.2838C18.9031 19.9885 18.6922 19.9041 18.6922 19.9041C18.6922 19.9041 18.4812 19.9969 18.4812 20.2838H18.9031ZM19.4262 19.4738H17.9581C17.9328 19.4738 17.9075 19.5076 17.9075 19.5497C17.9075 19.5751 17.9328 19.6004 17.9581 19.6004H19.4262C19.4515 19.6004 19.4768 19.5751 19.4768 19.5413C19.4768 19.516 19.4515 19.4907 19.4262 19.4907V19.4738ZM19.384 19.6088H18.0003C17.975 19.6088 17.9497 19.6341 17.9497 19.6679C17.9497 19.7016 17.975 19.7269 18.0003 19.7269H19.3925C19.4262 19.7269 19.4431 19.7016 19.4431 19.6679C19.4431 19.6341 19.4262 19.6088 19.3925 19.6088H19.384ZM18.9368 18.6469H18.8272V18.7229H18.7428V18.6469H18.6247V18.7313H18.5403V18.6385H18.4306V18.8157C18.4306 18.8494 18.4475 18.8663 18.4728 18.8663H18.8693C18.8947 18.8663 18.92 18.8494 18.92 18.8241V18.6469H18.9368Z" stroke="black" stroke-width="0.0449972" stroke-miterlimit="4.2667"/>
<path d="M18.9958 19.1617V19.4654H19.3587V19.1617H18.9958Z" fill="#FFFF00" stroke="black" stroke-width="0.0449972" stroke-miterlimit="4.2667"/>
<path d="M18.0342 19.1617V19.4654H18.397V19.1617H18.0342Z" fill="#FFFF00" stroke="black" stroke-width="0.0449972" stroke-miterlimit="4.2667"/>
<path d="M19.4177 18.9338H19.308V19.0266H19.2237V18.9338H19.114V19.0266H19.0296V18.9338H18.9199V19.111C18.9199 19.1447 18.9368 19.1616 18.9621 19.1616H19.3502C19.384 19.1616 19.4009 19.1363 19.4009 19.111L19.4177 18.9338Z" fill="#FFFF00" stroke="black" stroke-width="0.0449972" stroke-miterlimit="4.2667"/>
<path d="M18.4642 18.9338H18.3545V19.0266H18.2702V18.9338H18.1605V19.0266H18.0761V18.9338H17.9749V19.111C17.9749 19.1447 17.9917 19.1616 18.017 19.1616H18.4052C18.4389 19.1616 18.4558 19.1363 18.4558 19.111L18.4642 18.9338Z" fill="#FFFF00" stroke="black" stroke-width="0.0449972" stroke-miterlimit="4.2667"/>
<path d="M18.7345 19.0772C18.7345 19.0266 18.6501 19.0266 18.6501 19.0772V19.2206H18.7345V19.0772Z" fill="black"/>
<path d="M19.2068 19.2713C19.2068 19.2207 19.1309 19.2207 19.1309 19.2713V19.381H19.2068V19.2713Z" fill="black"/>
<path d="M18.2534 19.2713C18.2534 19.2207 18.1775 19.2207 18.1775 19.2713V19.381H18.2534V19.2713Z" fill="black"/>
<path d="M17.4436 24.6629C17.7895 24.3085 17.6208 23.9795 17.6208 23.9795C17.6123 23.971 17.2579 23.7938 16.9036 24.1398L17.4436 24.6629Z" fill="#FFFF00"/>
<path d="M18.0847 24.4519L17.7303 24.8991L17.4603 24.6291C17.7893 24.3 17.5868 23.9962 17.5868 23.9962C17.5784 23.9878 17.2662 23.8106 16.9456 24.1144L16.6756 23.8444L17.1312 23.49L18.0847 24.4519ZM17.7387 24.9244L16.6587 23.8359C16.6418 23.8191 16.5997 23.8191 16.5743 23.8444C16.5406 23.8781 16.5406 23.9119 16.5575 23.9372L17.6375 25.0256C17.6543 25.0425 17.6965 25.0425 17.7303 25.0172C17.7556 24.975 17.7556 24.9412 17.7387 24.9244Z" fill="#FFFF00" stroke="black" stroke-width="0.0449972" stroke-miterlimit="4.2667"/>
<path d="M17.3506 24.5194C17.5615 24.3085 17.4772 24.106 17.4772 24.106C17.4772 24.106 17.2662 24.0216 17.0637 24.2241L17.3506 24.5194ZM18.2956 24.3169L17.2578 23.2791C17.2409 23.2622 17.1903 23.2622 17.165 23.2875C17.1481 23.3044 17.1481 23.3466 17.165 23.3635L18.2028 24.4013C18.2197 24.4182 18.2618 24.4182 18.2872 24.3929C18.304 24.3844 18.304 24.3422 18.2956 24.3169ZM18.169 24.3844L17.1903 23.3972C17.1734 23.3804 17.1312 23.3804 17.1059 23.4057C17.0806 23.431 17.0806 23.4732 17.0975 23.49L18.0762 24.4772C18.1015 24.5025 18.1353 24.4941 18.1606 24.4688C18.1943 24.4519 18.2028 24.4182 18.169 24.3844ZM18.5318 23.3972L18.4559 23.3213L18.4053 23.3719L18.3462 23.3129L18.3968 23.2622L18.3125 23.1779L18.2534 23.2369L18.1943 23.1779L18.2618 23.1104L18.1859 23.0344L18.0593 23.161C18.034 23.1863 18.034 23.2116 18.0509 23.2285L18.3293 23.5069C18.3462 23.5238 18.38 23.5322 18.3968 23.5154L18.5318 23.3972ZM18.0678 23.2707L17.6375 23.6588L17.9075 23.9372L18.304 23.5069L18.0678 23.2707Z" fill="#FFFF00" stroke="black" stroke-width="0.0449972" stroke-miterlimit="4.2667"/>
<path d="M18.2028 23.7938L17.9834 24.0131L18.2365 24.2663L18.4559 24.0469L18.2028 23.7938Z" fill="#FFFF00" stroke="black" stroke-width="0.0449972" stroke-miterlimit="4.2667"/>
<path d="M17.536 23.1188L17.3167 23.3381L17.5698 23.5913L17.7891 23.3719L17.536 23.1188Z" fill="#FFFF00" stroke="black" stroke-width="0.0449972" stroke-miterlimit="4.2667"/>
<path d="M18.6668 23.9289L18.5908 23.8529L18.5233 23.9204L18.4643 23.8614L18.5318 23.7939L18.4558 23.7179L18.3883 23.7854L18.3293 23.7264L18.3968 23.6589L18.3208 23.5829L18.1943 23.7095C18.169 23.7348 18.169 23.7601 18.1858 23.777L18.4558 24.0554C18.4727 24.0807 18.5149 24.0807 18.5318 24.0554L18.6668 23.9289Z" fill="#FFFF00" stroke="black" stroke-width="0.0449972" stroke-miterlimit="4.2667"/>
<path d="M18.0003 23.2537L17.9243 23.1778L17.8568 23.2453L17.7978 23.1862L17.8653 23.1187L17.7893 23.0428L17.7218 23.1103L17.6628 23.0512L17.7303 22.9837L17.6543 22.9078L17.5278 23.0343C17.5025 23.0597 17.5025 23.085 17.5193 23.1018L17.7893 23.3803C17.8062 23.4056 17.8484 23.4056 17.8653 23.3803L18.0003 23.2537Z" fill="#FFFF00" stroke="black" stroke-width="0.0449972" stroke-miterlimit="4.2667"/>
<path d="M18.0846 23.549C18.1268 23.5068 18.0678 23.4562 18.0256 23.49L17.9243 23.5912L17.9834 23.6503L18.0846 23.549Z" fill="black"/>
<path d="M18.2789 24.0216C18.3211 23.9794 18.2705 23.9288 18.2283 23.971L18.1523 24.0469L18.203 24.0976L18.2789 24.0216Z" fill="black"/>
<path d="M17.6122 23.3467C17.6543 23.3045 17.6037 23.2539 17.5615 23.2961L17.4856 23.372L17.5362 23.4226L17.6122 23.3467Z" fill="black"/>
<path d="M13.9333 20.4694C13.9333 20.6635 14.0008 20.8407 14.1274 20.9841C14.2455 21.1191 14.4227 21.1951 14.6083 21.2035C14.794 21.2035 14.9712 21.1107 15.0893 20.9841C15.2158 20.8407 15.2918 20.6635 15.2833 20.4694V19.4991H13.9333V20.4694Z" fill="#003399"/>
<path d="M14.2456 19.9968C14.3202 19.9968 14.3806 19.9364 14.3806 19.8618C14.3806 19.7872 14.3202 19.7268 14.2456 19.7268C14.171 19.7268 14.1106 19.7872 14.1106 19.8618C14.1106 19.9364 14.171 19.9968 14.2456 19.9968Z" fill="white"/>
<path d="M14.9968 19.9968C15.0714 19.9968 15.1318 19.9364 15.1318 19.8618C15.1318 19.7872 15.0714 19.7268 14.9968 19.7268C14.9223 19.7268 14.8618 19.7872 14.8618 19.8618C14.8618 19.9364 14.9223 19.9968 14.9968 19.9968Z" fill="white"/>
<path d="M14.6169 20.3596C14.6915 20.3596 14.7519 20.2992 14.7519 20.2246C14.7519 20.15 14.6915 20.0896 14.6169 20.0896C14.5424 20.0896 14.4819 20.15 14.4819 20.2246C14.4819 20.2992 14.5424 20.3596 14.6169 20.3596Z" fill="white"/>
<path d="M14.2456 20.7394C14.3202 20.7394 14.3806 20.6789 14.3806 20.6044C14.3806 20.5298 14.3202 20.4694 14.2456 20.4694C14.171 20.4694 14.1106 20.5298 14.1106 20.6044C14.1106 20.6789 14.171 20.7394 14.2456 20.7394Z" fill="white"/>
<path d="M14.9968 20.7394C15.0714 20.7394 15.1318 20.6789 15.1318 20.6044C15.1318 20.5298 15.0714 20.4694 14.9968 20.4694C14.9223 20.4694 14.8618 20.5298 14.8618 20.6044C14.8618 20.6789 14.9223 20.7394 14.9968 20.7394Z" fill="white"/>
<path d="M13.9333 18.1321C13.9333 18.3262 14.0008 18.5034 14.1274 18.6468C14.2455 18.7818 14.4227 18.8578 14.6083 18.8662C14.794 18.8662 14.9712 18.7734 15.0893 18.6468C15.2158 18.5034 15.2918 18.3262 15.2833 18.1321V17.1618H13.9333V18.1321Z" fill="#003399"/>
<path d="M14.2456 17.6596C14.3202 17.6596 14.3806 17.5992 14.3806 17.5246C14.3806 17.4501 14.3202 17.3896 14.2456 17.3896C14.171 17.3896 14.1106 17.4501 14.1106 17.5246C14.1106 17.5992 14.171 17.6596 14.2456 17.6596Z" fill="white"/>
<path d="M14.9968 17.6596C15.0714 17.6596 15.1318 17.5992 15.1318 17.5246C15.1318 17.4501 15.0714 17.3896 14.9968 17.3896C14.9223 17.3896 14.8618 17.4501 14.8618 17.5246C14.8618 17.5992 14.9223 17.6596 14.9968 17.6596Z" fill="white"/>
<path d="M14.6169 18.0224C14.6915 18.0224 14.7519 17.962 14.7519 17.8874C14.7519 17.8129 14.6915 17.7524 14.6169 17.7524C14.5424 17.7524 14.4819 17.8129 14.4819 17.8874C14.4819 17.962 14.5424 18.0224 14.6169 18.0224Z" fill="white"/>
<path d="M14.2456 18.4021C14.3202 18.4021 14.3806 18.3417 14.3806 18.2671C14.3806 18.1926 14.3202 18.1321 14.2456 18.1321C14.171 18.1321 14.1106 18.1926 14.1106 18.2671C14.1106 18.3417 14.171 18.4021 14.2456 18.4021Z" fill="white"/>
<path d="M14.9968 18.4021C15.0714 18.4021 15.1318 18.3417 15.1318 18.2671C15.1318 18.1926 15.0714 18.1321 14.9968 18.1321C14.9223 18.1321 14.8618 18.1926 14.8618 18.2671C14.8618 18.3417 14.9223 18.4021 14.9968 18.4021Z" fill="white"/>
<path d="M12.0603 20.4694C12.0603 20.6635 12.1278 20.8407 12.2544 20.9841C12.3725 21.1191 12.5497 21.1951 12.7353 21.2035C12.9209 21.2035 13.0981 21.1107 13.2162 20.9841C13.3428 20.8407 13.4187 20.6635 13.4103 20.4694V19.4991H12.0603V20.4694Z" fill="#003399"/>
<path d="M12.3808 19.9968C12.4554 19.9968 12.5158 19.9364 12.5158 19.8618C12.5158 19.7872 12.4554 19.7268 12.3808 19.7268C12.3063 19.7268 12.2458 19.7872 12.2458 19.8618C12.2458 19.9364 12.3063 19.9968 12.3808 19.9968Z" fill="white"/>
<path d="M13.1235 19.9968C13.1981 19.9968 13.2585 19.9364 13.2585 19.8618C13.2585 19.7872 13.1981 19.7268 13.1235 19.7268C13.049 19.7268 12.9885 19.7872 12.9885 19.8618C12.9885 19.9364 13.049 19.9968 13.1235 19.9968Z" fill="white"/>
<path d="M12.7436 20.3596C12.8182 20.3596 12.8786 20.2992 12.8786 20.2246C12.8786 20.15 12.8182 20.0896 12.7436 20.0896C12.6691 20.0896 12.6086 20.15 12.6086 20.2246C12.6086 20.2992 12.6691 20.3596 12.7436 20.3596Z" fill="white"/>
<path d="M12.3808 20.7394C12.4554 20.7394 12.5158 20.6789 12.5158 20.6044C12.5158 20.5298 12.4554 20.4694 12.3808 20.4694C12.3063 20.4694 12.2458 20.5298 12.2458 20.6044C12.2458 20.6789 12.3063 20.7394 12.3808 20.7394Z" fill="white"/>
<path d="M13.1235 20.7394C13.1981 20.7394 13.2585 20.6789 13.2585 20.6044C13.2585 20.5298 13.1981 20.4694 13.1235 20.4694C13.049 20.4694 12.9885 20.5298 12.9885 20.6044C12.9885 20.6789 13.049 20.7394 13.1235 20.7394Z" fill="white"/>
<path d="M15.8066 20.4694C15.8066 20.6635 15.8741 20.8407 16.0007 20.9841C16.1188 21.1191 16.296 21.1951 16.4816 21.2035C16.6673 21.2035 16.8445 21.1107 16.9626 20.9841C17.0891 20.8407 17.1651 20.6635 17.1566 20.4694V19.4991H15.8066V20.4694Z" fill="#003399"/>
<path d="M16.1186 19.9968C16.1932 19.9968 16.2536 19.9364 16.2536 19.8618C16.2536 19.7872 16.1932 19.7268 16.1186 19.7268C16.0441 19.7268 15.9836 19.7872 15.9836 19.8618C15.9836 19.9364 16.0441 19.9968 16.1186 19.9968Z" fill="white"/>
<path d="M16.8699 19.9968C16.9444 19.9968 17.0049 19.9364 17.0049 19.8618C17.0049 19.7872 16.9444 19.7268 16.8699 19.7268C16.7953 19.7268 16.7349 19.7872 16.7349 19.8618C16.7349 19.9364 16.7953 19.9968 16.8699 19.9968Z" fill="white"/>
<path d="M16.49 20.3596C16.5645 20.3596 16.625 20.2992 16.625 20.2246C16.625 20.15 16.5645 20.0896 16.49 20.0896C16.4154 20.0896 16.355 20.15 16.355 20.2246C16.355 20.2992 16.4154 20.3596 16.49 20.3596Z" fill="white"/>
<path d="M16.1186 20.7394C16.1932 20.7394 16.2536 20.6789 16.2536 20.6044C16.2536 20.5298 16.1932 20.4694 16.1186 20.4694C16.0441 20.4694 15.9836 20.5298 15.9836 20.6044C15.9836 20.6789 16.0441 20.7394 16.1186 20.7394Z" fill="white"/>
<path d="M16.8699 20.7394C16.9444 20.7394 17.0049 20.6789 17.0049 20.6044C17.0049 20.5298 16.9444 20.4694 16.8699 20.4694C16.7953 20.4694 16.7349 20.5298 16.7349 20.6044C16.7349 20.6789 16.7953 20.7394 16.8699 20.7394Z" fill="white"/>
<path d="M13.9333 22.7897C13.9333 22.9838 14.0008 23.161 14.1274 23.3044C14.2455 23.4394 14.4227 23.5153 14.6083 23.5238C14.794 23.5238 14.9712 23.431 15.0893 23.3044C15.2158 23.161 15.2918 22.9838 15.2833 22.7897V21.8194H13.9333V22.7897Z" fill="#003399"/>
<path d="M14.2456 22.3257C14.3202 22.3257 14.3806 22.2653 14.3806 22.1907C14.3806 22.1162 14.3202 22.0557 14.2456 22.0557C14.171 22.0557 14.1106 22.1162 14.1106 22.1907C14.1106 22.2653 14.171 22.3257 14.2456 22.3257Z" fill="white"/>
<path d="M14.9968 22.3257C15.0714 22.3257 15.1318 22.2653 15.1318 22.1907C15.1318 22.1162 15.0714 22.0557 14.9968 22.0557C14.9223 22.0557 14.8618 22.1162 14.8618 22.1907C14.8618 22.2653 14.9223 22.3257 14.9968 22.3257Z" fill="white"/>
<path d="M14.6169 22.6801C14.6915 22.6801 14.7519 22.6197 14.7519 22.5451C14.7519 22.4705 14.6915 22.4101 14.6169 22.4101C14.5424 22.4101 14.4819 22.4705 14.4819 22.5451C14.4819 22.6197 14.5424 22.6801 14.6169 22.6801Z" fill="white"/>
<path d="M14.2456 23.0597C14.3202 23.0597 14.3806 22.9993 14.3806 22.9247C14.3806 22.8502 14.3202 22.7897 14.2456 22.7897C14.171 22.7897 14.1106 22.8502 14.1106 22.9247C14.1106 22.9993 14.171 23.0597 14.2456 23.0597Z" fill="white"/>
<path d="M14.9968 23.0597C15.0714 23.0597 15.1318 22.9993 15.1318 22.9247C15.1318 22.8502 15.0714 22.7897 14.9968 22.7897C14.9223 22.7897 14.8618 22.8502 14.8618 22.9247C14.8618 22.9993 14.9223 23.0597 14.9968 23.0597Z" fill="white"/>
</g>
</g>
<defs>
<clipPath id="clip0_769_21386">
<path d="M0 20C0 8.95431 8.95431 0 20 0C31.0457 0 40 8.95431 40 20C40 31.0457 31.0457 40 20 40C8.95431 40 0 31.0457 0 20Z" fill="white"/>
</clipPath>
<clipPath id="clip1_769_21386">
<rect width="54" height="40.5" fill="white" transform="translate(-7)"/>
</clipPath>
</defs>
</svg>
