<svg width="40" height="40" viewBox="0 0 40 40" fill="none" xmlns="http://www.w3.org/2000/svg">
<g clip-path="url(#clip0_769_21363)">
<path d="M0 20C0 8.95431 8.95431 0 20 0C31.0457 0 40 8.95431 40 20C40 31.0457 31.0457 40 20 40C8.95431 40 0 31.0457 0 20Z" fill="#E94E0F"/>
<g clip-path="url(#clip1_769_21363)">
<path fill-rule="evenodd" clip-rule="evenodd" d="M-6.99731 0.000732422H53.0027V40.0007H-6.99731V0.000732422Z" fill="#ED0000"/>
<path fill-rule="evenodd" clip-rule="evenodd" d="M-6.99731 8.00073H53.0027V16.0007H-6.99731V8.00073ZM-6.99731 24.0007H53.0027V32.0007H-6.99731V24.0007Z" fill="white"/>
<path fill-rule="evenodd" clip-rule="evenodd" d="M-6.99731 0.000732422L27.4324 19.9773L-6.99731 39.9226V0.000732422Z" fill="#0050F0"/>
<path fill-rule="evenodd" clip-rule="evenodd" d="M8.1355 25.4304L4.43237 22.657L0.744873 25.4539L2.11987 20.9148L-1.56763 18.1023L2.98706 18.071L4.40112 13.5398L5.84644 18.0554L10.4011 18.0632L6.73706 20.8992L8.14331 25.4304H8.1355Z" fill="white"/>
</g>
</g>
<defs>
<clipPath id="clip0_769_21363">
<path d="M0 20C0 8.95431 8.95431 0 20 0C31.0457 0 40 8.95431 40 20C40 31.0457 31.0457 40 20 40C8.95431 40 0 31.0457 0 20Z" fill="white"/>
</clipPath>
<clipPath id="clip1_769_21363">
<rect width="53.3333" height="40" fill="white" transform="translate(-7 0.000732422)"/>
</clipPath>
</defs>
</svg>
