<svg width="40" height="40" viewBox="0 0 40 40" fill="none" xmlns="http://www.w3.org/2000/svg">
<g clip-path="url(#clip0_769_21707)">
<path d="M0 20C0 8.95431 8.95431 0 20 0C31.0457 0 40 8.95431 40 20C40 31.0457 31.0457 40 20 40C8.95431 40 0 31.0457 0 20Z" fill="#E94E0F"/>
<g clip-path="url(#clip1_769_21707)">
<path d="M-7 0H46.3333V40H-7V0Z" fill="#8D1B3D"/>
<path d="M-7 0V40H6.2L14.35 37.775L6.2 35.5583L14.3417 33.3333L6.2 31.1083L14.3417 28.8917L6.2 26.6667L14.35 24.4417L6.2 22.225L14.3417 20L6.2 17.775L14.3417 15.5583L6.2 13.3333L14.35 11.1083L6.2 8.89167L14.3417 6.66667L6.2 4.44167L14.35 2.225L6.19167 0H-7Z" fill="white"/>
</g>
</g>
<defs>
<clipPath id="clip0_769_21707">
<path d="M0 20C0 8.95431 8.95431 0 20 0C31.0457 0 40 8.95431 40 20C40 31.0457 31.0457 40 20 40C8.95431 40 0 31.0457 0 20Z" fill="white"/>
</clipPath>
<clipPath id="clip1_769_21707">
<rect width="53.3333" height="40" fill="white" transform="translate(-7)"/>
</clipPath>
</defs>
</svg>
