<svg width="40" height="40" viewBox="0 0 40 40" fill="none" xmlns="http://www.w3.org/2000/svg">
<g clip-path="url(#clip0_769_22218)">
<path d="M0 20C0 8.95431 8.95431 0 20 0C31.0457 0 40 8.95431 40 20C40 31.0457 31.0457 40 20 40C8.95431 40 0 31.0457 0 20Z" fill="#E94E0F"/>
<g clip-path="url(#clip1_769_22218)">
<path d="M-13 0.000488281H40.3333V40.0005H-13V0.000488281Z" fill="#20603D"/>
<path d="M-13 0.000488281H40.3333V30.0005H-13V0.000488281Z" fill="#FAD201"/>
<path d="M-13 0.000488281H40.3333V20.0005H-13V0.000488281Z" fill="#00A1DE"/>
<path d="M36.0332 10.4505L31.5666 10.7089L35.8082 12.1172L31.4332 11.2089L35.1749 13.6672L31.1749 11.6588L34.1416 15.0089L30.7999 12.0338L32.8082 16.0338L30.3499 12.2922L31.2499 16.6672L29.8416 12.4255L29.5832 16.8922L29.5249 10.3839L36.0332 10.4505Z" fill="#E5BE01"/>
<path d="M36.0332 10.4505L31.5666 10.1922L35.8082 8.78385L31.4332 9.69219L35.1749 7.23385L31.1749 9.24219L34.1416 5.89219L30.7999 8.86719L32.8082 4.86719L30.3499 8.60885L31.2499 4.22552L29.8416 8.46719L29.5832 4.00052L29.5249 10.5089L36.0332 10.4505Z" fill="#E5BE01"/>
<path d="M23.1333 10.4505L27.6 10.7088L23.3583 12.1171L27.7333 11.2088L23.9916 13.6671L27.9916 11.6588L25.025 15.0088L28.3666 12.0338L26.3583 16.0338L28.8166 12.2921L27.9166 16.6755L29.325 12.4338L29.5833 16.9005L29.6416 10.3921L23.1333 10.4505Z" fill="#E5BE01"/>
<path d="M23.1333 10.4505L27.6 10.1922L23.3583 8.78385L27.7333 9.69219L23.9916 7.23385L27.9916 9.24219L25.025 5.89219L28.3666 8.86719L26.3583 4.86719L28.8166 8.60885L27.9166 4.22552L29.325 8.46719L29.5833 4.00052L29.6416 10.5089L23.1333 10.4505Z" fill="#E5BE01"/>
<path d="M29.5831 12.3588C30.6371 12.3588 31.4915 11.5044 31.4915 10.4505C31.4915 9.39653 30.6371 8.54214 29.5831 8.54214C28.5292 8.54214 27.6748 9.39653 27.6748 10.4505C27.6748 11.5044 28.5292 12.3588 29.5831 12.3588Z" fill="#E5BE01" stroke="#00A1DE" stroke-width="0.188892" stroke-miterlimit="2.6667"/>
</g>
</g>
<defs>
<clipPath id="clip0_769_22218">
<path d="M0 20C0 8.95431 8.95431 0 20 0C31.0457 0 40 8.95431 40 20C40 31.0457 31.0457 40 20 40C8.95431 40 0 31.0457 0 20Z" fill="white"/>
</clipPath>
<clipPath id="clip1_769_22218">
<rect width="53.3333" height="40" fill="white" transform="translate(-13 0.000488281)"/>
</clipPath>
</defs>
</svg>
