<svg width="40" height="40" viewBox="0 0 40 40" fill="none" xmlns="http://www.w3.org/2000/svg">
<g clip-path="url(#clip0_769_24679)">
<path d="M0 20C0 8.95431 8.95431 0 20 0C31.0457 0 40 8.95431 40 20C40 31.0457 31.0457 40 20 40C8.95431 40 0 31.0457 0 20Z" fill="#E94E0F"/>
<g clip-path="url(#clip1_769_24679)">
<path fill-rule="evenodd" clip-rule="evenodd" d="M-7 0.000244141H46.3333V40.0002H-7V0.000244141Z" fill="#F4F100"/>
<path fill-rule="evenodd" clip-rule="evenodd" d="M33.8333 0.000244141H46.3333V40.0002H33.8333V0.000244141Z" fill="#199A00"/>
<path fill-rule="evenodd" clip-rule="evenodd" d="M-7 0.000244141H5.5V40.0002H-7V0.000244141Z" fill="#0058AA"/>
<path fill-rule="evenodd" clip-rule="evenodd" d="M14.6084 10.8336L10.7417 16.7752L14.4667 22.9752L18.1167 16.8336L14.6084 10.8336ZM24.7084 10.8336L20.85 16.7752L24.575 22.9752L28.225 16.8336L24.7084 10.8336ZM19.6084 18.9419L15.7417 24.8919L19.475 31.0919L23.125 24.9502L19.6084 18.9502V18.9419Z" fill="#199A00"/>
</g>
</g>
<defs>
<clipPath id="clip0_769_24679">
<path d="M0 20C0 8.95431 8.95431 0 20 0C31.0457 0 40 8.95431 40 20C40 31.0457 31.0457 40 20 40C8.95431 40 0 31.0457 0 20Z" fill="white"/>
</clipPath>
<clipPath id="clip1_769_24679">
<rect width="53.3333" height="40" fill="white" transform="translate(-7 0.000244141)"/>
</clipPath>
</defs>
</svg>
