<svg width="40" height="40" viewBox="0 0 40 40" fill="none" xmlns="http://www.w3.org/2000/svg">
<g clip-path="url(#clip0_769_24948)">
<path d="M0 20C0 8.95431 8.95431 0 20 0C31.0457 0 40 8.95431 40 20C40 31.0457 31.0457 40 20 40C8.95431 40 0 31.0457 0 20Z" fill="#E94E0F"/>
<g clip-path="url(#clip1_769_24948)">
<path fill-rule="evenodd" clip-rule="evenodd" d="M0 -0.000976562H53.3333V39.999H0V-0.000976562Z" fill="#CE1126"/>
<path fill-rule="evenodd" clip-rule="evenodd" d="M0 -0.000976562H26.6667V19.999H0V-0.000976562Z" fill="#002B7F"/>
<path fill-rule="evenodd" clip-rule="evenodd" d="M15 19.1074L13.275 17.9407L11.6166 19.1157L12.1583 17.0407L10.575 15.774L12.6166 15.649L13.2917 13.6824L14.025 15.6824L16.025 15.7407L14.4417 17.099L15 19.1074ZM14.7 5.30736L13.3167 4.41569L11.9833 5.28236L12.35 3.61569L11.1333 2.55736L12.75 2.42402L13.35 0.874023L13.9667 2.43236L15.5583 2.57402L14.3333 3.69069L14.7 5.30736ZM8.61665 10.2657L7.28332 9.34902L5.89165 10.2657L6.32498 8.64902L5.06665 7.58236L6.66665 7.49902L7.24998 5.91569L7.81665 7.49069L9.44998 7.58236L8.19998 8.62402L8.61665 10.2657ZM20.8333 9.16569L19.55 8.33236L18.3 9.16569L18.6667 7.64069L17.5 6.65736L19.025 6.53236L19.55 5.09902L20.1333 6.54902L21.6083 6.63236L20.4667 7.65736L20.8333 9.16569ZM17.2416 12.7824L16.3833 12.249L15.525 12.799L15.75 11.774L14.9833 11.0824L15.9833 10.999L16.3666 10.0324L16.775 10.999L17.7667 11.0824L17.0083 11.774L17.2416 12.7824Z" fill="white"/>
</g>
</g>
<defs>
<clipPath id="clip0_769_24948">
<path d="M0 20C0 8.95431 8.95431 0 20 0C31.0457 0 40 8.95431 40 20C40 31.0457 31.0457 40 20 40C8.95431 40 0 31.0457 0 20Z" fill="white"/>
</clipPath>
<clipPath id="clip1_769_24948">
<rect width="53.3333" height="40" fill="white" transform="translate(0 -0.000976562)"/>
</clipPath>
</defs>
</svg>
