<svg width="40" height="40" viewBox="0 0 40 40" fill="none" xmlns="http://www.w3.org/2000/svg">
<g clip-path="url(#clip0_769_22431)">
<path d="M0 20C0 8.95431 8.95431 0 20 0C31.0457 0 40 8.95431 40 20C40 31.0457 31.0457 40 20 40C8.95431 40 0 31.0457 0 20Z" fill="#E94E0F"/>
<g clip-path="url(#clip1_769_22431)">
<path fill-rule="evenodd" clip-rule="evenodd" d="M-7 20.0005H46.3333V40.0005H-7V20.0005Z" fill="#19B6EF"/>
<path fill-rule="evenodd" clip-rule="evenodd" d="M-7 0.000488281H46.3333V20.0005H-7V0.000488281Z" fill="white"/>
<path fill-rule="evenodd" clip-rule="evenodd" d="M19.4166 28.2672C23.8 25.0005 28.5 18.3338 22.9916 14.8172C21.9666 14.6172 20.825 14.6755 20.2666 15.1172C19.975 14.9505 19.7416 14.9672 19.45 15.2755C19.2416 15.0255 19.0333 14.9088 18.6166 15.0338C18.2178 14.8194 17.7801 14.6869 17.3293 14.644C16.8786 14.601 16.4238 14.6486 15.9916 14.7838C11.1666 17.6505 14.1166 24.5005 19.4166 28.2588V28.2672Z" fill="#FFDD00" stroke="#7D6C00" stroke-width="0.2"/>
<path fill-rule="evenodd" clip-rule="evenodd" d="M27.5001 20.8421C27.5001 20.8421 28.0001 20.1755 28.0168 20.1755C28.5084 19.8921 28.5584 19.5171 28.5584 19.5171C29.0501 19.3671 28.8918 18.9588 28.9334 18.9088C29.0103 18.8335 29.0626 18.7367 29.0834 18.6311C29.1042 18.5255 29.0926 18.416 29.0501 18.3171C29.0501 18.2505 29.2167 17.6171 28.9834 17.5338C28.9917 16.8671 28.5834 16.9255 28.2501 17.3671C27.9001 17.4671 27.8251 17.7588 27.9501 18.0755C27.4918 18.0755 27.4751 18.7421 27.6084 19.1088C27.0001 19.0921 27.3334 19.7755 27.3168 19.8088C27.1168 19.9088 27.4751 20.8755 27.5084 20.8421H27.5001ZM23.6668 26.5255L23.9668 26.7088C24.0334 26.9421 24.2501 27.0921 24.4084 27.0505C24.4918 27.4088 24.8751 27.3588 25.1584 27.1505C25.3834 27.4838 25.6584 27.4838 26.0418 27.3755C26.3751 27.6255 26.8168 27.5171 27.1084 27.2588C27.4167 27.5088 27.6251 27.3255 27.7834 27.0505C28.0334 27.1172 28.2168 27.0755 28.3084 26.8338C28.7834 26.7921 28.5501 26.3421 28.1584 26.1505C28.4668 25.8838 28.8168 25.3171 28.3251 25.2338C28.1751 25.1255 27.8834 25.1505 27.6668 25.2505C27.6084 25.0005 27.2668 24.9422 26.8834 25.2171C26.7584 24.9422 26.3001 25.0755 26.0918 25.2672C25.8168 25.0338 25.4918 25.0338 25.0168 25.3005L23.6668 26.5255ZM23.6668 25.8005C23.7168 25.4838 23.5001 24.9171 23.8334 24.8671C23.7751 24.3421 23.8584 23.7588 24.4584 23.8088C24.5584 23.3172 24.5417 22.8588 25.1084 22.7921C25.1084 22.7921 25.5668 21.2005 26.0418 22.3005C26.2251 22.6255 26.1918 23.1505 25.8168 23.0505C25.8917 23.4422 25.7584 23.7921 25.3251 23.7755C25.5168 24.0588 25.4584 24.4338 25.2418 24.6088L23.6584 25.8005H23.6668ZM26.4251 23.8088L26.9251 23.7088C27.4251 23.3755 27.6334 23.2338 27.8834 23.6088C28.3084 23.5255 28.7168 23.5588 28.7001 23.8922C29.2001 23.9338 29.2001 24.2505 29.1418 24.5088C29.2251 24.9505 29.0251 25.5338 28.7251 24.8255C27.7334 24.2255 27.1751 24.3088 25.6168 24.6588L26.4251 23.8088ZM26.6834 23.3171C26.7001 23.3005 28.1418 22.9255 27.9918 22.4838C28.4001 22.4171 28.4834 22.0088 28.4918 22.0088C29.3501 21.7421 29.3001 21.2505 29.3001 21.2505C29.5418 20.9921 29.9668 20.7255 29.8751 20.2671C29.9001 19.7421 29.9501 19.4171 29.2418 19.7588C28.7168 19.7088 28.5334 20.0088 28.3834 20.4671C28.1334 20.1755 27.7334 20.6421 27.6834 21.0588C27.6834 21.0588 27.0418 21.6921 27.0418 21.7088L26.5001 22.7088L26.6834 23.3171Z" fill="#4FD46B" stroke="#3A9D4F" stroke-width="0.2" stroke-linejoin="round"/>
<path fill-rule="evenodd" clip-rule="evenodd" d="M26.7083 22.2005C26.3666 21.9421 26.1749 21.6255 26.2333 21.3171C26.0083 21.0088 25.8499 20.8255 26.0666 20.5505L25.8999 19.9255C25.4499 19.7588 25.6416 19.3838 25.7583 19.2505C25.5499 18.9588 25.5416 18.6505 25.7416 18.3838C25.7416 17.8421 26.1249 18.0505 26.4333 18.3838C26.4333 18.3838 26.9666 18.7588 26.5749 19.0921C26.9666 19.2338 27.0749 19.5671 26.8583 19.7088C27.1999 19.8588 27.2499 20.1671 27.0666 20.3755C27.4083 20.6421 27.2833 20.9921 27.3833 21.3005L26.7083 22.2005Z" fill="#4FD46B" stroke="#3A9D4F" stroke-width="0.2" stroke-linejoin="round"/>
<path fill-rule="evenodd" clip-rule="evenodd" d="M27.3165 19.6672C27.2999 19.6588 26.7415 18.9422 26.8999 18.8922C26.8582 18.6755 26.6915 18.4338 26.7915 18.2172C26.5165 17.9338 26.5082 17.6088 26.7249 17.3505C26.5415 17.1005 26.6249 16.7588 26.8749 16.5338C26.7915 16.1172 27.0915 16.0172 27.3499 15.9422C27.5415 15.2755 27.8499 15.4422 28.0332 15.9588C28.2999 16.1922 28.2582 16.5422 28.1665 16.8088C28.4832 17.0172 28.2915 17.2838 28.1499 17.3922L27.3165 19.6755V19.6672Z" fill="#4FD46B" stroke="#3A9D4F" stroke-width="0.2" stroke-linejoin="round"/>
<path fill-rule="evenodd" clip-rule="evenodd" d="M27.2333 16.0922L26.7583 15.6172C26.8833 15.3672 26.9833 14.9255 26.6249 14.7172C26.4249 14.2422 25.4416 13.6422 25.2833 14.7838C25.1333 14.4422 24.8166 14.1005 24.5916 14.5005C24.0749 14.0588 23.7999 14.1922 24.0666 14.7505C24.0666 14.7505 23.8249 15.1255 24.4499 15.4172C24.4999 15.4672 24.2499 16.0922 24.9999 16.1088C24.8583 16.3255 25.0833 16.6255 25.3833 16.6088C25.1749 16.8672 25.5333 17.1505 25.7583 17.0422C25.6666 17.3338 25.6749 17.4755 26.0833 17.5172L26.5416 18.0422L26.9166 18.5505L27.2333 16.0922Z" fill="#4FD46B" stroke="#3A9D4F" stroke-width="0.2" stroke-linejoin="round"/>
<path d="M25.3751 22.8255C25.3751 22.8588 23.8584 25.3505 23.8084 26.1588M27.5251 20.5422C27.5501 20.5172 28.4417 18.4755 28.5584 17.8588L27.5251 20.5422ZM27.6167 16.9172C27.6167 16.9172 27.7667 18.5838 27.3584 19.8005L27.6167 16.9172ZM24.8834 15.2422C24.8834 15.2422 26.7084 16.9922 26.8834 17.7172L24.8834 15.2422ZM26.1584 15.0505C26.1584 15.0505 26.2751 16.4922 26.7834 17.9088L26.1584 15.0505ZM29.3667 20.2755C29.3667 20.2755 27.5501 21.8172 26.6667 23.1672L29.3667 20.2755ZM27.6501 25.6672C27.6501 25.6672 25.2501 26.0005 24.2001 26.0255L27.6501 25.6672ZM26.8667 26.6922C26.8667 26.6922 23.8834 26.6255 23.6667 26.4088L26.8667 26.6922Z" stroke="#3A9D4F" stroke-width="0.183333" stroke-linecap="round"/>
<path fill-rule="evenodd" clip-rule="evenodd" d="M19.4084 27.7838C16.2584 24.8172 13.0334 19.2505 16.2417 16.4338C16.8084 16.7505 17.4834 16.4672 18.4084 16.1005C18.6917 16.4088 19.0501 16.4838 19.4084 16.2505C19.5557 16.3229 19.7227 16.345 19.8838 16.3134C20.0448 16.2818 20.1911 16.1982 20.3001 16.0755C21.2167 16.6005 22.3751 16.8755 22.6501 16.3505C25.8001 19.3505 22.6001 24.9505 19.4001 27.7922L19.4084 27.7838Z" fill="#65C7FF" stroke="#7D6C00" stroke-width="0.2"/>
<path fill-rule="evenodd" clip-rule="evenodd" d="M19.4166 27.7005C17.9794 26.3106 16.7876 24.6878 15.8916 22.9005C16.0583 22.7588 16.1333 22.7172 16.2166 22.4838C16.6999 22.5505 16.9583 22.5672 17.5916 22.4505C17.7249 22.9338 17.7499 23.3338 18.0499 23.7338L18.6916 22.4838C19.1428 22.5981 19.6154 22.5981 20.0666 22.4838C20.3333 22.8338 20.2333 23.3755 20.7083 23.7838C20.9916 22.9505 21.2666 22.9005 21.5499 22.4505C21.9666 22.6005 22.2333 22.5338 22.5749 22.4255C22.7416 22.6338 22.6583 22.6255 22.9916 22.9255C22.1094 24.7248 20.8999 26.344 19.4249 27.7005H19.4166Z" fill="#8FC753"/>
<path fill-rule="evenodd" clip-rule="evenodd" d="M15.7167 13.6921C15.7238 13.7328 15.7219 13.7746 15.7111 13.8145C15.7003 13.8543 15.6809 13.8914 15.6544 13.923C15.6278 13.9546 15.5946 13.98 15.5571 13.9974C15.5197 14.0149 15.4789 14.0239 15.4376 14.0239C15.3963 14.0239 15.3555 14.0149 15.318 13.9974C15.2806 13.98 15.2474 13.9546 15.2208 13.923C15.1942 13.8914 15.1748 13.8543 15.164 13.8145C15.1533 13.7746 15.1513 13.7328 15.1584 13.6921C15.1584 13.617 15.1882 13.5449 15.2414 13.4918C15.2945 13.4387 15.3666 13.4088 15.4417 13.4088C15.5169 13.4088 15.5889 13.4387 15.6421 13.4918C15.6952 13.5449 15.7251 13.617 15.7251 13.6921H15.7167ZM15.4251 13.0505C15.4354 13.0922 15.4361 13.1358 15.4272 13.1779C15.4182 13.2199 15.3997 13.2594 15.3732 13.2933C15.3467 13.3271 15.3129 13.3545 15.2742 13.3734C15.2355 13.3922 15.1931 13.402 15.1501 13.402C15.1071 13.402 15.0646 13.3922 15.0259 13.3734C14.9873 13.3545 14.9534 13.3271 14.9269 13.2933C14.9004 13.2594 14.882 13.2199 14.873 13.1779C14.864 13.1358 14.8647 13.0922 14.8751 13.0505C14.8865 12.9847 14.9207 12.9251 14.9718 12.8821C15.0229 12.8391 15.0875 12.8156 15.1542 12.8156C15.221 12.8156 15.2856 12.8391 15.3367 12.8821C15.3877 12.9251 15.422 12.9847 15.4334 13.0505H15.4251ZM15.0917 12.4588C15.0988 12.4995 15.0969 12.5413 15.0861 12.5811C15.0753 12.621 15.0559 12.6581 15.0294 12.6897C15.0028 12.7213 14.9696 12.7467 14.9321 12.7641C14.8947 12.7815 14.8539 12.7906 14.8126 12.7906C14.7713 12.7906 14.7305 12.7815 14.693 12.7641C14.6556 12.7467 14.6224 12.7213 14.5958 12.6897C14.5692 12.6581 14.5498 12.621 14.539 12.5811C14.5283 12.5413 14.5263 12.4995 14.5334 12.4588C14.5448 12.393 14.5791 12.3334 14.6301 12.2904C14.6812 12.2475 14.7458 12.2239 14.8126 12.2239C14.8793 12.2239 14.9439 12.2475 14.995 12.2904C15.0461 12.3334 15.0803 12.393 15.0917 12.4588ZM14.8584 11.8755C14.8655 11.9162 14.8635 11.9579 14.8528 11.9978C14.842 12.0377 14.8226 12.0747 14.796 12.1063C14.7694 12.1379 14.7362 12.1633 14.6988 12.1808C14.6613 12.1982 14.6205 12.2072 14.5792 12.2072C14.5379 12.2072 14.4971 12.1982 14.4597 12.1808C14.4222 12.1633 14.389 12.1379 14.3624 12.1063C14.3358 12.0747 14.3165 12.0377 14.3057 11.9978C14.2949 11.9579 14.293 11.9162 14.3001 11.8755C14.3115 11.8097 14.3457 11.7501 14.3968 11.7071C14.4479 11.6641 14.5125 11.6406 14.5792 11.6406C14.646 11.6406 14.7106 11.6641 14.7617 11.7071C14.8127 11.7501 14.847 11.8097 14.8584 11.8755ZM14.9001 11.2421C14.9071 11.2828 14.9052 11.3246 14.8944 11.3645C14.8836 11.4043 14.8643 11.4414 14.8377 11.473C14.8111 11.5046 14.7779 11.53 14.7405 11.5474C14.703 11.5649 14.6622 11.5739 14.6209 11.5739C14.5796 11.5739 14.5388 11.5649 14.5013 11.5474C14.4639 11.53 14.4307 11.5046 14.4041 11.473C14.3775 11.4414 14.3582 11.4043 14.3474 11.3645C14.3366 11.3246 14.3347 11.2828 14.3417 11.2421C14.3531 11.1764 14.3874 11.1168 14.4385 11.0738C14.4895 11.0308 14.5541 11.0072 14.6209 11.0072C14.6876 11.0072 14.7523 11.0308 14.8033 11.0738C14.8544 11.1168 14.8887 11.1764 14.9001 11.2421ZM16.3667 10.2005C16.3738 10.2412 16.3719 10.2829 16.3611 10.3228C16.3503 10.3627 16.3309 10.3997 16.3044 10.4313C16.2778 10.4629 16.2446 10.4883 16.2071 10.5058C16.1697 10.5232 16.1289 10.5322 16.0876 10.5322C16.0463 10.5322 16.0055 10.5232 15.968 10.5058C15.9306 10.4883 15.8974 10.4629 15.8708 10.4313C15.8442 10.3997 15.8248 10.3627 15.814 10.3228C15.8033 10.2829 15.8013 10.2412 15.8084 10.2005C15.8198 10.1347 15.8541 10.0751 15.9051 10.0321C15.9562 9.98913 16.0208 9.96556 16.0876 9.96556C16.1543 9.96556 16.2189 9.98913 16.27 10.0321C16.3211 10.0751 16.3553 10.1347 16.3667 10.2005Z" fill="white" stroke="black" stroke-width="0.0916667"/>
<path fill-rule="evenodd" clip-rule="evenodd" d="M15.8166 10.3005C15.8236 10.3412 15.8217 10.3829 15.8109 10.4228C15.8002 10.4627 15.7808 10.4997 15.7542 10.5313C15.7276 10.5629 15.6944 10.5883 15.657 10.6058C15.6195 10.6232 15.5787 10.6322 15.5374 10.6322C15.4961 10.6322 15.4553 10.6232 15.4179 10.6058C15.3804 10.5883 15.3472 10.5629 15.3206 10.5313C15.294 10.4997 15.2747 10.4627 15.2639 10.4228C15.2531 10.3829 15.2512 10.3412 15.2583 10.3005C15.2697 10.2347 15.3039 10.1751 15.355 10.1321C15.4061 10.0891 15.4707 10.0656 15.5374 10.0656C15.6042 10.0656 15.6688 10.0891 15.7198 10.1321C15.7709 10.1751 15.8052 10.2347 15.8166 10.3005ZM15.2083 10.6588C15.2153 10.6995 15.2134 10.7413 15.2026 10.7811C15.1918 10.821 15.1725 10.8581 15.1459 10.8897C15.1193 10.9213 15.0861 10.9467 15.0486 10.9641C15.0112 10.9815 14.9704 10.9906 14.9291 10.9906C14.8878 10.9906 14.847 10.9815 14.8095 10.9641C14.7721 10.9467 14.7389 10.9213 14.7123 10.8897C14.6857 10.8581 14.6663 10.821 14.6556 10.7811C14.6448 10.7413 14.6429 10.6995 14.6499 10.6588C14.6613 10.5931 14.6956 10.5334 14.7467 10.4904C14.7977 10.4475 14.8623 10.4239 14.9291 10.4239C14.9958 10.4239 15.0604 10.4475 15.1115 10.4904C15.1626 10.5334 15.1968 10.5931 15.2083 10.6588ZM17.0749 10.2088C17.0853 10.2506 17.086 10.2941 17.077 10.3362C17.068 10.3783 17.0496 10.4177 17.0231 10.4516C16.9966 10.4855 16.9627 10.5129 16.924 10.5317C16.8854 10.5506 16.8429 10.5604 16.7999 10.5604C16.7569 10.5604 16.7145 10.5506 16.6758 10.5317C16.6371 10.5129 16.6033 10.4855 16.5768 10.4516C16.5503 10.4177 16.5318 10.3783 16.5228 10.3362C16.5138 10.2941 16.5146 10.2506 16.5249 10.2088C16.5402 10.1474 16.5755 10.0929 16.6253 10.0539C16.6752 10.0149 16.7366 9.9937 16.7999 9.9937C16.8632 9.9937 16.9247 10.0149 16.9745 10.0539C17.0243 10.0929 17.0597 10.1474 17.0749 10.2088ZM17.8583 10.2755C17.8653 10.3162 17.8634 10.3579 17.8526 10.3978C17.8418 10.4377 17.8225 10.4747 17.7959 10.5063C17.7693 10.5379 17.7361 10.5633 17.6986 10.5808C17.6612 10.5982 17.6204 10.6072 17.5791 10.6072C17.5378 10.6072 17.497 10.5982 17.4595 10.5808C17.4221 10.5633 17.3889 10.5379 17.3623 10.5063C17.3357 10.4747 17.3163 10.4377 17.3056 10.3978C17.2948 10.3579 17.2929 10.3162 17.2999 10.2755C17.3113 10.2097 17.3456 10.1501 17.3967 10.1071C17.4477 10.0641 17.5123 10.0406 17.5791 10.0406C17.6458 10.0406 17.7104 10.0641 17.7615 10.1071C17.8126 10.1501 17.8468 10.2097 17.8583 10.2755ZM18.5416 10.2338C18.5519 10.2756 18.5527 10.3191 18.5437 10.3612C18.5347 10.4033 18.5163 10.4427 18.4897 10.4766C18.4632 10.5105 18.4294 10.5379 18.3907 10.5567C18.352 10.5756 18.3096 10.5854 18.2666 10.5854C18.2236 10.5854 18.1811 10.5756 18.1425 10.5567C18.1038 10.5379 18.0699 10.5105 18.0434 10.4766C18.0169 10.4427 17.9985 10.4033 17.9895 10.3612C17.9805 10.3191 17.9812 10.2756 17.9916 10.2338C18.003 10.1681 18.0373 10.1084 18.0883 10.0654C18.1394 10.0225 18.204 9.9989 18.2708 9.9989C18.3375 9.9989 18.4021 10.0225 18.4532 10.0654C18.5043 10.1084 18.5385 10.1681 18.5499 10.2338H18.5416Z" fill="white" stroke="black" stroke-width="0.0916667"/>
<path fill-rule="evenodd" clip-rule="evenodd" d="M20.1584 9.79215C20.1584 9.98222 20.0829 10.1645 19.9485 10.2989C19.8141 10.4333 19.6318 10.5088 19.4418 10.5088C19.2517 10.5088 19.0694 10.4333 18.935 10.2989C18.8006 10.1645 18.7251 9.98222 18.7251 9.79215C18.7251 9.60208 18.8006 9.41979 18.935 9.28539C19.0694 9.15099 19.2517 9.07549 19.4418 9.07549C19.6318 9.07549 19.8141 9.15099 19.9485 9.28539C20.0829 9.41979 20.1584 9.60208 20.1584 9.79215Z" fill="#FFDD00" stroke="#7D6C00" stroke-width="0.0916667"/>
<path fill-rule="evenodd" clip-rule="evenodd" d="M20.9168 10.2255C20.9168 10.3006 20.8869 10.3727 20.8338 10.4258C20.7806 10.479 20.7086 10.5088 20.6334 10.5088C20.5583 10.5088 20.4862 10.479 20.4331 10.4258C20.3799 10.3727 20.3501 10.3006 20.3501 10.2255C20.3615 10.1597 20.3958 10.1001 20.4468 10.0571C20.4979 10.0141 20.5625 9.99057 20.6293 9.99057C20.696 9.99057 20.7606 10.0141 20.8117 10.0571C20.8628 10.1001 20.897 10.1597 20.9084 10.2255H20.9168ZM21.6334 10.2838C21.6438 10.3256 21.6445 10.3691 21.6355 10.4112C21.6265 10.4533 21.6081 10.4927 21.5816 10.5266C21.5551 10.5605 21.5212 10.5879 21.4826 10.6067C21.4439 10.6256 21.4014 10.6354 21.3584 10.6354C21.3154 10.6354 21.273 10.6256 21.2343 10.6067C21.1956 10.5879 21.1618 10.5605 21.1353 10.5266C21.1088 10.4927 21.0903 10.4533 21.0813 10.4112C21.0724 10.3691 21.0731 10.3256 21.0834 10.2838C21.0948 10.2181 21.1291 10.1584 21.1802 10.1154C21.2312 10.0725 21.2958 10.0489 21.3626 10.0489C21.4293 10.0489 21.494 10.0725 21.545 10.1154C21.5961 10.1584 21.6304 10.2181 21.6418 10.2838H21.6334ZM22.3418 10.2505C22.3488 10.2912 22.3469 10.3329 22.3361 10.3728C22.3253 10.4127 22.306 10.4497 22.2794 10.4813C22.2528 10.5129 22.2196 10.5383 22.1822 10.5558C22.1447 10.5732 22.1039 10.5822 22.0626 10.5822C22.0213 10.5822 21.9805 10.5732 21.943 10.5558C21.9056 10.5383 21.8724 10.5129 21.8458 10.4813C21.8192 10.4497 21.7998 10.4127 21.7891 10.3728C21.7783 10.3329 21.7764 10.2912 21.7834 10.2505C21.7948 10.1847 21.8291 10.1251 21.8802 10.0821C21.9312 10.0391 21.9958 10.0156 22.0626 10.0156C22.1293 10.0156 22.194 10.0391 22.245 10.0821C22.2961 10.1251 22.3304 10.1847 22.3418 10.2505ZM22.9334 10.2255C22.9405 10.2662 22.9386 10.3079 22.9278 10.3478C22.917 10.3877 22.8976 10.4247 22.8711 10.4563C22.8445 10.4879 22.8113 10.5133 22.7738 10.5308C22.7364 10.5482 22.6956 10.5572 22.6543 10.5572C22.613 10.5572 22.5722 10.5482 22.5347 10.5308C22.4973 10.5133 22.4641 10.4879 22.4375 10.4563C22.4109 10.4247 22.3915 10.3877 22.3807 10.3478C22.37 10.3079 22.368 10.2662 22.3751 10.2255C22.3865 10.1597 22.4208 10.1001 22.4718 10.0571C22.5229 10.0141 22.5875 9.99057 22.6543 9.99057C22.721 9.99057 22.7856 10.0141 22.8367 10.0571C22.8878 10.1001 22.922 10.1597 22.9334 10.2255ZM23.6751 10.3088C23.6822 10.3495 23.6802 10.3913 23.6695 10.4311C23.6587 10.471 23.6393 10.5081 23.6127 10.5397C23.5861 10.5713 23.5529 10.5967 23.5155 10.6141C23.478 10.6315 23.4372 10.6406 23.3959 10.6406C23.3546 10.6406 23.3138 10.6315 23.2764 10.6141C23.2389 10.5967 23.2057 10.5713 23.1791 10.5397C23.1525 10.5081 23.1332 10.471 23.1224 10.4311C23.1116 10.3913 23.1097 10.3495 23.1168 10.3088C23.1282 10.2431 23.1624 10.1834 23.2135 10.1404C23.2646 10.0975 23.3292 10.0739 23.3959 10.0739C23.4627 10.0739 23.5273 10.0975 23.5784 10.1404C23.6294 10.1834 23.6637 10.2431 23.6751 10.3088ZM24.2584 10.6755C24.2655 10.7162 24.2636 10.7579 24.2528 10.7978C24.242 10.8377 24.2226 10.8747 24.1961 10.9063C24.1695 10.9379 24.1363 10.9633 24.0988 10.9808C24.0614 10.9982 24.0206 11.0072 23.9793 11.0072C23.938 11.0072 23.8972 10.9982 23.8597 10.9808C23.8223 10.9633 23.7891 10.9379 23.7625 10.9063C23.7359 10.8747 23.7165 10.8377 23.7057 10.7978C23.695 10.7579 23.693 10.7162 23.7001 10.6755C23.7115 10.6097 23.7458 10.5501 23.7968 10.5071C23.8479 10.4641 23.9125 10.4406 23.9793 10.4406C24.046 10.4406 24.1106 10.4641 24.1617 10.5071C24.2128 10.5501 24.247 10.6097 24.2584 10.6755Z" fill="white" stroke="black" stroke-width="0.0916667"/>
<path fill-rule="evenodd" clip-rule="evenodd" d="M15.45 12.6421L16.1666 14.0171H22.7666L23.5333 12.6921C23.0833 12.3838 22.7833 12.1505 22.1416 12.2921C21.7833 11.7755 21.3916 11.6838 20.8083 11.7338C20.6333 11.5588 20.475 11.4505 20.175 11.4005L18.7916 11.4421C18.425 11.4755 18.1416 11.7588 18.125 11.7588C17.5416 11.6838 17 11.7005 16.8583 12.2755C16.3166 12.1421 15.9416 12.2921 15.45 12.6421Z" fill="#E40000" stroke="#AC0000" stroke-width="0.2"/>
<path fill-rule="evenodd" clip-rule="evenodd" d="M24.5 11.2755C24.5071 11.3162 24.5052 11.3579 24.4944 11.3978C24.4836 11.4377 24.4643 11.4747 24.4377 11.5063C24.4111 11.5379 24.3779 11.5633 24.3404 11.5808C24.303 11.5982 24.2622 11.6072 24.2209 11.6072C24.1796 11.6072 24.1388 11.5982 24.1013 11.5808C24.0639 11.5633 24.0307 11.5379 24.0041 11.5063C23.9775 11.4747 23.9581 11.4377 23.9474 11.3978C23.9366 11.3579 23.9347 11.3162 23.9417 11.2755C23.9531 11.2097 23.9874 11.1501 24.0385 11.1071C24.0895 11.0641 24.1541 11.0406 24.2209 11.0406C24.2876 11.0406 24.3522 11.0641 24.4033 11.1071C24.4544 11.1501 24.4886 11.2097 24.5 11.2755ZM24.55 11.9422C24.5571 11.9829 24.5552 12.0246 24.5444 12.0645C24.5336 12.1044 24.5143 12.1414 24.4877 12.173C24.4611 12.2046 24.4279 12.23 24.3904 12.2474C24.353 12.2649 24.3122 12.2739 24.2709 12.2739C24.2296 12.2739 24.1888 12.2649 24.1513 12.2474C24.1139 12.23 24.0807 12.2046 24.0541 12.173C24.0275 12.1414 24.0081 12.1044 23.9974 12.0645C23.9866 12.0246 23.9847 11.9829 23.9917 11.9422C24.0031 11.8764 24.0374 11.8168 24.0885 11.7738C24.1395 11.7308 24.2041 11.7072 24.2709 11.7072C24.3376 11.7072 24.4022 11.7308 24.4533 11.7738C24.5044 11.8168 24.5386 11.8764 24.55 11.9422ZM24.3417 12.5422C24.3488 12.5829 24.3468 12.6246 24.3361 12.6645C24.3253 12.7044 24.3059 12.7414 24.2793 12.773C24.2527 12.8046 24.2196 12.83 24.1821 12.8474C24.1447 12.8649 24.1039 12.8739 24.0625 12.8739C24.0212 12.8739 23.9804 12.8649 23.943 12.8474C23.9055 12.83 23.8724 12.8046 23.8458 12.773C23.8192 12.7414 23.7998 12.7044 23.789 12.6645C23.7782 12.6246 23.7763 12.5829 23.7834 12.5422C23.7948 12.4764 23.829 12.4168 23.8801 12.3738C23.9312 12.3308 23.9958 12.3072 24.0625 12.3072C24.1293 12.3072 24.1939 12.3308 24.245 12.3738C24.2961 12.4168 24.3303 12.4764 24.3417 12.5422ZM24.0917 13.0422C24.0917 13.1173 24.0619 13.1894 24.0087 13.2425C23.9556 13.2956 23.8835 13.3255 23.8084 13.3255C23.7332 13.3255 23.6612 13.2956 23.608 13.2425C23.5549 13.1894 23.525 13.1173 23.525 13.0422C23.5365 12.9764 23.5707 12.9168 23.6218 12.8738C23.6729 12.8308 23.7375 12.8072 23.8042 12.8072C23.871 12.8072 23.9356 12.8308 23.9866 12.8738C24.0377 12.9168 24.072 12.9764 24.0834 13.0422H24.0917ZM23.7834 13.6672C23.7904 13.7079 23.7885 13.7496 23.7777 13.7895C23.767 13.8294 23.7476 13.8664 23.721 13.898C23.6944 13.9296 23.6612 13.955 23.6238 13.9724C23.5863 13.9899 23.5455 13.9989 23.5042 13.9989C23.4629 13.9989 23.4221 13.9899 23.3847 13.9724C23.3472 13.955 23.314 13.9296 23.2874 13.898C23.2608 13.8664 23.2415 13.8294 23.2307 13.7895C23.2199 13.7496 23.218 13.7079 23.225 13.6672C23.2365 13.6014 23.2707 13.5418 23.3218 13.4988C23.3729 13.4558 23.4375 13.4322 23.5042 13.4322C23.571 13.4322 23.6356 13.4558 23.6866 13.4988C23.7377 13.5418 23.772 13.6014 23.7834 13.6672ZM19.8834 12.8672C19.8834 12.9777 19.8395 13.0836 19.7613 13.1618C19.6832 13.2399 19.5772 13.2838 19.4667 13.2838C19.3562 13.2838 19.2502 13.2399 19.1721 13.1618C19.0939 13.0836 19.05 12.9777 19.05 12.8672C19.05 12.7567 19.0939 12.6507 19.1721 12.5725C19.2502 12.4944 19.3562 12.4505 19.4667 12.4505C19.5772 12.4505 19.6832 12.4944 19.7613 12.5725C19.8395 12.6507 19.8834 12.7567 19.8834 12.8672Z" fill="white" stroke="black" stroke-width="0.0916667"/>
<path fill-rule="evenodd" clip-rule="evenodd" d="M19.9668 11.9172C19.9668 12.0498 19.9141 12.1769 19.8204 12.2707C19.7266 12.3645 19.5994 12.4172 19.4668 12.4172C19.3342 12.4172 19.207 12.3645 19.1132 12.2707C19.0195 12.1769 18.9668 12.0498 18.9668 11.9172C18.9668 11.7846 19.0195 11.6574 19.1132 11.5636C19.207 11.4698 19.3342 11.4172 19.4668 11.4172C19.5994 11.4172 19.7266 11.4698 19.8204 11.5636C19.9141 11.6574 19.9668 11.7846 19.9668 11.9172Z" fill="white" stroke="black" stroke-width="0.0916667"/>
<path fill-rule="evenodd" clip-rule="evenodd" d="M19.8917 11.0005C19.8917 11.1198 19.8443 11.2343 19.7599 11.3187C19.6755 11.4031 19.561 11.4505 19.4417 11.4505C19.3224 11.4505 19.2079 11.4031 19.1235 11.3187C19.0391 11.2343 18.9917 11.1198 18.9917 11.0005C18.9917 10.8811 19.0391 10.7667 19.1235 10.6823C19.2079 10.5979 19.3224 10.5505 19.4417 10.5505C19.561 10.5505 19.6755 10.5979 19.7599 10.6823C19.8443 10.7667 19.8917 10.8811 19.8917 11.0005Z" fill="white" stroke="black" stroke-width="0.0916667"/>
<path fill-rule="evenodd" clip-rule="evenodd" d="M19.2917 9.08383V8.73383L18.9917 8.72549L19.0084 8.45883H19.2584V8.22549H19.6334V8.43383H19.925L19.9167 8.71716H19.6167V9.09216H19.2834L19.2917 9.08383Z" fill="#FFDD00" stroke="#7D6C00" stroke-width="0.0916667"/>
<path d="M16.1335 14.0172C15.5418 13.0172 14.6668 11.6505 15.2168 11.0588C15.9585 10.2172 17.7084 10.9755 18.8251 10.4922C18.9084 11.4422 18.6418 13.0255 19.0668 13.3505L18.6668 13.7005C18.4168 13.3922 17.9668 12.9672 17.4001 13.7172C17.0668 13.4338 16.7084 13.4838 16.5334 13.8588C16.3668 13.8838 16.3751 13.9505 16.1335 14.0172V14.0172ZM22.8001 13.9755C23.4001 12.9755 24.2668 11.6172 23.7251 11.0255C22.9751 10.1838 21.2251 10.9422 20.1168 10.4505C20.0334 11.4088 20.3001 12.9922 19.8668 13.3172L20.2668 13.6672C20.6585 13.1255 21.1335 13.1088 21.5418 13.6838C21.8668 13.4005 22.2001 13.4338 22.4085 13.8255C22.5751 13.8505 22.5585 13.9088 22.8085 13.9755H22.8001Z" stroke="#FFDD00" stroke-width="0.275"/>
<path fill-rule="evenodd" clip-rule="evenodd" d="M16.1083 14.7588C18.3066 14.5585 20.5185 14.5585 22.7167 14.7588L22.975 14.0088C20.6667 13.5922 19.075 13.5422 16.0583 13.9588L16.1083 14.7588Z" fill="#FFDD00" stroke="#7D6C00" stroke-width="0.2"/>
<path fill-rule="evenodd" clip-rule="evenodd" d="M19.175 27.4505L19.225 27.1005C19.4667 27.1672 19.6417 27.1422 19.8417 27.0672L20.0417 26.7588L19.8917 26.5838C19.7584 26.6088 19.6417 26.7338 19.5584 26.8422C19.425 26.8505 19.3084 26.7838 19.175 26.7588L19.05 26.2255C18.925 26.0755 18.6584 26.0838 18.7167 26.3505L18.7417 26.5588C18.7917 26.6838 18.8167 26.8588 18.9 26.9505V27.1672L19.175 27.4505ZM19.275 25.9255C19.1084 26.0088 18.8917 25.8588 18.6667 25.7672C18.4584 25.7588 18.3 25.9338 18.05 25.8755C18.1 25.7422 18.2084 25.7172 18.2834 25.6422C18.225 25.3005 18.4084 25.1838 18.4584 25.1838C18.5084 25.1838 18.7167 25.2338 18.7167 25.2338L18.9167 25.2588C19.0417 25.4838 19.2084 25.6755 19.275 25.9255Z" fill="#C76E2E"/>
<path fill-rule="evenodd" clip-rule="evenodd" d="M18.0665 30.5005C18.6499 29.5505 22.7499 27.6338 26.5999 23.4838C22.6832 27.2588 20.2332 28.1838 17.0332 30.4838L18.0665 30.5088V30.5005Z" fill="#FFE100" stroke="#E9BF00" stroke-width="0.2"/>
<path fill-rule="evenodd" clip-rule="evenodd" d="M23.7001 26.1005C23.7001 26.1801 23.6685 26.2564 23.6122 26.3126C23.556 26.3689 23.4797 26.4005 23.4001 26.4005C23.3205 26.4005 23.2442 26.3689 23.188 26.3126C23.1317 26.2564 23.1001 26.1801 23.1001 26.1005C23.1001 26.0209 23.1317 25.9446 23.188 25.8884C23.2442 25.8321 23.3205 25.8005 23.4001 25.8005C23.4797 25.8005 23.556 25.8321 23.6122 25.8884C23.6685 25.9446 23.7001 26.0209 23.7001 26.1005ZM26.5668 23.1922C26.5668 23.2817 26.5312 23.3675 26.4679 23.4308C26.4046 23.4941 26.3188 23.5297 26.2293 23.5297C26.1398 23.5297 26.0539 23.4941 25.9906 23.4308C25.9273 23.3675 25.8918 23.2817 25.8918 23.1922C25.8918 23.1037 25.9269 23.019 25.9894 22.9565C26.0519 22.8939 26.1367 22.8588 26.2251 22.8588C26.3135 22.8588 26.3983 22.8939 26.4608 22.9565C26.5233 23.019 26.5584 23.1037 26.5584 23.1922H26.5668ZM27.5168 20.7255C27.524 20.7685 27.5218 20.8126 27.5103 20.8546C27.4987 20.8967 27.4782 20.9357 27.45 20.969C27.4218 21.0023 27.3868 21.0291 27.3472 21.0474C27.3076 21.0658 27.2645 21.0753 27.2209 21.0753C27.1773 21.0753 27.1342 21.0658 27.0947 21.0474C27.0551 21.0291 27.02 21.0023 26.9919 20.969C26.9637 20.9357 26.9431 20.8967 26.9316 20.8546C26.9201 20.8126 26.9179 20.7685 26.9251 20.7255C26.9369 20.6555 26.9731 20.592 27.0272 20.5462C27.0814 20.5004 27.15 20.4753 27.2209 20.4753C27.2919 20.4753 27.3605 20.5004 27.4146 20.5462C27.4688 20.592 27.505 20.6555 27.5168 20.7255ZM26.5834 17.5255C26.5907 17.5685 26.5885 17.6126 26.5769 17.6546C26.5654 17.6967 26.5448 17.7357 26.5167 17.769C26.4885 17.8023 26.4534 17.8291 26.4139 17.8474C26.3743 17.8658 26.3312 17.8753 26.2876 17.8753C26.244 17.8753 26.2009 17.8658 26.1613 17.8474C26.1218 17.8291 26.0867 17.8023 26.0585 17.769C26.0304 17.7357 26.0098 17.6967 25.9983 17.6546C25.9867 17.6126 25.9845 17.5685 25.9918 17.5255C26.0035 17.4555 26.0397 17.392 26.0939 17.3462C26.148 17.3004 26.2167 17.2753 26.2876 17.2753C26.3585 17.2753 26.4272 17.3004 26.4813 17.3462C26.5355 17.392 26.5716 17.4555 26.5834 17.5255Z" fill="#9D4916" stroke="#68300E" stroke-width="0.0916667"/>
<path fill-rule="evenodd" clip-rule="evenodd" d="M16.2583 22.4672V21.2005L16.1333 21.1005V20.8005L16.3666 20.7755L16.4083 19.3588L16.2583 19.2755L16.2416 19.0422C16.2416 19.0422 16.4083 19.1088 16.4083 19.0672L16.45 18.7838C16.45 18.7838 16.3416 18.7672 16.3416 18.7255C16.3416 18.6838 16.475 18.5755 16.475 18.5755C16.475 18.5755 16.4083 18.5088 16.3916 18.4672L16.325 18.2338L16.3916 17.9922L16.35 17.8672L16.2416 17.6755L16.3916 17.5255L16.35 17.2922C16.3781 17.2053 16.4203 17.1237 16.475 17.0505C16.5 17.0338 16.6666 16.8005 16.6666 16.8005L17.0333 16.7172L17.4583 16.7755L17.6916 16.9255L17.7333 17.3088C17.7333 17.3088 17.6916 17.5422 17.675 17.5422L17.4833 17.6255C17.4833 17.6255 17.2666 17.6505 17.2416 17.6255C17.2166 17.6005 17.3083 17.8922 17.3083 17.8922V18.1422L17.2916 18.4672C17.2916 18.4672 17.2916 18.6172 17.2666 18.6338C17.2416 18.6505 17.2 18.7172 17.2 18.7172L17.1833 19.0505L17.5166 19.1338L17.5 19.3255L17.2666 19.3422L17.3083 20.6505L17.65 20.7088V21.0755L17.5 21.1588L17.4583 22.4672H16.2583ZM21.4583 22.4922V21.2255L21.3333 21.1172V20.8172L21.5666 20.8005L21.6083 19.3838L21.4583 19.3005L21.4416 19.0672C21.4416 19.0672 21.6083 19.1255 21.6083 19.0838L21.65 18.8088C21.65 18.8088 21.5416 18.7838 21.5416 18.7422C21.5416 18.7005 21.675 18.5922 21.675 18.5922C21.675 18.5922 21.6083 18.5338 21.5916 18.4838L21.525 18.2505L21.5916 18.0172L21.5416 17.8922L21.4416 17.7005L21.5916 17.5505L21.5416 17.3088C21.5732 17.2243 21.6182 17.1455 21.675 17.0755L21.8666 16.8255L22.2333 16.7338L22.6583 16.8005L22.8916 16.9505L22.9333 17.3338C22.9333 17.3338 22.8916 17.5672 22.875 17.5672L22.6833 17.6505C22.6833 17.6505 22.4666 17.6755 22.4416 17.6505C22.4166 17.6255 22.5083 17.9088 22.5083 17.9088V18.1672L22.4833 18.4922C22.4833 18.4922 22.4833 18.6338 22.4666 18.6588L22.4 18.7422L22.3833 19.0672L22.7166 19.1505L22.7 19.3422L22.4666 19.3672L22.5083 20.6672L22.85 20.7338V21.1005L22.7 21.1838L22.6583 22.4922H21.4583ZM18.825 22.5338V21.2672L18.7 21.1672V20.8588L18.9333 20.8422L18.975 19.4255L18.825 19.3422L18.8083 19.1088C18.8083 19.1088 18.975 19.1755 18.975 19.1338L19.0166 18.8505C19.0166 18.8505 18.9166 18.8338 18.9166 18.7922C18.9166 18.7505 19.0416 18.6338 19.0416 18.6338C19.0416 18.6338 18.975 18.5755 18.9583 18.5338L18.8916 18.2922L18.9583 18.0588L18.9166 17.9338L18.8083 17.7422L18.9583 17.5922L18.9166 17.3505C18.9441 17.2659 18.9865 17.1869 19.0416 17.1172C19.0666 17.1005 19.2333 16.8672 19.2333 16.8672L19.6 16.7838L20.025 16.8422L20.2583 16.9922L20.3083 17.3755C20.3083 17.3755 20.2583 17.6088 20.2416 17.6088L20.05 17.6922C20.05 17.6922 19.8333 17.7172 19.8166 17.6922C19.8 17.6672 19.875 17.9505 19.875 17.9505V18.2088L19.8583 18.5338C19.8583 18.5338 19.8583 18.6838 19.8333 18.7005L19.7666 18.7838L19.75 19.1088L20.0833 19.1922L20.0666 19.3838L19.8333 19.4088L19.875 20.7172L20.2166 20.7755V21.1422L20.0666 21.2255L20.025 22.5338H18.8333H18.825Z" fill="white" stroke="#A9A9A9" stroke-width="0.0916667"/>
<path fill-rule="evenodd" clip-rule="evenodd" d="M16.5833 22.4588V21.4588H17.1333V22.5005L16.575 22.4588H16.5833ZM19.2 22.5422L19.225 21.5255H19.725V22.5172L19.2 22.5338V22.5422ZM21.7833 22.5172L21.75 21.5588L22.2916 21.5422V22.5422L21.7916 22.5172H21.7833ZM16.7166 19.5172H17.0333V20.0255H16.7166V19.5172ZM19.2416 19.5338H19.6833V20.0338H19.2416V19.5338ZM21.825 19.5755H22.2083V20.0505H21.8333L21.825 19.5755Z" fill="black"/>
<path d="M22.1666 17.3088C22.1666 17.3088 22.275 17.6088 22.4166 17.6505M16.8833 17.2505C17.2166 17.6338 17.2416 17.6338 17.2416 17.6338L16.8833 17.2505ZM19.425 17.2505C19.4916 17.3755 19.5916 17.6505 19.725 17.6755L19.425 17.2505Z" stroke="#A8A8A8" stroke-width="0.0916667"/>
<path fill-rule="evenodd" clip-rule="evenodd" d="M16.5167 16.1672C17.5167 15.8422 16.2834 15.2005 16.0751 16.1672C15.7584 16.2255 15.7167 16.4588 15.0167 16.3588C13.3167 19.1088 14.5751 23.5672 19.5251 28.1755C10.6584 20.6255 14.2584 15.0422 16.7167 15.2588C18.0501 15.3422 17.3834 17.0088 16.5167 16.1755V16.1672Z" fill="#B97700"/>
<path d="M18.6417 15.6588C18.6417 15.6338 19.025 15.5755 19.1417 15.7922M16.8 14.7505C16.8 14.7505 17.6084 14.9755 17.6084 15.3172L16.8 14.7505ZM17.6084 14.6922C17.6084 14.6922 18.175 14.9422 18.3 15.1588L17.6084 14.6922ZM22.0584 14.7838C22.0584 14.7838 21.3417 14.8838 21.1834 15.1005L22.0584 14.7838ZM20.9667 14.8505C20.9667 14.8505 20.55 15.1922 20.5917 15.2922L20.9667 14.8505ZM20.875 16.3505C20.8084 16.3255 20.525 15.9422 20.5917 15.4755L20.875 16.3505ZM18.1084 16.1005C18.1084 16.1005 18.3 15.8838 18.3 15.4755L18.1084 16.1005ZM19.425 15.3172L19.4584 16.2338L19.425 15.3172ZM20.2417 16.1005C20.2417 16.0422 20.4917 15.4422 20.2084 15.1588L20.2417 16.1005ZM18.5167 15.0338C18.5167 15.0338 18.3 15.6338 18.4584 16.1338L18.5167 15.0338ZM20.125 15.5672C20.125 15.5672 19.775 15.6672 19.625 15.8172L20.125 15.5672Z" stroke="#7D6C00" stroke-width="0.2"/>
<path fill-rule="evenodd" clip-rule="evenodd" d="M18.0501 25.1588C18.0667 25.1588 18.3667 25.1005 18.3667 24.9588C18.5167 24.8588 18.4084 24.5838 18.4084 24.5838L18.1251 24.5338L17.7417 24.1005C17.7251 23.9672 17.7667 23.8422 17.6834 23.7005C17.4167 23.7672 17.2667 23.9922 17.1834 24.2422C17.2417 24.3255 17.2501 24.4088 17.3751 24.4838C17.5001 24.5005 17.5834 24.4255 17.7001 24.4505C17.7584 24.5588 17.7417 24.6505 17.7667 24.7505C17.9251 24.8588 17.9584 25.0172 18.0501 25.1588ZM17.7084 23.3088V22.7922L17.3417 22.7755C17.2917 22.8588 17.2084 22.8922 17.1584 22.9588L16.9001 23.0922C17.0084 23.2172 17.1417 23.2922 17.2167 23.3588C17.4084 23.4088 17.5584 23.4088 17.7084 23.3088ZM16.5584 24.0672L16.3584 23.7338C16.4881 23.698 16.626 23.7068 16.7501 23.7588C16.7501 23.7588 16.8334 23.9672 16.7751 24.0422C16.7417 24.1172 16.5501 24.0838 16.5584 24.0672ZM19.6001 24.4088C19.657 24.3845 19.7072 24.3469 19.7464 24.299C19.7855 24.2511 19.8125 24.1944 19.8251 24.1338L19.4501 23.7088L19.1167 23.7005C19.0334 23.6172 18.9167 23.6005 18.8167 23.6005C18.8167 23.6005 18.9167 23.7672 19.0501 23.7922C19.1501 24.0088 19.5667 24.4088 19.6001 24.4088ZM19.9584 24.4588C19.9584 24.4505 20.2917 24.3422 20.4584 24.3505C20.4501 24.2172 20.7084 23.9088 20.7084 23.9088L21.1751 24.5172C21.0917 24.5838 20.9417 24.5672 20.8251 24.5838C20.8251 24.5838 20.6001 24.8005 20.5751 24.8088C20.5501 24.8172 20.1417 24.9172 19.9417 24.7922C19.8584 24.6255 19.9667 24.4338 19.9584 24.4588ZM20.2251 23.3922C20.2835 23.1851 20.2835 22.9659 20.2251 22.7588H19.6917L19.3417 22.9255C19.3417 22.9255 19.4501 23.2755 19.5917 23.2422C19.6501 23.4172 19.8334 23.3755 19.9251 23.4422L20.2251 23.3922ZM22.3001 22.8588C22.2167 23.0838 22.1834 23.3172 22.2834 23.5255C22.3834 23.5505 22.5001 23.6088 22.5834 23.5922L23.0084 22.8255C22.7167 22.7338 22.4751 22.7422 22.2917 22.8588H22.3001Z" fill="#C76E2E"/>
<path fill-rule="evenodd" clip-rule="evenodd" d="M22.4251 16.1005C21.4251 15.7755 22.6584 15.1255 22.8667 16.1005C23.1917 16.1505 23.2334 16.3922 23.9334 16.2922C25.6251 19.0422 24.3667 23.5005 19.4167 28.1088C28.2917 20.5588 24.6834 14.9755 22.2251 15.1838C20.8917 15.2672 21.5584 16.9338 22.4251 16.1005Z" fill="#B97700"/>
<path fill-rule="evenodd" clip-rule="evenodd" d="M22.5251 23.7255C22.5085 23.7255 22.2751 23.8922 22.2751 23.8922L21.9251 24.0338L21.5585 24.0422L21.4751 23.7922L21.7585 23.5422C21.5251 23.5005 21.2835 23.6005 21.0918 23.7755C21.0918 23.7755 21.0918 24.0505 21.2585 24.1922C21.3501 24.3088 21.6335 24.5255 21.6335 24.5255C21.7102 24.5427 21.7896 24.5441 21.867 24.5298C21.9443 24.5155 22.0179 24.4857 22.0835 24.4422L22.5251 23.7255ZM20.5918 26.2338C20.7085 26.2672 21.5335 25.1755 21.5335 25.1755C21.4588 24.9794 21.313 24.8188 21.1251 24.7255C21.1251 24.7255 20.7251 25.2005 20.7168 25.3588C20.6501 25.5005 20.4668 26.0505 20.5501 26.1255C20.5418 26.1422 20.5085 26.3672 20.5918 26.2338Z" fill="#C76E2E"/>
<path fill-rule="evenodd" clip-rule="evenodd" d="M15.2001 26.4505C13.9668 25.3755 12.3001 24.7838 9.9751 25.5922C10.6001 25.8588 11.2751 25.9505 11.8501 26.2505L15.2001 26.4505Z" fill="#006800" stroke="#004100" stroke-width="0.2" stroke-linejoin="round"/>
<path d="M11.6167 25.6922C14.0584 25.7422 14.7667 26.3505 14.6417 26.2505" stroke="#00A400" stroke-width="0.183333" stroke-linecap="round"/>
<path fill-rule="evenodd" clip-rule="evenodd" d="M15.25 26.5838C14.5166 26.7172 13.5167 27.4172 13.2167 27.3922C12.425 27.3005 11.675 26.9755 10.9083 26.7255C10.5916 26.6255 10.2667 26.7255 9.94165 26.7255C12.675 25.4338 13.6083 25.6088 15.25 26.5755V26.5838Z" fill="#006800" stroke="#004100" stroke-width="0.183333" stroke-linejoin="round"/>
<path fill-rule="evenodd" clip-rule="evenodd" d="M13.45 24.6672C13.45 24.6672 12.5333 24.8005 12.125 24.8255C11.725 24.8005 11.125 24.4255 10.475 23.7421C10.1417 23.3588 9.35835 23.4088 9.35835 23.4088C11.075 23.0421 12.4167 23.3922 13.4417 24.6755L13.45 24.6672ZM12.2 22.9005C10.9583 22.8171 9.40835 21.7088 9.05835 20.3838C9.05835 20.4005 9.51668 20.6755 9.44168 20.7421C11.475 21.2588 11.6083 21.6755 12.2 22.9005ZM14.2833 25.0255C14.4583 23.9005 14.5084 23.1588 13.9834 22.4921C13.5417 21.9921 13.4333 21.6838 13.1167 20.9672C13.025 22.4505 12.7 23.6755 14.2833 25.0255ZM12.3333 21.9172C13.25 20.5755 13.4167 19.5588 13.2667 17.9588C13.2417 18.0838 12.9334 18.8755 12.9167 18.8755C11.5417 19.7338 12.15 21.0838 12.3333 21.9172Z" fill="#006800" stroke="#004100" stroke-width="0.2" stroke-linejoin="round"/>
<path fill-rule="evenodd" clip-rule="evenodd" d="M11.5167 15.4172C12.4334 16.7588 12.3001 18.0255 12.1501 19.6255C12.1251 19.5005 11.8167 18.7088 11.8001 18.7088C10.4251 17.8505 11.3417 16.2505 11.5167 15.4172Z" fill="#006800" stroke="#004100" stroke-width="0.2" stroke-linejoin="round"/>
<path fill-rule="evenodd" clip-rule="evenodd" d="M12.2749 17.5005C14.5082 16.3671 13.6499 14.9421 14.0582 13.8338C12.5082 14.9921 12.3082 16.2171 12.2832 17.5005H12.2749Z" fill="#006800" stroke="#004100" stroke-width="0.2" stroke-linejoin="round"/>
<path d="M11.9167 18.8671C11.8667 18.3088 11.5833 16.8088 11.5583 16.6588M12.5833 17.2172C12.8667 16.4255 13.4167 15.0838 13.475 15.0838L12.5833 17.2172Z" stroke="#00A400" stroke-width="0.183333" stroke-linecap="round"/>
<path fill-rule="evenodd" clip-rule="evenodd" d="M12.0249 21.3755C10.7749 21.2922 9.44159 19.6005 9.08325 18.2838C9.08325 18.3005 9.54159 18.5672 9.46659 18.6338C11.2499 19.4338 11.4333 20.1505 12.0249 21.3755ZM11.6583 20.2088C10.7416 18.8672 10.5749 17.8505 10.7166 16.2505C10.7416 16.3755 11.0499 17.1672 11.0749 17.1672C12.4416 18.0255 11.8333 19.3755 11.6583 20.2088ZM12.4833 17.8505C14.7916 16.8255 14.0833 15.7505 14.7666 14.6255C13.2166 15.7755 12.5083 16.5755 12.4833 17.8505Z" fill="#006800" stroke="#004100" stroke-width="0.2" stroke-linejoin="round"/>
<path d="M12.5833 17.6172C13.1072 17.1243 13.5365 16.5397 13.8499 15.8922" stroke="#00A400" stroke-width="0.183333" stroke-linecap="round"/>
<path fill-rule="evenodd" clip-rule="evenodd" d="M20.8 30.5339L21.9166 30.5505C18.1916 27.0505 11.0416 25.5339 12.0333 19.1005C11.0083 26.0755 17.875 26.7255 20.8 30.5339Z" fill="#FFE100" stroke="#E9BF00" stroke-width="0.2"/>
<path fill-rule="evenodd" clip-rule="evenodd" d="M12.6168 17.7255C12.6168 17.8205 12.579 17.9117 12.5118 17.9789C12.4446 18.0461 12.3535 18.0838 12.2584 18.0838C12.1634 18.0838 12.0723 18.0461 12.0051 17.9789C11.9379 17.9117 11.9001 17.8205 11.9001 17.7255C11.9001 17.6305 11.9379 17.5393 12.0051 17.4721C12.0723 17.4049 12.1634 17.3672 12.2584 17.3672C12.3535 17.3672 12.4446 17.4049 12.5118 17.4721C12.579 17.5393 12.6168 17.6305 12.6168 17.7255ZM12.4001 19.6922C12.4001 19.7817 12.3645 19.8675 12.3012 19.9308C12.238 19.9941 12.1521 20.0297 12.0626 20.0297C11.9731 20.0297 11.8872 19.9941 11.8239 19.9308C11.7607 19.8675 11.7251 19.7817 11.7251 19.6922C11.7251 19.6038 11.7602 19.519 11.8227 19.4565C11.8852 19.3939 11.97 19.3588 12.0584 19.3588C12.1468 19.3588 12.2316 19.3939 12.2941 19.4565C12.3566 19.519 12.3918 19.6038 12.3918 19.6922H12.4001ZM12.7168 22.5005C12.7168 22.5399 12.709 22.5789 12.6939 22.6153C12.6789 22.6517 12.6568 22.6848 12.6289 22.7126C12.601 22.7405 12.568 22.7626 12.5316 22.7777C12.4952 22.7927 12.4562 22.8005 12.4168 22.8005C12.3774 22.8005 12.3384 22.7927 12.302 22.7777C12.2656 22.7626 12.2325 22.7405 12.2046 22.7126C12.1768 22.6848 12.1547 22.6517 12.1396 22.6153C12.1245 22.5789 12.1168 22.5399 12.1168 22.5005C12.1168 22.4209 12.1484 22.3446 12.2046 22.2884C12.2609 22.2321 12.3372 22.2005 12.4168 22.2005C12.4963 22.2005 12.5726 22.2321 12.6289 22.2884C12.6852 22.3446 12.7168 22.4209 12.7168 22.5005ZM15.3251 25.6005C15.3251 25.6801 15.2935 25.7564 15.2372 25.8126C15.181 25.8689 15.1047 25.9005 15.0251 25.9005C14.9455 25.9005 14.8692 25.8689 14.813 25.8126C14.7567 25.7564 14.7251 25.6801 14.7251 25.6005C14.7251 25.5209 14.7567 25.4446 14.813 25.3884C14.8692 25.3321 14.9455 25.3005 15.0251 25.3005C15.1047 25.3005 15.181 25.3321 15.2372 25.3884C15.2935 25.4446 15.3251 25.5209 15.3251 25.6005ZM15.7001 26.4922C15.7001 26.5717 15.6685 26.648 15.6122 26.7043C15.556 26.7606 15.4797 26.7922 15.4001 26.7922C15.3205 26.7922 15.2442 26.7606 15.188 26.7043C15.1317 26.648 15.1001 26.5717 15.1001 26.4922C15.1001 26.4126 15.1317 26.3363 15.188 26.28C15.2442 26.2238 15.3205 26.1922 15.4001 26.1922C15.4797 26.1922 15.556 26.2238 15.6122 26.28C15.6685 26.3363 15.7001 26.4126 15.7001 26.4922Z" fill="#9D4916" stroke="#68300E" stroke-width="0.0916667"/>
<path fill-rule="evenodd" clip-rule="evenodd" d="M17.0164 29.0838C16.8454 28.958 16.708 28.792 16.6164 28.6004L15.4498 28.4754L15.4331 29.1421L17.0164 29.0838Z" fill="white" stroke="black" stroke-width="0.0916667"/>
<path fill-rule="evenodd" clip-rule="evenodd" d="M8.44128 28.3004C9.12461 28.4254 10.1496 28.2338 10.4829 28.6754C10.8829 29.1254 9.22461 29.8338 9.45794 30.2254C9.97461 30.7671 10.4996 30.5421 11.0746 30.2421C11.2163 29.9504 11.3246 29.4254 11.3913 29.2671C11.1829 28.7921 10.6163 28.5504 10.7663 27.8254C11.7079 27.4754 13.5329 27.5004 13.7329 27.6421C13.8829 27.9421 13.7413 28.0754 13.7746 28.3171C13.6163 28.6254 13.2163 29.1338 13.2163 29.4088C14.2163 29.7588 14.4663 29.3588 15.3663 29.3754C16.4163 29.3921 17.0496 29.6754 17.2829 29.2588C17.1163 28.8921 16.1579 29.1921 15.7996 28.9588C15.6163 28.9004 15.4996 28.7504 15.3413 28.5921C15.1829 28.4338 14.7413 28.4254 14.6746 28.0171C14.8579 27.1671 16.0913 27.3004 16.2829 27.1671L19.4829 27.3921C20.0663 27.3754 20.3996 28.4171 19.6079 28.7254C18.8246 29.0421 16.5163 28.2671 15.5079 28.8004C15.4579 28.5838 14.7329 28.2504 14.6829 28.2421C14.3746 28.3254 13.7746 28.3004 13.7746 28.3004C13.6329 28.5671 13.4579 28.7671 13.3163 29.0421C12.6496 28.7504 12.0246 29.2671 11.2996 29.1171L10.1663 29.2421L9.44961 29.1754L8.34961 29.4921L9.13294 28.8004L8.44128 28.3004Z" fill="white" stroke="black" stroke-width="0.0916667" stroke-linejoin="round"/>
<path fill-rule="evenodd" clip-rule="evenodd" d="M8.39134 28.1671C8.39134 28.2467 8.35973 28.323 8.30347 28.3792C8.24721 28.4355 8.17091 28.4671 8.09134 28.4671C8.01178 28.4671 7.93547 28.4355 7.87921 28.3792C7.82295 28.323 7.79134 28.2467 7.79134 28.1671C7.79134 28.0875 7.82295 28.0112 7.87921 27.955C7.93547 27.8987 8.01178 27.8671 8.09134 27.8671C8.17091 27.8671 8.24721 27.8987 8.30347 27.955C8.35973 28.0112 8.39134 28.0875 8.39134 28.1671ZM8.30801 29.6671C8.30801 29.7467 8.2764 29.823 8.22014 29.8792C8.16388 29.9355 8.08757 29.9671 8.00801 29.9671C7.92844 29.9671 7.85214 29.9355 7.79588 29.8792C7.73961 29.823 7.70801 29.7467 7.70801 29.6671C7.70801 29.5864 7.74005 29.5091 7.7971 29.452C7.85414 29.395 7.9315 29.3629 8.01217 29.3629C8.09284 29.3629 8.17021 29.395 8.22725 29.452C8.2843 29.5091 8.31634 29.5864 8.31634 29.6671H8.30801Z" fill="white" stroke="black" stroke-width="0.0916667"/>
<path fill-rule="evenodd" clip-rule="evenodd" d="M21.8582 29.0922C22.0498 28.9172 22.1748 28.8005 22.2498 28.6088L23.4165 28.4755L23.4415 29.1422L21.8582 29.0922Z" fill="white" stroke="black" stroke-width="0.0916667"/>
<path fill-rule="evenodd" clip-rule="evenodd" d="M30.4248 28.3005C29.7498 28.4255 28.7248 28.2421 28.3915 28.6755C27.9831 29.1338 29.6415 29.8421 29.4081 30.2255C28.8915 30.7755 28.3665 30.5505 27.7915 30.2505C27.6581 29.9588 27.5498 29.4338 27.4748 29.2755C27.6915 28.7921 28.2498 28.5588 28.1081 27.8338C27.1581 27.4755 25.3331 27.5005 25.1415 27.6421C24.9831 27.9505 25.1248 28.0838 25.0915 28.3255C25.2581 28.6255 25.6581 29.1421 25.6581 29.4088C24.6581 29.7671 24.3998 29.3588 23.5081 29.3838C22.4581 29.4005 21.8165 29.6755 21.5915 29.2588C21.7498 28.9005 22.7081 29.1921 23.0748 28.9671C23.2581 28.9005 23.3748 28.7588 23.5331 28.5921C23.6915 28.4255 24.1331 28.4255 24.1998 28.0255C24.0165 27.1755 22.7831 27.3005 22.5831 27.1755L19.3831 27.3921C18.7998 27.3755 18.4748 28.4171 19.2581 28.7338C20.0415 29.0505 22.3581 28.2671 23.3581 28.8005C23.4165 28.5838 24.1331 28.2588 24.1915 28.2421C24.4915 28.3338 25.0915 28.3005 25.0915 28.3005C25.2415 28.5755 25.4081 28.7755 25.5581 29.0505C26.2248 28.7505 26.8498 29.2755 27.5748 29.1171L28.6998 29.2421L29.4248 29.1838L30.5248 29.4921L29.7415 28.8088L30.4248 28.3088V28.3005Z" fill="white" stroke="black" stroke-width="0.0916667" stroke-linejoin="round"/>
<path fill-rule="evenodd" clip-rule="evenodd" d="M30.4749 28.1672C30.4749 28.2478 30.5069 28.3252 30.5639 28.3822C30.621 28.4393 30.6983 28.4713 30.779 28.4713C30.8597 28.4713 30.9371 28.4393 30.9941 28.3822C31.0511 28.3252 31.0832 28.2478 31.0832 28.1672C31.0832 28.0865 31.0511 28.0091 30.9941 27.9521C30.9371 27.895 30.8597 27.863 30.779 27.863C30.6983 27.863 30.621 27.895 30.5639 27.9521C30.5069 28.0091 30.4749 28.0865 30.4749 28.1672ZM30.5582 29.6672C30.5582 29.7467 30.5898 29.823 30.6461 29.8793C30.7023 29.9356 30.7786 29.9672 30.8582 29.9672C30.9377 29.9672 31.0141 29.9356 31.0703 29.8793C31.1266 29.823 31.1582 29.7467 31.1582 29.6672C31.1582 29.5876 31.1266 29.5113 31.0703 29.455C31.0141 29.3988 30.9377 29.3672 30.8582 29.3672C30.7786 29.3672 30.7023 29.3988 30.6461 29.455C30.5898 29.5113 30.5582 29.5876 30.5582 29.6672Z" fill="white" stroke="black" stroke-width="0.0916667"/>
<path fill-rule="evenodd" clip-rule="evenodd" d="M19.4164 27.4421C19.1497 27.3921 19.0497 27.4088 18.8664 27.3921L18.4414 28.7088C19.1081 28.7671 19.7164 28.7671 19.7164 28.7671C19.3164 28.6838 19.4081 27.4505 19.4164 27.4421Z" fill="white"/>
<path d="M16.6108 28.1013V27.2076H16.7694V27.9603H17.1732V28.1013H16.6108Z" fill="black"/>
<path d="M17.3079 28.1429V27.2493H17.4665V28.1429H17.3079Z" fill="black"/>
<path d="M18.0083 28.2123H17.7351V27.3193C17.8554 27.3136 17.9398 27.3107 17.9882 27.3107C18.0809 27.3107 18.1533 27.3307 18.2054 27.3705C18.2578 27.41 18.2841 27.4665 18.2841 27.5401C18.2841 27.6109 18.2466 27.6668 18.1718 27.7078C18.2828 27.7465 18.3383 27.8262 18.3383 27.947C18.3383 28.0283 18.3076 28.093 18.2462 28.1409C18.1848 28.1885 18.1055 28.2123 18.0083 28.2123ZM17.8937 27.4462V27.6603C17.9181 27.6619 17.9437 27.6627 17.9705 27.6627C18.0738 27.6627 18.1255 27.6239 18.1255 27.5462C18.1255 27.4775 18.0785 27.4431 17.9845 27.4431C17.9597 27.4431 17.9294 27.4441 17.8937 27.4462ZM17.8937 27.7841V28.0793C17.9258 28.0822 17.9518 28.0836 17.9717 28.0836C18.0425 28.0836 18.0937 28.0716 18.1255 28.0476C18.1576 28.0236 18.1736 27.9838 18.1736 27.9281C18.1736 27.8772 18.1588 27.8402 18.1291 27.817C18.0994 27.7939 18.0476 27.7823 17.9736 27.7823C17.9581 27.7823 17.9315 27.7829 17.8937 27.7841Z" fill="black"/>
<path d="M18.7127 27.5151V27.7243H19.008V27.8591H18.7127V28.1269H19.1178V28.2678H18.5541V27.3742H19.1245V27.5151H18.7127Z" fill="black"/>
<path d="M19.8493 28.2817L19.6108 27.9127C19.5868 27.9123 19.5532 27.9108 19.5101 27.9084V28.2817H19.3454V27.3881C19.3544 27.3881 19.3887 27.3866 19.4485 27.3838C19.5083 27.3805 19.5565 27.3789 19.5931 27.3789C19.82 27.3789 19.9334 27.4668 19.9334 27.6424C19.9334 27.6953 19.9178 27.7435 19.8865 27.787C19.8552 27.8305 19.8157 27.8612 19.7681 27.8791L20.0323 28.2817H19.8493ZM19.5101 27.5259V27.7742C19.5394 27.7766 19.5618 27.7778 19.5772 27.7778C19.6435 27.7778 19.6919 27.7685 19.7224 27.7498C19.7533 27.7311 19.7687 27.6947 19.7687 27.6406C19.7687 27.5967 19.7523 27.566 19.7193 27.5485C19.6864 27.531 19.6345 27.5223 19.5638 27.5223C19.5467 27.5223 19.5288 27.5235 19.5101 27.5259Z" fill="black"/>
<path d="M20.4863 27.5012V28.254H20.3277V27.5012H20.0434V27.3603H20.7834V27.5012H20.4863Z" fill="black"/>
<path d="M21.3938 28.129L21.3285 27.9479H21.0223L20.9601 28.129H20.7838L21.1401 27.2232H21.2096L21.5689 28.129H21.3938ZM21.1748 27.4965L21.0675 27.8265H21.2822L21.1748 27.4965Z" fill="black"/>
<path d="M21.6902 28.0518L21.7487 27.9097C21.8113 27.9536 21.873 27.9756 21.9335 27.9756C22.0267 27.9756 22.0732 27.9431 22.0732 27.878C22.0732 27.8475 22.0623 27.8184 22.0403 27.7908C22.0183 27.7631 21.973 27.7322 21.9043 27.698C21.8359 27.6635 21.7898 27.6352 21.7658 27.6133C21.7422 27.5909 21.7239 27.5645 21.7109 27.534C21.6983 27.5035 21.692 27.4697 21.692 27.4327C21.692 27.3636 21.7172 27.3062 21.7676 27.2607C21.8185 27.2151 21.8835 27.1924 21.9628 27.1924C22.0661 27.1924 22.142 27.2117 22.1904 27.2503L22.1422 27.387C22.0865 27.3471 22.0277 27.3272 21.9659 27.3272C21.9293 27.3272 21.9008 27.3369 21.8805 27.3565C21.8605 27.3756 21.8506 27.4006 21.8506 27.4315C21.8506 27.4827 21.9073 27.536 22.0208 27.5913C22.0806 27.6206 22.1237 27.6476 22.1501 27.6724C22.1765 27.6968 22.1967 27.7255 22.2105 27.7584C22.2243 27.791 22.2312 27.8274 22.2312 27.8676C22.2312 27.94 22.2026 27.9996 22.1452 28.0464C22.0883 28.0931 22.0118 28.1165 21.9159 28.1165C21.8325 28.1165 21.7573 28.095 21.6902 28.0518Z" fill="black"/>
<path d="M11.075 17.8255C11.6083 18.2005 11.6084 19.5755 11.6084 19.5755M12.275 26.5505C13.1167 26.6505 14.2834 26.5755 14.7917 26.5505H12.275ZM11 23.6838C11.7167 24.2422 13.2584 24.5755 13.2334 24.5755L11 23.6838ZM14.125 24.7255C13.8917 23.5588 13.6417 23.2755 13.4333 22.5422L14.125 24.7255ZM9.80835 21.2255C11 21.7588 11.1834 22.1088 11.9417 22.6422L9.80835 21.2255ZM12.375 21.4755C12.475 20.0338 12.675 19.6505 13.0333 19.3172L12.375 21.4755ZM9.80835 19.1505C10.2417 19.6255 11.6583 21.1255 11.6583 21.1255L9.80835 19.1505Z" stroke="#00A400" stroke-width="0.183333" stroke-linecap="round"/>
</g>
</g>
<defs>
<clipPath id="clip0_769_22431">
<path d="M0 20C0 8.95431 8.95431 0 20 0C31.0457 0 40 8.95431 40 20C40 31.0457 31.0457 40 20 40C8.95431 40 0 31.0457 0 20Z" fill="white"/>
</clipPath>
<clipPath id="clip1_769_22431">
<rect width="53.3333" height="40" fill="white" transform="translate(-7 0.000488281)"/>
</clipPath>
</defs>
</svg>
