<svg width="40" height="40" viewBox="0 0 40 40" fill="none" xmlns="http://www.w3.org/2000/svg">
<g clip-path="url(#clip0_769_22542)">
<path d="M0 20C0 8.95431 8.95431 0 20 0C31.0457 0 40 8.95431 40 20C40 31.0457 31.0457 40 20 40C8.95431 40 0 31.0457 0 20Z" fill="#E94E0F"/>
<g clip-path="url(#clip1_769_22542)">
<path d="M-6 0.000244141H47V39.7502H-6V0.000244141Z" fill="#12AD2B"/>
<path d="M-6 11.3539H47V28.405H-6V11.3539Z" fill="#FFCE00"/>
<path d="M-6 0.000244141V39.7502L13.875 19.8752" fill="#D21034"/>
<path d="M25.1789 20.546L28.5163 18.1196H24.3922L23.1169 14.1943L21.8416 18.1196H17.7175L21.0549 20.546L19.7796 24.4714L23.1169 22.0449L26.4542 24.4714L25.1789 20.546Z" fill="black"/>
<path d="M39.82 20.546L43.1574 18.1196H39.0333L37.758 14.1943L36.4827 18.1196H32.3586L35.696 20.546L34.4207 24.4714L37.758 22.0449L41.0954 24.4714L39.82 20.546Z" fill="black"/>
</g>
</g>
<defs>
<clipPath id="clip0_769_22542">
<path d="M0 20C0 8.95431 8.95431 0 20 0C31.0457 0 40 8.95431 40 20C40 31.0457 31.0457 40 20 40C8.95431 40 0 31.0457 0 20Z" fill="white"/>
</clipPath>
<clipPath id="clip1_769_22542">
<rect width="53" height="39.75" fill="white" transform="translate(-6 0.000244141)"/>
</clipPath>
</defs>
</svg>
