<svg width="40" height="40" viewBox="0 0 40 40" fill="none" xmlns="http://www.w3.org/2000/svg">
<g clip-path="url(#clip0_769_22231)">
<path d="M0 20C0 8.95431 8.95431 0 20 0C31.0457 0 40 8.95431 40 20C40 31.0457 31.0457 40 20 40C8.95431 40 0 31.0457 0 20Z" fill="#E94E0F"/>
<g clip-path="url(#clip1_769_22231)">
<path fill-rule="evenodd" clip-rule="evenodd" d="M-10.3333 0.000488281H49.6667V40.0005H-10.3333V0.000488281Z" fill="#199D00"/>
<path fill-rule="evenodd" clip-rule="evenodd" d="M4.78399 11.3364C4.72149 12.2739 4.62774 13.9146 5.43243 14.0864C6.39336 14.1802 5.86211 12.4614 6.21368 12.1489C6.27618 11.9927 6.39336 11.9927 6.40118 12.188V13.6489C6.40118 14.1177 6.71368 14.2583 6.94805 14.3521C7.19805 14.3364 7.36993 14.3521 7.46368 14.5864L7.58868 17.1099C7.58868 17.1099 8.1668 17.2817 8.19805 15.6958C8.22149 14.7583 8.01055 13.9849 8.13555 13.8052C8.13555 13.6255 8.36993 13.6177 8.52618 13.7036C8.77618 13.8755 8.88555 14.0942 9.27618 14.0161C9.86993 13.8442 10.2293 13.5552 10.2371 13.1021C10.2254 12.6568 10.1327 12.2173 9.96368 11.8052C9.99493 11.7271 9.8543 11.5161 9.88555 11.438C9.98711 11.6099 10.1512 11.5942 10.1824 11.438C10.0809 11.1099 9.92461 10.7896 9.67461 10.6567C9.46368 10.4692 9.15118 10.5005 9.04961 10.8911C8.98711 11.3364 9.20586 11.8599 9.52618 12.2974C9.59649 12.4614 9.69024 12.7427 9.65118 12.9927C9.4793 13.0942 9.30743 13.0474 9.15899 12.8989C9.15899 12.8989 8.69024 12.5474 8.69024 12.4614C8.81524 11.6646 8.71368 11.5708 8.64336 11.3442C8.59649 11.0396 8.44805 10.938 8.33086 10.7349C8.21368 10.6099 8.05743 10.6099 7.9793 10.7349C7.76836 11.0942 7.86993 11.8677 8.01836 12.2192C8.12774 12.5396 8.2918 12.7427 8.21368 12.7427C8.15118 12.9224 8.01836 12.8755 7.9168 12.6646C7.80247 12.2206 7.74731 11.7636 7.75274 11.3052C7.71368 10.9458 7.6668 10.1802 7.42461 9.97706C7.28399 9.78956 7.07305 9.88331 6.99493 10.0552C6.9743 10.4042 6.98214 10.7543 7.01836 11.1021C7.17461 11.6802 7.2293 12.1958 7.30743 12.7817C7.33086 13.5708 6.8543 13.1255 6.87774 12.7271C6.98023 12.2262 6.97223 11.7089 6.8543 11.2114C6.77618 11.0083 6.69024 10.9614 6.49493 10.9927C6.34649 10.9927 5.96368 11.4067 5.8543 12.1099C5.8543 12.1099 5.76055 12.4692 5.72149 12.7896C5.6668 13.1489 5.43243 13.4146 5.26055 12.7427C5.11993 12.2505 5.02618 11.0552 4.7918 11.3364H4.78399Z" fill="white"/>
<path fill-rule="evenodd" clip-rule="evenodd" d="M7.40112 15.1724L4.90112 16.3755C4.92456 15.8052 6.08081 14.7817 6.87769 14.7739C7.3855 14.7817 7.2605 14.9692 7.39331 15.1724H7.40112Z" fill="white"/>
<path fill-rule="evenodd" clip-rule="evenodd" d="M6.95568 15.9536C5.64318 19.3521 10.0416 19.8286 10.5338 16.0943C10.5807 15.938 10.7682 15.7896 10.7994 16.0396C10.6979 19.4224 7.39318 19.6489 6.83068 18.5864C6.69835 18.2208 6.63222 17.8346 6.63537 17.4458C6.55724 16.7818 6.20568 17.0396 6.15099 17.6958C6.0963 18.063 6.11193 18.1646 6.11193 18.5161C6.2838 21.188 10.5416 20.0396 11.2369 17.8364C11.6041 16.6177 11.1744 15.7193 11.3697 15.7193C11.7916 16.1724 12.3854 15.7818 12.5182 15.6255C12.5729 15.5474 12.7135 15.4927 12.8072 15.5943C13.1354 15.8286 13.7135 15.7193 13.8385 15.3052C13.9088 14.8911 13.9635 14.4693 13.9791 14.0396C13.7057 14.1177 13.5104 14.1724 13.4869 14.2896L13.4322 14.6489C13.4088 14.7661 13.1822 14.7661 13.1666 14.6177C13.0651 14.1489 12.6432 14.0943 12.3854 14.813C12.2213 14.9536 11.9088 14.9849 11.8776 14.7739C11.9166 14.2896 11.7213 14.2271 11.3307 14.4536L10.9557 11.6255C11.1119 11.6255 11.2682 11.7427 11.4166 11.5552C11.2604 11.0474 10.9088 10.0161 10.7135 9.938C10.6276 9.82863 10.5494 9.89894 10.4244 9.93019C10.2213 9.99269 10.0338 10.1646 10.0963 10.5083C10.3307 11.9771 10.4869 13.0943 10.7291 14.5708C10.7682 14.7349 10.6276 14.9614 10.4401 14.938C10.1276 14.7271 10.0494 14.2974 9.50255 14.313C9.11193 14.313 8.67443 14.7427 8.61974 15.1489C8.54943 15.4771 8.52599 15.8286 8.61974 16.1099C8.89318 16.438 9.2213 16.4068 9.51037 16.3364C9.74474 16.2349 9.94005 16.0005 10.026 16.0552C10.0807 16.1255 10.0338 16.9068 8.9088 17.5005C8.22912 17.813 7.68224 17.8755 7.39318 17.3208C7.21349 16.9693 7.4088 15.6489 6.95568 15.9536Z" fill="white"/>
<path fill-rule="evenodd" clip-rule="evenodd" d="M12.5573 12.5005C12.8151 12.4067 14.0651 10.9692 14.0651 10.9692L13.8776 10.813C13.8073 10.7583 13.8151 10.6958 13.8776 10.6411C14.1901 10.4536 14.0886 10.063 13.9323 9.87549C13.8262 9.82378 13.7095 9.79756 13.5915 9.79892C13.4735 9.80027 13.3575 9.82917 13.2526 9.8833C13.0339 10.0942 12.987 10.4302 13.1589 10.6333C13.3229 10.7114 13.487 10.8833 13.3776 10.9771C12.862 11.5239 11.4636 12.4692 11.6276 12.5005C11.6589 12.5474 12.5261 12.5474 12.5495 12.5005H12.5573ZM4.97918 17.5786C4.51043 18.3286 4.47137 19.4458 4.72918 19.7817C4.8698 19.938 5.09636 20.0083 5.26043 19.9536C5.5573 19.8286 5.69011 19.2271 5.6198 19.0161C5.51824 18.8599 5.44011 18.8364 5.33855 18.9614C5.13543 19.3833 5.04949 19.0942 5.02605 18.8599C5.00366 18.4629 5.02462 18.0648 5.08855 17.6724C5.14324 17.3442 5.08855 17.438 4.97918 17.5786ZM25.0651 16.3833C24.612 15.3989 23.9792 14.4302 23.7839 14.063C23.175 13.1005 22.5287 12.1623 21.8464 11.2505C21.362 10.6724 22.6432 11.4927 21.6901 10.3364L20.9948 9.75049C20.8386 9.64112 20.4636 9.43799 20.4011 9.76612C20.3698 10.063 20.3854 10.2192 20.4323 10.4614C20.4714 10.6177 20.7057 10.8911 20.8229 11.0474C22.4246 13.1688 23.8314 15.4306 25.0261 17.8052C25.2292 17.7036 25.1823 16.5474 25.0651 16.3833Z" fill="white"/>
<path fill-rule="evenodd" clip-rule="evenodd" d="M23.0729 19.6489C22.9791 19.7505 23.2916 20.1802 23.6979 20.1802C24.3698 20.1021 24.9635 19.7271 25.5104 18.7271C25.7326 18.3944 25.8744 18.0146 25.9245 17.6177C25.9906 15.7211 25.8386 13.8233 25.4713 11.9614C25.4479 11.8052 25.4713 11.6177 25.487 11.5708C25.5338 11.5161 25.6823 11.5708 25.7604 11.438C25.8776 11.3208 25.4479 10.3442 25.2135 9.97706C25.1354 9.80518 25.0963 9.69581 24.9557 9.99268C24.786 10.3203 24.7052 10.6866 24.7213 11.0552C25.0416 13.2817 25.1432 15.2271 25.3463 17.4536C25.3698 17.6724 25.3385 17.9849 25.1901 18.1099C24.6006 18.7662 23.8791 19.2907 23.0729 19.6489ZM32.1745 19.6411C31.6901 19.9224 31.6901 20.2427 32.0807 20.2505C32.7526 20.1724 33.5495 20.1177 34.0963 19.2896C34.2895 18.8995 34.4011 18.4742 34.4245 18.0396C34.5228 16.1722 34.3996 14.2998 34.0573 12.4614C34.0416 12.3052 33.9713 11.938 33.9948 11.8911C34.0416 11.7817 34.2604 11.8989 34.3385 11.7739C34.4479 11.6567 33.7682 10.7817 33.526 10.4067C33.4479 10.2349 33.4166 10.1255 33.2682 10.4224C33.1108 10.753 33.0616 11.1247 33.1276 11.4849C33.487 13.9067 33.7526 15.7192 33.8073 17.8599C33.776 18.063 33.7682 18.1724 33.6745 18.4302C33.4635 18.6958 33.2291 19.0396 33.0104 19.2036C32.7916 19.3599 32.3229 19.5161 32.1745 19.6411Z" fill="white"/>
<path fill-rule="evenodd" clip-rule="evenodd" d="M32.5339 17.4771C32.5339 16.9067 32.5417 16.4224 32.5261 15.9927C32.5211 15.6288 32.4413 15.2698 32.2917 14.938C32.1511 14.6177 32.2371 14.3599 32.1667 14.0161C32.1042 13.6724 32.1199 13.1568 32.0261 12.7583C31.9949 12.6021 31.9167 12.0943 31.9402 12.0396C31.9792 11.9302 32.1277 12.0396 32.2058 11.9146C32.3152 11.7974 31.8152 10.5083 31.5652 10.1411C31.4792 9.97706 31.3074 10.0318 31.1121 10.2974C30.9167 10.4771 30.9871 10.8755 31.0652 11.2583C31.5417 13.7818 31.9089 16.0708 31.8308 18.4692C31.7996 18.6724 32.5339 17.8599 32.5339 17.4771ZM28.9636 14.3521C28.6589 14.3364 28.0261 13.7505 27.8386 13.4146C27.8079 13.3325 27.7949 13.2448 27.8002 13.1573C27.8056 13.0698 27.8293 12.9845 27.8699 12.9067C27.9871 12.8286 28.1589 12.7505 28.2917 12.8286C28.2917 12.8286 28.4246 13.0161 28.4011 13.0396C28.5574 13.1177 28.6355 13.0786 28.6511 13.0083C28.6589 12.8911 28.6042 12.8208 28.6042 12.6958C28.6746 12.3364 29.073 12.2818 29.2292 12.5083C29.3386 12.6489 29.3855 12.938 29.3933 13.1333C29.3933 13.2349 29.2371 13.1177 29.1355 13.1333C29.0496 13.1646 29.0261 13.2739 29.0183 13.3677C29.0027 13.6255 28.9714 14.0396 28.9636 14.3443V14.3521ZM23.3542 18.1021C23.4324 17.3364 23.323 15.9693 23.3152 15.5161C23.2734 14.3508 23.1769 13.188 23.0261 12.0317C22.9324 11.3755 23.2917 12.1021 23.2449 11.7192C23.1277 11.0708 22.7683 10.6255 22.3386 10.0396C22.2058 9.84425 22.2058 9.80519 21.9949 10.0864C21.7605 10.6099 21.9636 10.9771 22.0261 11.3911C22.3308 12.7349 22.5105 13.9692 22.5964 15.1958C22.6864 16.47 22.6968 17.7485 22.6277 19.0239C22.8621 19.0317 23.2214 18.6567 23.3542 18.1021Z" fill="white"/>
<path fill-rule="evenodd" clip-rule="evenodd" d="M33.5729 16.8755C33.0339 15.9692 32.2292 15.0005 32.0104 14.6333C31.286 13.6216 30.5251 12.6366 29.7292 11.6802C29.0651 10.9771 30.0417 11.563 29.6042 11.0161C29.237 10.6177 29.1354 10.4849 28.8151 10.2427C28.6589 10.1411 28.5651 9.9458 28.5026 10.2817C28.4777 10.5727 28.4725 10.8651 28.487 11.1567C28.487 11.2896 28.6276 11.5474 28.7526 11.7036C30.3698 13.6958 32.1433 15.7271 33.5651 18.2817C33.7683 18.1802 33.6979 17.0317 33.5651 16.8755H33.5729Z" fill="white"/>
<path fill-rule="evenodd" clip-rule="evenodd" d="M9.24499 15.2114C9.20592 15.2818 9.11999 15.3677 9.15124 15.4536C9.20593 15.5318 9.26061 15.5552 9.35436 15.5552C9.4403 15.5552 9.5653 15.5786 9.58874 15.5318C9.63561 15.4771 9.66686 15.3755 9.63561 15.2739C9.54186 15.0396 9.29186 15.1333 9.24499 15.2114Z" fill="#1BA400"/>
<path fill-rule="evenodd" clip-rule="evenodd" d="M27.3386 28.3208C28.0574 28.3521 28.5261 28.3599 29.1589 28.4302L29.9089 28.3521C30.7371 28.2739 30.7683 29.5317 30.7683 29.5317C30.7683 30.2739 30.4792 30.313 30.1121 30.3911C29.9011 30.4224 29.7996 30.2661 29.6824 30.1099C29.5057 30.1665 29.3175 30.1773 29.1355 30.1411C28.8308 30.1255 28.5339 30.1255 28.2371 30.1021C27.9246 30.0786 27.7527 30.1411 27.4324 30.1099C27.3699 30.2114 27.2761 30.3521 27.0886 30.313C26.9324 30.2896 26.7371 29.8442 26.7917 29.4927C26.9089 29.2427 26.8699 29.3286 26.8699 29.2192C23.9324 29.1411 20.9714 29.0083 18.0964 29.0474C15.8464 29.0552 13.6277 29.1489 11.4011 29.2427C10.2136 29.2271 9.30737 29.0396 8.68237 28.1255C8.74487 28.1255 11.7136 28.2896 12.5808 28.2349C14.1824 28.2192 15.6511 28.0864 17.2839 28.0396C20.5027 28.0942 23.698 28.0942 26.9167 28.3208C26.6042 28.1099 26.6042 27.6177 27.073 27.4927C27.1121 27.4614 27.1355 27.7349 27.2058 27.7271C27.5886 27.7036 27.4167 28.2192 27.3386 28.3208ZM14.4011 10.5708C13.9167 11.9614 14.6824 13.4927 15.2136 13.3442C15.6042 13.5005 15.8386 12.7661 15.9949 11.9692C16.1121 11.7427 16.1902 11.7192 16.2449 11.8364C16.2292 12.8989 16.323 13.1411 16.5964 13.4614C17.2058 13.9302 17.7136 13.5239 17.7527 13.4849L18.2214 13.0083C18.3308 12.8911 18.4714 12.8911 18.6199 12.9849C18.7683 13.1177 18.7449 13.3442 19.0574 13.5005C19.323 13.6099 19.8777 13.5317 20.0105 13.3052C20.1824 13.0005 20.2292 12.8989 20.3074 12.7896C20.4324 12.6255 20.6433 12.6958 20.6433 12.7505C20.6199 12.8442 20.4949 12.9302 20.5808 13.1021C20.7371 13.2114 20.7683 13.1411 20.8542 13.1177C21.1667 12.9614 21.4011 12.2896 21.4011 12.2896C21.4089 12.0396 21.2683 12.0552 21.1746 12.1177L20.9324 12.2817C20.7761 12.3052 20.4871 12.4067 20.3386 12.1802C20.1902 11.9146 20.1902 11.5317 20.0808 11.2583C20.0808 11.2427 19.8777 10.8286 20.0652 10.8052C20.1589 10.8208 20.3542 10.8755 20.3855 10.7114C20.4792 10.5474 20.1824 10.0864 19.9714 9.85205C19.7917 9.65674 19.5417 9.6333 19.2996 9.83643C19.1277 9.99268 19.1511 10.1646 19.1199 10.3286C19.0902 10.4462 19.0889 10.5691 19.1161 10.6873C19.1433 10.8055 19.1981 10.9155 19.2761 11.0083C19.448 11.3364 19.7527 11.7661 19.6511 12.3755C19.6511 12.3755 19.4714 12.6567 19.1589 12.6177C19.0261 12.5942 18.8152 12.5396 18.7058 11.6958C18.6199 11.0708 18.7214 10.1802 18.4558 9.76611C18.3542 9.5083 18.2839 9.26611 18.0496 9.6958C17.9871 9.86768 17.7136 10.1255 17.9089 10.6489C18.0938 11.1206 18.1477 11.6335 18.0652 12.1333C17.948 12.3052 17.9246 12.3599 17.7761 12.5239C17.573 12.7583 17.3464 12.6958 17.1746 12.6099C17.0183 12.5083 16.8933 12.4536 16.8152 12.1021C16.8308 11.5552 16.8621 10.6567 16.7605 10.4692C16.6121 10.1724 16.3699 10.2817 16.2683 10.3755C15.8036 10.8918 15.4924 11.5277 15.3699 12.2114C15.2292 12.6646 15.0808 12.5317 14.9792 12.3521C14.7292 12.1177 14.7058 10.2661 14.4011 10.5708Z" fill="white"/>
<path fill-rule="evenodd" clip-rule="evenodd" d="M15.8699 13.6021C16.0964 13.4458 15.9949 13.3364 16.323 13.6646C16.7465 14.4139 16.9924 15.2505 17.0418 16.1099C17.0261 16.313 17.1668 16.438 17.2371 16.3911C17.2683 15.9224 18.4168 15.2661 19.4714 15.1724C19.6277 15.1333 19.5496 14.8286 19.573 14.6724C19.5105 14.0864 19.9011 13.5552 20.448 13.5161C21.198 13.6255 21.448 14.0239 21.4636 14.6255C21.3777 15.7974 20.1589 15.9927 19.4793 16.0864C19.3777 16.1255 19.3308 16.1724 19.4793 16.2271L22.3386 16.2427L22.4871 16.3208C22.5027 16.3989 22.4402 16.3364 22.3308 16.5239C22.1735 16.8003 22.0751 17.1062 22.0418 17.4224C21.1902 17.7036 20.3074 17.813 19.4168 17.9302C19.1043 18.0864 18.948 18.2974 19.0105 18.5318C19.1199 18.7896 19.8074 19.0552 19.8074 19.063C19.9402 19.1411 20.0886 19.3364 19.7683 19.7349C18.3777 19.6724 17.2918 19.0786 16.9168 18.2427C16.8074 18.1568 16.6824 18.2427 16.6043 18.3521C16.0574 19.0552 15.5261 19.6802 14.5964 20.0239C14.0496 20.1646 13.4793 19.938 13.2136 19.5786C13.0339 19.3677 13.0418 19.1411 12.9793 19.0942C12.6746 19.2271 10.0964 20.3208 10.4246 19.8052C11.0496 19.1411 12.1433 18.6411 13.0964 17.9849C13.1668 17.7583 13.2918 17.0083 13.6668 16.7661C13.6902 16.7661 13.6121 17.2036 13.6199 17.3911C13.6199 17.5474 13.6043 17.6021 13.6355 17.563C13.7058 17.5239 14.8621 16.6099 14.9636 16.3286C15.073 16.1724 14.9871 15.7661 14.9871 15.7505C14.7683 15.188 14.4636 15.1411 14.3543 14.8599C14.2527 14.4927 14.2996 14.0708 14.5105 13.9458C14.698 13.7818 14.9168 13.7974 15.1277 13.9849C15.3621 14.1958 15.5652 14.6099 15.6277 14.9146C15.5886 15.0318 15.3152 14.8364 15.2371 14.8911C15.3874 15.0639 15.4874 15.2747 15.5261 15.5005C15.6824 16.1411 15.6355 16.3911 15.4793 16.8052C14.9636 17.8911 14.3074 18.2114 13.7293 18.6177C13.7136 18.6177 13.7058 18.8911 13.9168 19.0396C13.9949 19.1177 14.2996 19.1568 14.6511 19.0396C15.4022 18.6225 16.0095 17.9879 16.3933 17.2193C16.4597 16.6344 16.3957 16.0421 16.2058 15.4849C15.9793 14.9614 15.7136 14.2193 15.7136 14.2036C15.7058 13.8755 15.7293 13.7661 15.8699 13.6021ZM8.38551 10.5864C8.71363 10.7427 9.33863 10.6724 9.30738 10.1411L9.29176 9.89894C9.22926 9.74269 9.04176 9.78175 9.0027 9.938C8.98707 9.99269 9.02613 10.0786 8.97926 10.1021C8.94801 10.1333 8.84645 10.1177 8.84645 9.96925C8.84645 9.92238 8.8152 9.8755 8.79176 9.84425C8.77613 9.82863 8.76051 9.82863 8.72145 9.82863C8.67457 9.82863 8.67457 9.83644 8.65113 9.8755C8.64332 9.91456 8.6277 9.95363 8.6277 10.0005C8.6277 10.0552 8.59645 10.0708 8.5652 10.0786C8.51832 10.0786 8.52613 10.0786 8.48707 10.063C8.47145 10.0396 8.44801 10.0318 8.44801 9.98488L8.42457 9.85988C8.40895 9.83644 8.3777 9.82081 8.34645 9.813C8.16676 9.813 8.15113 10.0239 8.16676 10.1021C8.15113 10.1177 8.14332 10.4849 8.38551 10.5864Z" fill="white"/>
<path fill-rule="evenodd" clip-rule="evenodd" d="M18.034 14.6645C18.3621 14.8208 19.1512 14.7349 18.9558 14.227L18.9402 13.977C18.8699 13.8208 18.6902 13.8599 18.6512 14.0239C18.6355 14.0708 18.6746 14.1567 18.6199 14.1802C18.5965 14.2114 18.4871 14.1958 18.4949 14.0552C18.4949 14.0083 18.4637 13.9536 18.4402 13.9224C18.4168 13.9145 18.409 13.9067 18.3621 13.9067C18.323 13.9067 18.323 13.9224 18.2996 13.9614C18.284 14.0005 18.2762 14.0395 18.2762 14.0864C18.2683 14.1333 18.2449 14.1489 18.2058 14.1645C18.1668 14.1645 18.1746 14.1645 18.1433 14.1411C18.1199 14.1177 18.0965 14.1099 18.0965 14.0708L18.073 13.9458C18.0574 13.9224 18.0262 13.9067 17.9949 13.8989C17.8152 13.8989 17.7996 14.102 17.8074 14.1802C17.7996 14.1958 17.7918 14.5708 18.0418 14.6645H18.034ZM23.659 12.977C23.9871 13.1333 24.6043 13.063 24.5808 12.5395L24.5652 12.2895C24.4949 12.1333 24.3152 12.1724 24.2762 12.3286C24.2605 12.3833 24.2996 12.4692 24.2449 12.5005C24.2215 12.5239 24.1121 12.5083 24.1199 12.3599C24.1199 12.313 24.0887 12.2661 24.0652 12.2349C24.0418 12.2192 24.034 12.2192 23.9871 12.2192C23.948 12.2192 23.948 12.2349 23.9246 12.2739L23.9012 12.3911C23.8933 12.4458 23.8699 12.4692 23.8308 12.4692C23.7918 12.4692 23.7996 12.4692 23.7683 12.4536C23.7449 12.4302 23.7215 12.4224 23.7215 12.3833C23.7215 12.3442 23.7137 12.2817 23.698 12.2505C23.6824 12.227 23.6512 12.2192 23.6199 12.2114C23.4402 12.2114 23.4246 12.4145 23.4324 12.4927C23.4246 12.5083 23.4168 12.8755 23.6668 12.977H23.659ZM26.573 17.2192C26.0027 17.8677 26.2527 18.938 26.3855 19.1724C26.573 19.5474 26.7215 19.7895 27.0887 19.977C27.4246 20.2192 27.6902 20.0708 27.8308 19.8989C28.1668 19.5474 28.1746 18.6489 28.3308 18.477C28.4402 18.1489 28.7215 18.2036 28.8543 18.352C28.9785 18.5284 29.1451 18.6708 29.3387 18.7661C29.6512 19.0395 30.0262 19.0942 30.4012 18.8442C30.6512 18.6958 30.8152 18.5161 30.9637 18.1489C31.1199 17.7114 31.0418 15.6802 31.0027 14.477L30.6746 12.7974C30.6746 12.7817 30.6355 12.0005 30.5965 11.8208C30.5965 11.7427 30.573 11.7192 30.6512 11.727C30.7371 11.8052 30.7449 11.8052 30.8074 11.8286C30.8855 11.8442 30.9637 11.6958 30.909 11.5708L30.1277 10.1177C30.0652 10.0552 29.9793 9.99267 29.8777 10.1333C29.8178 10.1875 29.7701 10.2539 29.7378 10.328C29.7055 10.4021 29.6892 10.4822 29.6902 10.563C29.7137 10.9067 29.7683 11.2583 29.7918 11.602L30.1043 13.3677C30.2058 14.6177 30.2293 15.6489 30.3308 16.9067C30.3152 17.438 30.1512 17.8989 29.9949 17.9692C29.9949 17.9692 29.7605 18.102 29.6043 17.9536C29.4871 17.9067 29.0262 17.1802 29.0262 17.1802C28.7918 16.9692 28.6355 17.0239 28.4715 17.1802C28.0027 17.6333 27.7996 18.4614 27.4793 19.0395C27.4012 19.1724 27.1668 19.2739 26.9168 19.0317C26.2762 18.1489 26.6512 16.8989 26.573 17.2192ZM23.8074 9.89892C24.1043 10.0161 24.3074 10.6177 24.2449 10.9145C24.1824 11.2661 24.0262 11.6567 23.9168 11.6099C23.7918 11.563 23.9949 11.2505 23.8777 10.9224C23.8152 10.7036 23.409 10.313 23.4558 10.2036C23.3777 9.96142 23.6277 9.85204 23.8074 9.89111V9.89892Z" fill="white"/>
<path fill-rule="evenodd" clip-rule="evenodd" d="M27.5261 17.5786C27.5808 16.8599 27.4792 16.4224 27.4636 16.0005C27.448 15.5786 26.987 12.3599 26.8933 12.0474C26.7761 11.438 27.3386 11.9692 27.2761 11.6099C27.0808 11.1724 26.6042 10.5239 26.4558 10.1411C26.362 9.98486 26.4011 9.82861 26.198 10.102C26.023 10.5815 25.9615 11.0949 26.0183 11.602C26.5026 14.1255 26.9948 16.2192 26.9167 18.6177C27.1511 18.6177 27.4089 18.0942 27.5261 17.5786ZM32.5573 10.9145C32.8308 11.0474 32.987 11.7974 32.9558 12.0083C32.9011 12.3989 32.7605 12.8208 32.6589 12.7661C32.5417 12.7192 32.6823 12.188 32.6276 12.0239C32.5651 11.7895 32.198 11.3677 32.237 11.2427C32.1589 10.977 32.3933 10.8677 32.5573 10.9145ZM12.5808 16.2192C12.8386 16.3208 12.9948 16.8677 12.9714 17.0239C12.9089 17.313 12.7761 17.6255 12.6745 17.5786C12.573 17.5474 12.698 17.1567 12.6511 17.0317C12.6276 16.7427 12.2683 16.5864 12.2761 16.4614C12.2136 16.227 12.4323 16.188 12.5886 16.2192H12.5808Z" fill="white"/>
<path fill-rule="evenodd" clip-rule="evenodd" d="M18.7996 17.0474C19.1278 17.063 19.2918 17.3286 18.9871 17.438C18.6746 17.5396 18.3856 17.6255 18.3778 18.063C18.495 18.688 18.2215 18.4692 18.0653 18.3911C17.8778 18.2505 17.3465 17.9224 17.2684 17.2192C17.2606 17.0552 17.3934 16.9067 17.6043 16.9067C17.9168 16.9927 18.3856 17.0005 18.7996 17.0474Z" fill="#1B9D00"/>
<path fill-rule="evenodd" clip-rule="evenodd" d="M5.71363 9.71923C6.08863 9.82861 6.11207 10.3911 6.08863 10.5552C6.03395 10.852 5.90113 11.1724 5.80738 11.1333C5.69801 11.0942 5.80738 10.688 5.7527 10.563C5.69801 10.3911 5.3777 10.063 5.40895 9.96923C5.33863 9.77392 5.5652 9.68017 5.71363 9.71923ZM13.2058 12.3442C12.9089 12.5005 12.7996 12.9692 12.9793 13.2505C13.1511 13.4849 13.4168 13.3989 13.448 13.3989C13.7371 13.4302 13.9089 12.8599 13.9089 12.8599C13.9089 12.8599 13.9168 12.7036 13.5808 13.0083C13.4324 13.0317 13.4246 12.977 13.3855 12.8989C13.3497 12.7502 13.3635 12.5938 13.4246 12.4536C13.4793 12.313 13.3699 12.2505 13.2058 12.3442ZM15.3933 9.50048C15.2371 9.60205 14.948 9.90673 14.9402 10.2505C14.9324 10.4458 14.8933 10.4458 15.0183 10.563C15.1199 10.7036 15.2058 10.6958 15.3933 10.5942C15.44 10.5648 15.4801 10.526 15.5111 10.4803C15.542 10.4346 15.5631 10.3829 15.573 10.3286C15.6199 10.1099 15.3386 10.438 15.3074 10.188C15.2449 9.95361 15.4246 9.85986 15.5964 9.64111C15.5964 9.48486 15.5964 9.3833 15.3855 9.50048H15.3933ZM17.1433 9.81298C17.0744 10.0975 17.0326 10.3878 17.0183 10.6802C16.9714 10.8989 17.2527 10.9927 17.3699 10.7114C17.5574 10.2036 17.5574 9.98486 17.573 9.77392C17.5183 9.43798 17.2918 9.4458 17.1433 9.81298ZM28.2371 15.4614C28.2683 15.4224 29.7996 14.3364 29.7996 14.3364C29.9558 14.2817 29.9168 14.8989 29.8464 14.8911C29.3716 15.3488 28.8254 15.7261 28.2293 16.0083C28.1511 16.063 28.0808 15.5942 28.2293 15.4614H28.2371ZM29.6199 15.4458C29.8933 15.5786 30.0027 16.3677 29.9714 16.5786C29.9714 17.0005 29.7136 17.3286 29.6043 17.2817C29.4949 17.227 29.6199 16.7583 29.5652 16.5942C29.5027 16.3599 29.2761 15.9302 29.3152 15.8052C29.2371 15.5395 29.4558 15.3989 29.6277 15.4458H29.6199ZM20.5574 18.8364C20.6841 18.6885 20.8315 18.5596 20.9949 18.4536C21.1511 18.3755 21.2918 18.5161 21.2839 18.5083C21.3074 18.6645 21.1902 18.7974 21.2293 19.0005C21.2605 19.0786 21.2839 19.1724 21.4324 19.1411C21.6746 18.9458 21.9011 18.9302 22.1355 18.9224C22.3308 18.9302 22.3386 19.2505 22.2136 19.2505C21.7683 19.3442 21.573 19.4692 21.2527 19.5864C21.0964 19.6802 20.9714 19.563 20.9714 19.5552C20.9714 19.5474 20.8855 19.4692 20.9402 19.2661C20.9558 19.1099 20.8933 19.0161 20.7527 19.0317C20.6589 19.0942 20.5652 19.1255 20.5183 19.0083C20.4949 18.9302 20.4871 18.8833 20.5574 18.8364ZM31.2293 19.2583C31.2918 19.3364 31.3386 19.4145 31.2214 19.5552L30.9324 19.8052C30.8855 19.8833 30.8543 20.0239 31.0105 20.063C31.2918 20.1411 31.948 19.7114 31.948 19.7036C32.0574 19.6255 32.0261 19.4692 32.0105 19.4692C31.948 19.3989 31.8074 19.4458 31.7136 19.4302C31.6668 19.4302 31.5183 19.4145 31.5886 19.2739C31.6411 19.2049 31.6832 19.1286 31.7136 19.0474C31.7527 18.9536 31.7136 18.8911 31.5574 18.8364C31.3933 18.8052 31.323 18.8208 31.1433 18.8364C31.0496 18.852 31.0183 18.8989 30.9949 19.0161C31.0027 19.1958 31.1121 19.188 31.2293 19.2505V19.2583Z" fill="white"/>
<path fill-rule="evenodd" clip-rule="evenodd" d="M20.6119 14.8208C20.5729 14.8989 20.4323 14.8989 20.2994 14.8208C20.1666 14.7427 20.0885 14.6177 20.1354 14.5474C20.1823 14.4771 20.3151 14.4771 20.4479 14.5474C20.5807 14.6177 20.651 14.7505 20.6119 14.8208ZM13.6588 10.6333C13.5807 10.6567 13.4713 10.5864 13.4244 10.4771C13.3776 10.3677 13.401 10.2739 13.4791 10.2505C13.5573 10.2271 13.6588 10.3052 13.7135 10.4067C13.7682 10.5083 13.7369 10.6177 13.651 10.6411L13.6588 10.6333Z" fill="#259F00"/>
<path fill-rule="evenodd" clip-rule="evenodd" d="M27.4168 29.2974C28.1512 29.3286 28.8387 29.2974 29.5652 29.3364C29.698 29.4536 29.6043 29.727 29.5183 29.7114L28.909 29.688C28.9012 29.4536 28.3074 29.4927 28.323 29.6958C28.0027 29.7349 27.7137 29.688 27.3855 29.6724C27.2918 29.5552 27.3074 29.3442 27.4168 29.2974Z" fill="#209000"/>
</g>
</g>
<defs>
<clipPath id="clip0_769_22231">
<path d="M0 20C0 8.95431 8.95431 0 20 0C31.0457 0 40 8.95431 40 20C40 31.0457 31.0457 40 20 40C8.95431 40 0 31.0457 0 20Z" fill="white"/>
</clipPath>
<clipPath id="clip1_769_22231">
<rect width="53.3333" height="40" fill="white" transform="translate(-7 0.000488281)"/>
</clipPath>
</defs>
</svg>
