<svg width="40" height="40" viewBox="0 0 40 40" fill="none" xmlns="http://www.w3.org/2000/svg">
<g clip-path="url(#clip0_769_17646)">
<path d="M0 20C0 8.95431 8.95431 0 20 0C31.0457 0 40 8.95431 40 20C40 31.0457 31.0457 40 20 40C8.95431 40 0 31.0457 0 20Z" fill="#E94E0F"/>
<g clip-path="url(#clip1_769_17646)">
<path d="M-7 -6.10352e-05H46.3333V39.9999H-7V-6.10352e-05Z" fill="#0065BD"/>
<path d="M-7 -6.10352e-05L46.3333 39.9999L-7 -6.10352e-05ZM-7 39.9999L46.3333 -6.10352e-05L-7 39.9999Z" fill="black"/>
<path d="M-7 39.9999L46.3333 -6.10352e-05M-7 -6.10352e-05L46.3333 39.9999L-7 -6.10352e-05Z" stroke="white" stroke-width="7.15542"/>
</g>
</g>
<defs>
<clipPath id="clip0_769_17646">
<path d="M0 20C0 8.95431 8.95431 0 20 0C31.0457 0 40 8.95431 40 20C40 31.0457 31.0457 40 20 40C8.95431 40 0 31.0457 0 20Z" fill="white"/>
</clipPath>
<clipPath id="clip1_769_17646">
<rect width="53.3333" height="40" fill="white" transform="translate(-7 -6.10352e-05)"/>
</clipPath>
</defs>
</svg>
