<?xml version="1.0" standalone="no"?>
<!DOCTYPE svg PUBLIC "-//W3C//DTD SVG 1.1//EN" "http://www.w3.org/Graphics/SVG/1.1/DTD/svg11.dtd" >
<svg xmlns="http://www.w3.org/2000/svg">
<metadata>Created by Icons8</metadata>
<defs>
  <font id="sdwds-icons8" horiz-adv-x="1024">
    <font-face font-family="sdwds-icons8"
      units-per-em="1024" ascent="896"
      descent="128"
      font-weight="500" />
    <missing-glyph horiz-adv-x="0" />
    <glyph glyph-name="copy"
      unicode="&#xF100;"
      horiz-adv-x="1024" d="M128 768L128 128L352 128L352 192L192 192L192 704L576 704L576 672L640 672L640 768zM384 640L384 0L896 0L896 640zM448 576L832 576L832 64L448 64z" />
    <glyph glyph-name="edit"
      unicode="&#xF101;"
      horiz-adv-x="1024" d="M765 769C731.5 769 698 756 672 730L166 224L164 214L129 38L119 -9L166 1L342 36L352 38L858 544C910 596 910 678 858 730C832 756 798.5 769 765 769zM765 708C781.124992 708 797.375008 700.624992 813 685C844.124992 653.875008 844.124992 620.124992 813 589L790 567L695 662L717 685C732.624992 700.624992 748.875008 708 765 708zM650 617L745 522L358 135C337 176 304 209 263 230zM222 178C260.375008 162.5 290.5 132.375008 306 94L201 73z" />
    <glyph glyph-name="undo"
      unicode="&#xF102;"
      horiz-adv-x="1024" d="M409 727L153 471L131 448L153 425L409 169L455 215L254 416L672 416C760.124992 416 832 344.124992 832 256L832 32L896 32L896 256C896 379 795 480 672 480L254 480L455 681z" />
    <glyph glyph-name="compare"
      unicode="&#xF103;"
      horiz-adv-x="1024" d="M128 768L128 704L512 704L512 576L448 576L448 256L128 256L128 192L448 192L448 0L896 0L896 64L512 64L512 512L896 512L896 576L576 576L576 768zM295 615L249 569L306 512L128 512L128 448L306 448L249 391L295 345L407 457L429 480L407 503zM729 416L595 282L617 259L729 147L775 192L712 256L896 256L896 320L724 320L775 371z" />
    <glyph glyph-name="create"
      unicode="&#xF104;"
      horiz-adv-x="1024" d="M800 767C775.5 767 751.5 757.5 733 739L416 423L409 416L407 406L385 294L375 247L422 257L534 279L544 281L551 288L867 605C903.875008 641.875008 903.875008 702.124992 867 739C848.5 757.5 824.5 767 800 767zM800 705C807.5 705 814.875008 701.124992 822 694C836.250016 679.749984 836.250016 664.249984 822 650L512 340L457 329L468 384L778 694C785.124992 701.124992 792.5 705 800 705zM128 640L128 0L768 0L768 422L704 358L704 64L192 64L192 576L486 576L550 640z" />
    <glyph glyph-name="align-right"
      unicode="&#xF105;"
      horiz-adv-x="1024" d="M96 672L96 608L928 608L928 672zM352 544L352 480L928 480L928 544zM96 416L96 352L928 352L928 416zM352 288L352 224L928 224L928 288zM96 160L96 96L928 96L928 160z" />
    <glyph glyph-name="align-justify"
      unicode="&#xF106;"
      horiz-adv-x="1024" d="M96 672L96 608L928 608L928 672zM96 544L96 480L928 480L928 544zM96 416L96 352L928 352L928 416zM96 288L96 224L928 224L928 288zM96 160L96 96L928 96L928 160z" />
    <glyph glyph-name="align-center"
      unicode="&#xF107;"
      horiz-adv-x="1024" d="M96 672L96 608L928 608L928 672zM224 544L224 480L800 480L800 544zM96 416L96 352L928 352L928 416zM224 288L224 224L800 224L800 288zM96 160L96 96L928 96L928 160z" />
    <glyph glyph-name="align-left"
      unicode="&#xF108;"
      horiz-adv-x="1024" d="M96 672L96 608L928 608L928 672zM96 544L96 480L672 480L672 544zM96 416L96 352L928 352L928 416zM96 288L96 224L672 224L672 288zM96 160L96 96L928 96L928 160z" />
    <glyph glyph-name="align-top"
      unicode="&#xF109;"
      horiz-adv-x="1024" d="M128 736L128 672L896 672L896 736zM192 608L192 32L480 32L480 608zM544 608L544 192L832 192L832 608zM256 544L416 544L416 96L256 96z" />
    <glyph glyph-name="cut"
      unicode="&#xF10A;"
      horiz-adv-x="1024" d="M192 704C121.624992 704 64 646.375008 64 576C64 505.624992 121.624992 448 192 448C222.624992 448 249.875008 459.875008 272 478L439 383L274 289C251.624992 308 223.375008 320 192 320C121.624992 320 64 262.375008 64 192C64 121.624992 121.624992 64 192 64C262.375008 64 320 121.624992 320 192C320 207.7499840000001 316.250016 223 311 237L960 608L832 608L505 421L311 531C316.250016 545 320 560.249984 320 576C320 646.375008 262.375008 704 192 704zM192 640C227.750016 640 256 611.749984 256 576C256 540.249984 227.750016 512 192 512C156.250016 512 128 540.249984 128 576C128 580.5 128.124992 584.749984 129 589C134.875008 618.375008 160.750016 640 192 640zM611 358L547 323L832 160L960 160zM192 256C227.750016 256 256 227.7499840000001 256 192C256 156.2499840000001 227.750016 128 192 128C156.250016 128 128 156.2499840000001 128 192C128 196.5 128.124992 200.7499840000001 129 205C134.875008 234.375008 160.750016 256 192 256z" />
    <glyph glyph-name="rotate"
      unicode="&#xF10B;"
      horiz-adv-x="1024" d="M512 800C282.624992 800 96 613.375008 96 384C96 154.624992 282.624992 -32 512 -32C741.375008 -32 928 154.624992 928 384C928 512.624992 869.375008 627.624992 777.5 704L896 704L896 768L640 768L640 512L704 512L704 678.875008C800.250016 616.124992 864 507.749984 864 384C864 189.2499840000001 706.750016 32 512 32C317.250016 32 160 189.2499840000001 160 384C160 578.749984 317.250016 736 512 736z" />
    <glyph glyph-name="page-overview-4"
      unicode="&#xF10C;"
      horiz-adv-x="1024" d="M64 640L64 448L256 448L256 640zM320 640L320 576L960 576L960 640zM128 576L192 576L192 512L128 512zM320 512L320 448L832 448L832 512zM64 320L64 128L256 128L256 320zM320 320L320 256L960 256L960 320zM128 256L192 256L192 192L128 192zM320 192L320 128L832 128L832 192z" />
    <glyph glyph-name="thumbnails"
      unicode="&#xF10D;"
      horiz-adv-x="1024" d="M160 736L160 544L352 544L352 736zM416 736L416 544L608 544L608 736zM672 736L672 544L864 544L864 736zM224 672L288 672L288 608L224 608zM480 672L544 672L544 608L480 608zM736 672L800 672L800 608L736 608zM160 480L160 288L352 288L352 480zM416 480L416 288L608 288L608 480zM672 480L672 288L864 288L864 480zM224 416L288 416L288 352L224 352zM480 416L544 416L544 352L480 352zM736 416L800 416L800 352L736 352zM160 224L160 32L352 32L352 224zM416 224L416 32L608 32L608 224zM672 224L672 32L864 32L864 224zM224 160L288 160L288 96L224 96zM480 160L544 160L544 96L480 96zM736 160L800 160L800 96L736 96z" />
    <glyph glyph-name="expand"
      unicode="&#xF10E;"
      horiz-adv-x="1024" d="M128 768L128 480L192 480L192 658L425 425L471 471L238 704L416 704L416 768zM608 768L608 704L786 704L553 471L599 425L832 658L832 480L896 480L896 768zM425 343L192 110L192 288L128 288L128 0L416 0L416 64L238 64L471 297zM599 343L553 297L786 64L608 64L608 0L896 0L896 288L832 288L832 110z" />
    <glyph glyph-name="collapse"
      unicode="&#xF10F;"
      horiz-adv-x="1024" d="M151 791L105 745L338 512L160 512L160 448L448 448L448 736L384 736L384 558zM873 791L640 558L640 736L576 736L576 448L864 448L864 512L686 512L919 745zM160 320L160 256L338 256L105 23L151 -23L384 210L384 32L448 32L448 320zM576 320L576 32L640 32L640 210L873 -23L919 23L686 256L864 256L864 320z" />
    <glyph glyph-name="resize-horizontal"
      unicode="&#xF110;"
      horiz-adv-x="1024" d="M297 679L25 407L3 384L25 361L297 89L343 135L126 352L898 352L681 135L727 89L999 361L1021 384L999 407L727 679L681 633L898 416L126 416L343 633z" />
    <glyph glyph-name="resize-diagonal"
      unicode="&#xF111;"
      horiz-adv-x="1024" d="M448 736L448 672L754 672L224 142L224 448L160 448L160 32L576 32L576 96L270 96L800 626L800 320L864 320L864 736z" />
    <glyph glyph-name="resize-vertical"
      unicode="&#xF112;"
      horiz-adv-x="1024" d="M512 829L489 807L233 551L279 505L480 706L480 62L279 263L233 217L489 -39L512 -61L535 -39L791 217L745 263L544 62L544 706L745 505L791 551L535 807z" />
    <glyph glyph-name="compress"
      unicode="&#xF113;"
      horiz-adv-x="1024" d="M905 823L608 525L608 800L544 800L544 416L928 416L928 480L653 480L951 777zM96 352L96 288L371 288L73 -9L119 -55L416 243L416 -32L480 -32L480 352z" />
    <glyph glyph-name="chevron-right"
      unicode="&#xF114;"
      horiz-adv-x="1024" d="M392 813L369 791L254 675L232 653L254 630L500 384L254 138L232 115L254 93L369 -23L392 -45L415 -23L799 361L821 384L799 407L415 791zM392 722L730 384L392 46L322 116L568 361L591 384L568 407L322 652z" />
    <glyph glyph-name="chevron-down"
      unicode="&#xF115;"
      horiz-adv-x="1024" d="M221 685L198 663L73 538L51 515L512 54L973 515L951 538L826 663L803 685L512 394zM220 594L489 326L512 304L535 326L804 594L882 516L512 145L142 516z" />
    <glyph glyph-name="chevron-left"
      unicode="&#xF116;"
      horiz-adv-x="1024" d="M632 813L609 791L225 407L203 384L225 361L609 -23L632 -45L655 -23L770 93L792 115L770 138L524 384L770 630L792 653L770 675L655 791zM632 722L702 652L456 407L433 384L456 361L702 116L632 46L294 384z" />
    <glyph glyph-name="chevron-up"
      unicode="&#xF117;"
      horiz-adv-x="1024" d="M512 714L51 253L73 230L198 105L221 83L512 374L803 83L826 105L951 230L973 253zM512 623L882 252L804 174L535 442L512 464L489 442L220 174L142 252z" />
    <glyph glyph-name="date-to"
      unicode="&#xF118;"
      horiz-adv-x="1024" d="M288 768L288 736L160 736L160 416L224 416L224 544L800 544L800 96L224 96L224 224L160 224L160 32L864 32L864 736L736 736L736 768L672 768L672 736L352 736L352 768zM224 672L288 672L288 640L352 640L352 672L672 672L672 640L736 640L736 672L800 672L800 608L224 608zM352 448L352 352L128 352L128 288L352 288L352 192L512 320z" />
    <glyph glyph-name="date-from"
      unicode="&#xF119;"
      horiz-adv-x="1024" d="M288 768L288 736L160 736L160 32L864 32L864 212L800 161L800 96L224 96L224 544L800 544L800 479L864 428L864 736L736 736L736 768L672 768L672 736L352 736L352 768zM224 672L288 672L288 640L352 640L352 672L672 672L672 640L736 640L736 672L800 672L800 608L224 608zM736 448L736 352L512 352L512 288L736 288L736 192L896 320z" />
    <glyph glyph-name="date-span"
      unicode="&#xF11A;"
      horiz-adv-x="1024" d="M288 768L288 736L160 736L160 32L864 32L864 736L736 736L736 768L672 768L672 736L352 736L352 768zM224 672L288 672L288 640L352 640L352 672L672 672L672 640L736 640L736 672L800 672L800 608L224 608zM224 544L800 544L800 96L224 96zM409 455L297 343L275 320L297 297L409 185L455 231L398 288L626 288L569 231L615 185L727 297L749 320L727 343L615 455L569 409L626 352L398 352L455 409z" />
    <glyph glyph-name="calendar"
      unicode="&#xF11B;"
      horiz-adv-x="1024" d="M288 768L288 736L160 736L160 32L864 32L864 736L736 736L736 768L672 768L672 736L352 736L352 768zM224 672L288 672L288 640L352 640L352 672L672 672L672 640L736 640L736 672L800 672L800 608L224 608zM224 544L800 544L800 96L224 96zM416 480L416 416L480 416L480 480zM544 480L544 416L608 416L608 480zM672 480L672 416L736 416L736 480zM288 352L288 288L352 288L352 352zM416 352L416 288L480 288L480 352zM544 352L544 288L608 288L608 352zM672 352L672 288L736 288L736 352zM288 224L288 160L352 160L352 224zM416 224L416 160L480 160L480 224zM544 224L544 160L608 160L608 224z" />
    <glyph glyph-name="today"
      unicode="&#xF11C;"
      horiz-adv-x="1024" d="M288 736L288 704L160 704L160 0L864 0L864 704L736 704L736 736L672 736L672 704L352 704L352 736zM224 640L288 640L288 608L352 608L352 640L672 640L672 608L736 608L736 640L800 640L800 576L224 576zM224 512L800 512L800 64L224 64zM649 439L480 270L407 343L361 297L457 201L480 179L503 201L695 393z" />
    <glyph glyph-name="notification"
      unicode="&#xF11D;"
      horiz-adv-x="1024" d="M512 800C476.624992 800 448 771.375008 448 736C448 733.249984 448.624992 730.624992 449 728C338.375008 699.749984 256 599.249984 256 480L256 192C256 173.875008 242.124992 160 224 160L192 160L192 96L422 96C418.375008 85.875008 416 75.249984 416 64C416 11.375008 459.375008 -32 512 -32C564.624992 -32 608 11.375008 608 64C608 75.249984 605.624992 85.875008 602 96L832 96L832 160L800 160C781.875008 160 768 173.875008 768 192L768 471C768 591.249984 687.624992 698.5 575 728C575.375008 730.624992 576 733.249984 576 736C576 771.375008 547.375008 800 512 800zM498 672C502.624992 672.375008 507.250016 672 512 672C514 672 516 672 518 672C622.5 668.875008 704 577.249984 704 471L704 192C704 180.7499840000001 706.375008 170.124992 710 160L314 160C317.624992 170.124992 320 180.7499840000001 320 192L320 480C320 581.624992 398.250016 664.749984 498 672zM512 96C530 96 544 82 544 64C544 46 530 32 512 32C494 32 480 46 480 64C480 82 494 96 512 96z" />
    <glyph glyph-name="back"
      unicode="&#xF11E;"
      horiz-adv-x="1024" d="M609 759L257 407L235 384L257 361L609 9L655 55L326 384L655 713z" />
    <glyph glyph-name="forward"
      unicode="&#xF11F;"
      horiz-adv-x="1024" d="M415 759L369 713L698 384L369 55L415 9L767 361L789 384L767 407z" />
    <glyph glyph-name="double-right"
      unicode="&#xF120;"
      horiz-adv-x="1024" d="M291 743L246 697L559 384L246 71L291 25L650 384zM515 743L470 697L783 384L470 71L515 25L874 384z" />
    <glyph glyph-name="double-left"
      unicode="&#xF121;"
      horiz-adv-x="1024" d="M509 743L150 384L509 25L554 71L241 384L554 697zM733 743L374 384L733 25L778 71L465 384L778 697z" />
    <glyph glyph-name="double-up"
      unicode="&#xF122;"
      horiz-adv-x="1024" d="M512 746L121 355L167 310L512 655L857 310L903 355zM512 522L121 131L167 86L512 431L857 86L903 131z" />
    <glyph glyph-name="double-down"
      unicode="&#xF123;"
      horiz-adv-x="1024" d="M167 682L121 637L512 246L903 637L857 682L512 337zM167 458L121 413L512 22L903 413L857 458L512 113z" />
    <glyph glyph-name="sort-down"
      unicode="&#xF124;"
      horiz-adv-x="1024" d="M115 512L169 457L489 137L512 115L535 137L855 457L909 512zM270 448L754 448L512 206z" />
    <glyph glyph-name="sort"
      unicode="&#xF125;"
      horiz-adv-x="1024" d="M512 781L489 759L233 503L179 448L845 448L791 503L535 759zM512 690L690 512L334 512zM179 320L233 265L489 9L512 -13L535 9L791 265L845 320zM334 256L690 256L512 78z" />
    <glyph glyph-name="sort-up"
      unicode="&#xF126;"
      horiz-adv-x="1024" d="M512 621L489 599L169 279L115 224L909 224L855 279L535 599zM512 530L754 288L270 288z" />
    <glyph glyph-name="sort-right"
      unicode="&#xF127;"
      horiz-adv-x="1024" d="M384 749L384 19L439 73L727 361L749 384L727 407L439 695zM448 594L658 384L448 174z" />
    <glyph glyph-name="sort-left"
      unicode="&#xF128;"
      horiz-adv-x="1024" d="M640 749L585 695L297 407L275 384L297 361L585 73L640 19zM576 594L576 174L366 384z" />
    <glyph glyph-name="car-service"
      unicode="&#xF129;"
      horiz-adv-x="1024" d="M768 800C744.624992 800 722.750016 795.124992 703.124992 788L655.750016 771L768 658.749984L768 608L717.250016 608L605 720.249984L588 672.875008C580.875008 653.249984 576 631.375008 576 608C576 538.624992 616.624992 482 672 448.375008L672 64C672 11.375008 715.375008 -32 768 -32C820.624992 -32 864 11.375008 864 64L864 448.375008C919.375008 482 960 538.624992 960 608C960 713.624992 873.624992 800 768 800zM784.5 732.749984C847.375008 724.249984 896 673.124992 896 608C896 555.249984 864.375008 510.624992 819.124992 490.875008L800 482.5L800 64C800 46.249984 785.750016 32 768 32C750.250016 32 736 46.249984 736 64L736 482.5L716.875008 490.875008C677.750016 507.875008 652.875008 545.5 645.750016 589L690.750016 544L832 544L832 685.249984zM463.875008 640C412.5 640 366.875008 610.875008 341.375008 568.5L297.250016 495L130.250016 453.375008C91.5 443.624992 64 408.375008 64 368.5L64 251.7499840000001C64 219.124992 91.124992 192 123.750016 192L161.624992 192C169.5 138.124992 216 96 272 96C327.624992 96 373.875008 137.5 382.250016 190.875008L640.124992 192L639.875008 256L373.375008 254.7499840000001C355.5 293 316.750016 320 272 320C227.750016 320 189.5 293.624992 171.375008 256L128 256L128 368.5C128 379.375008 135.124992 388.624992 145.750016 391.249984L338.5 439.375008L396.124992 535.5C410.750016 559.875008 437.250016 576 463.875008 576L544 576L544 640zM272 256C298.875008 256 320 234.875008 320 208C320 181.124992 298.875008 160 272 160C245.124992 160 224 181.124992 224 208C224 234.875008 245.124992 256 272 256z" />
    <glyph glyph-name="car-badge"
      unicode="&#xF12A;"
      horiz-adv-x="1024" d="M480 800C445 800 416 771 416 736L224 736L224 0L800 0L800 736L608 736C608 771 579 800 544 800zM480 736L544 736L544 672L480 672zM288 672L416 672L416 608L608 608L608 672L736 672L736 64L288 64zM435 512L384 404L384 305C384 295.5 391.375008 288 401 288L431 288C440.624992 288 448 295.375008 448 305L448 320L576 320L576 305C576 295.375008 583.375008 288 593 288L623 288C632.624992 288 640 295.375008 640 305L640 404L589 512zM432 392C445.250016 392 456 381.2499840000001 456 368C456 354.7499840000001 445.250016 344 432 344C418.750016 344 408 354.7499840000001 408 368C408 381.2499840000001 418.750016 392 432 392zM592 392C605.124992 392 616 381.2499840000001 616 368C616 354.875008 605.124992 344 592 344C578.875008 344 568 354.875008 568 368C568 381.2499840000001 578.875008 392 592 392zM384 224L384 160L640 160L640 224z" />
    <glyph glyph-name="automatic-car-wash"
      unicode="&#xF12B;"
      horiz-adv-x="1024" d="M428.5 804.5C412.375008 805.249984 394.875008 803.749984 376.250016 799C316.875008 784.249984 283.875008 742.249984 269.5 706.749984C261.375008 686.749984 263.124992 681.249984 261.750016 668.5C230.5 666.749984 165.624992 658.875008 131.375008 590.249984C104.750016 537 113.5 489 132.250016 460.5C151.124992 431.875008 178 419.124992 178 419.124992L206 476.875008C206 476.875008 194.250016 482.875008 185.750016 495.624992C177.250016 508.5 170 524.5 188.624992 561.624992C209.124992 602.749984 288 608 288 608L320.624992 608L320 640.749984C320 640.749984 319.750016 660.249984 328.875008 682.749984C337.875008 705.249984 353 727.249984 391.750016 737C445.375008 750.375008 469.250016 732.749984 487.624992 711.249984C506.124992 689.624992 513 664.249984 513 664.249984L576 672C576 672 575.750016 677 581.624992 684.749984C587.5 692.624992 599.124992 704 640 704C714.624992 704 737.624992 629.875008 737.624992 629.875008L745 608L768 608C768 608 781 608 797.750016 604.624992C814.5 601.249984 832.875008 593.875008 841.375008 585.375008C854.250016 572.5 857 562.875008 857.124992 552.124992C857.375008 541.5 853.5 528.875008 846.750016 516.5C833.250016 491.875008 811.124992 472.375008 811.124992 472.375008L852.875008 423.624992C852.875008 423.624992 882.5 448.375008 903 485.875008C913.124992 504.5 921.750016 527.5 921.124992 553.5C920.624992 579.375008 909.624992 607.624992 886.624992 630.624992C863.124992 654.124992 833.5 662.749984 810.250016 667.375008C797.250016 670 794.250016 669.5 786.5 670C774.124992 697.5 737.5 768 640 768C595.250016 768 566 753.124992 545.750016 735C540.750016 743.249984 543.5 744.375008 536.375008 752.749984C514.124992 778.624992 477 802.124992 428.5 804.5zM297.750016 512L290 491.249984L231.750016 335.875008L206.250016 348.624992L177.750016 363L149 305.624992L177.750016 291.375008L209.250016 275.624992L192 229.875008L192 -32L256 -32L256 32L768 32L768 -32L832 -32L832 229.875008L814.875008 275.624992L846.375008 291.375008L875 305.624992L846.375008 363L817.624992 348.624992L792.250016 335.875008L726.124992 512zM342.124992 448L681.875008 448L729.875008 320L294.250016 320zM270.250016 256L753.875008 256L768 218.124992L768 96L256 96L256 218.124992zM336 224C309.5 224 288 202.5 288 176C288 149.5 309.5 128 336 128C362.5 128 384 149.5 384 176C384 202.5 362.5 224 336 224zM688 224C661.5 224 640 202.5 640 176C640 149.5 661.5 128 688 128C714.5 128 736 149.5 736 176C736 202.5 714.5 224 688 224z" />
    <glyph glyph-name="carpool"
      unicode="&#xF12C;"
      horiz-adv-x="1024" d="M304 704C261.750016 704 224.124992 676.5 212 636L168 489L106 510L86 450L149 429L129 361C128.250016 358.124992 127.875008 355 128 352L128 128C128 127 128 126 128 125L128 96C128 78.375008 142.375008 64 160 64L256 64L267 96L757 96L768 64L864 64C881.624992 64 896 78.375008 896 96L896 123C896.124992 124.624992 896.124992 126.375008 896 128L896 352C896.124992 355 895.750016 358.124992 895 361L875 429L938 450L918 510L856 489L812 636C799.875008 676.5 762.250016 704 720 704zM304 640L720 640C734.250016 640 746.875008 630.624992 751 617L792 480L232 480L273 617C277.124992 630.749984 289.750016 640 304 640zM352 480C387.375008 480 416 508.624992 416 544C416 579.375008 387.375008 608 352 608C316.624992 608 288 579.375008 288 544C288 508.624992 316.624992 480 352 480zM672 480C707.375008 480 736 508.624992 736 544C736 579.375008 707.375008 608 672 608C636.624992 608 608 579.375008 608 544C608 508.624992 636.624992 480 672 480zM512 608C485.5 608 464 586.5 464 560C464 533.5 485.5 512 512 512C538.5 512 560 533.5 560 560C560 586.5 538.5 608 512 608zM213 416L811 416L832 346L832 160L192 160L192 346zM272 384C245.5 384 224 362.5 224 336C224 309.5 245.5 288 272 288C298.5 288 320 309.5 320 336C320 362.5 298.5 384 272 384zM752 384C725.5 384 704 362.5 704 336C704 309.5 725.5 288 752 288C778.5 288 800 309.5 800 336C800 362.5 778.5 384 752 384zM384 288L344 192L413 192L427 224L597 224L611 192L680 192L640 288z" />
    <glyph glyph-name="bicycle"
      unicode="&#xF12D;"
      horiz-adv-x="1024" d="M608 704L608 658L611 652L644 576L366 576L356 562L269 439C249.624992 445 229.250016 448 208 448C93.375008 448 0 354.7499840000001 0 240C0 125.2499840000001 93.250016 32 208 32C317.250016 32 406.624992 116.875008 415 224L525 224L535 238L691 468L712 420C649.875008 383.875008 608 316.5 608 240C608 125.7499840000001 701.750016 32 816 32C930.250016 32 1024 125.7499840000001 1024 240C1024 354.2499840000001 930.250016 448 816 448C800.624992 448 785.5 446.249984 771 443L685 640L784 640C793.124992 640 800 633.124992 800 624C800 614.875008 793.124992 608 784 608L784 544C827.750016 544 864 580.249984 864 624C864 667.749984 827.750016 704 784 704zM256 672L256 608L448 608L416 672zM431 512L644 512L515 322zM375 480L459 288L192 288L192 224L350 224C341.875008 152.2499840000001 281.875008 96 208 96C128.624992 96 64 160.624992 64 240C64 319.375008 128.624992 384 208 384C257.875008 384 302.124992 358.5 328 320L400 320C384.624992 356.875008 359.375008 388.5 327 411zM816 384C895.375008 384 960 319.375008 960 240C960 160.624992 895.375008 96 816 96C736.624992 96 672 160.624992 672 240C672 290.375008 698.624992 334.2499840000001 738 360L803 211L861 237L798 382C804 382.7499840000001 809.875008 384 816 384z" />
    <glyph glyph-name="motorcycle"
      unicode="&#xF12E;"
      horiz-adv-x="1024" d="M720 704C699 704 681.5 690.749984 675 672L544 672L544 608L680 608L690 576L576 576C492.5 576 450.5 531 435 512L327 512C314.624992 519.249984 270.375008 544 208 544C138.875008 544 82 517 82 517L110 459C110 459 155.750016 480 208 480C233.875008 480 258.250016 472.124992 276 465L248 407C230.375008 412.375008 211.375008 416 192 416C86.124992 416 0 329.875008 0 224C0 118.124992 86.124992 32 192 32C287.124992 32 365.875008 101.124992 381 192L492 192C516.250016 192 539.250016 206.124992 550 228L549 228L584 299C637.250016 323.5 680.624992 366 711 406C719.375008 417 726.5 427.124992 733 437L801 215L863 233L827 351C828.750016 351.124992 830.250016 352 832 352C902.624992 352 960 294.624992 960 224C960 153.375008 902.624992 96 832 96C761.375008 96 704 153.375008 704 224C704 258.124992 717.124992 289 739 312L719 379C671.250016 344 640 287.5 640 224C640 118.124992 726.124992 32 832 32C937.875008 32 1024 118.124992 1024 224C1024 329.875008 937.875008 416 832 416C823.5 416 815.250016 415.124992 807 414L748 608L800 608L800 704zM576 512L704 512C699.250016 503.375008 685 477.875008 660 445C630.250016 406 588.875008 364.5 549 350L536 346L531 334L492 256L192 256L192 192L315 192C300.750016 136.875008 251.5 96 192 96C121.375008 96 64 153.375008 64 224C64 294.624992 121.375008 352 192 352C239.124992 352 279.750016 326.124992 302 288L373 288C360 324.7499840000001 335.875008 356.375008 305 379L340 448L465 448L475 462C475 462 506 512 576 512z" />
    <glyph glyph-name="money-bag-euro"
      unicode="&#xF12F;"
      horiz-adv-x="1024" d="M512 800C416 800 339 765 339 765L308 752L323 722L374 621C305.750016 580.749984 128 457.5 128 256C128 161.5 158.624992 89.749984 225 50C291.375008 10.249984 384.375008 0 512 0C639.624992 0 732.624992 10.249984 799 50C865.375008 89.749984 896 161.5 896 256C896 387.5 819.250016 486 747 550C809.250016 524.749984 840 490 840 490L888 534C888 534 806.375008 620.249984 658 637L701 722L716 752L685 765C685 765 608 800 512 800zM512 736C562.375008 736 600.5 726.624992 627 718L588 640L436 640L397 718C423.5 726.624992 461.624992 736 512 736zM426 576L598 576C605.875008 571.875008 832 452.624992 832 256C832 173.7499840000001 812.875008 133.124992 766 105C719.124992 76.875008 635.624992 64 512 64C388.375008 64 304.875008 76.875008 258 105C211.124992 133.124992 192 173.7499840000001 192 256C192 452.624992 418.124992 571.875008 426 576zM527 512C480.250016 512 441.250016 487 418 451C405.375008 431.375008 396.5 408.375008 391 384L352 384L352 336L385 336C384.750016 330.624992 384 325.375008 384 320C384 314.624992 384.750016 309.375008 385 304L352 304L352 256L391 256C396.5 231.624992 405.375008 208.624992 418 189C441.250016 153 480.250016 128 527 128C570.875008 128 607.250016 150.124992 634 181L585 223C565 199.875008 552.624992 192 527 192C501.375008 192 485.124992 202.124992 471 224C465.375008 232.7499840000001 460.750016 243.7499840000001 457 256L544 256L544 304L449 304C448.624992 309.2499840000001 448 314.5 448 320C448 325.5 448.624992 330.7499840000001 449 336L544 336L544 384L457 384C460.750016 396.249984 465.375008 407.249984 471 416C485.124992 437.875008 501.375008 448 527 448C550.5 448 564.124992 438.249984 585 414L634 456C608.124992 485.875008 573 512 527 512z" />
    <glyph glyph-name="money"
      unicode="&#xF130;"
      horiz-adv-x="1024" d="M64 736L64 224L960 224L960 736zM189.250016 672L834.875008 672C833 666.875008 832 661.5 832 656C832 629.5 853.5 608 880 608C885.5 608 890.875008 609 896 610.749984L896 349.124992C890.875008 351 885.5 352 880 352C853.5 352 832 330.5 832 304C832 298.5 833 293.124992 834.875008 288L189.250016 288C191 293.124992 192 298.5 192 304C192 330.5 170.5 352 144 352C138.5 352 133.124992 351 128 349.124992L128 610.749984C133.124992 609 138.5 608 144 608C170.5 608 192 629.5 192 656C192 661.5 191 666.875008 189.250016 672zM512 608C441.250016 608 384 550.749984 384 480L384 448L390.5 448C404.875008 393.249984 452.624992 352 512 352C571.375008 352 619.124992 393.249984 633.5 448L640 448L640 480C640 550.749984 582.750016 608 512 608zM512 544C550.124992 544 576 518.124992 576 480C576 441.875008 550.124992 416 512 416C473.875008 416 448 441.875008 448 480C448 518.124992 473.875008 544 512 544zM288 528C261.5 528 240 506.5 240 480C240 453.5 261.5 432 288 432C314.5 432 336 453.5 336 480C336 506.5 314.5 528 288 528zM736 528C709.5 528 688 506.5 688 480C688 453.5 709.5 432 736 432C762.5 432 784 453.5 784 480C784 506.5 762.5 528 736 528zM64 192L64 128L96.124992 128C96.124992 128 554.875008 129.2499840000001 887.875008 41L928 30.5L928 192L864 192L864 157.124992C858.875008 159 853.5 160 848 160C826.375008 160 807.375008 145.375008 801.624992 124.5C472.875008 192.375008 96.375008 192 96 192z" />
    <glyph glyph-name="coins"
      unicode="&#xF131;"
      horiz-adv-x="1024" d="M672 768C614.624992 768 562.624992 757.249984 522 737C481.375008 716.749984 448 683.749984 448 640L448 512C448 507.875008 449.375008 503.875008 450 500C420.250016 507.749984 387.250016 512 352 512C294.624992 512 242.624992 501.249984 202 481C161.375008 460.749984 128 427.749984 128 384L128 128C128 84.249984 161.375008 51.249984 202 31C242.624992 10.749984 294.624992 0 352 0C409.375008 0 461.375008 10.749984 502 31C542.624992 51.249984 576 84.249984 576 128L576 141C605.375008 133.2499840000001 637.5 128 672 128C729.375008 128 781.375008 138.7499840000001 822 159C862.624992 179.2499840000001 896 212.2499840000001 896 256L896 640C896 683.749984 862.624992 716.749984 822 737C781.375008 757.249984 729.375008 768 672 768zM672 704C720.750016 704 764.124992 693.5 793 679C821.875008 664.5 832 649.249984 832 640C832 630.749984 821.875008 615.5 793 601C764.124992 586.5 720.750016 576 672 576C623.250016 576 579.875008 586.5 551 601C522.124992 615.5 512 630.749984 512 640C512 649.249984 522.124992 664.5 551 679C579.875008 693.5 623.250016 704 672 704zM512 549C515.375008 547.124992 518.5 544.749984 522 543C562.624992 522.749984 614.624992 512 672 512C729.375008 512 781.375008 522.749984 822 543C825.5 544.749984 828.624992 547.124992 832 549L832 512C832 502.749984 821.875008 487.5 793 473C764.124992 458.5 720.750016 448 672 448C623.250016 448 579.875008 458.5 551 473C522.124992 487.5 512 502.749984 512 512zM352 448C400.750016 448 444.124992 437.5 473 423C501.875008 408.5 512 393.249984 512 384C512 374.7499840000001 501.875008 359.5 473 345C444.124992 330.5 400.750016 320 352 320C303.250016 320 259.875008 330.5 231 345C202.124992 359.5 192 374.7499840000001 192 384C192 393.249984 202.124992 408.5 231 423C259.875008 437.5 303.250016 448 352 448zM832 421L832 384C832 374.7499840000001 821.875008 359.5 793 345C764.124992 330.5 720.750016 320 672 320C635.624992 320 602.750016 326 576 335L576 384C576 388.124992 574.624992 392.124992 574 396C603.750016 388.249984 636.750016 384 672 384C729.375008 384 781.375008 394.749984 822 415C825.5 416.749984 828.624992 419.124992 832 421zM192 293C195.375008 291.124992 198.5 288.7499840000001 202 287C242.624992 266.7499840000001 294.624992 256 352 256C409.375008 256 461.375008 266.7499840000001 502 287C505.5 288.7499840000001 508.624992 291.124992 512 293L512 256C512 246.7499840000001 501.875008 231.5 473 217C444.124992 202.5 400.750016 192 352 192C303.250016 192 259.875008 202.5 231 217C202.124992 231.5 192 246.7499840000001 192 256zM832 293L832 256C832 246.7499840000001 821.875008 231.5 793 217C764.124992 202.5 720.750016 192 672 192C635.624992 192 602.750016 197.124992 576 206L576 268C605.375008 260.2499840000001 637.375008 256 672 256C729.375008 256 781.375008 266.7499840000001 822 287C825.5 288.7499840000001 828.624992 291.124992 832 293zM192 165C195.375008 163.124992 198.5 160.7499840000001 202 159C242.624992 138.7499840000001 294.624992 128 352 128C409.375008 128 461.375008 138.7499840000001 502 159C505.5 160.7499840000001 508.624992 163.124992 512 165L512 128C512 118.7499840000001 501.875008 103.5 473 89C444.124992 74.5 400.750016 64 352 64C303.250016 64 259.875008 74.5 231 89C202.124992 103.5 192 118.7499840000001 192 128z" />
    <glyph glyph-name="cash-in-hand"
      unicode="&#xF132;"
      horiz-adv-x="1024" d="M633 781L614 755L486 576L352 576C307.250016 576 275.624992 549.249984 245 523L234 513C210.875008 493.624992 141.375008 435.875008 96 398L96 315C103.5 321.2499840000001 240.5 435.124992 275 464L287 474C315.250016 498.249984 331.875008 512 352 512L440 512L294 307L288 298L288 227L335 253C335 253 437 308.875008 452 317C486.250016 335.5 507.250016 352 539 352C559.875008 352 576 335.375008 576 311C576 296.624992 572.875008 291.2499840000001 567 284C561.124992 276.7499840000001 550.750016 268.2499840000001 536 259C501.250016 237.2499840000001 463 200 463 200L461 197L459 195C421.875008 140.875008 374.124992 96 289 96L96 96L96 32L289 32C378.375008 32 436.875008 77.624992 481 128L557 70L583 51L602 77L922 525L940 551L915 570L659 762zM647 690L852 537L569 142L529 172C542.375008 184.124992 555.250016 195.7499840000001 570 205C586.124992 215 603 225.875008 617 243C631 260.124992 640 284 640 311C640 314.375008 639.250016 317.7499840000001 639 321C660.750016 324.2499840000001 679.250016 335.624992 691 355C717.124992 395.375008 701.5 455.875008 655 490C635.250016 505 613.250016 512 592 512C564.750016 512 538.750016 499.749984 524 477C512 458.749984 509.375008 436.5 514 414C473.124992 407.249984 443.875008 385.375008 421 373zM699 590C688.624992 590.624992 679.375008 587 674 580C663.375008 565.875008 671.875008 542 693 526C714.124992 510 740.375008 507.875008 751 522C761.624992 536.124992 753.124992 561 732 577C721.375008 585 709.375008 589.375008 699 590zM592 448C600.250016 448 608.375008 444.5 617 438C638.250016 422.375008 643.875008 398.124992 638 389L637 389L637 388C636.124992 386.5 634.375008 385.624992 632 385L581 415C575.5 426.375008 574.750016 438 578 443C581.250016 447.875008 589 448 592 448z" />
    <glyph glyph-name="receive-cash"
      unicode="&#xF133;"
      horiz-adv-x="1024" d="M544 768C473.624992 768 416 710.375008 416 640C416 592.624992 442.5 551.124992 481 529C480.375008 523.375008 480 517.875008 480 512C480 424 552 352 640 352C728 352 800 424 800 512C800 590.375008 742.624992 656.624992 668 670C654.5 726.124992 604.124992 768 544 768zM544 704C570 704 591.875008 688.875008 602 667C560.124992 656.624992 524.624992 629.249984 503 593C489.250016 604.5 480 620.5 480 640C480 675.749984 508.250016 704 544 704zM640 608C693.375008 608 736 565.375008 736 512C736 458.624992 693.375008 416 640 416C586.624992 416 544 458.624992 544 512C544 565.375008 586.624992 608 640 608zM367 384C264.750016 384 129 328 129 328L153 268C153 268 290.5 320 367 320C398 320 450.875008 301 494 279C515.5 268 534.750016 256.5 549 247C556.124992 242.2499840000001 562.124992 238 566 235C567.875008 233.5 569.250016 231.7499840000001 570 231L575 224C577.5 216.875008 576.750016 208.875008 572 202C565.875008 193.375008 555 190 545 193L544 193L405 260L378 202L520 134L521 134L523 133C560 120 601.375008 132.875008 624 165C636.750016 183.124992 640.5 204.375008 638 225L792 251C809 253.875008 824.624992 243.2499840000001 830 227C835.750016 209.7499840000001 827.624992 192.2499840000001 811 185C764.124992 164.375008 688.750016 133.5 621 108C587.124992 95.249984 554.750016 84 530 76C517.624992 72 506.875008 69 499 67C491.124992 65 484.750016 64 488 64C490 64 477.124992 66.875008 462 75C446.875008 83.124992 427.875008 95 409 107C390.124992 119 370.624992 131.124992 352 141C333.375008 150.875008 316.624992 160 294 160C241.624992 160 195 140 195 140L220 81C220 81 259.124992 96 294 96C293.124992 96 306.750016 93.124992 322 85C337.250016 76.875008 356.124992 65 375 53C393.875008 41 412.750016 28.875008 431 19C449.250016 9.124992 465.250016 0 488 0C498.875008 0 505.124992 2.375008 515 5C524.875008 7.624992 536.875008 10.749984 550 15C576.250016 23.5 608.5 35 643 48C711.875008 73.875008 788.250016 104.5 837 126C883.250016 146.375008 907 200.124992 891 248C875.750016 293.7499840000001 828.624992 321.875008 781 314L606 285C605.875008 285.124992 605.250016 284.875008 605 285C604 285.7499840000001 603 287.2499840000001 602 288L593 295L593 294C590.250016 296 588.250016 297.875008 585 300C568.375008 311 546.750016 323.875008 523 336C475.375008 360.2499840000001 419.5 384 367 384z" />
    <glyph glyph-name="check"
      unicode="&#xF134;"
      horiz-adv-x="1024" d="M224 736L224 256L128 256L128 0L192 0L192 192L224 192L224 96L800 96L800 192L832 192L832 0L896 0L896 256L800 256L800 735L757 719L642 675L526 729L512 736L498 729L383 675L268 720zM512 664L626 611L639 605L651 610L736 643L736 160L288 160L288 643L372 610L385 605L398 611zM352 480L352 416L544 416L544 480zM608 480L608 416L672 416L672 480zM352 352L352 288L544 288L544 352zM608 352L608 288L672 288L672 352z" />
    <glyph glyph-name="donate"
      unicode="&#xF135;"
      horiz-adv-x="1024" d="M576 828C572.5 826 549.124992 815.249984 521 805C492.875008 794.749984 458.250016 782.875008 424 771C389.750016 759.124992 355.124992 748.124992 328 738C314.375008 732.875008 302.750016 728.249984 293 724C283.250016 719.749984 276.875008 717.375008 267 709C255.375008 699 247.375008 687.875008 235 671C222.624992 654.124992 208.375008 633.249984 195 612C181.624992 590.749984 168.750016 568.624992 159 549C149.250016 529.375008 141 515.875008 141 493C141 482.124992 142.5 480.875008 144 475C145.5 469.124992 147.375008 461.375008 150 453C155.124992 436.375008 162.124992 415.375008 171 392C186.750016 350.2499840000001 207.124992 302.624992 230 263C207 229.5 192 189.375008 192 144C192 30.249984 286.250016 -64 400 -64C513.750016 -64 608 30.249984 608 144C608 192 590.124992 237 561 273C572.375008 277.624992 584.375008 282.624992 599 289C635.750016 305 680.375008 328.624992 721 371C721 371.375008 721 371.624992 721 372C763.5 418.375008 782 481.624992 801 537C820 592.375008 840.250016 637.875008 866 655L830 708C779 674 759.375008 614.624992 740 558C720.750016 501.749984 701.624992 446.5 674 416C641.124992 381.624992 605.875008 362.375008 573 348C540.375008 333.7499840000001 512.250016 326.875008 487 307C486.750016 306.875008 486.250016 307.124992 486 307C467.5 292.2499840000001 445.375008 270.375008 421 253C396.624992 235.624992 371.124992 224 352 224C334.250016 224 308.5 243.375008 307 262C305.624992 276 310.124992 289.7499840000001 322 305C333.875008 320.2499840000001 352.5 335.2499840000001 372 348C411.124992 373.5 453 389 453 389C458.624992 391.249984 463.5 395.124992 467 400C467 400 484.875008 424 505 450C525.124992 476 551.250016 506.749984 555 510C566 519.749984 569 535.875008 562.124992 548.875008C555.250016 561.875008 540.250016 568.624992 526 565C526 565 504.5 559.375008 479 558C453.5 556.624992 428.124992 562.5 419 571C411.624992 578.124992 401.250016 581.249984 391.250016 579.5C381.124992 577.749984 372.5 571.249984 368 562C368 562 334.124992 506.249984 297 498C286.875008 495.5 278.5 488.249984 274.750016 478.5C270.875008 468.749984 272.124992 457.749984 278 449C278 449 289.5 433.875008 295 395C296 388.249984 299.124992 381.875008 304 377C304 377 305.5 375.5 306 375C294.124992 365 281.750016 356.5 272 344C269.624992 340.875008 267.250016 337.375008 265 334C252.375008 360 240.750016 388.124992 231 414C222.624992 436.249984 215.750016 456.875008 211 472C208.624992 479.624992 207.124992 485.624992 206 490C205.750016 491.124992 205.124992 491.875008 205 493C205 494.249984 205 493.375008 205 494C205.375008 492 208.375008 505.624992 216 521C224.250016 537.624992 236.375008 558 249 578C261.624992 598 274.624992 617.624992 286 633C296.875008 647.875008 307.5 659.375008 308 660C308 660 308.750016 659.749984 309 660C311 661 315 663.249984 319 665C326.875008 668.5 338 673.124992 351 678C376.875008 687.749984 409.875008 699.249984 444 711C478.124992 722.749984 513 734.5 542 745C571 755.5 592.250016 762.875008 608 772zM408 507C425.250016 500.124992 442 495.375008 459 495C457.250016 492.749984 455.750016 491.249984 454 489C435.624992 465.249984 423.375008 448.624992 420 444C413.250016 441.5 387.5 428.124992 358 412C356 414.375008 355.375008 415.5 354 417C349.750016 435.124992 347.750016 439.749984 343 450C378 467.875008 395.875008 488.124992 408 507zM506 240C529.5 214.5 544 180.124992 544 144C544 65.749984 478.250016 0 400 0C321.750016 0 256 65.749984 256 144C256 163.7499840000001 260 182.2499840000001 267 199C288 174.375008 319.750016 160 352 160C393.624992 160 428.750016 180 458 201C476.875008 214.5 492.5 228.2499840000001 506 240z" />
    <glyph glyph-name="euro-price-tag"
      unicode="&#xF136;"
      horiz-adv-x="1024" d="M512 736L502 727L137 358L115 336L137 313L441 9L464 -13L486 9L855 374L864 384L864 736zM539 672L800 672L800 411L464 77L205 336zM704 608C686.375008 608 672 593.624992 672 576C672 558.375008 686.375008 544 704 544C721.624992 544 736 558.375008 736 576C736 593.624992 721.624992 608 704 608zM445 514L423 492L443 472C439.375008 468.875008 435.5 466.5 432 463C427.250016 458.249984 423.124992 453.249984 419 448L399 468L376 445L401 420C373.250016 366.124992 376.375008 301.624992 419 259C445.375008 232.624992 481.624992 221.124992 517 223L514 287C494.250016 286 476.5 291.5 464 304L464 305C448.375008 321.124992 443.250016 346.375008 450 372L500 322L522 344L464 402C467.750016 407.624992 471.875008 412.875008 477 418C480.375008 421.375008 483.375008 424.249984 487 427L546 368L569 391L517 443C545.250016 452.875008 573.5 448.5 591 431C603.5 418.5 609 401.875008 608 382L672 378C673.875008 413.375008 662.250016 449.624992 636 476C608.624992 503.375008 572 514.875008 535 512C512.375008 510.249984 489.750016 501.875008 469 490z" />
    <glyph glyph-name="euro"
      unicode="&#xF137;"
      horiz-adv-x="1024" d="M576 768C424.375008 768 301.250016 643.624992 266 480L192 480L192 416L258 416C257.250016 405.5 256 394.749984 256 384C256 373.2499840000001 257.250016 362.5 258 352L192 352L192 288L266 288C301.250016 124.375008 424.375008 0 576 0C662.624992 0 741.375008 41.749984 798 107L749 149C702.5 95.375008 642.250016 64 576 64C463.875008 64 365.124992 156.7499840000001 332 288L608 288L608 352L321 352C320.124992 362.624992 320 373.124992 320 384C320 394.875008 320.124992 405.375008 321 416L608 416L608 480L332 480C365.124992 611.249984 463.875008 704 576 704C642.250016 704 702.5 672.624992 749 619L798 661C741.375008 726.249984 662.624992 768 576 768z" />
    <glyph glyph-name="loyalty-card"
      unicode="&#xF138;"
      horiz-adv-x="1024" d="M64 704L64 64L960 64L960 704zM128 640L896 640L896 128L128 128zM605 576L342 192L419 192L682 576zM384 544C349 544 320 515 320 480C320 445 349 416 384 416C419 416 448 445 448 480C448 515 419 544 384 544zM640 352C605 352 576 323 576 288C576 253 605 224 640 224C675 224 704 253 704 288C704 323 675 352 640 352z" />
    <glyph glyph-name="gift-card"
      unicode="&#xF139;"
      horiz-adv-x="1024" d="M160 704C107.375008 704 64 660.624992 64 608L64 160C64 107.375008 107.375008 64 160 64L864 64C916.624992 64 960 107.375008 960 160L960 608C960 660.624992 916.624992 704 864 704zM160 640L352 640L352 544L416 544L416 640L864 640C882.124992 640 896 626.124992 896 608L896 416L640 416L640 352L896 352L896 160C896 141.875008 882.124992 128 864 128L416 128L416 288L352 288L352 128L160 128C141.875008 128 128 141.875008 128 160L128 608C128 626.124992 141.875008 640 160 640zM256 544C203.375008 544 160 500.624992 160 448C160 395.375008 203.375008 352 256 352L271.375008 352C249.875008 329.5 231.5 300.124992 224.5 261.7499840000001L287.5 250.2499840000001C298.750016 312 362.250016 341.2499840000001 383.5 349.5C404.5 340.624992 469.5 309.124992 480.5 250L543.5 262C536.250016 300 517.5 329.5 495.5 352L512 352C564.624992 352 608 395.375008 608 448C608 500.624992 564.624992 544 512 544C456 544 418.250016 501.875008 393.375008 466.375008C389.875008 461.375008 387 456.749984 384 451.875008C381 456.749984 378.124992 461.375008 374.624992 466.375008C349.750016 501.875008 312 544 256 544zM256 480C276 480 302.250016 458.124992 322.375008 429.624992C327 422.875008 326.124992 422.375008 329.875008 416L256 416C237.875008 416 224 429.875008 224 448C224 466.124992 237.875008 480 256 480zM512 480C530.124992 480 544 466.124992 544 448C544 429.875008 530.124992 416 512 416L438.124992 416C441.875008 422.375008 441 422.875008 445.624992 429.624992C465.750016 458.124992 492 480 512 480z" />
    <glyph glyph-name="shop"
      unicode="&#xF13A;"
      horiz-adv-x="1024" d="M128 768L128 651L32 523L32 512C32 459.375008 75.375008 416 128 416L128 0L640 0L640 288L704 288L704 0L896 0L896 416C948.624992 416 992 459.375008 992 512L992 523L896 651L896 768zM192 704L832 704L832 672L192 672zM176 608L848 608L925 505C921.5 491.124992 911 480 896 480C878.250016 480 864 494.249984 864 512L800 512C800 494.249984 785.750016 480 768 480C750.250016 480 736 494.249984 736 512L672 512C672 494.249984 657.750016 480 640 480C622.250016 480 608 494.249984 608 512L544 512C544 494.249984 529.750016 480 512 480C494.250016 480 480 494.249984 480 512L416 512C416 494.249984 401.750016 480 384 480C366.250016 480 352 494.249984 352 512L288 512C288 494.249984 273.750016 480 256 480C238.250016 480 224 494.249984 224 512L160 512C160 494.249984 145.750016 480 128 480C113 480 102.5 491.124992 99 505zM192 441C209 425.624992 231.5 416 256 416C280.5 416 303 425.624992 320 441C337 425.624992 359.5 416 384 416C408.5 416 431 425.624992 448 441C465 425.624992 487.5 416 512 416C536.5 416 559 425.624992 576 441C593 425.624992 615.5 416 640 416C664.5 416 687 425.624992 704 441C721 425.624992 743.5 416 768 416C792.5 416 815 425.624992 832 441L832 64L768 64L768 352L576 352L576 64L192 64zM256 352L256 128L512 128L512 352zM320 288L448 288L448 192L320 192z" />
    <glyph glyph-name="shopping-cart"
      unicode="&#xF13B;"
      horiz-adv-x="1024" d="M160 672C142.375008 672 128 657.624992 128 640C128 622.375008 142.375008 608 160 608L231 608L315 272C322.124992 243.5 347.624992 224 377 224L744 224C772.875008 224 797.375008 243.124992 805 271L888 576L352 576L368 512L805 512L744 288L377 288L293 624C285.875008 652.5 260.375008 672 231 672zM704 224C651.375008 224 608 180.624992 608 128C608 75.375008 651.375008 32 704 32C756.624992 32 800 75.375008 800 128C800 180.624992 756.624992 224 704 224zM416 224C363.375008 224 320 180.624992 320 128C320 75.375008 363.375008 32 416 32C468.624992 32 512 75.375008 512 128C512 180.624992 468.624992 224 416 224zM416 160C434 160 448 146 448 128C448 110 434 96 416 96C398 96 384 110 384 128C384 146 398 160 416 160zM704 160C722 160 736 146 736 128C736 110 722 96 704 96C686 96 672 110 672 128C672 146 686 160 704 160z" />
    <glyph glyph-name="shopping-cart-loaded"
      unicode="&#xF13C;"
      horiz-adv-x="1024" d="M512 736L353 577L354 576L352 576L368 512L805 512L744 288L377 288L293 624C285.875008 652.5 260.375008 672 231 672L160 672C142.375008 672 128 657.624992 128 640C128 622.375008 142.375008 608 160 608L231 608L315 272C322.124992 243.5 347.624992 224 377 224L744 224C772.875008 224 797.375008 243.124992 805 271L888 576L832 576L672 736L592 656zM704 224C651.375008 224 608 180.624992 608 128C608 75.375008 651.375008 32 704 32C756.624992 32 800 75.375008 800 128C800 180.624992 756.624992 224 704 224zM416 224C363.375008 224 320 180.624992 320 128C320 75.375008 363.375008 32 416 32C468.624992 32 512 75.375008 512 128C512 180.624992 468.624992 224 416 224zM512 645L582 576L443 576zM672 645L741 576L672 576L638 610zM416 160C434 160 448 146 448 128C448 110 434 96 416 96C398 96 384 110 384 128C384 146 398 160 416 160zM704 160C722 160 736 146 736 128C736 110 722 96 704 96C686 96 672 110 672 128C672 146 686 160 704 160z" />
    <glyph glyph-name="add-shopping-cart"
      unicode="&#xF13D;"
      horiz-adv-x="1024" d="M128 672C110.375008 672 96 657.624992 96 640C96 622.375008 110.375008 608 128 608L199 608L283 272C290.124992 243.5 315.624992 224 345 224L744 224C772.875008 224 797.375008 243.124992 805 271L888 576L821 576L744 288L345 288L261 624C253.875008 652.5 228.375008 672 199 672zM704 224C651.375008 224 608 180.624992 608 128C608 75.375008 651.375008 32 704 32C756.624992 32 800 75.375008 800 128C800 180.624992 756.624992 224 704 224zM416 224C363.375008 224 320 180.624992 320 128C320 75.375008 363.375008 32 416 32C468.624992 32 512 75.375008 512 128C512 180.624992 468.624992 224 416 224zM512 672L512 576L416 576L416 512L512 512L512 416L576 416L576 512L672 512L672 576L576 576L576 672zM416 160C434 160 448 146 448 128C448 110 434 96 416 96C398 96 384 110 384 128C384 146 398 160 416 160zM704 160C722 160 736 146 736 128C736 110 722 96 704 96C686 96 672 110 672 128C672 146 686 160 704 160z" />
    <glyph glyph-name="clear-shopping-cart"
      unicode="&#xF13E;"
      horiz-adv-x="1024" d="M128 672C110.375008 672 96 657.624992 96 640C96 622.375008 110.375008 608 128 608L199 608L283 272C290.124992 243.5 315.624992 224 345 224L744 224C772.875008 224 797.375008 243.124992 805 271L888 576L821 576L744 288L345 288L261 624C253.875008 652.5 228.375008 672 199 672zM704 224C651.375008 224 608 180.624992 608 128C608 75.375008 651.375008 32 704 32C756.624992 32 800 75.375008 800 128C800 180.624992 756.624992 224 704 224zM416 224C363.375008 224 320 180.624992 320 128C320 75.375008 363.375008 32 416 32C468.624992 32 512 75.375008 512 128C512 180.624992 468.624992 224 416 224zM471 631L425 585L498 512L425 439L471 393L544 466L617 393L663 439L590 512L663 585L617 631L544 558zM416 160C434 160 448 146 448 128C448 110 434 96 416 96C398 96 384 110 384 128C384 146 398 160 416 160zM704 160C722 160 736 146 736 128C736 110 722 96 704 96C686 96 672 110 672 128C672 146 686 160 704 160z" />
    <glyph glyph-name="speech-bubble"
      unicode="&#xF13F;"
      horiz-adv-x="1024" d="M512 800C390.750016 800 280.5 764.375008 199 704.749984C117.375008 645.249984 64 559.749984 64 464C64 347.875008 143.124992 249.624992 256 190.375008L256 -32L471.875008 130C485 129 498.250016 128 512 128C633.250016 128 743.5 163.624992 825 223.124992C906.624992 282.7499840000001 960 368.2499840000001 960 464C960 559.749984 906.624992 645.249984 825 704.749984C743.5 764.375008 633.250016 800 512 800zM512 736C620.5 736 718.250016 703.5 787.250016 653.124992C856.250016 602.749984 896 536.124992 896 464C896 391.875008 856.250016 325.2499840000001 787.250016 274.875008C718.250016 224.5 620.5 192 512 192C496.250016 192 480.5 192.875008 464.750016 194.375008L452.5 195.375008L320 96L320 228.5L301.5 237C194.250016 287.375008 128 371.624992 128 464C128 536.124992 167.750016 602.749984 236.750016 653.124992C305.750016 703.5 403.5 736 512 736z" />
    <glyph glyph-name="gas-station"
      unicode="&#xF140;"
      horiz-adv-x="1024" d="M256 736C203.375008 736 160 692.624992 160 640L160 32L608 32L608 256L672 256L672 128C672 75.375008 715.375008 32 768 32C820.624992 32 864 75.375008 864 128L864 454C864 479.5 854 503 836 521L685 672L640 627L731 536C696.624992 521.375008 672 487.5 672 448C672 395.375008 715.375008 352 768 352C779.250016 352 789.875008 354.375008 800 358L800 128C800 109.875008 786.124992 96 768 96C749.875008 96 736 109.875008 736 128L736 256C736 291 707 320 672 320L608 320L608 640C608 692.624992 564.624992 736 512 736zM256 672L512 672C530.124992 672 544 658.124992 544 640L544 512L224 512L224 640C224 658.124992 237.875008 672 256 672zM768 480C786 480 800 466 800 448C800 430 786 416 768 416C750 416 736 430 736 448C736 466 750 480 768 480zM224 448L544 448L544 96L224 96z" />
    <glyph glyph-name="train"
      unicode="&#xF141;"
      horiz-adv-x="1024" d="M448 800C407.750016 800 379.124992 771.5 365 736L320 736C232 736 160 664 160 576L160 224C160 146.375008 206.375008 79.249984 273 49L192 -32L267 -32L332 33C338.375008 32.375008 345.375008 32 352 32L672 32C678.624992 32 685.624992 32.375008 692 33L757 -32L832 -32L751 49C817.624992 79.249984 864 146.375008 864 224L864 576C864 664 792 736 704 736L659 736C644.875008 771.5 616.250016 800 576 800zM448 736L576 736C594.124992 736 608 722.124992 608 704L608 672L704 672C746.250016 672 782 645.5 795 608L229 608C242 645.5 277.750016 672 320 672L416 672L416 704C416 722.124992 429.875008 736 448 736zM224 544L800 544L800 384L224 384zM224 320L800 320L800 224C800 153 743 96 672 96L352 96C281 96 224 153 224 224zM512 288C476.624992 288 448 259.375008 448 224C448 188.624992 476.624992 160 512 160C547.375008 160 576 188.624992 576 224C576 259.375008 547.375008 288 512 288z" />
    <glyph glyph-name="bus"
      unicode="&#xF142;"
      horiz-adv-x="1024" d="M288 768C217.624992 768 160 710.375008 160 640L160 480L96 480L96 384L160 384L160 32C160 14.375008 174.375008 0 192 0L288 0L299 32L725 32L736 0L832 0C849.624992 0 864 14.375008 864 32L864 384L928 384L928 480L864 480L864 640C864 710.375008 806.375008 768 736 768zM288 704L736 704C771.750016 704 800 675.749984 800 640L224 640C224 675.749984 252.250016 704 288 704zM224 576L480 576L480 352L224 352zM544 576L800 576L800 352L544 352zM224 288L800 288L800 96L224 96zM256 224L256 160L384 160L384 224zM640 224L640 160L768 160L768 224z" />
    <glyph glyph-name="tram"
      unicode="&#xF143;"
      horiz-adv-x="1024" d="M344 832L274 797L302 739L360 768L664 768L722 739L750 797L680 832zM480 736L480 704L384 704C278.375008 704 192 617.624992 192 512L192 128C192 75.375008 235.375008 32 288 32L224 -32L299 -32L363 32L661 32L725 -32L800 -32L736 32C788.624992 32 832 75.375008 832 128L832 512C832 617.624992 745.624992 704 640 704L544 704L544 736zM384 640L640 640C711 640 768 583 768 512L768 384L256 384L256 512C256 583 313 640 384 640zM256 320L768 320L768 128C768 109.875008 754.124992 96 736 96L288 96C269.875008 96 256 109.875008 256 128zM368 256C341.5 256 320 234.5 320 208C320 181.5 341.5 160 368 160C394.5 160 416 181.5 416 208C416 234.5 394.5 256 368 256zM656 256C629.5 256 608 234.5 608 208C608 181.5 629.5 160 656 160C682.5 160 704 181.5 704 208C704 234.5 682.5 256 656 256z" />
    <glyph glyph-name="airport"
      unicode="&#xF144;"
      horiz-adv-x="1024" d="M512 800C459.375008 800 416 756.624992 416 704L416 469L147 349L128 341L128 188L416 220L416 161L334 106L320 97L320 -39L358 -31L512 0L666 -31L704 -39L704 97L690 106L608 161L608 220L896 188L896 341L877 349L608 469L608 704C608 756.624992 564.624992 800 512 800zM512 736C530.124992 736 544 722.124992 544 704L544 427L563 419L832 299L832 260L544 292L544 126L558 117L640 62L640 39L518 63L512 65L506 63L384 39L384 62L466 117L480 126L480 292L192 260L192 299L461 419L480 427L480 704C480 722.124992 493.875008 736 512 736z" />
    <glyph glyph-name="scooter"
      unicode="&#xF145;"
      horiz-adv-x="1024" d="M688 736C667 736 649.5 722.749984 643 704L512 704L512 640L625 640C660.875008 600.749984 686.875008 559 707 520C708.750016 500 704 478.749984 692 455C677.624992 426.5 654.750016 396.875008 630 371C583.250016 322.2499840000001 537.624992 291.875008 532 288L448 288C434.250016 288 424.750016 291.375008 421 294C417.250016 296.624992 416 296.2499840000001 416 305C416 324.375008 426.624992 343.124992 442 365C457.375008 386.875008 480 410.624992 480 448L479 448C479.375008 450.875008 480 454 480 457C480 495.375008 449.250016 527.624992 411 530L206 541L205 541C163.750016 543 128 509.5 128 468L128 457C128 442.749984 132.875008 429.249984 140 418C130.624992 408.875008 119.124992 398.875008 106 387C72.375008 356.375008 32 311.375008 32 243L32 223L51 214C51 214 62.875008 208.875008 72 205C66.750016 191.124992 64 175.624992 64 160C64 89.624992 121.624992 32 192 32C253.250016 32 304.624992 75.375008 317 133C336.750016 130.2499840000001 356.250016 128 375 128L554 128C591.250016 128 626.875008 141.875008 655 166C657 166.7499840000001 677.124992 171.5 706 179C705 172.7499840000001 704 166.5 704 160C704 89.624992 761.624992 32 832 32C902.375008 32 960 89.624992 960 160C960 178.375008 956 196.124992 949 212C952.750016 212 956.250016 212 960 212L992 212L992 264L989 271C975.375008 297.7499840000001 949.750016 322 917 344C891.124992 361.375008 860.375008 376.5 827 382C820.375008 412.749984 803.875008 470.875008 769 541C768.5 543.375008 768.624992 545.624992 768 548L766 547C750.375008 577.624992 732.375008 608.875008 709 640L768 640L768 736zM202 477L407 466L408 466C412.750016 465.375008 416 461.875008 416 457C416 451.5 412.5 448 407 448L201 448C195.5 448 192 451.5 192 457L192 468C192 473.875008 196.250016 477.375008 202 477zM748 424C758.250016 391.875008 762.624992 368.375008 764 361L618 218C601 201.2499840000001 577.875008 192 554 192L375 192C352.375008 192 325.624992 195.5 298 201C294 201.7499840000001 290.124992 202.124992 286 203C251.375008 210.5 215.750016 221.375008 184 232C163.250016 238.875008 149.124992 244.124992 137 249C136 249.375008 135 249.7499840000001 134 250C132.124992 251.2499840000001 130.124992 252.2499840000001 128 253C127 253.375008 126 252.624992 125 253C115.875008 256.875008 108 261.5 102 264C108.750016 294.375008 125.5 317.624992 150 340C165.124992 353.875008 181.5 366.7499840000001 196 383C196.250016 383.375008 196.750016 383.624992 197 384C198.375008 383.875008 199.624992 384 201 384L378 384C364.624992 363 352 336.875008 352 305C352 279 364.875008 254.375008 384 241C403.124992 227.624992 425.624992 224 448 224L544 224C550.375008 223.875008 556.624992 225.624992 562 229C562 229 620.875008 269.5 676 327C703.124992 355.2499840000001 729.375008 387.624992 748 424zM812 319C834.875008 316.124992 859.5 305.5 881 291C891.624992 283.875008 894 277.875008 902 270C900.250016 269.875008 898.750016 270.124992 897 270C892.250016 271.875008 887.124992 272.5 882 272C876.624992 271.624992 871.5 269.875008 867 267C823.750016 263 786 258 752 252C750 251.5 747.875008 250.875008 746 250C744.375008 249.7499840000001 742.624992 249.2499840000001 741 249zM874 208C887.5 196.375008 896 179.5 896 160C896 124.2499840000001 867.750016 96 832 96C796.250016 96 768 124.2499840000001 768 160C768 173.5 772 185.7499840000001 779 196C807.124992 201 839.375008 205 874 208zM132 182C142.875008 178 150.624992 175.124992 163 171C191.124992 161.624992 222.124992 152.624992 254 145C247.250016 116.7499840000001 222.5 96 192 96C156.250016 96 128 124.2499840000001 128 160C128 167.7499840000001 129.5 175.124992 132 182z" />
    <glyph glyph-name="traffic-jam"
      unicode="&#xF146;"
      horiz-adv-x="1024" d="M506 736C495.624992 733.875008 487.124992 726.749984 483 717L436 608L192 608C191 608 190 608 189 608C188 608 187 608 186 608C175.624992 605.875008 167.124992 598.749984 163 589L67 365C65.124992 360.875008 64.124992 356.5 64 352L64 192C64 191 64 190 64 189L64 160C64 142.375008 78.375008 128 96 128L192 128L203 160L256 160L256 64C256 63 256 62 256 61L256 32C256 14.375008 270.375008 0 288 0L384 0L395 32L693 32L704 0L800 0C817.624992 0 832 14.375008 832 32L832 59C832.124992 60.624992 832.124992 62.375008 832 64L832 224C831.875008 228.5 830.875008 232.875008 829 237L807 288L821 288L832 256L928 256C945.624992 256 960 270.375008 960 288L960 315C960.124992 316.624992 960.124992 318.375008 960 320L960 480C959.875008 484.5 958.875008 488.875008 957 493L861 717C855.875008 728.5 844.5 735.875008 832 736L512 736C511 736 510 736 509 736C508 736 507 736 506 736zM533 672L811 672L852 576L547 576L542 588C537.124992 600.249984 525.124992 608.124992 512 608L505 608zM213 544L490 544L517 480L384 480C383 480 382 480 381 480C380 480 379 480 378 480C367.624992 477.875008 359.124992 470.749984 355 461L349 448L172 448zM573 512L880 512L896 474L896 352L780 352L733 461C727.875008 472.5 716.5 479.875008 704 480L587 480zM816 480C789.5 480 768 458.5 768 432C768 405.5 789.5 384 816 384C842.5 384 864 405.5 864 432C864 458.5 842.5 480 816 480zM405 416L683 416L724 320L364 320zM144 384L322 384L259 237C257.124992 232.875008 256.124992 228.5 256 224L128 224L128 346zM208 352C181.5 352 160 330.5 160 304C160 277.5 181.5 256 208 256C234.5 256 256 277.5 256 304C256 330.5 234.5 352 208 352zM336 256L752 256L768 218L768 96L320 96L320 218zM400 224C373.5 224 352 202.5 352 176C352 149.5 373.5 128 400 128C426.5 128 448 149.5 448 176C448 202.5 426.5 224 400 224zM688 224C661.5 224 640 202.5 640 176C640 149.5 661.5 128 688 128C714.5 128 736 149.5 736 176C736 202.5 714.5 224 688 224z" />
    <glyph glyph-name="parking"
      unicode="&#xF147;"
      horiz-adv-x="1024" d="M192 736L192 32L832 32L832 736zM256 672L768 672L768 96L256 96zM384 576L384 192L448 192L448 288L544 288C596.624992 288 640 331.375008 640 384L640 480C640 532.624992 596.624992 576 544 576zM448 512L544 512C562.124992 512 576 498.124992 576 480L576 384C576 365.875008 562.124992 352 544 352L448 352z" />
    <glyph glyph-name="segway"
      unicode="&#xF148;"
      horiz-adv-x="1024" d="M346 768C344 767.5 341.875008 766.875008 340 766L260 734L284 674L356 703L480 678L480 544L544 544L544 678L668 703L740 674L764 734L684 766C678.250016 768 672 768.375008 666 767L512 736L358 767C355.124992 767.749984 352 768.124992 349 768C348 768 347 768 346 768zM480 512L480 128L384 128L384 64L640 64L640 128L544 128L544 512zM304 288C277.5 288 256 266.5 256 240L256 48C256 21.5 277.5 0 304 0C330.5 0 352 21.5 352 48L352 240C352 266.5 330.5 288 304 288zM720 288C693.5 288 672 266.5 672 240L672 48C672 21.5 693.5 0 720 0C746.5 0 768 21.5 768 48L768 240C768 266.5 746.5 288 720 288z" />
    <glyph glyph-name="park-and-charge"
      unicode="&#xF149;"
      horiz-adv-x="1024" d="M128 736L128 512C128 476.624992 156.624992 448 192 448L192 32L832 32L832 736L384 736L384 672L768 672L768 96L256 96L256 448C291.375008 448 320 476.624992 320 512L320 736L256 736L256 640L192 640L192 736zM384 576L384 192L448 192L448 288L544 288C596.624992 288 640 331.375008 640 384L640 480C640 532.624992 596.624992 576 544 576zM448 512L544 512C562.124992 512 576 498.124992 576 480L576 384C576 365.875008 562.124992 352 544 352L448 352z" />
    <glyph glyph-name="tax"
      unicode="&#xF14A;"
      horiz-adv-x="1024" d="M384 800C329.624992 800 288 758.375008 288 704C288 649.624992 329.624992 608 384 608L406.375008 608L467.124992 544L320 384L320 288L617.624992 611.249984C624 608 630.375008 608 640 608C694.375008 608 736 649.624992 736 704C736 758.375008 694.375008 800 640 800C585.624992 800 544 758.375008 544 704C544 684.749984 550.375008 665.624992 560 649.624992L512 595.249984L460.875008 649.624992C473.624992 662.375008 480 681.624992 480 704C480 758.375008 438.375008 800 384 800zM384 736C403.250016 736 416 723.249984 416 704C416 684.749984 403.250016 672 384 672C364.750016 672 352 684.749984 352 704C352 723.249984 364.750016 736 384 736zM640 736C659.250016 736 672 723.249984 672 704C672 684.749984 659.250016 672 640 672C620.750016 672 608 684.749984 608 704C608 723.249984 620.750016 736 640 736zM64 480L64 -32L960 -32L960 480L583.750016 480L495.375008 384L544 384L544 416L834.875008 416C833 410.875008 832 405.5 832 400C832 373.5 853.5 352 880 352C885.5 352 890.875008 353 896 354.875008L896 93.124992C890.875008 95 885.5 96 880 96C853.5 96 832 74.5 832 48C832 42.5 833 37.124992 834.875008 32L544 32L544 64L480 64L480 32L189.250016 32C191 37.124992 192 42.5 192 48C192 74.5 170.5 96 144 96C138.5 96 133.124992 95 128 93.124992L128 354.875008C133.124992 353 138.5 352 144 352C170.5 352 192 373.5 192 400C192 405.5 191 410.875008 189.250016 416L262.5 416L272.875008 427.375008L321.375008 480zM480 347.624992C469.875008 345.124992 460.5 341.124992 451.5 336.375008L394.5 274.5C388 259 384 242.124992 384 224C384 163.375008 424.250016 114.2499840000001 480 100.375008L480 128L544 128L544 100.375008C599.750016 114.2499840000001 640 163.375008 640 224C640 284.624992 599.750016 333.7499840000001 544 347.624992L544 320L480 320zM256 272C229.5 272 208 250.5 208 224C208 197.5 229.5 176 256 176C282.5 176 304 197.5 304 224C304 250.5 282.5 272 256 272zM768 272C741.5 272 720 250.5 720 224C720 197.5 741.5 176 768 176C794.5 176 816 197.5 816 224C816 250.5 794.5 272 768 272zM480 256L544 256L544 192L480 192z" />
    <glyph glyph-name="request-money"
      unicode="&#xF14B;"
      horiz-adv-x="1024" d="M96 768L96 288L928 288L928 768zM224 704L800 704C800 668.624992 828.624992 640 864 640L864 416C828.624992 416 800 387.375008 800 352L224 352C224 387.375008 195.375008 416 160 416L160 640C195.375008 640 224 668.624992 224 704zM512 672C441.250016 672 384 607.5 384 528C384 448.5 441.250016 384 512 384C582.750016 384 640 448.5 640 528C640 607.5 582.750016 672 512 672zM512 608C547.250016 608 576 572.124992 576 528C576 483.875008 547.250016 448 512 448C476.750016 448 448 483.875008 448 528C448 572.124992 476.750016 608 512 608zM272 576C245.5 576 224 554.5 224 528C224 501.5 245.5 480 272 480C298.5 480 320 501.5 320 528C320 554.5 298.5 576 272 576zM752 576C725.5 576 704 554.5 704 528C704 501.5 725.5 480 752 480C778.5 480 800 501.5 800 528C800 554.5 778.5 576 752 576zM480 224L480 128L352 128L512 -32L672 128L544 128L544 224z" />
    <glyph glyph-name="beach"
      unicode="&#xF14C;"
      horiz-adv-x="1024" d="M400 799C359.750016 798 323.375008 787 294 772C235.250016 741.875008 199 698 199 698L192 689L192 637L227 640C227 640 263.624992 643.249984 309 641C322.875008 640.375008 331.875008 635 346 633C325.624992 624.375008 306.5 619 286 604C249.624992 577.249984 215.5 538 201 483C186.5 428 191.5 359.124992 224 276L232 256L288 256L288 288C288 401 342.250016 451.749984 399 481C415 489.249984 430.375008 494.5 445 499L416 68C392.124992 65.624992 368.124992 64 343 64C234.124992 64 146 123 146 123L110 69C110 69 211.375008 0 343 0C469 0 564.875008 32 681 32C791.5 32 878 -26 878 -26L914 26C914 26 813.875008 96 681 96C654.624992 96 630.124992 94.124992 606 92L579 499C593.624992 494.5 609 489.249984 625 481C681.750016 451.749984 736 401 736 288L736 256L792 256L800 276C832.5 359.124992 837.5 428 823 483C808.5 538 774.375008 577.249984 738 604C714.250016 621.5 691.124992 628 668 637C683.624992 639.5 699.5 642.5 715 643C759.624992 644.624992 796 640 796 640L832 636L832 689L825 698C825 698 788.750016 741.875008 730 772C675 800.249984 594.624992 813 512 770C473.5 790 435.124992 799.875008 400 799zM401 737C429.5 737.875008 460.624992 730.249984 495 709L512 698L529 709C597.750016 751.624992 654 738.5 700 715C706.624992 711.624992 705.124992 710.749984 711 707C661.375008 705.124992 601.750016 698.749984 557 666L544 656L544 604L573 601C573 601 644.875008 593.5 700 553C727.624992 532.749984 750.624992 506.249984 761 467C763.750016 456.5 763.250016 441.624992 764 429C735.750016 480.249984 695.875008 515.875008 655 537C583.750016 573.749984 513 576 513 576L511 576C511 576 440.250016 573.749984 369 537C328.124992 515.875008 288.250016 480.249984 260 429C260.750016 441.624992 260.250016 456.5 263 467C273.375008 506.249984 296.375008 532.749984 324 553C379.124992 593.5 451 601 451 601L480 604L480 657L466 666C421.750016 696.124992 363 702.5 313 705C311.875008 705 312.124992 705 311 705C317.875008 709.5 316 710.875008 324 715C347 726.749984 372.5 736.124992 401 737zM510 512C510.124992 512 510.875008 512 511 512C511 512 512.875008 512 513 512C513.124992 512 513.875008 512 514 512L542 85C521.624992 82.124992 500.875008 78.875008 481 76z" />
    <glyph glyph-name="exercise"
      unicode="&#xF14D;"
      horiz-adv-x="1024" d="M784 720C731.375008 720 688 676.624992 688 624C688 571.375008 731.375008 528 784 528C836.624992 528 880 571.375008 880 624C880 676.624992 836.624992 720 784 720zM503 701C498.750016 700.624992 494.250016 700.124992 490 699L369 665L386 603L508 638L570 602L451 501C420.250016 475 408.250016 433.249984 421 395L468 256L320 256L320 192L468 192C510.750016 192 541.5 235.5 528 276L482 415C477.5 428.5 482.124992 442.749984 493 452L618 559L649 512L546 412C525.875008 392.249984 521.750016 361 535 336L598 218L531 64L600 64L656 192C663.875008 210 663.250016 230.624992 654 248L591 366L672 445L672 416C672 381 701 352 736 352L864 352L864 416L736 416L736 479C736 491.749984 731.875008 504.5 725 515L656 618C650.624992 625.875008 643.124992 632.249984 635 637L540 693C528.750016 699.624992 515.875008 702 503 701zM784 656C802 656 816 642 816 624C816 606 802 592 784 592C766 592 752 606 752 624C752 642 766 656 784 656zM96 544L96 480L362 480C370.5 503.875008 384.750016 525.875008 404 544zM96 416L96 352L368 352L361 374C356.375008 387.749984 353.875008 402.124992 353 416z" />
    <glyph glyph-name="cloud"
      unicode="&#xF14E;"
      horiz-adv-x="1024" d="M512 672C427.250016 672 353.624992 632.375008 301 574C296.624992 574.5 292.750016 576 288 576C217.624992 576 160 518.375008 160 448C104.624992 414.249984 64 357.2499840000001 64 288C64 182.375008 150.375008 96 256 96L768 96C873.624992 96 960 182.375008 960 288C960 389 880.375008 469.875008 781 477C741.875008 589.624992 637.624992 672 512 672zM512 608C616.875008 608 704.375008 535.875008 729 439L735 414L762 415C768.750016 415.375008 770.250016 416 768 416C839 416 896 359 896 288C896 217 839 160 768 160L256 160C185 160 128 217 128 288C128 341.124992 160.250016 386.5 206 406L228 415L225 439C224.375008 444.249984 224 447.249984 224 448C224 483.749984 252.250016 512 288 512C292.5 512 297.5 511.375008 303 510L323 505L335 521C376 573.624992 440 608 512 608z" />
    <glyph glyph-name="download-from-the-cloud"
      unicode="&#xF14F;"
      horiz-adv-x="1024" d="M512 736C380.250016 736 276.5 635.875008 262 508C204.624992 498.375008 158.124992 459.375008 139 405C60.250016 382.2499840000001 0 312 0 224C0 117.624992 85.624992 32 192 32L832 32C938.375008 32 1024 117.624992 1024 224C1024 280.375008 996.624992 330.7499840000001 957 366C949.624992 478.5 859.875008 568.124992 747 574C708.5 667.749984 620.124992 736 512 736zM512 672C600.375008 672 671.124992 615.375008 696 535L703 512L736 512C824.124992 512 896 440.124992 896 352L896 336L909 326C939.250016 303.375008 960 264.5 960 224C960 151.124992 904.875008 96 832 96L192 96C119.124992 96 64 151.124992 64 224C64 288.624992 110.375008 338.7499840000001 169 349L190 353L194 374C203.624992 417.124992 241.750016 448 288 448L320 448L320 480C320 587.875008 404.124992 672 512 672zM480 512L480 302L407 375L361 329L489 201L512 179L535 201L663 329L617 375L544 302L544 512z" />
    <glyph glyph-name="upload-to-the-cloud"
      unicode="&#xF150;"
      horiz-adv-x="1024" d="M512 768C380.250016 768 276.5 667.875008 262 540C204.624992 530.375008 158.124992 491.375008 139 437C60.250016 414.249984 0 344 0 256C0 149.624992 85.624992 64 192 64L832 64C938.375008 64 1024 149.624992 1024 256C1024 312.375008 996.624992 362.7499840000001 957 398C949.624992 510.5 859.875008 600.124992 747 606C708.5 699.749984 620.124992 768 512 768zM512 704C600.375008 704 671.124992 647.375008 696 567L703 544L736 544C824.124992 544 896 472.124992 896 384L896 368L909 358C939.250016 335.375008 960 296.5 960 256C960 183.124992 904.875008 128 832 128L192 128C119.124992 128 64 183.124992 64 256C64 320.624992 110.375008 370.7499840000001 169 381L190 385L194 406C203.624992 449.124992 241.750016 480 288 480L320 480L320 512C320 619.875008 404.124992 704 512 704zM512 525L489 503L361 375L407 329L480 402L480 192L544 192L544 402L617 329L663 375L535 503z" />
    <glyph glyph-name="cloud-checked"
      unicode="&#xF151;"
      horiz-adv-x="1024" d="M512 672C427.250016 672 353.624992 632.375008 301 574C296.624992 574.5 292.750016 576 288 576C217.624992 576 160 518.375008 160 448C104.624992 414.249984 64 357.2499840000001 64 288C64 182.375008 150.375008 96 256 96L768 96C873.624992 96 960 182.375008 960 288C960 389 880.375008 469.875008 781 477C741.875008 589.624992 637.624992 672 512 672zM512 608C616.875008 608 704.375008 535.875008 729 439L735 414L762 415C768.750016 415.375008 770.250016 416 768 416C839 416 896 359 896 288C896 217 839 160 768 160L256 160C185 160 128 217 128 288C128 341.124992 160.250016 386.5 206 406L228 415L225 439C224.375008 444.249984 224 447.249984 224 448C224 483.749984 252.250016 512 288 512C292.5 512 297.5 511.375008 303 510L323 505L335 521C376 573.624992 440 608 512 608zM617 471L480 334L407 407L361 361L457 265L480 243L503 265L663 425z" />
    <glyph glyph-name="error-cloud"
      unicode="&#xF152;"
      horiz-adv-x="1024" d="M512 672C427.5 672 354.124992 632.375008 301.5 574.375008C297 574.875008 293 576 288 576C217.624992 576 160 518.375008 160 448C160 447.749984 160 447.749984 160 447.5C104.624992 413.749984 64 357.375008 64 288C64 182.375008 150.375008 96 256 96L768 96C873.624992 96 960 182.375008 960 288C960 389 880.375008 470.249984 781 477.375008C741.750016 589.875008 637.5 672 512 672zM512 608C616.875008 608 704.124992 536.249984 728.875008 439.375008L735.375008 413.624992L761.624992 415.249984C768.375008 415.624992 770.250016 416 768 416C839 416 896 359 896 288C896 217 839 160 768 160L256 160C185 160 128 217 128 288C128 341.124992 160.124992 386.249984 205.875008 405.749984L228.124992 415.249984L225 439.375008C224.375008 444.5 224 447.249984 224 448C224 483.749984 252.250016 512 288 512C292.5 512 297.250016 511.375008 302.750016 510L322.875008 505.375008L335.5 521.5C376.5 574.124992 440 608 512 608zM511.5 544.5C493.875008 544.124992 479.750016 529.624992 480 512L480 384C479.875008 372.5 485.875008 361.7499840000001 495.875008 355.875008C505.875008 350.124992 518.124992 350.124992 528.124992 355.875008C538.124992 361.7499840000001 544.124992 372.5 544 384L544 512C544.124992 520.624992 540.750016 529 534.624992 535.124992C528.5 541.249984 520.124992 544.624992 511.5 544.5zM512 288C494.375008 288 480 273.624992 480 256C480 238.375008 494.375008 224 512 224C529.624992 224 544 238.375008 544 256C544 273.624992 529.624992 288 512 288z" />
    <glyph glyph-name="unavailable-cloud"
      unicode="&#xF153;"
      horiz-adv-x="1024" d="M182.624992 726.624992L137.375008 681.375008L658.750016 160L657.875008 160L721.624992 96L722.750016 96L873.375008 -54.624992L918.624992 -9.375008L808.750016 100.5C895.124992 119.2499840000001 960 196.124992 960 288C960 388.624992 882.124992 471.5 783.5 479.375008C743.375008 594 635.250016 672 512 672C437.875008 672 368.375008 643.875008 315.250016 594zM512 608C614.375008 608 703.624992 538.624992 728.875008 439.375008L735.250016 413.749984L761.5 415.249984C763.624992 415.375008 765.624992 415.624992 768.624992 416C839 415.624992 896 358.375008 896 288C896 217.375008 838.624992 160 768 160L749.250016 160L360.750016 548.5C401.875008 586.5 455.124992 608 512 608zM193.875008 534.5C174.375008 513 161.750016 485.249984 160.250016 454.375008C101.124992 420.375008 64 357.2499840000001 64 288C64 182.124992 150.124992 96 256 96L631.250016 96L567.5 160L256 160C185.375008 160 128 217.375008 128 288C128 339.375008 158.624992 385.624992 205.875008 405.875008L228 418L224.624992 442.124992C224.375008 444 224 446 224 448C224 463.624992 229.875008 477.875008 239.250016 489z" />
    <glyph glyph-name="online-money-transfer"
      unicode="&#xF154;"
      horiz-adv-x="1024" d="M288 800L288 384L224 384L224 320L800 320L800 384L736 384L736 800zM413.124992 736L610.875008 736C609 730.875008 608 725.5 608 720C608 693.5 629.5 672 656 672C661.5 672 666.875008 673 672 674.749984L672 384L640 384C640 454.375008 582.375008 512 512 512C441.624992 512 384 454.375008 384 384L352 384L352 674.749984C357.124992 673 362.5 672 368 672C394.5 672 416 693.5 416 720C416 725.5 415 730.875008 413.124992 736zM512 656C485.5 656 464 634.5 464 608C464 581.5 485.5 560 512 560C538.5 560 560 581.5 560 608C560 634.5 538.5 656 512 656zM96 608L96 96L480 96L480 32L320 32L320 -32L704 -32L704 32L544 32L544 96L928 96L928 608L768 608L768 544L864 544L864 160L160 160L160 544L256 544L256 608zM512 448C547.750016 448 576 419.749984 576 384L448 384C448 419.749984 476.250016 448 512 448z" />
    <glyph glyph-name="glasses"
      unicode="&#xF155;"
      horiz-adv-x="1024" d="M162 704L154 683L42 384L0 384L0 320L32 320L32 256C32 150.5 118.5 64 224 64L288 64C393.5 64 480 150.5 480 256L480 352C480 370.124992 493.875008 384 512 384C530.124992 384 544 370.124992 544 352L544 256C544 150.5 630.5 64 736 64L800 64C905.5 64 992 150.5 992 256L992 320L1024 320L1024 384L982 384L870 683L862 704L800 704L791 692L711 596L761 556L822 630L914 384L602 384C588.624992 421 553.375008 448 512 448C470.624992 448 435.375008 421 422 384L110 384L202 630L263 556L313 596L233 692L224 704zM96 320L416 320L416 256C416 185.5 358.5 128 288 128L224 128C153.5 128 96 185.5 96 256zM608 320L928 320L928 256C928 185.5 870.5 128 800 128L736 128C665.5 128 608 185.5 608 256z" />
    <glyph glyph-name="laptop"
      unicode="&#xF156;"
      horiz-adv-x="1024" d="M160 704L160 270L87 196C72.5 181.5 64 161.5 64 141C64 98.749984 98.750016 64 141 64L883 64C925.250016 64 960 98.749984 960 141C960 161.5 951.5 181.5 937 196L864 270L864 704zM224 640L800 640L800 288L224 288zM206 224L818 224L892 151C894.5 148.5 896 144.5 896 141C896 133.2499840000001 890.750016 128 883 128L141 128C133.250016 128 128 133.2499840000001 128 141C128 144.5 129.5 148.5 132 151z" />
    <glyph glyph-name="imac"
      unicode="&#xF157;"
      horiz-adv-x="1024" d="M192 704C156.750016 704 128 675.249984 128 640L128 224C128 188.7499840000001 156.750016 160 192 160L832 160C867.250016 160 896 188.7499840000001 896 224L896 640C896 675.249984 867.250016 704 832 704zM192 640L832 640L832 288L192 288zM512 256C529.624992 256 544 241.624992 544 224C544 206.375008 529.624992 192 512 192C494.375008 192 480 206.375008 480 224C480 241.624992 494.375008 256 512 256zM453 128L450 109C446.624992 87.749984 428.5 72 407 72L352 72L352 32L672 32L672 72L617 72C595.5 72 577.375008 87.749984 574 109L571 128z" />
    <glyph glyph-name="iphone"
      unicode="&#xF158;"
      horiz-adv-x="1024" d="M352 768C299.375008 768 256 724.624992 256 672L256 96C256 43.375008 299.375008 0 352 0L672 0C724.624992 0 768 43.375008 768 96L768 672C768 724.624992 724.624992 768 672 768zM352 704L672 704C689.750016 704 704 689.749984 704 672L704 96C704 78.249984 689.750016 64 672 64L352 64C334.250016 64 320 78.249984 320 96L320 672C320 689.749984 334.250016 704 352 704zM512 160C494.375008 160 480 145.624992 480 128C480 110.375008 494.375008 96 512 96C529.624992 96 544 110.375008 544 128C544 145.624992 529.624992 160 512 160z" />
    <glyph glyph-name="smartphone-tablet"
      unicode="&#xF159;"
      horiz-adv-x="1024" d="M64 736C48 736 28.8 729.6 19.2 716.8S0 688 0 672V96C0 80 6.4 60.8 19.2 51.2S48 32 64 32H960C976 32 995.2 38.4 1004.8 51.2S1024 80 1024 96V544C1024 560 1017.6 579.2 1004.8 588.8S976 608 960 608H896V672C896 688 889.6 707.2 876.8 716.8S848 736 832 736H64zM64 672H832V608H704C688 608 668.8 601.6 659.2 588.8S640 560 640 544V96H64V672zM704 544H960V96H704V544zM768 480V416H896V480H768z" />
    <glyph glyph-name="route"
      unicode="&#xF15A;"
      horiz-adv-x="1024" d="M512 832L64 384L87 361L489 -42L512 -65L535 -42L937 361L960 384zM512 741L869 384L512 26L155 384zM576 544L576 448L352 448L352 256L416 256L416 384L576 384L576 288L704 416z" />
    <glyph glyph-name="ground-transportation"
      unicode="&#xF15B;"
      horiz-adv-x="1024" d="M288 768C217.624992 768 160 710.375008 160 640L160 544L96 544L96 448L160 448L160 96C160 78.375008 174.375008 64 192 64L288 64L299 96L416 96L416 160L224 160L224 352L482 352L521 416L512 416L512 576L736 576L736 448L864 448L864 544L800 544L800 640C800 710.375008 742.375008 768 672 768zM288 704L672 704C707.750016 704 736 675.749984 736 640L224 640C224 675.749984 252.250016 704 288 704zM224 576L448 576L448 416L224 416zM573 416C562.875008 414.749984 554 408.875008 549 400L453 240C450 235.2499840000001 448.250016 229.624992 448 224L448 64C448 63 448 62 448 61L448 32C448 14.375008 462.375008 0 480 0L576 0L587 32L789 32L800 0L896 0C913.624992 0 928 14.375008 928 32L928 59C928.124992 60.624992 928.124992 62.375008 928 64L928 224C927.750016 229.624992 926 235.2499840000001 923 240L827 400C821.375008 409.624992 811.124992 415.749984 800 416L576 416C575 416 574 416 573 416zM593 352L783 352L821 288L555 288zM256 288L256 224L384 224L384 288zM517 224L859 224L864 216L864 96L512 96L512 216zM576 192C558.375008 192 544 177.624992 544 160C544 142.375008 558.375008 128 576 128C593.624992 128 608 142.375008 608 160C608 177.624992 593.624992 192 576 192zM800 192C782.375008 192 768 177.624992 768 160C768 142.375008 782.375008 128 800 128C817.624992 128 832 142.375008 832 160C832 177.624992 817.624992 192 800 192z" />
    <glyph glyph-name="waypoint-map"
      unicode="&#xF15C;"
      horiz-adv-x="1024" d="M896 753L851 733L639 642L395 734L383 738L371 733L147 637L128 629L128 15L173 35L385 126L629 34L641 30L653 35L877 131L896 139zM385 670L629 578L641 574L653 579L832 656L832 181L639 98L395 190L383 194L371 189L192 112L192 587zM384 576C348.624992 576 320 547.375008 320 512C320 476.624992 348.624992 448 384 448C419.375008 448 448 476.624992 448 512C448 547.375008 419.375008 576 384 576zM288 448C270.375008 448 256 433.624992 256 416C256 398.375008 270.375008 384 288 384C305.624992 384 320 398.375008 320 416C320 433.624992 305.624992 448 288 448zM512 448C494.375008 448 480 433.624992 480 416C480 398.375008 494.375008 384 512 384C529.624992 384 544 398.375008 544 416C544 433.624992 529.624992 448 512 448zM736 448C718.375008 448 704 433.624992 704 416C704 398.375008 718.375008 384 736 384C753.624992 384 768 398.375008 768 416C768 433.624992 753.624992 448 736 448zM288 352C270.375008 352 256 337.624992 256 320C256 302.375008 270.375008 288 288 288C305.624992 288 320 302.375008 320 320C320 337.624992 305.624992 352 288 352zM544 352C526.375008 352 512 337.624992 512 320C512 302.375008 526.375008 288 544 288C561.624992 288 576 302.375008 576 320C576 337.624992 561.624992 352 544 352zM736 352C718.375008 352 704 337.624992 704 320C704 302.375008 718.375008 288 736 288C753.624992 288 768 302.375008 768 320C768 337.624992 753.624992 352 736 352zM640 288C604.624992 288 576 259.375008 576 224C576 188.624992 604.624992 160 640 160C675.375008 160 704 188.624992 704 224C704 259.375008 675.375008 288 640 288z" />
    <glyph glyph-name="monitor"
      unicode="&#xF15D;"
      horiz-adv-x="1024" d="M64 704L64 128L480 128L480 64L320 64L320 0L704 0L704 64L544 64L544 128L960 128L960 704zM128 640L896 640L896 192L128 192z" />
    <glyph glyph-name="workstation"
      unicode="&#xF15E;"
      horiz-adv-x="1024" d="M96 672L96 64L352 64L352 672zM384 672L384 608L864 608L864 256L384 256L384 192L544 192L544 128L416 128L416 64L736 64L736 128L608 128L608 192L928 192L928 672zM160 608L288 608L288 128L160 128zM224 224C206.375008 224 192 209.624992 192 192C192 174.375008 206.375008 160 224 160C241.624992 160 256 174.375008 256 192C256 209.624992 241.624992 224 224 224z" />
    <glyph glyph-name="shopping-bag"
      unicode="&#xF15F;"
      horiz-adv-x="1024" d="M512 800C424.124992 800 352 727.875008 352 640L352 608L194 608L192 578L160 2L158 -32L866 -32L864 2L832 578L830 608L672 608L672 640C672 727.875008 599.875008 800 512 800zM512 736C565 736 608 693 608 640L608 608L416 608L416 640C416 693 459 736 512 736zM254 544L352 544L352 448L416 448L416 544L608 544L608 448L672 448L672 544L770 544L798 32L226 32z" />
    <glyph glyph-name="multiple-devices"
      unicode="&#xF160;"
      horiz-adv-x="1024" d="M64 704L64 266L15 191L15 190C6.124992 176.5 0 160.375008 0 144C0 99.749984 35.750016 64 80 64L960 64C976.750016 64 993.875008 69.875008 1006 82C1018.124992 94.124992 1024 111.249984 1024 128L1024 448C1024 464.749984 1018.124992 481.875008 1006 494C993.875008 506.124992 976.750016 512 960 512L768 512L768 704zM128 640L704 640L704 512L512 512C495.250016 512 478.124992 506.124992 466 494C453.875008 481.875008 448 464.749984 448 448L448 288L128 288zM512 448L960 448L960 128L512 128zM114 224L448 224L448 128L80 128C73.124992 128 64 137.124992 64 144C64 146.5 64.375008 149.5 68 155zM672 224L672 160L800 160L800 224z" />
    <glyph glyph-name="ipad"
      unicode="&#xF161;"
      horiz-adv-x="1024" d="M160 704C107.375008 704 64 660.624992 64 608L64 160C64 107.375008 107.375008 64 160 64L864 64C916.624992 64 960 107.375008 960 160L960 608C960 660.624992 916.624992 704 864 704zM160 640L864 640C881.750016 640 896 625.749984 896 608L896 160C896 142.2499840000001 881.750016 128 864 128L160 128C142.250016 128 128 142.2499840000001 128 160L128 608C128 625.749984 142.250016 640 160 640zM192 416C174.375008 416 160 401.624992 160 384C160 366.375008 174.375008 352 192 352C209.624992 352 224 366.375008 224 384C224 401.624992 209.624992 416 192 416z" />
    <glyph glyph-name="apple-watch"
      unicode="&#xF162;"
      horiz-adv-x="1024" d="M390 864L384 839C384 839 377.250016 811.375008 366 779C355 747.375008 338.124992 711.5 328 701C269 689.749984 224 638.124992 224 576L224 192C224 132.375008 265.5 83 321 69L320 68C330 58.624992 348.750016 21.375008 360 -11C371.250016 -43.375008 378 -71 378 -71L384 -96L639 -96L645 -71C645 -71 650.250016 -43 661 -11C671.750016 21 690.375008 57.249984 701 67L700 68C757 80.875008 800 131.2499840000001 800 192L800 416L832 416L832 544L800 544L800 576C800 634.875008 759.5 684.375008 705 699L707 701C695.750016 711.249984 676.250016 747.749984 664 780C651.750016 812.249984 644 840 644 840L638 864zM440 800L591 800C594.5 788 595.250016 779.749984 604 757C610.5 739.875008 617.875008 721.375008 627 704L405 704C413.624992 721.875008 420.875008 740.375008 427 758C434.750016 780.5 436.750016 787.875008 440 800zM352 640L672 640C707.375008 640 736 611.375008 736 576L736 192C736 156.624992 707.375008 128 672 128L352 128C316.624992 128 288 156.624992 288 192L288 576C288 611.375008 316.624992 640 352 640zM399 64L623 64C614.250016 46 606.875008 26.624992 601 9C593.5 -13.250016 592 -19.750016 589 -32L433 -32C429.750016 -19.875008 428.750016 -12.5 421 10C414.875008 27.624992 407.875008 46.124992 399 64z" />
    <glyph glyph-name="sedan"
      unicode="&#xF163;"
      horiz-adv-x="1024" d="M328 672C271.875008 672 219.875008 642.124992 191 594L140 508L73 491C30.5 480.375008 0 441.875008 0 398L0 256C0 221 29 192 64 192L101 192C115.250016 137 164.750016 96 224 96C283.250016 96 332.750016 137 347 192L677 192C691.250016 137 740.750016 96 800 96C859.250016 96 908.750016 137 923 192L960 192C995 192 1024 221 1024 256L1024 366C1024 409.875008 993.624992 448.375008 951 459L756 508L705 594C676.124992 642.124992 624.124992 672 568 672zM328 608L416 608L416 512L216 512L246 561C263.375008 590 294.250016 608 328 608zM480 608L568 608C601.750016 608 632.624992 590 650 561L680 512L480 512zM164 448L732 448L936 397C950.375008 393.375008 960 380.875008 960 366L960 256L923 256C908.750016 311 859.250016 352 800 352C740.750016 352 691.250016 311 677 256L347 256C332.750016 311 283.250016 352 224 352C164.750016 352 115.250016 311 101 256L64 256L64 398C64 412.875008 73.624992 425.375008 88 429zM224 288C259.750016 288 288 259.7499840000001 288 224C288 188.2499840000001 259.750016 160 224 160C188.250016 160 160 188.2499840000001 160 224C160 259.7499840000001 188.250016 288 224 288zM800 288C835.750016 288 864 259.7499840000001 864 224C864 188.2499840000001 835.750016 160 800 160C764.250016 160 736 188.2499840000001 736 224C736 259.7499840000001 764.250016 288 800 288z" />
    <glyph glyph-name="shuttle"
      unicode="&#xF164;"
      horiz-adv-x="1024" d="M160 736C107.375008 736 64 692.624992 64 640L64 96L165 96C179.250016 41 228.750016 0 288 0C347.250016 0 396.750016 41 411 96L645 96C659.250016 41 708.750016 0 768 0C827.250016 0 876.750016 41 891 96L992 96L992 430C992 448 986.5 465.749984 977 481L846 691C828.5 719 798 736 765 736zM160 672L320 672L320 480L128 480L128 640C128 658 142 672 160 672zM384 672L576 672L576 480L384 480zM640 672L765 672C776.124992 672 786.124992 666.375008 792 657L902 480L640 480zM128 416L928 416L928 352L832 352L832 288L928 288L928 160L891 160C876.750016 215 827.250016 256 768 256C708.750016 256 659.250016 215 645 160L411 160C396.750016 215 347.250016 256 288 256C228.750016 256 179.250016 215 165 160L128 160zM288 192C323.750016 192 352 163.7499840000001 352 128C352 92.249984 323.750016 64 288 64C252.250016 64 224 92.249984 224 128C224 163.7499840000001 252.250016 192 288 192zM768 192C803.750016 192 832 163.7499840000001 832 128C832 92.249984 803.750016 64 768 64C732.250016 64 704 92.249984 704 128C704 163.7499840000001 732.250016 192 768 192z" />
    <glyph glyph-name="password"
      unicode="&#xF165;"
      horiz-adv-x="1024" d="M512 800C388.624992 800 288 699.375008 288 576L288 480L192 480L192 -32L832 -32L832 480L736 480L736 576C736 699.375008 635.375008 800 512 800zM512 736C600.750016 736 672 664.749984 672 576L672 480L352 480L352 576C352 664.749984 423.250016 736 512 736zM256 416L768 416L768 32L256 32zM384 256C366.375008 256 352 241.624992 352 224C352 206.375008 366.375008 192 384 192C401.624992 192 416 206.375008 416 224C416 241.624992 401.624992 256 384 256zM512 256C494.375008 256 480 241.624992 480 224C480 206.375008 494.375008 192 512 192C529.624992 192 544 206.375008 544 224C544 241.624992 529.624992 256 512 256zM640 256C622.375008 256 608 241.624992 608 224C608 206.375008 622.375008 192 640 192C657.624992 192 672 206.375008 672 224C672 241.624992 657.624992 256 640 256z" />
    <glyph glyph-name="menu"
      unicode="&#xF166;"
      horiz-adv-x="1024" d="M128 672L128 608L896 608L896 672zM128 416L128 352L896 352L896 416zM128 160L128 96L896 96L896 160z" />
    <glyph glyph-name="shuffle"
      unicode="&#xF167;"
      horiz-adv-x="1024" d="M736 800L736 672L589 672L580 656L464 449L339 672L128 672L128 608L301 608L427 384L301 160L128 160L128 96L339 96L627 608L736 608L736 480L896 640zM537 320L500 254L589 96L736 96L736 -32L896 128L736 288L736 160L627 160z" />
    <glyph glyph-name="clone"
      unicode="&#xF168;"
      horiz-adv-x="1024" d="M288 768C217.624992 768 160 710.375008 160 640C160 604.375008 175.250016 572.249984 199 549C156.375008 520.124992 128 471 128 416L128 236L192 204L192 0L384 0L384 204L448 236L448 288L384 288L384 276L320 244L320 64L256 64L256 244L192 276L192 416C192 469.375008 234.624992 512 288 512C341.375008 512 384 469.375008 384 416L448 416C448 471 419.624992 520.124992 377 549C400.750016 572.249984 416 604.375008 416 640C416 710.375008 358.375008 768 288 768zM736 768C665.624992 768 608 710.375008 608 640C608 604.375008 623.250016 572.249984 647 549C604.375008 520.124992 576 471 576 416L576 236L640 204L640 0L832 0L832 204L896 236L896 416C896 471 867.624992 520.124992 825 549C848.750016 572.249984 864 604.375008 864 640C864 710.375008 806.375008 768 736 768zM288 704C323.750016 704 352 675.749984 352 640C352 604.249984 323.750016 576 288 576C252.250016 576 224 604.249984 224 640C224 675.749984 252.250016 704 288 704zM736 704C771.750016 704 800 675.749984 800 640C800 604.249984 771.750016 576 736 576C700.250016 576 672 604.249984 672 640C672 675.749984 700.250016 704 736 704zM736 512C789.375008 512 832 469.375008 832 416L832 276L768 244L768 64L704 64L704 244L640 276L640 416C640 469.375008 682.624992 512 736 512zM480 442L480 384L352 384L352 320L480 320L480 262L570 352z" />
    <glyph glyph-name="contacts"
      unicode="&#xF169;"
      horiz-adv-x="1024" d="M512 768C388.624992 768 288 667.375008 288 544C288 467.375008 327 399.375008 386 359C271.5 310.2499840000001 192 196.5 192 64L256 64C256 206.875008 369.124992 320 512 320C654.875008 320 768 206.875008 768 64L832 64C832 196.5 752.5 310.2499840000001 638 359C697 399.375008 736 467.375008 736 544C736 667.375008 635.375008 768 512 768zM512 704C600.750016 704 672 632.749984 672 544C672 455.249984 600.750016 384 512 384C423.250016 384 352 455.249984 352 544C352 632.749984 423.250016 704 512 704z" />
    <glyph glyph-name="people"
      unicode="&#xF16A;"
      horiz-adv-x="1024" d="M512 640C424 640 352 568 352 480C352 431.5 374.624992 388.375008 409 359C374.875008 341.124992 345 314.124992 324 282C312.624992 298.5 297.624992 313.7499840000001 281 325C304.750016 348.2499840000001 320 380.375008 320 416C320 486.375008 262.375008 544 192 544C121.624992 544 64 486.375008 64 416C64 380.375008 79.250016 348.2499840000001 103 325C60.375008 296.124992 32 246.875008 32 192L96 192C96 245 139 288 192 288C245 288 288 245 288 192L288 160L352 160C352 248.124992 423.875008 320 512 320C600.124992 320 672 248.124992 672 160L736 160L736 192C736 245 779 288 832 288C885 288 928 245 928 192L992 192C992 246.875008 963.624992 296.124992 921 325C944.750016 348.2499840000001 960 380.375008 960 416C960 486.375008 902.375008 544 832 544C761.624992 544 704 486.375008 704 416C704 380.375008 719.250016 348.2499840000001 743 325C726.375008 313.7499840000001 711.375008 298.5 700 282C679 314.124992 649.124992 341.124992 615 359C649.375008 388.375008 672 431.5 672 480C672 568 600 640 512 640zM512 576C565.375008 576 608 533.375008 608 480C608 426.624992 565.375008 384 512 384C458.624992 384 416 426.624992 416 480C416 533.375008 458.624992 576 512 576zM192 480C227.750016 480 256 451.749984 256 416C256 380.2499840000001 227.750016 352 192 352C156.250016 352 128 380.2499840000001 128 416C128 451.749984 156.250016 480 192 480zM832 480C867.750016 480 896 451.749984 896 416C896 380.2499840000001 867.750016 352 832 352C796.250016 352 768 380.2499840000001 768 416C768 451.749984 796.250016 480 832 480z" />
    <glyph glyph-name="message"
      unicode="&#xF16B;"
      horiz-adv-x="1024" d="M96 640L96 64L928 64L928 640zM234 576L790 576L512 391zM160 548L494 325L512 314L530 325L864 548L864 128L160 128z" />
    <glyph glyph-name="read-message"
      unicode="&#xF16C;"
      horiz-adv-x="1024" d="M512 800L495 789L111 539L96 529L96 -32L928 -32L928 529L913 539L529 789zM512 724L838 512L512 301L186 512zM160 453L495 236L512 225L529 236L864 453L864 32L160 32z" />
    <glyph glyph-name="send"
      unicode="&#xF16D;"
      horiz-adv-x="1024" d="M96 672L96 96L544 96L544 160L160 160L160 580.249984L512 345.5L864 580.249984L863.375008 378.375008L927.375008 314.375008L928 672zM233.750016 608L790.375008 608L512 422.5zM872.624992 278.624992L827.375008 233.375008L900.750016 160L608 160L608 96L900.750016 96L827.375008 22.624992L872.624992 -22.624992L1023.250016 128z" />
    <glyph glyph-name="new-message"
      unicode="&#xF16E;"
      horiz-adv-x="1024" d="M96 672L96 96L514 96C530 -29.875008 637.875008 -128 768 -128C909 -128 1024 -13 1024 128C1024 208.624992 986.5 280 928 327L928 672zM234 608L790 608L512 423zM160 580L494 357L512 346L530 357L864 580L864 365C834.250016 377.2499840000001 802.124992 384 768 384C637.875008 384 530 285.875008 514 160L160 160zM768 320C874.375008 320 960 234.375008 960 128C960 21.624992 874.375008 -64 768 -64C661.624992 -64 576 21.624992 576 128C576 234.375008 661.624992 320 768 320zM736 256L736 160L640 160L640 96L736 96L736 0L800 0L800 96L896 96L896 160L800 160L800 256z" />
    <glyph glyph-name="info"
      unicode="&#xF16F;"
      horiz-adv-x="1024" d="M512 800C282.624992 800 96 613.375008 96 384C96 154.624992 282.624992 -32 512 -32C741.375008 -32 928 154.624992 928 384C928 613.375008 741.375008 800 512 800zM512 736C706.750016 736 864 578.749984 864 384C864 189.2499840000001 706.750016 32 512 32C317.250016 32 160 189.2499840000001 160 384C160 578.749984 317.250016 736 512 736zM480 576L480 512L544 512L544 576zM480 448L480 192L544 192L544 448z" />
    <glyph glyph-name="autograph"
      unicode="&#xF170;"
      horiz-adv-x="1024" d="M790 735C751.875008 732.375008 717.375008 707.375008 704 669L548 223L545 214L547 205L578 88L590 42L628 70L724 143L732 149L735 158L890 604C907.875008 655.124992 880.250016 712.249984 829 730C816.250016 734.5 802.750016 735.875008 790 735zM793 673C797.5 673 802.750016 671.875008 808 670C829 662.749984 837.250016 646 830 625L677 188L627 151L612 210L764 648C767.624992 658.5 773.5 666.375008 781 670C784.750016 671.875008 788.5 673 793 673zM320 512C272.5 512 232.750016 479.5 205 436C177.250016 392.5 160 335.2499840000001 160 272C160 234.624992 164.124992 195 179 161C193.875008 127 226 96 269 96C314.5 96 344.750016 121.5 359 141C359.124992 140.124992 359.875008 140 360 139C361.875008 126.875008 363.250016 113.375008 369 99C371.875008 91.749984 376.124992 84.249984 384 77C391.875008 69.749984 404.250016 64 416 64C438.375008 64 451.124992 75 460 83C462 79.249984 462.375008 77.249984 465 73C471.624992 62.375008 481.124992 49.124992 496 40C510.875008 30.875008 531.875008 27.624992 552 33L536 95C530.250016 93.5 530.624992 94 529 95C527.375008 96 524 99.624992 520 106C516 112.375008 511.875008 120.375008 507 129C504.5 133.375008 502 138.624992 497 144C492 149.375008 482.5 157 468 157C444.250016 157 433.875008 145.624992 426 138C425.124992 142.124992 423.750016 143.875008 423 149C421.124992 160.875008 419.375008 173.7499840000001 414 188C411.375008 195.124992 407.624992 203.5 400 211C392.375008 218.5 380 224 368 224C349.375008 224 333.124992 212.5 325 203C316.875008 193.5 312.5 185.2499840000001 308 179C298.875008 166.5 295.5 160 269 160C253.250016 160 247 166.2499840000001 238 187C229 207.7499840000001 224 240.2499840000001 224 272C224 323.2499840000001 238.750016 370.124992 259 402C279.250016 433.875008 303.624992 448 320 448C329.375008 448 334.124992 446 340 438C345.875008 430 352 413.249984 352 384L416 384C416 422.124992 408.124992 452.749984 391 476C373.875008 499.249984 346.5 512 320 512z" />
    <glyph glyph-name="download"
      unicode="&#xF171;"
      horiz-adv-x="1024" d="M480 768L480 238L311 407L265 361L489 137L512 115L535 137L759 361L713 407L544 238L544 768zM224 64L224 0L800 0L800 64z" />
    <glyph glyph-name="upload"
      unicode="&#xF172;"
      horiz-adv-x="1024" d="M512 781L489 759L265 535L311 489L480 658L480 128L544 128L544 658L713 489L759 535L535 759zM224 64L224 0L800 0L800 64z" />
    <glyph glyph-name="inbox"
      unicode="&#xF173;"
      horiz-adv-x="1024" d="M229 736L224 709L160 293L160 32L864 32L864 293L800 709L795 736zM284 672L740 672L794 320L576 320L576 288C576 252.2499840000001 547.750016 224 512 224C476.250016 224 448 252.2499840000001 448 288L448 320L230 320zM224 256L390 256C404.5 201.2499840000001 452.875008 160 512 160C571.124992 160 619.5 201.2499840000001 634 256L800 256L800 96L224 96z" />
    <glyph glyph-name="document"
      unicode="&#xF174;"
      horiz-adv-x="1024" d="M192 800L192 -32L832 -32L832 589L823 599L631 791L621 800zM256 736L576 736L576 544L768 544L768 32L256 32zM640 690L722 608L640 608zM352 480L352 416L672 416L672 480zM352 352L352 288L672 288L672 352zM352 224L352 160L672 160L672 224z" />
    <glyph glyph-name="documents"
      unicode="&#xF175;"
      horiz-adv-x="1024" d="M448 832L448 672L512 608L512 768L736 768L736 608L896 608L896 192L640 192L640 128L960 128L960 653.5L952.875008 662L799.124992 824.375008L791.124992 832zM806.375008 739L872 669.5L806.375008 669.5zM64 640L64 -64L576 -64L576 461.5L568.875008 470L416 640zM128 576L352 576L352 416L512 416L512 0L128 0zM422.375008 547L488 477.5L422.375008 477.5zM640 512L640 448L832 448L832 512zM640 384L640 320L832 320L832 384zM192 320L192 256L448 256L448 320zM192 192L192 128L448 128L448 192z" />
    <glyph glyph-name="save"
      unicode="&#xF176;"
      horiz-adv-x="1024" d="M160 736L160 32L864 32L864 589L855 599L727 727L717 736zM224 672L320 672L320 480L704 480L704 658L800 562L800 96L736 96L736 384L288 384L288 96L224 96zM384 672L512 672L512 608L576 608L576 672L640 672L640 544L384 544zM352 320L672 320L672 96L352 96z" />
    <glyph glyph-name="file"
      unicode="&#xF177;"
      horiz-adv-x="1024" d="M192 800L192 -32L832 -32L832 589L823 599L631 791L621 800zM256 736L576 736L576 544L768 544L768 32L256 32zM640 690L722 608L640 608z" />
    <glyph glyph-name="edit-file"
      unicode="&#xF178;"
      horiz-adv-x="1024" d="M192 800L192 -32L524 -32L513 -90L503 -137L550 -127L662 -105L672 -103L679 -96L995 221C1031.875008 257.875008 1031.875008 318.124992 995 355C976.5 373.5 952.5 383 928 383C903.5 383 879.5 373.5 861 355L832 326L832 589L823 599L631 791L621 800zM256 736L576 736L576 544L768 544L768 262L544 39L537 32L256 32zM640 690L722 608L640 608zM928 321C935.5 321 942.875008 317.124992 950 310C964.250016 295.7499840000001 964.250016 280.2499840000001 950 266L640 -44L585 -55L596 0L904 309L906 310C913.124992 317.124992 920.5 321 928 321z" />
    <glyph glyph-name="delete-file"
      unicode="&#xF179;"
      horiz-adv-x="1024" d="M192 800L192 -32L569 -32C616 -90.5 687.375008 -128 768 -128C909 -128 1024 -13 1024 128C1024 246.7499840000001 942 346.2499840000001 832 375L832 589L823 599L631 791L621 800zM256 736L576 736L576 544L768 544L768 384C627 384 512 269 512 128C512 93.875008 518.750016 61.749984 531 32L256 32zM640 690L722 608L640 608zM768 320C874.375008 320 960 234.375008 960 128C960 21.624992 874.375008 -64 768 -64C661.624992 -64 576 21.624992 576 128C576 234.375008 661.624992 320 768 320zM695 247L649 201L722 128L649 55L695 9L768 82L841 9L887 55L814 128L887 201L841 247L768 174z" />
    <glyph glyph-name="send-file"
      unicode="&#xF17A;"
      horiz-adv-x="1024" d="M192 800L192 -32L832 -32L832 589L823 599L631 791L621 800zM256 736L576 736L576 544L768 544L768 32L256 32zM640 690L722 608L640 608zM521 471L475 425L548 352L352 352L352 288L548 288L475 215L521 169L649 297L671 320L649 343z" />
    <glyph glyph-name="multiply"
      unicode="&#xF17B;"
      horiz-adv-x="1024" d="M279 663L233 617L466 384L233 151L279 105L512 338L745 105L791 151L558 384L791 617L745 663L512 430z" />
    <glyph glyph-name="add"
      unicode="&#xF17C;"
      horiz-adv-x="1024" d="M512 800C282.624992 800 96 613.375008 96 384C96 154.624992 282.624992 -32 512 -32C741.375008 -32 928 154.624992 928 384C928 613.375008 741.375008 800 512 800zM512 736C706.750016 736 864 578.749984 864 384C864 189.2499840000001 706.750016 32 512 32C317.250016 32 160 189.2499840000001 160 384C160 578.749984 317.250016 736 512 736zM480 544L480 416L352 416L352 352L480 352L480 224L544 224L544 352L672 352L672 416L544 416L544 544z" />
    </font>
</defs>
</svg>
