<svg width="40" height="40" viewBox="0 0 40 40" fill="none" xmlns="http://www.w3.org/2000/svg">
<g clip-path="url(#clip0_769_22264)">
<path d="M0 20C0 8.95431 8.95431 0 20 0C31.0457 0 40 8.95431 40 20C40 31.0457 31.0457 40 20 40C8.95431 40 0 31.0457 0 20Z" fill="#E94E0F"/>
<g clip-path="url(#clip1_769_22264)">
<path fill-rule="evenodd" clip-rule="evenodd" d="M-7 0.000488281H70.5078V40.0005H-7V0.000488281Z" fill="#FF0000"/>
<path fill-rule="evenodd" clip-rule="evenodd" d="M-7 40.0005L70.5078 26.6646V40.0005H-7Z" fill="#009900"/>
<path fill-rule="evenodd" clip-rule="evenodd" d="M-7 40.0005L70.5078 13.3364V26.6645L-7 40.0005Z" fill="white"/>
<path fill-rule="evenodd" clip-rule="evenodd" d="M-7 40.0005V0.000488281H18.8359L-7 40.0005Z" fill="#000099"/>
<path fill-rule="evenodd" clip-rule="evenodd" d="M-7 40.0005L18.8359 0.000488281H44.6719L-7 40.0005Z" fill="#FFFF00"/>
</g>
</g>
<defs>
<clipPath id="clip0_769_22264">
<path d="M0 20C0 8.95431 8.95431 0 20 0C31.0457 0 40 8.95431 40 20C40 31.0457 31.0457 40 20 40C8.95431 40 0 31.0457 0 20Z" fill="white"/>
</clipPath>
<clipPath id="clip1_769_22264">
<rect width="53.3333" height="40" fill="white" transform="translate(-7 0.000488281)"/>
</clipPath>
</defs>
</svg>
