<svg width="40" height="40" viewBox="0 0 40 40" fill="none" xmlns="http://www.w3.org/2000/svg">
<g clip-path="url(#clip0_769_22294)">
<path d="M0 20C0 8.95431 8.95431 0 20 0C31.0457 0 40 8.95431 40 20C40 31.0457 31.0457 40 20 40C8.95431 40 0 31.0457 0 20Z" fill="#E94E0F"/>
<g clip-path="url(#clip1_769_22294)">
<path fill-rule="evenodd" clip-rule="evenodd" d="M-1.66675 0H58.3333V40H-1.66675V0Z" fill="white"/>
<path fill-rule="evenodd" clip-rule="evenodd" d="M-1.66675 0H58.3333V20H-1.66675V0Z" fill="#DF0000"/>
<path fill-rule="evenodd" clip-rule="evenodd" d="M12.1665 3.35C10.588 3.68923 9.17424 4.5612 8.16264 5.81952C7.15103 7.07784 6.60314 8.64589 6.61096 10.2604C6.61878 11.8749 7.18183 13.4376 8.20557 14.686C9.22932 15.9345 10.6514 16.7927 12.2331 17.1167C11.327 17.3789 10.3781 17.4596 9.44068 17.3543C8.5033 17.2489 7.59594 16.9595 6.77063 16.5028C5.94532 16.046 5.21831 15.4308 4.63128 14.6924C4.04426 13.954 3.60877 13.107 3.3498 12.2C2.83544 10.3767 3.0639 8.424 3.98524 6.76871C4.90658 5.11342 6.44584 3.89027 8.26646 3.36667C9.5998 2.98334 10.8331 2.975 12.1748 3.35H12.1665Z" fill="white"/>
<path fill-rule="evenodd" clip-rule="evenodd" d="M11.0832 9.16666L11.4915 10.4167L10.4082 9.65L9.3415 10.4333L9.73317 9.16666L8.6665 8.39166L9.9915 8.375L10.4082 7.125L10.8248 8.375H12.1415L11.0832 9.16666ZM12.5415 13.5L12.9582 14.7583L11.8748 13.9917L10.7998 14.7667L11.1998 13.5083L10.1332 12.725L11.4582 12.7167L11.8665 11.4583L12.2832 12.7083H13.6165L12.5415 13.5ZM17.4165 13.4667L17.8248 14.7333L16.7415 13.9583L15.6748 14.7333L16.0665 13.475L14.9998 12.7L16.3248 12.6833L16.7415 11.4333L17.1582 12.6833H18.4748L17.4165 13.4667ZM18.8665 9.16666L19.2748 10.425L18.1915 9.65833L17.1248 10.4333L17.5248 9.175L16.4498 8.39166L17.7832 8.38333L18.1832 7.125L18.5998 8.375H19.9332L18.8665 9.16666ZM15.0082 6.30833L15.4248 7.575L14.3415 6.8L13.2665 7.58333L13.6665 6.31666L12.5998 5.53333L13.9165 5.525L14.3332 4.26666L14.7498 5.51666H16.0832L15.0082 6.30833Z" fill="white"/>
</g>
</g>
<defs>
<clipPath id="clip0_769_22294">
<path d="M0 20C0 8.95431 8.95431 0 20 0C31.0457 0 40 8.95431 40 20C40 31.0457 31.0457 40 20 40C8.95431 40 0 31.0457 0 20Z" fill="white"/>
</clipPath>
<clipPath id="clip1_769_22294">
<rect width="53.3333" height="40" fill="white"/>
</clipPath>
</defs>
</svg>
