<svg width="40" height="40" viewBox="0 0 40 40" fill="none" xmlns="http://www.w3.org/2000/svg">
<g clip-path="url(#clip0_769_23453)">
<path d="M0 20C0 8.95431 8.95431 0 20 0C31.0457 0 40 8.95431 40 20C40 31.0457 31.0457 40 20 40C8.95431 40 0 31.0457 0 20Z" fill="#E94E0F"/>
<g clip-path="url(#clip1_769_23453)">
<path fill-rule="evenodd" clip-rule="evenodd" d="M-7 0.000244141H53V20.0002H19.6641L-7 0.000244141Z" fill="#ED2939"/>
<path fill-rule="evenodd" clip-rule="evenodd" d="M-7 40.0002H53V20.0002H19.6641L-7 40.0002Z" fill="#002395"/>
<path fill-rule="evenodd" clip-rule="evenodd" d="M-7 0.000244141L19.6641 20.0002L-7 40.0002V0.000244141Z" fill="white"/>
<path d="M6.46094 15.094L6.46875 14.7815C6.46875 14.7815 6.30469 14.5159 6.5 14.2346C6.5 14.2346 6.08594 14.0159 6.1875 13.6721C6.1875 13.6721 5.8125 13.5784 5.83594 13.1721C5.83594 13.1721 5.44531 13.1487 5.39844 12.8049C5.39844 12.8049 5 12.8674 4.82031 12.5393C4.82031 12.5393 4.42969 12.6174 4.32031 12.344C4.32031 12.344 3.9375 12.469 3.71875 12.1487C3.71875 12.1487 3.3125 12.3127 3.14844 12.0081C2.98437 12.3127 2.57812 12.1487 2.57812 12.1487C2.35938 12.469 1.97656 12.3362 1.97656 12.3362C1.86719 12.6096 1.48438 12.5315 1.48438 12.5315C1.30469 12.8674 0.90625 12.7971 0.90625 12.7971C0.867188 13.1409 0.46875 13.1721 0.46875 13.1721C0.480027 13.2827 0.451652 13.3937 0.388689 13.4852C0.325726 13.5768 0.232271 13.6431 0.125 13.6721C0.226562 14.0081 -0.1875 14.2268 -0.1875 14.2268C0.015625 14.5159 -0.148438 14.7737 -0.148438 14.7737L-0.15625 15.0627L6.46094 15.094Z" fill="#FFFF00"/>
<path d="M6.47049 15.0922V14.7788C6.47049 14.7788 6.30928 14.5102 6.50631 14.2416C6.50631 14.2416 6.09433 14.0177 6.19285 13.6775C6.19285 13.6775 5.81668 13.5879 5.84355 13.1761C5.84355 13.1761 5.44052 13.1492 5.39574 12.8089C5.39574 12.8089 5.00166 12.8716 4.83149 12.5403C4.83149 12.5403 4.43742 12.612 4.32994 12.3434C4.32994 12.3434 3.94483 12.4777 3.72092 12.1553C3.72092 12.1553 3.31789 12.3165 3.15668 12.0121C2.98651 12.3165 2.58348 12.1553 2.58348 12.1553C2.36853 12.4687 1.98341 12.3344 1.98341 12.3344C1.87593 12.612 1.49081 12.5403 1.49081 12.5403C1.31169 12.8716 0.908658 12.8089 0.908658 12.8089C0.872833 13.1402 0.469802 13.1671 0.469802 13.1671C0.484607 13.2766 0.459183 13.3878 0.398246 13.48C0.33731 13.5722 0.244994 13.6392 0.13842 13.6685C0.227982 14.0088 -0.175049 14.2237 -0.175049 14.2237C0.0219887 14.5102 -0.148181 14.7788 -0.148181 14.7788V15.0653L6.47049 15.0922V15.0922Z" stroke="black" stroke-width="0.0268652"/>
<path d="M6.30469 14.7034C5.26563 14.6018 4.07031 14.3518 3.14844 14.8752C2.52344 14.5081 1.66406 14.5315 0.929688 14.6018C0.53125 14.6799 0.0625 14.6799 -0.359375 14.7424L-0.421875 14.7502C-1.17969 14.8049 -1.86719 14.5784 -2.53125 14.2815C-2.3125 15.469 -2.08594 16.6799 -1.96875 17.9221C-1.71875 19.7659 -2.83594 21.3049 -2.39063 23.1252C-2.11719 24.0002 -1.15625 24.5081 -0.28125 24.6096C0.564972 24.6631 1.40592 24.7806 2.23437 24.9612C2.38181 24.9975 2.52564 25.0472 2.66406 25.1096C2.85952 25.195 3.03511 25.32 3.17969 25.4768C3.64844 24.9846 4.35156 24.844 5.03125 24.7737C6.26562 24.6252 7.78906 24.7034 8.54688 23.5862V23.5237C8.96094 22.8987 8.90625 21.9612 8.72656 21.2581C8.71094 21.0159 8.64844 20.7971 8.60938 20.5627C7.85938 18.5706 8.50781 16.3284 8.82813 14.3127C8.42362 14.5161 7.9922 14.6608 7.54688 14.7424C7.19531 14.7893 6.80469 14.7737 6.45312 14.7502L6.29688 14.7112" fill="#FF0000"/>
<path d="M7.85938 20.4299C7.85938 20.5549 7.92969 20.6643 7.95312 20.7815C8.10156 21.6565 8.23438 22.8127 7.34375 23.3518C6.34375 23.9768 5.04688 23.7112 3.89844 24.0471C3.66406 24.1096 3.35156 24.3206 3.19531 24.469C3.08594 24.3987 2.98438 24.2971 2.85156 24.2346C1.90625 23.7346 0.671875 23.8987 -0.390625 23.6252C-0.929688 23.4612 -1.48437 23.0393 -1.625 22.4924C-1.96875 21.0549 -1.14062 19.8284 -1.23437 18.3987C-1.29687 17.3049 -1.48438 16.2659 -1.73438 15.2424C-0.898438 15.6331 0.0625 15.6956 1 15.5081C1.72311 15.3753 2.46876 15.4429 3.15625 15.7034C3.51562 15.5471 3.9375 15.4768 4.32812 15.4377C5.05469 15.5159 5.84375 15.6409 6.60156 15.6409C7.10938 15.6096 7.57031 15.469 8.00781 15.2737C7.75 16.9612 7.24219 18.7268 7.85938 20.4299Z" fill="#80CFE1"/>
<path d="M6.35938 20.7659V19.1721H6.54687L4.125 17.6096L4.11719 16.7893H4.35156L3.13281 15.9299L1.92969 16.7893H2.16406V17.6096L-0.25 19.1721H-0.0546875V20.7581H6.35938" fill="white"/>
<path d="M6.36313 20.769V19.1752H6.55121L4.13302 17.6082L4.12407 16.8024H4.35693L3.13888 15.9249L1.92979 16.7934H2.16265L2.17161 17.6082L-0.246582 19.1752H-0.0495462V20.76H6.36313V20.769Z" stroke="black" stroke-width="0.107461"/>
<path d="M7.10938 22.8518V23.344H-0.710938V22.844H7.10156" fill="white"/>
<path d="M7.11536 22.8552V23.3477H-0.712402V22.8463H7.11536V22.8552Z" stroke="black" stroke-width="0.107461"/>
<path d="M-0.195313 22.8206V21.1409H0.117187L0.101562 22.8362L0.117187 21.1487L-0.335938 21.1409V20.7737L6.64844 20.7893V21.1409H6.22656V22.844L6.21875 21.1409H6.53125L6.54687 22.8284" fill="white"/>
<path d="M-0.193049 22.8194V21.1361H0.12042L0.102509 22.8373L0.12042 21.154L-0.327393 21.1361V20.7779L6.65848 20.7869V21.145H6.22858L6.23754 22.8463L6.21963 21.145H6.54205L6.55101 22.8284" stroke="black" stroke-width="0.107461"/>
<path d="M1.31167 22.4075V21.2346H0.362305V22.3986L1.30271 22.4075" stroke="black" stroke-width="0.107461"/>
<path d="M0.631027 21.4763V22.1568H1.06093V21.4763H0.62207H0.631027ZM5.90626 22.4075L5.8973 21.2435H4.96585V22.4075H5.90626Z" stroke="black" stroke-width="0.107461"/>
<path d="M5.21652 21.4853V22.1658H5.64642V21.4853H5.21652ZM5.89719 20.5003V19.3363H4.95679V20.5003H5.89719Z" stroke="black" stroke-width="0.107461"/>
<path d="M5.20764 19.5781V20.2586H5.63754V19.5781H5.20764ZM1.30271 20.5004V19.3274H0.362305V20.4914H1.30271V20.5004Z" stroke="black" stroke-width="0.107461"/>
<path d="M3.00443 20.5004V19.3274H2.06403V20.4914H3.00443M0.62207 19.5691V20.2496H1.05197V19.5691H0.62207Z" stroke="black" stroke-width="0.107461"/>
<path d="M2.3147 19.5691V20.2496H2.7446V19.5691H2.3147ZM4.31194 20.5004V19.3363L3.37154 19.3274V20.4914L4.31194 20.5004Z" stroke="black" stroke-width="0.107461"/>
<path d="M3.62231 19.5691V20.2496H4.06117V19.5691H3.62231Z" stroke="black" stroke-width="0.107461"/>
<path d="M4.53906 20.1409L4.55469 22.844H1.82812L1.82031 20.1409H4.53125" fill="white"/>
<path d="M4.54492 20.1422L4.55387 22.8463H1.84013L1.83117 20.1422H4.54492ZM1.81326 20.9122H4.55387H1.81326ZM2.1536 22.8463V20.9301V22.8463ZM4.22249 22.8463V20.9391V22.8463ZM5.53906 18.9871L4.0165 17.8769H2.28794L0.765381 18.9871H5.53906ZM2.42229 16.9456V17.6261H3.8732V16.9456H2.42229Z" stroke="black" stroke-width="0.107461"/>
<path d="M3.13866 16.1577L3.94472 16.7308H2.34155L3.14762 16.1577M2.81623 17.1158V17.456H3.47899V17.1158H2.81623Z" stroke="black" stroke-width="0.107461"/>
<path d="M6.39062 15.7815C6.61719 15.7815 6.67188 16.719 6.67188 17.1877C6.875 17.2502 7.30469 17.5237 7.5 17.7659H5.29688C5.48438 17.5237 5.91406 17.2502 6.10938 17.1956C6.10938 16.7268 6.15625 15.7737 6.39062 15.7893" fill="white"/>
<path d="M6.38989 15.7816C6.62275 15.7816 6.67649 16.7218 6.67649 17.1963C6.87353 17.2501 7.31238 17.5276 7.50046 17.7694H5.29723C5.48531 17.5276 5.92416 17.2501 6.11225 17.1963C6.11225 16.7218 6.16598 15.7816 6.38989 15.7816ZM1.95654 20.2138H2.15358L2.09984 20.3213C2.09984 20.3213 2.18941 20.4466 2.09984 20.5899L2.15358 20.6794H1.95654L2.01028 20.5899C2.01028 20.5899 1.92072 20.4287 2.01028 20.3213L1.95654 20.2138ZM2.35957 20.2138H2.55661L2.50287 20.3213C2.50287 20.3213 2.59244 20.4466 2.50287 20.5899L2.55661 20.6794H2.35957L2.41331 20.5899C2.41331 20.5899 2.32375 20.4287 2.41331 20.3213L2.35957 20.2138ZM2.80739 20.2138H2.99547L2.94173 20.3213C2.94173 20.3213 3.03129 20.4466 2.94173 20.5899L2.99547 20.6794H2.80739L2.85217 20.5899C2.85217 20.5899 2.76261 20.4287 2.85217 20.3213L2.79843 20.2138H2.80739ZM3.29998 20.2138H3.49702L3.43432 20.3302C3.43432 20.3302 3.53284 20.4466 3.43432 20.5899L3.48806 20.6794H3.29998L3.35372 20.5899C3.35372 20.5899 3.26416 20.4287 3.35372 20.3213L3.29998 20.2228V20.2138ZM3.73884 20.2138H3.93587L3.87318 20.3302C3.87318 20.3302 3.9717 20.4466 3.87318 20.5899L3.92692 20.6794H3.74779L3.79257 20.5899C3.79257 20.5899 3.70301 20.4287 3.79257 20.3213L3.73884 20.2228V20.2138ZM4.17769 20.2228H4.37473L4.31204 20.3302C4.31204 20.3302 4.41056 20.4466 4.31204 20.5899L4.36578 20.6794H4.18665L4.23143 20.5899C4.23143 20.5899 4.14187 20.4287 4.23143 20.3213L4.17769 20.2228Z" stroke="black" stroke-width="0.107461"/>
<path d="M3.19531 26.3127C4.21094 26.3127 5.46094 26.1018 6.04688 25.8049L7.33594 25.6877L7.36719 27.2581C6.27344 27.8596 3.75781 27.9924 3.20312 27.9846C2.64844 27.9846 0.101562 27.8596 -1 27.2581L-0.984375 25.6799L0.304687 25.7971C1.22594 26.1539 2.20753 26.329 3.19531 26.3127Z" fill="#FFFF00"/>
<path d="M3.20146 26.3114C4.22247 26.3114 5.46739 26.1055 6.0585 25.8011L7.33925 25.6936L7.36612 27.2605C6.28241 27.8605 3.75675 27.9948 3.21041 27.9858C2.65513 27.9858 0.102595 27.8605 -0.999023 27.2516L-0.98111 25.6847L0.30859 25.8011C0.899702 26.1055 2.1894 26.3114 3.20146 26.3114" stroke="black" stroke-width="0.0268652"/>
<path d="M-4.99233 20.9377L-3.89858 21.0159C-3.87514 21.9377 -3.75795 25.469 0.460796 25.6643L0.327984 26.9534C-4.80483 27.0002 -5.19545 22.6174 -4.98452 20.9377" fill="#FFFF00"/>
<path d="M-0.972042 27.2158L0.317658 26.9382M-4.98444 20.9391L-3.89178 21.0107C-3.86491 21.9419 -3.75743 25.4698 0.469915 25.6667L0.335571 26.9561C-4.80532 27.0098 -5.19044 22.6224 -4.98444 20.9391V20.9391Z" stroke="black" stroke-width="0.0268652"/>
<path d="M10.6094 19.6252L9.48438 19.9846L9.84375 21.8127L10.9219 21.9846C10.9219 21.9846 11.0937 21.0237 10.6094 19.6252Z" fill="#FFFF00"/>
<path d="M10.6173 19.6229L9.48877 19.981L9.84702 21.8166L10.9218 21.9956C10.9218 21.9956 11.1009 21.0286 10.6173 19.6229Z" stroke="black" stroke-width="0.0268652"/>
<path d="M9.84375 21.7971L10.9141 21.9924L10.2266 21.0237L9.83594 21.7971" fill="#7E7E7E"/>
<path d="M9.84692 21.7987L10.9217 21.9867L10.232 21.0286L9.84692 21.7987Z" stroke="black" stroke-width="0.0268652"/>
<path d="M11.3047 20.9456L10.2109 21.0237C10.1953 21.9456 10.1094 25.4768 5.89062 25.6721L6.04688 26.9534C11.1797 27.0159 11.5312 22.6252 11.3125 20.9456" fill="#FFFF00"/>
<path d="M7.34813 27.2158L6.05843 26.9472M11.3068 20.948L10.2141 21.0197C10.1962 21.9509 10.1246 25.4877 5.89722 25.6757L6.04052 26.9561C11.1814 27.0188 11.5307 22.6314 11.3068 20.957V20.948Z" stroke="black" stroke-width="0.0268652"/>
<path d="M2.51566 27.0862C2.48441 27.1018 2.43754 27.1096 2.39848 27.1018L2.19535 27.094L2.21098 26.8362L2.4141 26.8518C2.45316 26.8518 2.49223 26.8596 2.50785 26.8752C2.54691 26.8909 2.56254 26.9299 2.56254 26.9846C2.56254 27.0315 2.5391 27.0627 2.50785 27.0862H2.51566ZM2.17191 27.4768L2.18754 27.1721L2.42191 27.1877C2.50004 27.1956 2.56254 27.1721 2.6016 27.1331C2.64066 27.1018 2.6641 27.0549 2.6641 26.9924C2.66801 26.9646 2.66585 26.9362 2.65776 26.9092C2.64967 26.8822 2.63584 26.8573 2.61723 26.8362C2.57505 26.7951 2.51972 26.7702 2.46098 26.7659L2.11723 26.7424L2.07035 27.4768H2.17191ZM2.90629 26.8752H3.15629L3.24223 26.8909C3.28129 26.9143 3.29691 26.9456 3.29691 27.0002C3.29691 27.0471 3.2891 27.0784 3.25785 27.1018C3.22431 27.1197 3.18641 27.1278 3.14848 27.1252H2.90629V26.8752ZM2.90629 27.5159V27.2034L3.14066 27.2112C3.17973 27.2112 3.21879 27.2112 3.23441 27.2268C3.26566 27.2424 3.2891 27.2737 3.2891 27.3206V27.5002L3.30473 27.5237H3.42973V27.5081C3.42211 27.5041 3.4154 27.4985 3.41002 27.4918C3.40464 27.4851 3.40071 27.4773 3.39848 27.469C3.3934 27.4485 3.39078 27.4276 3.39066 27.4065V27.3049C3.39066 27.2581 3.37504 27.2268 3.35941 27.2112C3.34375 27.1896 3.32198 27.1733 3.29691 27.1643C3.32816 27.1487 3.35941 27.1252 3.37504 27.1018C3.39066 27.0706 3.40629 27.0393 3.40629 26.9924C3.40629 26.9143 3.36723 26.8518 3.29691 26.8206C3.25256 26.801 3.20477 26.7903 3.15629 26.7893H2.80473V27.5237H2.90629V27.5159ZM3.68754 27.3674C3.64067 27.3097 3.61332 27.2386 3.60941 27.1643C3.60941 27.0627 3.62504 26.9846 3.67191 26.9299C3.69565 26.9041 3.7247 26.8838 3.75708 26.8703C3.78945 26.8568 3.82437 26.8505 3.85941 26.8518C3.89333 26.8479 3.92769 26.8515 3.96007 26.8623C3.99246 26.8731 4.0221 26.8909 4.04691 26.9143C4.1016 26.9612 4.12504 27.0315 4.13285 27.1174C4.13889 27.1934 4.12259 27.2694 4.08598 27.3362C4.04691 27.3987 3.98441 27.4377 3.89066 27.4377C3.79691 27.4377 3.73441 27.4221 3.67973 27.3674H3.68754ZM3.56254 26.9065C3.51731 26.9846 3.49561 27.0741 3.50004 27.1643C3.50785 27.2737 3.5391 27.3674 3.60941 27.4299C3.64625 27.4661 3.69044 27.4938 3.73897 27.5114C3.78751 27.5289 3.83924 27.5358 3.89066 27.5315C3.94403 27.5309 3.99652 27.5179 4.04398 27.4935C4.09144 27.4691 4.13257 27.4339 4.1641 27.3909C4.21941 27.3078 4.24678 27.2093 4.24223 27.1096C4.23951 27.0206 4.20643 26.9351 4.14848 26.8674C4.07816 26.7893 3.9766 26.7502 3.84379 26.7581C3.71879 26.7581 3.62504 26.8127 3.56254 26.9065ZM7.00004 25.8518C7.07816 25.844 7.14066 25.844 7.19535 25.8596C7.27348 25.8909 7.32816 25.9456 7.36723 26.0393L7.26566 26.0549C7.24849 26.0104 7.21496 25.9741 7.17191 25.9534C7.12248 25.933 7.06815 25.9276 7.01566 25.9377C6.98406 25.9431 6.95389 25.9549 6.92701 25.9723C6.90014 25.9898 6.87713 26.0126 6.85941 26.0393C6.82035 26.094 6.80473 26.1721 6.82035 26.2737C6.82865 26.3498 6.86157 26.4211 6.9141 26.4768C6.96098 26.5237 7.03129 26.5393 7.11723 26.5315C7.1781 26.523 7.23373 26.4924 7.27348 26.4456C7.32035 26.3987 7.32816 26.3362 7.31254 26.2502L7.07816 26.2893L7.07035 26.2112L7.39848 26.1565L7.46098 26.5471H7.39066L7.3516 26.469L7.27348 26.5471C7.23441 26.5862 7.17973 26.6018 7.11723 26.6174C7.02994 26.6329 6.94008 26.6132 6.86723 26.5627C6.82597 26.5307 6.79158 26.4906 6.76608 26.445C6.74058 26.3994 6.7245 26.3491 6.71879 26.2971C6.70602 26.2441 6.70428 26.189 6.71369 26.1352C6.7231 26.0814 6.74345 26.0302 6.77348 25.9846C6.80055 25.9468 6.83555 25.9153 6.87602 25.8924C6.9165 25.8694 6.96148 25.8556 7.00785 25.8518H7.00004ZM7.74223 25.7971L7.9766 25.7112C8.00785 25.6956 8.0391 25.6956 8.06254 25.6956C8.10941 25.6956 8.14066 25.7268 8.15629 25.7737C8.17191 25.8206 8.17191 25.8596 8.15629 25.8909C8.13285 25.9143 8.1016 25.9377 8.05473 25.9534L7.83598 26.0315L7.74223 25.7971ZM7.9766 26.3987L7.86723 26.1096L8.08598 26.0315C8.11286 26.0183 8.14203 26.0103 8.17191 26.0081C8.21098 26.0159 8.24223 26.0393 8.26566 26.0862L8.31254 26.1956L8.33598 26.2502L8.3516 26.2737L8.46879 26.2268V26.2112C8.44535 26.2112 8.42973 26.2034 8.42191 26.1799C8.40629 26.1721 8.39848 26.1487 8.39066 26.1252L8.3516 26.0315C8.33598 25.9924 8.31254 25.969 8.29691 25.9534C8.27229 25.9426 8.24565 25.9373 8.21879 25.9377L8.26566 25.844C8.26566 25.8127 8.26566 25.7737 8.25004 25.7346C8.21879 25.6565 8.17191 25.6096 8.09379 25.6096C8.0432 25.6066 7.99256 25.6146 7.94535 25.6331L7.61723 25.7502L7.88285 26.4377L7.9766 26.4065V26.3987ZM8.83598 26.0393L8.42191 25.4299L8.87504 25.1331L8.92973 25.2112L8.55473 25.4456L8.67973 25.6331L9.03129 25.4143L9.07816 25.4846L8.7266 25.7034L8.86723 25.9143L9.25785 25.6643L9.30473 25.7424L8.83598 26.0393ZM9.20316 24.9612L9.32035 24.8284C9.38285 24.7659 9.43754 24.7424 9.50004 24.7502C9.57035 24.7502 9.63285 24.7893 9.70316 24.8518C9.75275 24.8934 9.79048 24.9473 9.81254 25.0081C9.82816 25.0549 9.82035 25.094 9.81254 25.1331C9.79841 25.1617 9.77997 25.1881 9.75785 25.2112L9.64066 25.3362L9.20316 24.9612ZM9.83598 25.2424C9.92191 25.1487 9.93754 25.0549 9.89066 24.9299C9.85799 24.8668 9.8128 24.811 9.75785 24.7659C9.69167 24.7033 9.60637 24.6648 9.51566 24.6565C9.42191 24.6487 9.34379 24.6799 9.27348 24.7581L9.07035 24.9768L9.63285 25.469L9.83598 25.2503V25.2424ZM10.2735 24.6799L9.62504 24.2893L9.67973 24.2112L10.3282 24.594L10.2735 24.6721V24.6799ZM10.5313 24.2346L9.82816 23.9534L10.0313 23.4612L10.1172 23.4924L9.95316 23.8987L10.1641 23.9768L10.3204 23.6096L10.3985 23.6409L10.2422 24.0159L10.4766 24.1096L10.6563 23.7034L10.7344 23.7346L10.5313 24.2346ZM10.8438 23.3752L10.1094 23.219L10.1407 23.1018L10.8204 22.8674L10.2188 22.7346L10.2422 22.6487L10.9766 22.8049L10.9532 22.9143L10.2735 23.1487L10.875 23.2815L10.8516 23.3752H10.8438ZM10.7891 22.4377L10.7969 22.344C10.8438 22.344 10.875 22.344 10.9063 22.3284C10.961 22.2971 10.9844 22.2424 11 22.1643C11.0044 22.1277 11.0018 22.0906 10.9922 22.0549C10.9766 22.0002 10.9454 21.9612 10.8907 21.9612C10.8438 21.9534 10.8125 21.9612 10.7969 21.9846C10.7735 22.0081 10.7579 22.0471 10.7422 22.1018L10.7032 22.1956C10.6875 22.2581 10.6641 22.3049 10.6407 22.3284C10.6094 22.3752 10.5625 22.3909 10.5 22.3831C10.47 22.3815 10.4407 22.3737 10.4138 22.3603C10.3869 22.3468 10.3631 22.328 10.3438 22.3049C10.2969 22.2581 10.2813 22.1877 10.2891 22.1018C10.2969 22.0237 10.3204 21.9612 10.3672 21.9143C10.4063 21.8674 10.4688 21.8362 10.5547 21.8518L10.5469 21.9456C10.5079 21.9456 10.4688 21.9456 10.4532 21.969C10.4063 21.9924 10.3829 22.0471 10.375 22.1174C10.375 22.1721 10.375 22.2112 10.4063 22.2424C10.4297 22.2737 10.4532 22.2893 10.4844 22.2893C10.5235 22.2893 10.5547 22.2893 10.5704 22.2581L10.625 22.1252L10.6563 22.0237C10.6719 21.9768 10.6954 21.9456 10.7188 21.9143C10.7579 21.8752 10.8125 21.8596 10.875 21.8596C10.961 21.8674 11.0235 21.9065 11.0469 21.969C11.0782 22.0315 11.0938 22.094 11.086 22.1799C11.0816 22.2571 11.0481 22.3297 10.9922 22.3831C10.9375 22.4299 10.875 22.4456 10.7891 22.4377ZM-4.49215 22.3909L-4.46871 22.4846C-4.51559 22.4924 -4.54684 22.5081 -4.57027 22.5315C-4.60934 22.5706 -4.62496 22.6331 -4.60934 22.719C-4.60396 22.7517 -4.59341 22.7834 -4.57809 22.8127C-4.54684 22.8674 -4.49996 22.8909 -4.44527 22.8831C-4.40621 22.8752 -4.38277 22.8596 -4.36715 22.8284L-4.34371 22.7034V22.6018C-4.34371 22.5393 -4.32809 22.4846 -4.32027 22.4612C-4.29684 22.4143 -4.24996 22.3831 -4.18746 22.3674C-4.12496 22.3596 -4.06246 22.3674 -4.01559 22.4143C-3.9609 22.4456 -3.92965 22.5081 -3.91402 22.5862C-3.89884 22.6546 -3.90709 22.7261 -3.93746 22.7893C-3.96871 22.8518 -4.01559 22.8831 -4.10152 22.8987L-4.11715 22.8127C-4.08829 22.8024 -4.06175 22.7865 -4.03902 22.7659C-3.99996 22.7268 -3.99215 22.6721 -3.99996 22.6018C-4.01559 22.5393 -4.03121 22.5002 -4.06246 22.4846C-4.07552 22.4743 -4.09064 22.4668 -4.10681 22.4628C-4.12297 22.4587 -4.13982 22.4582 -4.15621 22.4612C-4.17344 22.4604 -4.19045 22.4653 -4.20459 22.4752C-4.21872 22.4851 -4.22918 22.4994 -4.23434 22.5159L-4.24215 22.6565L-4.24996 22.7581C-4.25027 22.8016 -4.26099 22.8445 -4.28121 22.8831C-4.29389 22.9084 -4.31266 22.9303 -4.33583 22.9466C-4.35901 22.963 -4.38587 22.9734 -4.41402 22.9768C-4.49215 22.9924 -4.57027 22.969 -4.60934 22.9143C-4.65709 22.8615 -4.6895 22.7967 -4.70309 22.7268C-4.71197 22.6883 -4.71308 22.6485 -4.70638 22.6096C-4.69967 22.5707 -4.68527 22.5335 -4.66402 22.5002C-4.64462 22.4717 -4.61915 22.4478 -4.58944 22.4303C-4.55973 22.4127 -4.52651 22.4019 -4.49215 22.3987V22.3909ZM-4.53902 23.3596L-3.81246 23.1409L-3.6484 23.6487L-3.73434 23.6799L-3.87496 23.2659L-4.09371 23.3284L-3.9609 23.719L-4.04684 23.7424L-4.17184 23.3518L-4.42184 23.4299L-4.28121 23.8518L-4.35934 23.8752L-4.53902 23.3596ZM-4.21871 24.2424L-3.55465 23.8909L-3.47652 24.0159L-3.93746 24.4924L-3.2734 24.3831L-3.20309 24.5002L-3.86715 24.8518L-3.91402 24.7737L-3.5234 24.5627L-3.45309 24.5315L-3.35152 24.4768L-4.01559 24.594L-4.06246 24.5081L-3.60934 24.0237L-3.63277 24.0393L-3.7109 24.0784C-3.73335 24.0931 -3.75685 24.1062 -3.78121 24.1174L-4.17184 24.3206L-4.21871 24.2424ZM-2.98434 25.219C-3.01559 25.2112 -3.04684 25.1877 -3.07809 25.1565L-3.21871 25.0159L-3.03121 24.844L-2.89059 24.9846C-2.8672 25.0066 -2.84858 25.0332 -2.8359 25.0627C-2.82027 25.1018 -2.8359 25.1409 -2.87496 25.1799C-2.91402 25.2112 -2.95309 25.2268 -2.98434 25.219ZM-3.51559 25.2815L-3.28121 25.0706L-3.12496 25.2346C-3.06246 25.2893 -3.00777 25.3127 -2.95309 25.3127C-2.89506 25.312 -2.83939 25.2897 -2.79684 25.2503C-2.75738 25.2077 -2.73511 25.152 -2.73434 25.094C-2.73434 25.0471 -2.75777 24.9924 -2.80465 24.9456L-3.03902 24.7112L-3.5859 25.2112L-3.50777 25.2893L-3.51559 25.2815ZM-2.85152 25.8752L-2.45309 25.2503L-1.98434 25.5315L-2.03121 25.6096L-2.42184 25.3752L-2.53902 25.5706L-2.18746 25.7815L-2.22652 25.8596L-2.5859 25.6409L-2.71871 25.8518L-2.32809 26.0862L-2.37496 26.1643L-2.85152 25.8752ZM-1.67965 25.7502L-1.43746 25.8284L-1.35934 25.8674C-1.32809 25.8987 -1.32027 25.9377 -1.34371 25.9846C-1.35934 26.0315 -1.37496 26.0627 -1.41402 26.0706L-1.53121 26.0627L-1.75777 25.9846L-1.67965 25.7502ZM-1.88277 26.3674L-1.78121 26.0706L-1.56246 26.1409C-1.5234 26.1487 -1.48434 26.1643 -1.47652 26.1799C-1.45309 26.2034 -1.44527 26.2424 -1.45309 26.2893L-1.49215 26.4065L-1.49996 26.4612V26.4846L-1.38277 26.5237V26.5081L-1.3984 26.4534L-1.38277 26.3987L-1.35152 26.3049C-1.34371 26.2581 -1.3359 26.2268 -1.35152 26.2112C-1.35152 26.1877 -1.37496 26.1643 -1.3984 26.1409C-1.35934 26.1409 -1.32027 26.1252 -1.29684 26.1018C-1.2734 26.0784 -1.24996 26.0471 -1.24215 26.0081C-1.2109 25.9299 -1.22652 25.8596 -1.28902 25.8127C-1.32619 25.7821 -1.36852 25.7583 -1.41402 25.7424L-1.74996 25.6409L-1.98434 26.3362L-1.88277 26.3674Z" fill="#009FC5"/>
<path d="M-0.86724 13.719C-0.789115 13.508 0.0155724 12.9377 2.63276 13.1877C2.63276 13.1877 3.07807 13.4612 3.33589 13.4221C3.49214 13.4065 3.25776 13.4377 3.05463 13.2737C2.85932 13.1174 2.82026 12.7815 3.26557 12.7971C3.7187 12.8049 5.39839 12.8987 5.42964 13.0549C5.46089 13.2034 4.53901 13.2659 4.20307 13.258C3.85932 13.2502 3.89057 13.4221 4.23432 13.4143C5.30464 13.3674 6.4687 12.9924 7.69526 13.8674C7.8437 13.969 7.32807 13.9846 6.92964 13.8205C6.92964 13.8205 5.83589 13.8752 5.36714 13.7971C5.36714 13.7971 5.01557 14.094 4.53901 14.0627C4.60151 14.219 4.36713 14.7815 2.89838 14.3518C2.64838 14.4299 1.76557 14.5784 1.85932 14.3127C1.62495 14.3127 1.2187 14.3909 1.1562 14.258C1.0937 14.1252 1.87495 13.9299 2.01557 13.7893C2.01557 13.7893 0.359322 13.8049 0.0468221 13.6877C0.0468221 13.6877 -0.92974 13.9065 -0.86724 13.719Z" fill="#BC715F"/>
<path d="M-0.335849 16.0315C-0.304599 15.9846 -0.288974 15.8909 -0.210849 15.8987C-0.054599 15.9377 0.0625885 16.2424 0.257901 16.0471C0.336026 16.0315 0.359463 16.1252 0.414151 16.1409C0.453213 16.3049 0.593838 16.1018 0.687588 16.1174C0.906338 16.0237 1.16415 16.0002 1.42196 16.0393C1.42196 16.2112 1.29696 16.3909 1.14071 16.4846C1.14071 16.6409 1.29696 16.7502 1.28915 16.9143C1.26571 16.9768 1.28915 17.0706 1.1954 17.094C1.0704 17.0706 0.961026 17.0627 0.859463 16.9924C0.843838 16.9846 0.836026 16.9612 0.812588 16.969C0.796963 17.0237 0.890713 17.0784 0.921963 17.1331C0.859463 17.2346 0.765714 17.1409 0.679776 17.1409C0.656338 17.2034 0.679776 17.2737 0.617276 17.3127C0.515713 17.3127 0.492276 17.1956 0.429776 17.1409C0.359463 17.2112 0.476651 17.2502 0.492276 17.3049C0.445401 17.5237 0.453213 17.7346 0.242276 17.8752L0.0938386 17.9456C0.0547761 17.8362 0.0782136 17.6721 0.0547761 17.5549C-0.0233489 17.6956 -0.101474 17.8206 -0.218661 17.9377C-0.374911 17.8909 -0.453036 17.719 -0.484286 17.5706C-0.516146 17.4887 -0.523508 17.3993 -0.505475 17.3133C-0.487443 17.2273 -0.444795 17.1484 -0.382724 17.0862C-0.421787 17.0081 -0.578036 17.0237 -0.601474 16.8987C-0.835849 16.7424 -0.953037 17.1565 -1.10147 16.9456C-1.12448 16.8413 -1.12231 16.733 -1.09514 16.6298C-1.06796 16.5265 -1.01657 16.4312 -0.945224 16.3518C-0.984287 16.2737 -1.09366 16.2893 -1.15616 16.2424C-1.29679 16.1174 -1.50772 15.9924 -1.4921 15.7737C-1.29601 15.7027 -1.08372 15.6893 -0.880244 15.7349C-0.676769 15.7806 -0.490594 15.8835 -0.343662 16.0315" fill="#008737"/>
<path d="M-0.132744 16.0081C-0.140557 16.1877 -0.0155569 16.0549 0.0860056 16.1643C0.00788063 16.1331 -0.0468066 16.2971 -0.124932 16.2034L-0.171807 16.2502C-0.140557 16.3127 -0.0936814 16.3206 -0.140556 16.3909C-0.218681 16.4221 -0.242119 16.3127 -0.281182 16.2737C-0.281182 16.2581 -0.265556 16.2268 -0.296806 16.2112C-0.343681 16.2502 -0.390556 16.2659 -0.453056 16.2581C-0.468681 16.2268 -0.507744 16.1799 -0.468682 16.1487C-0.406182 16.0706 -0.312432 16.1799 -0.265557 16.1252C-0.257744 16.0706 -0.304619 16.0081 -0.242119 15.969C-0.203057 15.9768 -0.148369 15.9534 -0.132744 16.0081ZM0.351631 16.1565C0.359443 16.1877 0.336006 16.2346 0.382881 16.2659C0.445381 16.2346 0.507881 16.2581 0.539131 16.3127C0.539131 16.344 0.546943 16.3909 0.507881 16.4065L0.414131 16.3831C0.421944 16.3674 0.390693 16.3596 0.382881 16.3362C0.343818 16.3284 0.312569 16.3596 0.289131 16.3831C0.312569 16.4143 0.367256 16.4377 0.351631 16.4768C0.296943 16.5315 0.273506 16.4299 0.211006 16.4612C0.164131 16.4456 0.218818 16.3596 0.156318 16.3284C0.0781932 16.3284 0.132881 16.4534 0.0313184 16.4065C6.83665e-05 16.3674 -0.0311818 16.3127 6.82473e-05 16.2737C0.0232001 16.26 0.0501354 16.2541 0.0768754 16.2569C0.103615 16.2597 0.128735 16.2711 0.148506 16.2893C0.211006 16.219 0.211006 15.969 0.359443 16.1565H0.351631ZM-0.249932 16.4143C-0.210869 16.4768 -0.265557 16.5549 -0.210869 16.6174C-0.132744 16.4612 -0.0546193 16.6487 0.0391307 16.6331C0.0703807 16.6721 0.0469436 16.719 0.0547561 16.7581C-0.0624314 16.7893 -0.203057 16.8284 -0.304619 16.7346L-0.335869 16.7659C-0.273369 16.8206 -0.218682 16.8909 -0.265557 16.9846C-0.351494 17.0002 -0.492119 17.0081 -0.531181 16.9143C-0.554619 16.8362 -0.476494 16.7893 -0.562432 16.7268C-0.617119 16.8049 -0.617119 16.8987 -0.734307 16.8284C-0.767851 16.8101 -0.793065 16.7796 -0.804705 16.7432C-0.816346 16.7069 -0.813517 16.6674 -0.796807 16.6331C-0.718682 16.5081 -0.578057 16.6331 -0.499932 16.5784C-0.484307 16.469 -0.523369 16.3752 -0.421807 16.3206C-0.343682 16.3049 -0.304619 16.3674 -0.249932 16.4143Z" fill="#FFFF00"/>
<path d="M0.078125 16.4846C0.0390625 16.6643 -0.09375 16.4768 -0.15625 16.469C-0.078125 16.3127 -0.0234375 16.5159 0.078125 16.4846ZM0.5 16.6799C0.40625 16.7034 0.421875 16.5862 0.375 16.5393L0.414063 16.5081C0.445313 16.5471 0.46875 16.6252 0.5 16.6799Z" fill="white"/>
<path d="M0.375 16.6409C0.398438 16.7034 0.3125 16.7581 0.390625 16.7971L0.453125 16.7424C0.523438 16.7581 0.59375 16.7737 0.640625 16.8362C0.6875 16.969 0.554688 16.969 0.484375 17.0081H0.40625C0.421875 16.9612 0.367188 16.9456 0.359375 16.9299C0.344369 16.9246 0.328098 16.924 0.312739 16.9282C0.297381 16.9324 0.283668 16.9412 0.273438 16.9534C0.289063 17.0315 0.390625 17.1096 0.289063 17.1799C0.195313 17.1799 0.0546879 17.2112 0.0625004 17.0862C0.0312504 17.0081 0.15625 16.9065 0.0234379 16.8987C-0.0234371 17.0002 -0.0703125 17.0862 -0.1875 17.0002L-0.171875 16.8596C-0.0624996 16.8596 0.0703126 16.8831 0.117188 16.7581C0.148438 16.6721 0.0625004 16.5862 0.140625 16.5237C0.257813 16.4924 0.320313 16.5706 0.375 16.6409Z" fill="#FFFF00"/>
<path d="M0.296863 16.844C0.320301 16.9143 0.249989 16.9221 0.210926 16.9534C0.164051 16.9534 0.132801 16.9377 0.101551 16.9065C0.0781134 16.8284 0.140613 16.8127 0.179676 16.7815C0.234363 16.7581 0.257801 16.8206 0.296863 16.844Z" fill="black"/>
<path d="M0.226563 16.8909C0.21875 16.9065 0.195313 16.8987 0.179688 16.9065L0.164062 16.8284C0.203125 16.8284 0.242188 16.8362 0.226563 16.8909Z" fill="white"/>
</g>
</g>
<defs>
<clipPath id="clip0_769_23453">
<path d="M0 20C0 8.95431 8.95431 0 20 0C31.0457 0 40 8.95431 40 20C40 31.0457 31.0457 40 20 40C8.95431 40 0 31.0457 0 20Z" fill="white"/>
</clipPath>
<clipPath id="clip1_769_23453">
<rect width="53.3333" height="40" fill="white" transform="translate(-7 0.000244141)"/>
</clipPath>
</defs>
</svg>
