<svg width="40" height="40" viewBox="0 0 40 40" fill="none" xmlns="http://www.w3.org/2000/svg">
<g clip-path="url(#clip0_769_22383)">
<path d="M0 20C0 8.95431 8.95431 0 20 0C31.0457 0 40 8.95431 40 20C40 31.0457 31.0457 40 20 40C8.95431 40 0 31.0457 0 20Z" fill="#E94E0F"/>
<g clip-path="url(#clip1_769_22383)">
<path fill-rule="evenodd" clip-rule="evenodd" d="M-3.66846 0H76.3315V40H-3.66846V0Z" fill="white"/>
<path fill-rule="evenodd" clip-rule="evenodd" d="M-3.66846 26.6641H76.3315V40H-3.66846V26.6641Z" fill="#D50000"/>
<path fill-rule="evenodd" clip-rule="evenodd" d="M-3.66846 13.3359H76.3315V26.6641H-3.66846V13.3359Z" fill="#0000BF"/>
<path fill-rule="evenodd" clip-rule="evenodd" d="M19.019 7.26562C18.7065 12.0781 18.519 14.7188 17.7925 15.9375C16.9956 17.25 16.23 18.2109 13.1284 19.375C10.0347 18.2109 9.26904 17.25 8.47217 15.9375C7.73779 14.7188 7.55811 12.0781 7.24561 7.26562L7.69873 7.10938C8.62061 6.82812 9.30811 6.60156 9.81592 6.5C10.5425 6.34375 11.1675 6.17188 13.1206 6.13281C15.0737 6.16406 15.6987 6.35156 16.4253 6.50781C16.9253 6.61719 17.644 6.82031 18.5581 7.10938L19.019 7.26562Z" fill="#D50000"/>
<path fill-rule="evenodd" clip-rule="evenodd" d="M18.5659 7.10938C18.269 11.9141 18.019 14.1172 17.6284 15.1719C16.8784 16.9844 15.6909 17.9766 13.1284 18.9219C10.5659 17.9766 9.37842 16.9844 8.62061 15.1719C8.22998 14.1094 7.99561 11.9141 7.69873 7.10156C8.60498 6.82031 9.30811 6.60156 9.81592 6.5C10.5425 6.34375 11.1675 6.16406 13.1206 6.13281C15.0737 6.16406 15.6987 6.34375 16.4253 6.5C17.1484 6.66462 17.8629 6.86539 18.5659 7.10156V7.10938Z" fill="#0000BF"/>
<path fill-rule="evenodd" clip-rule="evenodd" d="M13.1284 8.57812L13.2456 8.86719L13.7925 8.94531L13.4409 9.15625L13.7769 9.38281L13.2847 9.46094L13.1284 9.72656L12.9722 9.45312L12.5034 9.39062L12.8159 9.15625L12.4878 8.94531L13.0112 8.86719L13.1284 8.57812Z" fill="#FFDF00"/>
<path fill-rule="evenodd" clip-rule="evenodd" d="M17.4487 14.0313L17.144 13.7969L16.9331 13.4375L16.5112 13.0703L16.2847 12.7031L15.8628 12.3203L15.6597 11.9531L15.4253 11.7734L15.2847 11.625L14.894 11.9609L14.6909 12.3281L14.4331 12.5625L14.144 12.3359L13.9331 11.9609L13.1284 10.5312L12.3237 11.9609L12.1128 12.3359L11.8237 12.5625L11.5659 12.3281L11.355 11.9609L10.9722 11.625L10.8237 11.7656L10.5972 11.9531L10.394 12.3203L9.97217 12.7031L9.74561 13.0703L9.32373 13.4375L9.11279 13.7969L8.80811 14.0313C8.97987 15.1066 9.4887 16.0997 10.2612 16.8672C11.0993 17.5845 12.0711 18.1288 13.1206 18.4687C14.1781 18.1364 15.1564 17.5914 15.9956 16.8672C16.4487 16.3984 17.2925 15.3594 17.4487 14.0313Z" fill="white"/>
<path fill-rule="evenodd" clip-rule="evenodd" d="M14.4097 6.55469L14.5347 6.84375L15.0815 6.92187L14.7222 7.13281L15.0659 7.35937L14.5737 7.4375L14.4175 7.70312L14.2612 7.42969L13.7925 7.36719L14.105 7.13281L13.7769 6.92187L14.2925 6.84375L14.4175 6.55469H14.4097ZM11.8315 6.55469L11.9565 6.84375L12.5034 6.91406L12.1519 7.125L12.4878 7.35156L11.9956 7.42969L11.8394 7.69531L11.6831 7.42969L11.2144 7.35937L11.5269 7.125L11.1987 6.91406L11.7222 6.83594L11.8394 6.54688L11.8315 6.55469Z" fill="#FFDF00"/>
<path fill-rule="evenodd" clip-rule="evenodd" d="M16.7769 15.8594H16.1987L15.6519 15.8203L15.0034 15.5078H14.269L13.6362 15.8203L13.1284 15.8672L12.6284 15.8203L11.9956 15.5078H11.2534L10.5972 15.8203L10.0581 15.8672L9.46436 15.8594L9.18311 15.375L9.19092 15.3594L10.0659 15.5078L10.605 15.4688L11.2534 15.1484H11.9878L12.6284 15.4609L13.1284 15.5078L13.6362 15.4609L14.269 15.1484H15.0034L15.6597 15.4609L16.1987 15.5078L17.0425 15.3516L17.0581 15.3828L16.769 15.8594H16.7769ZM10.0269 16.6016L10.605 16.5625L11.2534 16.25H11.9878L12.6284 16.5625L13.1284 16.6016L13.6284 16.5625L14.269 16.25H15.0034L15.6519 16.5625L16.2378 16.6016L16.6128 16.1328H16.605L16.1987 16.2422L15.6597 16.2031L15.0112 15.8906H14.2769L13.6362 16.2031L13.1362 16.25L12.6284 16.2031L11.9956 15.8906H11.2534L10.5972 16.2031L10.0581 16.25L9.66748 16.1484V16.1641L10.019 16.6016H10.0269Z" fill="#0000BF"/>
</g>
</g>
<defs>
<clipPath id="clip0_769_22383">
<path d="M0 20C0 8.95431 8.95431 0 20 0C31.0457 0 40 8.95431 40 20C40 31.0457 31.0457 40 20 40C8.95431 40 0 31.0457 0 20Z" fill="white"/>
</clipPath>
<clipPath id="clip1_769_22383">
<rect width="53.3333" height="40" fill="white"/>
</clipPath>
</defs>
</svg>
