<svg width="40" height="40" viewBox="0 0 40 40" fill="none" xmlns="http://www.w3.org/2000/svg">
<g clip-path="url(#clip0_769_22410)">
<path d="M0 20C0 8.95431 8.95431 0 20 0C31.0457 0 40 8.95431 40 20C40 31.0457 31.0457 40 20 40C8.95431 40 0 31.0457 0 20Z" fill="#E94E0F"/>
<g clip-path="url(#clip1_769_22410)">
<path d="M-7.00391 0.000488281H46.3294V40.0005H-7.00391V0.000488281Z" fill="#EE1C25"/>
<path d="M-7.00391 0.000488281H46.3294V26.6672H-7.00391V0.000488281Z" fill="#0B4EA2"/>
<path d="M-7.00391 0.000488281H46.3294V13.3338H-7.00391V0.000488281Z" fill="white"/>
<path d="M12.4127 30.9005C8.82938 29.1755 3.69604 25.7422 3.69604 18.9672C3.69604 12.1838 4.02938 9.10049 4.02938 9.10049H20.8044C20.8044 9.10049 21.1294 12.1838 21.1294 18.9672C21.1294 25.7505 15.996 29.1672 12.4127 30.9005Z" fill="white"/>
<path d="M12.4128 30.0005C9.12117 28.4172 4.41284 25.2672 4.41284 19.0505C4.41284 12.8338 4.71284 10.0005 4.71284 10.0005H20.1128C20.1128 10.0005 20.4045 12.8338 20.4045 19.0505C20.4128 25.2755 15.7045 28.4172 12.4128 30.0005Z" fill="#EE1C25"/>
<path d="M13.1128 17.4172C14.0045 17.4338 15.7462 17.4672 17.2878 16.9505C17.2878 16.9505 17.2545 17.5088 17.2545 18.1505C17.2545 18.7922 17.2962 19.3505 17.2962 19.3505C15.8795 18.8755 14.1212 18.8672 13.1128 18.8755V22.3088H11.7128V18.8755C10.7128 18.8672 8.95451 18.8755 7.53784 19.3505C7.53784 19.3505 7.57951 18.7922 7.57951 18.1505C7.57951 17.5005 7.53784 16.9505 7.53784 16.9505C9.07951 17.4672 10.8212 17.4338 11.7045 17.4172V15.2588C10.8962 15.2588 9.72951 15.2922 8.40451 15.7338C8.40451 15.7338 8.44617 15.1838 8.44617 14.5338C8.44617 13.8922 8.40451 13.3338 8.40451 13.3338C9.72951 13.7755 10.8962 13.8172 11.7045 13.8088C11.6628 12.4422 11.2628 10.7255 11.2628 10.7255C11.2628 10.7255 12.0878 10.7838 12.4128 10.7838C12.7462 10.7838 13.5628 10.7255 13.5628 10.7255C13.5628 10.7255 13.1628 12.4422 13.1212 13.8088C13.9295 13.8172 15.0962 13.7755 16.4212 13.3338C16.4212 13.3338 16.3795 13.8922 16.3795 14.5338C16.3795 15.1838 16.4212 15.7338 16.4212 15.7338C15.3532 15.3895 14.2346 15.2288 13.1128 15.2588V17.4255V17.4172Z" fill="white"/>
<path d="M12.4127 21.9422C10.7544 21.9422 9.87106 24.2338 9.87106 24.2338C9.87106 24.2338 9.37106 23.1505 8.02106 23.1505C7.10439 23.1505 6.43773 23.9588 6.00439 24.7172C7.67106 27.3588 10.3294 28.9922 12.4127 30.0005C14.4961 29.0005 17.1627 27.3588 18.8211 24.7172C18.3877 23.9672 17.7211 23.1505 16.8044 23.1505C15.4544 23.1505 14.9544 24.2338 14.9544 24.2338C14.9544 24.2338 14.0794 21.9422 12.4127 21.9422Z" fill="#0B4EA2"/>
</g>
</g>
<defs>
<clipPath id="clip0_769_22410">
<path d="M0 20C0 8.95431 8.95431 0 20 0C31.0457 0 40 8.95431 40 20C40 31.0457 31.0457 40 20 40C8.95431 40 0 31.0457 0 20Z" fill="white"/>
</clipPath>
<clipPath id="clip1_769_22410">
<rect width="53.3333" height="40" fill="white" transform="translate(-7.00391 0.000488281)"/>
</clipPath>
</defs>
</svg>
