<svg width="40" height="40" viewBox="0 0 40 40" fill="none" xmlns="http://www.w3.org/2000/svg">
<g clip-path="url(#clip0_769_22254)">
<path d="M0 20C0 8.95431 8.95431 0 20 0C31.0457 0 40 8.95431 40 20C40 31.0457 31.0457 40 20 40C8.95431 40 0 31.0457 0 20Z" fill="#E94E0F"/>
<g clip-path="url(#clip1_769_22254)">
<path fill-rule="evenodd" clip-rule="evenodd" d="M-7 39.6255L70.1406 0.000488281H-7V39.6255Z" fill="#0000D6"/>
<path fill-rule="evenodd" clip-rule="evenodd" d="M73 0.000488281L-4.875 40.0005H73V0.000488281Z" fill="#006000"/>
<path fill-rule="evenodd" clip-rule="evenodd" d="M73 0.000488281H68.7109L-7 37.9224V40.0005H-2.71094L73 2.15674V0.000488281Z" fill="#FFCC00"/>
<path fill-rule="evenodd" clip-rule="evenodd" d="M-1.42188 0.711426L-0.5 3.40674H2.50781L0.078125 5.05518L1.00781 7.74268L-1.42188 6.09424L-3.85156 7.75049L-2.92188 5.06299L-5.35156 3.39893H-2.35156L-1.42188 0.711426ZM13.5078 0.711426L14.4375 3.40674H17.4453L15.0078 5.06299L15.9453 7.75049L13.5 6.09424L11.0781 7.7583L12.0078 5.0708L9.57031 3.40674H12.5781L13.5078 0.711426ZM13.5078 12.0005L14.4375 14.6958H17.4453L15.0078 16.352L15.9453 19.0395L13.5078 17.3755L11.0859 19.0395L12.0156 16.352L9.57812 14.688H12.5859L13.5078 12.0005ZM6.08594 6.42236L7.01562 9.10986H10.0156L7.59375 10.7739L8.51562 13.4614L6.09375 11.7974L3.65625 13.4614L4.59375 10.7739L2.15625 9.10986H5.16406L6.08594 6.42236ZM-1.42188 12.0005L-0.5 14.6958H2.50781L0.078125 16.352L1.00781 19.0395L-1.42188 17.3755L-3.85156 19.0395L-2.91406 16.352L-5.35938 14.688H-2.35938L-1.42188 12.0005Z" fill="white"/>
</g>
</g>
<defs>
<clipPath id="clip0_769_22254">
<path d="M0 20C0 8.95431 8.95431 0 20 0C31.0457 0 40 8.95431 40 20C40 31.0457 31.0457 40 20 40C8.95431 40 0 31.0457 0 20Z" fill="white"/>
</clipPath>
<clipPath id="clip1_769_22254">
<rect width="53.3333" height="40" fill="white" transform="translate(-7 0.000488281)"/>
</clipPath>
</defs>
</svg>
