<svg width="40" height="40" viewBox="0 0 40 40" fill="none" xmlns="http://www.w3.org/2000/svg">
<g clip-path="url(#clip0_769_22512)">
<path d="M0 20C0 8.95431 8.95431 0 20 0C31.0457 0 40 8.95431 40 20C40 31.0457 31.0457 40 20 40C8.95431 40 0 31.0457 0 20Z" fill="#E94E0F"/>
<g clip-path="url(#clip1_769_22512)">
<path fill-rule="evenodd" clip-rule="evenodd" d="M-10.3333 0.000488281H49.6667V40.0005H-10.3333V0.000488281Z" fill="#40A6FF"/>
<path fill-rule="evenodd" clip-rule="evenodd" d="M25.9558 29.7817L19.5105 25.6021L13.0964 29.8208L15.4792 22.9692L9.073 18.7349L17.0105 18.6724L19.4636 11.8364L21.9714 18.6567L29.8933 18.6646L23.5261 22.938L25.9636 29.7817H25.9558Z" fill="white"/>
</g>
</g>
<defs>
<clipPath id="clip0_769_22512">
<path d="M0 20C0 8.95431 8.95431 0 20 0C31.0457 0 40 8.95431 40 20C40 31.0457 31.0457 40 20 40C8.95431 40 0 31.0457 0 20Z" fill="white"/>
</clipPath>
<clipPath id="clip1_769_22512">
<rect width="53.3333" height="40" fill="white" transform="translate(-7 0.000488281)"/>
</clipPath>
</defs>
</svg>
