<svg width="40" height="40" viewBox="0 0 40 40" fill="none" xmlns="http://www.w3.org/2000/svg">
<g clip-path="url(#clip0_769_19223)">
<path d="M0 20C0 8.95431 8.95431 0 20 0C31.0457 0 40 8.95431 40 20C40 31.0457 31.0457 40 20 40C8.95431 40 0 31.0457 0 20Z" fill="#E94E0F"/>
<g clip-path="url(#clip1_769_19223)">
<path fill-rule="evenodd" clip-rule="evenodd" d="M-7 -0.000244141H46.3417V39.9998H-7V-0.000244141Z" fill="white"/>
<path fill-rule="evenodd" clip-rule="evenodd" d="M-1.15845 12.1498L4.39155 3.83313L5.77489 4.75813L0.224886 13.0748L-1.15845 12.1498ZM0.924886 13.5331L6.47489 5.21646L7.85822 6.14146L2.30822 14.4581L0.924886 13.5331ZM3.00822 14.9248L8.55822 6.60813L9.94155 7.53313L4.39155 15.8498L3.00822 14.9248Z" fill="black"/>
<path fill-rule="evenodd" clip-rule="evenodd" d="M29.3499 32.4915L34.8999 24.1748L36.2832 25.0998L30.7332 33.4165L29.3499 32.4915ZM31.4332 33.8831L36.9832 25.5665L38.3665 26.4915L32.8165 34.8081L31.4332 33.8831ZM33.5082 35.2665L39.0582 26.9498L40.4415 27.8748L34.8915 36.1915L33.5082 35.2665Z" fill="black"/>
<path fill-rule="evenodd" clip-rule="evenodd" d="M31.4333 27.8748L38.3667 32.4998L31.4333 27.8748Z" fill="black"/>
<path d="M31.4333 27.8748L38.3667 32.4998" stroke="white" stroke-width="0.833333" stroke-miterlimit="40"/>
<path fill-rule="evenodd" clip-rule="evenodd" d="M11.325 14.4664C14.3916 9.87473 20.6 8.63306 25.1916 11.6914C29.7833 14.7497 31.025 20.9664 27.9666 25.5581L11.325 14.4664Z" fill="#CD2E3A"/>
<path fill-rule="evenodd" clip-rule="evenodd" d="M11.325 14.4666C8.25837 19.0582 9.50004 25.2666 14.1 28.3332C18.7 31.3999 24.9 30.1582 27.9667 25.5582C29.5 23.2582 28.875 20.1582 26.5834 18.6249C24.2917 17.0916 21.1834 17.7166 19.65 20.0082L11.325 14.4666Z" fill="#0047A0"/>
<path d="M15.4832 22.2415C18.2446 22.2415 20.4832 20.0029 20.4832 17.2415C20.4832 14.48 18.2446 12.2415 15.4832 12.2415C12.7217 12.2415 10.4832 14.48 10.4832 17.2415C10.4832 20.0029 12.7217 22.2415 15.4832 22.2415Z" fill="#CD2E3A"/>
<path fill-rule="evenodd" clip-rule="evenodd" d="M4.41646 36.1998L-1.13354 27.8831L0.249788 26.9581L5.79979 35.2748L4.41646 36.1998ZM6.49145 34.8081L0.941455 26.4914L2.32479 25.5664L7.87479 33.8831L6.49145 34.8081ZM8.57479 33.4248L3.02479 25.1081L4.40812 24.1831L9.95812 32.4998L8.57479 33.4248Z" fill="black"/>
<path fill-rule="evenodd" clip-rule="evenodd" d="M34.9165 15.8581L29.3665 7.54146L30.7498 6.61646L36.2998 14.9331L34.9165 15.8581ZM36.9998 14.4665L31.4498 6.1498L32.8331 5.2248L38.3831 13.5415L36.9998 14.4665ZM39.0748 13.0831L33.5248 4.76646L34.9165 3.83313L40.4665 12.1498L39.0748 13.0831Z" fill="black"/>
<path fill-rule="evenodd" clip-rule="evenodd" d="M3.375 30.883L5.45833 29.4997L3.375 30.883ZM31.45 12.158L33.875 10.5414L31.45 12.158ZM35.9583 9.14969L38.0417 7.76636L35.9583 9.14969Z" fill="black"/>
<path d="M35.9583 9.14969L38.0417 7.76636M3.375 30.883L5.45833 29.4997L3.375 30.883ZM31.45 12.158L33.875 10.5414L31.45 12.158Z" stroke="white" stroke-width="0.833333" stroke-miterlimit="40"/>
</g>
</g>
<defs>
<clipPath id="clip0_769_19223">
<path d="M0 20C0 8.95431 8.95431 0 20 0C31.0457 0 40 8.95431 40 20C40 31.0457 31.0457 40 20 40C8.95431 40 0 31.0457 0 20Z" fill="white"/>
</clipPath>
<clipPath id="clip1_769_19223">
<rect width="53.3333" height="40" fill="white" transform="translate(-7 -0.000244141)"/>
</clipPath>
</defs>
</svg>
