<svg width="40" height="40" viewBox="0 0 40 40" fill="none" xmlns="http://www.w3.org/2000/svg">
<g clip-path="url(#clip0_769_17843)">
<path d="M0 20C0 8.95431 8.95431 0 20 0C31.0457 0 40 8.95431 40 20C40 31.0457 31.0457 40 20 40C8.95431 40 0 31.0457 0 20Z" fill="#E94E0F"/>
<g clip-path="url(#clip1_769_17843)">
<path d="M-6.66602 0H46.6673V40H-6.66602V0Z" fill="#000066"/>
<path d="M32.584 28.75C32.584 28.75 32.3673 29.3167 32.2506 29.3167C32.1173 29.3167 31.6673 29.0667 31.6673 29.0667C31.6673 29.0667 31.3423 29.6 31.1673 29.625C31.0006 29.6583 30.5506 29.55 30.5506 29.55C30.5506 29.55 30.1173 29.55 30.1006 29.4917C30.084 29.425 30.1173 29.3 30.1173 29.3C30.1173 29.3 29.4923 29.8 29.359 29.7667C29.2173 29.7417 28.7506 29.15 28.7506 29.15L28.6673 29.4583L27.784 29.425L27.009 28.925C27.009 28.925 26.5756 29.6417 26.559 29.625C26.5423 29.6167 25.8006 29.8 25.8006 29.8L25.7506 29.6583L25.2506 29.3667C25.2506 29.3667 25.6423 28.825 25.6423 28.8083C25.6423 28.7917 25.459 28.725 25.459 28.725L25.1756 28.9583L24.6006 29.3333L24.0256 29.0667L24.2756 28.6L24.309 28.2667L24.759 27.575L30.2756 22.2167L32.9923 27.2333L32.584 28.75Z" fill="#6A4C2D" stroke="black" stroke-width="0.0833333"/>
<path d="M36.5007 29.0667L37.9423 29.0167L37.3257 28.7167L42.8006 28.5083L42.0257 28.2167L41.3423 27.2833L38.509 27.075C38.509 27.075 38.2923 26.9083 37.9507 26.9917C37.934 26.775 37.6673 26.4917 37.6673 26.4917L35.9173 26.35L34.834 27.1L35.5673 28.9833L36.5007 29.0667Z" fill="white" stroke="black" stroke-width="0.0833333"/>
<path d="M30.9172 13L31.0672 12.5C31.0672 12.5 31.3172 12.0833 31.3172 11.8833C31.3172 11.7 31.5089 11.475 31.5089 11.475C31.5089 11.475 32.0839 11.3083 32.2089 11.6667C32.8256 10.725 33.5589 11.6167 33.5589 11.6167L33.7589 11.3833L34.1756 10.8833C34.1756 10.8833 34.7589 11.425 34.7589 11.5167C34.7756 11.6167 34.8672 11.55 34.8672 11.55L35.5006 11.5C35.4798 11.625 35.4911 11.7533 35.5334 11.8728C35.5756 11.9923 35.6475 12.0991 35.7422 12.1833C35.9672 12.3167 36.1672 13.1 36.1672 13.1L30.9172 13Z" fill="url(#paint0_linear_769_17843)" stroke="black" stroke-width="0.0833333"/>
<path d="M36.5007 18.8417C36.6173 18.775 36.959 18.6667 36.9173 18.1583C36.8757 17.6583 36.4423 17.5917 36.1923 17.6083C35.9423 17.625 35.734 17.8417 35.734 17.8417L34.9173 17.325C34.9173 17.325 35.3257 14.7667 35.7507 14.6083C36.1673 14.3167 36.234 14.1917 36.234 14.125C36.234 14.05 36.084 13.8833 36.084 13.8833L33.4423 13.575L30.9423 13.8667C30.9423 13.8667 30.759 14.1667 30.7757 14.2833C30.809 14.4 30.8173 14.525 31.259 14.8667C31.759 15.25 32.0923 17.4333 32.0923 17.4333C32.0923 17.4333 31.4007 17.7833 31.3507 17.7333C31.309 17.6917 31.1007 17.65 30.9923 17.6667C30.884 17.6833 30.5173 17.875 30.5173 18.35C30.5173 18.8333 30.884 19.1083 30.884 19.1083C30.884 19.1083 33.2673 18.8333 33.6257 19.4917C33.9673 18.7 36.234 18.975 36.509 18.8417H36.5007Z" fill="#656263" stroke="black" stroke-width="0.0833333"/>
<path d="M39.0757 16.1833C39.0757 16.1833 39.1006 15.9083 39.3006 15.775C39.5006 15.6417 40.8173 15.575 41.134 15.775C41.4506 15.975 41.5673 16.95 41.5673 16.95C41.5673 16.95 41.7673 17.2917 41.784 17.55C41.7923 17.8 41.8257 17.9667 41.8257 17.9667C41.8257 17.9667 42.8757 19.3417 42.8923 20.5833C43.009 21.425 42.984 23.6833 42.6507 24.5417C42.6528 25.1629 42.495 25.7742 42.1923 26.3167C42.1923 26.3167 42.3007 26.5 42.284 26.7C42.2673 26.8917 42.1673 27.0833 42.1673 27.0833L43.709 27.8417L43.1423 27.6333L43.709 28.1083L43.0673 27.8083L43.4423 28.1917C43.434 28.175 42.509 27.7667 42.509 27.7667L42.9256 28.1583L42.2173 27.825C42.2173 27.825 42.634 28.2833 42.634 28.2583C42.4325 28.1604 42.2267 28.0714 42.0173 27.9917L42.0506 28.2167C42.0506 28.2167 41.5673 28.1917 41.5673 27.8333C41.4207 27.7494 41.2885 27.6424 41.1756 27.5167L40.0757 27.3333L38.834 23.6167L39.1257 17.35L39.209 17.0333L39.0757 16.1833Z" fill="black" stroke="black" stroke-width="0.0833333" stroke-linejoin="round"/>
<path d="M38.2507 36.2333C38.2507 36.2333 37.609 34.9 37.2924 34.875C37.009 34.325 38.2924 29.875 40.7674 29.6167C42.1257 29.725 40.8757 31.1833 39.984 30.7333C40.1213 31.0789 40.3095 31.4019 40.5424 31.6917C40.5424 31.6917 38.7674 32.4583 38.2424 36.2333H38.2507Z" fill="#FFBB00" stroke="black" stroke-width="0.0833333"/>
<path d="M29.7256 36.425C29.7256 36.425 30.2506 34.9 30.5673 34.8833C30.8923 34.8667 29.7256 29.8083 27.184 29.775C25.8173 29.8833 27.0756 31.35 27.9756 30.9C27.8357 31.246 27.6447 31.569 27.409 31.8583C27.409 31.8583 29.2006 32.625 29.7256 36.425Z" fill="#FFBB00" stroke="black" stroke-width="0.0833333"/>
<path d="M32.0507 26.9167C32.0507 26.9 31.4173 27.1083 31.8257 27.7917C31.8507 27.525 32.134 27.375 32.134 27.375C32.134 27.375 31.709 27.875 32.159 28.3C32.2173 27.9 32.4757 27.775 32.4757 27.775C32.4757 27.775 32.1507 28.7083 32.4757 28.9C32.5173 28.525 32.7507 28.3583 32.7507 28.3583C32.7507 28.3583 32.4673 29.1917 32.7257 29.3833C32.7507 29.0667 32.9673 28.925 32.9673 28.925C32.9673 28.925 32.8423 29.8 33.1757 29.8583C33.1757 29.55 33.4257 29.25 33.4257 29.25C33.4257 29.25 33.3173 29.9583 33.8423 29.9917C33.8423 29.725 33.9423 29.4167 33.9423 29.4167C33.9423 29.4167 34.184 30.1667 34.5257 30.05V29.4083C34.5257 29.4083 34.7507 30.125 35.1673 29.9917C35.109 29.7917 35.1923 29.55 35.1923 29.55C35.1923 29.55 35.409 30 35.809 29.85C35.8757 29.7167 35.7923 29.45 35.7923 29.45C35.7923 29.45 36.3757 30.05 36.5423 29.6917C36.7257 29.3333 36.084 29.2083 36.084 29.2083H36.5173C36.5173 29.2083 36.3757 28.8417 35.7923 28.7583C35.9923 28.675 36.2007 28.7417 36.2007 28.7417C36.2007 28.7417 36.0757 28.2833 35.4757 28.2333C35.709 28.15 35.9757 28.2083 35.9757 28.2083C35.9757 28.2083 35.8923 27.775 35.2257 27.65C35.334 27.5333 35.6173 27.5667 35.6173 27.5667C35.6173 27.5667 35.3507 27.1583 35.0507 27.1833C34.7507 27.2083 32.0507 26.9083 32.0507 26.9167Z" fill="#00713D" stroke="black" stroke-width="0.0833333"/>
<path d="M34.7173 29.125C34.7173 29.125 34.9673 29.2417 34.9506 29.3417" stroke="#3EC26D" stroke-width="0.0812583" stroke-linecap="round"/>
<path d="M34.8589 28.9333C34.8589 28.9333 35.1672 29.15 35.1589 29.3083" stroke="#3EC26D" stroke-width="0.0812583" stroke-linecap="round"/>
<path d="M35.134 28.825C35.134 28.825 35.3757 28.975 35.384 29.2167" stroke="#3EC26D" stroke-width="0.0812583" stroke-linecap="round"/>
<path d="M35.5422 28.9167C35.5422 28.9167 35.6589 29.1833 35.6256 29.2333" stroke="#3EC26D" stroke-width="0.0812583" stroke-linecap="round"/>
<path d="M35.784 29.0583C35.8007 29.2667 35.7673 29.2917 35.7673 29.2917" stroke="#3EC26D" stroke-width="0.0812583" stroke-linecap="round"/>
<path d="M32.7673 27.75C32.7673 27.75 33.059 27.9333 33.034 28.1917" stroke="#3EC26D" stroke-width="0.0812583" stroke-linecap="round"/>
<path d="M32.7507 27.9667C32.7507 27.9667 32.8841 28.1 32.8591 28.1833" stroke="#3EC26D" stroke-width="0.0812583" stroke-linecap="round"/>
<path d="M33.1089 27.75C33.1089 27.75 33.3006 28.0167 33.2339 28.2" stroke="#3EC26D" stroke-width="0.0812583" stroke-linecap="round"/>
<path d="M33.4341 27.925C33.4341 27.925 33.5174 28.0917 33.4341 28.175" stroke="#3EC26D" stroke-width="0.0812583" stroke-linecap="round"/>
<path d="M33.584 28C33.584 28 33.684 28.1667 33.5923 28.225" stroke="#3EC26D" stroke-width="0.0812583" stroke-linecap="round"/>
<path d="M33.4673 28.55C33.4673 28.55 33.734 28.6083 33.7756 28.8083" stroke="#3EC26D" stroke-width="0.0812583" stroke-linecap="round"/>
<path d="M33.6257 28.3667C33.6257 28.3667 33.9091 28.3833 33.9424 28.6833" stroke="#3EC26D" stroke-width="0.0812583" stroke-linecap="round"/>
<path d="M34.0007 28.2583C34.0007 28.2583 34.1924 28.5917 34.1591 28.6917" stroke="#3EC26D" stroke-width="0.0812583" stroke-linecap="round"/>
<path d="M34.3589 28.2917C34.3589 28.2917 34.4339 28.6 34.3756 28.7083" stroke="#3EC26D" stroke-width="0.0812583" stroke-linecap="round"/>
<path d="M34.5923 28.4167V28.775" stroke="#3EC26D" stroke-width="0.0812583" stroke-linecap="round"/>
<path d="M34.2422 27.925C34.2422 27.925 34.4089 27.9917 34.4089 28.1667" stroke="#3EC26D" stroke-width="0.0812583" stroke-linecap="round"/>
<path d="M34.4006 27.7667C34.4006 27.7667 34.6256 27.8917 34.609 28.1417" stroke="#3EC26D" stroke-width="0.0812583" stroke-linecap="round"/>
<path d="M34.6672 27.6667C34.6672 27.6667 34.8589 27.8917 34.7922 28.15" stroke="#3EC26D" stroke-width="0.0812583" stroke-linecap="round"/>
<path d="M35.0007 27.7167C35.0007 27.7167 34.934 28.0083 34.9673 28.125" stroke="#3EC26D" stroke-width="0.0812583" stroke-linecap="round"/>
<path d="M35.2173 27.9167C35.2173 27.9167 35.0923 28.0083 35.159 28.1333" stroke="#3EC26D" stroke-width="0.0812583" stroke-linecap="round"/>
<path d="M34.1006 29.0333C34.1006 29.0333 34.1423 29.25 34.1006 29.2833" stroke="#3EC26D" stroke-width="0.0812583" stroke-linecap="round"/>
<path d="M33.8257 28.9C33.8257 28.9 33.959 29.15 33.909 29.2667" stroke="#3EC26D" stroke-width="0.0812583" stroke-linecap="round"/>
<path d="M33.5256 28.8917C33.5256 28.8917 33.684 29.075 33.6756 29.225" stroke="#3EC26D" stroke-width="0.0812583" stroke-linecap="round"/>
<path d="M33.2756 28.925C33.2756 28.925 33.4256 29.0667 33.409 29.15" stroke="#3EC26D" stroke-width="0.0812583" stroke-linecap="round"/>
<path d="M33.1506 29.1417C33.1506 29.1417 33.2923 29.2917 33.284 29.3167" stroke="#3EC26D" stroke-width="0.0812583" stroke-linecap="round"/>
<path d="M30.1089 19.1083L32.1339 19.0667C32.1339 19.0667 33.4672 19.0667 33.6089 19.5C33.8589 18.925 35.0256 18.9583 35.0256 18.9583L37.1089 18.8917L37.1506 23.9417C36.7339 25.9083 35.3172 27.2917 33.7589 27.8833C32.8849 27.5859 32.1059 27.0608 31.5024 26.362C30.899 25.6633 30.4927 24.8163 30.3256 23.9083L30.1089 19.1083Z" fill="white" stroke="black" stroke-width="0.0833333"/>
<path d="M30.834 19.0833L33.7757 26.9333L36.4423 18.9167C35.609 18.9667 33.8424 18.7833 33.6174 19.5417C33.284 18.8667 31.4174 19.1333 30.8257 19.0833H30.834Z" fill="#006B00" stroke="black" stroke-width="0.0833333"/>
<path d="M32.8339 23.3333C32.9506 23.3917 32.9422 21.2083 33.0922 21.1417L33.2089 20.6833C33.0839 20.4583 32.5089 20.4667 32.2922 20.6667L32.4339 21.0667C32.7256 21.5333 32.6672 23.3833 32.8339 23.3333Z" fill="#FFC900" stroke="#006B00" stroke-width="0.0416667" stroke-linecap="round"/>
<path d="M32.0424 6.41667C32.0424 6.41667 32.2507 6.175 32.2591 6.125C32.2757 6.06667 33.2091 6.025 33.7591 4.98333C34.0757 4.44167 33.7591 4.75833 33.7591 4.75833L33.7507 4.5C33.7507 4.5 34.1341 4.13333 34.0007 3.93334C33.8507 3.73333 33.9007 4.18334 33.6674 4.18334C33.4424 4.175 33.5674 3.68334 33.5674 3.68334C33.5674 3.68334 33.5507 3.63334 33.4841 3.6C33.3924 3.61667 33.4174 3.78333 33.3341 3.8C33.2507 3.825 33.1674 3.40834 33.1674 3.40834C33.1674 3.40834 33.0257 3.21667 32.9091 3.80834C32.9757 4.45 33.3757 4.325 33.3757 4.74167C33.3757 5.15833 33.0174 5.475 32.9174 5.49167C32.8091 5.49167 32.8507 5.13333 32.8507 5.13333C32.8507 5.13333 32.7924 4.96667 32.7591 4.96667C32.7174 4.96667 32.9674 4.925 32.9257 4.45833C32.8424 3.89167 32.7757 4.59167 32.6257 4.55833C32.4674 4.53333 32.5841 4.04167 32.6424 3.975C32.7007 3.925 32.5757 3.69167 32.2424 4.29167C32.2174 4.59167 32.1757 4.21667 32.1091 4.24167C32.0007 4.475 32.0174 4.64167 32.1757 4.85833C32.4174 5.08333 32.5674 5.3 32.5591 5.40833C32.5507 5.525 32.4257 5.78333 32.2507 5.78333C32.0841 5.78333 32.2591 5.46667 32.2507 5.36667C32.2507 5.25833 31.9591 4.88333 31.9591 4.88333C31.9591 4.88333 31.7591 4.55833 31.7841 4.55C31.8007 4.54167 31.7591 4.49167 31.6674 4.825C31.5757 5.15833 31.4591 4.60833 31.4591 4.60833C31.4591 4.60833 31.3257 5.01667 31.6091 5.25833C31.3924 5.23333 31.3757 5.31667 31.3757 5.31667C31.3757 5.43333 31.6674 5.48333 31.7091 5.675C31.7424 5.875 31.4007 5.99167 31.4007 5.99167C31.4007 5.99167 31.5424 6.18333 31.9424 5.8C31.9507 6.05 31.7924 6.21667 31.7924 6.21667C31.9257 6.275 32.0257 6.26667 32.0424 6.425V6.41667Z" fill="#CDAD56" stroke="black" stroke-width="0.0833333" stroke-linejoin="round"/>
<path d="M30.7506 6.41667C30.7506 6.41667 30.5672 6.15001 30.5589 6.10001C30.5589 6.05001 29.6922 6.16667 29.2839 5.11667C29.0172 4.61667 29.2839 4.90834 29.2839 4.90834L29.3006 4.66667C29.3006 4.66667 29.0172 4.32501 29.1339 4.14167C29.2589 3.95834 29.2172 4.37501 29.3672 4.37501C29.5589 4.36667 29.4506 3.92501 29.4506 3.92501C29.4506 3.92501 29.4672 3.87501 29.5339 3.85001C29.6089 3.85834 29.6422 4.11667 29.7089 4.13334C29.7839 4.15001 29.9339 3.83334 29.9839 3.76667C30.0506 3.75834 30.0422 3.50001 30.1506 4.04167C30.0922 4.61667 29.6172 4.50001 29.6172 4.87501C29.6172 5.25834 29.9172 5.55001 30.0089 5.55834C30.0922 5.57501 30.0672 5.24167 30.0672 5.24167C30.0672 5.24167 30.1172 5.09167 30.1506 5.09167C30.1756 5.09167 29.8672 5.15001 29.9006 4.71667C29.9672 4.31667 30.1256 4.74167 30.2589 4.71667C30.3839 4.69167 30.2422 4.30001 30.2756 4.23334C30.2839 4.16667 30.4756 3.90834 30.5506 4.48334C30.5756 4.75834 30.7172 4.25834 30.7756 4.27501C30.8756 4.49167 30.7339 4.77501 30.6006 4.97501C30.4006 5.17501 30.3089 5.39167 30.3172 5.49167C30.3172 5.60001 30.3672 5.72501 30.5172 5.72501C30.6589 5.72501 30.5589 5.54167 30.5672 5.45001C30.5756 5.35834 30.8172 5.05001 30.8172 5.05001C30.8672 4.96667 30.8256 4.83334 30.8756 4.76667C30.9589 4.76667 30.9922 4.65834 31.0672 4.95834C31.1506 5.25834 31.2422 4.75834 31.2422 4.75834C31.2422 4.75834 31.3589 5.13334 31.1172 5.35834C31.3006 5.33334 31.3172 5.40834 31.3172 5.40834C31.3172 5.50834 31.2339 5.55001 31.2006 5.74167C31.1921 5.79151 31.1961 5.84266 31.2121 5.89062C31.228 5.93857 31.2556 5.98186 31.2922 6.01667C31.2922 6.01667 31.1756 6.20001 30.8339 5.85001C30.833 5.98677 30.8802 6.1195 30.9672 6.22501C30.8506 6.28334 30.7672 6.27501 30.7506 6.41667Z" fill="#CDAD56" stroke="black" stroke-width="0.075" stroke-linejoin="round"/>
<path d="M35.9423 20.25C35.7756 20.1 35.7507 20.2333 35.659 20.2C35.6173 20.1833 35.584 20.1417 35.5507 20.1083C35.5173 20.075 35.4757 20.0583 35.434 20.0417L35.384 20.1833C35.3673 20.2333 35.434 20.3083 35.434 20.3833C35.4173 20.4917 35.3757 20.575 35.2423 20.6083C35.284 20.5333 35.3007 20.5333 35.2923 20.4417C35.2923 20.4 35.159 20.3167 35.1757 20.275C35.1923 20.2 35.234 20.125 35.209 20.05C35.1507 20.0917 35.084 20.0667 35.0256 20.0917C34.984 20.1167 34.9757 20.2 34.9173 20.2333C34.8507 20.2667 34.709 20.25 34.584 20.1833C34.659 20.125 34.7173 20.1667 34.7923 20.1C34.8257 20.0833 34.8257 19.9583 34.8673 19.9333L35.0256 19.85C34.9923 19.8083 34.9923 19.75 34.959 19.7167C34.9257 19.675 34.784 19.6833 34.7507 19.65C34.684 19.5667 34.6923 19.475 34.634 19.4C34.8007 19.4583 34.7757 19.5417 34.8173 19.5333C34.9006 19.4917 34.984 19.4917 35.0256 19.5083C35.0673 19.525 35.1423 19.6333 35.1923 19.65L35.2423 19.4917C35.259 19.4417 35.1757 19.3667 35.184 19.3167C35.2173 19.225 35.3007 19.1417 35.334 19.0417L35.3673 19.3C35.3757 19.35 35.4673 19.375 35.4673 19.4167C35.4757 19.4667 35.4257 19.5667 35.4257 19.6167C35.4757 19.6083 35.5507 19.6167 35.5923 19.6C35.6507 19.5917 35.6757 19.475 35.7257 19.4667C35.8257 19.45 35.8923 19.4583 36.0007 19.4667C35.9173 19.5417 35.8673 19.5333 35.8257 19.6C35.784 19.625 35.834 19.7167 35.734 19.7833C35.6923 19.8083 35.584 19.7833 35.5507 19.8083L35.6506 19.9167C35.684 19.9583 35.8256 19.975 35.859 20.0167C35.9257 20.0833 35.959 20.1833 35.9423 20.2583V20.25Z" fill="#FFC900"/>
<path d="M31.4172 20.3333C31.5839 20.175 31.6089 20.3167 31.7006 20.275C31.7422 20.2583 31.7756 20.225 31.8089 20.1917C31.8422 20.15 31.8839 20.1417 31.9256 20.1167L31.9756 20.2667C31.9922 20.3083 31.9256 20.3917 31.9256 20.4583C31.9422 20.5667 31.9839 20.65 32.1172 20.6917C32.0756 20.6083 32.0589 20.6083 32.0672 20.525C32.0672 20.475 32.2006 20.3917 32.1839 20.35C32.1672 20.2833 32.1256 20.2 32.1506 20.1333C32.2089 20.1667 32.2756 20.15 32.3339 20.1667C32.3756 20.1917 32.3839 20.275 32.4422 20.3083C32.5089 20.3417 32.6506 20.325 32.7756 20.2583C32.7006 20.2 32.6422 20.2417 32.5672 20.1833C32.5339 20.1583 32.5339 20.0333 32.4922 20.0167C32.4589 19.9833 32.3672 19.95 32.3339 19.925C32.3672 19.8833 32.3672 19.825 32.4006 19.7917C32.4339 19.75 32.5756 19.7583 32.6089 19.725C32.6756 19.6417 32.6672 19.55 32.7256 19.475C32.5589 19.5333 32.5839 19.6167 32.5422 19.6083C32.4589 19.575 32.3756 19.5667 32.3339 19.5833C32.2922 19.6 32.2172 19.7083 32.1672 19.725L32.1172 19.5667C32.1006 19.525 32.1922 19.4417 32.1756 19.4C32.1422 19.3 32.0589 19.2167 32.0256 19.1167L31.9922 19.3833C31.9839 19.425 31.8922 19.45 31.8922 19.4917C31.8839 19.5417 31.9339 19.65 31.9339 19.6917C31.8839 19.6833 31.8089 19.6917 31.7672 19.675C31.7089 19.675 31.6839 19.5583 31.6339 19.5417C31.5339 19.525 31.4672 19.5333 31.3589 19.55C31.4422 19.6167 31.4922 19.6167 31.5422 19.675C31.5756 19.7083 31.5256 19.8 31.6256 19.8583C31.6672 19.8833 31.7756 19.8583 31.8089 19.8833L31.7089 20C31.6756 20.0333 31.5339 20.05 31.5006 20.0833C31.4339 20.1667 31.4006 20.25 31.4172 20.3333Z" fill="#FFC900"/>
<path d="M35.784 20.7667C35.6257 20.8917 34.5924 21.15 34.584 22.0417C34.5757 22.9417 34.7674 23.1417 34.5757 23.1667C34.2007 23.1667 34.1507 22.1667 34.159 21.725C34.1674 21.2833 34.184 21.35 34.184 21.35C34.184 21.35 34.434 21.4167 34.4174 21.6333C34.3924 21.85 34.6674 21.1 34.5757 20.9C34.7424 21.0667 34.9674 21 34.9674 20.9833C34.9674 20.9833 34.8424 20.8417 34.784 20.7333C34.734 20.6417 34.9757 20.8 34.9757 20.8C34.9757 20.8 34.9924 20.6333 34.7757 20.6333C34.5007 20.6333 34.8174 20.55 34.8174 20.55C34.8174 20.55 34.984 20.6917 35.084 20.5333C35.0024 20.4522 34.9063 20.3872 34.8007 20.3417C34.8007 20.3417 34.6507 20.0583 34.4507 20.0083C34.2174 19.95 34.2424 20.1083 33.9757 20.0833C33.9257 20.1833 33.9257 20.2 34.034 20.2333C33.8507 20.3583 33.9507 20.6 33.9507 20.6C33.9507 20.6 34.234 20.4833 34.2257 20.6833C34.2174 20.8917 34.059 20.85 33.9507 20.725C33.8507 20.675 33.8174 20.7833 33.8174 20.7833L33.9674 20.95C33.9674 20.95 33.684 20.9333 33.609 21.125C33.7674 21.1167 33.859 21.1583 33.859 21.1583C33.859 21.1583 33.5257 21.3083 33.4924 21.3833C33.459 21.4667 33.4507 21.3 33.434 21.3L33.1174 21.1833L33.009 21.675C33.009 21.675 33.2257 21.8833 33.3424 21.8167C33.459 21.75 33.6757 21.5417 33.8007 21.6C33.4257 21.8833 33.0507 22.2917 32.8507 22.35C32.8007 22.3 32.6174 22.125 32.5424 22.2167C32.4674 22.3 32.5257 22.4167 32.6257 22.4083C32.709 22.3917 32.309 22.4917 32.3924 22.6667C32.4757 22.8333 32.4757 22.825 32.5424 22.7833C32.6257 22.7333 32.484 22.725 32.759 22.6417C33.034 22.5583 33.0257 22.4833 33.0257 22.4833C33.0257 22.4833 32.9674 22.6083 32.8174 22.65C32.6757 22.675 32.559 22.675 32.584 22.725C32.6174 22.7667 32.684 22.85 32.6674 22.8917C32.6424 22.9417 32.9674 22.6583 33.059 22.8833C33.2757 22.8667 33.4257 22.6 33.3174 22.4417C33.334 22.6083 33.434 22.6667 33.3757 22.75C33.309 22.825 33.8757 22.4833 33.6007 22.2833C33.6674 22.45 33.684 22.5833 33.684 22.5833C33.684 22.5833 33.809 22.5833 33.8424 22.5333C33.8757 22.4833 33.7757 22.6583 33.8174 22.6917C33.859 22.725 34.0674 22.9167 33.984 23.05C33.9257 22.9667 33.9174 22.85 33.8507 22.8583C33.784 22.8667 33.5174 23.0667 33.359 23.075C33.2007 23.0833 33.5507 23.6583 33.5507 23.6583C33.5507 23.6583 33.309 23.6333 33.2757 23.6583C33.2424 23.675 33.084 23.45 33.059 23.5833C33.0007 23.75 33.109 23.6833 33.109 23.6833C33.109 23.6833 32.9674 23.6167 32.8924 23.7C32.8174 23.7833 32.7507 23.8583 32.8007 23.8917C32.8507 23.925 33.084 23.925 33.1174 23.9167C33.1507 23.9 32.8507 23.9333 32.834 23.9667C32.809 24 32.7674 24.1333 32.834 24.175C32.8924 24.2167 33.059 24.15 33.0674 24.1167C33.0757 24.0833 33.084 24.2417 33.084 24.2417C33.084 24.2417 33.359 24.2667 33.359 23.9833C33.359 23.7 33.384 24.1833 33.384 24.1833C33.384 24.1833 33.659 24.2333 33.6674 23.95C33.684 23.6667 33.7007 24.1417 33.7007 24.1417C33.7007 24.1417 33.884 24.0833 33.884 24.0417C33.884 23.9917 33.8757 24.6 33.7424 24.775C33.5424 24.6417 33.409 24.8583 33.409 24.8583C33.409 24.8583 33.4257 25.1917 33.409 25.275C33.384 25.3583 33.5424 25.225 33.5507 25.1917C33.5674 25.1583 33.759 25.0667 33.7674 25.05L33.834 24.9083C33.834 24.9083 33.784 25.075 33.7174 25.0917C33.634 25.1167 33.5674 25.1917 33.6007 25.2583C33.6257 25.3333 33.7424 25.375 33.784 25.4417C33.834 25.5083 33.9757 25.05 33.9757 25.05L33.9924 25.15C33.9924 25.15 34.184 25.1 34.2007 25.0083C34.2257 24.925 34.0007 24.8417 34.184 24.6917C34.359 24.55 34.184 24.8333 34.184 24.8333C34.184 24.8333 34.2424 25.05 34.284 25.05C34.334 25.05 34.434 24.6333 34.334 24.5333C34.2257 24.4333 34.4924 24.6583 34.4924 24.6583C34.4924 24.6583 34.6424 24.2417 34.4757 24.1833L34.2424 24.1C34.2424 24.1 34.3257 23.9917 34.284 23.9833C34.2424 23.9667 34.509 24.2333 34.5507 24.1583C34.5924 24.0917 34.659 23.8917 34.3507 23.775C34.0424 23.6667 34.3424 23.35 34.3424 23.35C34.3424 23.35 34.534 23.575 34.6757 23.45C34.809 23.325 34.659 23.325 34.659 23.325C34.659 23.325 35.0507 23.075 35.0674 22.95C34.984 22.9417 34.859 22.9583 34.859 22.9583C34.859 22.9583 35.084 22.8167 35.0257 22.575C34.9424 22.7 34.8257 22.7 34.8257 22.7C34.8257 22.7 35.0174 22.5083 34.9924 22.325C34.8757 22.4167 34.884 22.4917 34.809 22.4667C34.734 22.4417 34.609 21.725 34.9007 21.6833C35.2007 21.6333 35.0424 22.0333 35.0507 22.0333C35.0674 22.0333 35.5007 21.85 35.0507 21.5583C35.159 21.525 35.384 21.725 35.384 21.725C35.384 21.725 35.284 21.225 34.8007 21.5333C34.9257 21.4083 35.0007 21.3333 35.0924 21.35C35.1924 21.375 35.534 21.3417 35.534 21.2417C35.4507 21.175 35.2674 21.275 35.1674 21.2417C35.0757 21.2083 35.8507 21.15 35.784 20.7667Z" fill="#FFC900" stroke="#006B00" stroke-width="0.0416667" stroke-linecap="round" stroke-linejoin="round"/>
<path d="M32.4172 21.0583C32.4172 21.0583 32.8422 20.8167 33.0506 21.1167" stroke="#006B00" stroke-width="0.0416667" stroke-linecap="round"/>
<path d="M33.2256 21.5667C33.2172 21.5667 33.0756 21.7167 33.0422 21.7167" stroke="#006B00" stroke-width="0.0416667" stroke-linecap="round"/>
<path d="M33.509 22.0417C33.509 22.0417 33.909 22.075 34.159 21.6583" stroke="#006B00" stroke-width="0.0416667" stroke-linecap="round"/>
<path d="M33.9339 21.9167C33.9339 21.9167 33.9672 22.1417 34.0339 22.1417C34.0922 22.1417 33.9255 22.2 33.8672 22.1583C33.9339 22.2583 33.9755 22.4417 33.8672 22.5083" stroke="#006B00" stroke-width="0.0416667" stroke-linecap="round"/>
<path d="M33.7341 24.775C33.7341 24.775 33.6008 24.9333 33.4258 24.9417L33.7341 24.775Z" fill="#E80000"/>
<path d="M33.7341 24.775C33.7341 24.775 33.6008 24.9333 33.4258 24.9417" stroke="#006B00" stroke-width="0.0416667" stroke-linecap="round"/>
<path d="M33.8923 24.05C33.8923 24.05 33.809 23.5917 33.859 23.4833C33.8923 23.3333 34.0257 23.275 34.1423 23.0833" stroke="#006B00" stroke-width="0.0416667" stroke-linecap="round"/>
<path d="M33.8506 23.7167C33.8506 23.7167 33.7423 23.9917 33.2756 23.9" stroke="#006B00" stroke-width="0.0416667" stroke-linecap="round"/>
<path d="M33.9757 23.0417C33.9757 23.0417 34.009 23.4 33.584 23.2667" stroke="#006B00" stroke-width="0.0416667" stroke-linecap="round"/>
<path d="M33.4591 21.4167C33.4591 21.4167 33.2924 21.5667 33.3508 21.7833" stroke="#006B00" stroke-width="0.0416667" stroke-linecap="round"/>
<path d="M34.0923 21.0083C34.0923 21.0083 34.3173 20.925 34.359 20.875C34.4181 20.8177 34.4662 20.7498 34.5006 20.675C34.5173 20.6083 34.3506 20.5083 34.434 20.3583C34.4923 20.2833 34.5673 20.275 34.684 20.3583C34.8173 20.4417 34.5756 20.1083 34.4506 20.0917C34.3173 20.0833 34.234 20.1833 34.2006 20.1583C34.1673 20.1417 34.209 20.25 34.159 20.25C34.109 20.25 34.2673 20.3417 34.259 20.4C34.2423 20.4583 34.4256 20.65 34.4173 20.6917C34.4006 20.7417 34.1506 21 34.0923 21.0083Z" fill="#006B00"/>
<path d="M34.2507 20.2667C34.3507 20.2417 34.3674 20.2667 34.3507 20.35C34.3137 20.3304 34.2821 20.3017 34.2591 20.2667H34.2507Z" fill="#FFC900" stroke="#FFC900" stroke-width="0.0416667" stroke-linecap="round" stroke-linejoin="round"/>
<path d="M33.5839 25.3083C33.5839 25.3083 33.5422 25.55 33.6256 25.5667C33.6256 25.4833 33.6506 25.4167 33.6672 25.3917L33.5839 25.3083Z" fill="#E80000" stroke="#006B00" stroke-width="0.0416667" stroke-linejoin="round"/>
<path d="M33.3756 25.0167C33.2923 25.0083 33.1673 25.0833 33.209 25.1667C33.2673 25.1083 33.3256 25.1667 33.3756 25.1083V25.025V25.0167Z" fill="#E80000" stroke="#006B00" stroke-width="0.0416667" stroke-linejoin="round"/>
<path d="M33.3756 24.85C33.3756 24.85 33.2506 24.8333 33.2339 24.925C33.3172 24.9083 33.3506 24.9 33.3756 24.925V24.85Z" fill="#E80000" stroke="#006B00" stroke-width="0.0416667" stroke-linejoin="round"/>
<path d="M32.8423 23.5167C32.8423 23.5167 32.9256 23.5417 32.9423 23.625C33.0006 23.5917 33.0256 23.4083 32.8423 23.5167Z" fill="#E80000" stroke="#006B00" stroke-width="0.05" stroke-linejoin="round"/>
<path d="M32.6506 23.7167C32.6506 23.7167 32.8173 23.6167 32.8256 23.7167C32.7923 23.7417 32.784 23.7667 32.759 23.775C32.734 23.775 32.6923 23.7083 32.6506 23.7167Z" fill="#E80000" stroke="#006B00" stroke-width="0.05" stroke-linejoin="round"/>
<path d="M32.6423 24.0417C32.6423 24.0417 32.7423 23.9583 32.7757 24.0083C32.8173 24.075 32.7423 24.0667 32.7423 24.0667L32.6423 24.0417Z" fill="#E80000" stroke="#006B00" stroke-width="0.05" stroke-linejoin="round"/>
<path d="M32.5007 22.2167C32.5007 22.2167 32.3757 22.1667 32.3257 22.2583C32.409 22.275 32.434 22.3 32.4757 22.3333C32.459 22.2917 32.4424 22.2333 32.5007 22.2167Z" fill="#E80000" stroke="#006B00" stroke-width="0.05" stroke-linejoin="round"/>
<path d="M32.259 22.9083C32.259 22.9083 32.259 22.75 32.3424 22.6917C32.3757 22.7167 32.384 22.75 32.409 22.7917C32.359 22.8083 32.2924 22.8083 32.259 22.9083Z" fill="#E80000" stroke="#006B00" stroke-width="0.05" stroke-linejoin="round"/>
<path d="M32.5841 22.8C32.5841 22.8 32.4507 22.8667 32.5007 22.9417C32.5424 22.8833 32.5924 22.9 32.5924 22.9V22.8H32.5841Z" fill="#E80000" stroke="#006B00" stroke-width="0.05" stroke-linejoin="round"/>
<path d="M32.3924 21.3167C32.3424 21.375 32.4507 21.5 32.5674 21.4833C32.6007 21.35 32.4257 21.275 32.4007 21.3167H32.3924Z" fill="#FFC900" stroke="#006B00" stroke-width="0.05" stroke-linejoin="round"/>
<path d="M32.5173 21.2167C32.5173 21.2167 32.5423 21.325 32.6423 21.3C32.6295 21.2406 32.6007 21.1859 32.559 21.1417C32.559 21.1667 32.5673 21.2083 32.5173 21.2167Z" fill="#E80000" stroke="#006B00" stroke-width="0.05" stroke-linejoin="round"/>
<path d="M32.584 21.525C32.584 21.525 32.6423 21.5917 32.7507 21.4667C32.7007 21.475 32.6173 21.4333 32.6173 21.4333C32.6173 21.4333 32.6173 21.5167 32.584 21.525Z" fill="#E80000" stroke="#006B00" stroke-width="0.05" stroke-linejoin="round"/>
<path d="M32.3841 21.0667C32.3424 21.125 32.4091 21.2083 32.5257 21.1917C32.5507 21.05 32.4174 21.025 32.3841 21.0667Z" fill="#FFC900" stroke="#006B00" stroke-width="0.05" stroke-linejoin="round"/>
<path d="M32.4339 20.525C32.4339 20.525 32.8922 20.3917 33.1339 20.5917C33.3839 20.7833 33.3839 20.6083 33.3839 20.6083C33.3839 20.6083 33.7339 20.7417 33.8339 20.7083C33.9339 20.6833 33.7589 20.725 33.9005 20.6333C34.0422 20.55 33.6172 20.6583 33.5839 20.475C33.5172 20.3667 33.5839 20.225 33.4422 20.275C33.3422 20.1417 33.5089 20.05 33.4672 19.9083C33.3672 19.9917 33.3089 19.8833 33.2255 20.075C33.0339 20.0333 33.2005 19.7583 32.9839 19.7333C32.9839 19.925 32.8255 19.9333 32.8172 20.05C32.7255 20.1167 32.3172 20.3583 32.4339 20.525Z" fill="url(#paint1_linear_769_17843)"/>
<path d="M27.1672 35.4167C27.4672 35.3333 29.0756 35.7667 29.6922 36.4333C29.5589 35.2417 29.2339 34.3417 29.2339 34.3417C29.2339 34.3417 28.2756 34.0667 28.1506 34.2C27.7771 34.5634 27.4472 34.9689 27.1672 35.4083V35.4167Z" fill="#C01500" stroke="black" stroke-width="0.0833333"/>
<path d="M26.6757 29.9417C26.5674 29.9583 26.4507 30.0333 26.3424 30.225C26.2091 30.5417 26.1174 31.35 25.9257 31.5417C25.7424 31.725 25.5674 31.7417 25.5674 31.9167C25.5674 32.0833 25.5924 32.475 26.0924 32.625C26.6007 32.65 27.409 31.8167 27.409 31.8167C27.409 31.8167 27.8257 31.3667 27.9924 30.8833C27.0174 31.2167 26.3257 30.3167 26.6757 29.9417Z" fill="#C01500" stroke="black" stroke-width="0.0833333"/>
<path d="M40.809 35.225C39.8793 35.2855 38.9926 35.6385 38.2756 36.2333C38.409 35.0583 38.734 34.15 38.734 34.15C38.8423 34.125 39.6756 33.8833 39.8006 34.0167C39.9923 34.2167 40.609 34.825 40.809 35.225Z" fill="#C01500" stroke="black" stroke-width="0.0833333"/>
<path d="M41.2673 29.7833C41.3757 29.8 41.4173 29.95 41.5173 30.1333C41.6423 30.4583 41.7673 30.9167 41.959 31.1C42.1507 31.2917 42.3173 31.5667 42.3173 31.7333C42.3173 31.9 42.2757 32.1333 41.7757 32.2833C41.2757 32.3 40.5423 31.65 40.5423 31.65C40.5423 31.65 40.1257 31.2083 39.959 30.7167C40.934 31.05 41.559 30.1917 41.2673 29.7833Z" fill="#C01500" stroke="black" stroke-width="0.0833333"/>
<path d="M26.1172 34.375C26.1172 34.375 27.1256 35.075 27.1506 35.3917C29.8756 31.35 36.8256 30.0917 40.7922 35.1083C41.3172 34.4167 41.8589 34.1917 41.8589 34.1917C37.6922 28.7417 29.3839 29.4167 26.1089 34.375H26.1172Z" fill="#FFBB00" stroke="black" stroke-width="0.0833333"/>
<path d="M36.4507 18.9167L36.8507 18.9083L36.1424 19.8083L36.9924 20.8L35.3174 22.9083L36.9007 24.8083C36.7392 25.2255 36.5204 25.6181 36.2507 25.975L35.3424 24.975L37.0007 22.9167L35.6507 21.3833L36.4507 18.9167Z" fill="#1E5AA6" stroke="black" stroke-width="0.0650066"/>
<path d="M30.7757 19.1H30.3591L31.1507 19.9667L30.3091 21.0167L32.0591 22.9167L30.6091 24.8583C30.7757 25.275 31.0257 25.7583 31.3007 26.1083L32.1591 25.0167L30.3924 23.05L31.6841 21.4083L30.7757 19.1Z" fill="#1E5AA6" stroke="black" stroke-width="0.0650066"/>
<path d="M32.7505 24.2L32.1172 25.0333L34.3505 27.6167C34.7505 27.4167 35.0589 27.1917 35.3922 26.9167L34.2255 25.575L34.7005 24.1833L35.3839 24.9667L33.2589 27.6833C32.9005 27.5333 32.5089 27.3 32.1505 27L33.2755 25.575L32.7505 24.2Z" fill="#1E5AA6" stroke="black" stroke-width="0.0650066"/>
<path d="M32.0591 22.9083L32.4591 23.4167L32.2007 22.725L32.0591 22.9083Z" fill="#1E5AA6" stroke="black" stroke-width="0.0650066"/>
<path d="M34.9673 23.3583L35.3006 22.925L35.1756 22.7583L34.9673 23.3583Z" fill="#1E5AA6" stroke="black" stroke-width="0.0833333"/>
<path d="M39.6672 16.25C39.6672 16.25 40.0672 15.9167 40.3422 15.9167" stroke="#FFF700" stroke-width="0.0650066" stroke-linecap="round"/>
<path d="M39.7256 16.2083C39.7339 16.2 42.0673 15.875 42.1423 15.7917" stroke="#FFF700" stroke-width="0.0650066" stroke-linecap="round"/>
<path d="M39.7339 16.225L42.3506 16" stroke="#FFF700" stroke-width="0.0650066" stroke-linecap="round"/>
<path d="M39.7256 16.2333C39.7256 16.2333 42.5006 16.1083 42.6673 16.25" stroke="#FFF700" stroke-width="0.0650066" stroke-linecap="round"/>
<path d="M39.7173 16.225C39.7173 16.225 42.434 16.25 42.484 16.3083" stroke="#FFF700" stroke-width="0.0650066" stroke-linecap="round"/>
<path d="M39.7256 16.225L42.3422 16.4417" stroke="#FFF700" stroke-width="0.0650066" stroke-linecap="round"/>
<path d="M39.7007 16.25C39.7007 16.25 42.3674 16.4833 42.6174 16.8167" stroke="#FFF700" stroke-width="0.0650066" stroke-linecap="round"/>
<path d="M42.759 17.2917C42.759 17.2833 41.859 16.2167 39.6924 16.2333" stroke="#FFF700" stroke-width="0.0650066" stroke-linecap="round"/>
<path d="M39.7007 16.25C39.7007 16.25 41.2007 16.3583 41.6757 16.8833" stroke="#FFF700" stroke-width="0.0650066" stroke-linecap="round"/>
<path d="M39.7256 16.2333C39.7256 16.2333 40.7006 16.05 41.7172 17.275" stroke="#FFF700" stroke-width="0.0650066" stroke-linecap="round"/>
<path d="M39.1174 17.35C39.1174 17.35 40.4591 17.4 40.4591 17.5333C40.4591 17.6667 39.4591 17.9167 39.4424 18.4667C39.4341 19.025 40.2091 19.0667 40.2674 19.7667C40.3174 20.4667 39.6591 20.5667 39.5174 20.7583C39.3924 20.8417 39.0758 21.8417 39.1174 22.425C39.1591 23 39.3258 24.9667 39.6341 25.3667C39.8674 25.55 40.2174 26.1417 40.6091 25.95C40.9924 25.775 40.7258 25.1 40.6924 24.9167C40.6508 24.7333 40.8424 24.425 40.8424 24.15C40.8424 23.8667 40.7008 23.65 40.7174 23.5833C40.7258 23.5167 41.7841 23.8333 41.7174 24.875C41.6508 25.9167 41.2258 25.6 41.2258 25.6C41.2258 25.6 41.3591 26.8833 41.0341 27.05C40.4341 27.3667 40.0008 26.9833 40.0008 26.9833L40.0591 27.25L39.6008 27.0167C39.6008 27.0167 39.0174 26.1833 38.8924 25.8083C38.7219 25.0284 38.6408 24.2316 38.6508 23.4333C38.7091 23.075 38.7424 20.9917 38.7174 20.8833C38.6924 20.7833 38.5841 19.0417 38.6508 18.775C38.7174 18.5083 39.1258 17.35 39.1174 17.35Z" fill="url(#paint2_linear_769_17843)" stroke="black" stroke-width="0.0833333"/>
<path d="M37.6673 17C37.6673 17 38.6006 16.0917 39.1423 16.2C39.4173 16.2 39.1589 16.4 39.1589 16.4C39.1589 16.4 39.6339 16.4333 39.7006 16.65C39.7089 16.7333 39.4756 16.7667 39.4756 16.7667C39.4756 16.7667 39.6673 16.8083 39.6839 16.975C39.7006 17.15 37.6839 17.0167 37.6589 17.0083L37.6673 17Z" fill="#FF7000" stroke="black" stroke-width="0.0833333"/>
<path d="M37.7173 16.9667C37.7173 16.9667 38.7173 16.8333 39.1423 16.4083" stroke="black" stroke-width="0.0833333"/>
<path d="M38.7339 16.6917C38.7339 16.6917 39.4756 16.6583 39.4756 16.775" stroke="black" stroke-width="0.0833333"/>
<path d="M40.0256 20.6667C40.0256 20.6667 39.5256 20.8333 39.4172 21.3333" stroke="white" stroke-width="0.0833333" stroke-linecap="round"/>
<path d="M39.8174 16.6917C39.8174 16.6917 39.9841 17.1667 40.5424 16.7167C40.1841 16.225 39.8174 16.7 39.8174 16.6917Z" fill="#C75B00" stroke="black" stroke-width="0.0833333"/>
<path d="M35.284 15.5833C35.284 15.5833 36.334 16.725 37.009 16.7083C37.134 17.0417 36.7007 17.3583 36.5341 17.5C36.1841 17.3917 35.8674 17.525 35.0674 16.5333C35.1174 15.9 35.2924 15.6167 35.284 15.5833Z" fill="white" stroke="black" stroke-width="0.0833333"/>
<path d="M36.7007 12.9333C36.8424 12.5167 37.1173 12.1833 37.3507 12.1417C37.284 11.825 37.8423 10.4 39.459 9.85834C39.559 10.5833 38.7673 11.3083 38.7673 11.3083C38.7673 11.3083 41.159 10.8917 41.6423 10.2917C41.5923 10.5583 41.109 12.2583 38.559 12.2417C39.5257 13.1583 38.2507 13.8917 37.709 13.6667C38.709 12.9 37.4173 12.4417 36.709 12.9333H36.7007Z" fill="white" stroke="black" stroke-width="0.0833333"/>
<path d="M37.5173 12.3417C38.0007 12.0333 38.1757 12.0333 38.5757 12.0917L38.284 12.1417C38.284 12.1417 38.259 12.1833 38.434 12.3417C38.234 12.2917 38.0673 12.175 37.5173 12.3417Z" fill="#CCCCCD" stroke="#CCCCCC" stroke-width="0.0833333"/>
<path d="M37.334 12.1417C37.334 12.1417 38.284 11.6417 38.8173 11.2917" stroke="black" stroke-width="0.0833333"/>
<path d="M36.5174 17.5C36.5174 17.5 37.8257 17.8583 37.9757 15.9833C37.6924 15.1667 37.3007 13.4 37.9007 12.9C37.3507 12.5167 36.734 12.9167 36.734 12.9167C36.7007 13 36.209 13.7083 36.8757 14.9417C35.2924 14.525 35.934 16.025 35.934 16.025C36.0007 15.775 36.8423 15.5583 37.0507 16.7583C37.134 17.0583 36.484 17.5083 36.5174 17.5083V17.5Z" fill="#0000FF" stroke="black" stroke-width="0.0833333"/>
<path d="M37.9922 16C37.9922 16 39.3755 15.25 39.3422 13.5C38.1589 13.5333 37.7422 15.05 37.7422 15.05L37.9922 16Z" fill="#0000FF" stroke="black" stroke-width="0.0833333"/>
<path d="M31.7756 15.9083C31.7756 15.9083 30.7506 16.8 30.1672 16.5167C29.7422 16.7667 29.2339 16.3167 29.2339 16.3167C29.2339 16.3167 29.8172 18.5083 31.9506 16.925C31.9299 16.5813 31.874 16.2406 31.7839 15.9083H31.7756Z" fill="white" stroke="black" stroke-width="0.0833333"/>
<path d="M30.1589 16.475C30.2422 16.0167 30.6005 15.7917 30.8922 16.225C31.2755 16.3083 31.6589 14.725 30.2922 14.9917C30.6755 12.9333 29.5255 12.1667 29.5255 12.1667C29.5255 12.1667 29.1172 14.45 29.3089 14.8667C29.4922 15.2833 29.0339 14.0917 27.5589 13.75C27.5339 15.475 29.2089 16.275 29.2089 16.275C29.2089 16.275 29.6755 16.7083 30.1589 16.475Z" fill="#0000FF" stroke="black" stroke-width="0.0833333"/>
<path d="M30.2924 14.975C30.2924 14.975 29.6507 15.525 29.7924 16.2667" stroke="black" stroke-width="0.0833333"/>
<path d="M29.3172 14.9083C29.3172 14.9083 29.1672 15.4333 29.4839 16.1917" stroke="black" stroke-width="0.0833333"/>
<path d="M29.2173 16.3667C29.2173 16.3667 29.5173 15.8833 30.159 16.5" stroke="black" stroke-width="0.0833333"/>
<path d="M29.3424 13.025C29.3424 13.0083 28.3674 13.025 28.9424 14.0167C28.5174 14.15 27.5507 13.5167 28.2174 12.6833C26.0257 12.625 25.134 11.575 25.134 10.6083C25.7757 11.275 27.3174 11.0083 27.859 11.4167C27.1924 10.8 27.3257 9.94167 27.3257 9.94167C27.3257 9.94167 29.1924 10.5 29.5257 12.1583C29.4174 12.4833 29.3674 13.05 29.3424 13.025Z" fill="white" stroke="black" stroke-width="0.0833333"/>
<path d="M27.834 11.375C28.2007 11.7417 29.1257 11.85 29.5923 12.2583" stroke="black" stroke-width="0.0833333"/>
<path d="M28.2673 12.4583C28.2673 12.4583 29.034 12.3583 29.259 12.625C28.959 12.625 28.859 12.55 28.4257 12.7083C28.5423 12.65 28.509 12.5417 28.5757 12.5417C28.6423 12.5417 28.3007 12.4583 28.2673 12.4583Z" fill="#CCCCCD" stroke="#CCCCCC" stroke-width="0.0583333"/>
<path d="M32.084 6.45834C32.084 6.45834 32.509 6.08334 32.9674 6.41667C32.759 7.03334 32.0174 6.80001 32.0174 6.80001C32.0174 6.80001 32.0424 7.10834 31.9674 7.25834C32.1174 7.37501 32.234 7.74167 32.234 7.74167C32.234 7.74167 33.0007 7.55834 33.1674 7.89167C33.459 7.85001 33.6674 7.89167 33.6674 7.89167C33.6674 7.89167 34.2674 7.74167 34.4757 7.74167C34.684 7.74167 35.3507 7.90834 35.4174 8.04167C35.4757 8.15834 35.7007 8.99167 35.8507 8.97501C36.0007 8.96667 35.4924 9.17501 35.3507 8.96667C35.2174 8.75834 35.259 9.24167 35.259 9.24167C35.259 9.24167 35.6757 9.68334 35.7257 9.78334C35.7757 9.88334 35.4674 10.6833 35.7007 11.2417C35.4924 11.2583 35.4757 11.475 35.4757 11.475C35.4674 11.725 35.159 11.7833 35.159 11.7833L35.0757 11.45L34.8757 11.575L34.959 11.3167C34.959 11.3167 35.2424 10.625 35.2674 10.4C35.2924 10.175 35.009 9.78334 34.784 9.78334C34.559 9.78334 34.4007 10.4917 34.4007 10.4917C34.4007 10.4917 34.2924 11.0167 34.3257 11.075L34.1757 10.9C34.1757 10.9 34.084 11.2167 34.009 11.3167C33.9257 11.4167 33.7674 11.45 33.7674 11.45C33.7674 11.45 33.659 11.1333 33.7007 11.0083C33.734 10.8833 34.3007 10.4 34.2507 10.0583C34.2007 9.70834 34.2507 9.79167 34.2424 9.78334C34.2257 9.76667 33.9424 9.52501 33.934 9.38334C33.9174 9.25001 33.559 9.55834 33.0924 9.46667C32.9507 9.71667 32.9257 10.3417 32.9257 10.3417C32.9257 10.3417 32.884 11.0917 32.9757 11.175C33.0757 11.2667 32.7257 11.45 32.7257 11.45L32.484 11.7833L32.4007 11.5917L32.2257 11.7167L32.3257 11.4667C32.3174 11.275 32.5673 10.7667 32.5673 10.3333C32.5673 9.90001 32.5924 9.43334 32.5924 9.43334C32.5924 9.43334 32.1423 9.40834 32.1507 9.88334C32.159 10.35 32.0423 10.3833 32.0673 10.5083C32.0923 10.65 32.209 11.0333 32.1757 11.1417C32.1424 11.2583 31.9924 11.2917 31.9924 11.2917L31.9507 11.35C31.9507 11.35 31.4924 11.5667 31.509 11.65L31.4924 11.4L31.4674 11.0417C31.4674 11.0417 31.7424 10.875 31.7424 10.4417C31.7424 10.0083 31.684 9.94167 31.6923 9.84167C31.7007 9.74167 31.7674 9.38334 31.7507 9.34167C31.7424 9.30834 31.5007 9.45001 31.4174 9.45001C31.3424 9.45001 31.559 9.19167 31.584 9.00001C31.609 8.81667 31.334 9.17501 31.109 8.96667C31.2173 8.74167 31.3674 8.66667 31.3924 8.50001C31.4174 8.32501 31.2257 8.64167 31.0507 8.51667C31.0674 8.35001 31.234 8.20834 31.234 8.20834C31.234 8.20834 31.0924 8.19167 31.034 8.20834C30.9257 8.17501 31.159 8.00001 31.1757 7.75001C31.184 7.50001 31.034 7.40834 31.034 7.39167C31.034 7.38334 30.784 7.17501 30.7507 7.08334C30.7174 7.00001 30.7174 6.90001 30.7174 6.90001C30.7174 6.90001 30.3007 7.20001 29.8257 6.56667C30.2674 6.19167 30.7424 6.46667 30.7424 6.46667C30.7424 6.46667 30.8674 6.11667 31.434 6.14167C32.0007 6.16667 32.1174 6.49167 32.0924 6.45834H32.084Z" fill="#923F00" stroke="black" stroke-width="0.0833333"/>
<path d="M35.2008 12.85C35.2091 12.85 36.2508 12.8833 36.2591 13.4417C36.2758 14 35.9424 13.8583 35.9258 13.8583L35.1758 13.7583L35.2008 12.85Z" fill="#0000FF" stroke="black" stroke-width="0.0833333"/>
<path d="M34.1924 12.7C34.1924 12.7 35.4924 12.6917 35.4174 13.2583C35.3424 13.825 35.0174 13.7083 35.0174 13.7083L34.3841 13.6583L34.1924 12.7Z" fill="#FFFEFF" stroke="black" stroke-width="0.0833333"/>
<path d="M33.459 12.6417L34.209 12.7C34.209 12.7 34.6674 12.7583 34.6424 13.2C34.6257 13.625 34.184 13.6333 34.184 13.6333L33.4507 13.5917L33.459 12.6417Z" fill="#0000FF" stroke="black" stroke-width="0.0833333"/>
<path d="M31.7007 12.85C31.684 12.85 30.6507 12.8833 30.634 13.4417C30.634 14 30.959 13.8583 30.9674 13.8583L31.7257 13.7583L31.7007 12.85Z" fill="white" stroke="black" stroke-width="0.0833333"/>
<path d="M32.7091 12.7C32.7091 12.7 31.4091 12.6917 31.4841 13.2583C31.5507 13.825 31.8841 13.7083 31.8841 13.7083L32.5091 13.6583L32.7091 12.7Z" fill="#0000FF" stroke="black" stroke-width="0.0833333"/>
<path d="M33.4424 12.6417L32.6924 12.7C32.6924 12.7 32.234 12.7583 32.2507 13.2C32.2757 13.625 32.7174 13.6333 32.7174 13.6333L33.4507 13.5917L33.4424 12.6417Z" fill="white" stroke="black" stroke-width="0.0833333"/>
<path d="M35.4507 18.8917C35.4507 18.8917 35.9924 18.1 36.2257 18.1833C36.4257 18.25 36.2673 18.8667 36.1757 18.925L35.4507 18.8917Z" fill="#5E0043" stroke="black" stroke-width="0.0833333"/>
<path d="M31.7505 19.0333C31.5755 18.8 31.3339 18.1417 31.1005 18.325C30.9005 18.3917 31.0505 19.0083 31.1505 19.0667L31.7505 19.0333Z" fill="#5E0043" stroke="black" stroke-width="0.0833333"/>
<path d="M32.1006 17.4583C32.1006 17.4583 33.1589 18.1083 33.5006 18.125C33.8506 18.1417 34.9423 17.2833 34.9423 17.2833" stroke="black" stroke-width="0.0833333"/>
<path d="M32.209 14.9167L32.409 14.6667L33.4173 15.1667L34.4507 14.7083L34.6507 14.925L33.5007 15.7333L32.209 14.9167Z" fill="#5E0043" stroke="black" stroke-width="0.0833333"/>
<path d="M31.4006 14.9C31.7935 15.3531 32.086 15.8842 32.259 16.4583C32.3756 17.1167 32.1923 15.55 32.1923 15.55C32.1923 15.55 33.0006 15.95 33.0256 16.2C33.0506 16.45 33.409 16.1833 33.4256 16.1417L31.0923 14.625L31.4006 14.9Z" fill="#474747" stroke="#474747" stroke-width="0.0833333" stroke-linejoin="round"/>
<path d="M35.4007 14.8583C35.4007 14.8583 34.5507 15.975 34.6507 17.1917C34.4757 16.6083 34.6174 15.65 34.6174 15.65L34.434 15.7667C34.434 15.7667 34.234 16.5917 33.9924 16.7167C33.9507 16.6167 33.959 16.5833 33.959 16.5833C33.959 16.5833 33.7007 16.9167 33.6507 16.95C33.6007 16.9833 33.6674 18.0917 33.6674 18.0917C33.6674 18.0917 33.7507 18.8917 33.8507 18.8833C33.7654 18.927 33.682 18.9743 33.6007 19.025L33.4924 16.8917L33.734 16.65C33.734 16.65 34.0507 16.2583 34.0757 15.8833C33.9424 16 33.784 16.0333 33.784 16.0333C33.784 16.0333 33.7424 16.575 33.6174 16.65C33.484 16.7333 33.484 16.8667 33.484 16.8667L33.4507 16.1583L35.4007 14.8583Z" fill="#474747" stroke="#474747" stroke-width="0.0833333" stroke-linejoin="round"/>
<path d="M33.4507 16.15L33.6174 19.525" stroke="black" stroke-width="0.0833333" stroke-linecap="round"/>
<path d="M31.3757 17.7667C31.3757 17.7667 31.7674 17.9917 31.9091 18.6833C33.1757 18.5917 33.5757 19.0333 33.5757 19.0333C33.5757 19.0333 34.6091 18.5333 35.0924 18.6333C35.2591 18.275 35.7424 17.825 35.7424 17.825" stroke="black" stroke-width="0.0833333"/>
<path d="M30.8506 14.4583L33.4506 16.1583L35.8006 14.5833C35.8006 14.5833 36.2839 14.3167 36.2423 14.125C36.2006 13.925 36.0339 14 35.9506 14.0417C35.8673 14.0667 33.4923 15.75 33.4923 15.75L30.9756 14.15C30.9756 14.15 30.7923 14.0917 30.7589 14.2167C30.7256 14.3333 30.8256 14.4 30.8506 14.4583Z" fill="#B4B6B9" stroke="black" stroke-width="0.0833333"/>
<path d="M35.5006 14.0167C35.5006 14.0167 34.834 13.7333 34.834 13.975C34.834 14.225 34.859 14.25 34.9673 14.4083C35.0756 14.5583 34.884 14.6583 34.884 14.6583L34.8173 14.4917C34.784 14.3833 34.4256 14.3083 34.4006 14.175C34.359 14.05 34.4673 13.85 34.259 13.825C34.0423 13.8 33.834 13.9083 33.7923 14.1583C33.7077 14.4394 33.599 14.7127 33.4673 14.975L33.509 13.675C33.9756 13.7083 34.8423 13.8083 35.5173 13.8917C35.3173 13.8583 35.6006 13.9 35.584 13.975C35.5673 14.025 35.5006 14.0333 35.5006 14.0167Z" fill="#474747" stroke="#474747" stroke-width="0.0833333" stroke-linejoin="round"/>
<path d="M33.1505 13.6917C32.8555 13.7027 32.5637 13.756 32.2839 13.85C32.1339 13.9333 32.5339 14.075 32.4755 14.1833C32.4255 14.3083 32.4172 14.55 32.2255 14.5C32.0422 14.45 31.4089 14.1333 31.3922 14.025C31.3672 13.925 31.2422 13.9167 31.2422 13.9167C31.2422 13.9167 33.0589 13.6667 33.1505 13.6917Z" fill="#474747" stroke="#474747" stroke-width="0.0833333" stroke-linejoin="round"/>
<path d="M33.4341 13.5417V15.1333" stroke="black" stroke-width="0.0833333"/>
<path d="M32.209 11.6583L31.459 12.875" stroke="black" stroke-width="0.0833333"/>
<path d="M33.5508 11.625C33.5508 11.625 33.8674 12.0583 33.8341 12.1833C33.9591 12.2833 34.1091 12.6833 34.1091 12.6833" fill="url(#paint3_linear_769_17843)"/>
<path d="M33.5508 11.625C33.5508 11.625 33.8674 12.0583 33.8341 12.1833C33.9591 12.2833 34.1091 12.6833 34.1091 12.6833" stroke="black" stroke-width="0.0833333"/>
<path d="M34.7756 11.5583C34.7756 11.5583 34.0923 12.525 34.1089 12.6" stroke="black" stroke-width="0.0833333"/>
<path d="M31.259 6.95C31.2423 7 31.159 7.02499 31.0673 6.99999C30.9757 6.96666 30.909 6.89999 30.9257 6.84999C30.9423 6.79166 31.034 6.76666 31.1257 6.79999C31.209 6.82499 31.2757 6.89166 31.259 6.95Z" fill="black"/>
<path d="M31.5424 6.93334C31.559 6.98334 31.6424 7.00834 31.734 6.975C31.8257 6.95 31.8924 6.88334 31.8757 6.825C31.859 6.775 31.7674 6.75 31.6757 6.78334C31.5924 6.80834 31.5257 6.875 31.5424 6.93334Z" fill="black"/>
<path d="M39.584 27C39.584 27 39.3173 27.0417 39.334 27.0667C39.334 27.0917 38.584 27.1167 38.5757 27.0917C38.559 27.0667 38.459 27.2167 38.459 27.2167L38.584 27.1417C38.584 27.1417 38.7673 27.3333 38.8173 27.3167C38.8756 27.3083 38.7923 27.4 38.8173 27.4083C38.8257 27.425 38.884 27.375 38.884 27.375L40.1173 27.3583L39.584 27Z" fill="#FF7000" stroke="black" stroke-width="0.0833333" stroke-linejoin="round"/>
<path d="M40.0339 27.375L39.0339 27.4083C39.0339 27.4083 38.7756 27.6417 38.7589 27.6917C38.7422 27.75 38.9256 27.7667 38.9256 27.7667L38.9756 27.9583L39.1089 27.9083C39.1089 27.9083 39.9672 28.0333 40.7506 27.8583C41.1506 27.725 41.2256 27.5583 40.9422 27.45C40.6672 27.35 40.0422 27.3833 40.0339 27.375Z" fill="#FF7000" stroke="black" stroke-width="0.0833333" stroke-linejoin="round"/>
<path d="M36.5841 29.45L38.3924 29.3667L38.0591 29.0833L42.9757 28.8833L42.8091 28.4917L37.3007 28.7167L37.9674 29.025L36.4674 29.0667L36.5174 29.225L36.1257 29.2083C36.1257 29.2083 36.5674 29.375 36.5757 29.4583L36.5841 29.45Z" fill="url(#paint4_linear_769_17843)" stroke="black" stroke-width="0.0833333"/>
<path d="M38.6174 19.4083C38.4757 19.3333 37.8341 19.2417 37.1257 19.7083L37.1591 21.3417C37.1591 21.3417 38.2007 20.7833 38.7007 20.9083C38.6757 20.4083 38.6757 19.7583 38.6174 19.4083Z" fill="url(#paint5_linear_769_17843)" stroke="black" stroke-width="0.0833333"/>
<path d="M28.559 24.3667L24.2756 28.6167" stroke="black" stroke-width="0.0650066"/>
<path d="M30.4755 24.3917L26.9922 28.975" stroke="black" stroke-width="0.0650066"/>
<path d="M30.3174 23.2L25.6758 28.825" stroke="black" stroke-width="0.0650066"/>
<path d="M25.5339 28.75L25.9839 28.2167" stroke="black" stroke-width="0.0650066"/>
<path d="M31.2006 26.025L29.4006 28.5083" stroke="black" stroke-width="0.0650066"/>
<path d="M29.3257 28.8333L29.3674 29.7833" stroke="black" stroke-width="0.0650066"/>
<path d="M32.0256 26.8917L30.1089 29.2917" stroke="black" stroke-width="0.0650066"/>
<path d="M31.6841 29.1L32.4591 27.825" stroke="black" stroke-width="0.0650066"/>
<path d="M31.9841 27.5833L31.0508 28.6333" stroke="black" stroke-width="0.0650066"/>
<path d="M31.7007 26.5833L31.0674 27.3583" stroke="black" stroke-width="0.0650066"/>
<path d="M30.8756 25.45C30.8756 25.45 28.9339 28.2917 28.9672 28.5333" stroke="black" stroke-width="0.0650066"/>
<path d="M30.6757 25.0833C30.6257 25.1083 29.0007 27.2667 29.0007 27.2667" stroke="black" stroke-width="0.0650066"/>
<path d="M28.9089 27.95L28.6089 28.3083" stroke="black" stroke-width="0.0650066"/>
<path d="M28.2339 28.85L27.7839 29.4417" stroke="black" stroke-width="0.0650066"/>
<path d="M28.3506 17.8167C28.3506 17.8167 28.2173 18.2333 28.3506 18.4417C28.484 18.65 29.309 20.3167 29.309 20.3167C29.309 20.3167 29.8756 19.625 30.084 19.6083C30.284 19.5833 30.1923 21.4083 30.1923 21.4083C30.1923 21.4083 29.859 21.725 29.6506 21.7083C29.4423 21.6917 30.1506 22.425 30.134 23.0417C30.1173 23.6667 29.2006 26.75 28.859 26.8C28.5256 26.8583 29.009 26.2417 28.9923 26.0667C28.9673 25.9 28.8756 26.0167 28.8006 25.825C28.7256 25.6417 28.9173 25.3583 28.884 25.1667C28.8423 24.9833 28.6673 25.0167 28.6506 24.8833C28.634 24.75 28.7673 24.7167 28.7423 24.5667C28.7256 24.4167 28.5173 24.45 28.5423 24.3167C28.559 24.1917 28.5756 24.25 28.559 24C28.5423 23.7583 28.5006 24.1667 28.2923 24.1917C28.084 24.2083 27.9173 24.6833 27.9173 24.6833C27.9173 24.6833 27.5006 25.2667 27.0923 25C27.3423 25.525 27.1506 25.75 27.0506 25.7667C26.9673 25.7917 27.134 26.1833 26.9006 26.2C26.6756 26.2167 27.0673 27.0833 26.8173 27.1583C27.0923 27.2917 26.8673 27.4583 26.8673 27.4583C26.8673 27.4583 26.2173 27.5167 26.359 28.3667C24.4423 27.6833 23.5006 26.525 23.5256 25.3333C23.5423 24.15 23.9173 23.0833 24.834 22.6917C25.1006 21.7083 25.5506 20.6583 25.5506 20.6583C25.5506 20.6583 25.4756 20.225 25.534 19.9417C25.5954 19.7338 25.7037 19.5428 25.8506 19.3833C25.8506 19.3833 25.8173 18.7 25.834 18.3667C25.8506 18.0333 25.984 17.875 26.0006 17.6917C26.0173 17.5 25.9423 16.5417 26.134 16.375C26.3173 16.2083 26.6756 16.225 26.8673 16.1083C27.0506 16 27.3006 15.7917 27.5423 15.8083C27.7923 15.825 27.9923 16 27.9923 16C27.9923 16 28.909 16 28.9673 16.35C29.0256 16.7083 28.784 16.85 28.784 16.85C28.784 16.85 28.9173 17.35 28.3506 17.8167Z" fill="#8A9396" stroke="#2B2B2B" stroke-width="0.0833333"/>
<path d="M27.5341 16.5167C27.5591 16.575 27.4924 16.6667 27.3841 16.725C27.2674 16.7833 27.1591 16.7917 27.1341 16.7417C27.1008 16.6833 27.1674 16.5917 27.2758 16.5333C27.3924 16.4667 27.5008 16.4667 27.5258 16.5167H27.5341Z" fill="#CECFCF" stroke="#2B2B2B" stroke-width="0.0833333"/>
<path d="M27.3756 16.6167C27.3756 16.65 27.3422 16.675 27.3089 16.675C27.2672 16.675 27.2339 16.65 27.2339 16.6167C27.2339 16.575 27.2672 16.55 27.3089 16.55C27.3422 16.55 27.3756 16.575 27.3756 16.6167Z" fill="black"/>
<path d="M28.7507 17.2333C28.7507 17.2333 28.9757 18.25 28.709 18.9583" stroke="#2B2B2B" stroke-width="0.0416667"/>
<path d="M28.8257 16.7917C28.8257 16.7917 29.2674 17.375 29.209 18.1083" stroke="#2B2B2B" stroke-width="0.0416667"/>
<path d="M28.8672 16.6667C28.8755 16.6667 29.2422 16.975 29.2255 17.1917" stroke="#2B2B2B" stroke-width="0.0416667"/>
<path d="M28.9507 16.5333C28.9507 16.5333 29.2007 16.7 29.2507 16.875" stroke="#2B2B2B" stroke-width="0.0416667"/>
<path d="M28.834 16.4333C28.834 16.4333 27.959 17.85 28.0757 18.7417" stroke="black" stroke-width="0.0833333"/>
<path d="M28.8923 16.3833C28.8923 16.3833 27.7257 17.075 27.5173 19.3333" stroke="#2B2B2B" stroke-width="0.0416667"/>
<path d="M28.7674 16.8L28.3008 17.15" stroke="black" stroke-width="0.0833333"/>
<path d="M27.084 19.4583C27.084 19.4583 27.734 16.775 28.8757 16.3833" stroke="#2B2B2B" stroke-width="0.0416667"/>
<path d="M29.3256 20.3667C29.3256 20.3667 29.9423 19.5917 30.0839 19.6167C30.2256 19.65 30.1839 21.4167 30.1839 21.4167C30.1839 21.4167 29.7256 21.7583 29.6256 21.75C29.5256 21.7333 30.1423 22.5833 30.1256 22.8917C30.1173 23.2083 30.1006 23.2083 30.1006 23.2083C30.1006 23.2083 30.1006 23.025 29.9589 22.725C29.8089 22.4167 29.9006 22.075 28.9589 21.3083C28.7339 20.8417 29.4256 21.6 29.5673 21.4833C29.7089 21.375 29.3173 20.3833 29.3173 20.3667H29.3256Z" fill="#2B2B2B" stroke="#2B2B2B" stroke-width="0.0833333"/>
<path d="M28.2258 16C28.2258 16 27.9674 16.0667 27.9341 16.1667C27.8924 16.2833 27.7424 16.3833 27.6591 16.35C27.5758 16.3167 27.4258 16.1833 27.4258 16.1833" stroke="#2B2B2B" stroke-width="0.0833333"/>
<path d="M26.7507 16.9083C26.7507 16.9083 26.3591 17.2917 26.5507 17.3417C26.7424 17.3917 26.9424 17.0333 26.9424 17.0333C26.9424 17.0333 26.9424 17.6417 27.1091 17.5417C27.2757 17.45 27.7507 17.1083 27.7507 17.1083C27.7507 17.1083 27.9174 17.0917 27.9591 17.1083C27.9924 17.1167 28.4007 17.475 28.6757 17.3417C28.5174 17.7417 28.3424 17.7917 28.3424 17.7917C28.3424 17.7917 28.0591 18.1583 27.6924 18.075C27.3257 17.9917 27.2341 17.8417 27.2341 17.8417C27.2341 17.8417 26.9257 17.8583 26.8341 17.7167L26.7007 17.5C26.7007 17.5 26.5341 17.6667 26.4758 17.5833C26.4341 17.5 26.4757 17.025 26.7507 16.9083Z" fill="#2B2B2B" stroke="#2B2B2B" stroke-width="0.0833333" stroke-linejoin="round"/>
<path d="M28.9589 16.3667C28.9589 16.3667 28.2423 16.15 27.9923 16.5083C27.7423 16.8583 27.8006 17.0583 27.9339 17.0917" stroke="#2B2B2B" stroke-width="0.0833333"/>
<path d="M29.0674 16.3417C29.0674 16.425 29.0091 16.5 28.9341 16.5C28.8508 16.5 28.8008 16.425 28.8008 16.3417C28.8008 16.2583 28.8591 16.1917 28.9341 16.1917C29.0091 16.1917 29.0674 16.2583 29.0674 16.3417Z" fill="black"/>
<path d="M26.9756 18.1833C26.9756 18.1833 27.2673 18.6333 27.6173 18.7583C27.9673 18.8833 27.3673 18.9833 27.0256 18.7583C26.7756 18.4083 26.8423 18.1583 26.8423 18.1583C26.8423 18.1583 26.909 18.0917 26.9756 18.1833Z" fill="#2B2B2B" stroke="#2B2B2B" stroke-width="0.0833333"/>
<path d="M29.4839 20.8417C29.4839 20.8417 28.6589 19.7 28.4256 19.6333C28.1839 19.575 28.6089 19.525 28.8589 19.7667C29.1089 20.0167 28.7923 19.375 28.7923 19.375L29.4839 20.8417Z" fill="#2B2B2B" stroke="#2B2B2B" stroke-width="0.0833333"/>
<path d="M26.8923 27.4667C27.209 27.3833 28.5923 28.2583 28.8923 28.475C29.209 28.7 29.859 28.5583 29.859 28.5583C29.859 28.5583 29.559 28.7417 29.3756 28.7833C29.184 28.825 29.9256 28.825 29.9256 28.825C29.9256 28.825 28.1673 29.3167 26.3756 28.375C26.209 27.6417 26.759 27.475 26.8923 27.4667Z" fill="#2B2B2B" stroke="#2B2B2B" stroke-width="0.0833333" stroke-linejoin="round"/>
<path d="M28.9172 21.125C28.9172 21.125 28.6756 21.0833 28.5589 20.95C28.4422 20.8083 28.2756 20.475 28.1006 20.3333C27.9256 20.2 27.0506 19.7167 26.7339 19.75C26.4172 19.7833 26.3172 19.7167 26.2756 19.675C26.2422 19.6333 26.1089 19.6917 26.1339 19.8583C26.1589 20.025 25.8839 20.3833 25.9839 20.55C26.166 20.8663 26.3811 21.1624 26.6256 21.4333C26.7089 21.4583 26.6589 21.8333 26.6589 21.8333C26.6589 21.8333 27.0589 22.2417 27.1589 22.2583C27.2589 22.2833 27.3672 22.3583 27.3506 22.4583C27.3422 22.55 26.9089 23.075 26.9089 23.075C26.9089 23.075 26.4506 23.325 26.4422 23.45C26.4422 23.5917 26.5589 23.8667 26.9256 23.9583C27.3918 24.0331 27.8685 24.0104 28.3256 23.8917C28.3756 23.8083 28.4589 23.3083 28.4256 23.25C28.3922 23.2 28.1506 23.05 28.0256 23.0667C27.9006 23.0917 27.7839 23.1917 27.8006 23.2167C27.8089 23.2417 27.6256 23.3333 27.6256 23.2417C27.6256 23.1583 27.9922 22.7417 28.0256 22.7833C28.0589 22.8167 28.5756 22.8667 28.6756 23.125C28.7672 23.3833 28.7672 23.575 29.0422 23.5417C29.3089 23.5167 29.6922 23.2667 29.7256 22.75C29.7384 22.577 29.7096 22.4035 29.6414 22.2439C29.5733 22.0844 29.4678 21.9436 29.3339 21.8333C29.2506 21.775 28.9672 21.6083 28.9422 21.525C28.9256 21.4417 28.8589 21.1917 28.9089 21.125H28.9172Z" fill="#2B2B2B" stroke="#2B2B2B" stroke-width="0.0833333"/>
<path d="M24.0256 23.4167C24.0256 23.4167 24.9006 23.1917 25.1256 23.2C25.3506 23.2 26.2089 23.6 26.4589 23.8417C26.7089 24.0917 27.2089 24.6583 27.5423 24.6083C27.8756 24.5583 27.9756 24.4917 27.9756 24.4917L27.8423 24.7417C27.8423 24.7417 27.5756 24.8167 27.4339 24.7833C27.3006 24.75 27.0339 24.6583 26.7673 24.4C26.5089 24.15 25.6839 23.4417 24.9923 23.4917C24.3006 23.5417 23.9006 24.225 23.9006 24.225C23.9006 24.225 23.9006 23.8917 23.9339 23.8167C23.9589 23.75 23.7839 23.9833 23.7839 23.9833L24.0256 23.4167Z" fill="#2B2B2B" stroke="#2B2B2B" stroke-width="0.0833333"/>
<path d="M27.2505 24.1C27.2505 24.1 27.4672 24.1583 27.8338 24.1583C28.1922 24.1583 28.3838 24 28.3838 24L28.3588 23.8583L28.4172 23.6667C28.4172 23.6667 28.6922 23.9417 28.6922 24C28.6922 24.0583 28.5755 24.0833 28.5755 24.0833L28.5338 23.9417L28.4422 24.0667C28.4422 24.0667 27.9172 24.4833 27.6255 24.4167C27.3422 24.3583 27.0755 24.1667 27.1505 24.125C27.2255 24.0833 27.2588 24.1 27.2505 24.1Z" fill="#2B2B2B" stroke="#2B2B2B" stroke-width="0.0833333"/>
<path d="M25.9756 24.8333C25.9756 24.8333 25.659 24.8333 25.5173 24.9C25.3756 24.9667 25.3256 25.05 25.2256 25.0417C25.134 25.025 25.059 24.9083 25.084 24.8583C25.1256 24.775 25.3173 24.675 25.6673 24.7C26.0256 24.7333 25.9756 24.8333 25.9756 24.8333Z" fill="#2B2B2B" stroke="#2B2B2B" stroke-width="0.0833333"/>
<path d="M27.0839 25.6917C27.0839 25.675 27.0589 25.2333 26.8839 25.05C26.8229 24.9855 26.7468 24.9372 26.6624 24.9095C26.578 24.8819 26.488 24.8757 26.4006 24.8917C26.3006 24.9167 26.7506 25.1167 26.8006 25.2417C26.8423 25.375 26.9923 25.7417 26.9506 25.825C26.9089 25.9083 26.8423 25.575 26.5589 25.475C26.2839 25.375 25.9006 25.4333 25.9756 25.5583C26.0589 25.675 26.3673 25.5583 26.5256 25.8333C26.6282 26.0082 26.72 26.189 26.8006 26.375L26.8589 26.1833L26.9923 26.15L27.0173 25.7833L27.0839 25.6917Z" fill="#2B2B2B" stroke="#2B2B2B" stroke-width="0.0833333"/>
<path d="M26.859 27.1417L26.5673 26.5583C26.5673 26.5583 26.484 26.2 26.234 26.1C25.984 25.9917 25.6673 26.0167 25.6673 26.1333C25.659 26.2583 26.184 26.4167 26.2173 26.4833C26.2507 26.55 26.234 26.6667 26.1923 26.675C26.1423 26.675 25.909 26.5917 25.7923 26.6167C25.6757 26.6417 25.609 26.8 25.434 26.75C25.259 26.7083 25.109 26.15 25.184 26.0833C25.2423 26.0333 25.0507 26.1917 25.009 26.0417C24.9673 25.9 25.0673 25.4417 25.0007 25.3833C24.934 25.325 24.6007 25.1333 24.6007 25.0917C24.5923 25.05 24.6173 22.8417 26.459 24.675C25.6673 23.7333 25.359 23.8417 25.209 23.8333C25.109 23.8333 24.384 23.8917 24.209 24.8083C24.0257 25.725 23.809 25.15 23.809 25.15C23.809 25.15 23.7757 25.55 23.9673 25.6583C24.159 25.775 23.8757 26.1 23.8757 26.1C23.8757 26.1 23.5257 25.2667 23.584 24.8917C23.509 25.1833 23.5173 25.9167 23.9507 26.7083C24.5701 27.4103 25.3468 27.9557 26.2173 28.3C26.884 27.275 26.859 27.15 26.859 27.1333V27.1417Z" fill="#2B2B2B" stroke="#2B2B2B" stroke-width="0.0833333" stroke-linejoin="round"/>
<path d="M25.6506 27.15C25.6506 27.15 26.0173 27.1917 26.1173 27.3833C26.2256 27.575 26.2673 27.8667 26.2673 27.8667C26.334 27.7417 26.3506 27.6417 26.484 27.55C26.609 27.4583 26.7006 27.4417 26.6923 27.3833C26.6923 27.3083 26.2923 26.9 26.1006 26.875C25.9006 26.85 25.559 27.0917 25.559 27.0917C25.559 27.0917 25.4923 27.175 25.6423 27.15H25.6506Z" fill="#8A9396" stroke="#2B2B2B" stroke-width="0.0833333" stroke-linejoin="round"/>
<path d="M26.5007 28.1167C26.5007 28.1167 27.4674 28.5583 29.0507 28.5833" stroke="#8A9396" stroke-width="0.0812583" stroke-linecap="round"/>
<path d="M29.7257 23.6333C29.7257 23.6333 29.6423 24.4417 29.0173 26.05" stroke="#2B2B2B" stroke-width="0.0812583" stroke-linecap="round"/>
<path d="M29.6007 24.1333C29.6007 24.1333 29.409 24.7167 28.8923 25.15" stroke="#2B2B2B" stroke-width="0.0833333"/>
<path d="M26.7756 34.1917L26.9423 34.0083L26.9923 34.05L26.984 34.0667L26.9673 34.0917V34.1083L26.984 34.125L27.2006 34.3167L27.2173 34.3333H27.234L27.2423 34.3167C27.2645 34.2944 27.2784 34.2722 27.284 34.25C27.2951 34.2278 27.2979 34.2056 27.2923 34.1833C27.2923 34.1556 27.2812 34.1278 27.259 34.1L27.3256 34.0667L27.4256 34.2333L27.159 34.5333L27.109 34.4917L27.1256 34.4667L27.134 34.45V34.4333L27.1173 34.4167L26.9006 34.225L26.8756 34.2083H26.8673L26.8423 34.225L26.8256 34.2417L26.7756 34.1917Z" fill="black"/>
<path d="M27.1423 33.7833L27.4507 33.4833L27.6007 33.5583L27.5757 33.6167L27.4923 33.6L27.4423 33.6167C27.4257 33.6222 27.409 33.6361 27.3923 33.6583L27.334 33.7083L27.4173 33.8L27.4423 33.7833C27.459 33.7722 27.4673 33.7611 27.4673 33.75V33.7333L27.4507 33.7083L27.434 33.6917L27.484 33.6417L27.634 33.8L27.584 33.8417L27.5673 33.8333L27.5423 33.8083H27.5257L27.4923 33.8333L27.4757 33.85L27.559 33.9333L27.5757 33.95H27.584L27.6007 33.9333L27.634 33.9083L27.684 33.8417C27.6951 33.8195 27.6979 33.7917 27.6923 33.7583C27.6923 33.7361 27.684 33.7111 27.6673 33.6833L27.734 33.65L27.8173 33.8417L27.5007 34.15L27.4507 34.1H27.4673L27.484 34.0667V34.05L27.4673 34.025L27.2673 33.825L27.2423 33.8083H27.2257L27.209 33.8167L27.1923 33.8333L27.1423 33.7833Z" fill="black"/>
<path d="M27.7839 33.1667C27.8506 33.1111 27.9173 33.0861 27.9839 33.0917C28.0562 33.0972 28.1173 33.1306 28.1673 33.1917C28.2006 33.2306 28.2228 33.2722 28.2339 33.3167C28.245 33.3667 28.2423 33.4111 28.2256 33.45C28.2089 33.4944 28.1784 33.5361 28.1339 33.575C28.0784 33.625 28.0173 33.65 27.9506 33.65C27.8728 33.65 27.8062 33.6167 27.7506 33.55C27.695 33.4944 27.6728 33.4306 27.6839 33.3583C27.6895 33.2861 27.7228 33.2222 27.7839 33.1667ZM27.8423 33.225C27.8145 33.2528 27.8006 33.2861 27.8006 33.325C27.8006 33.3694 27.82 33.4139 27.8589 33.4583C27.8978 33.5028 27.9395 33.5306 27.9839 33.5417C28.0173 33.5417 28.0478 33.5306 28.0756 33.5083C28.1089 33.4861 28.1256 33.4583 28.1256 33.425C28.1256 33.375 28.1034 33.3278 28.0589 33.2833C28.0367 33.2556 28.0089 33.2333 27.9756 33.2167C27.9534 33.2056 27.9284 33.2 27.9006 33.2C27.8784 33.2 27.8589 33.2083 27.8423 33.225Z" fill="black"/>
<path d="M28.3506 32.7083L28.3923 32.6833L28.4006 32.6917L28.6423 32.525V32.5083L28.6756 32.4833L28.8339 32.5917L28.7923 32.65L28.7339 32.625C28.7117 32.6139 28.6895 32.6111 28.6673 32.6167L28.6339 32.625L28.6256 32.6333V32.65L28.8006 32.9L28.8173 32.925H28.8423L28.8839 32.9L28.9173 32.9583L28.7173 33.1083L28.6756 33.05L28.6839 33.0417L28.7089 33.0167V33L28.7006 32.975L28.5256 32.725L28.5089 32.7083L28.5006 32.7167C28.4895 32.7222 28.4811 32.7333 28.4756 32.75C28.4645 32.7667 28.4589 32.7861 28.4589 32.8083L28.4673 32.875L28.4006 32.8917L28.3506 32.7083Z" fill="black"/>
<path d="M28.8174 32.4167L29.1841 32.1833L29.3257 32.2917L29.2757 32.35L29.2091 32.3167H29.1507C29.134 32.3167 29.1146 32.325 29.0924 32.3417L29.0257 32.3833L29.0924 32.4917L29.109 32.475L29.1424 32.4583V32.4333L29.1341 32.4L29.1257 32.3833L29.1841 32.35L29.2924 32.5417L29.234 32.575L29.2257 32.55L29.2007 32.525H29.1841L29.1507 32.5417L29.1257 32.55L29.1924 32.6583L29.2007 32.675H29.2091L29.234 32.6667L29.2674 32.6417L29.3341 32.5917L29.359 32.5167V32.4333L29.4257 32.4167L29.4674 32.6167L29.0841 32.85L29.0507 32.7917L29.0591 32.7833L29.0841 32.7583C29.0896 32.7583 29.0896 32.7528 29.0841 32.7417V32.7167L28.9341 32.475L28.909 32.45H28.9007L28.8757 32.4583L28.859 32.4667L28.8174 32.4083V32.4167Z" fill="black"/>
<path d="M29.334 32.1L29.6257 31.95L29.684 31.925C29.7062 31.9139 29.7312 31.9111 29.759 31.9167C29.7812 31.9167 29.8007 31.9222 29.8173 31.9333L29.859 31.9833C29.8812 32.0222 29.884 32.0583 29.8673 32.0917C29.8562 32.125 29.834 32.1528 29.8007 32.175L29.9507 32.2417H29.959L29.984 32.25H30.009L30.0256 32.2417L30.0507 32.2333L30.0757 32.2917L29.934 32.375L29.684 32.25L29.6423 32.2667L29.6923 32.3583L29.709 32.3917H29.7507L29.7673 32.375L29.8007 32.4417L29.5757 32.5583L29.5423 32.4917L29.5673 32.4833L29.584 32.4667L29.5923 32.45L29.584 32.425L29.4507 32.1667L29.434 32.15C29.434 32.1444 29.4284 32.1444 29.4173 32.15H29.3923L29.3757 32.1583L29.3423 32.1H29.334ZM29.5507 32.0833L29.609 32.2L29.6757 32.1667C29.7034 32.1556 29.7229 32.1417 29.734 32.125L29.7507 32.0917V32.05L29.7173 32.025H29.684L29.6257 32.0417L29.5423 32.0833H29.5507Z" fill="black"/>
<path d="M29.9172 31.8L30.2172 31.6667L30.2756 31.65H30.3506C30.3728 31.65 30.3922 31.6556 30.4089 31.6667L30.4506 31.725C30.4672 31.7583 30.4672 31.7917 30.4506 31.825C30.4339 31.8583 30.4089 31.8861 30.3756 31.9083L30.5256 31.9833L30.5589 31.9917H30.6006L30.6172 31.975L30.6506 32.0417L30.5006 32.1083L30.2506 31.975L30.2172 31.9917L30.2589 32.0833L30.2756 32.1167H30.3089L30.3339 32.1083L30.3589 32.1667L30.1339 32.275L30.1006 32.2083L30.1256 32.2L30.1422 32.1833L30.1506 32.1667L30.1422 32.1417L30.0256 31.875C30.0256 31.8639 30.02 31.8556 30.0089 31.85H29.9672L29.9506 31.8667L29.9256 31.8H29.9172ZM30.1339 31.8L30.1839 31.925L30.2589 31.8917L30.3172 31.8583C30.3283 31.8472 30.3339 31.8333 30.3339 31.8167V31.7833L30.3089 31.75H30.2672L30.2089 31.7667L30.1256 31.8H30.1339Z" fill="black"/>
<path d="M30.7006 31.475L30.809 31.4333L31.0923 31.7583L31.1256 31.7833H31.1673L31.184 31.85L30.959 31.9333L30.934 31.8667L30.9506 31.8583C30.9617 31.8583 30.9701 31.8528 30.9756 31.8417V31.825L30.959 31.8083L30.9256 31.7667L30.784 31.8167V31.9L30.809 31.9083L30.8423 31.9L30.8673 31.9667L30.6756 32.0333L30.6506 31.9667C30.6617 31.9667 30.6701 31.9611 30.6756 31.95L30.684 31.9417V31.9083L30.7006 31.475ZM30.784 31.7417L30.8756 31.7083L30.784 31.5917V31.7417Z" fill="black"/>
<path d="M31.1006 31.3333L31.3256 31.2667L31.5006 31.5417V31.2083L31.7339 31.15L31.7506 31.2167L31.7256 31.225C31.7145 31.225 31.7061 31.2305 31.7006 31.2417V31.275L31.7839 31.5583L31.7923 31.575L31.8089 31.5833H31.8589L31.8756 31.6417L31.6339 31.7167L31.6173 31.6417H31.6339C31.6506 31.6417 31.6589 31.6361 31.6589 31.625L31.6673 31.6167V31.5917L31.5839 31.2833L31.5756 31.7333L31.5089 31.75L31.2756 31.3833L31.3589 31.6917L31.3673 31.7L31.3839 31.7083H31.4089L31.4339 31.7L31.4506 31.7667L31.2506 31.825L31.2256 31.7583H31.2506L31.2756 31.7417V31.7L31.1923 31.425V31.4L31.1756 31.3917H31.1256L31.1006 31.3333Z" fill="black"/>
<path d="M32.134 31.0583L32.4007 31.0083H32.484C32.5118 31.0083 32.534 31.0139 32.5507 31.025C32.5729 31.0361 32.5896 31.05 32.6007 31.0667L32.6257 31.125C32.6313 31.1694 32.6201 31.2083 32.5924 31.2417C32.5646 31.2806 32.5229 31.3056 32.4674 31.3167L32.384 31.3333L32.4007 31.425V31.45H32.4674L32.4757 31.5167L32.2257 31.5667V31.5H32.234L32.2674 31.4833V31.4417L32.2174 31.1667V31.1333L32.2007 31.125H32.1507L32.134 31.0583ZM32.334 31.1083L32.3674 31.25H32.409L32.4674 31.225L32.4924 31.1917V31.15C32.4924 31.1278 32.4813 31.1111 32.459 31.1C32.4424 31.0944 32.4201 31.0944 32.3924 31.1H32.334V31.1083Z" fill="black"/>
<path d="M32.6841 30.9583L33.0007 30.9167H33.0674L33.1341 30.9333C33.1563 30.9445 33.173 30.9583 33.1841 30.975C33.2007 30.9917 33.2091 31.0111 33.2091 31.0333C33.2146 31.0722 33.2063 31.1056 33.1841 31.1333C33.1563 31.1611 33.1257 31.1833 33.0924 31.2L33.2091 31.3083L33.2341 31.325L33.2507 31.3333H33.3007V31.4L33.1424 31.425L32.9507 31.225H32.9091L32.9257 31.325V31.3583L32.9424 31.375H32.9924V31.4417L32.7424 31.475V31.4H32.7591L32.7841 31.3917L32.8007 31.375V31.35L32.7591 31.0583V31.0333H32.6924L32.6841 30.9583ZM32.8841 31.0167L32.9007 31.15H32.9841L33.0424 31.125L33.0757 31.1V31.0583L33.0674 31.025L33.0341 31.0083H32.9674L32.8841 31.0167Z" fill="black"/>
<path d="M33.6173 30.8583C33.695 30.8528 33.7617 30.8722 33.8173 30.9167C33.8728 30.9667 33.9006 31.0306 33.9006 31.1083C33.9006 31.1639 33.8923 31.2111 33.8756 31.25C33.8534 31.2889 33.8256 31.3222 33.7923 31.35C33.7478 31.3722 33.6978 31.3861 33.6423 31.3917C33.5645 31.3917 33.5006 31.375 33.4506 31.3417C33.3895 31.2917 33.3561 31.225 33.3506 31.1417C33.3506 31.0639 33.3728 30.9972 33.4173 30.9417C33.4673 30.8861 33.5339 30.8583 33.6173 30.8583ZM33.6173 30.9417C33.5784 30.9417 33.5506 30.9583 33.5339 30.9917C33.5006 31.025 33.4867 31.0722 33.4923 31.1333C33.4923 31.1889 33.5089 31.2333 33.5423 31.2667C33.5645 31.2944 33.595 31.3083 33.6339 31.3083C33.6728 31.3083 33.7034 31.2917 33.7256 31.2583C33.7534 31.225 33.7645 31.1778 33.7589 31.1167C33.7589 31.0778 33.7506 31.0444 33.7339 31.0167C33.7228 30.9889 33.7061 30.9694 33.6839 30.9583C33.6617 30.9417 33.6395 30.9361 33.6173 30.9417Z" fill="black"/>
<path d="M34.0007 30.85H34.2841L34.3674 30.8583L34.4257 30.8917L34.4591 30.9417L34.4757 31.0083C34.4757 31.0528 34.4591 31.0889 34.4257 31.1167C34.3924 31.1445 34.3452 31.1583 34.2841 31.1583H34.2007V31.2833L34.2341 31.2917H34.2591V31.3667H34.0091V31.2917H34.0507L34.0591 31.2833V31.25L34.0674 30.9667V30.9333L34.0591 30.925H34.0091V30.8417L34.0007 30.85ZM34.1924 30.9333V31.0833H34.2424L34.3007 31.075L34.3257 31.05C34.3368 31.0389 34.3424 31.025 34.3424 31.0083C34.3424 30.9806 34.3341 30.9611 34.3174 30.95C34.3007 30.9389 34.2785 30.9333 34.2507 30.9333H34.1924Z" fill="black"/>
<path d="M34.5673 30.85L34.8839 30.875L34.9506 30.8833L35.0173 30.9167C35.0339 30.9278 35.0478 30.9445 35.0589 30.9667L35.0673 31.0333C35.0673 31.0722 35.0506 31.1 35.0173 31.1167C34.9895 31.1445 34.9562 31.1611 34.9173 31.1667L35.0173 31.2917V31.3L35.0339 31.325H35.0506L35.0756 31.3333H35.1006V31.4083L34.9339 31.4L34.7756 31.1667H34.7339V31.3H34.7839V31.3833L34.5339 31.3583V31.2917H34.5839L34.6006 31.275V31.25L34.6173 30.9583V30.9333L34.5923 30.9167H34.5589V30.8417L34.5673 30.85ZM34.7506 30.95L34.7423 31.0833H34.8173C34.845 31.0889 34.8673 31.0889 34.8839 31.0833C34.9006 31.0833 34.9117 31.0778 34.9173 31.0667C34.9284 31.0556 34.9339 31.0417 34.9339 31.025V30.9917L34.9006 30.9667L34.8339 30.9583H34.7506V30.95Z" fill="black"/>
<path d="M35.2007 30.9L35.4507 30.9333V31.0083H35.4257C35.409 31.0028 35.3979 31.0028 35.3923 31.0083L35.3757 31.0417L35.3423 31.325V31.3583H35.3507L35.3757 31.375H35.4007L35.3923 31.45L35.1423 31.4167L35.1507 31.3417H35.1673C35.184 31.3472 35.1951 31.3472 35.2007 31.3417H35.209L35.2173 31.3167L35.2507 31.025V30.9833H35.2173L35.1923 30.975L35.2007 30.9Z" fill="black"/>
<path d="M35.7424 30.975L35.859 31L35.9424 31.4167C35.9424 31.4389 35.9479 31.4528 35.9591 31.4583L35.9924 31.475L35.9757 31.5417L35.734 31.5L35.7507 31.4333H35.7924L35.8007 31.425V31.3417L35.6341 31.3167L35.609 31.3667V31.3833C35.6035 31.3889 35.6035 31.3944 35.609 31.4H35.6174L35.6507 31.4167L35.6424 31.4833L35.4424 31.45L35.4507 31.3833H35.484L35.5007 31.375L35.5174 31.35L35.7424 30.975ZM35.6757 31.25L35.784 31.2667L35.7591 31.1167L35.6757 31.25Z" fill="black"/>
<path d="M36.1672 31.05L36.3922 31.1083L36.4089 31.4417L36.5756 31.1583L36.8006 31.2167L36.7839 31.2833H36.7589C36.7478 31.2722 36.7395 31.2722 36.7339 31.2833C36.7228 31.2833 36.7172 31.2917 36.7172 31.3083L36.6422 31.5917V31.625L36.6672 31.6333L36.6922 31.6417L36.6756 31.7167L36.4339 31.65L36.4506 31.5833H36.4756L36.5006 31.5917H36.5172V31.5583L36.6006 31.25L36.3756 31.6417L36.3089 31.6167L36.2839 31.1917L36.2089 31.4917V31.5083L36.2172 31.525H36.2422L36.2672 31.5333L36.2506 31.6083L36.0422 31.5583L36.0589 31.4833H36.0839L36.1089 31.4917H36.1172L36.1339 31.4583L36.2006 31.175V31.1417L36.1756 31.1333L36.1506 31.125L36.1672 31.05Z" fill="black"/>
<path d="M37.209 31.3417L37.459 31.4333L37.5423 31.475L37.584 31.525L37.6006 31.5833L37.5923 31.65C37.5756 31.6889 37.5479 31.7167 37.509 31.7333C37.4645 31.75 37.4145 31.75 37.359 31.7333L37.2756 31.7L37.2423 31.7833V31.825L37.2673 31.8417H37.2923L37.2673 31.9167L37.0256 31.8333L37.0506 31.7583H37.0673L37.1006 31.775H37.109L37.1256 31.7417L37.2256 31.475V31.4333L37.2006 31.4167H37.184L37.209 31.3417ZM37.3506 31.4833L37.3006 31.625L37.3423 31.6417L37.4006 31.65L37.4423 31.6417L37.4673 31.6C37.4729 31.5778 37.4701 31.5583 37.459 31.5417C37.4479 31.525 37.4312 31.5139 37.409 31.5083L37.3506 31.4833Z" fill="black"/>
<path d="M37.734 31.5333L38.0256 31.6667L38.084 31.7C38.1062 31.7111 38.1229 31.7278 38.134 31.75L38.159 31.8083L38.1423 31.875C38.1256 31.9139 38.1006 31.9389 38.0673 31.95H37.959L38.0006 32.1083L38.0173 32.1333L38.0256 32.15L38.0506 32.1667H38.0673L38.0423 32.2417L37.8923 32.175L37.8256 31.9L37.784 31.8833L37.7423 31.975V32.025L37.759 32.0333L37.784 32.05L37.7506 32.1083L37.5256 32.0083L37.5506 31.9417L37.5756 31.95L37.6006 31.9583H37.6173L37.6256 31.9333L37.7423 31.6667L37.7506 31.6417V31.625L37.734 31.6167H37.7173L37.7006 31.6083L37.734 31.5333ZM37.8756 31.6917L37.8173 31.8167L37.8923 31.8417C37.9145 31.8583 37.934 31.8667 37.9506 31.8667L37.9923 31.8583C38.0034 31.8528 38.0117 31.8417 38.0173 31.825C38.0229 31.8139 38.0229 31.8028 38.0173 31.7917L38.009 31.7583L37.9506 31.725L37.8673 31.6917H37.8756Z" fill="black"/>
<path d="M38.584 31.9333C38.6562 31.9722 38.7034 32.025 38.7256 32.0917C38.7479 32.1583 38.7395 32.2278 38.7006 32.3C38.6784 32.3444 38.6479 32.3778 38.609 32.4C38.5701 32.4278 38.5256 32.4417 38.4756 32.4417C38.4312 32.4417 38.384 32.4278 38.334 32.4C38.2673 32.3667 38.2201 32.3194 38.1923 32.2583C38.1645 32.1861 38.1729 32.1139 38.2173 32.0417C38.2506 31.9694 38.3034 31.9222 38.3756 31.9C38.4423 31.8833 38.5117 31.8944 38.584 31.9333ZM38.5506 32.0083C38.5173 31.9861 38.4812 31.9833 38.4423 32C38.4034 32.0167 38.3701 32.0528 38.3423 32.1083C38.3145 32.1583 38.3034 32.2056 38.309 32.25C38.3145 32.2833 38.3367 32.3111 38.3756 32.3333C38.409 32.35 38.4423 32.35 38.4756 32.3333C38.5145 32.3167 38.5479 32.2833 38.5756 32.2333C38.5979 32.1944 38.609 32.1611 38.609 32.1333C38.609 32.1 38.6034 32.0722 38.5923 32.05L38.5506 32.0083Z" fill="black"/>
<path d="M38.9674 32.1333L39.0091 32.1583V32.175L39.2591 32.3333L39.2674 32.325L39.3091 32.35L39.2674 32.5333L39.2007 32.5167V32.45C39.2007 32.4278 39.1952 32.4083 39.1841 32.3917L39.1591 32.3583H39.1424L39.1341 32.375L38.9757 32.625L38.9591 32.6583V32.6667L38.9674 32.675L39.0007 32.7L38.9674 32.7583L38.7507 32.625L38.7924 32.5667L38.8007 32.575L38.8341 32.5917H38.8424L38.8674 32.5583L39.0341 32.3083V32.2833H39.0257C39.0146 32.2722 38.998 32.2667 38.9757 32.2667L38.9257 32.275L38.8674 32.3083L38.8174 32.2583L38.9674 32.1333Z" fill="black"/>
<path d="M39.434 32.45L39.784 32.7L39.734 32.8667L39.6674 32.85V32.7667L39.6507 32.7167C39.6396 32.7 39.6229 32.6861 39.6007 32.675L39.5424 32.625L39.459 32.7333L39.484 32.75L39.5174 32.7667H39.5424L39.559 32.7333L39.5757 32.7167L39.6257 32.7583L39.5007 32.9333L39.4507 32.9L39.459 32.8833L39.4757 32.85V32.8333L39.4424 32.8L39.4174 32.7917L39.3507 32.8833L39.3424 32.9083L39.359 32.9333L39.3924 32.9583L39.4757 32.9917C39.4979 32.9972 39.5201 32.9972 39.5424 32.9917C39.5701 32.9861 39.5979 32.9722 39.6257 32.95L39.659 33.0083L39.4924 33.125L39.134 32.875L39.1757 32.8083L39.184 32.8167L39.2174 32.8333H39.234L39.2507 32.8083L39.4174 32.575L39.434 32.55V32.5417L39.409 32.5167L39.3924 32.5083L39.434 32.45Z" fill="black"/>
<path d="M40.009 33.1833L40.2007 33.35L40.159 33.4L40.1424 33.3917L40.1257 33.375H40.109L40.084 33.4L39.984 33.525L39.9257 33.475L39.934 33.4333L39.8507 33.4167L39.7924 33.375C39.7535 33.3417 39.7257 33.3056 39.709 33.2667C39.6979 33.2222 39.6979 33.1778 39.709 33.1333C39.709 33.0889 39.7257 33.0445 39.759 33C39.7923 32.9611 39.8312 32.9333 39.8757 32.9167C39.9201 32.9 39.9646 32.8972 40.009 32.9083C40.0535 32.9139 40.0951 32.9306 40.134 32.9583L40.1757 33.0083L40.209 33.0667L40.234 33.0583L40.2757 33.0917L40.2007 33.2583L40.134 33.225V33.1333L40.1257 33.075L40.0923 33.0333L40.0257 33.0083L39.9507 33.025C39.9285 33.0361 39.9035 33.0583 39.8757 33.0917L39.8257 33.175V33.2667C39.8312 33.2889 39.8451 33.3083 39.8674 33.325L39.909 33.35H39.9507L39.984 33.3333L39.9924 33.3167L40.009 33.2917V33.2833L39.984 33.2583L39.9673 33.2417L40.009 33.1833Z" fill="black"/>
<path d="M-6.66602 0H20.0006V20H-6.66602V0Z" fill="#012169"/>
<path d="M-3.54102 0L6.62565 7.54167L16.7507 0H20.0006V2.58333L10.0007 10.0417L20.0006 17.4583V20H16.6673L6.66732 12.5417L-3.29102 20H-6.66602V17.5L3.29232 10.0833L-6.66602 2.66667V0H-3.54102Z" fill="white"/>
<path d="M11.0007 11.7083L20.0006 18.3333V20L8.70898 11.7083H11.0007ZM3.33398 12.5417L3.58398 14L-4.41602 20H-6.66602L3.33398 12.5417ZM20.0006 0V0.125L9.62565 7.95833L9.70898 6.125L17.9173 0H20.0006ZM-6.66602 0L3.29232 7.33333H0.792317L-6.66602 1.75V0Z" fill="#C8102E"/>
<path d="M3.37565 0V20H10.0423V0H3.37565ZM-6.66602 6.66667V13.3333H20.0006V6.66667H-6.66602Z" fill="white"/>
<path d="M-6.66602 8.04167V12.0417H20.0006V8.04167H-6.66602ZM4.70898 0V20H8.70898V0H4.70898Z" fill="#C8102E"/>
</g>
</g>
<defs>
<linearGradient id="paint0_linear_769_17843" x1="36.3969" y1="12.4504" x2="36.4261" y2="10.5374" gradientUnits="userSpaceOnUse">
<stop stop-color="#474747"/>
<stop offset="1" stop-color="#FF5500"/>
</linearGradient>
<linearGradient id="paint1_linear_769_17843" x1="35.7462" y1="19.6313" x2="35.7496" y2="20.712" gradientUnits="userSpaceOnUse">
<stop stop-color="#B50000"/>
<stop offset="1" stop-color="#FFC500"/>
</linearGradient>
<linearGradient id="paint2_linear_769_17843" x1="40.4912" y1="20.2916" x2="42.2565" y2="20.2685" gradientUnits="userSpaceOnUse">
<stop stop-color="#D5DFFF"/>
<stop offset="1" stop-color="white"/>
</linearGradient>
<linearGradient id="paint3_linear_769_17843" x1="36.0607" y1="12.0875" x2="36.6965" y2="12.0875" gradientUnits="userSpaceOnUse">
<stop stop-color="#474747"/>
<stop offset="1" stop-color="#FF5500"/>
</linearGradient>
<linearGradient id="paint4_linear_769_17843" x1="45.2586" y1="29.1687" x2="44.9492" y2="27.246" gradientUnits="userSpaceOnUse">
<stop stop-color="#D5DFFF"/>
<stop offset="1" stop-color="white"/>
</linearGradient>
<linearGradient id="paint5_linear_769_17843" x1="40.919" y1="20.9504" x2="40.1301" y2="19.6781" gradientUnits="userSpaceOnUse">
<stop stop-color="#D5DFFF"/>
<stop offset="1" stop-color="white"/>
</linearGradient>
<clipPath id="clip0_769_17843">
<path d="M0 20C0 8.95431 8.95431 0 20 0C31.0457 0 40 8.95431 40 20C40 31.0457 31.0457 40 20 40C8.95431 40 0 31.0457 0 20Z" fill="white"/>
</clipPath>
<clipPath id="clip1_769_17843">
<rect width="53.3333" height="40" fill="white" transform="translate(-6.66602)"/>
</clipPath>
</defs>
</svg>
