<svg width="40" height="40" viewBox="0 0 40 40" fill="none" xmlns="http://www.w3.org/2000/svg">
<g clip-path="url(#clip0_769_19637)">
<path d="M0 20C0 8.95431 8.95431 0 20 0C31.0457 0 40 8.95431 40 20C40 31.0457 31.0457 40 20 40C8.95431 40 0 31.0457 0 20Z" fill="#E94E0F"/>
<g clip-path="url(#clip1_769_19637)">
<path d="M0 -0.25H53.3333V39.75H0V-0.25Z" fill="#FFB700"/>
<path d="M2.2251 19.75L9.55843 1.97501H16.8918V37.525H9.55843L2.2251 19.75Z" fill="#FF5B00"/>
<path d="M2.2251 1.97501H9.55843V37.525H2.2251V1.97501Z" fill="#005641"/>
<path d="M19.1084 1.97501H51.3334V37.525H19.1084V1.97501Z" fill="#8D2029"/>
<path d="M30.2914 28.0667L30.483 27.9501L30.5664 28.0667C30.6747 28.2167 30.983 28.2084 31.183 28.0667L31.3414 27.9417L31.4747 28.0584C31.6414 28.2167 31.958 28.2167 32.1664 28.0584C32.308 27.9584 32.333 27.9501 32.4164 28.0334C32.4747 28.0834 32.6414 28.1334 32.783 28.1584C33.0497 28.1917 33.0497 28.1917 33.1997 27.9584C33.333 27.7667 33.3497 27.6917 33.3247 27.5001C33.3014 27.3537 33.2847 27.2063 33.2747 27.0584C33.258 26.8417 33.2664 26.8417 33.5747 26.7251C33.7277 26.6781 33.878 26.6225 34.0247 26.5584C34.1497 26.4834 34.4997 26.0751 34.4997 25.9917C34.4997 25.9751 34.3664 25.9417 34.1997 25.9251C33.533 25.8417 33.4247 25.4917 33.858 24.8417C34.5497 23.7584 34.9747 22.7167 34.9747 22.0584C34.9747 21.7584 34.9997 21.6584 35.033 21.7251C35.1914 21.9834 34.908 23.0917 34.4914 23.8917L34.3247 24.2084L34.483 24.1751C34.5664 24.1501 35.0997 23.9251 35.6497 23.6751C37.1664 22.9917 37.683 22.8584 38.6664 22.9001C39.4914 22.9334 39.833 23.0917 40.4164 23.7001C40.7247 24.0334 41.0247 24.2584 41.5664 24.6001C42.7164 25.3167 42.7664 25.3834 42.8247 26.2334C42.883 27.0917 42.8497 27.1417 42.1997 27.2834C41.6414 27.4084 41.2914 27.6667 41.1997 28.0334C41.1497 28.2167 41.258 28.2251 41.533 28.0417L41.7414 27.9084L41.833 28.0417C41.958 28.2167 42.208 28.2167 42.4164 28.0417L42.583 27.9167L42.7497 28.0417C42.9997 28.2501 43.333 28.2001 43.433 27.9417C43.4497 27.9001 43.4997 27.9084 43.5997 28.0001C43.7914 28.1667 44.2664 28.2334 44.3164 28.1001C44.333 28.0501 44.2997 27.9334 44.233 27.8334C43.958 27.4167 43.8664 27.2251 43.8664 27.0001C43.8664 26.6834 43.9497 26.5251 44.3164 26.2751C44.7497 25.9584 44.883 25.5584 44.5497 25.5584C44.3497 25.5584 44.1414 25.3751 44.008 25.0834C43.7414 24.4834 43.7997 23.8167 44.1997 22.7001C44.5064 22.043 44.6602 21.3251 44.6497 20.6001C44.6497 19.9834 44.633 19.8834 44.4997 19.5417C44.3954 19.3042 44.2669 19.078 44.1164 18.8667L43.883 18.5584L44.1747 18.3084C45.0747 17.5667 44.8914 16.3501 43.808 15.8834C43.4747 15.7334 43.3914 15.7251 42.808 15.7251C42.4747 15.7251 41.933 15.7751 41.6414 15.8334C41.2499 15.8953 40.8544 15.9288 40.458 15.9334C39.8914 15.9334 39.7914 15.9167 39.5747 15.8001C39.3497 15.6834 39.308 15.6251 39.2664 15.3417C39.2623 15.315 39.2519 15.2897 39.2359 15.2679C39.22 15.2461 39.199 15.2286 39.1747 15.2167C39.0914 15.1917 38.7414 15.5001 38.6914 15.6334C38.658 15.7084 38.6414 15.7001 38.5664 15.6084C38.4957 15.5176 38.4395 15.4164 38.3997 15.3084C38.3164 15.0334 38.4247 14.8334 38.7497 14.6751L38.9997 14.5584L38.8497 14.4667C38.5497 14.2751 38.033 14.4084 37.8497 14.7167C37.7914 14.8001 37.733 14.8834 37.7164 14.8834C37.6997 14.8834 37.5997 14.8001 37.4997 14.6917C37.108 14.3084 37.2414 13.7417 37.7664 13.5751C38.0414 13.4834 38.2914 13.5501 38.3414 13.7417C38.4247 14.0167 38.658 13.6501 38.6164 13.3084C38.5914 13.0834 38.5914 13.0751 38.7497 13.0751C38.9664 13.0751 39.4164 13.3584 39.5664 13.5751C39.733 13.8334 39.7164 14.2417 39.533 14.5417L39.3914 14.7751L39.583 14.7417C39.8497 14.6834 40.1164 14.5167 40.2497 14.3084C40.32 14.1757 40.3594 14.0289 40.3652 13.8789C40.371 13.7288 40.3429 13.5794 40.283 13.4417C40.158 13.2167 40.1747 13.1834 40.358 13.2584C40.658 13.3834 40.8247 13.5251 40.9414 13.7667C41.058 13.9834 41.0664 14.0334 41.008 14.2667C40.9681 14.4088 40.9063 14.5438 40.8247 14.6667C40.7247 14.8001 40.7164 14.8251 40.7997 14.8251C40.9497 14.8251 41.2497 14.6834 41.358 14.5751C41.4164 14.5084 41.4997 14.3667 41.5414 14.2417L41.6247 14.0334L41.708 14.2001C41.833 14.4251 42.083 14.6334 42.383 14.7667C42.708 14.9001 42.8414 14.9084 42.6747 14.7834C42.558 14.7001 42.3414 14.0751 42.4164 14.0167C42.776 14.2181 43.1044 14.4708 43.3914 14.7667C43.8664 15.1917 44.1664 15.3334 44.5997 15.3334C45.158 15.3334 45.483 14.8501 45.233 14.3917C45.0914 14.1251 44.7664 14.0834 44.5664 14.3084C44.483 14.4167 44.458 14.5001 44.483 14.6167C44.5164 14.7501 44.508 14.7667 44.383 14.7667C44.2164 14.7667 43.8997 14.5584 43.333 14.0834C42.5443 13.4046 41.6376 12.8764 40.658 12.5251C39.9944 12.3717 39.3092 12.335 38.633 12.4167C38.0997 12.5167 37.4664 12.8251 37.1164 13.1501C36.508 13.7334 36.4997 14.5084 37.0914 15.2167L37.258 15.4167L37.1497 15.6001C37.0682 15.7314 37.0278 15.8841 37.0338 16.0385C37.0397 16.1929 37.0917 16.3421 37.183 16.4667C37.2664 16.5834 37.3497 16.6751 37.3747 16.6751C37.3914 16.6751 37.408 16.6001 37.4164 16.5084C37.433 16.2834 37.533 16.1334 37.6997 16.0751C37.8497 16.0167 37.9497 16.0501 38.633 16.3251C39.358 16.6084 40.5497 16.6251 41.8164 16.3751C42.3654 16.2483 42.9367 16.254 43.483 16.3917C44.083 16.6417 44.2164 17.2834 43.783 17.7667C43.5914 17.9834 43.4164 18.0667 42.808 18.2334C42.2784 18.3731 41.7278 18.4154 41.183 18.3584C40.283 18.3501 39.958 18.3667 39.5997 18.4417C39.1914 18.5251 38.9497 18.5334 37.783 18.5084L36.4247 18.4751L36.5747 18.5917C36.655 18.6631 36.7415 18.7272 36.833 18.7834C36.9414 18.8417 36.933 18.8501 36.783 18.9084C36.6997 18.9417 36.4997 18.9667 36.3414 18.9667H36.0664L36.033 19.2001C36.0106 19.31 36.0106 19.4234 36.033 19.5334C36.0664 19.6167 36.0497 19.6334 35.9664 19.6001C35.908 19.5751 35.7497 19.5334 35.608 19.5084C35.4651 19.4777 35.3255 19.4331 35.1914 19.3751C35.033 19.2917 35.0164 19.2917 34.958 19.4001C34.908 19.4834 34.4414 19.8334 34.3747 19.8334C34.3446 19.6172 34.2828 19.4066 34.1914 19.2084C34.108 19.0334 34.033 18.8334 34.008 18.7751C33.983 18.6834 33.9664 18.6751 33.9247 18.7501C33.8997 18.7917 33.8664 18.9167 33.8414 19.0167C33.8122 19.1517 33.7615 19.2811 33.6914 19.4001L33.5664 19.5834L33.483 19.4251C33.3997 19.2584 33.2664 19.0751 33.2164 19.0751C33.1997 19.0751 33.1747 19.1251 33.158 19.2001C33.1164 19.3334 32.7914 19.7251 32.708 19.7251C32.683 19.7251 32.658 19.6167 32.658 19.4751C32.658 19.3501 32.633 19.2334 32.5997 19.2334C32.5664 19.2334 32.5414 19.2751 32.5414 19.3167C32.5414 19.4167 32.2664 19.7334 32.1664 19.7334C32.133 19.7334 32.0664 19.7667 32.0247 19.8167C31.9247 19.9251 31.8414 19.9084 31.883 19.7834C31.8947 19.6767 31.8833 19.5687 31.8497 19.4667L31.7664 19.2001C31.7497 19.1584 31.6497 19.1751 31.433 19.2417C31.0997 19.3501 30.983 19.3251 31.158 19.1917C31.2247 19.1417 31.3247 18.9667 31.3747 18.8084C31.433 18.6417 31.5164 18.5001 31.558 18.4834C31.6164 18.4667 31.6164 18.4834 31.5414 18.5834C31.4931 18.6468 31.4616 18.7213 31.4497 18.8001C31.4497 18.8417 31.408 18.9501 31.3664 19.0417C31.3164 19.1251 31.283 19.2084 31.2914 19.2167C31.2997 19.2251 31.433 19.1751 31.583 19.1084L31.8497 18.9751V19.0917C31.8497 19.1584 31.883 19.3251 31.9247 19.4667L31.9997 19.7167L32.183 19.6334C32.3664 19.5501 32.5414 19.2501 32.5414 19.0084C32.5414 18.8917 32.608 18.9084 32.6414 19.0334C32.6414 19.0667 32.6914 19.2084 32.7247 19.3417L32.808 19.5751L32.933 19.4251C33.008 19.3417 33.0914 19.1751 33.1247 19.0667C33.1914 18.8667 33.2914 18.7751 33.2914 18.9251C33.2914 19.0251 33.5747 19.4084 33.6247 19.3751C33.658 19.3584 33.708 19.2167 33.7497 19.0584C33.833 18.7251 33.958 18.5084 34.0414 18.5584C34.0747 18.5751 34.083 18.6084 34.0664 18.6417C34.0497 18.6584 34.1164 18.8751 34.2164 19.1084C34.2888 19.2833 34.361 19.4583 34.433 19.6334C34.4664 19.7167 34.4997 19.7167 34.708 19.5251C34.833 19.4084 34.958 19.2834 34.9664 19.2417C34.9914 19.1751 35.0164 19.1834 35.133 19.2584C35.3787 19.3882 35.6479 19.4675 35.9247 19.4917C35.9414 19.4751 35.958 19.3251 35.958 19.1584L35.9664 18.8501L36.133 18.8834C36.2164 18.9084 36.408 18.9084 36.5497 18.8834L36.7997 18.8501L36.5747 18.6834C36.4497 18.6001 36.3247 18.4917 36.2914 18.4417C36.2664 18.3917 36.1497 18.3417 36.0247 18.3334C35.683 18.3001 35.0747 17.9667 35.0747 17.8001C35.0747 17.7667 35.158 17.8251 35.258 17.9167C35.4914 18.1251 35.808 18.2501 36.0914 18.2501H36.2914L36.1664 18.0834C36.0773 17.9542 36.0202 17.8057 35.9997 17.6501C35.983 17.4001 35.958 17.3667 35.6997 17.1917C35.5499 17.0856 35.4104 16.9656 35.283 16.8334L35.1414 16.6751L35.0664 16.8667C35.0247 16.9751 34.983 17.0584 34.958 17.0584C34.9414 17.0584 34.858 16.9917 34.7914 16.9167C34.7445 16.8624 34.688 16.8172 34.6247 16.7834C34.5997 16.7834 34.5414 16.8834 34.4747 17.0084L34.358 17.2334L34.2747 17.1084C34.2006 17.0062 34.1168 16.9113 34.0247 16.8251C33.9247 16.7417 33.883 16.6751 33.9164 16.6751C33.9497 16.6751 34.058 16.7584 34.1664 16.8667L34.3497 17.0584L34.433 16.9167C34.4812 16.8186 34.4958 16.7073 34.4747 16.6001C34.4414 16.4501 34.4497 16.4417 34.4997 16.5417C34.5716 16.6358 34.6556 16.7199 34.7497 16.7917L34.933 16.9417L35.058 16.7167C35.183 16.4834 35.183 16.4834 35.233 16.6251C35.3164 16.8001 35.858 17.2501 36.3164 17.5084C36.3997 17.5501 36.3664 17.4167 36.233 17.0917C36.193 16.9849 36.1705 16.8724 36.1664 16.7584C36.1664 16.6084 36.1247 16.5417 35.933 16.3917C35.8139 16.3155 35.7142 16.2126 35.6418 16.0911C35.5695 15.9695 35.5265 15.8328 35.5164 15.6917C35.4914 15.5501 35.4414 15.4001 35.3997 15.3501C35.3497 15.2667 35.333 15.3167 35.3497 15.5667C35.3664 15.7417 35.3414 15.9584 35.2997 16.0501L35.233 16.2167L35.183 16.0751C35.1497 16.0001 35.0164 15.8667 34.8914 15.7834C34.7664 15.7001 34.6747 15.6167 34.6914 15.6001C34.708 15.5834 34.8414 15.6584 34.983 15.7667C35.208 15.9417 35.2497 15.9584 35.283 15.8834C35.3164 15.8001 35.283 15.4167 35.2164 15.1501C35.183 15.0167 35.183 15.0167 35.3497 15.1834C35.4664 15.3001 35.533 15.4501 35.5914 15.7001C35.658 16.0167 35.6914 16.0751 35.983 16.3334C36.158 16.4917 36.3164 16.6084 36.3247 16.6001C36.3414 16.5834 36.358 16.1834 36.3747 15.7001C36.408 14.7751 36.3747 14.5501 36.1497 14.2667L36.033 14.1167L36.2164 13.9251C36.4217 13.7286 36.559 13.4717 36.608 13.1917L36.6414 12.9667L36.4414 13.1584C36.2747 13.3167 36.1914 13.3501 35.9997 13.3501C35.808 13.3501 35.733 13.3167 35.608 13.1834C35.4133 12.996 35.1759 12.8587 34.9164 12.7834C34.8164 12.7501 34.783 12.7667 34.783 12.8334C34.783 12.8834 34.733 13.0167 34.6664 13.1417L34.5497 13.3584L34.2997 13.1084C34.1414 12.9667 33.9664 12.8417 33.8247 12.8084C33.483 12.7251 33.4664 12.7251 33.4664 12.9834C33.4664 13.3751 33.2997 13.4501 32.9997 13.1917C32.7664 12.9917 32.583 12.9417 32.1414 13.0001L31.808 13.0334L31.8664 13.1834C31.9164 13.3084 31.908 13.3667 31.7997 13.5084C31.6247 13.7417 31.3997 13.8417 31.0497 13.8417C30.883 13.8417 30.683 13.8751 30.5997 13.9167C30.5164 13.9584 30.2997 14.0001 30.1247 14.0167C29.958 14.0334 29.7664 14.0667 29.708 14.0834C29.6247 14.1167 29.6247 14.0834 29.6497 13.9001C29.6914 13.6167 29.483 13.4001 29.1747 13.4001C28.7664 13.4001 28.583 13.7667 28.7414 14.2501C28.7738 14.3543 28.8016 14.46 28.8247 14.5667C28.9341 14.7751 29.081 14.9616 29.258 15.1167C29.4747 15.3334 29.6747 15.5584 29.708 15.6167C29.7751 15.7036 29.8604 15.7748 29.958 15.8251L30.1414 15.9251L30.1164 15.7251C30.0914 15.5084 30.133 15.4751 30.2497 15.6334C30.2914 15.6834 30.3997 15.7751 30.483 15.8251C30.6247 15.9084 30.6497 15.9084 30.6497 15.8417C30.6497 15.7917 30.6747 15.6834 30.708 15.6001L30.7664 15.4501L30.8747 15.6584C30.933 15.7751 31.1247 16.0334 31.2997 16.2417C31.6414 16.6334 31.858 17.0751 31.7497 17.1751C31.6997 17.2167 31.583 17.2167 31.333 17.1667C31.1497 17.1334 30.9164 17.1084 30.8164 17.1251C30.6247 17.1501 30.608 17.1251 30.733 16.9751C30.858 16.8084 30.833 16.7834 30.583 16.7834C30.2914 16.7834 29.5664 16.6417 29.283 16.5334C29.0164 16.4251 28.9497 16.4501 28.8664 16.7084L28.7247 17.1751L28.6414 17.4251L28.9414 17.4001C29.096 17.3839 29.2492 17.356 29.3997 17.3167C29.4587 17.2971 29.5209 17.2886 29.583 17.2917C29.5997 17.3001 29.558 17.4001 29.4997 17.5167L29.383 17.7167L29.5664 17.6834C29.6664 17.6584 29.8164 17.6084 29.8997 17.5667C30.0497 17.5001 30.0664 17.5001 30.183 17.6917C30.3247 17.9167 30.433 17.9084 30.458 17.6667C30.483 17.4167 30.5664 17.4501 30.7247 17.7834C30.8747 18.1001 31.0247 18.2167 31.058 18.0334C31.0664 17.9667 31.1414 17.8667 31.233 17.8001C31.4164 17.6751 31.5497 17.7167 31.6247 17.9084C31.708 18.1167 31.5247 18.3251 31.008 18.6417C30.5295 18.9059 30.1178 19.276 29.8044 19.7238C29.491 20.1715 29.2841 20.6851 29.1997 21.2251C29.0414 22.2084 29.533 23.2251 30.4997 23.9667C30.9664 24.3167 31.708 24.6834 31.658 24.5501C31.458 23.9417 31.4664 22.8001 31.6664 22.6084C31.6997 22.5751 31.6914 22.6917 31.6414 22.8667C31.4747 23.5251 31.558 24.0417 31.9747 25.2584C32.3414 26.3584 32.2914 26.8334 31.758 27.1417C31.5914 27.2417 31.483 27.2584 31.0247 27.2501C30.5247 27.2501 30.4664 27.2501 30.308 27.3834C30.1166 27.5789 29.9912 27.8296 29.9497 28.1001C29.9497 28.2084 30.0664 28.1917 30.283 28.0667H30.2914Z" fill="#FFB700"/>
<path d="M38.3747 28.0417L38.583 27.9084L38.7247 28.0417C38.908 28.2167 39.133 28.2084 39.308 28.0334C39.3914 27.9501 39.458 27.9001 39.4664 27.9084L39.5414 28.0417C39.583 28.1167 39.6747 28.1501 39.8414 28.1667C40.033 28.1751 40.0914 28.1667 40.1747 28.0501L40.258 27.9084L40.4664 28.0417C41.033 28.4084 41.333 28.0251 41.0747 27.2667C40.9497 26.8834 41.0247 26.6667 41.433 26.1834C41.608 25.9751 41.7497 25.7501 41.7497 25.6834C41.7497 25.5917 41.7164 25.5751 41.483 25.5834C41.2664 25.5834 41.1997 25.5584 41.083 25.4334C40.8914 25.2251 40.908 24.9834 41.1164 24.7167L41.283 24.5084L40.983 24.3084C40.7435 24.1315 40.5204 23.9335 40.3164 23.7167C40.1345 23.502 39.912 23.3253 39.6618 23.1966C39.4116 23.0679 39.1385 22.9898 38.858 22.9667L38.4664 22.9251V23.2251C38.4664 23.6001 38.6497 23.9667 39.133 24.5834C39.683 25.2834 39.7164 25.3917 39.7414 26.3084L39.7664 27.0834L39.5997 27.2334C39.458 27.3667 39.3997 27.3917 38.933 27.4167C38.4914 27.4417 38.3914 27.4667 38.2664 27.5834C38.1201 27.6901 38.019 27.8476 37.983 28.0251C37.958 28.1501 37.9664 28.1751 38.058 28.1751C38.1164 28.1751 38.258 28.1167 38.3747 28.0417ZM26.5247 26.0417C26.5751 25.9677 26.6039 25.8812 26.608 25.7917C26.608 25.7084 26.658 25.6751 26.8747 25.6417L27.133 25.6084L26.9664 25.4667C26.758 25.3001 26.733 25.1751 26.9164 25.1751C27.0997 25.1751 27.3997 24.9917 27.4497 24.8501C27.4747 24.7834 27.4497 24.7001 27.4164 24.6584C27.3164 24.5417 27.1247 24.5584 27.0914 24.6917C27.0497 24.8251 26.9914 24.8251 26.8414 24.6917C26.633 24.4834 26.6247 24.0584 26.8414 23.8084C26.933 23.6917 26.933 23.6917 26.808 23.5667C26.6747 23.4334 26.5747 23.1834 26.6414 23.1167C26.658 23.1001 26.7664 23.1167 26.8747 23.1584C27.0414 23.2084 27.0997 23.2084 27.1664 23.1584C27.358 23.0001 27.1497 22.8001 26.833 22.8501C26.6997 22.8667 26.6497 22.8501 26.633 22.7834C26.6164 22.7334 26.508 22.6667 26.383 22.6334C26.158 22.5751 26.158 22.5751 26.158 22.7334C26.158 22.9001 26.058 22.9334 25.8747 22.8251C25.7247 22.7417 25.583 22.8084 25.583 22.9667C25.583 23.1167 25.7247 23.1834 25.9997 23.1667C26.1997 23.1584 26.208 23.3084 26.0164 23.5251L25.8747 23.6917L25.983 23.8501C26.1497 24.0834 26.133 24.4751 25.958 24.6751L25.8164 24.8251L25.7247 24.7001C25.5914 24.5334 25.4164 24.5417 25.3664 24.7251C25.3414 24.8417 25.3664 24.8917 25.5164 25.0251C25.6164 25.1084 25.7664 25.1751 25.8414 25.1751C26.033 25.1751 26.0247 25.3334 25.8247 25.4834L25.658 25.6084L25.908 25.6417C26.0414 25.6667 26.158 25.7001 26.158 25.7251C26.158 25.8334 26.3247 26.1584 26.3747 26.1584C26.408 26.1584 26.4747 26.1001 26.5247 26.0334V26.0417Z" fill="#FFB700"/>
<path d="M29.7082 24.6584C29.9332 24.5751 30.4165 24.1584 30.4165 24.0667C30.4165 24.0334 30.2832 23.8834 30.1165 23.7334C29.7832 23.4334 29.4082 22.9084 29.3082 22.6084C29.2582 22.4417 29.0165 22.1751 28.3332 21.5084L27.4248 20.6334L27.1665 20.7001C27.0165 20.7334 26.8415 20.7667 26.7748 20.7667C26.6498 20.7667 26.6498 20.7667 26.8165 20.9001L26.9832 21.0334L27.2332 20.9001C27.4582 20.7667 27.4665 20.7667 27.4915 20.8751C27.5082 20.9334 27.4748 21.0417 27.4082 21.1167C27.3498 21.1917 27.3165 21.2834 27.3248 21.3084C27.3498 21.3334 27.2915 21.3917 27.1998 21.4417C27.0332 21.5251 26.9082 21.8001 27.0415 21.8001C27.1665 21.8001 27.4332 21.4667 27.3998 21.3584C27.3832 21.3001 27.3998 21.2417 27.4165 21.2251C27.5248 21.1667 27.5165 21.4251 27.4165 21.5584C27.3498 21.6251 27.3165 21.7084 27.3332 21.7417C27.3498 21.7667 27.2915 21.8251 27.1998 21.8751C27.0332 21.9584 26.9082 22.2334 27.0415 22.2334C27.1748 22.2334 27.4332 21.9167 27.4082 21.8001C27.3915 21.7417 27.3915 21.6751 27.4165 21.6584C27.4915 21.6251 27.5248 21.8251 27.4665 21.9251C27.4512 21.9532 27.4431 21.9847 27.4431 22.0167C27.4431 22.0488 27.4512 22.0803 27.4665 22.1084C27.5248 22.2167 27.4665 22.4167 27.3582 22.4834C27.3165 22.5084 27.3415 22.5667 27.4582 22.6501C27.6248 22.7667 27.6248 22.7834 27.6248 23.3167C27.6248 23.7667 27.6415 23.8834 27.7248 23.9584C27.8082 24.0417 27.8248 24.0417 27.8248 23.9584C27.8248 23.8751 27.9915 23.7584 28.1165 23.7584C28.1582 23.7584 28.3998 23.9667 28.6582 24.2167C28.9165 24.4667 29.1915 24.6917 29.2665 24.7001L29.4498 24.7334C29.4748 24.7334 29.5915 24.7084 29.7082 24.6501V24.6584ZM26.9332 22.4834C26.9332 22.3417 26.6332 22.1834 26.2748 22.1501C25.9832 22.1084 25.9832 22.1167 25.9832 22.2584C25.9832 22.3751 26.0248 22.4251 26.2332 22.5084C26.5498 22.6501 26.9332 22.6334 26.9332 22.4834Z" fill="#FFB700"/>
<path d="M27.2581 22.4667C27.4081 22.3334 27.4747 22.1834 27.3831 22.1834C27.2831 22.1834 27.0164 22.4167 27.0164 22.5167C27.0164 22.6501 27.0664 22.6417 27.2664 22.4667H27.2581ZM26.9497 22.0417C26.9581 21.9584 26.9081 21.9084 26.7581 21.8334C26.4247 21.6917 26.0414 21.6167 25.9497 21.6917C25.7747 21.8334 25.8914 22.0167 26.1664 22.0501C26.2831 22.0584 26.4331 22.0917 26.5081 22.1251C26.7247 22.2084 26.9247 22.1667 26.9497 22.0417ZM26.9497 21.6001C26.9664 21.4917 26.8914 21.4501 26.2831 21.2334C25.8247 21.0667 25.6247 21.1501 25.7747 21.4251C25.8247 21.5167 25.9081 21.5584 26.0997 21.5917C26.2414 21.6084 26.4331 21.6501 26.5247 21.6834C26.7747 21.7667 26.9247 21.7334 26.9414 21.6001H26.9497ZM27.2497 21.1917C27.3414 21.1001 27.4164 20.9917 27.4164 20.9417C27.4164 20.8167 27.0581 21.0501 27.0081 21.2167C26.9581 21.4084 27.0497 21.4001 27.2581 21.1917H27.2497ZM26.9497 21.1667C26.9664 21.0334 26.7497 20.9167 26.3164 20.8251C25.9914 20.7501 25.8497 20.7917 25.8747 20.9417C25.8914 21.0251 25.9997 21.0834 26.2914 21.1751C26.7831 21.3251 26.9247 21.3251 26.9497 21.1667ZM27.3664 20.5501C27.9331 20.3001 27.9747 19.6751 27.4497 19.5084C27.2331 19.4417 27.0997 19.4834 27.0164 19.6251C26.9497 19.7417 26.9914 19.9417 27.0747 19.9417C27.1081 19.9417 27.1331 19.9834 27.1331 20.0251C27.1331 20.2501 26.2831 20.3417 25.9331 20.1667C25.8081 20.1084 25.7664 19.9417 25.8581 19.9417C25.9414 19.9417 25.9914 19.7751 25.9497 19.6667C25.8997 19.5001 25.7331 19.4501 25.5081 19.5167C24.9831 19.6501 24.9997 20.2667 25.5331 20.5167C26.1231 20.7333 26.7689 20.745 27.3664 20.5501Z" fill="#FFB700"/>
<path d="M27.0248 20.0667C27.0581 20.0334 27.0415 19.9834 26.9915 19.9501C26.8748 19.8584 26.8831 19.7167 27.0081 19.5584C27.1081 19.4417 27.1165 19.2584 27.1498 17.4667C27.2081 14.3751 27.4415 12.0501 27.7415 11.4834C27.8665 11.2667 27.8498 11.2667 27.5331 11.4834C27.1177 11.7728 26.7823 12.1627 26.5581 12.6167C26.0415 13.5751 25.8665 14.8667 25.8665 17.6334C25.8665 19.2001 25.8748 19.4084 25.9665 19.5501C26.0498 19.7001 26.0498 19.7501 25.9998 19.9001C25.9581 19.9917 25.9415 20.0917 25.9581 20.1084C26.0748 20.2167 26.9081 20.1917 27.0248 20.0667ZM31.6998 17.1167C31.7248 17.0917 31.6831 16.9501 31.6165 16.8167C31.5165 16.6001 31.4748 16.5667 31.3331 16.5667C30.6668 16.5088 30.0169 16.328 29.4165 16.0334C28.9915 15.8417 28.8331 15.8001 28.7915 15.8501C28.6581 15.9751 28.8748 16.2667 29.2081 16.4251C29.6987 16.6018 30.2124 16.7057 30.7331 16.7334C30.9581 16.7334 30.9665 16.7334 30.8331 16.9251L30.7498 17.0584H30.9998L31.4165 17.1084C31.6665 17.1667 31.6665 17.1667 31.6998 17.1167Z" fill="#FFB700"/>
<path d="M34.333 18.5084C34.333 18.4251 34.0913 18.2167 33.858 18.0751C33.6663 17.9667 33.633 17.9584 33.633 18.0501C33.633 18.1834 33.5163 18.525 33.4663 18.525C33.4413 18.525 33.3996 18.4584 33.383 18.3834C33.358 18.3001 33.2663 18.1334 33.1746 18.025L33.008 17.8167L32.8913 18.0084C32.7746 18.1917 32.5663 18.3667 32.4746 18.3667C32.458 18.3667 32.4496 18.2667 32.4746 18.1584C32.483 18.0251 32.4746 17.9251 32.433 17.9084C32.3996 17.8834 32.3663 17.8917 32.3663 17.9251C32.3663 17.9917 32.083 18.3084 32.033 18.3084C31.9996 18.3084 31.9663 18.225 31.9496 18.1084L31.883 17.7084C31.8663 17.6084 31.908 17.6751 31.9663 17.8751L32.0996 18.2167L32.233 18.0084C32.2933 17.9223 32.3384 17.8264 32.3663 17.7251C32.3663 17.6834 32.3913 17.6667 32.4246 17.6834C32.458 17.7001 32.4996 17.8417 32.5163 17.9917L32.558 18.275L32.708 18.1084C32.7865 18.0248 32.8589 17.9357 32.9246 17.8417C32.983 17.7417 32.9913 17.7417 33.1163 17.8417C33.183 17.9084 33.2913 18.0501 33.358 18.1667C33.4246 18.2834 33.483 18.3667 33.4913 18.3584L33.5413 18.0917L33.5746 17.8417C33.583 17.8001 34.0246 18.0917 34.1913 18.2334C34.2913 18.325 34.3913 18.3917 34.408 18.3751C34.4246 18.3584 34.4413 18.225 34.4413 18.0667C34.4413 17.8334 34.4163 17.7667 34.2746 17.6417C34.108 17.4917 34.108 17.4917 34.0413 17.6001C33.958 17.7417 33.8663 17.7417 33.8663 17.6001C33.8663 17.5001 33.5496 17.1084 33.4746 17.1084C33.4496 17.1084 33.383 17.1917 33.3246 17.3001C33.2663 17.4084 33.1996 17.4917 33.183 17.4917C33.0996 17.4917 32.658 16.9917 32.658 16.9084C32.658 16.8417 32.6913 16.8584 32.7663 16.9751C32.8408 17.0845 32.9275 17.1851 33.0246 17.275C33.1913 17.425 33.258 17.3917 33.3246 17.1001C33.3496 17.0167 33.383 16.9501 33.408 16.9501C33.4746 16.9501 33.858 17.3584 33.908 17.4917L33.9663 17.6251L34.008 17.4751C34.058 17.2917 34.1163 17.2917 34.1996 17.4584C34.233 17.5251 34.3996 17.675 34.5663 17.775L34.8746 17.9751L34.933 17.775C34.9663 17.6667 35.0163 17.6084 35.033 17.6417C35.0663 17.6834 34.983 18.0167 34.9246 18.0834C34.9246 18.0917 34.8163 18.0334 34.708 17.9584L34.4996 17.8084V18.0751C34.4996 18.2167 34.483 18.3917 34.4663 18.4584C34.4246 18.5917 34.3246 18.6251 34.3246 18.5084H34.333ZM32.7913 16.3917C32.4246 16.0917 32.3746 16.0251 32.3746 15.8751L32.383 15.7251L32.408 15.8667C32.4246 15.95 32.5246 16.0834 32.6413 16.1834L32.858 16.3501L32.983 16.2C33.058 16.1167 33.1163 16.0167 33.1163 15.9834C33.1163 15.8834 33.133 15.8917 33.383 16.1084C33.5996 16.3 33.608 16.3001 33.633 16.1751C33.658 16.1084 33.6496 15.9751 33.633 15.8834C33.5496 15.6334 33.5663 15.6001 33.6746 15.7501L33.8746 15.9834C33.958 16.075 33.9663 16.0751 33.9996 15.9584C34.0246 15.8834 34.0413 15.7584 34.0413 15.6751V15.5167L34.233 15.7417C34.4246 15.9584 34.4413 15.9667 34.4913 15.8584C34.533 15.8 34.558 15.6584 34.558 15.5501C34.558 15.4001 34.5746 15.3667 34.608 15.4167C34.6746 15.5167 34.633 15.7667 34.5163 15.9834L34.433 16.15L34.3246 15.9751C34.183 15.7584 34.133 15.7584 34.0496 15.9917C33.9663 16.2167 33.908 16.2334 33.8246 16.0584C33.7746 15.9501 33.758 15.9667 33.7246 16.2L33.683 16.45L33.433 16.2584L33.183 16.0667L33.058 16.1917C32.9996 16.2667 32.9496 16.3584 32.9496 16.3917C32.9496 16.4751 32.883 16.4751 32.7913 16.3917ZM36.0413 15.2584C35.9163 15.1417 35.8246 15.0251 35.8413 15.0084C35.8663 14.9834 35.883 14.975 35.8913 14.9917C35.972 15.0777 36.0554 15.161 36.1413 15.2417C36.4246 15.5417 36.3663 15.5501 36.0496 15.2584H36.0413ZM31.708 14.8084C31.5913 14.6417 31.5996 14.5417 31.7496 14.3584C31.8496 14.2334 31.8996 14.2167 32.083 14.2417C32.208 14.25 32.4663 14.3584 32.658 14.4751C32.935 14.6405 33.252 14.727 33.5746 14.7251L33.433 14.4917C33.2496 14.2167 33.2496 14.1834 33.4663 14.3501C33.683 14.5251 33.9413 14.5751 34.5246 14.5584L34.808 14.5501L34.6413 14.3834C34.4163 14.1584 34.483 14.1334 34.7413 14.3584C34.9746 14.5667 34.9663 14.5834 34.458 14.6334C34.246 14.6548 34.032 14.6407 33.8246 14.5917C33.5413 14.5084 33.5246 14.5167 33.583 14.6084C33.6163 14.6667 33.6663 14.7084 33.6913 14.7084C33.7246 14.7084 33.7496 14.7417 33.7496 14.775C33.7496 14.8834 33.133 14.7834 32.833 14.6417C32.1663 14.3001 32.083 14.2667 31.9163 14.3167C31.8719 14.3338 31.8314 14.3595 31.797 14.3924C31.7627 14.4253 31.7353 14.4648 31.7163 14.5084C31.608 14.7834 31.9996 15.0001 32.158 14.7584C32.208 14.6834 32.1996 14.6417 32.1163 14.5501C31.9996 14.4334 32.0163 14.4167 32.1663 14.4667C32.2746 14.5084 32.283 14.7667 32.183 14.8667C32.0746 14.975 31.808 14.9501 31.708 14.8084Z" fill="black"/>
<path d="M34.3664 14.1334C34.283 14.0501 34.3497 14.0334 34.7247 14.0251C35.1914 14.0167 35.4747 13.9417 35.8081 13.7251C36.0747 13.5584 36.1497 13.5917 35.8914 13.7667C35.6664 13.9334 35.308 14.0501 34.9497 14.0834L34.5247 14.1417C34.458 14.1584 34.383 14.1501 34.358 14.1334H34.3664Z" fill="black"/>
</g>
</g>
<defs>
<clipPath id="clip0_769_19637">
<path d="M0 20C0 8.95431 8.95431 0 20 0C31.0457 0 40 8.95431 40 20C40 31.0457 31.0457 40 20 40C8.95431 40 0 31.0457 0 20Z" fill="white"/>
</clipPath>
<clipPath id="clip1_769_19637">
<rect width="53.3333" height="40" fill="white" transform="translate(0 -0.25)"/>
</clipPath>
</defs>
</svg>
