<svg width="40" height="40" viewBox="0 0 40 40" fill="none" xmlns="http://www.w3.org/2000/svg">
<g clip-path="url(#clip0_769_21375)">
<path d="M0 20C0 8.95431 8.95431 0 20 0C31.0457 0 40 8.95431 40 20C40 31.0457 31.0457 40 20 40C8.95431 40 0 31.0457 0 20Z" fill="#E94E0F"/>
<g clip-path="url(#clip1_769_21375)">
<path fill-rule="evenodd" clip-rule="evenodd" d="M-17.0024 0H62.9976V13.3359H-17.0024V0Z" fill="black"/>
<path fill-rule="evenodd" clip-rule="evenodd" d="M-17.0024 13.3359H62.9976V26.6641H-17.0024V13.3359Z" fill="white"/>
<path fill-rule="evenodd" clip-rule="evenodd" d="M-17.0024 26.6641H62.9976V40H-17.0024V26.6641Z" fill="#009900"/>
<path fill-rule="evenodd" clip-rule="evenodd" d="M-17.0024 40L22.9976 20L-17.0024 0V40Z" fill="#FF0000"/>
</g>
</g>
<defs>
<clipPath id="clip0_769_21375">
<path d="M0 20C0 8.95431 8.95431 0 20 0C31.0457 0 40 8.95431 40 20C40 31.0457 31.0457 40 20 40C8.95431 40 0 31.0457 0 20Z" fill="white"/>
</clipPath>
<clipPath id="clip1_769_21375">
<rect width="53.3333" height="40" fill="white" transform="translate(-7)"/>
</clipPath>
</defs>
</svg>
