<svg width="40" height="40" viewBox="0 0 40 40" fill="none" xmlns="http://www.w3.org/2000/svg">
<g clip-path="url(#clip0_769_22522)">
<path d="M0 20C0 8.95431 8.95431 0 20 0C31.0457 0 40 8.95431 40 20C40 31.0457 31.0457 40 20 40C8.95431 40 0 31.0457 0 20Z" fill="#E94E0F"/>
<g clip-path="url(#clip1_769_22522)">
<path d="M-6.9917 0.000244141H46.3416V40.0002H-6.9917V0.000244141Z" fill="#377E3F"/>
<path d="M-6.9917 8.00024H46.3416V32.0002H-6.9917V8.00024Z" fill="white"/>
<path d="M-6.9917 12.0002H46.3416V28.0002H-6.9917V12.0002Z" fill="#B40A2D"/>
<path d="M19.6667 12.7669L24.3667 27.2336L12.0583 18.2919H27.275L14.9667 27.2336L19.6667 12.7669Z" fill="#ECC81D"/>
</g>
</g>
<defs>
<clipPath id="clip0_769_22522">
<path d="M0 20C0 8.95431 8.95431 0 20 0C31.0457 0 40 8.95431 40 20C40 31.0457 31.0457 40 20 40C8.95431 40 0 31.0457 0 20Z" fill="white"/>
</clipPath>
<clipPath id="clip1_769_22522">
<rect width="53.3333" height="40" fill="white" transform="translate(-7 0.000244141)"/>
</clipPath>
</defs>
</svg>
