<svg width="40" height="40" viewBox="0 0 40 40" fill="none" xmlns="http://www.w3.org/2000/svg">
<g clip-path="url(#clip0_769_23517)">
<path d="M0 20C0 8.95431 8.95431 0 20 0C31.0457 0 40 8.95431 40 20C40 31.0457 31.0457 40 20 40C8.95431 40 0 31.0457 0 20Z" fill="#E94E0F"/>
<g clip-path="url(#clip1_769_23517)">
<path fill-rule="evenodd" clip-rule="evenodd" d="M-10.3333 0.000488281H49.6667V40.0005H-10.3333V0.000488281Z" fill="#3E5EB9"/>
<path fill-rule="evenodd" clip-rule="evenodd" d="M-10.3333 7.14111H49.6667V32.8599H-10.3333V7.14111Z" fill="#FFD900"/>
<path fill-rule="evenodd" clip-rule="evenodd" d="M-10.3333 10.0005H49.6667V30.0005H-10.3333V10.0005Z" fill="#B10C0C"/>
<path d="M43.7683 19.5708H-3.89575C-4.14601 19.5708 -4.34888 19.7632 -4.34888 20.0005C-4.34888 20.2378 -4.14601 20.4302 -3.89575 20.4302H43.7683C44.0186 20.4302 44.2214 20.2378 44.2214 20.0005C44.2214 19.7632 44.0186 19.5708 43.7683 19.5708Z" fill="#FFD900" stroke="black" stroke-width="0.117188"/>
<path fill-rule="evenodd" clip-rule="evenodd" d="M38.9512 15.4285L36.5222 16.2848L38.9512 17.1411L41.3802 16.2848L38.9512 15.4285Z" fill="white" stroke="black" stroke-width="0.108159"/>
<path d="M37.3338 15.9977H2.28275C2.10016 15.9977 1.95215 16.1259 1.95215 16.284C1.95215 16.4421 2.10016 16.5702 2.28275 16.5702H37.3338C37.5164 16.5702 37.6644 16.4421 37.6644 16.284C37.6644 16.1259 37.5164 15.9977 37.3338 15.9977Z" fill="#FFD900" stroke="black" stroke-width="0.104823"/>
<path d="M36.8086 16.5702C36.9497 16.5702 37.0908 16.4251 37.0908 16.2799C37.0908 16.1348 36.9497 15.9977 36.8086 15.9977" stroke="black" stroke-width="0.108855"/>
<path d="M36.5264 16.5702C36.6675 16.5702 36.8086 16.4251 36.8086 16.2799C36.8086 16.1348 36.6675 15.9977 36.5264 15.9977" stroke="black" stroke-width="0.108855"/>
<path d="M36.2361 16.5783C36.3772 16.5783 36.5183 16.4332 36.5183 16.288C36.5183 16.1429 36.3772 16.0058 36.2361 16.0058" stroke="black" stroke-width="0.108855"/>
<path fill-rule="evenodd" clip-rule="evenodd" d="M36.6621 17.1394L34.2332 17.9957L36.6621 18.852L39.0911 17.9957L36.6621 17.1394Z" fill="white" stroke="black" stroke-width="0.108159"/>
<path d="M35.0448 17.7087H-0.00631657C-0.188899 17.7087 -0.336914 17.8368 -0.336914 17.9949C-0.336914 18.153 -0.188899 18.2812 -0.00631657 18.2812H35.0448C35.2273 18.2812 35.3754 18.153 35.3754 17.9949C35.3754 17.8368 35.2273 17.7087 35.0448 17.7087Z" fill="#FFD900" stroke="black" stroke-width="0.104823"/>
<path d="M34.5195 18.2812C34.6606 18.2812 34.8018 18.136 34.8018 17.9909C34.8018 17.8457 34.6606 17.7087 34.5195 17.7087" stroke="black" stroke-width="0.108855"/>
<path d="M34.2373 18.2812C34.3784 18.2812 34.5195 18.136 34.5195 17.9909C34.5195 17.8457 34.3784 17.7087 34.2373 17.7087" stroke="black" stroke-width="0.108855"/>
<path d="M33.947 18.2892C34.0881 18.2892 34.2292 18.1441 34.2292 17.9989C34.2292 17.8538 34.0881 17.7167 33.947 17.7167" stroke="black" stroke-width="0.108855"/>
<path fill-rule="evenodd" clip-rule="evenodd" d="M40.8002 19.6639C40.3729 20.411 41.1342 19.4169 43.0065 20.67C43.3483 20.899 43.6513 21.5135 43.6513 21.9413C43.5658 21.881 43.4959 21.7605 43.4027 21.6702C43.2628 21.8087 43.5348 22.4293 43.5736 22.7245C43.2784 22.5618 43.3095 22.4835 43.2085 22.2787C43.2318 22.5197 43.1619 23.1945 43.2784 23.4475C43.0453 23.3872 43.0609 23.2005 42.9443 23.1583C43.022 23.4535 42.8666 23.7668 42.9133 24.0982C42.7734 23.9656 42.6336 23.8572 42.5714 23.803C42.5637 23.9596 42.3151 24.3693 42.3073 24.5199C42.1908 24.4476 42.1597 24.3392 42.1441 24.2669C42.0043 24.4476 41.4993 25.1104 41.4683 25.3031C41.0798 24.9597 40.0854 24.1283 39.9534 23.6825C39.8368 23.9355 39.6737 24.0199 39.3474 24.2066C39.2153 23.5017 38.7259 22.7125 38.99 22.11C38.8112 22.2214 38.6401 22.3401 38.4773 22.4654C38.5895 21.8982 38.8542 21.3557 39.2544 20.873C39.6546 20.3904 40.1813 19.9784 40.8002 19.6639Z" fill="#3D5DA7" stroke="black" stroke-width="0.0957804"/>
<path fill-rule="evenodd" clip-rule="evenodd" d="M39.1902 23.3755C39.3699 23.0161 39.5339 22.9067 39.6511 22.6724C39.8542 22.2661 39.8855 21.938 40.0652 21.9849C40.2449 22.0317 40.2449 22.2036 40.0105 22.6021C39.7761 22.9927 39.6667 23.0864 39.1902 23.3755ZM40.4011 24.2349C40.3777 23.9536 40.4636 23.8442 40.448 23.6646C40.4246 23.3521 40.2917 23.1411 40.4558 23.1255C40.6199 23.1099 40.698 23.2192 40.698 23.5317C40.698 23.8442 40.6511 23.9224 40.4011 24.2349ZM41.323 24.7661C41.2527 24.3755 41.3074 24.2192 41.2605 23.9692C41.1824 23.5317 41.0261 23.2505 41.1824 23.2114C41.3308 23.1724 41.4167 23.313 41.4792 23.7505C41.5339 24.188 41.5027 24.313 41.323 24.7661ZM42.2839 22.0864C42.0574 21.9224 41.9246 21.9067 41.7839 21.7974C41.5261 21.6021 41.3933 21.3989 41.3152 21.5005C41.2371 21.6021 41.2917 21.7114 41.5574 21.8911C41.8308 22.0708 41.9167 22.0864 42.2839 22.0864ZM42.1277 23.3599C42.0105 23.1099 41.8855 23.0474 41.8074 22.8911C41.6668 22.6099 41.6667 22.3677 41.5261 22.4302C41.3699 22.4927 41.3699 22.6177 41.5261 22.8911C41.6824 23.1567 41.7605 23.2036 42.1277 23.3599Z" fill="#A70000"/>
<path fill-rule="evenodd" clip-rule="evenodd" d="M-2.25356 20.3852C-2.28022 20.1638 -2.22691 20.1392 -2.36906 19.9753C-2.17361 20.0573 -2.16472 20.2786 -1.92484 20.1228C-1.836 20.0737 -1.80046 20.0737 -1.90707 19.8359C-1.65831 19.8359 -0.840949 20.1228 -0.716568 20.131C-0.370077 20.1474 0.25183 19.7703 0.67828 20.2294C1.09585 20.6476 0.953696 21.0822 0.953696 21.6643C0.793777 21.5823 0.864852 21.5495 0.687165 21.3363C0.829315 21.8447 0.687165 22.763 0.687165 23.3041C0.61609 23.173 0.624972 23.2222 0.562781 23.091C0.385094 23.5829 0.17187 23.6895 0.17187 24.2635C0.109679 24.0421 0.171871 24.0831 0.100796 23.9683C-0.0768919 24.3372 -1.23186 24.657 -0.787642 25.0342C-1.17855 24.8046 -1.35624 24.8292 -1.54281 24.616C-1.62277 24.6652 -1.68496 24.7636 -1.75604 24.8948C-2.46679 24.5668 -2.20026 23.8699 -2.75997 23.4025C-2.84882 23.5993 -2.81328 23.5665 -2.91989 23.8863C-3.0265 23.4435 -3.06204 23.1566 -3.18642 22.8368C-3.29304 23.0172 -3.27527 22.9434 -3.47961 23.2222C-3.56845 22.681 -3.69283 22.5498 -3.63953 22.1973C-3.85275 22.3448 -3.7106 22.2792 -3.92383 22.4678C-3.72837 21.074 -2.86659 20.0573 -2.25356 20.3852Z" fill="#3D5DA7" stroke="black" stroke-width="0.119489"/>
<path fill-rule="evenodd" clip-rule="evenodd" d="M-3.12231 22.6411C-2.94263 22.1958 -2.77856 22.0552 -2.65356 21.7661C-2.45044 21.2661 -2.41919 20.8599 -2.24731 20.9224C-2.06763 20.9849 -2.07544 21.188 -2.30981 21.688C-2.46868 22.0863 -2.7542 22.4212 -3.12231 22.6411ZM-2.43481 23.7583C-2.35669 23.3599 -2.24731 23.2114 -2.20044 22.9536C-2.12231 22.5005 -2.16138 22.1645 -1.99731 22.1802C-1.84106 22.2036 -1.802 22.3677 -1.91138 22.8208C-2.02075 23.2739 -2.09106 23.3755 -2.43481 23.7583ZM-1.6145 24.5317C-1.59106 24.1411 -1.49731 23.9927 -1.4895 23.7505C-1.46606 23.3052 -1.54419 22.9927 -1.39575 22.9927C-1.2395 22.9927 -1.18481 23.1489 -1.23169 23.5864C-1.27856 24.0239 -1.33325 24.1333 -1.6145 24.5239V24.5317ZM0.158936 22.0005C-0.184814 21.6646 -0.387939 21.6021 -0.606689 21.3755C-0.989502 21.0005 -1.177 20.6411 -1.30981 20.7739C-1.45044 20.8989 -1.3645 21.0864 -0.958252 21.4536C-0.552002 21.813 -0.411377 21.8599 0.158936 22.0005ZM-0.052002 23.2974C-0.270752 22.9692 -0.427002 22.8755 -0.567627 22.6567C-0.817627 22.2739 -0.903564 21.9458 -1.03638 22.0317C-1.19263 22.1099 -1.15356 22.2817 -0.880127 22.6567C-0.614502 23.0239 -0.505127 23.0864 -0.0441895 23.2974H-0.052002Z" fill="#A70000"/>
<path fill-rule="evenodd" clip-rule="evenodd" d="M33.9521 20.0017C31.0977 22.8561 27.2865 28.5746 19.6639 28.5746C12.9983 28.5746 8.23552 22.861 5.3811 20.0017C8.23552 17.1473 12.9983 11.4337 19.6639 11.4337C27.2865 11.4337 31.0923 17.1425 33.9521 20.0017Z" fill="white" stroke="black" stroke-width="0.107093"/>
<path fill-rule="evenodd" clip-rule="evenodd" d="M18.667 14.4067C19.4326 15.2661 18.792 15.6099 19.6045 15.6646C20.4482 15.7271 19.9639 16.5708 20.6826 16.6021C21.1826 16.6177 20.6279 18.6099 21.1123 19.2739C21.6045 19.9536 22.0107 19.4692 22.0186 19.9692C22.0264 20.4771 20.6904 20.4302 20.667 22.0005C20.6279 22.9146 19.5342 22.9771 19.4795 23.563C19.417 24.1099 21.6279 24.4224 21.6045 24.9146C21.5732 25.4067 19.2061 25.3286 19.1045 25.8833C19.0576 26.3911 22.3545 26.8052 22.6201 28.2583C22.1279 28.4146 20.7217 28.5708 19.667 28.5708C13.0029 28.5708 8.2373 22.8599 5.37793 20.0005C8.2373 17.1411 13.0029 11.4302 19.667 11.4302C19.667 11.4302 17.6904 13.2349 18.667 14.4146V14.4067Z" fill="black"/>
<path fill-rule="evenodd" clip-rule="evenodd" d="M10.7139 16.9536H11.4092V19.2349H10.7139V16.9536ZM10.7139 20.7661H11.4092V23.0474H10.7139V20.7661ZM12.0967 16.9536H12.792V19.2349H12.0967V16.9536ZM12.0967 20.7661H12.792V23.0474H12.0967V20.7661ZM13.4951 16.9536H14.1826V19.2349H13.4951V16.9536ZM13.4951 20.7661H14.1826V23.0474H13.4951V20.7661ZM14.8779 16.9536H15.5732V19.2349H14.8779V16.9536ZM14.8779 20.7661H15.5732V23.0474H14.8779V20.7661ZM16.2607 16.9536H16.9561V19.2349H16.2607V16.9536ZM16.2607 20.7661H16.9561V23.0474H16.2607V20.7661ZM17.6514 16.9536H18.3389V19.2349H17.6514V16.9536ZM17.6514 20.7661H18.3389V23.0474H17.6514V20.7661Z" fill="white"/>
<path fill-rule="evenodd" clip-rule="evenodd" d="M21.1904 16.9536H21.8857V19.2349H21.1904V16.9536ZM21.1904 20.7661H21.8857V23.0474H21.1904V20.7661ZM22.5732 16.9536H23.2686V19.2349H22.5732V16.9536ZM22.5732 20.7661H23.2686V23.0474H22.5732V20.7661ZM23.9639 16.9536H24.6514V19.2349H23.9639V16.9536ZM23.9639 20.7661H24.6514V23.0474H23.9639V20.7661ZM25.3467 16.9536H26.042V19.2349H25.3389L25.3467 16.9536ZM25.3467 20.7661H26.042V23.0474H25.3389L25.3467 20.7661ZM26.7295 16.9536H27.4248V19.2349H26.7295V16.9536ZM26.7295 20.7661H27.4248V23.0474H26.7295V20.7661ZM28.1201 16.9536H28.8076V19.2349H28.1201V16.9536ZM28.1201 20.7661H28.8076V23.0474H28.1201V20.7661Z" fill="black"/>
<path fill-rule="evenodd" clip-rule="evenodd" d="M15.0398 12.9524C14.6491 13.7153 15.7361 12.7002 17.4412 13.9799C17.8696 14.4433 18.138 15.002 18.2156 15.5918C17.8533 15.5179 17.2068 15.1611 17.2068 15.1611C17.2068 15.1611 17.9599 15.9117 17.9599 16.7853C17.697 16.6192 17.562 16.6438 17.4767 16.4408C17.4767 16.7176 17.7112 16.9022 17.7112 17.339C17.5513 17.2084 17.3776 17.091 17.1925 16.9883C17.4412 17.4251 16.7307 18.2741 17.086 18.5572C16.4679 18.4649 15.8284 18.065 15.5798 17.6343C15.4448 17.7204 15.4377 17.8619 15.4235 18.0158C15.4448 18.0281 14.4786 17.2959 14.5709 17.0129C14.4359 17.1975 14.4217 17.2959 14.3933 17.5051C14.0172 17.1844 13.741 16.7865 13.5905 16.3485L13.2637 16.7607C13.15 16.0409 13.15 16.0655 13.3844 15.4503C13.2209 15.5641 13.0644 15.6852 12.9155 15.8132C13.0177 15.2339 13.2596 14.6798 13.6257 14.1868C13.9917 13.6939 14.4735 13.2733 15.0398 12.9524Z" fill="#3D5DA7" stroke="black" stroke-width="0.0925589"/>
<path fill-rule="evenodd" clip-rule="evenodd" d="M14.073 16.688C14.1355 16.1645 14.2683 15.9614 14.3074 15.6255C14.3855 15.0239 14.2996 14.5942 14.5105 14.602C14.7214 14.6098 14.7839 14.8364 14.6824 15.4302C14.573 16.0239 14.4871 16.1723 14.073 16.688ZM15.1746 17.6567C15.1355 17.2114 15.2136 17.0239 15.1902 16.7348C15.1433 16.2348 14.9871 15.8911 15.1667 15.8598C15.3542 15.8286 15.448 15.9927 15.4636 16.5083C15.4871 17.0161 15.4402 17.1489 15.1746 17.6567ZM16.9011 18.438C16.7136 18.063 16.5496 17.9458 16.4324 17.6958C16.2136 17.2583 16.1746 16.9067 16.0105 16.9692C15.8386 17.0317 15.8542 17.2192 16.0886 17.6489C16.323 18.0708 16.4402 18.1567 16.9011 18.4458V18.438ZM17.4949 15.0005C17.0261 14.7427 16.7761 14.7427 16.4636 14.5786C15.9246 14.2973 15.6042 13.977 15.4949 14.1489C15.3855 14.3286 15.5339 14.5005 16.0964 14.7583C16.6511 15.0161 16.823 15.0317 17.5027 14.9927L17.4949 15.0005ZM17.6746 16.438C17.323 16.1489 17.1199 16.102 16.8933 15.9145C16.5027 15.5942 16.2996 15.2739 16.1667 15.3989C16.0417 15.5317 16.1277 15.7036 16.5417 16.0083C16.9558 16.3208 17.0964 16.3598 17.6746 16.438Z" fill="#A70000"/>
</g>
</g>
<defs>
<clipPath id="clip0_769_23517">
<path d="M0 20C0 8.95431 8.95431 0 20 0C31.0457 0 40 8.95431 40 20C40 31.0457 31.0457 40 20 40C8.95431 40 0 31.0457 0 20Z" fill="white"/>
</clipPath>
<clipPath id="clip1_769_23517">
<rect width="53.3333" height="40" fill="white" transform="translate(-7 0.000488281)"/>
</clipPath>
</defs>
</svg>
