<svg width="40" height="40" viewBox="0 0 40 40" fill="none" xmlns="http://www.w3.org/2000/svg">
<g clip-path="url(#clip0_769_23506)">
<path d="M0 20C0 8.95431 8.95431 0 20 0C31.0457 0 40 8.95431 40 20C40 31.0457 31.0457 40 20 40C8.95431 40 0 31.0457 0 20Z" fill="#E94E0F"/>
<g clip-path="url(#clip1_769_23506)">
<path d="M46.3333 13.3336H-7V26.6669H46.3333V13.3336Z" fill="white"/>
<path d="M46.3333 26.6669H-7V40.0002H46.3333V26.6669Z" fill="black"/>
<path fill-rule="evenodd" clip-rule="evenodd" d="M-7 0.000244141H46.3333V13.3336H-7V0.000244141Z" fill="#FF0000"/>
<path fill-rule="evenodd" clip-rule="evenodd" d="M9.82487 23.4169L7.42487 21.6752L5.0332 23.4336L5.92487 20.5836L3.5332 18.8169L6.4832 18.7919L7.39987 15.9502L8.34154 18.7836H11.2915L8.91654 20.5752L9.82487 23.4252V23.4169ZM35.4582 23.4169L33.0582 21.6752L30.6665 23.4336L31.5582 20.5836L29.1749 18.8169L32.1249 18.7919L33.0415 15.9502L33.9749 18.7836H36.9249L34.5499 20.5669L35.4665 23.4169H35.4582Z" fill="#009900"/>
</g>
</g>
<defs>
<clipPath id="clip0_769_23506">
<path d="M0 20C0 8.95431 8.95431 0 20 0C31.0457 0 40 8.95431 40 20C40 31.0457 31.0457 40 20 40C8.95431 40 0 31.0457 0 20Z" fill="white"/>
</clipPath>
<clipPath id="clip1_769_23506">
<rect width="53.3333" height="40" fill="white" transform="translate(-7 0.000244141)"/>
</clipPath>
</defs>
</svg>
