<svg width="40" height="40" viewBox="0 0 40 40" fill="none" xmlns="http://www.w3.org/2000/svg">
<g clip-path="url(#clip0_769_24016)">
<path d="M0 20C0 8.95431 8.95431 0 20 0C31.0457 0 40 8.95431 40 20C40 31.0457 31.0457 40 20 40C8.95431 40 0 31.0457 0 20Z" fill="#E94E0F"/>
<g clip-path="url(#clip1_769_24016)">
<path d="M0 -0.000976562H60V39.999H0V-0.000976562Z" fill="#FF0000"/>
<path d="M0 -0.000976562H30V19.999H0V-0.000976562Z" fill="#000095"/>
<path d="M12.8333 10.574L12.625 11.374L13.4083 11.5907L13.2583 10.999L12.8333 10.574ZM16.7417 10.999L16.5917 11.5907L17.375 11.374L17.1667 10.574L16.7417 10.999ZM13.2583 8.99902L12.8333 9.42402L12.9917 9.99902L13.2583 8.99902Z" fill="white"/>
<path d="M12.9916 9.99902L12.8333 10.574L13.2583 10.999L12.9916 9.99902Z" fill="white"/>
<path d="M12.8333 9.42402L12.2583 9.99902L12.8333 10.574L12.9916 9.99902L12.8333 9.42402ZM14 11.7407L14.425 12.1657L15 12.0074L14 11.7407ZM15.575 12.1657L16.375 12.374L16.5916 11.5907L16 11.7407L15.575 12.1657Z" fill="white"/>
<path d="M15.9999 11.7407L16.5915 11.5907L16.7415 10.999L15.9999 11.7407ZM13.4082 11.5907L13.6249 12.374L14.4249 12.1657L13.9999 11.7407L13.4082 11.5907ZM14.9999 12.0074L15.5749 12.1657L15.9999 11.7407L14.9999 12.0074Z" fill="white"/>
<path d="M14.425 12.1657L15 12.7407L15.575 12.1657L15 12.0074L14.425 12.1657ZM13.4083 8.40736L12.625 8.62402L12.8333 9.42402L13.2583 8.99902L13.4083 8.40736ZM13.2583 10.999L13.4083 11.5907L14 11.7407L13.2583 10.999ZM17.0083 9.99902L17.1667 9.42402L16.7417 8.99902L17.0083 9.99902Z" fill="white"/>
<path d="M14 8.25735L13.4083 8.40735L13.2583 8.99902L14 8.25735ZM16.7416 8.99902L16.5916 8.40735L16 8.25735L16.7416 8.99902ZM17.1666 10.574L17.7416 9.99902L17.1666 9.42402L17.0083 9.99902L17.1666 10.574Z" fill="white"/>
<path d="M16.7417 8.99903L16 8.25736L15 7.99069L14 8.25736L13.2584 8.99903L12.9917 9.99903L13.2584 10.999L14 11.7407L15 12.0074L16 11.7407L16.7417 10.999L17.0084 9.99903L16.7417 8.99903Z" fill="white"/>
<path d="M16.7415 10.999L17.1665 10.574L17.0082 9.99902L16.7415 10.999ZM17.1665 9.42402L17.3749 8.62402L16.5915 8.40736L16.7415 8.99902L17.1665 9.42402ZM16.5915 8.40736L16.3749 7.62402L15.5749 7.83236L15.9999 8.25736L16.5915 8.40736ZM14.4249 7.83236L13.6249 7.62402L13.4082 8.40736L13.9999 8.25736L14.4249 7.83236ZM14.9999 7.99069L14.4249 7.83236L13.9999 8.25736L14.9999 7.99069Z" fill="white"/>
<path d="M15.575 7.83235L15 7.25735L14.425 7.83235L15 7.99069L15.575 7.83235Z" fill="white"/>
<path d="M16 8.25736L15.575 7.83236L15 7.99069L16 8.25736ZM14.425 12.1657L13.625 12.374L14 13.7574L15 12.7407L14.425 12.1657ZM14 13.7574L15 17.499L16 13.7574L15 12.7407L14 13.7574ZM13.4083 11.5907L12.625 11.374L12.2583 12.7407L13.625 12.374L13.4083 11.5907Z" fill="white"/>
<path d="M12.2583 12.7407L11.2583 16.499L14 13.7574L13.625 12.374L12.2583 12.7407ZM11.2583 10.999L8.5 13.7574L12.2583 12.7407L12.625 11.374L11.2583 10.999Z" fill="white"/>
<path d="M12.8333 10.574L12.2583 9.99902L11.2583 10.999L12.625 11.374L12.8333 10.574ZM12.8333 9.42402L12.625 8.62402L11.2583 8.99902L12.2583 9.99902L12.8333 9.42402Z" fill="white"/>
<path d="M11.2583 8.99902L7.5 9.99902L11.2583 10.999L12.2583 9.99902L11.2583 8.99902ZM18.7583 10.999L17.375 11.374L17.7417 12.7407L21.5 13.7574L18.7583 10.999Z" fill="white"/>
<path d="M16.5917 11.5907L16.375 12.374L17.7417 12.7407L17.375 11.374L16.5917 11.5907ZM15.575 12.1657L15 12.7407L16 13.7574L16.375 12.374L15.575 12.1657ZM17.1667 10.574L17.375 11.374L18.7583 10.999L17.7417 9.99902L17.1667 10.574Z" fill="white"/>
<path d="M16 13.7574L18.7583 16.499L17.7417 12.7407L16.375 12.374L16 13.7574ZM16.5917 8.40736L17.375 8.62402L17.7417 7.25735L16.375 7.62402L16.5917 8.40736Z" fill="white"/>
<path d="M18.7583 8.99902L21.5 6.25736L17.7417 7.25736L17.375 8.62402L18.7583 8.99902ZM17.7417 7.25736L18.7583 3.49902L16 6.25736L16.375 7.62402L17.7417 7.25736ZM18.7583 10.999L22.5 9.99902L18.7583 8.99902L17.7417 9.99902L18.7583 10.999Z" fill="white"/>
<path d="M17.1666 9.42402L17.7416 9.99902L18.7583 8.99902L17.375 8.62402L17.1666 9.42402ZM14 6.25736L11.2583 3.49902L12.2583 7.25736L13.625 7.62402L14 6.25736Z" fill="white"/>
<path d="M13.4083 8.40736L13.625 7.62402L12.2583 7.25735L12.625 8.62402L13.4083 8.40736Z" fill="white"/>
<path d="M12.2583 7.25735L8.5 6.25735L11.2583 8.99902L12.625 8.62402L12.2583 7.25735ZM15.575 7.83235L16.375 7.62402L16 6.25735L15 7.25735L15.575 7.83235Z" fill="white"/>
<path d="M16 6.25736L15 2.49902L14 6.25736L15 7.25736L16 6.25736Z" fill="white"/>
<path d="M14.425 7.83235L15 7.25735L14 6.25735L13.625 7.62402L14.425 7.83235Z" fill="white"/>
<path d="M15 14.2574C17.3518 14.2574 19.2584 12.3508 19.2584 9.99903C19.2584 7.64721 17.3518 5.74069 15 5.74069C12.6482 5.74069 10.7417 7.64721 10.7417 9.99903C10.7417 12.3508 12.6482 14.2574 15 14.2574Z" fill="#000095"/>
<path d="M15 13.7574C17.0757 13.7574 18.7584 12.0747 18.7584 9.99903C18.7584 7.92335 17.0757 6.24069 15 6.24069C12.9244 6.24069 11.2417 7.92335 11.2417 9.99903C11.2417 12.0747 12.9244 13.7574 15 13.7574Z" fill="white"/>
</g>
</g>
<defs>
<clipPath id="clip0_769_24016">
<path d="M0 20C0 8.95431 8.95431 0 20 0C31.0457 0 40 8.95431 40 20C40 31.0457 31.0457 40 20 40C8.95431 40 0 31.0457 0 20Z" fill="white"/>
</clipPath>
<clipPath id="clip1_769_24016">
<rect width="53.3333" height="40" fill="white" transform="translate(0 -0.000976562)"/>
</clipPath>
</defs>
</svg>
