<svg width="40" height="40" viewBox="0 0 40 40" fill="none" xmlns="http://www.w3.org/2000/svg">
<g clip-path="url(#clip0_769_23731)">
<path d="M0 20C0 8.95431 8.95431 0 20 0C31.0457 0 40 8.95431 40 20C40 31.0457 31.0457 40 20 40C8.95431 40 0 31.0457 0 20Z" fill="#E94E0F"/>
<g clip-path="url(#clip1_769_23731)">
<path d="M-7 0.000976562H46.3333V40.001H-7V0.000976562Z" fill="#006600"/>
<path d="M-7 0.000976562H46.3333V28.576H-7V0.000976562Z" fill="white"/>
<path d="M-7 0.000976562H46.3333V11.426H-7V0.000976562Z" fill="#CC0000"/>
<path d="M18.0666 19.4676C18.2666 19.1259 18.7083 19.0093 19.0499 19.2176C19.2583 19.3426 19.3916 19.5593 19.3999 19.8009V22.6676H19.9333V19.8093C19.9499 19.4176 20.2833 19.1093 20.6833 19.1259C20.9249 19.1343 21.1499 19.2676 21.2666 19.4759C21.5583 18.5926 21.0749 17.6426 20.1916 17.3509C19.3083 17.0593 18.3583 17.5426 18.0666 18.4259C17.9583 18.7676 17.9583 19.1343 18.0666 19.4676Z" fill="#F8C300"/>
<path d="M18.45 18.7259C18.9333 18.6259 19.4166 18.8426 19.6666 19.2676C19.9166 18.8426 20.4 18.6259 20.8833 18.7259C20.8083 18.0509 20.2 17.5759 19.525 17.6509C18.9583 17.7176 18.5166 18.1593 18.45 18.7259Z" fill="white"/>
<path d="M19.3999 21.526C19.2999 22.7177 18.2416 23.601 17.0499 23.4927C16.5583 23.451 16.0999 23.2427 15.7499 22.9093C15.2999 24.0677 13.9916 24.6343 12.8333 24.1843C12.6583 24.1177 12.4833 24.026 12.3333 23.9093C12.5416 25.9927 15.6666 25.5677 15.8999 23.5427C16.8749 25.2677 19.0333 24.7677 19.6666 22.6593L19.3999 21.526Z" fill="#F8C300"/>
<path d="M19.9332 21.526C20.0332 22.7177 21.0915 23.601 22.2832 23.4927C22.7748 23.451 23.2332 23.2427 23.5832 22.9093C24.0332 24.0677 25.3415 24.6343 26.4998 24.1843C26.6748 24.1177 26.8498 24.026 26.9998 23.9093C26.7915 25.9927 23.6665 25.5677 23.4332 23.5427C22.4582 25.2677 20.2998 24.7677 19.6665 22.6593L19.9332 21.526Z" fill="#F8C300"/>
<path d="M17.3167 25.2176C16.875 26.1593 16.0083 26.3176 15.25 25.5593C15.25 25.5593 15.55 25.3426 15.8833 25.2843C15.8167 25.0259 15.9417 24.6593 16.125 24.4676C16.3667 24.6259 16.55 24.8676 16.6333 25.1426C17.0917 25.0843 17.3167 25.2259 17.3167 25.2259V25.2176Z" fill="#F8C300"/>
<path d="M20.7333 25.1093C20.1416 25.9677 19.2666 25.9843 18.6416 25.1093C18.6416 25.1093 18.9749 24.9427 19.3083 24.9427C19.2833 24.676 19.4666 24.3343 19.6833 24.176C19.8999 24.376 20.0333 24.6343 20.0749 24.926C20.5333 24.9427 20.7333 25.1177 20.7333 25.1093Z" fill="#F8C300"/>
<path d="M24.0833 25.5593C23.3666 26.3093 22.4916 26.1843 22.0166 25.2177C22.0166 25.2177 22.3666 25.1093 22.7083 25.1593C22.7249 24.8927 22.9666 24.5843 23.1999 24.4593C23.3749 24.6843 23.4749 24.9677 23.4666 25.2593C23.9166 25.3593 24.0833 25.5677 24.0833 25.5593Z" fill="#F8C300"/>
<path d="M14.1248 27.3176C17.7414 26.2426 21.5914 26.2426 25.2081 27.3176" stroke="#F8C300" stroke-width="0.916667"/>
<path d="M20.5335 14.9009L18.2751 13.2593H21.0668L18.8085 14.9009L19.6668 12.2509L20.5335 14.9009Z" fill="#F8C300"/>
<path d="M16.1999 14.9676L17.0582 14.3343H15.9999L15.6666 13.3259L15.3332 14.3343H14.2749L15.1332 14.9676L14.7999 15.9759L15.6666 15.3509L16.5332 15.9759L16.1999 14.9676Z" fill="#F8C300"/>
<path d="M13.2749 17.8926L14.1332 17.2676H13.0666L12.7416 16.251L12.4082 17.2676H11.3416L12.2082 17.8926L11.8749 18.901L12.7416 18.276L13.5999 18.901L13.2749 17.8926Z" fill="#F8C300"/>
<path d="M12.1999 21.8927L13.0666 21.2677H11.9999L11.6666 20.251L11.3332 21.2677H10.2749L11.1332 21.8927L10.7999 22.901L11.6666 22.276L12.5332 22.901L12.1999 21.8927Z" fill="#F8C300"/>
<path d="M24.1999 14.9676L25.0582 14.3343H23.9999L23.6666 13.3259L23.3332 14.3343H22.2749L23.1332 14.9676L22.7999 15.9759L23.6666 15.3509L24.5332 15.9759L24.1999 14.9676Z" fill="#F8C300"/>
<path d="M27.125 17.8926L27.9916 17.2676H26.925L26.5916 16.251L26.2666 17.2676H25.2L26.0583 17.8926L25.7333 18.901L26.5916 18.276L27.4583 18.901L27.125 17.8926Z" fill="#F8C300"/>
<path d="M28.1999 21.8927L29.0583 21.2677H27.9999L27.6666 20.251L27.3333 21.2677H26.2666L27.1333 21.8927L26.7999 22.901L27.6666 22.276L28.5333 22.901L28.1999 21.8927Z" fill="#F8C300"/>
</g>
</g>
<defs>
<clipPath id="clip0_769_23731">
<path d="M0 20C0 8.95431 8.95431 0 20 0C31.0457 0 40 8.95431 40 20C40 31.0457 31.0457 40 20 40C8.95431 40 0 31.0457 0 20Z" fill="white"/>
</clipPath>
<clipPath id="clip1_769_23731">
<rect width="53.3333" height="40" fill="white" transform="translate(-7 0.000976562)"/>
</clipPath>
</defs>
</svg>
