<svg width="40" height="40" viewBox="0 0 40 40" fill="none" xmlns="http://www.w3.org/2000/svg">
<g clip-path="url(#clip0_769_23722)">
<path d="M0 20C0 8.95431 8.95431 0 20 0C31.0457 0 40 8.95431 40 20C40 31.0457 31.0457 40 20 40C8.95431 40 0 31.0457 0 20Z" fill="#E94E0F"/>
<g clip-path="url(#clip1_769_23722)">
<path fill-rule="evenodd" clip-rule="evenodd" d="M-7 0.000976562H46.3333V40.001H-7V0.000976562Z" fill="#F4F5F8"/>
<path fill-rule="evenodd" clip-rule="evenodd" d="M-7 13.5426H46.3333V26.876H-7V13.5426Z" fill="#2D2A4A"/>
<path fill-rule="evenodd" clip-rule="evenodd" d="M-7 0.000976562H46.3333V6.87598H-7V0.000976562ZM-7 33.3343H46.3333V40.001H-7V33.3343Z" fill="#A51931"/>
</g>
</g>
<defs>
<clipPath id="clip0_769_23722">
<path d="M0 20C0 8.95431 8.95431 0 20 0C31.0457 0 40 8.95431 40 20C40 31.0457 31.0457 40 20 40C8.95431 40 0 31.0457 0 20Z" fill="white"/>
</clipPath>
<clipPath id="clip1_769_23722">
<rect width="53.3333" height="40" fill="white" transform="translate(-7 0.000976562)"/>
</clipPath>
</defs>
</svg>
