<svg width="340" height="208" viewBox="0 0 340 208" fill="none" xmlns="http://www.w3.org/2000/svg">
<rect width="340" height="204" transform="translate(0 4)" fill="#F8F9FB"/>
<rect y="192" width="340" height="16" fill="#F9D2C3"/>
<path d="M164.406 159.236C164.406 161.805 161.926 162.255 159.602 162.255C159.602 162.255 159.602 161.852 159.602 159.236C159.602 159.236 159.602 155.328 159.602 156.453C162.391 156.453 164.406 157.301 164.406 159.236Z" fill="#303642"/>
<line x1="158.5" y1="158.392" x2="160.58" y2="158.392" stroke="#303642" stroke-linecap="round"/>
<line x1="158.5" y1="159.994" x2="159.779" y2="159.994" stroke="#303642" stroke-linecap="round"/>
<path d="M162.288 159.313C178.704 160.915 157.484 186.94 179.905 186.94C202.326 186.94 194.5 154.5 202.5 156" stroke="#303642"/>
<path d="M111 63C111 61.8954 111.895 61 113 61H157C158.105 61 159 61.8954 159 63V193H111V63Z" fill="#FDEAC1"/>
<rect x="119" y="70" width="32" height="32" rx="2" fill="#E94E0F"/>
<rect x="119" y="106" width="32" height="4" rx="2" fill="#E94E0F"/>
<circle cx="132" cy="114" r="1" fill="#E4003A"/>
<circle cx="135" cy="114" r="1" fill="#F8AD07"/>
<circle cx="138" cy="114" r="1" fill="#870B58"/>
<path d="M104.253 160.302H102.2V194.014H104.253V160.302Z" fill="#303642"/>
<path d="M80 158.698L80 160.756L107.824 160.756L107.824 158.698L80 158.698Z" fill="#303642"/>
<path d="M86.0527 160.302H84V194.014H86.0527V160.302Z" fill="#303642"/>
<path d="M96.0603 138.452L95.5285 136.376L106.272 128.691L95.821 116.799L101.219 115.101L112.468 127.774C113.479 129.284 113 131.334 111.458 132.25L96.0603 138.452Z" fill="#870B58"/>
<path d="M64.4678 154.685V191.331H66.8878L70.2385 154.685H64.4678Z" fill="#F9D2C3"/>
<path d="M60.0002 194H62.2872L65.5847 192.922L64.5476 191.25L60.0002 193.461V194Z" fill="#E4003A"/>
<path d="M65.239 194H66.9675V191.25H64.5476L65.5847 192.922L65.239 194Z" fill="#E4003A"/>
<path d="M75.0244 154.459L69.4551 190.679L71.847 191.047L80.728 155.336L75.0244 154.459Z" fill="#F9D2C3"/>
<path d="M65.673 194.372L67.8905 193.812L70.8237 191.959L69.409 190.592L65.541 193.849L65.673 194.372Z" fill="#E4003A"/>
<path d="M70.7526 193.09L72.4285 192.667L71.7554 190L69.409 190.592L70.8238 191.959L70.7526 193.09Z" fill="#E4003A"/>
<path d="M103.719 144.654H80.1578L79.6791 117.258C79.7589 116.719 79.9184 116.233 80.1578 115.775C80.929 114.292 82.4714 113.321 84.1999 113.321H97.6028C99.8632 113.321 101.778 114.993 102.124 117.258L103.719 144.654Z" fill="#870B58"/>
<path d="M77.7112 160.213L64.4944 154.982C64.1753 149.993 66.356 146.65 69.9992 146.191L80.1312 144.654H103.719L103.187 147.728C101.991 154.658 96.0604 159.701 89.1196 159.701L77.7112 160.213Z" fill="#870B58"/>
<path d="M87.8695 113.321V116.152C87.8695 116.799 88.5875 117.177 89.1194 116.799L93.7732 113.321H87.8695Z" fill="#F9D2C3"/>
<path d="M93.8 109.357C92.6691 109.357 91.7523 108.464 91.7523 107.362C91.7523 106.26 92.6691 105.366 93.8 105.366C94.9309 105.366 95.8477 106.26 95.8477 107.362C95.8477 108.464 94.9309 109.357 93.8 109.357Z" fill="#303642"/>
<path d="M93.7849 106.701H91.2319V103.681H93.7849V106.701Z" fill="#303642"/>
<path d="M93.0818 105.312C93.0818 105.636 92.8159 105.906 92.4967 105.906C92.1776 105.906 91.9117 105.636 91.9117 105.312C91.9117 104.989 92.1776 104.719 92.4967 104.719C92.8425 104.746 93.0818 104.989 93.0818 105.312Z" fill="#F9D2C3"/>
<path d="M89.731 106.256H92.0446L93.7732 113.321H87.8695L89.731 106.256Z" fill="#F9D2C3"/>
<path d="M89.1727 108.953H91.0609C91.8852 108.953 92.5767 108.278 92.5767 107.416V101.807H86.4603V106.202C86.4868 107.712 87.6835 108.953 89.1727 108.953Z" fill="#F9D2C3"/>
<path d="M93.7998 103.694H87.9227C86.9122 103.694 86.1144 102.859 86.1144 101.861C86.1144 100.836 86.9388 100.027 87.9227 100.027H90.1566C92.1776 100 93.7998 101.645 93.7998 103.694Z" fill="#303642"/>
<path d="M72 136L80 143L81.3031 141.328L76.3879 136.162L84.5454 120.871L80.131 115.802L71.8936 132.818C71.6011 133.843 71.6277 134.948 72 136Z" fill="#870B58"/>
<path d="M77.3568 127.766L79.4461 125.34L79.6301 126.323L77.3568 127.766Z" fill="#FDEAC1"/>
<path d="M92.5501 140.648L87.3389 121L77.3568 127.766L82.8032 146.289L92.5501 140.648Z" fill="#F8AD07"/>
<path d="M94.574 138.049L93.2443 138.858C92.7922 139.128 92.2338 139.209 91.7019 139.047L90.0797 138.561C89.9734 138.534 89.9734 138.373 90.0797 138.346L92.0476 137.779C92.2604 137.726 92.4199 137.564 92.4465 137.348C92.5529 136.863 92.872 136.485 93.2975 136.296L94.0155 136L94.574 138.049Z" fill="#F9D2C3"/>
<path d="M80 142.672L80.9041 143.939C81.2232 144.371 81.7019 144.667 82.2338 144.748L83.9092 144.937C84.0155 144.937 84.0687 144.802 83.9889 144.748L82.3933 143.454C82.2338 143.319 82.154 143.103 82.2072 142.888C82.3136 142.402 82.154 141.917 81.8349 141.566L81.303 141L80 142.672Z" fill="#F9D2C3"/>
<path d="M74.5839 89.2331L81.294 96.6963L82.2049 95.7318L75.5231 88.2354L74.5839 89.2331Z" fill="#F8AD07"/>
<path d="M76.0034 97.5526L75.5952 98.7249L82.7827 100.703L83.2018 99.5097L76.0034 97.5526Z" fill="#F8AD07"/>
<path d="M85.5249 95.9469L84.8984 90.1396L83.6817 90.6395L84.2261 96.4929L85.5249 95.9469Z" fill="#F8AD07"/>
<path d="M75.5118 41.007C72.207 41.007 69.1026 41.7246 66.1984 43.0572C64.3959 39.9819 61.0911 37.8291 57.2857 37.8291C51.5775 37.8291 46.9709 42.5447 46.9709 48.3879C46.9709 48.4904 46.9709 48.5929 46.9709 48.6954C46.1697 48.4904 45.2685 48.3879 44.3672 48.3879C39.8607 48.3879 35.9551 50.8482 33.752 54.5386H48.9738H54.9824H65.5976H95.941C92.5362 46.5427 84.6248 41.007 75.5118 41.007Z" fill="#F9C145"/>
<path d="M296.154 10.7638C293.65 10.7638 291.147 11.0714 288.743 11.7889C288.243 5.22814 282.935 0 276.326 0C271.719 0 267.713 2.56281 265.51 6.35578C263.006 5.53568 260.403 5.02312 257.699 5.02312C253.092 5.02312 248.786 6.35578 245.181 8.61105C243.078 8.09849 240.775 7.79095 238.571 7.79095C227.355 7.79095 217.641 14.1467 212.534 23.4754H234.265H264.609H269.716H272.821H281.333H283.235H319.788C314.58 15.8894 305.968 10.7638 296.154 10.7638Z" fill="#F8BFCD"/>
<circle cx="222.127" cy="169.373" r="22.6269" stroke="#303642" stroke-width="3"/>
<circle cx="295.873" cy="169.373" r="22.6269" stroke="#303642" stroke-width="3"/>
<path d="M252.627 168.918L282.672 136.142H239.881L222.582 168.918H252.627ZM252.627 168.918L234.418 126.582M244.433 126.582H234.418M230.321 126.582H234.418" stroke="#F8AD07" stroke-width="3" stroke-linecap="round" stroke-linejoin="round"/>
<path d="M296.328 169.373L277.664 119H289" stroke="#F8AD07" stroke-width="3" stroke-linecap="round" stroke-linejoin="round"/>
</svg>
