<svg width="340" height="204" viewBox="0 0 340 204" fill="none" xmlns="http://www.w3.org/2000/svg">
<rect width="340" height="204" fill="#F8F9FB"/>
<rect x="274" y="169" width="8" height="8" rx="1" fill="#AAAEB8"/>
<rect y="188" width="340" height="16" fill="#F9D2C3"/>
<path d="M32.6771 139.655H30.865V191.214H32.6771V139.655Z" fill="#7783A0"/>
<path d="M126 139.655H124.188V191.214H126V139.655Z" fill="#7783A0"/>
<path d="M137 134.017H22V143.655H137V134.017Z" fill="#7783A0"/>
<path d="M84.812 114.338H74.5754V131.634H84.812V114.338Z" fill="#ADB4C6"/>
<path d="M91.6259 131.841H69.1245V133.913H91.6259V131.841Z" fill="#C8CDD9"/>
<path d="M108.961 120.483H50.3945C49.6338 120.483 49 119.793 49 118.964V81.8169C49 80.9883 49.6338 80.2979 50.3945 80.2979H108.961C109.722 80.2979 110.356 80.9883 110.356 81.8169V118.964C110.356 119.827 109.754 120.483 108.961 120.483Z" fill="#C8CDD9"/>
<path d="M106.94 117.408H52.0178C51.2889 117.408 50.6868 116.752 50.6868 115.958V83.8163C50.6868 83.0223 51.2889 82.3663 52.0178 82.3663H106.94C107.669 82.3663 108.271 83.0223 108.271 83.8163V115.958C108.271 116.752 107.669 117.408 106.94 117.408Z" fill="white"/>
<path d="M192.5 133.5C197 133.5 205 138 208.5 141.5C216.286 149.286 218.762 158.649 221.995 162.655C225.5 167 229.315 169.083 235.658 171.041C242 173 278.5 176.4 278.5 174" stroke="#303642"/>
<path d="M278.02 174.442C275.45 174.429 275.007 173.174 275.013 172C275.013 172 275.417 172.002 278.032 172.016C278.032 172.016 281.94 172.037 280.815 172.031C280.808 173.44 279.955 174.453 278.02 174.442Z" fill="#303642"/>
<path d="M193.805 133.986C193.805 136.555 191.325 137.006 189 137.006C189 137.006 189 136.602 189 133.986C189 133.986 189 130.078 189 131.203C191.79 131.203 193.805 132.051 193.805 133.986Z" fill="#303642"/>
<path d="M320.703 109.522C320.703 109.522 319.732 111.435 305.246 134.018C305.644 130.298 305.783 124.574 303.901 118.713C301.066 109.917 296.285 109.167 295.204 103.646C292.727 90.9888 312.378 66.3093 320.587 66.3954C328.597 66.4808 330.543 90.0907 320.703 109.522Z" fill="#F8AD07"/>
<path d="M294.164 117.802C297.415 119.614 299.94 122.487 301.316 125.938C301.524 126.458 301.701 126.991 301.844 127.533C302.658 130.739 302.964 134.054 302.751 137.356C302.025 136.524 301.067 135.929 299.998 135.645C297.744 135.038 295.754 135.915 294.184 136.136C289.627 136.779 287.154 132.065 285.106 128.152C284.665 127.332 279.66 117.755 282.556 115.066C283.472 114.215 285.441 112.832 294.164 117.802Z" fill="#F8AD07"/>
<path d="M329.48 118.61C325.046 122.92 321.93 122.788 319.086 127.137C317.888 128.973 318.074 129.524 316.979 130.961C314.335 134.336 309.77 135.7 306.151 136.314C306.731 135.559 307.651 134.298 308.715 132.69C311.537 128.375 312.01 126.321 315.473 120.289C317.701 116.389 319.349 114.937 320.699 113.872C321.942 112.894 322.187 112.985 324.675 111.531C330.889 107.912 334.198 104.565 335.477 105.334C335.607 105.422 335.711 105.543 335.778 105.685C336.952 107.78 334.179 114.038 329.48 118.61Z" fill="#F8AD07"/>
<path d="M299.658 154.084C300.946 142.348 305.844 130.987 305.898 130.892L307.027 131.009C306.979 131.12 302.175 142.285 300.909 153.816L299.658 154.084Z" fill="#F8AD07"/>
<path d="M318.814 147.23L286.387 147.311L280.966 172.85C280.557 174.772 280.585 176.761 281.047 178.671C281.508 180.581 282.393 182.363 283.635 183.887C284.877 185.412 286.445 186.64 288.226 187.482C290.006 188.323 291.952 188.757 293.923 188.752L311.413 188.711C313.384 188.704 315.328 188.259 317.104 187.407C318.881 186.556 320.444 185.32 321.68 183.789C322.916 182.258 323.794 180.472 324.25 178.561C324.705 176.649 324.727 174.661 324.312 172.74L318.814 147.23Z" fill="#E4003A"/>
<path d="M311.749 188.682L293.657 188.728L293.664 192.685L311.756 192.639L311.749 188.682Z" fill="#870B58"/>
<path d="M302.146 141.792C302.263 139.062 301.627 136.353 300.308 133.959L301.431 133.081C301.514 133.215 303.522 136.405 303.391 141.412L302.146 141.792Z" fill="#F8AD07"/>
<path d="M186.521 120.265L168.774 115.594L187.047 73.7287L197.807 76.4839L186.521 120.265Z" fill="#740048"/>
<path d="M193.111 79.3208L189.271 77.8446C188.825 77.6852 188.415 77.4394 188.065 77.1217C187.715 76.804 187.432 76.4208 187.233 75.9946C187.034 75.5685 186.923 75.1079 186.906 74.6401C186.889 74.1723 186.966 73.7066 187.134 73.2705C187.302 72.8344 187.556 72.4367 187.882 72.1008C188.208 71.7649 188.599 71.4975 189.032 71.3144C189.466 71.1313 189.932 71.0362 190.405 71.0346C190.878 71.0331 191.347 71.1252 191.784 71.3054L195.625 72.7816L193.111 79.3208Z" fill="#740048"/>
<path d="M170.04 187.903V191H171.609L171.896 189.996C171.912 189.913 172.506 190.01 172.824 189.833C172.918 189.781 172.999 189.708 173.06 189.62C173.121 189.532 173.159 189.431 173.173 189.325C173.187 189.219 173.175 189.112 173.139 189.011C173.102 188.911 173.043 188.82 172.964 188.747C172.59 188.372 172.196 188.016 171.784 187.68C171.174 187.253 170.331 187.227 170.05 187.903H170.04Z" fill="#F8AD07"/>
<path d="M174.958 189.339L172.645 188.17L171.723 187.459C171.59 187.353 171.43 187.284 171.261 187.259C171.057 187.231 170.848 187.267 170.666 187.362C170.483 187.457 170.336 187.606 170.244 187.789L170.04 187.899L171.902 189.983L174.513 190.987L174.602 190.953C174.757 190.892 174.894 190.795 175.001 190.669C175.108 190.544 175.183 190.394 175.218 190.233C175.253 190.073 175.248 189.906 175.203 189.748C175.157 189.59 175.073 189.445 174.958 189.327V189.339Z" fill="#F8AD07"/>
<path d="M174.958 189.339C174.855 189.318 174.748 189.325 174.648 189.357C174.548 189.389 174.458 189.446 174.387 189.523C174.316 189.599 174.266 189.693 174.243 189.794C174.219 189.895 174.222 190 174.252 190.1L174.512 191H177.381V190.481L174.958 189.339Z" fill="#F8AD07"/>
<path d="M170.038 157.76V187.903L172.313 187.915L175.793 157.796V157.76C175.816 157.373 175.758 156.986 175.624 156.622C175.49 156.257 175.282 155.924 175.012 155.642C174.743 155.36 174.418 155.135 174.057 154.981C173.697 154.828 173.308 154.748 172.915 154.748C172.523 154.749 172.134 154.828 171.774 154.982C171.413 155.136 171.089 155.361 170.819 155.642C170.55 155.924 170.342 156.258 170.207 156.622C170.073 156.986 170.016 157.373 170.038 157.76Z" fill="#F8BFCD"/>
<path d="M173.184 180.388L175.794 157.796V157.76C175.817 157.373 175.76 156.986 175.626 156.622C175.492 156.257 175.284 155.924 175.014 155.642C174.745 155.36 174.42 155.135 174.059 154.981C173.699 154.828 173.31 154.748 172.917 154.748C172.524 154.748 172.135 154.827 171.774 154.981C171.414 155.134 171.088 155.359 170.818 155.641C170.549 155.923 170.34 156.257 170.206 156.621C170.071 156.985 170.013 157.373 170.036 157.76V180.048" fill="#EA3F6B"/>
<path d="M172.917 127.746C172.334 127.745 171.756 127.862 171.22 128.09C170.684 128.317 170.2 128.651 169.8 129.07C169.4 129.49 169.091 129.985 168.892 130.527C168.693 131.068 168.609 131.645 168.644 132.22L170.089 157.576C170.225 158.993 171.603 160.146 173.046 160.112C173.736 160.106 174.399 159.841 174.898 159.37C175.397 158.898 175.694 158.256 175.729 157.576L177.174 132.22C177.21 131.646 177.126 131.071 176.928 130.531C176.73 129.99 176.423 129.495 176.024 129.076C175.625 128.657 175.144 128.323 174.61 128.094C174.076 127.866 173.5 127.747 172.917 127.746Z" fill="#F8BFCD"/>
<path d="M172.917 127.746C172.334 127.745 171.756 127.862 171.22 128.09C170.684 128.317 170.2 128.651 169.8 129.07C169.4 129.49 169.091 129.985 168.892 130.527C168.693 131.068 168.609 131.645 168.644 132.22L170.089 157.576C170.225 158.993 171.603 160.146 173.046 160.112C173.736 160.106 174.399 159.841 174.898 159.37C175.397 158.898 175.694 158.256 175.729 157.576L177.174 132.22C177.21 131.646 177.126 131.071 176.928 130.531C176.73 129.99 176.423 129.495 176.024 129.076C175.625 128.657 175.144 128.323 174.61 128.094C174.076 127.866 173.5 127.747 172.917 127.746Z" fill="#EA3F6B"/>
<path d="M179.384 187.903V191H180.952L181.239 189.996C181.258 189.913 181.85 190.01 182.167 189.833C182.262 189.781 182.342 189.708 182.403 189.62C182.464 189.532 182.502 189.431 182.516 189.325C182.53 189.22 182.519 189.112 182.483 189.012C182.447 188.911 182.388 188.82 182.31 188.747C181.88 188.345 181.366 187.869 181.113 187.688C180.503 187.261 179.658 187.235 179.38 187.911L179.384 187.903Z" fill="#F8AD07"/>
<path d="M184.3 189.339L181.986 188.17L181.066 187.46C180.932 187.354 180.772 187.285 180.602 187.259C180.398 187.231 180.19 187.267 180.007 187.362C179.825 187.457 179.677 187.607 179.585 187.789L179.382 187.899L181.241 189.984L183.852 190.987L183.941 190.953C184.096 190.892 184.233 190.795 184.34 190.669C184.448 190.544 184.522 190.394 184.557 190.233C184.592 190.073 184.587 189.906 184.542 189.748C184.497 189.59 184.413 189.446 184.298 189.327L184.3 189.339Z" fill="#F8AD07"/>
<path d="M184.296 189.339C184.193 189.319 184.086 189.325 183.986 189.358C183.887 189.39 183.797 189.447 183.726 189.524C183.655 189.6 183.606 189.693 183.582 189.794C183.559 189.895 183.562 190.001 183.591 190.1L183.852 190.999H186.719V190.481L184.296 189.339Z" fill="#F8AD07"/>
<path d="M179.388 157.742V187.915H181.585L185.024 157.782V157.742C185.047 157.363 184.992 156.982 184.861 156.625C184.73 156.267 184.526 155.94 184.262 155.663C183.998 155.386 183.68 155.165 183.326 155.014C182.972 154.863 182.591 154.785 182.206 154.784C181.821 154.785 181.439 154.862 181.086 155.013C180.732 155.164 180.413 155.385 180.149 155.662C179.885 155.939 179.682 156.267 179.551 156.624C179.42 156.982 179.364 157.363 179.388 157.742Z" fill="#F8BFCD"/>
<path d="M182.485 180.048L185.026 157.782V157.742C185.049 157.363 184.994 156.982 184.863 156.625C184.732 156.267 184.528 155.94 184.264 155.663C184 155.386 183.682 155.165 183.328 155.014C182.974 154.863 182.593 154.785 182.208 154.784C181.822 154.784 181.441 154.862 181.087 155.013C180.733 155.164 180.414 155.384 180.15 155.662C179.886 155.939 179.682 156.266 179.551 156.624C179.42 156.982 179.364 157.362 179.388 157.742V180.388" fill="#EA3F6B"/>
<path d="M182.218 127.722C181.634 127.721 181.057 127.838 180.52 128.066C179.984 128.293 179.501 128.627 179.101 129.046C178.7 129.466 178.391 129.961 178.193 130.503C177.994 131.045 177.91 131.621 177.945 132.196L179.39 157.552C179.528 158.971 180.904 160.124 182.346 160.088C183.038 160.084 183.701 159.818 184.2 159.347C184.7 158.875 184.997 158.233 185.032 157.552L186.477 132.196C186.512 131.622 186.429 131.047 186.231 130.506C186.033 129.966 185.725 129.471 185.326 129.052C184.927 128.633 184.446 128.298 183.911 128.07C183.377 127.841 182.801 127.723 182.218 127.722Z" fill="#F8BFCD"/>
<path d="M182.218 127.722C181.634 127.721 181.057 127.838 180.52 128.066C179.984 128.293 179.501 128.627 179.101 129.046C178.7 129.466 178.391 129.961 178.193 130.503C177.994 131.045 177.91 131.621 177.945 132.196L179.39 157.552C179.528 158.971 180.904 160.124 182.346 160.088C183.038 160.084 183.701 159.818 184.2 159.347C184.7 158.875 184.997 158.233 185.032 157.552L186.477 132.196C186.512 131.622 186.429 131.047 186.231 130.506C186.033 129.966 185.725 129.471 185.326 129.052C184.927 128.633 184.446 128.298 183.911 128.07C183.377 127.841 182.801 127.723 182.218 127.722Z" fill="#EA3F6B"/>
<path d="M183.736 134.776L171.43 135.121C169.959 135.121 168.742 133.75 168.653 131.993L168.734 123.308C168.657 121.652 169.44 120.112 170.706 119.435L172.702 118.367C176.222 116.401 179.846 116.841 183.327 118.903L184.9 119.793C186.131 120.487 186.886 122.001 186.811 123.632L186.514 131.649C186.434 133.406 185.213 134.776 183.736 134.776Z" fill="#F8AD07"/>
<path d="M192.831 130.22L192.868 131.178C192.882 131.471 192.964 131.757 193.108 132.014C193.252 132.271 193.454 132.492 193.698 132.659C193.797 132.743 193.873 132.85 193.92 132.97C193.967 133.089 193.984 133.219 193.968 133.346L193.719 135.877C193.723 135.906 193.735 135.934 193.754 135.957C193.773 135.981 193.797 135.999 193.825 136.009C193.853 136.02 193.883 136.023 193.913 136.018C193.942 136.014 193.97 136.001 193.993 135.982L195.321 134.341C195.523 134.078 195.669 133.777 195.751 133.456C195.833 133.135 195.849 132.8 195.797 132.472L195.516 130.596L195.254 130.11C195.16 129.937 195.028 129.788 194.866 129.674C194.705 129.561 194.519 129.486 194.324 129.456C194.129 129.425 193.93 129.441 193.743 129.5C193.556 129.56 193.385 129.662 193.246 129.798L192.831 130.22Z" fill="#F8BFCD"/>
<path d="M191.141 114.962C190.274 114.789 189.492 114.323 188.93 113.645C188.368 112.966 188.06 112.117 188.06 111.243L189.365 92.2404C189.365 91.6837 189.482 91.1342 189.708 90.6265C189.934 90.1188 190.265 89.664 190.679 89.2909C191.092 88.9178 191.581 88.6346 192.113 88.459C192.645 88.2835 193.208 88.2195 193.769 88.2711C194.833 88.3656 195.821 88.8711 196.519 89.6783C197.216 90.4855 197.567 91.5294 197.495 92.584L194.368 112.526C193.879 114.438 192.835 115.379 191.144 114.954L191.141 114.962Z" fill="#E4003A"/>
<path d="M195.518 130.608L192.833 130.221L188.151 112.072L188.146 112.057C188.045 111.667 188.077 111.257 188.234 110.888C188.392 110.519 188.668 110.213 189.02 110.016C191.009 108.901 193.077 109.504 194.072 111.56L194.172 111.771C194.289 112.012 194.354 112.274 194.362 112.541L195.518 130.608Z" fill="#E4003A"/>
<path d="M171.5 105C171.5 105 170.188 106.072 169.094 112.036C168 118 165.476 141.633 165.476 141.633L188.595 137.125L187.624 114.705L187.5 110.5C187.677 109.392 186.631 108.193 185.494 108.197L173.311 102.869C172.169 102.875 171.5 105 171.5 105Z" fill="#E4003A"/>
<path d="M193.849 97.1174L194.794 88.4952L181.469 83.373L175.52 91.5903C174.458 92.757 173.737 94.1896 173.434 95.7361L171.876 103.617C171.768 104.171 171.863 104.746 172.142 105.241C172.422 105.735 172.868 106.117 173.403 106.319L184.703 110.585C185.239 110.789 185.829 110.799 186.368 110.612C186.906 110.425 187.359 110.053 187.644 109.564L191.819 104.372C193.091 102.162 193.789 99.6696 193.849 97.1174Z" fill="#E4003A"/>
<path d="M159.246 118.564L158.782 119.403C158.644 119.661 158.569 119.947 158.562 120.24C158.556 120.532 158.618 120.823 158.744 121.088C158.789 121.209 158.802 121.339 158.784 121.466C158.765 121.593 158.716 121.713 158.639 121.816L157.133 123.863C157.121 123.89 157.116 123.92 157.12 123.949C157.123 123.979 157.134 124.007 157.153 124.03C157.171 124.054 157.195 124.072 157.222 124.084C157.25 124.095 157.28 124.099 157.31 124.095L159.297 123.353C159.607 123.229 159.887 123.045 160.122 122.81C160.357 122.576 160.542 122.297 160.665 121.99L161.382 120.239L161.299 119.71C161.264 119.489 161.179 119.277 161.05 119.092C160.92 118.907 160.75 118.753 160.553 118.642C160.355 118.531 160.135 118.466 159.909 118.451C159.683 118.437 159.457 118.474 159.248 118.559L159.246 118.564Z" fill="#F8BFCD"/>
<path d="M165.373 104.635C164.743 104.017 164.349 103.203 164.256 102.333C164.164 101.463 164.38 100.591 164.866 99.8668L176.572 84.8402C176.883 84.3793 177.287 83.988 177.76 83.6911C178.233 83.3943 178.763 83.1984 179.318 83.1157C179.873 83.0331 180.441 83.0656 180.984 83.211C181.528 83.3565 182.037 83.6119 182.477 83.961C183.317 84.6218 183.864 85.5813 183.998 86.6319C184.132 87.6824 183.844 88.7393 183.195 89.5739L169.435 104.387C167.956 105.705 166.561 105.92 165.374 104.636L165.373 104.635Z" fill="#E4003A"/>
<path d="M161.378 120.244L159.246 118.564L164.354 101.034C164.433 100.762 164.535 100.497 164.658 100.243C164.744 100.071 164.864 99.9183 165.011 99.7937C165.158 99.6691 165.328 99.575 165.513 99.517L168.418 98.5944C168.646 98.5219 168.889 98.5064 169.126 98.5493C169.362 98.5922 169.585 98.692 169.775 98.8401C169.964 98.9882 170.114 99.1798 170.211 99.3981C170.308 99.6164 170.35 99.8546 170.332 100.092L169.454 104.076C169.439 104.279 169.38 104.477 169.282 104.655L161.38 120.243L161.378 120.244Z" fill="#E4003A"/>
<path d="M190.451 86.8712L192.584 79.8289L189.451 78.6243L186.272 85.2307C185.658 86.5003 186.091 87.9704 187.421 88.4815C188.754 88.994 190.042 88.2133 190.451 86.8712Z" fill="#F8BFCD"/>
<path d="M195.35 75.0429L191.991 73.7514C191.487 73.5578 190.928 73.5695 190.437 73.7841C189.945 73.9987 189.562 74.3985 189.371 74.8956L188.723 76.5824C188.48 76.489 188.21 76.4947 187.974 76.5981C187.737 76.7016 187.552 76.8943 187.46 77.1338C187.368 77.3734 187.376 77.6403 187.482 77.8757C187.589 78.1111 187.785 78.2958 188.028 78.3891L187.226 80.4751C187.047 80.9464 187.064 81.4701 187.273 81.9326C187.482 82.3951 187.865 82.7589 188.341 82.9452L190.751 83.8716C191.107 84.01 191.487 84.0777 191.869 84.0708C192.25 84.064 192.626 83.9828 192.974 83.8318C193.322 83.6808 193.637 83.463 193.899 83.1909C194.161 82.9188 194.366 82.5976 194.502 82.2459L196.387 77.3429C196.471 77.1259 196.512 76.8941 196.505 76.6609C196.499 76.4276 196.446 76.1975 196.35 75.9838C196.253 75.77 196.116 75.5769 195.944 75.4154C195.773 75.2539 195.571 75.1273 195.35 75.0429Z" fill="#F8BFCD"/>
<path d="M194.002 77.1742L188.304 74.984L189.619 72.7768L195.625 72.7816L199.29 74.1906L198.625 75.9224C198.051 77.4143 196.039 77.9576 194.002 77.1742Z" fill="#740048"/>
<path d="M78.6 136.3H68.5V152H78.6V136.3Z" fill="#870B58"/>
<path d="M75.9999 155.6H71.0999V176.4H75.9999V155.6Z" fill="#870B58"/>
<path d="M78.9998 140.6H68.0998C61.5998 140.6 56.2998 135.3 56.2998 128.8C56.2998 122.3 61.5998 117 68.0998 117H78.8998C85.3998 117 90.6998 122.3 90.6998 128.8C90.7998 135.3 85.4998 140.6 78.9998 140.6Z" fill="#E94E0F"/>
<path d="M86.7998 155.6H60.2998C58.0998 155.6 56.2998 153.8 56.2998 151.6C56.2998 149.4 58.0998 147.6 60.2998 147.6H86.7998C88.9998 147.6 90.7998 149.4 90.7998 151.6C90.7998 153.8 88.9998 155.6 86.7998 155.6Z" fill="#E94E0F"/>
<path d="M89.9999 187.2H87.9999C87.9999 181.8 83.5999 177.4 78.1999 177.4H68.3999C62.9999 177.4 58.5999 181.8 58.5999 187.2H56.5999C56.5999 180.7 61.8999 175.4 68.3999 175.4H78.1999C84.6999 175.4 89.9999 180.7 89.9999 187.2Z" fill="#870B58"/>
<path d="M60.2 187.7C60.2 189.1 59 190.3 57.6 190.3C56.2 190.3 55 189.1 55 187.7C55 186.3 56.2 185.1 57.6 185.1C59.1 185.1 60.2 186.2 60.2 187.7Z" fill="#870B58"/>
<path d="M88.9999 190.3C90.4358 190.3 91.5999 189.136 91.5999 187.7C91.5999 186.264 90.4358 185.1 88.9999 185.1C87.564 185.1 86.3999 186.264 86.3999 187.7C86.3999 189.136 87.564 190.3 88.9999 190.3Z" fill="#870B58"/>
<path d="M73.2999 190.3C74.7359 190.3 75.8999 189.136 75.8999 187.7C75.8999 186.264 74.7359 185.1 73.2999 185.1C71.864 185.1 70.7 186.264 70.7 187.7C70.7 189.136 71.864 190.3 73.2999 190.3Z" fill="#870B58"/>
<path d="M74.2998 176.4H72.2998V187.7H74.2998V176.4Z" fill="#870B58"/>
<path d="M283.971 39.3579V25H269.694V39.3579H283.971Z" fill="#F9D2C3"/>
<path d="M283.971 56.571V42.2131H269.694V56.571H283.971Z" fill="#F9D2C3"/>
<path d="M283.971 73.787V59.4291H269.694V73.787H283.971Z" fill="#F9D2C3"/>
<path d="M283.971 91V76.6421H269.694V91H283.971Z" fill="#F9D2C3"/>
<path d="M267.125 39.3579V25H252.848V39.3579H267.125Z" fill="#F9D2C3"/>
<path d="M267.122 56.5709V42.213H252.846V56.5709H267.122Z" fill="#F9D2C3"/>
<path d="M267.125 73.784V59.4261H252.849V73.784H267.125Z" fill="#F9D2C3"/>
<path d="M267.122 91V76.6421H252.846V91H267.122Z" fill="#F9D2C3"/>
<path d="M250.28 39.3579V25H236.003V39.3579H250.28Z" fill="#F9D2C3"/>
<path d="M250.277 56.571V42.2131H236V56.571H250.277Z" fill="#F9D2C3"/>
<path d="M250.277 73.7869V59.4291H236V73.7869H250.277Z" fill="#F9D2C3"/>
<path d="M250.277 90.9999V76.6421H236V90.9999H250.277Z" fill="#F9D2C3"/>
<path d="M104.411 118.551L106.256 118.423L107.034 129.869L105.201 129.983L104.411 118.551Z" fill="#F8AD07"/>
<path d="M107.138 131.375L105.293 131.502L105.406 133.135C105.42 133.339 105.587 133.482 105.795 133.467L106.886 133.392C107.094 133.378 107.239 133.214 107.225 133.01L107.138 131.375Z" fill="#F17F9C"/>
<path d="M107.154 131.633L107.014 129.612L105.177 129.739L105.316 131.76L107.154 131.633Z" fill="#C8CDD9"/>
<path d="M104.765 118.757L104.957 118.513L105.286 118.746C105.314 118.77 105.366 118.766 105.39 118.739L105.684 118.462L105.908 118.678C105.95 118.713 106.002 118.71 106.038 118.669L106.23 118.425L105.613 116.48C105.593 116.392 104.762 116.449 104.743 116.553L104.399 118.564L104.623 118.779C104.676 118.801 104.728 118.798 104.765 118.757Z" fill="#FDEAC1"/>
<path d="M105.626 116.492L105.178 115.1C105.162 115.063 105.12 115.027 105.056 115.044C105.018 115.06 104.994 115.087 104.996 115.113L104.743 116.553L105.626 116.492Z" fill="#242831"/>
<path d="M107.05 130.045L107.038 129.865L105.2 129.992L105.213 130.172L107.05 130.045Z" fill="#929BB3"/>
<path d="M107.062 130.356L107.05 130.175L105.213 130.302L105.225 130.483L107.062 130.356Z" fill="#929BB3"/>
<path d="M107.121 131.066L107.108 130.886L105.271 131.013L105.283 131.193L107.121 131.066Z" fill="#929BB3"/>
<path d="M107.133 131.376L107.12 131.196L105.283 131.323L105.296 131.503L107.133 131.376Z" fill="#929BB3"/>
<path d="M110.753 130.711L108.93 130.401L110.866 119.093L112.674 119.413L110.753 130.711Z" fill="#F8AD07"/>
<path d="M111.119 117.605L112.942 117.915L113.217 116.301C113.251 116.099 113.122 115.922 112.917 115.887L111.839 115.703C111.633 115.669 111.453 115.794 111.419 115.995L111.119 117.605Z" fill="#F17F9C"/>
<path d="M111.165 117.35L110.825 119.347L112.641 119.656L112.98 117.659L111.165 117.35Z" fill="#C8CDD9"/>
<path d="M110.458 130.427L110.214 130.619L109.949 130.314C109.928 130.285 109.876 130.276 109.846 130.297L109.495 130.497L109.328 130.235C109.296 130.191 109.245 130.182 109.2 130.213L108.956 130.405L109.099 132.44C109.097 132.531 109.918 132.67 109.961 132.574L110.768 130.7L110.602 130.438C110.554 130.404 110.503 130.396 110.458 130.427Z" fill="#FDEAC1"/>
<path d="M109.088 132.425L109.197 133.884C109.203 133.924 109.235 133.968 109.301 133.967C109.342 133.961 109.372 133.94 109.376 133.915L109.961 132.574L109.088 132.425Z" fill="#242831"/>
<path d="M110.892 118.918L110.862 119.096L112.677 119.405L112.708 119.227L110.892 118.918Z" fill="#929BB3"/>
<path d="M110.953 118.613L110.923 118.791L112.738 119.1L112.769 118.922L110.953 118.613Z" fill="#929BB3"/>
<path d="M111.064 117.909L111.033 118.087L112.849 118.396L112.879 118.218L111.064 117.909Z" fill="#929BB3"/>
<path d="M111.125 117.604L111.094 117.783L112.91 118.091L112.94 117.913L111.125 117.604Z" fill="#929BB3"/>
<rect x="106.957" y="117.726" width="2.84064" height="8.16683" fill="#E94E0F"/>
<rect x="106.602" y="117.726" width="0.35508" height="8.16683" fill="#E3E6EF"/>
<path d="M103.222 123.97C103.166 123.383 103.628 122.876 104.217 122.876H112.455C113.049 122.876 113.513 123.392 113.449 123.983L112.453 133.19C112.399 133.698 111.97 134.083 111.459 134.083H105.088C104.573 134.083 104.141 133.691 104.093 133.177L103.222 123.97Z" fill="#870B58"/>
<path d="M147.584 107.233L154.294 114.696L155.205 113.732L148.523 106.235L147.584 107.233Z" fill="#F8AD07"/>
<path d="M149.003 115.553L148.595 116.725L155.783 118.703L156.202 117.51L149.003 115.553Z" fill="#F8AD07"/>
<path d="M158.525 113.947L157.898 108.14L156.682 108.639L157.226 114.493L158.525 113.947Z" fill="#F8AD07"/>
<path d="M159 120.986C159 123.555 161.48 124.006 163.804 124.006C163.804 124.006 163.804 123.602 163.804 120.986C163.804 120.986 163.804 117.079 163.804 118.203C161.015 118.203 159 119.051 159 120.986Z" fill="#303642"/>
<line x1="0.5" y1="-0.5" x2="2.57984" y2="-0.5" transform="matrix(-1 0 0 1 165.406 120.643)" stroke="#303642" stroke-linecap="round"/>
<line x1="0.5" y1="-0.5" x2="1.77908" y2="-0.5" transform="matrix(-1 0 0 1 165.406 122.244)" stroke="#303642" stroke-linecap="round"/>
<path d="M159.5 121C143.084 122.602 145.421 163 123 163C100.579 163 99.7113 130.888 91.7113 132.388" stroke="#303642"/>
</svg>
