<svg width="40" height="40" viewBox="0 0 40 40" fill="none" xmlns="http://www.w3.org/2000/svg">
<g clip-path="url(#clip0_769_23754)">
<path d="M0 20C0 8.95431 8.95431 0 20 0C31.0457 0 40 8.95431 40 20C40 31.0457 31.0457 40 20 40C8.95431 40 0 31.0457 0 20Z" fill="#E94E0F"/>
<g clip-path="url(#clip1_769_23754)">
<path d="M-7 0.000976562H46.3333V40.001H-7V0.000976562Z" fill="#00247D"/>
<path d="M2.00833 29.551C1.45 29.5426 7.24167 26.4676 12.0833 22.5176C18.4333 17.3426 32.1083 9.06764 36.1333 7.71764C36.55 7.57597 35.275 8.43431 35.1083 8.70931C30.8167 13.7926 34.2417 23.376 39.6083 28.201C41.225 29.4343 41.1417 29.501 44.1333 29.6176V29.901L2.00833 29.551ZM1.65833 30.1093C1.65833 30.1093 1.25 30.401 1.25 30.6176C1.25 30.8593 1.70833 31.176 1.70833 31.176L43.25 31.6343L44.0167 31.126L42.95 30.4676L1.65833 30.1093Z" fill="#FED100"/>
<path d="M1.89992 9.09265L1.56659 10.1093L2.43325 9.48431L3.29159 10.1093L2.96659 9.09265L3.82492 8.46765H2.75825L2.43325 7.45098L2.09992 8.46765H1.03325L1.89992 9.09265ZM8.40825 13.876L9.12492 13.351H8.23325L7.95825 12.5093L7.68325 13.351H6.79992L7.51659 13.876L7.24158 14.7176L7.95825 14.1926L8.68325 14.7176L8.40825 13.876ZM-3.69175 14.9593L-4.02508 13.9426L-4.35008 14.9593H-5.41675L-4.55841 15.5843L-4.88341 16.601L-4.02508 15.976L-3.15841 16.601L-3.49175 15.5843L-2.62508 14.9593H-3.69175ZM2.81659 25.151L2.43325 23.9676L2.04992 25.151H0.799919L1.80825 25.876L1.42492 27.0676L2.43325 26.3343L3.44159 27.0676L3.04992 25.876L4.05825 25.151H2.81659Z" fill="white"/>
</g>
</g>
<defs>
<clipPath id="clip0_769_23754">
<path d="M0 20C0 8.95431 8.95431 0 20 0C31.0457 0 40 8.95431 40 20C40 31.0457 31.0457 40 20 40C8.95431 40 0 31.0457 0 20Z" fill="white"/>
</clipPath>
<clipPath id="clip1_769_23754">
<rect width="53.3333" height="40" fill="white" transform="translate(-7 0.000976562)"/>
</clipPath>
</defs>
</svg>
