<svg width="40" height="40" viewBox="0 0 40 40" fill="none" xmlns="http://www.w3.org/2000/svg">
<g clip-path="url(#clip0_769_23995)">
<path d="M0 20C0 8.95431 8.95431 0 20 0C31.0457 0 40 8.95431 40 20C40 31.0457 31.0457 40 20 40C8.95431 40 0 31.0457 0 20Z" fill="#E94E0F"/>
<g clip-path="url(#clip1_769_23995)">
<path d="M-7 -0.000976562H46.3333V39.999H-7V-0.000976562Z" fill="white"/>
<path fill-rule="evenodd" clip-rule="evenodd" d="M31.6417 39.999L-7 0.0823568V39.9824L31.6417 39.999ZM7.69167 -0.000976562L46.3333 39.9157V0.0156901L7.69167 -0.000976562Z" fill="#E00000"/>
<path fill-rule="evenodd" clip-rule="evenodd" d="M-4.69165 0.0156918H5.19168L44.2083 39.9574H34.0167L-4.69165 0.0156918Z" fill="black"/>
</g>
</g>
<defs>
<clipPath id="clip0_769_23995">
<path d="M0 20C0 8.95431 8.95431 0 20 0C31.0457 0 40 8.95431 40 20C40 31.0457 31.0457 40 20 40C8.95431 40 0 31.0457 0 20Z" fill="white"/>
</clipPath>
<clipPath id="clip1_769_23995">
<rect width="53.3333" height="40" fill="white" transform="translate(-7 -0.000976562)"/>
</clipPath>
</defs>
</svg>
