<svg width="40" height="40" viewBox="0 0 40 40" fill="none" xmlns="http://www.w3.org/2000/svg">
<g clip-path="url(#clip0_769_23553)">
<path d="M0 20C0 8.95431 8.95431 0 20 0C31.0457 0 40 8.95431 40 20C40 31.0457 31.0457 40 20 40C8.95431 40 0 31.0457 0 20Z" fill="#E94E0F"/>
<g clip-path="url(#clip1_769_23553)">
<path d="M46.3333 40.0005V0.000488281H-7V40.0005H46.3333Z" fill="#000066"/>
<path d="M40.875 16.6422C40.875 21.9505 40.025 27.6838 33.125 30.4172C26.2417 27.6838 25.4 21.9505 25.3667 16.6422H40.875Z" fill="#8FC5FF" stroke="white" stroke-width="0.358333"/>
<path d="M33.1168 30.3922C35.7398 29.4737 37.9265 27.6109 39.2501 25.1672H38.6001C38.4085 25.1338 31.9835 24.5172 31.2085 24.1922C30.5501 23.9588 28.0085 24.4172 26.8418 24.8422C28.1305 27.4403 30.3863 29.4298 33.1251 30.3838L33.1168 30.3922Z" fill="#366CC9" stroke="black" stroke-width="0.358333"/>
<path d="M28.2999 27.1338H28.6916C28.7833 27.1338 28.7833 27.1338 28.8166 27.0338C28.8499 26.9338 28.9499 26.9672 29.0166 27.0005C29.0749 27.0338 29.2083 27.0005 29.2666 26.9338C29.3416 26.8672 29.3416 26.8672 29.4083 26.9338C29.4666 27.0005 29.4999 26.9672 29.5749 26.9338C29.5999 26.9338 29.7333 26.8672 29.7666 26.7672C29.7916 26.6755 29.8916 26.6422 29.9333 26.7088C29.9583 26.7755 30.0166 26.7755 30.0916 26.7755C30.1499 26.7755 30.1499 26.8005 30.1499 26.9005C30.1499 26.9672 30.1499 27.0005 30.3166 26.8672C30.4499 27.0005 30.4833 26.9338 30.4833 26.8005C30.4833 26.6755 30.4833 26.1505 30.4166 26.1172C30.3499 26.0838 30.3166 25.8588 30.2833 25.7005C30.2833 25.3672 30.2833 25.3672 29.9583 25.2005C29.9583 25.1172 29.8916 25.0755 29.6249 25.0755C29.6666 25.0422 29.6249 24.9505 29.5666 24.9088C29.4999 24.8838 29.4999 24.8505 29.5666 24.7172C29.6333 24.7172 29.7666 24.7172 29.7916 24.6172C29.8583 24.5588 30.0583 24.5588 30.1833 24.6172C30.3166 24.6838 30.4499 24.6838 30.6749 24.6172L31.0666 24.4255C31.2333 24.3255 31.2583 24.2922 31.2583 24.1672C31.2583 23.8338 31.1666 23.5172 31.0916 23.3505C31.0083 23.1838 31.0083 23.0172 30.8666 22.7338C30.7416 22.4672 30.7416 22.4005 30.6166 22.2422C30.5416 22.1755 30.5083 22.1422 30.5083 22.0505C30.4986 21.9218 30.4387 21.8021 30.3416 21.7172C30.0916 21.4922 30.0249 20.7422 29.8916 20.1922C29.8249 19.8588 29.8916 19.1088 29.7666 18.9838C29.5333 18.8172 29.4333 18.8505 29.2666 18.7922C29.1416 18.6255 29.1083 18.3338 28.9833 18.0422C28.8166 18.0755 28.7166 18.2338 28.6249 18.2922C28.5249 18.3672 28.4916 18.3672 28.4916 18.5255C28.4916 18.6588 28.3916 18.8588 28.2666 19.1088C28.1333 19.3755 27.8416 19.2755 27.6083 19.6338C27.1583 19.0838 27.1583 18.9172 27.1249 18.7588C27.1249 18.5922 27.0249 18.5588 26.7666 18.3338V17.8338C26.5333 17.6672 26.4083 17.7088 26.3083 17.8338C26.2083 17.9338 26.1416 18.0922 25.9833 18.1672C25.9166 18.2922 25.6499 18.5505 25.4583 18.9172C25.6583 21.8422 26.3083 24.7755 28.2916 27.1255L28.2999 27.1338Z" fill="#5D3100" stroke="black" stroke-width="0.0333333"/>
<path d="M40.875 16.6422C40.875 14.6172 40.775 12.6588 40.8084 10.9755C38.3571 10.0222 35.7467 9.54429 33.1167 9.56716C31.3917 9.56716 28 9.82549 25.4334 10.9672C25.4917 12.6588 25.3667 14.6172 25.3667 16.6338L40.875 16.6422Z" fill="#FFFF00" stroke="white" stroke-width="0.358333"/>
<path d="M25.7917 18.9505C25.8751 19.0838 26.0334 19.3088 26.0417 19.4505C26.1084 19.3172 26.1584 19.2672 26.1667 19.1922C26.1667 19.1088 26.2751 18.9672 26.2334 18.8838C26.2001 18.8005 26.1751 18.7422 26.2667 18.8005C26.3584 18.8588 26.3417 18.9672 26.3251 19.1172C26.2667 19.5338 26.1001 19.6172 26.0751 19.8922C26.3167 20.4755 26.1334 20.6922 26.4084 21.2755C26.4501 21.2922 26.5584 21.2505 26.5917 21.2588C26.7417 21.1588 26.8417 21.1838 27.0501 21.2338C27.2501 21.2755 27.3584 21.4172 27.3584 21.5505C27.3584 21.6838 27.3584 21.7088 27.4084 21.7838C27.4501 21.8505 27.5251 21.9755 27.5167 22.0672C27.4917 22.1505 27.5251 22.2005 27.5584 22.2338C27.5834 22.2755 27.5417 22.3838 27.5251 22.4338C27.5001 22.4838 27.5084 22.5755 27.6084 22.7005C27.7084 22.8255 27.9417 23.3588 27.9417 23.6672C27.9417 23.9922 27.9667 24.1338 28.0917 24.1922C28.2167 24.2505 28.2584 24.3005 28.2417 24.4338C28.2251 24.5588 28.3001 25.2672 28.3167 25.3838C28.3251 25.4922 28.3751 25.4672 28.4334 25.5255C28.4834 25.5838 28.5167 25.6505 28.6834 25.6505C28.8584 25.6505 29.0167 25.6338 29.1167 25.6505C29.2834 25.8588 29.3667 26.1505 29.4084 26.3255C29.4501 26.5088 29.4417 26.7422 29.4917 26.7422C29.5584 26.7422 29.6167 26.7422 29.6001 26.5338C29.5834 26.3172 29.5667 26.2838 29.4917 26.1672C29.4084 26.0588 29.3667 26.0005 29.4084 25.9422C29.4501 25.8755 29.4584 25.7755 29.4501 25.6838C29.4334 25.6005 29.4001 25.4672 29.5501 25.6338L29.7751 25.9088C29.8167 25.9588 29.8334 26.0755 29.8251 26.1838C29.8167 26.2838 29.8251 26.3255 29.9001 26.2672C29.9584 26.2172 30.0251 26.3088 29.9834 26.4172C29.9584 26.5255 30.0084 26.5922 30.1084 26.6338C30.2084 26.6672 30.2501 26.6922 30.2751 26.7672C30.3001 26.8338 30.3834 26.8755 30.3834 26.7172C30.3752 26.522 30.3416 26.3287 30.2834 26.1422C30.2417 26.0422 30.2084 25.8255 30.2001 25.6922C30.1834 25.5672 30.1667 25.5338 30.1084 25.5172C30.0501 25.4922 29.9917 25.4338 29.9834 25.3838C29.9834 25.3255 29.9251 25.3005 29.8917 25.3005C29.8501 25.3005 29.8167 25.2755 29.7917 25.2338C29.7751 25.1838 29.7501 25.1838 29.7084 25.1838C29.6667 25.1755 29.6001 25.2005 29.5751 25.1338C29.5584 25.0672 29.5251 24.9672 29.4834 24.9172C29.4417 24.8672 29.4084 24.8422 29.4001 24.6505C29.4001 24.4588 29.4001 24.4338 29.3334 24.3672C29.2667 24.3005 29.1667 24.1172 29.1251 24.0505C29.0917 23.9672 29.0417 23.8922 29.0417 24.0505C29.0417 24.2172 29.0417 24.3005 29.1501 24.3588C29.2501 24.4172 29.2751 24.4172 29.2334 24.5088C29.1834 24.5922 29.2334 24.6505 29.2501 24.7088C29.2751 24.7672 29.3001 24.8255 29.2501 24.8755C29.2001 24.9422 29.1501 24.9255 29.1584 24.8338C29.1588 24.737 29.1329 24.642 29.0834 24.5588C29.0501 24.4755 29.0084 24.4255 28.9584 24.4755C28.9084 24.5088 28.8667 24.4588 28.9001 24.4255C28.9417 24.3922 28.9251 24.3672 28.9001 24.3422C28.8834 24.3255 28.8667 24.2922 28.9084 24.2422C28.9501 24.1922 28.9501 24.1672 28.9251 24.0505C28.9001 23.9338 28.7167 23.3338 28.6334 23.2005C28.5501 23.0588 28.5584 22.9672 28.6584 23.0922C28.7667 23.2255 28.8667 23.3422 28.8834 23.4588C28.8834 23.5755 28.9084 23.6422 28.9417 23.6755C28.9834 23.7172 29.0001 23.7088 29.0251 23.6088C29.0251 23.5172 29.1084 23.5505 28.9917 23.3755C28.8667 23.2005 28.6501 22.9005 28.5584 22.3588C28.4751 21.8255 28.4417 21.4838 28.3584 21.3422C28.2751 21.1922 28.2501 21.1588 28.2417 21.0255C28.2334 20.8922 28.2417 20.7505 28.1834 20.6505C28.1251 20.5505 28.0834 20.5338 28.0751 20.6838C28.0667 20.8338 28.0751 21.1838 28.1251 21.2338C28.1751 21.2922 28.1417 21.4505 28.1251 21.5255C28.1084 21.6088 27.9834 21.7005 28.2667 21.8672C28.3751 21.9422 28.3501 22.0338 28.3501 22.0838C28.3251 22.1505 28.3084 22.1422 28.2501 22.0505C28.1917 21.9588 28.1334 21.8755 28.0751 21.8338C28.0167 21.7922 28.0001 21.7505 28.0167 21.6255C28.0334 21.5005 28.0417 21.4172 28.0167 21.3755C27.9834 21.3422 27.9667 21.3671 27.9417 21.4421C27.9251 21.5088 27.9167 21.6922 27.8667 21.7422C27.8251 21.7922 27.8251 21.7588 27.8001 21.6505C27.7667 21.5422 27.8084 21.3672 27.8667 21.1755C27.9251 20.9922 27.9667 20.7755 27.9167 20.5255C27.8667 20.2755 27.8834 20.1922 27.7001 19.9838C27.5001 19.7672 27.2751 19.5672 27.1917 19.3088C27.0917 19.0422 27.0751 18.8088 26.9667 18.6922C26.8729 18.5721 26.7604 18.468 26.6334 18.3838V17.9922C26.6334 17.8922 26.5917 17.8422 26.4834 17.8588C26.3751 17.8755 26.3001 17.9672 26.2334 18.0922C26.1667 18.2255 26.1167 18.1672 26.0167 18.3838C25.9167 18.6005 25.8001 18.7172 25.8001 18.9505H25.7917Z" fill="#CF6200"/>
<path d="M26.4 21.4255C26.4834 21.4755 26.5417 21.5005 26.65 21.4505C26.7417 21.4005 26.8584 21.2505 27.0084 21.4005C27.135 21.5593 27.2054 21.7557 27.2084 21.9588C27.2084 22.1505 27.2084 22.5005 27.425 22.6922C27.6417 22.8838 27.75 23.0922 27.7584 23.3422C27.7757 23.595 27.8148 23.846 27.875 24.0922C27.9084 24.1922 27.9584 24.3088 28.0334 24.3838C28.0917 24.4505 28.15 24.6422 28.1584 24.8422C28.1667 25.0505 28.1334 25.1838 28.1584 25.2922C28.1917 25.3922 28.1584 25.4755 28.0917 25.4338C28.0084 25.3922 27.9917 25.3505 27.9417 25.2672C27.8917 25.1838 27.8584 25.1922 27.9 25.3255C27.9417 25.4588 28.0667 25.5755 28.175 25.5755C28.2834 25.5755 28.3167 25.5838 28.3917 25.6588C28.4584 25.7255 28.4667 25.7588 28.5834 25.7588C28.7 25.7588 28.7167 25.7588 28.8334 25.7922C28.9417 25.8172 28.9417 25.8088 29 25.7922C29.0584 25.7672 29.1167 25.8255 29.1584 25.9338C29.1917 26.0422 29.3 26.3505 29.3 26.4338C29.3 26.5172 29.3 26.6005 29.3584 26.6838C29.4167 26.7755 29.4 26.8505 29.3334 26.8088C29.275 26.7588 29.2667 26.7672 29.225 26.7838C29.175 26.8005 29.1417 26.7672 29.0667 26.7172C29 26.6838 29.0417 26.6922 28.975 26.5922C28.9084 26.4838 28.8667 26.4505 28.8667 26.5338C28.8667 26.6172 28.85 26.7005 28.8 26.6505C28.75 26.6088 28.725 26.6088 28.6834 26.6505C28.6417 26.7005 28.625 26.7338 28.575 26.6505C28.525 26.5672 28.4667 26.5672 28.4084 26.5422C28.3667 26.5338 28.3667 26.5338 28.3417 26.4588C28.3167 26.3755 28.2334 26.3588 28.175 26.3588C28.1 26.3588 28.0667 26.3255 28.0584 26.2755C28.0584 26.2255 28.0084 26.1922 27.975 26.1672C27.9334 26.1422 27.9584 26.0838 27.95 26.0255C27.95 25.9672 27.8917 25.9838 27.8584 25.9755C27.8167 25.9588 27.8 25.9672 27.8 25.8755C27.8 25.7922 27.7584 25.7672 27.7417 25.7088C27.7084 25.6422 27.7417 25.5838 27.7584 25.5255C27.7667 25.4422 27.7584 25.4088 27.7084 25.3588C27.6584 25.2922 27.7084 25.2338 27.5667 25.1088C27.425 25.0005 27.3584 25.1005 27.3167 24.8255C27.2927 24.5013 27.2255 24.1818 27.1167 23.8755C27.0334 23.7922 26.9917 23.7088 26.9084 23.6838C26.825 23.6588 26.7917 23.6838 26.7834 23.5172C26.775 23.3505 26.725 23.1505 26.6167 23.0505L26.425 22.8672C26.375 22.8338 26.35 22.7505 26.425 22.6172C26.5 22.4672 26.4667 22.2672 26.4584 22.1755C26.45 22.0922 26.425 21.9588 26.4417 21.8588C26.4584 21.7588 26.4417 21.6338 26.425 21.5672C26.4 21.5088 26.3667 21.4838 26.4084 21.4255H26.4ZM28.4417 19.0255C28.331 19.1721 28.199 19.3013 28.05 19.4088C27.8917 19.5255 27.6917 19.6088 27.8 19.8005C27.9167 19.9922 28.0084 20.0172 28.025 20.1588C28.05 20.3088 28.0917 20.4338 28.1917 20.4672C28.3167 20.5005 28.3584 20.4838 28.3584 20.7172C28.3584 20.9422 28.3584 21.0505 28.4584 21.1338C28.5584 21.2172 28.5417 21.3172 28.5917 21.5255C28.6417 21.7422 28.6417 22.2088 28.775 22.5255C28.9 22.8338 29.2167 23.4422 29.175 23.5588C29.1417 23.6838 29.1084 23.7755 29.2334 23.9255C29.375 24.0672 29.4584 24.2838 29.4834 24.4088C29.4834 24.5338 29.5084 24.5755 29.65 24.5338C29.7424 24.5106 29.8263 24.4614 29.8917 24.3922C29.9334 24.3338 30.025 24.3422 30.15 24.4088C30.275 24.4838 30.4667 24.5422 30.5834 24.4838C30.6917 24.4088 30.75 24.3088 30.85 24.3088C31.0084 24.1922 31.0667 23.9588 31.1 23.8922C31.1334 23.8255 31.1084 23.8255 31.0417 23.7588C30.975 23.6922 31.0084 23.5755 31 23.4672C30.9834 23.3505 30.9417 23.1755 30.8084 22.9255C30.675 22.6755 30.5834 22.3755 30.5 22.3005C30.4167 22.2172 30.3667 22.0255 30.3584 21.9338C30.35 21.8505 30.2417 21.7672 30.175 21.7005C30.1 21.6255 30.0417 21.5338 29.9584 21.1338C29.875 20.7422 29.825 20.4672 29.825 20.3838C29.825 20.3172 29.8084 20.3172 29.7417 20.2838C29.675 20.2588 29.6417 20.1505 29.675 20.1005C29.6834 20.0422 29.6417 19.9838 29.6167 19.9172C29.6 19.8505 29.6167 19.7255 29.6667 19.6505C29.7084 19.5838 29.7 19.4005 29.6584 19.2338C29.6167 19.0838 29.5667 18.9505 29.3834 18.9172C29.2084 18.9005 29.1667 18.8505 29.1084 18.7005C29.025 18.5588 28.9584 18.3005 28.9417 18.2422C28.925 18.1838 28.8834 18.1755 28.75 18.2922C28.6167 18.4005 28.5667 18.4338 28.5667 18.6505C28.5667 18.7922 28.6 18.8338 28.6417 18.9088C28.6834 18.9922 28.7 19.0172 28.725 19.2255C28.7584 19.4338 28.95 19.7755 28.7084 19.9755C28.4584 20.1588 28.4917 20.2088 28.5 20.3422C28.5167 20.4838 28.4334 20.5672 28.3917 20.3838C28.3417 20.1838 28.3917 20.0755 28.525 19.9838C28.6584 19.9005 28.7834 19.7755 28.6917 19.6505C28.6117 19.4772 28.5637 19.2909 28.55 19.1005C28.5417 18.9672 28.525 18.9172 28.4417 19.0255Z" fill="#CF6200"/>
<path d="M26.4332 21.9005L26.4582 22.1755C26.4582 22.2672 26.4915 22.4672 26.4165 22.6088C26.3499 22.7505 26.3665 22.8255 26.4165 22.8672H26.4249C26.5665 22.8255 26.5915 22.6755 26.5499 22.6005C26.5319 22.5606 26.5241 22.517 26.527 22.4734C26.5299 22.4298 26.5435 22.3876 26.5665 22.3505C26.6082 22.2672 26.6082 22.2255 26.5665 22.1672C26.5249 22.1088 26.5249 22.1088 26.5665 21.9505C26.6165 21.8088 26.5082 21.8088 26.4332 21.9005ZM27.8832 24.0922C27.8582 23.9922 27.7582 23.5922 27.7582 23.3422C27.7499 23.0922 27.6332 22.8838 27.4249 22.6922C27.2582 22.5422 27.2249 22.3005 27.2082 22.1088C27.0832 22.0338 27.0415 22.0672 27.0499 22.2088C27.0499 22.3588 27.2165 22.4255 27.1915 22.6505C27.1665 22.8672 27.1665 22.8172 27.2749 22.9255C27.3665 23.0255 27.4165 23.1422 27.3582 23.1755C27.2999 23.2172 27.2999 23.3005 27.3749 23.3255C27.4582 23.3588 27.4582 23.4422 27.4499 23.5255C27.4415 23.6005 27.5249 23.6172 27.5582 23.6672C27.6082 23.7255 27.6082 23.8672 27.5582 23.9422C27.5249 24.0255 27.5165 24.1505 27.5915 24.0838C27.6749 24.0088 27.7082 24.0838 27.7665 24.1838C27.8165 24.2672 27.8665 24.2422 27.9332 24.2255C27.9092 24.1832 27.8897 24.1385 27.8749 24.0922H27.8832ZM28.9665 26.0588C28.9332 26.1588 28.8749 26.1338 28.8249 26.0838C28.7749 26.0338 28.7165 26.0338 28.7415 25.9338C28.7582 25.8422 28.7415 25.8255 28.6832 25.7755L28.6582 25.7505H28.5915C28.4665 25.7505 28.4582 25.7255 28.3832 25.6505C28.3698 25.6387 28.3559 25.6276 28.3415 25.6172V25.6838C28.3415 25.7755 28.3415 25.7505 28.2582 25.7838C28.1749 25.8088 28.1749 25.6922 28.1582 25.6172C28.1569 25.6003 28.1541 25.5835 28.1499 25.5672C28.09 25.5538 28.035 25.5241 27.9909 25.4815C27.9467 25.4389 27.9153 25.3849 27.8999 25.3255C27.8582 25.1922 27.8999 25.1838 27.9499 25.2672C27.9999 25.3505 28.0082 25.3755 28.0832 25.4338C28.1499 25.4755 28.1832 25.3922 28.1499 25.2922C28.1453 25.2562 28.1453 25.2198 28.1499 25.1838C28.1374 25.1495 28.114 25.1202 28.0832 25.1005C27.9332 25.0422 27.9832 25.0338 27.9832 24.9172C27.9999 24.8088 27.9749 24.8088 27.8832 24.8672C27.7999 24.9255 27.7999 24.8672 27.7999 24.6838C27.7999 24.5172 27.6832 24.5172 27.6582 24.6338C27.6332 24.7588 27.5832 24.6755 27.5415 24.5088C27.4999 24.3422 27.4165 24.2922 27.4165 24.4588C27.4165 24.6005 27.3665 24.6255 27.2832 24.5588L27.3165 24.8172C27.3582 25.0922 27.4249 24.9838 27.5665 25.1088C27.6999 25.2255 27.6582 25.2922 27.7082 25.3505C27.7582 25.4088 27.7665 25.4505 27.7582 25.5172C27.7332 25.5838 27.7082 25.6422 27.7332 25.7005C27.7582 25.7672 27.7999 25.7838 27.7999 25.8755C27.7999 25.9588 27.8165 25.9505 27.8582 25.9755H27.9249L27.9832 25.8922C28.0915 25.7922 28.2332 25.8922 28.2915 26.0338C28.3415 26.1588 28.3999 26.1922 28.4832 26.0838C28.5665 25.9838 28.5332 26.0005 28.6165 26.0922C28.6999 26.1922 28.7332 26.1755 28.7332 26.1755C28.7332 26.1755 28.8165 26.1422 28.8832 26.1922C28.9415 26.2422 28.9665 26.2338 29.0832 26.0755C29.1915 25.9088 29.0332 25.9588 28.9832 26.0588H28.9665ZM29.2832 21.4088C29.3165 21.1588 29.2915 20.9172 29.3915 20.8255C29.4999 20.7422 29.6165 20.5505 29.6165 20.9422C29.5999 21.3255 29.5832 21.3005 29.5082 21.3922C29.4249 21.4838 29.3582 21.5088 29.4249 21.6505C29.5165 21.7922 29.5249 21.8172 29.5165 22.0338C29.5082 22.2588 29.5082 22.3588 29.5915 22.4672C29.6832 22.5838 29.7082 22.5838 29.7332 22.7172C29.7594 22.8599 29.8293 22.9909 29.9332 23.0922C30.0332 23.1922 30.1499 23.4422 30.1582 23.6255C30.1749 23.8088 30.3249 23.8505 30.4749 23.9838C30.6249 24.1088 30.4415 24.1922 30.3332 24.1338C30.2165 24.0838 30.2582 24.1338 30.1915 24.2172C30.1249 24.3005 30.1082 24.3088 30.0499 24.1672C29.9915 24.0338 29.7999 23.9422 29.7082 23.9088C29.6165 23.8755 29.5415 23.7255 29.4582 23.5755C29.4248 23.5164 29.3779 23.4661 29.3215 23.4285C29.265 23.3908 29.2005 23.367 29.1332 23.3588C29.1665 23.4505 29.1832 23.5255 29.1749 23.5588C29.1415 23.6838 29.1082 23.7755 29.2332 23.9255C29.3749 24.0672 29.4582 24.2838 29.4832 24.4088C29.4832 24.5338 29.5082 24.5755 29.6499 24.5338C29.7405 24.5063 29.8233 24.4578 29.8915 24.3922C29.9332 24.3338 30.0249 24.3338 30.1499 24.4088C30.2749 24.4755 30.4665 24.5422 30.5832 24.4755C30.6915 24.4005 30.7499 24.3088 30.8499 24.3088C31.0082 24.1922 31.0665 23.9505 31.0999 23.8922C31.1332 23.8088 31.1082 23.8088 31.0415 23.7505C30.9749 23.6838 31.0082 23.5672 30.9915 23.4588C30.9915 23.3422 30.9415 23.1755 30.8082 22.9255C30.6665 22.6755 30.5832 22.3755 30.4999 22.3005C30.4165 22.2172 30.3582 22.0255 30.3582 21.9338C30.3415 21.8505 30.2415 21.7672 30.1749 21.6922C30.0999 21.6255 30.0332 21.5255 29.9582 21.1338C29.8999 20.8255 29.8415 20.5838 29.8332 20.4672C29.7499 20.5922 29.6915 20.6338 29.6665 20.5338C29.6249 20.4338 29.5915 20.3838 29.5415 20.4505C29.4999 20.5172 29.4832 20.3838 29.4832 20.3255C29.4832 20.2672 29.4832 20.2672 29.4082 20.2672C29.3415 20.2672 29.4082 20.1838 29.3832 20.0005C29.3582 19.8338 29.3249 19.8172 29.3082 20.0172C29.2832 20.2172 29.1665 20.3505 29.2165 20.3838C29.2582 20.4338 29.2332 20.5255 29.1915 20.6588C29.1551 20.7555 29.1551 20.8621 29.1915 20.9588C29.2249 21.0422 29.1749 21.2255 29.1582 21.3672C29.1332 21.5088 29.2499 21.6588 29.2832 21.4172V21.4088ZM27.2165 19.3922C27.1332 19.3922 27.0749 19.4755 27.1249 19.7255C27.1582 19.8922 27.0415 19.8588 26.9915 19.7755C26.9499 19.6922 26.9082 19.5255 26.8249 19.3838C26.7332 19.2422 26.7749 19.4755 26.7665 19.6172C26.7499 19.7588 26.8415 19.7588 26.9165 19.8672C26.9999 19.9838 26.9332 20.0255 26.8499 20.0255C26.7665 20.0255 26.7915 20.2088 26.8165 20.3255C26.8415 20.4505 26.7915 20.4755 26.7332 20.3755C26.6499 20.2672 26.7082 20.1255 26.7165 19.9255C26.7332 19.7338 26.7415 19.7755 26.6165 19.7338C26.4915 19.6838 26.5082 19.6588 26.5665 19.5505C26.6082 19.4338 26.6499 19.3838 26.5915 19.3255C26.5415 19.2672 26.5499 19.2338 26.6415 19.2255C26.7249 19.2088 26.6915 19.1422 26.7749 19.1255C26.8582 19.1005 26.8915 19.1255 26.8999 18.9838C26.9082 18.8588 26.9499 18.7922 27.0415 18.8255C27.0999 19.0172 27.1665 19.3088 27.2165 19.3922ZM28.3582 20.7255C28.3582 20.9588 28.3582 21.0588 28.4582 21.1422C28.5582 21.2255 28.5415 21.3255 28.5915 21.5338C28.6415 21.7505 28.6415 22.2172 28.7749 22.5338L28.9249 22.8672C28.9953 22.8077 29.0522 22.7338 29.0915 22.6505C29.1165 22.5838 29.0165 22.4172 28.9415 22.2922C28.8582 22.1422 28.9499 22.1005 29.0249 21.9255C29.1082 21.7672 29.0249 21.7588 28.8915 21.7088C28.7749 21.6672 28.7749 21.5422 28.7082 21.3672C28.6415 21.1838 28.6499 21.1088 28.6915 21.0005C28.7332 20.9005 28.7082 20.8255 28.6165 20.8005C28.5249 20.7755 28.5499 20.7172 28.5832 20.6005C28.6165 20.4922 28.6415 20.4672 28.4999 20.4922C28.3999 20.5255 28.3749 20.5505 28.3415 20.5755L28.3582 20.7255Z" fill="#00B800"/>
<path d="M29.6583 21.1922C29.6416 21.3255 29.6416 21.4005 29.6083 21.4422C29.5749 21.4838 29.5999 21.5505 29.6333 21.6255C29.6749 21.6922 29.6833 21.7755 29.6583 21.9088C29.6249 22.0338 29.6749 22.1255 29.7416 22.1588C29.8083 22.1922 29.8416 22.1588 29.8249 22.3255C29.8179 22.3972 29.8269 22.4696 29.8514 22.5374C29.8759 22.6051 29.9153 22.6666 29.9666 22.7172C30.0499 22.7838 30.1083 22.8922 30.0916 22.9672C30.0916 23.0338 30.1499 23.0922 30.2333 23.1338C30.3166 23.1672 30.2999 23.1755 30.2999 23.2172C30.2999 23.2588 30.3333 23.2672 30.4166 23.2922C30.4999 23.3172 30.5833 23.3672 30.6833 23.4922C30.7833 23.6255 30.9333 23.6838 30.9083 23.5505C30.8833 23.4255 30.9083 23.3172 30.7749 23.2588C30.6333 23.1922 30.5333 22.8672 30.4833 22.6422C30.4218 22.4208 30.3074 22.2178 30.1499 22.0505C30.1249 21.8838 30.1499 21.8088 30.0499 21.7338C30.007 21.7037 29.9718 21.6638 29.9472 21.6175C29.9226 21.5711 29.9092 21.5196 29.9083 21.4672C29.9083 21.4005 29.8583 21.3005 29.8083 21.2672C29.7666 21.2422 29.7416 21.1922 29.7416 21.1172C29.7416 21.0505 29.6749 21.0588 29.6583 21.2005V21.1922Z" fill="#5D3100"/>
<path d="M29.0583 27.2505C29.3367 27.2079 29.6084 27.1295 29.8667 27.0172C30.0083 27.1088 30.2417 27.2338 30.3417 27.2338C30.15 27.2755 30.0167 27.2588 29.975 27.2172C30 27.2755 30.0583 27.3755 30.1083 27.3838C29.9167 27.3838 29.7083 27.3338 29.6417 27.2672C29.475 27.3338 29.2083 27.3505 29.0583 27.2505ZM29.4167 27.5005C29.4917 27.5255 29.85 27.5838 29.9 27.5838C29.7833 27.6838 29.8833 27.7838 30.075 27.7672C29.9917 27.7838 29.875 27.8172 29.95 27.8338C30.2044 27.8307 30.456 27.7798 30.6917 27.6838C30.525 27.8922 29.7417 28.0838 29.4167 27.5005ZM29.75 28.0088C29.8964 27.9726 30.0503 27.9813 30.1917 28.0338C30.075 28.0838 29.8167 28.0838 29.7417 28.0172L29.75 28.0088Z" fill="#00D860"/>
<path d="M30.1084 28.0088C30.2751 27.9838 30.7751 28.0922 30.9418 27.9922C30.8834 28.1505 30.5834 28.1755 30.4668 28.1338C30.3584 28.1088 30.2584 28.0672 30.1834 28.0672C30.2334 28.0422 30.1668 28.0422 30.1001 28.0088H30.1084Z" fill="black"/>
<path d="M30.2832 28.2505C30.5364 28.2575 30.7892 28.2266 31.0332 28.1588C31.1749 28.2088 31.4832 28.2922 31.5499 28.2838C31.4082 28.3672 31.1332 28.3172 31.0499 28.2838C30.9274 28.3345 30.7953 28.3579 30.6628 28.3521C30.5304 28.3463 30.4008 28.3117 30.2832 28.2505Z" fill="#00D860"/>
<path d="M30.5 28.3255C30.6916 28.3672 30.8583 28.3422 31.0416 28.2838C31.1 28.3005 31.2333 28.3338 31.3666 28.3338C31.45 28.3755 31.5583 28.4422 31.675 28.4588C31.4649 28.4875 31.2511 28.4676 31.05 28.4005C30.8214 28.394 30.594 28.4367 30.3833 28.5255C30.3874 28.4859 30.4008 28.4479 30.4226 28.4145C30.4443 28.3812 30.4737 28.3535 30.5083 28.3338L30.5 28.3255Z" fill="#00D860"/>
<path d="M30.2835 27.3838C30.4251 27.4255 30.9668 27.4005 31.2251 27.2755C31.3418 27.2172 31.4085 27.3088 31.2835 27.3422C30.8501 27.5088 30.4918 27.5588 30.2418 27.4255C30.1418 27.3755 30.1251 27.3255 30.2835 27.3755V27.3838Z" fill="black"/>
<path d="M32.8833 26.6505C32.225 26.9588 31.8 27.0505 30.8917 26.7672C30.8083 26.7505 30.75 26.7672 30.8417 26.8255C31.069 26.9238 31.3066 26.9965 31.55 27.0422C31.6667 27.0505 31.625 27.1005 31.55 27.1255C31.4833 27.1422 31.4667 27.1922 31.5583 27.1588C31.65 27.1172 32.2083 27.1005 32.4333 27.2172C32.525 27.2755 32.55 27.2588 32.5417 27.2172C32.5333 27.1838 32.5833 27.1588 32.6583 27.1505C32.725 27.1422 32.775 27.1172 32.7167 27.1005C32.6583 27.0755 32.65 27.0588 32.6917 27.0422C32.7333 27.0172 32.7417 26.9922 32.675 26.9838C32.6167 26.9672 32.5667 26.9505 32.625 26.9255C32.6939 26.8953 32.7669 26.8756 32.8417 26.8672C32.8583 26.8255 32.8333 26.7005 32.8833 26.6505Z" fill="#00D860"/>
<path d="M31.8001 26.7255C32.3168 26.7331 32.8193 26.5558 33.2168 26.2255C33.3501 26.3088 33.5251 26.3922 33.6251 26.4088C33.7168 26.4255 33.7917 26.5088 33.6501 26.5088C33.5084 26.5088 33.3168 26.4505 33.2168 26.4088C32.7918 26.6691 32.2977 26.7941 31.8001 26.7672C31.7084 26.7672 31.6834 26.7255 31.8001 26.7338V26.7255Z" fill="black"/>
<path d="M30.6916 24.6922C30.8249 24.7838 31.0499 24.9338 31.3416 24.9088C31.4826 25.0217 31.6438 25.1065 31.8166 25.1588C31.6166 25.2255 31.3999 25.3005 31.3499 25.3588C31.2666 25.2755 31.1416 25.2922 31.1166 25.2422C31.0333 25.3255 31.0416 25.3505 31.0999 25.3922C31.2891 25.4484 31.4861 25.4737 31.6833 25.4672C31.7833 25.4338 31.8249 25.5255 31.7333 25.5505C31.5083 25.6338 31.0666 25.5505 30.9166 25.3088C30.7499 25.0672 30.6249 24.9755 30.2083 25.2005C30.1666 25.0755 30.1666 25.0588 30.0833 25.0588C29.9999 25.0588 29.8499 24.9505 29.9666 24.9505C30.0833 24.9505 30.4166 24.9005 30.6916 24.7005V24.6922Z" fill="#00D860"/>
<path d="M30.7999 25.2505C30.7165 25.2588 30.5249 25.3672 30.4582 25.3755C30.3832 25.3922 30.2582 25.4922 30.3832 25.4922C30.5249 25.4922 30.6915 25.3505 30.7832 25.3505C30.8749 25.3505 30.8832 25.2255 30.7999 25.2422V25.2505ZM31.2165 25.6672C31.1582 25.6838 30.9415 25.7338 30.8832 25.7338C30.8249 25.7338 30.7582 25.7338 30.7665 25.7838C30.7749 25.8255 30.7915 25.8588 30.6915 25.8422C30.6082 25.8255 30.5332 25.8672 30.5165 25.8922C30.4915 25.9172 30.4749 25.9422 30.5665 25.9505C30.6499 25.9505 30.6999 25.9755 30.8082 25.9172C30.9082 25.8672 30.9999 25.8088 31.1082 25.8005C31.2165 25.8005 31.3249 25.6505 31.2082 25.6755L31.2165 25.6672Z" fill="#00D860"/>
<path d="M30.9083 25.9255C31 26.0005 31.4583 26.1422 31.6167 26.1422C31.7833 26.1338 31.7583 26.2005 31.6333 26.2255C31.4916 26.2464 31.3471 26.2372 31.2093 26.1985C31.0714 26.1597 30.9433 26.0922 30.8333 26.0005C30.7333 25.9172 30.8333 25.8838 30.9 25.9255H30.9083Z" fill="black"/>
<path d="M33.0668 26.1672C32.7898 26.2452 32.4979 26.2538 32.2168 26.1922C32.0751 26.1422 31.9418 26.1422 32.0501 26.2422C32.1335 26.3338 32.4501 26.3922 32.6335 26.3505C32.0001 26.4922 31.8335 26.4838 31.6835 26.4588C31.49 26.4353 31.2947 26.4297 31.1001 26.4422C31.0072 26.4572 30.9118 26.4456 30.8251 26.4088C30.7668 26.3672 30.7501 26.3172 30.9168 26.3338C31.0835 26.3422 31.1085 26.3172 30.9668 26.2922C30.8168 26.2672 30.6251 26.3255 30.8168 26.4588C31.0168 26.5755 31.4335 26.4422 31.7085 26.5255C31.9488 26.5881 32.2007 26.592 32.4429 26.5369C32.6851 26.4818 32.9105 26.3692 33.1001 26.2088C33.1251 26.1922 33.1751 26.1255 33.0668 26.1588V26.1672ZM31.3501 25.6422C31.3668 25.6922 31.3668 25.7255 31.3501 25.7588C31.3335 25.7922 31.3418 25.8338 31.3918 25.7922C31.4418 25.7505 31.4751 25.6922 31.5418 25.7255C31.6001 25.7505 31.7335 25.7505 31.7918 25.7422C31.8585 25.7422 31.8751 25.7172 31.7918 25.6838C31.7154 25.651 31.6332 25.634 31.5501 25.6338C31.5001 25.6422 31.4335 25.6338 31.3918 25.6088C31.3501 25.5838 31.3418 25.6088 31.3501 25.6422Z" fill="#00D860"/>
<path d="M32.2499 25.8088C32.1833 25.8088 32.0499 25.7588 31.9916 25.7255C31.9249 25.7005 31.8249 25.7005 31.8916 25.8088C31.9666 25.9088 32.2749 25.9505 32.3916 25.9088C32.4999 25.8588 32.4583 25.8088 32.5583 25.8755C32.6749 25.9422 32.7833 25.9838 32.8666 25.9838C32.9499 25.9838 32.9749 25.9838 32.8916 25.9338C32.8083 25.8838 32.7583 25.8755 32.7416 25.8338C32.7249 25.7922 32.7249 25.7588 32.8166 25.7922C32.8999 25.8172 32.9833 25.8588 33.0499 25.8255C33.1166 25.7922 33.2333 25.7172 33.3416 25.7172L33.3583 25.6505C33.2083 25.6505 33.1083 25.6922 33.0666 25.7005C33.0333 25.7172 32.9499 25.7338 32.8666 25.7172C32.7833 25.7005 32.6833 25.6922 32.6583 25.6755C32.6249 25.6505 32.6333 25.6338 32.6999 25.6255C32.7666 25.6088 32.7833 25.5672 32.6999 25.5755C32.6166 25.5922 32.3499 25.5922 32.2166 25.5505C32.0916 25.5088 32.0333 25.5005 31.9833 25.5255C31.9249 25.5422 31.9333 25.6088 32.0083 25.6088C32.0916 25.6088 32.2749 25.6338 32.3416 25.6922C32.3916 25.7505 32.3916 25.7505 32.3249 25.7255C32.2499 25.6922 32.1166 25.7088 32.2499 25.8088Z" fill="#00D860"/>
<path d="M33.3583 25.6505L33.3333 25.7172C33.4916 25.7172 33.8666 25.7505 33.9999 25.8255C34.1166 25.7338 34.0916 25.7005 34.1666 25.7255C34.2499 25.7505 34.3666 25.7672 34.4166 25.7505C34.4545 25.7288 34.4993 25.7228 34.5416 25.7338C34.5916 25.7338 34.7083 25.7172 34.7666 25.6838C34.8333 25.6422 34.9666 25.6005 35.0416 25.6005C35.1083 25.6005 35.2083 25.5755 35.0666 25.5505C34.9333 25.5255 34.7166 25.5755 34.6499 25.6005C34.5666 25.6255 34.3583 25.6422 34.2333 25.6422C34.1083 25.6422 33.9333 25.7005 33.7916 25.6672C33.6416 25.6338 33.4416 25.6505 33.3499 25.6505H33.3583Z" fill="#00D860"/>
<path d="M35.3251 25.5838C35.0751 25.7672 34.7584 25.8088 34.4001 25.8338C34.2918 25.8338 34.3251 25.8672 34.4168 25.8755C34.8001 25.9172 35.2334 25.7755 35.3834 25.6255C35.4251 25.5755 35.4168 25.5088 35.3251 25.5755V25.5838Z" fill="black"/>
<path d="M33.5918 26.0172C33.798 26.0481 34.0014 26.0955 34.2001 26.1588C34.3001 26.1422 34.3251 26.1255 34.3085 26.0838C34.2835 26.0505 34.2751 26.0172 34.4501 26.0338H35.0751C35.1418 26.0088 35.2668 25.9088 35.3251 25.9088C35.1751 25.9088 34.5335 25.9422 34.4585 25.9338C34.3751 25.9338 34.3335 25.9338 34.2835 25.9672C34.2335 25.9922 34.2085 26.0088 34.1418 25.9755C34.0585 25.9505 33.9668 25.9172 33.8918 25.9672C33.8418 26.0005 33.7001 25.9672 33.5918 26.0172Z" fill="#00D860"/>
<path d="M35.0751 26.0338C35.1334 26.0088 35.2668 25.9088 35.3251 25.9005C35.4418 25.8922 35.5584 25.9338 35.6168 25.9505C35.6751 25.9672 35.7418 25.9505 35.7001 25.9005C35.6668 25.8588 35.7001 25.7672 35.8668 25.7922C36.0501 25.8088 36.1334 25.8422 36.3084 25.8255C36.4834 25.8088 36.5501 25.9338 36.8668 25.8088C36.8501 25.9338 36.9084 25.9422 36.9668 25.9172C37.0251 25.9005 37.0918 25.9005 37.1918 25.9755C37.3001 26.0588 37.9168 26.0588 38.0584 26.0338C38.2084 26.0088 38.2751 26.0838 38.1668 26.1172C38.0584 26.1505 38.0334 26.2005 38.0584 26.2422C38.0834 26.2755 38.1084 26.3172 37.9751 26.3005C37.8334 26.2838 37.8084 26.3255 37.7501 26.3672C37.6834 26.4172 37.6668 26.4505 37.4751 26.4088C37.2918 26.3755 37.2501 26.4005 37.1501 26.4088C37.0501 26.4255 37.0251 26.4338 36.9168 26.4005C36.7697 26.3476 36.6104 26.3389 36.4584 26.3755C36.3251 26.4255 36.2334 26.4588 36.1084 26.4255C35.9834 26.4005 35.9834 26.4088 36.0584 26.3422C36.1251 26.2588 36.1418 26.2588 36.2918 26.2505C36.4418 26.2338 36.5418 26.1922 36.4501 26.1338C36.3418 26.0755 36.3168 26.0838 36.1751 26.1422C36.0418 26.2088 35.9751 26.2588 35.8168 26.1755C35.6668 26.0922 35.6001 26.1005 35.4834 26.1338C35.3834 26.1588 35.2168 26.0922 35.0751 26.0338ZM35.5834 26.2838C35.3834 26.3172 35.3334 26.1922 35.1334 26.2088C35.0668 26.2255 34.9501 26.3088 35.1084 26.2922C35.2668 26.2838 35.4418 26.3672 35.5918 26.3588C35.7418 26.3505 35.6751 26.2755 35.5918 26.2838H35.5834ZM35.3668 26.4255C35.4584 26.3922 35.6668 26.4672 35.7668 26.4505C35.8584 26.4338 35.9334 26.4838 35.8334 26.5255C35.7334 26.5588 35.5251 26.4672 35.4168 26.4922C35.3251 26.5255 35.2168 26.4838 35.3584 26.4255H35.3668ZM33.3334 26.9838C33.4751 26.9838 33.9834 26.9588 34.1834 26.5422C34.2001 26.5088 34.2084 26.4922 34.2668 26.5422C34.3251 26.5838 34.5668 26.7172 35.0001 26.7588C35.1251 26.7588 35.2501 26.8255 35.0084 26.8172C34.7584 26.8005 34.3751 26.7338 34.2501 26.6505C34.0251 26.9922 33.6334 27.0338 33.3334 27.0255C33.1584 27.0255 33.2001 26.9755 33.3334 26.9838Z" fill="#00D860"/>
<path d="M34.425 26.4005C34.3584 26.4922 34.125 26.6505 34.025 26.6672C33.9167 26.6672 33.5917 26.6505 33.5167 26.6172C33.4334 26.5922 33.3417 26.5922 33.45 26.6755C33.603 26.7583 33.7765 26.7959 33.95 26.7838C34.0834 26.7588 34.2084 26.7172 34.3 26.7838C34.3834 26.8338 34.55 26.9338 34.65 26.9172C34.75 26.8922 34.9417 26.8922 35.0084 26.9172C35.075 26.9505 35.1834 27.0505 35.0167 27.0005C34.85 26.9422 34.7167 26.9838 34.6417 26.9505C34.725 27.0672 34.9167 27.2588 35.075 27.2588C35.1167 27.2588 35.15 27.3338 35.075 27.3672C35.1417 27.4005 35.325 27.4422 35.4334 27.3422C35.4 27.3838 35.4167 27.4005 35.4584 27.4172C35.5 27.4338 35.55 27.4672 35.475 27.4838C35.3917 27.5005 35.225 27.5088 35.175 27.4838C35.3417 27.5922 35.7584 27.7672 36.2 27.6755C36.2834 27.6672 36.3334 27.6255 36.2 27.6338C35.9084 27.6338 35.8917 27.6338 35.8417 27.6088C35.7917 27.5755 35.8084 27.5505 35.8917 27.5255C36.0091 27.4952 36.1291 27.4757 36.25 27.4672C36.3334 27.4672 36.425 27.4422 36.25 27.4422C36.0834 27.4422 35.8667 27.4422 35.775 27.4088C35.6917 27.3838 35.6334 27.3338 35.725 27.2755C35.8084 27.2172 35.9 27.2338 35.9417 27.1922C35.6667 27.1922 35.325 27.0255 35.5084 26.8922C35.55 26.8672 35.5417 26.8588 35.475 26.8505C35.3462 26.8251 35.2205 26.786 35.1 26.7338C35.0167 26.6922 35.0667 26.6422 35.1417 26.6255C34.975 26.6505 34.6417 26.5672 34.425 26.4088V26.4005ZM36.9084 26.4005C36.7584 26.5088 36.4667 26.5672 36.3417 26.5672C36.225 26.5672 36.2 26.6005 36.3 26.6088C36.4 26.6172 36.5084 26.6422 36.55 26.6255C36.5917 26.6088 36.625 26.6088 36.6834 26.6422C36.7861 26.6765 36.8973 26.6765 37 26.6422C37.125 26.6088 37.3084 26.5922 37.3917 26.5922C37.475 26.6005 37.5584 26.6005 37.3917 26.5588C37.2417 26.5172 36.975 26.5422 36.9084 26.5588C36.85 26.5755 36.675 26.5588 36.7667 26.5422C36.8584 26.5172 36.9334 26.4588 36.9834 26.4255L36.9084 26.4005ZM36.825 26.7338C36.677 26.8442 36.5008 26.9106 36.3167 26.9255C36.4834 26.9922 36.6334 27.1755 36.75 27.1588C36.6917 27.2005 36.625 27.2422 36.5584 27.2588C36.7135 27.285 36.8729 27.2555 37.0084 27.1755C37.2584 27.2422 37.5917 27.1922 37.7 27.0922C37.5334 27.0922 37.3417 27.0422 37.25 26.9588C37.3334 26.9588 37.4084 26.9172 37.4417 26.8672C37.25 26.9005 36.9417 26.8088 36.8334 26.7172L36.825 26.7338Z" fill="#00D860"/>
<path d="M36.5583 27.2505C36.625 27.2505 36.7 27.2005 36.75 27.1672C36.4268 27.1903 36.1042 27.1147 35.825 26.9505C35.6416 26.7922 35.6416 26.9172 35.7666 27.0255C35.872 27.1248 35.9995 27.1978 36.1386 27.2383C36.2776 27.2789 36.4243 27.2859 36.5666 27.2588L36.5583 27.2505ZM37.0083 27.6422C36.9333 27.6838 36.5666 27.7172 36.45 27.6838C36.325 27.6588 36.2833 27.6672 36.2999 27.7255C36.3249 27.7755 36.35 27.8088 36.25 27.7922C36.1373 27.7872 36.0246 27.8012 35.9166 27.8338C35.8333 27.8505 35.75 27.9172 35.9 27.8922C36.0583 27.8755 36.1916 27.8422 36.3166 27.8672C36.425 27.8922 36.825 27.9005 36.9 27.8672C36.9833 27.8338 36.9333 27.8422 36.9 27.8422C36.8583 27.8422 36.8416 27.8172 36.9 27.7838C36.9583 27.7588 36.9916 27.7005 37.0083 27.6422ZM33.4833 27.1588C33.2226 27.2495 32.9551 27.3192 32.6833 27.3672C32.5166 27.4422 32.3833 27.4838 32.3 27.4838C32.3583 27.5338 32.5916 27.5838 32.675 27.5588C32.625 27.6172 32.5083 27.6672 32.4666 27.7005C32.6083 27.6755 32.7583 27.7172 32.8333 27.7255C32.6621 27.8169 32.4684 27.8573 32.275 27.8422C32.325 27.8922 32.3833 27.9505 32.4583 27.9505C32.3092 27.9937 32.1518 27.9995 32 27.9672C32.05 28.0505 32.0833 28.1005 32.15 28.1172C32.0083 28.1255 31.8416 28.1505 31.7 28.0672C31.8083 28.2172 32.05 28.2588 32.4166 28.2172C32.7833 28.1755 33.0833 28.0172 33.1666 27.9505C33.0166 27.9672 32.8083 27.9755 32.7166 27.9505C32.9693 27.8832 33.2107 27.7793 33.4333 27.6422C33.3497 27.6416 33.2682 27.6155 33.2 27.5672C33.4243 27.5783 33.649 27.5559 33.8666 27.5005C33.7489 27.4752 33.6449 27.4068 33.575 27.3088C34.0361 27.4418 34.5234 27.4561 34.9916 27.3505C35.0583 27.3338 35.0583 27.2422 34.9333 27.2588C34.7 27.2755 34.2416 27.2088 34.1166 27.1505C34.2161 27.2213 34.3299 27.2697 34.45 27.2922C34.2416 27.3588 33.9333 27.4005 33.4833 27.1505V27.1588Z" fill="#00D860"/>
<path d="M32.4667 27.7005C32.5083 27.6672 32.6333 27.6172 32.675 27.5588C32.5833 27.5838 32.3583 27.5338 32.3 27.4755C32.3833 27.4755 32.5167 27.4422 32.6833 27.3672C32.3833 27.3588 32.1833 27.3588 32.0583 27.2922C31.9417 27.2255 31.75 27.2588 31.6667 27.2755C31.5833 27.2838 31.6167 27.4172 31.9417 27.3838C31.7432 27.4727 31.5231 27.5016 31.3083 27.4672C31.3417 27.5838 31.3667 27.6922 31.3333 27.7588C31.5083 27.8588 31.975 27.9838 32.2083 27.9672C32 27.8922 31.8917 27.8088 32.0583 27.7838C32.225 27.7672 32.325 27.7338 32.475 27.7005H32.4667Z" fill="#00D860"/>
<path d="M31.9417 28.2505C32.3417 28.2172 32.8917 28.2088 33.325 27.8338C33.4333 27.7505 33.5083 27.7838 33.4 27.8755C33.0164 28.1732 32.5514 28.3476 32.0667 28.3755C31.8417 28.3755 31.7417 28.2672 31.9417 28.2422V28.2505Z" fill="black"/>
<path d="M34.9749 27.5838C34.8235 27.6292 34.6662 27.6517 34.5082 27.6505C34.4168 27.6302 34.3215 27.636 34.2332 27.6672C34.1665 27.7088 34.1582 27.7505 34.2499 27.7505L34.5249 27.7672C34.4663 27.7973 34.4151 27.84 34.3749 27.8922C34.5249 27.8588 34.7665 27.9172 34.8415 27.9588C34.813 27.9648 34.7835 27.9649 34.7548 27.9592C34.7262 27.9534 34.699 27.942 34.6749 27.9255C34.8999 28.1755 35.5832 28.1755 35.6915 28.1255C35.6415 28.1672 35.5915 28.2088 35.5499 28.2088C35.7332 28.2505 35.9499 28.2422 36.1749 28.1255L35.8249 28.1088C35.8716 28.0626 35.9288 28.0283 35.9915 28.0088C35.9082 27.9922 35.6415 28.0005 35.5749 28.0338C35.5997 27.974 35.6437 27.9242 35.6999 27.8922C35.3665 27.8922 34.9582 27.8922 34.8165 27.8088C35.0415 27.8422 35.3082 27.7005 35.4165 27.7005C35.2332 27.7005 35.0332 27.6588 34.9832 27.5755L34.9749 27.5838ZM34.1332 27.7505C33.9665 27.7922 33.7165 27.8672 33.6415 27.9005C33.5749 27.9422 33.5082 27.9588 33.6499 27.9588C33.6665 27.956 33.6832 27.9532 33.6999 27.9505C33.6415 27.9505 33.5749 27.9505 33.6915 27.9088C33.7999 27.8755 33.9415 27.8005 34.1249 27.7672L34.1332 27.7505ZM33.7999 28.1588C33.8582 28.1588 34.1082 28.1588 34.2165 28.0755C34.3165 28.1422 34.5249 28.2588 34.6499 28.2588C34.7832 28.2588 34.7665 28.2922 34.6499 28.3088C34.4897 28.3037 34.3341 28.2547 34.1999 28.1672C34.0499 28.2255 33.9249 28.1755 33.7832 28.1588H33.7999ZM31.8332 29.3005C32.1028 29.4196 32.4029 29.4516 32.6915 29.3922C32.8415 29.5172 33.1332 29.5255 33.2915 29.4922C33.4582 29.4588 33.5999 29.4422 33.7832 29.4922C33.9499 29.5588 34.3165 29.5672 34.4249 29.6505L34.0832 29.6588C34.0332 29.6755 34.0582 29.7005 34.1499 29.7422C33.8192 29.739 33.4938 29.8254 33.2082 29.9922C33.251 29.8959 33.3213 29.8145 33.4103 29.7581C33.4992 29.7017 33.6029 29.673 33.7082 29.6755C33.5582 29.6255 33.0665 29.6172 32.8999 29.7172C32.8556 29.6689 32.8216 29.6122 32.7999 29.5505C32.5415 29.6922 32.0332 29.4755 31.8249 29.3005H31.8332ZM31.1665 28.8172C31.3874 28.7987 31.5984 28.7178 31.7749 28.5838C31.8332 28.6338 32.0665 28.6838 32.3165 28.6088C32.2665 28.6422 32.2582 28.7172 32.2749 28.7505C32.0737 28.7692 31.8768 28.8198 31.6915 28.9005C31.5915 28.9505 31.2749 28.9922 31.1749 28.9338C31.0749 28.8838 31.0749 28.8338 31.1582 28.8172H31.1665Z" fill="#00D860"/>
<path d="M32.275 28.7588C32.0738 28.7775 31.8769 28.8281 31.6917 28.9088L31.7333 29.0505C32.1473 28.9322 32.5788 28.8871 33.0083 28.9172C32.875 28.9255 32.6333 29.0672 32.5 29.0755C32.8333 29.0505 33.15 29.1172 33.2333 29.1422C33.3167 29.1588 33.3417 29.2255 33.275 29.2922C33.2083 29.3672 33.1833 29.3505 33.3167 29.3672C33.45 29.3672 33.7333 29.3422 33.8583 29.2172C33.8 29.1672 33.675 29.1922 33.6333 29.1422C33.7174 29.1153 33.7944 29.0697 33.8583 29.0088C33.73 29.0122 33.6017 29.0038 33.475 28.9838C33.4083 28.9672 33.35 28.9422 33.4417 28.8922C33.5047 28.8615 33.5612 28.8191 33.6083 28.7672C33.4417 28.8088 33.1833 28.8505 32.9583 28.6838C33.0417 28.7005 33.2333 28.6838 33.3 28.6588C33.2447 28.623 33.182 28.6002 33.1167 28.5922C33.2833 28.5088 33.6167 28.4338 34.0583 28.6005C34.2561 28.5855 34.4551 28.5967 34.65 28.6338C34.7333 28.5672 34.8667 28.4005 34.9417 28.3672C34.4417 28.4005 33.5417 28.3172 33.5667 28.0505C33.4 28.2672 33.025 28.3838 32.8667 28.3505C32.85 28.4172 32.9167 28.5172 32.975 28.5672C32.8083 28.6005 32.5167 28.6338 32.3833 28.6005C32.4667 28.6755 32.6 28.7422 32.6833 28.7422C32.5167 28.7422 32.4167 28.7755 32.275 28.7588Z" fill="#00D860"/>
<path d="M33.3083 29.3588C33.4583 29.3588 33.725 29.3422 33.8583 29.2172C33.8 29.1672 33.675 29.1922 33.6333 29.1422C33.7175 29.1153 33.7944 29.0697 33.8583 29.0088C34.225 28.9755 34.5333 28.9922 34.6917 28.9505C34.8417 28.9088 35.2333 28.9255 35.3083 28.9088C34.9667 28.9672 34.9 28.9922 34.8917 29.0505C34.875 29.1088 34.9917 29.1422 35.075 29.1422C34.9333 29.1422 34.7333 29.3005 34.7083 29.3672C34.5083 29.2505 34.425 29.3838 34.3917 29.4338C34.3083 29.4005 34.025 29.4088 33.8833 29.5338C33.7 29.4755 33.575 29.4505 33.3833 29.4755C33.5083 29.4505 33.4833 29.3672 33.3167 29.3588H33.3083ZM34.9333 28.3588C35.05 28.3588 35.3 28.3755 35.3917 28.3588C35.3358 28.3861 35.2851 28.4227 35.2417 28.4672C35.5333 28.4338 35.925 28.4088 36.0417 28.4338C35.8917 28.4088 35.75 28.5088 35.675 28.5505C35.6083 28.5922 35.65 28.6255 35.75 28.6338C35.85 28.6505 35.975 28.7172 35.8 28.7005C35.6333 28.6838 35.2667 28.6755 35.1833 28.6838C35.1 28.7005 35.05 28.6588 35.1833 28.6338C35.2734 28.6203 35.3607 28.5922 35.4417 28.5505C35.3417 28.5755 35.15 28.5755 35.0833 28.5505C35.0167 28.5255 34.9917 28.5088 35.0583 28.4838C35.1333 28.4588 35.0833 28.4505 35.0083 28.4588C34.9333 28.4588 34.7583 28.5422 34.65 28.6338C34.7583 28.5172 34.8667 28.4172 34.9333 28.3672V28.3588Z" fill="#00D860"/>
<path d="M33.6501 28.5588C33.7203 28.6398 33.8074 28.7041 33.9054 28.7474C34.0034 28.7906 34.1097 28.8116 34.2168 28.8088C34.2668 28.8088 34.3835 28.8838 34.2418 28.8922C33.8835 28.9088 33.7085 28.8172 33.5501 28.5922C33.5168 28.5422 33.5751 28.4755 33.6501 28.5588ZM35.7751 25.5922C35.9585 25.6755 36.3335 25.7588 36.6251 25.7505C36.6835 25.7505 36.7751 25.8005 36.6501 25.8088C36.3401 25.8467 36.026 25.7886 35.7501 25.6422C35.6751 25.6005 35.7001 25.5588 35.7751 25.5922Z" fill="black"/>
<path d="M35.9584 25.5922C36.2501 25.5922 36.4668 25.5922 36.5418 25.6672C36.7084 25.6255 37.0168 25.5922 37.0751 25.6088C37.1418 25.6255 37.2251 25.5838 37.0668 25.5505C36.9001 25.5172 36.5501 25.5005 36.4334 25.5255C36.3168 25.5422 35.9584 25.5588 35.8501 25.5422C35.8918 25.5422 35.9251 25.5588 35.9584 25.5922ZM37.0751 25.7005C37.2084 25.6338 37.6001 25.7005 37.7168 25.6505C37.6334 25.7505 37.9918 25.7588 38.3001 25.6838C38.1834 25.7505 37.9251 25.7672 37.8168 25.8172C37.7084 25.8672 37.6501 25.8255 37.5668 25.7922C37.4137 25.7195 37.2435 25.6906 37.0751 25.7088V25.7005Z" fill="#00D860"/>
<path d="M38.2999 25.6838C37.9916 25.7505 37.6333 25.7505 37.7166 25.6505C37.5999 25.7005 37.2166 25.6338 37.075 25.7005C37.225 25.6172 37.3249 25.6922 37.4249 25.5172C37.4916 25.5255 37.6416 25.5338 37.6916 25.4672C37.7749 25.4922 37.9416 25.5255 37.9833 25.5755C38.0249 25.6255 38.0916 25.5588 38.0416 25.4922C38.1833 25.4422 38.0916 25.5505 38.4166 25.4672C38.4916 25.4505 38.6499 25.4172 38.7083 25.4172C38.581 25.5229 38.441 25.6125 38.2916 25.6838H38.2999Z" fill="#00D860"/>
<path d="M32.3 24.2588L32.2416 17.0255C32.2416 16.7005 32.075 16.7755 32.075 17.0255V24.1922L32.3 24.2588ZM34.65 16.6422L34.9083 24.2588L34.875 24.3255H34.7083L34.55 16.6422H34.65ZM36.8666 23.0922L36.7333 16.9005C36.7333 16.7005 36.5666 16.7338 36.5666 16.9338L36.7 23.0922H36.8666Z" fill="#FFFF00" stroke="black" stroke-width="0.0333333"/>
<path d="M33.3501 17.9088L31.0667 17.8755C30.9667 18.3338 31.5251 18.2922 31.7167 18.2088C31.9751 18.3672 32.1751 18.3672 32.3001 18.2088C32.5001 18.3672 32.7584 18.3338 32.8584 18.2088C33.1167 18.4338 33.4084 18.2088 33.3501 17.8755V17.9088ZM33.5167 19.0172H31.2251C30.8084 19.4088 31.3251 19.6005 31.7834 19.3422C31.8501 19.4755 32.1084 19.5338 32.3001 19.4422C32.5001 19.5672 32.7584 19.4755 32.8834 19.3422C33.1167 19.4422 33.4084 19.4755 33.5417 19.0088L33.5167 19.0172ZM33.4417 20.4838H31.2251C31.2001 20.8422 31.6501 20.8088 31.8084 20.7088C31.9751 20.9755 32.3667 20.9088 32.5001 20.7422C32.7251 20.9088 32.9167 20.8755 33.0167 20.7422C33.2501 20.9422 33.4751 20.6755 33.4417 20.4838ZM33.5834 21.9172L31.0751 21.8838C30.9417 22.3005 31.3334 22.3755 31.4917 22.2755C31.5667 22.5005 31.8917 22.4422 31.9917 22.2755C32.1167 22.3755 32.2834 22.3088 32.3417 22.2088C32.3751 22.4338 32.6751 22.4672 32.9001 22.2755C33.3584 22.6005 33.7751 22.2088 33.5501 21.9172H33.5834ZM35.7667 21.3338H33.7167C33.8084 21.7172 34.0084 21.8172 34.3334 21.5838C34.5917 21.8505 34.9834 21.7505 35.0834 21.6255C35.5417 21.9838 35.7667 21.5588 35.7667 21.2922V21.3338ZM35.5667 19.9005L33.5501 19.8338C33.5834 20.3505 34.0751 20.3172 34.3334 20.1255C34.5001 20.3505 34.8251 20.2922 34.9834 20.1255C35.2084 20.3838 35.6334 20.2255 35.5667 19.9005ZM35.8334 18.3005H33.6667C33.6667 18.6588 34.1501 18.8505 34.5084 18.5255C34.6084 18.9505 35.0001 18.8172 35.1667 18.6588C35.4167 18.9838 35.9751 18.5922 35.8167 18.3255L35.8334 18.3005ZM35.7001 17.2172L33.7417 17.2588C33.7417 17.5838 34.2001 17.7172 34.3667 17.4505C34.4667 17.6172 34.7834 17.5838 34.8834 17.4505C35.0167 17.6838 35.2167 17.5172 35.2751 17.4505C35.5084 17.6172 35.7334 17.5172 35.7001 17.2255V17.2172ZM37.9501 17.9422L35.6001 17.9088C35.6001 18.1338 35.8334 18.2422 35.9917 18.1338C35.9917 18.4005 36.3251 18.4672 36.5501 18.2672C36.6751 18.4922 37.1001 18.5255 37.2667 18.2672C37.5917 18.5588 37.9834 18.3338 37.9167 17.9338L37.9501 17.9422ZM37.9167 19.8588H35.6334C35.6334 20.1922 35.9917 20.2838 36.2167 20.1255C36.2584 20.3838 36.5501 20.4172 36.7167 20.2588C36.9417 20.4838 37.2667 20.5088 37.4667 20.2588C37.7167 20.3505 37.9501 20.1255 37.9167 19.8672V19.8588ZM37.7834 21.5922H35.9584C35.9584 21.9172 36.3501 21.9172 36.5167 21.7588C36.7084 21.9838 36.9751 21.9838 37.1334 21.8172C37.3584 22.0172 37.7501 21.9505 37.7834 21.5922Z" fill="white" stroke="black" stroke-width="0.0333333"/>
<path d="M34.8749 24.3338C33.8999 24.3338 32.8916 24.3338 32.2082 24.2588C31.5249 24.2005 31.3249 24.0672 30.8416 23.7755L28.9999 22.6672C28.8416 22.6005 28.6832 22.7005 28.9082 22.8338L30.7332 24.0338C31.1489 24.3022 31.5224 24.6308 31.8416 25.0088C32.2332 25.4338 32.4916 25.4338 32.6832 25.3672C32.8832 25.3088 33.1416 25.2005 33.4332 25.2755C33.6999 25.3338 34.0832 25.3672 34.2832 25.3338C34.4499 25.5005 34.8666 25.4672 35.0999 25.4005C35.3249 25.3338 35.4916 25.3338 35.6499 25.3672H36.2082C36.3749 25.3672 36.7916 25.2755 37.0832 25.3088C37.4166 25.3672 37.6999 25.3088 37.8999 25.3088C38.1121 25.2538 38.3332 25.2424 38.5499 25.2755C38.7499 25.1422 38.8082 24.9755 38.8832 24.8172C39.0749 24.7838 39.1332 24.7505 39.1666 24.6505L39.3666 24.1338H39.4332V23.9338L39.2999 23.7422L39.3666 23.4088L39.5332 23.3505L39.4666 23.0172L36.5999 23.0922C36.4963 23.1869 36.4261 23.3126 36.3999 23.4505L35.5499 23.5755C35.4582 23.6088 35.3582 23.6088 35.2582 23.7422L34.8749 24.3338Z" fill="black" stroke="black" stroke-width="0.0333333"/>
<path d="M38.2999 23.0588L38.7166 21.4588C38.7833 21.2922 38.6249 21.2672 38.5583 21.4588L38.1416 23.0588H38.2999Z" fill="black" stroke="black" stroke-width="0.0333333"/>
<path d="M39.9582 21.2672C39.5999 21.4338 39.4082 21.5255 39.2416 21.4588C39.0749 21.3922 38.8832 21.3588 38.7582 21.4255C38.7593 21.4366 38.7593 21.4477 38.7582 21.4588C38.6405 21.8732 38.521 22.2871 38.3999 22.7005C38.6499 22.8005 39.1166 22.8005 39.2082 22.7005C39.3416 22.5672 39.6332 22.6005 39.7916 22.6005C39.8916 22.4672 39.9249 22.3088 39.8916 22.2422C39.8582 22.1755 39.8916 22.0172 39.8916 21.9088C39.8916 21.8255 40.0249 21.4588 39.9582 21.2672Z" fill="white" stroke="black" stroke-width="0.0333333"/>
<path d="M37.3333 21.9422H36.9416M31.7499 18.2005C31.1178 19.8465 30.2383 21.3865 29.1416 22.7672L31.7499 18.2005ZM29.7916 23.1588C31.2377 21.9924 32.4919 20.6061 33.5083 19.0505L29.7916 23.1588ZM31.2249 20.4505C31.1333 21.3338 30.8666 22.8922 30.7416 23.7088L31.2249 20.4505ZM31.5833 22.4088C31.2583 22.7338 30.8333 23.2505 30.4833 23.5422L31.5833 22.4088ZM34.6166 20.6422C34.3583 20.9088 34.0666 21.2255 33.7666 21.3005L34.6166 20.6422ZM34.7833 20.7172C35.0219 20.9891 35.3219 21.2005 35.6583 21.3338L34.7833 20.7172ZM34.6166 19.3088C34.3332 19.5597 34.0014 19.7497 33.6416 19.8672L34.6166 19.3088ZM34.7499 19.3338C34.9416 19.5255 35.1666 19.7505 35.4666 19.8922L34.7499 19.3338ZM33.7083 18.2922C34.0328 18.1952 34.3317 18.0272 34.5833 17.8005L33.7083 18.2922ZM34.6833 17.8005C34.9357 18.0338 35.2336 18.2125 35.5583 18.3255L34.6833 17.8005ZM33.7666 17.2422C34.0731 17.1906 34.351 17.031 34.5499 16.7922L33.7666 17.2422ZM34.6499 16.7255C34.8749 16.9255 35.2999 17.1838 35.5333 17.2172L34.6499 16.7255ZM36.5749 17.4755C36.4416 17.6422 36.0833 17.9005 35.8583 17.9005L36.5749 17.4755ZM36.7333 17.4838C36.8333 17.6422 37.0916 17.9005 37.2583 17.9005L36.7333 17.4838ZM35.6916 19.8588C36.0426 19.7271 36.3569 19.5128 36.6083 19.2338L35.6916 19.8588ZM36.7749 19.2672C36.9294 19.5064 37.1378 19.7062 37.3833 19.8505L36.7749 19.2672ZM36.0499 21.5505C36.1833 21.5505 36.5416 21.3505 36.6333 21.1338L36.0499 21.5505ZM36.8333 21.0255C37.0128 21.2509 37.2333 21.4404 37.4833 21.5838L36.8333 21.0255ZM31.3916 21.8755C31.8083 21.7422 32.6333 21.2255 33.0583 20.7338L31.3916 21.8755ZM32.2749 21.3505C32.5999 21.5838 33.0249 21.8505 33.3166 21.9088L32.2749 21.3505ZM31.2916 20.4422C31.5799 20.3262 31.8452 20.1597 32.0749 19.9505L31.2916 20.4422ZM32.2416 19.9172C32.3333 20.0505 33.0166 20.4755 33.3166 20.4755L32.2416 19.9172ZM32.0749 18.5588C31.8262 18.748 31.5511 18.8996 31.2583 19.0088L32.0749 18.5588ZM32.2416 18.5505C32.4666 18.7172 32.9583 19.0088 33.2416 19.0088L32.2416 18.5505ZM32.0833 17.2505C31.8916 17.4422 31.5666 17.7672 31.2999 17.8672L32.0833 17.2505ZM32.2499 17.2838C32.3749 17.5088 32.7666 17.8338 33.0249 17.8672L32.2499 17.2838ZM35.6333 18.7172C36.2583 19.7922 37.3583 21.1338 38.4666 21.8422L35.6333 18.7172ZM33.8833 17.5088C34.7916 18.8088 36.5499 21.6505 38.2416 22.6922L33.8833 17.5088ZM38.5749 21.5838C38.1383 22.1779 37.5959 22.6864 36.9749 23.0838L38.5749 21.5838ZM38.4333 21.9422C37.8833 21.0255 37.5916 19.8922 37.1333 18.3588L38.4333 21.9422ZM32.5749 22.4005L33.2249 24.3505L32.5749 22.4005ZM32.4416 22.3672L33.0583 24.3172L32.4416 22.3672ZM32.2833 22.2672L32.8666 24.2838L32.2833 22.2672ZM32.2166 22.3005L32.6666 24.2838L32.2166 22.3005ZM32.6666 24.2255H33.2249H32.6666ZM33.1583 24.0255H32.6416H33.1583ZM33.0916 23.8588H32.5749H33.0916ZM33.0249 23.7005H32.4999H33.0249ZM32.9166 23.5088H32.4999H32.9166ZM32.4666 23.3422H32.8833H32.4666ZM32.4333 23.2088H32.8499H32.4333ZM32.3999 23.0422H32.7916H32.3999ZM32.3749 22.9172H32.7249H32.3749ZM32.3333 22.7505H32.6666H32.3333ZM32.2999 22.6255H32.6333H32.2999ZM32.2749 22.5255H32.5999H32.2749ZM32.2666 22.4005H32.5666H32.2666ZM31.7166 22.4005L31.3249 24.0255L31.7166 22.4005ZM31.8166 22.4005L31.4833 24.0922L31.8166 22.4005ZM31.9166 22.3338L31.6499 24.1255L31.9166 22.3338ZM32.0416 22.2922L31.8499 24.1922L32.0416 22.2922ZM32.0749 24.0588H31.4249H32.0749ZM32.0749 23.8922H31.3249H32.0749ZM32.0749 23.7005H31.3916H32.0749ZM32.0416 23.5338H31.4249H32.0416ZM32.0749 23.3672H31.4583H32.0749ZM32.0749 23.1755H31.5249H32.0749ZM32.0749 23.0088H31.5249H32.0749ZM32.0416 22.8505H31.5583H32.0416ZM32.0416 22.6838H31.6249H32.0416ZM32.0416 22.5255H31.6499H32.0416ZM32.0416 22.4255H31.6833H32.0416ZM32.0166 24.2255V22.3005V24.2255ZM34.1249 21.6505L32.8333 24.2922L34.1249 21.6505ZM34.2333 21.6255L33.1249 24.3255L34.2333 21.6255ZM34.2999 21.5922L33.4166 24.3255L34.2999 21.5922ZM34.3999 21.6588L33.6833 24.3255L34.3999 21.6588ZM33.7166 24.2338H32.8999H33.7166ZM33.7749 23.9672H32.9999H33.7749ZM33.8083 23.7755H33.1583H33.8083ZM33.9416 23.5755H33.2916H33.9416ZM33.9749 23.3838H33.3583H33.9749ZM34.0416 23.1838H33.4583H34.0416ZM34.0999 22.9588H33.5833H34.0999ZM34.1333 22.7922H33.6499H34.1333ZM34.1999 22.6005H33.7416H34.1999ZM34.2416 22.4672H33.8083H34.2416ZM34.2666 22.3422H33.8083H34.2666ZM34.2333 22.2088H33.9083H34.2333ZM34.2416 22.1088H33.9416H34.2416ZM34.2666 21.9838H33.9999H34.2666ZM34.3249 21.8505H34.0666H34.3249ZM34.3166 21.7505H34.0916H34.3166ZM35.1999 21.7172L35.7583 23.5505L35.1999 21.7172ZM35.2999 21.7505L35.9833 23.5172L35.2999 21.7505ZM35.3999 21.7505L36.2166 23.4838L35.3999 21.7505ZM36.4083 23.3172L35.4916 21.7172L36.4083 23.3172ZM36.4083 23.3505H35.7583H36.4083ZM36.3416 23.0922H35.6916H36.3416ZM36.2499 22.8922H35.6249H36.2499ZM36.1166 22.6672H35.5583H36.1166ZM35.9833 22.4672H35.4999H35.9833ZM35.8583 22.2422H35.4333H35.8583ZM35.7583 22.0172H35.3666H35.7583ZM35.6249 21.8172H35.2999H35.6249ZM36.3416 21.8505L35.7583 23.5422L36.3416 21.8505ZM36.5083 21.7922L35.9833 23.5172L36.5083 21.7922ZM36.2166 23.4838L36.6083 21.8505L36.2166 23.4838ZM36.6999 21.9172L36.3749 23.4505L36.6999 21.9172ZM35.8249 23.3505H36.3749H35.8249ZM35.8916 23.1588H36.4416H35.8916ZM35.9499 22.9255H36.4749H35.9499ZM36.0583 22.7338H36.5416H36.0583ZM36.1166 22.5005H36.5749H36.1166ZM36.1833 22.3088H36.5999H36.1833ZM36.2749 22.0755H36.6666H36.2749ZM36.3416 21.8838H36.6749H36.3416ZM36.9666 21.9172L37.2166 23.0838L36.9666 21.9172ZM37.0583 21.8505L37.4166 23.0588L37.0583 21.8505ZM37.1916 21.8505L37.5833 23.0588L37.1916 21.8505ZM37.3499 21.9172L37.7749 23.0588L37.3499 21.9172ZM37.7416 22.9588H37.1916H37.7416ZM37.6833 22.7922H37.1583H37.6833ZM37.6166 22.6338H37.1249H37.6166ZM37.5416 22.4338H37.0583H37.5416ZM37.4499 22.2672H36.9999H37.4499ZM37.3916 22.1088H36.9749H37.3916Z" stroke="black" stroke-width="0.0333333"/>
<path d="M31.9668 24.9338C32.2251 24.7672 32.6751 24.7922 32.9085 24.9672C33.1835 24.8172 33.6751 24.8588 33.9001 25.0672C34.2501 24.8172 34.5418 24.7838 34.8751 25.0172C35.0227 24.9193 35.1965 24.8684 35.3736 24.8714C35.5506 24.8744 35.7226 24.931 35.8668 25.0338C36.1751 24.8922 36.5085 24.7755 36.8001 25.0838C36.6586 24.9886 36.4897 24.9426 36.3194 24.9532C36.1491 24.9637 35.9871 25.0302 35.8585 25.1422C35.5668 24.8505 35.0501 24.9588 34.8751 25.1672C34.8138 25.1006 34.739 25.0478 34.6558 25.0122C34.5726 24.9766 34.4827 24.959 34.3922 24.9605C34.3017 24.9621 34.2126 24.9828 34.1306 25.0213C34.0487 25.0598 33.9758 25.1152 33.9168 25.1838C33.6085 24.9338 33.1585 24.9172 32.9168 25.1005C32.7821 25.0012 32.6262 24.9345 32.4614 24.9056C32.2965 24.8767 32.1273 24.8863 31.9668 24.9338Z" fill="#00B800"/>
<path d="M36.5917 24.5672C35.2501 24.8005 32.3084 24.6505 31.6751 24.4755C31.4501 24.4255 31.5084 24.3422 31.7001 24.3922C32.4417 24.5588 34.0251 24.5588 34.8917 24.5088L35.4084 23.8005C35.4917 23.6922 35.5251 23.6838 35.7001 23.6588L36.4251 23.5338V23.6338C36.4084 23.6588 36.3917 23.6838 36.3667 23.6922C36.3667 23.8588 36.4001 24.2838 36.4417 24.4422L36.5334 24.4172C36.5917 24.4005 36.6501 24.5588 36.5917 24.5672Z" fill="#CF6200"/>
<path d="M38.7999 24.6338H38.9833C39.0333 24.6338 39.1166 24.5922 39.1416 24.5088L39.3249 23.9838L39.1833 23.7755L39.2583 23.3338L39.4249 23.2588C39.4416 23.2338 39.4249 23.1255 39.3916 23.0922L36.7583 23.1755C36.6749 23.1755 36.6416 23.1755 36.6166 23.2838C36.5388 23.6362 36.5599 24.0033 36.6775 24.3444C36.7952 24.6856 37.0048 24.9876 37.2833 25.2172C37.3249 25.2505 37.3833 25.2172 37.3083 25.1588C37.1676 25.0177 37.047 24.8579 36.9499 24.6838H37.3833C37.4166 24.8255 37.5249 25.1172 37.5499 25.1755C37.5666 25.2338 37.6166 25.2338 37.5833 25.1505C37.5333 24.9838 37.4999 24.7755 37.4749 24.6755H37.9166L37.9499 25.1088C37.9499 25.1672 37.9999 25.1672 37.9999 25.1005V24.6672L38.3999 24.6505L38.3666 25.0838C38.3583 25.1588 38.3916 25.1838 38.4083 25.0838L38.4666 24.6505L38.7416 24.6338C38.7416 24.7338 38.6499 25.0005 38.6249 25.0672C38.5999 25.1505 38.6416 25.1505 38.6666 25.0755C38.7239 24.9353 38.7685 24.7903 38.7999 24.6422V24.6338Z" fill="#CF6200"/>
<path d="M36.875 24.5672C36.8333 24.4755 36.6833 24.1422 36.675 23.9005H37.2583C37.275 24.0755 37.325 24.4672 37.3583 24.5588L36.875 24.5672ZM37.3583 23.8838C37.3667 24.0338 37.4417 24.5088 37.4583 24.5505H37.925L37.8917 23.8755L37.3583 23.8838ZM36.7 23.3005C36.6793 23.4663 36.6737 23.6337 36.6833 23.8005L37.2417 23.7755L37.1917 23.2838L36.7 23.3005ZM37.3083 23.2838L37.3417 23.7838L37.8917 23.7672L37.8667 23.2672L37.3083 23.2838ZM37.975 23.2588L37.9917 23.7588L38.4667 23.7505C38.4667 23.6422 38.4917 23.3172 38.4833 23.2422L37.975 23.2588ZM38.575 23.2422L38.5583 23.7422L39.075 23.7255C39.1 23.6172 39.15 23.3338 39.15 23.2255L38.575 23.2422ZM39.1 23.8422L38.55 23.8588L38.5 24.5255L39.025 24.5088C39.0988 24.3461 39.1628 24.1792 39.2167 24.0088C39.175 23.9255 39.1417 23.9005 39.1 23.8422ZM37.9917 23.8755L38.0083 24.5422L38.4083 24.5255L38.4583 23.8588L37.9917 23.8755ZM35.7417 23.7422L35.525 23.7755C35.3568 24.0247 35.1817 24.2693 35 24.5088L35.775 24.4922L35.75 23.7422H35.7417ZM35.8417 23.7172L35.875 24.4838L36.3417 24.4505L36.2583 23.6505L35.8417 23.7172Z" fill="black"/>
<path d="M33.575 21.9172H31.0667V21.8505L33.5667 21.8838L33.575 21.9172ZM35.5333 19.9005C35.5583 19.9005 35.5583 19.9005 35.5333 19.9005L33.575 19.8672C33.5417 19.8672 33.5417 19.8672 33.575 19.8672H35.5333V19.9005ZM33.45 20.4505C33.475 20.4505 33.475 20.4838 33.45 20.4838H31.225C31.2 20.4838 31.225 20.4505 31.225 20.4505H33.45ZM33.5083 19.0172C33.5417 19.0172 33.5417 19.0505 33.5083 19.0505H31.2C31.1667 19.0505 31.1667 19.0172 31.2 19.0172H33.5083ZM33.3417 17.8755C33.375 17.8755 33.375 17.9088 33.3417 17.9088H31.0917C31.0667 17.9088 31.0917 17.8422 31.0917 17.8422L33.375 17.8755H33.3417Z" fill="black" stroke="black" stroke-width="0.0333333"/>
<path d="M35.6917 17.2255L33.7334 17.2588L35.6917 17.2255Z" fill="white" stroke="black" stroke-width="0.0333333"/>
<path d="M35.7916 18.3338C35.8249 18.3338 35.8249 18.3338 35.7916 18.3338H33.6666C33.6333 18.3338 33.6333 18.3338 33.6666 18.3338H35.7916ZM37.9083 19.8338V19.8672H35.6249C35.5583 19.8672 35.5583 19.8672 35.6249 19.8672H37.9166L37.9083 19.8338ZM37.9083 17.9088C37.9749 17.9088 37.9749 17.9422 37.9083 17.9422H35.5833C35.5499 17.9422 35.5499 17.9088 35.5833 17.9088H37.9333H37.9083ZM35.7499 21.3005C35.7833 21.3005 35.7833 21.3338 35.7499 21.3338H33.6666V21.3005H35.7499ZM37.7666 21.5922C37.7999 21.5922 37.7999 21.5922 37.7666 21.5922H35.9416H37.7666Z" fill="black" stroke="black" stroke-width="0.0333333"/>
<path d="M39.4417 21.9172C39.4781 21.7666 39.4781 21.6094 39.4417 21.4588C39.3764 21.4778 39.307 21.4778 39.2417 21.4588C39.2098 21.4346 39.1764 21.4123 39.1417 21.3922C39.1323 21.6057 39.0902 21.8165 39.0167 22.0172C38.9167 22.0172 38.6834 22.0172 38.5917 21.9505L38.4917 22.2755C38.6536 22.3112 38.8214 22.3112 38.9834 22.2755C38.9834 22.4672 38.95 22.6338 38.85 22.7672C39.0167 22.7672 39.1834 22.7672 39.2084 22.6672C39.3084 22.5338 39.3084 22.3338 39.3417 22.2422L39.5084 22.2088L39.6667 22.1422L39.8917 22.1088V21.9172L39.9584 21.7838L39.4417 21.9505V21.9172Z" fill="#EF072D" stroke="black" stroke-width="0.0333333"/>
<path d="M31.3582 10.9005C31.0999 10.9005 30.5082 10.9005 30.3832 10.9672C30.2832 11.0338 30.2499 11.0672 30.4499 11.1005C30.6416 11.1338 30.9999 11.2672 31.1999 11.3588C31.3916 11.4922 31.5249 11.6922 31.5249 12.0088C31.4525 12.4107 31.5076 12.8252 31.6824 13.1943C31.8572 13.5634 32.143 13.8686 32.4999 14.0672C32.5332 14.1005 32.5666 14.1255 32.5332 14.2588L32.4332 14.6172C32.4332 14.6838 32.3999 14.7505 32.4999 14.7172C32.397 14.8945 32.2857 15.0669 32.1666 15.2338C31.6499 15.1755 31.1999 15.2338 31.1999 15.8172C31.1999 15.8922 31.1999 15.9505 31.2582 15.8172C31.3582 15.6922 31.4582 15.5672 31.6832 15.5005C31.5582 15.7255 31.4916 15.9172 31.5166 16.0505C31.5166 16.1505 31.5832 16.2172 31.6499 16.0505C31.6832 15.9172 31.8166 15.7922 31.9166 15.6922C31.9749 15.6588 31.9749 15.6588 31.9416 15.7588C31.9276 15.8867 31.9634 16.015 32.0416 16.1172C32.1082 16.1838 32.1416 16.1505 32.1082 16.0505C32.1082 15.9172 32.1082 15.6922 32.2749 15.6338C32.4666 15.5005 32.6582 15.5588 32.7249 15.6922C32.8249 15.8588 32.8916 15.6922 32.7916 15.5588C32.6916 15.4338 32.5999 15.2672 32.4666 15.2672L32.7999 14.7172C32.7999 14.6505 32.8582 14.6172 32.9249 14.6505C32.9249 14.6838 32.9916 14.6838 33.0166 14.5838L33.2499 14.1255L33.4416 14.0672L33.7749 14.5505V14.7505C33.7749 14.8755 33.6416 15.1672 33.6082 15.2672C33.2166 15.2672 33.0249 15.2672 32.8916 15.5005C32.8249 15.5922 32.9249 15.6255 33.0166 15.5922C33.1174 15.5321 33.2325 15.5004 33.3499 15.5005C33.4082 15.5005 33.4416 15.5588 33.3499 15.5922C33.1166 15.6922 32.9582 15.8588 32.9582 16.0838C32.9582 16.1505 33.0166 16.1838 33.0499 16.0838C33.1452 15.9238 33.2967 15.805 33.4749 15.7505C33.4749 15.9172 33.5082 16.1838 33.6416 16.2505C33.7332 16.3088 33.7332 16.2505 33.7082 16.1505C33.6416 15.9838 33.7082 15.8172 33.7999 15.7255C33.9666 15.5338 34.3582 15.7922 34.4582 15.8588C34.5166 15.9172 34.5832 15.9505 34.5166 15.7588C34.4832 15.5338 34.1582 15.4255 33.8666 15.3672L34.2582 14.0005C34.4249 14.1005 34.5916 13.8338 34.8416 13.9338C35.279 14.1293 35.6952 14.3694 36.0832 14.6505C36.2166 14.7505 36.2499 14.7172 36.3082 14.6505C36.3749 14.6172 36.4749 14.6505 36.5749 14.6505C36.6332 14.6838 36.6999 14.7172 36.6082 14.5172C36.4207 14.1757 36.1515 13.8865 35.8249 13.6755C36.0832 13.6755 36.4082 13.6755 36.4082 13.6088C36.4082 13.5422 36.0166 13.4088 35.8582 13.4088C36.0499 13.3739 36.2285 13.2874 36.3749 13.1588C36.4416 13.0838 36.3749 13.0505 36.1166 13.0505C35.4332 13.0505 35.0749 13.0505 34.7166 12.8588C34.1332 12.5255 33.7666 12.1422 33.4749 12.0088C33.3499 11.9172 33.2499 11.7172 33.1499 11.5588C32.9832 11.0588 32.9832 10.8088 32.5666 10.6422C32.1416 10.4755 31.5832 10.6755 31.3582 10.9005Z" fill="black" stroke="black" stroke-width="0.0333333"/>
<path d="M31.3916 11.0338H30.8416C30.8416 11.0338 30.775 11.0338 30.8416 11.0338L31.325 11.1672C31.425 11.1672 31.3916 11.2588 31.325 11.2255C31.2583 11.2005 31.2 11.2255 31.2583 11.2922C31.5916 11.5255 31.65 11.6255 31.5916 12.5005L31.75 12.6338C31.8166 12.6338 31.7833 12.6922 31.75 12.6588C31.7166 12.6338 31.5833 12.6588 31.6833 12.7255C31.7833 12.7922 31.85 12.7922 31.75 12.7922C31.65 12.7922 31.5583 12.8588 31.75 12.8255C31.9166 12.8255 32.0083 12.8922 31.75 12.9255C31.5583 12.9255 31.6166 12.9922 31.75 12.9922C31.975 12.9922 31.9166 13.0505 31.85 13.0505C31.7833 13.0505 31.75 13.1172 31.9166 13.1172H32.1416C32.175 13.1172 32.2083 13.1172 32.1416 13.1505C32.075 13.1505 32.075 13.2172 32.175 13.2172C32.275 13.2172 32.3416 13.2172 32.2416 13.2505C32.2083 13.2505 32.1416 13.2838 32.2416 13.3172C32.4666 13.3172 32.4916 13.3755 32.4333 13.4088C32.3666 13.4422 32.3333 13.4422 32.4333 13.4422C32.5333 13.4422 32.6333 13.4755 32.5333 13.5088C32.4666 13.5088 32.4333 13.5755 32.5333 13.5755C32.6333 13.5755 32.7 13.6422 32.6333 13.6755C32.5666 13.7088 32.5333 13.7422 32.6333 13.7422C32.725 13.7422 32.7583 13.7672 32.6916 13.8005C32.6333 13.8672 32.6 13.8672 32.525 13.8005C32.525 13.7422 32.4666 13.7422 32.4666 13.8005L32.4 13.7088C32.3666 13.6088 32.3 13.6088 32.3 13.7088C32.3 13.8005 32.2416 13.7422 32.175 13.7088C32.3327 13.8896 32.5464 14.0124 32.7819 14.0577C33.0175 14.103 33.2615 14.0682 33.475 13.9588C33.5083 13.9588 33.5416 13.9588 33.575 14.0672L33.7666 14.4255C33.8 14.4838 33.8666 14.4255 33.8666 14.3588L34.0666 13.8005C34.0666 13.7088 34.1916 13.6338 34.1583 13.9005C34.2583 13.8338 34.65 13.8005 34.975 13.9005C35.2891 14.0261 35.586 14.1913 35.8583 14.3922C35.8817 14.4102 35.9088 14.4225 35.9377 14.4283C35.9667 14.4341 35.9965 14.4331 36.025 14.4255C36.1083 14.4255 36.15 14.4255 35.9833 14.2588C35.8166 14.0922 35.8916 14.0338 35.9833 14.0922C36.0833 14.1588 36.15 14.1255 36.05 14.0338L35.725 13.7422C35.6916 13.7422 35.6916 13.6755 35.5333 13.6755H35.0333C34.975 13.6755 34.9083 13.6755 35.1083 13.7422C35.3 13.8005 35.6583 14.0672 35.7583 14.1255C35.8583 14.1922 35.8916 14.3255 35.725 14.1922C35.3537 13.9452 34.9636 13.7279 34.5583 13.5422C33.675 13.6422 32.9583 13.7422 32.4333 13.1838C32.175 12.8922 32.175 12.2672 32.6 12.0172C32.5333 11.9422 32.5333 11.8838 32.5666 11.8838V11.6838C32.5 11.6505 32.4333 11.5838 32.4333 11.5172C32.3333 11.5172 32.2666 11.3588 32.1083 11.4255C31.9416 11.4922 31.9166 11.4255 31.85 11.3922C31.8166 11.3255 31.7833 11.3255 31.6833 11.3255C31.5833 11.3255 31.5166 11.3255 31.5166 11.2588C31.5166 11.2005 31.5833 11.2005 31.7166 11.2588C31.9416 11.3588 32.1333 11.4255 32.3 11.2005C32.4333 11.0005 32.2416 10.8422 31.975 10.7755C31.6833 10.7088 31.4916 10.9422 31.3583 11.0338H31.3916Z" fill="white" stroke="black" stroke-width="0.0333333"/>
<path d="M32.825 10.9338C32.7287 10.8471 32.6151 10.7818 32.4917 10.7422C32.4083 10.7422 32.4083 10.8088 32.4333 10.8422V11.0338C32.5 11.0672 32.5333 11.1338 32.4333 11.1338C32.3667 11.2005 32.4333 11.4255 32.5333 11.3588H32.6C32.6 11.3588 32.6 11.4588 32.6583 11.4588C32.725 11.4588 32.6583 11.5255 32.6583 11.5588H32.725C32.7917 11.5588 32.7583 11.6838 32.6917 11.7255C32.7917 11.7255 32.825 11.7255 32.825 11.7838C32.8583 11.8505 32.9583 11.8838 32.9583 11.9755C32.9583 12.0755 32.9583 12.0755 32.825 12.0422C32.6917 12.0088 32.6917 12.0422 32.6583 12.1088C32.6333 12.1755 32.6 12.2088 32.6583 12.2088C32.725 12.2088 32.7917 12.2422 32.6917 12.2755C32.6 12.3005 32.5 12.2755 32.4667 12.3672C32.4667 12.4672 32.4667 12.5005 32.5333 12.4672L32.7583 12.3338L32.925 12.3672C32.9917 12.4005 32.925 12.5338 32.8583 12.4672C32.7917 12.4005 32.725 12.4672 32.6917 12.5005L32.525 12.5672C32.4667 12.5672 32.4 12.5672 32.4417 12.7338C32.4417 13.1838 32.7917 13.5088 33.4417 13.5088H34.525C34.325 13.3755 34.1917 13.3172 34.0917 13.3172H34C34.0333 13.2838 34 13.2172 33.9667 13.2172C33.9333 13.2172 33.8667 13.1505 33.8 13.2172L33.475 13.3838C33.4083 13.3838 33.3083 13.3838 33.4083 13.3172L33.7083 13.1838C33.7667 13.1838 33.7333 13.1172 33.7333 13.1172C33.7333 13.1172 33.7333 13.0172 33.8333 13.0505C34.0333 13.1838 34.325 13.3505 34.4167 13.3505C34.5167 13.3505 34.55 13.2838 34.4833 13.2505C34.425 13.2172 34.3917 13.1505 34.3917 13.1172C34.3917 13.0838 34.425 13.0505 34.5583 13.1172C34.6833 13.2172 34.875 13.2838 34.975 13.3172C35.075 13.3505 35.1417 13.3505 34.975 13.2505L34.225 12.6922C34.125 12.6005 34.125 12.6922 34.1583 12.7588C34.1917 12.8255 34.0667 12.8588 33.9917 12.7922C33.9333 12.7255 33.9 12.6922 33.9917 12.6588C34.0917 12.6338 34.0667 12.6005 33.9667 12.4922C33.8333 12.4088 33.8 12.4088 33.8333 12.4922C33.8667 12.6005 33.8667 12.6588 33.7667 12.6338C33.675 12.6005 33.575 12.5338 33.675 12.5005C33.7333 12.4338 33.8417 12.4005 33.675 12.3005C33.5083 12.2088 33.6083 12.3005 33.575 12.3672C33.5417 12.4338 33.4417 12.4338 33.4083 12.3672C33.375 12.3005 33.3167 12.2755 33.35 12.2422C33.375 12.2088 33.375 12.1755 33.4417 12.2422C33.5083 12.3005 33.575 12.2422 33.475 12.1422C33.375 12.0422 33.35 12.0755 33.375 12.1422C33.4083 12.2088 33.3167 12.2755 33.1833 12.1422C33.1167 12.1088 33.1167 12.0422 33.1833 12.0088C33.25 12.0088 33.25 11.9755 33.1833 11.9172C32.9583 11.5255 33.05 11.2255 32.7917 10.9338H32.825Z" fill="white" stroke="black" stroke-width="0.0333333"/>
<path d="M32.8332 11.0005C32.8166 11.0338 32.8082 11.0255 32.7666 11.0588C32.7249 11.0922 32.7082 11.1838 32.7916 11.1755C32.8146 11.1731 32.8368 11.1659 32.8569 11.1544C32.877 11.143 32.8945 11.1274 32.9082 11.1088C32.8892 11.0708 32.8669 11.0346 32.8416 11.0005H32.8332ZM32.5832 10.7838C32.5082 10.8505 32.4999 10.8838 32.5332 10.8838C32.5749 10.8838 32.5582 10.8838 32.5332 10.9338C32.4999 10.9755 32.5832 11.0005 32.6166 10.9588C32.6582 10.9255 32.6582 10.9172 32.6749 10.9588C32.6832 11.0005 32.7582 10.9588 32.7832 10.9338C32.7249 10.8755 32.6416 10.8255 32.5749 10.7838H32.5832ZM32.4582 11.1505C32.3749 11.1922 32.3999 11.4172 32.5332 11.3505C32.5749 11.3338 32.6082 11.3505 32.6082 11.3755V11.4338C32.6623 11.4115 32.7107 11.3773 32.7499 11.3338C32.8249 11.2338 32.7499 11.2505 32.6332 11.2505C32.5166 11.2505 32.4916 11.2255 32.5999 11.1588C32.6999 11.0922 32.6249 11.0588 32.4916 11.0755C32.5082 11.1005 32.4999 11.1255 32.4582 11.1505ZM32.9499 11.6505C32.8832 11.5755 32.9249 11.5505 32.9916 11.5088C33.0046 11.5035 33.0161 11.4949 33.0249 11.4838L32.9666 11.2672C32.9416 11.2838 32.8999 11.3588 32.8832 11.3922C32.8666 11.4505 32.8499 11.4838 32.7999 11.4755C32.7416 11.4505 32.6916 11.5088 32.6832 11.5672H32.7249C32.7416 11.5755 32.7499 11.6172 32.7416 11.6505C32.8999 11.6505 32.9249 11.7422 32.9499 11.8172C32.9832 11.9005 33.0082 11.8922 33.0332 11.8422C33.0582 11.7922 33.0082 11.7172 32.9499 11.6505Z" fill="#CF6200"/>
<path d="M32.9917 12.5338C32.9583 12.6005 32.9583 12.5922 32.8667 12.5922C32.7833 12.6005 32.6667 12.6172 32.6167 12.6672C32.5917 12.6922 32.4333 12.7088 32.4333 12.7755C32.4333 12.8505 32.4333 12.9005 32.5 12.9088C32.5667 12.9088 32.5833 12.9255 32.5583 12.9755C32.525 13.0255 32.5083 13.1005 32.625 13.1172C32.7417 13.1172 32.8333 13.0922 32.8583 13.1505C32.8917 13.2338 32.8583 13.3255 32.8833 13.3755C32.9 13.4172 32.9833 13.4338 33.1083 13.4755C33.1917 13.4922 33.5083 13.5172 33.6083 13.5005C33.6917 13.4838 33.6583 13.4338 33.5667 13.4338C33.4667 13.4172 33.4 13.4005 33.375 13.3338C33.35 13.2588 33.3333 13.2255 33.3917 13.1672C33.4417 13.1005 33.4917 13.0588 33.4583 12.9588C33.4333 12.8672 33.375 12.7505 33.2667 12.7172C33.1583 12.6838 33.1917 12.5255 33.075 12.5172C33.0333 12.5172 33.0083 12.5172 32.9917 12.5338Z" fill="#FFFF00"/>
<path d="M32.4417 13.4505C32.5417 13.4671 32.6167 13.4921 32.5417 13.5171C32.4667 13.5421 32.4167 13.5838 32.5167 13.5921C32.6167 13.5921 32.7083 13.6421 32.625 13.6588C32.5417 13.6838 32.5417 13.7421 32.6333 13.7421C32.725 13.7421 32.775 13.7755 32.7083 13.8255C32.6333 13.8588 32.5917 13.8838 32.5417 13.8171C32.5 13.7421 32.475 13.7338 32.4667 13.7755C32.45 13.8255 32.425 13.7921 32.3917 13.7171C32.3667 13.6505 32.2917 13.6171 32.3083 13.6755C32.3333 13.7338 32.2583 13.7505 32.1833 13.7171C32.2518 13.7972 32.3336 13.8649 32.425 13.9171C32.525 13.8838 32.6417 13.9171 32.675 13.9171C32.725 13.9171 32.85 13.9505 32.925 13.9921C33 14.0255 33.05 13.9588 33.0167 13.8838C32.9833 13.8005 32.9833 13.8255 32.95 13.8838C32.9 13.9171 32.9 13.8588 32.9 13.7671C32.9 13.7005 32.85 13.7088 32.8417 13.7588C32.825 13.8005 32.7833 13.7255 32.8 13.6838C32.825 13.6421 32.8 13.6171 32.7667 13.6338C32.725 13.6505 32.725 13.6338 32.7167 13.5505C32.7083 13.4588 32.675 13.4671 32.6667 13.5088C32.6583 13.5421 32.6167 13.4921 32.5583 13.4255C32.5167 13.3755 32.475 13.4088 32.3833 13.4338L32.4417 13.4505Z" fill="#CF6200"/>
<path d="M33.4667 13.9838C33.0084 14.1672 32.675 14.0838 32.425 13.9172C32.525 13.8838 32.6417 13.9172 32.6834 13.9172C32.725 13.9172 32.8584 13.9505 32.925 13.9922C32.9917 14.0255 33.05 13.9588 33.0167 13.8838C33.075 13.9672 33.125 14.0172 33.2 14.0088L33.4667 13.9838ZM32.4834 11.8338C32.45 11.7338 32.425 11.7172 32.375 11.7255C32.325 11.7255 32.3 11.7172 32.2417 11.6922C32.1917 11.6672 32.1167 11.6922 32.1084 11.8005C32.0917 11.9088 32.025 11.9505 31.9417 12.0172C31.8584 12.0755 31.8167 12.1255 31.8167 12.2338C31.8167 12.3338 31.7917 12.3505 31.7334 12.4338L31.6417 12.5422L31.7417 12.6005C31.8084 12.6338 31.7834 12.6755 31.725 12.6588C31.6667 12.6422 31.6 12.6755 31.7084 12.6922C31.8084 12.7172 31.85 12.7755 31.7584 12.7755C31.65 12.7505 31.5417 12.8422 31.7334 12.8172C31.925 12.8005 31.9917 12.8922 31.775 12.8922C31.55 12.8922 31.6334 12.9672 31.7584 12.9672C31.9667 12.9672 31.9 13.0255 31.8417 13.0255C31.7917 13.0255 31.7667 13.1088 31.9084 13.0838L31.9584 13.0005C31.9834 12.9338 32 12.7422 32.0834 12.6838C32.1584 12.6338 32.2 12.5422 32.2 12.4922C32.2 12.4422 32.325 12.1838 32.3917 12.1255C32.475 12.0672 32.5084 11.9338 32.475 11.8422L32.4834 11.8338Z" fill="#FFFF00"/>
<path d="M32.3166 11.8505C32.2416 11.7922 32.1582 11.8338 32.1582 11.9338C32.1582 12.0172 32.1083 12.0588 32.0416 12.1005C32.0043 12.1197 31.9715 12.1468 31.9456 12.1799C31.9197 12.213 31.9013 12.2513 31.8916 12.2922C31.8916 12.3755 31.9082 12.4172 31.8582 12.4838C31.7999 12.5422 31.7916 12.5922 31.8249 12.6338C31.8749 12.6672 31.8749 12.6672 31.8833 12.7172C31.9083 12.7672 31.9999 12.7172 31.9999 12.6588C31.9999 12.6005 32.0249 12.6005 32.0833 12.5672C32.1499 12.5338 32.2499 12.3672 32.2249 12.3255C32.2083 12.2838 32.1416 12.2422 32.2249 12.1838C32.3083 12.1172 32.3749 12.1005 32.3749 12.0505C32.3749 11.9838 32.3916 11.9672 32.4166 11.9422C32.4416 11.9172 32.3666 11.8838 32.3166 11.8588V11.8505Z" fill="#CF6200"/>
<path d="M32.3167 11.7671C32.2667 11.7505 32.2334 11.8588 32.3084 11.8755C32.3834 11.8921 32.3917 11.8005 32.3084 11.7755L32.3167 11.7671ZM32.3084 11.9088C32.2501 11.9171 32.1834 11.9921 32.2751 11.9921C32.3751 11.9755 32.4084 11.9088 32.3001 11.9088H32.3084ZM32.1917 12.0505C32.1334 12.0755 32.1501 12.1588 32.2334 12.1005C32.3167 12.0421 32.3334 11.9755 32.1917 12.0505ZM32.1084 12.1671C32.0501 12.1921 32.0501 12.2755 32.1417 12.2171C32.2251 12.1671 32.2501 12.0921 32.1084 12.1671Z" fill="black"/>
<path d="M31.9918 12.2255C31.9334 12.2505 31.9668 12.3255 32.0501 12.2755C32.1334 12.2255 32.1334 12.1505 31.9918 12.2255ZM32.0584 12.3005C31.9918 12.3255 32.0334 12.4005 32.1168 12.3505C32.2001 12.3005 32.2001 12.2255 32.0501 12.3005H32.0584Z" fill="black"/>
<path d="M31.95 12.3255C31.9 12.3588 31.9333 12.4255 32.025 12.3755C32.1083 12.3255 32.1 12.2505 31.95 12.3255ZM32.025 12.4088C31.9583 12.4338 31.9917 12.5088 32.0833 12.4588C32.1667 12.4005 32.1667 12.3338 32.0167 12.4088H32.025Z" fill="black"/>
<path d="M31.9168 12.4588C31.8668 12.4838 31.9001 12.5588 31.9918 12.5088C32.0751 12.4588 32.0584 12.3838 31.9251 12.4588H31.9168Z" fill="black"/>
<path d="M31.9167 12.5255C31.875 12.5588 31.9083 12.6422 32 12.5838C32.0833 12.5255 32.0667 12.4588 31.9167 12.5255Z" fill="black"/>
<path d="M31.8833 13.2422C31.825 13.2422 31.7833 13.3338 31.8583 13.3505C31.9333 13.3672 31.95 13.3755 31.95 13.4255C31.95 13.4755 31.975 13.5672 32.05 13.5672C32.1333 13.5672 32.2 13.4838 32.1333 13.4588C32.0583 13.4338 32 13.4088 31.9917 13.3422C31.9917 13.2838 31.925 13.2422 31.8833 13.2422Z" fill="#CF6200"/>
<path d="M33.9583 12.7505L33.9999 12.8005C34.0583 12.8422 34.1666 12.8005 34.1416 12.7588C34.1333 12.7255 34.0749 12.5922 34.2249 12.6922L34.9916 13.2338C35.1499 13.3505 35.0416 13.3672 34.9749 13.3255L34.5583 13.1338C34.4333 13.0588 34.4166 13.0922 34.3916 13.1088C34.3916 13.1338 34.3916 13.1838 34.4416 13.2255C34.3666 13.2338 34.2499 13.2255 34.2083 13.1422C34.1666 13.0422 34.0666 12.9255 33.9916 12.8338C33.9666 12.8005 33.9583 12.7755 33.9666 12.7588L33.9583 12.7505Z" fill="#FFFF00"/>
<path d="M38.1666 26.6255C38.0582 26.7005 37.9166 26.8255 38.0082 27.0005L38.0416 26.9922C38.4481 26.4987 38.8079 25.9687 39.1166 25.4088V25.3588C39.0033 25.4518 38.8769 25.5276 38.7416 25.5838C38.7916 25.7255 38.5499 25.9005 38.4332 25.9505C38.4832 26.0338 38.4666 26.1672 38.3499 26.1922C38.3749 26.2588 38.2916 26.2588 38.1832 26.3088C38.0916 26.3505 38.0416 26.3755 38.0082 26.4338C38.0582 26.4005 38.1416 26.3755 38.1749 26.3922C38.2082 26.4088 38.2249 26.4672 38.1499 26.4838C38.0832 26.5088 38.0332 26.5422 37.9999 26.5672C38.1082 26.5422 38.2666 26.5505 38.1666 26.6255Z" fill="#00D860"/>
<path d="M33.1499 12.6005C33.0165 12.5005 32.9832 12.5672 33.0165 12.6005C33.0499 12.6338 33.0165 12.7255 32.9249 12.7672H32.5915C32.5332 12.7672 32.4332 12.8922 32.5915 12.8505L33.1165 12.7672C33.1832 12.7672 33.2499 12.6922 33.1165 12.6005H33.1499ZM33.3749 12.7922C33.2832 12.6922 33.2499 12.7255 33.2832 12.7922C33.3165 12.8588 33.2499 12.8922 33.1832 12.8922L32.7249 13.0172C32.5999 13.0172 32.5999 13.1172 32.7582 13.1172C32.9249 13.1172 33.2499 12.9505 33.2832 12.9505C33.3165 12.9505 33.3499 12.8588 33.3749 12.8922C33.4082 12.9255 33.4749 12.8922 33.3749 12.7922ZM33.4749 13.0505L33.1499 13.2172C33.0499 13.2172 32.9832 13.3172 33.1499 13.3172C33.3165 13.3172 33.4832 13.1505 33.5415 13.1172L33.6749 13.0505C33.6749 13.0505 33.7999 13.0172 33.6749 12.9255C33.5415 12.8255 33.4082 12.9255 33.4749 12.9588C33.5415 12.9922 33.4749 13.0505 33.4749 13.0505Z" fill="black" stroke="black" stroke-width="0.0333333"/>
<path d="M32.1418 10.9338C31.9335 10.7922 31.7085 11.0755 31.9335 11.2338C32.1335 11.3755 32.3501 11.0672 32.1501 10.9338H32.1418Z" fill="black"/>
<path d="M31.8834 11.0588H31.9417C31.9417 11.1255 32.0001 11.2255 32.0917 11.2005C32.0167 11.2588 31.8751 11.1838 31.8834 11.0588ZM32.6834 14.1422C32.7501 14.1672 32.9667 14.1838 33.0501 14.1838L32.9501 14.3672C32.9251 14.4255 32.9167 14.4338 32.9084 14.3422C32.9084 14.2588 32.8584 14.2005 32.8167 14.2922L32.7334 14.4588C32.7084 14.4922 32.6751 14.5005 32.6834 14.4088C32.7001 14.3172 32.6917 14.2172 32.6834 14.1422Z" fill="white"/>
<path d="M40.875 16.6422C40.875 21.9505 40.025 27.6838 33.125 30.4172C26.2417 27.6838 25.4 21.9505 25.3667 16.6422H40.875ZM40.875 16.6422C40.875 14.6172 40.775 12.6588 40.8084 10.9755C38.3571 10.0222 35.7467 9.54429 33.1167 9.56716C31.3917 9.56716 28 9.82549 25.4334 10.9672C25.4917 12.6588 25.3667 14.6172 25.3667 16.6338L40.875 16.6422Z" stroke="black" stroke-width="0.1"/>
<path d="M-7 0.000488281H19.6667V20.0005H-7V0.000488281Z" fill="#012169"/>
<path d="M-3.875 0.000488281L6.29167 7.54216L16.4167 0.000488281H19.6667V2.58382L9.66667 10.0422L19.6667 17.4588V20.0005H16.3333L6.33333 12.5422L-3.625 20.0005H-7V17.5005L2.95833 10.0838L-7 2.66716V0.000488281H-3.875Z" fill="white"/>
<path d="M10.6667 11.7088L19.6667 18.3338V20.0005L8.375 11.7088H10.6667ZM3 12.5422L3.25 14.0005L-4.75 20.0005H-7L3 12.5422ZM19.6667 0.000488281V0.125488L9.29167 7.95882L9.375 6.12549L17.5833 0.000488281H19.6667ZM-7 0.000488281L2.95833 7.33382H0.458333L-7 1.75049V0.000488281Z" fill="#C8102E"/>
<path d="M3.04167 0.000488281V20.0005H9.70833V0.000488281H3.04167ZM-7 6.66716V13.3338H19.6667V6.66716H-7Z" fill="white"/>
<path d="M-7 8.04216V12.0422H19.6667V8.04216H-7ZM4.375 0.000488281V20.0005H8.375V0.000488281H4.375Z" fill="#C8102E"/>
</g>
</g>
<defs>
<clipPath id="clip0_769_23553">
<path d="M0 20C0 8.95431 8.95431 0 20 0C31.0457 0 40 8.95431 40 20C40 31.0457 31.0457 40 20 40C8.95431 40 0 31.0457 0 20Z" fill="white"/>
</clipPath>
<clipPath id="clip1_769_23553">
<rect width="53.3333" height="40" fill="white" transform="translate(-7 0.000488281)"/>
</clipPath>
</defs>
</svg>
