<svg width="40" height="40" viewBox="0 0 40 40" fill="none" xmlns="http://www.w3.org/2000/svg">
<g clip-path="url(#clip0_769_23964)">
<path d="M0 20C0 8.95431 8.95431 0 20 0C31.0457 0 40 8.95431 40 20C40 31.0457 31.0457 40 20 40C8.95431 40 0 31.0457 0 20Z" fill="#E94E0F"/>
<g clip-path="url(#clip1_769_23964)">
<path fill-rule="evenodd" clip-rule="evenodd" d="M-10.3333 -0.000976562H49.6667V39.999H-10.3333V-0.000976562Z" fill="#E70013"/>
<path fill-rule="evenodd" clip-rule="evenodd" d="M29.8074 19.9834C29.8074 22.6584 28.7448 25.2238 26.8533 27.1152C24.9618 29.0067 22.3964 30.0693 19.7214 30.0693C17.0465 30.0693 14.4811 29.0067 12.5896 27.1152C10.6981 25.2238 9.6355 22.6584 9.6355 19.9834C9.6355 17.3084 10.6981 14.743 12.5896 12.8516C14.4811 10.9601 17.0465 9.89746 19.7214 9.89746C22.3964 9.89746 24.9618 10.9601 26.8533 12.8516C28.7448 14.743 29.8074 17.3084 29.8074 19.9834Z" fill="white"/>
<path fill-rule="evenodd" clip-rule="evenodd" d="M19.7215 26.6709C17.9864 26.6116 16.3422 25.8806 15.1357 24.6322C13.9293 23.3838 13.2549 21.7156 13.2549 19.9795C13.2549 18.2434 13.9293 16.5751 15.1357 15.3267C16.3422 14.0783 17.9864 13.3474 19.7215 13.2881C20.6434 13.2881 21.6981 13.5068 22.409 14.0303C17.5184 14.21 16.2762 18.3662 16.2762 20.0381C16.2762 21.71 17.0653 25.4365 22.409 25.9912C21.7996 26.3818 20.6434 26.6709 19.7215 26.6709Z" fill="#E70013"/>
<path fill-rule="evenodd" clip-rule="evenodd" d="M25.6121 22.7959L22.573 21.6865L20.5652 24.2178L20.6824 20.9912L17.6511 19.8584L20.7605 18.9678L20.8933 15.7412L22.7058 18.4209L25.8152 17.5615L23.823 20.1006L25.6121 22.7959Z" fill="#E70013"/>
</g>
</g>
<defs>
<clipPath id="clip0_769_23964">
<path d="M0 20C0 8.95431 8.95431 0 20 0C31.0457 0 40 8.95431 40 20C40 31.0457 31.0457 40 20 40C8.95431 40 0 31.0457 0 20Z" fill="white"/>
</clipPath>
<clipPath id="clip1_769_23964">
<rect width="53.3333" height="40" fill="white" transform="translate(-7 -0.000976562)"/>
</clipPath>
</defs>
</svg>
