<svg width="40" height="40" viewBox="0 0 40 40" fill="none" xmlns="http://www.w3.org/2000/svg">
<g clip-path="url(#clip0_769_23632)">
<path d="M0 20C0 8.95431 8.95431 0 20 0C31.0457 0 40 8.95431 40 20C40 31.0457 31.0457 40 20 40C8.95431 40 0 31.0457 0 20Z" fill="#E94E0F"/>
<g clip-path="url(#clip1_769_23632)">
<path d="M46.3333 40.0005V0.000488281H-7V40.0005H46.3333Z" fill="#002868"/>
<path d="M42.1667 14.5505V22.0505C42.1667 27.0505 39.6667 32.4339 33.4167 35.3505C27.1667 32.4339 24.6667 27.0505 24.6667 22.0505V14.5505H42.1667Z" fill="#FCD116" stroke="black" stroke-width="0.666667" stroke-miterlimit="10"/>
<path d="M42.1667 14.5505V22.0505C42.1667 27.0505 39.6667 32.4339 33.4167 35.3505C27.1667 32.4339 24.6667 27.0505 24.6667 22.0505V14.5505H42.1667V14.5505Z" stroke="white" stroke-width="0.583333" stroke-miterlimit="10"/>
<path d="M37.0087 18.3755C37.0087 18.3755 36.2754 17.7588 35.6754 17.3421C35.0754 16.9255 34.342 16.4171 34.342 16.3088C34.4587 16.2255 35.0754 16.6255 35.917 17.1338C36.767 17.6505 37.2504 18.1671 37.2504 18.1671L37.0087 18.3755ZM36.9587 18.7921C36.9587 18.7921 36.2504 18.3671 35.5504 18.0588C34.817 17.7588 33.7254 17.7588 33.617 17.6505C33.617 17.5505 34.8837 17.4838 35.792 17.8505C36.717 18.2755 37.2004 18.5838 37.2004 18.5838L36.9587 18.7921ZM36.9504 19.5005C36.9504 19.5005 36.1837 19.1505 35.4337 18.9838C34.7004 18.8171 33.667 18.8838 33.5337 18.7838C33.5337 18.6838 34.8254 18.4671 35.792 18.7838C36.7754 19.0838 37.192 19.2921 37.192 19.2921L36.9504 19.5005ZM36.9087 20.2171C36.9087 20.2171 36.3254 19.8171 35.5587 19.7338C34.8254 19.6588 33.8587 20.2171 33.7337 20.1088C33.7337 20.0088 34.5754 19.3921 35.6337 19.4921C36.667 19.5921 37.1504 20.0005 37.1504 20.0005L36.9087 20.2171ZM37.1504 17.9505C37.1504 17.9505 36.4087 17.2755 36.4087 16.8171C36.4087 16.4088 36.8587 15.7838 37.0587 15.7838C36.9587 15.9921 36.6087 16.4088 36.6087 16.8171C36.6087 17.2338 37.392 17.7421 37.392 17.7421L37.1504 17.9505Z" fill="#9E540A" stroke="black" stroke-width="0.0229167" stroke-miterlimit="10" stroke-linecap="round" stroke-linejoin="round"/>
<path d="M37.1503 17.9505C37.1503 17.9505 37.3003 17.2755 37.3003 16.8172C37.3003 16.2005 36.8669 15.6422 36.9003 15.4838C37.0586 15.6422 37.4919 16.1005 37.4919 16.8172C37.4919 17.4422 37.3919 17.7422 37.3919 17.7422L37.1503 17.9505Z" fill="#9E540A" stroke="black" stroke-width="0.0229167" stroke-miterlimit="10" stroke-linecap="round" stroke-linejoin="round"/>
<path d="M37.3252 17.7255C37.3252 17.5255 37.2502 17.3505 37.1252 17.2172C36.9585 17.0172 36.7085 16.9589 36.4502 17.0005C36.1335 17.0505 35.8835 17.2422 35.7335 17.5339C35.5252 17.9172 35.5002 18.3339 35.4919 18.7422C35.4919 20.1505 35.5419 20.7255 35.5835 22.1089C35.5919 22.5172 35.6669 23.3505 35.4835 24.0089C35.4085 24.2922 35.3252 24.5505 35.2002 24.8255C35.2835 24.4839 35.3252 24.3089 35.3669 24.0422C35.4835 23.3672 35.4502 22.7255 35.4335 22.1089C35.3919 20.8255 35.3169 20.1755 35.2752 18.6172C35.2669 18.1505 35.3085 17.7922 35.5252 17.4172C35.7585 17.0339 36.1502 16.7505 36.6002 16.7505C36.7835 16.7505 36.9419 16.7839 37.1002 16.8755C37.4169 17.0422 37.5585 17.3839 37.5585 17.7255H37.3252Z" fill="#9E540A" stroke="#FCD116" stroke-width="0.125" stroke-miterlimit="10" stroke-linecap="round" stroke-linejoin="round"/>
<path d="M37.3252 17.7255C37.3252 17.5255 37.2502 17.3505 37.1252 17.2172C36.9585 17.0172 36.7085 16.9589 36.4502 17.0005C36.1335 17.0505 35.8835 17.2422 35.7335 17.5339C35.5252 17.9172 35.5002 18.3339 35.4919 18.7422C35.4919 20.1505 35.5419 20.7255 35.5835 22.1089C35.5919 22.5172 35.6669 23.3505 35.4835 24.0089C35.4085 24.2922 35.3252 24.5505 35.2002 24.8255C35.2835 24.4839 35.3252 24.3089 35.3669 24.0422C35.4835 23.3672 35.4502 22.7255 35.4335 22.1089C35.3919 20.8255 35.3169 20.1755 35.2752 18.6172C35.2669 18.1505 35.3085 17.7922 35.5252 17.4172C35.7585 17.0339 36.1502 16.7505 36.6002 16.7505C36.7835 16.7505 36.9419 16.7839 37.1002 16.8755C37.4169 17.0422 37.5585 17.3839 37.5585 17.7255H37.3252Z" fill="#9E540A"/>
<path d="M37.3835 22.7504C37.3835 22.7504 37.0919 23.2671 36.8752 23.6504C36.6585 24.0338 36.4752 24.1088 36.3085 23.9921C36.1502 23.8754 36.2919 23.5754 36.4085 23.4254C36.5252 23.2754 37.2335 22.6004 37.2335 22.6004L37.3835 22.7504Z" fill="#9E540A" stroke="black" stroke-width="0.0229167" stroke-miterlimit="10" stroke-linecap="round" stroke-linejoin="round"/>
<path d="M37.4584 22.7922C37.4584 22.7922 37.3417 23.3839 37.25 23.8089C37.1667 24.2339 37.0167 24.3839 36.8417 24.3255C36.6584 24.2839 36.6834 23.9422 36.7584 23.7589C36.8334 23.5755 37.2667 22.6839 37.2667 22.6839L37.4584 22.7922Z" fill="#9E540A" stroke="black" stroke-width="0.0229167" stroke-miterlimit="10" stroke-linecap="round" stroke-linejoin="round"/>
<path d="M37.5831 22.8088V23.8504C37.5831 24.2838 37.4831 24.4671 37.2831 24.4504C37.0998 24.4421 37.0498 24.1088 37.0998 23.9088C37.1331 23.7254 37.3915 22.7504 37.3915 22.7504L37.5831 22.8088Z" fill="#9E540A" stroke="black" stroke-width="0.0229167" stroke-miterlimit="10" stroke-linecap="round" stroke-linejoin="round"/>
<path d="M38.158 18.3755C38.158 18.3755 38.8913 17.7588 39.4913 17.3421C40.0913 16.9255 40.8247 16.4171 40.8247 16.3088C40.708 16.2255 40.0913 16.6255 39.2497 17.1338C38.3997 17.6505 37.9163 18.1671 37.9163 18.1671L38.158 18.3755ZM38.208 18.7921C38.208 18.7921 38.9163 18.3671 39.6163 18.0588C40.3497 17.7588 41.4413 17.7588 41.5497 17.6505C41.5497 17.5505 40.283 17.4838 39.3747 17.8505C38.4497 18.2755 37.9663 18.5838 37.9663 18.5838L38.208 18.7921ZM38.2163 19.5005C38.2163 19.5005 38.983 19.1505 39.733 18.9838C40.4663 18.8171 41.4997 18.8838 41.633 18.7838C41.633 18.6838 40.3413 18.4671 39.3747 18.7838C38.3913 19.0838 37.9747 19.2921 37.9747 19.2921L38.2163 19.5005ZM38.258 20.2171C38.258 20.2171 38.8413 19.8171 39.608 19.7338C40.3413 19.6588 41.308 20.2171 41.433 20.1088C41.433 20.0088 40.5913 19.3921 39.533 19.4921C38.4997 19.5921 38.0163 20.0005 38.0163 20.0005L38.258 20.2171ZM38.0163 17.9505C38.0163 17.9505 38.758 17.2755 38.758 16.8171C38.758 16.4088 38.308 15.7838 38.108 15.7838C38.208 15.9921 38.558 16.4088 38.558 16.8171C38.558 17.2338 37.7747 17.7421 37.7747 17.7421L38.0163 17.9505Z" fill="#9E540A" stroke="black" stroke-width="0.0229167" stroke-miterlimit="10" stroke-linecap="round" stroke-linejoin="round"/>
<path d="M38.016 17.9505C38.016 17.9505 37.866 17.2755 37.866 16.8172C37.866 16.2005 38.2993 15.6422 38.266 15.4838C38.1077 15.6422 37.6743 16.1005 37.6743 16.8172C37.6743 17.4422 37.7743 17.7422 37.7743 17.7422L38.016 17.9505Z" fill="#9E540A" stroke="black" stroke-width="0.0229167" stroke-miterlimit="10" stroke-linecap="round" stroke-linejoin="round"/>
<path d="M37.8415 17.7256C37.8415 17.5256 37.9165 17.3506 38.0415 17.2172C38.2082 17.0172 38.4582 16.9589 38.7165 17.0006C39.0332 17.0506 39.2832 17.2422 39.4332 17.5339C39.6415 17.9172 39.6665 18.3339 39.6748 18.7422C39.6748 20.1506 39.6248 20.7256 39.5832 22.1089C39.5748 22.5172 39.4998 23.3506 39.6832 24.0089C39.7582 24.2922 39.8415 24.5506 39.9665 24.8256C39.8832 24.4839 39.8415 24.3089 39.7998 24.0422C39.6832 23.3672 39.7165 22.7256 39.7332 22.1089C39.7748 20.8256 39.8498 20.1756 39.8915 18.6172C39.8998 18.1506 39.8582 17.7922 39.6415 17.4172C39.4082 17.0339 39.0165 16.7506 38.5665 16.7506C38.3832 16.7506 38.2248 16.7839 38.0665 16.8756C37.7498 17.0422 37.6082 17.3839 37.6082 17.7256H37.8415Z" fill="#9E540A" stroke="#FCD116" stroke-width="0.125" stroke-miterlimit="10" stroke-linecap="round" stroke-linejoin="round"/>
<path d="M37.8415 17.7256C37.8415 17.5256 37.9165 17.3506 38.0415 17.2172C38.2082 17.0172 38.4582 16.9589 38.7165 17.0006C39.0332 17.0506 39.2832 17.2422 39.4332 17.5339C39.6415 17.9172 39.6665 18.3339 39.6748 18.7422C39.6748 20.1506 39.6248 20.7256 39.5832 22.1089C39.5748 22.5172 39.4998 23.3506 39.6832 24.0089C39.7582 24.2922 39.8415 24.5506 39.9665 24.8256C39.8832 24.4839 39.8415 24.3089 39.7998 24.0422C39.6832 23.3672 39.7165 22.7256 39.7332 22.1089C39.7748 20.8256 39.8498 20.1756 39.8915 18.6172C39.8998 18.1506 39.8582 17.7922 39.6415 17.4172C39.4082 17.0339 39.0165 16.7506 38.5665 16.7506C38.3832 16.7506 38.2248 16.7839 38.0665 16.8756C37.7498 17.0422 37.6082 17.3839 37.6082 17.7256H37.8415Z" fill="#9E540A"/>
<path d="M37.783 22.7504C37.783 22.7504 38.0746 23.2671 38.2913 23.6504C38.508 24.0338 38.6913 24.1088 38.858 23.9921C39.0163 23.8754 38.8746 23.5754 38.758 23.4254C38.6413 23.2754 37.933 22.6004 37.933 22.6004L37.783 22.7504Z" fill="#9E540A" stroke="black" stroke-width="0.0229167" stroke-miterlimit="10" stroke-linecap="round" stroke-linejoin="round"/>
<path d="M37.7085 22.7922C37.7085 22.7922 37.8252 23.3839 37.9168 23.8089C38.0002 24.2339 38.1502 24.3839 38.3252 24.3255C38.5085 24.2839 38.4835 23.9422 38.4085 23.7589C38.3335 23.5755 37.9002 22.6839 37.9002 22.6839L37.7085 22.7922Z" fill="#9E540A" stroke="black" stroke-width="0.0229167" stroke-miterlimit="10" stroke-linecap="round" stroke-linejoin="round"/>
<path d="M37.583 22.8088V23.8504C37.583 24.2838 37.683 24.4671 37.883 24.4504C38.0663 24.4421 38.1163 24.1088 38.0663 23.9088C38.033 23.7254 37.7747 22.7504 37.7747 22.7504L37.583 22.8088Z" fill="#9E540A" stroke="black" stroke-width="0.0229167" stroke-miterlimit="10" stroke-linecap="round" stroke-linejoin="round"/>
<path d="M37.5835 22.8004C37.0335 22.7921 36.9834 22.5921 36.9834 22.5921C36.9834 22.5921 36.9084 22.3421 36.9001 22.1838C36.8918 22.1671 36.7418 21.8504 36.7835 21.7171C36.7335 21.5921 36.6084 21.2921 36.7168 21.2338C36.6668 21.0838 36.5834 20.9171 36.5668 20.7671C36.5251 20.6504 36.4168 20.4004 36.5001 20.3171C36.5001 20.3171 36.3001 19.9004 36.4001 19.8004C36.4001 19.8004 36.3084 19.3921 36.4001 19.2921C36.4001 19.2921 36.4001 18.8754 36.5001 18.7754C36.5001 18.7754 36.5001 18.3671 36.5918 18.2671C36.5918 18.2838 36.8835 17.6921 37.5751 17.6921L37.5668 18.5754H37.5751V22.8004H37.5835Z" fill="#9E540A" stroke="black" stroke-width="0.0229167" stroke-miterlimit="10" stroke-linecap="round" stroke-linejoin="round"/>
<path d="M37.583 21.0421C36.6996 21.0421 36.5996 20.8338 36.5996 20.8338L36.5663 20.7671M37.583 20.5338C36.6996 20.5255 36.508 20.3255 36.508 20.3255L37.583 20.5338ZM37.583 20.0088C36.6996 20.0088 36.408 19.8005 36.408 19.8005L37.583 20.0088ZM37.583 19.5005C36.6996 19.4921 36.408 19.2921 36.408 19.2921L37.583 19.5005ZM37.583 18.9755C36.6996 18.9671 36.508 18.7671 36.508 18.7671L37.583 18.9755ZM37.5746 18.5755C37.583 18.5755 36.908 18.5755 36.808 18.4755L36.608 18.2755L37.5746 18.5755ZM37.583 22.3838C37.3246 22.3838 37.033 22.3421 36.8996 22.1838L37.583 22.3838ZM37.583 21.9671C37.0913 21.9671 36.7996 21.7671 36.7996 21.7671C36.7996 21.7671 36.7913 21.7505 36.783 21.7171L37.583 21.9671ZM37.583 21.4588C36.933 21.4505 36.758 21.3088 36.7163 21.2421L37.583 21.4588Z" stroke="black" stroke-width="0.0229167" stroke-miterlimit="10" stroke-linecap="round" stroke-linejoin="round"/>
<path d="M37.5833 22.8004C38.1333 22.7921 38.1833 22.5921 38.1833 22.5921C38.1833 22.5921 38.2583 22.3421 38.2666 22.1838C38.2749 22.1671 38.4249 21.8504 38.3832 21.7171C38.4332 21.5921 38.5583 21.2921 38.4499 21.2338C38.4999 21.0838 38.5833 20.9171 38.5999 20.7671C38.6416 20.6504 38.7499 20.4004 38.6666 20.3171C38.6666 20.3171 38.8666 19.9004 38.7666 19.8004C38.7666 19.8004 38.8583 19.3921 38.7666 19.2921C38.7666 19.2921 38.7666 18.8754 38.6666 18.7754C38.6666 18.7754 38.6666 18.3671 38.5749 18.2671C38.5749 18.2838 38.2832 17.6921 37.5916 17.6921L37.5999 18.5754H37.5833V22.8004Z" fill="#9E540A" stroke="black" stroke-width="0.0229167" stroke-miterlimit="10" stroke-linecap="round" stroke-linejoin="round"/>
<path d="M37.583 21.0421C38.4663 21.0421 38.5663 20.8338 38.5663 20.8338L38.5997 20.7671M37.583 20.5338C38.4663 20.5255 38.658 20.3255 38.658 20.3255L37.583 20.5338ZM37.583 20.0088C38.4663 20.0088 38.758 19.8005 38.758 19.8005L37.583 20.0088ZM37.583 19.5005C38.4663 19.4921 38.758 19.2921 38.758 19.2921L37.583 19.5005ZM37.583 18.9755C38.4663 18.9671 38.658 18.7671 38.658 18.7671L37.583 18.9755ZM37.5913 18.5755C37.583 18.5755 38.258 18.5755 38.358 18.4755L38.558 18.2755L37.5913 18.5755ZM37.583 22.3838C37.8413 22.3838 38.133 22.3421 38.2663 22.1838L37.583 22.3838ZM37.583 21.9671C38.0747 21.9671 38.3663 21.7671 38.3663 21.7671C38.3663 21.7671 38.3747 21.7505 38.383 21.7171L37.583 21.9671ZM37.583 21.4588C38.233 21.4505 38.408 21.3088 38.4497 21.2421L37.583 21.4588Z" stroke="black" stroke-width="0.0229167" stroke-miterlimit="10" stroke-linecap="round" stroke-linejoin="round"/>
<path d="M30.2582 22.8088C30.0249 23.1921 29.6415 23.2754 29.3415 23.1504C29.0249 23.0254 28.7499 22.3004 28.4332 21.9004C28.1332 21.5171 28.0499 21.6838 27.8415 21.4504C27.6415 21.2338 27.3332 21.0671 26.8415 20.8338C26.5749 20.7088 26.2915 20.5921 26.0999 20.1171C26.1749 19.9171 26.3665 19.7504 26.5249 19.6921C26.6832 19.6421 26.8082 19.4088 26.8249 19.2088C26.8415 19.0254 27.0082 18.8088 27.2415 18.6588C27.1415 18.6754 26.9165 18.6421 26.8165 18.5671C26.7249 18.4838 26.5665 18.5004 26.4749 18.5754C26.3832 18.6421 26.2665 18.6588 26.0999 18.6421C26.1665 18.5921 26.2749 18.4754 26.2832 18.3754C26.2915 18.2754 26.4165 18.2171 26.6582 18.2171C26.8915 18.2171 27.0415 17.9504 27.2332 17.9504C27.0999 17.9504 27.1332 17.7171 27.1999 17.7088C26.8665 17.6421 26.9082 17.3754 27.0415 17.3754C27.0332 17.3338 26.9915 17.2921 26.8332 17.2421C26.6832 17.1921 26.7582 17.0588 26.8749 16.9754C26.7749 16.7671 26.8665 16.6088 27.0332 16.4754C26.7999 16.4671 27.0499 16.1421 27.1165 15.9671C27.1832 15.8004 27.2082 15.7838 27.2832 15.8838C27.3665 15.9754 27.5499 16.2004 27.7749 16.2588C27.9832 16.3254 28.1082 16.4338 28.1499 16.6088C28.1915 16.7921 28.2749 16.8921 28.4999 16.9754C28.7415 17.0504 29.0665 17.2421 29.0165 17.6921C29.1999 17.7004 29.3415 17.7588 29.4499 17.8504" fill="#FCAD56"/>
<path d="M30.2582 22.8088C30.0249 23.1921 29.6415 23.2754 29.3415 23.1504C29.0249 23.0254 28.7499 22.3004 28.4332 21.9004C28.1332 21.5171 28.0499 21.6838 27.8415 21.4504C27.6415 21.2338 27.3332 21.0671 26.8415 20.8338C26.5749 20.7088 26.2915 20.5921 26.0999 20.1171C26.1749 19.9171 26.3665 19.7504 26.5249 19.6921C26.6832 19.6421 26.8082 19.4088 26.8249 19.2088C26.8415 19.0254 27.0082 18.8088 27.2415 18.6588C27.1415 18.6754 26.9165 18.6421 26.8165 18.5671C26.7249 18.4838 26.5665 18.5004 26.4749 18.5754C26.3832 18.6421 26.2665 18.6588 26.0999 18.6421C26.1665 18.5921 26.2749 18.4754 26.2832 18.3754C26.2915 18.2754 26.4165 18.2171 26.6582 18.2171C26.8915 18.2171 27.0415 17.9504 27.2332 17.9504C27.0999 17.9504 27.1332 17.7171 27.1999 17.7088C26.8665 17.6421 26.9082 17.3754 27.0415 17.3754C27.0332 17.3338 26.9915 17.2921 26.8332 17.2421C26.6832 17.1921 26.7582 17.0588 26.8749 16.9754C26.7749 16.7671 26.8665 16.6088 27.0332 16.4754C26.7999 16.4671 27.0499 16.1421 27.1165 15.9671C27.1832 15.8004 27.2082 15.7838 27.2832 15.8838C27.3665 15.9754 27.5499 16.2004 27.7749 16.2588C27.9832 16.3254 28.1082 16.4338 28.1499 16.6088C28.1915 16.7921 28.2749 16.8921 28.4999 16.9754C28.7415 17.0504 29.0665 17.2421 29.0165 17.6921C29.1999 17.7004 29.3415 17.7588 29.4499 17.8504" stroke="black" stroke-width="0.0229167" stroke-miterlimit="10" stroke-linecap="round" stroke-linejoin="round"/>
<path d="M30.8335 17.1672C30.8335 17.4172 30.9501 17.5755 31.0918 17.7005C31.2501 17.8255 31.3835 17.9338 31.3501 18.0838C31.3168 18.2505 31.3835 18.3505 31.5168 18.4588C31.6668 18.5588 31.7668 18.6922 31.7251 18.8922C31.6835 19.0922 31.7168 19.2255 31.8001 19.3838C31.8835 19.5422 32.0335 19.6672 31.9668 19.9172C31.9001 20.1672 31.9335 20.5005 32.0168 20.6672C32.0918 20.8255 32.0168 20.9505 31.8668 21.2338C31.7168 21.5005 31.6335 21.6088 31.3335 21.7172C31.0168 21.8088 31.0001 22.0005 31.0001 22.3172C31.0001 22.6505 30.7835 22.8172 30.3751 22.7505C29.9585 23.0922 29.7001 22.6838 29.5918 22.1755C29.4835 21.6672 29.4668 21.1088 28.8501 20.6672C28.2501 20.2088 28.4835 19.4338 29.0001 19.1255C29.5085 18.8255 29.4501 17.9255 29.3835 17.3755C29.3335 16.8255 29.7001 16.5088 29.9751 16.2088C30.3668 16.3505 30.8335 16.9255 30.8335 17.1672Z" fill="#FFA1A1" stroke="black" stroke-width="0.0229167" stroke-miterlimit="10" stroke-linecap="round" stroke-linejoin="round"/>
<path d="M29.9498 20.7171C29.8331 20.4505 29.7081 20.1755 30.0164 19.5921C30.3331 19.0005 30.1331 18.5505 30.0331 18.2505C29.9414 17.9588 29.9164 17.6838 30.0331 17.5671C30.1581 17.4505 30.2081 17.3838 30.2164 17.1838C30.2248 17.0005 30.3831 17.0588 30.3998 17.1505C30.4164 17.2421 30.4414 17.4005 30.2748 17.6838C30.1081 17.9755 30.7414 18.6838 30.4498 19.4421C30.2498 19.9755 30.5164 20.6505 30.6164 21.1171C30.7164 21.5838 30.7831 22.7088 30.0998 22.8755C30.5748 22.6421 30.1331 21.1588 29.9498 20.7171Z" fill="#F1B2DC" stroke="black" stroke-width="0.0229167" stroke-miterlimit="10" stroke-linecap="round" stroke-linejoin="round"/>
<path d="M27.0415 16.4671C27.1165 16.4671 27.2749 16.4505 27.2749 16.5421M26.8499 20.6338C26.9665 20.6505 27.0249 20.5921 27.0582 20.5171C27.0915 20.4421 27.1082 20.4005 27.2165 20.3921C27.3165 20.3921 27.4832 20.3588 27.5332 20.2755C27.5665 20.1921 27.6915 20.2671 27.7999 20.0588C27.8999 19.8421 27.9749 19.5921 28.2582 19.4921L26.8499 20.6338ZM29.0332 17.6838C28.9332 17.6838 28.6249 17.6921 28.4999 17.9671L29.0332 17.6838ZM27.6332 16.3921C27.8832 16.4671 27.7832 16.6338 27.8999 16.7255C28.1332 16.9005 27.9165 17.0921 28.1082 17.1421C28.2999 17.1921 28.2832 17.2255 28.2415 17.4338C28.1749 17.6755 28.4082 17.6838 28.3249 17.8421L27.6332 16.3921ZM27.2499 18.6671C27.3999 18.5338 27.7582 18.4255 27.8415 18.2838L27.2499 18.6671ZM27.2415 17.9505C27.4582 17.9421 27.7499 18.0255 27.7915 17.9421L27.2415 17.9505ZM27.2082 17.7088C27.3082 17.7088 27.5332 17.6338 27.5749 17.4921L27.2082 17.7088ZM27.0499 17.3755C27.1749 17.3755 27.3332 17.3671 27.4832 17.2505L27.0499 17.3755ZM26.8832 16.9671C26.9749 16.8921 27.1415 16.9755 27.2999 16.8755L26.8832 16.9671Z" stroke="black" stroke-width="0.0229167" stroke-miterlimit="10" stroke-linecap="round" stroke-linejoin="round"/>
<path d="M33.4168 32.3838C32.9668 32.8005 32.1002 32.5338 31.8335 32.3421C31.5502 32.4338 30.8002 32.1421 30.6002 31.8255C30.0585 31.9005 29.8668 31.1255 29.9668 30.9255C30.1168 30.6338 29.8502 30.4421 30.0418 30.2505C30.3002 30.0005 29.8918 29.7588 30.1418 29.5921C30.3918 29.4171 30.0752 29.1255 30.3252 28.9338C30.5835 28.7338 30.1918 28.4671 30.4585 28.3338C30.7252 28.2005 30.4252 27.8421 30.6585 27.7088C30.8918 27.5755 30.5252 27.2255 30.8335 27.0755C31.1335 26.9171 30.8668 26.6505 31.1002 26.5338C31.3585 26.4005 31.1168 26.1171 31.3585 26.0255C31.6252 25.9088 31.4335 25.6088 31.6585 25.5255C31.8585 25.4505 31.7335 25.2671 31.8585 25.1005H33.4168" fill="#009E49"/>
<path d="M33.4168 32.3838C32.9668 32.8005 32.1002 32.5338 31.8335 32.3421C31.5502 32.4338 30.8002 32.1421 30.6002 31.8255C30.0585 31.9005 29.8668 31.1255 29.9668 30.9255C30.1168 30.6338 29.8502 30.4421 30.0418 30.2505C30.3002 30.0005 29.8918 29.7588 30.1418 29.5921C30.3918 29.4171 30.0752 29.1255 30.3252 28.9338C30.5835 28.7338 30.1918 28.4671 30.4585 28.3338C30.7252 28.2005 30.4252 27.8421 30.6585 27.7088C30.8918 27.5755 30.5252 27.2255 30.8335 27.0755C31.1335 26.9171 30.8668 26.6505 31.1002 26.5338C31.3585 26.4005 31.1168 26.1171 31.3585 26.0255C31.6252 25.9088 31.4335 25.6088 31.6585 25.5255C31.8585 25.4505 31.7335 25.2671 31.8585 25.1005H33.4168" stroke="black" stroke-width="0.0229167" stroke-miterlimit="10" stroke-linecap="round" stroke-linejoin="round"/>
<path d="M32.7916 25.2255C32.6082 25.4838 32.8916 25.6005 32.7166 25.8088C32.5416 26.0255 32.7916 26.1005 32.6499 26.3505C32.5082 26.6005 32.7499 26.6672 32.5749 26.9172C32.3999 27.1672 32.6666 27.3672 32.4832 27.6172C32.2832 27.8672 32.5749 28.0005 32.3999 28.2505C32.2332 28.5088 32.4832 28.6505 32.3249 28.8338C32.1666 29.0338 32.4416 29.2172 32.2416 29.4588C32.0582 29.6922 32.3249 29.8672 32.1666 30.0755C32.0082 30.2922 32.2332 30.5255 32.0916 30.7005C31.9582 30.8672 32.1832 31.1255 31.9916 31.3588C31.8082 31.5922 32.0332 31.7422 31.9166 31.9005C31.7999 32.0588 31.7082 32.2838 31.8249 32.3505M32.3832 25.1588C32.1749 25.3672 32.4249 25.5255 32.2166 25.7755C31.9999 26.0338 32.1999 26.1755 32.0166 26.4005C31.8332 26.6255 32.0999 26.7422 31.8999 27.0005C31.6999 27.2505 31.9416 27.4088 31.7249 27.6172C31.5166 27.8338 31.7666 28.0255 31.5499 28.2505C31.3416 28.4922 31.5916 28.6505 31.3832 28.8505C31.1666 29.0672 31.4166 29.3005 31.2082 29.5088C30.9999 29.7255 31.2499 30.0005 31.0082 30.2505C30.7749 30.5005 31.0499 30.7005 30.8582 30.8838C30.6582 31.0838 30.8416 31.2838 30.6999 31.4172C30.5582 31.5505 30.5416 31.7422 30.5999 31.8255L32.3832 25.1588Z" stroke="black" stroke-width="0.0229167" stroke-miterlimit="10" stroke-linecap="round" stroke-linejoin="round"/>
<path d="M33.4167 32.3838C33.8667 32.8005 34.7334 32.5338 35.0001 32.3421C35.2834 32.4338 36.0334 32.1421 36.2334 31.8255C36.7751 31.9005 36.9667 31.1255 36.8667 30.9255C36.7167 30.6338 36.9834 30.4421 36.7917 30.2505C36.5334 30.0005 36.9417 29.7588 36.6917 29.5921C36.4417 29.4171 36.7584 29.1255 36.5084 28.9338C36.2501 28.7338 36.6417 28.4671 36.3751 28.3338C36.1084 28.2005 36.4084 27.8421 36.1751 27.7088C35.9417 27.5755 36.3084 27.2255 36.0001 27.0755C35.7001 26.9171 35.9667 26.6505 35.7334 26.5338C35.4751 26.4005 35.7167 26.1171 35.4751 26.0255C35.2084 25.9088 35.4001 25.6088 35.1751 25.5255C34.9751 25.4505 35.1001 25.2671 34.9751 25.1005H33.4167" fill="#009E49"/>
<path d="M33.4167 32.3838C33.8667 32.8005 34.7334 32.5338 35.0001 32.3421C35.2834 32.4338 36.0334 32.1421 36.2334 31.8255C36.7751 31.9005 36.9667 31.1255 36.8667 30.9255C36.7167 30.6338 36.9834 30.4421 36.7917 30.2505C36.5334 30.0005 36.9417 29.7588 36.6917 29.5921C36.4417 29.4171 36.7584 29.1255 36.5084 28.9338C36.2501 28.7338 36.6417 28.4671 36.3751 28.3338C36.1084 28.2005 36.4084 27.8421 36.1751 27.7088C35.9417 27.5755 36.3084 27.2255 36.0001 27.0755C35.7001 26.9171 35.9667 26.6505 35.7334 26.5338C35.4751 26.4005 35.7167 26.1171 35.4751 26.0255C35.2084 25.9088 35.4001 25.6088 35.1751 25.5255C34.9751 25.4505 35.1001 25.2671 34.9751 25.1005H33.4167" stroke="black" stroke-width="0.0229167" stroke-miterlimit="10" stroke-linecap="round" stroke-linejoin="round"/>
<path d="M34.0417 25.2255C34.2251 25.4838 33.9417 25.6005 34.1167 25.8088C34.2917 26.0255 34.0417 26.1005 34.1834 26.3505C34.3251 26.6005 34.0834 26.6672 34.2584 26.9172C34.4334 27.1672 34.1667 27.3672 34.3501 27.6172C34.5501 27.8672 34.2584 28.0005 34.4334 28.2505C34.6001 28.5088 34.3501 28.6505 34.5084 28.8338C34.6667 29.0338 34.3917 29.2172 34.5917 29.4588C34.7751 29.6922 34.5084 29.8672 34.6667 30.0755C34.8251 30.2922 34.6001 30.5255 34.7417 30.7005C34.8751 30.8672 34.6501 31.1255 34.8417 31.3588C35.0251 31.5922 34.8001 31.7422 34.9167 31.9005C35.0334 32.0588 35.1251 32.2838 35.0084 32.3505M34.4501 25.1588C34.6584 25.3672 34.4084 25.5255 34.6167 25.7755C34.8334 26.0338 34.6334 26.1755 34.8167 26.4005C35.0001 26.6255 34.7334 26.7422 34.9334 27.0005C35.1334 27.2505 34.8917 27.4088 35.1084 27.6172C35.3167 27.8338 35.0667 28.0255 35.2834 28.2505C35.4917 28.4922 35.2417 28.6505 35.4501 28.8505C35.6667 29.0672 35.4167 29.3005 35.6251 29.5088C35.8334 29.7255 35.5834 30.0005 35.8251 30.2505C36.0584 30.5005 35.7834 30.7005 35.9751 30.8838C36.1751 31.0838 35.9917 31.2838 36.1334 31.4172C36.2751 31.5505 36.2917 31.7422 36.2334 31.8255L34.4501 25.1588Z" stroke="black" stroke-width="0.0229167" stroke-miterlimit="10" stroke-linecap="round" stroke-linejoin="round"/>
<path d="M33.4167 32.3838V25.0921" stroke="#009E49" stroke-width="0.0229167" stroke-miterlimit="10" stroke-linecap="round" stroke-linejoin="round"/>
<path d="M33.4165 25.4671C33.3248 25.8755 33.5498 26.2255 33.4165 26.5671C33.2832 26.9005 33.5082 27.0338 33.4332 27.3088C33.3498 27.5755 33.5248 27.7755 33.4165 28.0671C33.3082 28.3588 33.5748 28.5838 33.4165 28.9755C33.2582 29.3505 33.5165 29.4421 33.4165 29.8255C33.2998 30.2588 33.6165 30.4921 33.4165 30.8088C33.2165 31.1255 33.5915 31.1921 33.4332 31.5505C33.2748 31.8921 33.5248 32.0338 33.4165 32.3838" stroke="black" stroke-width="0.0229167" stroke-miterlimit="10" stroke-linecap="round" stroke-linejoin="round"/>
<path d="M33.575 26.7839C33.525 26.9006 33.7333 27.1672 33.6167 27.3756C33.4917 27.5756 33.6833 27.8839 33.55 28.1339C33.4167 28.3839 33.75 28.7006 33.625 28.9839C33.4917 29.2756 33.6917 29.6422 33.625 29.9089C33.575 30.1756 33.7583 30.7006 33.625 30.8922C33.4917 31.0922 33.7583 31.1422 33.6083 31.6256C33.4583 32.1089 33.35 31.7006 33.4417 31.5506C33.6417 31.2256 33.225 31.1256 33.425 30.8089C33.625 30.4922 33.3083 30.2672 33.425 29.8256C33.525 29.4422 33.2667 29.3422 33.425 28.9756C33.5833 28.5922 33.3083 28.3589 33.425 28.0672C33.5417 27.7756 33.3583 27.5756 33.4417 27.3089C33.5167 27.0422 33.2833 26.9006 33.425 26.5672C33.5167 26.2422 33.625 26.6672 33.575 26.7839ZM32.7 27.1172C32.625 27.2422 32.825 27.4839 32.65 27.7172C32.525 27.8839 32.7333 28.0839 32.5583 28.3172C32.4417 28.4839 32.675 28.6922 32.5167 28.9339C32.4167 29.0672 32.5917 29.3339 32.4667 29.5256C32.3417 29.7339 32.5333 29.9006 32.3083 30.1756C32.1833 30.3256 32.4 30.6839 32.2667 30.8006C32.1333 30.9172 32.2583 31.3672 32.1667 31.4256C32.0833 31.5006 32.1667 31.8256 31.9333 31.8922C32.05 31.7339 31.8167 31.5756 32.0083 31.3506C32.2083 31.1172 31.975 30.8589 32.1083 30.6922C32.2417 30.5172 32.025 30.2839 32.1833 30.0672C32.3417 29.8589 32.0667 29.6839 32.2583 29.4506C32.4583 29.2089 32.1833 29.0256 32.3417 28.8256C32.5 28.6422 32.25 28.5006 32.4167 28.2422C32.5917 27.9922 32.3 27.8589 32.5 27.6089C32.6833 27.3589 32.4167 27.1589 32.5917 26.9089C32.7667 26.6589 32.525 26.5922 32.6667 26.3422C32.9083 26.4506 32.7833 26.9922 32.7 27.1172ZM32.175 26.4339C32.075 26.6006 32.2167 26.8006 32.0583 27.0089C31.9 27.2256 32.0583 27.5006 31.9 27.6756C31.7417 27.8422 31.9417 28.1756 31.7417 28.3089C31.5417 28.4422 31.6667 28.8506 31.5083 28.9839C31.35 29.1172 31.5083 29.5006 31.3333 29.7006C31.1583 29.9006 31.2417 30.3006 31.1333 30.4006C31.0417 30.4922 31.2667 30.6922 31.1 30.8256C30.925 30.9589 30.925 31.2339 30.6917 31.4089C30.825 31.2756 30.65 31.0756 30.85 30.8756C31.0333 30.6922 30.7667 30.4922 31 30.2422C31.2417 29.9922 30.9917 29.7256 31.2 29.5006C31.4083 29.2922 31.1583 29.0672 31.375 28.8422C31.5833 28.6339 31.3333 28.4756 31.5417 28.2422C31.7583 28.0089 31.5083 27.8256 31.7167 27.6089C31.9333 27.4006 31.7 27.2422 31.8917 26.9922C32.0917 26.7339 31.825 26.6172 32.0083 26.3922C32.0917 26.2922 32.0917 26.1922 32.0917 26.1089C32.2333 25.7922 32.2333 26.3506 32.175 26.4339Z" fill="#FCD116" stroke="black" stroke-width="0.0229167" stroke-miterlimit="10" stroke-linecap="round" stroke-linejoin="round"/>
<path d="M31.9668 25.3338C31.9668 23.1505 32.2668 22.3838 33.4168 22.3838C34.5668 22.3838 34.8668 23.1421 34.8668 25.3338H31.9668Z" fill="#CE1126" stroke="black" stroke-width="0.0229167" stroke-miterlimit="10" stroke-linecap="round" stroke-linejoin="round"/>
<path d="M31.9668 25.3338C31.9668 23.1505 32.2668 22.3838 33.4168 22.3838C32.9001 22.3838 32.5751 22.7921 32.4918 23.0588C32.4001 23.3255 32.4501 23.3088 32.5668 23.2088C32.6835 23.1088 32.6335 23.3338 32.5251 23.4588C32.4335 23.5838 32.3418 23.9505 32.4751 23.8338C32.6085 23.7088 32.7168 23.8421 32.5668 24.0505C32.4168 24.2505 32.3001 24.7255 32.4418 24.5588C32.5835 24.3921 32.6168 24.6588 32.5251 24.8005C32.4418 24.9338 32.4501 25.0588 32.5251 25.0005C32.6085 24.9338 32.6001 25.2171 32.5251 25.3338H31.9668ZM33.9585 25.2921C33.9585 24.9671 33.9668 24.2088 33.7918 23.9588C33.6668 23.7588 33.6668 23.5505 33.8085 23.7838C33.9501 24.0171 34.0251 23.9005 33.9251 23.6671C33.8001 23.3755 33.6335 23.0505 33.6751 22.9921C33.7251 22.9171 33.7585 22.9505 33.8585 23.1088C33.9585 23.2671 33.9835 23.0338 33.8668 22.8755C33.7501 22.7255 33.7668 22.7005 34.0001 22.8005C34.4251 22.9755 34.6335 23.4838 34.6335 25.2088L33.9585 25.2921Z" fill="black" stroke="black" stroke-width="0.0229167" stroke-miterlimit="10" stroke-linecap="round" stroke-linejoin="round"/>
<path d="M33.4165 25.6421C32.9581 25.6421 32.4581 25.5671 32.1248 25.4338C31.7248 25.2755 31.7081 25.1421 31.8415 24.9755C31.9415 24.8505 32.1581 24.9255 32.3581 25.0171C32.5581 25.1005 33.1165 25.1671 33.4081 25.1671C33.6998 25.1671 34.2581 25.1005 34.4581 25.0088C34.6665 24.9255 34.8748 24.8505 34.9748 24.9755C35.1081 25.1421 35.0915 25.2755 34.6915 25.4338C34.3748 25.5755 33.8748 25.6421 33.4165 25.6421Z" fill="#CE1126" stroke="black" stroke-width="0.0229167" stroke-miterlimit="10" stroke-linecap="round" stroke-linejoin="round"/>
<path d="M-7 0.000488281H19.6667V20.0005H-7V0.000488281Z" fill="#012169"/>
<path d="M-3.875 0.000488281L6.29167 7.54216L16.4167 0.000488281H19.6667V2.58382L9.66667 10.0422L19.6667 17.4588V20.0005H16.3333L6.33333 12.5422L-3.625 20.0005H-7V17.5005L2.95833 10.0838L-7 2.66716V0.000488281H-3.875Z" fill="white"/>
<path d="M10.6667 11.7088L19.6667 18.3338V20.0005L8.375 11.7088H10.6667ZM3 12.5422L3.25 14.0005L-4.75 20.0005H-7L3 12.5422ZM19.6667 0.000488281V0.125488L9.29167 7.95882L9.375 6.12549L17.5833 0.000488281H19.6667ZM-7 0.000488281L2.95833 7.33382H0.458333L-7 1.75049V0.000488281Z" fill="#C8102E"/>
<path d="M3.04167 0.000488281V20.0005H9.70833V0.000488281H3.04167ZM-7 6.66716V13.3338H19.6667V6.66716H-7Z" fill="white"/>
<path d="M-7 8.04216V12.0422H19.6667V8.04216H-7ZM4.375 0.000488281V20.0005H8.375V0.000488281H4.375Z" fill="#C8102E"/>
</g>
</g>
<defs>
<clipPath id="clip0_769_23632">
<path d="M0 20C0 8.95431 8.95431 0 20 0C31.0457 0 40 8.95431 40 20C40 31.0457 31.0457 40 20 40C8.95431 40 0 31.0457 0 20Z" fill="white"/>
</clipPath>
<clipPath id="clip1_769_23632">
<rect width="53.3333" height="40" fill="white" transform="translate(-7 0.000488281)"/>
</clipPath>
</defs>
</svg>
