<svg width="40" height="40" viewBox="0 0 40 40" fill="none" xmlns="http://www.w3.org/2000/svg">
<g clip-path="url(#clip0_769_23772)">
<path d="M0 20C0 8.95431 8.95431 0 20 0C31.0457 0 40 8.95431 40 20C40 31.0457 31.0457 40 20 40C8.95431 40 0 31.0457 0 20Z" fill="#E94E0F"/>
<g clip-path="url(#clip1_769_23772)">
<path fill-rule="evenodd" clip-rule="evenodd" d="M-3.33325 0.000976562H56.6667V40.001H-3.33325V0.000976562Z" fill="#00843D"/>
<path fill-rule="evenodd" clip-rule="evenodd" d="M17.2373 10.7432C19.417 11.79 22.0107 10.7432 22.9482 9.29004C23.917 7.93066 24.0342 5.65723 22.3701 3.57129C24.9482 5.71191 25.5264 8.1416 24.2373 10.1416C22.5186 12.4307 18.7217 12.3604 17.2373 10.7432Z" fill="white"/>
<path fill-rule="evenodd" clip-rule="evenodd" d="M21.1045 5.42285L21.542 5.43066L21.1982 5.7041L21.3311 6.1416L20.9639 5.88379L20.6123 6.1416L20.7295 5.71191L20.3779 5.43848L20.8154 5.43066L20.9639 5.00098L21.1045 5.42285ZM18.9404 8.1416H19.3779L19.0342 8.42285L19.167 8.85254L18.7998 8.59473L18.4404 8.86035L18.5654 8.42285L18.2139 8.15723L18.6514 8.1416L18.792 7.71191L18.9404 8.1416ZM19.0811 6.00098H19.5264L19.1748 6.28223L19.3076 6.71191L18.9482 6.4541L18.5889 6.71973L18.7139 6.28223L18.3623 6.00879L18.7998 6.00098L18.9404 5.57129L19.0811 6.00098ZM19.0811 3.85254H19.5264L19.167 4.1416L19.2998 4.57129L18.9404 4.32129L18.5811 4.5791L18.7061 4.14941L18.3545 3.87598L18.792 3.86816L18.9326 3.43848L19.0811 3.85254ZM16.6826 6.57129H17.1201L16.7686 6.85254L16.9014 7.28223L16.542 7.02441L16.1826 7.29004L16.3076 6.85254L15.9561 6.58691L16.3936 6.57129L16.5342 6.1416L16.6826 6.57129Z" fill="white"/>
<path fill-rule="evenodd" clip-rule="evenodd" d="M0.377686 0.000976562H13.2371V40.001H0.377686V0.000976562Z" fill="#CA3745"/>
<path fill-rule="evenodd" clip-rule="evenodd" d="M0.37793 10.4307V10.1416L0.90918 9.43066L0.807617 9.28223L1.12012 8.86035L1.01855 8.71191L0.807617 9.00098L0.698242 8.86035L1.44824 7.86035L1.55762 8.00098L1.44824 8.1416L1.66699 8.43848L2.19824 7.71973L1.65918 7.02441L1.44824 7.29004L1.55762 7.43848L1.44824 7.5791L0.698242 6.5791L0.807617 6.43848L1.01855 6.71973L1.12793 6.5791L0.807617 6.14941L0.90918 6.00879L0.37793 5.29004V5.00098L1.12793 6.00098L1.01855 6.1416L1.33887 6.57129L1.12793 6.86035L1.33887 7.1416L1.66699 6.71973L2.4248 7.73535L1.66699 8.71973L1.35449 8.29004L1.13574 8.5791L1.34668 8.86816L1.03418 9.29004L1.13574 9.43848L0.385742 10.4385L0.37793 10.4307Z" fill="#FAAE29"/>
<path fill-rule="evenodd" clip-rule="evenodd" d="M0.37793 6.86035L0.487305 7.1416V7.5791H0.807617L1.02637 7.71973L0.807617 7.86816H0.495117V8.29004L0.385742 8.5791V6.86035H0.37793Z" fill="#FAAE29"/>
<path fill-rule="evenodd" clip-rule="evenodd" d="M0.37793 17.29V17.001L0.90918 16.29L0.807617 16.1416L1.12012 15.7119L1.01855 15.5713L0.807617 15.8604L0.698242 15.7119L1.44824 14.7119L1.55762 14.8604L1.44824 15.001L1.66699 15.29L2.19824 14.5713L1.65918 13.876L1.44824 14.1416L1.55762 14.29L1.44824 14.4307L0.698242 13.4307L0.807617 13.2822L1.01855 13.5635L1.12793 13.4229L0.807617 12.9932L0.90918 12.8525L0.37793 12.1338V11.8525L1.12793 12.8525L1.01855 12.9932L1.33887 13.4229L1.12793 13.7041L1.33887 13.9932L1.65918 13.5635L2.41699 14.5791L1.65918 15.5635L1.34668 15.1338L1.12793 15.4229L1.33887 15.7041L1.02637 16.1338L1.12793 16.2822L0.37793 17.2822V17.29Z" fill="#FAAE29"/>
<path fill-rule="evenodd" clip-rule="evenodd" d="M0.37793 13.7119L0.487305 14.001V14.4307H0.807617L1.02637 14.5713L0.807617 14.7119H0.495117V15.1416L0.385742 15.4307V13.7119H0.37793Z" fill="#FAAE29"/>
<path fill-rule="evenodd" clip-rule="evenodd" d="M0.37793 24.1416V23.8604L0.90918 23.1416L0.807617 23.001L1.12012 22.5713L1.01855 22.4307L0.807617 22.7119L0.698242 22.5713L1.44824 21.5713L1.55762 21.7119L1.44824 21.8604L1.66699 22.1494L2.19824 21.4307L1.65918 20.7275L1.44824 21.001L1.55762 21.1416L1.44824 21.2822L0.698242 20.2822L0.807617 20.1416L1.01855 20.4307L1.12793 20.2822L0.807617 19.8604L0.90918 19.7119L0.37793 19.001V18.7119L1.12793 19.7119L1.01855 19.8604L1.33887 20.2822L1.12793 20.5713L1.33887 20.8604L1.66699 20.4307L2.41699 21.4463L1.65918 22.4307L1.34668 22.001L1.12793 22.2822L1.33887 22.5713L1.02637 23.001L1.12793 23.1416L0.37793 24.1416Z" fill="#FAAE29"/>
<path fill-rule="evenodd" clip-rule="evenodd" d="M0.37793 20.5713L0.495117 20.8604V21.29H0.807617L1.02637 21.4307L0.807617 21.5635H0.495117V21.9932L0.385742 22.2822V20.5635L0.37793 20.5713Z" fill="#FAAE29"/>
<path fill-rule="evenodd" clip-rule="evenodd" d="M0.37793 30.5713V30.2822L0.90918 29.5713L0.807617 29.4307L1.12012 29.001L1.01855 28.8604L0.807617 29.1416L0.698242 29.001L1.44824 28.001L1.55762 28.1416L1.44824 28.2822L1.66699 28.5713L2.19824 27.8604L1.65918 27.1572L1.44824 27.4307L1.55762 27.5713L1.44824 27.7119L0.698242 26.7119L0.807617 26.5713L1.01855 26.8604L1.12793 26.7119L0.807617 26.2822L0.90918 26.1416L0.37793 25.4307V25.1416L1.12793 26.1416L1.01855 26.2822L1.33887 26.7119L1.12793 27.001L1.33887 27.2822L1.66699 26.8604L2.41699 27.876L1.65918 28.8604L1.34668 28.4307L1.12793 28.7119L1.33887 29.001L1.02637 29.4307L1.12793 29.5713L0.37793 30.5713Z" fill="#FAAE29"/>
<path fill-rule="evenodd" clip-rule="evenodd" d="M0.37793 27.001L0.487305 27.2822V27.7119H0.807617L1.02637 27.8604L0.807617 28.001H0.495117V28.4307L0.385742 28.7119V26.9932L0.37793 27.001Z" fill="#FAAE29"/>
<path fill-rule="evenodd" clip-rule="evenodd" d="M13.2373 10.4307V10.1416L12.7061 9.43066L12.8154 9.28223L12.4951 8.86035L12.5967 8.71191L12.8154 9.00098L12.9248 8.86035L12.1748 7.86035L12.0654 8.00098L12.1748 8.1416L11.9482 8.43066L11.4248 7.71191L11.9561 7.0166L12.1748 7.28223L12.0654 7.43066L12.167 7.57129L12.917 6.57129L12.8154 6.43066L12.5967 6.71191L12.4951 6.57129L12.8076 6.1416L12.7061 6.00098L13.2373 5.28223V5.00098L12.4951 6.00098L12.5967 6.1416L12.2842 6.57129L12.4951 6.86035L12.2764 7.1416L11.9561 6.71191L11.1982 7.72754L11.9561 8.71191L12.2764 8.28223L12.4951 8.57129L12.2764 8.86035L12.5967 9.28223L12.4951 9.43066L13.2373 10.4307Z" fill="#FAAE29"/>
<path fill-rule="evenodd" clip-rule="evenodd" d="M13.2373 6.86035L13.1279 7.1416V7.5791H12.8154L12.5967 7.71973L12.8076 7.86816H13.1279V8.29004L13.2373 8.5791V6.86035Z" fill="#FAAE29"/>
<path fill-rule="evenodd" clip-rule="evenodd" d="M13.2764 17.29V17.001L12.7451 16.29L12.8467 16.1416L12.5342 15.7119L12.6357 15.5713L12.8467 15.8604L12.9561 15.7119L12.2061 14.7119L12.0967 14.8604L12.2061 15.001L11.9873 15.29L11.4561 14.5713L11.9951 13.876L12.2061 14.1416L12.0967 14.2822L12.2061 14.4307L12.9561 13.4307L12.8467 13.2822L12.6357 13.5713L12.5264 13.4307L12.8467 13.001L12.7451 12.8604L13.2764 12.1416V11.8604L12.5264 12.8604L12.6357 13.001L12.3154 13.4307L12.5264 13.7119L12.3154 14.001L11.9951 13.5713L11.2373 14.5869L11.9951 15.5713L12.3076 15.1416L12.5264 15.4307L12.3154 15.7119L12.6279 16.1416L12.5264 16.2822L13.2764 17.2822V17.29Z" fill="#FAAE29"/>
<path fill-rule="evenodd" clip-rule="evenodd" d="M13.2764 13.7119L13.167 14.001V14.4307H12.8389L12.6201 14.5713L12.8389 14.7119H13.1514V15.1416L13.2686 15.4307V13.7119H13.2764Z" fill="#FAAE29"/>
<path fill-rule="evenodd" clip-rule="evenodd" d="M13.2373 24.1416V23.8604L12.7061 23.1416L12.8154 23.001L12.4951 22.5713L12.5967 22.4307L12.8154 22.7119L12.9248 22.5713L12.1748 21.5713L12.0654 21.7119L12.1748 21.8604L11.9482 22.1494L11.4248 21.4307L11.9561 20.7275L12.1748 21.001L12.0654 21.1416L12.167 21.2822L12.917 20.2822L12.8154 20.1416L12.5967 20.4307L12.4951 20.2822L12.8076 19.8604L12.7061 19.7119L13.2373 19.001V18.7119L12.4951 19.7119L12.5967 19.8604L12.2842 20.2822L12.4951 20.5713L12.2764 20.8604L11.9561 20.4307L11.1982 21.4463L11.9561 22.4307L12.2764 22.001L12.4951 22.2822L12.2764 22.5713L12.5967 23.001L12.4951 23.1416L13.2295 24.1416H13.2373Z" fill="#FAAE29"/>
<path fill-rule="evenodd" clip-rule="evenodd" d="M13.2373 20.5713L13.1279 20.8604V21.29H12.8154L12.5967 21.4307L12.8076 21.5713H13.1279V22.001L13.2373 22.29V20.5713Z" fill="#FAAE29"/>
<path fill-rule="evenodd" clip-rule="evenodd" d="M13.2373 30.5713V30.2822L12.7061 29.5713L12.8154 29.4307L12.4951 29.001L12.5967 28.8604L12.8154 29.1416L12.9248 29.001L12.1748 28.001L12.0654 28.1416L12.1748 28.2822L11.9482 28.5713L11.4248 27.8604L11.9561 27.1572L12.1748 27.4307L12.0654 27.5713L12.167 27.7119L12.917 26.7197L12.8154 26.5791L12.5967 26.8682L12.4951 26.7197L12.8076 26.29L12.7061 26.1494L13.2373 25.4385V25.1494L12.4951 26.1494L12.5967 26.29L12.2842 26.7197L12.4951 27.0088L12.2764 27.29L11.9561 26.8682L11.1982 27.8838L11.9561 28.8682L12.2764 28.4385L12.4951 28.7197L12.2764 29.0088L12.5967 29.4385L12.4951 29.5791L13.2373 30.5791V30.5713Z" fill="#FAAE29"/>
<path fill-rule="evenodd" clip-rule="evenodd" d="M13.2373 27.001L13.1279 27.2822V27.7119H12.8154L12.5967 27.8604L12.8076 28.001H13.1279V28.4307L13.2373 28.7119V26.9932V27.001Z" fill="#FAAE29"/>
<path fill-rule="evenodd" clip-rule="evenodd" d="M0.377685 2.71191V2.43066L0.908935 1.71191L0.807373 1.57129L1.11987 1.1416L1.01831 1.00098L0.807373 1.29004L0.697998 1.1416L1.448 0.141602L1.55737 0.290039L1.448 0.430664L1.66675 0.719727L2.198 0.000976562H2.41675L1.66675 1.00098L1.33862 0.571289L1.12769 0.860352L1.33862 1.1416L1.02612 1.57129L1.11987 1.71973L0.377685 2.71973V2.71191ZM0.377685 0.000976562H1.02612L0.807373 0.141602H0.494873V0.571289L0.369873 0.860352V0.000976562H0.377685ZM13.2371 2.71191V2.43066L12.7058 1.71191L12.8152 1.57129L12.4949 1.1416L12.5964 1.00098L12.8152 1.29004L12.9167 1.1416L12.1667 0.141602L12.0652 0.290039L12.1667 0.430664L11.948 0.719727L11.4167 0.000976562H11.198L11.9558 1.00098L12.2761 0.571289L12.4949 0.860352L12.2761 1.1416L12.5964 1.57129L12.4949 1.71191L13.2371 2.71191ZM13.2371 0.000976562H12.5964L12.8074 0.141602H13.1277V0.571289L13.2371 0.860352V0.000976562Z" fill="#FAAE29"/>
<path fill-rule="evenodd" clip-rule="evenodd" d="M5.73706 39.4307C5.73706 39.4307 6.20581 38.6182 7.36206 38.376C8.52612 38.126 8.72925 38.915 9.39331 38.915C10.0574 38.915 11.1121 38.3682 11.1121 38.3682C11.1121 38.3682 10.0574 39.4072 9.23706 39.3838C8.43237 39.3603 8.15894 38.8369 7.323 38.915C6.49487 38.9932 5.73706 39.4541 5.73706 39.4307Z" fill="#FAAE29"/>
<path fill-rule="evenodd" clip-rule="evenodd" d="M7.97925 39.4307C7.97925 39.4307 7.51831 38.6182 6.36206 38.376C5.19019 38.126 4.99487 38.915 4.33081 38.915C3.66675 38.915 2.61206 38.3682 2.61206 38.3682C2.61206 38.3682 3.66675 39.4072 4.47925 39.3838C5.29175 39.3603 5.573 38.8369 6.39331 38.915C7.22925 38.9932 7.97925 39.4541 7.97925 39.4307Z" fill="#FAAE29"/>
<path fill-rule="evenodd" clip-rule="evenodd" d="M4.18265 38.0869C4.08109 37.876 3.82328 36.9385 3.95609 36.8213C4.16703 36.7432 4.71391 37.7041 4.65922 38.5557C4.29984 38.751 3.09672 38.4775 3.10453 38.2275C3.19047 37.876 3.87797 37.9932 4.18265 38.0869Z" fill="#FAAE29"/>
<path fill-rule="evenodd" clip-rule="evenodd" d="M3.44819 37.2666C3.38569 37.0322 3.27631 36.0479 3.43256 35.9697C3.6435 35.9541 4.02631 37.04 3.84663 37.8604C3.46381 37.9541 2.32319 37.3525 2.37788 37.1104C2.5185 36.7979 3.15913 37.0947 3.44819 37.2666Z" fill="#FAAE29"/>
<path fill-rule="evenodd" clip-rule="evenodd" d="M2.85462 36.3604C2.80774 36.1104 2.79212 35.1104 2.94837 35.0635C3.15931 35.0791 3.44837 36.2197 3.19837 37.0088C2.80774 37.04 1.72962 36.2588 1.80774 36.0322C1.96399 35.7354 2.58899 36.1338 2.85462 36.3604Z" fill="#FAAE29"/>
<path fill-rule="evenodd" clip-rule="evenodd" d="M2.38569 35.3916C2.37006 35.1338 2.46381 34.1416 2.62788 34.126C2.83881 34.1807 2.98725 35.3682 2.6435 36.0947C2.26069 36.0479 1.28413 35.0557 1.3935 34.8447C1.581 34.5869 2.15131 35.1104 2.38569 35.3916Z" fill="#FAAE29"/>
<path fill-rule="evenodd" clip-rule="evenodd" d="M2.05762 34.3682C2.07325 34.1103 2.27637 33.1572 2.44043 33.165C2.63575 33.2666 2.65918 34.4619 2.24512 35.1182C1.87012 34.9932 1.00293 33.8291 1.12793 33.6338C1.3545 33.415 1.8545 34.0478 2.06543 34.3682H2.05762Z" fill="#FAAE29"/>
<path fill-rule="evenodd" clip-rule="evenodd" d="M2.15136 33.2041C2.12792 34.2197 1.94042 34.2354 1.60448 33.4854C1.44823 33.1963 1.43261 32.0244 1.56542 31.9775C1.76073 31.9775 2.14355 32.8135 2.15136 33.2041Z" fill="#FAAE29"/>
<path fill-rule="evenodd" clip-rule="evenodd" d="M9.47944 38.2041C9.581 37.9854 9.83881 37.0479 9.706 36.9307C9.49506 36.8525 8.956 37.8057 9.00287 38.665C9.36225 38.8604 10.5732 38.5869 10.5576 38.3369C10.4716 37.9854 9.79194 38.1025 9.47944 38.1963V38.2041Z" fill="#FAAE29"/>
<path fill-rule="evenodd" clip-rule="evenodd" d="M10.2138 37.376C10.2841 37.1416 10.3857 36.1572 10.2372 36.0791C10.0263 36.0635 9.63568 37.1416 9.82318 37.9697C10.1982 38.0635 11.3466 37.4619 11.2841 37.2197C11.1513 36.8994 10.5029 37.2041 10.2138 37.376Z" fill="#FAAE29"/>
<path fill-rule="evenodd" clip-rule="evenodd" d="M10.8075 36.4697C10.8543 36.2197 10.87 35.2197 10.7137 35.1729C10.5028 35.1885 10.2137 36.3213 10.4715 37.1104C10.8622 37.1416 11.9403 36.3682 11.8622 36.1338C11.6903 35.8369 11.0809 36.2432 10.8075 36.4697Z" fill="#FAAE29"/>
<path fill-rule="evenodd" clip-rule="evenodd" d="M11.2764 35.4932C11.292 35.2432 11.1982 34.251 11.0342 34.2354C10.8232 34.29 10.6748 35.4775 11.0185 36.2041C11.4092 36.1572 12.3779 35.165 12.2764 34.9541C12.081 34.6885 11.5185 35.2197 11.2764 35.4932Z" fill="#FAAE29"/>
<path fill-rule="evenodd" clip-rule="evenodd" d="M11.6044 34.4697C11.5966 34.2197 11.3856 33.2588 11.2294 33.2744C11.0263 33.3682 11.0028 34.5713 11.4247 35.2275C11.7997 35.1025 12.6591 33.9385 12.5341 33.7432C12.3075 33.5244 11.8075 34.1572 11.5966 34.4697H11.6044Z" fill="#FAAE29"/>
<path fill-rule="evenodd" clip-rule="evenodd" d="M11.5107 33.3135C11.542 34.3291 11.7217 34.3369 12.0576 33.5869C12.2139 33.3057 12.2295 32.126 12.0967 32.0869C11.9014 32.0869 11.5186 32.9229 11.5107 33.3135Z" fill="#FAAE29"/>
<path fill-rule="evenodd" clip-rule="evenodd" d="M11.2441 25.6975H10.6046V26.1265H9.98842V26.5555H7.52363L7.10508 26.9967L7.31435 27.2173H8.3491L8.54675 26.9967H7.52363L7.72127 26.7761H9.16294L8.54675 27.4256H7.1167L6.70978 27.2173L6.29123 27.4256H4.84956L4.23336 26.7761H5.67503L5.88431 26.9967H4.84956L5.05883 27.2173H6.09358L6.29123 26.9967L5.88431 26.5555H3.61716V26.1265H3.00096V25.6975H2.38477V23.7365H3.00096V23.3076H3.61716V22.8664H5.88431L6.29123 22.4374L6.09358 22.2168H5.05883L4.84956 22.4374H5.88431L5.67503 22.6457H4.23336L4.84956 21.9962H6.30286L6.72141 22.2168L7.12833 21.9962H8.57L9.1862 22.6457H7.74453L7.54688 22.4374H8.57L8.36072 22.2168H7.3376L7.1167 22.4374L7.53525 22.8664H10V23.3076H10.6162V23.7365H11.2441V25.6975Z" fill="#CA3745" stroke="black" stroke-width="0.0119371"/>
<path fill-rule="evenodd" clip-rule="evenodd" d="M2.59131 23.9649V25.4846H3.2075V25.9136H3.82369V26.3426H5.88734L6.71281 26.9983L7.53245 26.3487H9.79957V25.9197L10.4158 25.9136V25.4846H11.0436V23.9588H10.4216V23.5298H9.80538V23.0886H7.53827L6.71862 22.439L5.89316 23.0886H3.8295V23.5298H3.21331V23.9588H2.59712L2.59131 23.9649Z" fill="#00843D" stroke="#FAAE29" stroke-width="0.0835592"/>
<path fill-rule="evenodd" clip-rule="evenodd" d="M5.47223 23.3013L4.23804 24.3885V23.3013H5.47223ZM7.94061 23.3013L9.18261 24.3885V23.3013H7.94061ZM5.47223 26.1281L4.23804 25.0408V26.1281H5.47223ZM7.94061 26.1281L9.18261 25.0408V26.1281H7.94061ZM8.35461 23.9536L7.94061 24.3885H8.76861L8.35461 23.9536ZM5.05823 23.9536L4.65204 24.3885H5.47223L5.05823 23.9536ZM5.05823 25.4757L4.65204 25.0408H5.47223L5.05823 25.4757ZM8.35461 25.4757L7.94061 25.0408H8.76861L8.35461 25.4757Z" fill="#CA3745"/>
<path fill-rule="evenodd" clip-rule="evenodd" d="M6.70648 26.563L6.29248 26.1281H7.12048L6.70648 26.563ZM6.70648 24.3885L6.29248 23.9536H7.12048L6.70648 24.3885ZM6.70648 22.8664L6.29248 23.3112H7.12048L6.70648 22.8664ZM6.70648 25.0408L6.29248 25.4757H7.12048L6.70648 25.0408Z" fill="#FAAE29"/>
<path fill-rule="evenodd" clip-rule="evenodd" d="M7.94507 24.3938H8.77634V24.6083H7.95088L7.94507 24.3938Z" fill="#FAAE29" stroke="black" stroke-width="0.00596851"/>
<path fill-rule="evenodd" clip-rule="evenodd" d="M4.8584 24.6083H5.26532V24.8289H4.8584V24.6083ZM8.15443 24.6083H8.56135V24.8289H8.15443V24.6083Z" fill="#CC0000" stroke="black" stroke-width="0.00596851"/>
<path fill-rule="evenodd" clip-rule="evenodd" d="M6.30005 23.3092H7.1197V23.5237H6.30005V23.3092ZM6.30005 23.7381H7.1197V23.9587H6.30005V23.7381Z" fill="#990000" stroke="black" stroke-width="0.00596851"/>
<path fill-rule="evenodd" clip-rule="evenodd" d="M6.09082 23.5237H7.32901V23.7443H6.09082V23.5237ZM6.30009 25.4846H7.11974V25.693H6.30009V25.4846ZM6.30009 25.9136H7.11974V26.1281H6.30009V25.9136ZM6.09082 25.6991H7.32901V25.9136H6.09082V25.6991Z" fill="#990000" stroke="black" stroke-width="0.00596851"/>
<path fill-rule="evenodd" clip-rule="evenodd" d="M7.94505 24.8289H8.77633V25.0434H7.95086L7.94505 24.8289ZM4.64902 24.3938H5.47448V24.6083H4.64902V24.3938ZM4.64902 24.8228H5.47448V25.0434H4.64902V24.8228ZM4.44556 24.6083H4.85247V24.8289H4.44556V24.6083ZM5.27102 24.6083H5.67794V24.8289H5.27102V24.6083ZM7.74159 24.6083H8.14851V24.8289H7.74159V24.6083ZM8.56705 24.6083H8.97397V24.8289H8.56705V24.6083Z" fill="#FAAE29" stroke="black" stroke-width="0.00596851"/>
<path d="M6.20417 25.8511C6.23307 25.8511 6.25649 25.8264 6.25649 25.796C6.25649 25.7655 6.23307 25.7408 6.20417 25.7408C6.17528 25.7408 6.15186 25.7655 6.15186 25.796C6.15186 25.8264 6.17528 25.8511 6.20417 25.8511Z" fill="white"/>
<path d="M6.71199 25.8511C6.74088 25.8511 6.76431 25.8264 6.76431 25.796C6.76431 25.7655 6.74088 25.7408 6.71199 25.7408C6.68309 25.7408 6.65967 25.7655 6.65967 25.796C6.65967 25.8264 6.68309 25.8511 6.71199 25.8511Z" fill="white"/>
<path d="M7.22761 25.8511C7.25651 25.8511 7.27993 25.8264 7.27993 25.796C7.27993 25.7655 7.25651 25.7408 7.22761 25.7408C7.19872 25.7408 7.17529 25.7655 7.17529 25.796C7.17529 25.8264 7.19872 25.8511 7.22761 25.8511Z" fill="white"/>
<path d="M6.4073 25.6436C6.43619 25.6436 6.45962 25.6189 6.45962 25.5884C6.45962 25.558 6.43619 25.5333 6.4073 25.5333C6.37841 25.5333 6.35498 25.558 6.35498 25.5884C6.35498 25.6189 6.37841 25.6436 6.4073 25.6436Z" fill="white"/>
<path d="M7.01667 25.6436C7.04557 25.6436 7.06899 25.6189 7.06899 25.5884C7.06899 25.558 7.04557 25.5333 7.01667 25.5333C6.98778 25.5333 6.96436 25.558 6.96436 25.5884C6.96436 25.6189 6.98778 25.6436 7.01667 25.6436Z" fill="white"/>
<path d="M6.39949 26.0686C6.42838 26.0686 6.45181 26.0439 6.45181 26.0134C6.45181 25.983 6.42838 25.9583 6.39949 25.9583C6.37059 25.9583 6.34717 25.983 6.34717 26.0134C6.34717 26.0439 6.37059 26.0686 6.39949 26.0686Z" fill="white"/>
<path d="M7.01667 26.0785C7.04557 26.0785 7.06899 26.0538 7.06899 26.0233C7.06899 25.9928 7.04557 25.9682 7.01667 25.9682C6.98778 25.9682 6.96436 25.9928 6.96436 26.0233C6.96436 26.0538 6.98778 26.0785 7.01667 26.0785Z" fill="white"/>
<path d="M7.83674 24.7639C7.86564 24.7639 7.88906 24.7392 7.88906 24.7087C7.88906 24.6783 7.86564 24.6536 7.83674 24.6536C7.80785 24.6536 7.78442 24.6783 7.78442 24.7087C7.78442 24.7392 7.80785 24.7639 7.83674 24.7639Z" fill="white"/>
<path d="M8.35237 24.7639C8.38126 24.7639 8.40469 24.7392 8.40469 24.7087C8.40469 24.6783 8.38126 24.6536 8.35237 24.6536C8.32347 24.6536 8.30005 24.6783 8.30005 24.7087C8.30005 24.7392 8.32347 24.7639 8.35237 24.7639Z" fill="white"/>
<path d="M8.86799 24.7639C8.89689 24.7639 8.92031 24.7392 8.92031 24.7087C8.92031 24.6783 8.89689 24.6536 8.86799 24.6536C8.8391 24.6536 8.81567 24.6783 8.81567 24.7087C8.81567 24.7392 8.8391 24.7639 8.86799 24.7639Z" fill="white"/>
<path d="M8.04768 24.5465C8.07658 24.5465 8.1 24.5218 8.1 24.4913C8.1 24.4608 8.07658 24.4361 8.04768 24.4361C8.01879 24.4361 7.99536 24.4608 7.99536 24.4913C7.99536 24.5218 8.01879 24.5465 8.04768 24.5465Z" fill="white"/>
<path d="M8.65706 24.5465C8.68595 24.5465 8.70937 24.5218 8.70937 24.4913C8.70937 24.4608 8.68595 24.4361 8.65706 24.4361C8.62816 24.4361 8.60474 24.4608 8.60474 24.4913C8.60474 24.5218 8.62816 24.5465 8.65706 24.5465Z" fill="white"/>
<path d="M8.03987 24.9715C8.06876 24.9715 8.09219 24.9468 8.09219 24.9163C8.09219 24.8858 8.06876 24.8612 8.03987 24.8612C8.01097 24.8612 7.98755 24.8858 7.98755 24.9163C7.98755 24.9468 8.01097 24.9715 8.03987 24.9715Z" fill="white"/>
<path d="M8.65706 24.9813C8.68595 24.9813 8.70937 24.9567 8.70937 24.9262C8.70937 24.8957 8.68595 24.871 8.65706 24.871C8.62816 24.871 8.60474 24.8957 8.60474 24.9262C8.60474 24.9567 8.62816 24.9813 8.65706 24.9813Z" fill="white"/>
<path d="M6.19636 23.6865C6.22526 23.6865 6.24868 23.6618 6.24868 23.6314C6.24868 23.6009 6.22526 23.5762 6.19636 23.5762C6.16747 23.5762 6.14404 23.6009 6.14404 23.6314C6.14404 23.6618 6.16747 23.6865 6.19636 23.6865Z" fill="white"/>
<path d="M6.71199 23.6865C6.74088 23.6865 6.76431 23.6618 6.76431 23.6314C6.76431 23.6009 6.74088 23.5762 6.71199 23.5762C6.68309 23.5762 6.65967 23.6009 6.65967 23.6314C6.65967 23.6618 6.68309 23.6865 6.71199 23.6865Z" fill="white"/>
<path d="M7.22761 23.6767C7.25651 23.6767 7.27993 23.652 7.27993 23.6215C7.27993 23.591 7.25651 23.5664 7.22761 23.5664C7.19872 23.5664 7.17529 23.591 7.17529 23.6215C7.17529 23.652 7.19872 23.6767 7.22761 23.6767Z" fill="white"/>
<path d="M6.39949 23.4691C6.42838 23.4691 6.45181 23.4444 6.45181 23.4139C6.45181 23.3835 6.42838 23.3588 6.39949 23.3588C6.37059 23.3588 6.34717 23.3835 6.34717 23.4139C6.34717 23.4444 6.37059 23.4691 6.39949 23.4691Z" fill="white"/>
<path d="M7.01667 23.4691C7.04557 23.4691 7.06899 23.4444 7.06899 23.4139C7.06899 23.3835 7.04557 23.3588 7.01667 23.3588C6.98778 23.3588 6.96436 23.3835 6.96436 23.4139C6.96436 23.4444 6.98778 23.4691 7.01667 23.4691Z" fill="white"/>
<path d="M6.39949 23.8941C6.42838 23.8941 6.45181 23.8694 6.45181 23.839C6.45181 23.8085 6.42838 23.7838 6.39949 23.7838C6.37059 23.7838 6.34717 23.8085 6.34717 23.839C6.34717 23.8694 6.37059 23.8941 6.39949 23.8941Z" fill="white"/>
<path d="M7.01667 23.904C7.04557 23.904 7.06899 23.8793 7.06899 23.8488C7.06899 23.8184 7.04557 23.7937 7.01667 23.7937C6.98778 23.7937 6.96436 23.8184 6.96436 23.8488C6.96436 23.8793 6.98778 23.904 7.01667 23.904Z" fill="white"/>
<path d="M4.54817 24.7837C4.57706 24.7837 4.60049 24.759 4.60049 24.7285C4.60049 24.6981 4.57706 24.6734 4.54817 24.6734C4.51927 24.6734 4.49585 24.6981 4.49585 24.7285C4.49585 24.759 4.51927 24.7837 4.54817 24.7837Z" fill="white"/>
<path d="M5.06379 24.7837C5.09269 24.7837 5.11611 24.759 5.11611 24.7285C5.11611 24.6981 5.09269 24.6734 5.06379 24.6734C5.0349 24.6734 5.01147 24.6981 5.01147 24.7285C5.01147 24.759 5.0349 24.7837 5.06379 24.7837Z" fill="white"/>
<path d="M5.57942 24.7738C5.60831 24.7738 5.63174 24.7491 5.63174 24.7186C5.63174 24.6882 5.60831 24.6635 5.57942 24.6635C5.55052 24.6635 5.5271 24.6882 5.5271 24.7186C5.5271 24.7491 5.55052 24.7738 5.57942 24.7738Z" fill="white"/>
<path d="M4.75911 24.5662C4.788 24.5662 4.81142 24.5415 4.81142 24.5111C4.81142 24.4806 4.788 24.4559 4.75911 24.4559C4.73021 24.4559 4.70679 24.4806 4.70679 24.5111C4.70679 24.5415 4.73021 24.5662 4.75911 24.5662Z" fill="white"/>
<path d="M5.36848 24.5662C5.39738 24.5662 5.4208 24.5415 5.4208 24.5111C5.4208 24.4806 5.39738 24.4559 5.36848 24.4559C5.33959 24.4559 5.31616 24.4806 5.31616 24.5111C5.31616 24.5415 5.33959 24.5662 5.36848 24.5662Z" fill="white"/>
<path d="M4.75129 24.9912C4.78019 24.9912 4.80361 24.9665 4.80361 24.9361C4.80361 24.9056 4.78019 24.8809 4.75129 24.8809C4.7224 24.8809 4.69897 24.9056 4.69897 24.9361C4.69897 24.9665 4.7224 24.9912 4.75129 24.9912Z" fill="white"/>
<path d="M5.36848 25.0011C5.39738 25.0011 5.4208 24.9764 5.4208 24.946C5.4208 24.9155 5.39738 24.8908 5.36848 24.8908C5.33959 24.8908 5.31616 24.9155 5.31616 24.946C5.31616 24.9764 5.33959 25.0011 5.36848 25.0011Z" fill="white"/>
<path fill-rule="evenodd" clip-rule="evenodd" d="M7.51831 19.9854L7.86987 19.8135L8.22925 19.9854H7.51831ZM6.45581 19.9854L6.80737 19.8135L7.16675 19.9854H6.45581ZM5.39331 19.9854L5.74487 19.8135L6.10425 19.9854H5.39331ZM7.51831 16.1572L7.86987 16.3291L8.22925 16.165H7.51831V16.1572ZM6.45581 16.1572L6.80737 16.3291L7.16675 16.165H6.45581V16.1572ZM5.39331 16.1572L5.74487 16.3291L6.10425 16.165H5.39331V16.1572Z" fill="white"/>
<path fill-rule="evenodd" clip-rule="evenodd" d="M7.22144 20.4775L6.80737 20.8135L6.39331 20.4775L5.97925 20.8135L5.56519 20.4775V20.6494L5.84644 20.8057L5.70581 20.9775V21.1416H5.84644L5.97925 20.9854L6.11987 21.1416H6.2605V20.9854L6.11987 20.8135L6.39331 20.6494L6.67456 20.8057L6.53394 20.9775V21.1416H6.67456L6.80737 20.9854L6.948 21.1416H7.08081V20.9854L6.948 20.8135L7.22144 20.6494L7.49487 20.8057L7.36206 20.9775V21.1416H7.49487L7.6355 20.9854L7.77612 21.1416H7.90894V20.9854L7.77612 20.8135L8.04956 20.6494V20.4697L7.6355 20.8057L7.22144 20.4697V20.4775ZM7.22144 15.665L6.80737 15.3291L6.39331 15.665L5.97925 15.3291L5.56519 15.665V15.501L5.84644 15.3291L5.70581 15.1729V15.001H5.84644L5.97925 15.165L6.11987 15.001H6.2605V15.165L6.11987 15.3369L6.39331 15.4932L6.67456 15.3369L6.53394 15.165V15.001H6.67456L6.80737 15.165L6.948 15.001H7.08081V15.165L6.948 15.3369L7.22144 15.4932L7.49487 15.3369L7.36206 15.165V15.001H7.49487L7.6355 15.165L7.77612 15.001H7.90894V15.165L7.77612 15.3369L8.04956 15.4932V15.665L7.6355 15.3291L7.22144 15.665ZM10.3464 18.4307L10.7996 18.0713L10.3542 17.7119L10.7996 17.3525L10.3542 16.9932H10.573L10.7996 17.2275L11.0183 17.1104H11.2371V17.2354L11.0183 17.3525L11.2371 17.4697V17.5947H11.0183L10.7996 17.4697L10.573 17.7119L10.7996 17.9463L11.0183 17.8369H11.2371V17.9541L11.0183 18.0713L11.2371 18.1885V18.3135H11.0183L10.7996 18.1885L10.573 18.4307L10.7996 18.665L11.0183 18.5479H11.2371V18.6729L11.0183 18.79L11.2371 18.915V19.0322H11.0183L10.7996 18.915L10.573 19.1494H10.3542L10.7996 18.79L10.3542 18.4307H10.3464ZM3.26831 18.4307L2.823 18.0713L3.26831 17.7119L2.823 17.3525L3.26831 16.9932H3.04175L2.823 17.2275L2.60425 17.1104H2.36987V17.2354L2.60425 17.3447L2.37769 17.4619V17.5869H2.60425L2.823 17.4619L3.04175 17.7041L2.823 17.9385L2.60425 17.8291H2.36987V17.9463L2.59644 18.0635L2.36987 18.1807V18.3057H2.60425L2.823 18.1807L3.04175 18.4229L2.823 18.665L2.60425 18.5479H2.36987V18.665L2.59644 18.7822L2.36987 18.9072V19.0244H2.60425L2.823 18.9072L3.04175 19.1416H3.26831L2.823 18.7822L3.26831 18.4229V18.4307Z" fill="#00843D"/>
<path fill-rule="evenodd" clip-rule="evenodd" d="M10.5229 19.6551H10.7028V19.8144H10.5229V19.6551ZM10.3429 19.8144H10.5229V19.9831H10.3529L10.3429 19.8144ZM9.46303 20.6484H9.643V20.8171H9.46303V20.6484ZM9.643 20.4798H9.81297V20.6484H9.643V20.4798ZM3.79391 20.4798H3.97389V20.6484H3.78392L3.79391 20.4798ZM2.90405 19.6551H3.08402V19.8144H2.90405V19.6551ZM3.08402 19.8144H3.264V19.9831H3.08402V19.8144ZM3.08402 16.1597H3.264V16.3284H3.08402V16.1597ZM2.90405 16.3284H3.08402V16.497H2.90405V16.3284ZM3.97389 15.335H4.14386V15.5037H3.98388L3.97389 15.335ZM3.79391 15.5037H3.97389V15.6724H3.78392L3.79391 15.5037ZM9.46303 15.335H9.643V15.5037H9.46303V15.335ZM9.643 15.5037H9.81297V15.6724H9.643V15.5037ZM10.3429 16.1597H10.5229V16.3284H10.3529L10.3429 16.1597ZM10.5229 16.3377H10.7028V16.497H10.5229V16.3377ZM3.98388 20.6484H4.15386V20.8171H3.98388V20.6484Z" fill="#00843D" stroke="black" stroke-width="0.0290391"/>
<path fill-rule="evenodd" clip-rule="evenodd" d="M6.26831 18.0713H5.74487V17.7432H6.09644V17.4385H6.44019V17.1572H6.79175V17.5088C6.50269 17.5088 6.26831 17.7432 6.26831 18.0713Z" fill="white"/>
<path fill-rule="evenodd" clip-rule="evenodd" d="M7.31519 18.0713H7.83862V17.7432H7.48706V17.4385H7.1355V17.1572H6.79175V17.5088C7.08081 17.5088 7.31519 17.7432 7.31519 18.0713Z" fill="#FAAE29"/>
<path fill-rule="evenodd" clip-rule="evenodd" d="M7.31519 18.0713H7.83862V18.3994H7.48706V18.7041H7.1355V18.9854H6.79175V18.6338C7.08081 18.6338 7.31519 18.3994 7.31519 18.0713Z" fill="white"/>
<path fill-rule="evenodd" clip-rule="evenodd" d="M6.26831 18.0713H5.74487V18.3994H6.09644V18.7041H6.44019V18.9854H6.79175V18.6338C6.50269 18.6338 6.26831 18.3994 6.26831 18.0713Z" fill="#FAAE29"/>
<path fill-rule="evenodd" clip-rule="evenodd" d="M7.31519 18.0713H6.79175V17.5088C7.08081 17.5088 7.31519 17.7666 7.31519 18.0713Z" fill="#00843D"/>
<path fill-rule="evenodd" clip-rule="evenodd" d="M7.31519 18.0713H6.79175V18.6338C7.08081 18.6338 7.31519 18.3838 7.31519 18.0713Z" fill="#CA3745"/>
<path fill-rule="evenodd" clip-rule="evenodd" d="M6.26831 18.0713H6.79175V18.6338C6.50269 18.6338 6.26831 18.3838 6.26831 18.0713Z" fill="#00843D"/>
<path fill-rule="evenodd" clip-rule="evenodd" d="M6.26831 18.0713H6.79175V17.5088C6.50269 17.5088 6.26831 17.7666 6.26831 18.0713Z" fill="#CA3745"/>
<path fill-rule="evenodd" clip-rule="evenodd" d="M7.33862 20.1494L6.80737 19.8135L6.27612 20.1494L5.74487 19.8135L5.21362 20.1494V19.9854L5.56519 19.8135L5.39331 19.6494V19.4854H5.56519L5.74487 19.6494L5.92456 19.4854H6.10425V19.6494L5.92456 19.8135L6.27612 19.9854L6.6355 19.8135L6.45581 19.6494V19.4854H6.6355L6.80737 19.6494L6.98706 19.4854H7.16675V19.6494L6.98706 19.8135L7.33862 19.9854L7.698 19.8135L7.51831 19.6494V19.4854H7.698L7.86987 19.6494L8.04956 19.4854H8.22925V19.6494L8.04956 19.8135L8.40112 19.9854V20.1416L7.86987 19.8135L7.33862 20.1494ZM7.33862 16.001L6.80737 16.3291L6.27612 16.001L5.74487 16.3291L5.21362 16.001V16.1572L5.56519 16.3291L5.39331 16.4932V16.665H5.56519L5.74487 16.4932L5.92456 16.665H6.10425V16.4854L5.92456 16.3291L6.27612 16.1572L6.6355 16.3213L6.45581 16.4854V16.6572H6.6355L6.80737 16.4854L6.98706 16.6572H7.16675V16.4854L6.98706 16.3291L7.33862 16.1572L7.698 16.3213L7.51831 16.4854V16.6572H7.698L7.86987 16.4854L8.04956 16.6572H8.22925V16.4854L8.04956 16.3291L8.40112 16.1572V15.9932L7.86987 16.3213L7.33862 15.9932V16.001ZM9.29175 18.4854L9.02612 18.0713L9.29175 17.6572L9.02612 17.2432L9.29175 16.8291H9.15894L9.02612 17.1025L8.89331 16.9619H8.7605V17.1025L8.89331 17.2432L8.7605 17.3838V17.5166H8.89331L9.02612 17.3838L9.15894 17.6572L9.02612 17.9307L8.89331 17.7979H8.7605V17.9307L8.89331 18.0713L8.7605 18.2119V18.3525H8.89331L9.02612 18.2119L9.15894 18.4854L9.02612 18.7666L8.89331 18.626H8.7605V18.7666L8.89331 18.8994L8.7605 19.04V19.1807H8.89331L9.02612 19.04L9.15894 19.3213H9.29175L9.02612 18.8994L9.29175 18.4854Z" fill="#00843D"/>
<path fill-rule="evenodd" clip-rule="evenodd" d="M5.21679 16.1691L4.51689 16.825V19.3177L5.21679 19.9831H8.41629L9.11618 19.3271V16.8344L8.40629 16.1691H5.21679ZM5.03681 15.663L3.26709 17.3311V18.8304L5.04681 20.4798H8.58626L10.356 18.8211V17.3217L8.58626 15.663H5.04681H5.03681Z" fill="#00843D" stroke="black" stroke-width="0.0387187"/>
<path fill-rule="evenodd" clip-rule="evenodd" d="M5.95282 20.1455L6.23278 20.4829L6.52073 20.1455H5.94482H5.95282Z" fill="#FAAE29" stroke="black" stroke-width="0.021207"/>
<path fill-rule="evenodd" clip-rule="evenodd" d="M5.95282 15.9971L6.23278 15.6597L6.52073 15.9971H5.94482H5.95282Z" fill="#FAAE29" stroke="black" stroke-width="0.021207"/>
<path fill-rule="evenodd" clip-rule="evenodd" d="M7.09345 15.9971L7.3734 15.6597L7.66136 15.9971H7.08545H7.09345Z" fill="#FAAE29" stroke="black" stroke-width="0.021207"/>
<path fill-rule="evenodd" clip-rule="evenodd" d="M7.09345 20.1455L7.3734 20.4829L7.66136 20.1455H7.08545H7.09345Z" fill="#FAAE29" stroke="black" stroke-width="0.021207"/>
<path fill-rule="evenodd" clip-rule="evenodd" d="M5.39032 15.9971L5.67028 15.6597L5.95823 15.9971H5.38232H5.39032Z" fill="#CA3745" stroke="black" stroke-width="0.021207"/>
<path fill-rule="evenodd" clip-rule="evenodd" d="M6.52314 15.9971L6.80309 15.6597L7.09105 15.9971H6.51514H6.52314Z" fill="#CA3745" stroke="black" stroke-width="0.021207"/>
<path fill-rule="evenodd" clip-rule="evenodd" d="M7.65595 15.9971L7.9359 15.6597L8.22386 15.9971H7.64795H7.65595Z" fill="#CA3745" stroke="black" stroke-width="0.021207"/>
<path fill-rule="evenodd" clip-rule="evenodd" d="M4.69043 19.6496L5.21532 20.1416H4.69043V19.6496Z" fill="#CA3745" stroke="black" stroke-width="0.0435556"/>
<path fill-rule="evenodd" clip-rule="evenodd" d="M4.323 18.4854L4.59644 18.0713L4.323 17.6572L4.58862 17.2432L4.323 16.8291H4.45581L4.58862 17.1025L4.72144 16.9619H4.85425V17.1025L4.72144 17.2432L4.85425 17.3838V17.5166H4.72144L4.58862 17.3838L4.45581 17.6572L4.58862 17.9307L4.72144 17.7979H4.85425V17.9307L4.72144 18.0713L4.85425 18.2119V18.3525H4.72144L4.58862 18.2119L4.45581 18.4854L4.58862 18.7666L4.72144 18.626H4.85425V18.7666L4.72144 18.8994L4.85425 19.04V19.1807H4.72144L4.58862 19.04L4.45581 19.3213H4.323L4.58862 18.8994L4.323 18.4854Z" fill="#00843D"/>
<path fill-rule="evenodd" clip-rule="evenodd" d="M9.46191 17.6231H10.1718L10.3518 17.7749L10.1718 17.9267H9.47191V17.6147L9.46191 17.6231Z" fill="#CA3745" stroke="black" stroke-width="0.0275492"/>
<path fill-rule="evenodd" clip-rule="evenodd" d="M4.68568 16.497L4.32573 16.8344V19.3177L4.68568 19.6551H4.15576V16.497H4.68568Z" fill="#CA3745" stroke="black" stroke-width="0.0387187"/>
<path fill-rule="evenodd" clip-rule="evenodd" d="M5.39032 20.1455L5.67028 20.4829L5.95823 20.1455H5.38232H5.39032Z" fill="#CA3745" stroke="black" stroke-width="0.021207"/>
<path fill-rule="evenodd" clip-rule="evenodd" d="M6.52314 20.1455L6.80309 20.4829L7.09105 20.1455H6.51514H6.52314Z" fill="#CA3745" stroke="black" stroke-width="0.021207"/>
<path fill-rule="evenodd" clip-rule="evenodd" d="M7.65595 20.1455L7.9359 20.4829L8.22386 20.1455H7.64795H7.65595Z" fill="#CA3745" stroke="black" stroke-width="0.021207"/>
<path fill-rule="evenodd" clip-rule="evenodd" d="M8.92907 16.497L9.28901 16.8344V19.3177L8.92907 19.6551H9.45898V16.497H8.92907Z" fill="#CA3745" stroke="black" stroke-width="0.0387187"/>
<path fill-rule="evenodd" clip-rule="evenodd" d="M8.93213 19.6496L8.40724 20.1416H8.93213V19.6496Z" fill="#CA3745" stroke="black" stroke-width="0.0435556"/>
<path fill-rule="evenodd" clip-rule="evenodd" d="M8.93213 16.493L8.40724 16.001H8.93213V16.493Z" fill="#CA3745" stroke="black" stroke-width="0.0435556"/>
<path fill-rule="evenodd" clip-rule="evenodd" d="M4.69043 16.493L5.21532 16.001H4.69043V16.493Z" fill="#CA3745" stroke="black" stroke-width="0.0435556"/>
<path fill-rule="evenodd" clip-rule="evenodd" d="M5.21678 16.1691L4.51689 16.825V19.3177L5.21678 19.9831H8.41628L9.11617 19.3271V16.8344L8.40628 16.1691H5.21678ZM5.21678 16.0004L4.33691 16.825V19.3177L5.21678 20.1518H8.41628L9.29614 19.3177V16.825L8.40628 16.0004H5.21678Z" fill="#00843D" stroke="black" stroke-width="0.0387187"/>
<path fill-rule="evenodd" clip-rule="evenodd" d="M9.46191 17.9208H10.1718L10.3518 18.0727L10.1718 18.2245H9.47191V17.9124L9.46191 17.9208Z" fill="#FAAE29" stroke="black" stroke-width="0.0275501"/>
<path fill-rule="evenodd" clip-rule="evenodd" d="M9.46191 18.2169H10.1718L10.3518 18.3687L10.1718 18.5205H9.47191V18.2084L9.46191 18.2169Z" fill="#CA3745" stroke="black" stroke-width="0.0275492"/>
<path fill-rule="evenodd" clip-rule="evenodd" d="M9.46191 18.5146H10.1718L10.3518 18.6664L10.1718 18.8182H9.47191V18.5061L9.46191 18.5146Z" fill="#FAAE29" stroke="black" stroke-width="0.0275501"/>
<path fill-rule="evenodd" clip-rule="evenodd" d="M9.46191 17.3193H10.1718L10.3518 17.4711L10.1718 17.6229H9.47191V17.3108L9.46191 17.3193Z" fill="#FAAE29" stroke="black" stroke-width="0.0275501"/>
<path fill-rule="evenodd" clip-rule="evenodd" d="M4.15283 17.6231H3.44294L3.26297 17.7749L3.44294 17.9267H4.14283V17.6147L4.15283 17.6231Z" fill="#CA3745" stroke="black" stroke-width="0.0275492"/>
<path fill-rule="evenodd" clip-rule="evenodd" d="M4.15283 17.9208H3.44294L3.26297 18.0727L3.44294 18.2245H4.14283V17.9124L4.15283 17.9208Z" fill="#FAAE29" stroke="black" stroke-width="0.0275501"/>
<path fill-rule="evenodd" clip-rule="evenodd" d="M4.15283 18.2169H3.44294L3.26297 18.3687L3.44294 18.5205H4.14283V18.2084L4.15283 18.2169Z" fill="#CA3745" stroke="black" stroke-width="0.0275492"/>
<path fill-rule="evenodd" clip-rule="evenodd" d="M4.15283 18.5146H3.44294L3.26297 18.6664L3.44294 18.8182H4.14283V18.5061L4.15283 18.5146Z" fill="#FAAE29" stroke="black" stroke-width="0.0275501"/>
<path fill-rule="evenodd" clip-rule="evenodd" d="M4.15283 17.3193H3.44294L3.26297 17.4711L3.44294 17.6229H4.14283V17.3108L4.15283 17.3193Z" fill="#FAAE29" stroke="black" stroke-width="0.0275501"/>
<path fill-rule="evenodd" clip-rule="evenodd" d="M3.08398 16.3377V19.805H3.97385V20.6391H9.64296V19.805H10.5228V16.3377H9.64296V15.5131H3.97385V16.3377H3.08398ZM3.26396 16.497V19.6551H4.14382V20.4798H9.46299V19.6551H10.3528V16.497H9.46299V15.6818H4.14382V16.5064H3.26396V16.497Z" fill="#970000" stroke="black" stroke-width="0.0290391"/>
<path fill-rule="evenodd" clip-rule="evenodd" d="M11.2334 3.36089L10.7035 2.72106V2.24344L10.1735 1.76581H9.11372L8.22385 1.28819H5.3943L4.50444 1.76581H3.4446L2.91468 2.24344V2.72106L2.38477 3.35188V4.64055L2.91468 5.27137V5.75801L3.4446 6.23563H4.50444L5.3943 6.71325H8.22385L9.11372 6.23563H10.1735L10.7135 5.75801V5.28038L11.2434 4.64055V3.35188L11.2334 3.36089Z" fill="#CA3745" stroke="black" stroke-width="0.0284768"/>
<path fill-rule="evenodd" clip-rule="evenodd" d="M2.55737 4.00098V4.47754L3.08862 5.11816V5.59473L3.61987 6.0791H4.68237L5.573 6.54785H6.80737V4.00879H2.55737V4.00098Z" fill="#FAAE29"/>
<path fill-rule="evenodd" clip-rule="evenodd" d="M5.31518 5.11816L4.66675 5.53223H4.27612L4.40894 5.66504L4.15112 5.93848L4.28394 6.0791L4.67456 5.93848L4.79956 6.0791L4.85425 5.71191L5.573 5.27441L5.31518 5.11816Z" fill="#CA3745"/>
<path fill-rule="evenodd" clip-rule="evenodd" d="M4.60425 4.79785L3.95581 5.21191H3.573L3.698 5.34473L3.448 5.61816L3.573 5.75879L3.96362 5.61816L4.08862 5.75879L4.15112 5.3916L4.86206 4.96191L4.60425 4.80566V4.79785ZM4.25269 4.15723L3.60425 4.57129H3.21362L3.34644 4.71191L3.08862 4.98535L3.22144 5.11816L3.61206 4.97754L3.73706 5.11816L3.79175 4.75098L4.5105 4.32129L4.25269 4.16504V4.15723Z" fill="#CA3745"/>
<path fill-rule="evenodd" clip-rule="evenodd" d="M11.0574 4.00098V3.52441L10.5261 2.88379V2.40723L9.99487 1.92285H8.93237L8.04956 1.44629H6.80737V4.00098H11.0574Z" fill="#FAAE29"/>
<path fill-rule="evenodd" clip-rule="evenodd" d="M6.80737 6.55566H6.47925L6.10425 6.23535H5.49487L5.16675 6.0791L5.33081 5.92285L5.65894 6.0791H5.98706L6.31519 5.59473L6.80737 5.75098V6.0791H6.31519L6.80737 6.54785V6.55566Z" fill="#CA3745"/>
<path fill-rule="evenodd" clip-rule="evenodd" d="M2.55737 4.00098V3.52441L3.08862 2.88379V2.40723L3.61987 1.92285H4.68237L5.573 1.44629H6.80737V4.00098H2.55737Z" fill="white"/>
<path fill-rule="evenodd" clip-rule="evenodd" d="M6.80737 1.44629H6.47925L6.10425 1.75879H5.49487L5.16675 1.92285L5.33081 2.0791L5.65894 1.92285H5.98706L6.31519 2.40723L6.80737 2.25098V1.92285H6.31519L6.80737 1.44629Z" fill="#CA3745"/>
<path fill-rule="evenodd" clip-rule="evenodd" d="M6.80737 1.44629H7.1355L7.51831 1.75879H8.11987L8.448 1.92285L8.29175 2.0791L7.95581 1.92285H7.62769L7.29956 2.40723L6.80737 2.25098V1.92285H7.29956L6.80737 1.44629Z" fill="#CA3745"/>
<path fill-rule="evenodd" clip-rule="evenodd" d="M11.0574 4.00098V4.47754L10.5261 5.11816V5.59473L9.99487 6.0791H8.93237L8.04956 6.54785H6.80737V4.00879H11.0574V4.00098Z" fill="white"/>
<path fill-rule="evenodd" clip-rule="evenodd" d="M6.80737 6.55566H7.1355L7.51831 6.23535H8.11987L8.448 6.0791L8.29175 5.92285L7.95581 6.0791H7.62769L7.29956 5.59473L6.80737 5.75098V6.0791H7.29956L6.80737 6.54785V6.55566ZM4.60425 3.19629L3.95581 2.79004H3.573L3.698 2.65723L3.448 2.38379L3.573 2.24316L3.96362 2.38379L4.08862 2.24316L4.15112 2.61035L4.86206 3.04004L4.60425 3.19629ZM8.30737 2.88379L8.948 2.46973H9.33862L9.20581 2.33691L9.46362 2.06348L9.33862 1.92285L8.948 2.06348L8.823 1.92285L8.7605 2.29004L8.04956 2.72754L8.30737 2.88379Z" fill="#CA3745"/>
<path fill-rule="evenodd" clip-rule="evenodd" d="M5.31519 2.88379L4.66675 2.46973H4.27612L4.40894 2.33691L4.15112 2.06348L4.28394 1.92285L4.67456 2.06348L4.79956 1.92285L4.85425 2.29004L5.573 2.71973L5.31519 2.87598V2.88379ZM4.24487 3.84473L3.59644 3.43066H3.20581L3.33862 3.29004L3.08081 3.0166L3.22925 2.8916L3.61987 3.03223L3.74487 2.8916L3.79956 3.25879L4.51831 3.68848L4.2605 3.84473H4.24487Z" fill="#CA3745"/>
<path fill-rule="evenodd" clip-rule="evenodd" d="M2.87769 4.00098H3.03394L3.198 4.15723L3.36206 4.00098H6.80737V6.23535H6.65112L6.80737 6.3916V6.56348L6.31519 6.08691V5.93066H6.47925V6.08691H6.64331V5.93066L5.31519 5.22754H4.19019V4.52441L3.698 4.17285H3.36987L3.20581 4.3291L3.36206 4.48535H3.20581L2.87769 4.0166V4.00098Z" fill="white"/>
<path fill-rule="evenodd" clip-rule="evenodd" d="M2.87769 4.00098H3.03394L3.198 3.84473L3.36206 4.00098H6.80737V1.7666H6.65112L6.80737 1.61035V1.44629L6.31519 1.92285V2.0791H6.47925V1.92285H6.64331V2.0791L5.31519 2.79004H4.19019V3.48535L3.698 3.84473H3.36987L3.20581 3.68848L3.36206 3.52441H3.20581L2.87769 4.00098Z" fill="#FAAE29"/>
<path fill-rule="evenodd" clip-rule="evenodd" d="M3.61987 4.00098H6.80737V5.91504L5.39331 5.11816H4.33081V4.47754L3.62769 4.00098H3.61987Z" fill="#00843D"/>
<path fill-rule="evenodd" clip-rule="evenodd" d="M9.0105 3.2041L9.65894 2.79004H10.0496L9.91675 2.65723L10.1746 2.38379L10.0496 2.24316L9.65894 2.38379L9.53394 2.24316L9.47143 2.61035L8.7605 3.04004L9.0105 3.19629V3.2041ZM9.36987 3.84473L10.0183 3.43066H10.4011L10.2683 3.29004L10.5261 3.0166L10.4011 2.88379L10.0105 3.02441L9.8855 2.88379L9.823 3.25098L9.11206 3.68066L9.36987 3.83691V3.84473Z" fill="#CA3745"/>
<path fill-rule="evenodd" clip-rule="evenodd" d="M10.7449 4.00098H10.5808L10.4167 3.84473L10.2527 4.00098H6.80737V1.7666H6.97143L6.80737 1.61035V1.44629L7.29956 1.92285V2.0791H7.1355V1.92285H6.97143V2.0791L8.29956 2.79004H9.42456V3.48535L9.92456 3.84473H10.2527L10.4089 3.68848L10.2527 3.52441H10.4089L10.7449 4.00098Z" fill="white"/>
<path fill-rule="evenodd" clip-rule="evenodd" d="M9.99487 4.00098H6.80737V2.08691L8.22925 2.88379H9.29175V3.52441L10.0027 4.00098H9.99487Z" fill="#00843D"/>
<path fill-rule="evenodd" clip-rule="evenodd" d="M8.30737 5.11816L8.948 5.53223H9.33862L9.20581 5.66504L9.46362 5.93848L9.33862 6.0791L8.948 5.93848L8.823 6.0791L8.7605 5.71191L8.04956 5.27441L8.30737 5.11816Z" fill="#CA3745"/>
<path fill-rule="evenodd" clip-rule="evenodd" d="M9.0105 4.79785L9.65894 5.21191H10.0496L9.91675 5.34473L10.1746 5.61816L10.0496 5.75879L9.65894 5.61816L9.53394 5.75879L9.47143 5.3916L8.7605 4.96191L9.0105 4.80566V4.79785ZM9.36987 4.15723L10.0183 4.57129H10.4011L10.2683 4.7041L10.5261 4.97754L10.4011 5.11816L10.0105 4.97754L9.8855 5.11816L9.823 4.75098L9.11206 4.32129L9.36987 4.16504V4.15723Z" fill="#CA3745"/>
<path fill-rule="evenodd" clip-rule="evenodd" d="M10.7449 4.00098H10.5808L10.4167 4.15723L10.2527 4.00098H6.80737V6.23535H6.97143L6.80737 6.3916V6.56348L7.29956 6.08691V5.93066H7.1355V6.08691H6.97143V5.93066L8.29956 5.22754H9.42456V4.52441L9.92456 4.17285H10.2527L10.4089 4.3291L10.2527 4.48535H10.4089L10.7449 4.0166V4.00098Z" fill="#FAAE29"/>
<path fill-rule="evenodd" clip-rule="evenodd" d="M9.99487 4.00098H6.80737V5.91504L8.22925 5.11816H9.29175V4.47754L10.0027 4.00098H9.99487ZM3.61987 4.00098H6.80737V2.08691L5.39331 2.88379H4.33081V3.52441L3.62769 4.00098H3.61987Z" fill="#CA3745"/>
<path fill-rule="evenodd" clip-rule="evenodd" d="M7.15894 4.00098L8.04956 3.52441H8.58081L8.40112 3.36816L8.7605 3.04004L8.58081 2.88379L8.04956 3.04004L7.86987 2.88379L7.79175 3.31348L6.80737 3.81348L7.15894 4.00098ZM6.45581 4.00098L5.573 4.47754H5.04175L5.21362 4.63379L4.86206 4.96191L5.04175 5.11816L5.573 4.96191L5.74487 5.11816L5.823 4.68848L6.80737 4.18848L6.45581 4.00098Z" fill="#CA3745"/>
<path fill-rule="evenodd" clip-rule="evenodd" d="M6.45581 4.00098L5.573 3.52441H5.04175L5.22144 3.36816L4.86987 3.04004L5.04956 2.88379L5.58081 3.04004L5.75269 2.88379L5.83081 3.31348L6.81519 3.81348L6.46362 4.00098H6.45581ZM7.15894 4.00098L8.04956 4.47754H8.58081L8.40112 4.63379L8.7605 4.96191L8.58081 5.11816L8.04956 4.96191L7.86987 5.11816L7.79175 4.68848L6.80737 4.18848L7.15894 4.00098Z" fill="#00843D"/>
<path fill-rule="evenodd" clip-rule="evenodd" d="M5.74487 4.00098L6.80737 3.2041L7.86987 4.00098L6.80737 4.79785L5.74487 4.00098Z" fill="white"/>
<path fill-rule="evenodd" clip-rule="evenodd" d="M3.36206 4.32129L3.52612 4.47754L3.36987 4.63379H3.198L2.70581 4.00098H2.86987L3.198 4.47754H3.36206L3.20581 4.32129L3.36206 4.16504H3.698V4.32129H3.36987H3.36206Z" fill="#CA3745"/>
<path fill-rule="evenodd" clip-rule="evenodd" d="M3.36206 3.68066L3.52612 3.52441L3.36987 3.36816H3.198L2.70581 4.00098H2.86987L3.198 3.52441H3.36206L3.20581 3.68066L3.36206 3.83691H3.698V3.68066H3.36987H3.36206ZM10.2527 4.32129L10.0964 4.47754L10.2527 4.63379H10.4167L10.9089 4.00098H10.7527L10.4167 4.47754H10.2605L10.4167 4.32129L10.2605 4.16504H9.92456V4.32129H10.2527Z" fill="#CA3745"/>
<path fill-rule="evenodd" clip-rule="evenodd" d="M10.2605 3.68066L10.0886 3.52441L10.2527 3.36816H10.4167L10.9089 4.00098H10.7527L10.4167 3.52441H10.2605L10.4167 3.68066L10.2605 3.83691H9.92456V3.68066H10.2527H10.2605ZM6.64331 3.36816H6.97144V4.6416H6.64331V3.36816Z" fill="#CA3745"/>
<path fill-rule="evenodd" clip-rule="evenodd" d="M6.15112 3.68066H7.46362V4.32129H6.15112V3.68066Z" fill="#CA3745"/>
<path fill-rule="evenodd" clip-rule="evenodd" d="M5.30849 28.2658L2.3645 29.8888V32.5336L5.33626 34.1565H8.28025L11.2242 32.5336V29.8888L8.28025 28.2959H5.33626L5.30849 28.2658Z" fill="#00843D" stroke="black" stroke-width="0.0288916"/>
<path fill-rule="evenodd" clip-rule="evenodd" d="M3.47925 30.9619H3.65112V30.626H4.0105V30.9541H4.19019V30.1885H4.0105V30.5166H3.65894V30.1885H3.47925V30.9541V30.9619ZM8.00269 33.5088H8.18237V33.1807H8.53394V33.5088H8.71362V32.7354H8.54175V33.0635H8.18237V32.7354H8.0105V33.501L8.00269 33.5088ZM5.14331 29.6807H5.323V29.3603H5.68237V29.6885H5.85425V28.9229H5.68237V29.251H5.323V28.9229H5.14331V29.6885V29.6807ZM7.7605 29.6807H7.94019V29.3603H8.29956V29.6885H8.47925V28.9229H8.29956V29.251H7.94019V28.9229H7.7605V29.6885V29.6807ZM9.43237 30.9619H9.60425V30.626H9.96362V30.9541H10.1433V30.1885H9.96362V30.5166H9.60425V30.1885H9.43237V30.9541V30.9619ZM9.43237 32.2354H9.60425V31.9072H9.96362V32.2354H10.1433V31.4697H9.96362V31.7979H9.60425V31.4697H9.43237V32.2354Z" fill="#CC0000"/>
<path fill-rule="evenodd" clip-rule="evenodd" d="M6.80737 34.0166V31.2119H11.0964V32.4853L8.22925 34.0166H6.79956H6.80737ZM6.80737 28.415V31.2119H2.52612V29.9385L5.37769 28.415H6.80737Z" fill="#FAAE29"/>
<path fill-rule="evenodd" clip-rule="evenodd" d="M6.80737 28.415V31.2119H11.0964V29.9385L8.22925 28.415H6.79956H6.80737ZM6.80737 34.0166V31.2119H2.52612V32.4853L5.37769 34.0166H6.80737Z" fill="white"/>
<path fill-rule="evenodd" clip-rule="evenodd" d="M9.09734 30.0729H10.8148L9.09734 29.311V30.0729ZM11.097 29.9435V31.2157H8.38777V30.2022H7.81528L7.09764 29.8213V28.93L7.53306 28.5419H6.96057V29.8213H6.81543V28.4197H8.24263L11.097 29.9435Z" fill="#FAAE29" stroke="black" stroke-width="0.00761281"/>
<path fill-rule="evenodd" clip-rule="evenodd" d="M5.37769 30.3213V32.1104H5.80737L6.80737 32.626L7.80737 32.1104H8.23706V30.3291H7.80737L6.80737 29.8213L5.80737 30.3291H5.37769V30.3213Z" fill="#CA3745"/>
<path fill-rule="evenodd" clip-rule="evenodd" d="M4.52522 32.3588H2.80774L4.52522 33.1207V32.3588ZM2.52553 32.4882V31.216H5.23479V32.2294H5.80728L6.52491 32.6104V33.5016L6.0895 33.8897H6.66199V32.6104H6.80713V34.0119H5.37993L2.52553 32.4882Z" fill="#FAAE29" stroke="black" stroke-width="0.00761281"/>
<path fill-rule="evenodd" clip-rule="evenodd" d="M4.52522 30.0729H2.80774L4.52522 29.311V30.0729ZM2.52553 29.9435V31.2157H5.23479V30.2022H5.80728L6.52491 29.8213V28.93L6.0895 28.5419H6.66199V29.8213H6.80713V28.4197H5.37993L2.52553 29.9435Z" fill="white" stroke="black" stroke-width="0.00761281"/>
<path fill-rule="evenodd" clip-rule="evenodd" d="M9.09734 32.3588H10.8148L9.09734 33.1207V32.3588ZM11.097 32.4882V31.216H8.38777V32.2294H7.81528L7.09764 32.6104V33.5016L7.53306 33.8897H6.96057V32.6104H6.81543V34.0119H8.24263L11.097 32.4882Z" fill="white" stroke="black" stroke-width="0.00761281"/>
<path fill-rule="evenodd" clip-rule="evenodd" d="M3.3855 32.2354H3.55737V31.8447H3.91675V32.2354H4.09644V31.3447H3.91675V31.7275H3.55737V31.3369H3.3855V32.2354ZM5.09644 33.5088H5.27612V33.1182H5.62769V33.5088H5.80737V32.6182H5.62769V33.001H5.27612V32.6104H5.09644V33.5166V33.5088ZM3.37769 30.1963H3.55737V30.5791H3.91675V30.1885H4.09644V31.0947H3.91675V30.7041H3.55737V31.0869H3.3855V30.1963H3.37769ZM5.09644 28.9229H5.27612V29.3057H5.62769V28.915H5.80737V29.8135H5.62769V29.4307H5.27612V29.8213H5.09644V28.9229ZM7.80737 33.5088H7.98706V33.1182H8.34644V33.5088H8.52612V32.6182H8.34644V33.001H7.98706V32.6104H7.80737V33.5166V33.5088ZM9.52612 31.0869H9.70581V30.7041H10.0574V31.0947H10.2371V30.1963H10.0574V30.5791H9.71362V30.1885H9.53394V31.0947L9.52612 31.0869Z" fill="#CA3745"/>
<path fill-rule="evenodd" clip-rule="evenodd" d="M7.80737 33.5088H7.98706V33.1182H8.34644V33.5088H8.52612V32.6182H8.34644V33.001H7.98706V32.6104H7.80737V33.5166V33.5088Z" fill="#CA3745"/>
<path fill-rule="evenodd" clip-rule="evenodd" d="M7.80737 33.5088H7.98706V33.1182H8.34644V33.5088H8.52612V32.6182H8.34644V33.001H7.98706V32.6104H7.80737V33.5166V33.5088ZM9.52612 32.2354H9.70581V31.8447H10.0574V32.2354H10.2371V31.3447H10.0574V31.7197H9.71362V31.3369H9.53393V32.2354H9.52612ZM7.80737 29.8135H7.98706V29.4307H8.34644V29.8213H8.52612V28.9229H8.34644V29.3057H7.98706V28.915H7.80737V29.8135Z" fill="#CA3745"/>
<path fill-rule="evenodd" clip-rule="evenodd" d="M6.95581 31.2119L7.52612 30.7432H7.80737V30.9775H7.52612V31.0947H7.95581V30.6338H7.52612V30.2822H6.95581V30.6338H7.09644V30.3994H7.37769V30.6338L6.80737 31.1025L6.23706 30.6338V30.3994H6.52612V30.6338H6.66675V30.2822H6.09644V30.6338H5.66675V31.1025H6.09644V30.9854H5.80737V30.751H6.09644L6.66675 31.2197L6.09644 31.6807H5.80737V31.4463H6.09644V31.3291H5.66675V31.7979H6.09644V32.1416H6.66675V31.7979H6.52612V32.0322H6.23706V31.7979L6.80737 31.3291L7.37769 31.7979V32.0322H7.09644V31.7979H6.95581V32.1416H7.52612V31.7979H7.95581V31.3291H7.52612V31.4463H7.80737V31.6807H7.52612L6.95581 31.2119Z" fill="white"/>
<path fill-rule="evenodd" clip-rule="evenodd" d="M2.80543 11.4784L3.07958 11.1939H4.74061L5.98236 9.94347H7.64339L8.88514 11.2013H10.5462L10.8203 11.4784L10.5462 11.7554H8.87708L7.63533 13.0133H5.9743L4.74061 11.7554H3.07151L2.79736 11.4784H2.80543Z" fill="#CA3745"/>
<path fill-rule="evenodd" clip-rule="evenodd" d="M2.94629 11.5012L3.09643 11.3651H4.80808L6.09182 10.0446H7.5182L8.80944 11.3719H10.5211L10.6637 11.508L10.5211 11.6373H8.80944L7.66083 12.8285H5.94918L4.80808 11.6373H3.08893L2.94629 11.5012Z" fill="#CA3745" stroke="black" stroke-width="0.021445"/>
<path fill-rule="evenodd" clip-rule="evenodd" d="M7.50637 11.6206L8.05467 12.1747L7.78052 12.4517L7.63538 12.317H7.50637V12.4517L7.64344 12.594H7.92566L8.19981 12.317V12.0324L7.64344 11.4784L8.19981 10.9168V10.6398L7.92566 10.3628H7.64344L7.50637 10.4975V10.6398H7.64344L7.78858 10.4975L8.06273 10.7821L7.50637 11.3361L6.95806 10.7821L7.50637 10.2205V10.0782H7.36929L6.82099 10.6398L6.26462 10.0782H6.12755V10.2205L6.67585 10.7821L6.12755 11.3361L5.57118 10.7821L5.8534 10.4975L5.99047 10.6398H6.12755V10.4975L5.99047 10.3628H5.70826L5.4341 10.6398V10.9168L5.99047 11.4784L5.4341 12.0324V12.317L5.70826 12.594H5.99047L6.12755 12.4517V12.317H5.97434L5.83727 12.4517L5.55505 12.1747L6.11142 11.6206L6.65972 12.1747L6.11142 12.7363V12.871H6.2485L6.80486 12.317L7.35317 12.871H7.49024V12.7363L6.94194 12.1747L7.49024 11.6206H7.50637ZM6.81293 10.9168L6.25656 11.4784L6.81293 12.0324L7.36123 11.4784L6.81293 10.9168ZM5.98241 13.0133V14.1364L6.11948 13.9866L6.25656 14.1364L6.39363 13.9866L6.53071 14.1364L6.67585 13.9866L6.81293 14.1364L6.95 13.9866L7.08708 14.1364L7.22415 13.9866L7.36123 14.1364L7.4983 13.9866L7.64344 14.1364V13.0133H5.97434H5.98241ZM7.64344 9.94348V8.82037L7.4983 8.97012L7.36123 8.82037L7.22415 8.97012L7.08708 8.82037L6.95 8.97012L6.81293 8.82037L6.66779 8.97012L6.53071 8.82037L6.39363 8.97012L6.25656 8.82037L6.11948 8.97012L5.98241 8.82037V9.94348H7.64344ZM9.9818 11.2013V10.0782L9.85278 10.228L9.71571 10.0782L9.57863 10.228L9.43349 10.0782L9.29642 10.228L9.15934 10.0782L9.02226 10.228L8.88519 10.0782V11.2013H9.98986H9.9818ZM4.74066 11.2013V10.0782L4.59552 10.228L4.45845 10.0782L4.32137 10.228L4.1843 10.0782L4.04722 10.228L3.91014 10.0782L3.76501 10.228L3.62793 10.0782V11.2013H4.7326H4.74066ZM9.98986 11.7554V12.8785L9.85278 12.7288L9.71571 12.8785L9.57863 12.7288L9.43349 12.8785L9.29642 12.7288L9.15934 12.8785L9.02226 12.7288L8.88519 12.8785V11.7554H9.98986ZM4.7326 11.7554V12.8785L4.59552 12.7288L4.45845 12.8785L4.32137 12.7288L4.1843 12.8785L4.04722 12.7288L3.91014 12.8785L3.76501 12.7288L3.62793 12.8785V11.7554H4.7326Z" fill="#FAAE29"/>
<path fill-rule="evenodd" clip-rule="evenodd" d="M7.63556 13.0133V13.7096L7.7807 13.5674L7.91777 13.7171L8.05485 13.5674L8.19192 13.7171L8.329 13.5674L8.46608 13.7171L8.61122 13.5674L8.74829 13.7171L8.88537 13.5674V11.7554L7.63556 13.0133ZM5.98259 13.0133V13.7096L5.83745 13.5674L5.70037 13.7171L5.56329 13.5674L5.42622 13.7171L5.28914 13.5674L5.15207 13.7171L5.01499 13.5674L4.87792 13.7171L4.73278 13.5674V11.7554L5.98259 13.0133ZM5.98259 9.94348V9.24715L5.83745 9.38193L5.70037 9.24715L5.56329 9.38193L5.42622 9.24715L5.28914 9.38193L5.15207 9.24715L5.01499 9.38193L4.87792 9.24715L4.73278 9.38193V11.2014L5.98259 9.94348ZM7.63556 9.94348V9.24715L7.7807 9.38193L7.91777 9.24715L8.05485 9.38193L8.19192 9.24715L8.329 9.38193L8.46608 9.24715L8.60315 9.38193L8.74829 9.24715L8.88537 9.38193V11.2014L7.63556 9.94348ZM3.62811 12.594L3.49103 12.4517L3.35396 12.6015L3.21688 12.4517L3.0798 12.6015L2.94273 12.4517L2.79759 12.6015L2.66051 12.4517L2.52344 12.6015V10.3553L2.66051 10.505L2.79759 10.3553L2.94273 10.505L3.0798 10.3553L3.21688 10.505L3.35396 10.3553L3.49103 10.505L3.62811 10.3553V11.2014H3.0798L2.79759 11.4784L3.0798 11.7554H3.62811V12.594ZM9.99004 12.594L10.1271 12.4517L10.2642 12.6015L10.4013 12.4517L10.5464 12.6015L10.6835 12.4517L10.8206 12.6015L10.9576 12.4517L11.0947 12.6015V10.3553L10.9576 10.505L10.8206 10.3553L10.6835 10.505L10.5464 10.3553L10.4013 10.505L10.2642 10.3553L10.1271 10.505L9.99004 10.3553V11.2014H10.5464L10.8206 11.4784L10.5464 11.7554H9.99004V12.594Z" fill="#00843D"/>
<path fill-rule="evenodd" clip-rule="evenodd" d="M5.29707 13.1031C5.29707 13.1031 5.18419 13.208 5.18419 13.2679C5.18419 13.3203 5.30514 13.4326 5.36158 13.4326C5.42609 13.4326 5.53091 13.3203 5.53091 13.2679C5.53091 13.2154 5.41802 13.1031 5.41802 13.1031V12.8785C5.41802 12.8785 5.65992 13.2604 5.65992 13.0956C5.65992 12.9758 5.41802 12.7737 5.41802 12.7737H5.29707C5.29707 12.7737 5.05518 13.0133 5.05518 13.0956C5.05518 13.2604 5.29707 12.8785 5.29707 12.8785V13.1031Z" fill="white"/>
<path fill-rule="evenodd" clip-rule="evenodd" d="M6.74047 13.5299C6.74047 13.5299 6.60339 13.6797 6.60339 13.7545C6.60339 13.8294 6.74853 13.9941 6.81304 13.9941C6.89367 13.9941 7.01462 13.8369 7.01462 13.762C7.01462 13.6871 6.87754 13.5299 6.87754 13.5299V13.2154C6.87754 13.2154 7.11944 13.7246 7.11944 13.4925C7.11944 13.3427 6.87754 13.0657 6.87754 13.0657H6.74047C6.74047 13.0657 6.45825 13.4101 6.49857 13.4925C6.49857 13.7246 6.74047 13.2154 6.74047 13.2154V13.5299Z" fill="#CA3745"/>
<path d="M5.28654 11.6122C5.43737 11.6122 5.55965 11.5487 5.55965 11.4704C5.55965 11.392 5.43737 11.3285 5.28654 11.3285C5.1357 11.3285 5.01343 11.392 5.01343 11.4704C5.01343 11.5487 5.1357 11.6122 5.28654 11.6122Z" fill="#00843D"/>
<path d="M6.81071 11.6122C6.96154 11.6122 7.08382 11.5487 7.08382 11.4704C7.08382 11.392 6.96154 11.3285 6.81071 11.3285C6.65987 11.3285 6.5376 11.392 6.5376 11.4704C6.5376 11.5487 6.65987 11.6122 6.81071 11.6122Z" fill="#00843D"/>
<path d="M8.32633 11.6122C8.47717 11.6122 8.59944 11.5487 8.59944 11.4704C8.59944 11.392 8.47717 11.3285 8.32633 11.3285C8.1755 11.3285 8.05322 11.392 8.05322 11.4704C8.05322 11.5487 8.1755 11.6122 8.32633 11.6122Z" fill="#00843D"/>
<path fill-rule="evenodd" clip-rule="evenodd" d="M5.27291 9.8686C5.27291 9.8686 5.16003 9.75629 5.16003 9.70388C5.16003 9.65147 5.28097 9.53167 5.32935 9.53167C5.39386 9.53167 5.49868 9.64398 5.49868 9.69639C5.49868 9.75629 5.3858 9.8686 5.3858 9.8686V10.0932C5.3858 10.0932 5.63576 9.70388 5.63576 9.8686C5.63576 9.9884 5.39386 10.198 5.39386 10.198H5.27291C5.27291 10.198 5.02295 9.95845 5.02295 9.87609C5.02295 9.71137 5.26485 10.0857 5.26485 10.0857V9.86111L5.27291 9.8686Z" fill="white"/>
<path fill-rule="evenodd" clip-rule="evenodd" d="M6.70825 9.43434C6.70825 9.43434 6.57117 9.28459 6.57117 9.20972C6.57117 9.13484 6.72438 8.97761 6.78082 8.97761C6.86145 8.97761 6.99046 9.12735 6.99046 9.20223C6.99046 9.2771 6.85339 9.44182 6.85339 9.44182V9.74132C6.85339 9.74132 7.09529 9.23966 7.09529 9.47177C7.09529 9.62152 6.85339 9.90604 6.85339 9.90604H6.70019C6.70019 9.90604 6.41797 9.55413 6.45829 9.47177C6.45829 9.24715 6.70019 9.7488 6.70019 9.7488V9.43434H6.70825Z" fill="#CA3745"/>
<path fill-rule="evenodd" clip-rule="evenodd" d="M8.24022 13.1031C8.24022 13.1031 8.12733 13.208 8.12733 13.2679C8.12733 13.3203 8.24828 13.4326 8.30472 13.4326C8.36923 13.4326 8.47405 13.3203 8.47405 13.2679C8.47405 13.2154 8.36117 13.1031 8.36117 13.1031V12.8785C8.36117 12.8785 8.60306 13.2604 8.60306 13.0956C8.60306 12.9758 8.36117 12.7737 8.36117 12.7737H8.23215C8.23215 12.7737 7.99025 13.0133 7.99025 13.0956C7.99025 13.2604 8.23215 12.8785 8.23215 12.8785V13.1031H8.24022ZM8.21603 9.8686C8.21603 9.8686 8.10314 9.75629 8.10314 9.69639C8.10314 9.65147 8.22409 9.53167 8.27247 9.53167C8.33698 9.53167 8.4418 9.64398 8.4418 9.69639C8.4418 9.75629 8.32891 9.8686 8.32891 9.8686V10.0932C8.32891 10.0932 8.57887 9.70388 8.57887 9.8686C8.57887 9.9884 8.33698 10.198 8.33698 10.198H8.21603C8.21603 10.198 7.96606 9.95845 7.96606 9.87609C7.96606 9.71137 8.20796 10.0857 8.20796 10.0857V9.86111L8.21603 9.8686Z" fill="white"/>
<path fill-rule="evenodd" clip-rule="evenodd" d="M4.09564 12.3244C4.09564 12.3244 3.94244 12.4293 3.94244 12.4742C3.94244 12.5266 4.1037 12.6389 4.17627 12.6314C4.2569 12.6314 4.40204 12.5341 4.40204 12.4817C4.40204 12.4293 4.24884 12.3244 4.24884 12.3244V12.1148C4.24884 12.1148 4.52299 12.4517 4.52299 12.302C4.52299 12.1972 4.24884 12.01 4.24884 12.01H4.09564C4.09564 12.01 3.78117 12.2496 3.82955 12.302C3.82955 12.4517 4.09564 12.1148 4.09564 12.1148V12.3244ZM4.06338 10.7446C4.06338 10.7446 3.91018 10.6398 3.91018 10.5874C3.91018 10.535 4.07145 10.4301 4.14402 10.4376C4.22465 10.4376 4.36979 10.535 4.36979 10.5874C4.36979 10.6398 4.21659 10.7371 4.21659 10.7371V10.9468C4.21659 10.9468 4.49074 10.6098 4.49074 10.7671C4.49074 10.8644 4.21659 11.0516 4.21659 11.0516H4.06338C4.06338 11.0516 3.74892 10.8195 3.7973 10.7671C3.7973 10.6173 4.06338 10.9468 4.06338 10.9468V10.7446ZM9.40934 12.287C9.40934 12.287 9.24807 12.3918 9.24807 12.4442C9.24807 12.4967 9.4174 12.6015 9.48997 12.6015C9.5706 12.6015 9.71574 12.4967 9.71574 12.4517C9.71574 12.3918 9.55448 12.287 9.55448 12.287V12.0849C9.55448 12.0849 9.82863 12.4218 9.82863 12.2645C9.82863 12.1672 9.56254 11.98 9.56254 11.98H9.40128C9.40128 11.98 9.09487 12.2121 9.13519 12.2645C9.13519 12.4218 9.40934 12.0849 9.40934 12.0849V12.2945V12.287ZM9.37709 10.7147C9.37709 10.7147 9.21582 10.6098 9.21582 10.5574C9.21582 10.505 9.38515 10.4002 9.45772 10.4002C9.53835 10.4002 9.68349 10.505 9.68349 10.5499C9.68349 10.6098 9.52223 10.7072 9.52223 10.7072V10.9168C9.52223 10.9168 9.79638 10.5799 9.79638 10.7296C9.79638 10.8345 9.53029 11.0216 9.53029 11.0216H9.36902C9.36902 11.0216 9.06262 10.7895 9.10293 10.7371C9.10293 10.5799 9.37709 10.9168 9.37709 10.9168V10.7072V10.7147Z" fill="#CA3745"/>
<path fill-rule="evenodd" clip-rule="evenodd" d="M2.96672 12.3095C2.91834 12.2121 2.93447 12.1672 2.93447 12.1148C2.93447 12.0624 3.07154 11.9651 3.11992 11.9651C3.18443 11.9651 3.28925 12.0699 3.28925 12.1298C3.28925 12.1822 3.28925 12.2271 3.26506 12.3245L3.20055 12.1672C3.11186 12.3918 3.10379 12.3918 3.05541 12.1597L2.97478 12.3095H2.96672ZM2.96672 10.6997C2.9264 10.797 2.93447 10.842 2.93447 10.8944C2.93447 10.9468 3.07154 11.0441 3.12798 11.0441C3.19249 11.0441 3.29731 10.9393 3.29731 10.8794C3.29731 10.827 3.29731 10.7821 3.27312 10.6847L3.20055 10.842C3.11992 10.6173 3.11186 10.6173 3.05541 10.8494L2.97478 10.6997H2.96672ZM10.4253 12.287C10.3769 12.1897 10.3849 12.1448 10.3849 12.0923C10.3849 12.0399 10.5301 11.9426 10.5785 11.9426C10.643 11.9426 10.7478 12.0549 10.7478 12.1073C10.7478 12.1597 10.7478 12.2121 10.7236 12.302L10.651 12.1448C10.5704 12.3694 10.5623 12.3769 10.5059 12.1448L10.4253 12.287ZM10.4253 10.6847C10.3769 10.7746 10.393 10.8195 10.393 10.8794C10.393 10.9243 10.5301 11.0291 10.5785 11.0291C10.643 11.0291 10.7558 10.9168 10.7558 10.8644C10.7558 10.8045 10.7558 10.7596 10.7317 10.6623L10.651 10.827C10.5704 10.5949 10.5704 10.5874 10.5139 10.827L10.4333 10.6772L10.4253 10.6847Z" fill="white"/>
<path fill-rule="evenodd" clip-rule="evenodd" d="M5.95826 14.1662V13.7619H4.66814V12.9682H3.52315V12.7062H2.52331V10.3103H3.52315V10.0482H4.66814V9.25456H5.95826V8.85773H7.66768V9.25456H8.9578V10.0482H10.0947V10.3177H11.1026V12.7062H10.1028V12.9682H8.96587V13.7619H7.67574V14.1587H5.96633L5.95826 14.1662ZM5.81313 14.2935V13.8967H4.523V13.103H3.38608V12.8335H2.38623V10.183H3.38608V9.92092H4.523V9.11979H5.81313V8.72296H7.81282V9.11979H9.10294V9.92092H10.2399V10.183H11.2397V12.8335H10.2399V13.103H9.09488V13.8967H7.80476V14.2935H5.81313Z" fill="#CA3745" stroke="black" stroke-width="0.00776998"/>
</g>
</g>
<defs>
<clipPath id="clip0_769_23772">
<path d="M0 20C0 8.95431 8.95431 0 20 0C31.0457 0 40 8.95431 40 20C40 31.0457 31.0457 40 20 40C8.95431 40 0 31.0457 0 20Z" fill="white"/>
</clipPath>
<clipPath id="clip1_769_23772">
<rect width="53.3333" height="40" fill="white" transform="translate(0 0.000976562)"/>
</clipPath>
</defs>
</svg>
