<svg width="40" height="40" viewBox="0 0 40 40" fill="none" xmlns="http://www.w3.org/2000/svg">
<g clip-path="url(#clip0_769_23985)">
<path d="M0 20C0 8.95431 8.95431 0 20 0C31.0457 0 40 8.95431 40 20C40 31.0457 31.0457 40 20 40C8.95431 40 0 31.0457 0 20Z" fill="#E94E0F"/>
<g clip-path="url(#clip1_769_23985)">
<path fill-rule="evenodd" clip-rule="evenodd" d="M-7 -0.000976562H46.3333V39.999H-7V-0.000976562Z" fill="#E30A17"/>
<path fill-rule="evenodd" clip-rule="evenodd" d="M26.9166 20.624C26.9166 26.1407 22.3666 30.6157 16.7499 30.6157C11.1333 30.6157 6.58325 26.1407 6.58325 20.6157C6.58325 15.0907 11.1333 10.6324 16.7499 10.6324C22.3666 10.6324 26.9166 15.1074 26.9166 20.624Z" fill="white"/>
<path fill-rule="evenodd" clip-rule="evenodd" d="M27.4165 20.624C27.4165 25.0407 23.7832 28.6157 19.2915 28.6157C14.7999 28.6157 11.1582 25.0324 11.1582 20.6157C11.1582 16.199 14.7999 12.6324 19.2915 12.6324C23.7832 12.6324 27.4249 16.2074 27.4249 20.624H27.4165Z" fill="#E30A17"/>
<path fill-rule="evenodd" clip-rule="evenodd" d="M28.8917 15.9574L28.8084 19.649L25.3667 20.5824L28.7667 21.7907L28.6834 25.1824L30.8917 22.5324L34.2417 23.699L32.3084 20.8574L34.6667 18.0324L31.0417 19.0324L28.8917 15.949V15.9574Z" fill="white"/>
</g>
</g>
<defs>
<clipPath id="clip0_769_23985">
<path d="M0 20C0 8.95431 8.95431 0 20 0C31.0457 0 40 8.95431 40 20C40 31.0457 31.0457 40 20 40C8.95431 40 0 31.0457 0 20Z" fill="white"/>
</clipPath>
<clipPath id="clip1_769_23985">
<rect width="53.3333" height="40" fill="white" transform="translate(-7 -0.000976562)"/>
</clipPath>
</defs>
</svg>
