<svg width="40" height="40" viewBox="0 0 40 40" fill="none" xmlns="http://www.w3.org/2000/svg">
<g clip-path="url(#clip0_769_24003)">
<path d="M0 20C0 8.95431 8.95431 0 20 0C31.0457 0 40 8.95431 40 20C40 31.0457 31.0457 40 20 40C8.95431 40 0 31.0457 0 20Z" fill="#E94E0F"/>
<g clip-path="url(#clip1_769_24003)">
<path d="M-7 -0.000976562H46.3333V39.999H-7V-0.000976562Z" fill="#009FCA"/>
<path fill-rule="evenodd" clip-rule="evenodd" d="M42.4417 10.224H44.75L42.8917 11.4907L43.6 13.549L41.7417 12.274L39.8917 13.549L40.6 11.4907L38.7417 10.224H41.0334L41.7417 8.16569L42.4417 10.224ZM36.675 26.624H38.975L37.1167 27.8907L37.825 29.949L35.9667 28.674L34.1083 29.949L34.825 27.8907L32.9667 26.624H35.25L35.9583 24.5657L36.675 26.624ZM42.4417 22.9074H44.75L42.8917 24.174L43.6 26.2324L41.7417 24.9574L39.8917 26.2324L40.6 24.174L38.7417 22.9074H41.0334L41.7417 20.849L42.4417 22.9074ZM17.65 34.8074H19.95L18.0834 36.0657L18.8 38.1157L16.9417 36.849L15.0833 38.1157L15.8 36.0657L13.9333 34.7907H16.2333L16.9417 32.7407L17.65 34.8074ZM22.8667 28.4324H20.5667L22.425 27.1574L21.7167 25.1074L23.575 26.374L25.4334 25.1074L24.7167 27.1574L26.575 28.4324H24.2833L23.575 30.4824L22.8667 28.4324ZM29.6417 19.0574H27.3334L29.1917 17.7907L28.4833 15.7324L30.3417 17.0074L32.2 15.7324L31.4833 17.7907L33.3417 19.0574H31.05L30.3417 21.1157L29.6417 19.0574ZM35.3333 17.1157H33.0333L34.9 15.8407L34.1834 13.7907L36.0417 15.0574L37.9 13.7907L37.1833 15.8407L39.05 17.1157H36.75L36.0417 19.1657L35.3333 17.1157ZM29.6417 33.3324H27.3334L29.1917 32.0657L28.5 29.999L30.3583 31.2657L32.2167 29.999L31.5 32.0574L33.3583 33.324H31.0667L30.3583 35.3824L29.6417 33.3324ZM22.8667 34.9907H20.5667L22.425 33.724L21.7167 31.6657L23.575 32.9324L25.4334 31.6657L24.7167 33.7157L26.5834 34.999H24.2917L23.5834 37.0574L22.8667 34.9907Z" fill="#FFF40D"/>
<path d="M-7 -0.000976562H19.6667V19.999H-7V-0.000976562Z" fill="#012169"/>
<path d="M-3.875 -0.000976562L6.29167 7.54069L16.4167 -0.000976562H19.6667V2.58236L9.66667 10.0407L19.6667 17.4574V19.999H16.3333L6.33333 12.5407L-3.625 19.999H-7V17.499L2.95833 10.0824L-7 2.66569V-0.000976562H-3.875Z" fill="white"/>
<path d="M10.6667 11.7074L19.6667 18.3324V19.999L8.375 11.7074H10.6667ZM3 12.5407L3.25 13.999L-4.75 19.999H-7L3 12.5407ZM19.6667 -0.000976562V0.124023L9.29167 7.95736L9.375 6.12402L17.5833 -0.000976562H19.6667ZM-7 -0.000976562L2.95833 7.33236H0.458333L-7 1.74902V-0.000976562Z" fill="#C8102E"/>
<path d="M3.04167 -0.000976562V19.999H9.70833V-0.000976562H3.04167ZM-7 6.66569V13.3324H19.6667V6.66569H-7Z" fill="white"/>
<path d="M-7 8.04069V12.0407H19.6667V8.04069H-7ZM4.375 -0.000976562V19.999H8.375V-0.000976562H4.375Z" fill="#C8102E"/>
</g>
</g>
<defs>
<clipPath id="clip0_769_24003">
<path d="M0 20C0 8.95431 8.95431 0 20 0C31.0457 0 40 8.95431 40 20C40 31.0457 31.0457 40 20 40C8.95431 40 0 31.0457 0 20Z" fill="white"/>
</clipPath>
<clipPath id="clip1_769_24003">
<rect width="53.3333" height="40" fill="white" transform="translate(-7 -0.000976562)"/>
</clipPath>
</defs>
</svg>
