<svg width="40" height="40" viewBox="0 0 40 40" fill="none" xmlns="http://www.w3.org/2000/svg">
<g clip-path="url(#clip0_769_24068)">
<path d="M0 20C0 8.95431 8.95431 0 20 0C31.0457 0 40 8.95431 40 20C40 31.0457 31.0457 40 20 40C8.95431 40 0 31.0457 0 20Z" fill="#E94E0F"/>
<g clip-path="url(#clip1_769_24068)">
<path fill-rule="evenodd" clip-rule="evenodd" d="M-10.3333 26.6729H49.6667V33.3369H-10.3333V26.6729Z" fill="#FFE700"/>
<path fill-rule="evenodd" clip-rule="evenodd" d="M-10.3333 20.001H49.6667V26.665H-10.3333V20.001Z" fill="black"/>
<path fill-rule="evenodd" clip-rule="evenodd" d="M-10.3333 13.3369H49.6667V20.001H-10.3333V13.3369Z" fill="#DE3908"/>
<path fill-rule="evenodd" clip-rule="evenodd" d="M-10.3333 6.67285H49.6667V13.3369H-10.3333V6.67285Z" fill="#FFE700"/>
<path fill-rule="evenodd" clip-rule="evenodd" d="M-10.3333 0.000976562H49.6667V6.66504H-10.3333V0.000976562Z" fill="black"/>
<path fill-rule="evenodd" clip-rule="evenodd" d="M25.8933 20.001C25.8933 21.6524 25.2373 23.2361 24.0696 24.4038C22.9019 25.5715 21.3181 26.2275 19.6667 26.2275C18.0154 26.2275 16.4316 25.5715 15.2639 24.4038C14.0962 23.2361 13.4402 21.6524 13.4402 20.001C13.4402 18.3496 14.0962 16.7658 15.2639 15.5981C16.4316 14.4304 18.0154 13.7744 19.6667 13.7744C21.3181 13.7744 22.9019 14.4304 24.0696 15.5981C25.2373 16.7658 25.8933 18.3496 25.8933 20.001Z" fill="#FFFDFF" stroke="black" stroke-width="0.078125"/>
<path fill-rule="evenodd" clip-rule="evenodd" d="M18.573 15.2275L18.1667 14.4854C18.323 14.3291 18.5808 14.2041 19.0027 14.2041L18.9558 15.0244L18.5652 15.2275H18.573Z" fill="#DE3108" stroke="black" stroke-width="0.078125"/>
<path fill-rule="evenodd" clip-rule="evenodd" d="M18.9636 15.0244L19.0183 14.2041C19.0183 14.2041 19.8542 14.1572 20.3074 14.7041L19.8621 15.3447L18.9558 15.0322L18.9636 15.0244Z" fill="#FFE700" stroke="black" stroke-width="0.078125"/>
<path fill-rule="evenodd" clip-rule="evenodd" d="M19.8699 15.3369L20.2839 14.6963C20.5574 14.9854 20.6746 15.1885 20.7136 15.501C20.7214 15.5088 20.0652 15.665 20.0652 15.6572L19.8699 15.3369Z" fill="#DE3108" stroke="black" stroke-width="0.078125"/>
<path fill-rule="evenodd" clip-rule="evenodd" d="M18.7761 25.8682C18.7761 25.8682 19.5495 24.9854 21.0495 25.1729C20.823 24.8057 20.0886 24.8525 20.0886 24.8525C20.0886 24.8525 19.8698 23.1338 20.0417 23.04C20.2136 22.9463 20.9792 23.0479 20.9792 23.0479C21.073 23.0479 21.2448 22.7822 21.1042 22.6104C20.9714 22.4385 20.573 21.79 20.737 21.6572C20.9011 21.5322 21.7839 21.7354 21.7839 21.7354L19.2839 18.5322C19.2839 18.5322 19.0261 17.3213 19.5417 16.7354C20.1589 16.2275 20.0886 15.6729 20.073 15.6807C19.987 15.1182 19.1355 14.7197 18.5573 15.2354C18.2214 15.6416 18.448 15.9541 18.448 15.9541C18.448 15.9541 17.5495 16.1963 17.5183 16.3525C17.4792 16.5088 18.5261 16.3291 18.5261 16.3291L18.4245 17.04C18.4245 17.04 16.3933 18.8838 17.9558 20.4775L18.0027 20.415C18.0027 20.415 18.5495 21.0869 19.1198 21.2354C19.6667 21.7822 19.612 21.7041 19.612 21.7041C19.612 21.7041 19.7136 22.5713 19.612 22.7432C19.4792 22.7041 18.1042 22.6494 17.9011 22.7275C17.7136 22.79 17.0105 22.751 17.1823 23.9072L17.4402 23.3213C17.4402 23.3213 17.4167 23.7354 17.5886 23.8838C17.5573 23.4463 17.7527 23.1494 17.7527 23.1494C17.7527 23.1494 17.7839 23.6338 17.8933 23.6963C18.0027 23.7744 18.0027 22.915 18.5964 22.9932C19.1745 23.0635 19.6042 23.04 19.6042 23.04C19.6042 23.04 19.7995 24.7119 19.737 24.8682C19.3152 24.7666 18.2995 24.9072 18.237 25.165C18.8308 25.126 19.1042 25.1963 19.1042 25.1963C19.1042 25.1963 18.6277 25.626 18.7761 25.8682Z" fill="black" stroke="black" stroke-width="0.0703125" stroke-linecap="round" stroke-linejoin="round"/>
<path fill-rule="evenodd" clip-rule="evenodd" d="M19.0105 16.7822C19.0105 16.7822 17.5339 18.4072 18.1745 19.6494C18.2058 19.4775 18.1902 19.3682 18.2136 19.376C18.1745 19.3525 18.3933 19.5244 18.3777 19.4932C18.3777 19.3994 18.3152 19.2041 18.3152 19.2041L18.5105 19.2588L18.3933 19.04L18.6824 19.0713C18.6824 19.0713 18.5808 18.8057 18.612 18.8057L18.8464 18.8213C18.4245 18.0713 18.823 17.4463 19.0105 16.7744V16.7822Z" fill="#9CA69C" stroke="#9CA69C" stroke-width="0.0703125" stroke-linecap="round" stroke-linejoin="round"/>
<path fill-rule="evenodd" clip-rule="evenodd" d="M19.5261 15.3838C19.5261 15.3838 19.6042 15.9463 19.2917 16.1025C19.2526 16.1416 19.0573 16.2041 19.0886 16.3213C19.1198 16.4775 19.2058 16.4463 19.323 16.415C19.6433 16.3604 20.0183 15.6807 19.5261 15.3838Z" fill="#9CA69C" stroke="#9CA69C" stroke-width="0.078125"/>
<path fill-rule="evenodd" clip-rule="evenodd" d="M18.9792 15.8604C18.9792 15.8914 18.9669 15.9212 18.9449 15.9432C18.9229 15.9652 18.8931 15.9775 18.8621 15.9775C18.831 15.9775 18.8012 15.9652 18.7792 15.9432C18.7572 15.9212 18.7449 15.8914 18.7449 15.8604C18.7449 15.8293 18.7572 15.7995 18.7792 15.7775C18.8012 15.7555 18.831 15.7432 18.8621 15.7432C18.8931 15.7432 18.9229 15.7555 18.9449 15.7775C18.9669 15.7995 18.9792 15.8293 18.9792 15.8604Z" fill="white"/>
<path fill-rule="evenodd" clip-rule="evenodd" d="M18.5027 16.3291C18.4246 16.3994 18.0184 16.8213 18.4246 16.9775C18.8387 16.8682 18.7215 16.79 18.8152 16.6963C18.8152 16.501 18.6121 16.4541 18.5027 16.3369V16.3291Z" fill="#DE3108" stroke="black" stroke-width="0.078125"/>
<path fill-rule="evenodd" clip-rule="evenodd" d="M19.401 20.3525C19.3776 20.4463 19.2838 20.79 19.4088 21.0557C19.7682 20.8994 19.9323 20.9463 20.0494 21.0244C19.7604 20.79 19.6432 20.6885 19.401 20.3525Z" fill="#9CA69C" stroke="#9CA69C" stroke-width="0.0703125" stroke-linecap="round" stroke-linejoin="round"/>
<path fill-rule="evenodd" clip-rule="evenodd" d="M20.0105 21.9619L20.0261 22.7588C20.0261 22.7588 20.3074 22.8057 20.4324 22.7588C20.5574 22.7119 20.4324 22.2119 20.0105 21.9619Z" fill="white" stroke="white" stroke-width="0.0703125" stroke-linecap="round" stroke-linejoin="round"/>
<path fill-rule="evenodd" clip-rule="evenodd" d="M22.0106 22.0635C22.0106 22.0635 21.5027 20.8291 20.1981 20.5166C18.8934 20.2041 19.0652 18.8135 19.1668 18.7275C19.2293 18.6104 19.2684 18.4229 19.6434 18.6025C20.0184 18.7822 21.7527 19.6494 22.0027 19.6963C22.2527 19.7432 22.034 22.0947 22.0184 22.0635H22.0106Z" fill="#9CA69C" stroke="black" stroke-width="0.078125"/>
<path fill-rule="evenodd" clip-rule="evenodd" d="M20.7761 20.5088C20.7527 20.5244 22.5183 21.5557 21.9871 22.4385C22.4871 22.1025 22.3308 21.5244 22.3308 21.5244C22.3308 21.5244 22.7371 22.5947 21.7371 23.1182C21.8464 23.2119 21.9167 23.1963 21.9167 23.1963L21.7449 23.3604C21.7449 23.3604 21.6667 23.4932 22.3386 23.165C22.1589 23.3135 22.1433 23.4229 22.1433 23.4229C22.1433 23.4229 22.1902 23.5635 22.6277 23.1807C22.2761 23.5635 22.198 23.7588 22.198 23.751C23.1589 23.6729 25.2449 20.5479 21.5417 19.6338L21.7058 19.8057L20.7683 20.5088H20.7761Z" fill="#DE3108" stroke="black" stroke-width="0.0703125" stroke-linejoin="round"/>
<path fill-rule="evenodd" clip-rule="evenodd" d="M20.8543 20.2041C21.0887 20.376 21.1746 20.4385 21.2059 20.5166C20.9871 20.4697 20.7918 20.4854 20.7918 20.4854C20.7918 20.4854 20.3152 20.0322 20.2293 19.9932C20.1668 19.9932 19.7918 19.7588 19.7918 19.7588C19.6121 19.665 19.4402 19.0322 20.1199 19.2119C20.3806 19.3479 20.6494 19.4679 20.9246 19.5713L21.7606 19.8369L22.2449 20.376C22.2449 20.376 21.3856 19.9541 21.2762 19.9463C21.5106 20.1338 21.6434 20.3994 21.6434 20.3994C21.3699 20.3213 21.1356 20.2432 20.8543 20.2041Z" fill="white" stroke="black" stroke-width="0.0703125" stroke-linecap="round" stroke-linejoin="round"/>
<path d="M17.5105 16.3994C17.5105 16.3994 18.3308 16.1963 18.4324 16.2275" stroke="white" stroke-width="0.0703125" stroke-linecap="round"/>
<path fill-rule="evenodd" clip-rule="evenodd" d="M-10.3333 33.3369H49.6667V40.001H-10.3333V33.3369Z" fill="#DE3908"/>
</g>
</g>
<defs>
<clipPath id="clip0_769_24068">
<path d="M0 20C0 8.95431 8.95431 0 20 0C31.0457 0 40 8.95431 40 20C40 31.0457 31.0457 40 20 40C8.95431 40 0 31.0457 0 20Z" fill="white"/>
</clipPath>
<clipPath id="clip1_769_24068">
<rect width="53.3333" height="40" fill="white" transform="translate(-7 0.000976562)"/>
</clipPath>
</defs>
</svg>
