<svg width="40" height="40" viewBox="0 0 40 40" fill="none" xmlns="http://www.w3.org/2000/svg">
<g clip-path="url(#clip0_769_24106)">
<path d="M0 20C0 8.95431 8.95431 0 20 0C31.0457 0 40 8.95431 40 20C40 31.0457 31.0457 40 20 40C8.95431 40 0 31.0457 0 20Z" fill="#E94E0F"/>
<g clip-path="url(#clip1_769_24106)">
<path fill-rule="evenodd" clip-rule="evenodd" d="M-7 0.000976562H46.6667V40.251H-7V0.000976562Z" fill="#4B92DB"/>
<path d="M14.1229 26.8427C13.1586 26.0713 13.016 24.9057 12.5884 23.8911C12.2865 23.2538 11.9008 22.6584 11.4228 22.1385C11.9343 23.1532 11.7163 24.4613 12.3703 25.4172C12.5884 25.7191 12.8483 26.0042 13.1334 26.2474L13.1166 26.2558C12.8735 26.13 12.6471 25.979 12.4374 25.7946C11.2886 24.8386 9.55284 24.7128 8.86523 23.1448V23.1532C9.04971 24.302 9.96372 25.3166 10.9448 25.9623C11.884 26.566 13.0831 26.4989 14.1229 26.8427Z" fill="white"/>
<path d="M9.79607 23.6312C10.4417 24.1343 11.2216 24.5368 11.8086 24.9896C11.6912 24.6961 11.5067 24.4194 11.4228 24.1092C11.079 22.7088 11.2719 21.082 10.6682 19.7739C10.7772 20.5118 10.4837 21.1659 10.425 21.8702C10.3663 22.4237 10.4585 22.9855 10.6933 23.497C10.7604 23.6396 10.8778 23.7654 10.9113 23.9163C10.6933 23.7234 10.5424 23.4719 10.3914 23.2287C9.68706 22.0967 8.228 21.3587 8.12737 19.9835C8.06867 20.5957 8.13576 21.2078 8.33701 21.7864C8.64727 22.5243 9.15039 23.1616 9.79607 23.6312Z" fill="white"/>
<path d="M8.38749 19.8158C8.65582 20.7298 9.55306 21.3839 10.0059 22.2224L10.073 22.2727C9.98072 21.8199 9.98911 21.3503 10.0981 20.8975C10.291 20.2015 10.5425 19.5307 10.6683 18.8095C10.7689 18.2477 10.8863 17.6272 10.8193 17.0821C10.7606 17.3756 10.6516 17.6524 10.509 17.9123C9.90525 18.8515 9.27634 19.9583 9.704 21.1575C9.69562 21.1658 9.67884 21.1826 9.66207 21.1742C9.49437 20.7801 9.45244 20.3273 9.34343 19.908C9.04994 18.7844 8.18624 17.8452 8.4378 16.5455C8.30364 16.8306 8.25332 17.1408 8.17786 17.4511C8.06046 18.2477 8.13593 19.0527 8.38749 19.8158Z" fill="white"/>
<path d="M11.1292 16.1681C11.3305 15.7572 11.4562 15.3044 11.5149 14.8516C11.4395 15.0528 11.3137 15.2289 11.1628 15.3714C10.4919 16.0087 9.69531 16.6293 9.54437 17.5349C9.5276 17.6691 9.51083 17.7948 9.47729 17.9206C9.44375 17.9374 9.44375 17.9038 9.43536 17.8871L9.51922 16.7718C9.60307 15.6817 9.02448 14.4658 9.66177 13.5099C9.645 13.5015 9.62823 13.5183 9.61146 13.5267C9.00771 14.231 8.67229 15.1199 8.65552 16.0423C8.65552 17.2582 9.35151 18.1051 9.44375 19.2455C9.61146 18.0632 10.6093 17.2162 11.1292 16.1681Z" fill="white"/>
<path d="M10.6428 26.063C10.6507 26.0709 10.6507 26.0709 10.6587 26.0788C10.6507 26.0709 10.6507 26.0709 10.6428 26.063Z" fill="white"/>
<path d="M9.79589 15.5308C9.82943 15.8243 9.80428 16.0926 9.77912 16.3945C9.99714 15.9668 10.3074 15.5895 10.6931 15.296C11.5568 14.6419 12.5044 13.795 12.5212 12.6881C12.236 13.4847 11.364 13.8202 10.7854 14.3652C10.4835 14.6419 10.2571 14.9857 10.1062 15.3631L10.081 15.3463C10.1565 15.0277 10.2906 14.7342 10.3829 14.4323C10.6344 13.5854 10.5925 12.5791 11.4227 12.0089C10.9866 12.1431 10.6009 12.3946 10.3158 12.7468H10.3242C9.64496 13.468 9.70365 14.5581 9.79589 15.5308Z" fill="white"/>
<path d="M10.7856 13.9795C11.2468 13.5435 11.7835 13.2332 12.1692 12.7133C12.6388 12.0928 13.0497 11.4052 13.6618 10.8685C12.8317 11.1872 11.9344 11.5226 11.3978 12.3779C11.0707 12.8727 11.0372 13.468 10.7856 13.9795Z" fill="white"/>
<path d="M16.5965 27.4632C16.781 27.4213 16.9907 27.4297 17.15 27.371C16.4708 27.2788 15.8335 26.9937 15.3052 26.5576C14.5589 25.87 13.8964 25.1405 13.0914 24.6122C13.7203 25.4507 13.8964 26.6834 15.0452 27.1111C15.2465 27.1865 15.4813 27.2033 15.6574 27.3123C15.4394 27.3459 15.2381 27.2788 15.0369 27.2285C13.5694 26.9182 11.7749 27.3123 10.6597 26.0797C11.1209 26.9014 11.8756 27.5219 12.7644 27.8154C14.0474 28.2347 15.389 27.7651 16.5965 27.4632Z" fill="white"/>
<path d="M30.1642 16.7802L30.248 17.8955C30.2397 17.9039 30.2397 17.9374 30.2061 17.929C30.1642 17.8032 30.1558 17.6691 30.139 17.5433C29.9881 16.6377 29.1915 16.0171 28.5206 15.3798C28.3697 15.2373 28.2439 15.0528 28.1685 14.8599C28.2272 15.3128 28.3529 15.774 28.5542 16.1765C29.0741 17.2246 30.0719 18.0716 30.248 19.2623C30.3319 18.1219 31.0363 17.2666 31.0363 16.0591C31.0195 15.1367 30.6841 14.2478 30.0803 13.5434C30.0636 13.5351 30.0468 13.5183 30.03 13.5267C30.6589 14.4742 30.0803 15.6901 30.1642 16.7802Z" fill="white"/>
<path d="M27.5146 12.7133C27.9003 13.2332 28.437 13.5519 28.8982 13.9795C28.6466 13.468 28.6047 12.8727 28.286 12.3779C27.7494 11.5226 26.8521 11.1872 26.022 10.8685C26.6341 11.4052 27.0366 12.0928 27.5146 12.7133Z" fill="white"/>
<path d="M29.3006 14.4239C29.3929 14.7342 29.527 15.0193 29.6025 15.3379L29.5774 15.3547C29.4264 14.9773 29.2 14.6335 28.8981 14.3568C28.3195 13.8118 27.4475 13.4847 27.1624 12.6797C27.1791 13.795 28.1267 14.6335 28.9904 15.2876C29.3761 15.5811 29.6864 15.9501 29.9044 16.3861C29.8708 16.0842 29.8541 15.8243 29.8876 15.5224C29.9799 14.5497 30.0386 13.4596 29.3677 12.7217H29.3761C29.091 12.3779 28.7053 12.1179 28.2692 11.9837C29.091 12.5707 29.0491 13.577 29.3006 14.4239Z" fill="white"/>
<path d="M30.3403 19.908C30.2313 20.3273 30.1894 20.7801 30.0216 21.1742C30.0049 21.1826 29.9881 21.1658 29.9797 21.1575C30.4074 19.9583 29.7785 18.8515 29.1747 17.9123C29.0238 17.6524 28.9232 17.3756 28.8645 17.0821C28.7974 17.6272 28.9148 18.2477 29.0154 18.8095C29.1412 19.5307 29.3844 20.2015 29.5856 20.8975C29.6946 21.3503 29.703 21.8199 29.6108 22.2727L29.6778 22.2224C30.1307 21.3839 31.0279 20.7298 31.2962 19.8158C31.5478 19.0527 31.6233 18.2477 31.5142 17.4511C31.4472 17.1408 31.3885 16.8306 31.2543 16.5455C31.4975 17.8452 30.6338 18.776 30.3403 19.908Z" fill="white"/>
<path d="M31.5479 19.9835C31.4473 21.3587 29.9882 22.0967 29.2838 23.2287C29.1329 23.4719 28.982 23.7234 28.7639 23.9163C28.7975 23.7737 28.9149 23.6396 28.982 23.497C29.2168 22.9855 29.309 22.4237 29.2503 21.8702C29.1832 21.1659 28.8897 20.5118 29.0071 19.7739C28.4034 21.0736 28.5962 22.7004 28.2524 24.1092C28.1686 24.4194 27.9841 24.6961 27.8667 24.9896C28.4537 24.5368 29.2335 24.1343 29.8792 23.6312C30.5249 23.17 31.028 22.5327 31.3383 21.7948C31.5395 21.2078 31.6066 20.5957 31.5479 19.9835Z" fill="white"/>
<path d="M27.2377 25.7946C27.0281 25.979 26.8017 26.13 26.5585 26.2558L26.5417 26.2474C26.8268 26.0042 27.0784 25.7191 27.3048 25.4172C27.9672 24.4613 27.7492 23.1532 28.2523 22.1385C27.7828 22.6668 27.3887 23.2538 27.0868 23.8911C26.6591 24.9057 26.5166 26.0713 25.5522 26.8427C26.592 26.4989 27.7912 26.566 28.7219 25.9539C29.7114 25.3082 30.617 24.2936 30.8015 23.1448C30.1139 24.7128 28.3781 24.8386 27.2377 25.7946Z" fill="white"/>
<path d="M24.1937 28.3019C23.2042 27.891 22.1896 27.3375 21.0576 27.3375C20.6467 27.3375 20.2358 27.4046 19.8417 27.5304C19.4476 27.413 19.0367 27.3375 18.6258 27.3375C17.4938 27.3375 16.4791 27.8826 15.4896 28.3019C14.5421 28.6876 13.4688 28.5954 12.5967 28.0503C12.9824 28.5115 13.4939 28.8637 14.0641 29.0566C15.0788 29.4674 16.2611 29.1488 17.1164 28.5954C17.7369 28.2012 18.2652 27.6394 19.0115 27.6394C19.1457 27.6394 19.2715 27.6562 19.4056 27.6813C18.3658 28.1006 17.4267 28.8302 16.6888 29.5261C16.8313 29.6855 16.9906 29.828 17.1667 29.9622C17.9885 29.1153 18.9193 28.1929 19.8501 27.8155C20.7808 28.1929 21.7116 29.1069 22.5334 29.9622C22.7095 29.8364 22.8688 29.6855 23.0114 29.5261C22.2735 28.8218 21.3259 28.0922 20.2945 27.6813C20.4287 27.6562 20.5544 27.6394 20.6886 27.6394C21.4265 27.6394 21.9548 28.2012 22.5837 28.5954C23.4474 29.1488 24.6298 29.4591 25.636 29.0566C26.2062 28.8637 26.7177 28.5115 27.1035 28.0503C26.223 28.5954 25.1413 28.6876 24.1937 28.3019Z" fill="white"/>
<path d="M24.6466 27.2285C24.4369 27.2788 24.2441 27.3459 24.0261 27.3123C24.2021 27.2033 24.4369 27.1865 24.6382 27.1111C25.787 26.675 25.9631 25.4507 26.592 24.6122C25.787 25.1489 25.1245 25.87 24.3782 26.5576C23.85 26.9937 23.2127 27.2788 22.5334 27.371C22.6928 27.4297 22.9024 27.4213 23.0869 27.4632C24.2944 27.7651 25.6361 28.2347 26.919 27.8154C27.8079 27.5136 28.5626 26.9014 29.0238 26.0797C27.9169 27.3207 26.114 26.9182 24.6466 27.2285Z" fill="white"/>
<path d="M29.0239 26.0788C29.0318 26.0709 29.0318 26.0709 29.0398 26.063H29.0318C29.0239 26.0709 29.0239 26.0709 29.0239 26.0788Z" fill="white"/>
<path d="M27.2965 21.9708L27.1204 21.8701C26.7347 22.6584 26.2315 23.3795 25.6194 24L24.5712 22.9435C25.0743 22.4236 25.4936 21.8198 25.8039 21.1574L25.6278 21.0568C25.3259 21.7024 24.915 22.2894 24.4203 22.8009L23.4643 21.845C23.8668 21.4257 24.2023 20.9394 24.4371 20.4111L24.261 20.3105C24.0346 20.822 23.7159 21.2999 23.3218 21.7024L22.2736 20.6543C22.5587 20.344 22.7935 19.9918 22.9444 19.5977L22.7684 19.4971C22.6258 19.866 22.4078 20.2098 22.1311 20.5033L21.1667 19.5474C21.4351 19.2455 21.5944 18.8598 21.6196 18.4573H22.978C22.9696 18.8095 22.8941 19.1617 22.7684 19.4971L22.9444 19.5977C23.087 19.2371 23.1709 18.8514 23.1792 18.4573H24.6718C24.6551 19.0946 24.5125 19.7235 24.2526 20.3105L24.4371 20.4111C24.7138 19.7989 24.8563 19.1281 24.8731 18.4573H26.2315C26.2148 19.3545 26.0135 20.2434 25.6278 21.0568L25.8039 21.1574C26.198 20.3105 26.416 19.3881 26.4244 18.4573H27.9254C27.9086 19.6396 27.6403 20.8052 27.1204 21.8701L27.2965 21.9708C27.8415 20.8471 28.135 19.6145 28.135 18.365C28.135 17.3001 27.9338 16.2435 27.5313 15.2541L27.3468 15.3379C27.7241 16.2687 27.9254 17.2582 27.9338 18.2644H26.4328C26.4244 17.4594 26.2651 16.6628 25.9716 15.9165L25.7871 16.0004C26.0722 16.7215 26.2315 17.4846 26.2399 18.2644H24.8647C24.8563 17.6774 24.7389 17.0905 24.5293 16.537L24.3448 16.6209C24.5461 17.1492 24.6551 17.7026 24.6635 18.2644H23.1876C23.1792 17.9038 23.1122 17.5433 22.9864 17.2079L22.8019 17.2917C22.9109 17.602 22.978 17.929 22.9864 18.2644H21.6279C21.6028 17.8619 21.4435 17.4762 21.1751 17.1743L22.1394 16.21C22.4329 16.5203 22.6593 16.8808 22.8019 17.2833L22.9864 17.2079C22.8354 16.7802 22.5923 16.3945 22.282 16.0674L23.3386 15.0109C23.783 15.4721 24.1352 16.0255 24.3616 16.6209L24.5461 16.537C24.3029 15.9165 23.9339 15.3463 23.4727 14.8683L24.4371 13.9124C25.024 14.5161 25.4768 15.2289 25.7871 16.0087L25.9716 15.9249C25.6529 15.1199 25.175 14.3904 24.5712 13.7698L25.6278 12.7133C26.3657 13.468 26.9527 14.3568 27.3468 15.3379L27.5313 15.2541C27.112 14.2226 26.4915 13.2919 25.7033 12.5036C24.915 11.707 23.9759 11.0865 22.9361 10.6672L22.869 10.8601C23.8501 11.2542 24.7389 11.8328 25.4936 12.5707L24.4371 13.6273C23.8249 13.0403 23.1122 12.5707 22.3239 12.2521L22.2401 12.4366C23.0031 12.7468 23.6991 13.1996 24.2945 13.7782L23.3386 14.7342C22.8774 14.2897 22.3407 13.9375 21.7453 13.6944L21.6783 13.8788C22.2401 14.1136 22.7516 14.4491 23.1876 14.8683L22.1394 15.9249C21.846 15.6482 21.5022 15.4301 21.1332 15.2708L21.0577 15.4637C21.4015 15.6062 21.7202 15.8075 21.9969 16.0674L21.0242 17.0234C20.7223 16.755 20.3366 16.5957 19.9341 16.5706V15.2121C20.3198 15.2205 20.6972 15.3044 21.0493 15.4553L21.1248 15.2708C20.7475 15.1115 20.345 15.0276 19.9341 15.0109V13.5183C20.5294 13.5267 21.1164 13.6441 21.6699 13.8705L21.7453 13.686C21.1667 13.4512 20.5546 13.3254 19.9341 13.317V11.9586C20.7223 11.967 21.5105 12.1263 22.2401 12.4282L22.3072 12.2437C21.5525 11.9418 20.7475 11.7741 19.9341 11.7657V10.2647C20.9403 10.2731 21.9298 10.4744 22.8606 10.8517L22.9277 10.6588C21.9466 10.2647 20.89 10.0719 19.8335 10.0719C18.5505 10.0719 17.2759 10.3654 16.1271 10.9439L16.211 11.1117C17.3094 10.5666 18.5086 10.2815 19.7328 10.2731V11.7657C18.7517 11.7741 17.7874 12.0089 16.9069 12.4449L16.9992 12.6126C17.8461 12.1934 18.7853 11.967 19.7328 11.9586V13.317C19.0033 13.3338 18.2905 13.5015 17.6365 13.8201L17.7203 13.9962C18.3492 13.6944 19.0368 13.5267 19.7328 13.5183V15.0109C19.28 15.0276 18.8272 15.1367 18.4163 15.3295L18.5002 15.4972C18.8859 15.3211 19.3052 15.2205 19.7328 15.2121V16.5706C19.5316 16.5789 19.3303 16.6293 19.1459 16.7047L19.2297 16.8724C19.4226 16.797 19.6238 16.7634 19.8335 16.7634C20.2527 16.7634 20.6552 16.9311 20.9571 17.2246C21.259 17.5265 21.4267 17.9374 21.4267 18.365C21.4267 19.2455 20.7139 19.9583 19.8335 19.9583C19.4142 19.9583 19.0033 19.7906 18.7098 19.4887C18.4079 19.1952 18.2402 18.7843 18.2402 18.365C18.2402 17.9374 18.4079 17.5349 18.7098 17.233C18.8608 17.0821 19.0368 16.9647 19.2297 16.8892L19.1375 16.7131C18.953 16.7886 18.7853 16.8976 18.6343 17.0318L17.6784 16.0674C17.9216 15.841 18.2067 15.6482 18.5086 15.5056L18.4163 15.3379C18.0977 15.4888 17.7958 15.6817 17.5359 15.9249L16.4793 14.8683C16.8483 14.5161 17.2675 14.2226 17.7203 14.0046L17.6365 13.8369C17.1585 14.0633 16.7225 14.3736 16.3451 14.7342L15.3808 13.7531C15.8588 13.2919 16.4038 12.9061 16.9992 12.6126L16.9153 12.4449C16.2948 12.7468 15.733 13.1409 15.2383 13.6189L14.1817 12.5539C14.7854 11.967 15.473 11.4806 16.2193 11.1117L16.1271 10.9356C14.5087 11.7489 13.2006 13.0655 12.3956 14.6922L12.5633 14.7761C12.9406 14.013 13.4438 13.3086 14.0391 12.6965L15.1041 13.7614C14.6093 14.273 14.1985 14.8599 13.8882 15.4972L14.0559 15.5895C14.3578 14.9606 14.7519 14.3904 15.2383 13.8956L16.2026 14.8516C15.8085 15.2541 15.4898 15.7236 15.255 16.2351L15.4227 16.3274C15.6491 15.8326 15.9678 15.3798 16.3451 14.9941L17.4017 16.0507C17.125 16.3358 16.9069 16.6712 16.7476 17.0401L16.9237 17.1408C17.0663 16.7886 17.2759 16.4699 17.5359 16.1932L18.5002 17.1492C18.2318 17.451 18.0725 17.8368 18.0474 18.2476H16.6889C16.6973 17.8703 16.7812 17.493 16.9237 17.1408L16.756 17.0401C16.5883 17.4259 16.5044 17.8284 16.4877 18.2476H14.9951C15.0035 17.5852 15.1544 16.9311 15.4311 16.3274L15.2634 16.2435C14.9699 16.8724 14.8106 17.5517 14.7938 18.2476H13.4354C13.4522 17.3253 13.6618 16.4196 14.0643 15.5895L13.8882 15.4972C13.4773 16.3525 13.2509 17.2917 13.2425 18.2476H11.7415C11.7583 17.0485 12.0434 15.8662 12.5717 14.7845L12.3956 14.6922C11.8338 15.8326 11.5403 17.0821 11.5403 18.3483C11.5403 19.1365 11.6493 19.9247 11.8757 20.6878L12.0686 20.6375C11.8589 19.9247 11.7499 19.1868 11.7415 18.4489H13.2425C13.2509 19.0694 13.3431 19.6816 13.5192 20.2685L13.7121 20.2182C13.536 19.648 13.4438 19.0526 13.4354 18.4489H14.8022C14.8106 18.9353 14.8861 19.4216 15.037 19.8912L15.2383 19.8409C15.0957 19.3881 15.0118 18.9185 15.0035 18.4489H16.4793C16.4877 18.8011 16.5548 19.1449 16.6722 19.4719L16.865 19.4216C16.756 19.1113 16.6889 18.7843 16.6805 18.4489H18.039C18.0641 18.8514 18.2235 19.2371 18.4918 19.539L17.5275 20.5033C17.234 20.1931 17.0076 19.8241 16.865 19.4216L16.6722 19.4719C16.8315 19.908 17.0747 20.3105 17.3933 20.6459L16.3284 21.7024C15.8252 21.1742 15.4479 20.5369 15.2215 19.8409L15.0202 19.8912C15.255 20.6207 15.6575 21.2916 16.1942 21.845L15.2383 22.8093C14.5339 22.0798 14.014 21.1993 13.7205 20.2266L13.5276 20.2769C13.8295 21.2832 14.3662 22.1972 15.0957 22.9519L14.0475 24.0084C13.1251 23.0693 12.4459 21.9121 12.0769 20.6459L11.8757 20.6962C12.2698 22.0295 12.991 23.237 13.9721 24.2181C14.6345 24.8889 15.4143 25.4339 16.2613 25.8448L16.3619 25.6687C15.5569 25.283 14.819 24.7715 14.1817 24.151L15.2383 23.0944C15.7833 23.6143 16.4038 24.042 17.0914 24.3522L17.1921 24.1845C16.5212 23.8826 15.9091 23.4634 15.3808 22.9519L16.3367 21.9959C16.7812 22.4236 17.3011 22.759 17.8629 23.0022L17.9635 22.8261C17.4101 22.5997 16.9069 22.2643 16.4793 21.8534L17.5359 20.7968C17.8713 21.1155 18.2738 21.3586 18.7098 21.5096L18.8021 21.3335C18.3828 21.1909 17.9971 20.9561 17.6784 20.6543L18.6427 19.6899C18.9446 19.9583 19.3303 20.1176 19.7328 20.1427V21.5012C19.4226 21.4928 19.1039 21.4341 18.8104 21.3335L18.7014 21.5012C19.0285 21.6186 19.3806 21.694 19.7328 21.7024V23.195C19.1291 23.1867 18.5253 23.0609 17.9635 22.8261L17.8629 22.9938C18.4583 23.2454 19.0872 23.3795 19.7328 23.3963V24.7547C18.8524 24.738 17.9887 24.5451 17.1921 24.1845L17.0914 24.3522C17.9216 24.738 18.8188 24.9392 19.7328 24.956V26.4486C18.5673 26.4402 17.4185 26.1719 16.3619 25.6687L16.2613 25.8364C17.3765 26.3731 18.6008 26.6498 19.8335 26.6498C21.1584 26.6498 22.4329 26.3396 23.5734 25.761L23.4727 25.5765C22.3742 26.1383 21.1667 26.4318 19.9341 26.4486V24.9476C20.9236 24.9308 21.8963 24.696 22.7851 24.2516L22.7013 24.0755C21.8376 24.5032 20.8984 24.738 19.9341 24.7463V23.4047C20.6804 23.3879 21.4099 23.2034 22.0807 22.868L21.9885 22.6919C21.3512 23.0106 20.6468 23.1783 19.9341 23.195V21.7024C20.4121 21.6857 20.8733 21.5767 21.3009 21.367L21.2171 21.1825C20.8146 21.3754 20.3785 21.4844 19.9341 21.5012V20.1427C20.3366 20.1176 20.7223 19.9583 21.0242 19.6899L21.9885 20.6543C21.7537 20.8723 21.4938 21.0484 21.2087 21.1825L21.3009 21.367C21.6028 21.2161 21.8879 21.0316 22.1311 20.7968L23.1876 21.845C22.8354 22.1888 22.4329 22.4739 21.9885 22.6919L22.0724 22.868C22.5336 22.6416 22.9612 22.3397 23.3302 21.9875L24.2861 22.9435C23.8165 23.3963 23.2799 23.782 22.6929 24.0755L22.7935 24.2516C23.3973 23.9497 23.9423 23.5556 24.4287 23.086L25.4768 24.1426C24.8815 24.7212 24.2106 25.1992 23.4727 25.5765L23.5734 25.761C24.3616 25.3585 25.0743 24.8386 25.6949 24.2181C26.3489 23.564 26.894 22.8009 27.2965 21.9708Z" fill="white"/>
<path d="M20.3114 16.4364H20.2611V16.4951H20.3114V16.4364ZM20.1856 16.3525H20.2527V16.4028H20.1856V16.3525ZM20.0682 16.3357L20.1185 16.3441L20.1269 16.2938H20.0682V16.3357ZM20.0179 16.319H19.9592V16.2603L20.0263 16.2686L20.0179 16.319ZM19.5315 16.2519H19.5986V16.3022H19.5315V16.2519ZM19.389 16.3525L19.4477 16.3609V16.3106H19.3974L19.389 16.3525ZM19.389 16.4364L19.3303 16.4112V16.3609L19.4058 16.386L19.389 16.4364ZM19.2716 16.4951V16.4447L19.3135 16.4364L19.3219 16.4867L19.2716 16.4951ZM12.6806 21.6605V21.6185H12.6387V21.7024H12.7058V21.8114H12.7561V21.6856L12.6806 21.6605ZM13.3096 22.4152L13.2257 22.3313L13.1502 22.2391L13.1167 22.1552L13.058 22.0043L13.1838 22.0714L13.2257 22.1888L13.2844 22.2307L13.3431 22.3565L13.3096 22.4152ZM15.0453 24.6876L15.037 24.6121L14.9615 24.5115L15.0705 24.5283L15.1711 24.6205L15.2214 24.7295L15.1543 24.7631L15.1292 24.7128L15.0453 24.6876ZM19.5735 16.9814H19.4896L19.4645 16.7969L19.5148 16.7634V16.6711H19.2213V16.5789L19.2548 16.5538L19.1877 16.5286L19.1374 16.5957L19.1206 16.6711L19.0368 16.6879V16.7298H18.9781V16.8389L18.7433 17.0317L18.2737 17.0149C18.2486 17.0988 18.1647 17.0149 18.1647 17.0149C18.1396 16.9563 18.0305 17.0149 18.0305 17.0149C18.0305 17.0988 17.8628 16.9646 17.8628 16.9646L17.5777 16.755C17.41 16.6041 17.1585 16.7969 17.1501 16.8389C17.1501 16.9563 16.9572 16.864 16.9572 16.864C16.9572 16.864 16.7895 16.8137 16.7643 16.8808C16.7392 16.9479 16.6302 16.9311 16.6302 16.9311L16.6134 16.9646L16.5296 16.9814L16.5128 17.0317L16.4122 17.0485H16.6637C16.7308 17.0317 16.6386 17.191 16.5966 17.1827H16.4792L16.4373 17.233H16.3283L16.278 17.3001L16.1187 17.2917C16.1187 17.2917 16.0348 17.3671 16.0348 17.3923C16.0432 17.4174 16.018 17.4929 15.9929 17.4929C15.9677 17.4929 15.9174 17.5768 15.9342 17.5935C15.951 17.6187 15.8839 17.7026 15.8839 17.7026L15.8671 17.7864L15.8168 17.8116V18.038L15.7162 18.1051V18.2057L15.5652 18.3734L15.582 18.4992L15.4562 18.6417L15.473 18.7759L15.3975 18.801L15.3808 18.8597L15.3472 19.0358L15.4311 19.0442C15.473 19.0274 15.4646 19.1532 15.4311 19.1784C15.3975 19.1952 15.3053 19.2287 15.3556 19.2622C15.4059 19.2958 15.2214 19.2874 15.2214 19.2371C15.2214 19.1784 15.1208 19.1365 15.0956 19.1532C15.0705 19.17 15.0286 19.0778 15.0286 19.0778C14.9447 18.9939 14.6596 19.0861 14.6596 19.0861L14.6177 19.2287C14.5254 19.2371 14.4667 19.3964 14.4667 19.3964C14.3829 19.4216 14.3326 19.5138 14.3577 19.539C14.3829 19.5641 14.3158 19.5725 14.3158 19.5725V19.757L14.2739 19.8157V20.0253C14.3326 20.0253 14.3242 20.1092 14.3242 20.1092C14.2403 20.1259 14.2571 20.2349 14.2571 20.2349L14.081 20.2936L14.0475 20.344H13.8295L13.7708 20.3943L13.7121 20.3356H13.2928L13.276 20.2936L13.1922 20.2769V20.1846H13.058L13.0328 20.2433L12.8987 20.2517C12.9071 20.3356 12.7645 20.4614 12.7477 20.4278C12.731 20.3943 12.6387 20.302 12.6806 20.2853C12.731 20.2685 12.7813 20.2601 12.8316 20.2517V20.193L12.5213 20.1846L12.4878 20.2349L12.362 20.2433V20.3775L12.3033 20.3943C12.2614 20.4194 12.3117 20.5117 12.3117 20.5117C12.3704 20.5704 12.3117 20.671 12.3117 20.671C12.253 20.7213 12.3452 20.8135 12.3452 20.8135C12.4123 20.8303 12.3033 20.8806 12.3033 20.8806C12.3201 20.9645 12.3704 20.9896 12.3704 20.9896C12.3201 21.0735 12.4039 21.1154 12.4039 21.1154L12.4123 21.258L12.471 21.2915V21.3921L12.5046 21.4508H12.6387V21.2328C12.5129 21.0986 12.731 21.0651 12.7393 21.1154C12.7477 21.1657 12.84 21.1993 12.84 21.1993C12.8567 21.3251 13.0077 21.4005 13.0412 21.2664C13.0831 21.1406 13.1251 21.216 13.1418 21.2747C13.167 21.3418 13.3263 21.4844 13.3263 21.4844H13.4521L13.4689 21.6018C13.6114 21.5934 13.6534 21.6018 13.7121 21.803C13.7372 21.9204 13.8211 22.0127 13.9301 22.0546L14.0475 22.0462C14.0475 21.9372 14.1649 22.063 14.1649 22.1133C14.1649 22.1636 14.3913 22.3565 14.3913 22.3565L14.6177 22.4068L14.8273 22.5745L14.9866 22.5577H15.0537C15.0956 22.4152 15.2969 22.5661 15.3053 22.6164C15.3221 22.6667 15.4562 22.759 15.473 22.717C15.4898 22.6751 15.582 22.7003 15.5988 22.826C15.6155 22.9518 15.6826 22.9267 15.6826 22.9267L16.1522 22.9183L16.3199 22.7757L16.7476 22.7673C16.9656 22.759 16.8314 22.4571 16.7895 22.4571C16.714 22.3984 16.8147 22.1552 16.8147 22.1552L16.2025 21.585C16.06 21.585 16.1858 21.3838 16.1858 21.3838C16.2948 21.3167 16.1606 21.1993 16.1606 21.1993C16.1774 21.0986 16.1019 20.9813 16.1019 20.9813C15.951 20.8806 15.9929 20.6878 15.9929 20.6878V20.5452C15.8671 20.4278 16.0432 20.411 16.0432 20.411C16.1019 20.3104 16.0013 20.2349 16.0013 20.2349V20.1259L15.8587 20.1092L15.842 19.7067L15.5401 19.279C15.4814 19.2622 15.5233 19.1532 15.5233 19.1532C15.6072 19.1113 15.5065 19.0107 15.5065 19.0107V18.8262L15.6742 18.8094L15.7162 18.7423H15.8V18.5243C15.8336 18.4069 15.9342 18.4656 15.9342 18.4656L16.0516 18.474L16.1187 18.3482L16.1354 18.2476H16.0516C15.9426 18.1805 15.9929 17.9625 15.9929 17.9625C16.1606 17.7193 16.3367 17.8619 16.3367 17.8619L16.4541 17.8535C16.6302 17.9709 16.4709 18.1889 16.4709 18.1889C16.4373 18.2392 16.4541 18.3985 16.4541 18.3985L16.496 18.6753L16.387 18.7591C16.3031 18.8178 16.3031 18.9352 16.3954 18.9604C16.4625 18.9688 16.4373 19.1281 16.3367 19.0191C16.1858 19.0191 16.4205 19.1532 16.3535 19.1197C16.5044 19.2035 16.4709 19.0526 16.4709 19.0526L16.6721 18.8933C16.756 18.8346 16.8817 19.0191 16.8817 19.0442C16.8817 19.0694 17.2172 19.0526 17.2172 19.0526C17.301 19.1113 17.3429 19.2706 17.3429 19.2706C17.4268 19.1448 17.628 19.2622 17.4855 19.3293C17.6197 19.4132 17.6197 19.4886 17.6197 19.4886C17.7287 19.4551 17.7287 19.539 17.7287 19.5641L17.7622 19.4383C17.6364 19.3461 17.9299 19.3126 17.8461 19.4803L17.7958 19.5557L17.8796 19.6228V19.8157C18.0725 19.7989 18.0222 19.5725 18.0222 19.5725L18.106 19.5557C18.106 19.4719 18.1647 19.5222 18.1647 19.5222C18.106 19.2371 18.2989 19.1868 18.2989 19.1868C18.4079 19.1532 18.4163 18.9268 18.4163 18.9268C18.3324 18.8933 18.3827 18.7759 18.4666 18.8765C18.5504 18.9771 18.4163 18.6753 18.4163 18.6753L18.3492 18.6166L18.257 18.6082L18.2486 18.5159H18.0976L18.0725 18.6333L18.0138 18.6501L17.997 18.6166L17.9718 18.7004H17.8209L17.8125 18.6082L17.8964 18.583L17.9383 18.5327L17.9635 18.3902H18.0725L18.215 18.3482C18.215 18.2057 18.2989 18.2392 18.2989 18.2392L18.3492 18.2811L18.4247 18.3398V18.3902L18.3827 18.4153L18.3743 18.4824L18.3995 18.583H18.4582C18.4834 18.4405 18.6595 18.4405 18.7098 18.5327L18.7601 18.4069C18.6427 18.3482 18.7601 18.256 18.7936 18.2979C18.8272 18.3398 18.9026 18.1889 18.9026 18.1889C18.9026 18.1889 18.9613 18.2728 18.9026 18.1638C18.8439 18.0631 18.9446 18.0128 18.9446 18.0128C18.9278 17.9122 19.0536 17.929 19.0536 17.929L19.062 17.7864H18.9446C18.9194 17.9038 18.8188 17.7948 18.8691 17.7696C18.9194 17.7445 18.9697 17.6942 18.9697 17.6942V17.6103L19.02 17.5935L19.0284 17.5097H19.1542L19.2632 17.4594L19.2884 17.4174L19.4058 17.4091L19.5735 17.2581L19.5567 17.191C19.4561 17.191 19.5567 17.1072 19.5567 17.1072L19.5735 16.9814Z" fill="white"/>
<path d="M16.2025 18.6668L16.0516 18.6501L16.06 18.7088H16.1019C16.169 18.8262 16.1103 19.1113 16.1103 19.1113C16.1103 19.1113 16.0097 19.1196 15.9929 19.0693C15.9761 19.019 15.9342 19.1783 15.9677 19.2119C16.0013 19.237 16.1187 19.2119 16.1354 19.2957C16.1354 19.3964 16.2025 19.2454 16.2025 19.2454V18.6584V18.6668Z" fill="white"/>
<path d="M16.2027 19.388L16.253 19.3796L16.2614 19.3209L16.1356 19.4048L16.0518 19.3545V19.5557L16.1859 19.7318L16.2362 19.6144L16.253 19.5389L16.1943 19.5138L16.2027 19.388ZM16.2698 19.9247V19.8408H16.2111V19.9163L16.2698 19.9247ZM16.1943 20.3272V20.2685L16.1272 20.2768V20.3355L16.1943 20.3272ZM16.2949 20.0672C16.3117 20.0672 16.3285 20.0504 16.3285 20.0337C16.3285 20.0169 16.3117 20.0001 16.2949 20.0001C16.2782 20.0001 16.2614 20.0169 16.2614 20.0337V20.0421C16.2614 20.0504 16.2782 20.0672 16.2949 20.0672Z" fill="white"/>
<path d="M16.3534 20.2434C16.3719 20.2434 16.3869 20.2284 16.3869 20.2098C16.3869 20.1913 16.3719 20.1763 16.3534 20.1763C16.3348 20.1763 16.3198 20.1913 16.3198 20.2098C16.3198 20.2284 16.3348 20.2434 16.3534 20.2434Z" fill="white"/>
<path d="M16.3534 19.2706C16.3719 19.2706 16.3869 19.2555 16.3869 19.237C16.3869 19.2185 16.3719 19.2035 16.3534 19.2035C16.3348 19.2035 16.3198 19.2185 16.3198 19.237C16.3198 19.2555 16.3348 19.2706 16.3534 19.2706Z" fill="white"/>
<path d="M19.1961 17.9876L19.1122 17.9792L19.0871 18.0211H19.0451V18.0882H19.0871L19.0954 18.1385L19.0619 18.1721L19.0451 18.214L18.978 18.2308L18.8271 18.3733V18.4404L18.7768 18.4991L18.7265 18.6333H18.5588L18.5168 18.7926L18.542 18.9184L18.6929 18.9771L18.7097 18.8932L18.76 18.8681L18.7684 18.7842L18.802 18.7255L18.8523 18.6668L18.869 18.5997L18.9529 18.5494L19.0535 18.5243L19.0954 18.474L19.1122 18.3733V18.2979L19.1541 18.2476L19.2548 18.2056V18.0379H19.2045L19.1961 17.9876ZM19.4309 18.5662V18.4404L19.4141 18.3314L19.2883 18.2727L19.2045 18.3566L19.1793 18.474V18.5578L19.0954 18.5746L19.0787 18.801L19.0116 18.8261L19.02 18.91L18.9361 18.9352L18.8355 18.9603L18.8187 19.0693L18.7516 19.1112L18.7181 19.2203L18.6762 19.4634C18.6762 19.4634 18.76 19.606 18.7936 19.5389C18.8355 19.4718 18.9026 19.4551 18.9026 19.4551L18.9277 19.4047H19.1541C19.1709 19.3209 19.2799 19.3544 19.2799 19.3964C19.2799 19.4383 19.3638 19.3964 19.3638 19.3964L19.4225 19.3125H19.5147L19.5231 19.2035L19.565 19.1783V19.0358C19.6992 18.9939 19.6824 18.8681 19.6824 18.8681L19.716 18.8261L19.6992 18.7674C19.6321 18.7423 19.6656 18.6836 19.7076 18.7004C19.7495 18.7171 19.6489 18.6165 19.6489 18.6165C19.5986 18.6668 19.565 18.5746 19.565 18.5746H19.4309V18.5662ZM19.565 19.5892C19.565 19.6898 19.4309 19.7234 19.4309 19.7234L19.347 19.6982L19.2883 19.6563V19.5389L19.3554 19.5305L19.3722 19.5808L19.565 19.5892ZM20.0178 19.0442C20.0346 19.128 20.0346 18.9268 20.0681 18.9352C20.1017 18.9435 20.0765 18.8178 20.0765 18.8178L19.9256 18.9268C20.0011 18.9352 20.0095 19.0106 20.0178 19.0442ZM20.4623 18.6081C20.4958 18.6836 20.4874 18.7926 20.6132 18.8765C20.6551 18.9016 20.588 18.9603 20.5461 18.9352C20.479 18.8681 20.4287 18.801 20.3784 18.7255V18.6165C20.412 18.5494 20.4455 18.5746 20.4623 18.6081ZM20.4874 21.2076L20.5126 21.2495L20.5713 21.1657L20.521 21.1405L20.4623 21.1824L20.4874 21.2076ZM20.2526 21.0483V21.1489V21.0483ZM21.4601 20.9309L21.5272 20.889L21.5021 20.8386L21.435 20.8806L21.4601 20.9309ZM23.8835 22.6918L23.959 22.7337V22.8763C24.068 22.9769 24.395 22.8931 24.395 22.8679L24.3783 22.5493L24.3363 22.5073L24.3279 22.2977C24.3615 22.1887 24.1602 22.0294 24.1518 22.0629C24.1351 22.0965 24.0261 22.0629 24.0261 22.1048C24.0261 22.1384 23.959 22.3061 23.9925 22.3648C24.0261 22.4235 23.9674 22.4235 23.959 22.4822C23.9506 22.5409 23.8667 22.6499 23.8751 22.7002L23.8835 22.6918ZM23.699 22.3564C23.6823 22.4235 23.6152 22.457 23.59 22.4403C23.5565 22.4067 23.632 22.4738 23.6487 22.5073C23.6655 22.5409 23.7158 22.5409 23.7326 22.5073C23.7493 22.4738 23.7326 22.3983 23.7577 22.3648C23.7745 22.3312 23.7074 22.3229 23.699 22.3564ZM23.3049 20.7967H23.3636V20.9644H23.3049V20.7967ZM24.177 19.1699C24.1351 19.1196 24.3447 19.0274 24.3783 19.1364C24.4118 19.237 24.3783 19.2203 24.3447 19.2119C24.3112 19.2035 24.2273 19.237 24.177 19.1699ZM24.3531 18.0295V18.0798L24.437 18.0966L24.4453 18.0463L24.3531 18.0295ZM23.9758 18.1637L24.0428 18.2056H24.068L24.1183 18.1721V18.1889L24.1686 18.1721L24.1518 18.1302V18.105L24.1183 18.1134L24.0596 18.1553L24.0009 18.1134L23.9758 18.1637ZM24.4453 16.1009H24.3196C24.3196 16.1009 24.3615 16.1177 24.2357 16.0086C24.1267 15.8996 24.0512 16.0338 24.0512 16.0338L23.9171 16.0506V16.1847L23.85 16.2099V16.2937H23.9506C23.9506 16.2937 23.9506 16.386 23.9758 16.3441C24.0009 16.3021 24.2105 16.3524 24.1938 16.4615C24.1854 16.5034 24.4034 16.6124 24.3783 16.7466C24.4873 16.7633 24.4621 16.8723 24.4621 16.8723L24.6047 16.8891L24.6466 16.8053L24.6885 16.8136V16.7633L24.5963 16.7382L24.5795 16.4615L24.5208 16.4195L24.5376 16.3524L24.4705 16.3273L24.504 16.2183L24.4453 16.1009ZM24.8059 16.9646H24.7388L24.5879 16.9814L24.504 17.1491C24.504 17.1491 24.546 17.1742 24.5879 17.2329C24.613 17.2916 24.6298 17.6354 24.5292 17.6941C24.4286 17.7528 24.5376 17.7193 24.5376 17.7193L24.5208 17.9121C24.546 17.996 24.5879 17.9541 24.613 17.9121C24.6382 17.8702 24.6634 17.8618 24.6969 17.8199C24.7304 17.778 24.7808 17.6941 24.7891 17.6354C24.7975 17.5767 24.8395 17.4845 24.8143 17.4593C24.7891 17.4342 24.8395 17.3168 24.8395 17.3168C24.8395 17.3168 24.873 17.2497 24.8395 17.1826C24.8059 17.1155 24.8478 17.0317 24.873 16.9981L24.8059 16.9646ZM24.9065 17.3168L24.9149 17.2497H24.9652V17.3168H24.9065ZM24.9065 17.5516L24.8646 17.5264L24.8898 17.4761L24.9317 17.5012L24.9065 17.5516ZM24.8311 16.8807L24.7975 16.7969C24.7975 16.7969 24.7975 16.7298 24.8143 16.6962C24.8311 16.6627 24.7808 16.6292 24.7556 16.6124C24.7304 16.6124 24.7388 16.5453 24.7304 16.5118C24.7304 16.4782 24.6634 16.4531 24.6634 16.4531L24.6466 16.2937C24.6466 16.2686 24.5711 16.2351 24.5963 16.2099L24.6634 16.1344C24.6885 16.1177 24.6382 16.0003 24.6801 16.0254C24.7221 16.0506 24.7221 16.0925 24.7388 16.126C24.7556 16.1596 24.7388 16.277 24.7724 16.3021C24.8143 16.3273 24.7724 16.4195 24.8311 16.4195C24.8981 16.4195 24.8562 16.5789 24.8562 16.5789C24.8562 16.5789 24.8395 16.6962 24.8814 16.7046C24.9233 16.713 24.8981 16.9143 24.8981 16.9143L24.8311 16.8807ZM24.2944 15.4971C24.3196 15.5307 24.3699 15.5558 24.3699 15.5894C24.3699 15.6229 24.3531 15.6481 24.4034 15.6565C24.4537 15.6648 24.4873 15.6565 24.504 15.69C24.5208 15.7319 24.5208 15.8074 24.504 15.8409C24.504 15.8745 24.5208 15.9248 24.5627 15.9248C24.6047 15.9248 24.613 15.9248 24.613 15.9583C24.613 15.9835 24.6634 15.8661 24.6634 15.8661C24.6214 15.8325 24.5795 15.7571 24.5795 15.7571L24.546 15.6145C24.546 15.5978 24.4873 15.581 24.4621 15.5726C24.437 15.5726 24.395 15.4887 24.395 15.4887L24.2944 15.4971ZM24.3783 15.4217C24.3531 15.3881 24.3279 15.363 24.2944 15.3462C24.2609 15.3294 24.2357 15.3127 24.2022 15.3127C24.1686 15.3127 24.1435 15.2875 24.1435 15.254C24.1435 15.2456 24.1435 15.2372 24.1518 15.2288C24.1686 15.1953 24.1267 15.1785 24.1267 15.1449C24.1267 15.1114 24.1518 15.1114 24.1938 15.1366C24.2357 15.1617 24.2273 15.1701 24.2609 15.212C24.2944 15.254 24.3112 15.2959 24.3447 15.2875C24.3783 15.2791 24.4034 15.363 24.4286 15.3378C24.4705 15.3127 24.4621 15.3965 24.4621 15.3965L24.3783 15.4217ZM23.3972 16.3776C23.4391 16.4279 23.1456 16.4111 23.1456 16.3776C23.1456 16.3441 23.1708 16.2267 23.2462 16.2518C23.3217 16.277 23.3301 16.1009 23.3301 16.1009C23.3301 16.1009 23.263 16.1093 23.3217 16.0757C23.3804 16.0422 23.3217 15.9919 23.2965 15.9667L23.2462 15.8996H23.3636C23.4139 15.8661 23.4307 15.7068 23.4307 15.7068C23.5313 15.7403 23.5816 15.6648 23.5816 15.6648L23.6319 15.7655C23.6655 15.8074 23.5481 15.8242 23.59 15.8493C23.6319 15.8745 23.6487 15.9499 23.6319 15.9751C23.6152 16.0003 23.5229 15.9751 23.5229 15.9499C23.5229 15.9248 23.4894 15.9919 23.5229 16.0338C23.5565 16.0757 23.481 16.1344 23.4642 16.1344C23.4475 16.1344 23.3385 16.1512 23.4307 16.2015C23.5146 16.2518 23.6236 16.2267 23.6236 16.2267C23.6236 16.2267 23.699 16.2267 23.7242 16.2602C23.7493 16.3021 23.7158 16.3105 23.6739 16.3105L23.4223 16.2937C23.4223 16.2937 23.372 16.3524 23.3972 16.3776ZM22.8605 16.4615C22.9024 16.4531 23.003 16.4447 23.0282 16.4615C23.0366 16.495 22.9611 16.5285 22.9611 16.5285L22.8605 16.5453C22.827 16.5034 22.8186 16.4615 22.8605 16.4615ZM23.9422 15.7487C24.0093 15.7152 24.1518 15.7152 24.1435 15.6648C24.1351 15.6061 24.2273 15.5894 24.2273 15.5894L24.2525 15.69L24.3279 15.7487V15.8326L24.2692 15.8493C24.177 15.8745 24.2357 15.9164 24.2357 15.9164H24.0261L24.0009 15.8326L23.9422 15.7487ZM23.6068 15.2875C23.6655 15.2875 23.5984 15.4804 23.7326 15.4636C23.8667 15.4468 23.7326 15.5223 23.8416 15.5307C23.9422 15.5391 23.9171 15.4552 23.9506 15.3965C23.9841 15.3378 23.9674 15.3043 23.9087 15.2875C23.85 15.2707 23.85 15.2707 23.8248 15.2036C23.8164 15.1366 23.741 15.1198 23.741 15.1198L23.7242 15.0192L23.6152 15.0862L23.5062 15.2288C23.5062 15.3378 23.5649 15.2875 23.6068 15.2875ZM23.8332 16.0003L23.8584 15.9499L23.9087 15.9751L23.8835 16.0254L23.8332 16.0003ZM23.7493 15.9164H23.7997V15.9835H23.7493V15.9164ZM23.7913 14.7928V14.8682H23.7493L23.741 14.8011L23.7913 14.7928ZM23.6487 15.581H23.699V15.6229H23.6487V15.581ZM23.5146 15.581V15.5307H23.5984V15.5726L23.5146 15.581ZM22.827 16.4028L22.7766 16.3776L22.8018 16.3189L22.8521 16.3441L22.827 16.4028ZM22.5586 16.2434V16.1931H22.6425V16.2351L22.5586 16.2434ZM21.1079 16.2267L20.9235 16.2351V16.2854H21.1163L21.1079 16.2267ZM20.8061 16.3021L20.7893 16.2267L20.8396 16.2183L20.8564 16.2937L20.8061 16.3021ZM20.7725 16.3524L20.7558 16.3105L20.7809 16.3021L20.7977 16.3441L20.7725 16.3524ZM21.1918 16.2099L21.1834 16.2686L21.2673 16.277C21.2673 16.277 21.3092 16.3105 21.3092 16.3357C21.3092 16.3608 21.3679 16.386 21.4014 16.386C21.435 16.386 21.5272 16.3189 21.5272 16.3189C21.5272 16.3189 21.5691 16.2015 21.5356 16.2099C21.5021 16.2183 21.435 16.2686 21.4266 16.2183C21.4266 16.168 21.3176 16.1931 21.3176 16.1931L21.1918 16.2099ZM21.6111 16.126C21.6111 16.1428 21.5859 16.1764 21.6362 16.1847C21.6865 16.1931 21.7788 16.1512 21.7872 16.2015C21.7955 16.2518 21.7955 16.2854 21.871 16.3105C21.9213 16.3273 21.9716 16.3441 22.022 16.3441L22.1897 16.3273C22.1897 16.3273 22.2987 16.3524 22.3238 16.3692C22.4161 16.4698 22.4748 16.495 22.4999 16.4531C22.5251 16.4111 22.4999 16.3105 22.4831 16.2854C22.4831 16.2434 22.3574 16.0841 22.3154 16.1177C22.2735 16.1512 22.2651 16.1177 22.1897 16.1428C22.1142 16.168 21.9549 16.1512 21.9465 16.1177C21.9465 16.0841 21.8207 16.0673 21.8207 16.0338C21.8207 16.0003 21.7368 15.9499 21.7452 16.0086C21.7536 16.059 21.6865 16.0841 21.6698 16.0673C21.653 16.0506 21.6027 16.1177 21.6027 16.1177L21.6111 16.126ZM23.5313 15.0359L23.59 14.8431C23.5062 14.8263 23.5229 14.7341 23.5229 14.7341C23.5146 14.6502 23.3972 14.5664 23.3552 14.5999C23.3133 14.6251 23.3301 14.4238 23.3301 14.4238C23.3301 14.4238 23.4055 14.3735 23.4391 14.3986C23.4726 14.4238 23.154 13.971 23.0869 14.0129C23.0198 14.0548 22.8689 13.971 22.8773 13.8955C22.8856 13.8117 22.5754 13.5601 22.5754 13.5601C22.5754 13.5601 22.4748 13.493 22.458 13.5433C22.4412 13.5936 22.4077 13.6272 22.458 13.6607C22.5083 13.6859 22.4999 13.6188 22.5586 13.6775C22.6173 13.7362 22.7263 13.8117 22.6844 13.862C22.6425 13.9123 22.6005 13.9291 22.6005 13.9291L22.6509 13.9961H22.7431L22.7599 14.1387C22.7599 14.1387 22.8605 14.189 22.8856 14.2477C22.9108 14.3064 22.9108 14.3399 22.8856 14.3819C22.8605 14.4154 22.8102 14.4657 22.8186 14.5328C22.827 14.5915 22.9024 14.6167 22.9024 14.6167H22.9611L23.0114 14.6502V14.7592C23.0785 14.7424 23.1875 14.8431 23.1791 14.8934C23.1791 14.9521 23.1959 14.9185 23.2798 14.9772C23.3636 15.0359 23.3385 15.0443 23.3972 15.0946C23.4559 15.1366 23.5062 15.1114 23.5313 15.0275V15.0359Z" fill="white"/>
<path d="M22.1393 13.8872C22.1393 13.8537 22.1141 13.7363 22.1644 13.7446C22.2147 13.7446 22.1812 13.7446 22.2483 13.7698C22.3154 13.795 22.307 13.7279 22.307 13.7279H22.3992L22.5166 13.8117L22.4998 13.8956H22.416C22.374 13.8369 22.2902 13.862 22.307 13.9207C22.3237 13.9794 22.265 14.0885 22.2315 14.0968C22.198 14.1052 22.0889 14.1052 22.0973 14.0549L22.1393 13.8872ZM22.0722 13.6608V13.5853C22.0722 13.5853 22.0722 13.5182 22.0219 13.5182C21.9715 13.5182 21.9045 13.4679 21.9212 13.4344C21.938 13.4008 21.7787 13.3673 21.7787 13.3673C21.7787 13.3673 21.6361 13.2331 21.6948 13.2499C21.7368 13.2667 21.7116 13.1912 21.7116 13.1912C21.7116 13.1912 21.611 13.208 21.5858 13.1912C21.5607 13.1912 21.5691 13.1074 21.5691 13.1074C21.5691 13.1074 21.4684 13.0906 21.4684 13.1074C21.4684 13.1241 21.502 13.1409 21.5187 13.1912C21.5355 13.2415 21.5271 13.3254 21.6026 13.3422C21.6864 13.3589 21.6948 13.3757 21.7032 13.4092C21.7116 13.4428 21.8038 13.4512 21.8038 13.4512L21.8709 13.4847L22.0722 13.6608ZM21.1749 12.7887L21.1498 12.7216L21.0827 12.7049V12.7887H21.1749ZM21.1498 12.4365C21.0659 12.3694 21.2672 12.4868 21.2672 12.4868C21.3343 12.4868 21.3762 12.5372 21.3762 12.5623C21.3762 12.5875 21.46 12.5791 21.46 12.5791L21.4684 12.5204L21.4013 12.4365L21.3426 12.3946C21.3426 12.3946 21.2588 12.3862 21.2588 12.3611C21.2588 12.3359 21.1749 12.4617 21.1414 12.4365H21.1498ZM22.6843 12.4868C22.6592 12.5623 22.6508 12.6629 22.6088 12.6629C22.5669 12.6629 22.5837 12.7719 22.5837 12.7719L22.7262 12.7803C22.7598 12.7887 22.7598 12.8726 22.7598 12.8726C22.8856 12.8726 22.9359 13.0403 22.9275 13.0822C22.9023 13.1241 22.9694 13.1241 22.9694 13.1241C22.9694 13.1241 22.9694 13.2583 22.9526 13.2918C22.9359 13.3254 23.0617 13.3505 23.0952 13.4008C23.1287 13.4512 23.0784 13.6189 23.0533 13.6273C23.0281 13.644 23.1204 13.6692 23.112 13.7111C23.1036 13.753 23.1371 13.7111 23.1455 13.7782L23.1707 13.9878L23.2881 13.9962C23.3048 13.8872 23.5229 13.8788 23.5564 13.8956C23.6989 13.9459 23.808 14.1639 23.808 14.2142C23.808 14.2645 23.7157 14.2729 23.7157 14.2729L23.7325 14.5245C23.875 14.5664 23.984 14.7761 23.9757 14.8012C23.9589 14.8348 24.0763 14.8264 24.0763 14.8264C24.0931 14.6754 24.2356 14.7257 24.244 14.7761C24.244 14.8264 24.2775 14.9438 24.2775 14.9438L24.3195 15.0108L24.3782 15.0695H24.462L24.4956 15.1199L24.5962 15.1366C24.5962 15.1366 24.6884 15.2373 24.6968 15.2624C24.7052 15.2876 24.831 15.2792 24.8645 15.2876C24.8981 15.2876 24.9484 15.3211 24.9568 15.363C24.9651 15.405 25.0155 15.472 25.0155 15.472C25.0155 15.472 25.1161 15.4972 25.1245 15.5307L25.1748 15.6398L25.2586 15.7068L25.267 15.7907H25.3593L25.3844 15.8997L25.5354 15.8913L25.6192 15.8326C25.6947 15.7907 25.7618 15.7404 25.8121 15.6649C25.8205 15.623 25.8372 15.4972 25.9211 15.5224C26.0049 15.5475 25.9462 15.3379 25.9462 15.3379C25.9462 15.3379 25.8288 15.254 25.8372 15.2121C25.8456 15.1702 25.7198 15.0863 25.7282 15.0444C25.7366 15.0192 25.6192 14.9438 25.6276 14.9102C25.636 14.8767 25.5689 14.7844 25.5689 14.7844L25.4515 14.6754L25.4347 14.5916H25.3341L25.1329 14.34L25.1412 14.2729H25.0825V14.1723L25.0238 14.1388H24.94L24.7471 13.9291L24.7304 13.8369H24.6465L24.6633 13.6608C24.722 13.5769 24.6884 13.4344 24.6884 13.4344C24.6884 13.4344 24.571 13.4931 24.5123 13.4679C24.4536 13.4428 24.5375 13.3841 24.5375 13.3841V13.317L24.4872 13.2667C24.4872 13.2667 24.3446 13.2835 24.3362 13.2583L24.3027 13.1241L24.2943 12.9816L24.2356 12.9564L24.2272 12.8977L24.135 12.9061V12.8055L24.0847 12.7887L24.0344 12.7636L24.026 12.6629L23.8415 12.6545L23.7828 12.5707L23.7157 12.4701L23.5061 12.4533L23.4558 12.403L23.3719 12.3862L23.3132 12.3611L23.2881 12.403H23.1204V12.4617C23.0365 12.5036 22.7011 12.4617 22.7011 12.4952L22.6843 12.4868ZM23.5648 12.2604C23.548 12.2017 23.7325 12.1347 23.7744 12.185C23.8163 12.2353 23.9337 12.2437 23.9421 12.5036C23.9505 12.5875 23.7996 12.4114 23.7996 12.4114L23.6738 12.3694C23.6067 12.3527 23.5732 12.3107 23.5648 12.2688V12.2604ZM21.1079 12.3694L21.0659 12.3443L21.0995 12.2688L21.1414 12.294L21.1079 12.3694ZM20.6802 11.5309L20.5712 11.4219V11.338L20.5376 11.2961L20.5041 11.1787L20.3951 11.1452L20.2861 11.1871L20.1687 11.2626L20.0429 11.2793L19.9758 11.3632L20.2442 11.38L20.2945 11.4638L20.4873 11.4806L20.6131 11.6064C20.7221 11.6483 20.7473 11.5896 20.6802 11.5309ZM20.6634 11.1116C20.6467 11.0445 20.5376 11.2123 20.6467 11.2458C20.7557 11.2793 20.8647 11.2458 20.8647 11.2458L20.8898 11.1955L21.3091 11.2039C21.3426 11.1703 21.3594 11.12 21.3594 11.12C21.3594 11.12 21.46 11.0865 21.502 11.1032C21.5439 11.12 21.502 10.9858 21.4684 11.0026C21.4265 11.0194 21.3426 11.0026 21.3426 11.0026H21.1917C21.1833 10.9523 21.0492 10.9775 21.0408 11.0026C21.0324 11.0445 20.9821 11.0529 20.9821 11.0529L20.7892 11.0697C20.7724 11.12 20.6718 11.1536 20.6634 11.12V11.1116ZM19.8333 12.5539C19.959 12.5958 20.0094 12.5539 20.0177 12.5288C20.0261 12.4952 20.0345 12.4868 20.0848 12.4785C20.1351 12.4701 20.0764 12.3694 20.0261 12.3778C19.9758 12.3778 19.9255 12.3611 19.9171 12.3191C19.9087 12.2688 19.8249 12.1598 19.8165 12.2437C19.8081 12.3275 19.7578 12.3275 19.7662 12.3946C19.7746 12.4533 19.7997 12.5371 19.8333 12.5539ZM18.8689 12.6462C18.8689 12.6126 19.0367 12.6126 19.0618 12.6378C19.087 12.6629 19.0702 12.7049 19.1457 12.7049C19.2211 12.7049 19.1876 12.7552 19.1792 12.7887C19.1792 12.8055 19.0954 12.7971 19.0786 12.7719C19.0786 12.7468 18.9444 12.7384 18.9444 12.7384C18.9444 12.7384 18.8773 12.6881 18.8689 12.6462ZM21.72 10.8265L21.6529 10.8768L21.611 10.8349L21.5691 10.8768L21.6277 10.9355L21.6445 10.9523L21.6613 10.9355L21.7451 10.8685L21.72 10.8265ZM21.2588 10.6756L21.2001 10.642L21.1749 10.684L21.242 10.7259H21.2672L21.3594 10.6672L21.3343 10.6253L21.2588 10.6756ZM20.9821 12.4198H20.9737L20.8898 12.4114V12.4617H20.9569L21.0072 12.5455L21.0492 12.5204L20.9905 12.4365L20.9821 12.4198ZM18.2149 14.7844L18.2233 14.8767H18.349C18.3994 14.8767 18.3071 14.818 18.3071 14.818C18.3071 14.818 18.2065 14.8264 18.2233 14.7844H18.2149ZM18.3826 14.7844L18.4077 14.7509L18.4581 14.7928L18.4245 14.8264L18.3826 14.7844ZM16.8564 13.1996L16.89 13.1661L16.9403 13.2164L16.9068 13.2499L16.8564 13.1996ZM19.2882 24.1258L19.2044 24.0839L19.1792 24.1258L19.2295 24.151L19.2127 24.1677L19.2463 24.2097L19.2882 24.1677L19.3134 24.1426L19.2882 24.1258ZM18.6342 23.5137L18.6006 23.4717L18.5503 23.5137L18.5251 23.5388L18.5587 23.5556L18.6174 23.5975L18.6425 23.5556L18.609 23.5304L18.6342 23.5137ZM24.8561 21.9037C24.8477 21.8617 24.7974 21.845 24.7891 21.8366L24.7723 21.8869L24.7891 21.8953L24.7974 21.9372L24.7891 21.954L24.8226 21.9875C24.8561 21.9624 24.8645 21.9288 24.8561 21.9037ZM24.94 21.736H24.8561V21.6605L24.94 21.6773V21.736ZM26.8686 21.0819C26.9106 21.0567 26.9525 21.0148 26.9525 21.1154C26.9441 21.2077 26.9022 21.1741 26.8686 21.2077C26.8435 21.2412 26.8183 21.1154 26.8686 21.0819ZM27.2963 20.7213V20.7129C27.2963 20.6962 27.2879 20.671 27.2795 20.6542L27.2376 20.6794L27.246 20.7129C27.246 20.7297 27.246 20.7465 27.2627 20.7549C27.2711 20.7632 27.2795 20.7632 27.2963 20.7549L27.2879 20.7129L27.2963 20.7213ZM27.1873 20.7632L27.2208 20.8639L27.2627 20.8471C27.2544 20.8136 27.246 20.78 27.2376 20.7465L27.1873 20.7632ZM27.0028 20.9645H26.9525C26.9525 20.998 26.9525 21.0483 26.9944 21.0483L27.0112 21.0064L27.0028 20.9645ZM26.7848 19.9582C26.7848 19.9415 26.768 19.9247 26.7512 19.9163C26.7177 19.8995 26.659 19.9247 26.6255 19.9499L26.6506 19.9918C26.6842 19.9666 26.7261 19.9582 26.7345 19.9582L26.7848 19.9499V19.9582ZM24.462 17.2414C24.4285 17.2749 24.353 17.2917 24.353 17.2917L24.3279 17.3755L24.2943 17.4175V17.5013C24.2943 17.56 24.2105 17.5936 24.2105 17.5936L24.1769 17.6355H23.9505C23.8667 17.6019 23.9254 17.5013 23.9757 17.5097C24.026 17.5181 23.9673 17.3672 23.9673 17.3672L24.0344 17.3588C24.0344 17.3588 24.0344 17.2078 24.0679 17.2078C24.0931 17.2078 24.0595 17.1575 24.026 17.124C23.9924 17.0988 23.9421 17.015 23.917 17.0233H23.7493L23.7241 17.0737L23.6319 17.0904L23.6235 17.1743C23.5732 17.2414 23.3719 17.3672 23.4558 17.1575L23.4893 17.0988V17.0233H23.3384C23.3384 17.0233 23.2545 16.9898 23.2545 16.9563V16.8808L23.0784 16.6879L22.8688 16.6628L22.852 16.6208L22.7262 16.6041C22.5753 16.5202 22.4411 16.5957 22.4747 16.7215C22.4914 16.8473 22.5334 16.8976 22.4495 16.8976C22.3657 16.8976 22.3489 16.8305 22.3489 16.8305C22.3489 16.8305 22.2818 16.8053 22.2818 16.8389C22.2818 16.8724 22.2567 16.9395 22.2818 16.973C22.307 17.0066 22.2483 17.0569 22.2231 17.0317C22.198 17.0066 22.1393 16.9311 22.1476 16.906C22.1644 16.8808 22.0302 16.7215 22.1644 16.6963C22.2986 16.6712 22.1644 16.5957 22.2063 16.5789L22.2734 16.5454H22.3405L22.3824 16.5118L22.2734 16.4951L22.2063 16.4867L22.0806 16.4783C22.0135 16.5202 21.9548 16.5873 21.9296 16.6628C21.8625 16.7886 21.7032 16.6125 21.7619 16.5454C21.8206 16.4783 21.5774 16.537 21.5355 16.5705C21.4936 16.6041 21.3678 16.5873 21.3678 16.5873C21.3426 16.6628 21.2252 16.5789 21.2588 16.5286C21.2923 16.4783 21.2923 16.4448 21.2923 16.4448L21.2504 16.428L21.2001 16.5286C21.0911 16.5286 21.0575 16.5957 21.0743 16.6376C21.0995 16.6795 21.0408 16.6292 21.024 16.6879C21.0156 16.7466 21.0408 16.7466 21.0827 16.7718C21.133 16.7969 21.0575 16.7969 21.0911 16.8389C21.1246 16.8808 21.2252 16.8389 21.1749 16.8976C21.1079 16.9563 20.9988 16.9311 20.9988 16.9311C20.9905 17.015 20.8311 16.9898 20.8144 16.9647L20.6718 16.7886L20.5041 16.7802C20.4957 16.6628 20.588 16.7215 20.6215 16.6292C20.655 16.537 20.6718 16.3777 20.6718 16.3777C20.6718 16.3777 20.5376 16.3777 20.5293 16.4112C20.5209 16.4531 20.437 16.4867 20.437 16.4867C20.437 16.4867 20.3699 16.5118 20.3951 16.5454C20.4202 16.5789 20.3448 16.5957 20.3448 16.5957C20.3448 16.5957 20.3532 16.646 20.3364 16.6712C20.2693 16.7382 20.1016 16.6712 20.0764 16.6544L19.9758 16.6125L19.8752 16.5454L19.7578 16.5957L19.7243 16.6292H19.5985L19.5901 16.7299L19.8165 16.755L19.8333 16.9647L19.741 16.9311H19.6823L19.6572 16.8808H19.6069V17.0569L19.6572 17.0988L19.6991 17.1407L19.783 17.1491L19.7997 17.2581H20.0094L20.0345 17.3085H20.1603L20.4035 17.56L20.3867 17.6439L20.3448 17.6606C20.3616 17.7193 20.2358 17.6858 20.2358 17.6858V17.7361L20.2945 17.7445L20.3532 17.778L20.437 17.6355C20.5209 17.5768 20.5712 17.6606 20.5796 17.7193C20.5796 17.7613 20.5376 17.7529 20.5376 17.7529V17.8787L20.588 17.8954C20.6718 17.9961 20.5544 18.0548 20.5544 18.0548L20.5293 18.1386C20.5041 18.2141 20.4119 18.1973 20.4119 18.1973L20.3783 18.2476L20.2777 18.2728L20.4789 18.2979C20.4957 18.2308 20.546 18.2141 20.5628 18.2476C20.5963 18.2812 20.5963 18.3399 20.5963 18.3399L20.6467 18.3482L20.6383 18.4405L20.6886 18.4573V18.734L20.7473 18.8011C20.8479 18.7591 20.8479 18.8262 20.7976 18.8598C20.7473 18.8933 20.7808 19.0442 20.7808 19.0442L20.7389 19.0862V19.1532L20.6886 19.1868V19.2874C20.6047 19.2455 20.5041 19.2623 20.4789 19.2874C20.3951 19.2371 20.2442 19.2539 20.2442 19.2874C20.2945 19.3629 20.1855 19.3713 20.1855 19.3713L20.1268 19.4467C20.1687 19.5306 20.0848 19.539 20.0848 19.539V19.7067L19.9842 19.7905V20.0169C19.9842 20.0756 20.1184 20.084 20.1435 20.0505C20.1687 20.0169 20.2693 20.1176 20.2693 20.1176H20.3448L20.3615 19.9666L20.3112 19.9415V19.6899L20.3951 19.6061C20.4957 19.5641 20.4622 19.8157 20.4622 19.8408C20.4622 19.9415 20.5125 19.9247 20.546 19.9079C20.6299 19.8744 20.5712 20.0086 20.5041 19.9918C20.437 19.9918 20.4789 20.0756 20.4789 20.0756L20.5209 20.1008L20.437 20.1595L20.3783 20.235L20.2945 20.2098L20.1938 20.2014L20.1603 20.1427L20.1016 20.1343L20.0932 20.2517L20.0513 20.302L19.9507 20.4027C20.0848 20.4027 19.9339 20.4949 19.9004 20.4949C19.9758 20.5201 19.892 20.5955 19.6991 20.5368V20.5955L19.632 20.6039L19.6907 20.6794H19.7578L19.7326 20.8303C19.7326 20.9393 19.4559 20.8639 19.4308 20.8303V20.998H19.3721L19.3805 21.0987V21.2412L19.4643 21.2244V21.2831L19.6907 21.2915L20.0177 20.9477L20.2106 20.9058C20.2274 20.8219 20.3112 20.9226 20.3112 20.9226C20.3951 20.9142 20.4119 20.9729 20.4119 20.9729L20.5209 20.9897C20.6047 21.0148 20.5544 21.0232 20.5628 21.0567C20.5628 21.107 20.6131 21.0903 20.6131 21.0903L20.6299 20.9813L20.6802 20.9897L20.6299 20.931L20.5376 20.889L20.437 20.8471C20.3699 20.7549 20.4538 20.7632 20.5209 20.78H20.6299C20.6299 20.78 20.7557 20.9477 20.7557 20.9897C20.7557 21.0316 20.8144 21.04 20.8144 21.04H20.8898L20.915 21.0903H20.9905L21.0156 21.1406H21.1665V21.0651L21.0324 21.04L21.024 20.9561L20.9234 20.931C20.8898 20.7884 20.9485 20.7465 20.9905 20.8136H21.0408L21.024 20.6962L21.0827 20.6794L21.0659 20.4949L21.0156 20.4781V20.4194L21.2252 20.4278C21.2085 20.3188 21.2252 20.2685 21.2252 20.2685H21.2923V20.3104L21.5523 20.3356L21.7368 20.126C21.7284 20.1092 21.7535 20.1008 21.7368 20.084C21.7032 20.0589 21.6697 20.084 21.6277 20.0589C21.5858 20.0337 21.6277 19.8912 21.6277 19.8492C21.611 19.8157 21.7619 19.7654 21.7368 19.8492C21.7116 19.9163 21.7368 19.9582 21.7368 19.9582C21.8458 19.8492 21.938 19.9582 21.9296 19.9918C21.9296 20.0169 21.9883 20.0421 22.0302 20.0169C22.0722 19.9918 22.1225 20.0924 22.1141 20.1427C22.0889 20.193 21.9464 20.1847 21.9296 20.1343C21.9296 20.084 21.8961 20.1008 21.8793 20.126C21.8625 20.1511 21.7955 20.1679 21.7451 20.1427C21.7451 20.1343 21.7368 20.1343 21.7368 20.126L21.5523 20.3356H21.5607C21.6613 20.3943 21.611 20.4698 21.5774 20.4865C21.5439 20.5033 21.4936 20.5033 21.4936 20.5033L21.4684 20.5368L21.2504 20.5536L21.2336 20.6375C21.133 20.6291 21.0911 20.7465 21.1162 20.8052C21.1414 20.8639 21.1162 20.9142 21.1162 20.9142L21.2001 20.9561L21.3259 20.9226C21.3426 20.8387 21.4097 20.8219 21.4768 20.7716C21.5439 20.7213 21.6529 20.8555 21.6194 20.931C21.5858 20.998 21.5858 21.0232 21.5858 21.0232L21.5942 21.107L21.5104 21.1322L21.4433 21.1657V21.2077H21.2085L21.1749 21.2496L21.0659 21.258L21.0324 21.3167H20.9485C20.9485 21.3167 20.8311 21.3838 20.8814 21.4508C20.9318 21.5179 20.6718 21.5095 20.6131 21.4173C20.5963 21.5012 20.5041 21.4173 20.5041 21.4173L20.4119 21.4005L20.4035 21.2748C20.3867 21.1909 20.2274 21.1909 20.2358 21.2496C20.2358 21.3083 19.9339 21.2748 19.9339 21.2748L19.8333 21.3167L19.741 21.3754L19.7326 21.4173L19.5817 21.4341L19.5146 21.4676L19.4895 21.4173H19.4224L19.3553 21.5012C19.1876 21.5179 19.0199 21.6186 19.0283 21.6689C19.045 21.7024 18.9612 21.7527 18.9612 21.7527L18.8857 21.7695L18.8354 21.8533L18.7348 21.8785L18.718 22.063L18.6677 22.0965V22.172L18.609 22.1888V22.2307H18.5251L18.5755 22.3649L18.6425 22.3984C18.7599 22.4152 18.7096 22.5661 18.7096 22.5661H18.7767L18.8102 22.6583L18.8773 22.8009C18.9025 22.9015 18.978 22.8764 19.0115 22.868C19.045 22.8596 19.0786 22.9686 19.0786 22.9686L19.414 22.977C19.414 22.977 19.3972 23.0105 19.4559 23.0273C19.5146 23.0441 19.9004 23.0608 19.9171 23.0357C19.9004 22.9602 20.1268 22.9435 20.219 23.0105C20.3029 23.0776 20.437 23.0357 20.437 23.0357L20.5628 23.1866L20.6467 23.3795L20.7892 23.4214L20.8898 23.4466L20.9234 23.5891H20.9988L21.024 23.6898C21.1079 23.7568 20.9988 23.8994 20.9988 23.8994V24.0923L21.0659 24.1258L21.0575 24.1929L21.1665 24.3019H21.2923L21.6026 24.6457L21.8542 24.7295L21.8961 24.8637L21.9632 24.8553L22.0135 24.8134L22.2147 24.805L22.3154 24.7044L22.4244 24.6876L23.3468 23.8994L23.2629 23.8491V23.6646C23.4222 23.5556 23.4306 23.3543 23.2881 23.3376C23.1791 23.3292 23.2294 23.2118 23.33 23.195L23.3887 23.1699V23.0944L23.5816 22.9183V22.7841L23.1623 22.4319C22.9778 22.3649 23.1623 21.954 23.2881 21.9624C23.4138 21.9707 23.2797 21.3418 23.2797 21.3418L23.2126 21.3083L23.2294 21.0987H23.1371L22.9862 21.2999L22.9443 21.4341C22.9275 21.6102 22.4076 21.5766 22.3824 21.5515C22.3573 21.5263 22.1812 21.4508 22.1812 21.4508C22.1812 21.4508 22.047 21.3418 22.0219 21.367C21.9967 21.4089 21.8793 21.3335 21.8793 21.3586C21.8793 21.3838 21.7703 21.2915 21.7703 21.2915L21.6026 21.2328L21.7284 21.2077L21.7032 21.107L21.9212 21.2161C21.9464 21.2496 22.0554 21.2412 22.0554 21.2412L22.0889 21.2831C22.0889 21.2831 22.156 21.2831 22.198 21.3251C22.2399 21.3838 22.4579 21.3418 22.4579 21.3418L22.5166 21.3922L22.6088 21.4257H22.8688L22.8772 21.2664L22.9275 21.2161V21.1154L22.9778 21.0651V20.9813L23.0281 20.9645L23.0365 20.78L23.0784 20.7716V20.3607L22.9526 20.2433C22.9443 20.2853 22.8101 20.2853 22.8101 20.2853C22.8101 20.2853 22.7765 20.344 22.7514 20.344C22.7262 20.344 22.7849 20.4278 22.7682 20.4698C22.7514 20.5201 22.6843 20.5201 22.6843 20.5201L22.5585 20.5536L22.525 20.5955H22.3908L22.374 20.4865L22.525 20.4446L22.6088 20.4027L22.6508 20.3188C22.6592 20.235 22.7598 20.2433 22.7598 20.2433C22.7598 20.2433 22.9526 20.0756 22.961 20.0086C22.9694 19.9247 23.0365 19.7151 23.1539 19.7151H23.3719C23.4558 19.6815 23.4306 19.5725 23.4306 19.5725L23.5396 19.5557L23.5564 19.6144C23.5564 19.6144 23.7073 19.6312 23.7241 19.6144C23.7409 19.5809 23.7744 19.5306 23.808 19.5474C23.8583 19.5725 23.9924 19.4887 23.9924 19.4887C23.9924 19.43 24.2105 19.4551 24.2105 19.4551L24.2356 19.3713C24.2356 19.3713 24.0931 19.1784 24.0679 19.1784C24.0427 19.1784 23.9002 19.061 23.8918 19.1029C23.7576 19.0694 23.766 18.8849 23.766 18.8849L23.7157 18.7675C23.7157 18.7004 23.5899 18.5579 23.5648 18.5747C23.5061 18.5411 23.4809 18.4656 23.5145 18.4069C23.5229 18.3902 23.5396 18.3734 23.5648 18.3566C23.5983 18.3566 23.6822 18.2308 23.6822 18.2308L23.7241 18.1135L23.8667 18.0715L23.8834 17.9625L23.7996 17.9541C23.7996 17.9541 23.8834 17.7948 23.9337 17.7948C23.984 17.7948 24.2524 17.7948 24.2692 17.778C24.3027 17.7613 24.353 17.6271 24.353 17.6103C24.353 17.5768 24.4201 17.5684 24.4369 17.56C24.4704 17.56 24.5207 17.4845 24.5459 17.451C24.5626 17.4175 24.5039 17.1994 24.462 17.2414Z" fill="white"/>
<path d="M19.8333 20.2937C19.8417 20.2937 19.8585 20.3356 19.8836 20.3272C19.9088 20.3272 19.9256 20.3776 19.892 20.3776C19.8753 20.3776 19.8753 20.4027 19.8753 20.4195C19.8753 20.4279 19.8753 20.4614 19.8501 20.4866C19.8333 20.5033 19.8166 20.4866 19.7914 20.4782C19.7663 20.4614 19.7495 20.4614 19.7159 20.4614C19.6908 20.4614 19.7159 20.5117 19.7159 20.5117C19.7159 20.5117 19.5818 20.5117 19.6069 20.4866C19.6321 20.4698 19.6572 20.4614 19.6405 20.453C19.6237 20.4362 19.6405 20.4279 19.6405 20.4027C19.6405 20.3776 19.6992 20.3859 19.6824 20.3692C19.6656 20.3524 19.6824 20.2769 19.7159 20.3189L19.7327 20.2769C19.7159 20.2518 19.7327 20.2518 19.6908 20.235C19.6489 20.2182 19.6824 20.1511 19.6824 20.1511V20.0924C19.6992 20.0337 19.8249 20.0254 19.8333 20.0841V20.1763L19.8753 20.1931C19.8753 20.1931 19.8669 20.2266 19.8333 20.2266C19.7998 20.2266 19.8333 20.2434 19.8166 20.2685L19.8333 20.2937ZM19.4141 20.3608C19.4392 20.3272 19.4811 20.1595 19.5315 20.2098C19.5818 20.2602 19.6153 20.2098 19.6153 20.2098C19.6153 20.2098 19.6405 20.235 19.6237 20.2937C19.6153 20.3356 19.5985 20.3859 19.5734 20.3943C19.5398 20.3943 19.5147 20.4195 19.4728 20.4279C19.4392 20.4279 19.4224 20.3608 19.4141 20.3608Z" fill="white"/>
</g>
</g>
<defs>
<clipPath id="clip0_769_24106">
<path d="M0 20C0 8.95431 8.95431 0 20 0C31.0457 0 40 8.95431 40 20C40 31.0457 31.0457 40 20 40C8.95431 40 0 31.0457 0 20Z" fill="white"/>
</clipPath>
<clipPath id="clip1_769_24106">
<rect width="53.6667" height="40.25" fill="white" transform="translate(-7 0.000976562)"/>
</clipPath>
</defs>
</svg>
