<svg width="40" height="40" viewBox="0 0 40 40" fill="none" xmlns="http://www.w3.org/2000/svg">
<g clip-path="url(#clip0_769_24140)">
<path d="M0 20C0 8.95431 8.95431 0 20 0C31.0457 0 40 8.95431 40 20C40 31.0457 31.0457 40 20 40C8.95431 40 0 31.0457 0 20Z" fill="#E94E0F"/>
<g clip-path="url(#clip1_769_24140)">
<path fill-rule="evenodd" clip-rule="evenodd" d="M-7 0.000244141H69V3.07837H-7V0.000244141ZM-7 6.15649H69V9.23462H-7V6.15649ZM-7 12.3049H69V15.3909H-7V12.3049ZM-7 18.4612H69V21.5393H-7V18.4612ZM-7 24.6174H69V27.6956H-7V24.6174ZM-7 30.7659H69V33.844H-7V30.7659ZM-7 36.9221H69V40.0002H-7V36.9221Z" fill="#BD3D44"/>
<path fill-rule="evenodd" clip-rule="evenodd" d="M-7 3.07837H69V6.15649H-7V3.07837ZM-7 9.23462H69V12.3049H-7V9.23462ZM-7 15.3831H69V18.4612H-7V15.3831ZM-7 21.5393H69V24.6174H-7V21.5393ZM-7 27.6956H69V30.7737H-7V27.6956ZM-7 33.844H69V36.9221H-7V33.844Z" fill="white"/>
<path fill-rule="evenodd" clip-rule="evenodd" d="M-7 0.000244141H23.3984V21.5393H-7V0.000244141Z" fill="#192F5D"/>
<path fill-rule="evenodd" clip-rule="evenodd" d="M-4.46875 0.922119L-4.1875 1.77368H-3.29687L-4.01562 2.29712L-3.74219 3.15649L-4.46875 2.62524L-5.1875 3.14868L-4.91406 2.29712L-5.64062 1.77368H-4.73438L-4.46875 0.922119ZM0.601562 0.922119L0.875 1.77368H1.77344L1.04688 2.29712L1.32031 3.15649L0.601562 2.62524L-0.125 3.14868L0.148438 2.29712L-0.570312 1.77368H0.320312L0.601562 0.922119ZM5.66406 0.922119L5.94531 1.77368H6.82812L6.10938 2.29712L6.38281 3.15649L5.65625 2.62524L4.9375 3.14868L5.21094 2.29712L4.48438 1.77368H5.38281L5.66406 0.922119ZM10.7344 0.922119L11.0078 1.77368H11.9062L11.1797 2.29712L11.4609 3.15649L10.7344 2.62524L10.0078 3.14868L10.2891 2.29712L9.5625 1.77368H10.4531L10.7344 0.922119ZM15.7969 0.922119L16.0781 1.77368H16.9688L16.25 2.29712L16.5234 3.15649L15.7969 2.62524L15.0781 3.14868L15.3516 2.29712L14.6328 1.77368H15.5234L15.7969 0.922119ZM20.8672 0.922119L21.1406 1.77368H22.0391L21.3125 2.29712L21.5938 3.15649L20.8672 2.62524L20.1406 3.14868L20.4219 2.29712L19.6953 1.77368H20.5938L20.8672 0.922119ZM-1.92969 3.07837L-1.65625 3.92993H-0.757812L-1.48438 4.45337L-1.21875 5.30493L-1.92188 4.78149L-2.64844 5.30493L-2.39062 4.45337L-3.09375 3.92993H-2.20312L-1.92969 3.07837ZM3.13281 3.07837L3.41406 3.92993H4.30469L3.57812 4.45337L3.85938 5.30493L3.13281 4.78149L2.40625 5.30493L2.6875 4.45337L1.96094 3.92993H2.85938L3.13281 3.07837ZM8.20313 3.07837L8.47656 3.92993H9.375L8.64844 4.45337L8.92188 5.30493L8.20313 4.78149L7.47656 5.30493L7.75 4.45337L7.03125 3.92993H7.92188L8.20313 3.07837ZM13.2656 3.07837L13.5469 3.92993H14.4375L13.7109 4.45337L13.9922 5.30493L13.2656 4.78149L12.5469 5.30493L12.8203 4.45337L12.0938 3.92993H13L13.2656 3.07837ZM18.3359 3.07837L18.6094 3.92993H19.5078L18.7812 4.45337L19.0547 5.30493L18.3359 4.78149L17.6094 5.30493L17.8828 4.45337L17.1641 3.92993H18.0547L18.3359 3.07837ZM-4.46875 5.22681L-4.1875 6.09399H-3.29687L-4.01562 6.61743L-3.74219 7.46899L-4.46875 6.93774L-5.1875 7.46899L-4.91406 6.60962L-5.64062 6.08618H-4.73438L-4.46875 5.22681ZM0.601562 5.22681L0.875 6.08618H1.77344L1.04688 6.60962L1.32031 7.46118L0.601562 6.92993L-0.125 7.46118L0.148438 6.60181L-0.570312 6.07837H0.320312L0.601562 5.22681ZM5.66406 5.22681L5.94531 6.08618H6.82812L6.10938 6.60962L6.38281 7.46118L5.65625 6.92993L4.9375 7.46118L5.21094 6.60181L4.48438 6.07837H5.38281L5.66406 5.22681ZM10.7344 5.22681L11.0078 6.08618H11.9062L11.1797 6.60962L11.4609 7.46118L10.7344 6.92993L10.0078 7.46118L10.2891 6.60181L9.5625 6.07837H10.4531L10.7344 5.22681ZM15.7969 5.22681L16.0781 6.08618H16.9688L16.25 6.60962L16.5234 7.46118L15.7969 6.92993L15.0781 7.46118L15.3516 6.60181L14.6328 6.07837H15.5234L15.7969 5.22681ZM20.8672 5.22681L21.1406 6.08618H22.0391L21.3125 6.60962L21.5938 7.46118L20.8672 6.92993L20.1406 7.46118L20.4219 6.60181L19.6953 6.07837H20.5938L20.8672 5.22681ZM-1.92969 7.38306L-1.65625 8.23462H-0.757812L-1.48438 8.75806L-1.21094 9.61743L-1.92969 9.08618L-2.65625 9.60962L-2.38281 8.75806L-3.10156 8.23462H-2.21094L-1.92969 7.38306ZM3.13281 7.38306L3.41406 8.23462H4.30469L3.57812 8.75806L3.85938 9.61743L3.13281 9.08618L2.40625 9.60962L2.6875 8.75806L1.96094 8.23462H2.85938L3.13281 7.38306ZM8.20313 7.38306L8.47656 8.23462H9.375L8.64844 8.75806L8.92188 9.61743L8.20313 9.08618L7.47656 9.60962L7.75 8.75806L7.03125 8.23462H7.92188L8.20313 7.38306ZM13.2656 7.38306L13.5469 8.23462H14.4375L13.7188 8.75806L13.9922 9.61743L13.2656 9.08618L12.5469 9.60962L12.8203 8.75806L12.0938 8.23462H13L13.2656 7.38306ZM18.3359 7.38306L18.6094 8.23462H19.5078L18.7812 8.75806L19.0547 9.61743L18.3359 9.08618L17.6094 9.60962L17.8828 8.75806L17.1641 8.23462H18.0547L18.3359 7.38306ZM-4.46875 9.53931L-4.1875 10.3909H-3.29687L-4.01562 10.9143L-3.74219 11.7737L-4.46875 11.2424L-5.1875 11.7659L-4.91406 10.9143L-5.64062 10.3909H-4.73438L-4.46875 9.53931ZM0.601562 9.53931L0.875 10.3909H1.77344L1.04688 10.9143L1.32031 11.7659L0.601562 11.2424L-0.125 11.7659L0.148438 10.9143L-0.570312 10.3909H0.320312L0.601562 9.53931ZM5.66406 9.53931L5.94531 10.3909H6.82812L6.10938 10.9143L6.38281 11.7737L5.65625 11.2424L4.9375 11.7659L5.21094 10.9143L4.48438 10.3909H5.38281L5.66406 9.53931ZM10.7344 9.53931L11.0078 10.3909H11.9062L11.1797 10.9143L11.4609 11.7737L10.7344 11.2424L10.0078 11.7659L10.2891 10.9143L9.5625 10.3909H10.4531L10.7344 9.53931ZM15.7969 9.53931L16.0781 10.3909H16.9688L16.25 10.9143L16.5234 11.7737L15.7969 11.2424L15.0781 11.7659L15.3516 10.9143L14.6328 10.3909H15.5234L15.7969 9.53931ZM20.8672 9.53931L21.1406 10.3909H22.0391L21.3125 10.9143L21.5938 11.7737L20.8672 11.2424L20.1406 11.7659L20.4219 10.9143L19.6953 10.3909H20.5938L20.8672 9.53931ZM-1.92969 11.6956L-1.65625 12.5471H-0.757812L-1.48438 13.0706L-1.21094 13.9221L-1.92969 13.3909L-2.65625 13.9221L-2.38281 13.0627L-3.10156 12.5393H-2.21094L-1.92969 11.6956ZM3.13281 11.6956L3.41406 12.5471H4.30469L3.57812 13.0706L3.85938 13.9221L3.13281 13.3909L2.40625 13.9221L2.6875 13.0627L1.96094 12.5393H2.85938L3.13281 11.6956ZM8.20313 11.6956L8.47656 12.5471H9.375L8.64844 13.0706L8.92188 13.9221L8.20313 13.3909L7.47656 13.9221L7.75 13.0627L7.03125 12.5393H7.92188L8.20313 11.6956ZM13.2656 11.6956L13.5469 12.5471H14.4375L13.7188 13.0706L13.9922 13.9221L13.2656 13.3909L12.5469 13.9221L12.8203 13.0627L12.0938 12.5393H13L13.2656 11.6956ZM18.3359 11.6956L18.6094 12.5471H19.5078L18.7812 13.0706L19.0547 13.9221L18.3359 13.3909L17.6094 13.9221L17.8828 13.0627L17.1641 12.5393H18.0547L18.3359 11.6956ZM-4.46875 13.844L-4.1875 14.7034H-3.29687L-4.01562 15.2268L-3.74219 16.0706L-4.46875 15.5471L-5.1875 16.0706L-4.91406 15.219L-5.64062 14.6956H-4.73438L-4.46875 13.844ZM0.601562 13.844L0.875 14.7034H1.77344L1.04688 15.2268L1.32812 16.0706L0.601562 15.5471L-0.125 16.0706L0.15625 15.219L-0.570312 14.6956H0.320312L0.601562 13.844ZM5.66406 13.844L5.94531 14.7034H6.82812L6.10938 15.2268L6.38281 16.0706L5.65625 15.5471L4.9375 16.0706L5.21094 15.219L4.48438 14.6956H5.38281L5.66406 13.844ZM10.7344 13.844L11.0078 14.7034H11.9062L11.1797 15.2268L11.4609 16.0706L10.7344 15.5471L10.0078 16.0706L10.2891 15.219L9.5625 14.6956H10.4531L10.7344 13.844ZM15.7969 13.844L16.0781 14.7034H16.9688L16.25 15.2268L16.5234 16.0706L15.7969 15.5471L15.0781 16.0706L15.3516 15.219L14.6328 14.6956H15.5234L15.7969 13.844ZM20.8672 13.844L21.1406 14.7034H22.0391L21.3125 15.2268L21.5938 16.0706L20.8672 15.5471L20.1406 16.0706L20.4219 15.219L19.6953 14.6956H20.5938L20.8672 13.844ZM-1.92969 16.0002L-1.65625 16.8518H-0.757812L-1.48438 17.3752L-1.21094 18.2346L-1.92969 17.7034L-2.65625 18.2268L-2.38281 17.3752L-3.10156 16.8518H-2.21094L-1.92969 16.0002ZM3.13281 16.0002L3.41406 16.8518H4.30469L3.57812 17.3752L3.85938 18.2346L3.13281 17.7034L2.40625 18.2268L2.6875 17.3752L1.96094 16.8518H2.85938L3.13281 16.0002ZM8.20313 16.0002L8.47656 16.8518H9.375L8.64844 17.3752L8.92188 18.2346L8.20313 17.7034L7.47656 18.2268L7.75 17.3752L7.03125 16.8518H7.92188L8.20313 16.0002ZM13.2656 16.0002L13.5469 16.8518H14.4375L13.7188 17.3752L13.9922 18.2346L13.2656 17.7034L12.5469 18.2268L12.8203 17.3752L12.0938 16.8518H13L13.2656 16.0002ZM18.3359 16.0002L18.6094 16.8518H19.5078L18.7812 17.3752L19.0547 18.2346L18.3359 17.7034L17.6094 18.2268L17.8828 17.3752L17.1641 16.8518H18.0547L18.3359 16.0002ZM-4.46875 18.1565L-4.1875 19.0081H-3.29687L-4.01562 19.5315L-3.74219 20.3831L-4.46875 19.8596L-5.1875 20.3831L-4.91406 19.5237L-5.64062 19.0002H-4.73438L-4.46875 18.1565ZM0.601562 18.1565L0.875 19.0081H1.77344L1.04688 19.5315L1.32812 20.3831L0.601562 19.8596L-0.125 20.3831L0.15625 19.5237L-0.570312 19.0002H0.320312L0.601562 18.1565ZM5.66406 18.1565L5.94531 19.0081H6.82812L6.125 19.5315L6.39844 20.3831L5.67188 19.8596L4.95312 20.3831L5.22656 19.5237L4.5 19.0002H5.39844L5.66406 18.1565ZM10.7344 18.1565L11.0078 19.0081H11.9062L11.1797 19.5315L11.4609 20.3831L10.7344 19.8596L10.0078 20.3831L10.2891 19.5237L9.5625 19.0002H10.4531L10.7344 18.1565ZM15.7969 18.1565L16.0781 19.0081H16.9688L16.25 19.5315L16.5234 20.3831L15.7969 19.8596L15.0781 20.3831L15.3516 19.5237L14.6328 19.0002H15.5234L15.7969 18.1565ZM20.8672 18.1565L21.1406 19.0081H22.0391L21.3125 19.5315L21.5938 20.3831L20.8672 19.8596L20.1406 20.3831L20.4219 19.5237L19.6953 19.0002H20.5938L20.8672 18.1565Z" fill="white"/>
</g>
</g>
<defs>
<clipPath id="clip0_769_24140">
<path d="M0 20C0 8.95431 8.95431 0 20 0C31.0457 0 40 8.95431 40 20C40 31.0457 31.0457 40 20 40C8.95431 40 0 31.0457 0 20Z" fill="white"/>
</clipPath>
<clipPath id="clip1_769_24140">
<rect width="53.3333" height="40" fill="white" transform="translate(-7 0.000244141)"/>
</clipPath>
</defs>
</svg>
