<svg width="40" height="40" viewBox="0 0 40 40" fill="none" xmlns="http://www.w3.org/2000/svg">
<g clip-path="url(#clip0_769_17666)">
<path d="M0 20C0 8.95431 8.95431 0 20 0C31.0457 0 40 8.95431 40 20C40 31.0457 31.0457 40 20 40C8.95431 40 0 31.0457 0 20Z" fill="#E94E0F"/>
<g clip-path="url(#clip1_769_17666)">
<path d="M-7 -6.10352e-05H46.3333V39.9999H-7V-6.10352e-05Z" fill="#012169"/>
<path d="M-0.75 -6.10352e-05L19.5833 15.0833L39.8333 -6.10352e-05H46.3333V5.16661L26.3333 20.0833L46.3333 34.9166V39.9999H39.6667L19.6667 25.0833L-0.25 39.9999H-7V34.9999L12.9167 20.1666L-7 5.33327V-6.10352e-05H-0.75Z" fill="white"/>
<path d="M28.3333 23.4166L46.3333 36.6666V39.9999L23.75 23.4166H28.3333ZM13 25.0833L13.5 27.9999L-2.5 39.9999H-7L13 25.0833ZM46.3333 -6.10352e-05V0.249939L25.5833 15.9166L25.75 12.2499L42.1667 -6.10352e-05H46.3333ZM-7 -6.10352e-05L12.9167 14.6666H7.91667L-7 3.49994V-6.10352e-05Z" fill="#C8102E"/>
<path d="M13.0833 -6.10352e-05V39.9999H26.4167V-6.10352e-05H13.0833ZM-7 13.3333V26.6666H46.3333V13.3333H-7Z" fill="white"/>
<path d="M-7 16.0833V24.0833H46.3333V16.0833H-7ZM15.75 -6.10352e-05V39.9999H23.75V-6.10352e-05H15.75Z" fill="#C8102E"/>
</g>
</g>
<defs>
<clipPath id="clip0_769_17666">
<path d="M0 20C0 8.95431 8.95431 0 20 0C31.0457 0 40 8.95431 40 20C40 31.0457 31.0457 40 20 40C8.95431 40 0 31.0457 0 20Z" fill="white"/>
</clipPath>
<clipPath id="clip1_769_17666">
<rect width="53.3333" height="40" fill="white" transform="translate(-7 -6.10352e-05)"/>
</clipPath>
</defs>
</svg>
