<svg width="40" height="40" viewBox="0 0 40 40" fill="none" xmlns="http://www.w3.org/2000/svg">
<g clip-path="url(#clip0_769_24151)">
<path d="M0 20C0 8.95431 8.95431 0 20 0C31.0457 0 40 8.95431 40 20C40 31.0457 31.0457 40 20 40C8.95431 40 0 31.0457 0 20Z" fill="#E94E0F"/>
<g clip-path="url(#clip1_769_24151)">
<path d="M0 0.000244141H53.3333V40.0002H0V0.000244141Z" fill="white"/>
<path d="M22.1667 4.44186H53.3333V8.89186H22.1667V4.44186ZM22.1667 13.3335H53.3333V17.7752H22.1667V13.3335ZM0 22.2252H53.3333V26.6669H0V22.2252ZM0 31.1085H53.3333V35.5585H0V31.1085Z" fill="#0038A8"/>
<path d="M10.6082 13.2834L11.3416 14.3834C8.31657 16.5751 10.1666 17.8668 8.0249 18.5668C9.35824 17.2668 7.81657 17.1584 8.94157 14.4501" fill="#FCD116"/>
<path d="M10.6082 13.2834L11.3416 14.3834C8.31657 16.5751 10.1666 17.8668 8.0249 18.5668C9.35824 17.2668 7.81657 17.1584 8.94157 14.4501" stroke="black" stroke-width="0.146667" stroke-miterlimit="58.6666" stroke-linecap="square"/>
<path d="M10.0832 13.592C8.41657 16.342 9.50824 17.8503 8.0249 18.5587" stroke="black" stroke-width="0.146667" stroke-miterlimit="58.6666"/>
<path d="M11.1085 11.1084H12.5752L11.1085 19.1751L9.64185 11.1084H11.1085V19.1751V11.1084Z" fill="#FCD116"/>
<path d="M11.1085 11.1084H12.5752L11.1085 19.1751L9.64185 11.1084H11.1085ZM11.1085 11.1084V19.1751" stroke="black" stroke-width="0.146667" stroke-miterlimit="58.6666"/>
<path d="M9.21654 12.2919L8.9582 13.5919C5.27487 13.0002 5.66654 15.2169 3.6582 14.2002C5.51654 14.2252 4.5082 13.0586 7.21654 11.9336" fill="#FCD116"/>
<path d="M9.21654 12.2919L8.9582 13.5919C5.27487 13.0002 5.66654 15.2169 3.6582 14.2002C5.51654 14.2252 4.5082 13.0586 7.21654 11.9336" stroke="black" stroke-width="0.146667" stroke-miterlimit="58.6666" stroke-linecap="square"/>
<path d="M8.62487 12.1336C5.49987 12.9002 5.2082 14.7419 3.6582 14.1919" stroke="black" stroke-width="0.146667" stroke-miterlimit="58.6666"/>
<path d="M11.1082 11.1085L12.1416 12.1419L5.3999 16.8085L10.0666 10.0669L11.1082 11.1085L5.40824 16.8085L11.1082 11.1085Z" fill="#FCD116"/>
<path d="M11.1082 11.1085L12.1416 12.1419L5.3999 16.8085L10.0666 10.0669L11.1082 11.1085ZM11.1082 11.1085L5.40824 16.8085" stroke="black" stroke-width="0.146667" stroke-miterlimit="58.6666"/>
<path d="M8.9332 10.6087L7.8332 11.342C5.64987 8.31702 4.3582 10.167 3.6582 8.02535C4.9582 9.35869 5.06654 7.81702 7.77487 8.94202" fill="#FCD116"/>
<path d="M8.9332 10.6087L7.8332 11.342C5.64987 8.31702 4.3582 10.167 3.6582 8.02535C4.9582 9.35869 5.06654 7.81702 7.77487 8.94202" stroke="black" stroke-width="0.146667" stroke-miterlimit="58.6666" stroke-linecap="square"/>
<path d="M8.62487 10.0837C5.87487 8.41702 4.36654 9.50869 3.6582 8.02535" stroke="black" stroke-width="0.146667" stroke-miterlimit="58.6666"/>
<path d="M11.1084 11.1085V12.5752L3.04175 11.1085L11.1084 9.64187V11.1085H3.04175H11.1084Z" fill="#FCD116"/>
<path d="M11.1084 11.1085V12.5752L3.04175 11.1085L11.1084 9.64187V11.1085ZM11.1084 11.1085H3.04175" stroke="black" stroke-width="0.146667" stroke-miterlimit="58.6666"/>
<path d="M9.92495 9.21685L8.62495 8.95852C9.22495 5.27518 6.99995 5.66685 8.02495 3.65852C7.99995 5.51685 9.16662 4.50852 10.2916 7.21685" fill="#FCD116"/>
<path d="M9.92495 9.21685L8.62495 8.95852C9.22495 5.27518 6.99995 5.66685 8.02495 3.65852C7.99995 5.51685 9.16662 4.50852 10.2916 7.21685" stroke="black" stroke-width="0.146667" stroke-miterlimit="58.6666" stroke-linecap="square"/>
<path d="M10.0833 8.62518C9.31667 5.50018 7.475 5.20852 8.025 3.65852" stroke="black" stroke-width="0.146667" stroke-miterlimit="58.6666"/>
<path d="M11.1082 11.1087L10.0749 12.142L5.4082 5.40038L12.1499 10.067L11.1082 11.1087L5.4082 5.40871L11.1082 11.1087Z" fill="#FCD116"/>
<path d="M11.1082 11.1087L10.0749 12.142L5.4082 5.40038L12.1499 10.067L11.1082 11.1087ZM11.1082 11.1087L5.4082 5.40871" stroke="black" stroke-width="0.146667" stroke-miterlimit="58.6666"/>
<path d="M11.6083 8.93369L10.875 7.83369C13.9 5.64203 12.05 4.35036 14.1917 3.65036C12.8583 4.95036 14.4 5.05869 13.275 7.76703" fill="#FCD116"/>
<path d="M11.6083 8.93369L10.875 7.83369C13.9 5.64203 12.05 4.35036 14.1917 3.65036C12.8583 4.95036 14.4 5.05869 13.275 7.76703" stroke="black" stroke-width="0.146667" stroke-miterlimit="58.6666" stroke-linecap="square"/>
<path d="M12.1331 8.62518C13.7997 5.87518 12.7081 4.36685 14.1914 3.65852" stroke="black" stroke-width="0.146667" stroke-miterlimit="58.6666"/>
<path d="M11.1085 11.1085H9.64185L11.1085 3.0418L12.5752 11.1085H11.1085V3.0418V11.1085Z" fill="#FCD116"/>
<path d="M11.1085 11.1085H9.64185L11.1085 3.0418L12.5752 11.1085H11.1085ZM11.1085 11.1085V3.0418" stroke="black" stroke-width="0.146667" stroke-miterlimit="58.6666"/>
<path d="M13.0002 9.92522L13.2586 8.62522C16.9419 9.21688 16.5502 7.00022 18.5586 8.01688C16.7002 8.00022 17.7086 9.16688 15.0002 10.2919" fill="#FCD116"/>
<path d="M13.0002 9.92522L13.2586 8.62522C16.9419 9.21688 16.5502 7.00022 18.5586 8.01688C16.7002 8.00022 17.7086 9.16688 15.0002 10.2919" stroke="black" stroke-width="0.146667" stroke-miterlimit="58.6666" stroke-linecap="square"/>
<path d="M13.5918 10.0836C16.7168 9.31695 17.0085 7.47528 18.5585 8.02528" stroke="black" stroke-width="0.146667" stroke-miterlimit="58.6666"/>
<path d="M11.1083 11.1087L10.075 10.0753L16.8166 5.40866L12.15 12.1503L11.1083 11.1087L16.8083 5.40866L11.1083 11.1087Z" fill="#FCD116"/>
<path d="M11.1083 11.1087L10.075 10.0753L16.8166 5.40866L12.15 12.1503L11.1083 11.1087ZM11.1083 11.1087L16.8083 5.40866" stroke="black" stroke-width="0.146667" stroke-miterlimit="58.6666"/>
<path d="M13.2832 11.6084L14.3832 10.8751C16.5749 13.9001 17.8665 12.0501 18.5665 14.1917C17.2665 12.8584 17.1582 14.4001 14.4499 13.2751" fill="#FCD116"/>
<path d="M13.2832 11.6084L14.3832 10.8751C16.5749 13.9001 17.8665 12.0501 18.5665 14.1917C17.2665 12.8584 17.1582 14.4001 14.4499 13.2751" stroke="black" stroke-width="0.146667" stroke-miterlimit="58.6666" stroke-linecap="square"/>
<path d="M13.5918 12.1336C16.3418 13.8002 17.8501 12.7086 18.5585 14.1919" stroke="black" stroke-width="0.146667" stroke-miterlimit="58.6666"/>
<path d="M11.1084 11.1085V9.64187L19.1751 11.1085L11.1084 12.5752V11.1085H19.1751H11.1084Z" fill="#FCD116"/>
<path d="M11.1084 11.1085V9.64187L19.1751 11.1085L11.1084 12.5752V11.1085ZM11.1084 11.1085H19.1751" stroke="black" stroke-width="0.146667" stroke-miterlimit="58.6666"/>
<path d="M12.2917 13.0003L13.5917 13.2586C13 16.9419 15.2167 16.5503 14.2 18.5586C14.225 16.7003 13.0583 17.7086 11.9333 15.0003" fill="#FCD116"/>
<path d="M12.2917 13.0003L13.5917 13.2586C13 16.9419 15.2167 16.5503 14.2 18.5586C14.225 16.7003 13.0583 17.7086 11.9333 15.0003" stroke="black" stroke-width="0.146667" stroke-miterlimit="58.6666" stroke-linecap="square"/>
<path d="M12.1331 13.592C12.8997 16.717 14.7414 17.0087 14.1914 18.5587" stroke="black" stroke-width="0.146667" stroke-miterlimit="58.6666"/>
<path d="M11.1081 11.1087L12.1414 10.0754L16.8081 16.8171L10.0664 12.1504L11.1081 11.1087L16.8081 16.8087L11.1081 11.1087Z" fill="#FCD116"/>
<path d="M11.1081 11.1087L12.1414 10.0754L16.8081 16.8171L10.0664 12.1504L11.1081 11.1087ZM11.1081 11.1087L16.8081 16.8087" stroke="black" stroke-width="0.146667" stroke-miterlimit="58.6666"/>
<path d="M11.1084 13.8003C12.595 13.8003 13.8001 12.5952 13.8001 11.1086C13.8001 9.62206 12.595 8.41696 11.1084 8.41696C9.62185 8.41696 8.41675 9.62206 8.41675 11.1086C8.41675 12.5952 9.62185 13.8003 11.1084 13.8003Z" fill="#FCD116" stroke="black" stroke-width="0.146667" stroke-miterlimit="58.6666"/>
<path d="M13.0915 10.0336C12.9165 10.2252 12.8248 9.88357 12.2081 9.88357C11.5998 9.88357 11.4998 10.2502 11.3998 10.1752C11.2998 10.1002 11.9165 9.65857 12.1081 9.63357C12.3081 9.61691 12.8665 9.81691 13.0915 10.0336ZM12.3831 10.2502C12.5581 10.4002 12.4081 10.7169 12.2331 10.7169C12.0581 10.7169 11.7415 10.4252 11.8915 10.2252" fill="black"/>
<path d="M11.5752 10.4752C11.6002 10.1835 11.8419 10.1335 12.2335 10.1335C12.6252 10.1335 12.7919 10.4252 12.9419 10.5002C12.7669 10.5002 12.6252 10.2585 12.2335 10.2585C11.8419 10.2585 11.8419 10.2585 11.5752 10.5002V10.4752ZM11.6502 10.5502C11.7502 10.4002 11.8669 10.7002 12.1419 10.7002C12.4085 10.7002 12.5585 10.6252 12.7252 10.5085C12.9002 10.3835 12.4835 10.8002 12.2085 10.8002C11.9419 10.7918 11.5752 10.6418 11.6502 10.5502Z" fill="black"/>
<path d="M12.4748 10.6917C12.7915 10.5167 12.5998 10.2751 12.4748 10.2251C12.5248 10.2751 12.7248 10.5251 12.4748 10.6917ZM11.1082 12.1584C11.2582 12.1584 11.2998 12.1084 11.4998 12.1084C11.6915 12.1084 12.1582 12.3751 12.4248 12.2834C11.8665 12.5001 12.0832 12.3584 11.1082 12.3584H10.9832L11.1082 12.1584ZM12.5248 12.5001C12.4248 12.3251 12.4498 12.3751 12.2582 12.1084C12.4498 12.2584 12.4998 12.3334 12.5248 12.5001ZM11.1082 12.7501C11.7165 12.7501 11.6248 12.6251 12.4248 12.2834C11.8415 12.3584 11.7165 12.5501 11.1082 12.5501H10.9832L11.1082 12.7501ZM11.1082 11.8417C11.2832 11.8417 11.3248 11.7167 11.5248 11.7167C11.7165 11.7167 11.9915 11.7917 12.1082 11.8917C12.1332 11.9167 12.0332 11.7001 11.8415 11.6751C11.6498 11.6501 11.7165 11.3334 11.4998 11.2834C11.4998 11.3834 11.5748 11.3584 11.5998 11.5001C11.5998 11.6251 11.3832 11.6251 11.3332 11.5001C11.3832 11.6917 11.2332 11.6917 11.1165 11.6917" fill="black"/>
<path d="M9.12476 10.0336C9.29976 10.2252 9.39142 9.88357 10.0081 9.88357C10.6248 9.88357 10.7164 10.2502 10.8164 10.1752C10.9164 10.1002 10.2998 9.65857 10.1081 9.63357C9.90809 9.61691 9.34976 9.81691 9.12476 10.0336ZM9.83309 10.2502C9.65809 10.4002 9.80809 10.7169 9.98309 10.7169C10.1581 10.7169 10.4748 10.4252 10.3248 10.2252" fill="black"/>
<path d="M10.6416 10.4752C10.6166 10.1835 10.3749 10.1335 9.98324 10.1335C9.59157 10.1335 9.4249 10.4252 9.2749 10.5002C9.4499 10.5002 9.59157 10.2585 9.98324 10.2585C10.3749 10.2585 10.3749 10.2585 10.6416 10.5002V10.4752ZM10.5666 10.5502C10.4666 10.4002 10.3499 10.7002 10.0749 10.7002C9.7999 10.7002 9.65824 10.6252 9.49157 10.5085C9.31657 10.3835 9.73324 10.8002 10.0082 10.8002C10.2832 10.8002 10.6416 10.6418 10.5666 10.5502Z" fill="black"/>
<path d="M9.74166 10.6917C9.42499 10.5167 9.61666 10.2751 9.74166 10.2251C9.69166 10.2751 9.49166 10.5251 9.74166 10.6917ZM11.1083 12.1584C10.9583 12.1584 10.9167 12.1084 10.7167 12.1084C10.525 12.1084 10.0583 12.3751 9.79166 12.2834C10.35 12.5001 10.1333 12.3584 11.1083 12.3584H11.2333L11.1083 12.1584ZM9.69166 12.5001C9.79166 12.3251 9.76666 12.3751 9.95832 12.1084C9.76666 12.2584 9.71666 12.3334 9.69166 12.5001ZM11.1083 12.7501C10.5 12.7501 10.5917 12.6251 9.79166 12.2834C10.375 12.3584 10.5 12.5501 11.1083 12.5501H11.2333L11.1083 12.7501ZM11.1083 11.8417C10.9333 11.8417 10.8917 11.7167 10.6917 11.7167C10.5 11.7167 10.225 11.7917 10.1083 11.8917C10.0833 11.9167 10.1833 11.7001 10.375 11.6751C10.5667 11.6501 10.5 11.3334 10.7167 11.2834C10.7167 11.3834 10.6417 11.3584 10.6167 11.5001C10.6167 11.6251 10.8333 11.6251 10.8833 11.5001C10.8333 11.6917 10.9833 11.6917 11.1 11.6917" fill="black"/>
<path d="M11.1082 12.967C10.9832 12.967 10.6666 13.042 11.1082 13.042C11.5499 13.042 11.2332 12.967 11.1082 12.967Z" fill="black"/>
</g>
</g>
<defs>
<clipPath id="clip0_769_24151">
<path d="M0 20C0 8.95431 8.95431 0 20 0C31.0457 0 40 8.95431 40 20C40 31.0457 31.0457 40 20 40C8.95431 40 0 31.0457 0 20Z" fill="white"/>
</clipPath>
<clipPath id="clip1_769_24151">
<rect width="53.3333" height="40" fill="white" transform="translate(0 0.000244141)"/>
</clipPath>
</defs>
</svg>
