<svg width="40" height="40" viewBox="0 0 40 40" fill="none" xmlns="http://www.w3.org/2000/svg">
<g clip-path="url(#clip0_769_24190)">
<path d="M0 20C0 8.95431 8.95431 0 20 0C31.0457 0 40 8.95431 40 20C40 31.0457 31.0457 40 20 40C8.95431 40 0 31.0457 0 20Z" fill="#E94E0F"/>
<g clip-path="url(#clip1_769_24190)">
<path d="M0 27.0001H53.9999V40.5001H0V27.0001Z" fill="#1EB53A"/>
<path d="M0 0.000244141H53.9999V13.5002H0V0.000244141Z" fill="#0099B5"/>
<path d="M0 12.9603H53.9999V27.5403H0V12.9603Z" fill="#CE1126"/>
<path d="M0 13.7703H53.9999V26.7302H0V13.7703Z" fill="white"/>
<path d="M11.3402 11.3403C14.0243 11.3403 16.2002 9.16441 16.2002 6.48031C16.2002 3.79621 14.0243 1.62032 11.3402 1.62032C8.65612 1.62032 6.48022 3.79621 6.48022 6.48031C6.48022 9.16441 8.65612 11.3403 11.3402 11.3403Z" fill="white"/>
<path d="M12.9601 11.3403C15.6442 11.3403 17.8201 9.16441 17.8201 6.48031C17.8201 3.79621 15.6442 1.62032 12.9601 1.62032C10.276 1.62032 8.1001 3.79621 8.1001 6.48031C8.1001 9.16441 10.276 11.3403 12.9601 11.3403Z" fill="#0099B5"/>
<path d="M22.2495 10.0661L22.0302 9.39957L21.8108 10.0661H21.1021L21.6674 10.488L21.4564 11.1546L22.0302 10.7496L22.6039 11.1546L22.393 10.488L22.9583 10.0661H22.2495Z" fill="white"/>
<path d="M22.0302 5.50986L21.8108 6.17642L21.1021 6.18486L21.6674 6.59829L21.4564 7.26485L22.0302 6.85986L22.6039 7.26485L22.393 6.59829L22.9583 6.18486L22.2495 6.17642L22.0302 5.50986Z" fill="white"/>
<path d="M22.0302 1.62032L21.8108 2.28688L21.1021 2.29531L21.6674 2.70875L21.4564 3.38375L22.0302 2.97031L22.6039 3.38375L22.393 2.70875L22.9583 2.29531L22.2495 2.28688L22.0302 1.62032Z" fill="white"/>
<path d="M26.1394 10.0661L25.9201 9.39957L25.6923 10.0661H24.9919L25.5573 10.488L25.3463 11.1546L25.9201 10.7496L26.4938 11.1546L26.2744 10.488L26.8398 10.0661H26.1394Z" fill="white"/>
<path d="M25.9201 5.50986L25.6923 6.17642L24.9919 6.18486L25.5573 6.59829L25.3463 7.26485L25.9201 6.85986L26.4938 7.26485L26.2744 6.59829L26.8398 6.18486L26.1394 6.17642L25.9201 5.50986Z" fill="white"/>
<path d="M25.9201 1.62032L25.6923 2.28688L24.9919 2.29531L25.5573 2.70875L25.3463 3.38375L25.9201 2.97031L26.4938 3.38375L26.2744 2.70875L26.8398 2.29531L26.1394 2.28688L25.9201 1.62032Z" fill="white"/>
<path d="M30.0291 10.0661L29.8097 9.39957L29.5819 10.0661H28.8816L29.4469 10.488L29.236 11.1546L29.8097 10.7496L30.375 11.1546L30.1641 10.488L30.7294 10.0661H30.0291Z" fill="white"/>
<path d="M29.8097 5.50986L29.5819 6.17642L28.8816 6.18486L29.4469 6.59829L29.236 7.26485L29.8097 6.85986L30.375 7.26485L30.1641 6.59829L30.7294 6.18486L30.0291 6.17642L29.8097 5.50986Z" fill="white"/>
<path d="M29.4469 2.70875L29.236 3.38375L29.8097 2.97031L30.375 3.38375L30.1641 2.70875L30.7294 2.29531L30.0291 2.28688L29.8097 1.62032L29.5819 2.28688L28.8816 2.29531L29.4469 2.70875Z" fill="white"/>
<path d="M14.479 10.0661L14.2512 9.39957L14.0319 10.0661H13.3315L13.8969 10.488L13.6859 11.1546L14.2512 10.7496L14.825 11.1546L14.614 10.488L15.1794 10.0661H14.479Z" fill="white"/>
<path d="M18.3682 10.0661L18.1404 9.39957L17.921 10.0661H17.2207L17.786 10.488L17.5666 11.1546L18.1404 10.7496L18.7141 11.1546L18.5032 10.488L19.0685 10.0661H18.3682Z" fill="white"/>
<path d="M18.1404 5.50986L17.921 6.17642L17.2207 6.18486L17.786 6.59829L17.5666 7.26485L18.1404 6.85986L18.7141 7.26485L18.5032 6.59829L19.0685 6.18486L18.3682 6.17642L18.1404 5.50986Z" fill="white"/>
</g>
</g>
<defs>
<clipPath id="clip0_769_24190">
<path d="M0 20C0 8.95431 8.95431 0 20 0C31.0457 0 40 8.95431 40 20C40 31.0457 31.0457 40 20 40C8.95431 40 0 31.0457 0 20Z" fill="white"/>
</clipPath>
<clipPath id="clip1_769_24190">
<rect width="53.9999" height="40.4999" fill="white" transform="translate(0 0.000244141)"/>
</clipPath>
</defs>
</svg>
