<svg width="40" height="40" viewBox="0 0 40 40" fill="none" xmlns="http://www.w3.org/2000/svg">
<g clip-path="url(#clip0_769_24923)">
<path d="M0 20C0 8.95431 8.95431 0 20 0C31.0457 0 40 8.95431 40 20C40 31.0457 31.0457 40 20 40C8.95431 40 0 31.0457 0 20Z" fill="#E94E0F"/>
<g clip-path="url(#clip1_769_24923)">
<path fill-rule="evenodd" clip-rule="evenodd" d="M0 0.000732422L27.1406 17.1414H60V22.8601H27.1406L0 40.0007V0.000732422Z" fill="black"/>
<path fill-rule="evenodd" clip-rule="evenodd" d="M0 38.571L27.7109 20.8601H60V19.1414H27.7109L0 1.43042V4.00073L26 20.0007L0 36.0007V38.571Z" fill="#FFFF00"/>
<path fill-rule="evenodd" clip-rule="evenodd" d="M0 40.0007L27.7109 22.2898H60V40.0007H0Z" fill="#40AA40"/>
<path fill-rule="evenodd" clip-rule="evenodd" d="M0 0.000732422L27.7109 17.7117H60V0.000732422H0Z" fill="#CE0000"/>
<path fill-rule="evenodd" clip-rule="evenodd" d="M7.48438 20.8289C7.57813 20.8523 7.60938 20.8757 7.70313 20.7429C7.71875 20.6648 7.78125 20.5711 7.83594 20.4851C7.89844 20.3679 7.92969 20.3289 7.99219 20.407C8.03906 20.4617 8.21094 20.3679 8.27344 20.4148C8.38281 20.4929 8.32031 20.4773 8.40625 20.3992C8.47656 20.2586 8.41406 20.2742 8.32813 20.2117C8.25 20.1648 8.08594 20.2586 8.01563 20.2117C8.03906 20.0711 8.08594 20.0554 8.17188 20.0242C8.23438 20.0632 8.41406 19.9929 8.46875 19.9929C8.54688 20.0086 8.625 20.0164 8.64844 19.8992C8.6875 19.8211 8.67188 19.8757 8.63281 19.8211C8.57031 19.7664 8.39844 19.8601 8.32813 19.8211C8.25 19.7507 8.25781 19.7273 8.3125 19.6179C8.375 19.5789 8.42969 19.5945 8.51563 19.6492C8.59375 19.7117 8.73438 19.5945 8.8125 19.5867C8.88281 19.5086 8.96094 19.4851 8.90625 19.3914C8.88281 19.3132 8.85938 19.3132 8.76562 19.2898C8.67188 19.2273 8.54688 19.3445 8.50781 19.2507C8.58594 19.1414 8.60938 19.1648 8.70313 19.2273C8.76563 19.2429 8.9375 19.1414 9 19.1336C9.08594 19.1101 9.04688 19.2117 9.10938 18.9929C9.08594 18.8992 8.92969 19.0476 8.84375 19.0242C8.76562 19.0398 8.6875 19.0086 8.6875 18.9148C8.6875 18.7976 8.75 18.7898 8.83594 18.8054C8.91406 18.8211 9.07813 18.7273 9.14844 18.7273C9.22656 18.7742 9.26563 18.7586 9.33594 18.6492C9.38281 18.5164 9.32812 18.5711 9.23438 18.4929C9.17188 18.4539 9 18.5476 8.92969 18.5007C8.94531 18.4539 8.96875 18.3914 9.00781 18.3679C9.07813 18.3836 9.13281 18.3836 9.21875 18.4304C9.29688 18.4695 9.4375 18.3132 9.50781 18.2586C9.49219 18.1804 9.35156 18.2898 9.27344 18.2351C9.22656 18.1961 9.15625 18.157 9.14063 18.1179C9.1875 17.9851 9.16406 17.9929 9.29688 18.0398C9.35938 18.0164 9.47656 18.0164 9.39844 17.8914C9.38281 17.8757 9.32031 17.8757 9.25781 17.8523C9.1875 17.8054 9.125 17.7507 9.04688 17.7351C8.99219 17.7273 8.91406 17.7039 8.875 17.7195C8.875 17.7976 8.89062 17.8445 8.88281 17.9382C8.92188 17.9929 8.98438 17.9929 9 18.0164C8.92969 18.0789 8.89063 18.0476 8.82031 18.0476C8.72656 17.9929 8.78125 17.8054 8.67188 17.8445C8.69531 17.8992 8.6875 18.1101 8.73438 18.157C8.78125 18.1882 8.84375 18.2195 8.85156 18.2586C8.77344 18.3757 8.75 18.3679 8.65625 18.3132C8.57813 18.2664 8.60938 18.0945 8.53906 18.1023C8.46094 18.1648 8.46094 18.157 8.47656 18.2429C8.47656 18.3523 8.4375 18.5086 8.53125 18.5711C8.63281 18.6492 8.64844 18.6336 8.5625 18.782C8.50781 18.8523 8.47656 18.8367 8.40625 18.8054C8.33594 18.7586 8.35156 18.5711 8.29688 18.5164C8.1875 18.4539 8.25 18.4539 8.16406 18.532C8.14063 18.6336 8.16406 18.657 8.20313 18.7429C8.23438 18.7976 8.23438 18.9773 8.29688 18.9929C8.39062 19.0476 8.39844 19.0398 8.28125 19.1492C8.20313 19.1492 8.15625 19.1726 8.09375 19.0945C8.01563 19.032 8.0625 18.8445 7.96094 18.8445C7.86719 18.8523 7.84375 18.8523 7.85156 18.9851C7.875 19.1023 7.82813 19.282 7.92188 19.3523C8.00781 19.3914 8.0625 19.3836 8.09375 19.4382C8.0625 19.4617 8.01562 19.5398 7.98438 19.5554C7.92188 19.5554 7.85938 19.5164 7.78906 19.5007C7.71094 19.4617 7.75 19.3914 7.67969 19.3445C7.60156 19.3679 7.60156 19.2664 7.5625 19.3679C7.57813 19.4617 7.54688 19.5711 7.64063 19.6336C7.70313 19.6726 7.75781 19.7664 7.82812 19.8132C7.90625 19.907 7.875 19.9226 7.82812 20.0476C7.75781 20.0554 7.6875 20.0086 7.61719 19.9695C7.54688 19.9148 7.5625 19.7351 7.49219 19.6961C7.4375 19.6336 7.45312 19.5867 7.35938 19.7117C7.35938 19.7898 7.36719 19.8054 7.39063 19.8679C7.39063 19.9461 7.375 20.1179 7.45313 20.1726C7.53125 20.1882 7.625 20.2273 7.6875 20.2507C7.75 20.3289 7.69531 20.3132 7.625 20.4226C7.58594 20.532 7.58594 20.5554 7.51562 20.6101C7.45312 20.6882 7.4375 20.7273 7.48438 20.8289Z" fill="#FFFF00"/>
<path fill-rule="evenodd" clip-rule="evenodd" d="M9.45312 20.9304C9.50781 20.8367 9.53906 20.821 9.45312 20.6648C9.39062 20.6101 9.32812 20.5085 9.26562 20.4226C9.1875 20.2976 9.16406 20.2507 9.26562 20.2117C9.32812 20.1882 9.3125 19.9773 9.38281 19.9226C9.49219 19.8367 9.46094 19.8992 9.42188 19.7742C9.3125 19.6414 9.30469 19.7117 9.21094 19.7898C9.13281 19.8445 9.15625 20.0632 9.09375 20.1179C8.96875 20.0398 8.96875 19.9773 8.97656 19.8835C9.04688 19.8289 9.04687 19.6023 9.07031 19.5476C9.11719 19.4695 9.14844 19.3914 9.05469 19.321C8.99219 19.2429 9.03906 19.2898 8.97656 19.2976C8.89844 19.3523 8.92188 19.571 8.85156 19.6257C8.75781 19.6882 8.74219 19.6648 8.66406 19.5632C8.65625 19.4851 8.6875 19.4304 8.77344 19.3601C8.85938 19.2976 8.8125 19.1023 8.83594 19.0242C8.78906 18.9148 8.79688 18.821 8.69531 18.8367C8.61719 18.8367 8.60156 18.8601 8.53906 18.9539C8.44531 19.032 8.50781 19.2039 8.39844 19.2039C8.32812 19.0789 8.36719 19.0632 8.46094 18.9851C8.5 18.9304 8.47656 18.696 8.49219 18.6335C8.50781 18.5398 8.57031 18.6179 8.40625 18.4773C8.3125 18.4539 8.39062 18.6804 8.32812 18.7585C8.30469 18.8523 8.25 18.9148 8.17187 18.8835C8.05469 18.8367 8.07812 18.7663 8.125 18.6882C8.17188 18.6101 8.14844 18.3914 8.17969 18.321C8.25781 18.2429 8.25781 18.2117 8.17969 18.0867C8.07812 17.9773 8.10156 18.0632 8.00781 18.1335C7.92969 18.1882 7.95313 18.407 7.88281 18.4617C7.84375 18.4226 7.80469 18.3835 7.79688 18.321C7.83594 18.2585 7.85156 18.196 7.9375 18.1257C8 18.0554 7.90625 17.8523 7.89062 17.7507C7.8125 17.7351 7.85938 17.9226 7.77344 17.9851C7.71875 18.0242 7.66406 18.0788 7.61719 18.0788C7.51562 17.9773 7.50781 18.0007 7.60156 17.8835C7.60938 17.8054 7.65625 17.6882 7.50781 17.7273C7.48437 17.7273 7.46875 17.8054 7.42188 17.8523C7.34375 17.907 7.27344 17.9538 7.22656 18.0242C7.19531 18.0788 7.14844 18.157 7.14844 18.2039C7.21094 18.2429 7.26562 18.2429 7.35156 18.282C7.41406 18.2664 7.44531 18.2038 7.46875 18.196C7.49219 18.2898 7.45312 18.321 7.42969 18.3992C7.33594 18.4773 7.17969 18.3445 7.17969 18.4773C7.24219 18.4695 7.42969 18.5554 7.49219 18.532C7.53906 18.4929 7.59375 18.4382 7.63281 18.4538C7.71094 18.571 7.69531 18.6023 7.60938 18.6726C7.53125 18.7351 7.375 18.6414 7.36719 18.7117C7.39063 18.821 7.38281 18.821 7.46875 18.8367C7.57031 18.8757 7.69531 18.9851 7.78125 18.9148C7.89844 18.8367 7.89844 18.8132 7.99219 18.9617C8.03906 19.0476 8.01563 19.0788 7.95313 19.1335C7.88281 19.196 7.71875 19.1023 7.64063 19.1335C7.54688 19.2273 7.57031 19.1648 7.60938 19.2898C7.6875 19.3523 7.71875 19.3445 7.82031 19.3288C7.88281 19.3132 8.05469 19.3913 8.08594 19.3288C8.17188 19.2507 8.16406 19.2429 8.21875 19.407C8.1875 19.5007 8.19531 19.5476 8.09375 19.5867C8.00781 19.6492 7.85938 19.5164 7.8125 19.6257C7.78125 19.7351 7.77344 19.7585 7.89844 19.7976C8.01562 19.821 8.16406 19.9382 8.26563 19.8757C8.33594 19.7976 8.34375 19.7351 8.41406 19.7195C8.42187 19.7663 8.46875 19.8445 8.46875 19.8835C8.45313 19.9539 8.39063 20.0007 8.34375 20.071C8.28125 20.1413 8.22656 20.071 8.16406 20.1257C8.15625 20.2117 8.05469 20.1726 8.14062 20.2585C8.21875 20.2742 8.32031 20.3523 8.40625 20.2898C8.47656 20.2351 8.58594 20.2117 8.64844 20.157C8.76562 20.1101 8.76562 20.157 8.86719 20.2507C8.84375 20.3289 8.77344 20.3835 8.71094 20.4382C8.63281 20.4929 8.47656 20.407 8.40625 20.4617C8.32812 20.5007 8.29687 20.4617 8.36719 20.6101C8.44531 20.6492 8.46094 20.6335 8.52344 20.6335C8.60156 20.6726 8.74219 20.7585 8.82812 20.696C8.875 20.6179 8.95312 20.5398 9 20.4773C9.08594 20.446 9.05469 20.4929 9.125 20.6101C9.21094 20.7038 9.23438 20.7117 9.25781 20.8054C9.30469 20.8992 9.33594 20.9382 9.44531 20.9226L9.45312 20.9304Z" fill="#FFFF00"/>
<path fill-rule="evenodd" clip-rule="evenodd" d="M7.65625 24.571C7.65625 24.157 7.59375 23.7429 7.65625 23.7429C11.3125 23.7429 12.2266 21.2429 12.2266 19.5867C12.2266 17.9304 10.9609 16.2507 8.57031 16.2507C5.83594 16.2507 4.91406 17.8757 4.91406 19.5789C4.90703 20.3245 5.18843 21.044 5.69944 21.5871C6.21045 22.1301 6.91156 22.4547 7.65625 22.4929C9.48438 22.4929 9.94531 22.0789 11.3125 20.4148C10.8594 22.4929 8.57812 23.321 7.65625 23.321C5.82812 23.321 4 22.071 4 19.5867C4 17.5085 5.36719 15.4304 8.57031 15.4304C11.3125 15.4304 13.1406 17.5085 13.1406 19.5867C13.1406 22.4929 10.8594 24.571 7.65625 24.571Z" fill="#FFFF00"/>
</g>
</g>
<defs>
<clipPath id="clip0_769_24923">
<path d="M0 20C0 8.95431 8.95431 0 20 0C31.0457 0 40 8.95431 40 20C40 31.0457 31.0457 40 20 40C8.95431 40 0 31.0457 0 20Z" fill="white"/>
</clipPath>
<clipPath id="clip1_769_24923">
<rect width="53.3333" height="40" fill="white" transform="translate(0 0.000732422)"/>
</clipPath>
</defs>
</svg>
