<svg width="40" height="40" viewBox="0 0 40 40" fill="none" xmlns="http://www.w3.org/2000/svg">
<g clip-path="url(#clip0_769_24691)">
<path d="M0 20C0 8.95431 8.95431 0 20 0C31.0457 0 40 8.95431 40 20C40 31.0457 31.0457 40 20 40C8.95431 40 0 31.0457 0 20Z" fill="#E94E0F"/>
<g clip-path="url(#clip1_769_24691)">
<path d="M-6 0.000732422H47V39.7507H-6V0.000732422Z" fill="#CF142B"/>
<path d="M-6 0.000732422H47V26.5007H-6V0.000732422Z" fill="#00247D"/>
<path d="M-6 0.000732422H47V13.2507H-6V0.000732422Z" fill="#FFCC00"/>
<path d="M23.0175 15.6523L22.8601 14.4515L22.297 15.5281L21.1045 15.3045L21.9575 16.1657L21.3778 17.234L22.4626 16.6874L23.299 17.5735L23.1168 16.3728L24.21 15.851L23.0175 15.6523Z" fill="white"/>
<path d="M26.8766 17.9545L28.0856 17.8468L27.0256 17.2506L27.2906 16.0664L26.3962 16.8862L25.3528 16.2651L25.858 17.3665L24.947 18.1698L26.1561 18.029L26.6364 19.147L26.8766 17.9545Z" fill="white"/>
<path d="M29.8662 20.7288L31.0421 21.0352L30.2471 20.1159L30.9013 19.0974L29.7834 19.5611L29.0132 18.6253L29.1126 19.8344L27.9863 20.2733L29.1623 20.5549L29.2368 21.7639L29.8662 20.7288Z" fill="white"/>
<path d="M32.3008 23.917L33.2614 23.1799L32.0523 23.2379L31.6465 22.0951L31.3236 23.2627L30.1145 23.2876L31.1248 23.9584L30.777 25.1177L31.7293 24.3641L32.7231 25.0515L32.3008 23.917Z" fill="white"/>
<path d="M9.67658 23.2627L9.35361 22.0951L8.94783 23.2379L7.73877 23.1799L8.6994 23.917L8.27705 25.0515L9.2708 24.3641L10.2231 25.1177L9.87533 23.9584L10.8856 23.2876L9.67658 23.2627Z" fill="white"/>
<path d="M11.8875 19.8344L11.9869 18.6253L11.2168 19.5611L10.0988 19.0974L10.753 20.1159L9.95801 21.0352L11.1339 20.7288L11.7633 21.7639L11.8379 20.5549L13.0138 20.2733L11.8875 19.8344Z" fill="white"/>
<path d="M15.1422 17.3665L15.6474 16.2651L14.6039 16.8862L13.7096 16.0664L13.9746 17.2506L12.9146 17.8468L14.1236 17.9545L14.3638 19.147L14.8441 18.029L16.0531 18.1698L15.1422 17.3665Z" fill="white"/>
<path d="M19.0425 16.1657L19.8955 15.3045L18.703 15.5281L18.1399 14.4515L17.9825 15.6523L16.79 15.851L17.8832 16.3728L17.701 17.5735L18.5374 16.6874L19.6222 17.234L19.0425 16.1657Z" fill="white"/>
</g>
</g>
<defs>
<clipPath id="clip0_769_24691">
<path d="M0 20C0 8.95431 8.95431 0 20 0C31.0457 0 40 8.95431 40 20C40 31.0457 31.0457 40 20 40C8.95431 40 0 31.0457 0 20Z" fill="white"/>
</clipPath>
<clipPath id="clip1_769_24691">
<rect width="53" height="39.75" fill="white" transform="translate(-6 0.000732422)"/>
</clipPath>
</defs>
</svg>
