<svg width="40" height="40" viewBox="0 0 40 40" fill="none" xmlns="http://www.w3.org/2000/svg">
<g clip-path="url(#clip0_769_24915)">
<path d="M0 20C0 8.95431 8.95431 0 20 0C31.0457 0 40 8.95431 40 20C40 31.0457 31.0457 40 20 40C8.95431 40 0 31.0457 0 20Z" fill="#E94E0F"/>
<g clip-path="url(#clip1_769_24915)">
<path fill-rule="evenodd" clip-rule="evenodd" d="M-10.3333 0.000732422H49.6667V40.0007H-10.3333V0.000732422Z" fill="#EC0015"/>
<path fill-rule="evenodd" clip-rule="evenodd" d="M26.9792 29.7664L19.9792 24.5554L13.0261 29.8132L15.6042 21.2507L8.65112 15.9617L17.2527 15.8835L19.9246 7.33667L22.6355 15.8601L31.2371 15.8679L24.323 21.2117L26.9714 29.7742L26.9792 29.7664Z" fill="#FFFF00"/>
</g>
</g>
<defs>
<clipPath id="clip0_769_24915">
<path d="M0 20C0 8.95431 8.95431 0 20 0C31.0457 0 40 8.95431 40 20C40 31.0457 31.0457 40 20 40C8.95431 40 0 31.0457 0 20Z" fill="white"/>
</clipPath>
<clipPath id="clip1_769_24915">
<rect width="53.3333" height="40" fill="white" transform="translate(-7 0.000732422)"/>
</clipPath>
</defs>
</svg>
