<svg width="40" height="40" viewBox="0 0 40 40" fill="none" xmlns="http://www.w3.org/2000/svg">
<g clip-path="url(#clip0_769_24882)">
<path d="M0 20C0 8.95431 8.95431 0 20 0C31.0457 0 40 8.95431 40 20C40 31.0457 31.0457 40 20 40C8.95431 40 0 31.0457 0 20Z" fill="#E94E0F"/>
<g clip-path="url(#clip1_769_24882)">
<path d="M-7 0.000732422H46.3333V40.0007H-7V0.000732422Z" fill="white"/>
<path d="M10.0251 26.2507C10.0251 26.2507 9.98348 25.9507 10.5418 25.7424C11.0918 25.5257 11.1418 24.7257 11.0251 24.1924C11.0251 24.1924 10.7418 24.6924 10.3835 24.8674C10.3835 24.8674 9.81681 25.1674 9.78348 25.734C9.78348 25.734 9.78348 25.9424 9.74181 26.109C9.71681 26.1924 9.45848 25.3924 9.94181 24.7924C10.4418 24.184 10.5751 23.684 10.1835 22.709C10.1835 22.709 10.1418 23.2924 9.75848 23.634C9.36681 23.9674 9.31681 24.0007 9.32515 24.8007C9.32515 24.8007 9.32515 25.084 9.18348 25.1757C9.18348 25.1757 8.88348 24.734 8.80015 24.4424C8.71681 24.1507 8.68348 24.0257 9.03348 23.6924C9.03348 23.6924 10.1335 22.9674 9.34181 21.409C9.34181 21.409 9.31681 21.9424 8.92515 22.259C8.55015 22.584 8.57515 22.7924 8.55848 23.3424C8.54181 23.9007 8.50848 23.859 8.46681 23.9424C8.46681 23.9424 7.75848 22.6424 8.30015 21.959C8.84181 21.2674 9.15015 21.1257 8.55015 19.8424C8.55015 19.8424 8.57515 20.509 8.09181 20.8257C7.61681 21.159 7.72515 21.909 7.72515 21.909C7.72515 21.909 7.75848 22.2007 7.65848 22.409C7.65848 22.409 6.98348 21.084 7.62515 20.3757C8.17515 19.7674 8.20848 19.3424 7.91681 18.4924C7.91681 18.4924 7.88348 18.884 7.58348 19.1007C7.27515 19.3174 7.03348 19.5257 7.09181 20.3507C7.09181 20.3507 7.11681 20.934 7.04181 21.1007C7.04181 21.1007 6.75848 20.5674 6.67515 20.2257C6.59181 19.8757 6.56681 19.6757 6.77515 19.334C6.98348 18.9924 7.81681 18.0007 6.82515 16.584C6.82515 16.584 6.80015 17.0424 6.54181 17.459C6.29181 17.8757 6.40848 18.3674 6.45848 18.7424C6.51681 19.1174 6.33348 19.484 6.33348 19.484C6.33348 19.484 5.90015 18.6924 6.00015 17.784C6.08348 16.8674 5.71681 16.1174 4.87515 15.584C4.87515 15.584 4.26681 17.0007 5.10015 17.7257C5.10015 17.7257 5.80848 18.4257 5.99181 19.2757C5.99181 19.2757 5.45015 19.2257 4.96681 18.2757C4.47515 17.3257 3.46681 17.4757 3.40015 17.4674C3.40015 17.4674 3.56681 18.934 5.11681 19.3507C5.11681 19.3507 6.11681 19.5174 6.30015 20.2507C6.30015 20.2507 6.46681 20.7507 6.53348 21.0174C6.53348 21.0174 6.21681 20.8924 5.92515 20.459C5.63348 20.0424 5.67515 19.984 4.69181 19.884C4.69181 19.884 4.30015 19.8424 4.09181 19.559C4.09181 19.559 4.50848 21.109 5.56681 21.1007C5.56681 21.1007 6.53348 20.9924 7.06681 22.2674L6.82515 22.1007C6.68348 22.009 6.32515 21.8257 5.61681 21.909C4.90848 21.9924 4.70848 21.8757 4.53348 21.8257C4.53348 21.8257 5.25015 23.134 6.25848 22.7424C7.27515 22.3507 7.75848 23.7757 7.77515 23.8007C7.77515 23.8007 7.63348 23.7007 7.45848 23.5257C7.27515 23.3507 6.90848 23.134 6.20848 23.359C6.20848 23.359 5.70015 23.5507 5.18348 23.3924C5.18348 23.3924 5.68348 24.3507 6.83348 24.184C7.45848 24.059 8.08348 24.4257 8.27515 25.034C8.27515 25.034 8.12515 24.9507 8.02515 24.8674C7.91681 24.784 7.52515 24.559 6.69181 24.8007C5.85848 25.0507 5.55848 24.7674 5.55848 24.7674C5.55848 24.7674 6.01681 25.6007 6.90848 25.709C6.90848 25.709 7.40848 25.7007 7.60848 25.6257C7.81681 25.5424 8.37515 25.4174 8.75848 25.9757C8.75848 25.9757 8.65015 25.9924 8.49181 25.9174C8.49181 25.9174 7.90848 25.709 7.45015 26.084C7.45015 26.084 7.05015 26.4924 6.48348 26.4174C6.48348 26.4174 7.21681 27.1257 8.38348 26.5257C8.38348 26.5257 8.77515 26.2424 9.06681 26.459C9.35848 26.684 10.0251 26.2424 10.0251 26.2507Z" fill="#369443" stroke="#010002" stroke-width="0.125" stroke-miterlimit="10"/>
<path d="M16.5165 8.64249C16.5165 8.64249 16.3832 7.43415 17.3498 7.30915C17.8498 7.21749 18.3665 7.25915 18.8498 7.40915L19.3082 8.29249L19.1415 8.89249L18.5248 9.17582C18.5248 9.17582 18.6332 8.25915 17.7915 8.24249C17.5748 8.24249 17.4582 8.32582 17.1165 8.26749C16.7748 8.20915 16.5915 8.58415 16.5165 8.64249Z" fill="#F4C53D" stroke="#010002" stroke-width="0.125" stroke-miterlimit="10"/>
<path d="M23.3168 11.634C23.1668 11.8173 22.5918 11.884 22.5918 11.884C22.5918 11.884 23.1835 12.3423 23.4418 12.9923C23.6918 13.634 16.5751 12.9923 16.5751 12.9923C16.5751 12.9923 16.8918 12.7756 17.1001 12.359C17.1001 12.359 16.7835 12.4756 16.4668 12.159C16.4668 12.159 16.7001 12.2423 17.0085 11.7756C17.0085 11.7756 17.4668 11.1923 17.7918 11.0256C17.7918 11.0256 17.6418 11.1256 17.2835 10.9256C17.2835 10.9256 17.9001 10.8423 18.1168 9.80064C18.1168 9.80064 18.1585 9.56731 18.3918 9.21731C18.6251 8.88398 18.5751 9.29231 19.0085 8.76731C19.0085 8.76731 19.2085 8.40064 19.0335 8.18398C18.8668 7.95064 18.6751 8.03398 18.3168 7.81731C17.9501 7.60064 17.7918 7.48398 17.9168 7.15064C18.0418 6.81731 18.3585 6.86731 18.4085 6.86731C18.4585 6.86731 18.4751 6.57564 18.8668 6.37564C19.2585 6.17564 20.3168 6.26731 20.4668 6.35064C20.6335 6.43398 21.2585 6.62564 21.6335 7.55898C22.0001 8.49231 21.5335 8.84231 22.5335 10.259C22.5335 10.259 22.1335 10.3423 21.8751 10.259C21.8751 10.259 22.4001 11.1923 23.3168 11.634Z" fill="#F4C53D" stroke="#010002" stroke-width="0.125" stroke-miterlimit="10"/>
<path d="M18.9167 7.68395C18.0834 7.64228 18.4084 6.86728 18.4084 6.86728" stroke="#010002" stroke-width="0.125" stroke-miterlimit="10"/>
<path d="M20.3332 7.79233C20.3332 7.79233 20.1915 7.72567 20.0665 7.559C19.8999 7.334 19.5082 7.22567 19.3082 7.44233C19.3082 7.44233 19.0999 7.67567 18.9082 7.69233C18.9082 7.69233 19.1249 7.75067 19.2665 7.884C19.4082 8.01733 19.5582 8.11733 19.7749 8.084C19.9915 8.059 20.0249 7.94233 20.1249 7.87567C20.2332 7.809 20.3332 7.79233 20.3332 7.79233Z" fill="#F4C53D" stroke="#010002" stroke-width="0.125" stroke-miterlimit="10"/>
<path d="M9.89994 28.0423C9.89994 28.0423 9.88327 27.509 10.5499 27.4757L12.5083 30.2007C12.5083 30.2007 12.4333 30.3757 11.5499 30.359C11.5499 30.359 11.4499 30.359 11.3999 30.459C11.3249 30.6257 9.89994 28.0423 9.89994 28.0423Z" fill="#369443" stroke="#010002" stroke-width="0.125" stroke-miterlimit="10"/>
<path d="M12.0582 24.8675C12.0582 24.8675 11.4332 25.9425 10.6749 25.9591C10.6749 25.9591 9.37487 25.8008 9.0082 26.1425C8.74987 26.3758 8.49154 26.5758 8.3832 27.1841C8.27487 27.7925 8.59154 27.9175 8.66654 27.9508C8.66654 27.9508 8.72487 28.3841 9.14987 28.2675C9.14987 28.2675 9.17487 28.7175 9.9332 28.5008C10.6915 28.2841 10.9999 28.3508 11.1499 27.6008C11.2999 26.8508 11.4332 26.8591 11.5665 26.7675C11.7499 26.6425 12.0832 26.5341 12.3415 26.3841C12.5665 26.2508 13.4332 25.8091 13.7332 25.7758C14.0332 25.7425 13.9665 24.7425 13.9665 24.7425H13.1999L12.8332 24.2008L12.0582 24.8675ZM14.4665 19.4758C14.4665 19.4758 13.6999 20.1008 13.0582 19.4758C13.0582 19.4758 12.7999 19.7841 12.2832 19.6925C11.7665 19.6008 11.6832 19.3258 11.6332 19.1758C11.6332 19.1758 11.1832 19.4341 10.8082 19.2258C10.4332 19.0175 10.4332 18.7091 10.4332 18.7091C10.4332 18.7091 9.77487 18.8425 9.4332 18.3925C9.09987 17.9508 9.29987 17.5091 9.4832 17.4508C9.4832 17.4508 8.77487 17.6341 8.57487 17.0258C8.46654 16.7425 8.54987 16.4341 8.7832 16.2341C8.7832 16.2341 7.2832 16.2258 6.66654 15.7591C6.66654 15.7591 6.1582 15.4341 6.4582 15.1008C6.4582 15.1008 5.1082 14.8841 4.77487 14.3508C4.77487 14.3508 4.62487 14.2008 4.67487 13.9425C4.67487 13.9425 4.6832 13.7925 4.8332 13.7841C4.8332 13.7841 3.29154 13.5425 2.84987 13.0425C2.84987 13.0425 2.6332 12.8091 2.74154 12.5008C2.74154 12.5008 2.76654 12.4175 2.79987 12.3591C2.79987 12.3591 1.39987 12.0675 0.708204 11.4425C0.708204 11.4425 0.308203 11.0841 0.516537 10.6091C0.516537 10.6091 -1.82513 9.96745 -1.28346 8.93412C-1.28346 8.93412 -2.37513 8.57579 -2.03346 7.59245C-2.03346 7.59245 -2.9418 7.13412 -2.5418 6.40912C-2.1668 5.70912 -1.00013 6.53412 0.366537 6.90912C0.366537 6.90912 4.0832 8.07579 5.91654 8.39245L11.1165 16.1341L14.1499 17.3008L14.4665 19.4758Z" fill="#F4C53D" stroke="#010002" stroke-width="0.125458" stroke-miterlimit="10"/>
<path d="M14.4999 13.7757C14.4999 13.7757 14.0082 13.409 13.1416 13.8424C13.1416 13.8424 12.8499 14.0424 12.6166 13.8257C12.4332 13.6507 12.4249 13.3507 12.5999 13.1674C12.6249 13.1424 12.6416 13.1257 12.6666 13.109C13.3166 12.6257 13.5582 11.184 12.5666 10.5924C12.5666 10.5924 11.1332 9.74237 5.89156 8.40904C5.89156 8.40904 5.4499 8.28404 5.21657 8.34237C4.98323 8.4007 4.7999 8.58404 4.74156 8.81737C4.74156 8.81737 4.50823 9.48404 5.2999 9.86737C5.2999 9.86737 5.65823 10.034 6.0249 10.134C6.0249 10.134 5.6249 10.0424 5.4499 10.4424C5.28323 10.8257 5.5249 11.2174 6.26656 11.4674C6.26656 11.4674 6.46657 11.5424 6.7499 11.6174C6.7499 11.6174 6.11657 11.8007 6.4249 12.309C6.4249 12.309 6.6999 12.8424 7.65823 12.9424C7.65823 12.9424 6.94156 13.0174 7.4499 13.7007C7.4499 13.7007 7.6749 14.0757 8.3749 14.209C8.3749 14.209 7.84157 14.2257 8.10823 14.7007C8.3749 15.1757 9.00823 15.4424 9.6249 15.4924C9.6249 15.4924 9.95823 15.509 10.1916 15.459C10.1916 15.459 9.5999 15.7507 9.9499 16.2507C9.9499 16.2507 10.2082 16.6007 10.8416 16.584C10.8416 16.584 10.6749 17.134 11.1416 17.3424C11.5082 17.509 11.8082 17.2424 11.8082 17.2424C11.8082 17.2424 11.6832 17.834 12.2166 18.0424C12.2166 18.0424 12.4832 18.1757 12.8749 18.0424C12.8749 18.0424 13.1749 18.7174 14.2499 18.2424C15.3249 17.759 14.4999 13.7757 14.4999 13.7757ZM14.5666 19.9174C14.5666 19.9174 14.4082 20.759 13.1582 21.8257C13.1582 21.8257 12.1916 22.6757 12.2166 23.6507C12.2416 24.6507 12.0416 24.759 11.6666 25.1007C11.6666 25.1007 12.4499 25.159 12.8249 24.6424C12.8249 24.6424 12.8082 25.509 12.6916 25.584C12.6916 25.584 12.9416 25.6007 13.2916 25.209C13.2916 25.209 13.5082 24.984 13.6999 24.9007C13.6999 24.9007 13.4666 25.5007 13.6499 26.0507C13.6499 26.0507 13.7082 25.834 14.0166 25.7424C14.0166 25.7424 14.5666 25.6257 14.7832 24.834C14.7832 24.834 14.9249 24.309 15.7832 23.834C15.7832 23.834 16.7582 23.4674 16.7332 22.984C16.7166 22.5007 14.5666 19.9174 14.5666 19.9174Z" fill="#F4C53D" stroke="#010002" stroke-width="0.125458" stroke-miterlimit="10"/>
<path d="M19.1 30.8174C19.1 30.8174 18.875 31.8091 18.1 31.7258C18.1 31.7258 17.55 31.6758 17.5916 30.7508C17.5916 30.7508 16.775 31.1841 16.6416 30.1091C16.6416 30.1091 15.9 30.2841 15.9083 29.2758C15.9083 29.2758 15.2166 29.3924 15.3 28.5008C15.3 28.5008 14.55 28.7008 14.55 27.8591C14.55 27.8591 12.8 27.5674 16.45 24.2424L19.7083 26.1841L19.1 30.8174Z" fill="#F4C53D" stroke="#010002" stroke-width="0.125458" stroke-miterlimit="1.5055"/>
<path d="M19.4667 26.3756C19.4667 26.3756 18.925 26.859 18.5333 26.134C18.5333 26.134 18.0083 26.109 17.925 25.709C17.925 25.709 17.5 25.6673 17.4167 25.259C17.4167 25.259 16.8333 25.2006 16.85 24.709C16.85 24.709 15.7917 24.6256 16.85 23.4256C17.9083 22.2256 19.7083 25.4173 19.7083 25.4173L19.4667 26.3756ZM20.0667 26.0756C20.5917 26.0756 21.1917 29.359 21.0333 31.3423C20.975 32.059 20.5917 32.6506 20.0667 32.6506C19.5417 32.6506 19.1583 32.0673 19.1 31.3423C18.95 29.3673 19.5417 26.0756 20.0667 26.0756Z" fill="#F4C53D" stroke="#010002" stroke-width="0.125458" stroke-miterlimit="10"/>
<path d="M20.0666 27.1257C20.467 27.1257 20.7916 26.6444 20.7916 26.0507C20.7916 25.457 20.467 24.9757 20.0666 24.9757C19.6661 24.9757 19.3416 25.457 19.3416 26.0507C19.3416 26.6444 19.6661 27.1257 20.0666 27.1257Z" fill="#F4C53D" stroke="#010002" stroke-width="0.125458" stroke-miterlimit="10"/>
<path d="M14.55 27.8758C14.55 27.8758 14.7 26.6175 16.8417 24.7175C16.8417 24.7175 16.7667 24.2258 17.4834 23.7175M17.5834 30.7508C17.5834 30.7508 17.6667 29.0091 19.175 26.5175L17.5834 30.7508ZM16.6417 30.1175C16.6417 30.1175 16.4084 29.1091 18.5334 26.1425C18.5334 26.1425 18.2834 25.4341 19.0417 24.9758L16.6417 30.1175ZM15.9084 29.2841C15.9084 29.2841 15.8417 28.1925 17.925 25.7175C17.925 25.7175 17.7417 25.0758 18.4917 24.5675L15.9084 29.2841ZM15.3 28.5091C15.3 28.5091 15.375 27.4091 17.4167 25.2591C17.4167 25.2591 17.3167 24.6008 18.0417 24.1925L15.3 28.5091Z" stroke="#010002" stroke-width="0.125458" stroke-miterlimit="1.5055"/>
<path d="M14.2668 24.0258C14.2668 24.0258 14.0085 24.0758 13.8251 24.2841C13.6418 24.4924 13.3001 24.4508 13.3001 24.4508C13.3001 24.4508 13.4918 24.3008 13.5501 23.9174C13.6168 23.5424 13.8251 23.4258 13.8251 23.4258M-2.0332 7.60077C-2.0332 7.60077 -0.349869 8.57577 4.90013 9.55077L-2.0332 7.60077ZM-1.2832 8.94244C-1.2832 8.94244 3.28346 10.4341 5.40846 10.6174L-1.2832 8.94244ZM0.516797 10.6174C0.516797 10.6174 3.1918 11.4591 6.32513 11.9924L0.516797 10.6174ZM2.80013 12.3674C2.80013 12.3674 5.82513 13.0924 7.2668 13.2174L2.80013 12.3674ZM4.83346 13.7924C4.83346 13.7924 7.3918 14.3258 8.0418 14.3924L4.83346 13.7924ZM6.45846 15.1091C6.45846 15.1091 8.32513 15.3924 9.0668 15.3758L6.45846 15.1091ZM8.77513 16.2508C8.77513 16.2508 9.53346 16.2174 9.8918 16.1591L8.77513 16.2508ZM9.47513 17.4591C9.47513 17.4591 10.1168 17.2841 10.4918 17.0424L9.47513 17.4591ZM10.4251 18.7174C10.4251 18.7174 10.9168 18.5258 11.1585 18.0091L10.4251 18.7174ZM11.6251 19.1841C11.6251 19.1841 12.0085 18.8424 12.0335 18.4591L11.6251 19.1841ZM13.0585 19.4758C13.0585 19.4758 12.9168 19.3508 13.0168 18.8174L13.0585 19.4758ZM12.8751 18.0258C12.8751 18.0258 12.8001 17.8758 12.8251 17.6258L12.8751 18.0258ZM10.1751 10.3424C10.1751 10.3424 11.0418 10.6924 11.3251 11.1674C11.6168 11.6424 11.4251 12.1091 11.3251 12.3758C11.2751 12.5091 10.6668 13.6841 11.3835 14.5341L10.1751 10.3424ZM10.1835 15.4424C10.1835 15.4424 10.1918 15.4424 10.4918 15.3424L10.1835 15.4424ZM8.3668 14.2008C8.3668 14.2008 8.88346 14.3008 9.38346 14.3091L8.3668 14.2008ZM7.65013 12.9258C7.65013 12.9258 8.25846 12.9841 8.82513 12.9758L7.65013 12.9258ZM6.75013 11.6008C6.75013 11.6008 7.62513 11.7758 8.0918 11.7841L6.75013 11.6008ZM6.03346 10.1258C6.03346 10.1258 7.10846 10.4341 7.90846 10.5424L6.03346 10.1258ZM9.68346 11.1758C9.68346 11.1758 8.90846 11.8924 9.8418 12.5591C9.8418 12.5591 9.45846 13.1674 10.2251 13.8008L9.68346 11.1758ZM10.0168 14.0924C10.0168 14.0924 9.90013 15.2508 11.3168 15.2508C11.3168 15.2508 11.0418 16.2841 12.4085 16.2508C12.4085 16.2508 12.5668 17.0758 13.5501 16.9091L10.0168 14.0924ZM11.3835 25.9591C11.3835 25.9591 11.1585 26.0091 10.6751 25.9591H11.3835ZM9.30846 26.5674C9.30846 26.5674 8.62513 26.4674 8.65846 27.9424L9.30846 26.5674ZM9.7168 26.9008C9.7168 26.9008 9.10013 26.8258 9.1418 28.2591L9.7168 26.9008ZM15.6751 23.4341C15.6751 23.4341 15.3751 23.4924 15.1751 23.7258C14.9668 23.9591 14.5751 23.9174 14.5751 23.9174C14.5751 23.9174 14.7918 23.7424 14.8668 23.3091C14.9418 22.8758 15.1751 22.7424 15.1751 22.7424L15.6751 23.4341ZM14.4668 22.3424C14.4668 22.3424 14.1668 22.4008 13.9668 22.6341C13.7585 22.8674 13.3668 22.8258 13.3668 22.8258C13.3668 22.8258 13.5835 22.6508 13.6585 22.2174C13.7335 21.7841 13.9668 21.6508 13.9668 21.6508L14.4668 22.3424Z" stroke="#010002" stroke-width="0.125458" stroke-miterlimit="10"/>
<path d="M27.8751 24.8675C27.8751 24.8675 28.5001 25.9425 29.2585 25.9591C29.2585 25.9591 30.5585 25.8008 30.9251 26.1425C31.1835 26.3758 31.4418 26.5758 31.5501 27.1841C31.6585 27.7925 31.3418 27.9175 31.2668 27.9508C31.2668 27.9508 31.2085 28.3841 30.7835 28.2675C30.7835 28.2675 30.7585 28.7175 30.0001 28.5008C29.2418 28.2841 28.9335 28.3508 28.7835 27.6008C28.6335 26.8508 28.5001 26.8591 28.3668 26.7675C28.1835 26.6425 27.8501 26.5341 27.5918 26.3841C27.3668 26.2508 26.5001 25.8091 26.2001 25.7758C25.9001 25.7425 25.9668 24.7425 25.9668 24.7425H26.7335L27.1001 24.2008L27.8751 24.8675ZM25.4668 19.4758C25.4668 19.4758 26.2335 20.1008 26.8751 19.4758C26.8751 19.4758 27.1335 19.7841 27.6501 19.6925C28.1668 19.6008 28.2501 19.3258 28.3001 19.1758C28.3001 19.1758 28.7501 19.4341 29.1251 19.2258C29.5001 19.0175 29.5001 18.7091 29.5001 18.7091C29.5001 18.7091 30.1585 18.8425 30.5001 18.3925C30.8335 17.9508 30.6335 17.5091 30.4501 17.4508C30.4501 17.4508 31.1585 17.6341 31.3585 17.0258C31.4668 16.7425 31.3835 16.4341 31.1501 16.2341C31.1501 16.2341 32.6501 16.2258 33.2668 15.7591C33.2668 15.7591 33.7751 15.4341 33.4751 15.1008C33.4751 15.1008 34.8251 14.8841 35.1585 14.3508C35.1585 14.3508 35.3085 14.2008 35.2585 13.9425C35.2585 13.9425 35.2501 13.7925 35.1001 13.7841C35.1001 13.7841 36.6418 13.5425 37.0835 13.0425C37.0835 13.0425 37.3001 12.8091 37.1918 12.5008C37.1918 12.5008 37.1668 12.4175 37.1335 12.3591C37.1335 12.3591 38.5335 12.0675 39.2251 11.4425C39.2251 11.4425 39.6251 11.0841 39.4168 10.6091C39.4168 10.6091 41.7585 9.96745 41.2168 8.93412C41.2168 8.93412 42.3085 8.57579 41.9668 7.59245C41.9668 7.59245 42.8751 7.13412 42.4751 6.40912C42.1001 5.70912 40.9335 6.53412 39.5668 6.90912C39.5668 6.90912 35.8501 8.07579 34.0168 8.39245L28.8168 16.1341L25.7835 17.3008L25.4668 19.4758Z" fill="#F4C53D" stroke="#010002" stroke-width="0.125458" stroke-miterlimit="10"/>
<path d="M25.4333 13.7757C25.4333 13.7757 25.9249 13.409 26.7916 13.8424C26.7916 13.8424 27.0833 14.0424 27.3166 13.8257C27.4999 13.6507 27.5083 13.3507 27.3333 13.1674C27.3083 13.1424 27.2916 13.1257 27.2666 13.109C26.6166 12.6257 26.3749 11.184 27.3666 10.5924C27.3666 10.5924 28.7999 9.74237 34.0416 8.40904C34.0416 8.40904 34.4833 8.28404 34.7166 8.34237C34.9499 8.4007 35.1333 8.58404 35.1916 8.81737C35.1916 8.81737 35.4249 9.48404 34.6333 9.86737C34.6333 9.86737 34.2749 10.034 33.9083 10.134C33.9083 10.134 34.3083 10.0424 34.4833 10.4424C34.6499 10.8257 34.4083 11.2174 33.6666 11.4674C33.6666 11.4674 33.4666 11.5424 33.1833 11.6174C33.1833 11.6174 33.8166 11.8007 33.5083 12.309C33.5083 12.309 33.2333 12.8424 32.2749 12.9424C32.2749 12.9424 32.9916 13.0174 32.4833 13.7007C32.4833 13.7007 32.2583 14.0757 31.5583 14.209C31.5583 14.209 32.0916 14.2257 31.8249 14.7007C31.5583 15.1757 30.9249 15.4424 30.3083 15.4924C30.3083 15.4924 29.9749 15.509 29.7416 15.459C29.7416 15.459 30.3333 15.7507 29.9833 16.2507C29.9833 16.2507 29.7249 16.6007 29.0916 16.584C29.0916 16.584 29.2583 17.134 28.7916 17.3424C28.4249 17.509 28.1249 17.2424 28.1249 17.2424C28.1249 17.2424 28.2499 17.834 27.7166 18.0424C27.7166 18.0424 27.4499 18.1757 27.0583 18.0424C27.0583 18.0424 26.7583 18.7174 25.6833 18.2424C24.6083 17.759 25.4333 13.7757 25.4333 13.7757ZM25.3666 19.9174C25.3666 19.9174 25.5249 20.759 26.7749 21.8257C26.7749 21.8257 27.7416 22.6757 27.7166 23.6507C27.6916 24.6507 27.8916 24.759 28.2666 25.1007C28.2666 25.1007 27.4833 25.159 27.1083 24.6424C27.1083 24.6424 27.1249 25.509 27.2416 25.584C27.2416 25.584 26.9916 25.6007 26.6416 25.209C26.6416 25.209 26.4249 24.984 26.2333 24.9007C26.2333 24.9007 26.4666 25.5007 26.2833 26.0507C26.2833 26.0507 26.2249 25.834 25.9166 25.7424C25.9166 25.7424 25.3666 25.6257 25.1499 24.834C25.1499 24.834 25.0083 24.309 24.1499 23.834C24.1499 23.834 23.1749 23.4674 23.1999 22.984C23.2166 22.5007 25.3666 19.9174 25.3666 19.9174Z" fill="#F4C53D" stroke="#010002" stroke-width="0.125458" stroke-miterlimit="10"/>
<path d="M20.8334 30.8174C20.8334 30.8174 21.0584 31.8091 21.8334 31.7258C21.8334 31.7258 22.3834 31.6758 22.3418 30.7508C22.3418 30.7508 23.1584 31.1841 23.2918 30.1091C23.2918 30.1091 24.0334 30.2841 24.0251 29.2758C24.0251 29.2758 24.7168 29.3924 24.6334 28.5008C24.6334 28.5008 25.3834 28.7008 25.3834 27.8591C25.3834 27.8591 27.1334 27.5674 23.4834 24.2424L20.2251 26.1841L20.8334 30.8174Z" fill="#F4C53D" stroke="#010002" stroke-width="0.125458" stroke-miterlimit="1.5055"/>
<path d="M20.4668 26.3756C20.4668 26.3756 21.0084 26.859 21.4001 26.134C21.4001 26.134 21.9251 26.109 22.0084 25.709C22.0084 25.709 22.4334 25.6673 22.5168 25.259C22.5168 25.259 23.1001 25.2006 23.0834 24.709C23.0834 24.709 24.1418 24.6256 23.0834 23.4256C22.0251 22.2256 20.2251 25.4173 20.2251 25.4173L20.4668 26.3756ZM19.8668 26.0756C19.3418 26.0756 18.7418 29.359 18.9001 31.3423C18.9584 32.059 19.3418 32.6506 19.8668 32.6506C20.3918 32.6506 20.7751 32.0673 20.8334 31.3423C20.9834 29.3673 20.3918 26.0756 19.8668 26.0756Z" fill="#F4C53D" stroke="#010002" stroke-width="0.125458" stroke-miterlimit="10"/>
<path d="M19.8668 27.1257C20.2673 27.1257 20.5918 26.6444 20.5918 26.0507C20.5918 25.457 20.2673 24.9757 19.8668 24.9757C19.4664 24.9757 19.1418 25.457 19.1418 26.0507C19.1418 26.6444 19.4664 27.1257 19.8668 27.1257Z" fill="#F4C53D" stroke="#010002" stroke-width="0.125458" stroke-miterlimit="10"/>
<path d="M25.3833 27.8758C25.3833 27.8758 25.2333 26.6175 23.0916 24.7175C23.0916 24.7175 23.1666 24.2258 22.45 23.7175M22.35 30.7508C22.35 30.7508 22.2666 29.0091 20.7583 26.5175L22.35 30.7508ZM23.2916 30.1175C23.2916 30.1175 23.525 29.1091 21.4 26.1425C21.4 26.1425 21.65 25.4341 20.8916 24.9758L23.2916 30.1175ZM24.025 29.2841C24.025 29.2841 24.0916 28.1925 22.0083 25.7175C22.0083 25.7175 22.1916 25.0758 21.4416 24.5675L24.025 29.2841ZM24.6333 28.5091C24.6333 28.5091 24.5583 27.4091 22.5166 25.2591C22.5166 25.2591 22.6166 24.6008 21.8916 24.1925L24.6333 28.5091Z" stroke="#010002" stroke-width="0.125458" stroke-miterlimit="1.5055"/>
<path d="M25.6669 24.0258C25.6669 24.0258 25.9252 24.0758 26.1085 24.2841C26.2919 24.4924 26.6335 24.4508 26.6335 24.4508C26.6335 24.4508 26.4419 24.3008 26.3835 23.9174C26.3169 23.5424 26.1085 23.4258 26.1085 23.4258M41.9669 7.60077C41.9669 7.60077 40.2835 8.57577 35.0335 9.55077L41.9669 7.60077ZM41.2169 8.94244C41.2169 8.94244 36.6502 10.4341 34.5252 10.6174L41.2169 8.94244ZM39.4169 10.6174C39.4169 10.6174 36.7419 11.4591 33.6085 11.9924L39.4169 10.6174ZM37.1335 12.3674C37.1335 12.3674 34.1085 13.0924 32.6669 13.2174L37.1335 12.3674ZM35.1002 13.7924C35.1002 13.7924 32.5419 14.3258 31.8919 14.3924L35.1002 13.7924ZM33.4752 15.1091C33.4752 15.1091 31.6085 15.3924 30.8669 15.3758L33.4752 15.1091ZM31.1585 16.2508C31.1585 16.2508 30.4002 16.2174 30.0419 16.1591L31.1585 16.2508ZM30.4585 17.4591C30.4585 17.4591 29.8169 17.2841 29.4419 17.0424L30.4585 17.4591ZM29.5085 18.7174C29.5085 18.7174 29.0169 18.5258 28.7752 18.0091L29.5085 18.7174ZM28.3085 19.1841C28.3085 19.1841 27.9252 18.8424 27.9002 18.4591L28.3085 19.1841ZM26.8752 19.4758C26.8752 19.4758 27.0169 19.3508 26.9169 18.8174L26.8752 19.4758ZM27.0585 18.0258C27.0585 18.0258 27.1335 17.8758 27.1085 17.6258L27.0585 18.0258ZM29.7585 10.3424C29.7585 10.3424 28.8919 10.6924 28.6085 11.1674C28.3169 11.6424 28.5085 12.1091 28.6085 12.3758C28.6585 12.5091 29.2669 13.6841 28.5502 14.5341L29.7585 10.3424ZM29.7502 15.4424C29.7502 15.4424 29.7419 15.4424 29.4419 15.3424L29.7502 15.4424ZM31.5669 14.2008C31.5669 14.2008 31.0502 14.3008 30.5502 14.3091L31.5669 14.2008ZM32.2835 12.9258C32.2835 12.9258 31.6752 12.9841 31.1085 12.9758L32.2835 12.9258ZM33.1835 11.6008C33.1835 11.6008 32.3085 11.7758 31.8419 11.7841L33.1835 11.6008ZM33.9002 10.1258C33.9002 10.1258 32.8252 10.4341 32.0252 10.5424L33.9002 10.1258ZM30.2502 11.1758C30.2502 11.1758 31.0252 11.8924 30.0919 12.5591C30.0919 12.5591 30.4752 13.1674 29.7085 13.8008L30.2502 11.1758ZM29.9169 14.0924C29.9169 14.0924 30.0335 15.2508 28.6169 15.2508C28.6169 15.2508 28.8919 16.2841 27.5252 16.2508C27.5252 16.2508 27.3669 17.0758 26.3835 16.9091L29.9169 14.0924ZM28.5502 25.9591C28.5502 25.9591 28.7752 26.0091 29.2585 25.9591H28.5502ZM30.6252 26.5674C30.6252 26.5674 31.3085 26.4674 31.2752 27.9424L30.6252 26.5674ZM30.2169 26.9008C30.2169 26.9008 30.8335 26.8258 30.7919 28.2591L30.2169 26.9008ZM24.2585 23.4341C24.2585 23.4341 24.5585 23.4924 24.7585 23.7258C24.9669 23.9591 25.3585 23.9174 25.3585 23.9174C25.3585 23.9174 25.1419 23.7424 25.0669 23.3091C24.9919 22.8758 24.7585 22.7424 24.7585 22.7424L24.2585 23.4341ZM25.4669 22.3424C25.4669 22.3424 25.7669 22.4008 25.9669 22.6341C26.1752 22.8674 26.5669 22.8258 26.5669 22.8258C26.5669 22.8258 26.3502 22.6508 26.2752 22.2174C26.2002 21.7841 25.9669 21.6508 25.9669 21.6508L25.4669 22.3424Z" stroke="#010002" stroke-width="0.125458" stroke-miterlimit="10"/>
<path d="M31.8332 21.3342L30.6416 26.4758L30.1499 26.1258L31.3166 21.1925L30.4999 21.2092L32.4249 17.6842L32.5499 21.7425L31.8332 21.3342ZM34.9166 22.4175L31.3332 26.6508L30.9499 26.2175L34.5166 22.0342L33.7916 21.6508L37.0582 19.4842L35.3666 23.1342L34.9166 22.4175Z" fill="#0081C6" stroke="#010002" stroke-width="0.125" stroke-miterlimit="10"/>
<path d="M34.05 20.1676L30.8417 26.3342L30.35 26.0426L33.575 19.8926L32.7917 19.6926L35.5167 16.8092L34.6417 20.7676L34.05 20.1676ZM30.05 28.2176L29.8084 29.1926L30.475 29.8592L29.5417 33.7759L28.7084 32.6676L27.4917 33.2342L28.4167 29.3176L29.2834 29.0676L29.5 28.0926C29.5 28.0926 29.7667 27.9926 30.05 28.2176Z" fill="#0081C6" stroke="#010002" stroke-width="0.125" stroke-miterlimit="10"/>
<path d="M30.275 27.5673L29.8 28.4507L30.275 29.259L28.4083 32.8007L27.8833 31.5007L26.5583 31.7173L28.425 28.184H29.3167L29.775 27.3007C29.775 27.3007 30.1083 27.3007 30.275 27.5673Z" fill="#0081C6" stroke="#010002" stroke-width="0.125" stroke-miterlimit="10"/>
<path d="M30.3502 27.8257L29.1002 29.4257L29.3835 30.3256L26.8085 33.3256L26.5752 31.9423L25.2419 31.8423L27.8085 28.8423L28.6752 29.0507L30.0085 27.3507C30.0085 27.3507 30.3752 27.534 30.3502 27.8257ZM-1.54147 24.0757C-1.24147 23.9507 -1.0248 23.834 -1.0248 23.5173C-1.0248 23.434 -1.06647 23.2673 -1.1498 23.009L-3.16647 16.834C-3.23314 16.609 -3.31647 16.3923 -3.41647 16.1757C-3.50814 16.009 -3.68314 15.934 -3.9248 15.8423H-1.36647C-1.64147 15.9673 -1.8998 16.0673 -1.89147 16.3673C-1.89147 16.4757 -1.85814 16.634 -1.7998 16.8423L-0.249804 21.6757L1.29186 16.8423C1.34186 16.6923 1.3752 16.5257 1.38353 16.3673C1.38353 16.059 1.11686 15.9507 0.85853 15.834H3.34186C3.11686 15.9257 2.9252 16.0007 2.84186 16.1757C2.74186 16.3923 2.65853 16.6173 2.58353 16.8423L0.566863 23.0007C0.508529 23.1673 0.466863 23.334 0.441863 23.509C0.441863 23.509 0.350196 23.9006 0.958529 24.0673L-1.54147 24.0757ZM41.4002 23.4423V16.4673C41.4002 16.3507 41.3752 16.259 41.3335 16.1923C41.2919 16.1257 41.1252 15.9423 40.8752 15.8423H43.1835C43.0002 15.909 42.8419 16.034 42.7252 16.1923C42.6835 16.259 42.6669 16.3507 42.6669 16.4673V23.4423C42.6669 23.5673 42.6835 23.659 42.7252 23.7257C42.7669 23.7923 42.9335 23.959 43.1835 24.0757H40.8752C41.1252 23.959 41.2919 23.7923 41.3335 23.7257C41.3752 23.659 41.4002 23.5673 41.4002 23.4423Z" fill="#0081C6" stroke="#010002" stroke-width="0.125" stroke-miterlimit="10"/>
<path d="M20.0667 25.8173C20.0667 25.8173 26.25 23.0756 26.2583 16.7506H13.875C13.8917 23.084 20.0667 25.8173 20.0667 25.8173Z" fill="white" stroke="#010002" stroke-width="0.125"/>
<path d="M14.8333 16.7508V20.7924C14.8333 20.7924 15.2999 21.7341 15.7833 22.3174V16.7508H14.8333ZM16.7333 16.7508V23.4174C16.7333 23.4174 17.3333 24.0008 17.6833 24.2841V16.7508H16.7333ZM18.6416 16.7508V24.9924C18.6416 24.9924 19.3166 25.4258 19.5916 25.5758V16.7424H18.6416V16.7508ZM25.3083 16.7508V20.7924C25.3083 20.7924 24.8333 21.7341 24.3499 22.3174V16.7508H25.3083ZM23.3999 16.7508V23.4174C23.3999 23.4174 22.8083 24.0008 22.4499 24.2841V16.7508H23.3999ZM21.4999 16.7508V24.9924C21.4999 24.9924 20.8166 25.4258 20.5416 25.5758V16.7424H21.4999V16.7508Z" fill="#A60032" stroke="#010002" stroke-width="0.125"/>
<path d="M26.2583 12.1508C26.2583 12.1508 23.225 13.7341 20.0667 12.0175C16.9083 13.7341 13.875 12.1508 13.875 12.1508V16.7508H26.2583V12.1508Z" fill="#162667" stroke="#010002" stroke-width="0.125" stroke-miterlimit="10"/>
</g>
</g>
<defs>
<clipPath id="clip0_769_24882">
<path d="M0 20C0 8.95431 8.95431 0 20 0C31.0457 0 40 8.95431 40 20C40 31.0457 31.0457 40 20 40C8.95431 40 0 31.0457 0 20Z" fill="white"/>
</clipPath>
<clipPath id="clip1_769_24882">
<rect width="53.3333" height="40" fill="white" transform="translate(-7 0.000732422)"/>
</clipPath>
</defs>
</svg>
