<svg width="40" height="40" viewBox="0 0 40 40" fill="none" xmlns="http://www.w3.org/2000/svg">
<g clip-path="url(#clip0_769_24707)">
<path d="M0 20C0 8.95431 8.95431 0 20 0C31.0457 0 40 8.95431 40 20C40 31.0457 31.0457 40 20 40C8.95431 40 0 31.0457 0 20Z" fill="#E94E0F"/>
<g clip-path="url(#clip1_769_24707)">
<path d="M-7 0.000732422H47V40.5007H-7V0.000732422Z" fill="#000066"/>
<path d="M-7 0.000732422H20V20.2507H-7V0.000732422Z" fill="#012169"/>
<path d="M-3.83594 0.000732422L6.45781 7.63667L16.7094 0.000732422H20V2.61636L9.875 10.1679L20 17.6773V20.2507H16.625L6.5 12.6992L-3.58281 20.2507H-7V17.7195L3.08281 10.2101L-7 2.70073V0.000732422H-3.83594Z" fill="white"/>
<path d="M10.8875 11.8554L20 18.5632V20.2507L8.56719 11.8554H10.8875ZM3.125 12.6992L3.37813 14.1757L-4.72187 20.2507H-7L3.125 12.6992ZM20 0.000732422V0.127295L9.49531 8.05855L9.57969 6.20229L17.8906 0.000732422H20ZM-7 0.000732422L3.08281 7.42573H0.551563L-7 1.77261V0.000732422Z" fill="#C8102E"/>
<path d="M3.16719 0.000732422V20.2507H9.91719V0.000732422H3.16719ZM-7 6.75073V13.5007H20V6.75073H-7Z" fill="white"/>
<path d="M-7 8.14292V12.1929H20V8.14292H-7ZM4.51719 0.000732422V20.2507H8.56719V0.000732422H4.51719Z" fill="#C8102E"/>
<path d="M25.4083 8.62382L41.7855 8.56476L41.7518 23.1448C41.7518 23.1448 42.3255 25.3638 34.8836 28.7388C37.5583 28.4604 40.4777 25.6169 40.4777 25.6169C40.4777 25.6169 41.659 24.0898 42.2411 24.9419C42.8149 25.7941 43.3633 26.2244 43.7852 26.5535C44.2071 26.8826 44.5446 27.7938 43.9118 28.4604C43.2705 29.1354 42.2665 29.2198 41.9965 28.4013C41.5746 28.6207 38.959 31.7763 33.6096 31.9282C28.1674 31.8354 25.1974 28.3676 25.1974 28.3676C25.1974 28.3676 24.4718 29.5235 23.434 28.6123C22.4299 27.4226 23.1893 26.6632 23.1893 26.6632C23.1893 26.6632 24.0415 26.1823 24.2861 25.8448C24.6743 25.3891 24.8008 24.7816 25.459 24.7816C26.2605 24.8491 26.5558 25.4819 26.5558 25.4819C26.5558 25.4819 29.2896 28.3676 32.2343 28.7304C25.5855 25.541 25.3324 23.5666 25.3661 23.0773L25.4083 8.62382Z" fill="white"/>
<path d="M25.805 9.02038L41.4228 8.92757V22.9591C41.4566 24.7901 38.3853 26.6379 33.5844 29.0088C28.6316 26.4607 25.7797 24.9082 25.7544 22.9254L25.805 9.02038Z" fill="#006129" stroke="black" stroke-width="0.124234" stroke-miterlimit="3.0999"/>
<path d="M27.9229 11.0959L28.8341 9.74594L29.7707 11.1044" stroke="#FFC72C" stroke-width="0.124234" stroke-miterlimit="3.0999"/>
<path d="M29.028 10.5813C29.028 10.6826 28.9436 10.767 28.8424 10.767C28.7411 10.767 28.6567 10.6826 28.6567 10.5813C28.6567 10.4801 28.7411 10.3957 28.8424 10.3957C28.952 10.4041 29.028 10.4885 29.028 10.5813Z" fill="#FFC72C" stroke="black" stroke-width="0.0588516" stroke-miterlimit="3.0999"/>
<path d="M28.1 12.0916H29.5344C29.5344 12.0916 29.5513 11.906 29.3825 11.7963C30.1335 11.6951 29.9394 11.037 30.5553 10.9948C30.6819 11.0116 30.2263 11.2732 30.2263 11.2732C30.2263 11.2732 29.855 11.5348 30.0322 11.6698C30.1588 11.7795 30.2263 11.6023 30.2431 11.4757C30.26 11.3491 30.8506 11.2563 30.7663 10.8851C30.6313 10.5813 29.8044 11.096 29.8044 11.096L29.2138 11.0876C29.1716 11.0201 29.0197 10.7585 28.851 10.7585C28.6569 10.7585 28.5135 11.0876 28.5135 11.0876H27.1888C27.1888 11.0876 27.1466 11.4335 27.8131 11.501C27.965 11.6951 28.0831 11.7457 28.2181 11.8048C28.1253 11.8891 28.1 11.982 28.1 12.0916Z" fill="#FFC72C" stroke="black" stroke-width="0.0588516" stroke-miterlimit="3.0999"/>
<path d="M28.2012 11.8048H29.3909H28.2012Z" fill="#FFC72C"/>
<path d="M28.2012 11.8048H29.3909" stroke="black" stroke-width="0.0588516" stroke-miterlimit="3.0999"/>
<path d="M27.6611 11.1044C27.6611 11.1044 27.7539 11.6612 28.2011 11.7878L27.6611 11.1044Z" fill="#FFC72C"/>
<path d="M27.6611 11.1044C27.6611 11.1044 27.7539 11.6612 28.2011 11.7878" stroke="black" stroke-width="0.0588516" stroke-miterlimit="3.0999"/>
<path d="M27.5853 11.096C27.6274 10.885 27.7118 10.8513 27.7962 10.5729C27.8131 10.3113 27.5853 10.345 27.6528 10.1847C27.7709 9.99911 27.7118 9.82192 27.4924 9.67848C27.5346 9.92317 27.2056 10.151 27.2056 10.345C27.2056 10.5391 27.3743 10.5054 27.3574 10.8007C27.3743 10.9694 27.3153 10.9272 27.2899 11.096H27.5853Z" fill="url(#paint0_linear_769_24707)" stroke="black" stroke-width="0.0588516" stroke-miterlimit="3.0999"/>
<path d="M29.0196 9.77977C29.0196 9.87259 28.9437 9.94852 28.8509 9.94852C28.7581 9.94852 28.6821 9.87259 28.6821 9.77977C28.6821 9.68696 28.7581 9.61102 28.8509 9.61102C28.9437 9.61102 29.0196 9.68696 29.0196 9.77977Z" fill="#FFC72C" stroke="black" stroke-width="0.0588516" stroke-miterlimit="3.0999"/>
<path d="M27.8721 13.796L28.7833 12.446L29.7199 13.8044" stroke="#FFC72C" stroke-width="0.124234" stroke-miterlimit="3.0999"/>
<path d="M28.9775 13.2898C28.9775 13.391 28.8931 13.4754 28.7918 13.4754C28.6906 13.4754 28.6062 13.391 28.6062 13.2898C28.6062 13.1885 28.6906 13.1041 28.7918 13.1041C28.9015 13.1041 28.9775 13.1885 28.9775 13.2898Z" fill="#FFC72C" stroke="black" stroke-width="0.0588516" stroke-miterlimit="3.0999"/>
<path d="M28.0409 14.8001H29.4753C29.4753 14.8001 29.4922 14.6144 29.3234 14.5047C30.0744 14.4035 29.8803 13.7454 30.4962 13.7032C30.6228 13.7201 30.1672 13.9816 30.1672 13.9816C30.1672 13.9816 29.7959 14.2432 29.9731 14.3782C30.0997 14.4879 30.1672 14.3107 30.1841 14.1841C30.2009 14.0576 30.7916 13.9647 30.7072 13.5935C30.5722 13.2897 29.7453 13.8044 29.7453 13.8044L29.1547 13.796C29.1125 13.7285 28.9606 13.4669 28.7919 13.4669C28.5978 13.4669 28.4544 13.796 28.4544 13.796H27.1297C27.1297 13.796 27.0875 14.1419 27.7541 14.2094C27.9059 14.4035 28.0241 14.4541 28.1591 14.5132C28.0747 14.5891 28.0409 14.6819 28.0409 14.8001Z" fill="#FFC72C" stroke="black" stroke-width="0.0588516" stroke-miterlimit="3.0999"/>
<path d="M28.1506 14.5047H29.3403H28.1506Z" fill="#FFC72C"/>
<path d="M28.1506 14.5047H29.3403" stroke="black" stroke-width="0.0588516" stroke-miterlimit="3.0999"/>
<path d="M27.6021 13.8128C27.6021 13.8128 27.6949 14.3697 28.1421 14.4962L27.6021 13.8128Z" fill="#FFC72C"/>
<path d="M27.6021 13.8128C27.6021 13.8128 27.6949 14.3697 28.1421 14.4962" stroke="black" stroke-width="0.0588516" stroke-miterlimit="3.0999"/>
<path d="M27.5347 13.796C27.5769 13.5851 27.6613 13.5513 27.7457 13.2729C27.7625 13.0113 27.5347 13.0451 27.6022 12.8848C27.7203 12.6991 27.6613 12.5219 27.4419 12.3785C27.4841 12.6232 27.155 12.851 27.155 13.0451C27.155 13.2391 27.3238 13.2054 27.3069 13.5007C27.3238 13.6694 27.2647 13.6273 27.2394 13.796H27.5347Z" fill="url(#paint1_linear_769_24707)" stroke="black" stroke-width="0.0588516" stroke-miterlimit="3.0999"/>
<path d="M28.9691 12.4796C28.9691 12.5724 28.8932 12.6484 28.8003 12.6484C28.7075 12.6484 28.6316 12.5724 28.6316 12.4796C28.6316 12.3868 28.7075 12.3109 28.8003 12.3109C28.8932 12.3109 28.9691 12.3868 28.9691 12.4796Z" fill="#FFC72C" stroke="black" stroke-width="0.0588516" stroke-miterlimit="3.0999"/>
<path d="M27.8552 16.4539L28.7665 15.1039L29.703 16.4623" stroke="#FFC72C" stroke-width="0.124234" stroke-miterlimit="3.0999"/>
<path d="M28.9606 15.9476C28.9606 16.0489 28.8762 16.1333 28.775 16.1333C28.6737 16.1333 28.5894 16.0489 28.5894 15.9476C28.5894 15.8464 28.6737 15.762 28.775 15.762C28.8762 15.762 28.9606 15.8464 28.9606 15.9476Z" fill="#FFC72C" stroke="black" stroke-width="0.0588516" stroke-miterlimit="3.0999"/>
<path d="M28.0241 17.458H29.4585C29.4585 17.458 29.4753 17.2723 29.3066 17.1626C30.0575 17.0614 29.8635 16.4033 30.4794 16.3611C30.606 16.378 30.1503 16.6395 30.1503 16.6395C30.1503 16.6395 29.7791 16.9011 29.9563 17.0361C30.0828 17.1458 30.1503 16.9686 30.1672 16.842C30.1841 16.7155 30.7747 16.6226 30.6903 16.2514C30.5553 15.9476 29.7285 16.4623 29.7285 16.4623L29.1378 16.4539C29.0956 16.3864 28.9438 16.1248 28.775 16.1248C28.581 16.1248 28.4375 16.4539 28.4375 16.4539H27.1128C27.1128 16.4539 27.0707 16.7998 27.7372 16.8673C27.8891 17.0614 28.0072 17.112 28.1422 17.1711C28.0494 17.247 28.0241 17.3398 28.0241 17.458Z" fill="#FFC72C" stroke="black" stroke-width="0.0588516" stroke-miterlimit="3.0999"/>
<path d="M28.1255 17.1711H29.3152H28.1255Z" fill="#FFC72C"/>
<path d="M28.1255 17.1711H29.3152" stroke="black" stroke-width="0.0588516" stroke-miterlimit="3.0999"/>
<path d="M27.5854 16.4709C27.5854 16.4709 27.6783 17.0277 28.1254 17.1543L27.5854 16.4709Z" fill="#FFC72C"/>
<path d="M27.5854 16.4709C27.5854 16.4709 27.6783 17.0277 28.1254 17.1543" stroke="black" stroke-width="0.0588516" stroke-miterlimit="3.0999"/>
<path d="M27.5179 16.4539C27.5601 16.243 27.6444 16.2092 27.7288 15.9308C27.7457 15.6692 27.5179 15.703 27.5854 15.5427C27.7035 15.357 27.6444 15.1798 27.4251 15.0364C27.4672 15.2811 27.1382 15.5089 27.1382 15.703C27.1382 15.897 27.3069 15.8633 27.2901 16.1586C27.3069 16.3273 27.2479 16.2852 27.2226 16.4539H27.5179Z" fill="url(#paint2_linear_769_24707)" stroke="black" stroke-width="0.0588516" stroke-miterlimit="3.0999"/>
<path d="M28.9437 15.146C28.9437 15.2389 28.8678 15.3148 28.775 15.3148C28.6821 15.3148 28.6062 15.2389 28.6062 15.146C28.6062 15.0532 28.6821 14.9773 28.775 14.9773C28.8678 14.9689 28.9437 15.0448 28.9437 15.146Z" fill="#FFC72C" stroke="black" stroke-width="0.0588516" stroke-miterlimit="3.0999"/>
<path d="M29.6021 19.3396L30.5133 17.9896L31.4499 19.348" stroke="#FFC72C" stroke-width="0.124234" stroke-miterlimit="3.0999"/>
<path d="M30.7072 18.8333C30.7072 18.9346 30.6228 19.019 30.5216 19.019C30.4203 19.019 30.3359 18.9346 30.3359 18.8333C30.3359 18.7321 30.4203 18.6477 30.5216 18.6477C30.6228 18.6477 30.7072 18.7321 30.7072 18.8333Z" fill="#FFC72C" stroke="black" stroke-width="0.0588516" stroke-miterlimit="3.0999"/>
<path d="M29.7707 20.3437H31.205C31.205 20.3437 31.2219 20.158 31.0532 20.0483C31.8041 19.9471 31.61 19.289 32.226 19.2468C32.3525 19.2637 31.8969 19.5252 31.8969 19.5252C31.8969 19.5252 31.5257 19.7868 31.7029 19.9218C31.8294 20.0315 31.8969 19.8543 31.9138 19.7277C31.9307 19.6012 32.5213 19.5083 32.4369 19.1371C32.3019 18.8333 31.475 19.348 31.475 19.348L30.8844 19.3396C30.8422 19.2721 30.6904 19.0105 30.5216 19.0105C30.3275 19.0105 30.1841 19.3396 30.1841 19.3396H28.8594C28.8594 19.3396 28.8172 19.6855 29.4838 19.753C29.6357 19.9471 29.7538 19.9977 29.8888 20.0568C29.796 20.1327 29.7707 20.2255 29.7707 20.3437Z" fill="#FFC72C" stroke="black" stroke-width="0.0588516" stroke-miterlimit="3.0999"/>
<path d="M29.8718 20.0568H31.0615H29.8718Z" fill="#FFC72C"/>
<path d="M29.8718 20.0568H31.0615" stroke="black" stroke-width="0.0588516" stroke-miterlimit="3.0999"/>
<path d="M29.332 19.3564C29.332 19.3564 29.4248 19.9133 29.872 20.0398L29.332 19.3564Z" fill="#FFC72C"/>
<path d="M29.332 19.3564C29.332 19.3564 29.4248 19.9133 29.872 20.0398" stroke="black" stroke-width="0.0588516" stroke-miterlimit="3.0999"/>
<path d="M29.2645 19.3396C29.3066 19.1287 29.391 19.0949 29.4754 18.8165C29.4923 18.5549 29.2645 18.5887 29.332 18.4284C29.4501 18.2427 29.391 18.0655 29.1716 17.9221C29.2138 18.1668 28.8848 18.3946 28.8848 18.5887C28.8848 18.7827 29.0535 18.749 29.0366 19.0443C29.0535 19.213 28.9945 19.1709 28.9691 19.3396H29.2645Z" fill="url(#paint3_linear_769_24707)" stroke="black" stroke-width="0.0588516" stroke-miterlimit="3.0999"/>
<path d="M30.6903 18.0234C30.6903 18.1162 30.6143 18.1921 30.5215 18.1921C30.4287 18.1921 30.3528 18.1162 30.3528 18.0234C30.3528 17.9306 30.4287 17.8546 30.5215 17.8546C30.6143 17.8546 30.6903 17.9306 30.6903 18.0234Z" fill="#FFC72C" stroke="black" stroke-width="0.0588516" stroke-miterlimit="3.0999"/>
<path d="M27.6274 21.7019L28.5387 20.3519L29.4753 21.7103" stroke="#FFC72C" stroke-width="0.124234" stroke-miterlimit="3.0999"/>
<path d="M28.7328 21.1873C28.7328 21.2885 28.6484 21.3729 28.5472 21.3729C28.4459 21.3729 28.3616 21.2885 28.3616 21.1873C28.3616 21.086 28.4459 21.0016 28.5472 21.0016C28.6484 21.0101 28.7328 21.0945 28.7328 21.1873Z" fill="#FFC72C" stroke="black" stroke-width="0.0588516" stroke-miterlimit="3.0999"/>
<path d="M27.7963 22.6976H29.2307C29.2307 22.6976 29.2476 22.512 29.0788 22.4023C29.8297 22.301 29.6357 21.6429 30.2516 21.6007C30.3782 21.6176 29.9226 21.8791 29.9226 21.8791C29.9226 21.8791 29.5513 22.1407 29.7285 22.2757C29.8551 22.3854 29.9226 22.2082 29.9394 22.0816C29.9563 21.9551 30.5469 21.8623 30.4626 21.491C30.3276 21.1873 29.5007 21.702 29.5007 21.702L28.9101 21.6935C28.8679 21.626 28.716 21.3645 28.5472 21.3645C28.3532 21.3645 28.2097 21.6935 28.2097 21.6935H26.8851C26.8851 21.6935 26.8429 22.0395 27.5094 22.107C27.6613 22.301 27.7794 22.3516 27.9144 22.4107C27.8216 22.4951 27.7963 22.5879 27.7963 22.6976Z" fill="#FFC72C" stroke="black" stroke-width="0.0588516" stroke-miterlimit="3.0999"/>
<path d="M27.8975 22.4108H29.0871H27.8975Z" fill="#FFC72C"/>
<path d="M27.8975 22.4108H29.0871" stroke="black" stroke-width="0.0588516" stroke-miterlimit="3.0999"/>
<path d="M27.3574 21.7103C27.3574 21.7103 27.4502 22.2672 27.8974 22.3937L27.3574 21.7103Z" fill="#FFC72C"/>
<path d="M27.3574 21.7103C27.3574 21.7103 27.4502 22.2672 27.8974 22.3937" stroke="black" stroke-width="0.0588516" stroke-miterlimit="3.0999"/>
<path d="M27.2898 21.7019C27.332 21.491 27.4164 21.4572 27.5008 21.1788C27.5177 20.9172 27.2898 20.951 27.3573 20.7907C27.4755 20.605 27.4164 20.4279 27.197 20.2844C27.2392 20.5291 26.9102 20.7569 26.9102 20.951C26.9102 21.145 27.0789 21.1113 27.062 21.4066C27.0789 21.5754 27.0198 21.5332 26.9945 21.7019H27.2898Z" fill="url(#paint4_linear_769_24707)" stroke="black" stroke-width="0.0588516" stroke-miterlimit="3.0999"/>
<path d="M28.7159 20.3857C28.7159 20.4785 28.64 20.5545 28.5472 20.5545C28.4544 20.5545 28.3784 20.4785 28.3784 20.3857C28.3784 20.2929 28.4544 20.217 28.5472 20.217C28.64 20.217 28.7159 20.2929 28.7159 20.3857Z" fill="#FFC72C" stroke="black" stroke-width="0.0588516" stroke-miterlimit="3.0999"/>
<path d="M27.6782 24.4865L28.5895 23.1365L29.526 24.4949" stroke="#FFC72C" stroke-width="0.124234" stroke-miterlimit="3.0999"/>
<path d="M28.7834 23.9803C28.7834 24.0815 28.699 24.1659 28.5977 24.1659C28.4965 24.1659 28.4121 24.0815 28.4121 23.9803C28.4121 23.879 28.4965 23.7946 28.5977 23.7946C28.699 23.7946 28.7834 23.879 28.7834 23.9803Z" fill="#FFC72C" stroke="black" stroke-width="0.0588516" stroke-miterlimit="3.0999"/>
<path d="M27.8468 25.4906H29.2812C29.2812 25.4906 29.2981 25.305 29.1293 25.1953C29.8803 25.094 29.6862 24.4359 30.3022 24.3937C30.4287 24.4106 29.9731 24.6721 29.9731 24.6721C29.9731 24.6721 29.6018 24.9337 29.779 25.0687C29.9056 25.1784 29.9731 25.0012 29.99 24.8746C30.0068 24.7481 30.5975 24.6553 30.5131 24.284C30.3781 23.9803 29.5512 24.495 29.5512 24.495L28.9606 24.4865C28.9184 24.419 28.7665 24.1575 28.5978 24.1575C28.4037 24.1575 28.2603 24.4865 28.2603 24.4865H26.9356C26.9356 24.4865 26.8934 24.8325 27.56 24.9C27.7118 25.094 27.83 25.1446 27.965 25.2037C27.8722 25.2796 27.8468 25.3725 27.8468 25.4906Z" fill="#FFC72C" stroke="black" stroke-width="0.0588516" stroke-miterlimit="3.0999"/>
<path d="M27.9565 25.2036H29.1462H27.9565Z" fill="#FFC72C"/>
<path d="M27.9565 25.2036H29.1462" stroke="black" stroke-width="0.0588516" stroke-miterlimit="3.0999"/>
<path d="M27.4082 24.5033C27.4082 24.5033 27.501 25.0602 27.9482 25.1867L27.4082 24.5033Z" fill="#FFC72C"/>
<path d="M27.4082 24.5033C27.4082 24.5033 27.501 25.0602 27.9482 25.1867" stroke="black" stroke-width="0.0588516" stroke-miterlimit="3.0999"/>
<path d="M27.3406 24.4865C27.3828 24.2756 27.4672 24.2418 27.5516 23.9634C27.5684 23.7018 27.3406 23.7356 27.4081 23.5753C27.5262 23.3897 27.4672 23.2125 27.2478 23.069C27.29 23.3137 26.9609 23.5415 26.9609 23.7356C26.9609 23.9297 27.1297 23.8959 27.1128 24.1912C27.1297 24.36 27.0706 24.3178 27.0453 24.4865H27.3406Z" fill="url(#paint5_linear_769_24707)" stroke="black" stroke-width="0.0588516" stroke-miterlimit="3.0999"/>
<path d="M28.7667 23.1702C28.7667 23.263 28.6908 23.3389 28.5979 23.3389C28.5051 23.3389 28.4292 23.263 28.4292 23.1702C28.4292 23.0773 28.5051 23.0014 28.5979 23.0014C28.6908 23.0014 28.7667 23.0773 28.7667 23.1702Z" fill="#FFC72C" stroke="black" stroke-width="0.0588516" stroke-miterlimit="3.0999"/>
<path d="M37.491 11.1384L38.4022 9.78839L39.3388 11.1468" stroke="#FFC72C" stroke-width="0.124234" stroke-miterlimit="3.0999"/>
<path d="M38.5963 10.6322C38.5963 10.7334 38.512 10.8178 38.4107 10.8178C38.3095 10.8178 38.2251 10.7334 38.2251 10.6322C38.2251 10.5309 38.3095 10.4465 38.4107 10.4465C38.5204 10.4465 38.5963 10.5309 38.5963 10.6322Z" fill="#FFC72C" stroke="black" stroke-width="0.0588516" stroke-miterlimit="3.0999"/>
<path d="M37.6598 12.1425H39.0942C39.0942 12.1425 39.1111 11.9568 38.9423 11.8472C39.6933 11.7459 39.4992 11.0878 40.1151 11.0456C40.2417 11.0625 39.7861 11.324 39.7861 11.324C39.7861 11.324 39.4148 11.5856 39.592 11.7206C39.7186 11.8303 39.7861 11.6531 39.803 11.5265C39.8198 11.4 40.4105 11.3072 40.3261 10.9359C40.1911 10.6322 39.3642 11.1468 39.3642 11.1468L38.7736 11.1384C38.7314 11.0709 38.5795 10.8093 38.4108 10.8093C38.2167 10.8093 38.0733 11.1384 38.0733 11.1384H36.7486C36.7486 11.1384 36.7064 11.4843 37.373 11.5518C37.5248 11.7459 37.643 11.7965 37.778 11.8556C37.6851 11.9315 37.6598 12.0243 37.6598 12.1425Z" fill="#FFC72C" stroke="black" stroke-width="0.0588516" stroke-miterlimit="3.0999"/>
<path d="M37.7695 11.8555H38.9592H37.7695Z" fill="#FFC72C"/>
<path d="M37.7695 11.8555H38.9592" stroke="black" stroke-width="0.0588516" stroke-miterlimit="3.0999"/>
<path d="M37.2209 11.1552C37.2209 11.1552 37.3138 11.7121 37.7609 11.8386L37.2209 11.1552Z" fill="#FFC72C"/>
<path d="M37.2209 11.1552C37.2209 11.1552 37.3138 11.7121 37.7609 11.8386" stroke="black" stroke-width="0.0588516" stroke-miterlimit="3.0999"/>
<path d="M37.1536 11.1384C37.1958 10.9275 37.2802 10.8937 37.3646 10.6153C37.3814 10.3537 37.1536 10.3875 37.2211 10.2272C37.3392 10.0416 37.2802 9.86437 37.0608 9.72093C37.103 9.96562 36.7739 10.1934 36.7739 10.3875C36.7739 10.5816 36.9427 10.5478 36.9258 10.8431C36.9427 11.0119 36.8836 10.9697 36.8583 11.1384H37.1536Z" fill="url(#paint6_linear_769_24707)" stroke="black" stroke-width="0.0588516" stroke-miterlimit="3.0999"/>
<path d="M38.588 9.83062C38.588 9.92343 38.5121 9.99937 38.4192 9.99937C38.3264 9.99937 38.2505 9.92343 38.2505 9.83062C38.2505 9.7378 38.3264 9.66187 38.4192 9.66187C38.5121 9.66187 38.588 9.72937 38.588 9.83062Z" fill="#FFC72C" stroke="black" stroke-width="0.0588516" stroke-miterlimit="3.0999"/>
<path d="M37.3979 13.7877L38.3092 12.4377L39.2458 13.7962" stroke="#FFC72C" stroke-width="0.124234" stroke-miterlimit="3.0999"/>
<path d="M38.5036 13.2815C38.5036 13.3828 38.4192 13.4671 38.3179 13.4671C38.2167 13.4671 38.1323 13.3828 38.1323 13.2815C38.1323 13.1803 38.2167 13.0959 38.3179 13.0959C38.4276 13.0959 38.5036 13.1803 38.5036 13.2815Z" fill="#FFC72C" stroke="black" stroke-width="0.0588516" stroke-miterlimit="3.0999"/>
<path d="M37.5754 14.7918H39.0097C39.0097 14.7918 39.0266 14.6062 38.8579 14.4965C39.6088 14.3953 39.4147 13.7371 40.0307 13.6949C40.1572 13.7118 39.7016 13.9734 39.7016 13.9734C39.7016 13.9734 39.3304 14.2349 39.5075 14.3699C39.6341 14.4796 39.7016 14.3024 39.7185 14.1759C39.7354 14.0493 40.326 13.9565 40.2416 13.5853C40.1066 13.2815 39.2797 13.7962 39.2797 13.7962L38.6891 13.7878C38.6469 13.7203 38.495 13.4587 38.3263 13.4587C38.1322 13.4587 37.9888 13.7878 37.9888 13.7878H36.6641C36.6641 13.7878 36.6219 14.1337 37.2885 14.2012C37.4404 14.3953 37.5585 14.4459 37.6935 14.5049C37.6007 14.5809 37.5754 14.6737 37.5754 14.7918Z" fill="#FFC72C" stroke="black" stroke-width="0.0588516" stroke-miterlimit="3.0999"/>
<path d="M37.6765 14.5048H38.8662H37.6765Z" fill="#FFC72C"/>
<path d="M37.6765 14.5048H38.8662" stroke="black" stroke-width="0.0588516" stroke-miterlimit="3.0999"/>
<path d="M37.1367 13.8046C37.1367 13.8046 37.2295 14.3614 37.6767 14.488L37.1367 13.8046Z" fill="#FFC72C"/>
<path d="M37.1367 13.8046C37.1367 13.8046 37.2295 14.3614 37.6767 14.488" stroke="black" stroke-width="0.0588516" stroke-miterlimit="3.0999"/>
<path d="M37.0606 13.7878C37.1028 13.5768 37.1872 13.5431 37.2715 13.2646C37.2884 13.0031 37.0606 13.0368 37.1281 12.8765C37.2462 12.6909 37.1872 12.5137 36.9678 12.3703C37.01 12.615 36.6809 12.8428 36.6809 13.0368C36.6809 13.2309 36.8497 13.1971 36.8328 13.4925C36.8497 13.6612 36.7906 13.619 36.7653 13.7878H37.0606Z" fill="url(#paint7_linear_769_24707)" stroke="black" stroke-width="0.0588516" stroke-miterlimit="3.0999"/>
<path d="M38.495 12.4714C38.495 12.5642 38.419 12.6401 38.3262 12.6401C38.2334 12.6401 38.1575 12.5642 38.1575 12.4714C38.1575 12.3786 38.2334 12.3026 38.3262 12.3026C38.419 12.3026 38.495 12.3786 38.495 12.4714Z" fill="#FFC72C" stroke="black" stroke-width="0.0588516" stroke-miterlimit="3.0999"/>
<path d="M37.28 16.5044L38.1913 15.1544L39.1278 16.5128" stroke="#FFC72C" stroke-width="0.124234" stroke-miterlimit="3.0999"/>
<path d="M38.3854 15.9896C38.3854 16.0908 38.301 16.1752 38.1998 16.1752C38.0985 16.1752 38.0142 16.0908 38.0142 15.9896C38.0142 15.8883 38.0985 15.804 38.1998 15.804C38.3095 15.8124 38.3854 15.8883 38.3854 15.9896Z" fill="#FFC72C" stroke="black" stroke-width="0.0588516" stroke-miterlimit="3.0999"/>
<path d="M37.4573 17.5001H38.8917C38.8917 17.5001 38.9086 17.3144 38.7398 17.2048C39.4908 17.1035 39.2967 16.4454 39.9126 16.4032C40.0392 16.4201 39.5836 16.6816 39.5836 16.6816C39.5836 16.6816 39.2123 16.9432 39.3895 17.0782C39.5161 17.1879 39.5836 17.0107 39.6005 16.8841C39.6173 16.7576 40.208 16.6648 40.1236 16.2935C39.9886 15.9898 39.1617 16.5044 39.1617 16.5044L38.5711 16.496C38.5289 16.4285 38.377 16.1669 38.2083 16.1669C38.0142 16.1669 37.8708 16.496 37.8708 16.496H36.5376C36.5376 16.496 36.4955 16.8419 37.162 16.9094C37.3139 17.1035 37.432 17.1541 37.567 17.2132C37.4826 17.2976 37.4573 17.3819 37.4573 17.5001Z" fill="#FFC72C" stroke="black" stroke-width="0.0588516" stroke-miterlimit="3.0999"/>
<path d="M37.5586 17.2131H38.7483H37.5586Z" fill="#FFC72C"/>
<path d="M37.5586 17.2131H38.7483" stroke="black" stroke-width="0.0588516" stroke-miterlimit="3.0999"/>
<path d="M37.0186 16.5128C37.0186 16.5128 37.1114 17.0697 37.5586 17.1962L37.0186 16.5128Z" fill="#FFC72C"/>
<path d="M37.0186 16.5128C37.0186 16.5128 37.1114 17.0697 37.5586 17.1962" stroke="black" stroke-width="0.0588516" stroke-miterlimit="3.0999"/>
<path d="M36.9427 16.5044C36.9849 16.2935 37.0692 16.2597 37.1536 15.9813C37.1705 15.7197 36.9427 15.7535 37.0102 15.5932C37.1283 15.4076 37.0692 15.2304 36.8499 15.0869C36.8921 15.3316 36.563 15.5594 36.563 15.7535C36.563 15.9476 36.7317 15.9138 36.7149 16.2091C36.7317 16.3779 36.6727 16.3357 36.6474 16.5044H36.9427Z" fill="url(#paint8_linear_769_24707)" stroke="black" stroke-width="0.0588516" stroke-miterlimit="3.0999"/>
<path d="M38.3771 15.188C38.3771 15.2808 38.3011 15.3568 38.2083 15.3568C38.1155 15.3568 38.0396 15.2808 38.0396 15.188C38.0396 15.0952 38.1155 15.0193 38.2083 15.0193C38.3011 15.0193 38.3771 15.0952 38.3771 15.188Z" fill="#FFC72C" stroke="black" stroke-width="0.0588516" stroke-miterlimit="3.0999"/>
<path d="M37.4233 19.1624L38.3346 17.8124L39.2712 19.1708" stroke="#FFC72C" stroke-width="0.124234" stroke-miterlimit="3.0999"/>
<path d="M38.5287 18.6562C38.5287 18.7574 38.4443 18.8418 38.3431 18.8418C38.2418 18.8418 38.1575 18.7574 38.1575 18.6562C38.1575 18.5549 38.2418 18.4706 38.3431 18.4706C38.4443 18.4706 38.5287 18.5549 38.5287 18.6562Z" fill="#FFC72C" stroke="black" stroke-width="0.0588516" stroke-miterlimit="3.0999"/>
<path d="M37.5922 20.1665H39.0266C39.0266 20.1665 39.0435 19.9809 38.8747 19.8712C39.6256 19.7699 39.4316 19.1118 40.0475 19.0696C40.1741 19.0865 39.7185 19.348 39.7185 19.348C39.7185 19.348 39.3472 19.6096 39.5244 19.7446C39.651 19.8543 39.7185 19.6771 39.7353 19.5505C39.7522 19.424 40.3428 19.3312 40.2584 18.9599C40.1234 18.6562 39.2966 19.1709 39.2966 19.1709L38.706 19.1624C38.6638 19.0949 38.5119 18.8334 38.3431 18.8334C38.1491 18.8334 38.0056 19.1624 38.0056 19.1624H36.681C36.681 19.1624 36.6388 19.5084 37.3053 19.5759C37.4572 19.7699 37.5753 19.8205 37.7103 19.8796C37.6175 19.9555 37.5922 20.0484 37.5922 20.1665Z" fill="#FFC72C" stroke="black" stroke-width="0.0588516" stroke-miterlimit="3.0999"/>
<path d="M37.6934 19.8797H38.883H37.6934Z" fill="#FFC72C"/>
<path d="M37.6934 19.8797H38.883" stroke="black" stroke-width="0.0588516" stroke-miterlimit="3.0999"/>
<path d="M37.1533 19.1792C37.1533 19.1792 37.2461 19.7361 37.6933 19.8627L37.1533 19.1792Z" fill="#FFC72C"/>
<path d="M37.1533 19.1792C37.1533 19.1792 37.2461 19.7361 37.6933 19.8627" stroke="black" stroke-width="0.0588516" stroke-miterlimit="3.0999"/>
<path d="M37.0774 19.1624C37.1196 18.9515 37.204 18.9178 37.2884 18.6393C37.3053 18.3778 37.0774 18.4115 37.1449 18.2512C37.2631 18.0656 37.204 17.8884 36.9846 17.7449C37.0268 17.9896 36.6978 18.2174 36.6978 18.4115C36.6978 18.6056 36.8665 18.5718 36.8496 18.8671C36.8665 19.0359 36.8074 18.9937 36.7821 19.1624H37.0774Z" fill="url(#paint9_linear_769_24707)" stroke="black" stroke-width="0.0588516" stroke-miterlimit="3.0999"/>
<path d="M38.5118 17.8462C38.5118 17.9391 38.4359 18.015 38.3431 18.015C38.2503 18.015 38.1743 17.9391 38.1743 17.8462C38.1743 17.7534 38.2503 17.6775 38.3431 17.6775C38.4359 17.6775 38.5118 17.7534 38.5118 17.8462Z" fill="#FFC72C" stroke="black" stroke-width="0.0588516" stroke-miterlimit="3.0999"/>
<path d="M37.3896 21.8287L38.3009 20.4787L39.2375 21.8372" stroke="#FFC72C" stroke-width="0.124234" stroke-miterlimit="3.0999"/>
<path d="M38.495 21.3223C38.495 21.4236 38.4107 21.5079 38.3094 21.5079C38.2082 21.5079 38.1238 21.4236 38.1238 21.3223C38.1238 21.2211 38.2082 21.1367 38.3094 21.1367C38.4107 21.1367 38.495 21.2211 38.495 21.3223Z" fill="#FFC72C" stroke="black" stroke-width="0.0588516" stroke-miterlimit="3.0999"/>
<path d="M37.5583 22.8326H38.9926C38.9926 22.8326 39.0095 22.647 38.8408 22.5373C39.5917 22.4361 39.3976 21.7779 40.0136 21.7357C40.1401 21.7526 39.6845 22.0142 39.6845 22.0142C39.6845 22.0142 39.3133 22.2757 39.4905 22.4107C39.617 22.5204 39.6845 22.3432 39.7014 22.2167C39.7183 22.0901 40.3089 21.9973 40.2245 21.6261C40.0895 21.3223 39.2626 21.837 39.2626 21.837L38.672 21.8286C38.6298 21.7611 38.478 21.4995 38.3092 21.4995C38.1151 21.4995 37.9717 21.8286 37.9717 21.8286H36.647C36.647 21.8286 36.6048 22.1745 37.2714 22.242C37.4233 22.4361 37.5414 22.4867 37.6764 22.5457C37.5836 22.6217 37.5583 22.7145 37.5583 22.8326Z" fill="#FFC72C" stroke="black" stroke-width="0.0588516" stroke-miterlimit="3.0999"/>
<path d="M37.6597 22.5458H38.8494H37.6597Z" fill="#FFC72C"/>
<path d="M37.6597 22.5458H38.8494" stroke="black" stroke-width="0.0588516" stroke-miterlimit="3.0999"/>
<path d="M37.1196 21.8455C37.1196 21.8455 37.2124 22.4024 37.6596 22.529L37.1196 21.8455Z" fill="#FFC72C"/>
<path d="M37.1196 21.8455C37.1196 21.8455 37.2124 22.4024 37.6596 22.529" stroke="black" stroke-width="0.0588516" stroke-miterlimit="3.0999"/>
<path d="M37.0521 21.8286C37.0942 21.6177 37.1786 21.5839 37.263 21.3055C37.2799 21.0439 37.0521 21.0776 37.1196 20.9173C37.2377 20.7317 37.1786 20.5545 36.9592 20.4111C37.0014 20.6558 36.6724 20.8836 36.6724 21.0777C36.6724 21.2717 36.8411 21.238 36.8242 21.5333C36.8411 21.702 36.7821 21.6598 36.7567 21.8286H37.0521Z" fill="url(#paint10_linear_769_24707)" stroke="black" stroke-width="0.0588516" stroke-miterlimit="3.0999"/>
<path d="M38.4781 20.5209C38.4781 20.6137 38.4022 20.6896 38.3094 20.6896C38.2166 20.6896 38.1406 20.6137 38.1406 20.5209C38.1406 20.4281 38.2166 20.3521 38.3094 20.3521C38.4022 20.3437 38.4781 20.4196 38.4781 20.5209Z" fill="#FFC72C" stroke="black" stroke-width="0.0588516" stroke-miterlimit="3.0999"/>
<path d="M37.3979 24.5118L38.3092 23.1618L39.2458 24.5202" stroke="#FFC72C" stroke-width="0.124234" stroke-miterlimit="3.0999"/>
<path d="M38.5036 24.0054C38.5036 24.1066 38.4192 24.191 38.3179 24.191C38.2167 24.191 38.1323 24.1066 38.1323 24.0054C38.1323 23.9041 38.2167 23.8197 38.3179 23.8197C38.4276 23.8197 38.5036 23.9041 38.5036 24.0054Z" fill="#FFC72C" stroke="black" stroke-width="0.0588516" stroke-miterlimit="3.0999"/>
<path d="M37.5754 25.5157H39.0097C39.0097 25.5157 39.0266 25.3301 38.8579 25.2204C39.6088 25.1191 39.4147 24.461 40.0307 24.4188C40.1572 24.4357 39.7016 24.6972 39.7016 24.6972C39.7016 24.6972 39.3304 24.9588 39.5075 25.0938C39.6341 25.2035 39.7016 25.0263 39.7185 24.8997C39.7354 24.7732 40.326 24.6804 40.2416 24.3091C40.1066 24.0054 39.2797 24.5201 39.2797 24.5201L38.6891 24.5116C38.6469 24.4441 38.495 24.1826 38.3263 24.1826C38.1322 24.1826 37.9888 24.5116 37.9888 24.5116H36.6641C36.6641 24.5116 36.6219 24.8576 37.2885 24.9251C37.4404 25.1191 37.5585 25.1697 37.6935 25.2288C37.6007 25.3047 37.5754 25.3976 37.5754 25.5157Z" fill="#FFC72C" stroke="black" stroke-width="0.0588516" stroke-miterlimit="3.0999"/>
<path d="M37.6765 25.2289H38.8662H37.6765Z" fill="#FFC72C"/>
<path d="M37.6765 25.2289H38.8662" stroke="black" stroke-width="0.0588516" stroke-miterlimit="3.0999"/>
<path d="M37.1367 24.5286C37.1367 24.5286 37.2295 25.0855 37.6767 25.212L37.1367 24.5286Z" fill="#FFC72C"/>
<path d="M37.1367 24.5286C37.1367 24.5286 37.2295 25.0855 37.6767 25.212" stroke="black" stroke-width="0.0588516" stroke-miterlimit="3.0999"/>
<path d="M37.0606 24.5116C37.1028 24.3007 37.1872 24.2669 37.2715 23.9885C37.2884 23.7269 37.0606 23.7607 37.1281 23.6004C37.2462 23.4148 37.1872 23.2376 36.9678 23.0941C37.01 23.3388 36.6809 23.5666 36.6809 23.7607C36.6809 23.9548 36.8497 23.921 36.8328 24.2163C36.8497 24.3851 36.7906 24.3429 36.7653 24.5116H37.0606Z" fill="url(#paint11_linear_769_24707)" stroke="black" stroke-width="0.0588516" stroke-miterlimit="3.0999"/>
<path d="M38.495 23.1954C38.495 23.2882 38.419 23.3642 38.3262 23.3642C38.2334 23.3642 38.1575 23.2882 38.1575 23.1954C38.1575 23.1026 38.2334 23.0267 38.3262 23.0267C38.419 23.0267 38.495 23.1026 38.495 23.1954Z" fill="#FFC72C" stroke="black" stroke-width="0.0588516" stroke-miterlimit="3.0999"/>
<path d="M34.5293 25.7773C34.5293 25.7773 34.9006 26.6379 35.3309 26.1063C35.7528 25.5832 35.6093 25.3554 35.6093 25.3554L34.6559 24.8407L34.3774 25.4313L34.5293 25.7773Z" fill="#FFC72C" stroke="black" stroke-width="0.0588516" stroke-miterlimit="3.0999"/>
<path d="M35.3562 25.6676C35.3562 25.6676 35.4237 25.676 35.4659 25.5832C35.5165 25.4904 35.3562 25.4567 35.2803 25.347L35.2043 25.5073L35.3562 25.6676Z" fill="#FFC6B5" stroke="black" stroke-width="0.0588516" stroke-miterlimit="3.0999"/>
<path d="M33.1962 25.4313L32.3608 25.8869C32.3608 25.8869 31.939 25.9713 31.9137 25.8869C31.8799 25.811 31.9221 25.7351 32.1415 25.7266C32.3608 25.7182 32.943 25.1782 32.943 25.1782L33.1962 25.4313Z" fill="#FFC6B5" stroke="black" stroke-width="0.0588516" stroke-miterlimit="3.0999"/>
<path d="M33.2132 10.5223L33.2385 10.826C33.2554 10.9273 33.0782 11.1551 33.0697 11.1382C33.0529 11.1213 32.9685 11.1551 32.9854 11.2142C32.9938 11.2817 33.1119 11.2985 33.1119 11.2985C33.1119 11.2985 33.0697 11.5179 33.1119 11.5263C33.1626 11.5348 32.9854 11.8048 33.1119 11.8723C33.2469 11.9482 33.4747 12.041 33.5844 12.0242C33.6857 11.9988 33.5844 12.4207 33.5844 12.4207L33.2891 13.0451L34.8838 12.8848L34.5547 12.3617C34.5547 12.3617 34.3944 12.252 34.4366 11.9482C34.4788 11.6529 34.4197 10.2945 34.4197 10.2945L33.2807 10.1342L33.2132 10.5223Z" fill="#FFC6B5" stroke="black" stroke-width="0.0588516" stroke-miterlimit="3.0999"/>
<path d="M32.9177 12.8933C32.9177 12.8933 32.403 13.1295 32.4198 13.7708C32.2933 14.3952 32.2173 15.0111 32.2173 15.0111C32.2173 15.0111 31.6014 15.703 31.4158 15.9561C31.2302 16.2008 30.9433 16.707 30.8505 16.842C30.7492 16.9686 30.3442 17.4158 30.3442 17.5845C30.3611 17.7449 30.2514 18.4874 30.6564 18.5633C30.7577 18.6055 31.0952 17.7111 31.0952 17.7111C31.0952 17.7111 31.112 17.3314 30.9939 17.2555C30.8842 17.188 31.2386 16.9433 31.2386 16.9433L32.0908 16.3105C32.2511 16.1839 32.673 15.7114 32.673 15.7114L32.9177 12.8933Z" fill="#FFC6B5" stroke="black" stroke-width="0.0588516" stroke-miterlimit="3.0999"/>
<path d="M33.5084 12.4039C33.5084 12.4039 33.635 12.7668 33.9387 12.7077C34.2425 12.6402 34.5884 12.3702 34.5884 12.3702C34.5884 12.3702 34.8668 12.3533 34.909 12.4039C34.9512 12.4461 35.6684 13.138 35.6431 13.3489C35.6262 13.5683 35.314 13.5093 35.1959 13.6527C35.0862 13.7961 34.8922 14.1589 34.9512 14.4374C35.0018 14.6989 35.1622 15.0533 35.1368 15.1883C35.12 15.3149 35.0103 15.3655 35.0103 15.433C35.0103 15.5005 35.1031 15.6271 35.1031 15.7621C35.1031 15.8971 34.9765 16.0996 35.0018 16.2346C35.0187 16.3611 35.0272 16.7577 35.0272 16.7577L35.0018 18.5886C35.0018 18.5886 35.1031 18.6477 35.1115 18.7489C35.1284 18.8502 35.8203 21.8624 35.8203 21.8624C35.8203 21.8624 35.7865 21.9636 35.719 21.9468C35.6515 21.9299 35.9975 22.4108 36.0059 22.5458C36.0228 22.6724 36.3687 23.7355 36.3603 23.8789C36.3518 24.0224 36.2928 24.3514 36.2675 24.3599C36.2337 24.3768 36.4953 25.0264 36.4531 25.1277C36.4109 25.2289 35.9975 25.2289 35.9975 25.2289L35.8793 25.2036C35.8793 25.2036 35.8878 25.3386 35.8034 25.3555C35.719 25.3639 35.1115 25.3218 35.1115 25.3218C35.1115 25.3218 34.9343 25.5918 34.8331 25.5833C34.7318 25.5664 34.5884 25.3893 34.5631 25.4146C34.5293 25.4483 34.6559 25.6255 34.6306 25.6761C34.5884 25.7268 34.0653 25.8364 33.964 25.5918C33.8628 25.3471 34.0315 25.4061 33.9893 25.3555C33.964 25.3049 33.7278 25.1699 33.6518 25.2036C33.5843 25.2458 33.8375 25.3049 33.829 25.4146C33.8206 25.5158 33.6012 25.6761 33.5253 25.6761C33.4409 25.6761 33.2468 25.288 32.9515 25.3302C32.6647 25.3724 32.479 25.4483 32.479 25.4483C32.479 25.4483 32.1331 25.5918 31.9897 25.558C31.8462 25.5327 31.7787 25.4146 31.7787 25.3555C31.7787 25.288 31.88 25.018 31.88 24.9336C31.8631 24.8577 31.7787 24.7733 31.7787 24.6468C31.7787 24.5202 32.0234 24.0983 32.0234 24.0983L32.0065 22.1914C32.0065 22.1914 31.7872 22.1914 31.7787 22.0649C31.7703 21.9383 32.1162 19.0527 32.1668 18.8586L32.3525 18.0064C32.3525 18.0064 32.1922 18.0824 32.1837 18.0064C32.1753 17.9389 32.6562 16.2936 32.6562 16.2936C32.6562 16.2936 32.7322 15.4668 32.7322 15.2558C32.7322 15.0364 32.69 14.7411 32.69 14.7411C32.69 14.7411 32.2681 14.5555 32.2512 14.2855C32.209 13.8468 32.6562 13.6021 32.7068 13.4586L32.9178 12.868C32.9093 12.8511 33.1372 12.463 33.5084 12.4039Z" fill="white" stroke="black" stroke-width="0.0588516" stroke-miterlimit="3.0999"/>
<path d="M33.3565 25.5579C33.3565 25.5579 32.3524 26.081 32.209 26.1232C32.0656 26.1654 31.9727 25.946 32.1162 25.9038C32.2596 25.8616 32.4874 25.8363 32.4874 25.8363C32.4874 25.8363 32.1499 25.5663 32.1584 25.5579L32.6309 25.3891C32.6477 25.3891 32.7743 25.6507 32.8671 25.6338C32.9937 25.5747 33.1202 25.4904 33.2299 25.406L33.3565 25.5579Z" fill="#FFC72C" stroke="black" stroke-width="0.0588516" stroke-miterlimit="3.0999"/>
<path d="M34.7656 25.8449C34.8669 25.9714 34.8922 26.1824 35.12 26.0558C35.3394 25.9292 35.0103 25.7014 35.0103 25.7014L34.7656 25.8449Z" fill="#FFC6B5" stroke="black" stroke-width="0.0588516" stroke-miterlimit="3.0999"/>
<path d="M35.1622 25.828C35.1622 25.828 35.2635 25.9123 35.3563 25.8111C35.4491 25.7183 35.1706 25.5242 35.1706 25.5242L35.0356 25.6845L35.1622 25.828Z" fill="#FFC6B5" stroke="black" stroke-width="0.0588516" stroke-miterlimit="3.0999"/>
<path d="M35.6094 13.3996C35.6262 13.3996 35.9469 14.4205 35.9975 14.6821C36.0397 14.9436 36.1747 15.973 36.1241 16.1165C36.0734 16.2599 35.5419 16.9518 35.4828 17.129C35.4153 17.3061 35.044 17.9811 35.044 17.9811C35.044 17.9811 34.9512 18.6477 34.9175 18.673C34.8753 18.7068 35.0187 18.8671 35.0103 18.9177C34.9934 18.9852 34.7065 19.2721 34.5884 19.2468C34.4619 19.213 34.2594 19.0696 34.2594 18.9346C34.2425 18.808 34.2594 18.3524 34.3606 18.2427C34.4534 18.1246 34.9428 16.9771 34.9681 16.9096C35.0019 16.8336 35.4153 15.9308 35.4237 15.779C35.4406 15.6186 35.2972 15.2643 35.1453 15.1293C34.8078 14.1674 34.9428 13.5936 35.6094 13.3996Z" fill="#FFC6B5" stroke="black" stroke-width="0.0588516" stroke-miterlimit="3.0999"/>
<path d="M33.1709 10.4632C33.1709 10.4632 33.4071 10.4969 33.5337 10.421C33.6603 10.3451 33.8037 10.3197 33.905 10.4632C34.0062 10.6066 34.0821 10.5897 34.0821 10.5897C34.0821 10.5897 33.9218 10.9779 34.0821 11.0201C34.234 11.0622 34.31 11.0622 34.3184 11.1129C34.3353 11.1635 34.1918 11.2732 34.2256 11.3322C34.2593 11.3913 34.3353 11.4419 34.3521 11.4926C34.3606 11.5347 34.2593 11.7119 34.2846 11.7541C34.3184 11.7963 34.4112 11.9566 34.4703 11.9566C34.5378 11.9566 34.4871 12.2182 34.6812 12.1507C34.8668 12.0832 34.8584 11.9229 34.8584 11.9229C34.8584 11.9229 35.0525 11.8976 35.1031 11.7204C35.1453 11.5432 35.2718 11.501 35.2718 11.501C35.2718 11.501 35.5165 11.3744 35.1959 11.1635C35.1959 9.71225 34.2425 9.87256 34.2425 9.87256C34.2425 9.87256 34.1328 9.611 33.9387 9.64475C33.7531 9.6785 33.7446 9.88943 33.6096 9.87256C33.4746 9.85568 33.4409 9.76287 33.4325 9.77131C33.4156 9.78818 33.3059 9.99068 33.3059 10.0413C33.3059 10.0919 32.9431 9.97381 32.9768 10.2354C33.0106 10.4969 33.1878 10.4885 33.1709 10.4632Z" fill="#9C5100" stroke="black" stroke-width="0.0588516" stroke-miterlimit="3.0999"/>
<path d="M34.8584 12.8088C34.8584 12.8088 33.9387 13.3994 33.9556 13.6104" stroke="black" stroke-width="0.0588516" stroke-miterlimit="3.0999"/>
<path d="M35.0695 12.9102C35.0695 12.9102 34.8585 13.138 34.8501 13.138" stroke="black" stroke-width="0.0588516" stroke-miterlimit="3.0999"/>
<path d="M35.3395 13.1632C35.3395 13.1632 34.8839 13.5345 34.9514 13.7707" stroke="black" stroke-width="0.0588516" stroke-miterlimit="3.0999"/>
<path d="M33.188 12.7581C33.188 12.7581 33.053 13.0365 33.0867 13.1294C33.112 13.2222 33.3483 13.5765 33.3736 13.7875C33.4073 14.0069 33.3736 14.1587 33.3736 14.1587" stroke="black" stroke-width="0.0588516" stroke-miterlimit="3.0999"/>
<path d="M32.9517 13.2728C32.9517 13.2728 32.9938 13.6018 33.0529 13.6609C33.1204 13.7284 33.2807 14.0068 33.2976 14.1165" stroke="black" stroke-width="0.0588516" stroke-miterlimit="3.0999"/>
<path d="M32.8672 14.6481C32.8672 14.6481 33.1456 14.7747 33.3903 14.26" stroke="black" stroke-width="0.0588516" stroke-miterlimit="3.0999"/>
<path d="M33.787 13.9056C33.7786 13.9056 33.593 14.4118 33.922 14.5975C34.2511 14.7831 34.5042 14.7578 34.6392 14.7072C34.7911 14.665 34.943 14.5637 34.943 14.5637" stroke="black" stroke-width="0.0588516" stroke-miterlimit="3.0999"/>
<path d="M33.6436 14.53C33.6436 14.53 33.6604 15.2135 34.6729 15.88" stroke="black" stroke-width="0.0588516" stroke-miterlimit="3.0999"/>
<path d="M33.6857 15.1712C33.6857 15.1712 33.6688 15.7703 34.0653 16.0403" stroke="black" stroke-width="0.0588516" stroke-miterlimit="3.0999"/>
<path d="M33.4746 14.4626C33.4746 14.4626 33.1708 15.3569 32.9346 15.4413" stroke="black" stroke-width="0.0588516" stroke-miterlimit="3.0999"/>
<path d="M33.3903 15.1207C33.3903 15.1207 33.3734 15.762 33.2891 15.9898" stroke="black" stroke-width="0.0588516" stroke-miterlimit="3.0999"/>
<path d="M33.2131 16.1416C33.2131 16.1416 33.4156 16.4031 33.6434 16.3778C33.8713 16.3609 33.9725 16.0909 34.1244 16.1331C34.2847 16.1753 34.4281 16.3019 34.7825 16.2681" stroke="black" stroke-width="0.0588516" stroke-miterlimit="3.0999"/>
<path d="M34.2593 16.5382C34.2593 16.5382 34.2593 17.0698 34.3605 17.1204C34.4533 17.171 34.4027 17.6604 34.4027 17.6604" stroke="black" stroke-width="0.0588516" stroke-miterlimit="3.0999"/>
<path d="M33.0022 16.2852C33.0022 16.2852 32.9853 16.783 32.9263 16.9602C32.8588 17.1373 32.7406 17.4411 32.7659 17.7027" stroke="black" stroke-width="0.0588516" stroke-miterlimit="3.0999"/>
<path d="M32.3694 17.9894C32.42 17.9725 32.5972 17.8122 32.5972 17.8122" stroke="black" stroke-width="0.0588516" stroke-miterlimit="3.0999"/>
<path d="M32.6901 17.922C32.6901 17.922 32.2429 19.8288 32.3695 20.9679" stroke="black" stroke-width="0.0588516" stroke-miterlimit="3.0999"/>
<path d="M32.7912 18.0232C32.7912 18.0232 32.5634 19.4491 32.6646 19.7191" stroke="black" stroke-width="0.0588516" stroke-miterlimit="3.0999"/>
<path d="M32.6816 17.9727L33.5507 18.0402" stroke="black" stroke-width="0.0588516" stroke-miterlimit="3.0999"/>
<path d="M33.6772 17.922C33.6772 17.922 33.9135 18.0485 34.2426 18.0232" stroke="black" stroke-width="0.0588516" stroke-miterlimit="3.0999"/>
<path d="M33.5676 18.6222C33.5676 18.6222 33.5254 21.0607 33.4663 21.6007" stroke="black" stroke-width="0.0588516" stroke-miterlimit="3.0999"/>
<path d="M34.8416 19.179C34.8416 19.179 35.1116 21.3222 35.2634 21.5162" stroke="black" stroke-width="0.0588516" stroke-miterlimit="3.0999"/>
<path d="M34.3269 19.4492C34.3269 19.4492 34.4872 21.3477 34.5885 21.5164" stroke="black" stroke-width="0.0588516" stroke-miterlimit="3.0999"/>
<path d="M31.9729 22.1745C31.9729 22.1745 32.302 22.0732 32.5888 21.761C32.9179 22.2082 33.4242 21.7779 33.4242 21.7779C33.4242 21.7779 34.2088 22.3179 34.5632 21.7104C35.1032 22.0648 35.3732 21.6598 35.3732 21.6598C35.3732 21.6598 35.5673 21.9635 35.7107 21.9298" stroke="black" stroke-width="0.0588516" stroke-miterlimit="3.0999"/>
<path d="M34.8584 22.1407C34.8584 22.1407 35.255 24.0392 35.8625 24.5707" stroke="black" stroke-width="0.0588516" stroke-miterlimit="3.0999"/>
<path d="M32.7744 21.9466C32.7744 21.9466 32.8166 23.5328 32.9094 24.6466" stroke="black" stroke-width="0.0588516" stroke-miterlimit="3.0999"/>
<path d="M32.6986 23.7354C32.6986 23.7354 32.6479 24.7648 32.5889 24.8492" stroke="black" stroke-width="0.0588516" stroke-miterlimit="3.0999"/>
<path d="M32.0908 24.942C32.0908 24.942 32.2005 25.3892 32.7743 24.9758C33.3396 24.5623 33.3564 25.1361 33.3733 25.1951C33.3902 25.2626 33.483 25.7014 33.7024 25.3301" stroke="black" stroke-width="0.0588516" stroke-miterlimit="3.0999"/>
<path d="M34.158 24.7226C34.158 24.7226 34.0651 25.6338 34.8836 24.9672C35.702 24.2922 35.837 24.9504 35.8623 25.1613" stroke="black" stroke-width="0.0588516" stroke-miterlimit="3.0999"/>
<path d="M34.1752 10.1173C34.1752 10.1173 34.0992 10.5729 34.5886 10.5307C34.5211 10.7838 34.7152 10.8682 34.7152 10.8682" stroke="black" stroke-width="0.0588516" stroke-miterlimit="3.0999"/>
<path d="M35.0693 11.1382C35.0862 11.1382 35.2887 11.2648 35.0693 11.442" stroke="black" stroke-width="0.0588516" stroke-miterlimit="3.0999"/>
<path d="M34.3691 11.5011C34.3691 11.5011 34.4704 11.6276 34.5885 11.6023C34.7066 11.5686 34.8923 11.712 34.8923 11.712C34.8923 11.712 35.0526 11.7626 35.0695 11.7289" stroke="black" stroke-width="0.0588516" stroke-miterlimit="3.0999"/>
<path d="M33.7363 11.8892C33.7363 11.8892 34.0907 12.0242 34.327 11.4673" stroke="black" stroke-width="0.0588516" stroke-miterlimit="3.0999"/>
<path d="M33.0864 11.3069L33.2889 11.3238" stroke="black" stroke-width="0.0588516" stroke-miterlimit="3.0999"/>
<path d="M30.7832 17.8459L30.8001 18.2931" stroke="black" stroke-width="0.0588516" stroke-miterlimit="3.0999"/>
<path d="M30.3613 17.8038C30.3613 17.8038 30.6566 18.2932 30.6229 18.5463" stroke="black" stroke-width="0.0588516" stroke-miterlimit="3.0999"/>
<path d="M33.1118 11.5094H33.2974L33.1371 11.5854" stroke="black" stroke-width="0.0588516" stroke-miterlimit="3.0999" stroke-linejoin="round"/>
<path d="M34.2593 18.8248C34.2593 18.8248 34.4787 18.7995 34.4702 19.1623C34.6052 18.7067 34.8921 18.6983 34.8921 18.6983" stroke="black" stroke-width="0.0588516" stroke-miterlimit="3.0999" stroke-linejoin="round"/>
<path d="M33.3735 10.9356C33.4073 10.9356 33.517 10.8935 33.5338 10.9272C33.5592 10.9525 33.4157 10.9778 33.3735 10.9356Z" stroke="black" stroke-width="0.111156" stroke-miterlimit="3.0999" stroke-linejoin="round"/>
<path d="M33.5169 29.1944C36.2422 29.0678 38.8157 27.8781 40.6804 25.8785C40.6551 25.8531 41.2626 25.001 41.7435 25.1191C42.2244 25.2456 42.9247 26.6716 43.7769 26.9753C44.1988 27.6419 43.6588 28.2494 43.4732 28.3675C43.2876 28.4941 42.4691 28.8231 42.351 28.3422C42.2244 27.8528 41.9882 27.9541 41.9882 27.9541C41.9882 27.9541 38.0985 31.7425 33.6013 31.5991C28.9607 31.6244 25.1301 27.9541 25.1301 27.9541L24.7926 28.3169C24.7926 28.3169 24.4297 28.705 24.2441 28.6797C24.0585 28.646 23.2738 28.1313 23.2147 27.6166C23.1472 27.1019 23.6957 26.7644 23.6957 26.7644C23.6957 26.7644 25.0372 25.735 25.1891 25.1866C25.4929 24.8828 26.0751 25.3975 26.0751 25.3975C26.0751 25.3975 29.6019 29.4391 33.5169 29.1944Z" fill="#FFC72C" stroke="black" stroke-width="0.124234" stroke-miterlimit="3.0999"/>
<path d="M23.6196 26.8405C23.6196 26.8405 23.9824 26.7477 24.109 26.8996C24.2356 27.0515 25.1553 27.9459 25.1553 27.9459" stroke="black" stroke-width="0.124234" stroke-miterlimit="3.0999"/>
<path d="M24.438 27.2624L24.0752 27.5324C24.0752 27.5324 24.9864 27.718 24.7839 28.3171" stroke="black" stroke-width="0.124234" stroke-miterlimit="3.0999"/>
<path d="M28.2433 27.8108C28.218 27.8783 28.1505 27.8108 28.0998 27.8277C27.9733 27.8277 27.8551 27.9205 27.737 27.988L26.5305 28.6883C26.4883 28.6714 26.4967 28.6461 26.5136 28.6124L26.8426 27.1105C26.8595 27.0261 26.8848 26.9164 26.8005 26.8489C26.7667 26.8236 26.8173 26.773 26.8426 26.8236L27.4586 27.2624C27.4417 27.3214 27.3995 27.2792 27.3658 27.2539C27.2814 27.1696 27.1801 27.2455 27.1801 27.3552L26.9608 28.3424C27.2392 28.1821 27.5092 28.0302 27.7876 27.8614C27.8805 27.8192 27.948 27.6927 27.8551 27.6167C27.813 27.5914 27.7539 27.5324 27.813 27.5155L28.2433 27.8108Z" fill="black"/>
<path d="M28.6821 29.9031C28.6653 29.9453 28.6484 29.9453 28.6146 29.92L27.8975 29.5319C27.9059 29.4897 27.9228 29.4813 27.9565 29.5066C28.024 29.5488 28.1253 29.5741 28.1759 29.4897L28.4375 29.0088L28.8003 28.3422C28.8509 28.2578 28.7918 28.1566 28.7159 28.1228C28.6906 28.1059 28.6484 28.0975 28.6821 28.0722C28.699 28.0553 28.7328 28.0891 28.7581 28.0975L29.45 28.4772C29.4415 28.5194 29.4246 28.5194 29.3909 28.4941C29.3234 28.4519 29.2221 28.4266 29.1715 28.5109L28.91 28.9919L28.5471 29.6584C28.4965 29.7344 28.5556 29.8441 28.6315 29.8778L28.6821 29.9031Z" fill="black"/>
<path d="M31.4667 29.2451L31.2727 29.7936C31.1883 29.7851 31.2474 29.6839 31.2221 29.6333C31.1967 29.3801 31.0111 29.1608 30.7664 29.0933C30.5724 29.0426 30.3783 29.1354 30.2602 29.2958C30.0914 29.532 29.9902 29.802 29.9733 30.0973C29.9649 30.2661 30.0408 30.4264 30.1842 30.5192C30.3024 30.5951 30.4374 30.6289 30.5724 30.6204L30.7074 30.207C30.7242 30.1142 30.6314 30.0551 30.5555 30.0383C30.5386 30.0129 30.5724 29.9708 30.5977 30.0045L31.3149 30.2661C31.3149 30.3504 31.2136 30.2492 31.1546 30.2914C31.0702 30.3251 31.0617 30.4264 31.028 30.5108L30.9436 30.7554C30.6146 30.7723 30.2939 30.7133 29.9986 30.5445C29.7286 30.3758 29.543 30.0383 29.6021 29.7176C29.6442 29.4392 29.8214 29.1776 30.0746 29.0511C30.3108 28.9245 30.5977 28.9245 30.8424 29.0258C30.9689 29.0679 31.0871 29.1523 31.1967 29.2451C31.2642 29.3295 31.3824 29.3295 31.433 29.2367L31.4667 29.2451Z" fill="black"/>
<path d="M32.6308 31.1267C32.6308 31.152 32.6308 31.1857 32.5886 31.1688L31.7617 31.0423C31.7617 31.0085 31.7617 30.9832 31.8039 31.0001C31.8714 31.017 31.9727 31.017 31.998 30.9326C32.0402 30.8229 32.0402 30.7048 32.0655 30.5951L32.2089 29.6417C32.2258 29.5742 32.2089 29.4982 32.133 29.4729C32.0908 29.456 32.0486 29.456 32.0064 29.4392C32.0064 29.4138 32.0064 29.3885 32.0486 29.397L32.8755 29.5235C32.8755 29.5488 32.8755 29.5742 32.8333 29.5657C32.7658 29.5488 32.673 29.5488 32.6392 29.6332C32.597 29.7345 32.597 29.8526 32.5717 29.9707L32.4283 30.9242C32.4114 30.9917 32.4283 31.076 32.5042 31.1013L32.6308 31.1267Z" fill="black"/>
<path d="M34.8668 30.5951L34.8331 31.1773L33.3565 31.2532C33.3481 31.2195 33.3565 31.2026 33.3987 31.211C33.4746 31.211 33.5674 31.1773 33.5843 31.0929L33.5674 30.6626L33.5253 29.7851C33.5337 29.7007 33.4578 29.6332 33.3734 29.6417C33.3481 29.6248 33.2721 29.667 33.2806 29.6248C33.2637 29.5826 33.3228 29.6079 33.3481 29.5995L34.1749 29.5573C34.1749 29.5995 34.1749 29.6163 34.1328 29.6079C34.0568 29.6079 33.964 29.6248 33.9387 29.7092C33.9303 29.8357 33.9471 29.9538 33.9556 30.0804L33.9978 30.9917C33.9978 31.0676 34.0653 31.1351 34.1412 31.1182C34.2593 31.1098 34.3859 31.1182 34.504 31.0845C34.6643 31.0423 34.7487 30.8735 34.7993 30.7217C34.8331 30.6795 34.7993 30.5782 34.8668 30.5951Z" fill="black"/>
<path d="M36.0144 29.1691C35.9722 29.1691 35.9975 29.2198 35.9807 29.2451C35.9132 29.7344 35.8541 30.2238 35.7866 30.7132C35.7697 30.8229 35.7444 30.9494 35.6432 31.0001C35.601 31.0169 35.6347 31.076 35.6769 31.0423L36.1663 30.8904C36.1579 30.8144 36.065 30.8904 36.006 30.8735C35.8963 30.8735 35.8794 30.7385 35.8963 30.6541C35.8963 30.5866 35.9132 30.536 35.9132 30.4769L36.4785 30.3082C36.5544 30.401 36.6304 30.4854 36.6979 30.5866C36.7485 30.6794 36.6304 30.7132 36.5713 30.7385C36.5291 30.7385 36.5544 30.806 36.5882 30.7807L37.3307 30.5613C37.3307 30.4769 37.2294 30.5613 37.1788 30.4938C37.0354 30.3926 36.9341 30.2491 36.8244 30.1226L36.0144 29.1691ZM36.0144 29.7598L36.4025 30.2407L35.9216 30.3841L36.0144 29.7598Z" fill="black"/>
<path d="M38.5372 28.0723L38.7565 28.4604C38.689 28.5279 38.6553 28.3845 38.5962 28.3676C38.495 28.2833 38.3515 28.2664 38.2334 28.3339L38.1069 28.4098L38.7481 29.608C38.7819 29.7092 38.9084 29.7261 38.9928 29.6755C39.0181 29.6501 39.0519 29.6333 39.0603 29.6839C38.959 29.7514 38.8325 29.8105 38.7228 29.8695L38.3009 30.0973C38.2672 30.0636 38.284 30.0467 38.3262 30.0298C38.4106 30.0045 38.4528 29.9117 38.419 29.8273C38.4106 29.8105 38.4022 29.802 38.3937 29.7851L37.7609 28.6123C37.6428 28.6798 37.4994 28.7305 37.4656 28.8739C37.4319 28.9751 37.4825 29.0848 37.4825 29.1608C37.4487 29.203 37.4403 29.1439 37.415 29.1186L37.2378 28.7811L38.5372 28.0723Z" fill="black"/>
<path d="M39.5414 27.4732L39.9464 28.0132C40.0392 27.9457 40.1151 27.8444 40.0898 27.7263C40.1067 27.6335 39.9717 27.5322 40.0139 27.4647C40.0392 27.4479 40.0561 27.5154 40.0814 27.5407L40.5539 28.1651C40.4864 28.2326 40.4526 28.0891 40.3851 28.0722C40.2923 28.0047 40.1658 27.971 40.073 28.0469C39.997 28.0722 40.0055 28.1144 40.0561 28.1566C40.1573 28.2916 40.267 28.4435 40.3851 28.5785C40.4526 28.646 40.5455 28.5785 40.6045 28.5279C40.7648 28.4266 40.8998 28.2494 40.8914 28.0554C40.9083 27.9626 40.8492 27.8697 40.8492 27.7938C40.8914 27.7516 40.8914 27.8191 40.9167 27.8444L41.1361 28.2326L39.9717 29.1101C39.9295 29.0763 39.9717 29.051 40.0055 29.0341C40.1067 28.9666 40.0814 28.8316 40.0055 28.7557L39.263 27.7854C39.1955 27.701 39.0773 27.7432 39.0183 27.8022C38.9845 27.8444 38.9508 27.7685 39.0014 27.7601L40.0814 26.9416L40.3767 27.3297C40.3092 27.3972 40.2501 27.2454 40.1742 27.2369C40.0308 27.161 39.862 27.2201 39.7439 27.3129L39.5414 27.4732Z" fill="black"/>
</g>
</g>
<defs>
<linearGradient id="paint0_linear_769_24707" x1="27.4262" y1="10.4112" x2="26.6824" y2="10.3015" gradientUnits="userSpaceOnUse">
<stop stop-color="#FF0000"/>
<stop offset="1" stop-color="#FFFF00"/>
</linearGradient>
<linearGradient id="paint1_linear_769_24707" x1="27.374" y1="13.1117" x2="26.6302" y2="13.0021" gradientUnits="userSpaceOnUse">
<stop stop-color="#FF0000"/>
<stop offset="1" stop-color="#FFFF00"/>
</linearGradient>
<linearGradient id="paint2_linear_769_24707" x1="27.3544" y1="15.7731" x2="26.6106" y2="15.6635" gradientUnits="userSpaceOnUse">
<stop stop-color="#FF0000"/>
<stop offset="1" stop-color="#FFFF00"/>
</linearGradient>
<linearGradient id="paint3_linear_769_24707" x1="29.1003" y1="18.6568" x2="28.3565" y2="18.5471" gradientUnits="userSpaceOnUse">
<stop stop-color="#FF0000"/>
<stop offset="1" stop-color="#FFFF00"/>
</linearGradient>
<linearGradient id="paint4_linear_769_24707" x1="27.1253" y1="21.0171" x2="26.3816" y2="20.9075" gradientUnits="userSpaceOnUse">
<stop stop-color="#FF0000"/>
<stop offset="1" stop-color="#FFFF00"/>
</linearGradient>
<linearGradient id="paint5_linear_769_24707" x1="27.1778" y1="23.8029" x2="26.434" y2="23.6932" gradientUnits="userSpaceOnUse">
<stop stop-color="#FF0000"/>
<stop offset="1" stop-color="#FFFF00"/>
</linearGradient>
<linearGradient id="paint6_linear_769_24707" x1="36.9927" y1="10.4572" x2="36.249" y2="10.3475" gradientUnits="userSpaceOnUse">
<stop stop-color="#FF0000"/>
<stop offset="1" stop-color="#FFFF00"/>
</linearGradient>
<linearGradient id="paint7_linear_769_24707" x1="36.901" y1="13.1054" x2="36.1572" y2="12.9957" gradientUnits="userSpaceOnUse">
<stop stop-color="#FF0000"/>
<stop offset="1" stop-color="#FFFF00"/>
</linearGradient>
<linearGradient id="paint8_linear_769_24707" x1="36.7835" y1="15.8188" x2="36.0397" y2="15.7091" gradientUnits="userSpaceOnUse">
<stop stop-color="#FF0000"/>
<stop offset="1" stop-color="#FFFF00"/>
</linearGradient>
<linearGradient id="paint9_linear_769_24707" x1="36.9206" y1="18.4803" x2="36.1768" y2="18.3706" gradientUnits="userSpaceOnUse">
<stop stop-color="#FF0000"/>
<stop offset="1" stop-color="#FFFF00"/>
</linearGradient>
<linearGradient id="paint10_linear_769_24707" x1="36.8878" y1="21.148" x2="36.144" y2="21.0383" gradientUnits="userSpaceOnUse">
<stop stop-color="#FF0000"/>
<stop offset="1" stop-color="#FFFF00"/>
</linearGradient>
<linearGradient id="paint11_linear_769_24707" x1="36.901" y1="23.8288" x2="36.1572" y2="23.7192" gradientUnits="userSpaceOnUse">
<stop stop-color="#FF0000"/>
<stop offset="1" stop-color="#FFFF00"/>
</linearGradient>
<clipPath id="clip0_769_24707">
<path d="M0 20C0 8.95431 8.95431 0 20 0C31.0457 0 40 8.95431 40 20C40 31.0457 31.0457 40 20 40C8.95431 40 0 31.0457 0 20Z" fill="white"/>
</clipPath>
<clipPath id="clip1_769_24707">
<rect width="54" height="40.5" fill="white" transform="translate(-7 0.000732422)"/>
</clipPath>
</defs>
</svg>
