<svg width="40" height="40" viewBox="0 0 40 40" fill="none" xmlns="http://www.w3.org/2000/svg">
<g clip-path="url(#clip0_769_17653)">
<path d="M0 20C0 8.95431 8.95431 0 20 0C31.0457 0 40 8.95431 40 20C40 31.0457 31.0457 40 20 40C8.95431 40 0 31.0457 0 20Z" fill="#E94E0F"/>
<g clip-path="url(#clip1_769_17653)">
<path d="M-7 19.9999H46.3333V39.9999H-7V19.9999Z" fill="#00AB39"/>
<path d="M-7 -6.10352e-05H46.3333V19.9999H-7V-6.10352e-05Z" fill="white"/>
<path d="M27.9166 5.89993H27.9082H27.9166ZM27.9082 5.89993C24.6074 7.67632 21.4872 9.76951 18.5916 12.1499C17.1749 13.3916 17.5749 14.3749 17.5166 15.4833C17.5666 16.2333 17.3582 16.9333 16.8999 17.3499L13.7499 17.9833L13.4499 17.1166C13.5416 16.6666 13.9082 16.4499 14.6916 16.7249C14.7499 16.1583 14.2832 15.9249 13.7499 15.7249C13.5582 15.5749 13.3332 15.4749 13.3582 14.9749C13.2749 13.8499 15.0749 15.0583 15.0916 15.0583C15.1082 15.0583 15.0249 13.9166 14.1999 13.6916C13.7499 13.5333 13.5582 13.0583 13.7332 12.7083C14.0916 11.9833 14.7749 12.7583 15.2916 12.7916C15.2749 12.3166 15.1416 11.9833 14.7332 11.6083C14.5166 11.4666 13.9832 11.3666 13.9666 11.1416C13.9582 10.8416 14.4666 10.7083 15.1749 10.7916C15.0249 10.3666 14.5499 10.0916 13.8999 9.8916L13.5166 9.2166C13.3332 8.88327 13.2499 8.8666 13.6749 8.23327C14.0499 7.98327 14.5582 7.63327 14.9416 7.3916L14.5249 7.3416C14.5749 6.88327 14.5832 6.72493 14.6916 5.9666C14.2749 6.52493 13.7749 6.42493 13.3082 6.64993C13.3082 6.64993 12.0082 6.88327 11.5832 7.4416L8.2999 7.27493C7.5999 7.3666 7.00823 7.5666 6.89157 8.2416C5.2999 8.40827 3.63324 8.2666 2.41657 9.78327C3.2499 9.74993 3.96657 9.54993 4.8999 9.6666C4.8999 9.6666 5.69157 9.68327 5.8499 10.5249C5.86657 10.5583 6.1249 10.5583 6.1249 10.5583L6.4249 10.7916L6.54157 10.4749L6.80824 10.6583L6.89157 10.3083L7.15824 10.4916L7.1749 10.0749L7.5249 10.3249V9.7666C7.5249 9.7666 8.8249 9.7666 9.2249 10.5999C9.24157 10.6083 5.58324 11.2666 2.0499 10.9583L3.06657 10.4583C1.78324 10.1916 0.566569 9.95827 -0.566764 9.0666C-0.141765 10.6833 2.0749 12.5749 2.53324 12.5666L2.0999 11.7833L5.93324 11.9499C6.0749 12.3749 6.01657 12.8499 6.3499 13.2249C6.3499 13.2249 6.14157 13.9249 6.61657 14.2083C6.63323 14.2416 7.1749 12.7916 7.1749 12.7916C7.1749 12.7916 7.34157 13.1833 7.50824 13.4416C7.75824 12.1916 9.1249 11.9833 9.1249 11.9833L9.40824 12.6499C8.98324 12.7166 8.4499 13.5833 8.74157 14.0666C8.4499 14.0666 7.94157 14.9083 8.0999 15.3666C7.85824 15.6083 7.26657 15.9249 7.40824 16.9333C6.94157 17.0333 6.65824 17.8916 6.80824 18.8083C6.0749 19.4833 6.25823 20.7249 6.90824 21.2333C6.64157 21.4833 6.4749 21.6583 6.4749 21.9583C6.21657 21.8666 5.9749 21.9416 5.86657 22.1083C5.5499 21.7833 5.0999 21.5083 4.78324 21.8083C4.6999 21.4249 4.1999 21.0083 3.65824 21.0583C3.6805 20.8183 3.61752 20.5782 3.48037 20.3801C3.34321 20.182 3.14064 20.0385 2.90824 19.9749C2.90824 19.9749 2.78324 18.0916 2.21657 17.4749C2.15824 17.1416 2.2499 16.9083 2.71657 16.6249C3.19157 16.3749 3.29157 16.1833 3.2499 15.4666C3.44157 14.9916 3.58324 14.5083 2.9999 14.1833C3.01657 14.7499 2.8499 15.0166 2.61657 15.2666C2.34157 15.2333 2.2499 15.5499 2.06657 15.6833C1.80824 15.3416 2.60824 14.7999 2.01657 14.0249C1.98324 13.9916 1.5999 13.0249 0.658236 13.0416C1.0999 13.2999 1.29157 13.7416 1.29157 14.1999C0.944248 14.968 0.890874 15.8368 1.14157 16.6416C0.749902 16.0583 0.524903 14.9416 0.199903 14.7499C-0.0834308 14.6916 -0.216764 14.0249 -1.3251 14.2166C-0.850098 14.3416 -0.691764 14.7083 -0.575098 15.0333C-0.858431 15.1833 -0.716764 15.5833 -0.500098 15.8583C-0.541764 16.4999 -0.158431 16.8749 0.416569 17.1083L0.133236 19.7499C-0.0917643 19.7249 -0.450098 20.6166 -0.583431 20.6416C-0.808431 20.7833 -1.2001 21.1583 -0.750098 21.2666C-0.883431 21.7416 -1.00843 22.0333 -1.7251 22.1333C-1.7251 22.1333 -0.975097 22.5833 -0.341764 21.8166C0.324903 21.7999 0.108235 20.9999 0.433236 20.6499C0.433236 20.6249 0.624902 20.5083 0.891569 19.7999C1.00824 20.4333 1.65824 22.3666 3.11657 23.3249C4.39157 24.6916 5.4499 25.9833 5.43324 27.7999C5.92283 27.2615 6.27455 26.6124 6.45824 25.9083C7.28964 25.6588 8.15838 25.5573 9.0249 25.6083C8.8749 25.9333 8.6999 26.2416 8.91657 26.4416C8.2999 26.6583 8.16657 27.1083 8.41657 27.5499C7.76657 27.9916 7.7249 28.2749 7.71657 29.0083C6.50824 30.5499 5.76657 30.4999 4.5749 30.0916C4.19157 29.8666 3.5749 29.5416 3.2999 29.7166C2.79157 29.3666 2.0499 29.3166 1.9249 30.0999C2.31657 29.7749 2.54157 29.8416 2.8499 30.1499C2.79157 30.3083 2.74157 30.4583 2.96657 30.5499L2.66657 30.8833C2.11657 30.7999 1.36657 30.7999 1.1749 31.6083C1.45824 31.3666 2.09157 31.3166 2.59157 31.5416L2.88324 31.6416L2.91657 32.0249C2.91657 32.0249 2.16657 31.9083 1.96657 33.1333C2.66657 32.3833 3.16657 32.5749 3.16657 32.5749C3.44157 32.9749 4.44157 32.9166 5.16657 32.2583C6.1749 31.6916 6.4749 32.5083 7.1249 31.9749C7.66657 31.5749 8.30824 31.8416 8.7499 32.3083C9.25824 32.4999 9.79157 32.6583 10.2082 32.3083C10.2082 32.3083 10.7249 31.9833 11.2332 32.5083C11.2332 31.9249 10.8166 31.5999 10.2499 31.5916L10.0832 31.4249C9.54157 31.3083 8.94157 31.3583 8.46657 31.0916C8.65078 30.2503 9.05644 29.4735 9.64157 28.8416C10.4166 28.0083 10.9916 27.6249 11.9749 26.3499C11.9332 27.0749 12.4832 27.8749 12.7749 28.5999C12.7749 28.5999 13.3582 27.6749 13.4416 26.9083C13.4666 26.9083 14.1832 26.5416 14.4832 26.2166C15.1332 26.6249 16.1832 25.8999 16.8666 25.2999C17.2832 25.4666 17.6082 25.4499 18.0916 25.2999C17.6999 26.0999 18.3166 26.8416 19.2999 27.1499C19.3832 27.8499 20.0999 27.9999 21.1749 27.9999C21.2249 28.4166 21.8666 28.4749 21.8666 28.4749C21.4499 28.6583 21.2499 28.8499 21.2582 29.2749C20.8416 29.2749 20.5332 29.3833 20.4249 29.8583C19.8499 29.8749 19.2666 29.9166 18.7749 30.1916C18.2499 30.1166 17.6082 29.8999 17.1999 29.4749C16.9916 29.2999 16.9332 29.0416 16.5666 28.9416C16.3332 28.6666 16.0499 28.7249 15.9582 28.9916C15.7166 28.7999 14.8082 28.7166 14.6499 29.5749C15.0832 29.2666 15.4582 29.1499 15.7332 29.5333C15.5832 29.7916 16.0832 29.9499 16.5166 30.0499C16.8249 30.0666 17.3666 30.3499 17.5332 30.8166C17.2995 30.8843 17.0538 30.8999 16.8134 30.8625C16.573 30.8251 16.3437 30.7354 16.1416 30.5999C15.9916 30.4749 15.8057 30.401 15.6108 30.389C15.416 30.377 15.2224 30.4276 15.0582 30.5333C14.6916 30.2999 13.8332 30.7416 13.7999 31.4416C14.1582 31.1083 14.4916 30.9416 14.8249 31.1583C14.6582 31.1916 14.7166 31.2083 14.7416 31.3083L15.5749 31.7916C15.1582 31.8999 14.7749 32.0666 14.9582 32.8333C14.9582 32.8333 15.2916 32.1666 16.0416 32.4166C16.0582 32.3916 16.1499 32.6499 16.3666 32.4749C16.6916 32.1083 17.4332 31.9416 18.0916 31.8749C18.6166 31.8166 19.1416 31.6583 19.5916 31.9583C20.0082 31.7499 20.4582 31.6083 20.9249 31.9416C21.4749 32.1083 21.8749 32.7583 22.5666 32.4666C22.9166 32.2166 23.3416 32.2166 23.7749 32.6999C23.7749 32.0833 23.3166 31.8749 22.6666 31.7416L22.2166 31.4749C21.7999 31.4083 21.3832 31.4833 20.9582 31.2833C21.9547 31.0443 22.8933 30.6086 23.719 30.0019C24.5447 29.3951 25.2409 28.6295 25.7666 27.7499L26.8082 28.1166C27.0582 28.1333 27.0749 28.2166 27.5832 28.3666C27.5999 27.6249 27.2749 26.8583 25.9332 26.7833L24.1832 26.1166C23.7999 25.7166 23.6332 24.8749 24.1082 24.3833C24.5749 23.9666 24.6582 24.0166 24.9666 23.5083C25.3416 23.4749 25.6916 23.8583 26.0332 23.8583C26.1999 24.3499 27.1499 24.7749 27.7499 24.6333C28.1249 24.9666 28.8332 25.1499 29.6249 24.8833C29.8504 25.0937 30.1348 25.2304 30.44 25.2751C30.7453 25.3197 31.0569 25.2703 31.3332 25.1333C31.5166 25.3166 31.8999 25.4666 32.3332 25.3666C32.3749 25.3666 32.5666 25.8499 33.0416 26.0249C32.8332 26.2249 32.9582 27.1083 33.1832 27.4333C33.0221 27.763 32.9952 28.1424 33.1082 28.4916C32.6249 28.7999 32.5249 29.0333 32.7416 29.5583C32.1082 30.5833 31.3499 30.6999 30.6332 30.3916L29.8582 29.8916L29.0416 29.0916C28.8999 28.9583 28.6082 28.9249 28.5499 29.2083C28.5499 29.2083 27.4999 28.9749 27.4082 29.8666C27.8499 29.4416 28.4666 29.8166 28.4666 29.8333C28.4666 29.8499 28.3166 29.9499 28.4332 30.1166C28.4582 30.0916 29.2082 30.3916 29.8666 30.6749C30.2249 30.8166 30.3082 30.8583 30.4666 30.9416C30.2676 30.8504 30.0676 30.7615 29.8666 30.6749C29.5774 30.5416 29.2672 30.4598 28.9499 30.4333C28.5832 30.3999 28.1832 30.3499 27.9999 30.6333C27.5999 30.7999 26.9666 30.9416 26.9999 31.6916C27.2666 31.2416 27.6416 31.2666 28.1166 31.3083L28.0832 31.4083C28.5999 31.6416 28.4999 31.3416 28.9832 31.2999C29.4172 31.2934 29.8489 31.3639 30.2582 31.5083C29.8832 31.6166 29.3666 31.5666 29.1249 31.8416C29.0749 31.9249 28.9166 31.8916 28.9916 32.1083C28.9916 32.1083 28.2416 32.0916 28.0499 33.1083C28.7999 32.6333 29.3749 32.6499 29.3832 32.6499L29.6249 32.6999L30.5416 32.0916C30.5666 32.0916 31.4249 31.7083 31.8166 32.1416C32.1666 32.3083 32.5332 32.3249 32.8999 32.1083C33.5999 31.7999 34.2582 31.7749 34.8999 32.2083L35.4916 32.5583L35.7416 32.3916C35.7416 32.3916 36.4082 32.2083 36.8916 32.7999C36.6916 31.7749 35.9582 31.7416 35.9582 31.7416L35.7916 31.5916L34.7582 31.1833C34.5999 30.8083 34.2249 30.5166 34.5999 30.0666C34.9916 28.1416 35.4499 26.6999 34.6999 24.7499C35.3999 25.0499 35.9249 25.9833 36.7999 25.6583C36.7999 24.8749 33.9166 23.3833 31.7166 22.1916C35.3332 21.9999 39.6666 19.3416 37.9999 15.9583L38.7832 13.5083C39.1582 14.2583 39.9082 14.8249 40.5832 15.0666C40.0249 14.0083 39.7082 10.7666 40.0249 8.53327C38.5507 10.303 36.9612 11.9733 35.2666 13.5333C36.0999 13.7333 36.8416 13.5916 37.6499 13.4916L36.9666 14.9083C34.7499 13.5999 32.1499 14.5749 32.1332 16.3083C32.2082 18.3249 34.6999 18.6166 36.1416 17.9083C35.8582 19.7499 31.6249 19.0749 31.6249 19.0749C30.1249 18.5583 28.6999 18.6416 27.1249 18.6583C27.4499 17.6499 29.2666 16.7499 30.6582 17.1499C28.7166 14.9666 30.9332 12.2583 33.6082 11.4333C30.6916 10.4666 33.1999 8.2416 35.3832 6.64993C35.3832 6.64993 29.1082 9.2916 28.5332 9.28327C26.7499 9.14993 27.2332 7.03327 27.9166 5.89993H27.9082ZM8.20824 8.43327C8.35824 8.43327 8.5249 8.44993 8.66657 8.48327C8.9499 8.55827 9.29157 8.5916 9.29157 8.68327C9.15824 8.89993 8.83324 9.15827 8.51657 9.14993C8.1999 9.13327 8.01657 8.9416 7.91657 8.4666C7.9499 8.44993 8.06657 8.43327 8.20824 8.43327ZM34.6249 15.8833C35.0416 15.8833 35.5332 16.0499 36.0082 16.5666C35.7832 17.2333 33.7749 17.5666 33.6416 16.5833C33.5999 16.2833 34.0249 15.8916 34.6249 15.8833Z" fill="#D21034" stroke="black" stroke-width="0.116667"/>
<path d="M10.2832 14.2666L10.5916 14.7083L10.2832 14.2666ZM10.5749 14.7166C10.5749 14.7166 10.5749 15.3166 10.6999 15.3249L10.5749 14.7166ZM10.4249 15.6499L10.7416 16.1749L10.4249 15.6499ZM9.86657 16.3083C9.88323 16.3083 10.2582 16.7416 10.2582 16.7416L9.86657 16.3083ZM10.5832 16.4083C10.5832 16.4249 10.9332 17.0833 10.9582 17.0833L10.5832 16.4083ZM10.1249 16.8666C10.1249 16.8666 10.2416 17.6666 10.3499 17.6416L10.1249 16.8666ZM9.5999 18.3333L9.9499 18.8749L9.5999 18.3333ZM10.2582 17.7666C10.2582 17.7666 10.4499 18.5249 10.5999 18.4583L10.2582 17.7666ZM10.7582 17.3083C10.7666 17.3249 11.1166 17.8166 11.2082 17.7499L10.7582 17.3083ZM11.1249 17.9416L11.4582 18.6083L11.1249 17.9416ZM10.5749 18.4583L10.8499 19.2416L10.5749 18.4583ZM9.93323 18.8583C9.93323 18.8583 10.1832 19.6999 10.4082 19.5666L9.93323 18.8583ZM9.84157 19.9833C9.84157 19.9833 9.85823 20.4249 10.0749 20.4499L9.84157 19.9833ZM10.2249 19.7583C10.2249 19.7749 10.4499 20.0749 10.4499 20.0749L10.2249 19.7583ZM10.8666 19.2333L11.0416 19.5249L10.8666 19.2333ZM11.4499 18.6916L11.7249 19.0333L11.4499 18.6916ZM10.1666 14.7249C10.1749 15.0999 10.7666 14.5916 10.9999 14.2749L10.1666 14.7249ZM9.91657 16.0249C9.91657 16.0249 10.5582 15.5666 11.0582 14.8749L9.91657 16.0249ZM9.6999 17.1166C10.1582 16.9916 10.9999 15.9749 11.1666 15.4333L9.6999 17.1166ZM9.60824 18.1249C9.73324 18.1833 11.2999 17.0416 11.3416 16.2166L9.60824 18.1249ZM9.56657 18.9999C9.56657 18.9916 10.9999 18.6333 11.5916 17.0583L9.56657 18.9999ZM9.4999 20.1916C9.4999 20.1916 11.7916 18.8166 11.9166 17.8083L9.4999 20.1916ZM27.3666 22.4999C27.3666 22.4999 27.2166 23.6833 26.0332 23.8666L27.3666 22.4999ZM27.7416 24.6166C27.7499 24.5999 28.8749 23.3666 28.5832 22.9916L27.7416 24.6166ZM30.3416 23.4249C30.3416 23.4249 30.3249 24.2833 29.6249 24.8749L30.3416 23.4249ZM31.7416 23.6749C31.7416 23.6749 31.7666 24.7083 31.3249 25.1249L31.7416 23.6749ZM33.0249 24.2916C33.0249 24.2916 32.5249 25.2666 32.3499 25.3666L33.0249 24.2916ZM33.0082 26.0166C33.0082 26.0166 33.6582 26.1833 33.8666 25.7499L33.0082 26.0166ZM33.1749 27.4249C33.1749 27.4249 33.7749 27.5333 34.0582 26.9583L33.1749 27.4249ZM33.1082 28.5166C33.1082 28.5166 33.5999 28.9333 33.9332 28.3833L33.1082 28.5166ZM26.0999 20.5166C26.0999 20.5166 26.0416 22.6249 28.9999 23.0499C32.3082 23.9666 33.8749 23.4833 34.0666 27.1916C33.9416 28.6083 33.7666 30.1916 32.7332 29.5833L26.0999 20.5166ZM22.9499 22.4583C22.9499 22.4583 23.4249 23.2999 23.9916 23.2416C24.7416 23.0249 25.0166 23.4833 25.0166 23.4833L22.9499 22.4583ZM20.9332 23.2999C20.9332 23.2999 22.1832 23.9083 23.2416 22.9249L20.9332 23.2999ZM21.0749 22.4249C21.1832 23.8833 19.3999 24.7166 18.6916 24.5749L21.0749 22.4249ZM21.1582 27.9916C21.1666 27.9916 22.1249 27.4249 21.9332 27.0249L21.1582 27.9916ZM19.2582 27.1499C19.2832 27.1166 20.8666 26.9666 21.1582 26.3999L19.2582 27.1499ZM18.5249 24.8166C18.5249 24.8166 20.7666 24.8333 20.9166 25.2416L18.5249 24.8166ZM21.4999 23.4916C21.4999 23.4916 19.3166 27.2333 23.3499 27.2333L21.4999 23.4916ZM19.1832 23.4416C19.1832 23.4416 18.7166 24.8333 18.0499 25.3083L19.1832 23.4416ZM16.8666 22.9583C16.8666 22.9583 17.6749 24.5249 16.8666 25.2999V22.9583ZM14.7499 23.3999C14.7582 23.4249 15.0082 25.6249 14.4582 26.2499L14.7499 23.3999ZM13.6916 23.4666C13.6916 23.4666 13.7749 24.8666 13.3582 25.3666C12.9416 25.8666 13.4582 26.8999 13.4582 26.8999L13.6916 23.4666ZM8.41657 27.5666C8.41657 27.5666 8.71657 28.0916 9.1249 27.9083L8.41657 27.5666ZM8.91657 26.4249C8.91657 26.4249 9.58323 26.7166 9.80823 26.6083L8.91657 26.4249ZM9.64157 24.0749C9.64157 24.0749 8.65823 24.3499 9.03323 25.5166C9.5999 25.9749 10.1499 25.8999 10.1499 25.8999L9.64157 24.0749ZM7.6999 29.0166C7.69157 29.0166 7.81657 29.9333 8.4499 29.2416C8.89157 28.3083 10.2832 25.6916 10.6082 24.7916L7.6999 29.0166ZM11.2582 24.3666C11.2582 24.3666 10.5832 23.8416 10.6082 24.5749C10.5916 25.0333 10.8166 25.1416 10.8166 25.1416C10.8416 25.4749 11.1332 25.9416 11.3666 25.5166C11.4666 25.0999 11.2999 24.9166 11.2999 24.9166L11.2582 24.3666ZM11.6916 24.1666C11.0832 24.1333 10.7499 25.4749 11.9249 24.6333L11.6916 24.1666ZM12.3249 23.7166C12.3249 23.7166 12.1749 23.9249 11.9332 23.6999C11.8082 23.4833 11.3666 24.6999 12.1416 24.7416C12.2832 24.3833 12.7082 24.2833 12.7082 24.2833L12.3249 23.7166ZM13.0749 23.1333C13.0749 23.1333 12.7249 23.2999 12.5999 23.2749C12.1832 23.3666 12.2666 24.3416 12.7916 24.2833C12.9749 24.0749 13.1666 23.7833 13.1666 23.7833L13.0749 23.1333ZM9.80823 21.8666C9.79157 21.8666 8.43324 24.0083 10.5666 24.5749L9.80823 21.8666ZM27.0666 18.6583C27.0666 18.6583 26.2332 19.3583 27.0082 20.4916C24.4249 20.4499 23.0499 21.6416 22.9416 22.4416C19.6582 22.2083 20.2582 23.1749 19.1916 23.4916C17.7666 22.2999 15.6749 22.9666 15.8082 24.1583C14.8582 22.8166 13.3916 23.4666 13.2082 23.7999C13.0332 24.1333 13.0999 22.1499 13.0999 22.1499C13.0999 22.1499 12.1416 22.5833 11.4832 23.3666V21.7083C10.6832 21.8749 9.90823 21.8749 9.08323 21.8583L27.0666 18.6583ZM6.9249 21.2499C6.9249 21.2499 8.11657 21.9166 9.59157 21.0166L6.9249 21.2499ZM6.83323 18.8583C6.83323 18.8583 7.7499 19.6916 9.4999 19.4249L6.83323 18.8583ZM7.41657 16.9499C7.41657 16.9499 7.61657 17.6249 9.60824 17.6666L7.41657 16.9499ZM8.08323 15.3833C8.08323 15.3833 8.83323 16.2999 9.8499 16.1583L8.08323 15.3833ZM8.7249 14.0749C8.7249 14.0749 9.01657 14.5749 10.1249 14.6583L8.7249 14.0749ZM9.3749 12.6166C9.3749 12.6166 9.95823 13.2499 10.6249 13.1416L9.3749 12.6166ZM12.8332 7.44159C12.8332 7.44159 13.0916 7.19159 13.5249 7.31659L12.8332 7.44159ZM12.6499 8.79992C12.6499 8.79992 11.8499 8.77492 11.8999 8.46659C11.9666 8.09992 12.7499 7.84159 12.7499 7.84159C12.7499 7.84159 13.7916 7.17492 13.9499 6.94159L12.6499 8.79992ZM9.23324 10.6083L10.2499 12.5499L10.7332 11.8166L10.9832 12.3166L11.3999 11.5916L12.1166 12.0499L11.8499 11.1583L12.4499 11.1166C12.4499 11.1166 12.2832 10.6916 11.7499 10.5999C11.8916 10.4916 12.3916 10.1583 12.3916 10.1583C12.3916 10.1583 12.1082 9.82492 11.6582 9.81659C11.8082 9.65825 12.0082 9.27492 11.9916 9.27492L11.5499 9.17492C11.5499 9.17492 12.5666 9.50825 13.3499 9.04159L9.23324 10.6083ZM11.4166 7.47492C11.4249 7.48325 11.3582 7.87492 11.1416 8.09992L11.4166 7.47492ZM7.4999 8.54159C7.4999 8.54159 8.1249 8.37492 8.59157 8.46659C9.05824 8.56659 9.68323 8.73325 9.68323 8.73325C9.68323 8.73325 10.4332 8.63325 10.6749 8.45825L7.4999 8.54159ZM5.94157 8.95825C5.94157 8.95825 5.85823 9.25825 5.8249 9.45825C5.8249 9.59992 5.36657 9.79159 5.36657 9.79159L5.94157 8.95825ZM6.2249 8.34159C6.2249 8.34159 6.6249 8.84159 6.64157 9.13325C6.6499 9.41659 6.34157 9.63325 6.34157 9.63325L6.2249 8.34159ZM2.08324 11.7499L1.66657 11.0833L2.04157 10.9499L2.08324 11.7499ZM9.58323 21.0333C9.2499 20.5999 9.83323 14.0166 11.0582 12.2999C10.6332 15.3999 12.0582 18.5666 12.4166 18.5499L9.58323 21.0333ZM5.83324 10.4666C5.83324 10.4666 6.3999 10.6749 7.55823 9.74992L5.83324 10.4666ZM9.13324 11.9833L9.96657 11.9916L9.13324 11.9833ZM34.9916 6.82492C34.9916 6.82492 21.0999 13.3083 20.8999 13.6583C23.2416 12.9416 33.1916 11.2833 33.4332 11.4249C32.8499 11.5666 20.7749 14.3416 20.2082 15.0083C23.2249 14.9083 29.5332 15.9749 30.5249 17.0083C28.3749 16.5249 21.9666 15.5833 19.9999 15.9999C21.4332 16.3416 26.9332 19.8999 26.9332 20.4666C26.0999 19.6749 19.4916 16.9499 19.2332 17.2166C20.7499 18.1249 22.8916 21.4999 22.8916 22.3249C22.4499 21.6249 18.6249 17.5166 18.3999 17.7833C18.8082 18.3416 19.6082 23.1916 19.1999 23.4166C19.1999 22.8333 17.7166 18.5833 17.5916 18.4666C17.2916 18.5499 15.3999 23.6333 15.7749 24.1166C15.5249 22.4166 15.8166 18.8666 16.2749 19.0083C15.4416 19.1333 12.7999 22.6249 13.0832 23.1749C13.1666 22.2999 13.2832 21.7249 14.7832 18.8333C13.1166 18.9333 9.68323 21.0916 9.0999 21.8666C9.56657 20.4916 12.4749 18.1666 13.7499 17.9999L34.9916 6.82492ZM19.7499 12.9416C21.2166 12.1249 25.7499 10.4666 28.7832 9.24159L19.7499 12.9416ZM16.8999 17.3249C16.8999 17.3249 17.8999 17.3083 18.8999 14.5916C19.8832 10.8749 27.7082 6.73325 27.8666 5.95825L16.8999 17.3249ZM3.66657 21.0666C3.66657 21.0666 3.43324 21.5666 3.1499 21.6999L3.66657 21.0666ZM4.79157 21.8166C4.79157 21.8166 4.48323 22.4166 4.40823 22.6999L4.79157 21.8166ZM5.86657 22.1166C5.86657 22.1166 6.11657 22.9333 5.90823 23.3166L5.86657 22.1166ZM2.8749 19.9749C2.09157 20.4166 3.3249 23.2249 7.0499 23.4916L2.8749 19.9749ZM6.4499 21.9749C6.4499 21.9749 6.3499 22.4749 7.0499 23.4749C6.8499 24.5916 7.8999 25.4666 8.31657 25.6083L6.4499 21.9749ZM6.1499 11.9249L6.26657 11.6249L6.39157 11.9583L6.5999 11.9499L6.73324 11.6166L6.8499 11.9499H7.0499L7.1749 11.5833L7.36657 11.9333H7.53323L7.65823 11.5166L7.90823 11.8166L8.00824 11.7833L8.09157 11.3499L8.3499 11.6499L8.43323 11.6083L8.5499 11.1916L8.75824 11.4999L8.86657 11.4666L8.96657 11.1083L9.16657 11.4416L6.1499 11.9249ZM5.91657 11.9583L7.48324 11.9333C7.98324 11.9333 8.7999 11.2416 9.70823 11.4583L5.91657 11.9583ZM2.63324 15.2916C2.63324 15.2916 2.89157 15.8583 3.2499 15.5416L2.63324 15.2916ZM2.03324 15.6666C2.03324 15.6666 1.53324 17.0166 2.13324 17.3333L2.03324 15.6666ZM1.31657 14.1833C1.31657 14.1833 1.31657 14.4999 1.98324 14.0166L1.31657 14.1833ZM-0.725098 21.2416C-0.725098 21.2416 -0.200098 21.4083 -0.283431 21.7999L-0.725098 21.2416ZM-0.533431 15.0666C-0.533431 15.0666 -0.200098 15.2249 0.116569 14.7333L-0.533431 15.0666ZM2.96657 30.5416C3.4749 30.5083 3.59157 30.7416 4.0499 30.7416C4.5999 30.7583 5.1249 30.5416 5.7999 30.3499L2.96657 30.5416ZM10.2249 31.5999C10.2082 31.5999 9.9749 32.0833 10.1832 32.3249L10.2249 31.5999ZM2.89157 31.6416C2.89157 31.6416 3.70823 30.9749 4.14157 31.3833C4.5499 31.5249 4.7749 31.4999 4.7749 31.4999L2.89157 31.6416ZM3.31657 29.7249C3.31657 29.7249 3.51657 30.2416 2.8499 30.1666L3.31657 29.7249ZM2.6499 30.9166C2.6499 30.9166 3.0749 31.1833 2.59157 31.5416L2.6499 30.9166ZM2.90824 32.0249C2.90824 32.0249 3.49157 32.1083 3.1499 32.5833L2.90824 32.0249ZM21.8332 28.4666C21.8332 28.4666 23.4166 28.6333 23.4999 28.7499C23.6832 28.5583 25.0999 27.3999 23.3582 27.2416C23.278 27.5871 23.084 27.8956 22.8075 28.1177C22.531 28.3399 22.1879 28.4627 21.8332 28.4666V28.4666ZM21.2666 29.2583C21.8582 29.7333 21.6166 30.0166 23.4832 28.7666L21.2666 29.2583ZM20.4166 29.8499C20.4166 29.8499 21.2916 30.7999 21.9332 29.6499L20.4166 29.8499ZM18.7416 30.1916L17.5499 30.8166L18.7416 30.1916ZM15.4166 31.6916C15.4166 31.6916 16.1416 31.0749 16.4749 31.3999C16.8166 31.7333 18.2499 31.1166 18.2499 31.1166L15.4166 31.6916ZM15.9582 28.9999C15.9582 28.9999 16.2082 29.4999 15.7249 29.5583L15.9582 28.9999ZM15.0166 30.5499C15.0166 30.5499 15.2666 31.0166 14.7832 31.1333L15.0166 30.5499ZM15.5749 31.8083C15.5749 31.8083 16.3249 31.8499 16.0582 32.4166L15.5749 31.8083ZM22.5916 31.7083C22.5916 31.7083 22.1749 32.0583 22.4832 32.4583L22.5916 31.7083ZM28.5666 29.2083C28.5666 29.2083 29.0416 29.4416 28.4749 29.8333L28.5666 29.2083ZM27.9999 30.6583C27.9999 30.6583 28.3582 31.0333 28.1166 31.3416L27.9999 30.6583ZM28.9999 32.0916C28.9999 32.0916 29.4916 32.2333 29.4332 32.6416L28.9999 32.0916ZM35.9166 31.7249C35.9166 31.7249 35.4999 32.0333 35.7249 32.4249L35.9166 31.7249ZM28.5832 19.6916C29.5666 19.5749 30.9832 21.7749 31.7082 22.1999L28.5832 19.6916ZM36.0332 16.5833C36.0332 16.5833 36.5332 17.0249 36.0916 18.0833L36.0332 16.5833ZM36.9582 14.8999C37.0999 15.0083 37.6332 15.2999 37.9916 15.9666L36.9582 14.8999ZM38.3332 11.6166L37.6416 13.4916L38.3332 11.6166ZM39.1082 11.5249C39.1082 11.5249 38.9749 13.1916 38.7749 13.5249L39.1082 11.5249ZM35.9999 16.5666C35.7749 17.2333 33.7666 17.5666 33.6332 16.5833C33.5582 16.0833 34.8166 15.3083 35.9999 16.5666Z" stroke="black" stroke-width="0.116667" stroke-linejoin="round"/>
<path d="M8.19165 8.44159L8.96665 8.58326C8.96665 8.58326 8.42498 9.31659 8.19165 8.44159Z" fill="black" stroke="black" stroke-width="0.116667" stroke-linejoin="round"/>
</g>
</g>
<defs>
<clipPath id="clip0_769_17653">
<path d="M0 20C0 8.95431 8.95431 0 20 0C31.0457 0 40 8.95431 40 20C40 31.0457 31.0457 40 20 40C8.95431 40 0 31.0457 0 20Z" fill="white"/>
</clipPath>
<clipPath id="clip1_769_17653">
<rect width="53.3333" height="40" fill="white" transform="translate(-7 -6.10352e-05)"/>
</clipPath>
</defs>
</svg>
