<svg width="40" height="40" viewBox="0 0 40 40" fill="none" xmlns="http://www.w3.org/2000/svg">
<g clip-path="url(#clip0_769_16490)">
<path d="M0 20C0 8.95431 8.95431 0 20 0C31.0457 0 40 8.95431 40 20C40 31.0457 31.0457 40 20 40C8.95431 40 0 31.0457 0 20Z" fill="#E94E0F"/>
<g clip-path="url(#clip1_769_16490)">
<path fill-rule="evenodd" clip-rule="evenodd" d="M-7.00024 -6.10352e-05H46.3369V19.9984H-7.00024V-6.10352e-05Z" fill="black"/>
<path fill-rule="evenodd" clip-rule="evenodd" d="M-7.00024 19.9984H46.3369V39.9969H-7.00024V19.9984Z" fill="#007A3D"/>
<path fill-rule="evenodd" clip-rule="evenodd" d="M-7.00024 11.6638H46.3369V28.3331H-7.00024V11.6638Z" fill="white"/>
<path fill-rule="evenodd" clip-rule="evenodd" d="M-7.00024 -6.10352e-05L19.6644 19.9984L-7.00024 39.9969V-6.10352e-05Z" fill="#C4111B"/>
<path d="M32.9969 25.3329C35.943 25.3329 38.3314 22.9446 38.3314 19.9984C38.3314 17.0523 35.943 14.6639 32.9969 14.6639C30.0507 14.6639 27.6624 17.0523 27.6624 19.9984C27.6624 22.9446 30.0507 25.3329 32.9969 25.3329Z" fill="#C4111B"/>
<path d="M35.002 25.3329C37.9481 25.3329 40.3365 22.9446 40.3365 19.9984C40.3365 17.0523 37.9481 14.6639 35.002 14.6639C32.0558 14.6639 29.6675 17.0523 29.6675 19.9984C29.6675 22.9446 32.0558 25.3329 35.002 25.3329Z" fill="white"/>
<path fill-rule="evenodd" clip-rule="evenodd" d="M31.5632 23.2258L33.8427 21.6043L36.0987 23.2493L35.2527 20.5859L37.5244 18.9488L34.7279 18.9331L33.8662 16.2698L32.9889 18.9253L30.1924 18.9096L32.4406 20.5703L31.571 23.2336L31.5632 23.2258Z" fill="#C4111B"/>
</g>
</g>
<defs>
<clipPath id="clip0_769_16490">
<path d="M0 20C0 8.95431 8.95431 0 20 0C31.0457 0 40 8.95431 40 20C40 31.0457 31.0457 40 20 40C8.95431 40 0 31.0457 0 20Z" fill="white"/>
</clipPath>
<clipPath id="clip1_769_16490">
<rect width="53.3333" height="40" fill="white" transform="translate(-7 -6.10352e-05)"/>
</clipPath>
</defs>
</svg>
