<svg width="340" height="204" viewBox="0 0 340 204" fill="none" xmlns="http://www.w3.org/2000/svg">
<rect width="340" height="204" transform="translate(0 0.00012207)" fill="#F8F9FB"/>
<rect y="187.598" width="339.793" height="16.402" fill="#F9D2C3"/>
<path d="M200.598 96.8158L199.951 96.1118C199.752 95.8976 199.505 95.7334 199.232 95.6323C198.959 95.5311 198.666 95.4958 198.377 95.529C198.25 95.5315 198.124 95.502 198.01 95.4433C197.897 95.3847 197.799 95.2985 197.727 95.1926L196.273 93.1025C196.251 93.0822 196.225 93.0681 196.196 93.0617C196.168 93.0552 196.138 93.0567 196.11 93.0659C196.082 93.0751 196.057 93.0917 196.038 93.114C196.019 93.1363 196.006 93.1634 196 93.1926L196.078 95.3084C196.1 95.6411 196.187 95.966 196.334 96.2641C196.482 96.5621 196.687 96.8272 196.938 97.0438L198.363 98.2865L198.87 98.485C199.051 98.5555 199.246 98.5822 199.439 98.5628C199.632 98.5435 199.818 98.4788 199.983 98.3737C200.147 98.2687 200.284 98.1263 200.384 97.958C200.484 97.7896 200.544 97.5999 200.558 97.4041L200.598 96.8158Z" fill="#F9C145"/>
<path d="M237.742 184.112L238.998 187.127L237.508 187.765L236.824 186.896C236.774 186.824 236.257 187.155 235.876 187.114C235.765 187.102 235.659 187.064 235.565 187.003C235.472 186.942 235.394 186.859 235.338 186.762C235.282 186.664 235.249 186.555 235.242 186.443C235.236 186.33 235.255 186.218 235.3 186.114C235.541 185.548 235.845 184.879 236.005 184.6C236.403 183.94 237.201 183.568 237.742 184.112Z" fill="#EA3F6B"/>
<path d="M233.659 187.506L235.378 185.431L235.965 184.364C236.051 184.208 236.176 184.077 236.329 183.986C236.512 183.873 236.725 183.822 236.939 183.84C237.152 183.857 237.355 183.943 237.517 184.085L237.746 184.113L236.828 186.896L234.76 188.94H234.662C234.49 188.946 234.318 188.908 234.164 188.831C234.01 188.753 233.877 188.637 233.778 188.495C233.678 188.352 233.616 188.187 233.596 188.013C233.576 187.84 233.599 187.664 233.662 187.502L233.659 187.506Z" fill="#EA3F6B"/>
<path d="M233.659 187.506C233.748 187.446 233.852 187.41 233.959 187.401C234.067 187.392 234.175 187.412 234.273 187.457C234.371 187.503 234.455 187.573 234.519 187.661C234.583 187.749 234.623 187.852 234.636 187.96L234.756 188.94L232.03 190.105L231.816 189.603L233.659 187.506Z" fill="#EA3F6B"/>
<path d="M227.118 158.689L227.13 158.726L237.742 184.113L235.589 185.048L221.667 161.062L221.651 161.027C221.47 160.66 221.366 160.259 221.344 159.849C221.322 159.44 221.384 159.03 221.525 158.645C221.665 158.261 221.883 157.909 222.163 157.612C222.443 157.316 222.78 157.08 223.154 156.921C223.528 156.76 223.93 156.679 224.336 156.682C224.741 156.685 225.142 156.772 225.514 156.938C225.885 157.104 226.219 157.345 226.495 157.646C226.771 157.947 226.983 158.302 227.118 158.689Z" fill="#F9C145"/>
<path d="M224.146 130.539C224.748 130.539 225.343 130.662 225.895 130.903C226.447 131.144 226.944 131.497 227.356 131.94C227.768 132.383 228.086 132.906 228.291 133.478C228.495 134.05 228.581 134.658 228.544 135.265L227.054 159.933C226.912 161.43 225.495 162.649 224.006 162.612C223.295 162.606 222.612 162.326 222.098 161.828C221.584 161.33 221.277 160.652 221.24 159.933L219.752 135.265C219.715 134.659 219.801 134.051 220.005 133.479C220.209 132.907 220.527 132.384 220.939 131.941C221.35 131.498 221.847 131.146 222.399 130.904C222.951 130.663 223.545 130.539 224.146 130.539Z" fill="#F9C145"/>
<path d="M217.58 187.73V191.002H215.962L215.666 189.932C215.648 189.846 215.045 189.947 214.71 189.761C214.613 189.707 214.529 189.63 214.466 189.537C214.404 189.443 214.363 189.337 214.349 189.225C214.335 189.113 214.347 188.999 214.384 188.893C214.421 188.786 214.482 188.69 214.563 188.613C215.005 188.186 215.535 187.693 215.797 187.495C216.417 187.044 217.295 187.015 217.583 187.73H217.58Z" fill="#EA3F6B"/>
<path d="M212.513 189.247L214.895 188.013L215.846 187.262C215.985 187.152 216.15 187.081 216.324 187.056C216.535 187.023 216.751 187.059 216.94 187.158C217.13 187.257 217.284 187.414 217.38 187.607L217.58 187.723L215.662 189.929L212.971 190.999L212.878 190.962C212.717 190.899 212.574 190.797 212.462 190.664C212.35 190.532 212.272 190.373 212.236 190.202C212.2 190.032 212.207 189.854 212.255 189.687C212.304 189.52 212.393 189.367 212.514 189.243L212.513 189.247Z" fill="#EA3F6B"/>
<path d="M212.516 189.247C212.623 189.226 212.732 189.234 212.835 189.268C212.938 189.303 213.03 189.363 213.103 189.444C213.176 189.525 213.227 189.623 213.251 189.729C213.276 189.836 213.273 189.947 213.243 190.052L212.976 191.003H210.019V190.451L212.516 189.247Z" fill="#EA3F6B"/>
<path d="M217.574 160.114V187.743H215.31L211.766 160.152V160.114C211.741 159.712 211.798 159.31 211.933 158.931C212.068 158.553 212.278 158.207 212.551 157.914C212.823 157.621 213.152 157.388 213.517 157.229C213.883 157.069 214.276 156.988 214.674 156.988C215.071 156.989 215.464 157.071 215.828 157.231C216.192 157.39 216.52 157.624 216.792 157.917C217.064 158.209 217.274 158.555 217.408 158.933C217.543 159.311 217.599 159.713 217.574 160.114Z" fill="#F9C145"/>
<path d="M214.659 130.515C215.26 130.515 215.855 130.64 216.406 130.881C216.958 131.122 217.455 131.475 217.867 131.918C218.278 132.36 218.596 132.884 218.801 133.455C219.005 134.027 219.092 134.635 219.055 135.242L217.565 159.908C217.425 161.406 216.006 162.625 214.517 162.588C213.805 162.582 213.122 162.302 212.608 161.803C212.094 161.305 211.787 160.627 211.751 159.908L210.263 135.242C210.226 134.635 210.312 134.027 210.517 133.455C210.721 132.883 211.039 132.36 211.451 131.917C211.863 131.474 212.36 131.122 212.912 130.881C213.463 130.639 214.058 130.515 214.659 130.515Z" fill="#F9C145"/>
<path d="M207.28 114.699C207.786 114.796 208.309 114.691 208.739 114.406C209.17 114.121 209.474 113.679 209.589 113.171L213.914 93.8985C213.993 93.5461 214.001 93.1811 213.937 92.8255C213.874 92.4699 213.74 92.1308 213.544 91.8285C213.349 91.5261 213.095 91.2666 212.798 91.0655C212.501 90.8643 212.168 90.7256 211.817 90.6576C211.466 90.5899 211.105 90.5944 210.756 90.6708C210.407 90.7471 210.076 90.8938 209.785 91.1021C209.493 91.3103 209.245 91.5759 209.057 91.883C208.869 92.19 208.744 92.5323 208.689 92.8893L205.692 112.419C205.613 112.933 205.735 113.458 206.031 113.884C206.327 114.309 206.775 114.601 207.28 114.699Z" fill="#E4003A"/>
<path d="M207.924 114.836C208.396 114.63 208.771 114.247 208.969 113.766C209.167 113.286 209.173 112.747 208.985 112.263L200.514 96.7863L198.219 98.1172L205.345 113.855C205.566 114.324 205.958 114.689 206.439 114.872C206.92 115.055 207.452 115.042 207.924 114.836Z" fill="#E4003A"/>
<path d="M211.506 90.777H228.381L228.257 103.077L225.557 119.07C225.4 120.363 224.781 121.553 223.816 122.415C222.852 123.278 221.608 123.753 220.321 123.752H218.485C215.655 123.752 213.789 121.399 213.215 118.634L210.53 103.388C210.203 101.47 211.506 90.777 211.506 90.777Z" fill="#BF0031"/>
<path d="M213.162 138.03L225.717 138.33C226.441 138.325 227.137 138.042 227.663 137.537C228.188 137.032 228.503 136.343 228.544 135.611L228.461 128.056C228.501 127.354 228.33 126.658 227.971 126.056C227.612 125.455 227.081 124.978 226.449 124.688L224.412 123.769C220.82 122.059 217.124 122.441 213.571 124.236L212.613 124.767C211.997 125.065 211.483 125.541 211.136 126.136C210.788 126.73 210.624 127.416 210.663 128.105L210.319 135.321C210.363 136.053 210.681 136.742 211.21 137.245C211.738 137.749 212.436 138.03 213.162 138.03Z" fill="#F9C145"/>
<path d="M207.406 150.904H230.71C230.71 129.899 225.929 116.864 225.929 116.864H212.724C212.724 116.864 207.406 128.243 207.406 150.904Z" fill="#F17F9C"/>
<path d="M209.329 102.985C209.554 103.452 209.95 103.812 210.433 103.99C210.915 104.168 211.447 104.15 211.917 103.939L229.788 95.9442C230.114 95.7982 230.409 95.5871 230.653 95.3235C230.897 95.0599 231.087 94.7493 231.21 94.41C231.332 94.0708 231.387 93.7101 231.369 93.3492C231.351 92.9884 231.261 92.6349 231.105 92.3098C230.95 91.9847 230.731 91.6945 230.463 91.4567C230.194 91.2189 229.881 91.0382 229.541 90.9255C229.202 90.8128 228.844 90.7703 228.488 90.8006C228.132 90.831 227.786 90.9335 227.47 91.1021L210.189 100.336C209.734 100.579 209.39 100.991 209.23 101.485C209.07 101.979 209.105 102.517 209.329 102.985Z" fill="#E4003A"/>
<path d="M216.793 90.7402L217.189 83.069H221.491L221.571 90.8872C221.576 91.2067 221.518 91.5239 221.4 91.8206C221.283 92.1173 221.109 92.3876 220.888 92.6159C220.667 92.8442 220.404 93.026 220.113 93.1508C219.822 93.2757 219.51 93.341 219.194 93.3432C218.863 93.3454 218.536 93.2783 218.232 93.1459C217.928 93.0136 217.655 92.8189 217.429 92.5743C217.203 92.3297 217.03 92.0404 216.921 91.7247C216.811 91.409 216.768 91.0738 216.793 90.7402Z" fill="#F9C145"/>
<path d="M216.507 78.3663H221.051C221.605 78.3668 222.135 78.5895 222.527 78.9855C222.919 79.3815 223.139 79.9185 223.139 80.4785V86.3721C223.139 86.9062 222.93 87.4186 222.558 87.7974C222.186 88.1763 221.681 88.3908 221.153 88.3942H217.652C216.857 88.3942 216.094 88.0747 215.532 87.5058C214.97 86.937 214.654 86.1655 214.654 85.361V80.234C214.654 79.9882 214.702 79.7447 214.795 79.5176C214.888 79.2905 215.025 79.0843 215.197 78.9108C215.369 78.7372 215.574 78.5998 215.799 78.5064C216.023 78.413 216.264 78.3654 216.507 78.3663Z" fill="#F9C145"/>
<path d="M216.442 76.4418H220.835C220.931 76.4418 221.016 76.4418 221.118 76.4565V76.4418C221.118 76.1173 221.182 75.7961 221.306 75.4968C221.43 75.1976 221.612 74.9264 221.841 74.6991C222.07 74.4718 222.341 74.293 222.64 74.173C222.938 74.0531 223.256 73.9944 223.577 74.0006C224.218 74.0282 224.822 74.3069 225.263 74.7776C225.704 75.2484 225.947 75.8742 225.94 76.5227V83.8483C225.94 85.7252 224.175 87.2473 222.32 87.2473L222.276 84.7858C222.521 84.7502 222.744 84.6254 222.905 84.4349C223.065 84.2444 223.151 84.0013 223.147 83.7511C223.143 83.5009 223.048 83.2609 222.882 83.0761C222.715 82.8912 222.487 82.7743 222.241 82.7471C222.234 82.3673 222.08 82.0054 221.812 81.7393C221.544 81.4733 221.183 81.3242 220.807 81.3243H216.367C216.047 81.3244 215.729 81.2597 215.433 81.1342C215.137 81.0086 214.869 80.8247 214.645 80.5931C214.42 80.3615 214.243 80.087 214.124 79.7854C214.006 79.4839 213.948 79.1615 213.954 78.8371C213.98 78.1892 214.254 77.5769 214.718 77.1298C215.183 76.6828 215.801 76.436 216.442 76.4418Z" fill="#E94E0F"/>
<path d="M218.823 86.3227L219.757 83.4513C219.779 83.3846 219.815 83.3232 219.862 83.271C219.909 83.2188 219.966 83.1768 220.029 83.1477C220.093 83.1186 220.162 83.103 220.231 83.1018C220.301 83.1005 220.37 83.1138 220.435 83.1407L226.383 85.1536C226.449 85.1763 226.51 85.2123 226.562 85.2596C226.614 85.3068 226.656 85.3643 226.685 85.4285C226.714 85.4926 226.73 85.5621 226.732 85.6328C226.734 85.7034 226.722 85.7737 226.696 85.8393L225.763 88.7107C225.741 88.7774 225.705 88.8388 225.658 88.891C225.611 88.9432 225.554 88.9852 225.491 89.0143C225.427 89.0434 225.359 89.059 225.289 89.0603C225.219 89.0615 225.15 89.0482 225.086 89.0214L219.137 86.9992C219.014 86.9428 218.914 86.8437 218.857 86.7197C218.799 86.5957 218.787 86.4549 218.823 86.3227Z" fill="white"/>
<path d="M225.502 86.3413L225.684 85.8413C225.704 85.6979 225.882 85.6574 226.024 85.6869C226.165 85.7163 226.205 85.8854 226.18 86.0288L225.998 86.5288C225.978 86.6703 225.8 86.7034 225.658 86.6832C225.5 86.5729 225.429 86.4479 225.502 86.3413Z" fill="#F17F9C"/>
<path d="M220.054 88.2417L220.539 87.4144C220.687 87.1605 220.893 86.9451 221.138 86.7855C221.384 86.6259 221.663 86.5266 221.953 86.4953C222.078 86.4705 222.195 86.4146 222.293 86.3328C222.391 86.251 222.468 86.1458 222.516 86.0265L223.498 83.6698C223.514 83.6454 223.537 83.626 223.564 83.6135C223.59 83.6011 223.62 83.5961 223.649 83.5991C223.678 83.6021 223.706 83.613 223.729 83.6306C223.753 83.6482 223.771 83.6719 223.783 83.6993L224.146 85.782C224.196 86.1115 224.18 86.4479 224.099 86.7709C224.018 87.094 223.873 87.3973 223.674 87.6626L222.545 89.1866L222.093 89.4899C221.93 89.5979 221.746 89.666 221.553 89.689C221.36 89.7119 221.165 89.689 220.982 89.6221C220.8 89.5551 220.635 89.446 220.502 89.3033C220.368 89.1607 220.269 88.9885 220.213 88.8005L220.054 88.2417Z" fill="#F9C145"/>
<path d="M209.798 103.612C210.185 103.954 210.688 104.131 211.202 104.105C211.715 104.08 212.199 103.853 212.551 103.474L222.729 89.0856L220.548 87.5616L209.563 100.834C209.239 101.237 209.082 101.753 209.125 102.271C209.169 102.789 209.41 103.27 209.798 103.612Z" fill="#E4003A"/>
<path d="M115.812 137.331H104.704C103.832 137.331 102.993 136.997 102.357 136.398C101.721 135.8 101.337 134.98 101.283 134.107L100.913 127.645C100.867 126.811 101.075 125.982 101.508 125.269C101.942 124.555 102.581 123.99 103.341 123.649L105.797 122.55C110.129 120.523 111.016 120.581 115.299 122.708L117.236 123.621C117.976 123.971 118.594 124.535 119.013 125.24C119.432 125.945 119.631 126.759 119.585 127.578L119.221 134.101C119.169 134.973 118.788 135.793 118.154 136.393C117.521 136.993 116.683 137.328 115.812 137.331Z" fill="#555D71"/>
<path d="M123.881 101.158L119.543 88.7335L108.45 88.7487H103.011L98.7881 101.158L99.5257 111.026C99.7261 112.207 99.5713 113.814 100.767 113.808L119.822 113.735C120.407 113.736 120.974 113.527 121.419 113.146C121.864 112.764 122.159 112.236 122.25 111.656L123.881 101.158Z" fill="#E94E0F"/>
<path d="M94.6841 119.15C93.7304 118.732 92.9519 117.993 92.4821 117.062C92.0124 116.13 91.8808 115.064 92.1099 114.046L96.7483 93.421C96.9311 92.568 97.2993 91.766 97.8266 91.072C98.354 90.3781 99.0275 89.8093 99.7991 89.4062C100.489 89.0459 101.243 88.8257 102.018 88.7582C102.793 88.6907 103.574 88.7772 104.316 89.0127C105.057 89.2482 105.745 89.6282 106.34 90.1308C106.935 90.6334 107.425 91.2488 107.783 91.9417C108.185 92.7155 108.412 93.5688 108.447 94.4407C108.482 95.3125 108.325 96.1814 107.986 96.9852L99.7597 117.147C98.6911 119.254 96.5297 120.091 94.6841 119.165V119.15Z" fill="#E94E0F"/>
<path d="M109.868 88.7337L110.703 81.6691H115.004L115.393 89.0929C115.43 89.4827 115.386 89.8761 115.264 90.2479C115.141 90.6197 114.942 90.9618 114.68 91.2523C114.418 91.5427 114.099 91.7752 113.742 91.9348C113.386 92.0945 113 92.1777 112.609 92.1793C112.186 92.1805 111.769 92.086 111.388 91.9026C111.007 91.7193 110.672 91.452 110.408 91.1207C110.144 90.7893 109.959 90.4025 109.865 89.9892C109.772 89.5759 109.773 89.1467 109.868 88.7337Z" fill="#F3A687"/>
<path d="M117.703 82.2896V78.5031C117.703 78.0785 117.62 77.658 117.458 77.2656C117.297 76.8733 117.059 76.5168 116.76 76.2165C116.46 75.9163 116.105 75.6782 115.713 75.5159C115.322 75.3536 114.903 75.2702 114.479 75.2706H113.055C112.632 75.2702 112.212 75.3535 111.821 75.5158C111.429 75.6781 111.074 75.9161 110.774 76.2163C110.474 76.5165 110.237 76.873 110.074 77.2654C109.912 77.6578 109.829 78.0784 109.829 78.5031V83.8115C109.831 84.3317 110.038 84.83 110.405 85.1982C110.771 85.5663 111.268 85.7746 111.787 85.7778H114.245C114.703 85.7823 115.156 85.695 115.579 85.5211C116.002 85.3471 116.386 85.09 116.708 84.7649C117.03 84.4398 117.284 84.0533 117.455 83.6282C117.626 83.203 117.71 82.7479 117.703 82.2896Z" fill="#F3A687"/>
<path d="M117.539 83.4952C117.584 83.6297 117.608 83.7704 117.609 83.9122V85.9912C117.61 86.1694 117.576 86.3461 117.508 86.5111C117.441 86.6761 117.342 86.8262 117.217 86.9529C117.092 87.0795 116.943 87.1801 116.779 87.2491C116.615 87.3181 116.439 87.354 116.261 87.3548H115.323L115.238 85.6959C115.771 85.5444 116.26 85.2648 116.661 84.8813C117.062 84.4979 117.363 84.0221 117.539 83.4952Z" fill="#870B58"/>
<path d="M110.46 74.388C110.702 74.3155 110.952 74.2786 111.204 74.2785H113.736C114.038 74.2775 114.337 74.3365 114.616 74.452C114.684 74.4797 114.751 74.5112 114.816 74.5463C115.01 74.6478 115.189 74.7758 115.348 74.9268H117.609C117.907 74.9268 118.202 74.9928 118.471 75.1202C118.741 75.2475 118.979 75.433 119.169 75.6634L119.285 75.8186C119.511 76.1517 119.631 76.5451 119.631 76.9479C119.631 77.0148 119.631 77.0848 119.631 77.1487V77.2127C119.631 77.2583 119.631 77.3009 119.61 77.3466C119.604 77.3743 119.597 77.4018 119.588 77.4288C119.588 77.4623 119.573 77.4988 119.561 77.5323C119.552 77.5643 119.541 77.5958 119.528 77.6266C119.528 77.6571 119.506 77.6845 119.494 77.7119C119.481 77.7477 119.465 77.7824 119.446 77.8153C119.436 77.8383 119.425 77.8606 119.412 77.8823C119.393 77.9189 119.372 77.9544 119.349 77.9888L119.315 78.0436C119.29 78.0816 119.262 78.1182 119.233 78.1532L119.206 78.1897L119.106 78.3023L119.081 78.3297L118.963 78.4363L118.945 78.4545L118.808 78.558C118.759 78.5933 118.709 78.6258 118.656 78.6554C118.377 78.8116 118.065 78.9011 117.746 78.9172H110.931V79.8303C110.688 79.8441 110.459 79.9506 110.292 80.1281C110.125 80.3055 110.031 80.5404 110.031 80.7846C110.031 81.0287 110.125 81.2636 110.292 81.441C110.459 81.6185 110.688 81.725 110.931 81.7388V81.9945C110.929 82.2267 110.836 82.4489 110.672 82.6125C110.507 82.7762 110.285 82.868 110.053 82.868H109.826V83.9029C109.827 84.3753 109.996 84.8318 110.302 85.1904L110.035 87.4642H109.595C109.363 87.4642 109.141 87.3723 108.977 87.2087C108.813 87.045 108.719 86.8228 108.718 86.5906V76.7591C108.717 76.229 108.886 75.7126 109.199 75.2858C109.513 74.859 109.955 74.5443 110.46 74.388Z" fill="#870B58"/>
<path d="M109.983 81.9551C110.661 81.9551 111.21 81.4046 111.21 80.7254C111.21 80.0463 110.661 79.4957 109.983 79.4957C109.306 79.4957 108.757 80.0463 108.757 80.7254C108.757 81.4046 109.306 81.9551 109.983 81.9551Z" fill="#303642"/>
<path d="M113.201 73.0001C115.023 73.0001 116.222 73.9711 116.671 74.9055C116.402 74.8839 116.132 74.8839 115.864 74.9055C115.46 74.2755 114.449 73.7124 113.201 73.7124C110.43 73.7124 110.345 76.47 110.342 76.5796V80.567H109.625V76.5766C109.629 76.5431 109.717 73.0001 113.201 73.0001Z" fill="#303642"/>
<path d="M114.194 84.7947V84.7734C114.193 84.6829 114.156 84.5964 114.093 84.5319C114.03 84.4673 113.944 84.4295 113.854 84.4264C111.086 84.2834 110.515 82.378 110.4 81.617C110.388 81.5323 110.347 81.4546 110.282 81.3985C110.218 81.3425 110.136 81.3119 110.05 81.3126C110 81.3133 109.95 81.3249 109.904 81.3467C109.858 81.3685 109.817 81.4 109.785 81.4391C109.752 81.4781 109.728 81.5237 109.715 81.5728C109.702 81.6219 109.699 81.6733 109.707 81.7235C109.865 82.6732 110.585 84.9865 113.845 85.1448C113.891 85.1448 113.936 85.1357 113.979 85.1181C114.021 85.1005 114.059 85.0747 114.092 85.0422C114.124 85.0097 114.15 84.9712 114.167 84.9287C114.185 84.8862 114.194 84.8407 114.194 84.7947Z" fill="#303642"/>
<path d="M148.144 107.565L147.907 108.131L147.467 108.615C147.311 108.788 147.117 108.922 146.9 109.006C146.683 109.09 146.449 109.121 146.218 109.098C145.986 109.075 145.763 108.998 145.567 108.873C145.371 108.748 145.206 108.578 145.087 108.378L144.726 107.769L145.048 106.67C145.148 106.336 145.324 106.029 145.563 105.774C145.801 105.519 146.096 105.324 146.423 105.203C146.561 105.137 146.68 105.038 146.77 104.915C146.861 104.792 146.92 104.648 146.942 104.497L147.391 101.493C147.403 101.459 147.423 101.43 147.451 101.407C147.478 101.384 147.511 101.369 147.546 101.364C147.581 101.359 147.617 101.363 147.649 101.377C147.682 101.39 147.71 101.413 147.731 101.441L148.773 103.73C148.926 104.095 149.005 104.487 149.005 104.882C149.005 105.278 148.926 105.67 148.773 106.034L148.144 107.556" fill="#F3A687"/>
<path d="M128.51 117.363C127.152 117.657 125.763 117.771 124.375 117.704C124.078 117.684 123.789 117.592 123.535 117.436C123.28 117.28 123.068 117.063 122.915 116.806V116.788L114.531 96.8785C114.184 96.0779 114.018 95.2105 114.045 94.3382C114.071 93.4659 114.289 92.6101 114.683 91.8319C115.034 91.1374 115.518 90.5191 116.107 90.0123C116.697 89.5054 117.38 89.12 118.118 88.878C118.856 88.6361 119.634 88.5423 120.409 88.6021C121.183 88.6619 121.938 88.874 122.63 89.2264C123.407 89.6205 124.087 90.1817 124.622 90.8699C125.157 91.5582 125.534 92.3564 125.726 93.2077L130.796 114.618C130.86 114.871 130.869 115.135 130.821 115.392C130.772 115.648 130.669 115.891 130.517 116.103C130.004 116.733 129.299 117.176 128.51 117.363Z" fill="#E94E0F"/>
<path d="M143.056 114.487L130.589 113.3C129.314 113.206 128.494 112.201 128.677 111.102L130.862 94.5382C130.947 93.9208 131.272 93.3621 131.766 92.9844C132.261 92.6068 132.884 92.4409 133.5 92.5232L146.059 94.3495C146.674 94.4371 147.229 94.7649 147.605 95.2614C147.98 95.758 148.144 96.3831 148.062 97.0006L145.694 112.828C145.512 113.857 144.322 114.673 143.056 114.487Z" fill="#E1C2D5"/>
<path d="M134.229 96.1845C134.374 96.1851 134.516 96.1426 134.636 96.0624C134.757 95.9821 134.851 95.8678 134.907 95.7338C134.963 95.5998 134.978 95.4522 134.95 95.3097C134.922 95.1672 134.853 95.0362 134.75 94.9333C134.648 94.8304 134.518 94.7603 134.376 94.7317C134.234 94.7032 134.087 94.7175 133.953 94.773C133.819 94.8284 133.705 94.9224 133.624 95.0431C133.543 95.1638 133.5 95.3057 133.5 95.451C133.5 95.645 133.577 95.8311 133.714 95.9686C133.85 96.1061 134.036 96.1837 134.229 96.1845Z" fill="#870B58"/>
<path d="M118.86 114.134L119.998 114.052C120.346 114.023 120.682 113.914 120.98 113.733C121.278 113.552 121.53 113.303 121.716 113.008C121.81 112.887 121.932 112.791 122.071 112.728C122.21 112.666 122.362 112.638 122.515 112.648L125.55 112.837C125.585 112.833 125.619 112.819 125.646 112.797C125.674 112.775 125.696 112.746 125.708 112.713C125.721 112.679 125.724 112.643 125.717 112.608C125.711 112.573 125.695 112.541 125.672 112.514L123.659 111.014C123.335 110.787 122.969 110.628 122.583 110.545C122.197 110.462 121.798 110.457 121.41 110.53L119.191 110.941L118.714 111.361C118.513 111.537 118.354 111.757 118.251 112.004C118.147 112.251 118.101 112.519 118.117 112.786C118.132 113.053 118.208 113.314 118.339 113.547C118.47 113.781 118.652 113.982 118.872 114.134H118.86Z" fill="#F3A687"/>
<path d="M100.532 129L102.864 161.46L104.931 192.519H107.33L109.396 161.46L108.863 137.998H110.196L112.329 160.46L93.9331 188.387L95.5994 190.12L117.461 163.459C118.528 162.193 119.061 160.526 118.994 158.86L118.061 129H100.532Z" fill="#303642"/>
<path d="M111.862 195.185H109.596L107.33 194.452V192.519L109.596 193.586L111.862 194.119V195.185Z" fill="#E94E0F"/>
<path d="M106.663 195.185H104.93V192.519H107.329V194.452L106.663 195.185Z" fill="#E94E0F"/>
<path d="M96.733 195.253L95.2 193.653L94.2002 191.52L95.5999 190.12L96.3331 192.52L97.5328 194.519L96.733 195.253Z" fill="#E94E0F"/>
<path d="M93.1997 191.451L92 190.251L93.9329 188.385L95.5992 190.118L94.1995 191.518L93.1997 191.451Z" fill="#E94E0F"/>
<path d="M99.5077 110.716L99.711 113.425L100.185 119.756L100.971 133.922H119.543L122.333 111.093C122.374 110.824 122.357 110.549 122.283 110.288C122.208 110.026 122.078 109.783 121.901 109.577C121.725 109.37 121.505 109.205 121.258 109.091C121.012 108.978 120.743 108.919 120.472 108.92L101.806 109.045C100.145 109.036 99.4227 109.568 99.5077 110.716Z" fill="#E94E0F"/>
<path d="M307.246 140.043C307.246 140.043 306.884 141.166 300.985 154.144C300.596 150.764 299.604 147.481 298.056 144.453C295.09 138.716 292.012 137.858 290.587 134.32C287.324 126.193 296.149 112.314 301.275 113.027C306.271 113.725 310.705 128.665 307.246 140.043Z" fill="#F8AD07"/>
<path d="M291.878 143.101C294.159 144.513 296.066 146.458 297.435 148.769C297.635 149.133 297.82 149.464 297.983 149.813C298.897 151.79 299.538 153.883 299.886 156.034C299.339 155.469 298.676 155.028 297.943 154.743C296.457 154.18 295.34 154.572 294.394 154.583C291.649 154.62 289.467 151.471 287.661 148.857C287.27 148.293 282.85 141.908 284.286 140.457C284.739 139.984 285.776 139.29 291.878 143.101Z" fill="#F8AD07"/>
<path d="M313.942 146.442C311.767 148.784 309.82 148.449 308.646 150.947C308.153 151.998 308.359 152.362 307.859 153.173C306.684 155.074 304.027 155.562 301.862 155.66C302.26 154.992 302.623 154.304 302.95 153.598C304.11 151.111 304.128 149.875 305.448 146.373C306.3 144.112 307.123 143.333 307.819 142.773C308.461 142.261 308.62 142.337 309.973 141.628C313.341 139.861 314.939 138.028 315.839 138.61C315.933 138.676 316.013 138.76 316.074 138.857C317.107 140.257 316.23 143.955 313.942 146.442Z" fill="#F8AD07"/>
<path d="M300.252 166.263C299.798 161.575 300.034 156.846 300.952 152.227L301.677 152.391C300.774 156.929 300.542 161.576 300.988 166.183L300.252 166.263Z" fill="#F8AD07"/>
<path d="M310.824 161.845H290.935L287.589 177.604C287.339 178.788 287.356 180.014 287.638 181.191C287.921 182.369 288.462 183.468 289.222 184.408C289.982 185.349 290.942 186.108 292.032 186.629C293.122 187.15 294.314 187.421 295.521 187.421H306.245C307.453 187.421 308.645 187.15 309.734 186.629C310.824 186.108 311.784 185.349 312.544 184.408C313.304 183.468 313.846 182.369 314.128 181.191C314.411 180.014 314.428 178.788 314.178 177.604L310.824 161.845Z" fill="#E4003A"/>
<path d="M306.426 187.436H295.333V189.88H306.426V187.436Z" fill="#870B58"/>
<path d="M300.118 158.765C299.755 156.942 299.003 155.219 297.914 153.714L298.491 153.253C299.658 154.849 300.461 156.684 300.84 158.627L300.118 158.765Z" fill="#F8AD07"/>
<path d="M189 160H185V180H189V160Z" fill="#7783A0"/>
<path d="M192.281 136.321H181.477C177.429 136.321 174.146 139.613 174.146 143.674V146.499C174.146 150.559 177.429 153.851 181.477 153.851H192.281C196.33 153.851 199.612 150.559 199.612 146.499V143.674C199.612 139.613 196.33 136.321 192.281 136.321Z" fill="#E4003A"/>
<path d="M197.136 154H176.623C175.255 154 174.146 155.112 174.146 156.484V157.436C174.146 158.808 175.255 159.92 176.623 159.92H197.136C198.503 159.92 199.612 158.808 199.612 157.436V156.484C199.612 155.112 198.503 154 197.136 154Z" fill="#E4003A"/>
<path d="M199.039 188.329H197.563C197.563 186.4 196.799 184.55 195.44 183.187C194.08 181.823 192.236 181.057 190.312 181.057H183.112C181.189 181.057 179.345 181.823 177.985 183.187C176.625 184.55 175.861 186.4 175.861 188.329H174.386C174.388 186.009 175.307 183.784 176.943 182.144C178.578 180.503 180.795 179.58 183.109 179.577H190.309C192.623 179.579 194.842 180.501 196.479 182.142C198.115 183.783 199.036 186.008 199.039 188.329Z" fill="#7783A0"/>
<path d="M187.615 180.318H186.14V188.689H187.615V180.318Z" fill="#7783A0"/>
<path d="M175.129 190.627C176.196 190.627 177.062 189.759 177.062 188.689C177.062 187.618 176.196 186.751 175.129 186.751C174.062 186.751 173.197 187.618 173.197 188.689C173.197 189.759 174.062 190.627 175.129 190.627Z" fill="#F8AD07"/>
<path d="M198.303 190.627C199.37 190.627 200.235 189.759 200.235 188.689C200.235 187.618 199.37 186.751 198.303 186.751C197.236 186.751 196.371 187.618 196.371 188.689C196.371 189.759 197.236 190.627 198.303 190.627Z" fill="#F8AD07"/>
<path d="M186.879 190.627C187.946 190.627 188.812 189.759 188.812 188.689C188.812 187.618 187.946 186.751 186.879 186.751C185.812 186.751 184.947 187.618 184.947 188.689C184.947 189.759 185.812 190.627 186.879 190.627Z" fill="#F8AD07"/>
<path d="M166.033 194.361L165.909 197.386L164.401 197.328L164.162 196.328C164.162 196.248 163.582 196.328 163.277 196.135C163.188 196.081 163.113 196.007 163.058 195.918C163.003 195.829 162.969 195.729 162.96 195.625C162.951 195.521 162.966 195.416 163.005 195.319C163.044 195.222 163.105 195.135 163.183 195.066C163.563 194.717 163.96 194.387 164.372 194.077C164.967 193.681 165.786 193.688 166.033 194.361Z" fill="#303642"/>
<path d="M161.247 195.579L163.517 194.524L164.43 193.862C164.565 193.767 164.72 193.707 164.884 193.688C165.082 193.667 165.282 193.71 165.456 193.81C165.629 193.909 165.766 194.062 165.848 194.244L166.033 194.361L164.162 196.328L161.624 197.219L161.541 197.182C161.393 197.118 161.263 197.019 161.163 196.892C161.064 196.765 160.997 196.616 160.968 196.457C160.94 196.298 160.952 196.134 161.003 195.981C161.053 195.828 161.141 195.689 161.258 195.579H161.247Z" fill="#303642"/>
<path d="M161.251 195.579C161.351 195.563 161.454 195.573 161.549 195.608C161.645 195.643 161.729 195.702 161.795 195.779C161.861 195.857 161.906 195.95 161.926 196.05C161.945 196.15 161.939 196.253 161.907 196.35L161.624 197.219L158.865 197.114L158.887 196.608L161.251 195.579Z" fill="#303642"/>
<path d="M167.157 164.883V164.919L166.026 194.372L163.916 194.288L161.74 164.708V164.676C161.732 164.304 161.799 163.934 161.938 163.589C162.078 163.244 162.286 162.931 162.55 162.67C162.814 162.409 163.129 162.204 163.475 162.07C163.821 161.935 164.19 161.873 164.561 161.887C164.931 161.902 165.294 161.993 165.628 162.155C165.962 162.316 166.26 162.544 166.503 162.824C166.746 163.105 166.929 163.432 167.041 163.786C167.154 164.14 167.193 164.513 167.157 164.883Z" fill="#F8BFCD"/>
<path d="M182.989 195.815L184.077 198.64L182.667 199.19L182.054 198.364C182.01 198.295 181.517 198.586 181.166 198.539C181.063 198.525 180.964 198.486 180.879 198.427C180.793 198.368 180.722 198.289 180.673 198.198C180.623 198.106 180.595 198.004 180.592 197.899C180.589 197.795 180.61 197.691 180.655 197.597C180.897 197.081 181.195 196.47 181.358 196.215C181.746 195.619 182.504 195.295 182.993 195.815H182.989Z" fill="#303642"/>
<path d="M179.081 198.837L180.745 196.964L181.321 195.997C181.41 195.853 181.535 195.735 181.684 195.655C181.856 195.562 182.053 195.524 182.248 195.547C182.442 195.569 182.625 195.652 182.772 195.782L182.985 195.815L182.046 198.36L180.06 200.178H179.965C179.805 200.179 179.646 200.139 179.504 200.062C179.363 199.985 179.243 199.875 179.154 199.74C179.066 199.605 179.013 199.45 178.999 199.289C178.986 199.128 179.013 198.966 179.077 198.819L179.081 198.837Z" fill="#303642"/>
<path d="M179.081 198.837C179.166 198.784 179.264 198.754 179.364 198.749C179.465 198.744 179.565 198.765 179.654 198.81C179.744 198.855 179.822 198.922 179.879 199.005C179.936 199.088 179.971 199.184 179.98 199.284L180.064 200.197L177.497 201.193L177.315 200.72L179.081 198.837Z" fill="#303642"/>
<path d="M172.396 168.311V168.344L182.978 195.815L180.941 196.619L167.229 170.348V170.315C167.072 169.97 166.986 169.596 166.978 169.216C166.97 168.836 167.039 168.459 167.182 168.107C167.325 167.755 167.537 167.437 167.807 167.17C168.077 166.904 168.399 166.696 168.752 166.559C169.105 166.422 169.482 166.359 169.861 166.374C170.239 166.389 170.61 166.481 170.952 166.645C171.293 166.809 171.597 167.042 171.845 167.329C172.094 167.615 172.281 167.95 172.396 168.311Z" fill="#F8BFCD"/>
<path d="M192.571 150.786C192.917 151.229 193.168 151.739 193.309 152.284C193.451 152.829 193.48 153.397 193.394 153.953C193.309 154.509 193.11 155.042 192.812 155.518C192.513 155.995 192.12 156.405 191.658 156.724L171.308 170.904C170.708 171.255 170.001 171.374 169.32 171.241C168.639 171.107 168.03 170.729 167.606 170.177C167.202 169.648 167.014 168.983 167.081 168.32C167.149 167.656 167.466 167.043 167.969 166.607L186.611 150.244C187.03 149.871 187.522 149.589 188.054 149.413C188.587 149.238 189.149 149.174 189.708 149.224C190.266 149.275 190.808 149.44 191.3 149.708C191.793 149.977 192.225 150.344 192.571 150.786Z" fill="#F8BFCD"/>
<path d="M184.196 143.03C184.61 143.41 184.941 143.872 185.17 144.386C185.399 144.9 185.52 145.455 185.527 146.018C185.534 146.58 185.426 147.139 185.209 147.658C184.993 148.177 184.673 148.646 184.269 149.037L166.504 166.356C165.97 166.8 165.293 167.034 164.599 167.014C163.905 166.995 163.242 166.723 162.734 166.25C162.248 165.795 161.954 165.172 161.912 164.507C161.869 163.842 162.081 163.185 162.505 162.672L178.222 143.466C178.575 143.029 179.014 142.669 179.512 142.408C180.009 142.147 180.555 141.992 181.115 141.951C181.675 141.91 182.237 141.985 182.767 142.17C183.297 142.356 183.784 142.648 184.196 143.03Z" fill="#F8BFCD"/>
<path d="M178.73 147.44L188.196 156.531C189.352 157.596 191.049 157.662 192.075 156.687L196.73 151.477C197.203 150.994 197.512 150.375 197.612 149.706C197.712 149.037 197.599 148.353 197.288 147.753L196.302 145.677C194.605 141.968 191.524 139.608 187.674 138.314L185.955 137.703C185.339 137.459 184.662 137.415 184.02 137.575C183.377 137.735 182.8 138.093 182.369 138.597L178.247 143.564C177.363 144.684 177.577 146.375 178.73 147.44Z" fill="#F8BFCD"/>
<path d="M198.22 153.611L177.091 172.388L163.615 159.952L180.999 137.736L181.028 137.717C182.061 137.121 183.257 136.87 184.442 137.001C185.627 137.132 186.74 137.637 187.619 138.445L196.944 147.037C197.823 147.85 198.421 148.922 198.651 150.1C198.88 151.277 198.729 152.497 198.22 153.582" fill="#870B58"/>
<path d="M150.643 114.061L149.853 113.566C149.612 113.413 149.41 113.206 149.263 112.961C149.116 112.716 149.027 112.441 149.004 112.156C148.983 112.032 148.931 111.915 148.854 111.816C148.777 111.717 148.676 111.639 148.562 111.588L146.318 110.574C146.294 110.557 146.275 110.535 146.264 110.508C146.252 110.482 146.247 110.453 146.251 110.424C146.254 110.395 146.265 110.368 146.283 110.345C146.3 110.322 146.324 110.304 146.35 110.294L148.377 109.974C148.698 109.932 149.024 109.956 149.335 110.043C149.647 110.13 149.937 110.28 150.19 110.483L151.64 111.625L151.923 112.079C152.022 112.241 152.082 112.424 152.097 112.614C152.113 112.803 152.085 112.994 152.015 113.171C151.944 113.347 151.834 113.505 151.692 113.631C151.55 113.757 151.381 113.848 151.198 113.897L150.643 114.061Z" fill="#F8BFCD"/>
<path d="M163.325 126.369C163.768 127.097 164.451 127.647 165.256 127.926C166.06 128.204 166.936 128.192 167.733 127.893L184.621 120.177C185.129 119.987 185.592 119.693 185.981 119.314C186.37 118.935 186.677 118.479 186.881 117.976C187.086 117.472 187.184 116.931 187.169 116.387C187.154 115.844 187.027 115.309 186.796 114.817C186.356 113.884 185.569 113.161 184.603 112.805C183.638 112.448 182.571 112.487 181.633 112.912L164.485 122.609C162.904 123.7 162.386 124.973 163.339 126.369H163.325Z" fill="#F8AD07"/>
<path d="M151.636 111.628L150.657 114.061L163.738 126.754C164.019 127.027 164.381 127.199 164.77 127.246C165.158 127.293 165.551 127.211 165.888 127.012C167.795 125.889 168.288 123.867 167.03 122.042L166.903 121.856C166.756 121.642 166.566 121.461 166.345 121.326L151.636 111.628Z" fill="#F8AD07"/>
<path d="M181.445 135.379L181.506 135.096C181.605 134.634 181.795 134.198 182.066 133.812C182.337 133.427 182.683 133.1 183.083 132.852C183.483 132.604 183.928 132.439 184.393 132.368C184.858 132.297 185.333 132.32 185.788 132.438L195.682 134.983C196.162 135.107 196.61 135.331 196.997 135.642C197.383 135.952 197.7 136.342 197.925 136.784C198.15 137.227 198.279 137.712 198.303 138.208C198.327 138.705 198.245 139.2 198.064 139.663L198.586 150.051L175.927 144.211L181.445 135.379Z" fill="#F8AD07"/>
<path d="M182.877 112.526H198.412L199.975 125.093L198.303 138.717C198.156 139.914 197.577 141.015 196.676 141.813C195.775 142.611 194.615 143.052 193.412 143.052H186.198C184.929 143.051 183.709 142.559 182.792 141.678C181.875 140.798 181.333 139.596 181.278 138.325L179.393 127.384C179.082 125.614 179.207 123.796 179.755 122.086L182.877 112.526Z" fill="#F8AD07"/>
<path d="M209.147 135.838C209.847 135.352 210.355 134.636 210.586 133.814C210.816 132.993 210.753 132.116 210.409 131.336L201.762 114.868C201.542 114.372 201.222 113.926 200.822 113.56C200.422 113.194 199.951 112.915 199.438 112.74C198.925 112.565 198.381 112.499 197.842 112.546C197.302 112.592 196.778 112.75 196.302 113.01C195.398 113.504 194.724 114.334 194.425 115.322C194.126 116.309 194.226 117.375 194.703 118.29L205.337 134.903C206.522 136.423 207.813 136.87 209.147 135.838Z" fill="#F8AD07"/>
<path d="M188.061 135.089L189.149 137.467L206.932 136.619C207.209 136.609 207.484 136.572 207.755 136.51C207.937 136.468 208.109 136.389 208.261 136.279C208.413 136.169 208.542 136.03 208.639 135.87L210.18 133.351C210.301 133.153 210.371 132.928 210.385 132.697C210.399 132.465 210.356 132.234 210.26 132.023C210.163 131.812 210.017 131.628 209.833 131.487C209.649 131.347 209.433 131.254 209.205 131.216L205.217 131.143C205.02 131.114 204.819 131.125 204.626 131.176L188.04 135.085L188.061 135.089Z" fill="#F8AD07"/>
<path d="M192.843 112.526L189.776 122.064L186.589 112.526H192.843Z" fill="white"/>
<path d="M186.589 112.566L187.739 105.389H191.756L192.843 112.537L189.519 115.301L186.589 112.566Z" fill="#F8BFCD"/>
<path d="M187.101 101.036H190.762C191.28 101.036 191.776 101.242 192.141 101.609C192.507 101.976 192.713 102.474 192.713 102.992V103.774C192.953 103.789 193.179 103.895 193.344 104.071C193.509 104.247 193.6 104.48 193.6 104.721C193.6 104.963 193.509 105.195 193.344 105.371C193.179 105.547 192.953 105.654 192.713 105.669V107.85C192.712 108.344 192.516 108.817 192.168 109.167C191.82 109.516 191.349 109.714 190.857 109.716H188.177C187.81 109.716 187.445 109.644 187.106 109.503C186.766 109.362 186.457 109.155 186.197 108.895C185.937 108.634 185.731 108.324 185.59 107.983C185.45 107.643 185.378 107.277 185.378 106.909V102.767C185.378 102.309 185.56 101.869 185.883 101.544C186.205 101.22 186.643 101.037 187.101 101.036Z" fill="#F8BFCD"/>
<path d="M189.519 98.0001C190.71 98.0001 191.852 98.4748 192.695 99.3197C193.537 100.165 194.01 101.31 194.01 102.505V112.526H192.839L192.307 109.018C192.569 108.688 192.712 108.279 192.713 107.858V105.676C192.953 105.661 193.179 105.555 193.344 105.379C193.508 105.203 193.6 104.97 193.6 104.729C193.6 104.487 193.508 104.255 193.344 104.079C193.179 103.903 192.953 103.796 192.713 103.782V103C192.712 102.652 192.618 102.31 192.441 102.011C191.951 102.443 190.664 102.756 189.145 102.756C187.39 102.756 185.94 102.338 185.679 101.796C185.483 102.084 185.378 102.425 185.378 102.774V106.923C185.378 107.474 185.539 108.012 185.841 108.472C186.144 108.931 186.574 109.292 187.079 109.508L186.596 112.534H185.023V102.505C185.024 101.31 185.498 100.164 186.341 99.3194C187.184 98.4747 188.327 98.0001 189.519 98.0001Z" fill="#303642"/>
<path d="M131.141 141.109H127.614V190.501H131.141V141.109Z" fill="#AAAEB8"/>
<path d="M224.606 141.109H221.079V190.501H224.606V141.109Z" fill="#AAAEB8"/>
<path d="M235.153 137H117.06V143.807H235.153V137Z" fill="#AAAEB8"/>
<path d="M175.539 120.963H198.691C198.936 120.963 199.17 121.06 199.342 121.233C199.515 121.406 199.612 121.641 199.612 121.886V138.161H174.618V121.886C174.618 121.641 174.715 121.406 174.888 121.233C175.061 121.06 175.295 120.963 175.539 120.963Z" fill="#7783A0"/>
<path d="M174.618 138.161H199.609V138.848C199.609 139.117 199.502 139.374 199.313 139.563C199.124 139.753 198.868 139.859 198.601 139.859H175.626C175.359 139.859 175.102 139.753 174.913 139.563C174.724 139.374 174.618 139.117 174.618 138.848V138.161Z" fill="#303642"/>
<path d="M179.679 137.277H178.943V138.852H179.679V137.277Z" fill="#7783A0"/>
<path d="M195.287 137.277H194.551V138.852H195.287V137.277Z" fill="#7783A0"/>
<path d="M249.121 162.987H244.614V182.215H249.121V162.987Z" fill="#7783A0"/>
<path d="M259.732 155.58H234.002C232.306 155.58 230.932 156.959 230.932 158.66V159.907C230.932 161.608 232.306 162.987 234.002 162.987H259.732C261.428 162.987 262.803 161.608 262.803 159.907V158.66C262.803 156.959 261.428 155.58 259.732 155.58Z" fill="#E3E6EF"/>
<path d="M262.085 192.239H260.236C260.236 189.829 259.282 187.516 257.582 185.812C255.882 184.107 253.577 183.149 251.173 183.149H242.153C239.749 183.149 237.443 184.107 235.744 185.812C234.044 187.516 233.089 189.829 233.089 192.239H231.236C231.24 189.337 232.391 186.554 234.438 184.502C236.484 182.45 239.259 181.295 242.153 181.291H251.166C254.06 181.294 256.835 182.448 258.883 184.501C260.93 186.553 262.082 189.336 262.085 192.239Z" fill="#7783A0"/>
<path d="M247.787 182.214H245.941V192.69H247.787V182.214Z" fill="#7783A0"/>
<path d="M233.085 194.933C234.319 194.421 234.905 193.002 234.394 191.764C233.883 190.527 232.468 189.939 231.234 190.452C230 190.964 229.414 192.383 229.925 193.621C230.436 194.858 231.851 195.446 233.085 194.933Z" fill="#870B58"/>
<path d="M263.511 193.233C263.817 191.93 263.012 190.624 261.713 190.316C260.413 190.008 259.11 190.816 258.804 192.119C258.497 193.423 259.302 194.729 260.602 195.037C261.901 195.344 263.204 194.537 263.511 193.233Z" fill="#870B58"/>
<path d="M248.577 194.406C249.521 193.459 249.521 191.923 248.577 190.976C247.633 190.029 246.102 190.029 245.157 190.976C244.213 191.923 244.213 193.459 245.157 194.406C246.102 195.353 247.633 195.353 248.577 194.406Z" fill="#870B58"/>
<path d="M90.1207 162.987H85.6143V182.215H90.1207V162.987Z" fill="#7783A0"/>
<path d="M100.732 155.58H75.0024C73.3065 155.58 71.9316 156.959 71.9316 158.66V159.907C71.9316 161.608 73.3065 162.987 75.0024 162.987H100.732C102.428 162.987 103.803 161.608 103.803 159.907V158.66C103.803 156.959 102.428 155.58 100.732 155.58Z" fill="#E3E6EF"/>
<path d="M103.085 192.239H101.236C101.236 189.829 100.282 187.516 98.5818 185.812C96.882 184.107 94.5766 183.149 92.1728 183.149H83.1526C80.7488 183.149 78.4434 184.107 76.7436 185.812C75.0439 187.516 74.0889 189.829 74.0889 192.239H72.2363C72.2402 189.337 73.3915 186.554 75.4379 184.502C77.4842 182.45 80.2586 181.295 83.1526 181.291H92.1656C95.0602 181.294 97.8355 182.448 99.8826 184.501C101.93 186.553 103.082 189.336 103.085 192.239Z" fill="#7783A0"/>
<path d="M88.7868 182.214H86.9414V192.69H88.7868V182.214Z" fill="#7783A0"/>
<path d="M74.0849 194.933C75.3188 194.421 75.9047 193.002 75.3936 191.764C74.8825 190.527 73.468 189.939 72.2341 190.452C71.0002 190.964 70.4143 192.383 70.9254 193.621C71.4365 194.858 72.851 195.446 74.0849 194.933Z" fill="#870B58"/>
<path d="M104.511 193.233C104.817 191.93 104.012 190.624 102.713 190.316C101.413 190.008 100.11 190.816 99.8035 192.119C99.4967 193.423 100.302 194.729 101.602 195.037C102.901 195.344 104.204 194.537 104.511 193.233Z" fill="#870B58"/>
<path d="M89.577 194.406C90.5214 193.459 90.5214 191.923 89.577 190.976C88.6327 190.029 87.1015 190.029 86.1572 190.976C85.2128 191.923 85.2128 193.459 86.1572 194.406C87.1015 195.353 88.6327 195.353 89.577 194.406Z" fill="#870B58"/>
<path d="M253.06 138.452L252.528 136.376L263.272 128.691L252.821 116.799L258.219 115.1L269.468 127.774C270.479 129.284 270 131.333 268.458 132.25L253.06 138.452Z" fill="#E94E0F"/>
<path d="M221.468 154.685V191.331H223.888L227.238 154.685H221.468Z" fill="#F9D2C3"/>
<path d="M217 194H219.287L222.584 192.921L221.547 191.25L217 193.461V194Z" fill="#E4003A"/>
<path d="M222.239 194H223.967V191.25H221.547L222.584 192.921L222.239 194Z" fill="#E4003A"/>
<path d="M232.024 154.459L226.455 190.679L228.847 191.047L237.728 155.336L232.024 154.459Z" fill="#F9D2C3"/>
<path d="M222.673 194.372L224.89 193.812L227.824 191.959L226.409 190.592L222.541 193.849L222.673 194.372Z" fill="#E4003A"/>
<path d="M227.753 193.09L229.429 192.667L228.755 190L226.409 190.592L227.824 191.959L227.753 193.09Z" fill="#E4003A"/>
<path d="M260.719 144.654H237.158L236.679 117.258C236.759 116.718 236.918 116.233 237.158 115.775C237.929 114.292 239.471 113.321 241.2 113.321H254.603C256.863 113.321 258.778 114.993 259.124 117.258L260.719 144.654Z" fill="#E94E0F"/>
<path d="M234.711 160.213L221.494 154.982C221.175 149.993 223.356 146.65 226.999 146.191L237.131 144.654H260.719L260.187 147.728C258.991 154.658 253.06 159.701 246.12 159.701L234.711 160.213Z" fill="#E94E0F"/>
<path d="M244.87 113.321V116.152C244.87 116.799 245.588 117.177 246.12 116.799L250.773 113.321H244.87Z" fill="#F9D2C3"/>
<path d="M250.8 109.357C249.669 109.357 248.752 108.464 248.752 107.362C248.752 106.26 249.669 105.366 250.8 105.366C251.931 105.366 252.848 106.26 252.848 107.362C252.848 108.464 251.931 109.357 250.8 109.357Z" fill="#303642"/>
<path d="M250.785 106.701H248.232V103.681H250.785V106.701Z" fill="#303642"/>
<path d="M250.082 105.312C250.082 105.636 249.816 105.905 249.497 105.905C249.178 105.905 248.912 105.636 248.912 105.312C248.912 104.989 249.178 104.719 249.497 104.719C249.843 104.746 250.082 104.989 250.082 105.312Z" fill="#F9D2C3"/>
<path d="M246.731 106.256H249.045L250.773 113.321H244.87L246.731 106.256Z" fill="#F9D2C3"/>
<path d="M246.173 108.952H248.061C248.885 108.952 249.577 108.278 249.577 107.415V101.807H243.46V106.202C243.487 107.712 244.684 108.952 246.173 108.952Z" fill="#F9D2C3"/>
<path d="M250.8 103.694H244.923C243.912 103.694 243.114 102.858 243.114 101.861C243.114 100.836 243.939 100.027 244.923 100.027H247.157C249.178 100 250.8 101.645 250.8 103.694Z" fill="#303642"/>
<path d="M229 136L237 143L238.303 141.328L233.388 136.162L241.545 120.871L237.131 115.802L228.894 132.818C228.601 133.843 228.628 134.948 229 136Z" fill="#E94E0F"/>
<path d="M234.357 127.766L236.446 125.34L236.63 126.323L234.357 127.766Z" fill="#FDEAC1"/>
<path d="M249.55 140.648L244.339 121L234.357 127.765L239.803 146.289L249.55 140.648Z" fill="#F8AD07"/>
<path d="M251.574 138.049L250.245 138.858C249.792 139.128 249.234 139.209 248.702 139.047L247.08 138.561C246.974 138.534 246.974 138.373 247.08 138.346L249.048 137.779C249.261 137.725 249.42 137.564 249.447 137.348C249.553 136.863 249.872 136.485 250.298 136.296L251.016 136L251.574 138.049Z" fill="#F9D2C3"/>
<path d="M237 142.672L237.904 143.939C238.223 144.37 238.702 144.667 239.234 144.748L240.909 144.937C241.016 144.937 241.069 144.802 240.989 144.748L239.393 143.454C239.234 143.319 239.154 143.103 239.207 142.887C239.314 142.402 239.154 141.917 238.835 141.566L238.303 141L237 142.672Z" fill="#F9D2C3"/>
<path d="M127.535 137.033L104.354 138.993C104.193 139.014 104.029 139 103.873 138.954C103.717 138.908 103.573 138.831 103.448 138.726C103.324 138.621 103.223 138.491 103.151 138.346C103.079 138.2 103.038 138.04 103.031 137.878L103.007 137.57C102.986 137.409 103 137.245 103.046 137.089C103.092 136.933 103.17 136.789 103.274 136.665C103.379 136.54 103.509 136.439 103.655 136.368C103.8 136.296 103.96 136.256 104.122 136.249L127.306 134.285C127.467 134.265 127.631 134.279 127.787 134.326C127.942 134.372 128.087 134.45 128.211 134.555C128.335 134.661 128.436 134.79 128.507 134.936C128.579 135.082 128.619 135.242 128.626 135.404L128.653 135.709C128.677 136.032 128.573 136.352 128.364 136.599C128.155 136.847 127.857 137.002 127.535 137.033Z" fill="#F8AD07"/>
<path d="M126.129 136.126L131.529 111.596C131.577 111.412 131.694 111.253 131.854 111.152C132.015 111.051 132.208 111.016 132.395 111.052C132.581 111.089 132.746 111.195 132.857 111.35C132.967 111.504 133.015 111.695 132.99 111.883L127.586 136.414C127.567 136.509 127.53 136.601 127.476 136.682C127.422 136.763 127.352 136.833 127.271 136.887C127.19 136.941 127.099 136.979 127.004 136.998C126.908 137.018 126.81 137.018 126.714 136.999C126.618 136.98 126.527 136.942 126.446 136.888C126.365 136.834 126.295 136.765 126.241 136.684C126.187 136.603 126.149 136.512 126.13 136.416C126.111 136.321 126.11 136.222 126.129 136.126Z" fill="#F8AD07"/>
<path d="M104.984 151.603L105.122 151.014L105.053 150.378C105.03 150.149 104.954 149.929 104.83 149.736C104.706 149.542 104.538 149.381 104.34 149.265C104.142 149.15 103.919 149.083 103.69 149.07C103.461 149.058 103.232 149.099 103.023 149.193L102.392 149.462L102.029 150.52C101.917 150.843 101.881 151.188 101.925 151.527C101.968 151.867 102.09 152.192 102.28 152.476C102.35 152.609 102.387 152.757 102.387 152.907C102.387 153.057 102.35 153.205 102.28 153.338L100.913 155.981C100.902 156.015 100.902 156.051 100.91 156.085C100.919 156.119 100.937 156.15 100.962 156.175C100.987 156.2 101.018 156.217 101.052 156.225C101.086 156.234 101.122 156.232 101.156 156.221L103.291 155.003C103.622 154.804 103.909 154.541 104.137 154.229C104.364 153.916 104.526 153.562 104.614 153.185L104.977 151.618" fill="#FBD683"/>
<path d="M105.133 150.999L102.403 149.447L105.238 127.754C105.298 127.29 105.508 126.858 105.835 126.524C106.162 126.19 106.589 125.972 107.051 125.903C109.676 125.539 111.992 127.936 112.17 130.59L112.188 130.863C112.207 131.173 112.162 131.483 112.057 131.775L105.133 150.999Z" fill="#870B58"/>
<path d="M119.377 191.99L120.28 194.702L121.984 194.131L122.068 193.324C122.068 193.241 122.281 192.961 122.532 192.695C122.605 192.616 122.659 192.52 122.688 192.416C122.718 192.311 122.722 192.201 122.702 192.095C122.681 191.989 122.635 191.889 122.568 191.803C122.502 191.718 122.416 191.65 122.318 191.604C121.785 191.353 121.147 191.062 120.849 190.968C120.685 190.917 120.511 190.904 120.341 190.93C120.171 190.956 120.009 191.021 119.867 191.119C119.726 191.217 119.608 191.346 119.523 191.496C119.438 191.646 119.388 191.814 119.377 191.986V191.99Z" fill="#555D71"/>
<path d="M125.987 191.542L123.449 191.153L122.362 190.76C122.201 190.705 122.029 190.692 121.861 190.72C121.658 190.757 121.471 190.858 121.328 191.007C121.185 191.157 121.092 191.348 121.064 191.553L121.002 191.975L123.696 193.309L126.125 193.273L126.197 193.215C126.326 193.109 126.427 192.972 126.49 192.817C126.552 192.662 126.576 192.494 126.557 192.328C126.539 192.162 126.479 192.003 126.384 191.866C126.289 191.728 126.161 191.617 126.012 191.542H125.987Z" fill="#555D71"/>
<path d="M121.65 191.707C121.546 191.7 121.442 191.72 121.348 191.766C121.254 191.811 121.173 191.879 121.113 191.965C121.053 192.05 121.016 192.149 121.005 192.253C120.994 192.357 121.01 192.462 121.051 192.558L121.414 193.427L124.246 193.063L124.108 191.951L121.65 191.707Z" fill="#555D71"/>
<path d="M108.834 160.403L108.853 160.443L119.366 191.99L121.821 191.168L115.146 158.33V158.29C114.65 156.432 109.114 156.352 108.686 158.225L110.861 155.988C110.431 156.133 110.035 156.365 109.697 156.669C109.359 156.973 109.087 157.343 108.897 157.757C108.708 158.17 108.604 158.618 108.593 159.073C108.582 159.528 108.664 159.981 108.834 160.403Z" fill="#E4003A"/>
<path d="M79.8597 151.603C79.7065 152.274 79.692 152.969 79.8169 153.646C79.9418 154.322 80.2036 154.966 80.586 155.537C80.9685 156.109 81.4636 156.595 82.0408 156.968C82.6179 157.34 83.265 157.589 83.942 157.701L111.452 162.264C112.297 162.341 113.141 162.107 113.826 161.605C114.512 161.103 114.991 160.368 115.175 159.537C115.351 158.742 115.216 157.909 114.8 157.21C114.383 156.51 113.716 155.997 112.935 155.774L86.1789 147.891C85.5207 147.697 84.8299 147.64 84.1491 147.724C83.4682 147.807 82.8115 148.03 82.2196 148.378C81.6277 148.726 81.113 149.191 80.7071 149.746C80.3013 150.3 80.0129 150.933 79.8597 151.603Z" fill="#E4003A"/>
<path d="M121.585 188.117L121.948 190.957L123.728 190.728L123.967 189.95C123.967 189.855 124.297 189.586 124.616 189.314C124.691 189.255 124.751 189.181 124.793 189.096C124.834 189.011 124.856 188.917 124.856 188.823C124.856 188.728 124.834 188.635 124.793 188.549C124.751 188.464 124.691 188.39 124.616 188.332C124.189 188.008 123.681 187.63 123.529 187.539C123.366 187.444 123.186 187.384 122.999 187.362C122.812 187.339 122.622 187.355 122.442 187.408C122.261 187.462 122.094 187.552 121.949 187.672C121.804 187.793 121.685 187.942 121.6 188.11L121.585 188.117Z" fill="#555D71"/>
<path d="M126.585 188.684L124.156 187.797L123.155 187.197C123.009 187.11 122.843 187.062 122.673 187.059C122.466 187.054 122.263 187.115 122.093 187.233C121.923 187.351 121.794 187.521 121.727 187.717L121.585 188.117L123.964 189.957L126.349 190.404L126.436 190.361C126.583 190.282 126.708 190.167 126.799 190.028C126.891 189.889 126.946 189.729 126.961 189.563C126.976 189.396 126.949 189.229 126.884 189.076C126.818 188.923 126.715 188.788 126.585 188.684Z" fill="#555D71"/>
<path d="M126.585 188.684C126.481 188.678 126.377 188.698 126.283 188.744C126.19 188.789 126.109 188.857 126.049 188.942C125.988 189.027 125.951 189.126 125.939 189.23C125.928 189.334 125.943 189.439 125.983 189.535L126.346 190.404L129.181 190.041L129.043 188.928L126.585 188.684Z" fill="#555D71"/>
<path d="M117.471 155.069V155.109L121.578 188.117L124.145 187.797L124.058 154.287V154.243C124.029 153.789 123.908 153.345 123.702 152.94C123.496 152.534 123.21 152.175 122.861 151.884C122.511 151.594 122.106 151.378 121.671 151.25C121.235 151.123 120.778 151.086 120.327 151.142C119.877 151.198 119.443 151.347 119.052 151.578C118.661 151.809 118.321 152.118 118.053 152.486C117.786 152.854 117.596 153.273 117.496 153.717C117.395 154.161 117.387 154.621 117.471 155.069Z" fill="#E4003A"/>
<path d="M88.0028 150.818C87.9272 151.501 87.9919 152.193 88.1929 152.851C88.3939 153.508 88.7268 154.118 89.1714 154.642C89.6159 155.166 90.1625 155.593 90.7777 155.897C91.3928 156.201 92.0635 156.375 92.7485 156.41L120.603 157.806C121.451 157.785 122.262 157.456 122.885 156.879C123.508 156.302 123.901 155.518 123.989 154.672C124.074 153.861 123.846 153.049 123.353 152.401C122.859 151.753 122.138 151.32 121.335 151.189L93.8615 146.407C93.1855 146.29 92.4926 146.312 91.8256 146.473C91.1585 146.634 90.5314 146.931 89.9827 147.344C89.434 147.757 88.9753 148.278 88.6348 148.875C88.2943 149.473 88.0792 150.134 88.0028 150.818Z" fill="#E4003A"/>
<path d="M94.4342 155.25H83.5578C82.7033 155.25 81.8811 154.923 81.2587 154.336C80.6362 153.749 80.2604 152.946 80.2078 152.09L79.8453 145.752C79.7992 144.935 80.002 144.123 80.4268 143.423C80.8515 142.724 81.4781 142.17 82.2236 141.836L84.6309 140.746C88.88 138.76 89.7464 138.815 93.9484 140.902L95.8445 141.8C96.5707 142.143 97.1781 142.697 97.5889 143.388C97.9997 144.08 98.1952 144.879 98.1503 145.683L97.7878 152.079C97.7378 152.937 97.3626 153.744 96.7391 154.333C96.1157 154.922 95.291 155.251 94.4342 155.25Z" fill="#E4003A"/>
<path d="M110.129 131.434C108.953 132.123 107.691 132.655 106.377 133.015C106.094 133.087 105.797 133.089 105.513 133.021C105.229 132.954 104.966 132.818 104.745 132.626L90.8741 116.627C90.308 115.988 89.8895 115.231 89.6482 114.411C89.4069 113.591 89.3489 112.727 89.4783 111.882C89.7132 110.358 90.5416 108.99 91.7816 108.079C93.0215 107.167 94.5715 106.787 96.0911 107.021C96.934 107.151 97.7378 107.466 98.4453 107.944C99.1528 108.422 99.7465 109.05 100.184 109.784L111.402 128.186C111.536 128.401 111.623 128.642 111.656 128.893C111.689 129.144 111.668 129.399 111.594 129.641C111.313 130.383 110.799 131.012 110.129 131.434Z" fill="#870B58"/>
<path d="M76.5968 129.968L77.0101 132.601L77.9636 138.753L79.8597 152.548L97.9871 151.094L98.9333 128.55C98.9531 128.284 98.9151 128.016 98.8218 127.766C98.7285 127.516 98.5823 127.289 98.393 127.101C98.2038 126.913 97.9762 126.768 97.7259 126.677C97.4755 126.585 97.2084 126.55 96.943 126.572L78.7141 128.157C77.1007 128.274 76.4373 128.852 76.5968 129.968Z" fill="#870B58"/>
<path d="M99.6368 118.693L94.4016 106.897L83.5651 107.824L78.2502 108.272L75.125 120.733L76.6368 130.314C76.9305 131.452 76.9051 133.033 78.087 132.935L96.6966 131.328C97.2666 131.279 97.8005 131.027 98.2025 130.619C98.6044 130.21 98.8482 129.672 98.89 129.099L99.6368 118.693Z" fill="#870B58"/>
<path d="M88.0134 116.9L90.6383 107.214L84.1704 107.748L88.0134 116.9Z" fill="white"/>
<path d="M88.9596 139.408L90.0727 139.473C90.4145 139.496 90.7462 139.599 91.0415 139.773C91.3367 139.947 91.5872 140.188 91.773 140.477C91.866 140.594 91.9865 140.687 92.1237 140.746C92.2609 140.806 92.4107 140.831 92.5597 140.819L95.5217 140.597C95.5562 140.6 95.5891 140.613 95.6167 140.634C95.6444 140.655 95.6657 140.683 95.6785 140.715C95.6912 140.748 95.6948 140.783 95.6889 140.817C95.683 140.851 95.6678 140.883 95.645 140.91L93.6909 142.404C93.3764 142.631 93.0196 142.793 92.6416 142.88C92.2636 142.967 91.8721 142.977 91.4902 142.909L89.3149 142.546L88.84 142.139C88.6412 141.968 88.4839 141.754 88.38 141.513C88.276 141.272 88.2282 141.011 88.2401 140.748C88.2519 140.486 88.3232 140.23 88.4486 140C88.5739 139.769 88.7499 139.571 88.9632 139.419L88.9596 139.408Z" fill="#FBD683"/>
<path d="M65.8148 135.855C64.9886 135.255 64.3966 134.386 64.1405 133.396C63.8845 132.405 63.9804 131.357 64.4117 130.43L73.1346 111.635C73.4864 110.855 74.0054 110.163 74.6546 109.607C75.3038 109.051 76.0673 108.646 76.8906 108.421C78.3742 108.015 79.9577 108.217 81.2928 108.982C82.628 109.747 83.6057 111.013 84.011 112.5C84.2353 113.326 84.2752 114.191 84.1279 115.034C83.9807 115.877 83.6499 116.676 83.1591 117.376L71.0935 134.979C69.6433 136.775 67.3919 137.128 65.8148 135.855Z" fill="#870B58"/>
<path d="M90.1306 139.459L88.2779 142.004L67.5693 136.783C67.2474 136.703 66.9331 136.594 66.6303 136.459C66.426 136.367 66.2422 136.235 66.0896 136.071C65.937 135.907 65.8188 135.713 65.742 135.503L64.5166 132.186C64.4204 131.925 64.39 131.644 64.428 131.368C64.4659 131.092 64.5711 130.83 64.7342 130.605C64.8973 130.379 65.1133 130.198 65.3631 130.076C65.6128 129.954 65.8887 129.896 66.1662 129.907L71.0823 130.092C71.3229 130.1 71.5591 130.16 71.7748 130.267L90.1269 139.448L90.1306 139.459Z" fill="#870B58"/>
<path d="M84.1743 107.773L85.2003 100.708L88.1007 100.468L90.6385 107.213L87.6221 110.093L84.1743 107.773Z" fill="#FBD683"/>
<path d="M92.0887 100.748L91.7841 97.0503C91.7512 96.6348 91.6368 96.2298 91.4476 95.8586C91.2585 95.4874 90.9982 95.1573 90.6816 94.8871C90.3651 94.6169 89.9985 94.4119 89.6029 94.284C89.2073 94.1561 88.7905 94.1076 88.3762 94.1414L86.9731 94.2578C86.5584 94.2908 86.1543 94.4056 85.784 94.5956C85.4136 94.7855 85.0842 95.0469 84.8148 95.3648C84.5454 95.6827 84.3411 96.0507 84.2138 96.4479C84.0864 96.8451 84.0385 97.2636 84.0727 97.6794L84.4969 102.864C84.5403 103.373 84.7823 103.843 85.17 104.174C85.5577 104.504 86.0599 104.667 86.5671 104.628L88.9671 104.432C89.4155 104.402 89.8533 104.282 90.2547 104.079C90.656 103.876 91.0128 103.595 91.3038 103.251C91.5949 102.908 91.8143 102.51 91.9491 102.08C92.0839 101.65 92.1313 101.197 92.0887 100.748Z" fill="#FBD683"/>
<path d="M90.2324 94.0074L86.3278 94.331C85.6868 94.3838 85.0905 94.6815 84.6621 95.1627C84.2336 95.6438 84.0058 96.2715 84.0256 96.9163L84.2721 99.9379C84.472 100.007 84.681 100.045 84.8921 100.051C84.8799 99.8854 84.9167 99.7204 84.9979 99.5761C85.079 99.4318 85.2008 99.3149 85.3481 99.2399C85.4953 99.1649 85.6613 99.1352 85.8253 99.1546C85.9893 99.174 86.144 99.2416 86.2698 99.3488C86.5868 98.942 86.8388 98.4881 87.0166 98.0035L91.8639 97.6035C92.178 97.5766 92.4687 97.4262 92.6725 97.185C92.8763 96.9438 92.9766 96.6315 92.9515 96.3163C92.8915 95.6504 92.5727 95.0349 92.0639 94.6029C91.5551 94.1708 90.8972 93.9569 90.2324 94.0074Z" fill="#303642"/>
<path d="M73.9707 39.358V25.0001H59.694V39.358H73.9707Z" fill="#FDEAC1"/>
<path d="M73.9707 56.5711V42.2133H59.694V56.5711H73.9707Z" fill="#FDEAC1"/>
<path d="M73.9707 73.7871V59.4292H59.694V73.7871H73.9707Z" fill="#FDEAC1"/>
<path d="M73.9707 91.0002V76.6423H59.694V91.0002H73.9707Z" fill="#FDEAC1"/>
<path d="M57.125 39.358V25.0001H42.8482V39.358H57.125Z" fill="#FDEAC1"/>
<path d="M57.1226 56.571V42.2131H42.8458V56.571H57.1226Z" fill="#FDEAC1"/>
<path d="M57.125 73.7841V59.4263H42.8483V73.7841H57.125Z" fill="#FDEAC1"/>
<path d="M57.1226 91.0001V76.6422H42.8458V91.0001H57.1226Z" fill="#FDEAC1"/>
<path d="M40.2798 39.358V25.0001H26.003V39.358H40.2798Z" fill="#FDEAC1"/>
<path d="M40.2769 56.571V42.2131H26.0001V56.571H40.2769Z" fill="#FDEAC1"/>
<path d="M40.2769 73.7871V59.4292H26.0001V73.7871H40.2769Z" fill="#FDEAC1"/>
<path d="M40.2769 91.0002V76.6423H26.0001V91.0002H40.2769Z" fill="#FDEAC1"/>
<path d="M262.082 60.4265L251.598 72.0876L250.175 70.5806L260.615 58.8676L262.082 60.4265Z" fill="#F8AD07"/>
<path d="M259.864 73.4255L260.502 75.2571L249.272 78.3474L248.617 76.4834L259.864 73.4255Z" fill="#F8AD07"/>
<path d="M244.987 70.9165L245.966 61.8427L247.867 62.6237L247.017 71.7697L244.987 70.9165Z" fill="#F8AD07"/>
</svg>
