<svg width="340" height="204" viewBox="0 0 340 204" fill="none" xmlns="http://www.w3.org/2000/svg">
<rect width="340" height="204" fill="#F8F9FB"/>
<path d="M234.124 52.1548L240.885 197.858L104.5 195L202.644 43.7282L234.124 52.1548Z" fill="#FDEAC1"/>
<path d="M222.078 0H220.501V34.5416H222.078V0Z" fill="#870B58"/>
<path d="M234.125 52.1548C235.819 43.7914 230.705 35.4559 222.327 33.2133C213.949 30.9707 205.354 35.6366 202.644 43.7282L234.125 52.1548Z" fill="#870B58"/>
<rect y="187.598" width="339.793" height="16.402" fill="#F9D2C3"/>
<path d="M149 164C165.416 165.602 158 176 170.5 180C183 184 186.843 136 191.343 146.5" stroke="#555D71"/>
<rect width="1.60969" height="1.20727" transform="matrix(-1 0 0 1 192 146)" fill="#7F8594"/>
<rect width="0.804847" height="2.41454" transform="matrix(-1 0 0 1 191.598 147)" fill="#7F8594"/>
<rect width="19.961" height="4.51948" rx="2.25974" transform="matrix(4.37114e-08 1 1 -4.37114e-08 142.429 146.507)" fill="#ADB4C6"/>
<rect width="32.7662" height="9.41559" rx="4" transform="matrix(4.37114e-08 -1 -1 -4.37114e-08 149.208 193.585)" fill="#F8AD07"/>
<rect width="29" height="4.51948" rx="2.25974" transform="matrix(-1 0 0 1 159 145)" fill="#242831"/>
<rect width="24" height="2" rx="1" transform="matrix(-1 0 0 1 157 192)" fill="#242831"/>
<rect x="58" y="165.723" width="32" height="2.03678" fill="#7F8594"/>
<rect x="59.1533" y="163.783" width="2.79493" height="12.6941" fill="#C8CDD9"/>
<path d="M71.7549 177.093C71.2581 177.585 71.2581 178.381 71.7549 178.874C72.2517 179.366 73.055 179.366 73.5518 178.874C74.0485 178.381 74.0485 177.585 73.5518 177.093C73.055 176.6 72.2517 176.6 71.7549 177.093ZM73.3826 177.868C73.2347 177.952 73.1924 178.119 73.2769 178.266C73.2875 178.277 73.2981 178.308 73.3087 178.318C73.1501 178.308 73.0021 178.413 72.981 178.58C72.981 178.601 72.981 178.622 72.981 178.643C72.8541 178.538 72.6745 178.549 72.5582 178.664C72.5476 178.675 72.5265 178.696 72.5265 178.717C72.4948 178.559 72.3362 178.465 72.1777 178.497C72.1671 178.486 72.1565 178.497 72.1248 178.507C72.1882 178.36 72.1248 178.193 71.9769 178.13C71.9557 178.109 71.9346 178.109 71.924 178.098C72.072 178.015 72.1143 177.847 72.0297 177.7C72.0191 177.69 72.0086 177.658 71.998 177.648C72.1565 177.658 72.3045 177.554 72.3257 177.386C72.3257 177.365 72.3257 177.344 72.3257 177.323C72.4525 177.428 72.6322 177.417 72.7485 177.302C72.759 177.292 72.7802 177.271 72.7802 177.25C72.8119 177.407 72.9704 177.501 73.129 177.47C73.1501 177.47 73.1607 177.459 73.1924 177.449C73.129 177.595 73.1924 177.763 73.3404 177.826C73.3509 177.857 73.3721 177.857 73.3826 177.868Z" fill="#303642"/>
<path d="M74.3657 164.97L73.8055 167.181C73.4673 167.349 73.0762 167.38 72.7168 167.275C72.3469 167.202 72.0192 167.003 71.7972 166.699L72.3363 164.467C71.3956 164.792 70.6768 165.547 70.4232 166.489C70.0849 167.873 71.755 168.753 71.755 169.214L71.755 176.338C71.755 176.38 71.7233 176.433 71.6916 176.464C71.4062 176.642 71.1948 176.894 71.0468 177.187C70.7297 177.857 70.846 178.643 71.3533 179.188C72.0298 179.921 73.1608 179.953 73.8901 179.272C73.9112 179.251 73.9324 179.23 73.9535 179.209C74.4609 178.664 74.5771 177.878 74.26 177.208C74.1226 176.904 73.9007 176.663 73.6153 176.485C73.573 176.464 73.5413 176.412 73.5518 176.359L73.5518 169.214C73.5624 169.098 73.647 168.994 73.7527 168.952C74.1543 168.805 74.9259 168.396 75.1162 167.642C75.317 166.668 75.0316 165.672 74.3657 164.97ZM73.4461 178.769C73.0128 179.199 72.294 179.199 71.8607 178.769C71.4273 178.339 71.4273 177.627 71.8607 177.197C72.294 176.768 73.0128 176.768 73.4461 177.197C73.8795 177.627 73.8795 178.339 73.4461 178.769Z" fill="#F8AD07"/>
<path d="M69.1275 161.644L69.647 163.703L69.1275 165.248V170.655L67.8288 170.655V165.377L67.3094 163.703L67.8288 161.644L69.1275 161.644Z" fill="#C8CDD9"/>
<path d="M66.5302 179.177C66.5302 179.872 67.1146 180.451 67.8159 180.451L69.1406 180.451C69.8419 180.451 70.4263 179.872 70.4263 179.177L70.4263 173.281C70.4263 173.204 70.4133 173.113 70.3873 173.036L66.5692 173.036C66.5432 173.113 66.5173 173.191 66.5302 173.281L66.5302 179.177Z" fill="#F8AD07"/>
<path d="M70.3352 171.286L70.1664 170.578C70.0884 170.243 69.8027 170.011 69.4521 170.024L67.5041 170.024C67.1664 170.024 66.8548 170.256 66.7898 170.578L66.621 171.286C66.595 171.389 66.595 171.517 66.621 171.62L70.3352 171.62C70.3612 171.517 70.3482 171.401 70.3352 171.286Z" fill="#7783A0"/>
<path d="M70.2052 172.753L69.7766 172.328L67.1793 172.328L66.7507 172.753C66.6728 172.83 66.5772 172.933 66.5513 173.036L70.387 173.036C70.3481 172.92 70.2831 172.83 70.2052 172.753Z" fill="#F8AD07"/>
<path d="M67.1794 172.328L69.7767 172.328L70.1404 171.968C70.2313 171.878 70.3092 171.749 70.3352 171.62L66.621 171.62C66.6469 171.749 66.7249 171.878 66.8158 171.968L67.1794 172.328Z" fill="#F8AD07"/>
<path d="M75.6697 170.362L77.4297 170.362L77.4173 181.382L75.6697 181.37V170.362Z" fill="#F8AD07"/>
<path d="M77.4172 182.832H75.6572L75.6572 184.405C75.6572 184.601 75.806 184.749 76.0043 184.749L77.0454 184.749C77.2437 184.749 77.3925 184.601 77.3925 184.405L77.4172 182.832Z" fill="#F17F9C"/>
<path d="M77.415 183.081V181.135H75.6622V183.081H77.415Z" fill="#C8CDD9"/>
<path d="M75.9918 170.583L76.1901 170.362L76.4876 170.607C76.5124 170.632 76.5619 170.632 76.5867 170.607L76.8842 170.362L77.0825 170.583C77.1197 170.62 77.1693 170.62 77.2064 170.583L77.4048 170.362L76.9462 168.457C76.9338 168.371 76.1405 168.371 76.1157 168.47L75.6571 170.374L75.8554 170.595C75.905 170.62 75.9546 170.62 75.9918 170.583Z" fill="#FDEAC1"/>
<path d="M76.9588 168.47L76.6242 167.106C76.6118 167.069 76.5746 167.032 76.5126 167.045C76.4755 167.057 76.4507 167.081 76.4507 167.106L76.116 168.47L76.9588 168.47Z" fill="#242831"/>
<path d="M77.4209 181.552V181.378H75.6681V181.552H77.4209Z" fill="#929BB3"/>
<path d="M77.4121 181.851V181.677H75.6593V181.851H77.4121Z" fill="#929BB3"/>
<path d="M77.4209 182.535V182.361H75.6681V182.535H77.4209Z" fill="#929BB3"/>
<path d="M77.4121 182.833V182.66H75.6593V182.833H77.4121Z" fill="#929BB3"/>
<rect x="85.7686" y="163.783" width="2.79493" height="12.6941" fill="#C8CDD9"/>
<rect x="58.2881" y="175.906" width="31.1351" height="13.0936" fill="#7F8594"/>
<rect x="79.4106" y="168.129" width="2.70359" height="7.84508" fill="#F8AD07"/>
<rect x="79.0728" y="168.129" width="0.33795" height="7.84508" fill="#E3E6EF"/>
<path d="M73.9707 39.3579V25H59.694V39.3579H73.9707Z" fill="#E3E6EF"/>
<path d="M73.9707 56.571V42.2131H59.694V56.571H73.9707Z" fill="#E3E6EF"/>
<path d="M73.9707 73.787V59.4291H59.694V73.787H73.9707Z" fill="#E3E6EF"/>
<path d="M73.9707 91V76.6421H59.694V91H73.9707Z" fill="#E3E6EF"/>
<path d="M57.125 39.3579V25H42.8482V39.3579H57.125Z" fill="#E3E6EF"/>
<path d="M57.1226 56.5709V42.213H42.8458V56.5709H57.1226Z" fill="#E3E6EF"/>
<path d="M57.125 73.784V59.4261H42.8483V73.784H57.125Z" fill="#E3E6EF"/>
<path d="M57.1226 91V76.6421H42.8458V91H57.1226Z" fill="#E3E6EF"/>
<path d="M40.2798 39.3579V25H26.003V39.3579H40.2798Z" fill="#E3E6EF"/>
<path d="M40.2769 56.5709V42.213H26.0001V56.5709H40.2769Z" fill="#E3E6EF"/>
<path d="M40.2769 73.7869V59.4291H26.0001V73.7869H40.2769Z" fill="#E3E6EF"/>
<path d="M40.2769 90.9999V76.6421H26.0001V90.9999H40.2769Z" fill="#E3E6EF"/>
<path d="M120.812 64.5834L129.526 77.6205L131.15 76.332L122.487 63.2497L120.812 64.5834Z" fill="#F8AD07"/>
<path d="M121.154 77.7658L120.261 79.4878L130.936 84.1482L131.85 82.3967L121.154 77.7658Z" fill="#F8AD07"/>
<path d="M136.236 77.4044L136.562 68.2837L134.569 68.7856L134.106 77.9594L136.236 77.4044Z" fill="#F8AD07"/>
<circle cx="264.093" cy="148.694" r="22.6269" transform="rotate(-163.656 264.093 148.694)" stroke="#303642" stroke-width="3"/>
<path d="M171.615 121.574C175.132 109.583 187.703 102.712 199.695 106.229C211.686 109.746 218.557 122.317 215.04 134.309C211.526 146.289 198.925 153.08 186.922 149.56C174.929 146.043 168.099 133.564 171.615 121.574Z" stroke="#303642" stroke-width="3"/>
<path d="M234.698 140.548L196.644 163.545L237.706 175.587L263.529 149.003L234.698 140.548ZM234.698 140.548L240.257 186.297M230.647 183.479L240.257 186.297M244.189 187.45L240.257 186.297" stroke="#F8AD07" stroke-width="3" stroke-linecap="round" stroke-linejoin="round"/>
<path d="M192.891 127.813L196.625 181.403L185.747 178.213" stroke="#F8AD07" stroke-width="3" stroke-linecap="round" stroke-linejoin="round"/>
<path d="M147.596 86.1213L150.8 87.2785L150.028 89.6169C149.909 89.9433 149.726 90.2424 149.49 90.4969C149.254 90.7513 148.971 90.9559 148.655 91.0986C148.34 91.2413 148 91.3192 147.655 91.3279C147.309 91.3365 146.966 91.2757 146.644 91.1489L145.944 90.9271L147.596 86.1213Z" fill="#303642"/>
<path d="M138.296 90.4385C139.376 89.1376 140.172 87.6234 140.633 85.994L143.59 87.0638L141.95 91.8594L138.24 90.5262L138.296 90.4385Z" fill="#303642"/>
<path d="M108.26 125.043C107.478 125.994 106.903 127.1 106.573 128.289C106.243 129.479 106.164 130.724 106.343 131.946C106.522 133.168 106.954 134.338 107.61 135.381C108.267 136.424 109.135 137.316 110.156 138L121.231 156.309L129.199 188.088L131.862 188.463L129.606 154.366C129.466 152.669 129.338 149.426 128.443 147.554L121.813 130.886L110.994 121.707L108.26 125.043Z" fill="#EE7A4B"/>
<path d="M109.169 123.449C108.199 124.203 107.396 125.153 106.813 126.238C106.23 127.323 105.88 128.519 105.784 129.749C105.689 130.978 105.851 132.214 106.26 133.377C106.668 134.54 107.314 135.604 108.157 136.5L114.594 156.14L115.524 188.914L118.048 189.862L123.236 156.105C123.469 154.42 124.05 151.236 123.538 149.199L120.689 131.454L112.519 120.78L109.169 123.449Z" fill="#EE7A4B"/>
<path d="M136.69 190.991L134.189 190.019L131.793 188.404L131.502 190.64L133.933 191.81L136.492 192.22L136.69 190.991Z" fill="#303642"/>
<path d="M122.636 190.896L120.136 189.925L117.74 188.309L117.449 190.545L119.88 191.716L122.439 192.125L122.636 190.896Z" fill="#303642"/>
<path d="M131.571 190.687L131.862 188.451L129.198 188.088L128.71 191.108L130.629 191.412L131.571 190.687Z" fill="#303642"/>
<path d="M117.518 190.592L117.809 188.356L115.145 187.994L114.657 191.013L116.576 191.318L117.518 190.592Z" fill="#303642"/>
<path d="M171.463 116.134L172.471 115.75C172.787 115.631 173.069 115.435 173.292 115.18C173.515 114.924 173.672 114.617 173.748 114.286C173.762 114.135 173.825 113.992 173.926 113.88C174.028 113.767 174.164 113.691 174.312 113.663L177.123 112.963C177.235 112.935 177.283 112.742 177.06 112.713L174.799 111.962C174.442 111.828 174.06 111.774 173.68 111.804C173.301 111.834 172.932 111.947 172.601 112.135L170.087 113.546L171.463 116.134Z" fill="#F8BFCD"/>
<path d="M113.98 115.311L118.931 99.9266C119.362 98.5926 120.09 97.3751 121.06 96.3673C122.03 95.3594 123.216 94.5879 124.527 94.1118C125.838 93.6358 127.24 93.4678 128.625 93.6207C130.01 93.7737 131.341 94.2435 132.516 94.9943L142.636 101.387C143.738 102.074 144.68 102.99 145.401 104.074C146.121 105.158 146.603 106.384 146.813 107.672C147.023 108.959 146.958 110.277 146.62 111.537C146.283 112.797 145.682 113.971 144.857 114.979L124.645 139.192L106.09 127.436L113.98 115.311Z" fill="#E94E0F"/>
<path d="M150.384 126.006C149.213 126.279 147.99 126.229 146.843 125.861C145.696 125.492 144.669 124.82 143.869 123.914L137.453 116.682L144.497 108.148L151.342 119.025L170.657 113L171.988 115.744L150.384 126.006Z" fill="#E94E0F"/>
<path d="M147.3 94.4179L149.501 88.0962L142.082 85.4066L139.507 92.7457C139.392 93.0976 139.418 93.4802 139.579 93.8129C139.739 94.1457 140.022 94.4025 140.367 94.5293L144.195 95.8641C144.492 95.9875 144.811 96.0476 145.132 96.0408C145.453 96.034 145.769 95.9603 146.061 95.8245C146.353 95.6886 146.613 95.4935 146.826 95.2514C147.04 95.0093 147.201 94.7255 147.3 94.4179Z" fill="#F8BFCD"/>
<path d="M138.463 98.5755L135.415 96.6704L136.334 108.346L140.88 100.161L138.463 98.5755Z" fill="white"/>
<path d="M135.37 96.8538L138.437 100.74L140.832 100.273L144.387 93.07L140.805 91.8342L135.37 96.8538Z" fill="#F8BFCD"/>
<path d="M140.929 85.3563C141.063 84.9782 141.27 84.6305 141.539 84.3335C141.807 84.0364 142.132 83.7959 142.493 83.6259C142.855 83.4559 143.246 83.3597 143.645 83.343C144.043 83.3263 144.441 83.3893 144.815 83.5285L151.941 86.1138C151.782 86.5747 151.533 86.9991 151.209 87.3623C150.885 87.7255 150.493 88.02 150.054 88.2287C149.616 88.4373 149.141 88.5559 148.657 88.5774C148.172 88.599 147.689 88.523 147.235 88.3541L140.633 85.9939L140.929 85.3563Z" fill="#303642"/>
<path d="M141.358 88.6573C141.506 88.7141 141.634 88.8138 141.726 88.9439C141.818 89.0739 141.869 89.2285 141.874 89.388C141.878 89.5475 141.836 89.7049 141.751 89.8402C141.667 89.9755 141.545 90.0827 141.4 90.1483C141.255 90.2139 141.095 90.2348 140.938 90.2086C140.782 90.1823 140.637 90.11 140.521 90.0008C140.406 89.8915 140.325 89.7503 140.289 89.5948C140.254 89.4393 140.264 89.2767 140.321 89.1273C140.415 88.9418 140.569 88.7941 140.757 88.7086C140.946 88.6231 141.158 88.605 141.358 88.6573Z" fill="#F8BFCD"/>
<path d="M124.249 97.0367L122.119 119.972L137.418 142.388L140.206 141.665L128.91 120.355L132.256 99.2473L124.249 97.0367Z" fill="#E94E0F"/>
<path d="M137.431 142.355L137.573 143.419C137.605 143.747 137.725 144.06 137.919 144.325C138.114 144.591 138.376 144.798 138.678 144.926C138.798 145.011 138.899 145.121 138.974 145.248C139.048 145.375 139.096 145.517 139.112 145.664L139.195 148.617C139.232 148.808 139.396 148.898 139.487 148.732L140.705 146.696C140.905 146.368 141.034 146.001 141.084 145.619C141.133 145.237 141.103 144.85 140.993 144.482L140.221 141.659L137.431 142.355Z" fill="#F8BFCD"/>
</svg>
