<svg width="40" height="40" viewBox="0 0 40 40" fill="none" xmlns="http://www.w3.org/2000/svg">
<g clip-path="url(#clip0_769_25006)">
<path d="M0 20C0 8.95431 8.95431 0 20 0C31.0457 0 40 8.95431 40 20C40 31.0457 31.0457 40 20 40C8.95431 40 0 31.0457 0 20Z" fill="#E94E0F"/>
<g clip-path="url(#clip1_769_25006)">
<path fill-rule="evenodd" clip-rule="evenodd" d="M-19.6667 0H40.3333V40H-19.6667V0Z" fill="#198A00"/>
<path fill-rule="evenodd" clip-rule="evenodd" d="M33.2942 14.375H40.3333V40H33.2942V14.375Z" fill="#EF7D00"/>
<path fill-rule="evenodd" clip-rule="evenodd" d="M26.2629 14.3594H33.2942V39.9844H26.2629V14.3594Z" fill="black"/>
<path fill-rule="evenodd" clip-rule="evenodd" d="M19.0833 14.375H26.2629V40H19.0754L19.0833 14.375Z" fill="#DE2010"/>
<path fill-rule="evenodd" clip-rule="evenodd" d="M35.6147 5.12503C35.6147 5.12503 38.2709 3.99222 38.5209 3.75784C38.6381 3.89847 37.4584 5.32034 35.1694 5.84378C37.2475 5.35941 39.0209 3.81253 39.3881 3.85941C39.4897 3.88284 39.4662 5.36722 34.7006 6.65628C37.9975 5.79691 39.9115 4.20316 39.8881 4.37503C39.9115 4.41409 39.56 5.62503 36.6772 6.57034C37.4819 6.38284 39.6694 5.05472 39.6459 5.31253C39.7162 5.41409 37.5365 8.21878 33.5834 7.30472C36.7397 8.12503 38.7787 6.14847 39.0678 6.18753C39.1303 6.19534 38.4897 7.90628 34.5209 8.01566C36.4194 7.82034 35.8725 8.00784 35.8725 8.00784C35.8725 8.00784 34.7553 8.88284 33.3959 8.28909C34.4584 8.57816 34.5756 8.59378 34.599 8.67972C34.5287 8.80472 33.6615 8.97659 32.81 8.52347C33.4897 8.80472 34.099 8.85159 34.1069 8.95316C34.099 8.98441 33.6694 9.23441 33.2787 9.05472C32.8959 8.88284 29.349 6.70316 29.349 6.70316L35.3959 5.03909L35.6147 5.11722V5.12503ZM28.5053 11.0313C27.974 11.0313 27.9584 11.5 27.9584 11.5C27.9584 11.5 27.9194 11.5391 27.9428 11.7657L28.0756 11.5625C28.1381 11.5703 28.3803 11.6407 28.7631 11.3438C28.4115 11.711 28.6225 11.8438 28.6225 11.8438C28.6225 11.8438 28.5444 12.1328 28.81 12.1875C28.7319 12.0703 28.7787 11.9688 28.7787 11.9688C28.7787 11.9688 29.1537 11.9297 29.1303 11.4766C29.1381 11.8907 29.3647 11.9922 29.3647 11.9922C29.3647 11.9922 29.3647 12.2188 29.6069 12.2422C29.4819 12.125 29.5053 11.9453 29.5053 11.9453C29.5053 11.9453 29.8178 11.711 29.56 11.3203C29.7162 11.2266 29.849 10.9688 29.849 10.9688C29.849 10.9688 29.6303 10.875 29.5287 10.7969C29.4819 10.6953 29.5287 10.1328 29.5287 10.1328L29.3881 9.40628L29.0131 10.5391C29.0287 10.3828 29.0365 11.0313 28.5053 11.0313Z" fill="#EF7D00" stroke="black" stroke-width="0.078125" stroke-linejoin="round"/>
<path fill-rule="evenodd" clip-rule="evenodd" d="M31.1304 9.39847C31.146 9.40628 31.5288 9.83597 31.9038 9.81253C32.0444 9.69534 31.6147 9.44534 31.6147 9.38284C31.771 9.52347 32.4038 10.0703 32.8179 9.87503C32.9741 9.64066 32.521 9.67972 32.021 9.04691C32.3726 9.28128 33.2476 9.78909 33.6616 9.59378C33.8257 9.40628 32.7476 8.82034 32.3804 8.36722L31.4429 7.89066L30.1772 8.92972L31.1382 9.39847H31.1304Z" fill="#EF7D00" stroke="black" stroke-width="0.078125" stroke-linejoin="round"/>
<path fill-rule="evenodd" clip-rule="evenodd" d="M29.7007 5.84378C29.7007 5.84378 30.1304 5.59378 31.8569 5.71878C32.0444 5.74221 33.0288 5.38284 33.3491 5.27346C33.8491 5.17971 35.4585 4.83596 35.8804 4.50784C36.1929 4.46878 35.8022 5.06253 35.4116 5.21096C35.0054 5.39065 33.5288 5.90628 32.9976 5.83596C33.6304 5.84378 33.2788 6.3594 32.2319 6.11721C32.7319 6.39846 32.5444 6.44534 32.5444 6.44534C32.5444 6.44534 31.6616 6.49221 31.4272 6.28909C32.021 6.51565 31.771 6.60159 31.771 6.60159C31.771 6.60159 31.1694 6.65628 30.8882 6.52346C31.3179 6.65628 31.0991 6.7344 31.0991 6.7344C31.0991 6.7344 30.7476 6.7969 30.4585 6.68753C30.1616 6.58596 29.7241 5.85159 29.7007 5.85159V5.84378Z" fill="#EF7D00" stroke="black" stroke-width="0.078125" stroke-linecap="round" stroke-linejoin="round"/>
<path fill-rule="evenodd" clip-rule="evenodd" d="M30.388 9.64066L30.4505 10.7813L30.388 10.875C30.3646 10.9063 29.5833 10.75 29.6849 11.3438C29.6849 11.5938 29.6849 11.6563 29.8568 11.7891C29.8177 11.6328 29.8255 11.5157 29.8255 11.5157C29.8255 11.5157 30.0521 11.6485 30.263 11.2813C30.1146 11.6407 30.2161 11.7735 30.2552 11.7813C30.2864 11.8438 30.1927 12.1328 30.4896 12.125C30.3724 12.0157 30.4271 11.8594 30.4271 11.8594C30.4271 11.8594 30.7396 11.8125 30.6302 11.2578C30.7396 11.1485 30.7864 11.2578 30.7864 11.2578C30.7864 11.2578 30.8177 11.586 31.0911 11.5157C31.2083 11.586 31.0677 11.7657 31.0677 11.7657C31.0677 11.7657 31.263 11.7657 31.3255 11.6094C31.3802 11.4375 31.4505 11.1407 31.1302 11.0157C31.0911 10.8985 31.2552 10.8907 31.2552 10.8907C31.2552 10.8907 31.4583 10.961 31.5208 11.0625C31.5833 11.1641 31.5599 10.7969 31.3021 10.75C30.9896 10.75 30.9739 10.6797 30.9739 10.6719L30.8958 9.60159L30.388 9.64066Z" fill="#EF7D00" stroke="black" stroke-width="0.078125" stroke-linejoin="round"/>
<path fill-rule="evenodd" clip-rule="evenodd" d="M31.474 10.6094C31.474 10.5547 30.9428 9.83596 31.0834 9.75002C31.2162 9.77346 31.4349 10.1016 31.6224 9.99221C31.5678 9.86721 31.4037 9.93752 31.224 9.6094C31.0365 9.2344 31.0131 8.67971 30.3646 8.07815C30.7865 8.71877 31.724 9.09377 31.7709 8.90627C31.8178 8.71877 30.9349 8.01565 30.9818 7.84377C31.1537 8.18752 32.0287 8.96877 32.6693 8.90627C32.7162 8.75002 32.1459 8.45315 31.9974 8.1719C31.5834 7.89065 30.4818 6.94534 30.4662 6.72659C30.2724 6.39707 30.0083 6.11432 29.6928 5.89846C29.6637 5.85854 29.6425 5.81347 29.6303 5.76565C29.3803 5.17971 29.7084 4.9844 29.9037 4.96096C30.0599 4.93752 30.1068 4.96096 30.2162 4.90627L29.8178 4.75002C29.9974 4.88284 30.4428 4.76565 30.349 5.14065C30.5443 5.06252 30.9662 4.56252 29.8724 4.45315C29.5131 4.0469 28.0521 3.81252 27.6849 5.59377C27.7162 5.61721 27.7318 5.64065 27.8256 5.70315C27.3568 5.4844 26.1146 5.31252 25.6693 5.2344C24.4506 4.89065 23.1928 4.0469 23.0756 4.14846C22.9193 4.22659 23.8099 5.05471 23.7631 5.07034C23.0682 4.67467 22.3508 4.3199 21.6146 4.00784C21.1459 3.83596 20.6849 3.42971 20.6381 3.50784C20.4662 3.8594 21.3803 4.75002 21.5521 4.85159C21.724 4.95315 23.0599 5.57815 23.0365 5.58596C21.0209 4.6719 20.6928 4.50002 20.5834 4.39846C20.4037 4.3594 19.974 3.77346 19.8568 3.81252C19.7865 3.87502 19.9193 4.7969 20.8803 5.21877C21.0365 5.32815 22.9428 6.00784 22.9271 6.06252C22.9271 6.07815 20.7396 5.16409 20.6615 5.12502C20.2396 4.96877 19.724 4.39065 19.6303 4.45315C19.5365 4.51565 19.8646 5.14065 20.2865 5.33596C20.5131 5.42971 21.3646 5.85159 22.1303 6.11721C22.1771 6.14065 20.7474 5.57815 20.0599 5.2969C19.7474 5.12502 19.6068 4.90627 19.5599 4.95315C19.4818 5.00002 19.6693 5.9219 21.8803 6.43752C21.9349 6.46877 22.6615 6.27346 22.6224 6.2969C22.2167 6.3989 21.8042 6.472 21.3881 6.51565C21.3646 6.57815 21.5287 6.90627 22.6693 6.84377C22.8099 6.83596 23.6068 6.55471 23.5365 6.6094C23.157 6.75421 22.7712 6.88195 22.3803 6.99221C22.3099 6.99221 21.9428 7.03909 21.9271 7.07034C21.9115 7.13284 22.2006 7.36721 22.8099 7.39846C23.3568 7.42971 24.3881 7.07034 24.3724 7.09377C24.3412 7.11721 23.3724 7.45315 23.349 7.46877C23.3099 7.49221 22.9584 7.50784 22.9428 7.53909C22.9115 7.6094 23.4584 8.11721 25.0599 7.57034C24.9037 7.78909 24.1224 7.93752 24.1224 7.97659C24.1224 8.00784 24.2943 8.1719 24.5678 8.2344C24.7006 8.26565 24.8881 8.25784 25.0599 8.2344C25.3724 8.1719 25.6849 8.05471 26.099 7.6719C26.1459 7.78909 25.0756 8.33596 25.1224 8.38284C25.3568 8.60159 26.1303 8.3594 26.1771 8.32815C26.2318 8.30471 27.6615 7.49221 27.6615 7.39065C27.6849 7.51565 25.8099 8.53909 25.8334 8.57815C25.9506 8.76565 26.5912 8.57034 26.6146 8.5469L27.4584 8.09377C27.4818 8.08596 26.5365 8.64065 26.6146 8.7344C26.5756 9.10159 28.099 8.4844 28.2162 8.40627C28.2709 8.36721 27.4818 8.75002 27.4818 8.92971C27.7396 9.3594 28.5521 9.22659 28.6771 9.13284C28.7396 9.08596 28.599 9.44534 28.6459 9.41409C28.7419 9.31576 28.8211 9.20225 28.8803 9.07815C28.8646 9.20315 28.7709 9.39065 28.724 9.6094C28.6693 9.82034 28.6537 10.0703 28.5834 10.3281C28.5678 10.4375 29.0834 10.1016 29.0053 9.2969C29.0521 9.71877 28.849 10.5 28.9037 10.5469C29.0053 10.625 29.3099 10.1563 29.3412 9.83596C29.4271 9.99221 29.6146 10.3281 29.7787 10.4063C29.7631 10.1641 29.7787 10.1719 29.7006 9.93752C29.7474 9.61721 29.7553 9.17971 29.7631 8.67971C30.2006 9.51565 30.3803 9.87502 30.2553 10.5156C30.3881 10.5703 30.5912 10.0625 30.5756 9.81252C30.6244 10.022 30.7371 10.2112 30.898 10.3539C31.0589 10.4966 31.2602 10.5859 31.474 10.6094Z" fill="#EF7D00" stroke="black" stroke-width="0.0859375" stroke-linecap="round" stroke-linejoin="round"/>
<path fill-rule="evenodd" clip-rule="evenodd" d="M24.1929 5.28909C24.1929 5.28909 23.8882 5.51566 23.521 5.50003C23.6147 5.87503 24.3804 5.58597 24.3804 5.58597C24.3804 5.58597 24.0132 6.00003 23.7476 6.06253C23.9038 6.19534 24.5757 6.14847 24.6851 6.08597C24.7944 6.01566 24.9976 5.75784 24.9976 5.75784C24.9976 5.75784 24.3101 6.55472 24.2163 6.54691C24.1929 6.64066 24.9272 6.60941 25.0757 6.46878C25.2319 6.32816 25.6226 6.12503 25.6226 6.12503C25.6226 6.12503 24.6069 6.82816 24.5679 6.82816C24.9429 6.92191 25.7007 6.70316 26.1851 6.40628C25.4663 6.88284 25.4038 6.96878 25.0366 7.13284C25.3647 7.20316 25.5288 7.42191 26.6226 6.94534C27.2476 6.64847 27.6069 6.10159 27.6069 6.10159C27.1299 6.66434 26.559 7.14013 25.9194 7.50784C25.8804 7.58597 26.6538 7.91409 27.6304 6.89066" fill="#EF7D00"/>
<path d="M24.1929 5.28909C24.1929 5.28909 23.8882 5.51566 23.521 5.50003C23.6147 5.87503 24.3804 5.58597 24.3804 5.58597C24.3804 5.58597 24.0132 6.00003 23.7476 6.06253C23.9038 6.19534 24.5757 6.14847 24.6851 6.08597C24.7944 6.01566 24.9976 5.75784 24.9976 5.75784C24.9976 5.75784 24.3101 6.55472 24.2163 6.54691C24.1929 6.64066 24.9272 6.60941 25.0757 6.46878C25.2319 6.32816 25.6226 6.12503 25.6226 6.12503C25.6226 6.12503 24.6069 6.82816 24.5679 6.82816C24.9429 6.92191 25.7007 6.70316 26.1851 6.40628C25.4663 6.88284 25.4038 6.96878 25.0366 7.13284C25.3647 7.20316 25.5288 7.42191 26.6226 6.94534C27.2476 6.64847 27.6069 6.10159 27.6069 6.10159C27.1299 6.66434 26.559 7.14013 25.9194 7.50784C25.8804 7.58597 26.6538 7.91409 27.6304 6.89066" stroke="black" stroke-width="0.0859375" stroke-linecap="round" stroke-linejoin="round"/>
<path fill-rule="evenodd" clip-rule="evenodd" d="M29.5054 7.50003C29.5054 7.50003 29.5757 7.81253 29.8413 8.04691C30.1069 8.28128 30.1226 8.51566 30.1226 8.51566L29.5054 7.50003ZM29.3804 5.46878C29.3804 5.46878 29.4663 5.75784 29.7397 5.93753C30.021 6.10941 30.4429 6.67191 30.4663 6.77347C30.4976 6.89066 30.6616 7.75784 30.646 7.85159L29.3804 5.46878ZM27.6929 5.89847C27.7085 6.01566 27.3022 6.54691 27.8647 7.17972C27.3491 7.80472 27.3491 7.88284 27.3491 7.88284C27.3491 7.88284 27.6382 8.03909 28.146 7.60159C28.9897 8.63284 28.7085 9.10159 28.7085 9.10159" fill="#EF7D00"/>
<path d="M27.6929 5.89847C27.7085 6.01566 27.3022 6.54691 27.8647 7.17972C27.3491 7.80472 27.3491 7.88284 27.3491 7.88284C27.3491 7.88284 27.6382 8.03909 28.146 7.60159C28.9897 8.63284 28.7085 9.10159 28.7085 9.10159M29.5054 7.50003C29.5054 7.50003 29.5757 7.81253 29.8413 8.04691C30.1069 8.28128 30.1226 8.51566 30.1226 8.51566L29.5054 7.50003ZM29.3804 5.46878C29.3804 5.46878 29.4663 5.75784 29.7397 5.93753C30.021 6.10941 30.4429 6.67191 30.4663 6.77347C30.4976 6.89066 30.6616 7.75784 30.646 7.85159L29.3804 5.46878Z" stroke="black" stroke-width="0.0859375" stroke-linecap="round"/>
<path fill-rule="evenodd" clip-rule="evenodd" d="M28.6381 8.37503C28.6381 8.37503 28.56 8.26566 28.7006 7.85159C28.8256 8.00784 28.9662 8.03128 29.0209 8.08597C29.0834 8.15628 29.724 8.24222 29.7553 8.67191" fill="#EF7D00"/>
<path d="M28.6381 8.37503C28.6381 8.37503 28.56 8.26566 28.7006 7.85159C28.8256 8.00784 28.9662 8.03128 29.0209 8.08597C29.0834 8.15628 29.724 8.24222 29.7553 8.67191" stroke="black" stroke-width="0.0859375" stroke-linecap="round" stroke-linejoin="round"/>
<path fill-rule="evenodd" clip-rule="evenodd" d="M29.3882 4.49221C29.3882 4.46096 29.2554 4.17971 28.7788 4.52346C29.0366 4.53909 29.2866 4.68752 29.3882 4.49221Z" fill="#EF7D00" stroke="black" stroke-width="0.0859375"/>
<path fill-rule="evenodd" clip-rule="evenodd" d="M33.9349 5.74222C33.9583 5.75784 35.3568 6.05472 35.8255 5.90628C35.2318 6.70316 34.0365 6.16409 34.0365 6.16409C34.6224 6.33597 34.6458 6.32034 34.8333 6.49222C34.8958 6.64847 33.7552 6.57034 33.388 6.35941C34.4271 6.68753 34.4505 6.67191 34.4818 6.78909C34.5287 6.96878 32.7787 6.74222 32.6302 6.51566C33.099 6.87503 33.349 6.94534 33.6068 7.10941C33.2943 7.25003 32.7083 7.39066 31.638 6.63284C33.0443 7.91409 34.3177 7.83597 34.5208 8.06253C34.0287 8.78909 32.1224 7.63284 31.2474 7.04691C30.3724 6.46097 33.1615 8.46097 33.4193 8.42972C33.2943 8.62503 32.3724 8.45316 32.3099 8.35159" fill="#EF7D00"/>
<path d="M33.9349 5.74222C33.9583 5.75784 35.3568 6.05472 35.8255 5.90628C35.2318 6.70316 34.0365 6.16409 34.0365 6.16409C34.6224 6.33597 34.6458 6.32034 34.8333 6.49222C34.8958 6.64847 33.7552 6.57034 33.388 6.35941C34.4271 6.68753 34.4505 6.67191 34.4818 6.78909C34.5287 6.96878 32.7787 6.74222 32.6302 6.51566C33.099 6.87503 33.349 6.94534 33.6068 7.10941C33.2943 7.25003 32.7083 7.39066 31.638 6.63284C33.0443 7.91409 34.3177 7.83597 34.5208 8.06253C34.0287 8.78909 32.1224 7.63284 31.2474 7.04691C30.3724 6.46097 33.1615 8.46097 33.4193 8.42972C33.2943 8.62503 32.3724 8.45316 32.3099 8.35159" stroke="black" stroke-width="0.0859375" stroke-linejoin="round"/>
<path fill-rule="evenodd" clip-rule="evenodd" d="M34.2944 7.08597C34.1382 7.10941 33.646 7.10941 33.5757 7.09378L34.2944 7.08597Z" fill="#EF7D00"/>
<path d="M34.2944 7.08597C34.1382 7.10941 33.646 7.10941 33.5757 7.09378" stroke="black" stroke-width="0.0859375" stroke-linecap="round"/>
<path fill-rule="evenodd" clip-rule="evenodd" d="M23.7788 5.07816C23.7788 5.07816 24.8413 5.64066 25.2944 5.60159C25.208 5.67456 25.1067 5.72787 24.9976 5.75784C25.1069 5.80472 25.4194 5.96878 25.8882 5.86722L25.6304 6.10159C25.6304 6.10159 26.0366 6.25784 26.4897 6.02347C26.4121 6.11611 26.339 6.21259 26.271 6.31253L26.5913 6.33597" fill="#EF7D00"/>
<path d="M23.7788 5.07816C23.7788 5.07816 24.8413 5.64066 25.2944 5.60159C25.208 5.67456 25.1067 5.72787 24.9976 5.75784C25.1069 5.80472 25.4194 5.96878 25.8882 5.86722L25.6304 6.10159C25.6304 6.10159 26.0366 6.25784 26.4897 6.02347C26.4121 6.11611 26.339 6.21259 26.271 6.31253L26.5913 6.33597" stroke="black" stroke-width="0.0859375" stroke-linecap="round" stroke-linejoin="round"/>
</g>
</g>
<defs>
<clipPath id="clip0_769_25006">
<path d="M0 20C0 8.95431 8.95431 0 20 0C31.0457 0 40 8.95431 40 20C40 31.0457 31.0457 40 20 40C8.95431 40 0 31.0457 0 20Z" fill="white"/>
</clipPath>
<clipPath id="clip1_769_25006">
<rect width="53.3333" height="40" fill="white" transform="translate(-13)"/>
</clipPath>
</defs>
</svg>
