<svg width="40" height="40" viewBox="0 0 40 40" fill="none" xmlns="http://www.w3.org/2000/svg">
<g clip-path="url(#clip0_769_25029)">
<path d="M0 20C0 8.95431 8.95431 0 20 0C31.0457 0 40 8.95431 40 20C40 31.0457 31.0457 40 20 40C8.95431 40 0 31.0457 0 20Z" fill="#E94E0F"/>
<g clip-path="url(#clip1_769_25029)">
<path d="M-0.191895 -0.00836182H81.8621V39.9826H-0.191895V-0.00836182Z" fill="#006400"/>
<path d="M-0.191895 5.70464H81.8621V34.2696H-0.191895V5.70464Z" fill="#FFD200"/>
<path d="M-0.191895 11.4176H81.8621V28.5566H-0.191895V11.4176Z" fill="#D40000"/>
<path d="M-0.191895 17.1306H81.8621V22.8436H-0.191895V17.1306Z" fill="black"/>
<path d="M-0.191895 -0.00836182V39.9826L27.1594 19.9871L-0.191895 -0.00836182Z" fill="black" stroke="black" stroke-width="1.92884"/>
<path d="M-0.191895 -0.00836182V39.9826L27.1594 19.9871L-0.191895 -0.00836182Z" fill="white"/>
<path d="M10.2114 9.93227L15.6328 26.1858L1.44922 16.1404H18.9834L4.78999 26.1858L10.2114 9.93227Z" fill="#D40000"/>
<path d="M7.89622 24.1481L8.85352 23.9767L10.6216 23.9101L11.2761 23.9672L12.7413 24.2052L12.8488 24.0624V23.0341L13.0246 22.1486L13.3176 21.2535L13.64 20.5394L14.0503 19.7967L14.7145 19.9586H14.8903L14.9099 19.8348L13.5032 18.6636L12.038 17.5686L9.91827 16.0261L9.7229 15.9785L9.49823 14.3598L9.33217 13.8742L9.10749 13.6838L8.68746 13.5505L8.21858 13.5695L8.00367 13.6838L7.55433 13.779L7.31989 13.8171L7.1636 13.998L7.14406 14.2265L7.79854 14.2456L7.9646 14.3122L7.94506 14.3789L7.57387 14.4265L7.39804 14.4836L7.60317 14.636L7.81807 14.7121L8.09159 14.8074L8.1502 14.9978L8.16973 17.4544L8.02321 17.8352L7.97437 18.5494L8.18927 19.4063L7.64224 20.0157L7.32966 20.5584L7.27105 20.8917L7.10499 21.225L7.08545 21.4344L7.1929 21.663L7.61294 23.015L7.82784 24.1291L7.89622 24.1481Z" fill="#FFCC00"/>
<path d="M8.40422 13.5124C8.22839 13.5124 8.15024 13.5314 7.98418 13.6171C7.84658 13.6939 7.69299 13.7395 7.53484 13.7504C7.29063 13.7504 7.09526 13.9218 7.09526 14.1408V14.2837L7.44692 14.2741C8.48237 14.3027 7.54461 14.3979 7.46646 14.4074C7.21248 14.4551 7.52507 14.655 7.82789 14.7597C8.15024 14.855 8.13071 14.7978 8.13071 16.188C8.13071 17.3211 8.13071 17.4829 8.03302 17.74C7.90604 18.1209 7.90604 18.6922 8.03302 19.0731C8.09163 19.2254 8.13071 19.3587 8.13071 19.3873C8.13071 19.4063 7.97441 19.5872 7.78882 19.7967C7.44692 20.1776 7.24179 20.568 7.24179 20.8441C7.2296 20.9329 7.19614 21.0177 7.14411 21.0917C7.01712 21.2535 7.01712 21.5296 7.13434 21.6344C7.26133 21.7486 7.77905 23.7101 7.78882 24.0815C7.78882 24.2148 7.80835 24.2148 8.59959 24.0624C9.2443 23.9386 10.7584 23.9101 11.5301 24.0053C11.8817 24.0529 12.292 24.1291 12.4385 24.1576C12.9074 24.2814 12.8879 24.3005 12.8879 23.7482C12.8915 22.8781 13.0604 22.0161 13.3861 21.2059C13.5727 20.7442 13.7982 20.2984 14.0601 19.8729C14.0601 19.8729 14.2359 19.8919 14.4508 19.9491C14.8513 20.0443 14.9685 20.0347 14.9685 19.8538C14.9685 19.7586 14.5485 19.4158 12.4874 17.8543C11.6561 17.1911 10.7991 16.559 9.91831 15.9595C9.8597 15.9595 9.80109 15.9309 9.79132 15.8928L9.6448 14.9883C9.57642 14.5217 9.47874 14.0647 9.43966 13.9694C9.30291 13.6838 9.03916 13.541 8.59959 13.5124C8.53448 13.5104 8.46933 13.5104 8.40422 13.5124ZM8.41399 13.6076H8.60936C9.25407 13.6457 9.37129 13.8171 9.54712 14.9407C9.59457 15.2379 9.63366 15.5364 9.66434 15.8357C9.66434 15.9119 9.57642 16.0071 9.35175 16.1499C8.98209 16.4027 8.65291 16.7076 8.37492 17.0545L8.24793 17.2259L8.21862 16.8259V15.7024C8.24793 14.874 8.21862 14.7978 7.94511 14.7026C7.72044 14.6264 7.42739 14.5503 7.50554 14.5027C7.60322 14.4455 7.7009 14.4836 7.93534 14.417C8.03302 14.3979 8.02326 14.4074 8.00372 14.3313C7.98418 14.2075 7.84743 14.1408 7.486 14.1599C7.19295 14.1789 7.16364 14.1694 7.18318 14.0932C7.22225 13.9409 7.37855 13.8457 7.62275 13.8171C7.77226 13.8002 7.91766 13.7584 8.05256 13.6933C8.1616 13.6294 8.28677 13.5964 8.41399 13.5981V13.6076ZM9.86947 16.0642H9.90855C10.0746 16.0928 14.8709 19.7491 14.8709 19.8538C14.8709 19.8919 14.8318 19.9205 14.7732 19.9205C14.7341 19.9205 13.5131 19.5872 12.0673 19.1778C9.76202 18.5113 9.4299 18.4161 9.33221 18.2923C9.26426 18.2086 9.22648 18.1054 9.22471 17.9987C9.22295 17.892 9.2573 17.7877 9.32244 17.7019C9.36934 17.6465 9.40273 17.5814 9.42013 17.5115C9.42013 17.3972 9.17592 17.6829 9.12708 17.8448C9.07824 18.0352 9.17592 18.3589 9.32244 18.4637C9.38105 18.5113 9.82063 18.6541 10.2993 18.7969C11.1198 19.0255 11.1784 19.054 11.2175 19.1873C11.3152 19.5015 10.9733 19.8729 10.4849 19.9776C10.3017 20.0204 10.1291 20.098 9.97692 20.2061C9.47012 20.6153 8.90392 20.949 8.29677 21.1964C8.2577 21.225 8.20885 21.3773 8.17955 21.5201C8.12094 21.8343 8.1014 21.8819 8.00372 21.8819C7.95488 21.8819 7.94511 21.8534 7.98418 21.7486C8.05256 21.5582 8.04279 21.3297 7.97441 21.3297C7.92557 21.3297 7.90604 21.3963 7.90604 21.5011C7.90604 21.5963 7.87673 21.7106 7.83766 21.7391C7.78882 21.7963 7.77905 21.7582 7.79859 21.5201C7.81812 21.3583 7.80835 21.2345 7.78882 21.2345C7.73997 21.2345 7.65206 21.4725 7.62275 21.682C7.60322 21.8058 7.60322 21.8058 7.56414 21.6534C7.53484 21.5392 7.54461 21.463 7.63252 21.3202C7.68803 21.2167 7.72127 21.1033 7.73021 20.9869C7.73021 20.8631 7.82789 20.7394 8.287 20.2918C8.58005 19.9967 8.94148 19.6253 9.06847 19.4634C9.29314 19.1968 9.30291 19.1778 9.29314 18.9017C9.29314 18.7493 9.2736 18.6065 9.25407 18.5875C9.19546 18.5303 9.11731 18.835 9.15638 18.9969C9.17592 19.1492 9.15638 19.1968 8.83403 19.5682C8.60211 19.827 8.35762 20.0748 8.1014 20.3109C7.72044 20.6537 7.58368 20.8441 7.58368 21.0155C7.58368 21.0726 7.54461 21.2059 7.486 21.3297C7.42739 21.4535 7.40785 21.5773 7.42739 21.6058C7.44692 21.6344 7.42739 21.6344 7.39808 21.6058C7.34924 21.5582 7.34924 21.482 7.38831 21.3202C7.41068 21.2396 7.4173 21.1556 7.40785 21.0726C7.35901 20.9774 7.29063 21.0917 7.26133 21.3297C7.24179 21.463 7.21248 21.5677 7.18318 21.5487C7.1148 21.5106 7.13434 21.263 7.22225 21.1297C7.27109 21.0631 7.31994 20.9107 7.34924 20.787C7.41762 20.4347 7.57391 20.149 7.9158 19.7681C8.0253 19.652 8.12959 19.5313 8.22839 19.4063L8.13071 19.0921C7.9997 18.6675 7.99293 18.2157 8.11117 17.7876C8.23816 17.4258 8.49214 17.064 8.89264 16.6736C9.28337 16.3023 9.66434 16.0737 9.86947 16.0642ZM11.3347 19.1302C11.3471 19.1293 11.3596 19.1301 11.3714 19.1326C11.3832 19.135 11.3941 19.1391 11.4033 19.1445C11.4125 19.1499 11.4199 19.1565 11.4249 19.1639C11.4299 19.1713 11.4325 19.1793 11.4324 19.1873C11.4264 19.1985 11.4152 19.2082 11.4003 19.2151C11.3854 19.222 11.3676 19.2257 11.3494 19.2257C11.3311 19.2257 11.3133 19.222 11.2984 19.2151C11.2836 19.2082 11.2723 19.1985 11.2663 19.1873C11.2658 19.1741 11.2724 19.1612 11.2848 19.1508C11.2973 19.1404 11.3149 19.1331 11.3347 19.1302ZM11.5789 19.1588C11.5913 19.1579 11.6038 19.1587 11.6156 19.1611C11.6274 19.1636 11.6383 19.1677 11.6475 19.1731C11.6567 19.1785 11.6641 19.1851 11.6691 19.1924C11.6741 19.1998 11.6767 19.2078 11.6766 19.2159C11.6706 19.2271 11.6594 19.2368 11.6445 19.2437C11.6296 19.2505 11.6118 19.2542 11.5936 19.2542C11.5753 19.2542 11.5575 19.2505 11.5426 19.2437C11.5278 19.2368 11.5166 19.2271 11.5106 19.2159C11.51 19.2027 11.5166 19.1898 11.529 19.1794C11.5415 19.169 11.5591 19.1617 11.5789 19.1588ZM11.8329 19.2064C11.8452 19.2055 11.8577 19.2063 11.8696 19.2087C11.8814 19.2112 11.8923 19.2153 11.9015 19.2207C11.9107 19.2261 11.9181 19.2327 11.9231 19.2401C11.9281 19.2474 11.9307 19.2554 11.9306 19.2635C11.9246 19.2747 11.9134 19.2844 11.8985 19.2913C11.8836 19.2982 11.8658 19.3018 11.8476 19.3018C11.8293 19.3018 11.8115 19.2982 11.7966 19.2913C11.7817 19.2844 11.7705 19.2747 11.7645 19.2635C11.764 19.2503 11.7706 19.2374 11.783 19.227C11.7955 19.2166 11.8131 19.2093 11.8329 19.2064ZM12.0673 19.254C12.0797 19.2531 12.0922 19.2539 12.104 19.2564C12.1158 19.2588 12.1267 19.2629 12.1359 19.2683C12.1452 19.2737 12.1525 19.2803 12.1575 19.2877C12.1626 19.295 12.1651 19.303 12.165 19.3111C12.159 19.3223 12.1478 19.332 12.1329 19.3389C12.1181 19.3458 12.1003 19.3495 12.082 19.3495C12.0637 19.3495 12.0459 19.3458 12.0311 19.3389C12.0162 19.332 12.005 19.3223 11.999 19.3111C11.9985 19.2979 12.005 19.285 12.0175 19.2746C12.0299 19.2642 12.0476 19.2569 12.0673 19.254ZM11.4519 19.3111C11.4643 19.3102 11.4768 19.311 11.4886 19.3135C11.5004 19.3159 11.5113 19.32 11.5205 19.3254C11.5298 19.3308 11.5371 19.3374 11.5421 19.3448C11.5471 19.3522 11.5497 19.3602 11.5496 19.3682C11.5436 19.3794 11.5324 19.3891 11.5175 19.396C11.5027 19.4029 11.4848 19.4066 11.4666 19.4066C11.4483 19.4066 11.4305 19.4029 11.4157 19.396C11.4008 19.3891 11.3896 19.3794 11.3836 19.3682C11.3831 19.355 11.3896 19.3421 11.4021 19.3317C11.4145 19.3213 11.4321 19.314 11.4519 19.3111ZM11.6864 19.3492C11.6987 19.3483 11.7112 19.3491 11.723 19.3516C11.7349 19.354 11.7457 19.3581 11.755 19.3635C11.7642 19.3689 11.7716 19.3755 11.7766 19.3829C11.7816 19.3903 11.7841 19.3982 11.7841 19.4063C11.7781 19.4175 11.7668 19.4272 11.752 19.4341C11.7371 19.441 11.7193 19.4447 11.701 19.4447C11.6828 19.4447 11.665 19.441 11.6501 19.4341C11.6352 19.4272 11.624 19.4175 11.618 19.4063C11.6175 19.3931 11.624 19.3802 11.6365 19.3698C11.649 19.3594 11.6666 19.3521 11.6864 19.3492ZM12.1943 19.3682C12.2067 19.3673 12.2192 19.3681 12.231 19.3706C12.2428 19.3731 12.2537 19.3771 12.2629 19.3825C12.2721 19.3879 12.2795 19.3945 12.2845 19.4019C12.2895 19.4093 12.2921 19.4173 12.292 19.4254C12.286 19.4366 12.2748 19.4463 12.2599 19.4531C12.245 19.46 12.2272 19.4637 12.209 19.4637C12.1907 19.4637 12.1729 19.46 12.1581 19.4531C12.1432 19.4463 12.132 19.4366 12.126 19.4254C12.1255 19.4122 12.132 19.3993 12.1444 19.3889C12.1569 19.3784 12.1745 19.3712 12.1943 19.3682ZM11.9306 19.3682C11.9429 19.3673 11.9554 19.3681 11.9672 19.3706C11.9791 19.3731 11.9899 19.3771 11.9992 19.3825C12.0084 19.3879 12.0158 19.3945 12.0208 19.4019C12.0258 19.4093 12.0283 19.4173 12.0283 19.4254C12.0223 19.4366 12.0111 19.4463 11.9962 19.4531C11.9813 19.46 11.9635 19.4637 11.9452 19.4637C11.927 19.4637 11.9092 19.46 11.8943 19.4531C11.8794 19.4463 11.8682 19.4366 11.8622 19.4254C11.8617 19.4122 11.8682 19.3993 11.8807 19.3889C11.8932 19.3784 11.9108 19.3712 11.9306 19.3682ZM12.419 19.4254C12.4288 19.4254 12.7804 19.5015 13.2005 19.6158L13.9722 19.8348L13.8256 20.0919C13.7438 20.2295 13.6656 20.3692 13.5912 20.5108C13.4935 20.7013 13.474 20.7013 13.0051 20.5965C12.4972 20.4823 11.6961 20.3775 10.8756 20.3109L10.0941 20.2442L10.3872 20.1395C10.5641 20.0731 10.737 19.9968 10.9049 19.911C11.1003 19.8062 11.1784 19.7872 11.4812 19.8157C11.9208 19.8443 12.2139 19.7586 12.3311 19.5872L12.4288 19.4254H12.419ZM11.5594 19.4825C11.5717 19.4816 11.5842 19.4824 11.596 19.4849C11.6079 19.4873 11.6187 19.4914 11.628 19.4968C11.6372 19.5022 11.6446 19.5088 11.6496 19.5162C11.6546 19.5236 11.6572 19.5316 11.6571 19.5396C11.6511 19.5508 11.6399 19.5605 11.625 19.5674C11.6101 19.5743 11.5923 19.578 11.574 19.578C11.5558 19.578 11.538 19.5743 11.5231 19.5674C11.5082 19.5605 11.497 19.5508 11.491 19.5396C11.4905 19.5264 11.497 19.5135 11.5095 19.5031C11.522 19.4927 11.5396 19.4854 11.5594 19.4825ZM12.1064 19.4825C12.1188 19.4816 12.1312 19.4824 12.1431 19.4849C12.1549 19.4873 12.1658 19.4914 12.175 19.4968C12.1842 19.5022 12.1916 19.5088 12.1966 19.5162C12.2016 19.5236 12.2042 19.5316 12.2041 19.5396C12.1967 19.5489 12.1855 19.5568 12.1717 19.5622C12.1579 19.5677 12.1421 19.5706 12.126 19.5706C12.1098 19.5706 12.094 19.5677 12.0802 19.5622C12.0664 19.5568 12.0552 19.5489 12.0478 19.5396C12.0473 19.5264 12.0538 19.5135 12.0663 19.5031C12.0788 19.4927 12.0964 19.4854 12.1162 19.4825H12.1064ZM11.325 19.4825C11.3373 19.4816 11.3498 19.4824 11.3616 19.4849C11.3734 19.4873 11.3843 19.4914 11.3935 19.4968C11.4028 19.5022 11.4101 19.5088 11.4151 19.5162C11.4202 19.5236 11.4227 19.5316 11.4226 19.5396C11.4166 19.5508 11.4054 19.5605 11.3905 19.5674C11.3757 19.5743 11.3579 19.578 11.3396 19.578C11.3214 19.578 11.3035 19.5743 11.2887 19.5674C11.2738 19.5605 11.2626 19.5508 11.2566 19.5396C11.2592 19.5281 11.2671 19.5174 11.2793 19.5089C11.2915 19.5004 11.3074 19.4945 11.325 19.492V19.4825ZM11.8427 19.5015C11.8653 19.4997 11.8881 19.5036 11.9063 19.5125C11.9245 19.5214 11.9367 19.5345 11.9404 19.5491C11.9344 19.5603 11.9231 19.5701 11.9083 19.5769C11.8934 19.5838 11.8756 19.5875 11.8573 19.5875C11.8391 19.5875 11.8213 19.5838 11.8064 19.5769C11.7915 19.5701 11.7803 19.5603 11.7743 19.5491C11.7769 19.5376 11.7848 19.5269 11.797 19.5184C11.8092 19.5099 11.8252 19.504 11.8427 19.5015ZM11.198 19.6063C11.2103 19.6054 11.2228 19.6062 11.2346 19.6087C11.2464 19.6111 11.2573 19.6152 11.2665 19.6206C11.2758 19.626 11.2831 19.6326 11.2882 19.64C11.2932 19.6473 11.2957 19.6553 11.2956 19.6634C11.2896 19.6746 11.2784 19.6843 11.2636 19.6912C11.2487 19.6981 11.2309 19.7018 11.2126 19.7018C11.1944 19.7018 11.1766 19.6981 11.1617 19.6912C11.1468 19.6843 11.1356 19.6746 11.1296 19.6634C11.1291 19.6502 11.1356 19.6373 11.1481 19.6269C11.1605 19.6165 11.1782 19.6092 11.198 19.6063ZM11.4422 19.6063C11.4558 19.6051 11.4697 19.6061 11.4827 19.6091C11.4957 19.6121 11.5074 19.6171 11.517 19.6235C11.5265 19.63 11.5335 19.6379 11.5375 19.6465C11.5414 19.655 11.5423 19.6641 11.5399 19.6729C11.5339 19.6841 11.5226 19.6938 11.5078 19.7007C11.4929 19.7076 11.4751 19.7113 11.4568 19.7113C11.4386 19.7113 11.4208 19.7076 11.4059 19.7007C11.391 19.6938 11.3798 19.6841 11.3738 19.6729C11.3733 19.6597 11.3798 19.6468 11.3923 19.6364C11.4048 19.626 11.4224 19.6187 11.4422 19.6158V19.6063ZM11.6961 19.6253C11.7188 19.6235 11.7416 19.6274 11.7598 19.6363C11.778 19.6452 11.7902 19.6583 11.7938 19.6729C11.7878 19.6841 11.7766 19.6938 11.7617 19.7007C11.7469 19.7076 11.7291 19.7113 11.7108 19.7113C11.6925 19.7113 11.6747 19.7076 11.6599 19.7007C11.645 19.6938 11.6338 19.6841 11.6278 19.6729C11.6303 19.6614 11.6383 19.6507 11.6505 19.6422C11.6627 19.6337 11.6786 19.6278 11.6961 19.6253ZM11.9697 19.6253C11.982 19.6244 11.9945 19.6252 12.0063 19.6277C12.0181 19.6302 12.029 19.6342 12.0382 19.6396C12.0475 19.645 12.0548 19.6516 12.0599 19.659C12.0649 19.6664 12.0674 19.6744 12.0673 19.6824C12.0613 19.6936 12.0501 19.7034 12.0353 19.7102C12.0204 19.7171 12.0026 19.7208 11.9843 19.7208C11.9661 19.7208 11.9483 19.7171 11.9334 19.7102C11.9185 19.7034 11.9073 19.6936 11.9013 19.6824C11.9008 19.6693 11.9073 19.6564 11.9198 19.6459C11.9322 19.6355 11.9499 19.6282 11.9697 19.6253ZM9.98669 20.3966C11.1398 20.4264 12.2876 20.5603 13.4154 20.7965C13.4251 20.806 13.3568 21.0345 13.2493 21.3106L13.0539 21.8819C13.0442 21.9296 12.9758 21.9296 12.8097 21.9105C11.999 21.7867 9.65457 21.7963 8.75588 21.9296C8.23816 22.0057 8.16978 21.9962 8.20885 21.8915L8.30654 21.5582L8.36515 21.3011L8.89264 21.0345C9.24424 20.8596 9.57788 20.6524 9.88901 20.4156H9.97692L9.98669 20.3966ZM7.34924 21.7486C7.37855 21.7486 7.43716 21.7772 7.50554 21.8248C7.60322 21.882 7.72044 21.9296 7.76928 21.9296C8.02326 21.9296 8.16001 22.2819 8.37492 23.453L8.45306 23.872C8.4726 23.9672 8.45306 23.9862 8.22839 24.0338C7.95488 24.091 7.8865 24.1005 7.8865 24.0624C7.8865 23.9672 7.61299 22.7579 7.49577 22.3295C7.43742 22.1407 7.3853 21.9502 7.33947 21.7582C7.34096 21.7573 7.34264 21.7569 7.34436 21.7569C7.34607 21.7569 7.34776 21.7573 7.34924 21.7582V21.7486ZM10.143 21.9391H10.4263L10.3286 22.0343C10.1625 22.2247 10.0844 22.2343 9.96715 22.1105C9.92598 22.069 9.89289 22.0206 9.86947 21.9676C9.86947 21.9486 9.99646 21.9296 10.143 21.9296V21.9391ZM10.7389 21.9391H11.2663L11.1491 22.0533C11.0124 22.2057 11.0026 22.2057 10.8561 22.0533L10.7389 21.9296V21.9391ZM11.5399 21.9391H11.6668C11.7352 21.9391 11.8622 21.9391 11.9404 21.9581L12.0869 21.9867L11.9501 22.1105C11.872 22.1771 11.8036 22.2343 11.7938 22.2247L11.6571 22.0724L11.5399 21.9296V21.9391ZM12.3702 21.9676L12.4874 21.9962C12.5558 22.0153 12.7023 22.0248 12.8097 22.0343H13.0051L12.8586 22.1581C12.8055 22.2063 12.7464 22.2479 12.6828 22.2819C12.673 22.2819 12.5851 22.2057 12.5167 22.12L12.3702 21.9676ZM9.42013 21.9772H9.43966C9.44943 21.9962 9.41036 22.0724 9.34198 22.139L9.2443 22.2723L9.09777 22.1581L8.95125 22.0343L9.18569 22.0057L9.42013 21.9772ZM9.6448 21.9962L9.80109 22.1295L9.95739 22.2723L9.66434 22.2914L9.37129 22.3009L9.50804 22.1581L9.6448 21.9962ZM11.4031 21.9962C11.4324 21.9962 11.4519 22.0057 11.4812 22.0248C11.5323 22.0716 11.5752 22.1263 11.6082 22.1866C11.6473 22.2628 11.6375 22.2819 11.5106 22.2819L11.2663 22.2343L11.1491 22.2057L11.2761 22.0819C11.3347 22.0248 11.3738 21.9867 11.4129 21.9867L11.4031 21.9962ZM10.5923 21.9962C10.6412 21.9962 10.69 22.0248 10.7486 22.12C10.817 22.2247 10.817 22.2247 10.5533 22.2247H10.2895L10.4263 22.1009C10.4946 22.0343 10.5533 22.0057 10.5923 22.0057V21.9962ZM12.2529 22.0153L12.3702 22.1295C12.5069 22.2533 12.5265 22.3295 12.4288 22.3199L12.1553 22.2914L11.9404 22.2723L12.0967 22.1486L12.2529 22.0153ZM8.81449 22.0819C8.83403 22.0819 8.91218 22.1295 8.97079 22.1962L9.088 22.3199L8.8438 22.358L8.5019 22.4056C8.43353 22.4247 8.45306 22.3771 8.59959 22.2533C8.69727 22.1581 8.79495 22.0819 8.81449 22.0819ZM8.45306 22.0819H8.49214C8.57028 22.1009 8.57028 22.12 8.43353 22.2533L8.287 22.3961L8.23816 22.2723C8.19909 22.1771 8.20885 22.1486 8.29677 22.1105C8.34682 22.0923 8.39968 22.0827 8.45306 22.0819ZM12.9465 22.2533C12.966 22.2533 12.966 22.2723 12.9465 22.3104C12.927 22.3866 12.839 22.4056 12.839 22.3295C12.839 22.3104 12.8684 22.2819 12.9074 22.2628H12.9367L12.9465 22.2533ZM10.8561 22.4056C11.6082 22.4056 12.3702 22.4247 12.5558 22.4437C12.8586 22.4818 12.8879 22.4913 12.8879 22.6056C12.8879 22.7389 12.8488 22.7484 12.4385 22.6818C12.3213 22.6532 11.8231 22.6151 11.3445 22.577C10.4155 22.5223 9.48328 22.5542 8.56051 22.6722C8.37492 22.6913 8.32607 22.6722 8.32607 22.6151C8.32607 22.4913 9.32244 22.4056 10.8561 22.4056ZM9.84994 22.6818H10.3774L10.2602 22.8056C10.1137 22.9579 10.1039 22.9579 9.96715 22.8056L9.84994 22.6818ZM10.5337 22.6818L10.6705 22.8151L10.8072 22.9674L10.5239 22.9769H10.2407L10.3872 22.8246L10.5239 22.6818H10.5337ZM10.7389 22.6818H11.2663L11.1491 22.8056C11.0124 22.9579 11.0026 22.9579 10.8561 22.8056L10.7389 22.6818ZM9.48851 22.6818C9.50804 22.6818 9.48851 22.7294 9.42013 22.8246C9.35175 22.9103 9.28337 22.9769 9.2736 22.9769C9.25407 22.9769 9.18569 22.9198 9.12708 22.8532L9.00986 22.7294H9.18569C9.27508 22.7298 9.36402 22.717 9.44943 22.6913C9.46232 22.6887 9.47561 22.6887 9.48851 22.6913V22.6818ZM9.68387 22.7294L9.81086 22.8436L9.95739 22.9674L9.70341 22.9865L9.42013 23.0055L9.55689 22.8627L9.68387 22.7294ZM11.3836 22.7294L11.5203 22.8817C11.6766 23.0436 11.6668 23.0531 11.3152 22.9865L11.1491 22.9579L11.2663 22.8436L11.3836 22.7294ZM11.5789 22.7294H11.8134C12.0673 22.7294 12.0967 22.7675 11.9501 22.9008C11.8329 22.996 11.8329 22.996 11.6961 22.8532L11.5789 22.7294ZM8.58982 22.777C8.70704 22.777 8.69727 22.7865 8.55075 22.9293C8.44329 23.0341 8.43353 23.0341 8.39445 22.9579C8.36515 22.8627 8.45306 22.7865 8.58982 22.777ZM12.3799 22.796C12.419 22.796 12.4972 22.796 12.5753 22.8151L12.8 22.8532L12.673 22.9674L12.5558 23.0817L12.4483 22.9484L12.3506 22.796H12.3799ZM8.86333 22.8436C8.89264 22.8436 8.92194 22.8627 8.97079 22.9103C9.06847 23.0055 9.06847 23.0055 8.99032 23.0436C8.91462 23.0679 8.83556 23.0807 8.75588 23.0817H8.59959L8.72658 22.9484C8.79496 22.8817 8.82426 22.8532 8.85356 22.8436H8.86333ZM12.1943 22.8722C12.2334 22.8722 12.2627 22.8912 12.3116 22.9674L12.3995 23.0817H12.1943C12.0576 23.0817 11.999 23.0626 11.999 23.0245C12.0185 22.9865 12.0673 22.9293 12.126 22.9008L12.1943 22.8722ZM12.8195 22.996C12.839 22.996 12.839 23.015 12.839 23.0436C12.839 23.1388 12.7511 23.2055 12.7121 23.1388C12.7023 23.1102 12.7218 23.0626 12.7609 23.0341L12.8195 22.996ZM10.2895 23.1102C11.1394 23.1102 12.0771 23.1674 12.6339 23.2626L12.7902 23.2912V23.7101C12.7902 24.0243 12.7707 24.1291 12.7218 24.1291L12.2334 24.0338C11.1039 23.8472 9.95312 23.8151 8.81449 23.9386L8.58982 23.9672L8.53121 23.6149C8.50693 23.4957 8.49385 23.3746 8.49214 23.2531C8.49214 23.2531 8.71681 23.2055 8.98055 23.1769C9.30291 23.1293 9.78156 23.1102 10.2895 23.1102Z" fill="black"/>
<path d="M11.9989 20.7298C11.7059 20.7298 11.5007 20.9298 11.5007 21.225C11.5007 21.682 12.0282 21.9105 12.3408 21.5868C12.6534 21.263 12.4385 20.7298 11.9989 20.7298ZM11.9989 20.8441C12.0502 20.8441 12.101 20.8539 12.1484 20.8731C12.1959 20.8922 12.2389 20.9203 12.2752 20.9556C12.3115 20.991 12.3403 21.033 12.3599 21.0792C12.3795 21.1254 12.3897 21.1749 12.3897 21.225C12.3897 21.5106 12.0673 21.701 11.8036 21.5773C11.5398 21.4344 11.5593 20.9964 11.8426 20.8822C11.8887 20.8609 11.9383 20.848 11.9891 20.8441H11.9989Z" fill="black"/>
<path d="M8.40434 13.8266C8.36356 13.829 8.32507 13.8469 8.29624 13.8767C8.26741 13.9066 8.25025 13.9464 8.24805 13.9885C8.24805 14.0353 8.26606 14.0802 8.29812 14.1132C8.33017 14.1463 8.37366 14.1649 8.41899 14.1649C8.46433 14.1649 8.50781 14.1463 8.53987 14.1132C8.57193 14.0802 8.58994 14.0353 8.58994 13.9885C8.58883 13.965 8.58305 13.942 8.57296 13.9209C8.56286 13.8998 8.54867 13.8811 8.53125 13.8659C8.51384 13.8507 8.49359 13.8394 8.47176 13.8326C8.44992 13.8259 8.42697 13.8238 8.40434 13.8266ZM8.41411 13.8838C8.4452 13.8838 8.47501 13.8948 8.497 13.9144C8.51898 13.9341 8.53133 13.9607 8.53133 13.9885C8.53133 14.0163 8.51898 14.0429 8.497 14.0626C8.47501 14.0822 8.4452 14.0932 8.41411 14.0932C8.38302 14.0932 8.3532 14.0822 8.33122 14.0626C8.30924 14.0429 8.29689 14.0163 8.29689 13.9885C8.29689 13.9747 8.29992 13.9611 8.30581 13.9484C8.3117 13.9357 8.32034 13.9242 8.33122 13.9144C8.34211 13.9047 8.35503 13.897 8.36925 13.8917C8.38347 13.8865 8.39871 13.8838 8.41411 13.8838Z" fill="black"/>
</g>
</g>
<defs>
<clipPath id="clip0_769_25029">
<path d="M0 20C0 8.95431 8.95431 0 20 0C31.0457 0 40 8.95431 40 20C40 31.0457 31.0457 40 20 40C8.95431 40 0 31.0457 0 20Z" fill="white"/>
</clipPath>
<clipPath id="clip1_769_25029">
<rect width="53.3333" height="40" fill="white"/>
</clipPath>
</defs>
</svg>
