<svg width="541" height="321" viewBox="0 0 541 321" fill="none" xmlns="http://www.w3.org/2000/svg">
<g clip-path="url(#clip0_376_54993)">
<rect width="540" height="320" transform="translate(0.5 0.568359)" fill="#F8F9FB"/>
<rect x="-0.937012" y="294.817" width="539.672" height="26.0502" fill="#F9D2C3"/>
<path d="M270.909 211.596H226.483V286.661H270.909V211.596Z" fill="#ADB4C6"/>
<path d="M300.481 287.561H202.826V296.55H300.481V287.561Z" fill="#C8CDD9"/>
<path d="M375.717 238.267H121.538C118.237 238.267 115.486 235.271 115.486 231.675V70.4568C115.486 66.8609 118.237 63.8643 121.538 63.8643H375.717C379.018 63.8643 381.769 66.8609 381.769 70.4568V231.675C381.769 235.421 379.155 238.267 375.717 238.267Z" fill="#C8CDD9"/>
<path d="M366.945 224.919H128.584C125.42 224.919 122.807 222.072 122.807 218.626V79.1337C122.807 75.6876 125.42 72.8408 128.584 72.8408H366.945C370.109 72.8408 372.722 75.6876 372.722 79.1337V218.626C372.722 222.072 370.109 224.919 366.945 224.919Z" fill="white"/>
<path d="M31.8254 209.454V232.651C31.8254 235.413 34.064 237.651 36.8254 237.651H87.672C90.4334 237.651 92.672 239.89 92.672 242.651V295.724C92.672 298.485 94.9106 300.724 97.672 300.724H183.2" stroke="#8995B3" stroke-linecap="round" stroke-linejoin="round"/>
<path d="M31.7247 200.049V184.63M31.7247 178.78V169.647" stroke="#8995B3" stroke-linecap="round" stroke-linejoin="round"/>
<path d="M192.922 300.724L208.341 300.724M214.191 300.724L223.324 300.724" stroke="#8995B3" stroke-linecap="round" stroke-linejoin="round"/>
<path d="M125.854 223.579H164.216H212.981C215.743 223.579 217.981 225.817 217.981 228.579L217.981 246.274C217.981 249.035 220.22 251.274 222.981 251.274H288.287C291.048 251.274 293.287 249.035 293.287 246.274V192.654" stroke="#8995B3" stroke-linecap="round" stroke-linejoin="round"/>
<path d="M293.287 185.875V170.456M293.287 164.605V155.473" stroke="#8995B3" stroke-linecap="round" stroke-linejoin="round"/>
<path d="M293.287 98.437V80.2537C293.287 78.5969 291.944 77.2537 290.287 77.2537H284.865M278.03 77.2537L268.899 77.2534" stroke="#8995B3" stroke-linecap="round" stroke-linejoin="round"/>
<path d="M153.623 81.7867L135.44 81.7867C133.783 81.7867 132.44 83.1298 132.44 84.7867L132.44 90.2087M132.439 97.0433L132.439 106.175" stroke="#8995B3" stroke-linecap="round" stroke-linejoin="round"/>
<g filter="url(#filter0_d_376_54993)">
<rect x="183.5" y="17.5684" width="175" height="185" rx="4" fill="#FFFDEB"/>
<g style="mix-blend-mode:luminosity">
<rect x="191.5" y="25.5684" width="41.1348" height="4" rx="2" fill="#C8CDD9"/>
<rect x="191.5" y="33.5684" width="108.417" height="4" rx="2" fill="#F1F4F8"/>
<rect x="191.5" y="41.5684" width="97.1432" height="4" rx="2" fill="#F1F4F8"/>
<rect x="191.5" y="49.5684" width="112.978" height="4" rx="2" fill="#F1F4F8"/>
<rect x="191.5" y="57.5684" width="70.1294" height="4" rx="2" fill="#F1F4F8"/>
</g>
<g style="mix-blend-mode:luminosity">
<rect x="191.5" y="69.5684" width="78" height="4" rx="2" fill="#C8CDD9"/>
<rect x="191.5" y="77.5684" width="116.041" height="4" rx="2" fill="#F1F4F8"/>
<rect x="191.5" y="85.5684" width="97.1432" height="4" rx="2" fill="#F1F4F8"/>
<rect x="191.5" y="93.5684" width="84.3472" height="4" rx="2" fill="#F1F4F8"/>
<rect x="191.5" y="101.568" width="70.1294" height="4" rx="2" fill="#F1F4F8"/>
</g>
<g style="mix-blend-mode:luminosity">
<rect x="191.5" y="113.568" width="97.1432" height="4" rx="2" fill="#C8CDD9"/>
<rect x="191.5" y="121.568" width="79.3373" height="4" rx="2" fill="#F1F4F8"/>
<rect x="191.5" y="129.568" width="111.268" height="4" rx="2" fill="#F1F4F8"/>
<rect x="191.5" y="137.568" width="97.1432" height="4" rx="2" fill="#F1F4F8"/>
<rect x="191.5" y="145.568" width="70.1294" height="4" rx="2" fill="#F1F4F8"/>
</g>
<g style="mix-blend-mode:luminosity">
<rect x="191.5" y="157.568" width="41.1348" height="4" rx="2" fill="#C8CDD9"/>
<rect x="191.5" y="165.568" width="108.417" height="4" rx="2" fill="#F1F4F8"/>
<rect x="191.5" y="173.568" width="97.1432" height="4" rx="2" fill="#F1F4F8"/>
<rect x="191.5" y="181.568" width="112.978" height="4" rx="2" fill="#F1F4F8"/>
<rect x="191.5" y="189.568" width="70.1294" height="4" rx="2" fill="#F1F4F8"/>
</g>
<rect x="184" y="18.0684" width="174" height="184" rx="3.5" stroke="#F8AD07"/>
</g>
<path d="M166.971 305.962H162.521L158.022 304.535V300.647L162.521 302.812L166.971 303.846V305.962Z" fill="#E4003A"/>
<path d="M156.637 305.962H153.275V300.647H158.021V304.535L156.637 305.962Z" fill="#E4003A"/>
<path d="M96.6888 227.438L126.757 234.822L157.956 300.647H153.209L112.015 238.936L78.2946 236.838L96.6888 227.438Z" fill="#303642"/>
<path d="M116.685 304.802L113.413 301.728L111.198 297.617L113.848 294.782L115.588 299.415L118.127 303.281L116.685 304.802Z" fill="#E4003A"/>
<path d="M109.408 298.338L107.478 296.464L111.096 292.631L113.875 294.916L111.594 298.052L109.408 298.338Z" fill="#E4003A"/>
<path d="M66.1305 212.428L95.2054 216.464L130.511 225.716C133.477 226.356 136.524 227.761 137.878 230.44C139.232 233.12 113.786 294.817 113.786 294.817L111.057 292.598L125.263 236.937H79.8274C70.828 236.592 64.0538 228.62 65.2405 219.712L66.1305 212.428Z" fill="#303642"/>
<path d="M166.331 183.408L167.742 182.676C168.186 182.448 168.566 182.113 168.85 181.701C169.134 181.289 169.312 180.813 169.368 180.315C169.363 180.091 169.431 179.871 169.561 179.689C169.691 179.508 169.877 179.373 170.09 179.307L174.091 177.808C174.252 177.748 174.29 177.457 173.958 177.452L170.518 176.731C169.971 176.596 169.403 176.581 168.851 176.689C168.3 176.797 167.779 177.024 167.325 177.356L163.878 179.846L166.331 183.408Z" fill="#F8BFCD"/>
<path d="M74.6292 192.133L79.2967 168.752C79.7034 166.725 80.5658 164.818 81.8178 163.177C83.0698 161.537 84.6783 160.207 86.52 159.288C88.3618 158.37 90.3879 157.888 92.4433 157.879C94.4987 157.87 96.5289 158.335 98.3783 159.237L114.285 166.904C116.016 167.726 117.551 168.91 118.79 170.377C120.028 171.844 120.94 173.561 121.465 175.412C121.99 177.264 122.115 179.206 121.833 181.11C121.551 183.014 120.867 184.835 119.828 186.452L97.1565 216.726L65.3052 214.466L74.6292 192.133Z" fill="#F8AD07"/>
<path d="M130.673 197.209C129.003 197.806 127.201 197.938 125.459 197.591C123.716 197.244 122.097 196.431 120.773 195.238L110.152 185.719L119.04 172.026L130.903 186.815L164.029 179.808L166.441 183.607L130.673 197.209Z" fill="#F8AD07"/>
<path d="M137.659 212.631L138.811 213.716C139.153 214.062 139.581 214.31 140.05 214.433C140.52 214.556 141.013 214.549 141.478 214.414C141.695 214.4 141.912 214.432 142.116 214.508C142.32 214.584 142.505 214.703 142.661 214.856L145.502 218.16C145.722 218.344 145.995 218.295 145.944 218.021L145.446 214.557C145.369 213.994 145.175 213.454 144.877 212.971C144.579 212.487 144.183 212.072 143.716 211.753L140.206 209.238L137.659 212.631Z" fill="#F8BFCD"/>
<path d="M107.696 163.485L102.908 161.206L106.22 178.163L111.505 165.402L107.696 163.485Z" fill="white"/>
<path d="M80.4114 172.999L99.3051 201.243L137.675 212.681L140.194 209.261L107.437 195.365L91.636 168.083L80.4114 172.999Z" fill="#F8AD07"/>
<path d="M119.022 143.785L123.912 144.942L123.175 148.499C123.055 148.997 122.837 149.466 122.534 149.879C122.232 150.292 121.85 150.639 121.412 150.901C120.974 151.164 120.488 151.335 119.984 151.406C119.479 151.477 118.965 151.445 118.473 151.314L117.409 151.106L119.022 143.785Z" fill="#303642"/>
<path d="M106.118 151.676C107.481 149.588 108.393 147.235 108.795 144.769L113.308 145.84L111.712 153.144L106.049 151.814L106.118 151.676Z" fill="#303642"/>
<path d="M119.983 155.993L122.145 146.358L110.819 143.664L108.28 154.854C108.171 155.389 108.273 155.945 108.565 156.406C108.856 156.867 109.314 157.195 109.841 157.323L115.676 158.635C116.131 158.766 116.609 158.801 117.078 158.737C117.548 158.673 117.999 158.512 118.404 158.263C118.809 158.015 119.158 157.685 119.429 157.295C119.701 156.904 119.889 156.461 119.983 155.993Z" fill="#F8BFCD"/>
<path d="M102.908 161.571L108.056 166.751L111.488 165.663L115.486 154.508L110.03 153.299L102.908 161.571Z" fill="#F8BFCD"/>
<path d="M109.12 143.785C109.253 143.208 109.499 142.664 109.842 142.183C110.186 141.703 110.621 141.295 111.122 140.985C111.624 140.675 112.181 140.469 112.762 140.377C113.344 140.285 113.937 140.311 114.509 140.452L125.388 143.042C125.232 143.744 124.939 144.408 124.526 144.995C124.112 145.582 123.586 146.08 122.979 146.459C122.371 146.839 121.695 147.093 120.989 147.206C120.283 147.319 119.561 147.289 118.867 147.117L108.794 144.769L109.12 143.785Z" fill="#303642"/>
<path d="M110.304 148.55C110.531 148.609 110.735 148.733 110.892 148.908C111.048 149.084 111.149 149.301 111.183 149.535C111.216 149.768 111.18 150.005 111.079 150.218C110.979 150.43 110.817 150.608 110.616 150.729C110.415 150.849 110.183 150.907 109.95 150.895C109.716 150.882 109.491 150.801 109.303 150.66C109.116 150.52 108.974 150.326 108.895 150.104C108.817 149.882 108.805 149.642 108.863 149.414C108.969 149.126 109.17 148.884 109.432 148.727C109.694 148.57 110.002 148.507 110.304 148.55Z" fill="#F8BFCD"/>
<path d="M163.354 223.135H127.286C126.179 223.135 125.388 222.344 125.388 221.237V220.762C125.388 219.655 126.179 218.864 127.286 218.864H163.354C164.462 218.864 165.253 219.655 165.253 220.762V221.237C165.253 222.344 164.304 223.135 163.354 223.135Z" fill="#242831"/>
<path d="M161.298 221.556L172.846 184.382C173.005 183.75 173.637 183.433 174.27 183.592C174.903 183.75 175.219 184.382 175.061 185.015L163.513 222.188C163.355 222.821 162.722 223.138 162.089 222.979C161.457 222.821 161.14 222.188 161.298 221.556Z" fill="#242831"/>
<path d="M206.603 209.87H205.718C205.718 209.083 206.042 208.661 206.278 208.324C206.515 208.015 206.692 207.79 206.692 207.256C206.692 206.751 206.515 206.498 206.278 206.189C206.013 205.851 205.718 205.43 205.718 204.643C205.718 203.856 206.042 203.435 206.278 203.098C206.515 202.789 206.692 202.564 206.692 202.03C206.692 201.524 206.515 201.271 206.278 200.962C206.013 200.625 205.718 200.203 205.718 199.417H206.603C206.603 199.922 206.78 200.175 207.016 200.484C207.282 200.822 207.577 201.243 207.577 202.03C207.577 202.817 207.252 203.238 207.016 203.575C206.78 203.884 206.603 204.109 206.603 204.643C206.603 205.149 206.78 205.402 207.016 205.711C207.282 206.048 207.577 206.47 207.577 207.256C207.577 208.043 207.252 208.465 207.016 208.802C206.78 209.111 206.603 209.364 206.603 209.87Z" fill="#C8CDD9"/>
<path d="M202.975 209.869H202.089C202.089 209.083 202.414 208.661 202.65 208.324C202.886 208.015 203.063 207.79 203.063 207.256C203.063 206.75 202.886 206.497 202.65 206.188C202.414 205.879 202.089 205.458 202.089 204.671C202.089 203.884 202.414 203.463 202.65 203.125C202.886 202.816 203.063 202.592 203.063 202.058H203.948C203.948 202.844 203.624 203.266 203.388 203.603C203.152 203.912 202.975 204.165 202.975 204.671C202.975 205.177 203.152 205.43 203.388 205.739C203.653 206.076 203.948 206.497 203.948 207.284C203.948 208.071 203.624 208.493 203.388 208.83C203.152 209.111 202.975 209.364 202.975 209.869Z" fill="#C8CDD9"/>
<path d="M204.863 223.021H204.774C202.296 223.021 200.319 221.138 200.319 218.778V211.472H209.288V218.806C209.288 221.138 207.312 223.021 204.863 223.021Z" fill="#E4003A"/>
<path d="M208.108 220.042C205.895 220.042 204.096 218.328 204.096 216.22C204.096 214.113 205.895 212.398 208.108 212.398C210.321 212.398 212.121 214.113 212.121 216.22C212.15 218.328 210.351 220.042 208.108 220.042ZM208.108 213.775C206.692 213.775 205.571 214.871 205.571 216.192C205.571 217.541 206.722 218.609 208.108 218.609C209.525 218.609 210.646 217.513 210.646 216.192C210.675 214.871 209.525 213.775 208.108 213.775Z" fill="#E4003A"/>
<rect x="405.554" y="114.776" width="7.99102" height="7.99102" transform="rotate(180 405.554 114.776)" fill="#7783A0"/>
<rect x="381.674" y="108.533" width="7.99102" height="7.99102" transform="rotate(-135 381.674 108.533)" fill="#7783A0"/>
<rect x="433.522" y="86.8076" width="7.99102" height="7.99102" transform="rotate(180 433.522 86.8076)" fill="#7783A0"/>
<rect x="421.379" y="108.533" width="7.99102" height="7.99102" transform="rotate(-135 421.379 108.533)" fill="#7783A0"/>
<rect x="405.554" y="58.8389" width="7.99102" height="7.99102" transform="rotate(180 405.554 58.8389)" fill="#7783A0"/>
<rect width="7.99101" height="7.99101" transform="matrix(-0.707107 -0.707106 0.707107 -0.707106 421.379 68.3281)" fill="#7783A0"/>
<rect x="377.585" y="86.8076" width="7.99102" height="7.99102" transform="rotate(180 377.585 86.8076)" fill="#7783A0"/>
<rect width="7.99101" height="7.99101" transform="matrix(-0.707107 -0.707106 0.707107 -0.707106 381.674 68.3281)" fill="#7783A0"/>
<rect x="369.594" y="138.749" width="7.99102" height="7.99102" transform="rotate(180 369.594 138.749)" fill="#F8AD07"/>
<rect width="7.99102" height="7.99102" transform="matrix(-0.707107 -0.707106 0.707107 -0.707106 354.298 135.723)" fill="#F8AD07"/>
<rect x="345.621" y="122.767" width="7.99102" height="7.99102" transform="rotate(-90 345.621 122.767)" fill="#F8AD07"/>
<rect x="348.647" y="107.47" width="7.99102" height="7.99102" transform="rotate(-45 348.647 107.47)" fill="#F8AD07"/>
<rect x="369.594" y="106.785" width="7.99102" height="7.99102" transform="rotate(180 369.594 106.785)" fill="#F8AD07"/>
<rect x="377.585" y="122.767" width="7.99102" height="7.99102" transform="rotate(-90 377.585 122.767)" fill="#F8AD07"/>
<rect x="371.249" y="130.073" width="7.99102" height="7.99102" transform="rotate(-45 371.249 130.073)" fill="#F8AD07"/>
<path fill-rule="evenodd" clip-rule="evenodd" d="M401.558 62.8347C390.525 62.8347 381.581 71.7789 381.581 82.8122C381.581 93.8455 390.525 102.79 401.558 102.79C412.592 102.79 421.536 93.8455 421.536 82.8122C421.536 71.7789 412.592 62.8346 401.558 62.8347ZM401.558 54.8436C386.112 54.8436 373.59 67.3656 373.59 82.8122C373.59 98.2588 386.112 110.781 401.558 110.781C417.005 110.781 429.527 98.2588 429.527 82.8122C429.527 67.3656 417.005 54.8436 401.558 54.8436Z" fill="#870B58"/>
<path fill-rule="evenodd" clip-rule="evenodd" d="M365.599 110.78C361.185 110.78 357.608 114.358 357.608 118.771C357.608 123.185 361.185 126.762 365.599 126.762C370.012 126.762 373.59 123.185 373.59 118.771C373.59 114.358 370.012 110.78 365.599 110.78ZM365.599 102.789C356.772 102.789 349.617 109.945 349.617 118.771C349.617 127.598 356.772 134.753 365.599 134.753C374.425 134.753 381.581 127.598 381.581 118.771C381.581 109.945 374.425 102.789 365.599 102.789Z" fill="#E4003A"/>
<path d="M475.807 253.694C474.928 272.331 466.269 284.015 466.269 284.015C466.269 284.015 462.239 283.983 459.631 269.946C457.024 255.909 470.16 230.305 470.16 230.305C470.16 230.305 475.807 236.03 475.807 253.694Z" fill="#F8AD07"/>
<path d="M442.504 256.248C451.81 272.42 452.992 285.426 452.992 285.426C452.992 285.426 452.268 286.576 442.505 276.158C432.741 265.74 427.317 238.09 427.317 238.09C427.317 238.09 432.983 241.37 442.504 256.248Z" fill="#F8AD07"/>
<path d="M456.569 244.474C456.569 270.764 457.89 285.117 457.89 285.117C457.89 285.117 445.982 260.774 443.374 246.736C440.766 232.699 446.551 206.923 446.551 206.923C446.551 206.923 456.569 226.81 456.569 244.474Z" fill="#F8AD07"/>
<path d="M437.518 273.468H476.548V294.981C476.548 298.847 473.414 301.981 469.548 301.981H444.518C440.652 301.981 437.518 298.847 437.518 294.981V273.468Z" fill="#E94E0F"/>
</g>
<defs>
<filter id="filter0_d_376_54993" x="175.5" y="13.5684" width="191" height="201" filterUnits="userSpaceOnUse" color-interpolation-filters="sRGB">
<feFlood flood-opacity="0" result="BackgroundImageFix"/>
<feColorMatrix in="SourceAlpha" type="matrix" values="0 0 0 0 0 0 0 0 0 0 0 0 0 0 0 0 0 0 127 0" result="hardAlpha"/>
<feOffset dy="4"/>
<feGaussianBlur stdDeviation="4"/>
<feColorMatrix type="matrix" values="0 0 0 0 0.188235 0 0 0 0 0.211765 0 0 0 0 0.258824 0 0 0 0.1 0"/>
<feBlend mode="normal" in2="BackgroundImageFix" result="effect1_dropShadow_376_54993"/>
<feBlend mode="normal" in="SourceGraphic" in2="effect1_dropShadow_376_54993" result="shape"/>
</filter>
<clipPath id="clip0_376_54993">
<rect width="540" height="320" fill="white" transform="translate(0.5 0.568359)"/>
</clipPath>
</defs>
</svg>
